<?xml version="1.0" encoding="UTF-8" standalone="no"?>
<!DOCTYPE svg PUBLIC "-//W3C//DTD SVG 1.1//EN"
 "http://www.w3.org/Graphics/SVG/1.1/DTD/svg11.dtd">
<!-- Generated by graphviz version 2.43.0 (0)
 -->
<!-- Title: src/app/seamly2d/dialogs/vabstractlayoutdialog.h Pages: 1 -->
<svg width="4174pt" height="307pt"
 viewBox="0.00 0.00 4173.50 307.00" xmlns="http://www.w3.org/2000/svg" xmlns:xlink="http://www.w3.org/1999/xlink">
<g id="graph0" class="graph" transform="scale(1 1) rotate(0) translate(4 303)">
<title>src/app/seamly2d/dialogs/vabstractlayoutdialog.h</title>
<polygon fill="white" stroke="transparent" points="-4,4 -4,-303 4169.5,-303 4169.5,4 -4,4"/>
<!-- Node1 -->
<g id="node1" class="node">
<title>Node1</title>
<g id="a_node1"><a xlink:title=" ">
<polygon fill="#bfbfbf" stroke="black" points="1972,-268.5 1972,-298.5 2113,-298.5 2113,-268.5 1972,-268.5"/>
<text text-anchor="start" x="1980" y="-286.5" font-family="Helvetica,sans-Serif" font-size="10.00">src/app/seamly2d/dialogs</text>
<text text-anchor="middle" x="2042.5" y="-275.5" font-family="Helvetica,sans-Serif" font-size="10.00">/vabstractlayoutdialog.h</text>
</a>
</g>
</g>
<!-- Node2 -->
<g id="node2" class="node">
<title>Node2</title>
<g id="a_node2"><a xlink:href="../../d2/d2b/dialoglayoutsettings_8h.html" target="_top" xlink:title=" ">
<polygon fill="white" stroke="black" points="1972,-201.5 1972,-231.5 2113,-231.5 2113,-201.5 1972,-201.5"/>
<text text-anchor="start" x="1980" y="-219.5" font-family="Helvetica,sans-Serif" font-size="10.00">src/app/seamly2d/dialogs</text>
<text text-anchor="middle" x="2042.5" y="-208.5" font-family="Helvetica,sans-Serif" font-size="10.00">/dialoglayoutsettings.h</text>
</a>
</g>
</g>
<!-- Node1&#45;&gt;Node2 -->
<g id="edge1" class="edge">
<title>Node1&#45;&gt;Node2</title>
<path fill="none" stroke="midnightblue" d="M2042.5,-258.11C2042.5,-249.15 2042.5,-239.32 2042.5,-231.58"/>
<polygon fill="midnightblue" stroke="midnightblue" points="2039,-258.4 2042.5,-268.4 2046,-258.4 2039,-258.4"/>
</g>
<!-- Node23 -->
<g id="node23" class="node">
<title>Node23</title>
<g id="a_node23"><a xlink:href="../../d5/de4/vabstractlayoutdialog_8cpp.html" target="_top" xlink:title=" ">
<polygon fill="white" stroke="black" points="4019.5,-0.5 4019.5,-30.5 4165.5,-30.5 4165.5,-0.5 4019.5,-0.5"/>
<text text-anchor="start" x="4027.5" y="-18.5" font-family="Helvetica,sans-Serif" font-size="10.00">src/app/seamly2d/dialogs</text>
<text text-anchor="middle" x="4092.5" y="-7.5" font-family="Helvetica,sans-Serif" font-size="10.00">/vabstractlayoutdialog.cpp</text>
</a>
</g>
</g>
<!-- Node1&#45;&gt;Node23 -->
<g id="edge41" class="edge">
<title>Node1&#45;&gt;Node23</title>
<path fill="none" stroke="midnightblue" d="M2123.33,-273.58C2392.1,-243.61 3280.11,-142.18 4010.5,-31 4013.36,-30.56 4016.27,-30.11 4019.21,-29.64"/>
<polygon fill="midnightblue" stroke="midnightblue" points="2122.82,-270.11 2113.27,-274.7 2123.6,-277.07 2122.82,-270.11"/>
</g>
<!-- Node30 -->
<g id="node30" class="node">
<title>Node30</title>
<g id="a_node30"><a xlink:href="../../d1/d8e/export__layout__dialog_8h.html" target="_top" xlink:title=" ">
<polygon fill="white" stroke="black" points="293,-201.5 293,-231.5 434,-231.5 434,-201.5 293,-201.5"/>
<text text-anchor="start" x="301" y="-219.5" font-family="Helvetica,sans-Serif" font-size="10.00">src/app/seamly2d/dialogs</text>
<text text-anchor="middle" x="363.5" y="-208.5" font-family="Helvetica,sans-Serif" font-size="10.00">/export_layout_dialog.h</text>
</a>
</g>
</g>
<!-- Node1&#45;&gt;Node30 -->
<g id="edge35" class="edge">
<title>Node1&#45;&gt;Node30</title>
<path fill="none" stroke="midnightblue" d="M1961.62,-279.37C1674.2,-268.24 704.83,-230.71 434.2,-220.24"/>
<polygon fill="midnightblue" stroke="midnightblue" points="1961.83,-282.88 1971.96,-279.77 1962.1,-275.88 1961.83,-282.88"/>
</g>
<!-- Node3 -->
<g id="node3" class="node">
<title>Node3</title>
<g id="a_node3"><a xlink:href="../../dd/d57/vcmdexport_8h.html" target="_top" xlink:title=" ">
<polygon fill="white" stroke="black" points="1920,-134.5 1920,-164.5 2047,-164.5 2047,-134.5 1920,-134.5"/>
<text text-anchor="start" x="1928" y="-152.5" font-family="Helvetica,sans-Serif" font-size="10.00">src/app/seamly2d/core</text>
<text text-anchor="middle" x="1983.5" y="-141.5" font-family="Helvetica,sans-Serif" font-size="10.00">/vcmdexport.h</text>
</a>
</g>
</g>
<!-- Node2&#45;&gt;Node3 -->
<g id="edge2" class="edge">
<title>Node2&#45;&gt;Node3</title>
<path fill="none" stroke="midnightblue" d="M2022.75,-193.74C2014.02,-184.12 2004,-173.09 1996.28,-164.58"/>
<polygon fill="midnightblue" stroke="midnightblue" points="2020.39,-196.34 2029.7,-201.4 2025.57,-191.64 2020.39,-196.34"/>
</g>
<!-- Node14 -->
<g id="node14" class="node">
<title>Node14</title>
<g id="a_node14"><a xlink:href="../../db/def/dialoglayoutsettings_8cpp.html" target="_top" xlink:title=" ">
<polygon fill="white" stroke="black" points="3860,-0.5 3860,-30.5 4001,-30.5 4001,-0.5 3860,-0.5"/>
<text text-anchor="start" x="3868" y="-18.5" font-family="Helvetica,sans-Serif" font-size="10.00">src/app/seamly2d/dialogs</text>
<text text-anchor="middle" x="3930.5" y="-7.5" font-family="Helvetica,sans-Serif" font-size="10.00">/dialoglayoutsettings.cpp</text>
</a>
</g>
</g>
<!-- Node2&#45;&gt;Node14 -->
<g id="edge33" class="edge">
<title>Node2&#45;&gt;Node14</title>
<path fill="none" stroke="midnightblue" d="M2123.28,-209.58C2378,-190.4 3186.81,-125.74 3851.5,-31 3854.26,-30.61 3857.07,-30.19 3859.91,-29.74"/>
<polygon fill="midnightblue" stroke="midnightblue" points="2122.72,-206.11 2113.01,-210.35 2123.24,-213.09 2122.72,-206.11"/>
</g>
<!-- Node25 -->
<g id="node25" class="node">
<title>Node25</title>
<g id="a_node25"><a xlink:href="../../d8/de8/mainwindowsnogui_8cpp.html" target="_top" xlink:title=" ">
<polygon fill="white" stroke="black" points="0,-6 0,-25 221,-25 221,-6 0,-6"/>
<text text-anchor="middle" x="110.5" y="-13" font-family="Helvetica,sans-Serif" font-size="10.00">src/app/seamly2d/mainwindowsnogui.cpp</text>
</a>
</g>
</g>
<!-- Node2&#45;&gt;Node25 -->
<g id="edge34" class="edge">
<title>Node2&#45;&gt;Node25</title>
<path fill="none" stroke="midnightblue" d="M1961.72,-211.59C1740.33,-200.33 1105.54,-164.27 581.5,-98 421.99,-77.83 234.13,-41.51 152.21,-25.03"/>
<polygon fill="midnightblue" stroke="midnightblue" points="1961.78,-215.1 1971.94,-212.11 1962.13,-208.11 1961.78,-215.1"/>
</g>
<!-- Node28 -->
<g id="node28" class="node">
<title>Node28</title>
<g id="a_node28"><a xlink:href="../../df/d9b/vcmdexport_8cpp.html" target="_top" xlink:title=" ">
<polygon fill="white" stroke="black" points="2051,-67.5 2051,-97.5 2178,-97.5 2178,-67.5 2051,-67.5"/>
<text text-anchor="start" x="2059" y="-85.5" font-family="Helvetica,sans-Serif" font-size="10.00">src/app/seamly2d/core</text>
<text text-anchor="middle" x="2114.5" y="-74.5" font-family="Helvetica,sans-Serif" font-size="10.00">/vcmdexport.cpp</text>
</a>
</g>
</g>
<!-- Node2&#45;&gt;Node28 -->
<g id="edge32" class="edge">
<title>Node2&#45;&gt;Node28</title>
<path fill="none" stroke="midnightblue" d="M2055.06,-192.48C2070.01,-165.07 2094.49,-120.19 2106.85,-97.52"/>
<polygon fill="midnightblue" stroke="midnightblue" points="2051.92,-190.92 2050.21,-201.37 2058.07,-194.27 2051.92,-190.92"/>
</g>
<!-- Node4 -->
<g id="node4" class="node">
<title>Node4</title>
<g id="a_node4"><a xlink:href="../../d9/d02/vapplication_8h.html" target="_top" xlink:title=" ">
<polygon fill="white" stroke="black" points="1906,-67.5 1906,-97.5 2033,-97.5 2033,-67.5 1906,-67.5"/>
<text text-anchor="start" x="1914" y="-85.5" font-family="Helvetica,sans-Serif" font-size="10.00">src/app/seamly2d/core</text>
<text text-anchor="middle" x="1969.5" y="-74.5" font-family="Helvetica,sans-Serif" font-size="10.00">/vapplication.h</text>
</a>
</g>
</g>
<!-- Node3&#45;&gt;Node4 -->
<g id="edge3" class="edge">
<title>Node3&#45;&gt;Node4</title>
<path fill="none" stroke="midnightblue" d="M1978.31,-124.4C1976.36,-115.37 1974.22,-105.41 1972.53,-97.58"/>
<polygon fill="midnightblue" stroke="midnightblue" points="1974.94,-125.36 1980.46,-134.4 1981.78,-123.88 1974.94,-125.36"/>
</g>
<!-- Node3&#45;&gt;Node28 -->
<g id="edge27" class="edge">
<title>Node3&#45;&gt;Node28</title>
<path fill="none" stroke="midnightblue" d="M2021.08,-129.85C2041.79,-119.58 2067.09,-107.03 2086.13,-97.58"/>
<polygon fill="midnightblue" stroke="midnightblue" points="2019.33,-126.82 2011.93,-134.4 2022.44,-133.09 2019.33,-126.82"/>
</g>
<!-- Node29 -->
<g id="node29" class="node">
<title>Node29</title>
<g id="a_node29"><a xlink:href="../../d9/d53/mainwindow_8h.html" target="_top" xlink:title=" ">
<polygon fill="white" stroke="black" points="590.5,-73 590.5,-92 766.5,-92 766.5,-73 590.5,-73"/>
<text text-anchor="middle" x="678.5" y="-80" font-family="Helvetica,sans-Serif" font-size="10.00">src/app/seamly2d/mainwindow.h</text>
</a>
</g>
</g>
<!-- Node3&#45;&gt;Node29 -->
<g id="edge28" class="edge">
<title>Node3&#45;&gt;Node29</title>
<path fill="none" stroke="midnightblue" d="M1909.63,-144.82C1684.78,-133.62 1009.31,-99.98 766.57,-87.89"/>
<polygon fill="midnightblue" stroke="midnightblue" points="1909.51,-148.32 1919.67,-145.32 1909.86,-141.33 1909.51,-148.32"/>
</g>
<!-- Node5 -->
<g id="node5" class="node">
<title>Node5</title>
<g id="a_node5"><a xlink:href="../../d3/dd8/vapplication_8cpp.html" target="_top" xlink:title=" ">
<polygon fill="white" stroke="black" points="776,-0.5 776,-30.5 903,-30.5 903,-0.5 776,-0.5"/>
<text text-anchor="start" x="784" y="-18.5" font-family="Helvetica,sans-Serif" font-size="10.00">src/app/seamly2d/core</text>
<text text-anchor="middle" x="839.5" y="-7.5" font-family="Helvetica,sans-Serif" font-size="10.00">/vapplication.cpp</text>
</a>
</g>
</g>
<!-- Node4&#45;&gt;Node5 -->
<g id="edge4" class="edge">
<title>Node4&#45;&gt;Node5</title>
<path fill="none" stroke="midnightblue" d="M1895.45,-81.8C1722.5,-81.66 1278.8,-76.49 911.5,-31 908.72,-30.66 905.88,-30.26 903.02,-29.83"/>
<polygon fill="midnightblue" stroke="midnightblue" points="1895.71,-85.3 1905.71,-81.8 1895.71,-78.3 1895.71,-85.3"/>
</g>
<!-- Node6 -->
<g id="node6" class="node">
<title>Node6</title>
<g id="a_node6"><a xlink:href="../../d7/dfa/calculator__dialog_8cpp.html" target="_top" xlink:title=" ">
<polygon fill="white" stroke="black" points="2788,-0.5 2788,-30.5 2929,-30.5 2929,-0.5 2788,-0.5"/>
<text text-anchor="start" x="2796" y="-18.5" font-family="Helvetica,sans-Serif" font-size="10.00">src/app/seamly2d/dialogs</text>
<text text-anchor="middle" x="2858.5" y="-7.5" font-family="Helvetica,sans-Serif" font-size="10.00">/calculator_dialog.cpp</text>
</a>
</g>
</g>
<!-- Node4&#45;&gt;Node6 -->
<g id="edge5" class="edge">
<title>Node4&#45;&gt;Node6</title>
<path fill="none" stroke="midnightblue" d="M2043.34,-67.05C2369.77,-27.79 2457.07,-68.3 2779.5,-31 2782.27,-30.68 2785.09,-30.32 2787.93,-29.93"/>
<polygon fill="midnightblue" stroke="midnightblue" points="2042.62,-63.61 2033.11,-68.29 2043.46,-70.56 2042.62,-63.61"/>
</g>
<!-- Node7 -->
<g id="node7" class="node">
<title>Node7</title>
<g id="a_node7"><a xlink:href="../../d2/d2d/preferencesconfigurationpage_8cpp.html" target="_top" xlink:title=" ">
<polygon fill="white" stroke="black" points="2947,-0.5 2947,-30.5 3194,-30.5 3194,-0.5 2947,-0.5"/>
<text text-anchor="start" x="2955" y="-18.5" font-family="Helvetica,sans-Serif" font-size="10.00">src/app/seamly2d/dialogs</text>
<text text-anchor="middle" x="3070.5" y="-7.5" font-family="Helvetica,sans-Serif" font-size="10.00">/configpages/preferencesconfigurationpage.cpp</text>
</a>
</g>
</g>
<!-- Node4&#45;&gt;Node7 -->
<g id="edge6" class="edge">
<title>Node4&#45;&gt;Node7</title>
<path fill="none" stroke="midnightblue" d="M2043.14,-67.08C2439.99,-20.71 2544.37,-60.53 2938.5,-31 2941.26,-30.79 2944.05,-30.57 2946.86,-30.34"/>
<polygon fill="midnightblue" stroke="midnightblue" points="2042.63,-63.61 2033.11,-68.26 2043.45,-70.56 2042.63,-63.61"/>
</g>
<!-- Node8 -->
<g id="node8" class="node">
<title>Node8</title>
<g id="a_node8"><a xlink:href="../../dc/d20/preferencespathpage_8cpp.html" target="_top" xlink:title=" ">
<polygon fill="white" stroke="black" points="3212,-0.5 3212,-30.5 3417,-30.5 3417,-0.5 3212,-0.5"/>
<text text-anchor="start" x="3220" y="-18.5" font-family="Helvetica,sans-Serif" font-size="10.00">src/app/seamly2d/dialogs</text>
<text text-anchor="middle" x="3314.5" y="-7.5" font-family="Helvetica,sans-Serif" font-size="10.00">/configpages/preferencespathpage.cpp</text>
</a>
</g>
</g>
<!-- Node4&#45;&gt;Node8 -->
<g id="edge7" class="edge">
<title>Node4&#45;&gt;Node8</title>
<path fill="none" stroke="midnightblue" d="M2043.38,-67.06C2557.2,-9.35 2692.31,-72.21 3203.5,-31 3206.21,-30.78 3208.96,-30.54 3211.73,-30.29"/>
<polygon fill="midnightblue" stroke="midnightblue" points="2042.65,-63.62 2033.1,-68.22 2043.43,-70.58 2042.65,-63.62"/>
</g>
<!-- Node9 -->
<g id="node9" class="node">
<title>Node9</title>
<g id="a_node9"><a xlink:href="../../d9/d70/preferencesgraphicsviewpage_8cpp.html" target="_top" xlink:title=" ">
<polygon fill="white" stroke="black" points="3434.5,-0.5 3434.5,-30.5 3682.5,-30.5 3682.5,-0.5 3434.5,-0.5"/>
<text text-anchor="start" x="3442.5" y="-18.5" font-family="Helvetica,sans-Serif" font-size="10.00">src/app/seamly2d/dialogs</text>
<text text-anchor="middle" x="3558.5" y="-7.5" font-family="Helvetica,sans-Serif" font-size="10.00">/configpages/preferencesgraphicsviewpage.cpp</text>
</a>
</g>
</g>
<!-- Node4&#45;&gt;Node9 -->
<g id="edge8" class="edge">
<title>Node4&#45;&gt;Node9</title>
<path fill="none" stroke="midnightblue" d="M2043.07,-67.1C2655.75,0.4 2815.89,-72.41 3426.5,-31 3429.03,-30.83 3431.59,-30.64 3434.16,-30.45"/>
<polygon fill="midnightblue" stroke="midnightblue" points="2042.65,-63.62 2033.1,-68.21 2043.43,-70.58 2042.65,-63.62"/>
</g>
<!-- Node10 -->
<g id="node10" class="node">
<title>Node10</title>
<g id="a_node10"><a xlink:href="../../dd/dc2/decimalchart__dialog_8cpp.html" target="_top" xlink:title=" ">
<polygon fill="white" stroke="black" points="3701,-0.5 3701,-30.5 3842,-30.5 3842,-0.5 3701,-0.5"/>
<text text-anchor="start" x="3709" y="-18.5" font-family="Helvetica,sans-Serif" font-size="10.00">src/app/seamly2d/dialogs</text>
<text text-anchor="middle" x="3771.5" y="-7.5" font-family="Helvetica,sans-Serif" font-size="10.00">/decimalchart_dialog.cpp</text>
</a>
</g>
</g>
<!-- Node4&#45;&gt;Node10 -->
<g id="edge9" class="edge">
<title>Node4&#45;&gt;Node10</title>
<path fill="none" stroke="midnightblue" d="M2043.07,-67.11C2772.95,11.66 2965.43,-104.26 3691.5,-31 3694.59,-30.69 3697.74,-30.32 3700.92,-29.92"/>
<polygon fill="midnightblue" stroke="midnightblue" points="2042.66,-63.63 2033.1,-68.19 2043.42,-70.59 2042.66,-63.63"/>
</g>
<!-- Node11 -->
<g id="node11" class="node">
<title>Node11</title>
<g id="a_node11"><a xlink:href="../../dd/d64/dialogaboutapp_8cpp.html" target="_top" xlink:title=" ">
<polygon fill="white" stroke="black" points="921,-0.5 921,-30.5 1062,-30.5 1062,-0.5 921,-0.5"/>
<text text-anchor="start" x="929" y="-18.5" font-family="Helvetica,sans-Serif" font-size="10.00">src/app/seamly2d/dialogs</text>
<text text-anchor="middle" x="991.5" y="-7.5" font-family="Helvetica,sans-Serif" font-size="10.00">/dialogaboutapp.cpp</text>
</a>
</g>
</g>
<!-- Node4&#45;&gt;Node11 -->
<g id="edge10" class="edge">
<title>Node4&#45;&gt;Node11</title>
<path fill="none" stroke="midnightblue" d="M1895.58,-80.42C1741.71,-77.49 1376,-67.02 1071.5,-31 1068.42,-30.64 1065.27,-30.23 1062.1,-29.78"/>
<polygon fill="midnightblue" stroke="midnightblue" points="1895.78,-83.92 1905.85,-80.61 1895.91,-76.92 1895.78,-83.92"/>
</g>
<!-- Node12 -->
<g id="node12" class="node">
<title>Node12</title>
<g id="a_node12"><a xlink:href="../../dc/d63/preferencespatternpage_8cpp.html" target="_top" xlink:title=" ">
<polygon fill="white" stroke="black" points="1080.5,-0.5 1080.5,-30.5 1298.5,-30.5 1298.5,-0.5 1080.5,-0.5"/>
<text text-anchor="start" x="1088.5" y="-18.5" font-family="Helvetica,sans-Serif" font-size="10.00">src/app/seamly2d/dialogs</text>
<text text-anchor="middle" x="1189.5" y="-7.5" font-family="Helvetica,sans-Serif" font-size="10.00">/configpages/preferencespatternpage.cpp</text>
</a>
</g>
</g>
<!-- Node4&#45;&gt;Node12 -->
<g id="edge11" class="edge">
<title>Node4&#45;&gt;Node12</title>
<path fill="none" stroke="midnightblue" d="M1895.97,-77C1773.69,-69.27 1520.86,-52.24 1307.5,-31 1304.62,-30.71 1301.71,-30.42 1298.77,-30.11"/>
<polygon fill="midnightblue" stroke="midnightblue" points="1895.77,-80.5 1905.97,-77.63 1896.21,-73.51 1895.77,-80.5"/>
</g>
<!-- Node13 -->
<g id="node13" class="node">
<title>Node13</title>
<g id="a_node13"><a xlink:href="../../d6/d89/dialoglayoutprogress_8cpp.html" target="_top" xlink:title=" ">
<polygon fill="white" stroke="black" points="1317,-0.5 1317,-30.5 1460,-30.5 1460,-0.5 1317,-0.5"/>
<text text-anchor="start" x="1325" y="-18.5" font-family="Helvetica,sans-Serif" font-size="10.00">src/app/seamly2d/dialogs</text>
<text text-anchor="middle" x="1388.5" y="-7.5" font-family="Helvetica,sans-Serif" font-size="10.00">/dialoglayoutprogress.cpp</text>
</a>
</g>
</g>
<!-- Node4&#45;&gt;Node13 -->
<g id="edge12" class="edge">
<title>Node4&#45;&gt;Node13</title>
<path fill="none" stroke="midnightblue" d="M1895.55,-75.88C1797.61,-68.02 1619.62,-52.28 1468.5,-31 1465.84,-30.63 1463.14,-30.23 1460.42,-29.81"/>
<polygon fill="midnightblue" stroke="midnightblue" points="1895.4,-79.38 1905.64,-76.69 1895.95,-72.4 1895.4,-79.38"/>
</g>
<!-- Node4&#45;&gt;Node14 -->
<g id="edge13" class="edge">
<title>Node4&#45;&gt;Node14</title>
<path fill="none" stroke="midnightblue" d="M2043.14,-67.1C2843.72,18.58 3054.74,-111.52 3851.5,-31 3854.27,-30.72 3857.1,-30.39 3859.95,-30.03"/>
<polygon fill="midnightblue" stroke="midnightblue" points="2042.67,-63.63 2033.1,-68.18 2043.42,-70.59 2042.67,-63.63"/>
</g>
<!-- Node15 -->
<g id="node15" class="node">
<title>Node15</title>
<g id="a_node15"><a xlink:href="../../de/d87/dialognewpattern_8cpp.html" target="_top" xlink:title=" ">
<polygon fill="white" stroke="black" points="1478,-0.5 1478,-30.5 1619,-30.5 1619,-0.5 1478,-0.5"/>
<text text-anchor="start" x="1486" y="-18.5" font-family="Helvetica,sans-Serif" font-size="10.00">src/app/seamly2d/dialogs</text>
<text text-anchor="middle" x="1548.5" y="-7.5" font-family="Helvetica,sans-Serif" font-size="10.00">/dialognewpattern.cpp</text>
</a>
</g>
</g>
<!-- Node4&#45;&gt;Node15 -->
<g id="edge14" class="edge">
<title>Node4&#45;&gt;Node15</title>
<path fill="none" stroke="midnightblue" d="M1895.78,-71.37C1826.44,-61.67 1719.77,-46.28 1627.5,-31 1624.75,-30.54 1621.94,-30.07 1619.11,-29.59"/>
<polygon fill="midnightblue" stroke="midnightblue" points="1895.35,-74.85 1905.73,-72.76 1896.31,-67.91 1895.35,-74.85"/>
</g>
<!-- Node16 -->
<g id="node16" class="node">
<title>Node16</title>
<g id="a_node16"><a xlink:href="../../d5/d18/dialogpatternproperties_8cpp.html" target="_top" xlink:title=" ">
<polygon fill="white" stroke="black" points="1637,-0.5 1637,-30.5 1792,-30.5 1792,-0.5 1637,-0.5"/>
<text text-anchor="start" x="1645" y="-18.5" font-family="Helvetica,sans-Serif" font-size="10.00">src/app/seamly2d/dialogs</text>
<text text-anchor="middle" x="1714.5" y="-7.5" font-family="Helvetica,sans-Serif" font-size="10.00">/dialogpatternproperties.cpp</text>
</a>
</g>
</g>
<!-- Node4&#45;&gt;Node16 -->
<g id="edge15" class="edge">
<title>Node4&#45;&gt;Node16</title>
<path fill="none" stroke="midnightblue" d="M1904.71,-64.98C1863.06,-54.37 1809.52,-40.72 1769.86,-30.61"/>
<polygon fill="midnightblue" stroke="midnightblue" points="1903.93,-68.4 1914.48,-67.48 1905.66,-61.61 1903.93,-68.4"/>
</g>
<!-- Node17 -->
<g id="node17" class="node">
<title>Node17</title>
<g id="a_node17"><a xlink:href="../../d5/dc5/dialogpreferences_8cpp.html" target="_top" xlink:title=" ">
<polygon fill="white" stroke="black" points="1810,-0.5 1810,-30.5 1951,-30.5 1951,-0.5 1810,-0.5"/>
<text text-anchor="start" x="1818" y="-18.5" font-family="Helvetica,sans-Serif" font-size="10.00">src/app/seamly2d/dialogs</text>
<text text-anchor="middle" x="1880.5" y="-7.5" font-family="Helvetica,sans-Serif" font-size="10.00">/dialogpreferences.cpp</text>
</a>
</g>
</g>
<!-- Node4&#45;&gt;Node17 -->
<g id="edge16" class="edge">
<title>Node4&#45;&gt;Node17</title>
<path fill="none" stroke="midnightblue" d="M1942.05,-61.45C1928.36,-51.45 1912.13,-39.6 1899.77,-30.58"/>
<polygon fill="midnightblue" stroke="midnightblue" points="1940.05,-64.32 1950.19,-67.4 1944.18,-58.67 1940.05,-64.32"/>
</g>
<!-- Node18 -->
<g id="node18" class="node">
<title>Node18</title>
<g id="a_node18"><a xlink:href="../../d2/d00/vtooloptionspropertybrowser_8cpp.html" target="_top" xlink:title=" ">
<polygon fill="white" stroke="black" points="1969.5,-0.5 1969.5,-30.5 2149.5,-30.5 2149.5,-0.5 1969.5,-0.5"/>
<text text-anchor="start" x="1977.5" y="-18.5" font-family="Helvetica,sans-Serif" font-size="10.00">src/app/seamly2d/core</text>
<text text-anchor="middle" x="2059.5" y="-7.5" font-family="Helvetica,sans-Serif" font-size="10.00">/vtooloptionspropertybrowser.cpp</text>
</a>
</g>
</g>
<!-- Node4&#45;&gt;Node18 -->
<g id="edge17" class="edge">
<title>Node4&#45;&gt;Node18</title>
<path fill="none" stroke="midnightblue" d="M1997.26,-61.45C2011.11,-51.45 2027.52,-39.6 2040.01,-30.58"/>
<polygon fill="midnightblue" stroke="midnightblue" points="1995.09,-58.7 1989.03,-67.4 1999.18,-64.38 1995.09,-58.7"/>
</g>
<!-- Node19 -->
<g id="node19" class="node">
<title>Node19</title>
<g id="a_node19"><a xlink:href="../../dd/d54/export__layout__dialog_8cpp.html" target="_top" xlink:title=" ">
<polygon fill="white" stroke="black" points="239,-0.5 239,-30.5 382,-30.5 382,-0.5 239,-0.5"/>
<text text-anchor="start" x="247" y="-18.5" font-family="Helvetica,sans-Serif" font-size="10.00">src/app/seamly2d/dialogs</text>
<text text-anchor="middle" x="310.5" y="-7.5" font-family="Helvetica,sans-Serif" font-size="10.00">/export_layout_dialog.cpp</text>
</a>
</g>
</g>
<!-- Node4&#45;&gt;Node19 -->
<g id="edge18" class="edge">
<title>Node4&#45;&gt;Node19</title>
<path fill="none" stroke="midnightblue" d="M1895.83,-80.59C1625.45,-77 688.06,-62.55 390.5,-31 387.83,-30.72 385.12,-30.4 382.39,-30.05"/>
<polygon fill="midnightblue" stroke="midnightblue" points="1895.88,-84.09 1905.93,-80.72 1895.97,-77.09 1895.88,-84.09"/>
</g>
<!-- Node20 -->
<g id="node20" class="node">
<title>Node20</title>
<g id="a_node20"><a xlink:href="../../db/d5c/groups__widget_8cpp.html" target="_top" xlink:title=" ">
<polygon fill="white" stroke="black" points="2168,-0.5 2168,-30.5 2309,-30.5 2309,-0.5 2168,-0.5"/>
<text text-anchor="start" x="2176" y="-18.5" font-family="Helvetica,sans-Serif" font-size="10.00">src/app/seamly2d/dialogs</text>
<text text-anchor="middle" x="2238.5" y="-7.5" font-family="Helvetica,sans-Serif" font-size="10.00">/groups_widget.cpp</text>
</a>
</g>
</g>
<!-- Node4&#45;&gt;Node20 -->
<g id="edge19" class="edge">
<title>Node4&#45;&gt;Node20</title>
<path fill="none" stroke="midnightblue" d="M2037.29,-65.12C2081.31,-54.48 2138.09,-40.76 2180.1,-30.61"/>
<polygon fill="midnightblue" stroke="midnightblue" points="2036.44,-61.73 2027.54,-67.48 2038.08,-68.53 2036.44,-61.73"/>
</g>
<!-- Node21 -->
<g id="node21" class="node">
<title>Node21</title>
<g id="a_node21"><a xlink:href="../../dd/d84/shortcuts__dialog_8cpp.html" target="_top" xlink:title=" ">
<polygon fill="white" stroke="black" points="2327,-0.5 2327,-30.5 2468,-30.5 2468,-0.5 2327,-0.5"/>
<text text-anchor="start" x="2335" y="-18.5" font-family="Helvetica,sans-Serif" font-size="10.00">src/app/seamly2d/dialogs</text>
<text text-anchor="middle" x="2397.5" y="-7.5" font-family="Helvetica,sans-Serif" font-size="10.00">/shortcuts_dialog.cpp</text>
</a>
</g>
</g>
<!-- Node4&#45;&gt;Node21 -->
<g id="edge20" class="edge">
<title>Node4&#45;&gt;Node21</title>
<path fill="none" stroke="midnightblue" d="M2043.35,-66.94C2166.3,-47.09 2199.51,-49.67 2318.5,-31 2321.26,-30.57 2324.06,-30.11 2326.9,-29.65"/>
<polygon fill="midnightblue" stroke="midnightblue" points="2042.46,-63.53 2033.16,-68.6 2043.59,-70.44 2042.46,-63.53"/>
</g>
<!-- Node22 -->
<g id="node22" class="node">
<title>Node22</title>
<g id="a_node22"><a xlink:href="../../d2/df4/show__info__dialog_8cpp.html" target="_top" xlink:title=" ">
<polygon fill="white" stroke="black" points="2486,-0.5 2486,-30.5 2627,-30.5 2627,-0.5 2486,-0.5"/>
<text text-anchor="start" x="2494" y="-18.5" font-family="Helvetica,sans-Serif" font-size="10.00">src/app/seamly2d/dialogs</text>
<text text-anchor="middle" x="2556.5" y="-7.5" font-family="Helvetica,sans-Serif" font-size="10.00">/show_info_dialog.cpp</text>
</a>
</g>
</g>
<!-- Node4&#45;&gt;Node22 -->
<g id="edge21" class="edge">
<title>Node4&#45;&gt;Node22</title>
<path fill="none" stroke="midnightblue" d="M2043.04,-67.04C2236.33,-40.59 2288.39,-56.12 2477.5,-31 2480.26,-30.63 2483.08,-30.23 2485.92,-29.81"/>
<polygon fill="midnightblue" stroke="midnightblue" points="2042.55,-63.58 2033.13,-68.42 2043.52,-70.51 2042.55,-63.58"/>
</g>
<!-- Node4&#45;&gt;Node23 -->
<g id="edge22" class="edge">
<title>Node4&#45;&gt;Node23</title>
<path fill="none" stroke="midnightblue" d="M2043.05,-67.11C2914.02,25.52 3143.07,-115.1 4010.5,-31 4013.38,-30.72 4016.31,-30.4 4019.26,-30.04"/>
<polygon fill="midnightblue" stroke="midnightblue" points="2042.67,-63.63 2033.1,-68.18 2043.41,-70.59 2042.67,-63.63"/>
</g>
<!-- Node24 -->
<g id="node24" class="node">
<title>Node24</title>
<g id="a_node24"><a xlink:href="../../dc/d14/app_2seamly2d_2main_8cpp.html" target="_top" xlink:title=" ">
<polygon fill="white" stroke="black" points="400,-6 400,-25 551,-25 551,-6 400,-6"/>
<text text-anchor="middle" x="475.5" y="-13" font-family="Helvetica,sans-Serif" font-size="10.00">src/app/seamly2d/main.cpp</text>
</a>
</g>
</g>
<!-- Node4&#45;&gt;Node24 -->
<g id="edge23" class="edge">
<title>Node4&#45;&gt;Node24</title>
<path fill="none" stroke="midnightblue" d="M1895.47,-80.15C1643.93,-75.36 823.18,-57.99 560.5,-31 546.95,-29.61 532.29,-27.37 519.03,-25.07"/>
<polygon fill="midnightblue" stroke="midnightblue" points="1895.54,-83.65 1905.6,-80.34 1895.67,-76.65 1895.54,-83.65"/>
</g>
<!-- Node4&#45;&gt;Node25 -->
<g id="edge24" class="edge">
<title>Node4&#45;&gt;Node25</title>
<path fill="none" stroke="midnightblue" d="M1895.78,-81.79C1655.57,-82.21 873.82,-79.5 229.5,-31 210.61,-29.58 190.12,-27.34 171.54,-25.03"/>
<polygon fill="midnightblue" stroke="midnightblue" points="1895.8,-85.29 1905.79,-81.77 1895.79,-78.29 1895.8,-85.29"/>
</g>
<!-- Node26 -->
<g id="node26" class="node">
<title>Node26</title>
<g id="a_node26"><a xlink:href="../../d8/dd9/mainwindow_8cpp.html" target="_top" xlink:title=" ">
<polygon fill="white" stroke="black" points="569.5,-6 569.5,-25 757.5,-25 757.5,-6 569.5,-6"/>
<text text-anchor="middle" x="663.5" y="-13" font-family="Helvetica,sans-Serif" font-size="10.00">src/app/seamly2d/mainwindow.cpp</text>
</a>
</g>
</g>
<!-- Node4&#45;&gt;Node26 -->
<g id="edge25" class="edge">
<title>Node4&#45;&gt;Node26</title>
<path fill="none" stroke="midnightblue" d="M1895.7,-80.91C1707.24,-78.87 1192.96,-69.87 766.5,-31 750.31,-29.52 732.78,-27.29 716.84,-25.02"/>
<polygon fill="midnightblue" stroke="midnightblue" points="1895.74,-84.41 1905.77,-81.02 1895.81,-77.41 1895.74,-84.41"/>
</g>
<!-- Node27 -->
<g id="node27" class="node">
<title>Node27</title>
<g id="a_node27"><a xlink:href="../../d3/d49/vpattern_8cpp.html" target="_top" xlink:title=" ">
<polygon fill="white" stroke="black" points="2645,-0.5 2645,-30.5 2770,-30.5 2770,-0.5 2645,-0.5"/>
<text text-anchor="start" x="2653" y="-18.5" font-family="Helvetica,sans-Serif" font-size="10.00">src/app/seamly2d/xml</text>
<text text-anchor="middle" x="2707.5" y="-7.5" font-family="Helvetica,sans-Serif" font-size="10.00">/vpattern.cpp</text>
</a>
</g>
</g>
<!-- Node4&#45;&gt;Node27 -->
<g id="edge26" class="edge">
<title>Node4&#45;&gt;Node27</title>
<path fill="none" stroke="midnightblue" d="M2043.37,-67.03C2306.61,-33.97 2377.61,-65.11 2636.5,-31 2639.24,-30.64 2642.04,-30.23 2644.86,-29.79"/>
<polygon fill="midnightblue" stroke="midnightblue" points="2042.59,-63.6 2033.12,-68.34 2043.48,-70.54 2042.59,-63.6"/>
</g>
<!-- Node29&#45;&gt;Node5 -->
<g id="edge29" class="edge">
<title>Node29&#45;&gt;Node5</title>
<path fill="none" stroke="midnightblue" d="M709.32,-69.06C736.59,-58.05 776.36,-41.99 804.75,-30.53"/>
<polygon fill="midnightblue" stroke="midnightblue" points="707.84,-65.88 699.88,-72.87 710.46,-72.37 707.84,-65.88"/>
</g>
<!-- Node29&#45;&gt;Node24 -->
<g id="edge30" class="edge">
<title>Node29&#45;&gt;Node24</title>
<path fill="none" stroke="midnightblue" d="M641.85,-69.77C601.63,-56.89 538.03,-36.52 502.25,-25.06"/>
<polygon fill="midnightblue" stroke="midnightblue" points="640.95,-73.15 651.54,-72.87 643.09,-66.49 640.95,-73.15"/>
</g>
<!-- Node29&#45;&gt;Node26 -->
<g id="edge31" class="edge">
<title>Node29&#45;&gt;Node26</title>
<path fill="none" stroke="midnightblue" d="M674.21,-62.91C671.34,-50.49 667.7,-34.72 665.49,-25.13"/>
<polygon fill="midnightblue" stroke="midnightblue" points="670.82,-63.78 676.48,-72.73 677.64,-62.2 670.82,-63.78"/>
</g>
<!-- Node30&#45;&gt;Node19 -->
<g id="edge36" class="edge">
<title>Node30&#45;&gt;Node19</title>
<path fill="none" stroke="midnightblue" d="M336.84,-194.41C328.44,-186.21 320.15,-176.1 315.5,-165 296.26,-119.08 303.19,-58 307.76,-30.71"/>
<polygon fill="midnightblue" stroke="midnightblue" points="334.73,-197.23 344.48,-201.38 339.45,-192.05 334.73,-197.23"/>
</g>
<!-- Node30&#45;&gt;Node25 -->
<g id="edge40" class="edge">
<title>Node30&#45;&gt;Node25</title>
<path fill="none" stroke="midnightblue" d="M337.16,-194.78C282.55,-151.83 158.98,-54.64 121.49,-25.14"/>
<polygon fill="midnightblue" stroke="midnightblue" points="335.28,-197.76 345.3,-201.19 339.61,-192.26 335.28,-197.76"/>
</g>
<!-- Node31 -->
<g id="node31" class="node">
<title>Node31</title>
<g id="a_node31"><a xlink:href="../../d1/d82/mainwindowsnogui_8h.html" target="_top" xlink:title=" ">
<polygon fill="white" stroke="black" points="325,-140 325,-159 534,-159 534,-140 325,-140"/>
<text text-anchor="middle" x="429.5" y="-147" font-family="Helvetica,sans-Serif" font-size="10.00">src/app/seamly2d/mainwindowsnogui.h</text>
</a>
</g>
</g>
<!-- Node30&#45;&gt;Node31 -->
<g id="edge37" class="edge">
<title>Node30&#45;&gt;Node31</title>
<path fill="none" stroke="midnightblue" d="M384.99,-194.34C397.11,-182.4 411.59,-168.14 420.67,-159.19"/>
<polygon fill="midnightblue" stroke="midnightblue" points="382.49,-191.89 377.82,-201.4 387.4,-196.87 382.49,-191.89"/>
</g>
<!-- Node31&#45;&gt;Node25 -->
<g id="edge39" class="edge">
<title>Node31&#45;&gt;Node25</title>
<path fill="none" stroke="midnightblue" d="M398.97,-135.86C334.45,-109.17 185.7,-47.62 131.09,-25.02"/>
<polygon fill="midnightblue" stroke="midnightblue" points="397.99,-139.25 408.57,-139.84 400.67,-132.78 397.99,-139.25"/>
</g>
<!-- Node31&#45;&gt;Node29 -->
<g id="edge38" class="edge">
<title>Node31&#45;&gt;Node29</title>
<path fill="none" stroke="midnightblue" d="M472.01,-137.4C521.15,-124.58 600.98,-103.74 645.62,-92.08"/>
<polygon fill="midnightblue" stroke="midnightblue" points="471.1,-134.02 462.31,-139.94 472.87,-140.8 471.1,-134.02"/>
</g>
</g>
</svg>
