<?xml version="1.0" encoding="UTF-8" standalone="no"?>
<!DOCTYPE svg PUBLIC "-//W3C//DTD SVG 1.1//EN"
 "http://www.w3.org/Graphics/SVG/1.1/DTD/svg11.dtd">
<!-- Generated by graphviz version 2.43.0 (0)
 -->
<!-- Title: src/libs/vpatterndb/floatItemData/floatitemdef.h Pages: 1 -->
<svg width="1837pt" height="296pt"
 viewBox="0.00 0.00 1836.50 296.00" xmlns="http://www.w3.org/2000/svg" xmlns:xlink="http://www.w3.org/1999/xlink">
<g id="graph0" class="graph" transform="scale(1 1) rotate(0) translate(4 292)">
<title>src/libs/vpatterndb/floatItemData/floatitemdef.h</title>
<polygon fill="white" stroke="transparent" points="-4,4 -4,-292 1832.5,-292 1832.5,4 -4,4"/>
<!-- Node1 -->
<g id="node1" class="node">
<title>Node1</title>
<g id="a_node1"><a xlink:title=" ">
<polygon fill="#bfbfbf" stroke="black" points="553.5,-257.5 553.5,-287.5 711.5,-287.5 711.5,-257.5 553.5,-257.5"/>
<text text-anchor="start" x="561.5" y="-275.5" font-family="Helvetica,sans-Serif" font-size="10.00">src/libs/vpatterndb</text>
<text text-anchor="middle" x="632.5" y="-264.5" font-family="Helvetica,sans-Serif" font-size="10.00">/floatItemData/floatitemdef.h</text>
</a>
</g>
</g>
<!-- Node2 -->
<g id="node2" class="node">
<title>Node2</title>
<g id="a_node2"><a xlink:href="../../d3/d4a/vgrainlinedata_8h.html" target="_top" xlink:title=" ">
<polygon fill="white" stroke="black" points="368.5,-190.5 368.5,-220.5 538.5,-220.5 538.5,-190.5 368.5,-190.5"/>
<text text-anchor="start" x="376.5" y="-208.5" font-family="Helvetica,sans-Serif" font-size="10.00">src/libs/vpatterndb</text>
<text text-anchor="middle" x="453.5" y="-197.5" font-family="Helvetica,sans-Serif" font-size="10.00">/floatItemData/vgrainlinedata.h</text>
</a>
</g>
</g>
<!-- Node1&#45;&gt;Node2 -->
<g id="edge1" class="edge">
<title>Node1&#45;&gt;Node2</title>
<path fill="none" stroke="midnightblue" d="M584.18,-253.96C555.35,-243.48 519.22,-230.37 492.26,-220.58"/>
<polygon fill="midnightblue" stroke="midnightblue" points="583.07,-257.27 593.66,-257.4 585.45,-250.69 583.07,-257.27"/>
</g>
<!-- Node10 -->
<g id="node10" class="node">
<title>Node10</title>
<g id="a_node10"><a xlink:href="../../d8/dbc/vpiecelabeldata_8h.html" target="_top" xlink:title=" ">
<polygon fill="white" stroke="black" points="723,-190.5 723,-220.5 900,-220.5 900,-190.5 723,-190.5"/>
<text text-anchor="start" x="731" y="-208.5" font-family="Helvetica,sans-Serif" font-size="10.00">src/libs/vpatterndb</text>
<text text-anchor="middle" x="811.5" y="-197.5" font-family="Helvetica,sans-Serif" font-size="10.00">/floatItemData/vpiecelabeldata.h</text>
</a>
</g>
</g>
<!-- Node1&#45;&gt;Node10 -->
<g id="edge9" class="edge">
<title>Node1&#45;&gt;Node10</title>
<path fill="none" stroke="midnightblue" d="M680.82,-253.96C709.65,-243.48 745.78,-230.37 772.74,-220.58"/>
<polygon fill="midnightblue" stroke="midnightblue" points="679.55,-250.69 671.34,-257.4 681.93,-257.27 679.55,-250.69"/>
</g>
<!-- Node22 -->
<g id="node22" class="node">
<title>Node22</title>
<g id="a_node22"><a xlink:href="../../dd/d58/vgrainlinedata__p_8h.html" target="_top" xlink:title=" ">
<polygon fill="white" stroke="black" points="85,-190.5 85,-220.5 266,-220.5 266,-190.5 85,-190.5"/>
<text text-anchor="start" x="93" y="-208.5" font-family="Helvetica,sans-Serif" font-size="10.00">src/libs/vpatterndb</text>
<text text-anchor="middle" x="175.5" y="-197.5" font-family="Helvetica,sans-Serif" font-size="10.00">/floatItemData/vgrainlinedata_p.h</text>
</a>
</g>
</g>
<!-- Node1&#45;&gt;Node22 -->
<g id="edge27" class="edge">
<title>Node1&#45;&gt;Node22</title>
<path fill="none" stroke="midnightblue" d="M543.37,-258.82C463.4,-247.45 346.58,-230.83 266.15,-219.39"/>
<polygon fill="midnightblue" stroke="midnightblue" points="543.03,-262.31 553.42,-260.25 544.01,-255.38 543.03,-262.31"/>
</g>
<!-- Node23 -->
<g id="node23" class="node">
<title>Node23</title>
<g id="a_node23"><a xlink:href="../../d1/dd3/vpiecelabeldata__p_8h.html" target="_top" xlink:title=" ">
<polygon fill="white" stroke="black" points="1030.5,-190.5 1030.5,-220.5 1218.5,-220.5 1218.5,-190.5 1030.5,-190.5"/>
<text text-anchor="start" x="1038.5" y="-208.5" font-family="Helvetica,sans-Serif" font-size="10.00">src/libs/vpatterndb</text>
<text text-anchor="middle" x="1124.5" y="-197.5" font-family="Helvetica,sans-Serif" font-size="10.00">/floatItemData/vpiecelabeldata_p.h</text>
</a>
</g>
</g>
<!-- Node1&#45;&gt;Node23 -->
<g id="edge29" class="edge">
<title>Node1&#45;&gt;Node23</title>
<path fill="none" stroke="midnightblue" d="M721.69,-259.72C808.88,-248.2 941.14,-230.73 1030.08,-218.97"/>
<polygon fill="midnightblue" stroke="midnightblue" points="721,-256.28 711.55,-261.06 721.92,-263.22 721,-256.28"/>
</g>
<!-- Node3 -->
<g id="node3" class="node">
<title>Node3</title>
<g id="a_node3"><a xlink:href="../../d6/d2f/vlayoutpiece__p_8h.html" target="_top" xlink:title=" ">
<polygon fill="white" stroke="black" points="525,-129 525,-148 702,-148 702,-129 525,-129"/>
<text text-anchor="middle" x="613.5" y="-136" font-family="Helvetica,sans-Serif" font-size="10.00">src/libs/vlayout/vlayoutpiece_p.h</text>
</a>
</g>
</g>
<!-- Node2&#45;&gt;Node3 -->
<g id="edge2" class="edge">
<title>Node2&#45;&gt;Node3</title>
<path fill="none" stroke="midnightblue" d="M497.51,-186.62C528.48,-174.04 568.54,-157.77 592.56,-148.01"/>
<polygon fill="midnightblue" stroke="midnightblue" points="496.16,-183.39 488.22,-190.4 498.8,-189.87 496.16,-183.39"/>
</g>
<!-- Node5 -->
<g id="node5" class="node">
<title>Node5</title>
<g id="a_node5"><a xlink:href="../../de/d65/vgrainlinedata_8cpp.html" target="_top" xlink:title=" ">
<polygon fill="white" stroke="black" points="0,-123.5 0,-153.5 181,-153.5 181,-123.5 0,-123.5"/>
<text text-anchor="start" x="8" y="-141.5" font-family="Helvetica,sans-Serif" font-size="10.00">src/libs/vpatterndb</text>
<text text-anchor="middle" x="90.5" y="-130.5" font-family="Helvetica,sans-Serif" font-size="10.00">/floatItemData/vgrainlinedata.cpp</text>
</a>
</g>
</g>
<!-- Node2&#45;&gt;Node5 -->
<g id="edge4" class="edge">
<title>Node2&#45;&gt;Node5</title>
<path fill="none" stroke="midnightblue" d="M364.98,-188.65C305.08,-177.92 226.66,-163.88 168.99,-153.55"/>
<polygon fill="midnightblue" stroke="midnightblue" points="364.72,-192.16 375.18,-190.48 365.95,-185.27 364.72,-192.16"/>
</g>
<!-- Node6 -->
<g id="node6" class="node">
<title>Node6</title>
<g id="a_node6"><a xlink:href="../../d8/da5/vpiece__p_8h.html" target="_top" xlink:title=" ">
<polygon fill="white" stroke="black" points="400,-123.5 400,-153.5 507,-153.5 507,-123.5 400,-123.5"/>
<text text-anchor="start" x="408" y="-141.5" font-family="Helvetica,sans-Serif" font-size="10.00">src/libs/vpatterndb</text>
<text text-anchor="middle" x="453.5" y="-130.5" font-family="Helvetica,sans-Serif" font-size="10.00">/vpiece_p.h</text>
</a>
</g>
</g>
<!-- Node2&#45;&gt;Node6 -->
<g id="edge5" class="edge">
<title>Node2&#45;&gt;Node6</title>
<path fill="none" stroke="midnightblue" d="M453.5,-180.11C453.5,-171.15 453.5,-161.32 453.5,-153.58"/>
<polygon fill="midnightblue" stroke="midnightblue" points="450,-180.4 453.5,-190.4 457,-180.4 450,-180.4"/>
</g>
<!-- Node8 -->
<g id="node8" class="node">
<title>Node8</title>
<g id="a_node8"><a xlink:href="../../de/d1b/vgrainlineitem_8h.html" target="_top" xlink:title=" ">
<polygon fill="white" stroke="black" points="199.5,-129 199.5,-148 381.5,-148 381.5,-129 199.5,-129"/>
<text text-anchor="middle" x="290.5" y="-136" font-family="Helvetica,sans-Serif" font-size="10.00">src/libs/vwidgets/vgrainlineitem.h</text>
</a>
</g>
</g>
<!-- Node2&#45;&gt;Node8 -->
<g id="edge7" class="edge">
<title>Node2&#45;&gt;Node8</title>
<path fill="none" stroke="midnightblue" d="M408.67,-186.62C377.12,-174.04 336.31,-157.77 311.83,-148.01"/>
<polygon fill="midnightblue" stroke="midnightblue" points="407.55,-189.94 418.13,-190.4 410.14,-183.44 407.55,-189.94"/>
</g>
<!-- Node4 -->
<g id="node4" class="node">
<title>Node4</title>
<g id="a_node4"><a xlink:href="../../dd/d70/vlayoutpiece_8cpp.html" target="_top" xlink:title=" ">
<polygon fill="white" stroke="black" points="525,-62 525,-81 702,-81 702,-62 525,-62"/>
<text text-anchor="middle" x="613.5" y="-69" font-family="Helvetica,sans-Serif" font-size="10.00">src/libs/vlayout/vlayoutpiece.cpp</text>
</a>
</g>
</g>
<!-- Node3&#45;&gt;Node4 -->
<g id="edge3" class="edge">
<title>Node3&#45;&gt;Node4</title>
<path fill="none" stroke="midnightblue" d="M613.5,-118.54C613.5,-106.17 613.5,-90.62 613.5,-81.13"/>
<polygon fill="midnightblue" stroke="midnightblue" points="610,-118.73 613.5,-128.73 617,-118.73 610,-118.73"/>
</g>
<!-- Node7 -->
<g id="node7" class="node">
<title>Node7</title>
<g id="a_node7"><a xlink:href="../../df/d7a/vpiece_8cpp.html" target="_top" xlink:title=" ">
<polygon fill="white" stroke="black" points="400,-56.5 400,-86.5 507,-86.5 507,-56.5 400,-56.5"/>
<text text-anchor="start" x="408" y="-74.5" font-family="Helvetica,sans-Serif" font-size="10.00">src/libs/vpatterndb</text>
<text text-anchor="middle" x="453.5" y="-63.5" font-family="Helvetica,sans-Serif" font-size="10.00">/vpiece.cpp</text>
</a>
</g>
</g>
<!-- Node6&#45;&gt;Node7 -->
<g id="edge6" class="edge">
<title>Node6&#45;&gt;Node7</title>
<path fill="none" stroke="midnightblue" d="M453.5,-113.11C453.5,-104.15 453.5,-94.32 453.5,-86.58"/>
<polygon fill="midnightblue" stroke="midnightblue" points="450,-113.4 453.5,-123.4 457,-113.4 450,-113.4"/>
</g>
<!-- Node9 -->
<g id="node9" class="node">
<title>Node9</title>
<g id="a_node9"><a xlink:href="../../d1/d90/vgrainlineitem_8cpp.html" target="_top" xlink:title=" ">
<polygon fill="white" stroke="black" points="189,-62 189,-81 382,-81 382,-62 189,-62"/>
<text text-anchor="middle" x="285.5" y="-69" font-family="Helvetica,sans-Serif" font-size="10.00">src/libs/vwidgets/vgrainlineitem.cpp</text>
</a>
</g>
</g>
<!-- Node8&#45;&gt;Node9 -->
<g id="edge8" class="edge">
<title>Node8&#45;&gt;Node9</title>
<path fill="none" stroke="midnightblue" d="M289.04,-118.54C288.09,-106.17 286.89,-90.62 286.16,-81.13"/>
<polygon fill="midnightblue" stroke="midnightblue" points="285.57,-119.03 289.83,-128.73 292.55,-118.49 285.57,-119.03"/>
</g>
<!-- Node10&#45;&gt;Node3 -->
<g id="edge10" class="edge">
<title>Node10&#45;&gt;Node3</title>
<path fill="none" stroke="midnightblue" d="M759.01,-187.27C720.43,-174.6 669.65,-157.93 639.41,-148.01"/>
<polygon fill="midnightblue" stroke="midnightblue" points="757.94,-190.6 768.54,-190.4 760.13,-183.95 757.94,-190.6"/>
</g>
<!-- Node10&#45;&gt;Node4 -->
<g id="edge11" class="edge">
<title>Node10&#45;&gt;Node4</title>
<path fill="none" stroke="midnightblue" d="M862.21,-186.34C896.76,-171.2 932.7,-148.1 911.5,-123 907.6,-118.38 754.53,-94.19 669.34,-81.04"/>
<polygon fill="midnightblue" stroke="midnightblue" points="860.42,-183.3 852.55,-190.4 863.13,-189.76 860.42,-183.3"/>
</g>
<!-- Node10&#45;&gt;Node6 -->
<g id="edge26" class="edge">
<title>Node10&#45;&gt;Node6</title>
<path fill="none" stroke="midnightblue" d="M712.67,-189.02C655.26,-179.67 581.62,-167.06 516.5,-154 513.42,-153.38 510.26,-152.73 507.07,-152.05"/>
<polygon fill="midnightblue" stroke="midnightblue" points="712.4,-192.52 722.83,-190.67 713.52,-185.61 712.4,-192.52"/>
</g>
<!-- Node11 -->
<g id="node11" class="node">
<title>Node11</title>
<g id="a_node11"><a xlink:href="../../d8/d70/vtextmanager_8cpp.html" target="_top" xlink:title=" ">
<polygon fill="white" stroke="black" points="720.5,-129 720.5,-148 902.5,-148 902.5,-129 720.5,-129"/>
<text text-anchor="middle" x="811.5" y="-136" font-family="Helvetica,sans-Serif" font-size="10.00">src/libs/vlayout/vtextmanager.cpp</text>
</a>
</g>
</g>
<!-- Node10&#45;&gt;Node11 -->
<g id="edge12" class="edge">
<title>Node10&#45;&gt;Node11</title>
<path fill="none" stroke="midnightblue" d="M811.5,-180.25C811.5,-169.02 811.5,-156.38 811.5,-148.19"/>
<polygon fill="midnightblue" stroke="midnightblue" points="808,-180.4 811.5,-190.4 815,-180.4 808,-180.4"/>
</g>
<!-- Node12 -->
<g id="node12" class="node">
<title>Node12</title>
<g id="a_node12"><a xlink:href="../../d6/de0/vlayoutpiece_8h.html" target="_top" xlink:title=" ">
<polygon fill="white" stroke="black" points="958.5,-129 958.5,-148 1124.5,-148 1124.5,-129 958.5,-129"/>
<text text-anchor="middle" x="1041.5" y="-136" font-family="Helvetica,sans-Serif" font-size="10.00">src/libs/vlayout/vlayoutpiece.h</text>
</a>
</g>
</g>
<!-- Node10&#45;&gt;Node12 -->
<g id="edge13" class="edge">
<title>Node10&#45;&gt;Node12</title>
<path fill="none" stroke="midnightblue" d="M870.77,-187.75C915.75,-175.04 975.74,-158.09 1011.32,-148.03"/>
<polygon fill="midnightblue" stroke="midnightblue" points="869.79,-184.39 861.12,-190.48 871.7,-191.12 869.79,-184.39"/>
</g>
<!-- Node21 -->
<g id="node21" class="node">
<title>Node21</title>
<g id="a_node21"><a xlink:href="../../de/d4a/vpiecelabeldata_8cpp.html" target="_top" xlink:title=" ">
<polygon fill="white" stroke="black" points="1142.5,-123.5 1142.5,-153.5 1330.5,-153.5 1330.5,-123.5 1142.5,-123.5"/>
<text text-anchor="start" x="1150.5" y="-141.5" font-family="Helvetica,sans-Serif" font-size="10.00">src/libs/vpatterndb</text>
<text text-anchor="middle" x="1236.5" y="-130.5" font-family="Helvetica,sans-Serif" font-size="10.00">/floatItemData/vpiecelabeldata.cpp</text>
</a>
</g>
</g>
<!-- Node10&#45;&gt;Node21 -->
<g id="edge25" class="edge">
<title>Node10&#45;&gt;Node21</title>
<path fill="none" stroke="midnightblue" d="M910.34,-189.38C981.08,-178.56 1075.65,-164.1 1144.73,-153.53"/>
<polygon fill="midnightblue" stroke="midnightblue" points="909.43,-185.98 900.08,-190.95 910.49,-192.9 909.43,-185.98"/>
</g>
<!-- Node12&#45;&gt;Node4 -->
<g id="edge21" class="edge">
<title>Node12&#45;&gt;Node4</title>
<path fill="none" stroke="midnightblue" d="M975.18,-127.43C891.32,-114.69 748.41,-92.99 669.68,-81.03"/>
<polygon fill="midnightblue" stroke="midnightblue" points="974.69,-130.89 985.11,-128.94 975.75,-123.97 974.69,-130.89"/>
</g>
<!-- Node13 -->
<g id="node13" class="node">
<title>Node13</title>
<g id="a_node13"><a xlink:href="../../dd/d66/vdxfengine_8cpp.html" target="_top" xlink:title=" ">
<polygon fill="white" stroke="black" points="1512.5,-62 1512.5,-81 1666.5,-81 1666.5,-62 1512.5,-62"/>
<text text-anchor="middle" x="1589.5" y="-69" font-family="Helvetica,sans-Serif" font-size="10.00">src/libs/vdxf/vdxfengine.cpp</text>
</a>
</g>
</g>
<!-- Node12&#45;&gt;Node13 -->
<g id="edge14" class="edge">
<title>Node12&#45;&gt;Node13</title>
<path fill="none" stroke="midnightblue" d="M1101.97,-127.45C1112.47,-125.85 1123.29,-124.3 1133.5,-123 1297.4,-102.13 1339.72,-108.75 1503.5,-87 1516.11,-85.33 1529.7,-83.19 1542.28,-81.07"/>
<polygon fill="midnightblue" stroke="midnightblue" points="1101.39,-123.99 1092.04,-128.98 1102.46,-130.91 1101.39,-123.99"/>
</g>
<!-- Node14 -->
<g id="node14" class="node">
<title>Node14</title>
<g id="a_node14"><a xlink:href="../../de/da8/vbank_8cpp.html" target="_top" xlink:title=" ">
<polygon fill="white" stroke="black" points="1684.5,-62 1684.5,-81 1828.5,-81 1828.5,-62 1684.5,-62"/>
<text text-anchor="middle" x="1756.5" y="-69" font-family="Helvetica,sans-Serif" font-size="10.00">src/libs/vlayout/vbank.cpp</text>
</a>
</g>
</g>
<!-- Node12&#45;&gt;Node14 -->
<g id="edge15" class="edge">
<title>Node12&#45;&gt;Node14</title>
<path fill="none" stroke="midnightblue" d="M1100.48,-127.4C1111.43,-125.75 1122.8,-124.2 1133.5,-123 1373.43,-96.18 1435.87,-116.32 1675.5,-87 1687.98,-85.47 1701.45,-83.28 1713.76,-81.07"/>
<polygon fill="midnightblue" stroke="midnightblue" points="1099.92,-123.94 1090.57,-128.93 1100.98,-130.86 1099.92,-123.94"/>
</g>
<!-- Node15 -->
<g id="node15" class="node">
<title>Node15</title>
<g id="a_node15"><a xlink:href="../../df/d5d/vcontour_8cpp.html" target="_top" xlink:title=" ">
<polygon fill="white" stroke="black" points="720.5,-62 720.5,-81 876.5,-81 876.5,-62 720.5,-62"/>
<text text-anchor="middle" x="798.5" y="-69" font-family="Helvetica,sans-Serif" font-size="10.00">src/libs/vlayout/vcontour.cpp</text>
</a>
</g>
</g>
<!-- Node12&#45;&gt;Node15 -->
<g id="edge16" class="edge">
<title>Node12&#45;&gt;Node15</title>
<path fill="none" stroke="midnightblue" d="M999.72,-126.32C951.73,-113.49 874.06,-92.71 830.59,-81.08"/>
<polygon fill="midnightblue" stroke="midnightblue" points="998.92,-129.73 1009.48,-128.94 1000.73,-122.97 998.92,-129.73"/>
</g>
<!-- Node16 -->
<g id="node16" class="node">
<title>Node16</title>
<g id="a_node16"><a xlink:href="../../d3/d39/vlayoutgenerator_8cpp.html" target="_top" xlink:title=" ">
<polygon fill="white" stroke="black" points="895,-62 895,-81 1092,-81 1092,-62 895,-62"/>
<text text-anchor="middle" x="993.5" y="-69" font-family="Helvetica,sans-Serif" font-size="10.00">src/libs/vlayout/vlayoutgenerator.cpp</text>
</a>
</g>
</g>
<!-- Node12&#45;&gt;Node16 -->
<g id="edge17" class="edge">
<title>Node12&#45;&gt;Node16</title>
<path fill="none" stroke="midnightblue" d="M1028.88,-120.4C1019.55,-107.77 1007.24,-91.1 999.87,-81.13"/>
<polygon fill="midnightblue" stroke="midnightblue" points="1026.27,-122.77 1035.03,-128.73 1031.9,-118.61 1026.27,-122.77"/>
</g>
<!-- Node17 -->
<g id="node17" class="node">
<title>Node17</title>
<g id="a_node17"><a xlink:href="../../d1/dd1/vlayoutpaper_8cpp.html" target="_top" xlink:title=" ">
<polygon fill="white" stroke="black" points="1147.5,-0.5 1147.5,-19.5 1325.5,-19.5 1325.5,-0.5 1147.5,-0.5"/>
<text text-anchor="middle" x="1236.5" y="-7.5" font-family="Helvetica,sans-Serif" font-size="10.00">src/libs/vlayout/vlayoutpaper.cpp</text>
</a>
</g>
</g>
<!-- Node12&#45;&gt;Node17 -->
<g id="edge18" class="edge">
<title>Node12&#45;&gt;Node17</title>
<path fill="none" stroke="midnightblue" d="M1059.27,-122.46C1085.37,-100.44 1131.92,-61.42 1140.5,-56 1164.46,-40.86 1194.34,-27.65 1214.34,-19.53"/>
<polygon fill="midnightblue" stroke="midnightblue" points="1056.97,-119.83 1051.59,-128.95 1061.49,-125.17 1056.97,-119.83"/>
</g>
<!-- Node18 -->
<g id="node18" class="node">
<title>Node18</title>
<g id="a_node18"><a xlink:href="../../d2/d2d/vlayoutpaper__p_8h.html" target="_top" xlink:title=" ">
<polygon fill="white" stroke="black" points="1149,-62 1149,-81 1328,-81 1328,-62 1149,-62"/>
<text text-anchor="middle" x="1238.5" y="-69" font-family="Helvetica,sans-Serif" font-size="10.00">src/libs/vlayout/vlayoutpaper_p.h</text>
</a>
</g>
</g>
<!-- Node12&#45;&gt;Node18 -->
<g id="edge19" class="edge">
<title>Node12&#45;&gt;Node18</title>
<path fill="none" stroke="midnightblue" d="M1077.56,-125.6C1116.62,-112.71 1177.97,-92.47 1212.55,-81.06"/>
<polygon fill="midnightblue" stroke="midnightblue" points="1076.06,-122.41 1067.66,-128.87 1078.25,-129.06 1076.06,-122.41"/>
</g>
<!-- Node19 -->
<g id="node19" class="node">
<title>Node19</title>
<g id="a_node19"><a xlink:href="../../db/d5c/vposition_8h.html" target="_top" xlink:title=" ">
<polygon fill="white" stroke="black" points="1346.5,-62 1346.5,-81 1494.5,-81 1494.5,-62 1346.5,-62"/>
<text text-anchor="middle" x="1420.5" y="-69" font-family="Helvetica,sans-Serif" font-size="10.00">src/libs/vlayout/vposition.h</text>
</a>
</g>
</g>
<!-- Node12&#45;&gt;Node19 -->
<g id="edge22" class="edge">
<title>Node12&#45;&gt;Node19</title>
<path fill="none" stroke="midnightblue" d="M1101.82,-127.28C1161.64,-117.13 1255.92,-101.09 1337.5,-87 1348.6,-85.08 1360.53,-83.01 1371.79,-81.04"/>
<polygon fill="midnightblue" stroke="midnightblue" points="1101.06,-123.86 1091.79,-128.98 1102.23,-130.76 1101.06,-123.86"/>
</g>
<!-- Node18&#45;&gt;Node17 -->
<g id="edge20" class="edge">
<title>Node18&#45;&gt;Node17</title>
<path fill="none" stroke="midnightblue" d="M1237.87,-51.82C1237.51,-41 1237.07,-27.9 1236.79,-19.51"/>
<polygon fill="midnightblue" stroke="midnightblue" points="1234.38,-52.1 1238.21,-61.98 1241.38,-51.86 1234.38,-52.1"/>
</g>
<!-- Node19&#45;&gt;Node17 -->
<g id="edge23" class="edge">
<title>Node19&#45;&gt;Node17</title>
<path fill="none" stroke="midnightblue" d="M1384.57,-58.88C1348.8,-47.32 1294.76,-29.84 1262.81,-19.51"/>
<polygon fill="midnightblue" stroke="midnightblue" points="1383.55,-62.23 1394.14,-61.98 1385.7,-55.57 1383.55,-62.23"/>
</g>
<!-- Node20 -->
<g id="node20" class="node">
<title>Node20</title>
<g id="a_node20"><a xlink:href="../../df/d76/vposition_8cpp.html" target="_top" xlink:title=" ">
<polygon fill="white" stroke="black" points="1343,-0.5 1343,-19.5 1502,-19.5 1502,-0.5 1343,-0.5"/>
<text text-anchor="middle" x="1422.5" y="-7.5" font-family="Helvetica,sans-Serif" font-size="10.00">src/libs/vlayout/vposition.cpp</text>
</a>
</g>
</g>
<!-- Node19&#45;&gt;Node20 -->
<g id="edge24" class="edge">
<title>Node19&#45;&gt;Node20</title>
<path fill="none" stroke="midnightblue" d="M1421.13,-51.82C1421.49,-41 1421.93,-27.9 1422.21,-19.51"/>
<polygon fill="midnightblue" stroke="midnightblue" points="1417.62,-51.86 1420.79,-61.98 1424.62,-52.1 1417.62,-51.86"/>
</g>
<!-- Node22&#45;&gt;Node5 -->
<g id="edge28" class="edge">
<title>Node22&#45;&gt;Node5</title>
<path fill="none" stroke="midnightblue" d="M148.91,-184.17C135.91,-174.23 120.6,-162.51 108.91,-153.58"/>
<polygon fill="midnightblue" stroke="midnightblue" points="146.99,-187.1 157.06,-190.4 151.24,-181.54 146.99,-187.1"/>
</g>
<!-- Node23&#45;&gt;Node21 -->
<g id="edge30" class="edge">
<title>Node23&#45;&gt;Node21</title>
<path fill="none" stroke="midnightblue" d="M1157.59,-185.3C1175.12,-175.12 1196.26,-162.85 1212.25,-153.58"/>
<polygon fill="midnightblue" stroke="midnightblue" points="1155.69,-182.35 1148.8,-190.4 1159.21,-188.4 1155.69,-182.35"/>
</g>
</g>
</svg>
