<?xml version="1.0" encoding="UTF-8" standalone="no"?>
<!DOCTYPE svg PUBLIC "-//W3C//DTD SVG 1.1//EN"
 "http://www.w3.org/Graphics/SVG/1.1/DTD/svg11.dtd">
<!-- Generated by graphviz version 2.43.0 (0)
 -->
<!-- Title: ImageItem Pages: 1 -->
<!--zoomable 1932 -->
<svg id="main" version="1.1" xmlns="http://www.w3.org/2000/svg" xmlns:xlink="http://www.w3.org/1999/xlink" xml:space="preserve" onload="init(evt)">
<style type="text/css"><![CDATA[
.edge:hover path { stroke: red; }
.edge:hover polygon { stroke: red; fill: red; }
]]></style>
<script type="text/javascript"><![CDATA[
var edges = document.getElementsByTagName('g');
if (edges && edges.length) {
  for (var i=0;i<edges.length;i++) {
    if (edges[i].id.substr(0,4)=='edge') {
      edges[i].setAttribute('class','edge');
    }
  }
}
]]></script>
        <defs>
                <circle id="rim" cx="0" cy="0" r="7"/>
                <circle id="rim2" cx="0" cy="0" r="3.5"/>
                <g id="zoomPlus">
                        <use xlink:href="#rim" fill="#404040">
                                <set attributeName="fill" to="#808080" begin="zoomplus.mouseover" end="zoomplus.mouseout"/>
                        </use>
                        <path d="M-4,0h8M0,-4v8" fill="none" stroke="white" stroke-width="1.5" pointer-events="none"/>
                </g>
                <g id="zoomMin">
                        <use xlink:href="#rim" fill="#404040">
                                <set attributeName="fill" to="#808080" begin="zoomminus.mouseover" end="zoomminus.mouseout"/>
                        </use>
                        <path d="M-4,0h8" fill="none" stroke="white" stroke-width="1.5" pointer-events="none"/>
                </g>
                <g id="dirArrow">
                        <path fill="none" stroke="white" stroke-width="1.5" d="M0,-3.0v7 M-2.5,-0.5L0,-3.0L2.5,-0.5"/>
                </g>
               <g id="resetDef">
                       <use xlink:href="#rim2" fill="#404040">
                               <set attributeName="fill" to="#808080" begin="reset.mouseover" end="reset.mouseout"/>
                       </use>
               </g>
        </defs>

<script type="text/javascript">
var viewWidth = 887;
var viewHeight = 1932;
var sectionId = 'dynsection-1';
</script>
<script xlink:href="../../svgpan.js"/>
<svg id="graph" class="graph">
<g id="viewport">
<title>ImageItem</title>
<polygon fill="white" stroke="transparent" points="-4,4 -4,-1928 882.5,-1928 882.5,4 -4,4"/>
<!-- Node1 -->
<g id="node1" class="node">
<title>Node1</title>
<g id="a_node1"><a xlink:title="The ImageItem class pointer label.">
<polygon fill="#bfbfbf" stroke="black" points="223,-0.5 223,-420.5 384,-420.5 384,-0.5 223,-0.5"/>
<text text-anchor="middle" x="303.5" y="-408.5" font-family="Helvetica,sans-Serif" font-size="10.00">ImageItem</text>
<polyline fill="none" stroke="black" points="223,-401.5 384,-401.5 "/>
<text text-anchor="start" x="231" y="-389.5" font-family="Helvetica,sans-Serif" font-size="10.00">+ maxImageZvalue</text>
<text text-anchor="start" x="231" y="-378.5" font-family="Helvetica,sans-Serif" font-size="10.00">&#45; m_offset</text>
<text text-anchor="start" x="231" y="-367.5" font-family="Helvetica,sans-Serif" font-size="10.00">&#45; m_origin</text>
<text text-anchor="start" x="231" y="-356.5" font-family="Helvetica,sans-Serif" font-size="10.00">&#45; m_boundingRect</text>
<text text-anchor="start" x="231" y="-345.5" font-family="Helvetica,sans-Serif" font-size="10.00">&#45; m_handleRect</text>
<text text-anchor="start" x="231" y="-334.5" font-family="Helvetica,sans-Serif" font-size="10.00">&#45; m_actualRect</text>
<text text-anchor="start" x="231" y="-323.5" font-family="Helvetica,sans-Serif" font-size="10.00">&#45; m_resizePosition</text>
<text text-anchor="start" x="231" y="-312.5" font-family="Helvetica,sans-Serif" font-size="10.00">&#45; m_rotateLine</text>
<text text-anchor="start" x="231" y="-301.5" font-family="Helvetica,sans-Serif" font-size="10.00">&#45; m_angleHandle</text>
<text text-anchor="start" x="231" y="-290.5" font-family="Helvetica,sans-Serif" font-size="10.00">&#45; m_angle</text>
<text text-anchor="start" x="231" y="-279.5" font-family="Helvetica,sans-Serif" font-size="10.00">&#45; m_mousePressed</text>
<text text-anchor="start" x="231" y="-268.5" font-family="Helvetica,sans-Serif" font-size="10.00">and 9 more...</text>
<polyline fill="none" stroke="black" points="223,-261.5 384,-261.5 "/>
<text text-anchor="start" x="231" y="-249.5" font-family="Helvetica,sans-Serif" font-size="10.00">+ ImageItem()</text>
<text text-anchor="start" x="231" y="-238.5" font-family="Helvetica,sans-Serif" font-size="10.00">+ ~ImageItem()</text>
<text text-anchor="start" x="231" y="-227.5" font-family="Helvetica,sans-Serif" font-size="10.00">+ type()</text>
<text text-anchor="start" x="231" y="-216.5" font-family="Helvetica,sans-Serif" font-size="10.00">+ boundingRect()</text>
<text text-anchor="start" x="231" y="-205.5" font-family="Helvetica,sans-Serif" font-size="10.00">+ paint()</text>
<text text-anchor="start" x="231" y="-194.5" font-family="Helvetica,sans-Serif" font-size="10.00">+ moveToBottom()</text>
<text text-anchor="start" x="231" y="-183.5" font-family="Helvetica,sans-Serif" font-size="10.00">+ moveToTop()</text>
<text text-anchor="start" x="231" y="-172.5" font-family="Helvetica,sans-Serif" font-size="10.00">+ moveUp()</text>
<text text-anchor="start" x="231" y="-161.5" font-family="Helvetica,sans-Serif" font-size="10.00">+ moveDown()</text>
<text text-anchor="start" x="231" y="-150.5" font-family="Helvetica,sans-Serif" font-size="10.00">+ getImage()</text>
<text text-anchor="start" x="231" y="-139.5" font-family="Helvetica,sans-Serif" font-size="10.00">and 8 more...</text>
<text text-anchor="start" x="231" y="-128.5" font-family="Helvetica,sans-Serif" font-size="10.00"># hoverEnterEvent()</text>
<text text-anchor="start" x="231" y="-117.5" font-family="Helvetica,sans-Serif" font-size="10.00"># hoverMoveEvent()</text>
<text text-anchor="start" x="231" y="-106.5" font-family="Helvetica,sans-Serif" font-size="10.00"># hoverLeaveEvent()</text>
<text text-anchor="start" x="231" y="-95.5" font-family="Helvetica,sans-Serif" font-size="10.00"># contextMenuEvent()</text>
<text text-anchor="start" x="231" y="-84.5" font-family="Helvetica,sans-Serif" font-size="10.00"># mousePressEvent()</text>
<text text-anchor="start" x="231" y="-73.5" font-family="Helvetica,sans-Serif" font-size="10.00"># mouseMoveEvent()</text>
<text text-anchor="start" x="231" y="-62.5" font-family="Helvetica,sans-Serif" font-size="10.00"># mouseReleaseEvent()</text>
<text text-anchor="start" x="231" y="-51.5" font-family="Helvetica,sans-Serif" font-size="10.00"># keyReleaseEvent()</text>
<text text-anchor="start" x="231" y="-40.5" font-family="Helvetica,sans-Serif" font-size="10.00">&#45; initializeItem()</text>
<text text-anchor="start" x="231" y="-29.5" font-family="Helvetica,sans-Serif" font-size="10.00">&#45; updateFromHandles()</text>
<text text-anchor="start" x="231" y="-18.5" font-family="Helvetica,sans-Serif" font-size="10.00">&#45; setPixmap()</text>
<text text-anchor="start" x="231" y="-7.5" font-family="Helvetica,sans-Serif" font-size="10.00">&#45; showImageStatusMessage()</text>
</a>
</g>
</g>
<!-- Node2 -->
<g id="node2" class="node">
<title>Node2</title>
<g id="a_node2"><a xlink:title=" ">
<polygon fill="white" stroke="#bfbfbf" points="272.5,-1558 272.5,-1615 328.5,-1615 328.5,-1558 272.5,-1558"/>
<text text-anchor="middle" x="300.5" y="-1603" font-family="Helvetica,sans-Serif" font-size="10.00">QObject</text>
<polyline fill="none" stroke="#bfbfbf" points="272.5,-1596 328.5,-1596 "/>
<text text-anchor="middle" x="300.5" y="-1584" font-family="Helvetica,sans-Serif" font-size="10.00"> </text>
<polyline fill="none" stroke="#bfbfbf" points="272.5,-1577 328.5,-1577 "/>
<text text-anchor="middle" x="300.5" y="-1565" font-family="Helvetica,sans-Serif" font-size="10.00"> </text>
</a>
</g>
</g>
<!-- Node2&#45;&gt;Node1 -->
<g id="edge1" class="edge">
<title>Node2&#45;&gt;Node1</title>
<path fill="none" stroke="midnightblue" d="M300.58,-1547.4C300.93,-1386.32 302.31,-754.25 303.04,-420.52"/>
<polygon fill="none" stroke="midnightblue" points="297.08,-1547.74 300.56,-1557.74 304.08,-1547.75 297.08,-1547.74"/>
</g>
<!-- Node5 -->
<g id="node5" class="node">
<title>Node5</title>
<g id="a_node5"><a xlink:href="../../d0/de9/classResizeHandlesItem.html" target="_top" xlink:title=" ">
<polygon fill="white" stroke="black" points="114,-771 114,-1004 257,-1004 257,-771 114,-771"/>
<text text-anchor="middle" x="185.5" y="-992" font-family="Helvetica,sans-Serif" font-size="10.00">ResizeHandlesItem</text>
<polyline fill="none" stroke="black" points="114,-985 257,-985 "/>
<text text-anchor="start" x="122" y="-973" font-family="Helvetica,sans-Serif" font-size="10.00">&#45; m_parentRect</text>
<text text-anchor="start" x="122" y="-962" font-family="Helvetica,sans-Serif" font-size="10.00">&#45; m_lockAspectRatio</text>
<text text-anchor="start" x="122" y="-951" font-family="Helvetica,sans-Serif" font-size="10.00">&#45; m_parentIsLocked</text>
<text text-anchor="start" x="122" y="-940" font-family="Helvetica,sans-Serif" font-size="10.00">&#45; m_parentRotation</text>
<text text-anchor="start" x="122" y="-929" font-family="Helvetica,sans-Serif" font-size="10.00">&#45; m_minDimension</text>
<text text-anchor="start" x="122" y="-918" font-family="Helvetica,sans-Serif" font-size="10.00">&#45; m_maxDimension</text>
<polyline fill="none" stroke="black" points="114,-911 257,-911 "/>
<text text-anchor="start" x="122" y="-899" font-family="Helvetica,sans-Serif" font-size="10.00">+ ResizeHandlesItem()</text>
<text text-anchor="start" x="122" y="-888" font-family="Helvetica,sans-Serif" font-size="10.00">+ ~ResizeHandlesItem()</text>
<text text-anchor="start" x="122" y="-877" font-family="Helvetica,sans-Serif" font-size="10.00">+ type()</text>
<text text-anchor="start" x="122" y="-866" font-family="Helvetica,sans-Serif" font-size="10.00">+ boundingRect()</text>
<text text-anchor="start" x="122" y="-855" font-family="Helvetica,sans-Serif" font-size="10.00">+ paint()</text>
<text text-anchor="start" x="122" y="-844" font-family="Helvetica,sans-Serif" font-size="10.00">+ setTopLeft()</text>
<text text-anchor="start" x="122" y="-833" font-family="Helvetica,sans-Serif" font-size="10.00">+ setTop()</text>
<text text-anchor="start" x="122" y="-822" font-family="Helvetica,sans-Serif" font-size="10.00">+ setTopRight()</text>
<text text-anchor="start" x="122" y="-811" font-family="Helvetica,sans-Serif" font-size="10.00">+ setRight()</text>
<text text-anchor="start" x="122" y="-800" font-family="Helvetica,sans-Serif" font-size="10.00">+ setBottomRight()</text>
<text text-anchor="start" x="122" y="-789" font-family="Helvetica,sans-Serif" font-size="10.00">and 8 more...</text>
<text text-anchor="start" x="122" y="-778" font-family="Helvetica,sans-Serif" font-size="10.00">&#45; updateHandlePositions()</text>
</a>
</g>
</g>
<!-- Node2&#45;&gt;Node5 -->
<g id="edge5" class="edge">
<title>Node2&#45;&gt;Node5</title>
<path fill="none" stroke="midnightblue" d="M295.75,-1547.5C289.29,-1496.71 277.09,-1403.92 264.5,-1325 247.09,-1215.87 224.38,-1091.93 207.77,-1004.07"/>
<polygon fill="none" stroke="midnightblue" points="292.31,-1548.2 297.04,-1557.69 299.26,-1547.32 292.31,-1548.2"/>
</g>
<!-- Node7 -->
<g id="node7" class="node">
<title>Node7</title>
<g id="a_node7"><a xlink:href="../../d8/dba/classVAbstractPattern.html" target="_top" xlink:title=" ">
<polygon fill="white" stroke="black" points="337.5,-468.5 337.5,-1306.5 499.5,-1306.5 499.5,-468.5 337.5,-468.5"/>
<text text-anchor="middle" x="418.5" y="-1294.5" font-family="Helvetica,sans-Serif" font-size="10.00">VAbstractPattern</text>
<polyline fill="none" stroke="black" points="337.5,-1287.5 499.5,-1287.5 "/>
<text text-anchor="start" x="345.5" y="-1275.5" font-family="Helvetica,sans-Serif" font-size="10.00">+ TagPattern</text>
<text text-anchor="start" x="345.5" y="-1264.5" font-family="Helvetica,sans-Serif" font-size="10.00">+ TagCalculation</text>
<text text-anchor="start" x="345.5" y="-1253.5" font-family="Helvetica,sans-Serif" font-size="10.00">+ TagModeling</text>
<text text-anchor="start" x="345.5" y="-1242.5" font-family="Helvetica,sans-Serif" font-size="10.00">+ TagPieces</text>
<text text-anchor="start" x="345.5" y="-1231.5" font-family="Helvetica,sans-Serif" font-size="10.00">+ TagPiece</text>
<text text-anchor="start" x="345.5" y="-1220.5" font-family="Helvetica,sans-Serif" font-size="10.00">+ TagDescription</text>
<text text-anchor="start" x="345.5" y="-1209.5" font-family="Helvetica,sans-Serif" font-size="10.00">+ TagImage</text>
<text text-anchor="start" x="345.5" y="-1198.5" font-family="Helvetica,sans-Serif" font-size="10.00">+ TagNotes</text>
<text text-anchor="start" x="345.5" y="-1187.5" font-family="Helvetica,sans-Serif" font-size="10.00">+ TagMeasurements</text>
<text text-anchor="start" x="345.5" y="-1176.5" font-family="Helvetica,sans-Serif" font-size="10.00">+ TagVariables</text>
<text text-anchor="start" x="345.5" y="-1165.5" font-family="Helvetica,sans-Serif" font-size="10.00">and 142 more...</text>
<text text-anchor="start" x="345.5" y="-1154.5" font-family="Helvetica,sans-Serif" font-size="10.00"># activeDraftBlock</text>
<text text-anchor="start" x="345.5" y="-1143.5" font-family="Helvetica,sans-Serif" font-size="10.00"># m_DefaultLineColor</text>
<text text-anchor="start" x="345.5" y="-1132.5" font-family="Helvetica,sans-Serif" font-size="10.00"># m_DefaultLineWeight</text>
<text text-anchor="start" x="345.5" y="-1121.5" font-family="Helvetica,sans-Serif" font-size="10.00"># m_DefaultLineType</text>
<text text-anchor="start" x="345.5" y="-1110.5" font-family="Helvetica,sans-Serif" font-size="10.00"># defaultBasePoint</text>
<text text-anchor="start" x="345.5" y="-1099.5" font-family="Helvetica,sans-Serif" font-size="10.00"># lastSavedExportFormat</text>
<text text-anchor="start" x="345.5" y="-1088.5" font-family="Helvetica,sans-Serif" font-size="10.00"># cursor</text>
<text text-anchor="start" x="345.5" y="-1077.5" font-family="Helvetica,sans-Serif" font-size="10.00"># toolsOnRemove</text>
<text text-anchor="start" x="345.5" y="-1066.5" font-family="Helvetica,sans-Serif" font-size="10.00"># history</text>
<text text-anchor="start" x="345.5" y="-1055.5" font-family="Helvetica,sans-Serif" font-size="10.00"># patternPieces</text>
<text text-anchor="start" x="345.5" y="-1044.5" font-family="Helvetica,sans-Serif" font-size="10.00"># modified</text>
<text text-anchor="start" x="345.5" y="-1033.5" font-family="Helvetica,sans-Serif" font-size="10.00"># patternLabelLines</text>
<text text-anchor="start" x="345.5" y="-1022.5" font-family="Helvetica,sans-Serif" font-size="10.00"># patternLabelWasChanged</text>
<polyline fill="none" stroke="black" points="337.5,-1015.5 499.5,-1015.5 "/>
<text text-anchor="start" x="345.5" y="-1003.5" font-family="Helvetica,sans-Serif" font-size="10.00">+ VAbstractPattern()</text>
<text text-anchor="start" x="345.5" y="-992.5" font-family="Helvetica,sans-Serif" font-size="10.00">+ ~VAbstractPattern()</text>
<text text-anchor="start" x="345.5" y="-981.5" font-family="Helvetica,sans-Serif" font-size="10.00">+ ListMeasurements()</text>
<text text-anchor="start" x="345.5" y="-970.5" font-family="Helvetica,sans-Serif" font-size="10.00">+ ListExpressions()</text>
<text text-anchor="start" x="345.5" y="-959.5" font-family="Helvetica,sans-Serif" font-size="10.00">+ listVariableExpressions()</text>
<text text-anchor="start" x="345.5" y="-948.5" font-family="Helvetica,sans-Serif" font-size="10.00">+ CreateEmptyFile()</text>
<text text-anchor="start" x="345.5" y="-937.5" font-family="Helvetica,sans-Serif" font-size="10.00">+ changeActiveDraftBlock()</text>
<text text-anchor="start" x="345.5" y="-926.5" font-family="Helvetica,sans-Serif" font-size="10.00">+ getActiveDraftBlockName()</text>
<text text-anchor="start" x="345.5" y="-915.5" font-family="Helvetica,sans-Serif" font-size="10.00">+ draftBlockNameExists()</text>
<text text-anchor="start" x="345.5" y="-904.5" font-family="Helvetica,sans-Serif" font-size="10.00">+ draftBlockCount()</text>
<text text-anchor="start" x="345.5" y="-893.5" font-family="Helvetica,sans-Serif" font-size="10.00">and 96 more...</text>
<text text-anchor="start" x="345.5" y="-882.5" font-family="Helvetica,sans-Serif" font-size="10.00">+ getTool()</text>
<text text-anchor="start" x="345.5" y="-871.5" font-family="Helvetica,sans-Serif" font-size="10.00">+ AddTool()</text>
<text text-anchor="start" x="345.5" y="-860.5" font-family="Helvetica,sans-Serif" font-size="10.00">+ RemoveTool()</text>
<text text-anchor="start" x="345.5" y="-849.5" font-family="Helvetica,sans-Serif" font-size="10.00">+ ParsePieceNodes()</text>
<text text-anchor="start" x="345.5" y="-838.5" font-family="Helvetica,sans-Serif" font-size="10.00">+ ParsePieceCSARecords()</text>
<text text-anchor="start" x="345.5" y="-827.5" font-family="Helvetica,sans-Serif" font-size="10.00">+ ParsePieceInternalPaths()</text>
<text text-anchor="start" x="345.5" y="-816.5" font-family="Helvetica,sans-Serif" font-size="10.00">+ ParsePieceAnchors()</text>
<text text-anchor="start" x="345.5" y="-805.5" font-family="Helvetica,sans-Serif" font-size="10.00">+ LiteParseTree()</text>
<text text-anchor="start" x="345.5" y="-794.5" font-family="Helvetica,sans-Serif" font-size="10.00">+ haveLiteChange()</text>
<text text-anchor="start" x="345.5" y="-783.5" font-family="Helvetica,sans-Serif" font-size="10.00">+ NeedFullParsing()</text>
<text text-anchor="start" x="345.5" y="-772.5" font-family="Helvetica,sans-Serif" font-size="10.00">+ ClearScene()</text>
<text text-anchor="start" x="345.5" y="-761.5" font-family="Helvetica,sans-Serif" font-size="10.00">+ updatePieceList()</text>
<text text-anchor="start" x="345.5" y="-750.5" font-family="Helvetica,sans-Serif" font-size="10.00">+ selectedPiece()</text>
<text text-anchor="start" x="345.5" y="-739.5" font-family="Helvetica,sans-Serif" font-size="10.00"># setActiveDraftBlock()</text>
<text text-anchor="start" x="345.5" y="-728.5" font-family="Helvetica,sans-Serif" font-size="10.00"># CheckTagExists()</text>
<text text-anchor="start" x="345.5" y="-717.5" font-family="Helvetica,sans-Serif" font-size="10.00"># InsertTag()</text>
<text text-anchor="start" x="345.5" y="-706.5" font-family="Helvetica,sans-Serif" font-size="10.00"># SetChildTag()</text>
<text text-anchor="start" x="345.5" y="-695.5" font-family="Helvetica,sans-Serif" font-size="10.00"># getActiveDraftBlockIndex()</text>
<text text-anchor="start" x="345.5" y="-684.5" font-family="Helvetica,sans-Serif" font-size="10.00"># getActiveDraftElement()</text>
<text text-anchor="start" x="345.5" y="-673.5" font-family="Helvetica,sans-Serif" font-size="10.00"># hasGroupItem()</text>
<text text-anchor="start" x="345.5" y="-662.5" font-family="Helvetica,sans-Serif" font-size="10.00"># ToolExists()</text>
<text text-anchor="start" x="345.5" y="-651.5" font-family="Helvetica,sans-Serif" font-size="10.00"># ParsePathNodes()</text>
<text text-anchor="start" x="345.5" y="-640.5" font-family="Helvetica,sans-Serif" font-size="10.00"># ParseSANode()</text>
<text text-anchor="start" x="345.5" y="-629.5" font-family="Helvetica,sans-Serif" font-size="10.00">&#45; listVariables()</text>
<text text-anchor="start" x="345.5" y="-618.5" font-family="Helvetica,sans-Serif" font-size="10.00">&#45; ListPointExpressions()</text>
<text text-anchor="start" x="345.5" y="-607.5" font-family="Helvetica,sans-Serif" font-size="10.00">&#45; ListArcExpressions()</text>
<text text-anchor="start" x="345.5" y="-596.5" font-family="Helvetica,sans-Serif" font-size="10.00">&#45; ListElArcExpressions()</text>
<text text-anchor="start" x="345.5" y="-585.5" font-family="Helvetica,sans-Serif" font-size="10.00">&#45; ListSplineExpressions()</text>
<text text-anchor="start" x="345.5" y="-574.5" font-family="Helvetica,sans-Serif" font-size="10.00">&#45; ListPathPointExpressions()</text>
<text text-anchor="start" x="345.5" y="-563.5" font-family="Helvetica,sans-Serif" font-size="10.00">&#45; ListOperationExpressions()</text>
<text text-anchor="start" x="345.5" y="-552.5" font-family="Helvetica,sans-Serif" font-size="10.00">&#45; ListNodesExpressions()</text>
<text text-anchor="start" x="345.5" y="-541.5" font-family="Helvetica,sans-Serif" font-size="10.00">&#45; ListPathExpressions()</text>
<text text-anchor="start" x="345.5" y="-530.5" font-family="Helvetica,sans-Serif" font-size="10.00">&#45; ListGrainlineExpressions()</text>
<text text-anchor="start" x="345.5" y="-519.5" font-family="Helvetica,sans-Serif" font-size="10.00">&#45; ListPieceExpressions()</text>
<text text-anchor="start" x="345.5" y="-508.5" font-family="Helvetica,sans-Serif" font-size="10.00">&#45; IsVariable()</text>
<text text-anchor="start" x="345.5" y="-497.5" font-family="Helvetica,sans-Serif" font-size="10.00">&#45; IsPostfixOperator()</text>
<text text-anchor="start" x="345.5" y="-486.5" font-family="Helvetica,sans-Serif" font-size="10.00">&#45; IsFunction()</text>
<text text-anchor="start" x="345.5" y="-475.5" font-family="Helvetica,sans-Serif" font-size="10.00">&#45; ParseItemElement()</text>
</a>
</g>
</g>
<!-- Node2&#45;&gt;Node7 -->
<g id="edge9" class="edge">
<title>Node2&#45;&gt;Node7</title>
<path fill="none" stroke="midnightblue" d="M306.63,-1547.61C314.07,-1501.75 327.04,-1422.19 338.5,-1354 341.12,-1338.43 343.79,-1322.58 346.5,-1306.56"/>
<polygon fill="none" stroke="midnightblue" points="303.14,-1547.26 305,-1557.69 310.05,-1548.38 303.14,-1547.26"/>
</g>
<!-- Node3 -->
<g id="node3" class="node">
<title>Node3</title>
<g id="a_node3"><a xlink:title=" ">
<polygon fill="white" stroke="#bfbfbf" points="0,-1558 0,-1615 89,-1615 89,-1558 0,-1558"/>
<text text-anchor="middle" x="44.5" y="-1603" font-family="Helvetica,sans-Serif" font-size="10.00">QGraphicsItem</text>
<polyline fill="none" stroke="#bfbfbf" points="0,-1596 89,-1596 "/>
<text text-anchor="middle" x="44.5" y="-1584" font-family="Helvetica,sans-Serif" font-size="10.00"> </text>
<polyline fill="none" stroke="#bfbfbf" points="0,-1577 89,-1577 "/>
<text text-anchor="middle" x="44.5" y="-1565" font-family="Helvetica,sans-Serif" font-size="10.00"> </text>
</a>
</g>
</g>
<!-- Node3&#45;&gt;Node1 -->
<g id="edge2" class="edge">
<title>Node3&#45;&gt;Node1</title>
<path fill="none" stroke="midnightblue" d="M38.66,-1547.73C17.79,-1402.35 -44.27,-867.19 104.5,-468 129.69,-400.4 179.44,-336.27 222.9,-289.05"/>
<polygon fill="none" stroke="midnightblue" points="35.24,-1548.51 40.15,-1557.9 42.17,-1547.5 35.24,-1548.51"/>
</g>
<!-- Node3&#45;&gt;Node5 -->
<g id="edge6" class="edge">
<title>Node3&#45;&gt;Node5</title>
<path fill="none" stroke="midnightblue" d="M52.16,-1547.66C72.69,-1446.14 129.64,-1164.63 162.08,-1004.26"/>
<polygon fill="none" stroke="midnightblue" points="48.67,-1547.25 50.11,-1557.75 55.53,-1548.64 48.67,-1547.25"/>
</g>
<!-- Node4 -->
<g id="node4" class="node">
<title>Node4</title>
<g id="a_node4"><a xlink:href="../../d3/df8/structDraftImage.html" target="_top" xlink:title=" ">
<polygon fill="white" stroke="black" points="517.5,-804 517.5,-971 607.5,-971 607.5,-804 517.5,-804"/>
<text text-anchor="middle" x="562.5" y="-959" font-family="Helvetica,sans-Serif" font-size="10.00">DraftImage</text>
<polyline fill="none" stroke="black" points="517.5,-952 607.5,-952 "/>
<text text-anchor="start" x="525.5" y="-940" font-family="Helvetica,sans-Serif" font-size="10.00">+ id</text>
<text text-anchor="start" x="525.5" y="-929" font-family="Helvetica,sans-Serif" font-size="10.00">+ name</text>
<text text-anchor="start" x="525.5" y="-918" font-family="Helvetica,sans-Serif" font-size="10.00">+ filename</text>
<text text-anchor="start" x="525.5" y="-907" font-family="Helvetica,sans-Serif" font-size="10.00">+ pixmap</text>
<text text-anchor="start" x="525.5" y="-896" font-family="Helvetica,sans-Serif" font-size="10.00">+ locked</text>
<text text-anchor="start" x="525.5" y="-885" font-family="Helvetica,sans-Serif" font-size="10.00">+ xOrigin</text>
<text text-anchor="start" x="525.5" y="-874" font-family="Helvetica,sans-Serif" font-size="10.00">+ yOrigin</text>
<text text-anchor="start" x="525.5" y="-863" font-family="Helvetica,sans-Serif" font-size="10.00">+ anchor</text>
<text text-anchor="start" x="525.5" y="-852" font-family="Helvetica,sans-Serif" font-size="10.00">+ xPos</text>
<text text-anchor="start" x="525.5" y="-841" font-family="Helvetica,sans-Serif" font-size="10.00">+ yPos</text>
<text text-anchor="start" x="525.5" y="-830" font-family="Helvetica,sans-Serif" font-size="10.00">and 10 more...</text>
<polyline fill="none" stroke="black" points="517.5,-823 607.5,-823 "/>
<text text-anchor="start" x="525.5" y="-811" font-family="Helvetica,sans-Serif" font-size="10.00">+ DraftImage()</text>
</a>
</g>
</g>
<!-- Node4&#45;&gt;Node1 -->
<g id="edge3" class="edge">
<title>Node4&#45;&gt;Node1</title>
<path fill="none" stroke="#404040" d="M564.76,-803.66C564.23,-716.68 555,-577.59 508.5,-468 481.68,-404.78 434.7,-344.26 392.48,-297.9"/>
<polygon fill="none" stroke="#404040" points="392.24,-297.64 385.23,-295.94 384.11,-288.82 391.11,-290.52 392.24,-297.64"/>
<text text-anchor="middle" x="523" y="-442" font-family="Helvetica,sans-Serif" font-size="10.00"> &#45;m_image</text>
</g>
<!-- Node5&#45;&gt;Node1 -->
<g id="edge4" class="edge">
<title>Node5&#45;&gt;Node1</title>
<path fill="none" stroke="#404040" d="M176.26,-770.82C171.97,-679.49 172.55,-549.47 198.5,-439 203.45,-417.91 210.45,-396.42 218.52,-375.48"/>
<polygon fill="none" stroke="#404040" points="218.55,-375.4 217.03,-368.35 222.96,-364.24 224.47,-371.29 218.55,-375.4"/>
<text text-anchor="middle" x="244" y="-442" font-family="Helvetica,sans-Serif" font-size="10.00"> &#45;m_resizeHandles</text>
</g>
<!-- Node6 -->
<g id="node6" class="node">
<title>Node6</title>
<g id="a_node6"><a xlink:href="../../d1/d4a/classQList.html" target="_top" xlink:title=" ">
<polygon fill="white" stroke="black" points="107,-1552.5 107,-1620.5 254,-1620.5 254,-1552.5 107,-1552.5"/>
<text text-anchor="start" x="115" y="-1608.5" font-family="Helvetica,sans-Serif" font-size="10.00">QList&lt; ResizeHandlesItem</text>
<text text-anchor="middle" x="180.5" y="-1597.5" font-family="Helvetica,sans-Serif" font-size="10.00">::HandleItem * &gt;</text>
<polyline fill="none" stroke="black" points="107,-1590.5 254,-1590.5 "/>
<text text-anchor="middle" x="180.5" y="-1578.5" font-family="Helvetica,sans-Serif" font-size="10.00"> </text>
<polyline fill="none" stroke="black" points="107,-1571.5 254,-1571.5 "/>
<text text-anchor="middle" x="180.5" y="-1559.5" font-family="Helvetica,sans-Serif" font-size="10.00"> </text>
</a>
</g>
</g>
<!-- Node6&#45;&gt;Node5 -->
<g id="edge7" class="edge">
<title>Node6&#45;&gt;Node5</title>
<path fill="none" stroke="#404040" d="M180.57,-1552.19C180.69,-1502.65 180.97,-1406.63 181.5,-1325 182.18,-1221.14 183.27,-1103.38 184.15,-1016.37"/>
<polygon fill="none" stroke="#404040" points="184.15,-1016.3 180.21,-1010.26 184.27,-1004.3 188.21,-1010.34 184.15,-1016.3"/>
<text text-anchor="middle" x="223" y="-1328" font-family="Helvetica,sans-Serif" font-size="10.00"> &#45;m_handleItems</text>
</g>
<!-- Node7&#45;&gt;Node1 -->
<g id="edge8" class="edge">
<title>Node7&#45;&gt;Node1</title>
<path fill="none" stroke="#404040" d="M347.22,-468.13C345.18,-456.14 343.16,-444.29 341.18,-432.65"/>
<polygon fill="none" stroke="#404040" points="341.14,-432.44 336.19,-427.19 339.13,-420.61 344.08,-425.85 341.14,-432.44"/>
<text text-anchor="middle" x="363.5" y="-442" font-family="Helvetica,sans-Serif" font-size="10.00"> &#45;m_doc</text>
</g>
<!-- Node8 -->
<g id="node8" class="node">
<title>Node8</title>
<g id="a_node8"><a xlink:href="../../d6/deb/classVDomDocument.html" target="_top" xlink:title="The VDomDocument class represents a Seamly2D document (.val file).">
<polygon fill="white" stroke="black" points="347,-1354.5 347,-1818.5 504,-1818.5 504,-1354.5 347,-1354.5"/>
<text text-anchor="middle" x="425.5" y="-1806.5" font-family="Helvetica,sans-Serif" font-size="10.00">VDomDocument</text>
<polyline fill="none" stroke="black" points="347,-1799.5 504,-1799.5 "/>
<text text-anchor="start" x="355" y="-1787.5" font-family="Helvetica,sans-Serif" font-size="10.00">+ AttrId</text>
<text text-anchor="start" x="355" y="-1776.5" font-family="Helvetica,sans-Serif" font-size="10.00">+ AttrText</text>
<text text-anchor="start" x="355" y="-1765.5" font-family="Helvetica,sans-Serif" font-size="10.00">+ AttrBold</text>
<text text-anchor="start" x="355" y="-1754.5" font-family="Helvetica,sans-Serif" font-size="10.00">+ AttrItalic</text>
<text text-anchor="start" x="355" y="-1743.5" font-family="Helvetica,sans-Serif" font-size="10.00">+ AttrAlignment</text>
<text text-anchor="start" x="355" y="-1732.5" font-family="Helvetica,sans-Serif" font-size="10.00">+ AttrFSIncrement</text>
<text text-anchor="start" x="355" y="-1721.5" font-family="Helvetica,sans-Serif" font-size="10.00">+ TagVersion</text>
<text text-anchor="start" x="355" y="-1710.5" font-family="Helvetica,sans-Serif" font-size="10.00">+ TagUnit</text>
<text text-anchor="start" x="355" y="-1699.5" font-family="Helvetica,sans-Serif" font-size="10.00">+ TagLine</text>
<polyline fill="none" stroke="black" points="347,-1692.5 504,-1692.5 "/>
<text text-anchor="start" x="355" y="-1680.5" font-family="Helvetica,sans-Serif" font-size="10.00">+ VDomDocument()</text>
<text text-anchor="start" x="355" y="-1669.5" font-family="Helvetica,sans-Serif" font-size="10.00">+ ~VDomDocument()</text>
<text text-anchor="start" x="355" y="-1658.5" font-family="Helvetica,sans-Serif" font-size="10.00">+ elementById()</text>
<text text-anchor="start" x="355" y="-1647.5" font-family="Helvetica,sans-Serif" font-size="10.00">+ SetAttribute()</text>
<text text-anchor="start" x="355" y="-1636.5" font-family="Helvetica,sans-Serif" font-size="10.00">+ measurementUnits()</text>
<text text-anchor="start" x="355" y="-1625.5" font-family="Helvetica,sans-Serif" font-size="10.00">+ setXMLContent()</text>
<text text-anchor="start" x="355" y="-1614.5" font-family="Helvetica,sans-Serif" font-size="10.00">+ SaveDocument()</text>
<text text-anchor="start" x="355" y="-1603.5" font-family="Helvetica,sans-Serif" font-size="10.00">+ Major()</text>
<text text-anchor="start" x="355" y="-1592.5" font-family="Helvetica,sans-Serif" font-size="10.00">+ Minor()</text>
<text text-anchor="start" x="355" y="-1581.5" font-family="Helvetica,sans-Serif" font-size="10.00">+ Patch()</text>
<text text-anchor="start" x="355" y="-1570.5" font-family="Helvetica,sans-Serif" font-size="10.00">and 8 more...</text>
<text text-anchor="start" x="355" y="-1559.5" font-family="Helvetica,sans-Serif" font-size="10.00">+ GetParametrUInt()</text>
<text text-anchor="start" x="355" y="-1548.5" font-family="Helvetica,sans-Serif" font-size="10.00">+ getParameterBool()</text>
<text text-anchor="start" x="355" y="-1537.5" font-family="Helvetica,sans-Serif" font-size="10.00">+ GetParametrUsage()</text>
<text text-anchor="start" x="355" y="-1526.5" font-family="Helvetica,sans-Serif" font-size="10.00">+ SetParametrUsage()</text>
<text text-anchor="start" x="355" y="-1515.5" font-family="Helvetica,sans-Serif" font-size="10.00">+ GetParametrString()</text>
<text text-anchor="start" x="355" y="-1504.5" font-family="Helvetica,sans-Serif" font-size="10.00">+ GetParametrEmptyString()</text>
<text text-anchor="start" x="355" y="-1493.5" font-family="Helvetica,sans-Serif" font-size="10.00">+ GetParametrDouble()</text>
<text text-anchor="start" x="355" y="-1482.5" font-family="Helvetica,sans-Serif" font-size="10.00">+ getParameterId()</text>
<text text-anchor="start" x="355" y="-1471.5" font-family="Helvetica,sans-Serif" font-size="10.00">+ ValidateXML()</text>
<text text-anchor="start" x="355" y="-1460.5" font-family="Helvetica,sans-Serif" font-size="10.00">+ UnitsHelpString()</text>
<text text-anchor="start" x="355" y="-1449.5" font-family="Helvetica,sans-Serif" font-size="10.00">+ RemoveAllChildren()</text>
<text text-anchor="start" x="355" y="-1438.5" font-family="Helvetica,sans-Serif" font-size="10.00">+ SafeCopy()</text>
<text text-anchor="start" x="355" y="-1427.5" font-family="Helvetica,sans-Serif" font-size="10.00"># setTagText()</text>
<text text-anchor="start" x="355" y="-1416.5" font-family="Helvetica,sans-Serif" font-size="10.00"># setTagText()</text>
<text text-anchor="start" x="355" y="-1405.5" font-family="Helvetica,sans-Serif" font-size="10.00"># UniqueTagText()</text>
<text text-anchor="start" x="355" y="-1394.5" font-family="Helvetica,sans-Serif" font-size="10.00"># TestUniqueId()</text>
<text text-anchor="start" x="355" y="-1383.5" font-family="Helvetica,sans-Serif" font-size="10.00"># CollectId()</text>
<text text-anchor="start" x="355" y="-1372.5" font-family="Helvetica,sans-Serif" font-size="10.00">&#45; find()</text>
<text text-anchor="start" x="355" y="-1361.5" font-family="Helvetica,sans-Serif" font-size="10.00">&#45; SaveCanonicalXML()</text>
</a>
</g>
</g>
<!-- Node8&#45;&gt;Node7 -->
<g id="edge10" class="edge">
<title>Node8&#45;&gt;Node7</title>
<path fill="none" stroke="midnightblue" d="M423.08,-1344.12C422.95,-1331.85 422.83,-1319.39 422.7,-1306.8"/>
<polygon fill="none" stroke="midnightblue" points="419.58,-1344.41 423.18,-1354.38 426.58,-1344.34 419.58,-1344.41"/>
</g>
<!-- Node9 -->
<g id="node9" class="node">
<title>Node9</title>
<g id="a_node9"><a xlink:title=" ">
<polygon fill="white" stroke="#bfbfbf" points="296.5,-1866.5 296.5,-1923.5 394.5,-1923.5 394.5,-1866.5 296.5,-1866.5"/>
<text text-anchor="middle" x="345.5" y="-1911.5" font-family="Helvetica,sans-Serif" font-size="10.00">QDomDocument</text>
<polyline fill="none" stroke="#bfbfbf" points="296.5,-1904.5 394.5,-1904.5 "/>
<text text-anchor="middle" x="345.5" y="-1892.5" font-family="Helvetica,sans-Serif" font-size="10.00"> </text>
<polyline fill="none" stroke="#bfbfbf" points="296.5,-1885.5 394.5,-1885.5 "/>
<text text-anchor="middle" x="345.5" y="-1873.5" font-family="Helvetica,sans-Serif" font-size="10.00"> </text>
</a>
</g>
</g>
<!-- Node9&#45;&gt;Node8 -->
<g id="edge11" class="edge">
<title>Node9&#45;&gt;Node8</title>
<path fill="none" stroke="midnightblue" d="M355.32,-1856.38C358.17,-1845.45 361.51,-1832.65 365.16,-1818.67"/>
<polygon fill="none" stroke="midnightblue" points="351.88,-1855.7 352.74,-1866.26 358.65,-1857.47 351.88,-1855.7"/>
</g>
<!-- Node10 -->
<g id="node10" class="node">
<title>Node10</title>
<g id="a_node10"><a xlink:href="../../da/da1/classQHash.html" target="_top" xlink:title=" ">
<polygon fill="white" stroke="black" points="413,-1866.5 413,-1923.5 598,-1923.5 598,-1866.5 413,-1866.5"/>
<text text-anchor="middle" x="505.5" y="-1911.5" font-family="Helvetica,sans-Serif" font-size="10.00">QHash&lt; quint32, QDomElement &gt;</text>
<polyline fill="none" stroke="black" points="413,-1904.5 598,-1904.5 "/>
<text text-anchor="middle" x="505.5" y="-1892.5" font-family="Helvetica,sans-Serif" font-size="10.00"> </text>
<polyline fill="none" stroke="black" points="413,-1885.5 598,-1885.5 "/>
<text text-anchor="middle" x="505.5" y="-1873.5" font-family="Helvetica,sans-Serif" font-size="10.00"> </text>
</a>
</g>
</g>
<!-- Node10&#45;&gt;Node8 -->
<g id="edge12" class="edge">
<title>Node10&#45;&gt;Node8</title>
<path fill="none" stroke="#404040" d="M498.26,-1866.26C495.66,-1856.3 492.48,-1844.12 488.92,-1830.46"/>
<polygon fill="none" stroke="#404040" points="488.87,-1830.28 483.48,-1825.48 485.84,-1818.67 491.22,-1823.46 488.87,-1830.28"/>
<text text-anchor="middle" x="506" y="-1840" font-family="Helvetica,sans-Serif" font-size="10.00"> &#45;map</text>
</g>
<!-- Node11 -->
<g id="node11" class="node">
<title>Node11</title>
<g id="a_node11"><a xlink:href="../../da/da1/classQHash.html" target="_top" xlink:title=" ">
<polygon fill="white" stroke="black" points="522.5,-1558 522.5,-1615 694.5,-1615 694.5,-1558 522.5,-1558"/>
<text text-anchor="middle" x="608.5" y="-1603" font-family="Helvetica,sans-Serif" font-size="10.00">QHash&lt; quint32, VDataTool * &gt;</text>
<polyline fill="none" stroke="black" points="522.5,-1596 694.5,-1596 "/>
<text text-anchor="middle" x="608.5" y="-1584" font-family="Helvetica,sans-Serif" font-size="10.00"> </text>
<polyline fill="none" stroke="black" points="522.5,-1577 694.5,-1577 "/>
<text text-anchor="middle" x="608.5" y="-1565" font-family="Helvetica,sans-Serif" font-size="10.00"> </text>
</a>
</g>
</g>
<!-- Node11&#45;&gt;Node7 -->
<g id="edge13" class="edge">
<title>Node11&#45;&gt;Node7</title>
<path fill="none" stroke="#404040" d="M597.18,-1557.83C577.19,-1508.23 535.24,-1400.61 508.5,-1307 506.55,-1300.19 504.63,-1293.31 502.73,-1286.37"/>
<polygon fill="none" stroke="#404040" points="502.68,-1286.22 497.25,-1281.47 499.54,-1274.64 504.97,-1279.38 502.68,-1286.22"/>
<text text-anchor="middle" x="532.5" y="-1328" font-family="Helvetica,sans-Serif" font-size="10.00"> #tools</text>
</g>
<!-- Node12 -->
<g id="node12" class="node">
<title>Node12</title>
<g id="a_node12"><a xlink:href="../../d0/d4c/classQMap.html" target="_top" xlink:title=" ">
<polygon fill="white" stroke="black" points="712.5,-1558 712.5,-1615 878.5,-1615 878.5,-1558 712.5,-1558"/>
<text text-anchor="middle" x="795.5" y="-1603" font-family="Helvetica,sans-Serif" font-size="10.00">QMap&lt; qint32, ImageItem * &gt;</text>
<polyline fill="none" stroke="black" points="712.5,-1596 878.5,-1596 "/>
<text text-anchor="middle" x="795.5" y="-1584" font-family="Helvetica,sans-Serif" font-size="10.00"> </text>
<polyline fill="none" stroke="black" points="712.5,-1577 878.5,-1577 "/>
<text text-anchor="middle" x="795.5" y="-1565" font-family="Helvetica,sans-Serif" font-size="10.00"> </text>
</a>
</g>
</g>
<!-- Node12&#45;&gt;Node7 -->
<g id="edge14" class="edge">
<title>Node12&#45;&gt;Node7</title>
<path fill="none" stroke="#404040" d="M792.63,-1557.62C786.08,-1508.75 765.41,-1407.7 703.5,-1354 686.66,-1339.4 524.06,-1322.95 508.5,-1307 508.41,-1306.9 508.31,-1306.81 508.22,-1306.71"/>
<polygon fill="none" stroke="#404040" points="507.95,-1306.42 500.94,-1304.73 499.81,-1297.61 506.82,-1299.3 507.95,-1306.42"/>
<text text-anchor="middle" x="671" y="-1328" font-family="Helvetica,sans-Serif" font-size="10.00"> #m_imageMap</text>
</g>
</g>
</svg>
        <g id="navigator" transform="translate(0 0)" fill="#404254">
                <rect fill="#f2f5e9" fill-opacity="0.5" stroke="#606060" stroke-width=".5" x="0" y="0" width="60" height="60"/>
                <use id="zoomplus" xlink:href="#zoomPlus" x="17" y="9" onmousedown="handleZoom(evt,'in')"/>
                <use id="zoomminus" xlink:href="#zoomMin" x="42" y="9" onmousedown="handleZoom(evt,'out')"/>
                <use id="reset" xlink:href="#resetDef" x="30" y="36" onmousedown="handleReset()"/>
                <g id="arrowUp" xlink:href="#dirArrow" transform="translate(30 24)" onmousedown="handlePan(0,-1)">
                  <use xlink:href="#rim" fill="#404040">
                        <set attributeName="fill" to="#808080" begin="arrowUp.mouseover" end="arrowUp.mouseout"/>
                  </use>
                  <path fill="none" stroke="white" stroke-width="1.5" d="M0,-3.0v7 M-2.5,-0.5L0,-3.0L2.5,-0.5"/>
                </g>
                <g id="arrowRight" xlink:href="#dirArrow" transform="rotate(90) translate(36 -43)" onmousedown="handlePan(1,0)">
                  <use xlink:href="#rim" fill="#404040">
                        <set attributeName="fill" to="#808080" begin="arrowRight.mouseover" end="arrowRight.mouseout"/>
                  </use>
                  <path fill="none" stroke="white" stroke-width="1.5" d="M0,-3.0v7 M-2.5,-0.5L0,-3.0L2.5,-0.5"/>
                </g>
                <g id="arrowDown" xlink:href="#dirArrow" transform="rotate(180) translate(-30 -48)" onmousedown="handlePan(0,1)">
                  <use xlink:href="#rim" fill="#404040">
                        <set attributeName="fill" to="#808080" begin="arrowDown.mouseover" end="arrowDown.mouseout"/>
                  </use>
                  <path fill="none" stroke="white" stroke-width="1.5" d="M0,-3.0v7 M-2.5,-0.5L0,-3.0L2.5,-0.5"/>
                </g>
                <g id="arrowLeft" xlink:href="#dirArrow" transform="rotate(270) translate(-36 17)" onmousedown="handlePan(-1,0)">
                  <use xlink:href="#rim" fill="#404040">
                        <set attributeName="fill" to="#808080" begin="arrowLeft.mouseover" end="arrowLeft.mouseout"/>
                  </use>
                  <path fill="none" stroke="white" stroke-width="1.5" d="M0,-3.0v7 M-2.5,-0.5L0,-3.0L2.5,-0.5"/>
                </g>
        </g>
        <svg viewBox="0 0 15 15" width="100%" height="30px" preserveAspectRatio="xMaxYMin meet">
         <g id="arrow_out" transform="scale(0.3 0.3)">
          <a xlink:href="classImageItem__coll__graph_org.svg" target="_base">
           <rect id="button" ry="5" rx="5" y="6" x="6" height="38" width="38"
                fill="#f2f5e9" fill-opacity="0.5" stroke="#606060" stroke-width="1.0"/>
           <path id="arrow"
             d="M 11.500037,31.436501 C 11.940474,20.09759 22.043105,11.32322 32.158766,21.979434 L 37.068811,17.246167 C 37.068811,17.246167 37.088388,32 37.088388,32 L 22.160133,31.978069 C 22.160133,31.978069 26.997745,27.140456 26.997745,27.140456 C 18.528582,18.264221 13.291696,25.230495 11.500037,31.436501 z"
             style="fill:#404040;"/>
          </a>
         </g>
        </svg>
</svg>
