<?xml version="1.0" encoding="UTF-8" standalone="no"?>
<!DOCTYPE svg PUBLIC "-//W3C//DTD SVG 1.1//EN"
 "http://www.w3.org/Graphics/SVG/1.1/DTD/svg11.dtd">
<!-- Generated by graphviz version 2.43.0 (0)
 -->
<!-- Title: src/app/seamly2d/dialogs/abstractlayout_dialog.h Pages: 1 -->
<svg width="4179pt" height="307pt"
 viewBox="0.00 0.00 4178.50 307.00" xmlns="http://www.w3.org/2000/svg" xmlns:xlink="http://www.w3.org/1999/xlink">
<g id="graph0" class="graph" transform="scale(1 1) rotate(0) translate(4 303)">
<title>src/app/seamly2d/dialogs/abstractlayout_dialog.h</title>
<polygon fill="white" stroke="transparent" points="-4,4 -4,-303 4174.5,-303 4174.5,4 -4,4"/>
<!-- Node1 -->
<g id="node1" class="node">
<title>Node1</title>
<g id="a_node1"><a xlink:title=" ">
<polygon fill="#bfbfbf" stroke="black" points="2343.5,-268.5 2343.5,-298.5 2484.5,-298.5 2484.5,-268.5 2343.5,-268.5"/>
<text text-anchor="start" x="2351.5" y="-286.5" font-family="Helvetica,sans-Serif" font-size="10.00">src/app/seamly2d/dialogs</text>
<text text-anchor="middle" x="2414" y="-275.5" font-family="Helvetica,sans-Serif" font-size="10.00">/abstractlayout_dialog.h</text>
</a>
</g>
</g>
<!-- Node2 -->
<g id="node2" class="node">
<title>Node2</title>
<g id="a_node2"><a xlink:href="../../dd/db4/abstractlayout__dialog_8cpp.html" target="_top" xlink:title=" ">
<polygon fill="white" stroke="black" points="0,-0.5 0,-30.5 146,-30.5 146,-0.5 0,-0.5"/>
<text text-anchor="start" x="8" y="-18.5" font-family="Helvetica,sans-Serif" font-size="10.00">src/app/seamly2d/dialogs</text>
<text text-anchor="middle" x="73" y="-7.5" font-family="Helvetica,sans-Serif" font-size="10.00">/abstractlayout_dialog.cpp</text>
</a>
</g>
</g>
<!-- Node1&#45;&gt;Node2 -->
<g id="edge1" class="edge">
<title>Node1&#45;&gt;Node2</title>
<path fill="none" stroke="midnightblue" d="M2333.34,-279.42C2065.21,-268.22 1180.02,-223.49 460,-98 343.66,-77.72 208.95,-47.9 133.08,-30.52"/>
<polygon fill="midnightblue" stroke="midnightblue" points="2333.23,-282.92 2343.37,-279.83 2333.52,-275.92 2333.23,-282.92"/>
</g>
<!-- Node3 -->
<g id="node3" class="node">
<title>Node3</title>
<g id="a_node3"><a xlink:href="../../d1/d8e/export__layout__dialog_8h.html" target="_top" xlink:title=" ">
<polygon fill="white" stroke="black" points="2343.5,-201.5 2343.5,-231.5 2484.5,-231.5 2484.5,-201.5 2343.5,-201.5"/>
<text text-anchor="start" x="2351.5" y="-219.5" font-family="Helvetica,sans-Serif" font-size="10.00">src/app/seamly2d/dialogs</text>
<text text-anchor="middle" x="2414" y="-208.5" font-family="Helvetica,sans-Serif" font-size="10.00">/export_layout_dialog.h</text>
</a>
</g>
</g>
<!-- Node1&#45;&gt;Node3 -->
<g id="edge2" class="edge">
<title>Node1&#45;&gt;Node3</title>
<path fill="none" stroke="midnightblue" d="M2414,-258.11C2414,-249.15 2414,-239.32 2414,-231.58"/>
<polygon fill="midnightblue" stroke="midnightblue" points="2410.5,-258.4 2414,-268.4 2417.5,-258.4 2410.5,-258.4"/>
</g>
<!-- Node11 -->
<g id="node11" class="node">
<title>Node11</title>
<g id="a_node11"><a xlink:href="../../d3/dd8/layoutsettings__dialog_8h.html" target="_top" xlink:title=" ">
<polygon fill="white" stroke="black" points="2502.5,-201.5 2502.5,-231.5 2643.5,-231.5 2643.5,-201.5 2502.5,-201.5"/>
<text text-anchor="start" x="2510.5" y="-219.5" font-family="Helvetica,sans-Serif" font-size="10.00">src/app/seamly2d/dialogs</text>
<text text-anchor="middle" x="2573" y="-208.5" font-family="Helvetica,sans-Serif" font-size="10.00">/layoutsettings_dialog.h</text>
</a>
</g>
</g>
<!-- Node1&#45;&gt;Node11 -->
<g id="edge11" class="edge">
<title>Node1&#45;&gt;Node11</title>
<path fill="none" stroke="midnightblue" d="M2457.92,-264.54C2483.37,-254.14 2514.93,-241.24 2538.57,-231.58"/>
<polygon fill="midnightblue" stroke="midnightblue" points="2456.43,-261.37 2448.5,-268.4 2459.08,-267.85 2456.43,-261.37"/>
</g>
<!-- Node4 -->
<g id="node4" class="node">
<title>Node4</title>
<g id="a_node4"><a xlink:href="../../dd/d54/export__layout__dialog_8cpp.html" target="_top" xlink:title=" ">
<polygon fill="white" stroke="black" points="164.5,-0.5 164.5,-30.5 307.5,-30.5 307.5,-0.5 164.5,-0.5"/>
<text text-anchor="start" x="172.5" y="-18.5" font-family="Helvetica,sans-Serif" font-size="10.00">src/app/seamly2d/dialogs</text>
<text text-anchor="middle" x="236" y="-7.5" font-family="Helvetica,sans-Serif" font-size="10.00">/export_layout_dialog.cpp</text>
</a>
</g>
</g>
<!-- Node3&#45;&gt;Node4 -->
<g id="edge3" class="edge">
<title>Node3&#45;&gt;Node4</title>
<path fill="none" stroke="midnightblue" d="M2333.23,-214.02C2081.26,-208.59 1287.59,-185.22 637,-98 513.08,-81.39 370.01,-49.09 292.7,-30.54"/>
<polygon fill="midnightblue" stroke="midnightblue" points="2333.32,-217.52 2343.4,-214.24 2333.47,-210.53 2333.32,-217.52"/>
</g>
<!-- Node5 -->
<g id="node5" class="node">
<title>Node5</title>
<g id="a_node5"><a xlink:href="../../d1/d82/mainwindowsnogui_8h.html" target="_top" xlink:title=" ">
<polygon fill="white" stroke="black" points="2316.5,-140 2316.5,-159 2525.5,-159 2525.5,-140 2316.5,-140"/>
<text text-anchor="middle" x="2421" y="-147" font-family="Helvetica,sans-Serif" font-size="10.00">src/app/seamly2d/mainwindowsnogui.h</text>
</a>
</g>
</g>
<!-- Node3&#45;&gt;Node5 -->
<g id="edge4" class="edge">
<title>Node3&#45;&gt;Node5</title>
<path fill="none" stroke="midnightblue" d="M2416.61,-191.25C2417.82,-180.02 2419.18,-167.38 2420.06,-159.19"/>
<polygon fill="midnightblue" stroke="midnightblue" points="2413.11,-191.08 2415.52,-201.4 2420.07,-191.83 2413.11,-191.08"/>
</g>
<!-- Node10 -->
<g id="node10" class="node">
<title>Node10</title>
<g id="a_node10"><a xlink:href="../../d8/de8/mainwindowsnogui_8cpp.html" target="_top" xlink:title=" ">
<polygon fill="white" stroke="black" points="3786.5,-6 3786.5,-25 4007.5,-25 4007.5,-6 3786.5,-6"/>
<text text-anchor="middle" x="3897" y="-13" font-family="Helvetica,sans-Serif" font-size="10.00">src/app/seamly2d/mainwindowsnogui.cpp</text>
</a>
</g>
</g>
<!-- Node3&#45;&gt;Node10 -->
<g id="edge10" class="edge">
<title>Node3&#45;&gt;Node10</title>
<path fill="none" stroke="midnightblue" d="M2494.62,-200.78C2944.61,-130.03 3060.7,-125.74 3509,-67 3622.15,-52.17 3753.89,-35.06 3831.09,-25.04"/>
<polygon fill="midnightblue" stroke="midnightblue" points="2493.94,-197.35 2484.61,-202.36 2495.03,-204.26 2493.94,-197.35"/>
</g>
<!-- Node6 -->
<g id="node6" class="node">
<title>Node6</title>
<g id="a_node6"><a xlink:href="../../d9/d53/mainwindow_8h.html" target="_top" xlink:title=" ">
<polygon fill="white" stroke="black" points="646,-73 646,-92 822,-92 822,-73 646,-73"/>
<text text-anchor="middle" x="734" y="-80" font-family="Helvetica,sans-Serif" font-size="10.00">src/app/seamly2d/mainwindow.h</text>
</a>
</g>
</g>
<!-- Node5&#45;&gt;Node6 -->
<g id="edge5" class="edge">
<title>Node5&#45;&gt;Node6</title>
<path fill="none" stroke="midnightblue" d="M2352.35,-138.7C2337.43,-136.87 2321.7,-135.17 2307,-134 1742.85,-89.17 1061.88,-83.82 822.42,-83.42"/>
<polygon fill="midnightblue" stroke="midnightblue" points="2352.17,-142.21 2362.53,-139.99 2353.05,-135.26 2352.17,-142.21"/>
</g>
<!-- Node5&#45;&gt;Node10 -->
<g id="edge9" class="edge">
<title>Node5&#45;&gt;Node10</title>
<path fill="none" stroke="midnightblue" d="M2489.39,-138.53C2609.87,-121.34 2867.96,-86.09 3087,-67 3392.92,-40.33 3471.06,-57.43 3777,-31 3795.29,-29.42 3815.1,-27.23 3833.25,-25.02"/>
<polygon fill="midnightblue" stroke="midnightblue" points="2488.61,-135.11 2479.21,-139.99 2489.6,-142.04 2488.61,-135.11"/>
</g>
<!-- Node7 -->
<g id="node7" class="node">
<title>Node7</title>
<g id="a_node7"><a xlink:href="../../df/d3e/application__2d_8cpp.html" target="_top" xlink:title=" ">
<polygon fill="white" stroke="black" points="325.5,-0.5 325.5,-30.5 452.5,-30.5 452.5,-0.5 325.5,-0.5"/>
<text text-anchor="start" x="333.5" y="-18.5" font-family="Helvetica,sans-Serif" font-size="10.00">src/app/seamly2d/core</text>
<text text-anchor="middle" x="389" y="-7.5" font-family="Helvetica,sans-Serif" font-size="10.00">/application_2d.cpp</text>
</a>
</g>
</g>
<!-- Node6&#45;&gt;Node7 -->
<g id="edge6" class="edge">
<title>Node6&#45;&gt;Node7</title>
<path fill="none" stroke="midnightblue" d="M676.66,-71.16C621.38,-61.14 535.4,-45.37 461,-31 458.25,-30.47 455.43,-29.92 452.59,-29.36"/>
<polygon fill="midnightblue" stroke="midnightblue" points="676.15,-74.63 686.61,-72.97 677.4,-67.74 676.15,-74.63"/>
</g>
<!-- Node8 -->
<g id="node8" class="node">
<title>Node8</title>
<g id="a_node8"><a xlink:href="../../dc/d14/app_2seamly2d_2main_8cpp.html" target="_top" xlink:title=" ">
<polygon fill="white" stroke="black" points="470.5,-6 470.5,-25 621.5,-25 621.5,-6 470.5,-6"/>
<text text-anchor="middle" x="546" y="-13" font-family="Helvetica,sans-Serif" font-size="10.00">src/app/seamly2d/main.cpp</text>
</a>
</g>
</g>
<!-- Node6&#45;&gt;Node8 -->
<g id="edge7" class="edge">
<title>Node6&#45;&gt;Node8</title>
<path fill="none" stroke="midnightblue" d="M699.11,-69.44C661.81,-56.54 603.63,-36.42 570.77,-25.06"/>
<polygon fill="midnightblue" stroke="midnightblue" points="698.44,-72.91 709.04,-72.87 700.73,-66.29 698.44,-72.91"/>
</g>
<!-- Node9 -->
<g id="node9" class="node">
<title>Node9</title>
<g id="a_node9"><a xlink:href="../../d8/dd9/mainwindow_8cpp.html" target="_top" xlink:title=" ">
<polygon fill="white" stroke="black" points="640,-6 640,-25 828,-25 828,-6 640,-6"/>
<text text-anchor="middle" x="734" y="-13" font-family="Helvetica,sans-Serif" font-size="10.00">src/app/seamly2d/mainwindow.cpp</text>
</a>
</g>
</g>
<!-- Node6&#45;&gt;Node9 -->
<g id="edge8" class="edge">
<title>Node6&#45;&gt;Node9</title>
<path fill="none" stroke="midnightblue" d="M734,-62.54C734,-50.17 734,-34.62 734,-25.13"/>
<polygon fill="midnightblue" stroke="midnightblue" points="730.5,-62.73 734,-72.73 737.5,-62.73 730.5,-62.73"/>
</g>
<!-- Node11&#45;&gt;Node10 -->
<g id="edge41" class="edge">
<title>Node11&#45;&gt;Node10</title>
<path fill="none" stroke="midnightblue" d="M2653.84,-210.37C2760.01,-203.08 2952.05,-188.01 3115,-165 3403.03,-124.33 3746.11,-50.14 3858.97,-25.05"/>
<polygon fill="midnightblue" stroke="midnightblue" points="2653.58,-206.88 2643.84,-211.05 2654.06,-213.86 2653.58,-206.88"/>
</g>
<!-- Node12 -->
<g id="node12" class="node">
<title>Node12</title>
<g id="a_node12"><a xlink:href="../../dd/d57/vcmdexport_8h.html" target="_top" xlink:title=" ">
<polygon fill="white" stroke="black" points="2171.5,-134.5 2171.5,-164.5 2298.5,-164.5 2298.5,-134.5 2171.5,-134.5"/>
<text text-anchor="start" x="2179.5" y="-152.5" font-family="Helvetica,sans-Serif" font-size="10.00">src/app/seamly2d/core</text>
<text text-anchor="middle" x="2235" y="-141.5" font-family="Helvetica,sans-Serif" font-size="10.00">/vcmdexport.h</text>
</a>
</g>
</g>
<!-- Node11&#45;&gt;Node12 -->
<g id="edge12" class="edge">
<title>Node11&#45;&gt;Node12</title>
<path fill="none" stroke="midnightblue" d="M2492.42,-200.44C2439.65,-190.52 2369.19,-177.17 2307,-165 2304.25,-164.46 2301.44,-163.91 2298.6,-163.35"/>
<polygon fill="midnightblue" stroke="midnightblue" points="2491.92,-203.91 2502.39,-202.32 2493.21,-197.03 2491.92,-203.91"/>
</g>
<!-- Node26 -->
<g id="node26" class="node">
<title>Node26</title>
<g id="a_node26"><a xlink:href="../../d0/dfa/layoutsettings__dialog_8cpp.html" target="_top" xlink:title=" ">
<polygon fill="white" stroke="black" points="4025.5,-0.5 4025.5,-30.5 4170.5,-30.5 4170.5,-0.5 4025.5,-0.5"/>
<text text-anchor="start" x="4033.5" y="-18.5" font-family="Helvetica,sans-Serif" font-size="10.00">src/app/seamly2d/dialogs</text>
<text text-anchor="middle" x="4098" y="-7.5" font-family="Helvetica,sans-Serif" font-size="10.00">/layoutsettings_dialog.cpp</text>
</a>
</g>
</g>
<!-- Node11&#45;&gt;Node26 -->
<g id="edge40" class="edge">
<title>Node11&#45;&gt;Node26</title>
<path fill="none" stroke="midnightblue" d="M2653.88,-211.53C2776.9,-204.97 3018.25,-190.05 3222,-165 3577.64,-121.28 3663.97,-92.35 4017,-31 4019.67,-30.54 4022.4,-30.06 4025.15,-29.58"/>
<polygon fill="midnightblue" stroke="midnightblue" points="2653.59,-208.04 2643.79,-212.07 2653.96,-215.03 2653.59,-208.04"/>
</g>
<!-- Node31 -->
<g id="node31" class="node">
<title>Node31</title>
<g id="a_node31"><a xlink:href="../../df/d9b/vcmdexport_8cpp.html" target="_top" xlink:title=" ">
<polygon fill="white" stroke="black" points="2410.5,-67.5 2410.5,-97.5 2537.5,-97.5 2537.5,-67.5 2410.5,-67.5"/>
<text text-anchor="start" x="2418.5" y="-85.5" font-family="Helvetica,sans-Serif" font-size="10.00">src/app/seamly2d/core</text>
<text text-anchor="middle" x="2474" y="-74.5" font-family="Helvetica,sans-Serif" font-size="10.00">/vcmdexport.cpp</text>
</a>
</g>
</g>
<!-- Node11&#45;&gt;Node31 -->
<g id="edge39" class="edge">
<title>Node11&#45;&gt;Node31</title>
<path fill="none" stroke="midnightblue" d="M2564.63,-191.45C2557.96,-174.37 2547.52,-151.46 2534,-134 2523,-119.79 2507.39,-106.81 2494.85,-97.56"/>
<polygon fill="midnightblue" stroke="midnightblue" points="2561.5,-193.08 2568.28,-201.23 2568.06,-190.63 2561.5,-193.08"/>
</g>
<!-- Node12&#45;&gt;Node6 -->
<g id="edge38" class="edge">
<title>Node12&#45;&gt;Node6</title>
<path fill="none" stroke="midnightblue" d="M2161.39,-145.31C1911.13,-134.48 1093.71,-99.08 822.41,-87.33"/>
<polygon fill="midnightblue" stroke="midnightblue" points="2161.32,-148.81 2171.46,-145.75 2161.62,-141.82 2161.32,-148.81"/>
</g>
<!-- Node13 -->
<g id="node13" class="node">
<title>Node13</title>
<g id="a_node13"><a xlink:href="../../d7/d61/application__2d_8h.html" target="_top" xlink:title=" ">
<polygon fill="white" stroke="black" points="2171.5,-67.5 2171.5,-97.5 2298.5,-97.5 2298.5,-67.5 2171.5,-67.5"/>
<text text-anchor="start" x="2179.5" y="-85.5" font-family="Helvetica,sans-Serif" font-size="10.00">src/app/seamly2d/core</text>
<text text-anchor="middle" x="2235" y="-74.5" font-family="Helvetica,sans-Serif" font-size="10.00">/application_2d.h</text>
</a>
</g>
</g>
<!-- Node12&#45;&gt;Node13 -->
<g id="edge13" class="edge">
<title>Node12&#45;&gt;Node13</title>
<path fill="none" stroke="midnightblue" d="M2235,-124.11C2235,-115.15 2235,-105.32 2235,-97.58"/>
<polygon fill="midnightblue" stroke="midnightblue" points="2231.5,-124.4 2235,-134.4 2238.5,-124.4 2231.5,-124.4"/>
</g>
<!-- Node12&#45;&gt;Node31 -->
<g id="edge37" class="edge">
<title>Node12&#45;&gt;Node31</title>
<path fill="none" stroke="midnightblue" d="M2296.22,-131.85C2335.19,-121.25 2385.1,-107.68 2422.12,-97.61"/>
<polygon fill="midnightblue" stroke="midnightblue" points="2295.3,-128.47 2286.57,-134.48 2297.13,-135.23 2295.3,-128.47"/>
</g>
<!-- Node13&#45;&gt;Node2 -->
<g id="edge15" class="edge">
<title>Node13&#45;&gt;Node2</title>
<path fill="none" stroke="midnightblue" d="M2161.34,-81.2C1839.66,-79.67 556.23,-71.11 155,-31 152.12,-30.71 149.19,-30.38 146.24,-30.01"/>
<polygon fill="midnightblue" stroke="midnightblue" points="2161.46,-84.7 2171.48,-81.25 2161.49,-77.7 2161.46,-84.7"/>
</g>
<!-- Node13&#45;&gt;Node4 -->
<g id="edge27" class="edge">
<title>Node13&#45;&gt;Node4</title>
<path fill="none" stroke="midnightblue" d="M2161.32,-81.07C1855.33,-79.05 683.74,-68.94 316,-31 313.33,-30.72 310.62,-30.41 307.88,-30.06"/>
<polygon fill="midnightblue" stroke="midnightblue" points="2161.38,-84.57 2171.41,-81.14 2161.43,-77.57 2161.38,-84.57"/>
</g>
<!-- Node13&#45;&gt;Node7 -->
<g id="edge14" class="edge">
<title>Node13&#45;&gt;Node7</title>
<path fill="none" stroke="midnightblue" d="M2161.14,-81.07C1869.61,-79.13 798.33,-69.48 461,-31 458.21,-30.68 455.37,-30.31 452.51,-29.9"/>
<polygon fill="midnightblue" stroke="midnightblue" points="2161.16,-84.57 2171.18,-81.14 2161.2,-77.57 2161.16,-84.57"/>
</g>
<!-- Node13&#45;&gt;Node8 -->
<g id="edge33" class="edge">
<title>Node13&#45;&gt;Node8</title>
<path fill="none" stroke="midnightblue" d="M2161.1,-80.52C1887.71,-76.7 933.77,-61.45 631,-31 617.3,-29.62 602.46,-27.36 589.09,-25.03"/>
<polygon fill="midnightblue" stroke="midnightblue" points="2161.26,-84.03 2171.31,-80.67 2161.36,-77.03 2161.26,-84.03"/>
</g>
<!-- Node13&#45;&gt;Node9 -->
<g id="edge36" class="edge">
<title>Node13&#45;&gt;Node9</title>
<path fill="none" stroke="midnightblue" d="M2161.25,-81.53C1952.85,-81.02 1341.97,-75.54 837,-31 820.63,-29.56 802.88,-27.31 786.81,-25.01"/>
<polygon fill="midnightblue" stroke="midnightblue" points="2161.45,-85.03 2171.46,-81.55 2161.46,-78.03 2161.45,-85.03"/>
</g>
<!-- Node13&#45;&gt;Node10 -->
<g id="edge34" class="edge">
<title>Node13&#45;&gt;Node10</title>
<path fill="none" stroke="midnightblue" d="M2308.76,-74.09C2337.51,-71.45 2370.77,-68.71 2401,-67 3011.78,-32.37 3166.87,-75.74 3777,-31 3796.15,-29.6 3816.94,-27.34 3835.75,-25.03"/>
<polygon fill="midnightblue" stroke="midnightblue" points="2308.42,-70.6 2298.78,-75.01 2309.07,-77.57 2308.42,-70.6"/>
</g>
<!-- Node14 -->
<g id="node14" class="node">
<title>Node14</title>
<g id="a_node14"><a xlink:href="../../d7/dfa/calculator__dialog_8cpp.html" target="_top" xlink:title=" ">
<polygon fill="white" stroke="black" points="846.5,-0.5 846.5,-30.5 987.5,-30.5 987.5,-0.5 846.5,-0.5"/>
<text text-anchor="start" x="854.5" y="-18.5" font-family="Helvetica,sans-Serif" font-size="10.00">src/app/seamly2d/dialogs</text>
<text text-anchor="middle" x="917" y="-7.5" font-family="Helvetica,sans-Serif" font-size="10.00">/calculator_dialog.cpp</text>
</a>
</g>
</g>
<!-- Node13&#45;&gt;Node14 -->
<g id="edge16" class="edge">
<title>Node13&#45;&gt;Node14</title>
<path fill="none" stroke="midnightblue" d="M2161.03,-82.05C1968.57,-82.7 1436.57,-79.57 997,-31 993.91,-30.66 990.77,-30.27 987.59,-29.84"/>
<polygon fill="midnightblue" stroke="midnightblue" points="2161.32,-85.55 2171.31,-82.01 2161.3,-78.55 2161.32,-85.55"/>
</g>
<!-- Node15 -->
<g id="node15" class="node">
<title>Node15</title>
<g id="a_node15"><a xlink:href="../../d2/d00/vtooloptionspropertybrowser_8cpp.html" target="_top" xlink:title=" ">
<polygon fill="white" stroke="black" points="1006,-0.5 1006,-30.5 1186,-30.5 1186,-0.5 1006,-0.5"/>
<text text-anchor="start" x="1014" y="-18.5" font-family="Helvetica,sans-Serif" font-size="10.00">src/app/seamly2d/core</text>
<text text-anchor="middle" x="1096" y="-7.5" font-family="Helvetica,sans-Serif" font-size="10.00">/vtooloptionspropertybrowser.cpp</text>
</a>
</g>
</g>
<!-- Node13&#45;&gt;Node15 -->
<g id="edge17" class="edge">
<title>Node13&#45;&gt;Node15</title>
<path fill="none" stroke="midnightblue" d="M2161.12,-80.37C1990.54,-77.22 1556.23,-66.14 1195,-31 1192.06,-30.71 1189.08,-30.4 1186.06,-30.07"/>
<polygon fill="midnightblue" stroke="midnightblue" points="2161.17,-83.87 2171.24,-80.55 2161.3,-76.87 2161.17,-83.87"/>
</g>
<!-- Node16 -->
<g id="node16" class="node">
<title>Node16</title>
<g id="a_node16"><a xlink:href="../../d2/d2d/preferencesconfigurationpage_8cpp.html" target="_top" xlink:title=" ">
<polygon fill="white" stroke="black" points="1204.5,-0.5 1204.5,-30.5 1451.5,-30.5 1451.5,-0.5 1204.5,-0.5"/>
<text text-anchor="start" x="1212.5" y="-18.5" font-family="Helvetica,sans-Serif" font-size="10.00">src/app/seamly2d/dialogs</text>
<text text-anchor="middle" x="1328" y="-7.5" font-family="Helvetica,sans-Serif" font-size="10.00">/configpages/preferencesconfigurationpage.cpp</text>
</a>
</g>
</g>
<!-- Node13&#45;&gt;Node16 -->
<g id="edge18" class="edge">
<title>Node13&#45;&gt;Node16</title>
<path fill="none" stroke="midnightblue" d="M2161.46,-77.77C2023.82,-70.55 1718.01,-53.38 1461,-31 1457.88,-30.73 1454.71,-30.44 1451.52,-30.15"/>
<polygon fill="midnightblue" stroke="midnightblue" points="2161.3,-81.26 2171.47,-78.29 2161.67,-74.27 2161.3,-81.26"/>
</g>
<!-- Node17 -->
<g id="node17" class="node">
<title>Node17</title>
<g id="a_node17"><a xlink:href="../../d9/d70/preferencesgraphicsviewpage_8cpp.html" target="_top" xlink:title=" ">
<polygon fill="white" stroke="black" points="1470,-0.5 1470,-30.5 1718,-30.5 1718,-0.5 1470,-0.5"/>
<text text-anchor="start" x="1478" y="-18.5" font-family="Helvetica,sans-Serif" font-size="10.00">src/app/seamly2d/dialogs</text>
<text text-anchor="middle" x="1594" y="-7.5" font-family="Helvetica,sans-Serif" font-size="10.00">/configpages/preferencesgraphicsviewpage.cpp</text>
</a>
</g>
</g>
<!-- Node13&#45;&gt;Node17 -->
<g id="edge19" class="edge">
<title>Node13&#45;&gt;Node17</title>
<path fill="none" stroke="midnightblue" d="M2161.04,-74.37C2062.12,-64.78 1881.31,-47.08 1727,-31 1724.11,-30.7 1721.19,-30.39 1718.24,-30.08"/>
<polygon fill="midnightblue" stroke="midnightblue" points="2160.93,-77.88 2171.23,-75.36 2161.61,-70.91 2160.93,-77.88"/>
</g>
<!-- Node18 -->
<g id="node18" class="node">
<title>Node18</title>
<g id="a_node18"><a xlink:href="../../dd/dc2/decimalchart__dialog_8cpp.html" target="_top" xlink:title=" ">
<polygon fill="white" stroke="black" points="1736.5,-0.5 1736.5,-30.5 1877.5,-30.5 1877.5,-0.5 1736.5,-0.5"/>
<text text-anchor="start" x="1744.5" y="-18.5" font-family="Helvetica,sans-Serif" font-size="10.00">src/app/seamly2d/dialogs</text>
<text text-anchor="middle" x="1807" y="-7.5" font-family="Helvetica,sans-Serif" font-size="10.00">/decimalchart_dialog.cpp</text>
</a>
</g>
</g>
<!-- Node13&#45;&gt;Node18 -->
<g id="edge20" class="edge">
<title>Node13&#45;&gt;Node18</title>
<path fill="none" stroke="midnightblue" d="M2161.28,-71.57C2090.76,-61.89 1981.47,-46.41 1887,-31 1883.94,-30.5 1880.81,-29.98 1877.65,-29.44"/>
<polygon fill="midnightblue" stroke="midnightblue" points="2161.01,-75.06 2171.39,-72.95 2161.96,-68.13 2161.01,-75.06"/>
</g>
<!-- Node19 -->
<g id="node19" class="node">
<title>Node19</title>
<g id="a_node19"><a xlink:href="../../dc/d63/preferencespatternpage_8cpp.html" target="_top" xlink:title=" ">
<polygon fill="white" stroke="black" points="1896,-0.5 1896,-30.5 2114,-30.5 2114,-0.5 1896,-0.5"/>
<text text-anchor="start" x="1904" y="-18.5" font-family="Helvetica,sans-Serif" font-size="10.00">src/app/seamly2d/dialogs</text>
<text text-anchor="middle" x="2005" y="-7.5" font-family="Helvetica,sans-Serif" font-size="10.00">/configpages/preferencespatternpage.cpp</text>
</a>
</g>
</g>
<!-- Node13&#45;&gt;Node19 -->
<g id="edge21" class="edge">
<title>Node13&#45;&gt;Node19</title>
<path fill="none" stroke="midnightblue" d="M2175.61,-64.71C2138.18,-54.14 2090.4,-40.63 2054.93,-30.61"/>
<polygon fill="midnightblue" stroke="midnightblue" points="2174.8,-68.12 2185.38,-67.48 2176.71,-61.39 2174.8,-68.12"/>
</g>
<!-- Node20 -->
<g id="node20" class="node">
<title>Node20</title>
<g id="a_node20"><a xlink:href="../../dc/d20/preferencespathpage_8cpp.html" target="_top" xlink:title=" ">
<polygon fill="white" stroke="black" points="2132.5,-0.5 2132.5,-30.5 2337.5,-30.5 2337.5,-0.5 2132.5,-0.5"/>
<text text-anchor="start" x="2140.5" y="-18.5" font-family="Helvetica,sans-Serif" font-size="10.00">src/app/seamly2d/dialogs</text>
<text text-anchor="middle" x="2235" y="-7.5" font-family="Helvetica,sans-Serif" font-size="10.00">/configpages/preferencespathpage.cpp</text>
</a>
</g>
</g>
<!-- Node13&#45;&gt;Node20 -->
<g id="edge22" class="edge">
<title>Node13&#45;&gt;Node20</title>
<path fill="none" stroke="midnightblue" d="M2235,-57.11C2235,-48.15 2235,-38.32 2235,-30.58"/>
<polygon fill="midnightblue" stroke="midnightblue" points="2231.5,-57.4 2235,-67.4 2238.5,-57.4 2231.5,-57.4"/>
</g>
<!-- Node21 -->
<g id="node21" class="node">
<title>Node21</title>
<g id="a_node21"><a xlink:href="../../dd/d64/dialogaboutapp_8cpp.html" target="_top" xlink:title=" ">
<polygon fill="white" stroke="black" points="2355.5,-0.5 2355.5,-30.5 2496.5,-30.5 2496.5,-0.5 2355.5,-0.5"/>
<text text-anchor="start" x="2363.5" y="-18.5" font-family="Helvetica,sans-Serif" font-size="10.00">src/app/seamly2d/dialogs</text>
<text text-anchor="middle" x="2426" y="-7.5" font-family="Helvetica,sans-Serif" font-size="10.00">/dialogaboutapp.cpp</text>
</a>
</g>
</g>
<!-- Node13&#45;&gt;Node21 -->
<g id="edge23" class="edge">
<title>Node13&#45;&gt;Node21</title>
<path fill="none" stroke="midnightblue" d="M2286.15,-64.09C2316.99,-53.6 2355.75,-40.41 2384.64,-30.58"/>
<polygon fill="midnightblue" stroke="midnightblue" points="2284.78,-60.86 2276.44,-67.4 2287.04,-67.49 2284.78,-60.86"/>
</g>
<!-- Node22 -->
<g id="node22" class="node">
<title>Node22</title>
<g id="a_node22"><a xlink:href="../../d6/d89/dialoglayoutprogress_8cpp.html" target="_top" xlink:title=" ">
<polygon fill="white" stroke="black" points="2514.5,-0.5 2514.5,-30.5 2657.5,-30.5 2657.5,-0.5 2514.5,-0.5"/>
<text text-anchor="start" x="2522.5" y="-18.5" font-family="Helvetica,sans-Serif" font-size="10.00">src/app/seamly2d/dialogs</text>
<text text-anchor="middle" x="2586" y="-7.5" font-family="Helvetica,sans-Serif" font-size="10.00">/dialoglayoutprogress.cpp</text>
</a>
</g>
</g>
<!-- Node13&#45;&gt;Node22 -->
<g id="edge24" class="edge">
<title>Node13&#45;&gt;Node22</title>
<path fill="none" stroke="midnightblue" d="M2308.44,-67.9C2369,-56.69 2454.41,-40.87 2514.45,-29.75"/>
<polygon fill="midnightblue" stroke="midnightblue" points="2307.76,-64.47 2298.56,-69.73 2309.03,-71.35 2307.76,-64.47"/>
</g>
<!-- Node23 -->
<g id="node23" class="node">
<title>Node23</title>
<g id="a_node23"><a xlink:href="../../d5/d18/dialogpatternproperties_8cpp.html" target="_top" xlink:title=" ">
<polygon fill="white" stroke="black" points="2675.5,-0.5 2675.5,-30.5 2830.5,-30.5 2830.5,-0.5 2675.5,-0.5"/>
<text text-anchor="start" x="2683.5" y="-18.5" font-family="Helvetica,sans-Serif" font-size="10.00">src/app/seamly2d/dialogs</text>
<text text-anchor="middle" x="2753" y="-7.5" font-family="Helvetica,sans-Serif" font-size="10.00">/dialogpatternproperties.cpp</text>
</a>
</g>
</g>
<!-- Node13&#45;&gt;Node23 -->
<g id="edge25" class="edge">
<title>Node13&#45;&gt;Node23</title>
<path fill="none" stroke="midnightblue" d="M2308.84,-73.95C2394.78,-64.91 2540.92,-48.74 2666,-31 2669.03,-30.57 2672.12,-30.12 2675.24,-29.65"/>
<polygon fill="midnightblue" stroke="midnightblue" points="2308.24,-70.49 2298.66,-75.02 2308.97,-77.46 2308.24,-70.49"/>
</g>
<!-- Node24 -->
<g id="node24" class="node">
<title>Node24</title>
<g id="a_node24"><a xlink:href="../../d5/dc5/dialogpreferences_8cpp.html" target="_top" xlink:title=" ">
<polygon fill="white" stroke="black" points="2848.5,-0.5 2848.5,-30.5 2989.5,-30.5 2989.5,-0.5 2848.5,-0.5"/>
<text text-anchor="start" x="2856.5" y="-18.5" font-family="Helvetica,sans-Serif" font-size="10.00">src/app/seamly2d/dialogs</text>
<text text-anchor="middle" x="2919" y="-7.5" font-family="Helvetica,sans-Serif" font-size="10.00">/dialogpreferences.cpp</text>
</a>
</g>
</g>
<!-- Node13&#45;&gt;Node24 -->
<g id="edge26" class="edge">
<title>Node13&#45;&gt;Node24</title>
<path fill="none" stroke="midnightblue" d="M2308.82,-74.97C2337.58,-72.45 2370.83,-69.56 2401,-67 2595.63,-50.5 2645.34,-56.45 2839,-31 2842.08,-30.6 2845.22,-30.15 2848.39,-29.68"/>
<polygon fill="midnightblue" stroke="midnightblue" points="2308.5,-71.48 2298.84,-75.85 2309.11,-78.46 2308.5,-71.48"/>
</g>
<!-- Node25 -->
<g id="node25" class="node">
<title>Node25</title>
<g id="a_node25"><a xlink:href="../../db/d5c/groups__widget_8cpp.html" target="_top" xlink:title=" ">
<polygon fill="white" stroke="black" points="3007.5,-0.5 3007.5,-30.5 3148.5,-30.5 3148.5,-0.5 3007.5,-0.5"/>
<text text-anchor="start" x="3015.5" y="-18.5" font-family="Helvetica,sans-Serif" font-size="10.00">src/app/seamly2d/dialogs</text>
<text text-anchor="middle" x="3078" y="-7.5" font-family="Helvetica,sans-Serif" font-size="10.00">/groups_widget.cpp</text>
</a>
</g>
</g>
<!-- Node13&#45;&gt;Node25 -->
<g id="edge28" class="edge">
<title>Node13&#45;&gt;Node25</title>
<path fill="none" stroke="midnightblue" d="M2308.79,-74.63C2337.55,-72.06 2370.8,-69.23 2401,-67 2666.09,-47.43 2734.09,-62.76 2998,-31 3001.08,-30.63 3004.23,-30.21 3007.4,-29.77"/>
<polygon fill="midnightblue" stroke="midnightblue" points="2308.47,-71.14 2298.82,-75.52 2309.09,-78.11 2308.47,-71.14"/>
</g>
<!-- Node13&#45;&gt;Node26 -->
<g id="edge29" class="edge">
<title>Node13&#45;&gt;Node26</title>
<path fill="none" stroke="midnightblue" d="M2308.75,-74.02C2337.51,-71.38 2370.77,-68.66 2401,-67 3118.33,-27.72 3302.17,-102.51 4017,-31 4019.7,-30.73 4022.45,-30.42 4025.22,-30.08"/>
<polygon fill="midnightblue" stroke="midnightblue" points="2308.41,-70.54 2298.78,-74.95 2309.06,-77.51 2308.41,-70.54"/>
</g>
<!-- Node27 -->
<g id="node27" class="node">
<title>Node27</title>
<g id="a_node27"><a xlink:href="../../d2/df4/show__info__dialog_8cpp.html" target="_top" xlink:title=" ">
<polygon fill="white" stroke="black" points="3166.5,-0.5 3166.5,-30.5 3307.5,-30.5 3307.5,-0.5 3166.5,-0.5"/>
<text text-anchor="start" x="3174.5" y="-18.5" font-family="Helvetica,sans-Serif" font-size="10.00">src/app/seamly2d/dialogs</text>
<text text-anchor="middle" x="3237" y="-7.5" font-family="Helvetica,sans-Serif" font-size="10.00">/show_info_dialog.cpp</text>
</a>
</g>
</g>
<!-- Node13&#45;&gt;Node27 -->
<g id="edge30" class="edge">
<title>Node13&#45;&gt;Node27</title>
<path fill="none" stroke="midnightblue" d="M2308.78,-74.43C2337.54,-71.83 2370.79,-69.04 2401,-67 2736.62,-44.36 2822.78,-69.08 3157,-31 3160.09,-30.65 3163.23,-30.25 3166.4,-29.82"/>
<polygon fill="midnightblue" stroke="midnightblue" points="2308.45,-70.94 2298.8,-75.33 2309.08,-77.91 2308.45,-70.94"/>
</g>
<!-- Node28 -->
<g id="node28" class="node">
<title>Node28</title>
<g id="a_node28"><a xlink:href="../../df/d69/welcome__dialog_8cpp.html" target="_top" xlink:title=" ">
<polygon fill="white" stroke="black" points="3325.5,-0.5 3325.5,-30.5 3466.5,-30.5 3466.5,-0.5 3325.5,-0.5"/>
<text text-anchor="start" x="3333.5" y="-18.5" font-family="Helvetica,sans-Serif" font-size="10.00">src/app/seamly2d/dialogs</text>
<text text-anchor="middle" x="3396" y="-7.5" font-family="Helvetica,sans-Serif" font-size="10.00">/welcome_dialog.cpp</text>
</a>
</g>
</g>
<!-- Node13&#45;&gt;Node28 -->
<g id="edge31" class="edge">
<title>Node13&#45;&gt;Node28</title>
<path fill="none" stroke="midnightblue" d="M2308.77,-74.29C2337.53,-71.69 2370.78,-68.91 2401,-67 2807.17,-41.29 2911.45,-75.4 3316,-31 3319.09,-30.66 3322.23,-30.27 3325.41,-29.85"/>
<polygon fill="midnightblue" stroke="midnightblue" points="2308.44,-70.81 2298.8,-75.21 2309.07,-77.78 2308.44,-70.81"/>
</g>
<!-- Node29 -->
<g id="node29" class="node">
<title>Node29</title>
<g id="a_node29"><a xlink:href="../../dd/d84/shortcuts__dialog_8cpp.html" target="_top" xlink:title=" ">
<polygon fill="white" stroke="black" points="3484.5,-0.5 3484.5,-30.5 3625.5,-30.5 3625.5,-0.5 3484.5,-0.5"/>
<text text-anchor="start" x="3492.5" y="-18.5" font-family="Helvetica,sans-Serif" font-size="10.00">src/app/seamly2d/dialogs</text>
<text text-anchor="middle" x="3555" y="-7.5" font-family="Helvetica,sans-Serif" font-size="10.00">/shortcuts_dialog.cpp</text>
</a>
</g>
</g>
<!-- Node13&#45;&gt;Node29 -->
<g id="edge32" class="edge">
<title>Node13&#45;&gt;Node29</title>
<path fill="none" stroke="midnightblue" d="M2308.76,-74.2C2337.52,-71.58 2370.78,-68.83 2401,-67 2877.73,-38.21 3000.1,-81.72 3475,-31 3478.09,-30.67 3481.24,-30.29 3484.41,-29.87"/>
<polygon fill="midnightblue" stroke="midnightblue" points="2308.43,-70.72 2298.79,-75.12 2309.07,-77.69 2308.43,-70.72"/>
</g>
<!-- Node30 -->
<g id="node30" class="node">
<title>Node30</title>
<g id="a_node30"><a xlink:href="../../d3/d49/vpattern_8cpp.html" target="_top" xlink:title=" ">
<polygon fill="white" stroke="black" points="3643.5,-0.5 3643.5,-30.5 3768.5,-30.5 3768.5,-0.5 3643.5,-0.5"/>
<text text-anchor="start" x="3651.5" y="-18.5" font-family="Helvetica,sans-Serif" font-size="10.00">src/app/seamly2d/xml</text>
<text text-anchor="middle" x="3706" y="-7.5" font-family="Helvetica,sans-Serif" font-size="10.00">/vpattern.cpp</text>
</a>
</g>
</g>
<!-- Node13&#45;&gt;Node30 -->
<g id="edge35" class="edge">
<title>Node13&#45;&gt;Node30</title>
<path fill="none" stroke="midnightblue" d="M2308.76,-74.13C2337.52,-71.5 2370.77,-68.76 2401,-67 2948.31,-35.13 3089.32,-93.34 3634,-31 3637.04,-30.65 3640.14,-30.24 3643.27,-29.78"/>
<polygon fill="midnightblue" stroke="midnightblue" points="2308.42,-70.65 2298.79,-75.06 2309.07,-77.62 2308.42,-70.65"/>
</g>
</g>
</svg>
