<?xml version="1.0" encoding="UTF-8" standalone="no"?>
<!DOCTYPE svg PUBLIC "-//W3C//DTD SVG 1.1//EN"
 "http://www.w3.org/Graphics/SVG/1.1/DTD/svg11.dtd">
<!-- Generated by graphviz version 2.43.0 (0)
 -->
<!-- Title: src/app/seamly2d/dialogs/abstractlayout_dialog.h Pages: 1 -->
<svg width="4471pt" height="307pt"
 viewBox="0.00 0.00 4470.50 307.00" xmlns="http://www.w3.org/2000/svg" xmlns:xlink="http://www.w3.org/1999/xlink">
<g id="graph0" class="graph" transform="scale(1 1) rotate(0) translate(4 303)">
<title>src/app/seamly2d/dialogs/abstractlayout_dialog.h</title>
<polygon fill="white" stroke="transparent" points="-4,4 -4,-303 4466.5,-303 4466.5,4 -4,4"/>
<!-- Node1 -->
<g id="node1" class="node">
<title>Node1</title>
<g id="a_node1"><a xlink:title=" ">
<polygon fill="#bfbfbf" stroke="black" points="276.5,-268.5 276.5,-298.5 417.5,-298.5 417.5,-268.5 276.5,-268.5"/>
<text text-anchor="start" x="284.5" y="-286.5" font-family="Helvetica,sans-Serif" font-size="10.00">src/app/seamly2d/dialogs</text>
<text text-anchor="middle" x="347" y="-275.5" font-family="Helvetica,sans-Serif" font-size="10.00">/abstractlayout_dialog.h</text>
</a>
</g>
</g>
<!-- Node2 -->
<g id="node2" class="node">
<title>Node2</title>
<g id="a_node2"><a xlink:href="../../dd/db4/abstractlayout__dialog_8cpp.html" target="_top" xlink:title=" ">
<polygon fill="white" stroke="black" points="0,-0.5 0,-30.5 146,-30.5 146,-0.5 0,-0.5"/>
<text text-anchor="start" x="8" y="-18.5" font-family="Helvetica,sans-Serif" font-size="10.00">src/app/seamly2d/dialogs</text>
<text text-anchor="middle" x="73" y="-7.5" font-family="Helvetica,sans-Serif" font-size="10.00">/abstractlayout_dialog.cpp</text>
</a>
</g>
</g>
<!-- Node1&#45;&gt;Node2 -->
<g id="edge1" class="edge">
<title>Node1&#45;&gt;Node2</title>
<path fill="none" stroke="midnightblue" d="M312.15,-263.36C297.57,-254.64 280.83,-243.66 267,-232 187.91,-165.32 110.79,-66.83 83.44,-30.56"/>
<polygon fill="midnightblue" stroke="midnightblue" points="310.51,-266.45 320.91,-268.48 314.05,-260.41 310.51,-266.45"/>
</g>
<!-- Node3 -->
<g id="node3" class="node">
<title>Node3</title>
<g id="a_node3"><a xlink:href="../../d1/d8e/export__layout__dialog_8h.html" target="_top" xlink:title=" ">
<polygon fill="white" stroke="black" points="276.5,-201.5 276.5,-231.5 417.5,-231.5 417.5,-201.5 276.5,-201.5"/>
<text text-anchor="start" x="284.5" y="-219.5" font-family="Helvetica,sans-Serif" font-size="10.00">src/app/seamly2d/dialogs</text>
<text text-anchor="middle" x="347" y="-208.5" font-family="Helvetica,sans-Serif" font-size="10.00">/export_layout_dialog.h</text>
</a>
</g>
</g>
<!-- Node1&#45;&gt;Node3 -->
<g id="edge2" class="edge">
<title>Node1&#45;&gt;Node3</title>
<path fill="none" stroke="midnightblue" d="M347,-258.11C347,-249.15 347,-239.32 347,-231.58"/>
<polygon fill="midnightblue" stroke="midnightblue" points="343.5,-258.4 347,-268.4 350.5,-258.4 343.5,-258.4"/>
</g>
<!-- Node11 -->
<g id="node11" class="node">
<title>Node11</title>
<g id="a_node11"><a xlink:href="../../d3/dd8/layoutsettings__dialog_8h.html" target="_top" xlink:title=" ">
<polygon fill="white" stroke="black" points="2168.5,-201.5 2168.5,-231.5 2309.5,-231.5 2309.5,-201.5 2168.5,-201.5"/>
<text text-anchor="start" x="2176.5" y="-219.5" font-family="Helvetica,sans-Serif" font-size="10.00">src/app/seamly2d/dialogs</text>
<text text-anchor="middle" x="2239" y="-208.5" font-family="Helvetica,sans-Serif" font-size="10.00">/layoutsettings_dialog.h</text>
</a>
</g>
</g>
<!-- Node1&#45;&gt;Node11 -->
<g id="edge11" class="edge">
<title>Node1&#45;&gt;Node11</title>
<path fill="none" stroke="midnightblue" d="M428.09,-279.71C741.89,-268.93 1873.7,-230.05 2168.43,-219.92"/>
<polygon fill="midnightblue" stroke="midnightblue" points="427.59,-276.23 417.72,-280.07 427.83,-283.23 427.59,-276.23"/>
</g>
<!-- Node4 -->
<g id="node4" class="node">
<title>Node4</title>
<g id="a_node4"><a xlink:href="../../dd/d54/export__layout__dialog_8cpp.html" target="_top" xlink:title=" ">
<polygon fill="white" stroke="black" points="403.5,-0.5 403.5,-30.5 546.5,-30.5 546.5,-0.5 403.5,-0.5"/>
<text text-anchor="start" x="411.5" y="-18.5" font-family="Helvetica,sans-Serif" font-size="10.00">src/app/seamly2d/dialogs</text>
<text text-anchor="middle" x="475" y="-7.5" font-family="Helvetica,sans-Serif" font-size="10.00">/export_layout_dialog.cpp</text>
</a>
</g>
</g>
<!-- Node3&#45;&gt;Node4 -->
<g id="edge3" class="edge">
<title>Node3&#45;&gt;Node4</title>
<path fill="none" stroke="midnightblue" d="M349.32,-191.33C351.7,-174.47 356.49,-151.89 366,-134 389.11,-90.51 432.37,-50.99 456.87,-30.74"/>
<polygon fill="midnightblue" stroke="midnightblue" points="345.82,-191.12 348.07,-201.47 352.76,-191.97 345.82,-191.12"/>
</g>
<!-- Node5 -->
<g id="node5" class="node">
<title>Node5</title>
<g id="a_node5"><a xlink:href="../../d8/de8/mainwindowsnogui_8cpp.html" target="_top" xlink:title=" ">
<polygon fill="white" stroke="black" points="164.5,-6 164.5,-25 385.5,-25 385.5,-6 164.5,-6"/>
<text text-anchor="middle" x="275" y="-13" font-family="Helvetica,sans-Serif" font-size="10.00">src/app/seamly2d/mainwindowsnogui.cpp</text>
</a>
</g>
</g>
<!-- Node3&#45;&gt;Node5 -->
<g id="edge4" class="edge">
<title>Node3&#45;&gt;Node5</title>
<path fill="none" stroke="midnightblue" d="M338.33,-191.53C322.29,-147.21 288.7,-54.38 278.21,-25.36"/>
<polygon fill="midnightblue" stroke="midnightblue" points="335.13,-192.98 341.82,-201.19 341.71,-190.59 335.13,-192.98"/>
</g>
<!-- Node6 -->
<g id="node6" class="node">
<title>Node6</title>
<g id="a_node6"><a xlink:href="../../d1/d82/mainwindowsnogui_8h.html" target="_top" xlink:title=" ">
<polygon fill="white" stroke="black" points="375.5,-140 375.5,-159 584.5,-159 584.5,-140 375.5,-140"/>
<text text-anchor="middle" x="480" y="-147" font-family="Helvetica,sans-Serif" font-size="10.00">src/app/seamly2d/mainwindowsnogui.h</text>
</a>
</g>
</g>
<!-- Node3&#45;&gt;Node6 -->
<g id="edge5" class="edge">
<title>Node3&#45;&gt;Node6</title>
<path fill="none" stroke="midnightblue" d="M384.92,-196.97C410.47,-184.48 442.97,-168.6 462.59,-159.01"/>
<polygon fill="midnightblue" stroke="midnightblue" points="383.31,-193.86 375.86,-201.4 386.38,-200.15 383.31,-193.86"/>
</g>
<!-- Node6&#45;&gt;Node5 -->
<g id="edge10" class="edge">
<title>Node6&#45;&gt;Node5</title>
<path fill="none" stroke="midnightblue" d="M458.02,-134.35C415.4,-106.9 322.68,-47.2 288.23,-25.02"/>
<polygon fill="midnightblue" stroke="midnightblue" points="456.25,-137.37 466.55,-139.84 460.04,-131.48 456.25,-137.37"/>
</g>
<!-- Node7 -->
<g id="node7" class="node">
<title>Node7</title>
<g id="a_node7"><a xlink:href="../../d9/d53/mainwindow_8h.html" target="_top" xlink:title=" ">
<polygon fill="white" stroke="black" points="697,-73 697,-92 873,-92 873,-73 697,-73"/>
<text text-anchor="middle" x="785" y="-80" font-family="Helvetica,sans-Serif" font-size="10.00">src/app/seamly2d/mainwindow.h</text>
</a>
</g>
</g>
<!-- Node6&#45;&gt;Node7 -->
<g id="edge6" class="edge">
<title>Node6&#45;&gt;Node7</title>
<path fill="none" stroke="midnightblue" d="M530.19,-137.8C590.21,-125.01 689.48,-103.86 744.72,-92.08"/>
<polygon fill="midnightblue" stroke="midnightblue" points="529.24,-134.43 520.19,-139.94 530.7,-141.27 529.24,-134.43"/>
</g>
<!-- Node8 -->
<g id="node8" class="node">
<title>Node8</title>
<g id="a_node8"><a xlink:href="../../df/d3e/application__2d_8cpp.html" target="_top" xlink:title=" ">
<polygon fill="white" stroke="black" points="564.5,-0.5 564.5,-30.5 691.5,-30.5 691.5,-0.5 564.5,-0.5"/>
<text text-anchor="start" x="572.5" y="-18.5" font-family="Helvetica,sans-Serif" font-size="10.00">src/app/seamly2d/core</text>
<text text-anchor="middle" x="628" y="-7.5" font-family="Helvetica,sans-Serif" font-size="10.00">/application_2d.cpp</text>
</a>
</g>
</g>
<!-- Node7&#45;&gt;Node8 -->
<g id="edge7" class="edge">
<title>Node7&#45;&gt;Node8</title>
<path fill="none" stroke="midnightblue" d="M754.6,-68.91C728.01,-57.91 689.45,-41.94 661.88,-30.53"/>
<polygon fill="midnightblue" stroke="midnightblue" points="753.57,-72.28 764.15,-72.87 756.25,-65.81 753.57,-72.28"/>
</g>
<!-- Node9 -->
<g id="node9" class="node">
<title>Node9</title>
<g id="a_node9"><a xlink:href="../../dc/d14/app_2seamly2d_2main_8cpp.html" target="_top" xlink:title=" ">
<polygon fill="white" stroke="black" points="709.5,-6 709.5,-25 860.5,-25 860.5,-6 709.5,-6"/>
<text text-anchor="middle" x="785" y="-13" font-family="Helvetica,sans-Serif" font-size="10.00">src/app/seamly2d/main.cpp</text>
</a>
</g>
</g>
<!-- Node7&#45;&gt;Node9 -->
<g id="edge8" class="edge">
<title>Node7&#45;&gt;Node9</title>
<path fill="none" stroke="midnightblue" d="M785,-62.54C785,-50.17 785,-34.62 785,-25.13"/>
<polygon fill="midnightblue" stroke="midnightblue" points="781.5,-62.73 785,-72.73 788.5,-62.73 781.5,-62.73"/>
</g>
<!-- Node10 -->
<g id="node10" class="node">
<title>Node10</title>
<g id="a_node10"><a xlink:href="../../d8/dd9/mainwindow_8cpp.html" target="_top" xlink:title=" ">
<polygon fill="white" stroke="black" points="879,-6 879,-25 1067,-25 1067,-6 879,-6"/>
<text text-anchor="middle" x="973" y="-13" font-family="Helvetica,sans-Serif" font-size="10.00">src/app/seamly2d/mainwindow.cpp</text>
</a>
</g>
</g>
<!-- Node7&#45;&gt;Node10 -->
<g id="edge9" class="edge">
<title>Node7&#45;&gt;Node10</title>
<path fill="none" stroke="midnightblue" d="M819.89,-69.44C857.19,-56.54 915.37,-36.42 948.23,-25.06"/>
<polygon fill="midnightblue" stroke="midnightblue" points="818.27,-66.29 809.96,-72.87 820.56,-72.91 818.27,-66.29"/>
</g>
<!-- Node11&#45;&gt;Node5 -->
<g id="edge43" class="edge">
<title>Node11&#45;&gt;Node5</title>
<path fill="none" stroke="midnightblue" d="M2158.03,-212.77C1927.36,-204.26 1247.34,-174.1 688,-98 547.15,-78.84 381.92,-41.75 310.67,-25.03"/>
<polygon fill="midnightblue" stroke="midnightblue" points="2158.23,-216.28 2168.35,-213.15 2158.48,-209.29 2158.23,-216.28"/>
</g>
<!-- Node12 -->
<g id="node12" class="node">
<title>Node12</title>
<g id="a_node12"><a xlink:href="../../dd/d57/vcmdexport_8h.html" target="_top" xlink:title=" ">
<polygon fill="white" stroke="black" points="2175.5,-134.5 2175.5,-164.5 2302.5,-164.5 2302.5,-134.5 2175.5,-134.5"/>
<text text-anchor="start" x="2183.5" y="-152.5" font-family="Helvetica,sans-Serif" font-size="10.00">src/app/seamly2d/core</text>
<text text-anchor="middle" x="2239" y="-141.5" font-family="Helvetica,sans-Serif" font-size="10.00">/vcmdexport.h</text>
</a>
</g>
</g>
<!-- Node11&#45;&gt;Node12 -->
<g id="edge12" class="edge">
<title>Node11&#45;&gt;Node12</title>
<path fill="none" stroke="midnightblue" d="M2239,-191.11C2239,-182.15 2239,-172.32 2239,-164.58"/>
<polygon fill="midnightblue" stroke="midnightblue" points="2235.5,-191.4 2239,-201.4 2242.5,-191.4 2235.5,-191.4"/>
</g>
<!-- Node26 -->
<g id="node26" class="node">
<title>Node26</title>
<g id="a_node26"><a xlink:href="../../d0/dfa/layoutsettings__dialog_8cpp.html" target="_top" xlink:title=" ">
<polygon fill="white" stroke="black" points="4317.5,-0.5 4317.5,-30.5 4462.5,-30.5 4462.5,-0.5 4317.5,-0.5"/>
<text text-anchor="start" x="4325.5" y="-18.5" font-family="Helvetica,sans-Serif" font-size="10.00">src/app/seamly2d/dialogs</text>
<text text-anchor="middle" x="4390" y="-7.5" font-family="Helvetica,sans-Serif" font-size="10.00">/layoutsettings_dialog.cpp</text>
</a>
</g>
</g>
<!-- Node11&#45;&gt;Node26 -->
<g id="edge42" class="edge">
<title>Node11&#45;&gt;Node26</title>
<path fill="none" stroke="midnightblue" d="M2319.84,-210.87C2597.56,-194.42 3538.04,-134.16 4309,-31 4311.69,-30.64 4314.43,-30.25 4317.19,-29.85"/>
<polygon fill="midnightblue" stroke="midnightblue" points="2319.62,-207.38 2309.85,-211.46 2320.03,-214.36 2319.62,-207.38"/>
</g>
<!-- Node33 -->
<g id="node33" class="node">
<title>Node33</title>
<g id="a_node33"><a xlink:href="../../df/d9b/vcmdexport_8cpp.html" target="_top" xlink:title=" ">
<polygon fill="white" stroke="black" points="2320.5,-67.5 2320.5,-97.5 2447.5,-97.5 2447.5,-67.5 2320.5,-67.5"/>
<text text-anchor="start" x="2328.5" y="-85.5" font-family="Helvetica,sans-Serif" font-size="10.00">src/app/seamly2d/core</text>
<text text-anchor="middle" x="2384" y="-74.5" font-family="Helvetica,sans-Serif" font-size="10.00">/vcmdexport.cpp</text>
</a>
</g>
</g>
<!-- Node11&#45;&gt;Node33 -->
<g id="edge41" class="edge">
<title>Node11&#45;&gt;Node33</title>
<path fill="none" stroke="midnightblue" d="M2270.4,-195.76C2283.47,-186.98 2298.48,-176.12 2311,-165 2335.15,-143.56 2359.42,-114.66 2373,-97.65"/>
<polygon fill="midnightblue" stroke="midnightblue" points="2268.14,-193.06 2261.72,-201.49 2271.99,-198.91 2268.14,-193.06"/>
</g>
<!-- Node12&#45;&gt;Node7 -->
<g id="edge40" class="edge">
<title>Node12&#45;&gt;Node7</title>
<path fill="none" stroke="midnightblue" d="M2164.9,-145.19C1919.99,-134.24 1137.16,-99.24 873.01,-87.43"/>
<polygon fill="midnightblue" stroke="midnightblue" points="2164.97,-148.69 2175.12,-145.64 2165.29,-141.7 2164.97,-148.69"/>
</g>
<!-- Node13 -->
<g id="node13" class="node">
<title>Node13</title>
<g id="a_node13"><a xlink:href="../../d7/d61/application__2d_8h.html" target="_top" xlink:title=" ">
<polygon fill="white" stroke="black" points="2175.5,-67.5 2175.5,-97.5 2302.5,-97.5 2302.5,-67.5 2175.5,-67.5"/>
<text text-anchor="start" x="2183.5" y="-85.5" font-family="Helvetica,sans-Serif" font-size="10.00">src/app/seamly2d/core</text>
<text text-anchor="middle" x="2239" y="-74.5" font-family="Helvetica,sans-Serif" font-size="10.00">/application_2d.h</text>
</a>
</g>
</g>
<!-- Node12&#45;&gt;Node13 -->
<g id="edge13" class="edge">
<title>Node12&#45;&gt;Node13</title>
<path fill="none" stroke="midnightblue" d="M2239,-124.11C2239,-115.15 2239,-105.32 2239,-97.58"/>
<polygon fill="midnightblue" stroke="midnightblue" points="2235.5,-124.4 2239,-134.4 2242.5,-124.4 2235.5,-124.4"/>
</g>
<!-- Node12&#45;&gt;Node33 -->
<g id="edge39" class="edge">
<title>Node12&#45;&gt;Node33</title>
<path fill="none" stroke="midnightblue" d="M2279.67,-130.27C2302.76,-119.92 2331.24,-107.15 2352.6,-97.58"/>
<polygon fill="midnightblue" stroke="midnightblue" points="2278.16,-127.11 2270.46,-134.4 2281.02,-133.5 2278.16,-127.11"/>
</g>
<!-- Node13&#45;&gt;Node2 -->
<g id="edge14" class="edge">
<title>Node13&#45;&gt;Node2</title>
<path fill="none" stroke="midnightblue" d="M2165.2,-81.21C1842.9,-79.69 557,-71.18 155,-31 152.12,-30.71 149.19,-30.38 146.24,-30.02"/>
<polygon fill="midnightblue" stroke="midnightblue" points="2165.34,-84.71 2175.36,-81.25 2165.37,-77.71 2165.34,-84.71"/>
</g>
<!-- Node13&#45;&gt;Node4 -->
<g id="edge28" class="edge">
<title>Node13&#45;&gt;Node4</title>
<path fill="none" stroke="midnightblue" d="M2165.2,-80.75C1883.27,-77.68 874.13,-64.52 555,-31 552.33,-30.72 549.62,-30.4 546.89,-30.05"/>
<polygon fill="midnightblue" stroke="midnightblue" points="2165.28,-84.26 2175.32,-80.86 2165.35,-77.26 2165.28,-84.26"/>
</g>
<!-- Node13&#45;&gt;Node5 -->
<g id="edge35" class="edge">
<title>Node13&#45;&gt;Node5</title>
<path fill="none" stroke="midnightblue" d="M2165.12,-81.96C1915.56,-83 1081.09,-82.15 394,-31 375.01,-29.59 354.39,-27.33 335.74,-25.02"/>
<polygon fill="midnightblue" stroke="midnightblue" points="2165.17,-85.46 2175.16,-81.92 2165.14,-78.46 2165.17,-85.46"/>
</g>
<!-- Node13&#45;&gt;Node8 -->
<g id="edge18" class="edge">
<title>Node13&#45;&gt;Node8</title>
<path fill="none" stroke="midnightblue" d="M2164.98,-80.7C1898.54,-77.56 988.9,-64.6 700,-31 697.21,-30.68 694.37,-30.3 691.51,-29.88"/>
<polygon fill="midnightblue" stroke="midnightblue" points="2165.27,-84.2 2175.31,-80.82 2165.35,-77.2 2165.27,-84.2"/>
</g>
<!-- Node13&#45;&gt;Node9 -->
<g id="edge34" class="edge">
<title>Node13&#45;&gt;Node9</title>
<path fill="none" stroke="midnightblue" d="M2165.26,-82.2C1959.63,-83.4 1362.63,-81.88 870,-31 856.45,-29.6 841.79,-27.36 828.53,-25.06"/>
<polygon fill="midnightblue" stroke="midnightblue" points="2165.36,-85.7 2175.33,-82.13 2165.31,-78.7 2165.36,-85.7"/>
</g>
<!-- Node13&#45;&gt;Node10 -->
<g id="edge37" class="edge">
<title>Node13&#45;&gt;Node10</title>
<path fill="none" stroke="midnightblue" d="M2165.07,-80.76C1980.8,-78.38 1486.34,-68.7 1076,-31 1059.82,-29.51 1042.28,-27.28 1026.34,-25.01"/>
<polygon fill="midnightblue" stroke="midnightblue" points="2165.15,-84.26 2175.19,-80.89 2165.23,-77.26 2165.15,-84.26"/>
</g>
<!-- Node14 -->
<g id="node14" class="node">
<title>Node14</title>
<g id="a_node14"><a xlink:href="../../d9/d7f/about2d__dialog_8cpp.html" target="_top" xlink:title=" ">
<polygon fill="white" stroke="black" points="3734.5,-0.5 3734.5,-30.5 3875.5,-30.5 3875.5,-0.5 3734.5,-0.5"/>
<text text-anchor="start" x="3742.5" y="-18.5" font-family="Helvetica,sans-Serif" font-size="10.00">src/app/seamly2d/dialogs</text>
<text text-anchor="middle" x="3805" y="-7.5" font-family="Helvetica,sans-Serif" font-size="10.00">/about2d_dialog.cpp</text>
</a>
</g>
</g>
<!-- Node13&#45;&gt;Node14 -->
<g id="edge15" class="edge">
<title>Node13&#45;&gt;Node14</title>
<path fill="none" stroke="midnightblue" d="M2312.68,-66.95C2937.92,2.3 3103.63,-95.63 3726,-31 3728.77,-30.71 3731.6,-30.38 3734.44,-30.01"/>
<polygon fill="midnightblue" stroke="midnightblue" points="2312.06,-63.5 2302.51,-68.09 2312.84,-70.46 2312.06,-63.5"/>
</g>
<!-- Node15 -->
<g id="node15" class="node">
<title>Node15</title>
<g id="a_node15"><a xlink:href="../../d7/dfa/calculator__dialog_8cpp.html" target="_top" xlink:title=" ">
<polygon fill="white" stroke="black" points="3893.5,-0.5 3893.5,-30.5 4034.5,-30.5 4034.5,-0.5 3893.5,-0.5"/>
<text text-anchor="start" x="3901.5" y="-18.5" font-family="Helvetica,sans-Serif" font-size="10.00">src/app/seamly2d/dialogs</text>
<text text-anchor="middle" x="3964" y="-7.5" font-family="Helvetica,sans-Serif" font-size="10.00">/calculator_dialog.cpp</text>
</a>
</g>
</g>
<!-- Node13&#45;&gt;Node15 -->
<g id="edge16" class="edge">
<title>Node13&#45;&gt;Node15</title>
<path fill="none" stroke="midnightblue" d="M2312.53,-66.97C3008.2,9.3 3192.23,-102.05 3885,-31 3887.77,-30.72 3890.6,-30.39 3893.44,-30.02"/>
<polygon fill="midnightblue" stroke="midnightblue" points="2312.06,-63.5 2302.51,-68.08 2312.83,-70.46 2312.06,-63.5"/>
</g>
<!-- Node16 -->
<g id="node16" class="node">
<title>Node16</title>
<g id="a_node16"><a xlink:href="../../d2/d2d/preferencesconfigurationpage_8cpp.html" target="_top" xlink:title=" ">
<polygon fill="white" stroke="black" points="4052.5,-0.5 4052.5,-30.5 4299.5,-30.5 4299.5,-0.5 4052.5,-0.5"/>
<text text-anchor="start" x="4060.5" y="-18.5" font-family="Helvetica,sans-Serif" font-size="10.00">src/app/seamly2d/dialogs</text>
<text text-anchor="middle" x="4176" y="-7.5" font-family="Helvetica,sans-Serif" font-size="10.00">/configpages/preferencesconfigurationpage.cpp</text>
</a>
</g>
</g>
<!-- Node13&#45;&gt;Node16 -->
<g id="edge17" class="edge">
<title>Node13&#45;&gt;Node16</title>
<path fill="none" stroke="midnightblue" d="M2312.68,-66.96C3078.51,16.52 3278.62,-80.89 4044,-31 4046.76,-30.82 4049.55,-30.63 4052.37,-30.42"/>
<polygon fill="midnightblue" stroke="midnightblue" points="2312.07,-63.5 2302.51,-68.07 2312.83,-70.46 2312.07,-63.5"/>
</g>
<!-- Node17 -->
<g id="node17" class="node">
<title>Node17</title>
<g id="a_node17"><a xlink:href="../../d9/d70/preferencesgraphicsviewpage_8cpp.html" target="_top" xlink:title=" ">
<polygon fill="white" stroke="black" points="1085,-0.5 1085,-30.5 1333,-30.5 1333,-0.5 1085,-0.5"/>
<text text-anchor="start" x="1093" y="-18.5" font-family="Helvetica,sans-Serif" font-size="10.00">src/app/seamly2d/dialogs</text>
<text text-anchor="middle" x="1209" y="-7.5" font-family="Helvetica,sans-Serif" font-size="10.00">/configpages/preferencesgraphicsviewpage.cpp</text>
</a>
</g>
</g>
<!-- Node13&#45;&gt;Node17 -->
<g id="edge19" class="edge">
<title>Node13&#45;&gt;Node17</title>
<path fill="none" stroke="midnightblue" d="M2165.05,-78.65C2011.52,-72.44 1647.05,-56.2 1342,-31 1339.11,-30.76 1336.18,-30.51 1333.23,-30.25"/>
<polygon fill="midnightblue" stroke="midnightblue" points="2165.16,-82.16 2175.3,-79.06 2165.45,-75.16 2165.16,-82.16"/>
</g>
<!-- Node18 -->
<g id="node18" class="node">
<title>Node18</title>
<g id="a_node18"><a xlink:href="../../d2/d00/vtooloptionspropertybrowser_8cpp.html" target="_top" xlink:title=" ">
<polygon fill="white" stroke="black" points="1351,-0.5 1351,-30.5 1531,-30.5 1531,-0.5 1351,-0.5"/>
<text text-anchor="start" x="1359" y="-18.5" font-family="Helvetica,sans-Serif" font-size="10.00">src/app/seamly2d/core</text>
<text text-anchor="middle" x="1441" y="-7.5" font-family="Helvetica,sans-Serif" font-size="10.00">/vtooloptionspropertybrowser.cpp</text>
</a>
</g>
</g>
<!-- Node13&#45;&gt;Node18 -->
<g id="edge20" class="edge">
<title>Node13&#45;&gt;Node18</title>
<path fill="none" stroke="midnightblue" d="M2165.19,-77.95C2037.52,-71.41 1767.28,-55.82 1540,-31 1537.06,-30.68 1534.08,-30.34 1531.07,-29.98"/>
<polygon fill="midnightblue" stroke="midnightblue" points="2165.08,-81.45 2175.25,-78.46 2165.44,-74.46 2165.08,-81.45"/>
</g>
<!-- Node19 -->
<g id="node19" class="node">
<title>Node19</title>
<g id="a_node19"><a xlink:href="../../dc/d20/preferencespathpage_8cpp.html" target="_top" xlink:title=" ">
<polygon fill="white" stroke="black" points="1549.5,-0.5 1549.5,-30.5 1754.5,-30.5 1754.5,-0.5 1549.5,-0.5"/>
<text text-anchor="start" x="1557.5" y="-18.5" font-family="Helvetica,sans-Serif" font-size="10.00">src/app/seamly2d/dialogs</text>
<text text-anchor="middle" x="1652" y="-7.5" font-family="Helvetica,sans-Serif" font-size="10.00">/configpages/preferencespathpage.cpp</text>
</a>
</g>
</g>
<!-- Node13&#45;&gt;Node19 -->
<g id="edge21" class="edge">
<title>Node13&#45;&gt;Node19</title>
<path fill="none" stroke="midnightblue" d="M2165.21,-74.23C2071.59,-64.88 1905.19,-47.83 1763,-31 1760.2,-30.67 1757.36,-30.33 1754.5,-29.98"/>
<polygon fill="midnightblue" stroke="midnightblue" points="2165.13,-77.74 2175.43,-75.25 2165.82,-70.77 2165.13,-77.74"/>
</g>
<!-- Node20 -->
<g id="node20" class="node">
<title>Node20</title>
<g id="a_node20"><a xlink:href="../../dd/dc2/decimalchart__dialog_8cpp.html" target="_top" xlink:title=" ">
<polygon fill="white" stroke="black" points="1772.5,-0.5 1772.5,-30.5 1913.5,-30.5 1913.5,-0.5 1772.5,-0.5"/>
<text text-anchor="start" x="1780.5" y="-18.5" font-family="Helvetica,sans-Serif" font-size="10.00">src/app/seamly2d/dialogs</text>
<text text-anchor="middle" x="1843" y="-7.5" font-family="Helvetica,sans-Serif" font-size="10.00">/decimalchart_dialog.cpp</text>
</a>
</g>
</g>
<!-- Node13&#45;&gt;Node20 -->
<g id="edge22" class="edge">
<title>Node13&#45;&gt;Node20</title>
<path fill="none" stroke="midnightblue" d="M2165.37,-70.18C2101.28,-60.22 2005.92,-45.14 1923,-31 1919.94,-30.48 1916.81,-29.94 1913.66,-29.39"/>
<polygon fill="midnightblue" stroke="midnightblue" points="2164.97,-73.66 2175.38,-71.73 2166.04,-66.74 2164.97,-73.66"/>
</g>
<!-- Node21 -->
<g id="node21" class="node">
<title>Node21</title>
<g id="a_node21"><a xlink:href="../../dc/d63/preferencespatternpage_8cpp.html" target="_top" xlink:title=" ">
<polygon fill="white" stroke="black" points="1932,-0.5 1932,-30.5 2150,-30.5 2150,-0.5 1932,-0.5"/>
<text text-anchor="start" x="1940" y="-18.5" font-family="Helvetica,sans-Serif" font-size="10.00">src/app/seamly2d/dialogs</text>
<text text-anchor="middle" x="2041" y="-7.5" font-family="Helvetica,sans-Serif" font-size="10.00">/configpages/preferencespatternpage.cpp</text>
</a>
</g>
</g>
<!-- Node13&#45;&gt;Node21 -->
<g id="edge23" class="edge">
<title>Node13&#45;&gt;Node21</title>
<path fill="none" stroke="midnightblue" d="M2186.39,-64.23C2154.36,-53.71 2113.96,-40.45 2083.88,-30.58"/>
<polygon fill="midnightblue" stroke="midnightblue" points="2185.44,-67.6 2196.04,-67.4 2187.63,-60.95 2185.44,-67.6"/>
</g>
<!-- Node22 -->
<g id="node22" class="node">
<title>Node22</title>
<g id="a_node22"><a xlink:href="../../de/d87/dialognewpattern_8cpp.html" target="_top" xlink:title=" ">
<polygon fill="white" stroke="black" points="2168.5,-0.5 2168.5,-30.5 2309.5,-30.5 2309.5,-0.5 2168.5,-0.5"/>
<text text-anchor="start" x="2176.5" y="-18.5" font-family="Helvetica,sans-Serif" font-size="10.00">src/app/seamly2d/dialogs</text>
<text text-anchor="middle" x="2239" y="-7.5" font-family="Helvetica,sans-Serif" font-size="10.00">/dialognewpattern.cpp</text>
</a>
</g>
</g>
<!-- Node13&#45;&gt;Node22 -->
<g id="edge24" class="edge">
<title>Node13&#45;&gt;Node22</title>
<path fill="none" stroke="midnightblue" d="M2239,-57.11C2239,-48.15 2239,-38.32 2239,-30.58"/>
<polygon fill="midnightblue" stroke="midnightblue" points="2235.5,-57.4 2239,-67.4 2242.5,-57.4 2235.5,-57.4"/>
</g>
<!-- Node23 -->
<g id="node23" class="node">
<title>Node23</title>
<g id="a_node23"><a xlink:href="../../d5/d18/dialogpatternproperties_8cpp.html" target="_top" xlink:title=" ">
<polygon fill="white" stroke="black" points="2327.5,-0.5 2327.5,-30.5 2482.5,-30.5 2482.5,-0.5 2327.5,-0.5"/>
<text text-anchor="start" x="2335.5" y="-18.5" font-family="Helvetica,sans-Serif" font-size="10.00">src/app/seamly2d/dialogs</text>
<text text-anchor="middle" x="2405" y="-7.5" font-family="Helvetica,sans-Serif" font-size="10.00">/dialogpatternproperties.cpp</text>
</a>
</g>
</g>
<!-- Node13&#45;&gt;Node23 -->
<g id="edge25" class="edge">
<title>Node13&#45;&gt;Node23</title>
<path fill="none" stroke="midnightblue" d="M2284.51,-63.68C2311.13,-53.26 2344.27,-40.28 2369.05,-30.58"/>
<polygon fill="midnightblue" stroke="midnightblue" points="2283.05,-60.49 2275.02,-67.4 2285.61,-67.01 2283.05,-60.49"/>
</g>
<!-- Node24 -->
<g id="node24" class="node">
<title>Node24</title>
<g id="a_node24"><a xlink:href="../../d5/dc5/dialogpreferences_8cpp.html" target="_top" xlink:title=" ">
<polygon fill="white" stroke="black" points="2500.5,-0.5 2500.5,-30.5 2641.5,-30.5 2641.5,-0.5 2500.5,-0.5"/>
<text text-anchor="start" x="2508.5" y="-18.5" font-family="Helvetica,sans-Serif" font-size="10.00">src/app/seamly2d/dialogs</text>
<text text-anchor="middle" x="2571" y="-7.5" font-family="Helvetica,sans-Serif" font-size="10.00">/dialogpreferences.cpp</text>
</a>
</g>
</g>
<!-- Node13&#45;&gt;Node24 -->
<g id="edge26" class="edge">
<title>Node13&#45;&gt;Node24</title>
<path fill="none" stroke="midnightblue" d="M2312.79,-66.65C2381.85,-53.01 2450.5,-39.7 2500.35,-30.09"/>
<polygon fill="midnightblue" stroke="midnightblue" points="2311.73,-63.29 2302.6,-68.67 2313.09,-70.16 2311.73,-63.29"/>
</g>
<!-- Node25 -->
<g id="node25" class="node">
<title>Node25</title>
<g id="a_node25"><a xlink:href="../../d6/d89/dialoglayoutprogress_8cpp.html" target="_top" xlink:title=" ">
<polygon fill="white" stroke="black" points="2659.5,-0.5 2659.5,-30.5 2802.5,-30.5 2802.5,-0.5 2659.5,-0.5"/>
<text text-anchor="start" x="2667.5" y="-18.5" font-family="Helvetica,sans-Serif" font-size="10.00">src/app/seamly2d/dialogs</text>
<text text-anchor="middle" x="2731" y="-7.5" font-family="Helvetica,sans-Serif" font-size="10.00">/dialoglayoutprogress.cpp</text>
</a>
</g>
</g>
<!-- Node13&#45;&gt;Node25 -->
<g id="edge27" class="edge">
<title>Node13&#45;&gt;Node25</title>
<path fill="none" stroke="midnightblue" d="M2312.58,-66.84C2462.5,-44.36 2503.22,-51.9 2650,-31 2653.11,-30.56 2656.29,-30.08 2659.49,-29.59"/>
<polygon fill="midnightblue" stroke="midnightblue" points="2311.91,-63.41 2302.55,-68.37 2312.96,-70.33 2311.91,-63.41"/>
</g>
<!-- Node13&#45;&gt;Node26 -->
<g id="edge29" class="edge">
<title>Node13&#45;&gt;Node26</title>
<path fill="none" stroke="midnightblue" d="M2312.6,-66.97C3195.69,27.96 3428.43,-117.2 4309,-31 4311.7,-30.74 4314.45,-30.43 4317.22,-30.09"/>
<polygon fill="midnightblue" stroke="midnightblue" points="2312.07,-63.51 2302.51,-68.06 2312.82,-70.47 2312.07,-63.51"/>
</g>
<!-- Node27 -->
<g id="node27" class="node">
<title>Node27</title>
<g id="a_node27"><a xlink:href="../../db/d5c/groups__widget_8cpp.html" target="_top" xlink:title=" ">
<polygon fill="white" stroke="black" points="2820.5,-0.5 2820.5,-30.5 2961.5,-30.5 2961.5,-0.5 2820.5,-0.5"/>
<text text-anchor="start" x="2828.5" y="-18.5" font-family="Helvetica,sans-Serif" font-size="10.00">src/app/seamly2d/dialogs</text>
<text text-anchor="middle" x="2891" y="-7.5" font-family="Helvetica,sans-Serif" font-size="10.00">/groups_widget.cpp</text>
</a>
</g>
</g>
<!-- Node13&#45;&gt;Node27 -->
<g id="edge30" class="edge">
<title>Node13&#45;&gt;Node27</title>
<path fill="none" stroke="midnightblue" d="M2312.49,-66.91C2533.5,-37.58 2593.2,-58.5 2811,-31 2814.08,-30.61 2817.22,-30.18 2820.39,-29.72"/>
<polygon fill="midnightblue" stroke="midnightblue" points="2311.97,-63.45 2302.53,-68.25 2312.91,-70.39 2311.97,-63.45"/>
</g>
<!-- Node28 -->
<g id="node28" class="node">
<title>Node28</title>
<g id="a_node28"><a xlink:href="../../d2/df4/show__info__dialog_8cpp.html" target="_top" xlink:title=" ">
<polygon fill="white" stroke="black" points="2979.5,-0.5 2979.5,-30.5 3120.5,-30.5 3120.5,-0.5 2979.5,-0.5"/>
<text text-anchor="start" x="2987.5" y="-18.5" font-family="Helvetica,sans-Serif" font-size="10.00">src/app/seamly2d/dialogs</text>
<text text-anchor="middle" x="3050" y="-7.5" font-family="Helvetica,sans-Serif" font-size="10.00">/show_info_dialog.cpp</text>
</a>
</g>
</g>
<!-- Node13&#45;&gt;Node28 -->
<g id="edge31" class="edge">
<title>Node13&#45;&gt;Node28</title>
<path fill="none" stroke="midnightblue" d="M2312.53,-66.93C2603.73,-30.73 2681.95,-64.84 2970,-31 2973.08,-30.64 2976.23,-30.23 2979.4,-29.79"/>
<polygon fill="midnightblue" stroke="midnightblue" points="2312.01,-63.47 2302.52,-68.19 2312.88,-70.41 2312.01,-63.47"/>
</g>
<!-- Node29 -->
<g id="node29" class="node">
<title>Node29</title>
<g id="a_node29"><a xlink:href="../../dd/d84/shortcuts__dialog_8cpp.html" target="_top" xlink:title=" ">
<polygon fill="white" stroke="black" points="3138.5,-0.5 3138.5,-30.5 3279.5,-30.5 3279.5,-0.5 3138.5,-0.5"/>
<text text-anchor="start" x="3146.5" y="-18.5" font-family="Helvetica,sans-Serif" font-size="10.00">src/app/seamly2d/dialogs</text>
<text text-anchor="middle" x="3209" y="-7.5" font-family="Helvetica,sans-Serif" font-size="10.00">/shortcuts_dialog.cpp</text>
</a>
</g>
</g>
<!-- Node13&#45;&gt;Node29 -->
<g id="edge32" class="edge">
<title>Node13&#45;&gt;Node29</title>
<path fill="none" stroke="midnightblue" d="M2312.47,-66.95C2673.97,-23.82 2770.62,-71.18 3129,-31 3132.09,-30.65 3135.23,-30.26 3138.41,-29.83"/>
<polygon fill="midnightblue" stroke="midnightblue" points="2312.02,-63.48 2302.52,-68.15 2312.86,-70.43 2312.02,-63.48"/>
</g>
<!-- Node30 -->
<g id="node30" class="node">
<title>Node30</title>
<g id="a_node30"><a xlink:href="../../df/d69/welcome__dialog_8cpp.html" target="_top" xlink:title=" ">
<polygon fill="white" stroke="black" points="3297.5,-0.5 3297.5,-30.5 3438.5,-30.5 3438.5,-0.5 3297.5,-0.5"/>
<text text-anchor="start" x="3305.5" y="-18.5" font-family="Helvetica,sans-Serif" font-size="10.00">src/app/seamly2d/dialogs</text>
<text text-anchor="middle" x="3368" y="-7.5" font-family="Helvetica,sans-Serif" font-size="10.00">/welcome_dialog.cpp</text>
</a>
</g>
</g>
<!-- Node13&#45;&gt;Node30 -->
<g id="edge33" class="edge">
<title>Node13&#45;&gt;Node30</title>
<path fill="none" stroke="midnightblue" d="M2312.45,-66.96C2744.24,-16.87 2859.29,-77.51 3288,-31 3291.09,-30.67 3294.23,-30.28 3297.41,-29.86"/>
<polygon fill="midnightblue" stroke="midnightblue" points="2312.04,-63.49 2302.51,-68.13 2312.85,-70.44 2312.04,-63.49"/>
</g>
<!-- Node31 -->
<g id="node31" class="node">
<title>Node31</title>
<g id="a_node31"><a xlink:href="../../d3/d49/vpattern_8cpp.html" target="_top" xlink:title=" ">
<polygon fill="white" stroke="black" points="3456.5,-0.5 3456.5,-30.5 3581.5,-30.5 3581.5,-0.5 3456.5,-0.5"/>
<text text-anchor="start" x="3464.5" y="-18.5" font-family="Helvetica,sans-Serif" font-size="10.00">src/app/seamly2d/xml</text>
<text text-anchor="middle" x="3519" y="-7.5" font-family="Helvetica,sans-Serif" font-size="10.00">/vpattern.cpp</text>
</a>
</g>
</g>
<!-- Node13&#45;&gt;Node31 -->
<g id="edge36" class="edge">
<title>Node13&#45;&gt;Node31</title>
<path fill="none" stroke="midnightblue" d="M2312.56,-66.96C2815,-9.95 2949.15,-89.41 3448,-31 3450.75,-30.68 3453.55,-30.3 3456.37,-29.89"/>
<polygon fill="midnightblue" stroke="midnightblue" points="2312.05,-63.49 2302.51,-68.11 2312.85,-70.45 2312.05,-63.49"/>
</g>
<!-- Node32 -->
<g id="node32" class="node">
<title>Node32</title>
<g id="a_node32"><a xlink:href="../../d9/da3/image__tool_8cpp.html" target="_top" xlink:title=" ">
<polygon fill="white" stroke="black" points="3599.5,-0.5 3599.5,-30.5 3716.5,-30.5 3716.5,-0.5 3599.5,-0.5"/>
<text text-anchor="start" x="3607.5" y="-18.5" font-family="Helvetica,sans-Serif" font-size="10.00">src/libs/tools/images</text>
<text text-anchor="middle" x="3658" y="-7.5" font-family="Helvetica,sans-Serif" font-size="10.00">/image_tool.cpp</text>
</a>
</g>
</g>
<!-- Node13&#45;&gt;Node32 -->
<g id="edge38" class="edge">
<title>Node13&#45;&gt;Node32</title>
<path fill="none" stroke="midnightblue" d="M2312.56,-66.96C2878.22,-3.72 3029.33,-99.08 3591,-31 3593.72,-30.67 3596.49,-30.28 3599.28,-29.85"/>
<polygon fill="midnightblue" stroke="midnightblue" points="2312.05,-63.5 2302.51,-68.1 2312.84,-70.45 2312.05,-63.5"/>
</g>
</g>
</svg>
