<?xml version="1.0" encoding="UTF-8" standalone="no"?>
<!DOCTYPE svg PUBLIC "-//W3C//DTD SVG 1.1//EN"
 "http://www.w3.org/Graphics/SVG/1.1/DTD/svg11.dtd">
<!-- Generated by graphviz version 2.43.0 (0)
 -->
<!-- Title: src/app/seamly2d/dialogs/abstractlayout_dialog.h Pages: 1 -->
<!--zoomable 307 -->
<svg id="main" version="1.1" xmlns="http://www.w3.org/2000/svg" xmlns:xlink="http://www.w3.org/1999/xlink" xml:space="preserve" onload="init(evt)">
<style type="text/css"><![CDATA[
.edge:hover path { stroke: red; }
.edge:hover polygon { stroke: red; fill: red; }
]]></style>
<script type="text/javascript"><![CDATA[
var edges = document.getElementsByTagName('g');
if (edges && edges.length) {
  for (var i=0;i<edges.length;i++) {
    if (edges[i].id.substr(0,4)=='edge') {
      edges[i].setAttribute('class','edge');
    }
  }
}
]]></script>
        <defs>
                <circle id="rim" cx="0" cy="0" r="7"/>
                <circle id="rim2" cx="0" cy="0" r="3.5"/>
                <g id="zoomPlus">
                        <use xlink:href="#rim" fill="#404040">
                                <set attributeName="fill" to="#808080" begin="zoomplus.mouseover" end="zoomplus.mouseout"/>
                        </use>
                        <path d="M-4,0h8M0,-4v8" fill="none" stroke="white" stroke-width="1.5" pointer-events="none"/>
                </g>
                <g id="zoomMin">
                        <use xlink:href="#rim" fill="#404040">
                                <set attributeName="fill" to="#808080" begin="zoomminus.mouseover" end="zoomminus.mouseout"/>
                        </use>
                        <path d="M-4,0h8" fill="none" stroke="white" stroke-width="1.5" pointer-events="none"/>
                </g>
                <g id="dirArrow">
                        <path fill="none" stroke="white" stroke-width="1.5" d="M0,-3.0v7 M-2.5,-0.5L0,-3.0L2.5,-0.5"/>
                </g>
               <g id="resetDef">
                       <use xlink:href="#rim2" fill="#404040">
                               <set attributeName="fill" to="#808080" begin="reset.mouseover" end="reset.mouseout"/>
                       </use>
               </g>
        </defs>

<script type="text/javascript">
var viewWidth = 4617;
var viewHeight = 307;
var sectionId = 'dynsection-1';
</script>
<script xlink:href="../../svgpan.js"/>
<svg id="graph" class="graph">
<g id="viewport">
<title>src/app/seamly2d/dialogs/abstractlayout_dialog.h</title>
<polygon fill="white" stroke="transparent" points="-4,4 -4,-303 4612.5,-303 4612.5,4 -4,4"/>
<!-- Node1 -->
<g id="node1" class="node">
<title>Node1</title>
<g id="a_node1"><a xlink:title=" ">
<polygon fill="#bfbfbf" stroke="black" points="2658.5,-268.5 2658.5,-298.5 2799.5,-298.5 2799.5,-268.5 2658.5,-268.5"/>
<text text-anchor="start" x="2666.5" y="-286.5" font-family="Helvetica,sans-Serif" font-size="10.00">src/app/seamly2d/dialogs</text>
<text text-anchor="middle" x="2729" y="-275.5" font-family="Helvetica,sans-Serif" font-size="10.00">/abstractlayout_dialog.h</text>
</a>
</g>
</g>
<!-- Node2 -->
<g id="node2" class="node">
<title>Node2</title>
<g id="a_node2"><a xlink:href="../../dd/db4/abstractlayout__dialog_8cpp.html" target="_top" xlink:title=" ">
<polygon fill="white" stroke="black" points="0,-0.5 0,-30.5 146,-30.5 146,-0.5 0,-0.5"/>
<text text-anchor="start" x="8" y="-18.5" font-family="Helvetica,sans-Serif" font-size="10.00">src/app/seamly2d/dialogs</text>
<text text-anchor="middle" x="73" y="-7.5" font-family="Helvetica,sans-Serif" font-size="10.00">/abstractlayout_dialog.cpp</text>
</a>
</g>
</g>
<!-- Node1&#45;&gt;Node2 -->
<g id="edge1" class="edge">
<title>Node1&#45;&gt;Node2</title>
<path fill="none" stroke="midnightblue" d="M2648.12,-279.83C2356.37,-269.36 1331.17,-225.2 496,-98 368.09,-78.52 219.88,-48.15 137.23,-30.5"/>
<polygon fill="midnightblue" stroke="midnightblue" points="2648.07,-283.33 2658.19,-280.19 2648.32,-276.34 2648.07,-283.33"/>
</g>
<!-- Node3 -->
<g id="node3" class="node">
<title>Node3</title>
<g id="a_node3"><a xlink:href="../../d1/d8e/export__layout__dialog_8h.html" target="_top" xlink:title=" ">
<polygon fill="white" stroke="black" points="2658.5,-201.5 2658.5,-231.5 2799.5,-231.5 2799.5,-201.5 2658.5,-201.5"/>
<text text-anchor="start" x="2666.5" y="-219.5" font-family="Helvetica,sans-Serif" font-size="10.00">src/app/seamly2d/dialogs</text>
<text text-anchor="middle" x="2729" y="-208.5" font-family="Helvetica,sans-Serif" font-size="10.00">/export_layout_dialog.h</text>
</a>
</g>
</g>
<!-- Node1&#45;&gt;Node3 -->
<g id="edge2" class="edge">
<title>Node1&#45;&gt;Node3</title>
<path fill="none" stroke="midnightblue" d="M2729,-258.11C2729,-249.15 2729,-239.32 2729,-231.58"/>
<polygon fill="midnightblue" stroke="midnightblue" points="2725.5,-258.4 2729,-268.4 2732.5,-258.4 2725.5,-258.4"/>
</g>
<!-- Node12 -->
<g id="node12" class="node">
<title>Node12</title>
<g id="a_node12"><a xlink:href="../../d3/dd8/layoutsettings__dialog_8h.html" target="_top" xlink:title=" ">
<polygon fill="white" stroke="black" points="2817.5,-201.5 2817.5,-231.5 2958.5,-231.5 2958.5,-201.5 2817.5,-201.5"/>
<text text-anchor="start" x="2825.5" y="-219.5" font-family="Helvetica,sans-Serif" font-size="10.00">src/app/seamly2d/dialogs</text>
<text text-anchor="middle" x="2888" y="-208.5" font-family="Helvetica,sans-Serif" font-size="10.00">/layoutsettings_dialog.h</text>
</a>
</g>
</g>
<!-- Node1&#45;&gt;Node12 -->
<g id="edge12" class="edge">
<title>Node1&#45;&gt;Node12</title>
<path fill="none" stroke="midnightblue" d="M2772.92,-264.54C2798.37,-254.14 2829.93,-241.24 2853.57,-231.58"/>
<polygon fill="midnightblue" stroke="midnightblue" points="2771.43,-261.37 2763.5,-268.4 2774.08,-267.85 2771.43,-261.37"/>
</g>
<!-- Node4 -->
<g id="node4" class="node">
<title>Node4</title>
<g id="a_node4"><a xlink:href="../../dd/d54/export__layout__dialog_8cpp.html" target="_top" xlink:title=" ">
<polygon fill="white" stroke="black" points="164.5,-0.5 164.5,-30.5 307.5,-30.5 307.5,-0.5 164.5,-0.5"/>
<text text-anchor="start" x="172.5" y="-18.5" font-family="Helvetica,sans-Serif" font-size="10.00">src/app/seamly2d/dialogs</text>
<text text-anchor="middle" x="236" y="-7.5" font-family="Helvetica,sans-Serif" font-size="10.00">/export_layout_dialog.cpp</text>
</a>
</g>
</g>
<!-- Node3&#45;&gt;Node4 -->
<g id="edge3" class="edge">
<title>Node3&#45;&gt;Node4</title>
<path fill="none" stroke="midnightblue" d="M2647.99,-214.13C2373.63,-208.79 1454.61,-185.12 701,-98 557.71,-81.44 391.66,-49.13 301.87,-30.55"/>
<polygon fill="midnightblue" stroke="midnightblue" points="2648.18,-217.64 2658.25,-214.33 2648.32,-210.64 2648.18,-217.64"/>
</g>
<!-- Node5 -->
<g id="node5" class="node">
<title>Node5</title>
<g id="a_node5"><a xlink:href="../../d1/d82/mainwindowsnogui_8h.html" target="_top" xlink:title=" ">
<polygon fill="white" stroke="black" points="2631.5,-140 2631.5,-159 2840.5,-159 2840.5,-140 2631.5,-140"/>
<text text-anchor="middle" x="2736" y="-147" font-family="Helvetica,sans-Serif" font-size="10.00">src/app/seamly2d/mainwindowsnogui.h</text>
</a>
</g>
</g>
<!-- Node3&#45;&gt;Node5 -->
<g id="edge4" class="edge">
<title>Node3&#45;&gt;Node5</title>
<path fill="none" stroke="midnightblue" d="M2731.61,-191.25C2732.82,-180.02 2734.18,-167.38 2735.06,-159.19"/>
<polygon fill="midnightblue" stroke="midnightblue" points="2728.11,-191.08 2730.52,-201.4 2735.07,-191.83 2728.11,-191.08"/>
</g>
<!-- Node11 -->
<g id="node11" class="node">
<title>Node11</title>
<g id="a_node11"><a xlink:href="../../d8/de8/mainwindowsnogui_8cpp.html" target="_top" xlink:title=" ">
<polygon fill="white" stroke="black" points="4224.5,-6 4224.5,-25 4445.5,-25 4445.5,-6 4224.5,-6"/>
<text text-anchor="middle" x="4335" y="-13" font-family="Helvetica,sans-Serif" font-size="10.00">src/app/seamly2d/mainwindowsnogui.cpp</text>
</a>
</g>
</g>
<!-- Node3&#45;&gt;Node11 -->
<g id="edge11" class="edge">
<title>Node3&#45;&gt;Node11</title>
<path fill="none" stroke="midnightblue" d="M2809.65,-200.76C3017.94,-166.94 3072.32,-162.9 3278,-134 3493.05,-103.79 3546.11,-90.48 3762,-67 3963.22,-45.11 4014.6,-51.25 4216,-31 4233.29,-29.26 4251.96,-27.11 4269.27,-25.01"/>
<polygon fill="midnightblue" stroke="midnightblue" points="2808.92,-197.33 2799.61,-202.4 2810.04,-204.24 2808.92,-197.33"/>
</g>
<!-- Node6 -->
<g id="node6" class="node">
<title>Node6</title>
<g id="a_node6"><a xlink:href="../../d9/d53/mainwindow_8h.html" target="_top" xlink:title=" ">
<polygon fill="white" stroke="black" points="710,-73 710,-92 886,-92 886,-73 710,-73"/>
<text text-anchor="middle" x="798" y="-80" font-family="Helvetica,sans-Serif" font-size="10.00">src/app/seamly2d/mainwindow.h</text>
</a>
</g>
</g>
<!-- Node5&#45;&gt;Node6 -->
<g id="edge5" class="edge">
<title>Node5&#45;&gt;Node6</title>
<path fill="none" stroke="midnightblue" d="M2667.6,-138.68C2652.6,-136.84 2636.79,-135.14 2622,-134 1956.35,-82.58 1150.51,-81.6 886.43,-82.86"/>
<polygon fill="midnightblue" stroke="midnightblue" points="2667.47,-142.2 2677.83,-139.97 2668.34,-135.25 2667.47,-142.2"/>
</g>
<!-- Node5&#45;&gt;Node11 -->
<g id="edge10" class="edge">
<title>Node5&#45;&gt;Node11</title>
<path fill="none" stroke="midnightblue" d="M2762.03,-135.42C2801.79,-116.2 2880.58,-81.08 2952,-67 3227.7,-12.65 3935.78,-52.02 4216,-31 4234.99,-29.58 4255.61,-27.32 4274.26,-25"/>
<polygon fill="midnightblue" stroke="midnightblue" points="2760.23,-132.4 2752.79,-139.94 2763.31,-138.69 2760.23,-132.4"/>
</g>
<!-- Node7 -->
<g id="node7" class="node">
<title>Node7</title>
<g id="a_node7"><a xlink:href="../../df/d3e/application__2d_8cpp.html" target="_top" xlink:title=" ">
<polygon fill="white" stroke="black" points="470.5,-0.5 470.5,-30.5 597.5,-30.5 597.5,-0.5 470.5,-0.5"/>
<text text-anchor="start" x="478.5" y="-18.5" font-family="Helvetica,sans-Serif" font-size="10.00">src/app/seamly2d/core</text>
<text text-anchor="middle" x="534" y="-7.5" font-family="Helvetica,sans-Serif" font-size="10.00">/application_2d.cpp</text>
</a>
</g>
</g>
<!-- Node6&#45;&gt;Node7 -->
<g id="edge6" class="edge">
<title>Node6&#45;&gt;Node7</title>
<path fill="none" stroke="midnightblue" d="M753.23,-70.48C708.54,-59.47 639.7,-42.52 591.1,-30.56"/>
<polygon fill="midnightblue" stroke="midnightblue" points="752.67,-73.94 763.22,-72.94 754.34,-67.15 752.67,-73.94"/>
</g>
<!-- Node8 -->
<g id="node8" class="node">
<title>Node8</title>
<g id="a_node8"><a xlink:href="../../d3/dd8/vapplication_8cpp.html" target="_top" xlink:title=" ">
<polygon fill="white" stroke="black" points="325.5,-0.5 325.5,-30.5 452.5,-30.5 452.5,-0.5 325.5,-0.5"/>
<text text-anchor="start" x="333.5" y="-18.5" font-family="Helvetica,sans-Serif" font-size="10.00">src/app/seamly2d/core</text>
<text text-anchor="middle" x="389" y="-7.5" font-family="Helvetica,sans-Serif" font-size="10.00">/vapplication.cpp</text>
</a>
</g>
</g>
<!-- Node6&#45;&gt;Node8 -->
<g id="edge7" class="edge">
<title>Node6&#45;&gt;Node8</title>
<path fill="none" stroke="midnightblue" d="M724.57,-71.57C656.18,-62.08 551.48,-46.88 461,-31 458.24,-30.52 455.42,-30.01 452.57,-29.48"/>
<polygon fill="midnightblue" stroke="midnightblue" points="724.42,-75.09 734.81,-72.99 725.38,-68.15 724.42,-75.09"/>
</g>
<!-- Node9 -->
<g id="node9" class="node">
<title>Node9</title>
<g id="a_node9"><a xlink:href="../../dc/d14/app_2seamly2d_2main_8cpp.html" target="_top" xlink:title=" ">
<polygon fill="white" stroke="black" points="615.5,-6 615.5,-25 766.5,-25 766.5,-6 615.5,-6"/>
<text text-anchor="middle" x="691" y="-13" font-family="Helvetica,sans-Serif" font-size="10.00">src/app/seamly2d/main.cpp</text>
</a>
</g>
</g>
<!-- Node6&#45;&gt;Node9 -->
<g id="edge8" class="edge">
<title>Node6&#45;&gt;Node9</title>
<path fill="none" stroke="midnightblue" d="M774.86,-67.44C753.67,-54.57 722.98,-35.93 705.2,-25.13"/>
<polygon fill="midnightblue" stroke="midnightblue" points="773.21,-70.53 783.57,-72.73 776.84,-64.55 773.21,-70.53"/>
</g>
<!-- Node10 -->
<g id="node10" class="node">
<title>Node10</title>
<g id="a_node10"><a xlink:href="../../d8/dd9/mainwindow_8cpp.html" target="_top" xlink:title=" ">
<polygon fill="white" stroke="black" points="785,-6 785,-25 973,-25 973,-6 785,-6"/>
<text text-anchor="middle" x="879" y="-13" font-family="Helvetica,sans-Serif" font-size="10.00">src/app/seamly2d/mainwindow.cpp</text>
</a>
</g>
</g>
<!-- Node6&#45;&gt;Node10 -->
<g id="edge9" class="edge">
<title>Node6&#45;&gt;Node10</title>
<path fill="none" stroke="midnightblue" d="M817.05,-66.21C833.01,-53.41 855.21,-35.59 868.25,-25.13"/>
<polygon fill="midnightblue" stroke="midnightblue" points="814.53,-63.75 808.92,-72.73 818.91,-69.2 814.53,-63.75"/>
</g>
<!-- Node12&#45;&gt;Node11 -->
<g id="edge44" class="edge">
<title>Node12&#45;&gt;Node11</title>
<path fill="none" stroke="midnightblue" d="M2968.91,-204.37C3229.25,-168.57 4041.81,-56.82 4273.04,-25.02"/>
<polygon fill="midnightblue" stroke="midnightblue" points="2968.2,-200.94 2958.77,-205.77 2969.15,-207.87 2968.2,-200.94"/>
</g>
<!-- Node13 -->
<g id="node13" class="node">
<title>Node13</title>
<g id="a_node13"><a xlink:href="../../dd/d57/vcmdexport_8h.html" target="_top" xlink:title=" ">
<polygon fill="white" stroke="black" points="2486.5,-134.5 2486.5,-164.5 2613.5,-164.5 2613.5,-134.5 2486.5,-134.5"/>
<text text-anchor="start" x="2494.5" y="-152.5" font-family="Helvetica,sans-Serif" font-size="10.00">src/app/seamly2d/core</text>
<text text-anchor="middle" x="2550" y="-141.5" font-family="Helvetica,sans-Serif" font-size="10.00">/vcmdexport.h</text>
</a>
</g>
</g>
<!-- Node12&#45;&gt;Node13 -->
<g id="edge13" class="edge">
<title>Node12&#45;&gt;Node13</title>
<path fill="none" stroke="midnightblue" d="M2807.42,-200.44C2754.65,-190.52 2684.19,-177.17 2622,-165 2619.25,-164.46 2616.44,-163.91 2613.6,-163.35"/>
<polygon fill="midnightblue" stroke="midnightblue" points="2806.92,-203.91 2817.39,-202.32 2808.21,-197.03 2806.92,-203.91"/>
</g>
<!-- Node28 -->
<g id="node28" class="node">
<title>Node28</title>
<g id="a_node28"><a xlink:href="../../d0/dfa/layoutsettings__dialog_8cpp.html" target="_top" xlink:title=" ">
<polygon fill="white" stroke="black" points="4463.5,-0.5 4463.5,-30.5 4608.5,-30.5 4608.5,-0.5 4463.5,-0.5"/>
<text text-anchor="start" x="4471.5" y="-18.5" font-family="Helvetica,sans-Serif" font-size="10.00">src/app/seamly2d/dialogs</text>
<text text-anchor="middle" x="4536" y="-7.5" font-family="Helvetica,sans-Serif" font-size="10.00">/layoutsettings_dialog.cpp</text>
</a>
</g>
</g>
<!-- Node12&#45;&gt;Node28 -->
<g id="edge43" class="edge">
<title>Node12&#45;&gt;Node28</title>
<path fill="none" stroke="midnightblue" d="M2968.84,-207.84C3067.07,-198.41 3237.81,-181.59 3384,-165 3860.65,-110.92 3980.73,-103.07 4455,-31 4457.68,-30.59 4460.41,-30.17 4463.17,-29.72"/>
<polygon fill="midnightblue" stroke="midnightblue" points="2968.31,-204.38 2958.69,-208.82 2968.98,-211.35 2968.31,-204.38"/>
</g>
<!-- Node34 -->
<g id="node34" class="node">
<title>Node34</title>
<g id="a_node34"><a xlink:href="../../df/d9b/vcmdexport_8cpp.html" target="_top" xlink:title=" ">
<polygon fill="white" stroke="black" points="2667.5,-67.5 2667.5,-97.5 2794.5,-97.5 2794.5,-67.5 2667.5,-67.5"/>
<text text-anchor="start" x="2675.5" y="-85.5" font-family="Helvetica,sans-Serif" font-size="10.00">src/app/seamly2d/core</text>
<text text-anchor="middle" x="2731" y="-74.5" font-family="Helvetica,sans-Serif" font-size="10.00">/vcmdexport.cpp</text>
</a>
</g>
</g>
<!-- Node12&#45;&gt;Node34 -->
<g id="edge42" class="edge">
<title>Node12&#45;&gt;Node34</title>
<path fill="none" stroke="midnightblue" d="M2881.57,-191.56C2875.69,-173.67 2865.37,-149.7 2849,-134 2831.39,-117.11 2807.25,-105.43 2785.4,-97.59"/>
<polygon fill="midnightblue" stroke="midnightblue" points="2878.27,-192.73 2884.54,-201.28 2884.97,-190.69 2878.27,-192.73"/>
</g>
<!-- Node13&#45;&gt;Node6 -->
<g id="edge41" class="edge">
<title>Node13&#45;&gt;Node6</title>
<path fill="none" stroke="midnightblue" d="M2476.26,-145.76C2195.06,-135.33 1190.59,-98.07 886.11,-86.77"/>
<polygon fill="midnightblue" stroke="midnightblue" points="2476.23,-149.27 2486.35,-146.14 2476.49,-142.27 2476.23,-149.27"/>
</g>
<!-- Node14 -->
<g id="node14" class="node">
<title>Node14</title>
<g id="a_node14"><a xlink:href="../../d7/d61/application__2d_8h.html" target="_top" xlink:title=" ">
<polygon fill="white" stroke="black" points="2486.5,-67.5 2486.5,-97.5 2613.5,-97.5 2613.5,-67.5 2486.5,-67.5"/>
<text text-anchor="start" x="2494.5" y="-85.5" font-family="Helvetica,sans-Serif" font-size="10.00">src/app/seamly2d/core</text>
<text text-anchor="middle" x="2550" y="-74.5" font-family="Helvetica,sans-Serif" font-size="10.00">/application_2d.h</text>
</a>
</g>
</g>
<!-- Node13&#45;&gt;Node14 -->
<g id="edge14" class="edge">
<title>Node13&#45;&gt;Node14</title>
<path fill="none" stroke="midnightblue" d="M2550,-124.11C2550,-115.15 2550,-105.32 2550,-97.58"/>
<polygon fill="midnightblue" stroke="midnightblue" points="2546.5,-124.4 2550,-134.4 2553.5,-124.4 2546.5,-124.4"/>
</g>
<!-- Node13&#45;&gt;Node34 -->
<g id="edge40" class="edge">
<title>Node13&#45;&gt;Node34</title>
<path fill="none" stroke="midnightblue" d="M2598.86,-130.96C2628.01,-120.48 2664.54,-107.37 2691.8,-97.58"/>
<polygon fill="midnightblue" stroke="midnightblue" points="2597.5,-127.72 2589.27,-134.4 2599.87,-134.31 2597.5,-127.72"/>
</g>
<!-- Node14&#45;&gt;Node2 -->
<g id="edge16" class="edge">
<title>Node14&#45;&gt;Node2</title>
<path fill="none" stroke="midnightblue" d="M2476.4,-81.48C2125.68,-81.13 621.85,-76.92 155,-31 152.12,-30.72 149.19,-30.39 146.24,-30.03"/>
<polygon fill="midnightblue" stroke="midnightblue" points="2476.43,-84.98 2486.43,-81.48 2476.44,-77.98 2476.43,-84.98"/>
</g>
<!-- Node14&#45;&gt;Node4 -->
<g id="edge29" class="edge">
<title>Node14&#45;&gt;Node4</title>
<path fill="none" stroke="midnightblue" d="M2476.19,-81.39C2139.74,-80.63 749.11,-74.87 316,-31 313.33,-30.73 310.62,-30.42 307.88,-30.08"/>
<polygon fill="midnightblue" stroke="midnightblue" points="2476.3,-84.89 2486.31,-81.41 2476.32,-77.89 2476.3,-84.89"/>
</g>
<!-- Node14&#45;&gt;Node7 -->
<g id="edge15" class="edge">
<title>Node14&#45;&gt;Node7</title>
<path fill="none" stroke="midnightblue" d="M2475.85,-81.29C2166.6,-80.14 978.35,-73.01 606,-31 603.21,-30.69 600.37,-30.32 597.51,-29.91"/>
<polygon fill="midnightblue" stroke="midnightblue" points="2476.04,-84.79 2486.05,-81.32 2476.06,-77.79 2476.04,-84.79"/>
</g>
<!-- Node14&#45;&gt;Node9 -->
<g id="edge35" class="edge">
<title>Node14&#45;&gt;Node9</title>
<path fill="none" stroke="midnightblue" d="M2476.17,-80.78C2184.76,-77.74 1113.86,-64.46 776,-31 762.29,-29.64 747.46,-27.39 734.08,-25.06"/>
<polygon fill="midnightblue" stroke="midnightblue" points="2476.17,-84.28 2486.21,-80.89 2476.24,-77.28 2476.17,-84.28"/>
</g>
<!-- Node14&#45;&gt;Node10 -->
<g id="edge38" class="edge">
<title>Node14&#45;&gt;Node10</title>
<path fill="none" stroke="midnightblue" d="M2476.36,-81.94C2251.78,-82.68 1555.92,-80.49 982,-31 965.54,-29.58 947.69,-27.32 931.54,-25.01"/>
<polygon fill="midnightblue" stroke="midnightblue" points="2476.39,-85.44 2486.38,-81.9 2476.36,-78.44 2476.39,-85.44"/>
</g>
<!-- Node14&#45;&gt;Node11 -->
<g id="edge36" class="edge">
<title>Node14&#45;&gt;Node11</title>
<path fill="none" stroke="midnightblue" d="M2623.57,-70.52C2635.07,-69.12 2646.84,-67.88 2658,-67 3348.51,-12.84 3525.17,-80.95 4216,-31 4235.1,-29.62 4255.84,-27.36 4274.57,-25.03"/>
<polygon fill="midnightblue" stroke="midnightblue" points="2623.04,-67.06 2613.55,-71.78 2623.91,-74 2623.04,-67.06"/>
</g>
<!-- Node15 -->
<g id="node15" class="node">
<title>Node15</title>
<g id="a_node15"><a xlink:href="../../d9/d7f/about2d__dialog_8cpp.html" target="_top" xlink:title=" ">
<polygon fill="white" stroke="black" points="991.5,-0.5 991.5,-30.5 1132.5,-30.5 1132.5,-0.5 991.5,-0.5"/>
<text text-anchor="start" x="999.5" y="-18.5" font-family="Helvetica,sans-Serif" font-size="10.00">src/app/seamly2d/dialogs</text>
<text text-anchor="middle" x="1062" y="-7.5" font-family="Helvetica,sans-Serif" font-size="10.00">/about2d_dialog.cpp</text>
</a>
</g>
</g>
<!-- Node14&#45;&gt;Node15 -->
<g id="edge17" class="edge">
<title>Node14&#45;&gt;Node15</title>
<path fill="none" stroke="midnightblue" d="M2476.39,-80.28C2225.32,-75.89 1403.65,-59.66 1141,-31 1138.23,-30.7 1135.41,-30.35 1132.56,-29.98"/>
<polygon fill="midnightblue" stroke="midnightblue" points="2476.44,-83.78 2486.5,-80.45 2476.56,-76.78 2476.44,-83.78"/>
</g>
<!-- Node16 -->
<g id="node16" class="node">
<title>Node16</title>
<g id="a_node16"><a xlink:href="../../d7/dfa/calculator__dialog_8cpp.html" target="_top" xlink:title=" ">
<polygon fill="white" stroke="black" points="1150.5,-0.5 1150.5,-30.5 1291.5,-30.5 1291.5,-0.5 1150.5,-0.5"/>
<text text-anchor="start" x="1158.5" y="-18.5" font-family="Helvetica,sans-Serif" font-size="10.00">src/app/seamly2d/dialogs</text>
<text text-anchor="middle" x="1221" y="-7.5" font-family="Helvetica,sans-Serif" font-size="10.00">/calculator_dialog.cpp</text>
</a>
</g>
</g>
<!-- Node14&#45;&gt;Node16 -->
<g id="edge18" class="edge">
<title>Node14&#45;&gt;Node16</title>
<path fill="none" stroke="midnightblue" d="M2476.29,-82.14C2282.79,-83.05 1744.53,-80.52 1300,-31 1297.23,-30.69 1294.41,-30.34 1291.56,-29.96"/>
<polygon fill="midnightblue" stroke="midnightblue" points="2476.37,-85.64 2486.35,-82.09 2476.33,-78.64 2476.37,-85.64"/>
</g>
<!-- Node17 -->
<g id="node17" class="node">
<title>Node17</title>
<g id="a_node17"><a xlink:href="../../d2/d2d/preferencesconfigurationpage_8cpp.html" target="_top" xlink:title=" ">
<polygon fill="white" stroke="black" points="1309.5,-0.5 1309.5,-30.5 1556.5,-30.5 1556.5,-0.5 1309.5,-0.5"/>
<text text-anchor="start" x="1317.5" y="-18.5" font-family="Helvetica,sans-Serif" font-size="10.00">src/app/seamly2d/dialogs</text>
<text text-anchor="middle" x="1433" y="-7.5" font-family="Helvetica,sans-Serif" font-size="10.00">/configpages/preferencesconfigurationpage.cpp</text>
</a>
</g>
</g>
<!-- Node14&#45;&gt;Node17 -->
<g id="edge19" class="edge">
<title>Node14&#45;&gt;Node17</title>
<path fill="none" stroke="midnightblue" d="M2475.86,-79.15C2311.72,-73.62 1905.33,-58.18 1566,-31 1562.87,-30.75 1559.71,-30.49 1556.52,-30.21"/>
<polygon fill="midnightblue" stroke="midnightblue" points="2476.2,-82.66 2486.31,-79.5 2476.44,-75.66 2476.2,-82.66"/>
</g>
<!-- Node18 -->
<g id="node18" class="node">
<title>Node18</title>
<g id="a_node18"><a xlink:href="../../d9/d70/preferencesgraphicsviewpage_8cpp.html" target="_top" xlink:title=" ">
<polygon fill="white" stroke="black" points="1575,-0.5 1575,-30.5 1823,-30.5 1823,-0.5 1575,-0.5"/>
<text text-anchor="start" x="1583" y="-18.5" font-family="Helvetica,sans-Serif" font-size="10.00">src/app/seamly2d/dialogs</text>
<text text-anchor="middle" x="1699" y="-7.5" font-family="Helvetica,sans-Serif" font-size="10.00">/configpages/preferencesgraphicsviewpage.cpp</text>
</a>
</g>
</g>
<!-- Node14&#45;&gt;Node18 -->
<g id="edge20" class="edge">
<title>Node14&#45;&gt;Node18</title>
<path fill="none" stroke="midnightblue" d="M2475.8,-77.22C2345.42,-69.5 2066.79,-52.05 1832,-31 1829.11,-30.74 1826.18,-30.47 1823.23,-30.2"/>
<polygon fill="midnightblue" stroke="midnightblue" points="2475.87,-80.73 2486.06,-77.83 2476.28,-73.75 2475.87,-80.73"/>
</g>
<!-- Node19 -->
<g id="node19" class="node">
<title>Node19</title>
<g id="a_node19"><a xlink:href="../../dc/d20/preferencespathpage_8cpp.html" target="_top" xlink:title=" ">
<polygon fill="white" stroke="black" points="1841.5,-0.5 1841.5,-30.5 2046.5,-30.5 2046.5,-0.5 1841.5,-0.5"/>
<text text-anchor="start" x="1849.5" y="-18.5" font-family="Helvetica,sans-Serif" font-size="10.00">src/app/seamly2d/dialogs</text>
<text text-anchor="middle" x="1944" y="-7.5" font-family="Helvetica,sans-Serif" font-size="10.00">/configpages/preferencespathpage.cpp</text>
</a>
</g>
</g>
<!-- Node14&#45;&gt;Node19 -->
<g id="edge21" class="edge">
<title>Node14&#45;&gt;Node19</title>
<path fill="none" stroke="midnightblue" d="M2476.28,-74.63C2379.5,-65.47 2204.38,-48.37 2055,-31 2052.3,-30.69 2049.56,-30.36 2046.8,-30.03"/>
<polygon fill="midnightblue" stroke="midnightblue" points="2475.97,-78.12 2486.25,-75.58 2476.63,-71.15 2475.97,-78.12"/>
</g>
<!-- Node20 -->
<g id="node20" class="node">
<title>Node20</title>
<g id="a_node20"><a xlink:href="../../dd/dc2/decimalchart__dialog_8cpp.html" target="_top" xlink:title=" ">
<polygon fill="white" stroke="black" points="2064.5,-0.5 2064.5,-30.5 2205.5,-30.5 2205.5,-0.5 2064.5,-0.5"/>
<text text-anchor="start" x="2072.5" y="-18.5" font-family="Helvetica,sans-Serif" font-size="10.00">src/app/seamly2d/dialogs</text>
<text text-anchor="middle" x="2135" y="-7.5" font-family="Helvetica,sans-Serif" font-size="10.00">/decimalchart_dialog.cpp</text>
</a>
</g>
</g>
<!-- Node14&#45;&gt;Node20 -->
<g id="edge22" class="edge">
<title>Node14&#45;&gt;Node20</title>
<path fill="none" stroke="midnightblue" d="M2476.14,-71.01C2408.19,-61.2 2304.68,-45.88 2215,-31 2211.94,-30.49 2208.81,-29.96 2205.65,-29.42"/>
<polygon fill="midnightblue" stroke="midnightblue" points="2475.92,-74.51 2486.31,-72.47 2476.91,-67.58 2475.92,-74.51"/>
</g>
<!-- Node21 -->
<g id="node21" class="node">
<title>Node21</title>
<g id="a_node21"><a xlink:href="../../dc/d63/preferencespatternpage_8cpp.html" target="_top" xlink:title=" ">
<polygon fill="white" stroke="black" points="2224,-0.5 2224,-30.5 2442,-30.5 2442,-0.5 2224,-0.5"/>
<text text-anchor="start" x="2232" y="-18.5" font-family="Helvetica,sans-Serif" font-size="10.00">src/app/seamly2d/dialogs</text>
<text text-anchor="middle" x="2333" y="-7.5" font-family="Helvetica,sans-Serif" font-size="10.00">/configpages/preferencespatternpage.cpp</text>
</a>
</g>
</g>
<!-- Node14&#45;&gt;Node21 -->
<g id="edge23" class="edge">
<title>Node14&#45;&gt;Node21</title>
<path fill="none" stroke="midnightblue" d="M2493.51,-64.58C2458.27,-54.02 2413.43,-40.59 2380.11,-30.61"/>
<polygon fill="midnightblue" stroke="midnightblue" points="2492.6,-67.96 2503.18,-67.48 2494.61,-61.25 2492.6,-67.96"/>
</g>
<!-- Node22 -->
<g id="node22" class="node">
<title>Node22</title>
<g id="a_node22"><a xlink:href="../../d2/d00/vtooloptionspropertybrowser_8cpp.html" target="_top" xlink:title=" ">
<polygon fill="white" stroke="black" points="2460,-0.5 2460,-30.5 2640,-30.5 2640,-0.5 2460,-0.5"/>
<text text-anchor="start" x="2468" y="-18.5" font-family="Helvetica,sans-Serif" font-size="10.00">src/app/seamly2d/core</text>
<text text-anchor="middle" x="2550" y="-7.5" font-family="Helvetica,sans-Serif" font-size="10.00">/vtooloptionspropertybrowser.cpp</text>
</a>
</g>
</g>
<!-- Node14&#45;&gt;Node22 -->
<g id="edge24" class="edge">
<title>Node14&#45;&gt;Node22</title>
<path fill="none" stroke="midnightblue" d="M2550,-57.11C2550,-48.15 2550,-38.32 2550,-30.58"/>
<polygon fill="midnightblue" stroke="midnightblue" points="2546.5,-57.4 2550,-67.4 2553.5,-57.4 2546.5,-57.4"/>
</g>
<!-- Node23 -->
<g id="node23" class="node">
<title>Node23</title>
<g id="a_node23"><a xlink:href="../../d6/d89/dialoglayoutprogress_8cpp.html" target="_top" xlink:title=" ">
<polygon fill="white" stroke="black" points="2658.5,-0.5 2658.5,-30.5 2801.5,-30.5 2801.5,-0.5 2658.5,-0.5"/>
<text text-anchor="start" x="2666.5" y="-18.5" font-family="Helvetica,sans-Serif" font-size="10.00">src/app/seamly2d/dialogs</text>
<text text-anchor="middle" x="2730" y="-7.5" font-family="Helvetica,sans-Serif" font-size="10.00">/dialoglayoutprogress.cpp</text>
</a>
</g>
</g>
<!-- Node14&#45;&gt;Node23 -->
<g id="edge25" class="edge">
<title>Node14&#45;&gt;Node23</title>
<path fill="none" stroke="midnightblue" d="M2598.59,-63.96C2627.58,-53.48 2663.91,-40.37 2691.02,-30.58"/>
<polygon fill="midnightblue" stroke="midnightblue" points="2597.27,-60.71 2589.06,-67.4 2599.65,-67.29 2597.27,-60.71"/>
</g>
<!-- Node24 -->
<g id="node24" class="node">
<title>Node24</title>
<g id="a_node24"><a xlink:href="../../de/d87/dialognewpattern_8cpp.html" target="_top" xlink:title=" ">
<polygon fill="white" stroke="black" points="2819.5,-0.5 2819.5,-30.5 2960.5,-30.5 2960.5,-0.5 2819.5,-0.5"/>
<text text-anchor="start" x="2827.5" y="-18.5" font-family="Helvetica,sans-Serif" font-size="10.00">src/app/seamly2d/dialogs</text>
<text text-anchor="middle" x="2890" y="-7.5" font-family="Helvetica,sans-Serif" font-size="10.00">/dialognewpattern.cpp</text>
</a>
</g>
</g>
<!-- Node14&#45;&gt;Node24 -->
<g id="edge26" class="edge">
<title>Node14&#45;&gt;Node24</title>
<path fill="none" stroke="midnightblue" d="M2623.4,-67.47C2681.48,-56.36 2762.09,-40.95 2819.42,-29.99"/>
<polygon fill="midnightblue" stroke="midnightblue" points="2622.72,-64.03 2613.55,-69.35 2624.03,-70.91 2622.72,-64.03"/>
</g>
<!-- Node25 -->
<g id="node25" class="node">
<title>Node25</title>
<g id="a_node25"><a xlink:href="../../d5/d18/dialogpatternproperties_8cpp.html" target="_top" xlink:title=" ">
<polygon fill="white" stroke="black" points="2978.5,-0.5 2978.5,-30.5 3133.5,-30.5 3133.5,-0.5 2978.5,-0.5"/>
<text text-anchor="start" x="2986.5" y="-18.5" font-family="Helvetica,sans-Serif" font-size="10.00">src/app/seamly2d/dialogs</text>
<text text-anchor="middle" x="3056" y="-7.5" font-family="Helvetica,sans-Serif" font-size="10.00">/dialogpatternproperties.cpp</text>
</a>
</g>
</g>
<!-- Node14&#45;&gt;Node25 -->
<g id="edge27" class="edge">
<title>Node14&#45;&gt;Node25</title>
<path fill="none" stroke="midnightblue" d="M2623.66,-71.43C2635.15,-69.91 2646.89,-68.39 2658,-67 2796.07,-49.74 2831.22,-50.44 2969,-31 2972.03,-30.57 2975.12,-30.12 2978.24,-29.66"/>
<polygon fill="midnightblue" stroke="midnightblue" points="2623.1,-67.97 2613.65,-72.76 2624.02,-74.91 2623.1,-67.97"/>
</g>
<!-- Node26 -->
<g id="node26" class="node">
<title>Node26</title>
<g id="a_node26"><a xlink:href="../../d5/dc5/dialogpreferences_8cpp.html" target="_top" xlink:title=" ">
<polygon fill="white" stroke="black" points="3151.5,-0.5 3151.5,-30.5 3292.5,-30.5 3292.5,-0.5 3151.5,-0.5"/>
<text text-anchor="start" x="3159.5" y="-18.5" font-family="Helvetica,sans-Serif" font-size="10.00">src/app/seamly2d/dialogs</text>
<text text-anchor="middle" x="3222" y="-7.5" font-family="Helvetica,sans-Serif" font-size="10.00">/dialogpreferences.cpp</text>
</a>
</g>
</g>
<!-- Node14&#45;&gt;Node26 -->
<g id="edge28" class="edge">
<title>Node14&#45;&gt;Node26</title>
<path fill="none" stroke="midnightblue" d="M2623.61,-71.02C2635.11,-69.56 2646.87,-68.16 2658,-67 2872.54,-44.64 2928.03,-58.27 3142,-31 3145.08,-30.61 3148.22,-30.18 3151.39,-29.71"/>
<polygon fill="midnightblue" stroke="midnightblue" points="2623.07,-67.57 2613.6,-72.32 2623.97,-74.51 2623.07,-67.57"/>
</g>
<!-- Node27 -->
<g id="node27" class="node">
<title>Node27</title>
<g id="a_node27"><a xlink:href="../../db/d5c/groups__widget_8cpp.html" target="_top" xlink:title=" ">
<polygon fill="white" stroke="black" points="3310.5,-0.5 3310.5,-30.5 3451.5,-30.5 3451.5,-0.5 3310.5,-0.5"/>
<text text-anchor="start" x="3318.5" y="-18.5" font-family="Helvetica,sans-Serif" font-size="10.00">src/app/seamly2d/dialogs</text>
<text text-anchor="middle" x="3381" y="-7.5" font-family="Helvetica,sans-Serif" font-size="10.00">/groups_widget.cpp</text>
</a>
</g>
</g>
<!-- Node14&#45;&gt;Node27 -->
<g id="edge30" class="edge">
<title>Node14&#45;&gt;Node27</title>
<path fill="none" stroke="midnightblue" d="M2623.6,-70.84C2635.1,-69.4 2646.86,-68.06 2658,-67 2942.94,-39.94 3016.75,-64.59 3301,-31 3304.08,-30.64 3307.23,-30.23 3310.4,-29.78"/>
<polygon fill="midnightblue" stroke="midnightblue" points="2623.05,-67.38 2613.58,-72.13 2623.95,-74.33 2623.05,-67.38"/>
</g>
<!-- Node14&#45;&gt;Node28 -->
<g id="edge31" class="edge">
<title>Node14&#45;&gt;Node28</title>
<path fill="none" stroke="midnightblue" d="M2623.57,-70.49C2635.07,-69.09 2646.84,-67.86 2658,-67 3454.48,-5.75 3660.05,-109.62 4455,-31 4457.7,-30.73 4460.45,-30.43 4463.22,-30.09"/>
<polygon fill="midnightblue" stroke="midnightblue" points="2623.03,-67.03 2613.55,-71.75 2623.91,-73.97 2623.03,-67.03"/>
</g>
<!-- Node29 -->
<g id="node29" class="node">
<title>Node29</title>
<g id="a_node29"><a xlink:href="../../df/d69/welcome__dialog_8cpp.html" target="_top" xlink:title=" ">
<polygon fill="white" stroke="black" points="3469.5,-0.5 3469.5,-30.5 3610.5,-30.5 3610.5,-0.5 3469.5,-0.5"/>
<text text-anchor="start" x="3477.5" y="-18.5" font-family="Helvetica,sans-Serif" font-size="10.00">src/app/seamly2d/dialogs</text>
<text text-anchor="middle" x="3540" y="-7.5" font-family="Helvetica,sans-Serif" font-size="10.00">/welcome_dialog.cpp</text>
</a>
</g>
</g>
<!-- Node14&#45;&gt;Node29 -->
<g id="edge32" class="edge">
<title>Node14&#45;&gt;Node29</title>
<path fill="none" stroke="midnightblue" d="M2623.59,-70.73C2635.09,-69.31 2646.85,-68 2658,-67 3013.39,-35.23 3105.44,-70.91 3460,-31 3463.09,-30.65 3466.23,-30.26 3469.41,-29.83"/>
<polygon fill="midnightblue" stroke="midnightblue" points="2623.05,-67.27 2613.57,-72.01 2623.93,-74.22 2623.05,-67.27"/>
</g>
<!-- Node30 -->
<g id="node30" class="node">
<title>Node30</title>
<g id="a_node30"><a xlink:href="../../dd/d84/shortcuts__dialog_8cpp.html" target="_top" xlink:title=" ">
<polygon fill="white" stroke="black" points="3628.5,-0.5 3628.5,-30.5 3769.5,-30.5 3769.5,-0.5 3628.5,-0.5"/>
<text text-anchor="start" x="3636.5" y="-18.5" font-family="Helvetica,sans-Serif" font-size="10.00">src/app/seamly2d/dialogs</text>
<text text-anchor="middle" x="3699" y="-7.5" font-family="Helvetica,sans-Serif" font-size="10.00">/shortcuts_dialog.cpp</text>
</a>
</g>
</g>
<!-- Node14&#45;&gt;Node30 -->
<g id="edge33" class="edge">
<title>Node14&#45;&gt;Node30</title>
<path fill="none" stroke="midnightblue" d="M2623.58,-70.66C2635.08,-69.24 2646.85,-67.96 2658,-67 3083.85,-30.52 3194.1,-77.23 3619,-31 3622.09,-30.66 3625.23,-30.28 3628.41,-29.86"/>
<polygon fill="midnightblue" stroke="midnightblue" points="2623.04,-67.2 2613.56,-71.93 2623.92,-74.14 2623.04,-67.2"/>
</g>
<!-- Node31 -->
<g id="node31" class="node">
<title>Node31</title>
<g id="a_node31"><a xlink:href="../../d2/df4/show__info__dialog_8cpp.html" target="_top" xlink:title=" ">
<polygon fill="white" stroke="black" points="3787.5,-0.5 3787.5,-30.5 3928.5,-30.5 3928.5,-0.5 3787.5,-0.5"/>
<text text-anchor="start" x="3795.5" y="-18.5" font-family="Helvetica,sans-Serif" font-size="10.00">src/app/seamly2d/dialogs</text>
<text text-anchor="middle" x="3858" y="-7.5" font-family="Helvetica,sans-Serif" font-size="10.00">/show_info_dialog.cpp</text>
</a>
</g>
</g>
<!-- Node14&#45;&gt;Node31 -->
<g id="edge34" class="edge">
<title>Node14&#45;&gt;Node31</title>
<path fill="none" stroke="midnightblue" d="M2623.58,-70.61C2635.08,-69.2 2646.84,-67.93 2658,-67 3154.33,-25.81 3282.75,-83.55 3778,-31 3781.09,-30.67 3784.24,-30.29 3787.41,-29.88"/>
<polygon fill="midnightblue" stroke="midnightblue" points="2623.04,-67.15 2613.56,-71.88 2623.92,-74.09 2623.04,-67.15"/>
</g>
<!-- Node32 -->
<g id="node32" class="node">
<title>Node32</title>
<g id="a_node32"><a xlink:href="../../d3/d49/vpattern_8cpp.html" target="_top" xlink:title=" ">
<polygon fill="white" stroke="black" points="3946.5,-0.5 3946.5,-30.5 4071.5,-30.5 4071.5,-0.5 3946.5,-0.5"/>
<text text-anchor="start" x="3954.5" y="-18.5" font-family="Helvetica,sans-Serif" font-size="10.00">src/app/seamly2d/xml</text>
<text text-anchor="middle" x="4009" y="-7.5" font-family="Helvetica,sans-Serif" font-size="10.00">/vpattern.cpp</text>
</a>
</g>
</g>
<!-- Node14&#45;&gt;Node32 -->
<g id="edge37" class="edge">
<title>Node14&#45;&gt;Node32</title>
<path fill="none" stroke="midnightblue" d="M2623.57,-70.57C2635.07,-69.16 2646.84,-67.9 2658,-67 3224.81,-21.1 3371.99,-95.37 3937,-31 3940.04,-30.65 3943.14,-30.24 3946.27,-29.79"/>
<polygon fill="midnightblue" stroke="midnightblue" points="2623.04,-67.11 2613.56,-71.83 2623.92,-74.05 2623.04,-67.11"/>
</g>
<!-- Node33 -->
<g id="node33" class="node">
<title>Node33</title>
<g id="a_node33"><a xlink:href="../../d9/da3/image__tool_8cpp.html" target="_top" xlink:title=" ">
<polygon fill="white" stroke="black" points="4089.5,-0.5 4089.5,-30.5 4206.5,-30.5 4206.5,-0.5 4089.5,-0.5"/>
<text text-anchor="start" x="4097.5" y="-18.5" font-family="Helvetica,sans-Serif" font-size="10.00">src/libs/tools/images</text>
<text text-anchor="middle" x="4148" y="-7.5" font-family="Helvetica,sans-Serif" font-size="10.00">/image_tool.cpp</text>
</a>
</g>
</g>
<!-- Node14&#45;&gt;Node33 -->
<g id="edge39" class="edge">
<title>Node14&#45;&gt;Node33</title>
<path fill="none" stroke="midnightblue" d="M2623.57,-70.54C2635.07,-69.14 2646.84,-67.89 2658,-67 3288.21,-16.86 3452.17,-105.24 4080,-31 4083,-30.65 4086.06,-30.22 4089.14,-29.75"/>
<polygon fill="midnightblue" stroke="midnightblue" points="2623.04,-67.08 2613.55,-71.8 2623.91,-74.02 2623.04,-67.08"/>
</g>
</g>
</svg>
        <g id="navigator" transform="translate(0 0)" fill="#404254">
                <rect fill="#f2f5e9" fill-opacity="0.5" stroke="#606060" stroke-width=".5" x="0" y="0" width="60" height="60"/>
                <use id="zoomplus" xlink:href="#zoomPlus" x="17" y="9" onmousedown="handleZoom(evt,'in')"/>
                <use id="zoomminus" xlink:href="#zoomMin" x="42" y="9" onmousedown="handleZoom(evt,'out')"/>
                <use id="reset" xlink:href="#resetDef" x="30" y="36" onmousedown="handleReset()"/>
                <g id="arrowUp" xlink:href="#dirArrow" transform="translate(30 24)" onmousedown="handlePan(0,-1)">
                  <use xlink:href="#rim" fill="#404040">
                        <set attributeName="fill" to="#808080" begin="arrowUp.mouseover" end="arrowUp.mouseout"/>
                  </use>
                  <path fill="none" stroke="white" stroke-width="1.5" d="M0,-3.0v7 M-2.5,-0.5L0,-3.0L2.5,-0.5"/>
                </g>
                <g id="arrowRight" xlink:href="#dirArrow" transform="rotate(90) translate(36 -43)" onmousedown="handlePan(1,0)">
                  <use xlink:href="#rim" fill="#404040">
                        <set attributeName="fill" to="#808080" begin="arrowRight.mouseover" end="arrowRight.mouseout"/>
                  </use>
                  <path fill="none" stroke="white" stroke-width="1.5" d="M0,-3.0v7 M-2.5,-0.5L0,-3.0L2.5,-0.5"/>
                </g>
                <g id="arrowDown" xlink:href="#dirArrow" transform="rotate(180) translate(-30 -48)" onmousedown="handlePan(0,1)">
                  <use xlink:href="#rim" fill="#404040">
                        <set attributeName="fill" to="#808080" begin="arrowDown.mouseover" end="arrowDown.mouseout"/>
                  </use>
                  <path fill="none" stroke="white" stroke-width="1.5" d="M0,-3.0v7 M-2.5,-0.5L0,-3.0L2.5,-0.5"/>
                </g>
                <g id="arrowLeft" xlink:href="#dirArrow" transform="rotate(270) translate(-36 17)" onmousedown="handlePan(-1,0)">
                  <use xlink:href="#rim" fill="#404040">
                        <set attributeName="fill" to="#808080" begin="arrowLeft.mouseover" end="arrowLeft.mouseout"/>
                  </use>
                  <path fill="none" stroke="white" stroke-width="1.5" d="M0,-3.0v7 M-2.5,-0.5L0,-3.0L2.5,-0.5"/>
                </g>
        </g>
        <svg viewBox="0 0 15 15" width="100%" height="30px" preserveAspectRatio="xMaxYMin meet">
         <g id="arrow_out" transform="scale(0.3 0.3)">
          <a xlink:href="abstractlayout__dialog_8h__dep__incl_org.svg" target="_base">
           <rect id="button" ry="5" rx="5" y="6" x="6" height="38" width="38"
                fill="#f2f5e9" fill-opacity="0.5" stroke="#606060" stroke-width="1.0"/>
           <path id="arrow"
             d="M 11.500037,31.436501 C 11.940474,20.09759 22.043105,11.32322 32.158766,21.979434 L 37.068811,17.246167 C 37.068811,17.246167 37.088388,32 37.088388,32 L 22.160133,31.978069 C 22.160133,31.978069 26.997745,27.140456 26.997745,27.140456 C 18.528582,18.264221 13.291696,25.230495 11.500037,31.436501 z"
             style="fill:#404040;"/>
          </a>
         </g>
        </svg>
</svg>
