<?xml version="1.0" encoding="UTF-8" standalone="no"?>
<!DOCTYPE svg PUBLIC "-//W3C//DTD SVG 1.1//EN"
 "http://www.w3.org/Graphics/SVG/1.1/DTD/svg11.dtd">
<!-- Generated by graphviz version 2.43.0 (0)
 -->
<!-- Title: src/app/seamly2d/dialogs/abstractlayout_dialog.h Pages: 1 -->
<svg width="4618pt" height="307pt"
 viewBox="0.00 0.00 4617.50 307.00" xmlns="http://www.w3.org/2000/svg" xmlns:xlink="http://www.w3.org/1999/xlink">
<g id="graph0" class="graph" transform="scale(1 1) rotate(0) translate(4 303)">
<title>src/app/seamly2d/dialogs/abstractlayout_dialog.h</title>
<polygon fill="white" stroke="transparent" points="-4,4 -4,-303 4613.5,-303 4613.5,4 -4,4"/>
<!-- Node1 -->
<g id="node1" class="node">
<title>Node1</title>
<g id="a_node1"><a xlink:title=" ">
<polygon fill="#bfbfbf" stroke="black" points="2574.5,-268.5 2574.5,-298.5 2715.5,-298.5 2715.5,-268.5 2574.5,-268.5"/>
<text text-anchor="start" x="2582.5" y="-286.5" font-family="Helvetica,sans-Serif" font-size="10.00">src/app/seamly2d/dialogs</text>
<text text-anchor="middle" x="2645" y="-275.5" font-family="Helvetica,sans-Serif" font-size="10.00">/abstractlayout_dialog.h</text>
</a>
</g>
</g>
<!-- Node2 -->
<g id="node2" class="node">
<title>Node2</title>
<g id="a_node2"><a xlink:href="../../dd/db4/abstractlayout__dialog_8cpp.html" target="_top" xlink:title=" ">
<polygon fill="white" stroke="black" points="0,-0.5 0,-30.5 146,-30.5 146,-0.5 0,-0.5"/>
<text text-anchor="start" x="8" y="-18.5" font-family="Helvetica,sans-Serif" font-size="10.00">src/app/seamly2d/dialogs</text>
<text text-anchor="middle" x="73" y="-7.5" font-family="Helvetica,sans-Serif" font-size="10.00">/abstractlayout_dialog.cpp</text>
</a>
</g>
</g>
<!-- Node1&#45;&gt;Node2 -->
<g id="edge1" class="edge">
<title>Node1&#45;&gt;Node2</title>
<path fill="none" stroke="midnightblue" d="M2563.85,-279.46C2278.69,-267.93 1296.64,-221.2 496,-98 368.31,-78.35 220.33,-48.11 137.59,-30.52"/>
<polygon fill="midnightblue" stroke="midnightblue" points="2563.97,-282.96 2574.1,-279.87 2564.25,-275.97 2563.97,-282.96"/>
</g>
<!-- Node3 -->
<g id="node3" class="node">
<title>Node3</title>
<g id="a_node3"><a xlink:href="../../d1/d8e/export__layout__dialog_8h.html" target="_top" xlink:title=" ">
<polygon fill="white" stroke="black" points="2574.5,-201.5 2574.5,-231.5 2715.5,-231.5 2715.5,-201.5 2574.5,-201.5"/>
<text text-anchor="start" x="2582.5" y="-219.5" font-family="Helvetica,sans-Serif" font-size="10.00">src/app/seamly2d/dialogs</text>
<text text-anchor="middle" x="2645" y="-208.5" font-family="Helvetica,sans-Serif" font-size="10.00">/export_layout_dialog.h</text>
</a>
</g>
</g>
<!-- Node1&#45;&gt;Node3 -->
<g id="edge2" class="edge">
<title>Node1&#45;&gt;Node3</title>
<path fill="none" stroke="midnightblue" d="M2645,-258.11C2645,-249.15 2645,-239.32 2645,-231.58"/>
<polygon fill="midnightblue" stroke="midnightblue" points="2641.5,-258.4 2645,-268.4 2648.5,-258.4 2641.5,-258.4"/>
</g>
<!-- Node12 -->
<g id="node12" class="node">
<title>Node12</title>
<g id="a_node12"><a xlink:href="../../d3/dd8/layoutsettings__dialog_8h.html" target="_top" xlink:title=" ">
<polygon fill="white" stroke="black" points="2733.5,-201.5 2733.5,-231.5 2874.5,-231.5 2874.5,-201.5 2733.5,-201.5"/>
<text text-anchor="start" x="2741.5" y="-219.5" font-family="Helvetica,sans-Serif" font-size="10.00">src/app/seamly2d/dialogs</text>
<text text-anchor="middle" x="2804" y="-208.5" font-family="Helvetica,sans-Serif" font-size="10.00">/layoutsettings_dialog.h</text>
</a>
</g>
</g>
<!-- Node1&#45;&gt;Node12 -->
<g id="edge12" class="edge">
<title>Node1&#45;&gt;Node12</title>
<path fill="none" stroke="midnightblue" d="M2688.92,-264.54C2714.37,-254.14 2745.93,-241.24 2769.57,-231.58"/>
<polygon fill="midnightblue" stroke="midnightblue" points="2687.43,-261.37 2679.5,-268.4 2690.08,-267.85 2687.43,-261.37"/>
</g>
<!-- Node4 -->
<g id="node4" class="node">
<title>Node4</title>
<g id="a_node4"><a xlink:href="../../dd/d54/export__layout__dialog_8cpp.html" target="_top" xlink:title=" ">
<polygon fill="white" stroke="black" points="164.5,-0.5 164.5,-30.5 307.5,-30.5 307.5,-0.5 164.5,-0.5"/>
<text text-anchor="start" x="172.5" y="-18.5" font-family="Helvetica,sans-Serif" font-size="10.00">src/app/seamly2d/dialogs</text>
<text text-anchor="middle" x="236" y="-7.5" font-family="Helvetica,sans-Serif" font-size="10.00">/export_layout_dialog.cpp</text>
</a>
</g>
</g>
<!-- Node3&#45;&gt;Node4 -->
<g id="edge3" class="edge">
<title>Node3&#45;&gt;Node4</title>
<path fill="none" stroke="midnightblue" d="M2563.75,-213.84C2296.41,-207.7 1420.14,-182.04 701,-98 557.93,-81.28 392.14,-49.11 302.26,-30.58"/>
<polygon fill="midnightblue" stroke="midnightblue" points="2564.06,-217.35 2574.13,-214.08 2564.22,-210.35 2564.06,-217.35"/>
</g>
<!-- Node5 -->
<g id="node5" class="node">
<title>Node5</title>
<g id="a_node5"><a xlink:href="../../d1/d82/mainwindowsnogui_8h.html" target="_top" xlink:title=" ">
<polygon fill="white" stroke="black" points="2547.5,-140 2547.5,-159 2756.5,-159 2756.5,-140 2547.5,-140"/>
<text text-anchor="middle" x="2652" y="-147" font-family="Helvetica,sans-Serif" font-size="10.00">src/app/seamly2d/mainwindowsnogui.h</text>
</a>
</g>
</g>
<!-- Node3&#45;&gt;Node5 -->
<g id="edge4" class="edge">
<title>Node3&#45;&gt;Node5</title>
<path fill="none" stroke="midnightblue" d="M2647.61,-191.25C2648.82,-180.02 2650.18,-167.38 2651.06,-159.19"/>
<polygon fill="midnightblue" stroke="midnightblue" points="2644.11,-191.08 2646.52,-201.4 2651.07,-191.83 2644.11,-191.08"/>
</g>
<!-- Node11 -->
<g id="node11" class="node">
<title>Node11</title>
<g id="a_node11"><a xlink:href="../../d8/de8/mainwindowsnogui_8cpp.html" target="_top" xlink:title=" ">
<polygon fill="white" stroke="black" points="4225.5,-6 4225.5,-25 4446.5,-25 4446.5,-6 4225.5,-6"/>
<text text-anchor="middle" x="4336" y="-13" font-family="Helvetica,sans-Serif" font-size="10.00">src/app/seamly2d/mainwindowsnogui.cpp</text>
</a>
</g>
</g>
<!-- Node3&#45;&gt;Node11 -->
<g id="edge11" class="edge">
<title>Node3&#45;&gt;Node11</title>
<path fill="none" stroke="midnightblue" d="M2725.79,-200.75C2944.08,-166.05 3001.13,-162.77 3217,-134 3444.92,-103.63 3501.25,-90.37 3730,-67 3945.91,-44.94 4001,-52.13 4217,-31 4234.4,-29.3 4253.19,-27.15 4270.59,-25.04"/>
<polygon fill="midnightblue" stroke="midnightblue" points="2724.93,-197.34 2715.61,-202.37 2726.03,-204.25 2724.93,-197.34"/>
</g>
<!-- Node6 -->
<g id="node6" class="node">
<title>Node6</title>
<g id="a_node6"><a xlink:href="../../d9/d53/mainwindow_8h.html" target="_top" xlink:title=" ">
<polygon fill="white" stroke="black" points="710,-73 710,-92 886,-92 886,-73 710,-73"/>
<text text-anchor="middle" x="798" y="-80" font-family="Helvetica,sans-Serif" font-size="10.00">src/app/seamly2d/mainwindow.h</text>
</a>
</g>
</g>
<!-- Node5&#45;&gt;Node6 -->
<g id="edge5" class="edge">
<title>Node5&#45;&gt;Node6</title>
<path fill="none" stroke="midnightblue" d="M2583.6,-138.7C2568.6,-136.86 2552.79,-135.15 2538,-134 1906.41,-84.79 1142.48,-82.31 886.43,-83.03"/>
<polygon fill="midnightblue" stroke="midnightblue" points="2583.47,-142.21 2593.82,-139.99 2584.34,-135.27 2583.47,-142.21"/>
</g>
<!-- Node5&#45;&gt;Node11 -->
<g id="edge10" class="edge">
<title>Node5&#45;&gt;Node11</title>
<path fill="none" stroke="midnightblue" d="M2678.02,-135.4C2717.78,-116.16 2796.57,-81.01 2868,-67 3162.27,-9.26 3917.94,-53.16 4217,-31 4235.99,-29.59 4256.61,-27.34 4275.26,-25.02"/>
<polygon fill="midnightblue" stroke="midnightblue" points="2676.22,-132.39 2668.78,-139.93 2679.3,-138.67 2676.22,-132.39"/>
</g>
<!-- Node7 -->
<g id="node7" class="node">
<title>Node7</title>
<g id="a_node7"><a xlink:href="../../d3/dd8/vapplication_8cpp.html" target="_top" xlink:title=" ">
<polygon fill="white" stroke="black" points="325.5,-0.5 325.5,-30.5 452.5,-30.5 452.5,-0.5 325.5,-0.5"/>
<text text-anchor="start" x="333.5" y="-18.5" font-family="Helvetica,sans-Serif" font-size="10.00">src/app/seamly2d/core</text>
<text text-anchor="middle" x="389" y="-7.5" font-family="Helvetica,sans-Serif" font-size="10.00">/vapplication.cpp</text>
</a>
</g>
</g>
<!-- Node6&#45;&gt;Node7 -->
<g id="edge6" class="edge">
<title>Node6&#45;&gt;Node7</title>
<path fill="none" stroke="midnightblue" d="M724.57,-71.57C656.18,-62.08 551.48,-46.88 461,-31 458.24,-30.52 455.42,-30.01 452.57,-29.48"/>
<polygon fill="midnightblue" stroke="midnightblue" points="724.42,-75.09 734.81,-72.99 725.38,-68.15 724.42,-75.09"/>
</g>
<!-- Node8 -->
<g id="node8" class="node">
<title>Node8</title>
<g id="a_node8"><a xlink:href="../../df/d3e/application__2d_8cpp.html" target="_top" xlink:title=" ">
<polygon fill="white" stroke="black" points="470.5,-0.5 470.5,-30.5 597.5,-30.5 597.5,-0.5 470.5,-0.5"/>
<text text-anchor="start" x="478.5" y="-18.5" font-family="Helvetica,sans-Serif" font-size="10.00">src/app/seamly2d/core</text>
<text text-anchor="middle" x="534" y="-7.5" font-family="Helvetica,sans-Serif" font-size="10.00">/application_2d.cpp</text>
</a>
</g>
</g>
<!-- Node6&#45;&gt;Node8 -->
<g id="edge7" class="edge">
<title>Node6&#45;&gt;Node8</title>
<path fill="none" stroke="midnightblue" d="M753.23,-70.48C708.54,-59.47 639.7,-42.52 591.1,-30.56"/>
<polygon fill="midnightblue" stroke="midnightblue" points="752.67,-73.94 763.22,-72.94 754.34,-67.15 752.67,-73.94"/>
</g>
<!-- Node9 -->
<g id="node9" class="node">
<title>Node9</title>
<g id="a_node9"><a xlink:href="../../dc/d14/app_2seamly2d_2main_8cpp.html" target="_top" xlink:title=" ">
<polygon fill="white" stroke="black" points="615.5,-6 615.5,-25 766.5,-25 766.5,-6 615.5,-6"/>
<text text-anchor="middle" x="691" y="-13" font-family="Helvetica,sans-Serif" font-size="10.00">src/app/seamly2d/main.cpp</text>
</a>
</g>
</g>
<!-- Node6&#45;&gt;Node9 -->
<g id="edge8" class="edge">
<title>Node6&#45;&gt;Node9</title>
<path fill="none" stroke="midnightblue" d="M774.86,-67.44C753.67,-54.57 722.98,-35.93 705.2,-25.13"/>
<polygon fill="midnightblue" stroke="midnightblue" points="773.21,-70.53 783.57,-72.73 776.84,-64.55 773.21,-70.53"/>
</g>
<!-- Node10 -->
<g id="node10" class="node">
<title>Node10</title>
<g id="a_node10"><a xlink:href="../../d8/dd9/mainwindow_8cpp.html" target="_top" xlink:title=" ">
<polygon fill="white" stroke="black" points="785,-6 785,-25 973,-25 973,-6 785,-6"/>
<text text-anchor="middle" x="879" y="-13" font-family="Helvetica,sans-Serif" font-size="10.00">src/app/seamly2d/mainwindow.cpp</text>
</a>
</g>
</g>
<!-- Node6&#45;&gt;Node10 -->
<g id="edge9" class="edge">
<title>Node6&#45;&gt;Node10</title>
<path fill="none" stroke="midnightblue" d="M817.05,-66.21C833.01,-53.41 855.21,-35.59 868.25,-25.13"/>
<polygon fill="midnightblue" stroke="midnightblue" points="814.53,-63.75 808.92,-72.73 818.91,-69.2 814.53,-63.75"/>
</g>
<!-- Node12&#45;&gt;Node11 -->
<g id="edge44" class="edge">
<title>Node12&#45;&gt;Node11</title>
<path fill="none" stroke="midnightblue" d="M2884.68,-205.02C3154.72,-169.94 4023.69,-57.07 4270.23,-25.04"/>
<polygon fill="midnightblue" stroke="midnightblue" points="2884.03,-201.57 2874.57,-206.33 2884.93,-208.52 2884.03,-201.57"/>
</g>
<!-- Node13 -->
<g id="node13" class="node">
<title>Node13</title>
<g id="a_node13"><a xlink:href="../../dd/d57/vcmdexport_8h.html" target="_top" xlink:title=" ">
<polygon fill="white" stroke="black" points="2402.5,-134.5 2402.5,-164.5 2529.5,-164.5 2529.5,-134.5 2402.5,-134.5"/>
<text text-anchor="start" x="2410.5" y="-152.5" font-family="Helvetica,sans-Serif" font-size="10.00">src/app/seamly2d/core</text>
<text text-anchor="middle" x="2466" y="-141.5" font-family="Helvetica,sans-Serif" font-size="10.00">/vcmdexport.h</text>
</a>
</g>
</g>
<!-- Node12&#45;&gt;Node13 -->
<g id="edge13" class="edge">
<title>Node12&#45;&gt;Node13</title>
<path fill="none" stroke="midnightblue" d="M2723.42,-200.44C2670.65,-190.52 2600.19,-177.17 2538,-165 2535.25,-164.46 2532.44,-163.91 2529.6,-163.35"/>
<polygon fill="midnightblue" stroke="midnightblue" points="2722.92,-203.91 2733.39,-202.32 2724.21,-197.03 2722.92,-203.91"/>
</g>
<!-- Node28 -->
<g id="node28" class="node">
<title>Node28</title>
<g id="a_node28"><a xlink:href="../../d0/dfa/layoutsettings__dialog_8cpp.html" target="_top" xlink:title=" ">
<polygon fill="white" stroke="black" points="4464.5,-0.5 4464.5,-30.5 4609.5,-30.5 4609.5,-0.5 4464.5,-0.5"/>
<text text-anchor="start" x="4472.5" y="-18.5" font-family="Helvetica,sans-Serif" font-size="10.00">src/app/seamly2d/dialogs</text>
<text text-anchor="middle" x="4537" y="-7.5" font-family="Helvetica,sans-Serif" font-size="10.00">/layoutsettings_dialog.cpp</text>
</a>
</g>
</g>
<!-- Node12&#45;&gt;Node28 -->
<g id="edge43" class="edge">
<title>Node12&#45;&gt;Node28</title>
<path fill="none" stroke="midnightblue" d="M2884.84,-208.27C2987.81,-198.93 3171.25,-181.86 3328,-165 3829.96,-111 3956.64,-105.29 4456,-31 4458.68,-30.6 4461.42,-30.18 4464.18,-29.75"/>
<polygon fill="midnightblue" stroke="midnightblue" points="2884.46,-204.79 2874.82,-209.18 2885.1,-211.76 2884.46,-204.79"/>
</g>
<!-- Node34 -->
<g id="node34" class="node">
<title>Node34</title>
<g id="a_node34"><a xlink:href="../../df/d9b/vcmdexport_8cpp.html" target="_top" xlink:title=" ">
<polygon fill="white" stroke="black" points="2583.5,-67.5 2583.5,-97.5 2710.5,-97.5 2710.5,-67.5 2583.5,-67.5"/>
<text text-anchor="start" x="2591.5" y="-85.5" font-family="Helvetica,sans-Serif" font-size="10.00">src/app/seamly2d/core</text>
<text text-anchor="middle" x="2647" y="-74.5" font-family="Helvetica,sans-Serif" font-size="10.00">/vcmdexport.cpp</text>
</a>
</g>
</g>
<!-- Node12&#45;&gt;Node34 -->
<g id="edge42" class="edge">
<title>Node12&#45;&gt;Node34</title>
<path fill="none" stroke="midnightblue" d="M2797.57,-191.56C2791.69,-173.67 2781.37,-149.7 2765,-134 2747.39,-117.11 2723.25,-105.43 2701.4,-97.59"/>
<polygon fill="midnightblue" stroke="midnightblue" points="2794.27,-192.73 2800.54,-201.28 2800.97,-190.69 2794.27,-192.73"/>
</g>
<!-- Node13&#45;&gt;Node6 -->
<g id="edge41" class="edge">
<title>Node13&#45;&gt;Node6</title>
<path fill="none" stroke="midnightblue" d="M2392.27,-145.63C2121.14,-135.06 1179.88,-98.38 886.21,-86.94"/>
<polygon fill="midnightblue" stroke="midnightblue" points="2392.27,-149.13 2402.4,-146.02 2392.54,-142.13 2392.27,-149.13"/>
</g>
<!-- Node14 -->
<g id="node14" class="node">
<title>Node14</title>
<g id="a_node14"><a xlink:href="../../d7/d61/application__2d_8h.html" target="_top" xlink:title=" ">
<polygon fill="white" stroke="black" points="2402.5,-67.5 2402.5,-97.5 2529.5,-97.5 2529.5,-67.5 2402.5,-67.5"/>
<text text-anchor="start" x="2410.5" y="-85.5" font-family="Helvetica,sans-Serif" font-size="10.00">src/app/seamly2d/core</text>
<text text-anchor="middle" x="2466" y="-74.5" font-family="Helvetica,sans-Serif" font-size="10.00">/application_2d.h</text>
</a>
</g>
</g>
<!-- Node13&#45;&gt;Node14 -->
<g id="edge14" class="edge">
<title>Node13&#45;&gt;Node14</title>
<path fill="none" stroke="midnightblue" d="M2466,-124.11C2466,-115.15 2466,-105.32 2466,-97.58"/>
<polygon fill="midnightblue" stroke="midnightblue" points="2462.5,-124.4 2466,-134.4 2469.5,-124.4 2462.5,-124.4"/>
</g>
<!-- Node13&#45;&gt;Node34 -->
<g id="edge40" class="edge">
<title>Node13&#45;&gt;Node34</title>
<path fill="none" stroke="midnightblue" d="M2514.86,-130.96C2544.01,-120.48 2580.54,-107.37 2607.8,-97.58"/>
<polygon fill="midnightblue" stroke="midnightblue" points="2513.5,-127.72 2505.27,-134.4 2515.87,-134.31 2513.5,-127.72"/>
</g>
<!-- Node14&#45;&gt;Node2 -->
<g id="edge16" class="edge">
<title>Node14&#45;&gt;Node2</title>
<path fill="none" stroke="midnightblue" d="M2392.2,-81.41C2048.69,-80.75 604.24,-75.36 155,-31 152.12,-30.72 149.19,-30.39 146.24,-30.02"/>
<polygon fill="midnightblue" stroke="midnightblue" points="2392.27,-84.91 2402.28,-81.43 2392.28,-77.91 2392.27,-84.91"/>
</g>
<!-- Node14&#45;&gt;Node4 -->
<g id="edge29" class="edge">
<title>Node14&#45;&gt;Node4</title>
<path fill="none" stroke="midnightblue" d="M2392.05,-81.31C2063.22,-80.23 731.57,-73.28 316,-31 313.33,-30.73 310.62,-30.42 307.88,-30.07"/>
<polygon fill="midnightblue" stroke="midnightblue" points="2392.4,-84.81 2402.41,-81.34 2392.42,-77.81 2392.4,-84.81"/>
</g>
<!-- Node14&#45;&gt;Node8 -->
<g id="edge15" class="edge">
<title>Node14&#45;&gt;Node8</title>
<path fill="none" stroke="midnightblue" d="M2392.12,-81.19C2091.73,-79.65 961.08,-71.27 606,-31 603.21,-30.68 600.37,-30.31 597.51,-29.9"/>
<polygon fill="midnightblue" stroke="midnightblue" points="2392.44,-84.69 2402.45,-81.24 2392.47,-77.69 2392.44,-84.69"/>
</g>
<!-- Node14&#45;&gt;Node9 -->
<g id="edge35" class="edge">
<title>Node14&#45;&gt;Node9</title>
<path fill="none" stroke="midnightblue" d="M2391.95,-80.66C2109.05,-77.23 1096.44,-62.96 776,-31 762.3,-29.63 747.46,-27.38 734.08,-25.04"/>
<polygon fill="midnightblue" stroke="midnightblue" points="2392.06,-84.16 2402.1,-80.78 2392.14,-77.16 2392.06,-84.16"/>
</g>
<!-- Node14&#45;&gt;Node10 -->
<g id="edge37" class="edge">
<title>Node14&#45;&gt;Node10</title>
<path fill="none" stroke="midnightblue" d="M2391.9,-81.75C2174.79,-81.88 1521.46,-78.02 982,-31 965.63,-29.57 947.88,-27.33 931.81,-25.03"/>
<polygon fill="midnightblue" stroke="midnightblue" points="2392.22,-85.25 2402.21,-81.74 2392.21,-78.25 2392.22,-85.25"/>
</g>
<!-- Node14&#45;&gt;Node11 -->
<g id="edge36" class="edge">
<title>Node14&#45;&gt;Node11</title>
<path fill="none" stroke="midnightblue" d="M2539.57,-70.51C2551.07,-69.11 2562.84,-67.87 2574,-67 3302.19,-10.32 3488.47,-83.24 4217,-31 4236.2,-29.62 4257.06,-27.35 4275.88,-25"/>
<polygon fill="midnightblue" stroke="midnightblue" points="2539.03,-67.05 2529.55,-71.77 2539.91,-73.99 2539.03,-67.05"/>
</g>
<!-- Node15 -->
<g id="node15" class="node">
<title>Node15</title>
<g id="a_node15"><a xlink:href="../../d9/d7f/about2d__dialog_8cpp.html" target="_top" xlink:title=" ">
<polygon fill="white" stroke="black" points="991.5,-0.5 991.5,-30.5 1132.5,-30.5 1132.5,-0.5 991.5,-0.5"/>
<text text-anchor="start" x="999.5" y="-18.5" font-family="Helvetica,sans-Serif" font-size="10.00">src/app/seamly2d/dialogs</text>
<text text-anchor="middle" x="1062" y="-7.5" font-family="Helvetica,sans-Serif" font-size="10.00">/about2d_dialog.cpp</text>
</a>
</g>
</g>
<!-- Node14&#45;&gt;Node15 -->
<g id="edge17" class="edge">
<title>Node14&#45;&gt;Node15</title>
<path fill="none" stroke="midnightblue" d="M2392.32,-80.08C2151.1,-75.23 1386.45,-58.06 1141,-31 1138.23,-30.69 1135.41,-30.35 1132.56,-29.97"/>
<polygon fill="midnightblue" stroke="midnightblue" points="2392.32,-83.59 2402.39,-80.29 2392.46,-76.59 2392.32,-83.59"/>
</g>
<!-- Node16 -->
<g id="node16" class="node">
<title>Node16</title>
<g id="a_node16"><a xlink:href="../../d7/dfa/calculator__dialog_8cpp.html" target="_top" xlink:title=" ">
<polygon fill="white" stroke="black" points="1150.5,-0.5 1150.5,-30.5 1291.5,-30.5 1291.5,-0.5 1150.5,-0.5"/>
<text text-anchor="start" x="1158.5" y="-18.5" font-family="Helvetica,sans-Serif" font-size="10.00">src/app/seamly2d/dialogs</text>
<text text-anchor="middle" x="1221" y="-7.5" font-family="Helvetica,sans-Serif" font-size="10.00">/calculator_dialog.cpp</text>
</a>
</g>
</g>
<!-- Node14&#45;&gt;Node16 -->
<g id="edge18" class="edge">
<title>Node14&#45;&gt;Node16</title>
<path fill="none" stroke="midnightblue" d="M2392.18,-81.77C2207.61,-81.71 1711.47,-76.88 1301,-31 1297.91,-30.66 1294.77,-30.26 1291.59,-29.83"/>
<polygon fill="midnightblue" stroke="midnightblue" points="2392.31,-85.27 2402.31,-81.77 2392.31,-78.27 2392.31,-85.27"/>
</g>
<!-- Node17 -->
<g id="node17" class="node">
<title>Node17</title>
<g id="a_node17"><a xlink:href="../../d9/d70/preferencesgraphicsviewpage_8cpp.html" target="_top" xlink:title=" ">
<polygon fill="white" stroke="black" points="1310,-0.5 1310,-30.5 1558,-30.5 1558,-0.5 1310,-0.5"/>
<text text-anchor="start" x="1318" y="-18.5" font-family="Helvetica,sans-Serif" font-size="10.00">src/app/seamly2d/dialogs</text>
<text text-anchor="middle" x="1434" y="-7.5" font-family="Helvetica,sans-Serif" font-size="10.00">/configpages/preferencesgraphicsviewpage.cpp</text>
</a>
</g>
</g>
<!-- Node14&#45;&gt;Node17 -->
<g id="edge19" class="edge">
<title>Node14&#45;&gt;Node17</title>
<path fill="none" stroke="midnightblue" d="M2392.17,-78.67C2238.46,-72.48 1872.92,-56.25 1567,-31 1564.11,-30.76 1561.18,-30.51 1558.23,-30.25"/>
<polygon fill="midnightblue" stroke="midnightblue" points="2392.3,-82.17 2402.43,-79.08 2392.58,-75.18 2392.3,-82.17"/>
</g>
<!-- Node18 -->
<g id="node18" class="node">
<title>Node18</title>
<g id="a_node18"><a xlink:href="../../dc/d20/preferencespathpage_8cpp.html" target="_top" xlink:title=" ">
<polygon fill="white" stroke="black" points="1576.5,-0.5 1576.5,-30.5 1781.5,-30.5 1781.5,-0.5 1576.5,-0.5"/>
<text text-anchor="start" x="1584.5" y="-18.5" font-family="Helvetica,sans-Serif" font-size="10.00">src/app/seamly2d/dialogs</text>
<text text-anchor="middle" x="1679" y="-7.5" font-family="Helvetica,sans-Serif" font-size="10.00">/configpages/preferencespathpage.cpp</text>
</a>
</g>
</g>
<!-- Node14&#45;&gt;Node18 -->
<g id="edge20" class="edge">
<title>Node14&#45;&gt;Node18</title>
<path fill="none" stroke="midnightblue" d="M2391.99,-77.28C2267.65,-69.89 2009.04,-53.25 1791,-31 1787.88,-30.68 1784.71,-30.35 1781.51,-30"/>
<polygon fill="midnightblue" stroke="midnightblue" points="2391.96,-80.78 2402.15,-77.88 2392.37,-73.79 2391.96,-80.78"/>
</g>
<!-- Node19 -->
<g id="node19" class="node">
<title>Node19</title>
<g id="a_node19"><a xlink:href="../../d2/d00/vtooloptionspropertybrowser_8cpp.html" target="_top" xlink:title=" ">
<polygon fill="white" stroke="black" points="1800,-0.5 1800,-30.5 1980,-30.5 1980,-0.5 1800,-0.5"/>
<text text-anchor="start" x="1808" y="-18.5" font-family="Helvetica,sans-Serif" font-size="10.00">src/app/seamly2d/core</text>
<text text-anchor="middle" x="1890" y="-7.5" font-family="Helvetica,sans-Serif" font-size="10.00">/vtooloptionspropertybrowser.cpp</text>
</a>
</g>
</g>
<!-- Node14&#45;&gt;Node19 -->
<g id="edge21" class="edge">
<title>Node14&#45;&gt;Node19</title>
<path fill="none" stroke="midnightblue" d="M2392.3,-74.62C2298.49,-65.65 2131.49,-48.97 1989,-31 1986.07,-30.63 1983.09,-30.25 1980.09,-29.85"/>
<polygon fill="midnightblue" stroke="midnightblue" points="2391.97,-78.1 2402.25,-75.57 2392.63,-71.13 2391.97,-78.1"/>
</g>
<!-- Node20 -->
<g id="node20" class="node">
<title>Node20</title>
<g id="a_node20"><a xlink:href="../../dd/dc2/decimalchart__dialog_8cpp.html" target="_top" xlink:title=" ">
<polygon fill="white" stroke="black" points="1998.5,-0.5 1998.5,-30.5 2139.5,-30.5 2139.5,-0.5 1998.5,-0.5"/>
<text text-anchor="start" x="2006.5" y="-18.5" font-family="Helvetica,sans-Serif" font-size="10.00">src/app/seamly2d/dialogs</text>
<text text-anchor="middle" x="2069" y="-7.5" font-family="Helvetica,sans-Serif" font-size="10.00">/decimalchart_dialog.cpp</text>
</a>
</g>
</g>
<!-- Node14&#45;&gt;Node20 -->
<g id="edge22" class="edge">
<title>Node14&#45;&gt;Node20</title>
<path fill="none" stroke="midnightblue" d="M2392.44,-70.24C2328.15,-60.28 2232.31,-45.18 2149,-31 2145.94,-30.48 2142.81,-29.94 2139.66,-29.39"/>
<polygon fill="midnightblue" stroke="midnightblue" points="2392.06,-73.72 2402.48,-71.79 2393.13,-66.8 2392.06,-73.72"/>
</g>
<!-- Node21 -->
<g id="node21" class="node">
<title>Node21</title>
<g id="a_node21"><a xlink:href="../../dc/d63/preferencespatternpage_8cpp.html" target="_top" xlink:title=" ">
<polygon fill="white" stroke="black" points="2158,-0.5 2158,-30.5 2376,-30.5 2376,-0.5 2158,-0.5"/>
<text text-anchor="start" x="2166" y="-18.5" font-family="Helvetica,sans-Serif" font-size="10.00">src/app/seamly2d/dialogs</text>
<text text-anchor="middle" x="2267" y="-7.5" font-family="Helvetica,sans-Serif" font-size="10.00">/configpages/preferencespatternpage.cpp</text>
</a>
</g>
</g>
<!-- Node14&#45;&gt;Node21 -->
<g id="edge23" class="edge">
<title>Node14&#45;&gt;Node21</title>
<path fill="none" stroke="midnightblue" d="M2413.12,-64.23C2380.93,-53.71 2340.33,-40.45 2310.1,-30.58"/>
<polygon fill="midnightblue" stroke="midnightblue" points="2412.23,-67.62 2422.82,-67.4 2414.4,-60.96 2412.23,-67.62"/>
</g>
<!-- Node22 -->
<g id="node22" class="node">
<title>Node22</title>
<g id="a_node22"><a xlink:href="../../d6/d89/dialoglayoutprogress_8cpp.html" target="_top" xlink:title=" ">
<polygon fill="white" stroke="black" points="2394.5,-0.5 2394.5,-30.5 2537.5,-30.5 2537.5,-0.5 2394.5,-0.5"/>
<text text-anchor="start" x="2402.5" y="-18.5" font-family="Helvetica,sans-Serif" font-size="10.00">src/app/seamly2d/dialogs</text>
<text text-anchor="middle" x="2466" y="-7.5" font-family="Helvetica,sans-Serif" font-size="10.00">/dialoglayoutprogress.cpp</text>
</a>
</g>
</g>
<!-- Node14&#45;&gt;Node22 -->
<g id="edge24" class="edge">
<title>Node14&#45;&gt;Node22</title>
<path fill="none" stroke="midnightblue" d="M2466,-57.11C2466,-48.15 2466,-38.32 2466,-30.58"/>
<polygon fill="midnightblue" stroke="midnightblue" points="2462.5,-57.4 2466,-67.4 2469.5,-57.4 2462.5,-57.4"/>
</g>
<!-- Node23 -->
<g id="node23" class="node">
<title>Node23</title>
<g id="a_node23"><a xlink:href="../../de/d87/dialognewpattern_8cpp.html" target="_top" xlink:title=" ">
<polygon fill="white" stroke="black" points="2555.5,-0.5 2555.5,-30.5 2696.5,-30.5 2696.5,-0.5 2555.5,-0.5"/>
<text text-anchor="start" x="2563.5" y="-18.5" font-family="Helvetica,sans-Serif" font-size="10.00">src/app/seamly2d/dialogs</text>
<text text-anchor="middle" x="2626" y="-7.5" font-family="Helvetica,sans-Serif" font-size="10.00">/dialognewpattern.cpp</text>
</a>
</g>
</g>
<!-- Node14&#45;&gt;Node23 -->
<g id="edge25" class="edge">
<title>Node14&#45;&gt;Node23</title>
<path fill="none" stroke="midnightblue" d="M2510.2,-63.54C2535.8,-53.14 2567.57,-40.24 2591.35,-30.58"/>
<polygon fill="midnightblue" stroke="midnightblue" points="2508.66,-60.39 2500.72,-67.4 2511.3,-66.87 2508.66,-60.39"/>
</g>
<!-- Node24 -->
<g id="node24" class="node">
<title>Node24</title>
<g id="a_node24"><a xlink:href="../../d2/d2d/preferencesconfigurationpage_8cpp.html" target="_top" xlink:title=" ">
<polygon fill="white" stroke="black" points="2714.5,-0.5 2714.5,-30.5 2961.5,-30.5 2961.5,-0.5 2714.5,-0.5"/>
<text text-anchor="start" x="2722.5" y="-18.5" font-family="Helvetica,sans-Serif" font-size="10.00">src/app/seamly2d/dialogs</text>
<text text-anchor="middle" x="2838" y="-7.5" font-family="Helvetica,sans-Serif" font-size="10.00">/configpages/preferencesconfigurationpage.cpp</text>
</a>
</g>
</g>
<!-- Node14&#45;&gt;Node24 -->
<g id="edge26" class="edge">
<title>Node14&#45;&gt;Node24</title>
<path fill="none" stroke="midnightblue" d="M2539.39,-68.68C2602.38,-57.67 2693,-41.84 2757.87,-30.5"/>
<polygon fill="midnightblue" stroke="midnightblue" points="2538.77,-65.23 2529.53,-70.4 2539.98,-72.13 2538.77,-65.23"/>
</g>
<!-- Node25 -->
<g id="node25" class="node">
<title>Node25</title>
<g id="a_node25"><a xlink:href="../../d5/d18/dialogpatternproperties_8cpp.html" target="_top" xlink:title=" ">
<polygon fill="white" stroke="black" points="2979.5,-0.5 2979.5,-30.5 3134.5,-30.5 3134.5,-0.5 2979.5,-0.5"/>
<text text-anchor="start" x="2987.5" y="-18.5" font-family="Helvetica,sans-Serif" font-size="10.00">src/app/seamly2d/dialogs</text>
<text text-anchor="middle" x="3057" y="-7.5" font-family="Helvetica,sans-Serif" font-size="10.00">/dialogpatternproperties.cpp</text>
</a>
</g>
</g>
<!-- Node14&#45;&gt;Node25 -->
<g id="edge27" class="edge">
<title>Node14&#45;&gt;Node25</title>
<path fill="none" stroke="midnightblue" d="M2539.63,-71.19C2551.13,-69.7 2562.88,-68.25 2574,-67 2749.62,-47.24 2794.72,-53.54 2970,-31 2973.04,-30.61 2976.13,-30.19 2979.25,-29.75"/>
<polygon fill="midnightblue" stroke="midnightblue" points="2539.08,-67.73 2529.62,-72.5 2539.99,-74.67 2539.08,-67.73"/>
</g>
<!-- Node26 -->
<g id="node26" class="node">
<title>Node26</title>
<g id="a_node26"><a xlink:href="../../d5/dc5/dialogpreferences_8cpp.html" target="_top" xlink:title=" ">
<polygon fill="white" stroke="black" points="3152.5,-0.5 3152.5,-30.5 3293.5,-30.5 3293.5,-0.5 3152.5,-0.5"/>
<text text-anchor="start" x="3160.5" y="-18.5" font-family="Helvetica,sans-Serif" font-size="10.00">src/app/seamly2d/dialogs</text>
<text text-anchor="middle" x="3223" y="-7.5" font-family="Helvetica,sans-Serif" font-size="10.00">/dialogpreferences.cpp</text>
</a>
</g>
</g>
<!-- Node14&#45;&gt;Node26 -->
<g id="edge28" class="edge">
<title>Node14&#45;&gt;Node26</title>
<path fill="none" stroke="midnightblue" d="M2539.6,-70.91C2551.1,-69.46 2562.86,-68.1 2574,-67 2826.17,-42.13 2891.47,-61.65 3143,-31 3146.08,-30.62 3149.23,-30.21 3152.4,-29.76"/>
<polygon fill="midnightblue" stroke="midnightblue" points="2539.06,-67.46 2529.59,-72.21 2539.95,-74.4 2539.06,-67.46"/>
</g>
<!-- Node27 -->
<g id="node27" class="node">
<title>Node27</title>
<g id="a_node27"><a xlink:href="../../db/d5c/groups__widget_8cpp.html" target="_top" xlink:title=" ">
<polygon fill="white" stroke="black" points="3311.5,-0.5 3311.5,-30.5 3452.5,-30.5 3452.5,-0.5 3311.5,-0.5"/>
<text text-anchor="start" x="3319.5" y="-18.5" font-family="Helvetica,sans-Serif" font-size="10.00">src/app/seamly2d/dialogs</text>
<text text-anchor="middle" x="3382" y="-7.5" font-family="Helvetica,sans-Serif" font-size="10.00">/groups_widget.cpp</text>
</a>
</g>
</g>
<!-- Node14&#45;&gt;Node27 -->
<g id="edge30" class="edge">
<title>Node14&#45;&gt;Node27</title>
<path fill="none" stroke="midnightblue" d="M2539.59,-70.78C2551.09,-69.35 2562.85,-68.02 2574,-67 2896.6,-37.42 2980.17,-67.97 3302,-31 3305.09,-30.65 3308.23,-30.25 3311.4,-29.81"/>
<polygon fill="midnightblue" stroke="midnightblue" points="2539.05,-67.32 2529.57,-72.06 2539.94,-74.26 2539.05,-67.32"/>
</g>
<!-- Node14&#45;&gt;Node28 -->
<g id="edge31" class="edge">
<title>Node14&#45;&gt;Node28</title>
<path fill="none" stroke="midnightblue" d="M2539.57,-70.48C2551.07,-69.09 2562.84,-67.85 2574,-67 3408.16,-3.23 3623.43,-112.96 4456,-31 4458.7,-30.73 4461.45,-30.43 4464.22,-30.09"/>
<polygon fill="midnightblue" stroke="midnightblue" points="2539.03,-67.02 2529.55,-71.74 2539.91,-73.96 2539.03,-67.02"/>
</g>
<!-- Node29 -->
<g id="node29" class="node">
<title>Node29</title>
<g id="a_node29"><a xlink:href="../../d2/df4/show__info__dialog_8cpp.html" target="_top" xlink:title=" ">
<polygon fill="white" stroke="black" points="3470.5,-0.5 3470.5,-30.5 3611.5,-30.5 3611.5,-0.5 3470.5,-0.5"/>
<text text-anchor="start" x="3478.5" y="-18.5" font-family="Helvetica,sans-Serif" font-size="10.00">src/app/seamly2d/dialogs</text>
<text text-anchor="middle" x="3541" y="-7.5" font-family="Helvetica,sans-Serif" font-size="10.00">/show_info_dialog.cpp</text>
</a>
</g>
</g>
<!-- Node14&#45;&gt;Node29 -->
<g id="edge32" class="edge">
<title>Node14&#45;&gt;Node29</title>
<path fill="none" stroke="midnightblue" d="M2539.58,-70.69C2551.08,-69.27 2562.85,-67.97 2574,-67 2967.05,-32.71 3068.83,-74.29 3461,-31 3464.09,-30.66 3467.23,-30.27 3470.41,-29.84"/>
<polygon fill="midnightblue" stroke="midnightblue" points="2539.04,-67.23 2529.57,-71.97 2539.93,-74.17 2539.04,-67.23"/>
</g>
<!-- Node30 -->
<g id="node30" class="node">
<title>Node30</title>
<g id="a_node30"><a xlink:href="../../df/d69/welcome__dialog_8cpp.html" target="_top" xlink:title=" ">
<polygon fill="white" stroke="black" points="3629.5,-0.5 3629.5,-30.5 3770.5,-30.5 3770.5,-0.5 3629.5,-0.5"/>
<text text-anchor="start" x="3637.5" y="-18.5" font-family="Helvetica,sans-Serif" font-size="10.00">src/app/seamly2d/dialogs</text>
<text text-anchor="middle" x="3700" y="-7.5" font-family="Helvetica,sans-Serif" font-size="10.00">/welcome_dialog.cpp</text>
</a>
</g>
</g>
<!-- Node14&#45;&gt;Node30 -->
<g id="edge33" class="edge">
<title>Node14&#45;&gt;Node30</title>
<path fill="none" stroke="midnightblue" d="M2539.58,-70.63C2551.08,-69.22 2562.85,-67.94 2574,-67 3037.53,-28 3157.49,-80.61 3620,-31 3623.09,-30.67 3626.24,-30.29 3629.41,-29.87"/>
<polygon fill="midnightblue" stroke="midnightblue" points="2539.04,-67.17 2529.56,-71.9 2539.92,-74.11 2539.04,-67.17"/>
</g>
<!-- Node31 -->
<g id="node31" class="node">
<title>Node31</title>
<g id="a_node31"><a xlink:href="../../dd/d84/shortcuts__dialog_8cpp.html" target="_top" xlink:title=" ">
<polygon fill="white" stroke="black" points="3788.5,-0.5 3788.5,-30.5 3929.5,-30.5 3929.5,-0.5 3788.5,-0.5"/>
<text text-anchor="start" x="3796.5" y="-18.5" font-family="Helvetica,sans-Serif" font-size="10.00">src/app/seamly2d/dialogs</text>
<text text-anchor="middle" x="3859" y="-7.5" font-family="Helvetica,sans-Serif" font-size="10.00">/shortcuts_dialog.cpp</text>
</a>
</g>
</g>
<!-- Node14&#45;&gt;Node31 -->
<g id="edge34" class="edge">
<title>Node14&#45;&gt;Node31</title>
<path fill="none" stroke="midnightblue" d="M2539.57,-70.59C2551.08,-69.18 2562.84,-67.91 2574,-67 3108.01,-23.29 3246.13,-86.93 3779,-31 3782.09,-30.68 3785.24,-30.3 3788.41,-29.88"/>
<polygon fill="midnightblue" stroke="midnightblue" points="2539.04,-67.12 2529.56,-71.85 2539.92,-74.07 2539.04,-67.12"/>
</g>
<!-- Node32 -->
<g id="node32" class="node">
<title>Node32</title>
<g id="a_node32"><a xlink:href="../../d3/d49/vpattern_8cpp.html" target="_top" xlink:title=" ">
<polygon fill="white" stroke="black" points="3947.5,-0.5 3947.5,-30.5 4072.5,-30.5 4072.5,-0.5 3947.5,-0.5"/>
<text text-anchor="start" x="3955.5" y="-18.5" font-family="Helvetica,sans-Serif" font-size="10.00">src/app/seamly2d/xml</text>
<text text-anchor="middle" x="4010" y="-7.5" font-family="Helvetica,sans-Serif" font-size="10.00">/vpattern.cpp</text>
</a>
</g>
</g>
<!-- Node14&#45;&gt;Node32 -->
<g id="edge38" class="edge">
<title>Node14&#45;&gt;Node32</title>
<path fill="none" stroke="midnightblue" d="M2539.57,-70.55C2551.07,-69.15 2562.84,-67.89 2574,-67 3178.5,-18.58 3335.4,-99.12 3938,-31 3941.04,-30.66 3944.14,-30.25 3947.27,-29.79"/>
<polygon fill="midnightblue" stroke="midnightblue" points="2539.04,-67.09 2529.55,-71.81 2539.91,-74.04 2539.04,-67.09"/>
</g>
<!-- Node33 -->
<g id="node33" class="node">
<title>Node33</title>
<g id="a_node33"><a xlink:href="../../d9/da3/image__tool_8cpp.html" target="_top" xlink:title=" ">
<polygon fill="white" stroke="black" points="4090.5,-0.5 4090.5,-30.5 4207.5,-30.5 4207.5,-0.5 4090.5,-0.5"/>
<text text-anchor="start" x="4098.5" y="-18.5" font-family="Helvetica,sans-Serif" font-size="10.00">src/libs/tools/images</text>
<text text-anchor="middle" x="4149" y="-7.5" font-family="Helvetica,sans-Serif" font-size="10.00">/image_tool.cpp</text>
</a>
</g>
</g>
<!-- Node14&#45;&gt;Node33 -->
<g id="edge39" class="edge">
<title>Node14&#45;&gt;Node33</title>
<path fill="none" stroke="midnightblue" d="M2539.57,-70.53C2551.07,-69.13 2562.84,-67.88 2574,-67 3241.9,-14.35 3415.61,-109.2 4081,-31 4084,-30.65 4087.06,-30.23 4090.14,-29.75"/>
<polygon fill="midnightblue" stroke="midnightblue" points="2539.04,-67.07 2529.55,-71.79 2539.91,-74.01 2539.04,-67.07"/>
</g>
</g>
</svg>
