<?xml version="1.0" encoding="UTF-8" standalone="no"?>
<!DOCTYPE svg PUBLIC "-//W3C//DTD SVG 1.1//EN"
 "http://www.w3.org/Graphics/SVG/1.1/DTD/svg11.dtd">
<!-- Generated by graphviz version 2.43.0 (0)
 -->
<!-- Title: VisToolCutSpline Pages: 1 -->
<svg width="522pt" height="1262pt"
 viewBox="0.00 0.00 522.00 1262.00" xmlns="http://www.w3.org/2000/svg" xmlns:xlink="http://www.w3.org/1999/xlink">
<g id="graph0" class="graph" transform="scale(1 1) rotate(0) translate(4 1258)">
<title>VisToolCutSpline</title>
<polygon fill="white" stroke="transparent" points="-4,4 -4,-1258 518,-1258 518,4 -4,4"/>
<!-- Node1 -->
<g id="node1" class="node">
<title>Node1</title>
<g id="a_node1"><a xlink:title=" ">
<polygon fill="#bfbfbf" stroke="black" points="264.5,-0.5 264.5,-123.5 389.5,-123.5 389.5,-0.5 264.5,-0.5"/>
<text text-anchor="middle" x="327" y="-111.5" font-family="Helvetica,sans-Serif" font-size="10.00">VisToolCutSpline</text>
<polyline fill="none" stroke="black" points="264.5,-104.5 389.5,-104.5 "/>
<text text-anchor="start" x="272.5" y="-92.5" font-family="Helvetica,sans-Serif" font-size="10.00"># m_length</text>
<text text-anchor="start" x="272.5" y="-81.5" font-family="Helvetica,sans-Serif" font-size="10.00"># m_direction</text>
<polyline fill="none" stroke="black" points="264.5,-74.5 389.5,-74.5 "/>
<text text-anchor="start" x="272.5" y="-62.5" font-family="Helvetica,sans-Serif" font-size="10.00">+ VisToolCutSpline()</text>
<text text-anchor="start" x="272.5" y="-51.5" font-family="Helvetica,sans-Serif" font-size="10.00">+ ~VisToolCutSpline()</text>
<text text-anchor="start" x="272.5" y="-40.5" font-family="Helvetica,sans-Serif" font-size="10.00">+ RefreshGeometry()</text>
<text text-anchor="start" x="272.5" y="-29.5" font-family="Helvetica,sans-Serif" font-size="10.00">+ setDirection()</text>
<text text-anchor="start" x="272.5" y="-18.5" font-family="Helvetica,sans-Serif" font-size="10.00">+ setLength()</text>
<text text-anchor="start" x="272.5" y="-7.5" font-family="Helvetica,sans-Serif" font-size="10.00">+ type()</text>
</a>
</g>
</g>
<!-- Node2 -->
<g id="node2" class="node">
<title>Node2</title>
<g id="a_node2"><a xlink:href="../../db/d76/classVisPath.html" target="_top" xlink:title=" ">
<polygon fill="white" stroke="black" points="193.5,-171.5 193.5,-283.5 290.5,-283.5 290.5,-171.5 193.5,-171.5"/>
<text text-anchor="middle" x="242" y="-271.5" font-family="Helvetica,sans-Serif" font-size="10.00">VisPath</text>
<polyline fill="none" stroke="black" points="193.5,-264.5 290.5,-264.5 "/>
<text text-anchor="middle" x="242" y="-252.5" font-family="Helvetica,sans-Serif" font-size="10.00"> </text>
<polyline fill="none" stroke="black" points="193.5,-245.5 290.5,-245.5 "/>
<text text-anchor="start" x="201.5" y="-233.5" font-family="Helvetica,sans-Serif" font-size="10.00">+ VisPath()</text>
<text text-anchor="start" x="201.5" y="-222.5" font-family="Helvetica,sans-Serif" font-size="10.00">+ ~VisPath()</text>
<text text-anchor="start" x="201.5" y="-211.5" font-family="Helvetica,sans-Serif" font-size="10.00">+ type()</text>
<text text-anchor="start" x="201.5" y="-200.5" font-family="Helvetica,sans-Serif" font-size="10.00"># initPen()</text>
<text text-anchor="start" x="201.5" y="-189.5" font-family="Helvetica,sans-Serif" font-size="10.00"># AddOnScene()</text>
<text text-anchor="start" x="201.5" y="-178.5" font-family="Helvetica,sans-Serif" font-size="10.00"># GetPoint()</text>
</a>
</g>
</g>
<!-- Node2&#45;&gt;Node1 -->
<g id="edge1" class="edge">
<title>Node2&#45;&gt;Node1</title>
<path fill="none" stroke="midnightblue" d="M275.51,-162.05C282.09,-149.39 288.97,-136.15 295.48,-123.63"/>
<polygon fill="none" stroke="midnightblue" points="272.28,-160.66 270.78,-171.15 278.5,-163.89 272.28,-160.66"/>
</g>
<!-- Node3 -->
<g id="node3" class="node">
<title>Node3</title>
<g id="a_node3"><a xlink:href="../../d7/d24/classVisualization.html" target="_top" xlink:title=" ">
<polygon fill="white" stroke="black" points="97,-321.5 97,-774.5 219,-774.5 219,-321.5 97,-321.5"/>
<text text-anchor="middle" x="158" y="-762.5" font-family="Helvetica,sans-Serif" font-size="10.00">Visualization</text>
<polyline fill="none" stroke="black" points="97,-755.5 219,-755.5 "/>
<text text-anchor="start" x="105" y="-743.5" font-family="Helvetica,sans-Serif" font-size="10.00"># scenePos</text>
<text text-anchor="start" x="105" y="-732.5" font-family="Helvetica,sans-Serif" font-size="10.00"># mainColor</text>
<text text-anchor="start" x="105" y="-721.5" font-family="Helvetica,sans-Serif" font-size="10.00"># supportColor</text>
<text text-anchor="start" x="105" y="-710.5" font-family="Helvetica,sans-Serif" font-size="10.00"># lineStyle</text>
<text text-anchor="start" x="105" y="-699.5" font-family="Helvetica,sans-Serif" font-size="10.00"># lineWeight</text>
<text text-anchor="start" x="105" y="-688.5" font-family="Helvetica,sans-Serif" font-size="10.00"># object1Id</text>
<text text-anchor="start" x="105" y="-677.5" font-family="Helvetica,sans-Serif" font-size="10.00"># toolTip</text>
<text text-anchor="start" x="105" y="-666.5" font-family="Helvetica,sans-Serif" font-size="10.00"># mode</text>
<polyline fill="none" stroke="black" points="97,-659.5 219,-659.5 "/>
<text text-anchor="start" x="105" y="-647.5" font-family="Helvetica,sans-Serif" font-size="10.00">+ Visualization()</text>
<text text-anchor="start" x="105" y="-636.5" font-family="Helvetica,sans-Serif" font-size="10.00">+ ~Visualization()</text>
<text text-anchor="start" x="105" y="-625.5" font-family="Helvetica,sans-Serif" font-size="10.00">+ RefreshGeometry()</text>
<text text-anchor="start" x="105" y="-614.5" font-family="Helvetica,sans-Serif" font-size="10.00">+ setObject1Id()</text>
<text text-anchor="start" x="105" y="-603.5" font-family="Helvetica,sans-Serif" font-size="10.00">+ setLineStyle()</text>
<text text-anchor="start" x="105" y="-592.5" font-family="Helvetica,sans-Serif" font-size="10.00">+ setLineWeight()</text>
<text text-anchor="start" x="105" y="-581.5" font-family="Helvetica,sans-Serif" font-size="10.00">+ setScenePos()</text>
<text text-anchor="start" x="105" y="-570.5" font-family="Helvetica,sans-Serif" font-size="10.00">+ VisualMode()</text>
<text text-anchor="start" x="105" y="-559.5" font-family="Helvetica,sans-Serif" font-size="10.00">+ setMainColor()</text>
<text text-anchor="start" x="105" y="-548.5" font-family="Helvetica,sans-Serif" font-size="10.00">+ getData()</text>
<text text-anchor="start" x="105" y="-537.5" font-family="Helvetica,sans-Serif" font-size="10.00">+ setData()</text>
<text text-anchor="start" x="105" y="-526.5" font-family="Helvetica,sans-Serif" font-size="10.00">+ GetMode()</text>
<text text-anchor="start" x="105" y="-515.5" font-family="Helvetica,sans-Serif" font-size="10.00">+ SetMode()</text>
<text text-anchor="start" x="105" y="-504.5" font-family="Helvetica,sans-Serif" font-size="10.00">+ CurrentToolTip()</text>
<text text-anchor="start" x="105" y="-493.5" font-family="Helvetica,sans-Serif" font-size="10.00">+ FindLength()</text>
<text text-anchor="start" x="105" y="-482.5" font-family="Helvetica,sans-Serif" font-size="10.00">+ FindVal()</text>
<text text-anchor="start" x="105" y="-471.5" font-family="Helvetica,sans-Serif" font-size="10.00">+ mousePos()</text>
<text text-anchor="start" x="105" y="-460.5" font-family="Helvetica,sans-Serif" font-size="10.00"># initPen()</text>
<text text-anchor="start" x="105" y="-449.5" font-family="Helvetica,sans-Serif" font-size="10.00"># AddOnScene()</text>
<text text-anchor="start" x="105" y="-438.5" font-family="Helvetica,sans-Serif" font-size="10.00"># InitPoint()</text>
<text text-anchor="start" x="105" y="-427.5" font-family="Helvetica,sans-Serif" font-size="10.00"># DrawPoint()</text>
<text text-anchor="start" x="105" y="-416.5" font-family="Helvetica,sans-Serif" font-size="10.00"># DrawLine()</text>
<text text-anchor="start" x="105" y="-405.5" font-family="Helvetica,sans-Serif" font-size="10.00"># DrawPath()</text>
<text text-anchor="start" x="105" y="-394.5" font-family="Helvetica,sans-Serif" font-size="10.00"># DrawPath()</text>
<text text-anchor="start" x="105" y="-383.5" font-family="Helvetica,sans-Serif" font-size="10.00"># drawArrowedLine()</text>
<text text-anchor="start" x="105" y="-372.5" font-family="Helvetica,sans-Serif" font-size="10.00"># drawArrow()</text>
<text text-anchor="start" x="105" y="-361.5" font-family="Helvetica,sans-Serif" font-size="10.00"># addItem()</text>
<text text-anchor="start" x="105" y="-350.5" font-family="Helvetica,sans-Serif" font-size="10.00"># InitItem()</text>
<text text-anchor="start" x="105" y="-339.5" font-family="Helvetica,sans-Serif" font-size="10.00"># GetPointItem()</text>
<text text-anchor="start" x="105" y="-328.5" font-family="Helvetica,sans-Serif" font-size="10.00">&#45; initPointItem()</text>
</a>
</g>
</g>
<!-- Node3&#45;&gt;Node2 -->
<g id="edge2" class="edge">
<title>Node3&#45;&gt;Node2</title>
<path fill="none" stroke="midnightblue" d="M220.04,-311.76C222.68,-301.77 225.17,-292.31 227.47,-283.59"/>
<polygon fill="none" stroke="midnightblue" points="216.64,-310.92 217.48,-321.48 223.41,-312.7 216.64,-310.92"/>
</g>
<!-- Node4 -->
<g id="node4" class="node">
<title>Node4</title>
<g id="a_node4"><a xlink:title=" ">
<polygon fill="white" stroke="#bfbfbf" points="0,-1009.5 0,-1066.5 56,-1066.5 56,-1009.5 0,-1009.5"/>
<text text-anchor="middle" x="28" y="-1054.5" font-family="Helvetica,sans-Serif" font-size="10.00">QObject</text>
<polyline fill="none" stroke="#bfbfbf" points="0,-1047.5 56,-1047.5 "/>
<text text-anchor="middle" x="28" y="-1035.5" font-family="Helvetica,sans-Serif" font-size="10.00"> </text>
<polyline fill="none" stroke="#bfbfbf" points="0,-1028.5 56,-1028.5 "/>
<text text-anchor="middle" x="28" y="-1016.5" font-family="Helvetica,sans-Serif" font-size="10.00"> </text>
</a>
</g>
</g>
<!-- Node4&#45;&gt;Node3 -->
<g id="edge3" class="edge">
<title>Node4&#45;&gt;Node3</title>
<path fill="none" stroke="midnightblue" d="M32.67,-999.14C38.43,-955.9 49.41,-883.2 65,-822 73.96,-786.82 85.3,-749.67 96.96,-714.49"/>
<polygon fill="none" stroke="midnightblue" points="29.18,-998.85 31.35,-1009.22 36.12,-999.75 29.18,-998.85"/>
</g>
<!-- Node5 -->
<g id="node5" class="node">
<title>Node5</title>
<g id="a_node5"><a xlink:href="../../d2/d83/classVContainer.html" target="_top" xlink:title="Manages a collection of geometric objects, pieces, paths, and variables.">
<polygon fill="white" stroke="black" points="74,-822.5 74,-1253.5 242,-1253.5 242,-822.5 74,-822.5"/>
<text text-anchor="middle" x="158" y="-1241.5" font-family="Helvetica,sans-Serif" font-size="10.00">VContainer</text>
<polyline fill="none" stroke="black" points="74,-1234.5 242,-1234.5 "/>
<text text-anchor="start" x="82" y="-1222.5" font-family="Helvetica,sans-Serif" font-size="10.00">&#45; d</text>
<text text-anchor="start" x="82" y="-1211.5" font-family="Helvetica,sans-Serif" font-size="10.00">&#45; _id</text>
<text text-anchor="start" x="82" y="-1200.5" font-family="Helvetica,sans-Serif" font-size="10.00">&#45; _size</text>
<text text-anchor="start" x="82" y="-1189.5" font-family="Helvetica,sans-Serif" font-size="10.00">&#45; _height</text>
<text text-anchor="start" x="82" y="-1178.5" font-family="Helvetica,sans-Serif" font-size="10.00">&#45; uniqueNames</text>
<polyline fill="none" stroke="black" points="74,-1171.5 242,-1171.5 "/>
<text text-anchor="start" x="82" y="-1159.5" font-family="Helvetica,sans-Serif" font-size="10.00">+ VContainer()</text>
<text text-anchor="start" x="82" y="-1148.5" font-family="Helvetica,sans-Serif" font-size="10.00">+ VContainer()</text>
<text text-anchor="start" x="82" y="-1137.5" font-family="Helvetica,sans-Serif" font-size="10.00">+ ~VContainer()</text>
<text text-anchor="start" x="82" y="-1126.5" font-family="Helvetica,sans-Serif" font-size="10.00">+ operator=()</text>
<text text-anchor="start" x="82" y="-1115.5" font-family="Helvetica,sans-Serif" font-size="10.00">+ Swap()</text>
<text text-anchor="start" x="82" y="-1104.5" font-family="Helvetica,sans-Serif" font-size="10.00">+ GeometricObject()</text>
<text text-anchor="start" x="82" y="-1093.5" font-family="Helvetica,sans-Serif" font-size="10.00">+ GetGObject()</text>
<text text-anchor="start" x="82" y="-1082.5" font-family="Helvetica,sans-Serif" font-size="10.00">+ GetPiece()</text>
<text text-anchor="start" x="82" y="-1071.5" font-family="Helvetica,sans-Serif" font-size="10.00">+ GetPiecePath()</text>
<text text-anchor="start" x="82" y="-1060.5" font-family="Helvetica,sans-Serif" font-size="10.00">+ getVariable()</text>
<text text-anchor="start" x="82" y="-1049.5" font-family="Helvetica,sans-Serif" font-size="10.00">and 34 more...</text>
<text text-anchor="start" x="82" y="-1038.5" font-family="Helvetica,sans-Serif" font-size="10.00">+ GetFakeGObject()</text>
<text text-anchor="start" x="82" y="-1027.5" font-family="Helvetica,sans-Serif" font-size="10.00">+ getId()</text>
<text text-anchor="start" x="82" y="-1016.5" font-family="Helvetica,sans-Serif" font-size="10.00">+ getNextId()</text>
<text text-anchor="start" x="82" y="-1005.5" font-family="Helvetica,sans-Serif" font-size="10.00">+ UpdateId()</text>
<text text-anchor="start" x="82" y="-994.5" font-family="Helvetica,sans-Serif" font-size="10.00">+ ClearUniqueNames()</text>
<text text-anchor="start" x="82" y="-983.5" font-family="Helvetica,sans-Serif" font-size="10.00">+ clearUniqueVariableNames()</text>
<text text-anchor="start" x="82" y="-972.5" font-family="Helvetica,sans-Serif" font-size="10.00">+ setSize()</text>
<text text-anchor="start" x="82" y="-961.5" font-family="Helvetica,sans-Serif" font-size="10.00">+ setHeight()</text>
<text text-anchor="start" x="82" y="-950.5" font-family="Helvetica,sans-Serif" font-size="10.00">+ size()</text>
<text text-anchor="start" x="82" y="-939.5" font-family="Helvetica,sans-Serif" font-size="10.00">+ rsize()</text>
<text text-anchor="start" x="82" y="-928.5" font-family="Helvetica,sans-Serif" font-size="10.00">+ height()</text>
<text text-anchor="start" x="82" y="-917.5" font-family="Helvetica,sans-Serif" font-size="10.00">+ rheight()</text>
<text text-anchor="start" x="82" y="-906.5" font-family="Helvetica,sans-Serif" font-size="10.00">+ IsUnique()</text>
<text text-anchor="start" x="82" y="-895.5" font-family="Helvetica,sans-Serif" font-size="10.00">+ AllUniqueNames()</text>
<text text-anchor="start" x="82" y="-884.5" font-family="Helvetica,sans-Serif" font-size="10.00">&#45; AddCurve()</text>
<text text-anchor="start" x="82" y="-873.5" font-family="Helvetica,sans-Serif" font-size="10.00">&#45; qHash()</text>
<text text-anchor="start" x="82" y="-862.5" font-family="Helvetica,sans-Serif" font-size="10.00">&#45; GetObject()</text>
<text text-anchor="start" x="82" y="-851.5" font-family="Helvetica,sans-Serif" font-size="10.00">&#45; UpdateObject()</text>
<text text-anchor="start" x="82" y="-840.5" font-family="Helvetica,sans-Serif" font-size="10.00">&#45; DataVar()</text>
<text text-anchor="start" x="82" y="-829.5" font-family="Helvetica,sans-Serif" font-size="10.00">&#45; AddObject()</text>
</a>
</g>
</g>
<!-- Node5&#45;&gt;Node3 -->
<g id="edge4" class="edge">
<title>Node5&#45;&gt;Node3</title>
<path fill="none" stroke="#404040" d="M158,-822.25C158,-810.57 158,-798.81 158,-787.07"/>
<polygon fill="none" stroke="#404040" points="158,-786.84 154,-780.84 158,-774.84 162,-780.84 158,-786.84"/>
<text text-anchor="middle" x="175" y="-796" font-family="Helvetica,sans-Serif" font-size="10.00"> #data</text>
</g>
<!-- Node6 -->
<g id="node6" class="node">
<title>Node6</title>
<g id="a_node6"><a xlink:href="../../d3/d85/classVCurvePathItem.html" target="_top" xlink:title=" ">
<polygon fill="white" stroke="black" points="244.5,-475.5 244.5,-620.5 373.5,-620.5 373.5,-475.5 244.5,-475.5"/>
<text text-anchor="middle" x="309" y="-608.5" font-family="Helvetica,sans-Serif" font-size="10.00">VCurvePathItem</text>
<polyline fill="none" stroke="black" points="244.5,-601.5 373.5,-601.5 "/>
<text text-anchor="start" x="252.5" y="-589.5" font-family="Helvetica,sans-Serif" font-size="10.00">&#45; m_directionArrows</text>
<text text-anchor="start" x="252.5" y="-578.5" font-family="Helvetica,sans-Serif" font-size="10.00">&#45; m_points</text>
<polyline fill="none" stroke="black" points="244.5,-571.5 373.5,-571.5 "/>
<text text-anchor="start" x="252.5" y="-559.5" font-family="Helvetica,sans-Serif" font-size="10.00">+ VCurvePathItem()</text>
<text text-anchor="start" x="252.5" y="-548.5" font-family="Helvetica,sans-Serif" font-size="10.00">+ ~VCurvePathItem()</text>
<text text-anchor="start" x="252.5" y="-537.5" font-family="Helvetica,sans-Serif" font-size="10.00">+ shape()</text>
<text text-anchor="start" x="252.5" y="-526.5" font-family="Helvetica,sans-Serif" font-size="10.00">+ paint()</text>
<text text-anchor="start" x="252.5" y="-515.5" font-family="Helvetica,sans-Serif" font-size="10.00">+ type()</text>
<text text-anchor="start" x="252.5" y="-504.5" font-family="Helvetica,sans-Serif" font-size="10.00">+ SetDirectionArrows()</text>
<text text-anchor="start" x="252.5" y="-493.5" font-family="Helvetica,sans-Serif" font-size="10.00">+ SetPoints()</text>
<text text-anchor="start" x="252.5" y="-482.5" font-family="Helvetica,sans-Serif" font-size="10.00"># ScalePenWidth()</text>
</a>
</g>
</g>
<!-- Node6&#45;&gt;Node1 -->
<g id="edge7" class="edge">
<title>Node6&#45;&gt;Node1</title>
<path fill="none" stroke="#404040" d="M311.67,-475.32C315.06,-384.13 320.88,-227.47 324.29,-135.76"/>
<polygon fill="none" stroke="#404040" points="324.3,-135.53 320.53,-129.38 324.75,-123.54 328.52,-129.68 324.3,-135.53"/>
<text text-anchor="middle" x="339" y="-230.5" font-family="Helvetica,sans-Serif" font-size="10.00"> #spl1</text>
<text text-anchor="middle" x="339" y="-219.5" font-family="Helvetica,sans-Serif" font-size="10.00">#spl2</text>
</g>
<!-- Node6&#45;&gt;Node2 -->
<g id="edge5" class="edge">
<title>Node6&#45;&gt;Node2</title>
<path fill="none" stroke="midnightblue" d="M291.76,-465.05C279.76,-408.02 264.1,-333.53 253.57,-283.51"/>
<polygon fill="none" stroke="midnightblue" points="288.4,-466.06 293.88,-475.13 295.25,-464.62 288.4,-466.06"/>
</g>
<!-- Node7 -->
<g id="node7" class="node">
<title>Node7</title>
<g id="a_node7"><a xlink:title=" ">
<polygon fill="white" stroke="#bfbfbf" points="260,-1009.5 260,-1066.5 370,-1066.5 370,-1009.5 260,-1009.5"/>
<text text-anchor="middle" x="315" y="-1054.5" font-family="Helvetica,sans-Serif" font-size="10.00">QGraphicsPathItem</text>
<polyline fill="none" stroke="#bfbfbf" points="260,-1047.5 370,-1047.5 "/>
<text text-anchor="middle" x="315" y="-1035.5" font-family="Helvetica,sans-Serif" font-size="10.00"> </text>
<polyline fill="none" stroke="#bfbfbf" points="260,-1028.5 370,-1028.5 "/>
<text text-anchor="middle" x="315" y="-1016.5" font-family="Helvetica,sans-Serif" font-size="10.00"> </text>
</a>
</g>
</g>
<!-- Node7&#45;&gt;Node6 -->
<g id="edge6" class="edge">
<title>Node7&#45;&gt;Node6</title>
<path fill="none" stroke="midnightblue" d="M314.53,-999.11C313.53,-917.83 311.17,-725.64 309.88,-620.6"/>
<polygon fill="none" stroke="midnightblue" points="311.04,-999.41 314.66,-1009.36 318.04,-999.32 311.04,-999.41"/>
</g>
<!-- Node8 -->
<g id="node8" class="node">
<title>Node8</title>
<g id="a_node8"><a xlink:href="../../d8/dbf/classVScaledEllipse.html" target="_top" xlink:title=" ">
<polygon fill="white" stroke="black" points="386.5,-182.5 386.5,-272.5 501.5,-272.5 501.5,-182.5 386.5,-182.5"/>
<text text-anchor="middle" x="444" y="-260.5" font-family="Helvetica,sans-Serif" font-size="10.00">VScaledEllipse</text>
<polyline fill="none" stroke="black" points="386.5,-253.5 501.5,-253.5 "/>
<text text-anchor="middle" x="444" y="-241.5" font-family="Helvetica,sans-Serif" font-size="10.00"> </text>
<polyline fill="none" stroke="black" points="386.5,-234.5 501.5,-234.5 "/>
<text text-anchor="start" x="394.5" y="-222.5" font-family="Helvetica,sans-Serif" font-size="10.00">+ VScaledEllipse()</text>
<text text-anchor="start" x="394.5" y="-211.5" font-family="Helvetica,sans-Serif" font-size="10.00">+ ~VScaledEllipse()</text>
<text text-anchor="start" x="394.5" y="-200.5" font-family="Helvetica,sans-Serif" font-size="10.00">+ type()</text>
<text text-anchor="start" x="394.5" y="-189.5" font-family="Helvetica,sans-Serif" font-size="10.00">+ paint()</text>
</a>
</g>
</g>
<!-- Node8&#45;&gt;Node1 -->
<g id="edge8" class="edge">
<title>Node8&#45;&gt;Node1</title>
<path fill="none" stroke="#404040" d="M412.34,-182.25C401.63,-167.3 389.4,-150.2 377.6,-133.71"/>
<polygon fill="none" stroke="#404040" points="377.31,-133.31 370.57,-130.76 370.33,-123.55 377.07,-126.1 377.31,-133.31"/>
<text text-anchor="middle" x="408.5" y="-145" font-family="Helvetica,sans-Serif" font-size="10.00"> #point</text>
</g>
<!-- Node9 -->
<g id="node9" class="node">
<title>Node9</title>
<g id="a_node9"><a xlink:title=" ">
<polygon fill="white" stroke="#bfbfbf" points="392,-519.5 392,-576.5 514,-576.5 514,-519.5 392,-519.5"/>
<text text-anchor="middle" x="453" y="-564.5" font-family="Helvetica,sans-Serif" font-size="10.00">QGraphicsEllipseItem</text>
<polyline fill="none" stroke="#bfbfbf" points="392,-557.5 514,-557.5 "/>
<text text-anchor="middle" x="453" y="-545.5" font-family="Helvetica,sans-Serif" font-size="10.00"> </text>
<polyline fill="none" stroke="#bfbfbf" points="392,-538.5 514,-538.5 "/>
<text text-anchor="middle" x="453" y="-526.5" font-family="Helvetica,sans-Serif" font-size="10.00"> </text>
</a>
</g>
</g>
<!-- Node9&#45;&gt;Node8 -->
<g id="edge9" class="edge">
<title>Node9&#45;&gt;Node8</title>
<path fill="none" stroke="midnightblue" d="M451.93,-509.25C450.26,-450.05 447.03,-335.67 445.25,-272.71"/>
<polygon fill="none" stroke="midnightblue" points="448.44,-509.4 452.22,-519.29 455.43,-509.2 448.44,-509.4"/>
</g>
</g>
</svg>
