<?xml version="1.0" encoding="UTF-8" standalone="no"?>
<!DOCTYPE svg PUBLIC "-//W3C//DTD SVG 1.1//EN"
 "http://www.w3.org/Graphics/SVG/1.1/DTD/svg11.dtd">
<!-- Generated by graphviz version 2.43.0 (0)
 -->
<!-- Title: src/libs/vwidgets/export_format_combobox.h Pages: 1 -->
<svg width="2874pt" height="285pt"
 viewBox="0.00 0.00 2874.00 285.00" xmlns="http://www.w3.org/2000/svg" xmlns:xlink="http://www.w3.org/1999/xlink">
<g id="graph0" class="graph" transform="scale(1 1) rotate(0) translate(4 281)">
<title>src/libs/vwidgets/export_format_combobox.h</title>
<polygon fill="white" stroke="transparent" points="-4,4 -4,-281 2870,-281 2870,4 -4,4"/>
<!-- Node1 -->
<g id="node1" class="node">
<title>Node1</title>
<g id="a_node1"><a xlink:title=" ">
<polygon fill="#bfbfbf" stroke="black" points="544,-246.5 544,-276.5 677,-276.5 677,-246.5 544,-246.5"/>
<text text-anchor="start" x="552" y="-264.5" font-family="Helvetica,sans-Serif" font-size="10.00">src/libs/vwidgets/export</text>
<text text-anchor="middle" x="610.5" y="-253.5" font-family="Helvetica,sans-Serif" font-size="10.00">_format_combobox.h</text>
</a>
</g>
</g>
<!-- Node2 -->
<g id="node2" class="node">
<title>Node2</title>
<g id="a_node2"><a xlink:title=" ">
<polygon fill="white" stroke="#bfbfbf" points="457,-190.5 457,-209.5 534,-209.5 534,-190.5 457,-190.5"/>
<text text-anchor="middle" x="495.5" y="-197.5" font-family="Helvetica,sans-Serif" font-size="10.00">QComboBox</text>
</a>
</g>
</g>
<!-- Node1&#45;&gt;Node2 -->
<g id="edge1" class="edge">
<title>Node1&#45;&gt;Node2</title>
<path fill="none" stroke="midnightblue" d="M583.25,-246.4C564.47,-236.68 539.67,-223.86 521.23,-214.31"/>
<polygon fill="midnightblue" stroke="midnightblue" points="522.72,-211.14 512.23,-209.66 519.51,-217.36 522.72,-211.14"/>
</g>
<!-- Node3 -->
<g id="node3" class="node">
<title>Node3</title>
<g id="a_node3"><a xlink:title=" ">
<polygon fill="white" stroke="#bfbfbf" points="552,-190.5 552,-209.5 611,-209.5 611,-190.5 552,-190.5"/>
<text text-anchor="middle" x="581.5" y="-197.5" font-family="Helvetica,sans-Serif" font-size="10.00">QWidget</text>
</a>
</g>
</g>
<!-- Node1&#45;&gt;Node3 -->
<g id="edge2" class="edge">
<title>Node1&#45;&gt;Node3</title>
<path fill="none" stroke="midnightblue" d="M603.63,-246.4C599.59,-238.11 594.44,-227.55 590.13,-218.71"/>
<polygon fill="midnightblue" stroke="midnightblue" points="593.25,-217.11 585.72,-209.66 586.95,-220.18 593.25,-217.11"/>
</g>
<!-- Node4 -->
<g id="node4" class="node">
<title>Node4</title>
<g id="a_node4"><a xlink:href="../../d4/da4/def_8h.html" target="_top" xlink:title=" ">
<polygon fill="white" stroke="black" points="413.5,-129 413.5,-148 495.5,-148 495.5,-129 413.5,-129"/>
<text text-anchor="middle" x="454.5" y="-136" font-family="Helvetica,sans-Serif" font-size="10.00">../vmisc/def.h</text>
</a>
</g>
</g>
<!-- Node1&#45;&gt;Node4 -->
<g id="edge3" class="edge">
<title>Node1&#45;&gt;Node4</title>
<path fill="none" stroke="midnightblue" d="M618,-246.32C624.98,-230.94 632.64,-206.39 620.5,-190 594.32,-154.67 544.03,-143.21 505.64,-139.89"/>
<polygon fill="midnightblue" stroke="midnightblue" points="505.88,-136.4 495.65,-139.18 505.38,-143.38 505.88,-136.4"/>
</g>
<!-- Node17 -->
<g id="node17" class="node">
<title>Node17</title>
<g id="a_node17"><a xlink:href="../../d0/d89/vabstractpattern_8h.html" target="_top" xlink:title=" ">
<polygon fill="white" stroke="black" points="916.5,-190.5 916.5,-209.5 1068.5,-209.5 1068.5,-190.5 916.5,-190.5"/>
<text text-anchor="middle" x="992.5" y="-197.5" font-family="Helvetica,sans-Serif" font-size="10.00">../ifc/xml/vabstractpattern.h</text>
</a>
</g>
</g>
<!-- Node1&#45;&gt;Node17 -->
<g id="edge16" class="edge">
<title>Node1&#45;&gt;Node17</title>
<path fill="none" stroke="midnightblue" d="M677.04,-250.14C747.53,-239.16 858.09,-221.94 927.86,-211.07"/>
<polygon fill="midnightblue" stroke="midnightblue" points="928.5,-214.51 937.84,-209.51 927.43,-207.59 928.5,-214.51"/>
</g>
<!-- Node5 -->
<g id="node5" class="node">
<title>Node5</title>
<g id="a_node5"><a xlink:title=" ">
<polygon fill="white" stroke="#bfbfbf" points="618.5,-62 618.5,-81 738.5,-81 738.5,-62 618.5,-62"/>
<text text-anchor="middle" x="678.5" y="-69" font-family="Helvetica,sans-Serif" font-size="10.00">qcompilerdetection.h</text>
</a>
</g>
</g>
<!-- Node4&#45;&gt;Node5 -->
<g id="edge4" class="edge">
<title>Node4&#45;&gt;Node5</title>
<path fill="none" stroke="midnightblue" d="M484.25,-128.87C524.1,-117.3 594.93,-96.75 639.16,-83.91"/>
<polygon fill="midnightblue" stroke="midnightblue" points="640.36,-87.21 648.99,-81.06 638.41,-80.49 640.36,-87.21"/>
</g>
<!-- Node6 -->
<g id="node6" class="node">
<title>Node6</title>
<g id="a_node6"><a xlink:title=" ">
<polygon fill="white" stroke="#bfbfbf" points="249,-62 249,-81 322,-81 322,-62 249,-62"/>
<text text-anchor="middle" x="285.5" y="-69" font-family="Helvetica,sans-Serif" font-size="10.00">QFileDialog</text>
</a>
</g>
</g>
<!-- Node4&#45;&gt;Node6 -->
<g id="edge5" class="edge">
<title>Node4&#45;&gt;Node6</title>
<path fill="none" stroke="midnightblue" d="M432.06,-128.87C402.68,-117.57 351.01,-97.7 317.53,-84.82"/>
<polygon fill="midnightblue" stroke="midnightblue" points="318.36,-81.39 307.77,-81.06 315.84,-87.92 318.36,-81.39"/>
</g>
<!-- Node7 -->
<g id="node7" class="node">
<title>Node7</title>
<g id="a_node7"><a xlink:title=" ">
<polygon fill="white" stroke="#bfbfbf" points="340.5,-62 340.5,-81 390.5,-81 390.5,-62 340.5,-62"/>
<text text-anchor="middle" x="365.5" y="-69" font-family="Helvetica,sans-Serif" font-size="10.00">QLineF</text>
</a>
</g>
</g>
<!-- Node4&#45;&gt;Node7 -->
<g id="edge6" class="edge">
<title>Node4&#45;&gt;Node7</title>
<path fill="none" stroke="midnightblue" d="M442.5,-128.73C427.95,-118.11 403.22,-100.05 385.72,-87.26"/>
<polygon fill="midnightblue" stroke="midnightblue" points="387.45,-84.2 377.31,-81.13 383.32,-89.85 387.45,-84.2"/>
</g>
<!-- Node8 -->
<g id="node8" class="node">
<title>Node8</title>
<g id="a_node8"><a xlink:title=" ">
<polygon fill="white" stroke="#bfbfbf" points="901,-62 901,-81 954,-81 954,-62 901,-62"/>
<text text-anchor="middle" x="927.5" y="-69" font-family="Helvetica,sans-Serif" font-size="10.00">QString</text>
</a>
</g>
</g>
<!-- Node4&#45;&gt;Node8 -->
<g id="edge7" class="edge">
<title>Node4&#45;&gt;Node8</title>
<path fill="none" stroke="midnightblue" d="M495.65,-136.55C574.08,-133.91 749.87,-123.99 892.5,-87 895.01,-86.35 897.57,-85.56 900.11,-84.68"/>
<polygon fill="midnightblue" stroke="midnightblue" points="901.59,-87.86 909.66,-81.01 899.07,-81.33 901.59,-87.86"/>
</g>
<!-- Node9 -->
<g id="node9" class="node">
<title>Node9</title>
<g id="a_node9"><a xlink:title=" ">
<polygon fill="white" stroke="#bfbfbf" points="530.5,-62 530.5,-81 600.5,-81 600.5,-62 530.5,-62"/>
<text text-anchor="middle" x="565.5" y="-69" font-family="Helvetica,sans-Serif" font-size="10.00">QStringList</text>
</a>
</g>
</g>
<!-- Node4&#45;&gt;Node9 -->
<g id="edge8" class="edge">
<title>Node4&#45;&gt;Node9</title>
<path fill="none" stroke="midnightblue" d="M469.47,-128.73C488.11,-117.82 520.16,-99.05 542.07,-86.22"/>
<polygon fill="midnightblue" stroke="midnightblue" points="543.91,-89.2 550.77,-81.13 540.37,-83.16 543.91,-89.2"/>
</g>
<!-- Node10 -->
<g id="node10" class="node">
<title>Node10</title>
<g id="a_node10"><a xlink:title=" ">
<polygon fill="white" stroke="#bfbfbf" points="409,-62 409,-81 438,-81 438,-62 409,-62"/>
<text text-anchor="middle" x="423.5" y="-69" font-family="Helvetica,sans-Serif" font-size="10.00">Qt</text>
</a>
</g>
</g>
<!-- Node4&#45;&gt;Node10 -->
<g id="edge9" class="edge">
<title>Node4&#45;&gt;Node10</title>
<path fill="none" stroke="midnightblue" d="M450.32,-128.73C445.62,-118.89 437.88,-102.66 431.92,-90.16"/>
<polygon fill="midnightblue" stroke="midnightblue" points="435.08,-88.65 427.61,-81.13 428.76,-91.66 435.08,-88.65"/>
</g>
<!-- Node11 -->
<g id="node11" class="node">
<title>Node11</title>
<g id="a_node11"><a xlink:title=" ">
<polygon fill="white" stroke="#bfbfbf" points="757,-62 757,-81 816,-81 816,-62 757,-62"/>
<text text-anchor="middle" x="786.5" y="-69" font-family="Helvetica,sans-Serif" font-size="10.00">QtGlobal</text>
</a>
</g>
</g>
<!-- Node4&#45;&gt;Node11 -->
<g id="edge10" class="edge">
<title>Node4&#45;&gt;Node11</title>
<path fill="none" stroke="midnightblue" d="M495.78,-132.83C552.99,-125.82 659.29,-110.78 747.5,-87 750.31,-86.24 753.2,-85.36 756.08,-84.42"/>
<polygon fill="midnightblue" stroke="midnightblue" points="757.41,-87.67 765.68,-81.05 755.09,-81.06 757.41,-87.67"/>
</g>
<!-- Node12 -->
<g id="node12" class="node">
<title>Node12</title>
<g id="a_node12"><a xlink:title=" ">
<polygon fill="white" stroke="#bfbfbf" points="456.5,-62 456.5,-81 512.5,-81 512.5,-62 456.5,-62"/>
<text text-anchor="middle" x="484.5" y="-69" font-family="Helvetica,sans-Serif" font-size="10.00">QPrinter</text>
</a>
</g>
</g>
<!-- Node4&#45;&gt;Node12 -->
<g id="edge11" class="edge">
<title>Node4&#45;&gt;Node12</title>
<path fill="none" stroke="midnightblue" d="M458.55,-128.73C463.04,-118.99 470.43,-102.98 476.18,-90.53"/>
<polygon fill="midnightblue" stroke="midnightblue" points="479.51,-91.67 480.52,-81.13 473.15,-88.74 479.51,-91.67"/>
</g>
<!-- Node13 -->
<g id="node13" class="node">
<title>Node13</title>
<g id="a_node13"><a xlink:title=" ">
<polygon fill="white" stroke="#bfbfbf" points="0,-62 0,-81 61,-81 61,-62 0,-62"/>
<text text-anchor="middle" x="30.5" y="-69" font-family="Helvetica,sans-Serif" font-size="10.00">QPixmap</text>
</a>
</g>
</g>
<!-- Node4&#45;&gt;Node13 -->
<g id="edge12" class="edge">
<title>Node4&#45;&gt;Node13</title>
<path fill="none" stroke="midnightblue" d="M413.33,-135.03C342.44,-130.12 193.15,-116.92 70.5,-87 67.44,-86.25 64.29,-85.35 61.17,-84.37"/>
<polygon fill="midnightblue" stroke="midnightblue" points="62.01,-80.96 51.41,-81.05 59.75,-87.59 62.01,-80.96"/>
</g>
<!-- Node14 -->
<g id="node14" class="node">
<title>Node14</title>
<g id="a_node14"><a xlink:title=" ">
<polygon fill="white" stroke="#bfbfbf" points="79,-62 79,-81 130,-81 130,-62 79,-62"/>
<text text-anchor="middle" x="104.5" y="-69" font-family="Helvetica,sans-Serif" font-size="10.00">csignal</text>
</a>
</g>
</g>
<!-- Node4&#45;&gt;Node14 -->
<g id="edge13" class="edge">
<title>Node4&#45;&gt;Node14</title>
<path fill="none" stroke="midnightblue" d="M413.31,-133.99C352.51,-128.13 235.56,-114.19 139.5,-87 137.06,-86.31 134.57,-85.5 132.09,-84.62"/>
<polygon fill="midnightblue" stroke="midnightblue" points="133.33,-81.35 122.74,-81 130.8,-87.88 133.33,-81.35"/>
</g>
<!-- Node15 -->
<g id="node15" class="node">
<title>Node15</title>
<g id="a_node15"><a xlink:href="../../d4/d82/debugbreak_8h.html" target="_top" xlink:title=" ">
<polygon fill="white" stroke="black" points="148,-62 148,-81 231,-81 231,-62 148,-62"/>
<text text-anchor="middle" x="189.5" y="-69" font-family="Helvetica,sans-Serif" font-size="10.00">debugbreak.h</text>
</a>
</g>
</g>
<!-- Node4&#45;&gt;Node15 -->
<g id="edge14" class="edge">
<title>Node4&#45;&gt;Node15</title>
<path fill="none" stroke="midnightblue" d="M416.1,-128.99C373.17,-119.35 301.64,-102.9 240.5,-87 236.6,-85.99 232.55,-84.9 228.5,-83.78"/>
<polygon fill="midnightblue" stroke="midnightblue" points="229.14,-80.33 218.57,-81.01 227.26,-87.07 229.14,-80.33"/>
</g>
<!-- Node16 -->
<g id="node16" class="node">
<title>Node16</title>
<g id="a_node16"><a xlink:title=" ">
<polygon fill="white" stroke="#bfbfbf" points="162,-0.5 162,-19.5 217,-19.5 217,-0.5 162,-0.5"/>
<text text-anchor="middle" x="189.5" y="-7.5" font-family="Helvetica,sans-Serif" font-size="10.00">signal.h</text>
</a>
</g>
</g>
<!-- Node15&#45;&gt;Node16 -->
<g id="edge15" class="edge">
<title>Node15&#45;&gt;Node16</title>
<path fill="none" stroke="midnightblue" d="M189.5,-61.98C189.5,-53.58 189.5,-40.48 189.5,-29.66"/>
<polygon fill="midnightblue" stroke="midnightblue" points="193,-29.51 189.5,-19.51 186,-29.51 193,-29.51"/>
</g>
<!-- Node17&#45;&gt;Node5 -->
<g id="edge17" class="edge">
<title>Node17&#45;&gt;Node5</title>
<path fill="none" stroke="midnightblue" d="M916.43,-196C842.03,-191.54 735.53,-180.59 704.5,-154 686.3,-138.4 680.71,-110.07 679.07,-91.27"/>
<polygon fill="midnightblue" stroke="midnightblue" points="682.56,-91.01 678.49,-81.23 675.57,-91.41 682.56,-91.01"/>
</g>
<!-- Node17&#45;&gt;Node8 -->
<g id="edge23" class="edge">
<title>Node17&#45;&gt;Node8</title>
<path fill="none" stroke="midnightblue" d="M1026.3,-190.39C1044.89,-183.74 1066.39,-172.45 1077.5,-154 1084.61,-142.2 1085.64,-134.11 1077.5,-123 1046.09,-80.14 1013.51,-104.94 963.5,-87 961.6,-86.32 959.65,-85.6 957.68,-84.85"/>
<polygon fill="midnightblue" stroke="midnightblue" points="958.54,-81.43 947.96,-81.06 956,-87.95 958.54,-81.43"/>
</g>
<!-- Node17&#45;&gt;Node9 -->
<g id="edge24" class="edge">
<title>Node17&#45;&gt;Node9</title>
<path fill="none" stroke="midnightblue" d="M916.18,-197.93C851.38,-194.73 756.99,-184.54 680.5,-154 641.38,-138.38 602.87,-106.91 581.84,-87.98"/>
<polygon fill="midnightblue" stroke="midnightblue" points="584.16,-85.35 574.43,-81.16 579.42,-90.51 584.16,-85.35"/>
</g>
<!-- Node17&#45;&gt;Node11 -->
<g id="edge26" class="edge">
<title>Node17&#45;&gt;Node11</title>
<path fill="none" stroke="midnightblue" d="M926.17,-190.49C879.49,-183.17 822.44,-171.06 805.5,-154 789.05,-137.44 785.77,-109.56 785.6,-91.1"/>
<polygon fill="midnightblue" stroke="midnightblue" points="789.1,-91.08 785.81,-81.01 782.1,-90.93 789.1,-91.08"/>
</g>
<!-- Node18 -->
<g id="node18" class="node">
<title>Node18</title>
<g id="a_node18"><a xlink:title=" ">
<polygon fill="white" stroke="#bfbfbf" points="834,-62 834,-81 883,-81 883,-62 834,-62"/>
<text text-anchor="middle" x="858.5" y="-69" font-family="Helvetica,sans-Serif" font-size="10.00">QHash</text>
</a>
</g>
</g>
<!-- Node17&#45;&gt;Node18 -->
<g id="edge18" class="edge">
<title>Node17&#45;&gt;Node18</title>
<path fill="none" stroke="midnightblue" d="M987.91,-190.17C979.73,-175.05 961.43,-143.83 939.5,-123 923.63,-107.93 902.57,-94.96 885.91,-85.95"/>
<polygon fill="midnightblue" stroke="midnightblue" points="887.16,-82.65 876.68,-81.11 883.91,-88.85 887.16,-82.65"/>
</g>
<!-- Node19 -->
<g id="node19" class="node">
<title>Node19</title>
<g id="a_node19"><a xlink:title=" ">
<polygon fill="white" stroke="#bfbfbf" points="713,-129 713,-148 758,-148 758,-129 713,-129"/>
<text text-anchor="middle" x="735.5" y="-136" font-family="Helvetica,sans-Serif" font-size="10.00">QMap</text>
</a>
</g>
</g>
<!-- Node17&#45;&gt;Node19 -->
<g id="edge19" class="edge">
<title>Node17&#45;&gt;Node19</title>
<path fill="none" stroke="midnightblue" d="M937.61,-190.47C892.71,-182.85 827.83,-170.37 772.5,-154 770.07,-153.28 767.57,-152.47 765.08,-151.61"/>
<polygon fill="midnightblue" stroke="midnightblue" points="766.23,-148.3 755.64,-148.11 763.8,-154.87 766.23,-148.3"/>
</g>
<!-- Node20 -->
<g id="node20" class="node">
<title>Node20</title>
<g id="a_node20"><a xlink:title=" ">
<polygon fill="white" stroke="#bfbfbf" points="2032.5,-62 2032.5,-81 2112.5,-81 2112.5,-62 2032.5,-62"/>
<text text-anchor="middle" x="2072.5" y="-69" font-family="Helvetica,sans-Serif" font-size="10.00">QMetaObject</text>
</a>
</g>
</g>
<!-- Node17&#45;&gt;Node20 -->
<g id="edge20" class="edge">
<title>Node17&#45;&gt;Node20</title>
<path fill="none" stroke="midnightblue" d="M1068.71,-196.12C1189.04,-191.01 1430.26,-178.53 1633.5,-154 1808.11,-132.93 1852.22,-126.91 2023.5,-87 2027.58,-86.05 2031.83,-84.95 2036.04,-83.8"/>
<polygon fill="midnightblue" stroke="midnightblue" points="2037.04,-87.16 2045.69,-81.05 2035.12,-80.43 2037.04,-87.16"/>
</g>
<!-- Node21 -->
<g id="node21" class="node">
<title>Node21</title>
<g id="a_node21"><a xlink:title=" ">
<polygon fill="white" stroke="#bfbfbf" points="814.5,-129 814.5,-148 870.5,-148 870.5,-129 814.5,-129"/>
<text text-anchor="middle" x="842.5" y="-136" font-family="Helvetica,sans-Serif" font-size="10.00">QObject</text>
</a>
</g>
</g>
<!-- Node17&#45;&gt;Node21 -->
<g id="edge21" class="edge">
<title>Node17&#45;&gt;Node21</title>
<path fill="none" stroke="midnightblue" d="M971.01,-190.48C945.39,-180.31 902.39,-163.26 873.26,-151.7"/>
<polygon fill="midnightblue" stroke="midnightblue" points="874.54,-148.44 863.95,-148.01 871.96,-154.95 874.54,-148.44"/>
</g>
<!-- Node22 -->
<g id="node22" class="node">
<title>Node22</title>
<g id="a_node22"><a xlink:title=" ">
<polygon fill="white" stroke="#bfbfbf" points="888.5,-129 888.5,-148 930.5,-148 930.5,-129 888.5,-129"/>
<text text-anchor="middle" x="909.5" y="-136" font-family="Helvetica,sans-Serif" font-size="10.00">QPair</text>
</a>
</g>
</g>
<!-- Node17&#45;&gt;Node22 -->
<g id="edge22" class="edge">
<title>Node17&#45;&gt;Node22</title>
<path fill="none" stroke="midnightblue" d="M980.61,-190.48C967.3,-180.93 945.5,-165.31 929.54,-153.87"/>
<polygon fill="midnightblue" stroke="midnightblue" points="931.54,-150.99 921.37,-148.01 927.46,-156.68 931.54,-150.99"/>
</g>
<!-- Node23 -->
<g id="node23" class="node">
<title>Node23</title>
<g id="a_node23"><a xlink:title=" ">
<polygon fill="white" stroke="#bfbfbf" points="2131,-62 2131,-81 2186,-81 2186,-62 2131,-62"/>
<text text-anchor="middle" x="2158.5" y="-69" font-family="Helvetica,sans-Serif" font-size="10.00">QVector</text>
</a>
</g>
</g>
<!-- Node17&#45;&gt;Node23 -->
<g id="edge25" class="edge">
<title>Node17&#45;&gt;Node23</title>
<path fill="none" stroke="midnightblue" d="M1068.75,-197.56C1206.25,-194.29 1504.68,-184.07 1754.5,-154 1919.12,-134.19 1962.02,-132.35 2121.5,-87 2124.09,-86.26 2126.74,-85.42 2129.39,-84.51"/>
<polygon fill="midnightblue" stroke="midnightblue" points="2130.6,-87.79 2138.77,-81.04 2128.18,-81.22 2130.6,-87.79"/>
</g>
<!-- Node24 -->
<g id="node24" class="node">
<title>Node24</title>
<g id="a_node24"><a xlink:href="../../d8/da5/vdomdocument_8h.html" target="_top" xlink:title=" ">
<polygon fill="white" stroke="black" points="1210.5,-129 1210.5,-148 1312.5,-148 1312.5,-129 1210.5,-129"/>
<text text-anchor="middle" x="1261.5" y="-136" font-family="Helvetica,sans-Serif" font-size="10.00">vdomdocument.h</text>
</a>
</g>
</g>
<!-- Node17&#45;&gt;Node24 -->
<g id="edge27" class="edge">
<title>Node17&#45;&gt;Node24</title>
<path fill="none" stroke="midnightblue" d="M1031.04,-190.48C1078.98,-179.87 1160.86,-161.76 1213.01,-150.22"/>
<polygon fill="midnightblue" stroke="midnightblue" points="1214.02,-153.59 1223.03,-148.01 1212.51,-146.75 1214.02,-153.59"/>
</g>
<!-- Node32 -->
<g id="node32" class="node">
<title>Node32</title>
<g id="a_node32"><a xlink:title=" ">
<polygon fill="white" stroke="#bfbfbf" points="1932.5,-62 1932.5,-81 2014.5,-81 2014.5,-62 1932.5,-62"/>
<text text-anchor="middle" x="1973.5" y="-69" font-family="Helvetica,sans-Serif" font-size="10.00">../vmisc/def.h</text>
</a>
</g>
</g>
<!-- Node17&#45;&gt;Node32 -->
<g id="edge45" class="edge">
<title>Node17&#45;&gt;Node32</title>
<path fill="none" stroke="midnightblue" d="M1068.75,-194.81C1228.76,-184.93 1610.64,-155.65 1923.5,-87 1927.72,-86.07 1932.11,-84.99 1936.46,-83.83"/>
<polygon fill="midnightblue" stroke="midnightblue" points="1937.72,-87.11 1946.42,-81.06 1935.85,-80.37 1937.72,-87.11"/>
</g>
<!-- Node35 -->
<g id="node35" class="node">
<title>Node35</title>
<g id="a_node35"><a xlink:href="../../d9/d47/vtoolrecord_8h.html" target="_top" xlink:title=" ">
<polygon fill="white" stroke="black" points="987,-129 987,-148 1068,-148 1068,-129 987,-129"/>
<text text-anchor="middle" x="1027.5" y="-136" font-family="Helvetica,sans-Serif" font-size="10.00">vtoolrecord.h</text>
</a>
</g>
</g>
<!-- Node17&#45;&gt;Node35 -->
<g id="edge41" class="edge">
<title>Node17&#45;&gt;Node35</title>
<path fill="none" stroke="midnightblue" d="M997.51,-190.48C1002.66,-181.73 1010.81,-167.87 1017.32,-156.81"/>
<polygon fill="midnightblue" stroke="midnightblue" points="1020.44,-158.4 1022.49,-148.01 1014.41,-154.85 1020.44,-158.4"/>
</g>
<!-- Node36 -->
<g id="node36" class="node">
<title>Node36</title>
<g id="a_node36"><a xlink:title=" ">
<polygon fill="white" stroke="#bfbfbf" points="1331,-129 1331,-148 1470,-148 1470,-129 1331,-129"/>
<text text-anchor="middle" x="1400.5" y="-136" font-family="Helvetica,sans-Serif" font-size="10.00">../vwidgets/pen_toolbar.h</text>
</a>
</g>
</g>
<!-- Node17&#45;&gt;Node36 -->
<g id="edge46" class="edge">
<title>Node17&#45;&gt;Node36</title>
<path fill="none" stroke="midnightblue" d="M1061.64,-190.47C1128.3,-182.03 1231.99,-168.33 1321.5,-154 1329.43,-152.73 1337.79,-151.3 1345.98,-149.84"/>
<polygon fill="midnightblue" stroke="midnightblue" points="1346.64,-153.28 1355.86,-148.06 1345.39,-146.39 1346.64,-153.28"/>
</g>
<!-- Node37 -->
<g id="node37" class="node">
<title>Node37</title>
<g id="a_node37"><a xlink:href="../../d1/d8d/image__item_8h.html" target="_top" xlink:title=" ">
<polygon fill="white" stroke="black" points="2135.5,-123.5 2135.5,-153.5 2233.5,-153.5 2233.5,-123.5 2135.5,-123.5"/>
<text text-anchor="start" x="2143.5" y="-141.5" font-family="Helvetica,sans-Serif" font-size="10.00">../../tools/images</text>
<text text-anchor="middle" x="2184.5" y="-130.5" font-family="Helvetica,sans-Serif" font-size="10.00">/image_item.h</text>
</a>
</g>
</g>
<!-- Node17&#45;&gt;Node37 -->
<g id="edge47" class="edge">
<title>Node17&#45;&gt;Node37</title>
<path fill="none" stroke="midnightblue" d="M1068.8,-197.54C1286.95,-193.12 1910.6,-178.63 2113.5,-154 2117.39,-153.53 2121.39,-152.96 2125.41,-152.31"/>
<polygon fill="midnightblue" stroke="midnightblue" points="2126.13,-155.74 2135.4,-150.6 2124.95,-148.84 2126.13,-155.74"/>
</g>
<!-- Node24&#45;&gt;Node8 -->
<g id="edge34" class="edge">
<title>Node24&#45;&gt;Node8</title>
<path fill="none" stroke="midnightblue" d="M1210.41,-132.23C1150.46,-125.27 1048.46,-111.01 963.5,-87 961.06,-86.31 958.56,-85.51 956.07,-84.65"/>
<polygon fill="midnightblue" stroke="midnightblue" points="957.26,-81.35 946.66,-81.11 954.79,-87.91 957.26,-81.35"/>
</g>
<!-- Node24&#45;&gt;Node11 -->
<g id="edge35" class="edge">
<title>Node24&#45;&gt;Node11</title>
<path fill="none" stroke="midnightblue" d="M1210.2,-133.12C1111.25,-124.41 897.46,-104.28 825.5,-87 822.51,-86.28 819.43,-85.4 816.38,-84.43"/>
<polygon fill="midnightblue" stroke="midnightblue" points="817.45,-81.1 806.86,-81.12 815.15,-87.71 817.45,-81.1"/>
</g>
<!-- Node24&#45;&gt;Node18 -->
<g id="edge32" class="edge">
<title>Node24&#45;&gt;Node18</title>
<path fill="none" stroke="midnightblue" d="M1210.2,-134.81C1138.12,-130.06 1003.28,-117.61 892.5,-87 890.2,-86.37 887.86,-85.61 885.53,-84.78"/>
<polygon fill="midnightblue" stroke="midnightblue" points="886.76,-81.51 876.18,-81.09 884.2,-88.02 886.76,-81.51"/>
</g>
<!-- Node25 -->
<g id="node25" class="node">
<title>Node25</title>
<g id="a_node25"><a xlink:title=" ">
<polygon fill="white" stroke="#bfbfbf" points="1093,-62 1093,-81 1194,-81 1194,-62 1093,-62"/>
<text text-anchor="middle" x="1143.5" y="-69" font-family="Helvetica,sans-Serif" font-size="10.00">QCoreApplication</text>
</a>
</g>
</g>
<!-- Node24&#45;&gt;Node25 -->
<g id="edge28" class="edge">
<title>Node24&#45;&gt;Node25</title>
<path fill="none" stroke="midnightblue" d="M1245.59,-128.73C1225.68,-117.77 1191.39,-98.88 1168.1,-86.05"/>
<polygon fill="midnightblue" stroke="midnightblue" points="1169.61,-82.89 1159.16,-81.13 1166.23,-89.02 1169.61,-82.89"/>
</g>
<!-- Node26 -->
<g id="node26" class="node">
<title>Node26</title>
<g id="a_node26"><a xlink:title=" ">
<polygon fill="white" stroke="#bfbfbf" points="1212.5,-62 1212.5,-81 1310.5,-81 1310.5,-62 1212.5,-62"/>
<text text-anchor="middle" x="1261.5" y="-69" font-family="Helvetica,sans-Serif" font-size="10.00">QDomDocument</text>
</a>
</g>
</g>
<!-- Node24&#45;&gt;Node26 -->
<g id="edge29" class="edge">
<title>Node24&#45;&gt;Node26</title>
<path fill="none" stroke="midnightblue" d="M1261.5,-128.73C1261.5,-119.18 1261.5,-103.62 1261.5,-91.28"/>
<polygon fill="midnightblue" stroke="midnightblue" points="1265,-91.13 1261.5,-81.13 1258,-91.13 1265,-91.13"/>
</g>
<!-- Node27 -->
<g id="node27" class="node">
<title>Node27</title>
<g id="a_node27"><a xlink:title=" ">
<polygon fill="white" stroke="#bfbfbf" points="1328.5,-62 1328.5,-81 1416.5,-81 1416.5,-62 1328.5,-62"/>
<text text-anchor="middle" x="1372.5" y="-69" font-family="Helvetica,sans-Serif" font-size="10.00">QDomElement</text>
</a>
</g>
</g>
<!-- Node24&#45;&gt;Node27 -->
<g id="edge30" class="edge">
<title>Node24&#45;&gt;Node27</title>
<path fill="none" stroke="midnightblue" d="M1276.47,-128.73C1295.11,-117.82 1327.16,-99.05 1349.07,-86.22"/>
<polygon fill="midnightblue" stroke="midnightblue" points="1350.91,-89.2 1357.77,-81.13 1347.37,-83.16 1350.91,-89.2"/>
</g>
<!-- Node28 -->
<g id="node28" class="node">
<title>Node28</title>
<g id="a_node28"><a xlink:title=" ">
<polygon fill="white" stroke="#bfbfbf" points="1435,-62 1435,-81 1508,-81 1508,-62 1435,-62"/>
<text text-anchor="middle" x="1471.5" y="-69" font-family="Helvetica,sans-Serif" font-size="10.00">QDomNode</text>
</a>
</g>
</g>
<!-- Node24&#45;&gt;Node28 -->
<g id="edge31" class="edge">
<title>Node24&#45;&gt;Node28</title>
<path fill="none" stroke="midnightblue" d="M1289.37,-128.98C1322.02,-118.98 1377.72,-101.89 1425.5,-87 1428.44,-86.08 1431.49,-85.13 1434.55,-84.17"/>
<polygon fill="midnightblue" stroke="midnightblue" points="1435.78,-87.45 1444.27,-81.12 1433.68,-80.78 1435.78,-87.45"/>
</g>
<!-- Node29 -->
<g id="node29" class="node">
<title>Node29</title>
<g id="a_node29"><a xlink:title=" ">
<polygon fill="white" stroke="#bfbfbf" points="1526,-62 1526,-81 1609,-81 1609,-62 1526,-62"/>
<text text-anchor="middle" x="1567.5" y="-69" font-family="Helvetica,sans-Serif" font-size="10.00">QLatin1String</text>
</a>
</g>
</g>
<!-- Node24&#45;&gt;Node29 -->
<g id="edge33" class="edge">
<title>Node24&#45;&gt;Node29</title>
<path fill="none" stroke="midnightblue" d="M1295.95,-128.99C1304.6,-126.94 1313.87,-124.82 1322.5,-123 1408.73,-104.8 1431.74,-107.3 1517.5,-87 1521.61,-86.03 1525.88,-84.93 1530.12,-83.78"/>
<polygon fill="midnightblue" stroke="midnightblue" points="1531.18,-87.12 1539.86,-81.05 1529.29,-80.38 1531.18,-87.12"/>
</g>
<!-- Node30 -->
<g id="node30" class="node">
<title>Node30</title>
<g id="a_node30"><a xlink:title=" ">
<polygon fill="white" stroke="#bfbfbf" points="1627.5,-62 1627.5,-81 1683.5,-81 1683.5,-62 1627.5,-62"/>
<text text-anchor="middle" x="1655.5" y="-69" font-family="Helvetica,sans-Serif" font-size="10.00">QLocale</text>
</a>
</g>
</g>
<!-- Node24&#45;&gt;Node30 -->
<g id="edge36" class="edge">
<title>Node24&#45;&gt;Node30</title>
<path fill="none" stroke="midnightblue" d="M1294.28,-128.99C1303.38,-126.83 1313.29,-124.65 1322.5,-123 1452.95,-99.64 1490.01,-119.44 1618.5,-87 1621.17,-86.33 1623.9,-85.51 1626.62,-84.61"/>
<polygon fill="midnightblue" stroke="midnightblue" points="1628.02,-87.83 1636.22,-81.12 1625.62,-81.25 1628.02,-87.83"/>
</g>
<!-- Node31 -->
<g id="node31" class="node">
<title>Node31</title>
<g id="a_node31"><a xlink:title=" ">
<polygon fill="white" stroke="#bfbfbf" points="1702,-62 1702,-81 1779,-81 1779,-62 1702,-62"/>
<text text-anchor="middle" x="1740.5" y="-69" font-family="Helvetica,sans-Serif" font-size="10.00">../ifc/ifcdef.h</text>
</a>
</g>
</g>
<!-- Node24&#45;&gt;Node31 -->
<g id="edge37" class="edge">
<title>Node24&#45;&gt;Node31</title>
<path fill="none" stroke="midnightblue" d="M1293.62,-129C1302.89,-126.78 1313.05,-124.58 1322.5,-123 1485.47,-95.83 1530.42,-119.04 1692.5,-87 1696.73,-86.16 1701.11,-85.11 1705.44,-83.95"/>
<polygon fill="midnightblue" stroke="midnightblue" points="1706.68,-87.24 1715.33,-81.12 1704.75,-80.51 1706.68,-87.24"/>
</g>
<!-- Node24&#45;&gt;Node32 -->
<g id="edge38" class="edge">
<title>Node24&#45;&gt;Node32</title>
<path fill="none" stroke="midnightblue" d="M1292.64,-129C1302.16,-126.7 1312.7,-124.45 1322.5,-123 1587.22,-83.91 1659.81,-132.55 1923.5,-87 1928.31,-86.17 1933.32,-85.04 1938.23,-83.78"/>
<polygon fill="midnightblue" stroke="midnightblue" points="1939.36,-87.1 1948.06,-81.06 1937.49,-80.35 1939.36,-87.1"/>
</g>
<!-- Node33 -->
<g id="node33" class="node">
<title>Node33</title>
<g id="a_node33"><a xlink:title=" ">
<polygon fill="white" stroke="#bfbfbf" points="1797,-62 1797,-81 1914,-81 1914,-62 1797,-62"/>
<text text-anchor="middle" x="1855.5" y="-69" font-family="Helvetica,sans-Serif" font-size="10.00">../vmisc/diagnostic.h</text>
</a>
</g>
</g>
<!-- Node24&#45;&gt;Node33 -->
<g id="edge39" class="edge">
<title>Node24&#45;&gt;Node33</title>
<path fill="none" stroke="midnightblue" d="M1293.29,-128.95C1302.64,-126.71 1312.93,-124.5 1322.5,-123 1527.73,-90.88 1582.96,-117.04 1788.5,-87 1795.71,-85.95 1803.29,-84.57 1810.67,-83.08"/>
<polygon fill="midnightblue" stroke="midnightblue" points="1811.48,-86.49 1820.54,-81.01 1810.04,-79.64 1811.48,-86.49"/>
</g>
<!-- Node34 -->
<g id="node34" class="node">
<title>Node34</title>
<g id="a_node34"><a xlink:title=" ">
<polygon fill="white" stroke="#bfbfbf" points="972,-62 972,-81 1075,-81 1075,-62 972,-62"/>
<text text-anchor="middle" x="1023.5" y="-69" font-family="Helvetica,sans-Serif" font-size="10.00">../vmisc/logging.h</text>
</a>
</g>
</g>
<!-- Node24&#45;&gt;Node34 -->
<g id="edge40" class="edge">
<title>Node24&#45;&gt;Node34</title>
<path fill="none" stroke="midnightblue" d="M1229.9,-128.87C1187.37,-117.25 1111.65,-96.58 1064.7,-83.75"/>
<polygon fill="midnightblue" stroke="midnightblue" points="1065.43,-80.32 1054.86,-81.06 1063.58,-87.07 1065.43,-80.32"/>
</g>
<!-- Node35&#45;&gt;Node8 -->
<g id="edge42" class="edge">
<title>Node35&#45;&gt;Node8</title>
<path fill="none" stroke="midnightblue" d="M1014.01,-128.73C997.45,-117.96 969.12,-99.55 949.41,-86.74"/>
<polygon fill="midnightblue" stroke="midnightblue" points="951.06,-83.64 940.77,-81.13 947.25,-89.51 951.06,-83.64"/>
</g>
<!-- Node35&#45;&gt;Node11 -->
<g id="edge43" class="edge">
<title>Node35&#45;&gt;Node11</title>
<path fill="none" stroke="midnightblue" d="M988.04,-129C947.06,-119.85 881.26,-104.28 825.5,-87 822.94,-86.21 820.3,-85.34 817.65,-84.43"/>
<polygon fill="midnightblue" stroke="midnightblue" points="818.81,-81.13 808.22,-81.06 816.46,-87.72 818.81,-81.13"/>
</g>
<!-- Node35&#45;&gt;Node32 -->
<g id="edge44" class="edge">
<title>Node35&#45;&gt;Node32</title>
<path fill="none" stroke="midnightblue" d="M1068.25,-133.72C1103.5,-130.54 1155.83,-126.04 1201.5,-123 1522.08,-101.66 1606.63,-140.1 1923.5,-87 1928.37,-86.18 1933.44,-85.06 1938.4,-83.79"/>
<polygon fill="midnightblue" stroke="midnightblue" points="1939.63,-87.08 1948.33,-81.04 1937.76,-80.33 1939.63,-87.08"/>
</g>
<!-- Node37&#45;&gt;Node5 -->
<g id="edge48" class="edge">
<title>Node37&#45;&gt;Node5</title>
<path fill="none" stroke="midnightblue" d="M2135.33,-136.27C1899.34,-130.27 888.36,-103.82 748.5,-87 740.44,-86.03 731.93,-84.61 723.73,-83.03"/>
<polygon fill="midnightblue" stroke="midnightblue" points="724.41,-79.6 713.92,-81.05 723.03,-86.46 724.41,-79.6"/>
</g>
<!-- Node37&#45;&gt;Node8 -->
<g id="edge54" class="edge">
<title>Node37&#45;&gt;Node8</title>
<path fill="none" stroke="midnightblue" d="M2135.35,-136.46C1921.7,-131.78 1079.26,-111.93 963.5,-87 960.66,-86.39 957.75,-85.57 954.89,-84.64"/>
<polygon fill="midnightblue" stroke="midnightblue" points="956.03,-81.32 945.43,-81.12 953.59,-87.89 956.03,-81.32"/>
</g>
<!-- Node37&#45;&gt;Node20 -->
<g id="edge52" class="edge">
<title>Node37&#45;&gt;Node20</title>
<path fill="none" stroke="midnightblue" d="M2160.2,-123.4C2141.15,-112.34 2114.82,-97.06 2095.99,-86.13"/>
<polygon fill="midnightblue" stroke="midnightblue" points="2097.56,-83 2087.16,-81.01 2094.05,-89.05 2097.56,-83"/>
</g>
<!-- Node37&#45;&gt;Node23 -->
<g id="edge56" class="edge">
<title>Node37&#45;&gt;Node23</title>
<path fill="none" stroke="midnightblue" d="M2178.86,-123.4C2175.01,-113.76 2169.87,-100.91 2165.71,-90.54"/>
<polygon fill="midnightblue" stroke="midnightblue" points="2168.94,-89.18 2161.98,-81.19 2162.44,-91.78 2168.94,-89.18"/>
</g>
<!-- Node37&#45;&gt;Node32 -->
<g id="edge49" class="edge">
<title>Node37&#45;&gt;Node32</title>
<path fill="none" stroke="midnightblue" d="M2138.98,-123.48C2100.66,-111.67 2046.54,-95 2010.76,-83.98"/>
<polygon fill="midnightblue" stroke="midnightblue" points="2011.77,-80.63 2001.19,-81.03 2009.71,-87.32 2011.77,-80.63"/>
</g>
<!-- Node38 -->
<g id="node38" class="node">
<title>Node38</title>
<g id="a_node38"><a xlink:title=" ">
<polygon fill="white" stroke="#bfbfbf" points="2204.5,-56.5 2204.5,-86.5 2306.5,-86.5 2306.5,-56.5 2204.5,-56.5"/>
<text text-anchor="start" x="2212.5" y="-74.5" font-family="Helvetica,sans-Serif" font-size="10.00">../vwidgets/resize</text>
<text text-anchor="middle" x="2255.5" y="-63.5" font-family="Helvetica,sans-Serif" font-size="10.00">_handle.h</text>
</a>
</g>
</g>
<!-- Node37&#45;&gt;Node38 -->
<g id="edge50" class="edge">
<title>Node37&#45;&gt;Node38</title>
<path fill="none" stroke="midnightblue" d="M2199.91,-123.4C2209.49,-114.62 2221.99,-103.18 2232.7,-93.37"/>
<polygon fill="midnightblue" stroke="midnightblue" points="2235.11,-95.91 2240.12,-86.58 2230.38,-90.75 2235.11,-95.91"/>
</g>
<!-- Node39 -->
<g id="node39" class="node">
<title>Node39</title>
<g id="a_node39"><a xlink:title=" ">
<polygon fill="white" stroke="#bfbfbf" points="2325,-62 2325,-81 2492,-81 2492,-62 2325,-62"/>
<text text-anchor="middle" x="2408.5" y="-69" font-family="Helvetica,sans-Serif" font-size="10.00">../vmisc/vabstractapplication.h</text>
</a>
</g>
</g>
<!-- Node37&#45;&gt;Node39 -->
<g id="edge51" class="edge">
<title>Node37&#45;&gt;Node39</title>
<path fill="none" stroke="midnightblue" d="M2232.83,-123.48C2273.68,-111.62 2331.45,-94.86 2369.43,-83.84"/>
<polygon fill="midnightblue" stroke="midnightblue" points="2370.48,-87.18 2379.11,-81.03 2368.53,-80.45 2370.48,-87.18"/>
</g>
<!-- Node40 -->
<g id="node40" class="node">
<title>Node40</title>
<g id="a_node40"><a xlink:title=" ">
<polygon fill="white" stroke="#bfbfbf" points="2510,-62 2510,-81 2565,-81 2565,-62 2510,-62"/>
<text text-anchor="middle" x="2537.5" y="-69" font-family="Helvetica,sans-Serif" font-size="10.00">QPointF</text>
</a>
</g>
</g>
<!-- Node37&#45;&gt;Node40 -->
<g id="edge53" class="edge">
<title>Node37&#45;&gt;Node40</title>
<path fill="none" stroke="midnightblue" d="M2233.56,-133.14C2296.49,-126.76 2408.59,-112.76 2501.5,-87 2503.94,-86.32 2506.45,-85.53 2508.94,-84.67"/>
<polygon fill="midnightblue" stroke="midnightblue" points="2510.21,-87.93 2518.35,-81.14 2507.75,-81.38 2510.21,-87.93"/>
</g>
<!-- Node41 -->
<g id="node41" class="node">
<title>Node41</title>
<g id="a_node41"><a xlink:title=" ">
<polygon fill="white" stroke="#bfbfbf" points="2583,-62 2583,-81 2642,-81 2642,-62 2583,-62"/>
<text text-anchor="middle" x="2612.5" y="-69" font-family="Helvetica,sans-Serif" font-size="10.00">QVariant</text>
</a>
</g>
</g>
<!-- Node37&#45;&gt;Node41 -->
<g id="edge55" class="edge">
<title>Node37&#45;&gt;Node41</title>
<path fill="none" stroke="midnightblue" d="M2233.52,-134.87C2308.12,-130.03 2454.17,-117.3 2574.5,-87 2577.32,-86.29 2580.23,-85.43 2583.1,-84.49"/>
<polygon fill="midnightblue" stroke="midnightblue" points="2584.43,-87.74 2592.67,-81.08 2582.07,-81.14 2584.43,-87.74"/>
</g>
<!-- Node42 -->
<g id="node42" class="node">
<title>Node42</title>
<g id="a_node42"><a xlink:title=" ">
<polygon fill="white" stroke="#bfbfbf" points="2660.5,-62 2660.5,-81 2758.5,-81 2758.5,-62 2660.5,-62"/>
<text text-anchor="middle" x="2709.5" y="-69" font-family="Helvetica,sans-Serif" font-size="10.00">QtCore/qglobal.h</text>
</a>
</g>
</g>
<!-- Node37&#45;&gt;Node42 -->
<g id="edge57" class="edge">
<title>Node37&#45;&gt;Node42</title>
<path fill="none" stroke="midnightblue" d="M2233.56,-134.42C2318.98,-128.56 2500.36,-113.93 2651.5,-87 2657.06,-86.01 2662.87,-84.79 2668.58,-83.47"/>
<polygon fill="midnightblue" stroke="midnightblue" points="2669.76,-86.79 2678.67,-81.04 2668.12,-79.98 2669.76,-86.79"/>
</g>
<!-- Node43 -->
<g id="node43" class="node">
<title>Node43</title>
<g id="a_node43"><a xlink:title=" ">
<polygon fill="white" stroke="#bfbfbf" points="2777,-62 2777,-81 2866,-81 2866,-62 2777,-62"/>
<text text-anchor="middle" x="2821.5" y="-69" font-family="Helvetica,sans-Serif" font-size="10.00">QGraphicsItem</text>
</a>
</g>
</g>
<!-- Node37&#45;&gt;Node43 -->
<g id="edge58" class="edge">
<title>Node37&#45;&gt;Node43</title>
<path fill="none" stroke="midnightblue" d="M2233.63,-136.16C2334.44,-132.77 2571.64,-121.5 2767.5,-87 2772.68,-86.09 2778.1,-84.91 2783.41,-83.62"/>
<polygon fill="midnightblue" stroke="midnightblue" points="2784.59,-86.93 2793.4,-81.05 2782.85,-80.15 2784.59,-86.93"/>
</g>
</g>
</svg>
