<?xml version="1.0" encoding="UTF-8" standalone="no"?>
<!DOCTYPE svg PUBLIC "-//W3C//DTD SVG 1.1//EN"
 "http://www.w3.org/Graphics/SVG/1.1/DTD/svg11.dtd">
<!-- Generated by graphviz version 2.43.0 (0)
 -->
<!-- Title: VisToolMirrorByAxis Pages: 1 -->
<svg width="455pt" height="1533pt"
 viewBox="0.00 0.00 455.00 1533.00" xmlns="http://www.w3.org/2000/svg" xmlns:xlink="http://www.w3.org/1999/xlink">
<g id="graph0" class="graph" transform="scale(1 1) rotate(0) translate(4 1529)">
<title>VisToolMirrorByAxis</title>
<polygon fill="white" stroke="transparent" points="-4,4 -4,-1529 451,-1529 451,4 -4,4"/>
<!-- Node1 -->
<g id="node1" class="node">
<title>Node1</title>
<g id="a_node1"><a xlink:title=" ">
<polygon fill="#bfbfbf" stroke="black" points="239.5,-0.5 239.5,-112.5 380.5,-112.5 380.5,-0.5 239.5,-0.5"/>
<text text-anchor="middle" x="310" y="-100.5" font-family="Helvetica,sans-Serif" font-size="10.00">VisToolMirrorByAxis</text>
<polyline fill="none" stroke="black" points="239.5,-93.5 380.5,-93.5 "/>
<text text-anchor="start" x="247.5" y="-81.5" font-family="Helvetica,sans-Serif" font-size="10.00">&#45; m_axisType</text>
<polyline fill="none" stroke="black" points="239.5,-74.5 380.5,-74.5 "/>
<text text-anchor="start" x="247.5" y="-62.5" font-family="Helvetica,sans-Serif" font-size="10.00">+ VisToolMirrorByAxis()</text>
<text text-anchor="start" x="247.5" y="-51.5" font-family="Helvetica,sans-Serif" font-size="10.00">+ ~VisToolMirrorByAxis()</text>
<text text-anchor="start" x="247.5" y="-40.5" font-family="Helvetica,sans-Serif" font-size="10.00">+ RefreshGeometry()</text>
<text text-anchor="start" x="247.5" y="-29.5" font-family="Helvetica,sans-Serif" font-size="10.00">+ setOriginPointId()</text>
<text text-anchor="start" x="247.5" y="-18.5" font-family="Helvetica,sans-Serif" font-size="10.00">+ setAxisType()</text>
<text text-anchor="start" x="247.5" y="-7.5" font-family="Helvetica,sans-Serif" font-size="10.00">+ type()</text>
</a>
</g>
</g>
<!-- Node2 -->
<g id="node2" class="node">
<title>Node2</title>
<g id="a_node2"><a xlink:href="../../d7/dba/classVisOperation.html" target="_top" xlink:title=" ">
<polygon fill="white" stroke="black" points="162,-160.5 162,-349.5 310,-349.5 310,-160.5 162,-160.5"/>
<text text-anchor="middle" x="236" y="-337.5" font-family="Helvetica,sans-Serif" font-size="10.00">VisOperation</text>
<polyline fill="none" stroke="black" points="162,-330.5 310,-330.5 "/>
<text text-anchor="start" x="170" y="-318.5" font-family="Helvetica,sans-Serif" font-size="10.00"># objects</text>
<text text-anchor="start" x="170" y="-307.5" font-family="Helvetica,sans-Serif" font-size="10.00"># supportColor2</text>
<text text-anchor="start" x="170" y="-296.5" font-family="Helvetica,sans-Serif" font-size="10.00"># supportColor3</text>
<text text-anchor="start" x="170" y="-285.5" font-family="Helvetica,sans-Serif" font-size="10.00"># points</text>
<text text-anchor="start" x="170" y="-274.5" font-family="Helvetica,sans-Serif" font-size="10.00"># curves</text>
<polyline fill="none" stroke="black" points="162,-267.5 310,-267.5 "/>
<text text-anchor="start" x="170" y="-255.5" font-family="Helvetica,sans-Serif" font-size="10.00">+ VisOperation()</text>
<text text-anchor="start" x="170" y="-244.5" font-family="Helvetica,sans-Serif" font-size="10.00">+ ~VisOperation()</text>
<text text-anchor="start" x="170" y="-233.5" font-family="Helvetica,sans-Serif" font-size="10.00">+ setObjects()</text>
<text text-anchor="start" x="170" y="-222.5" font-family="Helvetica,sans-Serif" font-size="10.00">+ VisualMode()</text>
<text text-anchor="start" x="170" y="-211.5" font-family="Helvetica,sans-Serif" font-size="10.00">+ type()</text>
<text text-anchor="start" x="170" y="-200.5" font-family="Helvetica,sans-Serif" font-size="10.00"># GetPoint()</text>
<text text-anchor="start" x="170" y="-189.5" font-family="Helvetica,sans-Serif" font-size="10.00"># GetCurve()</text>
<text text-anchor="start" x="170" y="-178.5" font-family="Helvetica,sans-Serif" font-size="10.00"># addFlippedCurve()</text>
<text text-anchor="start" x="170" y="-167.5" font-family="Helvetica,sans-Serif" font-size="10.00"># refreshMirroredObjects()</text>
</a>
</g>
</g>
<!-- Node2&#45;&gt;Node1 -->
<g id="edge1" class="edge">
<title>Node2&#45;&gt;Node1</title>
<path fill="none" stroke="midnightblue" d="M274.87,-150.79C279.81,-137.67 284.71,-124.66 289.21,-112.72"/>
<polygon fill="none" stroke="midnightblue" points="271.52,-149.76 271.27,-160.35 278.07,-152.23 271.52,-149.76"/>
</g>
<!-- Node3 -->
<g id="node3" class="node">
<title>Node3</title>
<g id="a_node3"><a xlink:href="../../de/d0e/classVisLine.html" target="_top" xlink:title=" ">
<polygon fill="white" stroke="black" points="187,-387.5 187,-554.5 285,-554.5 285,-387.5 187,-387.5"/>
<text text-anchor="middle" x="236" y="-542.5" font-family="Helvetica,sans-Serif" font-size="10.00">VisLine</text>
<polyline fill="none" stroke="black" points="187,-535.5 285,-535.5 "/>
<text text-anchor="middle" x="236" y="-523.5" font-family="Helvetica,sans-Serif" font-size="10.00"> </text>
<polyline fill="none" stroke="black" points="187,-516.5 285,-516.5 "/>
<text text-anchor="start" x="195" y="-504.5" font-family="Helvetica,sans-Serif" font-size="10.00">+ VisLine()</text>
<text text-anchor="start" x="195" y="-493.5" font-family="Helvetica,sans-Serif" font-size="10.00">+ ~VisLine()</text>
<text text-anchor="start" x="195" y="-482.5" font-family="Helvetica,sans-Serif" font-size="10.00">+ type()</text>
<text text-anchor="start" x="195" y="-471.5" font-family="Helvetica,sans-Serif" font-size="10.00">+ CorrectAngle()</text>
<text text-anchor="start" x="195" y="-460.5" font-family="Helvetica,sans-Serif" font-size="10.00"># Ray()</text>
<text text-anchor="start" x="195" y="-449.5" font-family="Helvetica,sans-Serif" font-size="10.00"># Ray()</text>
<text text-anchor="start" x="195" y="-438.5" font-family="Helvetica,sans-Serif" font-size="10.00"># Axis()</text>
<text text-anchor="start" x="195" y="-427.5" font-family="Helvetica,sans-Serif" font-size="10.00"># Axis()</text>
<text text-anchor="start" x="195" y="-416.5" font-family="Helvetica,sans-Serif" font-size="10.00"># initPen()</text>
<text text-anchor="start" x="195" y="-405.5" font-family="Helvetica,sans-Serif" font-size="10.00"># AddOnScene()</text>
<text text-anchor="start" x="195" y="-394.5" font-family="Helvetica,sans-Serif" font-size="10.00"># DrawRay()</text>
</a>
</g>
</g>
<!-- Node3&#45;&gt;Node2 -->
<g id="edge2" class="edge">
<title>Node3&#45;&gt;Node2</title>
<path fill="none" stroke="midnightblue" d="M236,-377.04C236,-367.93 236,-358.67 236,-349.55"/>
<polygon fill="none" stroke="midnightblue" points="232.5,-377.26 236,-387.26 239.5,-377.26 232.5,-377.26"/>
</g>
<!-- Node4 -->
<g id="node4" class="node">
<title>Node4</title>
<g id="a_node4"><a xlink:href="../../d7/d24/classVisualization.html" target="_top" xlink:title=" ">
<polygon fill="white" stroke="black" points="97,-592.5 97,-1045.5 219,-1045.5 219,-592.5 97,-592.5"/>
<text text-anchor="middle" x="158" y="-1033.5" font-family="Helvetica,sans-Serif" font-size="10.00">Visualization</text>
<polyline fill="none" stroke="black" points="97,-1026.5 219,-1026.5 "/>
<text text-anchor="start" x="105" y="-1014.5" font-family="Helvetica,sans-Serif" font-size="10.00"># scenePos</text>
<text text-anchor="start" x="105" y="-1003.5" font-family="Helvetica,sans-Serif" font-size="10.00"># mainColor</text>
<text text-anchor="start" x="105" y="-992.5" font-family="Helvetica,sans-Serif" font-size="10.00"># supportColor</text>
<text text-anchor="start" x="105" y="-981.5" font-family="Helvetica,sans-Serif" font-size="10.00"># lineStyle</text>
<text text-anchor="start" x="105" y="-970.5" font-family="Helvetica,sans-Serif" font-size="10.00"># lineWeight</text>
<text text-anchor="start" x="105" y="-959.5" font-family="Helvetica,sans-Serif" font-size="10.00"># object1Id</text>
<text text-anchor="start" x="105" y="-948.5" font-family="Helvetica,sans-Serif" font-size="10.00"># toolTip</text>
<text text-anchor="start" x="105" y="-937.5" font-family="Helvetica,sans-Serif" font-size="10.00"># mode</text>
<polyline fill="none" stroke="black" points="97,-930.5 219,-930.5 "/>
<text text-anchor="start" x="105" y="-918.5" font-family="Helvetica,sans-Serif" font-size="10.00">+ Visualization()</text>
<text text-anchor="start" x="105" y="-907.5" font-family="Helvetica,sans-Serif" font-size="10.00">+ ~Visualization()</text>
<text text-anchor="start" x="105" y="-896.5" font-family="Helvetica,sans-Serif" font-size="10.00">+ RefreshGeometry()</text>
<text text-anchor="start" x="105" y="-885.5" font-family="Helvetica,sans-Serif" font-size="10.00">+ setObject1Id()</text>
<text text-anchor="start" x="105" y="-874.5" font-family="Helvetica,sans-Serif" font-size="10.00">+ setLineStyle()</text>
<text text-anchor="start" x="105" y="-863.5" font-family="Helvetica,sans-Serif" font-size="10.00">+ setLineWeight()</text>
<text text-anchor="start" x="105" y="-852.5" font-family="Helvetica,sans-Serif" font-size="10.00">+ setScenePos()</text>
<text text-anchor="start" x="105" y="-841.5" font-family="Helvetica,sans-Serif" font-size="10.00">+ VisualMode()</text>
<text text-anchor="start" x="105" y="-830.5" font-family="Helvetica,sans-Serif" font-size="10.00">+ setMainColor()</text>
<text text-anchor="start" x="105" y="-819.5" font-family="Helvetica,sans-Serif" font-size="10.00">+ getData()</text>
<text text-anchor="start" x="105" y="-808.5" font-family="Helvetica,sans-Serif" font-size="10.00">+ setData()</text>
<text text-anchor="start" x="105" y="-797.5" font-family="Helvetica,sans-Serif" font-size="10.00">+ GetMode()</text>
<text text-anchor="start" x="105" y="-786.5" font-family="Helvetica,sans-Serif" font-size="10.00">+ SetMode()</text>
<text text-anchor="start" x="105" y="-775.5" font-family="Helvetica,sans-Serif" font-size="10.00">+ CurrentToolTip()</text>
<text text-anchor="start" x="105" y="-764.5" font-family="Helvetica,sans-Serif" font-size="10.00">+ FindLength()</text>
<text text-anchor="start" x="105" y="-753.5" font-family="Helvetica,sans-Serif" font-size="10.00">+ FindVal()</text>
<text text-anchor="start" x="105" y="-742.5" font-family="Helvetica,sans-Serif" font-size="10.00">+ mousePos()</text>
<text text-anchor="start" x="105" y="-731.5" font-family="Helvetica,sans-Serif" font-size="10.00"># initPen()</text>
<text text-anchor="start" x="105" y="-720.5" font-family="Helvetica,sans-Serif" font-size="10.00"># AddOnScene()</text>
<text text-anchor="start" x="105" y="-709.5" font-family="Helvetica,sans-Serif" font-size="10.00"># InitPoint()</text>
<text text-anchor="start" x="105" y="-698.5" font-family="Helvetica,sans-Serif" font-size="10.00"># DrawPoint()</text>
<text text-anchor="start" x="105" y="-687.5" font-family="Helvetica,sans-Serif" font-size="10.00"># DrawLine()</text>
<text text-anchor="start" x="105" y="-676.5" font-family="Helvetica,sans-Serif" font-size="10.00"># DrawPath()</text>
<text text-anchor="start" x="105" y="-665.5" font-family="Helvetica,sans-Serif" font-size="10.00"># DrawPath()</text>
<text text-anchor="start" x="105" y="-654.5" font-family="Helvetica,sans-Serif" font-size="10.00"># drawArrowedLine()</text>
<text text-anchor="start" x="105" y="-643.5" font-family="Helvetica,sans-Serif" font-size="10.00"># drawArrow()</text>
<text text-anchor="start" x="105" y="-632.5" font-family="Helvetica,sans-Serif" font-size="10.00"># addItem()</text>
<text text-anchor="start" x="105" y="-621.5" font-family="Helvetica,sans-Serif" font-size="10.00"># InitItem()</text>
<text text-anchor="start" x="105" y="-610.5" font-family="Helvetica,sans-Serif" font-size="10.00"># GetPointItem()</text>
<text text-anchor="start" x="105" y="-599.5" font-family="Helvetica,sans-Serif" font-size="10.00">&#45; initPointItem()</text>
</a>
</g>
</g>
<!-- Node4&#45;&gt;Node3 -->
<g id="edge3" class="edge">
<title>Node4&#45;&gt;Node3</title>
<path fill="none" stroke="midnightblue" d="M211.18,-582.12C213.3,-572.69 215.36,-563.55 217.33,-554.84"/>
<polygon fill="none" stroke="midnightblue" points="207.72,-581.52 208.94,-592.04 214.55,-583.06 207.72,-581.52"/>
</g>
<!-- Node5 -->
<g id="node5" class="node">
<title>Node5</title>
<g id="a_node5"><a xlink:title=" ">
<polygon fill="white" stroke="#bfbfbf" points="0,-1280.5 0,-1337.5 56,-1337.5 56,-1280.5 0,-1280.5"/>
<text text-anchor="middle" x="28" y="-1325.5" font-family="Helvetica,sans-Serif" font-size="10.00">QObject</text>
<polyline fill="none" stroke="#bfbfbf" points="0,-1318.5 56,-1318.5 "/>
<text text-anchor="middle" x="28" y="-1306.5" font-family="Helvetica,sans-Serif" font-size="10.00"> </text>
<polyline fill="none" stroke="#bfbfbf" points="0,-1299.5 56,-1299.5 "/>
<text text-anchor="middle" x="28" y="-1287.5" font-family="Helvetica,sans-Serif" font-size="10.00"> </text>
</a>
</g>
</g>
<!-- Node5&#45;&gt;Node4 -->
<g id="edge4" class="edge">
<title>Node5&#45;&gt;Node4</title>
<path fill="none" stroke="midnightblue" d="M32.67,-1270.14C38.43,-1226.9 49.41,-1154.2 65,-1093 73.96,-1057.82 85.3,-1020.67 96.96,-985.49"/>
<polygon fill="none" stroke="midnightblue" points="29.18,-1269.85 31.35,-1280.22 36.12,-1270.75 29.18,-1269.85"/>
</g>
<!-- Node6 -->
<g id="node6" class="node">
<title>Node6</title>
<g id="a_node6"><a xlink:href="../../d2/d83/classVContainer.html" target="_top" xlink:title="Manages a collection of geometric objects, pieces, paths, and variables.">
<polygon fill="white" stroke="black" points="74,-1093.5 74,-1524.5 242,-1524.5 242,-1093.5 74,-1093.5"/>
<text text-anchor="middle" x="158" y="-1512.5" font-family="Helvetica,sans-Serif" font-size="10.00">VContainer</text>
<polyline fill="none" stroke="black" points="74,-1505.5 242,-1505.5 "/>
<text text-anchor="start" x="82" y="-1493.5" font-family="Helvetica,sans-Serif" font-size="10.00">&#45; d</text>
<text text-anchor="start" x="82" y="-1482.5" font-family="Helvetica,sans-Serif" font-size="10.00">&#45; _id</text>
<text text-anchor="start" x="82" y="-1471.5" font-family="Helvetica,sans-Serif" font-size="10.00">&#45; _size</text>
<text text-anchor="start" x="82" y="-1460.5" font-family="Helvetica,sans-Serif" font-size="10.00">&#45; _height</text>
<text text-anchor="start" x="82" y="-1449.5" font-family="Helvetica,sans-Serif" font-size="10.00">&#45; uniqueNames</text>
<polyline fill="none" stroke="black" points="74,-1442.5 242,-1442.5 "/>
<text text-anchor="start" x="82" y="-1430.5" font-family="Helvetica,sans-Serif" font-size="10.00">+ VContainer()</text>
<text text-anchor="start" x="82" y="-1419.5" font-family="Helvetica,sans-Serif" font-size="10.00">+ VContainer()</text>
<text text-anchor="start" x="82" y="-1408.5" font-family="Helvetica,sans-Serif" font-size="10.00">+ ~VContainer()</text>
<text text-anchor="start" x="82" y="-1397.5" font-family="Helvetica,sans-Serif" font-size="10.00">+ operator=()</text>
<text text-anchor="start" x="82" y="-1386.5" font-family="Helvetica,sans-Serif" font-size="10.00">+ Swap()</text>
<text text-anchor="start" x="82" y="-1375.5" font-family="Helvetica,sans-Serif" font-size="10.00">+ GeometricObject()</text>
<text text-anchor="start" x="82" y="-1364.5" font-family="Helvetica,sans-Serif" font-size="10.00">+ GetGObject()</text>
<text text-anchor="start" x="82" y="-1353.5" font-family="Helvetica,sans-Serif" font-size="10.00">+ GetPiece()</text>
<text text-anchor="start" x="82" y="-1342.5" font-family="Helvetica,sans-Serif" font-size="10.00">+ GetPiecePath()</text>
<text text-anchor="start" x="82" y="-1331.5" font-family="Helvetica,sans-Serif" font-size="10.00">+ getVariable()</text>
<text text-anchor="start" x="82" y="-1320.5" font-family="Helvetica,sans-Serif" font-size="10.00">and 34 more...</text>
<text text-anchor="start" x="82" y="-1309.5" font-family="Helvetica,sans-Serif" font-size="10.00">+ GetFakeGObject()</text>
<text text-anchor="start" x="82" y="-1298.5" font-family="Helvetica,sans-Serif" font-size="10.00">+ getId()</text>
<text text-anchor="start" x="82" y="-1287.5" font-family="Helvetica,sans-Serif" font-size="10.00">+ getNextId()</text>
<text text-anchor="start" x="82" y="-1276.5" font-family="Helvetica,sans-Serif" font-size="10.00">+ UpdateId()</text>
<text text-anchor="start" x="82" y="-1265.5" font-family="Helvetica,sans-Serif" font-size="10.00">+ ClearUniqueNames()</text>
<text text-anchor="start" x="82" y="-1254.5" font-family="Helvetica,sans-Serif" font-size="10.00">+ clearUniqueVariableNames()</text>
<text text-anchor="start" x="82" y="-1243.5" font-family="Helvetica,sans-Serif" font-size="10.00">+ setSize()</text>
<text text-anchor="start" x="82" y="-1232.5" font-family="Helvetica,sans-Serif" font-size="10.00">+ setHeight()</text>
<text text-anchor="start" x="82" y="-1221.5" font-family="Helvetica,sans-Serif" font-size="10.00">+ size()</text>
<text text-anchor="start" x="82" y="-1210.5" font-family="Helvetica,sans-Serif" font-size="10.00">+ rsize()</text>
<text text-anchor="start" x="82" y="-1199.5" font-family="Helvetica,sans-Serif" font-size="10.00">+ height()</text>
<text text-anchor="start" x="82" y="-1188.5" font-family="Helvetica,sans-Serif" font-size="10.00">+ rheight()</text>
<text text-anchor="start" x="82" y="-1177.5" font-family="Helvetica,sans-Serif" font-size="10.00">+ IsUnique()</text>
<text text-anchor="start" x="82" y="-1166.5" font-family="Helvetica,sans-Serif" font-size="10.00">+ AllUniqueNames()</text>
<text text-anchor="start" x="82" y="-1155.5" font-family="Helvetica,sans-Serif" font-size="10.00">&#45; AddCurve()</text>
<text text-anchor="start" x="82" y="-1144.5" font-family="Helvetica,sans-Serif" font-size="10.00">&#45; qHash()</text>
<text text-anchor="start" x="82" y="-1133.5" font-family="Helvetica,sans-Serif" font-size="10.00">&#45; GetObject()</text>
<text text-anchor="start" x="82" y="-1122.5" font-family="Helvetica,sans-Serif" font-size="10.00">&#45; UpdateObject()</text>
<text text-anchor="start" x="82" y="-1111.5" font-family="Helvetica,sans-Serif" font-size="10.00">&#45; DataVar()</text>
<text text-anchor="start" x="82" y="-1100.5" font-family="Helvetica,sans-Serif" font-size="10.00">&#45; AddObject()</text>
</a>
</g>
</g>
<!-- Node6&#45;&gt;Node4 -->
<g id="edge5" class="edge">
<title>Node6&#45;&gt;Node4</title>
<path fill="none" stroke="#404040" d="M158,-1093.25C158,-1081.57 158,-1069.81 158,-1058.07"/>
<polygon fill="none" stroke="#404040" points="158,-1057.84 154,-1051.84 158,-1045.84 162,-1051.84 158,-1057.84"/>
<text text-anchor="middle" x="175" y="-1067" font-family="Helvetica,sans-Serif" font-size="10.00"> #data</text>
</g>
<!-- Node7 -->
<g id="node7" class="node">
<title>Node7</title>
<g id="a_node7"><a xlink:href="../../dd/da2/classVScaledLine.html" target="_top" xlink:title=" ">
<polygon fill="white" stroke="black" points="247,-757.5 247,-880.5 363,-880.5 363,-757.5 247,-757.5"/>
<text text-anchor="middle" x="305" y="-868.5" font-family="Helvetica,sans-Serif" font-size="10.00">VScaledLine</text>
<polyline fill="none" stroke="black" points="247,-861.5 363,-861.5 "/>
<text text-anchor="start" x="255" y="-849.5" font-family="Helvetica,sans-Serif" font-size="10.00">&#45; m_defaultWidth</text>
<polyline fill="none" stroke="black" points="247,-842.5 363,-842.5 "/>
<text text-anchor="start" x="255" y="-830.5" font-family="Helvetica,sans-Serif" font-size="10.00">+ VScaledLine()</text>
<text text-anchor="start" x="255" y="-819.5" font-family="Helvetica,sans-Serif" font-size="10.00">+ VScaledLine()</text>
<text text-anchor="start" x="255" y="-808.5" font-family="Helvetica,sans-Serif" font-size="10.00">+ ~VScaledLine()</text>
<text text-anchor="start" x="255" y="-797.5" font-family="Helvetica,sans-Serif" font-size="10.00">+ type()</text>
<text text-anchor="start" x="255" y="-786.5" font-family="Helvetica,sans-Serif" font-size="10.00">+ paint()</text>
<text text-anchor="start" x="255" y="-775.5" font-family="Helvetica,sans-Serif" font-size="10.00">+ getDefaultWidth()</text>
<text text-anchor="start" x="255" y="-764.5" font-family="Helvetica,sans-Serif" font-size="10.00">+ setDefaultWidth()</text>
</a>
</g>
</g>
<!-- Node7&#45;&gt;Node3 -->
<g id="edge6" class="edge">
<title>Node7&#45;&gt;Node3</title>
<path fill="none" stroke="midnightblue" d="M290.95,-747.53C279.81,-691.68 264.22,-613.52 252.49,-554.71"/>
<polygon fill="none" stroke="midnightblue" points="287.51,-748.21 292.9,-757.34 294.38,-746.84 287.51,-748.21"/>
</g>
<!-- Node8 -->
<g id="node8" class="node">
<title>Node8</title>
<g id="a_node8"><a xlink:title=" ">
<polygon fill="white" stroke="#bfbfbf" points="260,-1280.5 260,-1337.5 370,-1337.5 370,-1280.5 260,-1280.5"/>
<text text-anchor="middle" x="315" y="-1325.5" font-family="Helvetica,sans-Serif" font-size="10.00">QGraphicsLineItem</text>
<polyline fill="none" stroke="#bfbfbf" points="260,-1318.5 370,-1318.5 "/>
<text text-anchor="middle" x="315" y="-1306.5" font-family="Helvetica,sans-Serif" font-size="10.00"> </text>
<polyline fill="none" stroke="#bfbfbf" points="260,-1299.5 370,-1299.5 "/>
<text text-anchor="middle" x="315" y="-1287.5" font-family="Helvetica,sans-Serif" font-size="10.00"> </text>
</a>
</g>
</g>
<!-- Node8&#45;&gt;Node7 -->
<g id="edge7" class="edge">
<title>Node8&#45;&gt;Node7</title>
<path fill="none" stroke="midnightblue" d="M314.23,-1270.25C312.5,-1186.17 308.34,-982.9 306.24,-880.74"/>
<polygon fill="none" stroke="midnightblue" points="310.73,-1270.44 314.43,-1280.36 317.73,-1270.3 310.73,-1270.44"/>
</g>
<!-- Node9 -->
<g id="node9" class="node">
<title>Node9</title>
<g id="a_node9"><a xlink:href="../../d8/dbf/classVScaledEllipse.html" target="_top" xlink:title=" ">
<polygon fill="white" stroke="black" points="328.5,-210 328.5,-300 443.5,-300 443.5,-210 328.5,-210"/>
<text text-anchor="middle" x="386" y="-288" font-family="Helvetica,sans-Serif" font-size="10.00">VScaledEllipse</text>
<polyline fill="none" stroke="black" points="328.5,-281 443.5,-281 "/>
<text text-anchor="middle" x="386" y="-269" font-family="Helvetica,sans-Serif" font-size="10.00"> </text>
<polyline fill="none" stroke="black" points="328.5,-262 443.5,-262 "/>
<text text-anchor="start" x="336.5" y="-250" font-family="Helvetica,sans-Serif" font-size="10.00">+ VScaledEllipse()</text>
<text text-anchor="start" x="336.5" y="-239" font-family="Helvetica,sans-Serif" font-size="10.00">+ ~VScaledEllipse()</text>
<text text-anchor="start" x="336.5" y="-228" font-family="Helvetica,sans-Serif" font-size="10.00">+ type()</text>
<text text-anchor="start" x="336.5" y="-217" font-family="Helvetica,sans-Serif" font-size="10.00">+ paint()</text>
</a>
</g>
</g>
<!-- Node9&#45;&gt;Node1 -->
<g id="edge8" class="edge">
<title>Node9&#45;&gt;Node1</title>
<path fill="none" stroke="#404040" d="M368.94,-209.9C359.17,-184.64 346.72,-152.43 335.78,-124.14"/>
<polygon fill="none" stroke="#404040" points="335.68,-123.89 329.78,-119.74 331.35,-112.7 337.24,-116.85 335.68,-123.89"/>
<text text-anchor="middle" x="361" y="-134" font-family="Helvetica,sans-Serif" font-size="10.00"> &#45;point1</text>
</g>
<!-- Node10 -->
<g id="node10" class="node">
<title>Node10</title>
<g id="a_node10"><a xlink:title=" ">
<polygon fill="white" stroke="#bfbfbf" points="325,-442.5 325,-499.5 447,-499.5 447,-442.5 325,-442.5"/>
<text text-anchor="middle" x="386" y="-487.5" font-family="Helvetica,sans-Serif" font-size="10.00">QGraphicsEllipseItem</text>
<polyline fill="none" stroke="#bfbfbf" points="325,-480.5 447,-480.5 "/>
<text text-anchor="middle" x="386" y="-468.5" font-family="Helvetica,sans-Serif" font-size="10.00"> </text>
<polyline fill="none" stroke="#bfbfbf" points="325,-461.5 447,-461.5 "/>
<text text-anchor="middle" x="386" y="-449.5" font-family="Helvetica,sans-Serif" font-size="10.00"> </text>
</a>
</g>
</g>
<!-- Node10&#45;&gt;Node9 -->
<g id="edge9" class="edge">
<title>Node10&#45;&gt;Node9</title>
<path fill="none" stroke="midnightblue" d="M386,-432.12C386,-395.2 386,-339.09 386,-300.16"/>
<polygon fill="none" stroke="midnightblue" points="382.5,-432.46 386,-442.46 389.5,-432.46 382.5,-432.46"/>
</g>
</g>
</svg>
