<?xml version="1.0" encoding="UTF-8" standalone="no"?>
<!DOCTYPE svg PUBLIC "-//W3C//DTD SVG 1.1//EN"
 "http://www.w3.org/Graphics/SVG/1.1/DTD/svg11.dtd">
<!-- Generated by graphviz version 2.43.0 (0)
 -->
<!-- Title: VisToolMove Pages: 1 -->
<!--zoomable 1814 -->
<svg id="main" version="1.1" xmlns="http://www.w3.org/2000/svg" xmlns:xlink="http://www.w3.org/1999/xlink" xml:space="preserve" onload="init(evt)">
<style type="text/css"><![CDATA[
.edge:hover path { stroke: red; }
.edge:hover polygon { stroke: red; fill: red; }
]]></style>
<script type="text/javascript"><![CDATA[
var edges = document.getElementsByTagName('g');
if (edges && edges.length) {
  for (var i=0;i<edges.length;i++) {
    if (edges[i].id.substr(0,4)=='edge') {
      edges[i].setAttribute('class','edge');
    }
  }
}
]]></script>
        <defs>
                <circle id="rim" cx="0" cy="0" r="7"/>
                <circle id="rim2" cx="0" cy="0" r="3.5"/>
                <g id="zoomPlus">
                        <use xlink:href="#rim" fill="#404040">
                                <set attributeName="fill" to="#808080" begin="zoomplus.mouseover" end="zoomplus.mouseout"/>
                        </use>
                        <path d="M-4,0h8M0,-4v8" fill="none" stroke="white" stroke-width="1.5" pointer-events="none"/>
                </g>
                <g id="zoomMin">
                        <use xlink:href="#rim" fill="#404040">
                                <set attributeName="fill" to="#808080" begin="zoomminus.mouseover" end="zoomminus.mouseout"/>
                        </use>
                        <path d="M-4,0h8" fill="none" stroke="white" stroke-width="1.5" pointer-events="none"/>
                </g>
                <g id="dirArrow">
                        <path fill="none" stroke="white" stroke-width="1.5" d="M0,-3.0v7 M-2.5,-0.5L0,-3.0L2.5,-0.5"/>
                </g>
               <g id="resetDef">
                       <use xlink:href="#rim2" fill="#404040">
                               <set attributeName="fill" to="#808080" begin="reset.mouseover" end="reset.mouseout"/>
                       </use>
               </g>
        </defs>

<script type="text/javascript">
var viewWidth = 587;
var viewHeight = 1814;
var sectionId = 'dynsection-1';
</script>
<script xlink:href="../../svgpan.js"/>
<svg id="graph" class="graph">
<g id="viewport">
<title>VisToolMove</title>
<polygon fill="white" stroke="transparent" points="-4,4 -4,-1810 583,-1810 583,4 -4,4"/>
<!-- Node1 -->
<g id="node1" class="node">
<title>Node1</title>
<g id="a_node1"><a xlink:title=" ">
<polygon fill="#bfbfbf" stroke="black" points="300.5,-0.5 300.5,-266.5 437.5,-266.5 437.5,-0.5 300.5,-0.5"/>
<text text-anchor="middle" x="369" y="-254.5" font-family="Helvetica,sans-Serif" font-size="10.00">VisToolMove</text>
<polyline fill="none" stroke="black" points="300.5,-247.5 437.5,-247.5 "/>
<text text-anchor="start" x="308.5" y="-235.5" font-family="Helvetica,sans-Serif" font-size="10.00">&#45; angle</text>
<text text-anchor="start" x="308.5" y="-224.5" font-family="Helvetica,sans-Serif" font-size="10.00">&#45; length</text>
<text text-anchor="start" x="308.5" y="-213.5" font-family="Helvetica,sans-Serif" font-size="10.00">&#45; rotationAngle</text>
<text text-anchor="start" x="308.5" y="-202.5" font-family="Helvetica,sans-Serif" font-size="10.00">&#45; m_origin</text>
<text text-anchor="start" x="308.5" y="-191.5" font-family="Helvetica,sans-Serif" font-size="10.00">&#45; m_rotationPoint</text>
<polyline fill="none" stroke="black" points="300.5,-184.5 437.5,-184.5 "/>
<text text-anchor="start" x="308.5" y="-172.5" font-family="Helvetica,sans-Serif" font-size="10.00">+ VisToolMove()</text>
<text text-anchor="start" x="308.5" y="-161.5" font-family="Helvetica,sans-Serif" font-size="10.00">+ ~VisToolMove()</text>
<text text-anchor="start" x="308.5" y="-150.5" font-family="Helvetica,sans-Serif" font-size="10.00">+ RefreshGeometry()</text>
<text text-anchor="start" x="308.5" y="-139.5" font-family="Helvetica,sans-Serif" font-size="10.00">+ Angle()</text>
<text text-anchor="start" x="308.5" y="-128.5" font-family="Helvetica,sans-Serif" font-size="10.00">+ SetAngle()</text>
<text text-anchor="start" x="308.5" y="-117.5" font-family="Helvetica,sans-Serif" font-size="10.00">+ Rotation()</text>
<text text-anchor="start" x="308.5" y="-106.5" font-family="Helvetica,sans-Serif" font-size="10.00">+ setRotation()</text>
<text text-anchor="start" x="308.5" y="-95.5" font-family="Helvetica,sans-Serif" font-size="10.00">+ Length()</text>
<text text-anchor="start" x="308.5" y="-84.5" font-family="Helvetica,sans-Serif" font-size="10.00">+ LengthValue()</text>
<text text-anchor="start" x="308.5" y="-73.5" font-family="Helvetica,sans-Serif" font-size="10.00">+ SetLength()</text>
<text text-anchor="start" x="308.5" y="-62.5" font-family="Helvetica,sans-Serif" font-size="10.00">+ setOriginPointId()</text>
<text text-anchor="start" x="308.5" y="-51.5" font-family="Helvetica,sans-Serif" font-size="10.00">+ type()</text>
<text text-anchor="start" x="308.5" y="-40.5" font-family="Helvetica,sans-Serif" font-size="10.00">&#45; AddOriginCurve()</text>
<text text-anchor="start" x="308.5" y="-29.5" font-family="Helvetica,sans-Serif" font-size="10.00">&#45; AddDestinationCurve()</text>
<text text-anchor="start" x="308.5" y="-18.5" font-family="Helvetica,sans-Serif" font-size="10.00">&#45; createOriginObjects()</text>
<text text-anchor="start" x="308.5" y="-7.5" font-family="Helvetica,sans-Serif" font-size="10.00">&#45; createRotatedObjects()</text>
</a>
</g>
</g>
<!-- Node2 -->
<g id="node2" class="node">
<title>Node2</title>
<g id="a_node2"><a xlink:href="../../d7/dba/classVisOperation.html" target="_top" xlink:title=" ">
<polygon fill="white" stroke="black" points="138,-336.5 138,-525.5 286,-525.5 286,-336.5 138,-336.5"/>
<text text-anchor="middle" x="212" y="-513.5" font-family="Helvetica,sans-Serif" font-size="10.00">VisOperation</text>
<polyline fill="none" stroke="black" points="138,-506.5 286,-506.5 "/>
<text text-anchor="start" x="146" y="-494.5" font-family="Helvetica,sans-Serif" font-size="10.00"># objects</text>
<text text-anchor="start" x="146" y="-483.5" font-family="Helvetica,sans-Serif" font-size="10.00"># supportColor2</text>
<text text-anchor="start" x="146" y="-472.5" font-family="Helvetica,sans-Serif" font-size="10.00"># supportColor3</text>
<text text-anchor="start" x="146" y="-461.5" font-family="Helvetica,sans-Serif" font-size="10.00"># points</text>
<text text-anchor="start" x="146" y="-450.5" font-family="Helvetica,sans-Serif" font-size="10.00"># curves</text>
<polyline fill="none" stroke="black" points="138,-443.5 286,-443.5 "/>
<text text-anchor="start" x="146" y="-431.5" font-family="Helvetica,sans-Serif" font-size="10.00">+ VisOperation()</text>
<text text-anchor="start" x="146" y="-420.5" font-family="Helvetica,sans-Serif" font-size="10.00">+ ~VisOperation()</text>
<text text-anchor="start" x="146" y="-409.5" font-family="Helvetica,sans-Serif" font-size="10.00">+ setObjects()</text>
<text text-anchor="start" x="146" y="-398.5" font-family="Helvetica,sans-Serif" font-size="10.00">+ VisualMode()</text>
<text text-anchor="start" x="146" y="-387.5" font-family="Helvetica,sans-Serif" font-size="10.00">+ type()</text>
<text text-anchor="start" x="146" y="-376.5" font-family="Helvetica,sans-Serif" font-size="10.00"># GetPoint()</text>
<text text-anchor="start" x="146" y="-365.5" font-family="Helvetica,sans-Serif" font-size="10.00"># GetCurve()</text>
<text text-anchor="start" x="146" y="-354.5" font-family="Helvetica,sans-Serif" font-size="10.00"># addFlippedCurve()</text>
<text text-anchor="start" x="146" y="-343.5" font-family="Helvetica,sans-Serif" font-size="10.00"># refreshMirroredObjects()</text>
</a>
</g>
</g>
<!-- Node2&#45;&gt;Node1 -->
<g id="edge1" class="edge">
<title>Node2&#45;&gt;Node1</title>
<path fill="none" stroke="midnightblue" d="M266.68,-327.08C277.58,-306.57 289.15,-284.79 300.45,-263.53"/>
<polygon fill="none" stroke="midnightblue" points="263.49,-325.62 261.89,-336.1 269.67,-328.91 263.49,-325.62"/>
</g>
<!-- Node3 -->
<g id="node3" class="node">
<title>Node3</title>
<g id="a_node3"><a xlink:href="../../de/d0e/classVisLine.html" target="_top" xlink:title=" ">
<polygon fill="white" stroke="black" points="163,-573.5 163,-740.5 261,-740.5 261,-573.5 163,-573.5"/>
<text text-anchor="middle" x="212" y="-728.5" font-family="Helvetica,sans-Serif" font-size="10.00">VisLine</text>
<polyline fill="none" stroke="black" points="163,-721.5 261,-721.5 "/>
<text text-anchor="middle" x="212" y="-709.5" font-family="Helvetica,sans-Serif" font-size="10.00"> </text>
<polyline fill="none" stroke="black" points="163,-702.5 261,-702.5 "/>
<text text-anchor="start" x="171" y="-690.5" font-family="Helvetica,sans-Serif" font-size="10.00">+ VisLine()</text>
<text text-anchor="start" x="171" y="-679.5" font-family="Helvetica,sans-Serif" font-size="10.00">+ ~VisLine()</text>
<text text-anchor="start" x="171" y="-668.5" font-family="Helvetica,sans-Serif" font-size="10.00">+ type()</text>
<text text-anchor="start" x="171" y="-657.5" font-family="Helvetica,sans-Serif" font-size="10.00">+ CorrectAngle()</text>
<text text-anchor="start" x="171" y="-646.5" font-family="Helvetica,sans-Serif" font-size="10.00"># Ray()</text>
<text text-anchor="start" x="171" y="-635.5" font-family="Helvetica,sans-Serif" font-size="10.00"># Ray()</text>
<text text-anchor="start" x="171" y="-624.5" font-family="Helvetica,sans-Serif" font-size="10.00"># Axis()</text>
<text text-anchor="start" x="171" y="-613.5" font-family="Helvetica,sans-Serif" font-size="10.00"># Axis()</text>
<text text-anchor="start" x="171" y="-602.5" font-family="Helvetica,sans-Serif" font-size="10.00"># initPen()</text>
<text text-anchor="start" x="171" y="-591.5" font-family="Helvetica,sans-Serif" font-size="10.00"># AddOnScene()</text>
<text text-anchor="start" x="171" y="-580.5" font-family="Helvetica,sans-Serif" font-size="10.00"># DrawRay()</text>
</a>
</g>
</g>
<!-- Node3&#45;&gt;Node2 -->
<g id="edge2" class="edge">
<title>Node3&#45;&gt;Node2</title>
<path fill="none" stroke="midnightblue" d="M212,-562.98C212,-550.69 212,-538.07 212,-525.76"/>
<polygon fill="none" stroke="midnightblue" points="208.5,-563.23 212,-573.23 215.5,-563.23 208.5,-563.23"/>
</g>
<!-- Node4 -->
<g id="node4" class="node">
<title>Node4</title>
<g id="a_node4"><a xlink:href="../../d7/d24/classVisualization.html" target="_top" xlink:title=" ">
<polygon fill="white" stroke="black" points="97,-778.5 97,-1231.5 219,-1231.5 219,-778.5 97,-778.5"/>
<text text-anchor="middle" x="158" y="-1219.5" font-family="Helvetica,sans-Serif" font-size="10.00">Visualization</text>
<polyline fill="none" stroke="black" points="97,-1212.5 219,-1212.5 "/>
<text text-anchor="start" x="105" y="-1200.5" font-family="Helvetica,sans-Serif" font-size="10.00"># scenePos</text>
<text text-anchor="start" x="105" y="-1189.5" font-family="Helvetica,sans-Serif" font-size="10.00"># mainColor</text>
<text text-anchor="start" x="105" y="-1178.5" font-family="Helvetica,sans-Serif" font-size="10.00"># supportColor</text>
<text text-anchor="start" x="105" y="-1167.5" font-family="Helvetica,sans-Serif" font-size="10.00"># lineStyle</text>
<text text-anchor="start" x="105" y="-1156.5" font-family="Helvetica,sans-Serif" font-size="10.00"># lineWeight</text>
<text text-anchor="start" x="105" y="-1145.5" font-family="Helvetica,sans-Serif" font-size="10.00"># object1Id</text>
<text text-anchor="start" x="105" y="-1134.5" font-family="Helvetica,sans-Serif" font-size="10.00"># toolTip</text>
<text text-anchor="start" x="105" y="-1123.5" font-family="Helvetica,sans-Serif" font-size="10.00"># mode</text>
<polyline fill="none" stroke="black" points="97,-1116.5 219,-1116.5 "/>
<text text-anchor="start" x="105" y="-1104.5" font-family="Helvetica,sans-Serif" font-size="10.00">+ Visualization()</text>
<text text-anchor="start" x="105" y="-1093.5" font-family="Helvetica,sans-Serif" font-size="10.00">+ ~Visualization()</text>
<text text-anchor="start" x="105" y="-1082.5" font-family="Helvetica,sans-Serif" font-size="10.00">+ RefreshGeometry()</text>
<text text-anchor="start" x="105" y="-1071.5" font-family="Helvetica,sans-Serif" font-size="10.00">+ setObject1Id()</text>
<text text-anchor="start" x="105" y="-1060.5" font-family="Helvetica,sans-Serif" font-size="10.00">+ setLineStyle()</text>
<text text-anchor="start" x="105" y="-1049.5" font-family="Helvetica,sans-Serif" font-size="10.00">+ setLineWeight()</text>
<text text-anchor="start" x="105" y="-1038.5" font-family="Helvetica,sans-Serif" font-size="10.00">+ setScenePos()</text>
<text text-anchor="start" x="105" y="-1027.5" font-family="Helvetica,sans-Serif" font-size="10.00">+ VisualMode()</text>
<text text-anchor="start" x="105" y="-1016.5" font-family="Helvetica,sans-Serif" font-size="10.00">+ setMainColor()</text>
<text text-anchor="start" x="105" y="-1005.5" font-family="Helvetica,sans-Serif" font-size="10.00">+ getData()</text>
<text text-anchor="start" x="105" y="-994.5" font-family="Helvetica,sans-Serif" font-size="10.00">+ setData()</text>
<text text-anchor="start" x="105" y="-983.5" font-family="Helvetica,sans-Serif" font-size="10.00">+ GetMode()</text>
<text text-anchor="start" x="105" y="-972.5" font-family="Helvetica,sans-Serif" font-size="10.00">+ SetMode()</text>
<text text-anchor="start" x="105" y="-961.5" font-family="Helvetica,sans-Serif" font-size="10.00">+ CurrentToolTip()</text>
<text text-anchor="start" x="105" y="-950.5" font-family="Helvetica,sans-Serif" font-size="10.00">+ FindLength()</text>
<text text-anchor="start" x="105" y="-939.5" font-family="Helvetica,sans-Serif" font-size="10.00">+ FindVal()</text>
<text text-anchor="start" x="105" y="-928.5" font-family="Helvetica,sans-Serif" font-size="10.00">+ mousePos()</text>
<text text-anchor="start" x="105" y="-917.5" font-family="Helvetica,sans-Serif" font-size="10.00"># initPen()</text>
<text text-anchor="start" x="105" y="-906.5" font-family="Helvetica,sans-Serif" font-size="10.00"># AddOnScene()</text>
<text text-anchor="start" x="105" y="-895.5" font-family="Helvetica,sans-Serif" font-size="10.00"># InitPoint()</text>
<text text-anchor="start" x="105" y="-884.5" font-family="Helvetica,sans-Serif" font-size="10.00"># DrawPoint()</text>
<text text-anchor="start" x="105" y="-873.5" font-family="Helvetica,sans-Serif" font-size="10.00"># DrawLine()</text>
<text text-anchor="start" x="105" y="-862.5" font-family="Helvetica,sans-Serif" font-size="10.00"># DrawPath()</text>
<text text-anchor="start" x="105" y="-851.5" font-family="Helvetica,sans-Serif" font-size="10.00"># DrawPath()</text>
<text text-anchor="start" x="105" y="-840.5" font-family="Helvetica,sans-Serif" font-size="10.00"># drawArrowedLine()</text>
<text text-anchor="start" x="105" y="-829.5" font-family="Helvetica,sans-Serif" font-size="10.00"># drawArrow()</text>
<text text-anchor="start" x="105" y="-818.5" font-family="Helvetica,sans-Serif" font-size="10.00"># addItem()</text>
<text text-anchor="start" x="105" y="-807.5" font-family="Helvetica,sans-Serif" font-size="10.00"># InitItem()</text>
<text text-anchor="start" x="105" y="-796.5" font-family="Helvetica,sans-Serif" font-size="10.00"># GetPointItem()</text>
<text text-anchor="start" x="105" y="-785.5" font-family="Helvetica,sans-Serif" font-size="10.00">&#45; initPointItem()</text>
</a>
</g>
</g>
<!-- Node4&#45;&gt;Node3 -->
<g id="edge3" class="edge">
<title>Node4&#45;&gt;Node3</title>
<path fill="none" stroke="midnightblue" d="M194.81,-768.12C196.29,-758.69 197.71,-749.55 199.07,-740.84"/>
<polygon fill="none" stroke="midnightblue" points="191.35,-767.62 193.26,-778.04 198.27,-768.7 191.35,-767.62"/>
</g>
<!-- Node5 -->
<g id="node5" class="node">
<title>Node5</title>
<g id="a_node5"><a xlink:title=" ">
<polygon fill="white" stroke="#bfbfbf" points="0,-1466.5 0,-1523.5 56,-1523.5 56,-1466.5 0,-1466.5"/>
<text text-anchor="middle" x="28" y="-1511.5" font-family="Helvetica,sans-Serif" font-size="10.00">QObject</text>
<polyline fill="none" stroke="#bfbfbf" points="0,-1504.5 56,-1504.5 "/>
<text text-anchor="middle" x="28" y="-1492.5" font-family="Helvetica,sans-Serif" font-size="10.00"> </text>
<polyline fill="none" stroke="#bfbfbf" points="0,-1485.5 56,-1485.5 "/>
<text text-anchor="middle" x="28" y="-1473.5" font-family="Helvetica,sans-Serif" font-size="10.00"> </text>
</a>
</g>
</g>
<!-- Node5&#45;&gt;Node4 -->
<g id="edge4" class="edge">
<title>Node5&#45;&gt;Node4</title>
<path fill="none" stroke="midnightblue" d="M32.67,-1456.14C38.43,-1412.9 49.41,-1340.2 65,-1279 73.96,-1243.82 85.3,-1206.67 96.96,-1171.49"/>
<polygon fill="none" stroke="midnightblue" points="29.18,-1455.85 31.35,-1466.22 36.12,-1456.75 29.18,-1455.85"/>
</g>
<!-- Node6 -->
<g id="node6" class="node">
<title>Node6</title>
<g id="a_node6"><a xlink:href="../../d2/d83/classVContainer.html" target="_top" xlink:title="Manages a collection of geometric objects, pieces, paths, and variables.">
<polygon fill="white" stroke="black" points="74,-1279.5 74,-1710.5 242,-1710.5 242,-1279.5 74,-1279.5"/>
<text text-anchor="middle" x="158" y="-1698.5" font-family="Helvetica,sans-Serif" font-size="10.00">VContainer</text>
<polyline fill="none" stroke="black" points="74,-1691.5 242,-1691.5 "/>
<text text-anchor="start" x="82" y="-1679.5" font-family="Helvetica,sans-Serif" font-size="10.00">&#45; d</text>
<text text-anchor="start" x="82" y="-1668.5" font-family="Helvetica,sans-Serif" font-size="10.00">&#45; _id</text>
<text text-anchor="start" x="82" y="-1657.5" font-family="Helvetica,sans-Serif" font-size="10.00">&#45; _size</text>
<text text-anchor="start" x="82" y="-1646.5" font-family="Helvetica,sans-Serif" font-size="10.00">&#45; _height</text>
<text text-anchor="start" x="82" y="-1635.5" font-family="Helvetica,sans-Serif" font-size="10.00">&#45; uniqueNames</text>
<polyline fill="none" stroke="black" points="74,-1628.5 242,-1628.5 "/>
<text text-anchor="start" x="82" y="-1616.5" font-family="Helvetica,sans-Serif" font-size="10.00">+ VContainer()</text>
<text text-anchor="start" x="82" y="-1605.5" font-family="Helvetica,sans-Serif" font-size="10.00">+ VContainer()</text>
<text text-anchor="start" x="82" y="-1594.5" font-family="Helvetica,sans-Serif" font-size="10.00">+ ~VContainer()</text>
<text text-anchor="start" x="82" y="-1583.5" font-family="Helvetica,sans-Serif" font-size="10.00">+ operator=()</text>
<text text-anchor="start" x="82" y="-1572.5" font-family="Helvetica,sans-Serif" font-size="10.00">+ Swap()</text>
<text text-anchor="start" x="82" y="-1561.5" font-family="Helvetica,sans-Serif" font-size="10.00">+ GeometricObject()</text>
<text text-anchor="start" x="82" y="-1550.5" font-family="Helvetica,sans-Serif" font-size="10.00">+ GetGObject()</text>
<text text-anchor="start" x="82" y="-1539.5" font-family="Helvetica,sans-Serif" font-size="10.00">+ GetPiece()</text>
<text text-anchor="start" x="82" y="-1528.5" font-family="Helvetica,sans-Serif" font-size="10.00">+ GetPiecePath()</text>
<text text-anchor="start" x="82" y="-1517.5" font-family="Helvetica,sans-Serif" font-size="10.00">+ getVariable()</text>
<text text-anchor="start" x="82" y="-1506.5" font-family="Helvetica,sans-Serif" font-size="10.00">and 34 more...</text>
<text text-anchor="start" x="82" y="-1495.5" font-family="Helvetica,sans-Serif" font-size="10.00">+ GetFakeGObject()</text>
<text text-anchor="start" x="82" y="-1484.5" font-family="Helvetica,sans-Serif" font-size="10.00">+ getId()</text>
<text text-anchor="start" x="82" y="-1473.5" font-family="Helvetica,sans-Serif" font-size="10.00">+ getNextId()</text>
<text text-anchor="start" x="82" y="-1462.5" font-family="Helvetica,sans-Serif" font-size="10.00">+ UpdateId()</text>
<text text-anchor="start" x="82" y="-1451.5" font-family="Helvetica,sans-Serif" font-size="10.00">+ ClearUniqueNames()</text>
<text text-anchor="start" x="82" y="-1440.5" font-family="Helvetica,sans-Serif" font-size="10.00">+ clearUniqueVariableNames()</text>
<text text-anchor="start" x="82" y="-1429.5" font-family="Helvetica,sans-Serif" font-size="10.00">+ setSize()</text>
<text text-anchor="start" x="82" y="-1418.5" font-family="Helvetica,sans-Serif" font-size="10.00">+ setHeight()</text>
<text text-anchor="start" x="82" y="-1407.5" font-family="Helvetica,sans-Serif" font-size="10.00">+ size()</text>
<text text-anchor="start" x="82" y="-1396.5" font-family="Helvetica,sans-Serif" font-size="10.00">+ rsize()</text>
<text text-anchor="start" x="82" y="-1385.5" font-family="Helvetica,sans-Serif" font-size="10.00">+ height()</text>
<text text-anchor="start" x="82" y="-1374.5" font-family="Helvetica,sans-Serif" font-size="10.00">+ rheight()</text>
<text text-anchor="start" x="82" y="-1363.5" font-family="Helvetica,sans-Serif" font-size="10.00">+ IsUnique()</text>
<text text-anchor="start" x="82" y="-1352.5" font-family="Helvetica,sans-Serif" font-size="10.00">+ AllUniqueNames()</text>
<text text-anchor="start" x="82" y="-1341.5" font-family="Helvetica,sans-Serif" font-size="10.00">&#45; AddCurve()</text>
<text text-anchor="start" x="82" y="-1330.5" font-family="Helvetica,sans-Serif" font-size="10.00">&#45; qHash()</text>
<text text-anchor="start" x="82" y="-1319.5" font-family="Helvetica,sans-Serif" font-size="10.00">&#45; GetObject()</text>
<text text-anchor="start" x="82" y="-1308.5" font-family="Helvetica,sans-Serif" font-size="10.00">&#45; UpdateObject()</text>
<text text-anchor="start" x="82" y="-1297.5" font-family="Helvetica,sans-Serif" font-size="10.00">&#45; DataVar()</text>
<text text-anchor="start" x="82" y="-1286.5" font-family="Helvetica,sans-Serif" font-size="10.00">&#45; AddObject()</text>
</a>
</g>
</g>
<!-- Node6&#45;&gt;Node4 -->
<g id="edge5" class="edge">
<title>Node6&#45;&gt;Node4</title>
<path fill="none" stroke="#404040" d="M158,-1279.25C158,-1267.57 158,-1255.81 158,-1244.07"/>
<polygon fill="none" stroke="#404040" points="158,-1243.84 154,-1237.84 158,-1231.84 162,-1237.84 158,-1243.84"/>
<text text-anchor="middle" x="175" y="-1253" font-family="Helvetica,sans-Serif" font-size="10.00"> #data</text>
</g>
<!-- Node7 -->
<g id="node7" class="node">
<title>Node7</title>
<g id="a_node7"><a xlink:href="../../dd/da2/classVScaledLine.html" target="_top" xlink:title=" ">
<polygon fill="white" stroke="black" points="242,-943.5 242,-1066.5 358,-1066.5 358,-943.5 242,-943.5"/>
<text text-anchor="middle" x="300" y="-1054.5" font-family="Helvetica,sans-Serif" font-size="10.00">VScaledLine</text>
<polyline fill="none" stroke="black" points="242,-1047.5 358,-1047.5 "/>
<text text-anchor="start" x="250" y="-1035.5" font-family="Helvetica,sans-Serif" font-size="10.00">&#45; m_defaultWidth</text>
<polyline fill="none" stroke="black" points="242,-1028.5 358,-1028.5 "/>
<text text-anchor="start" x="250" y="-1016.5" font-family="Helvetica,sans-Serif" font-size="10.00">+ VScaledLine()</text>
<text text-anchor="start" x="250" y="-1005.5" font-family="Helvetica,sans-Serif" font-size="10.00">+ VScaledLine()</text>
<text text-anchor="start" x="250" y="-994.5" font-family="Helvetica,sans-Serif" font-size="10.00">+ ~VScaledLine()</text>
<text text-anchor="start" x="250" y="-983.5" font-family="Helvetica,sans-Serif" font-size="10.00">+ type()</text>
<text text-anchor="start" x="250" y="-972.5" font-family="Helvetica,sans-Serif" font-size="10.00">+ paint()</text>
<text text-anchor="start" x="250" y="-961.5" font-family="Helvetica,sans-Serif" font-size="10.00">+ getDefaultWidth()</text>
<text text-anchor="start" x="250" y="-950.5" font-family="Helvetica,sans-Serif" font-size="10.00">+ setDefaultWidth()</text>
</a>
</g>
</g>
<!-- Node7&#45;&gt;Node1 -->
<g id="edge14" class="edge">
<title>Node7&#45;&gt;Node1</title>
<path fill="none" stroke="#404040" d="M300.08,-943.24C300.62,-855.12 303.29,-686.75 315,-544 322.25,-455.63 335.09,-357.09 346.44,-278.82"/>
<polygon fill="none" stroke="#404040" points="346.44,-278.8 343.35,-272.29 348.17,-266.93 351.26,-273.44 346.44,-278.8"/>
<text text-anchor="middle" x="359" y="-547" font-family="Helvetica,sans-Serif" font-size="10.00"> &#45;rotationLineItem</text>
</g>
<!-- Node7&#45;&gt;Node3 -->
<g id="edge6" class="edge">
<title>Node7&#45;&gt;Node3</title>
<path fill="none" stroke="midnightblue" d="M282.08,-933.53C267.87,-877.68 247.99,-799.52 233.04,-740.71"/>
<polygon fill="none" stroke="midnightblue" points="278.71,-934.51 284.57,-943.34 285.5,-932.78 278.71,-934.51"/>
</g>
<!-- Node8 -->
<g id="node8" class="node">
<title>Node8</title>
<g id="a_node8"><a xlink:title=" ">
<polygon fill="white" stroke="#bfbfbf" points="260,-1466.5 260,-1523.5 370,-1523.5 370,-1466.5 260,-1466.5"/>
<text text-anchor="middle" x="315" y="-1511.5" font-family="Helvetica,sans-Serif" font-size="10.00">QGraphicsLineItem</text>
<polyline fill="none" stroke="#bfbfbf" points="260,-1504.5 370,-1504.5 "/>
<text text-anchor="middle" x="315" y="-1492.5" font-family="Helvetica,sans-Serif" font-size="10.00"> </text>
<polyline fill="none" stroke="#bfbfbf" points="260,-1485.5 370,-1485.5 "/>
<text text-anchor="middle" x="315" y="-1473.5" font-family="Helvetica,sans-Serif" font-size="10.00"> </text>
</a>
</g>
</g>
<!-- Node8&#45;&gt;Node7 -->
<g id="edge7" class="edge">
<title>Node8&#45;&gt;Node7</title>
<path fill="none" stroke="midnightblue" d="M313.84,-1456.25C311.26,-1372.17 305.01,-1168.9 301.87,-1066.74"/>
<polygon fill="none" stroke="midnightblue" points="310.34,-1456.48 314.15,-1466.36 317.34,-1456.26 310.34,-1456.48"/>
</g>
<!-- Node9 -->
<g id="node9" class="node">
<title>Node9</title>
<g id="a_node9"><a xlink:href="../../d6/d43/classArrowedLineItem.html" target="_top" xlink:title=" ">
<polygon fill="white" stroke="black" points="376.5,-949 376.5,-1061 503.5,-1061 503.5,-949 376.5,-949"/>
<text text-anchor="middle" x="440" y="-1049" font-family="Helvetica,sans-Serif" font-size="10.00">ArrowedLineItem</text>
<polyline fill="none" stroke="black" points="376.5,-1042 503.5,-1042 "/>
<text text-anchor="middle" x="440" y="-1030" font-family="Helvetica,sans-Serif" font-size="10.00"> </text>
<polyline fill="none" stroke="black" points="376.5,-1023 503.5,-1023 "/>
<text text-anchor="start" x="384.5" y="-1011" font-family="Helvetica,sans-Serif" font-size="10.00">+ ArrowedLineItem()</text>
<text text-anchor="start" x="384.5" y="-1000" font-family="Helvetica,sans-Serif" font-size="10.00">+ ArrowedLineItem()</text>
<text text-anchor="start" x="384.5" y="-989" font-family="Helvetica,sans-Serif" font-size="10.00">+ ~ArrowedLineItem()</text>
<text text-anchor="start" x="384.5" y="-978" font-family="Helvetica,sans-Serif" font-size="10.00">+ type()</text>
<text text-anchor="start" x="384.5" y="-967" font-family="Helvetica,sans-Serif" font-size="10.00">+ paint()</text>
<text text-anchor="start" x="384.5" y="-956" font-family="Helvetica,sans-Serif" font-size="10.00">&#45; drawArrow()</text>
</a>
</g>
</g>
<!-- Node8&#45;&gt;Node9 -->
<g id="edge9" class="edge">
<title>Node8&#45;&gt;Node9</title>
<path fill="none" stroke="midnightblue" d="M324.58,-1456.59C346.45,-1371.22 400.11,-1161.74 425.82,-1061.37"/>
<polygon fill="none" stroke="midnightblue" points="321.17,-1455.81 322.08,-1466.36 327.95,-1457.55 321.17,-1455.81"/>
</g>
<!-- Node9&#45;&gt;Node1 -->
<g id="edge8" class="edge">
<title>Node9&#45;&gt;Node1</title>
<path fill="none" stroke="#404040" d="M435.6,-948.77C428.72,-862.4 414.94,-690.13 403,-544 395.82,-456.09 387.64,-357.58 381.11,-279.22"/>
<polygon fill="none" stroke="#404040" points="381.07,-278.77 376.59,-273.13 380.07,-266.82 384.56,-272.46 381.07,-278.77"/>
<text text-anchor="middle" x="443" y="-547" font-family="Helvetica,sans-Serif" font-size="10.00"> &#45;moveLineItem</text>
</g>
<!-- Node10 -->
<g id="node10" class="node">
<title>Node10</title>
<g id="a_node10"><a xlink:href="../../d3/d85/classVCurvePathItem.html" target="_top" xlink:title=" ">
<polygon fill="white" stroke="black" points="388.5,-1422.5 388.5,-1567.5 517.5,-1567.5 517.5,-1422.5 388.5,-1422.5"/>
<text text-anchor="middle" x="453" y="-1555.5" font-family="Helvetica,sans-Serif" font-size="10.00">VCurvePathItem</text>
<polyline fill="none" stroke="black" points="388.5,-1548.5 517.5,-1548.5 "/>
<text text-anchor="start" x="396.5" y="-1536.5" font-family="Helvetica,sans-Serif" font-size="10.00">&#45; m_directionArrows</text>
<text text-anchor="start" x="396.5" y="-1525.5" font-family="Helvetica,sans-Serif" font-size="10.00">&#45; m_points</text>
<polyline fill="none" stroke="black" points="388.5,-1518.5 517.5,-1518.5 "/>
<text text-anchor="start" x="396.5" y="-1506.5" font-family="Helvetica,sans-Serif" font-size="10.00">+ VCurvePathItem()</text>
<text text-anchor="start" x="396.5" y="-1495.5" font-family="Helvetica,sans-Serif" font-size="10.00">+ ~VCurvePathItem()</text>
<text text-anchor="start" x="396.5" y="-1484.5" font-family="Helvetica,sans-Serif" font-size="10.00">+ shape()</text>
<text text-anchor="start" x="396.5" y="-1473.5" font-family="Helvetica,sans-Serif" font-size="10.00">+ paint()</text>
<text text-anchor="start" x="396.5" y="-1462.5" font-family="Helvetica,sans-Serif" font-size="10.00">+ type()</text>
<text text-anchor="start" x="396.5" y="-1451.5" font-family="Helvetica,sans-Serif" font-size="10.00">+ SetDirectionArrows()</text>
<text text-anchor="start" x="396.5" y="-1440.5" font-family="Helvetica,sans-Serif" font-size="10.00">+ SetPoints()</text>
<text text-anchor="start" x="396.5" y="-1429.5" font-family="Helvetica,sans-Serif" font-size="10.00"># ScalePenWidth()</text>
</a>
</g>
</g>
<!-- Node10&#45;&gt;Node9 -->
<g id="edge10" class="edge">
<title>Node10&#45;&gt;Node9</title>
<path fill="none" stroke="#404040" d="M451.09,-1422.26C448.59,-1328.41 444.24,-1165.18 441.8,-1073.49"/>
<polygon fill="none" stroke="#404040" points="441.79,-1073.31 437.63,-1067.42 441.47,-1061.31 445.63,-1067.21 441.79,-1073.31"/>
<text text-anchor="middle" x="474.5" y="-1253" font-family="Helvetica,sans-Serif" font-size="10.00"> &#45;m_arrows</text>
</g>
<!-- Node11 -->
<g id="node11" class="node">
<title>Node11</title>
<g id="a_node11"><a xlink:title=" ">
<polygon fill="white" stroke="#bfbfbf" points="398,-1748.5 398,-1805.5 508,-1805.5 508,-1748.5 398,-1748.5"/>
<text text-anchor="middle" x="453" y="-1793.5" font-family="Helvetica,sans-Serif" font-size="10.00">QGraphicsPathItem</text>
<polyline fill="none" stroke="#bfbfbf" points="398,-1786.5 508,-1786.5 "/>
<text text-anchor="middle" x="453" y="-1774.5" font-family="Helvetica,sans-Serif" font-size="10.00"> </text>
<polyline fill="none" stroke="#bfbfbf" points="398,-1767.5 508,-1767.5 "/>
<text text-anchor="middle" x="453" y="-1755.5" font-family="Helvetica,sans-Serif" font-size="10.00"> </text>
</a>
</g>
</g>
<!-- Node11&#45;&gt;Node10 -->
<g id="edge11" class="edge">
<title>Node11&#45;&gt;Node10</title>
<path fill="none" stroke="midnightblue" d="M453,-1738.22C453,-1694.61 453,-1621.91 453,-1567.52"/>
<polygon fill="none" stroke="midnightblue" points="449.5,-1738.39 453,-1748.39 456.5,-1738.39 449.5,-1738.39"/>
</g>
<!-- Node12 -->
<g id="node12" class="node">
<title>Node12</title>
<g id="a_node12"><a xlink:href="../../d8/dbf/classVScaledEllipse.html" target="_top" xlink:title=" ">
<polygon fill="white" stroke="black" points="456.5,-386 456.5,-476 571.5,-476 571.5,-386 456.5,-386"/>
<text text-anchor="middle" x="514" y="-464" font-family="Helvetica,sans-Serif" font-size="10.00">VScaledEllipse</text>
<polyline fill="none" stroke="black" points="456.5,-457 571.5,-457 "/>
<text text-anchor="middle" x="514" y="-445" font-family="Helvetica,sans-Serif" font-size="10.00"> </text>
<polyline fill="none" stroke="black" points="456.5,-438 571.5,-438 "/>
<text text-anchor="start" x="464.5" y="-426" font-family="Helvetica,sans-Serif" font-size="10.00">+ VScaledEllipse()</text>
<text text-anchor="start" x="464.5" y="-415" font-family="Helvetica,sans-Serif" font-size="10.00">+ ~VScaledEllipse()</text>
<text text-anchor="start" x="464.5" y="-404" font-family="Helvetica,sans-Serif" font-size="10.00">+ type()</text>
<text text-anchor="start" x="464.5" y="-393" font-family="Helvetica,sans-Serif" font-size="10.00">+ paint()</text>
</a>
</g>
</g>
<!-- Node12&#45;&gt;Node1 -->
<g id="edge12" class="edge">
<title>Node12&#45;&gt;Node1</title>
<path fill="none" stroke="#404040" d="M492.29,-385.76C478.04,-356.71 458.51,-316.92 439.21,-277.58"/>
<polygon fill="none" stroke="#404040" points="439.19,-277.55 432.96,-273.92 433.91,-266.78 440.14,-270.4 439.19,-277.55"/>
<text text-anchor="middle" x="518.5" y="-310" font-family="Helvetica,sans-Serif" font-size="10.00"> &#45;originPointItem</text>
<text text-anchor="middle" x="518.5" y="-299" font-family="Helvetica,sans-Serif" font-size="10.00">&#45;rotationFinishPointItem</text>
<text text-anchor="middle" x="518.5" y="-288" font-family="Helvetica,sans-Serif" font-size="10.00">&#45;rotationOriginPointItem</text>
</g>
<!-- Node13 -->
<g id="node13" class="node">
<title>Node13</title>
<g id="a_node13"><a xlink:title=" ">
<polygon fill="white" stroke="#bfbfbf" points="457,-628.5 457,-685.5 579,-685.5 579,-628.5 457,-628.5"/>
<text text-anchor="middle" x="518" y="-673.5" font-family="Helvetica,sans-Serif" font-size="10.00">QGraphicsEllipseItem</text>
<polyline fill="none" stroke="#bfbfbf" points="457,-666.5 579,-666.5 "/>
<text text-anchor="middle" x="518" y="-654.5" font-family="Helvetica,sans-Serif" font-size="10.00"> </text>
<polyline fill="none" stroke="#bfbfbf" points="457,-647.5 579,-647.5 "/>
<text text-anchor="middle" x="518" y="-635.5" font-family="Helvetica,sans-Serif" font-size="10.00"> </text>
</a>
</g>
</g>
<!-- Node13&#45;&gt;Node12 -->
<g id="edge13" class="edge">
<title>Node13&#45;&gt;Node12</title>
<path fill="none" stroke="midnightblue" d="M517.32,-617.86C516.62,-578.59 515.53,-517.44 514.79,-476.11"/>
<polygon fill="none" stroke="midnightblue" points="513.82,-618.15 517.5,-628.08 520.82,-618.02 513.82,-618.15"/>
</g>
</g>
</svg>
        <g id="navigator" transform="translate(0 0)" fill="#404254">
                <rect fill="#f2f5e9" fill-opacity="0.5" stroke="#606060" stroke-width=".5" x="0" y="0" width="60" height="60"/>
                <use id="zoomplus" xlink:href="#zoomPlus" x="17" y="9" onmousedown="handleZoom(evt,'in')"/>
                <use id="zoomminus" xlink:href="#zoomMin" x="42" y="9" onmousedown="handleZoom(evt,'out')"/>
                <use id="reset" xlink:href="#resetDef" x="30" y="36" onmousedown="handleReset()"/>
                <g id="arrowUp" xlink:href="#dirArrow" transform="translate(30 24)" onmousedown="handlePan(0,-1)">
                  <use xlink:href="#rim" fill="#404040">
                        <set attributeName="fill" to="#808080" begin="arrowUp.mouseover" end="arrowUp.mouseout"/>
                  </use>
                  <path fill="none" stroke="white" stroke-width="1.5" d="M0,-3.0v7 M-2.5,-0.5L0,-3.0L2.5,-0.5"/>
                </g>
                <g id="arrowRight" xlink:href="#dirArrow" transform="rotate(90) translate(36 -43)" onmousedown="handlePan(1,0)">
                  <use xlink:href="#rim" fill="#404040">
                        <set attributeName="fill" to="#808080" begin="arrowRight.mouseover" end="arrowRight.mouseout"/>
                  </use>
                  <path fill="none" stroke="white" stroke-width="1.5" d="M0,-3.0v7 M-2.5,-0.5L0,-3.0L2.5,-0.5"/>
                </g>
                <g id="arrowDown" xlink:href="#dirArrow" transform="rotate(180) translate(-30 -48)" onmousedown="handlePan(0,1)">
                  <use xlink:href="#rim" fill="#404040">
                        <set attributeName="fill" to="#808080" begin="arrowDown.mouseover" end="arrowDown.mouseout"/>
                  </use>
                  <path fill="none" stroke="white" stroke-width="1.5" d="M0,-3.0v7 M-2.5,-0.5L0,-3.0L2.5,-0.5"/>
                </g>
                <g id="arrowLeft" xlink:href="#dirArrow" transform="rotate(270) translate(-36 17)" onmousedown="handlePan(-1,0)">
                  <use xlink:href="#rim" fill="#404040">
                        <set attributeName="fill" to="#808080" begin="arrowLeft.mouseover" end="arrowLeft.mouseout"/>
                  </use>
                  <path fill="none" stroke="white" stroke-width="1.5" d="M0,-3.0v7 M-2.5,-0.5L0,-3.0L2.5,-0.5"/>
                </g>
        </g>
        <svg viewBox="0 0 15 15" width="100%" height="30px" preserveAspectRatio="xMaxYMin meet">
         <g id="arrow_out" transform="scale(0.3 0.3)">
          <a xlink:href="classVisToolMove__coll__graph_org.svg" target="_base">
           <rect id="button" ry="5" rx="5" y="6" x="6" height="38" width="38"
                fill="#f2f5e9" fill-opacity="0.5" stroke="#606060" stroke-width="1.0"/>
           <path id="arrow"
             d="M 11.500037,31.436501 C 11.940474,20.09759 22.043105,11.32322 32.158766,21.979434 L 37.068811,17.246167 C 37.068811,17.246167 37.088388,32 37.088388,32 L 22.160133,31.978069 C 22.160133,31.978069 26.997745,27.140456 26.997745,27.140456 C 18.528582,18.264221 13.291696,25.230495 11.500037,31.436501 z"
             style="fill:#404040;"/>
          </a>
         </g>
        </svg>
</svg>
