<?xml version="1.0" encoding="UTF-8" standalone="no"?>
<!DOCTYPE svg PUBLIC "-//W3C//DTD SVG 1.1//EN"
 "http://www.w3.org/Graphics/SVG/1.1/DTD/svg11.dtd">
<!-- Generated by graphviz version 2.43.0 (0)
 -->
<!-- Title: src/libs/vdxf/vdxfpaintdevice.cpp Pages: 1 -->
<!--zoomable 252 -->
<svg id="main" version="1.1" xmlns="http://www.w3.org/2000/svg" xmlns:xlink="http://www.w3.org/1999/xlink" xml:space="preserve" onload="init(evt)">
<style type="text/css"><![CDATA[
.edge:hover path { stroke: red; }
.edge:hover polygon { stroke: red; fill: red; }
]]></style>
<script type="text/javascript"><![CDATA[
var edges = document.getElementsByTagName('g');
if (edges && edges.length) {
  for (var i=0;i<edges.length;i++) {
    if (edges[i].id.substr(0,4)=='edge') {
      edges[i].setAttribute('class','edge');
    }
  }
}
]]></script>
        <defs>
                <circle id="rim" cx="0" cy="0" r="7"/>
                <circle id="rim2" cx="0" cy="0" r="3.5"/>
                <g id="zoomPlus">
                        <use xlink:href="#rim" fill="#404040">
                                <set attributeName="fill" to="#808080" begin="zoomplus.mouseover" end="zoomplus.mouseout"/>
                        </use>
                        <path d="M-4,0h8M0,-4v8" fill="none" stroke="white" stroke-width="1.5" pointer-events="none"/>
                </g>
                <g id="zoomMin">
                        <use xlink:href="#rim" fill="#404040">
                                <set attributeName="fill" to="#808080" begin="zoomminus.mouseover" end="zoomminus.mouseout"/>
                        </use>
                        <path d="M-4,0h8" fill="none" stroke="white" stroke-width="1.5" pointer-events="none"/>
                </g>
                <g id="dirArrow">
                        <path fill="none" stroke="white" stroke-width="1.5" d="M0,-3.0v7 M-2.5,-0.5L0,-3.0L2.5,-0.5"/>
                </g>
               <g id="resetDef">
                       <use xlink:href="#rim2" fill="#404040">
                               <set attributeName="fill" to="#808080" begin="reset.mouseover" end="reset.mouseout"/>
                       </use>
               </g>
        </defs>

<script type="text/javascript">
var viewWidth = 1067;
var viewHeight = 252;
var sectionId = 'dynsection-0';
</script>
<script xlink:href="../../svgpan.js"/>
<svg id="graph" class="graph">
<g id="viewport">
<title>src/libs/vdxf/vdxfpaintdevice.cpp</title>
<polygon fill="white" stroke="transparent" points="-4,4 -4,-248 1063.42,-248 1063.42,4 -4,4"/>
<!-- Node1 -->
<g id="node1" class="node">
<title>Node1</title>
<g id="a_node1"><a xlink:title=" ">
<polygon fill="#bfbfbf" stroke="black" points="302.42,-224.5 302.42,-243.5 480.42,-243.5 480.42,-224.5 302.42,-224.5"/>
<text text-anchor="middle" x="391.42" y="-231.5" font-family="Helvetica,sans-Serif" font-size="10.00">src/libs/vdxf/vdxfpaintdevice.cpp</text>
</a>
</g>
</g>
<!-- Node2 -->
<g id="node2" class="node">
<title>Node2</title>
<g id="a_node2"><a xlink:href="../../d0/de8/vdxfpaintdevice_8h.html" target="_top" xlink:title=" ">
<polygon fill="white" stroke="black" points="140.42,-168.5 140.42,-187.5 244.42,-187.5 244.42,-168.5 140.42,-168.5"/>
<text text-anchor="middle" x="192.42" y="-175.5" font-family="Helvetica,sans-Serif" font-size="10.00">vdxfpaintdevice.h</text>
</a>
</g>
</g>
<!-- Node1&#45;&gt;Node2 -->
<g id="edge1" class="edge">
<title>Node1&#45;&gt;Node2</title>
<path fill="none" stroke="midnightblue" d="M359.89,-224.44C325.83,-215.2 271.42,-200.44 233.91,-190.26"/>
<polygon fill="midnightblue" stroke="midnightblue" points="234.37,-186.76 223.81,-187.52 232.54,-193.51 234.37,-186.76"/>
</g>
<!-- Node10 -->
<g id="node10" class="node">
<title>Node10</title>
<g id="a_node10"><a xlink:title=" ">
<polygon fill="white" stroke="#bfbfbf" points="291.92,-168.5 291.92,-187.5 392.92,-187.5 392.92,-168.5 291.92,-168.5"/>
<text text-anchor="middle" x="342.42" y="-175.5" font-family="Helvetica,sans-Serif" font-size="10.00">QMessageLogger</text>
</a>
</g>
</g>
<!-- Node1&#45;&gt;Node10 -->
<g id="edge10" class="edge">
<title>Node1&#45;&gt;Node10</title>
<path fill="none" stroke="midnightblue" d="M383.33,-224.08C376.27,-216.3 365.83,-204.8 357.27,-195.37"/>
<polygon fill="midnightblue" stroke="midnightblue" points="359.68,-192.8 350.36,-187.75 354.49,-197.51 359.68,-192.8"/>
</g>
<!-- Node11 -->
<g id="node11" class="node">
<title>Node11</title>
<g id="a_node11"><a xlink:title=" ">
<polygon fill="white" stroke="#bfbfbf" points="410.92,-168.5 410.92,-187.5 469.92,-187.5 469.92,-168.5 410.92,-168.5"/>
<text text-anchor="middle" x="440.42" y="-175.5" font-family="Helvetica,sans-Serif" font-size="10.00">QtDebug</text>
</a>
</g>
</g>
<!-- Node1&#45;&gt;Node11 -->
<g id="edge11" class="edge">
<title>Node1&#45;&gt;Node11</title>
<path fill="none" stroke="midnightblue" d="M399.51,-224.08C406.58,-216.3 417.01,-204.8 425.57,-195.37"/>
<polygon fill="midnightblue" stroke="midnightblue" points="428.35,-197.51 432.48,-187.75 423.17,-192.8 428.35,-197.51"/>
</g>
<!-- Node12 -->
<g id="node12" class="node">
<title>Node12</title>
<g id="a_node12"><a xlink:href="../../d8/d96/vdxfengine_8h.html" target="_top" xlink:title=" ">
<polygon fill="white" stroke="black" points="502.42,-168.5 502.42,-187.5 582.42,-187.5 582.42,-168.5 502.42,-168.5"/>
<text text-anchor="middle" x="542.42" y="-175.5" font-family="Helvetica,sans-Serif" font-size="10.00">vdxfengine.h</text>
</a>
</g>
</g>
<!-- Node1&#45;&gt;Node12 -->
<g id="edge12" class="edge">
<title>Node1&#45;&gt;Node12</title>
<path fill="none" stroke="midnightblue" d="M415.35,-224.44C440.64,-215.4 480.72,-201.06 509.1,-190.92"/>
<polygon fill="midnightblue" stroke="midnightblue" points="510.37,-194.18 518.61,-187.52 508.01,-187.59 510.37,-194.18"/>
</g>
<!-- Node3 -->
<g id="node3" class="node">
<title>Node3</title>
<g id="a_node3"><a xlink:title=" ">
<polygon fill="white" stroke="#bfbfbf" points="939.42,-56.5 939.42,-75.5 1059.42,-75.5 1059.42,-56.5 939.42,-56.5"/>
<text text-anchor="middle" x="999.42" y="-63.5" font-family="Helvetica,sans-Serif" font-size="10.00">qcompilerdetection.h</text>
</a>
</g>
</g>
<!-- Node2&#45;&gt;Node3 -->
<g id="edge2" class="edge">
<title>Node2&#45;&gt;Node3</title>
<path fill="none" stroke="midnightblue" d="M244.54,-171.64C349.11,-160.82 575.99,-136.96 592.42,-132 611.07,-126.37 612.79,-117.7 631.42,-112 756.29,-73.81 795.7,-91.72 929.03,-76.12"/>
<polygon fill="midnightblue" stroke="midnightblue" points="929.71,-79.57 939.22,-74.89 928.87,-72.62 929.71,-79.57"/>
</g>
<!-- Node4 -->
<g id="node4" class="node">
<title>Node4</title>
<g id="a_node4"><a xlink:title=" ">
<polygon fill="white" stroke="#bfbfbf" points="17.42,-112.5 17.42,-131.5 99.42,-131.5 99.42,-112.5 17.42,-112.5"/>
<text text-anchor="middle" x="58.42" y="-119.5" font-family="Helvetica,sans-Serif" font-size="10.00">QPaintDevice</text>
</a>
</g>
</g>
<!-- Node2&#45;&gt;Node4 -->
<g id="edge3" class="edge">
<title>Node2&#45;&gt;Node4</title>
<path fill="none" stroke="midnightblue" d="M171.19,-168.44C149.04,-159.52 114.1,-145.44 88.99,-135.32"/>
<polygon fill="midnightblue" stroke="midnightblue" points="90.14,-132.01 79.56,-131.52 87.52,-138.5 90.14,-132.01"/>
</g>
<!-- Node5 -->
<g id="node5" class="node">
<title>Node5</title>
<g id="a_node5"><a xlink:title=" ">
<polygon fill="white" stroke="#bfbfbf" points="155.42,-112.5 155.42,-131.5 199.42,-131.5 199.42,-112.5 155.42,-112.5"/>
<text text-anchor="middle" x="177.42" y="-119.5" font-family="Helvetica,sans-Serif" font-size="10.00">QSize</text>
</a>
</g>
</g>
<!-- Node2&#45;&gt;Node5 -->
<g id="edge4" class="edge">
<title>Node2&#45;&gt;Node5</title>
<path fill="none" stroke="midnightblue" d="M189.95,-168.08C187.94,-160.85 185.04,-150.41 182.53,-141.4"/>
<polygon fill="midnightblue" stroke="midnightblue" points="185.9,-140.45 179.85,-131.75 179.16,-142.32 185.9,-140.45"/>
</g>
<!-- Node6 -->
<g id="node6" class="node">
<title>Node6</title>
<g id="a_node6"><a xlink:title=" ">
<polygon fill="white" stroke="#bfbfbf" points="248.92,-56.5 248.92,-75.5 301.92,-75.5 301.92,-56.5 248.92,-56.5"/>
<text text-anchor="middle" x="275.42" y="-63.5" font-family="Helvetica,sans-Serif" font-size="10.00">QString</text>
</a>
</g>
</g>
<!-- Node2&#45;&gt;Node6 -->
<g id="edge5" class="edge">
<title>Node2&#45;&gt;Node6</title>
<path fill="none" stroke="midnightblue" d="M178.55,-168.37C160.29,-155.92 132.09,-132.18 146.42,-112 152.03,-104.11 202.89,-88 239.04,-77.35"/>
<polygon fill="midnightblue" stroke="midnightblue" points="240.18,-80.66 248.8,-74.5 238.22,-73.94 240.18,-80.66"/>
</g>
<!-- Node7 -->
<g id="node7" class="node">
<title>Node7</title>
<g id="a_node7"><a xlink:title=" ">
<polygon fill="white" stroke="#bfbfbf" points="171.92,-56.5 171.92,-75.5 230.92,-75.5 230.92,-56.5 171.92,-56.5"/>
<text text-anchor="middle" x="201.42" y="-63.5" font-family="Helvetica,sans-Serif" font-size="10.00">QtGlobal</text>
</a>
</g>
</g>
<!-- Node2&#45;&gt;Node7 -->
<g id="edge6" class="edge">
<title>Node2&#45;&gt;Node7</title>
<path fill="none" stroke="midnightblue" d="M140.3,-175.68C73.66,-172.1 -28.91,-159.04 8.42,-112 27.18,-88.36 110.85,-75.99 161.67,-70.54"/>
<polygon fill="midnightblue" stroke="midnightblue" points="162.08,-74.02 171.67,-69.51 161.36,-67.06 162.08,-74.02"/>
</g>
<!-- Node8 -->
<g id="node8" class="node">
<title>Node8</title>
<g id="a_node8"><a xlink:href="../../d7/de8/dxfdef_8h.html" target="_top" xlink:title=" ">
<polygon fill="white" stroke="black" points="217.42,-112.5 217.42,-131.5 273.42,-131.5 273.42,-112.5 217.42,-112.5"/>
<text text-anchor="middle" x="245.42" y="-119.5" font-family="Helvetica,sans-Serif" font-size="10.00">dxfdef.h</text>
</a>
</g>
</g>
<!-- Node2&#45;&gt;Node8 -->
<g id="edge7" class="edge">
<title>Node2&#45;&gt;Node8</title>
<path fill="none" stroke="midnightblue" d="M201.17,-168.08C208.89,-160.22 220.33,-148.57 229.64,-139.08"/>
<polygon fill="midnightblue" stroke="midnightblue" points="232.33,-141.34 236.83,-131.75 227.33,-136.44 232.33,-141.34"/>
</g>
<!-- Node9 -->
<g id="node9" class="node">
<title>Node9</title>
<g id="a_node9"><a xlink:title=" ">
<polygon fill="white" stroke="#bfbfbf" points="291.92,-112.5 291.92,-131.5 406.92,-131.5 406.92,-112.5 291.92,-112.5"/>
<text text-anchor="middle" x="349.42" y="-119.5" font-family="Helvetica,sans-Serif" font-size="10.00">libdxfrw/drw_base.h</text>
</a>
</g>
</g>
<!-- Node2&#45;&gt;Node9 -->
<g id="edge9" class="edge">
<title>Node2&#45;&gt;Node9</title>
<path fill="none" stroke="midnightblue" d="M217.3,-168.44C243.71,-159.36 285.64,-144.94 315.16,-134.78"/>
<polygon fill="midnightblue" stroke="midnightblue" points="316.34,-138.08 324.66,-131.52 314.07,-131.46 316.34,-138.08"/>
</g>
<!-- Node8&#45;&gt;Node7 -->
<g id="edge8" class="edge">
<title>Node8&#45;&gt;Node7</title>
<path fill="none" stroke="midnightblue" d="M238.16,-112.08C231.88,-104.38 222.63,-93.03 214.99,-83.65"/>
<polygon fill="midnightblue" stroke="midnightblue" points="217.58,-81.29 208.55,-75.75 212.16,-85.71 217.58,-81.29"/>
</g>
<!-- Node12&#45;&gt;Node3 -->
<g id="edge13" class="edge">
<title>Node12&#45;&gt;Node3</title>
<path fill="none" stroke="midnightblue" d="M582.77,-176.29C693.65,-173.94 996.76,-164.55 1026.42,-132 1039.08,-118.11 1026.78,-97.44 1014.95,-83.16"/>
<polygon fill="midnightblue" stroke="midnightblue" points="1017.48,-80.74 1008.22,-75.59 1012.24,-85.39 1017.48,-80.74"/>
</g>
<!-- Node12&#45;&gt;Node5 -->
<g id="edge18" class="edge">
<title>Node12&#45;&gt;Node5</title>
<path fill="none" stroke="midnightblue" d="M502.1,-171.18C494.57,-170.11 486.76,-169.01 479.42,-168 362.23,-151.85 329.06,-156.73 209.57,-131.97"/>
<polygon fill="midnightblue" stroke="midnightblue" points="210.18,-128.52 199.67,-129.89 208.74,-135.37 210.18,-128.52"/>
</g>
<!-- Node12&#45;&gt;Node6 -->
<g id="edge19" class="edge">
<title>Node12&#45;&gt;Node6</title>
<path fill="none" stroke="midnightblue" d="M532.57,-168.29C516.35,-154.4 482.52,-127.24 449.42,-112 446.24,-110.53 361.86,-88.97 311.79,-76.23"/>
<polygon fill="midnightblue" stroke="midnightblue" points="312.53,-72.81 301.97,-73.74 310.8,-79.59 312.53,-72.81"/>
</g>
<!-- Node12&#45;&gt;Node7 -->
<g id="edge20" class="edge">
<title>Node12&#45;&gt;Node7</title>
<path fill="none" stroke="midnightblue" d="M523.28,-168.38C504.29,-159.68 474.48,-145.62 449.42,-132 434.35,-123.81 432.39,-118.25 416.42,-112 344.98,-84.02 320.36,-92.25 241.15,-76.06"/>
<polygon fill="midnightblue" stroke="midnightblue" points="241.72,-72.6 231.22,-73.96 240.28,-79.45 241.72,-72.6"/>
</g>
<!-- Node12&#45;&gt;Node8 -->
<g id="edge35" class="edge">
<title>Node12&#45;&gt;Node8</title>
<path fill="none" stroke="midnightblue" d="M502.35,-170.81C451.33,-162.75 360.54,-147.82 283.42,-132 283.32,-131.98 283.22,-131.96 283.12,-131.94"/>
<polygon fill="midnightblue" stroke="midnightblue" points="284.12,-128.57 273.6,-129.87 282.63,-135.41 284.12,-128.57"/>
</g>
<!-- Node12&#45;&gt;Node9 -->
<g id="edge36" class="edge">
<title>Node12&#45;&gt;Node9</title>
<path fill="none" stroke="midnightblue" d="M511.84,-168.44C478.81,-159.2 426.03,-144.44 389.66,-134.26"/>
<polygon fill="midnightblue" stroke="midnightblue" points="390.43,-130.84 379.86,-131.52 388.55,-137.58 390.43,-130.84"/>
</g>
<!-- Node13 -->
<g id="node13" class="node">
<title>Node13</title>
<g id="a_node13"><a xlink:title=" ">
<polygon fill="white" stroke="#bfbfbf" points="639.92,-112.5 639.92,-131.5 712.92,-131.5 712.92,-112.5 639.92,-112.5"/>
<text text-anchor="middle" x="676.42" y="-119.5" font-family="Helvetica,sans-Serif" font-size="10.00">QTransform</text>
</a>
</g>
</g>
<!-- Node12&#45;&gt;Node13 -->
<g id="edge14" class="edge">
<title>Node12&#45;&gt;Node13</title>
<path fill="none" stroke="midnightblue" d="M563.66,-168.44C585.81,-159.52 620.74,-145.44 645.86,-135.32"/>
<polygon fill="midnightblue" stroke="midnightblue" points="647.32,-138.5 655.29,-131.52 644.71,-132.01 647.32,-138.5"/>
</g>
<!-- Node14 -->
<g id="node14" class="node">
<title>Node14</title>
<g id="a_node14"><a xlink:title=" ">
<polygon fill="white" stroke="#bfbfbf" points="730.92,-112.5 730.92,-131.5 811.92,-131.5 811.92,-112.5 730.92,-112.5"/>
<text text-anchor="middle" x="771.42" y="-119.5" font-family="Helvetica,sans-Serif" font-size="10.00">QPaintEngine</text>
</a>
</g>
</g>
<!-- Node12&#45;&gt;Node14 -->
<g id="edge15" class="edge">
<title>Node12&#45;&gt;Node14</title>
<path fill="none" stroke="midnightblue" d="M578.71,-168.44C618.41,-159.08 682.13,-144.06 725.33,-133.87"/>
<polygon fill="midnightblue" stroke="midnightblue" points="726.38,-137.22 735.31,-131.52 724.77,-130.41 726.38,-137.22"/>
</g>
<!-- Node15 -->
<g id="node15" class="node">
<title>Node15</title>
<g id="a_node15"><a xlink:title=" ">
<polygon fill="white" stroke="#bfbfbf" points="829.92,-112.5 829.92,-131.5 884.92,-131.5 884.92,-112.5 829.92,-112.5"/>
<text text-anchor="middle" x="857.42" y="-119.5" font-family="Helvetica,sans-Serif" font-size="10.00">QPointF</text>
</a>
</g>
</g>
<!-- Node12&#45;&gt;Node15 -->
<g id="edge16" class="edge">
<title>Node12&#45;&gt;Node15</title>
<path fill="none" stroke="midnightblue" d="M582.81,-171.59C635.29,-164.31 729.92,-150.37 819.52,-132.27"/>
<polygon fill="midnightblue" stroke="midnightblue" points="820.47,-135.64 829.57,-130.21 819.07,-128.78 820.47,-135.64"/>
</g>
<!-- Node16 -->
<g id="node16" class="node">
<title>Node16</title>
<g id="a_node16"><a xlink:title=" ">
<polygon fill="white" stroke="#bfbfbf" points="903.42,-112.5 903.42,-131.5 955.42,-131.5 955.42,-112.5 903.42,-112.5"/>
<text text-anchor="middle" x="929.42" y="-119.5" font-family="Helvetica,sans-Serif" font-size="10.00">QRectF</text>
</a>
</g>
</g>
<!-- Node12&#45;&gt;Node16 -->
<g id="edge17" class="edge">
<title>Node12&#45;&gt;Node16</title>
<path fill="none" stroke="midnightblue" d="M582.53,-173.51C646.35,-167.61 775.05,-154.25 893.19,-132.03"/>
<polygon fill="midnightblue" stroke="midnightblue" points="893.96,-135.45 903.13,-130.14 892.65,-128.57 893.96,-135.45"/>
</g>
<!-- Node17 -->
<g id="node17" class="node">
<title>Node17</title>
<g id="a_node17"><a xlink:title=" ">
<polygon fill="white" stroke="#bfbfbf" points="973.42,-112.5 973.42,-131.5 1017.42,-131.5 1017.42,-112.5 973.42,-112.5"/>
<text text-anchor="middle" x="995.42" y="-119.5" font-family="Helvetica,sans-Serif" font-size="10.00">string</text>
</a>
</g>
</g>
<!-- Node12&#45;&gt;Node17 -->
<g id="edge21" class="edge">
<title>Node12&#45;&gt;Node17</title>
<path fill="none" stroke="midnightblue" d="M582.63,-175.08C656.39,-171.04 818.32,-159.81 963.23,-131.91"/>
<polygon fill="midnightblue" stroke="midnightblue" points="964.05,-135.32 973.19,-129.96 962.7,-128.45 964.05,-135.32"/>
</g>
<!-- Node18 -->
<g id="node18" class="node">
<title>Node18</title>
<g id="a_node18"><a xlink:href="../../d4/da4/def_8h.html" target="_top" xlink:title=" ">
<polygon fill="white" stroke="black" points="501.42,-112.5 501.42,-131.5 583.42,-131.5 583.42,-112.5 501.42,-112.5"/>
<text text-anchor="middle" x="542.42" y="-119.5" font-family="Helvetica,sans-Serif" font-size="10.00">../vmisc/def.h</text>
</a>
</g>
</g>
<!-- Node12&#45;&gt;Node18 -->
<g id="edge22" class="edge">
<title>Node12&#45;&gt;Node18</title>
<path fill="none" stroke="midnightblue" d="M542.42,-168.08C542.42,-161.01 542.42,-150.86 542.42,-141.99"/>
<polygon fill="midnightblue" stroke="midnightblue" points="545.92,-141.75 542.42,-131.75 538.92,-141.75 545.92,-141.75"/>
</g>
<!-- Node18&#45;&gt;Node3 -->
<g id="edge23" class="edge">
<title>Node18&#45;&gt;Node3</title>
<path fill="none" stroke="midnightblue" d="M583.53,-114.02C588.21,-113.3 592.92,-112.61 597.42,-112 741.76,-92.4 780.94,-93.57 929.29,-76.11"/>
<polygon fill="midnightblue" stroke="midnightblue" points="929.7,-79.58 939.22,-74.93 928.88,-72.63 929.7,-79.58"/>
</g>
<!-- Node18&#45;&gt;Node6 -->
<g id="edge26" class="edge">
<title>Node18&#45;&gt;Node6</title>
<path fill="none" stroke="midnightblue" d="M501.39,-113.68C457.18,-105.65 384.53,-92.01 312.31,-76.1"/>
<polygon fill="midnightblue" stroke="midnightblue" points="312.64,-72.59 302.12,-73.84 311.13,-79.42 312.64,-72.59"/>
</g>
<!-- Node18&#45;&gt;Node7 -->
<g id="edge29" class="edge">
<title>Node18&#45;&gt;Node7</title>
<path fill="none" stroke="midnightblue" d="M501.22,-115.91C444.8,-108.71 340.15,-94.53 241.06,-75.99"/>
<polygon fill="midnightblue" stroke="midnightblue" points="241.66,-72.54 231.18,-74.12 240.36,-79.42 241.66,-72.54"/>
</g>
<!-- Node19 -->
<g id="node19" class="node">
<title>Node19</title>
<g id="a_node19"><a xlink:title=" ">
<polygon fill="white" stroke="#bfbfbf" points="643.92,-56.5 643.92,-75.5 716.92,-75.5 716.92,-56.5 643.92,-56.5"/>
<text text-anchor="middle" x="680.42" y="-63.5" font-family="Helvetica,sans-Serif" font-size="10.00">QFileDialog</text>
</a>
</g>
</g>
<!-- Node18&#45;&gt;Node19 -->
<g id="edge24" class="edge">
<title>Node18&#45;&gt;Node19</title>
<path fill="none" stroke="midnightblue" d="M564.29,-112.44C587.2,-103.48 623.4,-89.31 649.29,-79.18"/>
<polygon fill="midnightblue" stroke="midnightblue" points="650.62,-82.42 658.66,-75.52 648.07,-75.9 650.62,-82.42"/>
</g>
<!-- Node20 -->
<g id="node20" class="node">
<title>Node20</title>
<g id="a_node20"><a xlink:title=" ">
<polygon fill="white" stroke="#bfbfbf" points="735.42,-56.5 735.42,-75.5 785.42,-75.5 785.42,-56.5 735.42,-56.5"/>
<text text-anchor="middle" x="760.42" y="-63.5" font-family="Helvetica,sans-Serif" font-size="10.00">QLineF</text>
</a>
</g>
</g>
<!-- Node18&#45;&gt;Node20 -->
<g id="edge25" class="edge">
<title>Node18&#45;&gt;Node20</title>
<path fill="none" stroke="midnightblue" d="M578.09,-112.49C613.17,-104.07 668.49,-90.67 725.31,-76.25"/>
<polygon fill="midnightblue" stroke="midnightblue" points="726.36,-79.6 735.19,-73.74 724.63,-72.81 726.36,-79.6"/>
</g>
<!-- Node21 -->
<g id="node21" class="node">
<title>Node21</title>
<g id="a_node21"><a xlink:title=" ">
<polygon fill="white" stroke="#bfbfbf" points="803.42,-56.5 803.42,-75.5 873.42,-75.5 873.42,-56.5 803.42,-56.5"/>
<text text-anchor="middle" x="838.42" y="-63.5" font-family="Helvetica,sans-Serif" font-size="10.00">QStringList</text>
</a>
</g>
</g>
<!-- Node18&#45;&gt;Node21 -->
<g id="edge27" class="edge">
<title>Node18&#45;&gt;Node21</title>
<path fill="none" stroke="midnightblue" d="M583.51,-113.99C631.39,-105.75 713.16,-91.45 793.13,-76.21"/>
<polygon fill="midnightblue" stroke="midnightblue" points="794.21,-79.57 803.37,-74.25 792.89,-72.69 794.21,-79.57"/>
</g>
<!-- Node22 -->
<g id="node22" class="node">
<title>Node22</title>
<g id="a_node22"><a xlink:title=" ">
<polygon fill="white" stroke="#bfbfbf" points="891.92,-56.5 891.92,-75.5 920.92,-75.5 920.92,-56.5 891.92,-56.5"/>
<text text-anchor="middle" x="906.42" y="-63.5" font-family="Helvetica,sans-Serif" font-size="10.00">Qt</text>
</a>
</g>
</g>
<!-- Node18&#45;&gt;Node22 -->
<g id="edge28" class="edge">
<title>Node18&#45;&gt;Node22</title>
<path fill="none" stroke="midnightblue" d="M583.54,-114.1C588.22,-113.37 592.92,-112.65 597.42,-112 720.57,-94.15 756.65,-105.99 881.9,-75.54"/>
<polygon fill="midnightblue" stroke="midnightblue" points="883,-78.87 891.87,-73.07 881.32,-72.08 883,-78.87"/>
</g>
<!-- Node23 -->
<g id="node23" class="node">
<title>Node23</title>
<g id="a_node23"><a xlink:title=" ">
<polygon fill="white" stroke="#bfbfbf" points="320.42,-56.5 320.42,-75.5 376.42,-75.5 376.42,-56.5 320.42,-56.5"/>
<text text-anchor="middle" x="348.42" y="-63.5" font-family="Helvetica,sans-Serif" font-size="10.00">QPrinter</text>
</a>
</g>
</g>
<!-- Node18&#45;&gt;Node23 -->
<g id="edge30" class="edge">
<title>Node18&#45;&gt;Node23</title>
<path fill="none" stroke="midnightblue" d="M511.68,-112.44C477.7,-102.98 422.92,-87.74 386.31,-77.55"/>
<polygon fill="midnightblue" stroke="midnightblue" points="387.07,-74.12 376.5,-74.82 385.19,-80.87 387.07,-74.12"/>
</g>
<!-- Node24 -->
<g id="node24" class="node">
<title>Node24</title>
<g id="a_node24"><a xlink:title=" ">
<polygon fill="white" stroke="#bfbfbf" points="394.92,-56.5 394.92,-75.5 455.92,-75.5 455.92,-56.5 394.92,-56.5"/>
<text text-anchor="middle" x="425.42" y="-63.5" font-family="Helvetica,sans-Serif" font-size="10.00">QPixmap</text>
</a>
</g>
</g>
<!-- Node18&#45;&gt;Node24 -->
<g id="edge31" class="edge">
<title>Node18&#45;&gt;Node24</title>
<path fill="none" stroke="midnightblue" d="M523.88,-112.44C504.8,-103.64 474.85,-89.81 452.99,-79.72"/>
<polygon fill="midnightblue" stroke="midnightblue" points="454.42,-76.53 443.87,-75.52 451.49,-82.88 454.42,-76.53"/>
</g>
<!-- Node25 -->
<g id="node25" class="node">
<title>Node25</title>
<g id="a_node25"><a xlink:title=" ">
<polygon fill="white" stroke="#bfbfbf" points="473.92,-56.5 473.92,-75.5 524.92,-75.5 524.92,-56.5 473.92,-56.5"/>
<text text-anchor="middle" x="499.42" y="-63.5" font-family="Helvetica,sans-Serif" font-size="10.00">csignal</text>
</a>
</g>
</g>
<!-- Node18&#45;&gt;Node25 -->
<g id="edge32" class="edge">
<title>Node18&#45;&gt;Node25</title>
<path fill="none" stroke="midnightblue" d="M535.32,-112.08C529.19,-104.38 520.15,-93.03 512.68,-83.65"/>
<polygon fill="midnightblue" stroke="midnightblue" points="515.36,-81.39 506.39,-75.75 509.88,-85.75 515.36,-81.39"/>
</g>
<!-- Node26 -->
<g id="node26" class="node">
<title>Node26</title>
<g id="a_node26"><a xlink:href="../../d4/d82/debugbreak_8h.html" target="_top" xlink:title=" ">
<polygon fill="white" stroke="black" points="542.92,-56.5 542.92,-75.5 625.92,-75.5 625.92,-56.5 542.92,-56.5"/>
<text text-anchor="middle" x="584.42" y="-63.5" font-family="Helvetica,sans-Serif" font-size="10.00">debugbreak.h</text>
</a>
</g>
</g>
<!-- Node18&#45;&gt;Node26 -->
<g id="edge33" class="edge">
<title>Node18&#45;&gt;Node26</title>
<path fill="none" stroke="midnightblue" d="M549.36,-112.08C555.35,-104.38 564.17,-93.03 571.47,-83.65"/>
<polygon fill="midnightblue" stroke="midnightblue" points="574.24,-85.79 577.62,-75.75 568.71,-81.5 574.24,-85.79"/>
</g>
<!-- Node27 -->
<g id="node27" class="node">
<title>Node27</title>
<g id="a_node27"><a xlink:title=" ">
<polygon fill="white" stroke="#bfbfbf" points="556.92,-0.5 556.92,-19.5 611.92,-19.5 611.92,-0.5 556.92,-0.5"/>
<text text-anchor="middle" x="584.42" y="-7.5" font-family="Helvetica,sans-Serif" font-size="10.00">signal.h</text>
</a>
</g>
</g>
<!-- Node26&#45;&gt;Node27 -->
<g id="edge34" class="edge">
<title>Node26&#45;&gt;Node27</title>
<path fill="none" stroke="midnightblue" d="M584.42,-56.08C584.42,-49.01 584.42,-38.86 584.42,-29.99"/>
<polygon fill="midnightblue" stroke="midnightblue" points="587.92,-29.75 584.42,-19.75 580.92,-29.75 587.92,-29.75"/>
</g>
</g>
</svg>
        <g id="navigator" transform="translate(0 0)" fill="#404254">
                <rect fill="#f2f5e9" fill-opacity="0.5" stroke="#606060" stroke-width=".5" x="0" y="0" width="60" height="60"/>
                <use id="zoomplus" xlink:href="#zoomPlus" x="17" y="9" onmousedown="handleZoom(evt,'in')"/>
                <use id="zoomminus" xlink:href="#zoomMin" x="42" y="9" onmousedown="handleZoom(evt,'out')"/>
                <use id="reset" xlink:href="#resetDef" x="30" y="36" onmousedown="handleReset()"/>
                <g id="arrowUp" xlink:href="#dirArrow" transform="translate(30 24)" onmousedown="handlePan(0,-1)">
                  <use xlink:href="#rim" fill="#404040">
                        <set attributeName="fill" to="#808080" begin="arrowUp.mouseover" end="arrowUp.mouseout"/>
                  </use>
                  <path fill="none" stroke="white" stroke-width="1.5" d="M0,-3.0v7 M-2.5,-0.5L0,-3.0L2.5,-0.5"/>
                </g>
                <g id="arrowRight" xlink:href="#dirArrow" transform="rotate(90) translate(36 -43)" onmousedown="handlePan(1,0)">
                  <use xlink:href="#rim" fill="#404040">
                        <set attributeName="fill" to="#808080" begin="arrowRight.mouseover" end="arrowRight.mouseout"/>
                  </use>
                  <path fill="none" stroke="white" stroke-width="1.5" d="M0,-3.0v7 M-2.5,-0.5L0,-3.0L2.5,-0.5"/>
                </g>
                <g id="arrowDown" xlink:href="#dirArrow" transform="rotate(180) translate(-30 -48)" onmousedown="handlePan(0,1)">
                  <use xlink:href="#rim" fill="#404040">
                        <set attributeName="fill" to="#808080" begin="arrowDown.mouseover" end="arrowDown.mouseout"/>
                  </use>
                  <path fill="none" stroke="white" stroke-width="1.5" d="M0,-3.0v7 M-2.5,-0.5L0,-3.0L2.5,-0.5"/>
                </g>
                <g id="arrowLeft" xlink:href="#dirArrow" transform="rotate(270) translate(-36 17)" onmousedown="handlePan(-1,0)">
                  <use xlink:href="#rim" fill="#404040">
                        <set attributeName="fill" to="#808080" begin="arrowLeft.mouseover" end="arrowLeft.mouseout"/>
                  </use>
                  <path fill="none" stroke="white" stroke-width="1.5" d="M0,-3.0v7 M-2.5,-0.5L0,-3.0L2.5,-0.5"/>
                </g>
        </g>
        <svg viewBox="0 0 15 15" width="100%" height="30px" preserveAspectRatio="xMaxYMin meet">
         <g id="arrow_out" transform="scale(0.3 0.3)">
          <a xlink:href="vdxfpaintdevice_8cpp__incl_org.svg" target="_base">
           <rect id="button" ry="5" rx="5" y="6" x="6" height="38" width="38"
                fill="#f2f5e9" fill-opacity="0.5" stroke="#606060" stroke-width="1.0"/>
           <path id="arrow"
             d="M 11.500037,31.436501 C 11.940474,20.09759 22.043105,11.32322 32.158766,21.979434 L 37.068811,17.246167 C 37.068811,17.246167 37.088388,32 37.088388,32 L 22.160133,31.978069 C 22.160133,31.978069 26.997745,27.140456 26.997745,27.140456 C 18.528582,18.264221 13.291696,25.230495 11.500037,31.436501 z"
             style="fill:#404040;"/>
          </a>
         </g>
        </svg>
</svg>
