<?xml version="1.0" encoding="UTF-8" standalone="no"?>
<!DOCTYPE svg PUBLIC "-//W3C//DTD SVG 1.1//EN"
 "http://www.w3.org/Graphics/SVG/1.1/DTD/svg11.dtd">
<!-- Generated by graphviz version 2.43.0 (0)
 -->
<!-- Title: src/libs/vpatterndb/floatItemData/vpiecelabeldata.h Pages: 1 -->
<svg width="1437pt" height="229pt"
 viewBox="0.00 0.00 1437.00 229.00" xmlns="http://www.w3.org/2000/svg" xmlns:xlink="http://www.w3.org/1999/xlink">
<g id="graph0" class="graph" transform="scale(1 1) rotate(0) translate(4 225)">
<title>src/libs/vpatterndb/floatItemData/vpiecelabeldata.h</title>
<polygon fill="white" stroke="transparent" points="-4,4 -4,-225 1433,-225 1433,4 -4,4"/>
<!-- Node1 -->
<g id="node1" class="node">
<title>Node1</title>
<g id="a_node1"><a xlink:title=" ">
<polygon fill="#bfbfbf" stroke="black" points="423,-190.5 423,-220.5 600,-220.5 600,-190.5 423,-190.5"/>
<text text-anchor="start" x="431" y="-208.5" font-family="Helvetica,sans-Serif" font-size="10.00">src/libs/vpatterndb</text>
<text text-anchor="middle" x="511.5" y="-197.5" font-family="Helvetica,sans-Serif" font-size="10.00">/floatItemData/vpiecelabeldata.h</text>
</a>
</g>
</g>
<!-- Node2 -->
<g id="node2" class="node">
<title>Node2</title>
<g id="a_node2"><a xlink:href="../../d6/d2f/vlayoutpiece__p_8h.html" target="_top" xlink:title=" ">
<polygon fill="white" stroke="black" points="23,-129 23,-148 200,-148 200,-129 23,-129"/>
<text text-anchor="middle" x="111.5" y="-136" font-family="Helvetica,sans-Serif" font-size="10.00">src/libs/vlayout/vlayoutpiece_p.h</text>
</a>
</g>
</g>
<!-- Node1&#45;&gt;Node2 -->
<g id="edge1" class="edge">
<title>Node1&#45;&gt;Node2</title>
<path fill="none" stroke="midnightblue" d="M415.25,-188.86C336.36,-176.04 227.69,-158.38 163.98,-148.03"/>
<polygon fill="midnightblue" stroke="midnightblue" points="414.77,-192.33 425.2,-190.48 415.89,-185.42 414.77,-192.33"/>
</g>
<!-- Node3 -->
<g id="node3" class="node">
<title>Node3</title>
<g id="a_node3"><a xlink:href="../../dd/d70/vlayoutpiece_8cpp.html" target="_top" xlink:title=" ">
<polygon fill="white" stroke="black" points="0,-62 0,-81 177,-81 177,-62 0,-62"/>
<text text-anchor="middle" x="88.5" y="-69" font-family="Helvetica,sans-Serif" font-size="10.00">src/libs/vlayout/vlayoutpiece.cpp</text>
</a>
</g>
</g>
<!-- Node1&#45;&gt;Node3 -->
<g id="edge3" class="edge">
<title>Node1&#45;&gt;Node3</title>
<path fill="none" stroke="midnightblue" d="M441.22,-188.06C403.68,-178.86 356.81,-166.71 315.5,-154 239.06,-130.48 150.32,-96.69 110.19,-81.05"/>
<polygon fill="midnightblue" stroke="midnightblue" points="440.5,-191.49 451.05,-190.46 442.16,-184.69 440.5,-191.49"/>
</g>
<!-- Node4 -->
<g id="node4" class="node">
<title>Node4</title>
<g id="a_node4"><a xlink:href="../../d8/d70/vtextmanager_8cpp.html" target="_top" xlink:title=" ">
<polygon fill="white" stroke="black" points="324.5,-129 324.5,-148 506.5,-148 506.5,-129 324.5,-129"/>
<text text-anchor="middle" x="415.5" y="-136" font-family="Helvetica,sans-Serif" font-size="10.00">src/libs/vlayout/vtextmanager.cpp</text>
</a>
</g>
</g>
<!-- Node1&#45;&gt;Node4 -->
<g id="edge4" class="edge">
<title>Node1&#45;&gt;Node4</title>
<path fill="none" stroke="midnightblue" d="M482.17,-184.64C464.05,-172.37 441.73,-157.26 428.06,-148.01"/>
<polygon fill="midnightblue" stroke="midnightblue" points="480.43,-187.69 490.67,-190.4 484.35,-181.89 480.43,-187.69"/>
</g>
<!-- Node5 -->
<g id="node5" class="node">
<title>Node5</title>
<g id="a_node5"><a xlink:href="../../d6/de0/vlayoutpiece_8h.html" target="_top" xlink:title=" ">
<polygon fill="white" stroke="black" points="524.5,-129 524.5,-148 690.5,-148 690.5,-129 524.5,-129"/>
<text text-anchor="middle" x="607.5" y="-136" font-family="Helvetica,sans-Serif" font-size="10.00">src/libs/vlayout/vlayoutpiece.h</text>
</a>
</g>
</g>
<!-- Node1&#45;&gt;Node5 -->
<g id="edge5" class="edge">
<title>Node1&#45;&gt;Node5</title>
<path fill="none" stroke="midnightblue" d="M540.83,-184.64C558.95,-172.37 581.27,-157.26 594.94,-148.01"/>
<polygon fill="midnightblue" stroke="midnightblue" points="538.65,-181.89 532.33,-190.4 542.57,-187.69 538.65,-181.89"/>
</g>
<!-- Node14 -->
<g id="node14" class="node">
<title>Node14</title>
<g id="a_node14"><a xlink:href="../../de/d4a/vpiecelabeldata_8cpp.html" target="_top" xlink:title=" ">
<polygon fill="white" stroke="black" points="708.5,-123.5 708.5,-153.5 896.5,-153.5 896.5,-123.5 708.5,-123.5"/>
<text text-anchor="start" x="716.5" y="-141.5" font-family="Helvetica,sans-Serif" font-size="10.00">src/libs/vpatterndb</text>
<text text-anchor="middle" x="802.5" y="-130.5" font-family="Helvetica,sans-Serif" font-size="10.00">/floatItemData/vpiecelabeldata.cpp</text>
</a>
</g>
</g>
<!-- Node1&#45;&gt;Node14 -->
<g id="edge17" class="edge">
<title>Node1&#45;&gt;Node14</title>
<path fill="none" stroke="midnightblue" d="M584.26,-188.25C632.04,-177.58 693.92,-163.75 739.58,-153.55"/>
<polygon fill="midnightblue" stroke="midnightblue" points="583.28,-184.88 574.28,-190.48 584.81,-191.71 583.28,-184.88"/>
</g>
<!-- Node15 -->
<g id="node15" class="node">
<title>Node15</title>
<g id="a_node15"><a xlink:href="../../d8/da5/vpiece__p_8h.html" target="_top" xlink:title=" ">
<polygon fill="white" stroke="black" points="1118,-123.5 1118,-153.5 1225,-153.5 1225,-123.5 1118,-123.5"/>
<text text-anchor="start" x="1126" y="-141.5" font-family="Helvetica,sans-Serif" font-size="10.00">src/libs/vpatterndb</text>
<text text-anchor="middle" x="1171.5" y="-130.5" font-family="Helvetica,sans-Serif" font-size="10.00">/vpiece_p.h</text>
</a>
</g>
</g>
<!-- Node1&#45;&gt;Node15 -->
<g id="edge18" class="edge">
<title>Node1&#45;&gt;Node15</title>
<path fill="none" stroke="midnightblue" d="M610.15,-194.78C751.55,-180.86 1007.01,-155.7 1117.82,-144.79"/>
<polygon fill="midnightblue" stroke="midnightblue" points="609.78,-191.3 600.17,-195.77 610.46,-198.27 609.78,-191.3"/>
</g>
<!-- Node2&#45;&gt;Node3 -->
<g id="edge2" class="edge">
<title>Node2&#45;&gt;Node3</title>
<path fill="none" stroke="midnightblue" d="M105.06,-119.29C100.64,-106.81 94.98,-90.81 91.55,-81.13"/>
<polygon fill="midnightblue" stroke="midnightblue" points="101.76,-120.47 108.4,-128.73 108.36,-118.14 101.76,-120.47"/>
</g>
<!-- Node5&#45;&gt;Node3 -->
<g id="edge13" class="edge">
<title>Node5&#45;&gt;Node3</title>
<path fill="none" stroke="midnightblue" d="M545.95,-127.39C535.79,-125.84 525.36,-124.32 515.5,-123 369.7,-103.54 332.39,-105.77 186.5,-87 172.6,-85.21 157.61,-83.09 143.65,-81.03"/>
<polygon fill="midnightblue" stroke="midnightblue" points="545.57,-130.87 555.99,-128.94 546.64,-123.95 545.57,-130.87"/>
</g>
<!-- Node6 -->
<g id="node6" class="node">
<title>Node6</title>
<g id="a_node6"><a xlink:href="../../dd/d66/vdxfengine_8cpp.html" target="_top" xlink:title=" ">
<polygon fill="white" stroke="black" points="195.5,-62 195.5,-81 349.5,-81 349.5,-62 195.5,-62"/>
<text text-anchor="middle" x="272.5" y="-69" font-family="Helvetica,sans-Serif" font-size="10.00">src/libs/vdxf/vdxfengine.cpp</text>
</a>
</g>
</g>
<!-- Node5&#45;&gt;Node6 -->
<g id="edge6" class="edge">
<title>Node5&#45;&gt;Node6</title>
<path fill="none" stroke="midnightblue" d="M553.17,-126.96C487.23,-114.16 377.35,-92.84 316.47,-81.03"/>
<polygon fill="midnightblue" stroke="midnightblue" points="552.88,-130.47 563.36,-128.94 554.21,-123.59 552.88,-130.47"/>
</g>
<!-- Node7 -->
<g id="node7" class="node">
<title>Node7</title>
<g id="a_node7"><a xlink:href="../../de/da8/vbank_8cpp.html" target="_top" xlink:title=" ">
<polygon fill="white" stroke="black" points="367.5,-62 367.5,-81 511.5,-81 511.5,-62 367.5,-62"/>
<text text-anchor="middle" x="439.5" y="-69" font-family="Helvetica,sans-Serif" font-size="10.00">src/libs/vlayout/vbank.cpp</text>
</a>
</g>
</g>
<!-- Node5&#45;&gt;Node7 -->
<g id="edge7" class="edge">
<title>Node5&#45;&gt;Node7</title>
<path fill="none" stroke="midnightblue" d="M575.46,-125.1C542.11,-112.2 490.75,-92.33 461.63,-81.06"/>
<polygon fill="midnightblue" stroke="midnightblue" points="574.6,-128.52 585.19,-128.87 577.13,-122 574.6,-128.52"/>
</g>
<!-- Node8 -->
<g id="node8" class="node">
<title>Node8</title>
<g id="a_node8"><a xlink:href="../../df/d5d/vcontour_8cpp.html" target="_top" xlink:title=" ">
<polygon fill="white" stroke="black" points="529.5,-62 529.5,-81 685.5,-81 685.5,-62 529.5,-62"/>
<text text-anchor="middle" x="607.5" y="-69" font-family="Helvetica,sans-Serif" font-size="10.00">src/libs/vlayout/vcontour.cpp</text>
</a>
</g>
</g>
<!-- Node5&#45;&gt;Node8 -->
<g id="edge8" class="edge">
<title>Node5&#45;&gt;Node8</title>
<path fill="none" stroke="midnightblue" d="M607.5,-118.54C607.5,-106.17 607.5,-90.62 607.5,-81.13"/>
<polygon fill="midnightblue" stroke="midnightblue" points="604,-118.73 607.5,-128.73 611,-118.73 604,-118.73"/>
</g>
<!-- Node9 -->
<g id="node9" class="node">
<title>Node9</title>
<g id="a_node9"><a xlink:href="../../d3/d39/vlayoutgenerator_8cpp.html" target="_top" xlink:title=" ">
<polygon fill="white" stroke="black" points="704,-62 704,-81 901,-81 901,-62 704,-62"/>
<text text-anchor="middle" x="802.5" y="-69" font-family="Helvetica,sans-Serif" font-size="10.00">src/libs/vlayout/vlayoutgenerator.cpp</text>
</a>
</g>
</g>
<!-- Node5&#45;&gt;Node9 -->
<g id="edge9" class="edge">
<title>Node5&#45;&gt;Node9</title>
<path fill="none" stroke="midnightblue" d="M643.2,-125.6C681.86,-112.71 742.58,-92.47 776.81,-81.06"/>
<polygon fill="midnightblue" stroke="midnightblue" points="641.77,-122.39 633.39,-128.87 643.99,-129.03 641.77,-122.39"/>
</g>
<!-- Node10 -->
<g id="node10" class="node">
<title>Node10</title>
<g id="a_node10"><a xlink:href="../../d1/dd1/vlayoutpaper_8cpp.html" target="_top" xlink:title=" ">
<polygon fill="white" stroke="black" points="956.5,-0.5 956.5,-19.5 1134.5,-19.5 1134.5,-0.5 956.5,-0.5"/>
<text text-anchor="middle" x="1045.5" y="-7.5" font-family="Helvetica,sans-Serif" font-size="10.00">src/libs/vlayout/vlayoutpaper.cpp</text>
</a>
</g>
</g>
<!-- Node5&#45;&gt;Node10 -->
<g id="edge10" class="edge">
<title>Node5&#45;&gt;Node10</title>
<path fill="none" stroke="midnightblue" d="M670.63,-127.35C757.54,-113.31 904.05,-89.43 909.5,-87 929.73,-78 929.66,-67.63 948.5,-56 972.83,-40.98 1002.99,-27.75 1023.16,-19.59"/>
<polygon fill="midnightblue" stroke="midnightblue" points="669.91,-123.92 660.6,-128.97 671.03,-130.83 669.91,-123.92"/>
</g>
<!-- Node11 -->
<g id="node11" class="node">
<title>Node11</title>
<g id="a_node11"><a xlink:href="../../d2/d2d/vlayoutpaper__p_8h.html" target="_top" xlink:title=" ">
<polygon fill="white" stroke="black" points="958,-62 958,-81 1137,-81 1137,-62 958,-62"/>
<text text-anchor="middle" x="1047.5" y="-69" font-family="Helvetica,sans-Serif" font-size="10.00">src/libs/vlayout/vlayoutpaper_p.h</text>
</a>
</g>
</g>
<!-- Node5&#45;&gt;Node11 -->
<g id="edge11" class="edge">
<title>Node5&#45;&gt;Node11</title>
<path fill="none" stroke="midnightblue" d="M670.89,-127.41C680.47,-125.91 690.24,-124.4 699.5,-123 800.3,-107.74 917.68,-90.9 987.11,-81.03"/>
<polygon fill="midnightblue" stroke="midnightblue" points="670.33,-123.95 661,-128.96 671.42,-130.87 670.33,-123.95"/>
</g>
<!-- Node12 -->
<g id="node12" class="node">
<title>Node12</title>
<g id="a_node12"><a xlink:href="../../db/d5c/vposition_8h.html" target="_top" xlink:title=" ">
<polygon fill="white" stroke="black" points="1155.5,-62 1155.5,-81 1303.5,-81 1303.5,-62 1155.5,-62"/>
<text text-anchor="middle" x="1229.5" y="-69" font-family="Helvetica,sans-Serif" font-size="10.00">src/libs/vlayout/vposition.h</text>
</a>
</g>
</g>
<!-- Node5&#45;&gt;Node12 -->
<g id="edge14" class="edge">
<title>Node5&#45;&gt;Node12</title>
<path fill="none" stroke="midnightblue" d="M667.21,-127.42C677.94,-125.8 689.04,-124.25 699.5,-123 896.97,-99.5 948.2,-111.94 1145.5,-87 1158.27,-85.39 1172.07,-83.19 1184.71,-81"/>
<polygon fill="midnightblue" stroke="midnightblue" points="666.41,-124 657.06,-128.98 667.48,-130.92 666.41,-124"/>
</g>
<!-- Node11&#45;&gt;Node10 -->
<g id="edge12" class="edge">
<title>Node11&#45;&gt;Node10</title>
<path fill="none" stroke="midnightblue" d="M1046.87,-51.82C1046.51,-41 1046.07,-27.9 1045.79,-19.51"/>
<polygon fill="midnightblue" stroke="midnightblue" points="1043.38,-52.1 1047.21,-61.98 1050.38,-51.86 1043.38,-52.1"/>
</g>
<!-- Node12&#45;&gt;Node10 -->
<g id="edge15" class="edge">
<title>Node12&#45;&gt;Node10</title>
<path fill="none" stroke="midnightblue" d="M1193.57,-58.88C1157.8,-47.32 1103.76,-29.84 1071.81,-19.51"/>
<polygon fill="midnightblue" stroke="midnightblue" points="1192.55,-62.23 1203.14,-61.98 1194.7,-55.57 1192.55,-62.23"/>
</g>
<!-- Node13 -->
<g id="node13" class="node">
<title>Node13</title>
<g id="a_node13"><a xlink:href="../../df/d76/vposition_8cpp.html" target="_top" xlink:title=" ">
<polygon fill="white" stroke="black" points="1152,-0.5 1152,-19.5 1311,-19.5 1311,-0.5 1152,-0.5"/>
<text text-anchor="middle" x="1231.5" y="-7.5" font-family="Helvetica,sans-Serif" font-size="10.00">src/libs/vlayout/vposition.cpp</text>
</a>
</g>
</g>
<!-- Node12&#45;&gt;Node13 -->
<g id="edge16" class="edge">
<title>Node12&#45;&gt;Node13</title>
<path fill="none" stroke="midnightblue" d="M1230.13,-51.82C1230.49,-41 1230.93,-27.9 1231.21,-19.51"/>
<polygon fill="midnightblue" stroke="midnightblue" points="1226.62,-51.86 1229.79,-61.98 1233.62,-52.1 1226.62,-51.86"/>
</g>
<!-- Node16 -->
<g id="node16" class="node">
<title>Node16</title>
<g id="a_node16"><a xlink:href="../../df/d7a/vpiece_8cpp.html" target="_top" xlink:title=" ">
<polygon fill="white" stroke="black" points="1322,-56.5 1322,-86.5 1429,-86.5 1429,-56.5 1322,-56.5"/>
<text text-anchor="start" x="1330" y="-74.5" font-family="Helvetica,sans-Serif" font-size="10.00">src/libs/vpatterndb</text>
<text text-anchor="middle" x="1375.5" y="-63.5" font-family="Helvetica,sans-Serif" font-size="10.00">/vpiece.cpp</text>
</a>
</g>
</g>
<!-- Node15&#45;&gt;Node16 -->
<g id="edge19" class="edge">
<title>Node15&#45;&gt;Node16</title>
<path fill="none" stroke="midnightblue" d="M1225.46,-120.31C1258.46,-109.79 1300.16,-96.51 1331.21,-86.61"/>
<polygon fill="midnightblue" stroke="midnightblue" points="1223.98,-117.11 1215.51,-123.48 1226.1,-123.77 1223.98,-117.11"/>
</g>
</g>
</svg>
