<?xml version="1.0" encoding="UTF-8" standalone="no"?>
<!DOCTYPE svg PUBLIC "-//W3C//DTD SVG 1.1//EN"
 "http://www.w3.org/Graphics/SVG/1.1/DTD/svg11.dtd">
<!-- Generated by graphviz version 2.43.0 (0)
 -->
<!-- Title: src/libs/ifc/xml/vpatternconverter.cpp Pages: 1 -->
<svg width="2354pt" height="364pt"
 viewBox="0.00 0.00 2354.00 364.00" xmlns="http://www.w3.org/2000/svg" xmlns:xlink="http://www.w3.org/1999/xlink">
<g id="graph0" class="graph" transform="scale(1 1) rotate(0) translate(4 360)">
<title>src/libs/ifc/xml/vpatternconverter.cpp</title>
<polygon fill="white" stroke="transparent" points="-4,4 -4,-360 2350,-360 2350,4 -4,4"/>
<!-- Node1 -->
<g id="node1" class="node">
<title>Node1</title>
<g id="a_node1"><a xlink:title=" ">
<polygon fill="#bfbfbf" stroke="black" points="1521,-336.5 1521,-355.5 1719,-355.5 1719,-336.5 1521,-336.5"/>
<text text-anchor="middle" x="1620" y="-343.5" font-family="Helvetica,sans-Serif" font-size="10.00">src/libs/ifc/xml/vpatternconverter.cpp</text>
</a>
</g>
</g>
<!-- Node2 -->
<g id="node2" class="node">
<title>Node2</title>
<g id="a_node2"><a xlink:href="../../df/d2f/vpatternconverter_8h.html" target="_top" xlink:title=" ">
<polygon fill="white" stroke="black" points="909.5,-224.5 909.5,-243.5 1022.5,-243.5 1022.5,-224.5 909.5,-224.5"/>
<text text-anchor="middle" x="966" y="-231.5" font-family="Helvetica,sans-Serif" font-size="10.00">vpatternconverter.h</text>
</a>
</g>
</g>
<!-- Node1&#45;&gt;Node2 -->
<g id="edge1" class="edge">
<title>Node1&#45;&gt;Node2</title>
<path fill="none" stroke="midnightblue" d="M1566.81,-336.47C1511.21,-327.52 1421.45,-312.97 1344,-300 1231.1,-281.09 1099.37,-258.26 1025.01,-245.31"/>
<polygon fill="midnightblue" stroke="midnightblue" points="1025.36,-241.82 1014.91,-243.55 1024.16,-248.71 1025.36,-241.82"/>
</g>
<!-- Node8 -->
<g id="node8" class="node">
<title>Node8</title>
<g id="a_node8"><a xlink:title=" ">
<polygon fill="white" stroke="#bfbfbf" points="894.5,-56.5 894.5,-75.5 947.5,-75.5 947.5,-56.5 894.5,-56.5"/>
<text text-anchor="middle" x="921" y="-63.5" font-family="Helvetica,sans-Serif" font-size="10.00">QString</text>
</a>
</g>
</g>
<!-- Node1&#45;&gt;Node8 -->
<g id="edge73" class="edge">
<title>Node1&#45;&gt;Node8</title>
<path fill="none" stroke="midnightblue" d="M1520.99,-342.6C1347.17,-336.55 996.41,-315.57 900,-244 871.1,-222.54 863.94,-203.08 872,-168 879.21,-136.64 897.5,-103.72 909.58,-84.3"/>
<polygon fill="midnightblue" stroke="midnightblue" points="912.65,-85.99 915.09,-75.68 906.75,-82.22 912.65,-85.99"/>
</g>
<!-- Node12 -->
<g id="node12" class="node">
<title>Node12</title>
<g id="a_node12"><a xlink:href="../../d0/da1/abstract__converter_8h.html" target="_top" xlink:title=" ">
<polygon fill="white" stroke="black" points="1079,-168.5 1079,-187.5 1195,-187.5 1195,-168.5 1079,-168.5"/>
<text text-anchor="middle" x="1137" y="-175.5" font-family="Helvetica,sans-Serif" font-size="10.00">abstract_converter.h</text>
</a>
</g>
</g>
<!-- Node1&#45;&gt;Node12 -->
<g id="edge31" class="edge">
<title>Node1&#45;&gt;Node12</title>
<path fill="none" stroke="midnightblue" d="M1595.05,-336.42C1514.89,-308.88 1263.81,-222.58 1171.5,-190.86"/>
<polygon fill="midnightblue" stroke="midnightblue" points="1172.4,-187.46 1161.8,-187.52 1170.12,-194.08 1172.4,-187.46"/>
</g>
<!-- Node16 -->
<g id="node16" class="node">
<title>Node16</title>
<g id="a_node16"><a xlink:title=" ">
<polygon fill="white" stroke="#bfbfbf" points="1679.5,-56.5 1679.5,-75.5 1752.5,-75.5 1752.5,-56.5 1679.5,-56.5"/>
<text text-anchor="middle" x="1716" y="-63.5" font-family="Helvetica,sans-Serif" font-size="10.00">QDomNode</text>
</a>
</g>
</g>
<!-- Node1&#45;&gt;Node16 -->
<g id="edge66" class="edge">
<title>Node1&#45;&gt;Node16</title>
<path fill="none" stroke="midnightblue" d="M1590.09,-336.43C1570.62,-329.46 1545.97,-317.83 1530,-300 1509.45,-277.06 1506,-265.8 1506,-235 1506,-235 1506,-235 1506,-177 1506,-146.2 1507,-132.47 1530,-112 1535.29,-107.29 1616.05,-88.89 1669.4,-77.13"/>
<polygon fill="midnightblue" stroke="midnightblue" points="1670.33,-80.51 1679.34,-74.94 1668.82,-73.67 1670.33,-80.51"/>
</g>
<!-- Node18 -->
<g id="node18" class="node">
<title>Node18</title>
<g id="a_node18"><a xlink:title=" ">
<polygon fill="white" stroke="#bfbfbf" points="1770.5,-56.5 1770.5,-75.5 1853.5,-75.5 1853.5,-56.5 1770.5,-56.5"/>
<text text-anchor="middle" x="1812" y="-63.5" font-family="Helvetica,sans-Serif" font-size="10.00">QLatin1String</text>
</a>
</g>
</g>
<!-- Node1&#45;&gt;Node18 -->
<g id="edge71" class="edge">
<title>Node1&#45;&gt;Node18</title>
<path fill="none" stroke="midnightblue" d="M1606.8,-336.46C1595.16,-328.33 1578.47,-315.12 1568,-300 1550.47,-274.68 1544,-265.8 1544,-235 1544,-235 1544,-235 1544,-177 1544,-146.2 1544.44,-131.83 1568,-112 1568.93,-111.22 1688.73,-89.37 1760.1,-76.41"/>
<polygon fill="midnightblue" stroke="midnightblue" points="1761.04,-79.8 1770.26,-74.57 1759.79,-72.91 1761.04,-79.8"/>
</g>
<!-- Node21 -->
<g id="node21" class="node">
<title>Node21</title>
<g id="a_node21"><a xlink:title=" ">
<polygon fill="white" stroke="#bfbfbf" points="1872,-56.5 1872,-75.5 1954,-75.5 1954,-56.5 1872,-56.5"/>
<text text-anchor="middle" x="1913" y="-63.5" font-family="Helvetica,sans-Serif" font-size="10.00">../vmisc/def.h</text>
</a>
</g>
</g>
<!-- Node1&#45;&gt;Node21 -->
<g id="edge63" class="edge">
<title>Node1&#45;&gt;Node21</title>
<path fill="none" stroke="midnightblue" d="M1614.72,-336.23C1604.27,-318.04 1582,-274.6 1582,-235 1582,-235 1582,-235 1582,-177 1582,-146.2 1582.02,-131.32 1606,-112 1648.72,-77.59 1791.17,-84.31 1861.57,-75.96"/>
<polygon fill="midnightblue" stroke="midnightblue" points="1862.39,-79.38 1871.82,-74.54 1861.44,-72.44 1862.39,-79.38"/>
</g>
<!-- Node23 -->
<g id="node23" class="node">
<title>Node23</title>
<g id="a_node23"><a xlink:title=" ">
<polygon fill="white" stroke="#bfbfbf" points="1972.5,-56.5 1972.5,-75.5 2075.5,-75.5 2075.5,-56.5 1972.5,-56.5"/>
<text text-anchor="middle" x="2024" y="-63.5" font-family="Helvetica,sans-Serif" font-size="10.00">../vmisc/logging.h</text>
</a>
</g>
</g>
<!-- Node1&#45;&gt;Node23 -->
<g id="edge64" class="edge">
<title>Node1&#45;&gt;Node23</title>
<path fill="none" stroke="midnightblue" d="M1620,-336.44C1620,-317.94 1620,-272.81 1620,-235 1620,-235 1620,-235 1620,-177 1620,-141.9 1850.03,-97.14 1962.94,-77.28"/>
<polygon fill="midnightblue" stroke="midnightblue" points="1963.58,-80.72 1972.83,-75.55 1962.38,-73.83 1963.58,-80.72"/>
</g>
<!-- Node24 -->
<g id="node24" class="node">
<title>Node24</title>
<g id="a_node24"><a xlink:href="../../d1/d44/vexception_8h.html" target="_top" xlink:title=" ">
<polygon fill="white" stroke="black" points="529,-224.5 529,-243.5 669,-243.5 669,-224.5 529,-224.5"/>
<text text-anchor="middle" x="599" y="-231.5" font-family="Helvetica,sans-Serif" font-size="10.00">../exception/vexception.h</text>
</a>
</g>
</g>
<!-- Node1&#45;&gt;Node24 -->
<g id="edge32" class="edge">
<title>Node1&#45;&gt;Node24</title>
<path fill="none" stroke="midnightblue" d="M1520.8,-344.39C1266.57,-342.33 609.32,-333.75 577,-300 564.44,-286.89 574.63,-266.36 584.93,-251.88"/>
<polygon fill="midnightblue" stroke="midnightblue" points="587.84,-253.84 591.16,-243.78 582.29,-249.57 587.84,-253.84"/>
</g>
<!-- Node37 -->
<g id="node37" class="node">
<title>Node37</title>
<g id="a_node37"><a xlink:href="../../d2/d18/vexceptionemptyparameter_8h.html" target="_top" xlink:title=" ">
<polygon fill="white" stroke="black" points="586.5,-280.5 586.5,-299.5 807.5,-299.5 807.5,-280.5 586.5,-280.5"/>
<text text-anchor="middle" x="697" y="-287.5" font-family="Helvetica,sans-Serif" font-size="10.00">../exception/vexceptionemptyparameter.h</text>
</a>
</g>
</g>
<!-- Node1&#45;&gt;Node37 -->
<g id="edge56" class="edge">
<title>Node1&#45;&gt;Node37</title>
<path fill="none" stroke="midnightblue" d="M1520.76,-339.9C1369.81,-332.03 1073.51,-316.14 822,-300 820.69,-299.92 819.37,-299.83 818.04,-299.74"/>
<polygon fill="midnightblue" stroke="midnightblue" points="817.96,-296.23 807.75,-299.07 817.5,-303.22 817.96,-296.23"/>
</g>
<!-- Node38 -->
<g id="node38" class="node">
<title>Node38</title>
<g id="a_node38"><a xlink:title=" ">
<polygon fill="white" stroke="#bfbfbf" points="1647.5,-280.5 1647.5,-299.5 1816.5,-299.5 1816.5,-280.5 1647.5,-280.5"/>
<text text-anchor="middle" x="1732" y="-287.5" font-family="Helvetica,sans-Serif" font-size="10.00">../qmuparser/qmutokenparser.h</text>
</a>
</g>
</g>
<!-- Node1&#45;&gt;Node38 -->
<g id="edge62" class="edge">
<title>Node1&#45;&gt;Node38</title>
<path fill="none" stroke="midnightblue" d="M1637.99,-336.32C1656.04,-327.62 1684.05,-314.12 1704.8,-304.11"/>
<polygon fill="midnightblue" stroke="midnightblue" points="1706.56,-307.15 1714.05,-299.65 1703.52,-300.84 1706.56,-307.15"/>
</g>
<!-- Node39 -->
<g id="node39" class="node">
<title>Node39</title>
<g id="a_node39"><a xlink:title=" ">
<polygon fill="white" stroke="#bfbfbf" points="1834,-280.5 1834,-299.5 1872,-299.5 1872,-280.5 1834,-280.5"/>
<text text-anchor="middle" x="1853" y="-287.5" font-family="Helvetica,sans-Serif" font-size="10.00">QDir</text>
</a>
</g>
</g>
<!-- Node1&#45;&gt;Node39 -->
<g id="edge65" class="edge">
<title>Node1&#45;&gt;Node39</title>
<path fill="none" stroke="midnightblue" d="M1665.75,-336.46C1705.51,-328.72 1764.8,-316.39 1824.02,-300.36"/>
<polygon fill="midnightblue" stroke="midnightblue" points="1825.18,-303.67 1833.9,-297.65 1823.33,-296.92 1825.18,-303.67"/>
</g>
<!-- Node40 -->
<g id="node40" class="node">
<title>Node40</title>
<g id="a_node40"><a xlink:title=" ">
<polygon fill="white" stroke="#bfbfbf" points="1890,-280.5 1890,-299.5 1980,-299.5 1980,-280.5 1890,-280.5"/>
<text text-anchor="middle" x="1935" y="-287.5" font-family="Helvetica,sans-Serif" font-size="10.00">QDomNodeList</text>
</a>
</g>
</g>
<!-- Node1&#45;&gt;Node40 -->
<g id="edge67" class="edge">
<title>Node1&#45;&gt;Node40</title>
<path fill="none" stroke="midnightblue" d="M1669.91,-336.44C1727.15,-326.63 1820.69,-310.6 1879.98,-300.43"/>
<polygon fill="midnightblue" stroke="midnightblue" points="1880.65,-303.87 1889.91,-298.73 1879.47,-296.97 1880.65,-303.87"/>
</g>
<!-- Node41 -->
<g id="node41" class="node">
<title>Node41</title>
<g id="a_node41"><a xlink:title=" ">
<polygon fill="white" stroke="#bfbfbf" points="1998,-280.5 1998,-299.5 2066,-299.5 2066,-280.5 1998,-280.5"/>
<text text-anchor="middle" x="2032" y="-287.5" font-family="Helvetica,sans-Serif" font-size="10.00">QDomText</text>
</a>
</g>
</g>
<!-- Node1&#45;&gt;Node41 -->
<g id="edge68" class="edge">
<title>Node1&#45;&gt;Node41</title>
<path fill="none" stroke="midnightblue" d="M1707.16,-336.48C1779.7,-328.9 1885.9,-316.69 1987.64,-300.11"/>
<polygon fill="midnightblue" stroke="midnightblue" points="1988.48,-303.51 1997.78,-298.44 1987.35,-296.61 1988.48,-303.51"/>
</g>
<!-- Node42 -->
<g id="node42" class="node">
<title>Node42</title>
<g id="a_node42"><a xlink:title=" ">
<polygon fill="white" stroke="#bfbfbf" points="2084.5,-280.5 2084.5,-299.5 2125.5,-299.5 2125.5,-280.5 2084.5,-280.5"/>
<text text-anchor="middle" x="2105" y="-287.5" font-family="Helvetica,sans-Serif" font-size="10.00">QFile</text>
</a>
</g>
</g>
<!-- Node1&#45;&gt;Node42 -->
<g id="edge69" class="edge">
<title>Node1&#45;&gt;Node42</title>
<path fill="none" stroke="midnightblue" d="M1719.32,-340.7C1809.69,-335.52 1946.73,-324.5 2074.51,-299.69"/>
<polygon fill="midnightblue" stroke="midnightblue" points="2075.34,-303.1 2084.47,-297.73 2073.99,-296.23 2075.34,-303.1"/>
</g>
<!-- Node43 -->
<g id="node43" class="node">
<title>Node43</title>
<g id="a_node43"><a xlink:title=" ">
<polygon fill="white" stroke="#bfbfbf" points="2144,-280.5 2144,-299.5 2204,-299.5 2204,-280.5 2144,-280.5"/>
<text text-anchor="middle" x="2174" y="-287.5" font-family="Helvetica,sans-Serif" font-size="10.00">QFileInfo</text>
</a>
</g>
</g>
<!-- Node1&#45;&gt;Node43 -->
<g id="edge70" class="edge">
<title>Node1&#45;&gt;Node43</title>
<path fill="none" stroke="midnightblue" d="M1719.23,-340.45C1820.97,-334.84 1983.87,-323.27 2133.55,-300.02"/>
<polygon fill="midnightblue" stroke="midnightblue" points="2134.51,-303.41 2143.85,-298.4 2133.43,-296.49 2134.51,-303.41"/>
</g>
<!-- Node44 -->
<g id="node44" class="node">
<title>Node44</title>
<g id="a_node44"><a xlink:title=" ">
<polygon fill="white" stroke="#bfbfbf" points="2222.5,-280.5 2222.5,-299.5 2263.5,-299.5 2263.5,-280.5 2222.5,-280.5"/>
<text text-anchor="middle" x="2243" y="-287.5" font-family="Helvetica,sans-Serif" font-size="10.00">QList</text>
</a>
</g>
</g>
<!-- Node1&#45;&gt;Node44 -->
<g id="edge72" class="edge">
<title>Node1&#45;&gt;Node44</title>
<path fill="none" stroke="midnightblue" d="M1719.21,-343.98C1835.52,-341.33 2033.99,-332.22 2212.65,-299.61"/>
<polygon fill="midnightblue" stroke="midnightblue" points="2213.29,-303.05 2222.49,-297.79 2212.02,-296.17 2213.29,-303.05"/>
</g>
<!-- Node45 -->
<g id="node45" class="node">
<title>Node45</title>
<g id="a_node45"><a xlink:title=" ">
<polygon fill="white" stroke="#bfbfbf" points="2282,-280.5 2282,-299.5 2346,-299.5 2346,-280.5 2282,-280.5"/>
<text text-anchor="middle" x="2314" y="-287.5" font-family="Helvetica,sans-Serif" font-size="10.00">algorithm</text>
</a>
</g>
</g>
<!-- Node1&#45;&gt;Node45 -->
<g id="edge74" class="edge">
<title>Node1&#45;&gt;Node45</title>
<path fill="none" stroke="midnightblue" d="M1719.21,-342.7C1845.47,-338.76 2070.36,-328.32 2271.68,-299.98"/>
<polygon fill="midnightblue" stroke="midnightblue" points="2272.45,-303.4 2281.85,-298.53 2271.46,-296.47 2272.45,-303.4"/>
</g>
<!-- Node3 -->
<g id="node3" class="node">
<title>Node3</title>
<g id="a_node3"><a xlink:title=" ">
<polygon fill="white" stroke="#bfbfbf" points="0,-56.5 0,-75.5 120,-75.5 120,-56.5 0,-56.5"/>
<text text-anchor="middle" x="60" y="-63.5" font-family="Helvetica,sans-Serif" font-size="10.00">qcompilerdetection.h</text>
</a>
</g>
</g>
<!-- Node2&#45;&gt;Node3 -->
<g id="edge2" class="edge">
<title>Node2&#45;&gt;Node3</title>
<path fill="none" stroke="midnightblue" d="M909.29,-229.69C826.68,-224.27 668.64,-211.67 536,-188 370.17,-158.41 176.82,-102.43 97.18,-78.41"/>
<polygon fill="midnightblue" stroke="midnightblue" points="98.18,-75.06 87.59,-75.51 96.15,-81.76 98.18,-75.06"/>
</g>
<!-- Node4 -->
<g id="node4" class="node">
<title>Node4</title>
<g id="a_node4"><a xlink:title=" ">
<polygon fill="white" stroke="#bfbfbf" points="965.5,-56.5 965.5,-75.5 1066.5,-75.5 1066.5,-56.5 965.5,-56.5"/>
<text text-anchor="middle" x="1016" y="-63.5" font-family="Helvetica,sans-Serif" font-size="10.00">QCoreApplication</text>
</a>
</g>
</g>
<!-- Node2&#45;&gt;Node4 -->
<g id="edge3" class="edge">
<title>Node2&#45;&gt;Node4</title>
<path fill="none" stroke="midnightblue" d="M1022.73,-231.87C1093.95,-229.12 1210.09,-219.74 1237,-188 1258.84,-162.23 1258.37,-138.16 1237,-112 1231.83,-105.68 1139.55,-88.48 1075.89,-77.27"/>
<polygon fill="midnightblue" stroke="midnightblue" points="1076.39,-73.81 1065.93,-75.53 1075.18,-80.7 1076.39,-73.81"/>
</g>
<!-- Node5 -->
<g id="node5" class="node">
<title>Node5</title>
<g id="a_node5"><a xlink:title=" ">
<polygon fill="white" stroke="#bfbfbf" points="1085,-56.5 1085,-75.5 1173,-75.5 1173,-56.5 1085,-56.5"/>
<text text-anchor="middle" x="1129" y="-63.5" font-family="Helvetica,sans-Serif" font-size="10.00">QDomElement</text>
</a>
</g>
</g>
<!-- Node2&#45;&gt;Node5 -->
<g id="edge4" class="edge">
<title>Node2&#45;&gt;Node5</title>
<path fill="none" stroke="midnightblue" d="M1022.82,-230.5C1125.06,-225.4 1331.44,-212.22 1353,-188 1358.91,-181.36 1357.41,-175.72 1353,-168 1333.6,-134.04 1227.04,-96.9 1168.15,-78.57"/>
<polygon fill="midnightblue" stroke="midnightblue" points="1169.03,-75.18 1158.44,-75.58 1166.97,-81.87 1169.03,-75.18"/>
</g>
<!-- Node6 -->
<g id="node6" class="node">
<title>Node6</title>
<g id="a_node6"><a xlink:title=" ">
<polygon fill="white" stroke="#bfbfbf" points="881.5,-168.5 881.5,-187.5 926.5,-187.5 926.5,-168.5 881.5,-168.5"/>
<text text-anchor="middle" x="904" y="-175.5" font-family="Helvetica,sans-Serif" font-size="10.00">QMap</text>
</a>
</g>
</g>
<!-- Node2&#45;&gt;Node6 -->
<g id="edge5" class="edge">
<title>Node2&#45;&gt;Node6</title>
<path fill="none" stroke="midnightblue" d="M956.04,-224.32C946.87,-216.34 933.06,-204.31 921.97,-194.65"/>
<polygon fill="midnightblue" stroke="midnightblue" points="923.98,-191.76 914.14,-187.83 919.38,-197.04 923.98,-191.76"/>
</g>
<!-- Node7 -->
<g id="node7" class="node">
<title>Node7</title>
<g id="a_node7"><a xlink:title=" ">
<polygon fill="white" stroke="#bfbfbf" points="945,-168.5 945,-187.5 985,-187.5 985,-168.5 945,-168.5"/>
<text text-anchor="middle" x="965" y="-175.5" font-family="Helvetica,sans-Serif" font-size="10.00">QSet</text>
</a>
</g>
</g>
<!-- Node2&#45;&gt;Node7 -->
<g id="edge6" class="edge">
<title>Node2&#45;&gt;Node7</title>
<path fill="none" stroke="midnightblue" d="M965.83,-224.08C965.7,-217.01 965.52,-206.86 965.35,-197.99"/>
<polygon fill="midnightblue" stroke="midnightblue" points="968.85,-197.68 965.16,-187.75 961.85,-197.81 968.85,-197.68"/>
</g>
<!-- Node2&#45;&gt;Node8 -->
<g id="edge7" class="edge">
<title>Node2&#45;&gt;Node8</title>
<path fill="none" stroke="midnightblue" d="M974.09,-224.37C984.57,-212.11 1000.73,-188.81 994,-168 982.92,-133.75 955.41,-101.36 937.5,-82.88"/>
<polygon fill="midnightblue" stroke="midnightblue" points="939.81,-80.23 930.27,-75.62 934.85,-85.18 939.81,-80.23"/>
</g>
<!-- Node9 -->
<g id="node9" class="node">
<title>Node9</title>
<g id="a_node9"><a xlink:title=" ">
<polygon fill="white" stroke="#bfbfbf" points="670,-56.5 670,-75.5 740,-75.5 740,-56.5 670,-56.5"/>
<text text-anchor="middle" x="705" y="-63.5" font-family="Helvetica,sans-Serif" font-size="10.00">QStringList</text>
</a>
</g>
</g>
<!-- Node2&#45;&gt;Node9 -->
<g id="edge8" class="edge">
<title>Node2&#45;&gt;Node9</title>
<path fill="none" stroke="midnightblue" d="M909.29,-232.52C812.88,-230.74 622.03,-222.79 566,-188 534.25,-168.28 507.1,-141.54 530,-112 534.07,-106.75 609.32,-88.76 659.81,-77.18"/>
<polygon fill="midnightblue" stroke="midnightblue" points="660.89,-80.52 669.86,-74.88 659.33,-73.7 660.89,-80.52"/>
</g>
<!-- Node10 -->
<g id="node10" class="node">
<title>Node10</title>
<g id="a_node10"><a xlink:title=" ">
<polygon fill="white" stroke="#bfbfbf" points="1289.5,-168.5 1289.5,-187.5 1344.5,-187.5 1344.5,-168.5 1289.5,-168.5"/>
<text text-anchor="middle" x="1317" y="-175.5" font-family="Helvetica,sans-Serif" font-size="10.00">QVector</text>
</a>
</g>
</g>
<!-- Node2&#45;&gt;Node10 -->
<g id="edge9" class="edge">
<title>Node2&#45;&gt;Node10</title>
<path fill="none" stroke="midnightblue" d="M1022.57,-225.91C1084.67,-217.86 1187.23,-203.78 1275,-188 1276.47,-187.74 1277.96,-187.46 1279.47,-187.17"/>
<polygon fill="midnightblue" stroke="midnightblue" points="1280.37,-190.56 1289.49,-185.17 1279,-183.7 1280.37,-190.56"/>
</g>
<!-- Node11 -->
<g id="node11" class="node">
<title>Node11</title>
<g id="a_node11"><a xlink:title=" ">
<polygon fill="white" stroke="#bfbfbf" points="758.5,-56.5 758.5,-75.5 817.5,-75.5 817.5,-56.5 758.5,-56.5"/>
<text text-anchor="middle" x="788" y="-63.5" font-family="Helvetica,sans-Serif" font-size="10.00">QtGlobal</text>
</a>
</g>
</g>
<!-- Node2&#45;&gt;Node11 -->
<g id="edge10" class="edge">
<title>Node2&#45;&gt;Node11</title>
<path fill="none" stroke="midnightblue" d="M939.16,-224.39C919.1,-217.02 891.84,-204.89 872,-188 836.93,-158.15 809.63,-110.41 796.53,-84.73"/>
<polygon fill="midnightblue" stroke="midnightblue" points="799.66,-83.16 792.07,-75.76 793.39,-86.28 799.66,-83.16"/>
</g>
<!-- Node2&#45;&gt;Node12 -->
<g id="edge11" class="edge">
<title>Node2&#45;&gt;Node12</title>
<path fill="none" stroke="midnightblue" d="M993.1,-224.44C1021.99,-215.32 1067.92,-200.81 1100.11,-190.65"/>
<polygon fill="midnightblue" stroke="midnightblue" points="1101.55,-193.87 1110.03,-187.52 1099.44,-187.19 1101.55,-193.87"/>
</g>
<!-- Node12&#45;&gt;Node3 -->
<g id="edge12" class="edge">
<title>Node12&#45;&gt;Node3</title>
<path fill="none" stroke="midnightblue" d="M1078.91,-173.27C1052.93,-171.62 1021.93,-169.67 994,-168 853.58,-159.58 498.43,-166.27 362,-132 341.56,-126.86 339.11,-118.3 319,-112 284.64,-101.23 194.22,-86.64 129.92,-77.03"/>
<polygon fill="midnightblue" stroke="midnightblue" points="130.24,-73.54 119.83,-75.53 129.21,-80.46 130.24,-73.54"/>
</g>
<!-- Node12&#45;&gt;Node4 -->
<g id="edge13" class="edge">
<title>Node12&#45;&gt;Node4</title>
<path fill="none" stroke="midnightblue" d="M1127.51,-168.37C1107.1,-149.81 1058.8,-105.91 1032.98,-82.44"/>
<polygon fill="midnightblue" stroke="midnightblue" points="1035.2,-79.73 1025.45,-75.59 1030.5,-84.91 1035.2,-79.73"/>
</g>
<!-- Node12&#45;&gt;Node8 -->
<g id="edge14" class="edge">
<title>Node12&#45;&gt;Node8</title>
<path fill="none" stroke="midnightblue" d="M1120.32,-168.31C1096.23,-155.78 1050.28,-131.95 1011,-112 989.71,-101.19 965.5,-89.09 947.55,-80.17"/>
<polygon fill="midnightblue" stroke="midnightblue" points="948.8,-76.88 938.29,-75.56 945.68,-83.15 948.8,-76.88"/>
</g>
<!-- Node12&#45;&gt;Node11 -->
<g id="edge16" class="edge">
<title>Node12&#45;&gt;Node11</title>
<path fill="none" stroke="midnightblue" d="M1109.9,-168.46C1047.93,-148.93 895.75,-100.96 825.13,-78.7"/>
<polygon fill="midnightblue" stroke="midnightblue" points="825.91,-75.28 815.32,-75.61 823.8,-81.95 825.91,-75.28"/>
</g>
<!-- Node13 -->
<g id="node13" class="node">
<title>Node13</title>
<g id="a_node13"><a xlink:title=" ">
<polygon fill="white" stroke="#bfbfbf" points="1101.5,-112.5 1101.5,-131.5 1194.5,-131.5 1194.5,-112.5 1101.5,-112.5"/>
<text text-anchor="middle" x="1148" y="-119.5" font-family="Helvetica,sans-Serif" font-size="10.00">QTemporaryFile</text>
</a>
</g>
</g>
<!-- Node12&#45;&gt;Node13 -->
<g id="edge15" class="edge">
<title>Node12&#45;&gt;Node13</title>
<path fill="none" stroke="midnightblue" d="M1138.82,-168.08C1140.27,-160.93 1142.37,-150.64 1144.19,-141.69"/>
<polygon fill="midnightblue" stroke="midnightblue" points="1147.65,-142.25 1146.22,-131.75 1140.79,-140.85 1147.65,-142.25"/>
</g>
<!-- Node14 -->
<g id="node14" class="node">
<title>Node14</title>
<g id="a_node14"><a xlink:href="../../d8/da5/vdomdocument_8h.html" target="_top" xlink:title=" ">
<polygon fill="white" stroke="black" points="1376,-112.5 1376,-131.5 1478,-131.5 1478,-112.5 1376,-112.5"/>
<text text-anchor="middle" x="1427" y="-119.5" font-family="Helvetica,sans-Serif" font-size="10.00">vdomdocument.h</text>
</a>
</g>
</g>
<!-- Node12&#45;&gt;Node14 -->
<g id="edge17" class="edge">
<title>Node12&#45;&gt;Node14</title>
<path fill="none" stroke="midnightblue" d="M1182.95,-168.44C1234.07,-158.92 1316.65,-143.55 1371.38,-133.36"/>
<polygon fill="midnightblue" stroke="midnightblue" points="1372.07,-136.79 1381.26,-131.52 1370.79,-129.91 1372.07,-136.79"/>
</g>
<!-- Node14&#45;&gt;Node4 -->
<g id="edge18" class="edge">
<title>Node14&#45;&gt;Node4</title>
<path fill="none" stroke="midnightblue" d="M1375.8,-114.78C1309.41,-106.65 1189.76,-91.72 1076.92,-76.1"/>
<polygon fill="midnightblue" stroke="midnightblue" points="1077.11,-72.6 1066.73,-74.69 1076.15,-79.53 1077.11,-72.6"/>
</g>
<!-- Node14&#45;&gt;Node5 -->
<g id="edge20" class="edge">
<title>Node14&#45;&gt;Node5</title>
<path fill="none" stroke="midnightblue" d="M1379.78,-112.44C1326.32,-102.76 1239.39,-87 1183.2,-76.82"/>
<polygon fill="midnightblue" stroke="midnightblue" points="1183.55,-73.33 1173.08,-74.99 1182.3,-80.22 1183.55,-73.33"/>
</g>
<!-- Node14&#45;&gt;Node8 -->
<g id="edge24" class="edge">
<title>Node14&#45;&gt;Node8</title>
<path fill="none" stroke="midnightblue" d="M1375.77,-118.73C1290.75,-114.4 1115.06,-103.02 957.98,-76.11"/>
<polygon fill="midnightblue" stroke="midnightblue" points="958.11,-72.58 947.66,-74.31 956.91,-79.48 958.11,-72.58"/>
</g>
<!-- Node14&#45;&gt;Node11 -->
<g id="edge25" class="edge">
<title>Node14&#45;&gt;Node11</title>
<path fill="none" stroke="midnightblue" d="M1375.8,-116.92C1279.61,-109.2 1065.36,-91.85 885,-76 866.3,-74.36 845.59,-72.45 828.12,-70.81"/>
<polygon fill="midnightblue" stroke="midnightblue" points="827.99,-67.28 817.71,-69.83 827.34,-74.25 827.99,-67.28"/>
</g>
<!-- Node15 -->
<g id="node15" class="node">
<title>Node15</title>
<g id="a_node15"><a xlink:title=" ">
<polygon fill="white" stroke="#bfbfbf" points="1191,-56.5 1191,-75.5 1289,-75.5 1289,-56.5 1191,-56.5"/>
<text text-anchor="middle" x="1240" y="-63.5" font-family="Helvetica,sans-Serif" font-size="10.00">QDomDocument</text>
</a>
</g>
</g>
<!-- Node14&#45;&gt;Node15 -->
<g id="edge19" class="edge">
<title>Node14&#45;&gt;Node15</title>
<path fill="none" stroke="midnightblue" d="M1397.37,-112.44C1365.5,-103.24 1314.67,-88.56 1279.44,-78.39"/>
<polygon fill="midnightblue" stroke="midnightblue" points="1280.07,-74.93 1269.49,-75.52 1278.13,-81.65 1280.07,-74.93"/>
</g>
<!-- Node14&#45;&gt;Node16 -->
<g id="edge21" class="edge">
<title>Node14&#45;&gt;Node16</title>
<path fill="none" stroke="midnightblue" d="M1474.27,-112.5C1521.34,-103.99 1595.93,-90.36 1669.3,-76.31"/>
<polygon fill="midnightblue" stroke="midnightblue" points="1670.01,-79.74 1679.17,-74.41 1668.69,-72.86 1670.01,-79.74"/>
</g>
<!-- Node17 -->
<g id="node17" class="node">
<title>Node17</title>
<g id="a_node17"><a xlink:title=" ">
<polygon fill="white" stroke="#bfbfbf" points="1307.5,-56.5 1307.5,-75.5 1356.5,-75.5 1356.5,-56.5 1307.5,-56.5"/>
<text text-anchor="middle" x="1332" y="-63.5" font-family="Helvetica,sans-Serif" font-size="10.00">QHash</text>
</a>
</g>
</g>
<!-- Node14&#45;&gt;Node17 -->
<g id="edge22" class="edge">
<title>Node14&#45;&gt;Node17</title>
<path fill="none" stroke="midnightblue" d="M1411.74,-112.32C1396.78,-103.82 1373.75,-90.73 1356.27,-80.8"/>
<polygon fill="midnightblue" stroke="midnightblue" points="1357.65,-77.55 1347.23,-75.65 1354.19,-83.64 1357.65,-77.55"/>
</g>
<!-- Node14&#45;&gt;Node18 -->
<g id="edge23" class="edge">
<title>Node14&#45;&gt;Node18</title>
<path fill="none" stroke="midnightblue" d="M1478.18,-114.84C1541.99,-107.01 1654.63,-92.66 1760.4,-76.2"/>
<polygon fill="midnightblue" stroke="midnightblue" points="1760.94,-79.66 1770.28,-74.65 1759.86,-72.74 1760.94,-79.66"/>
</g>
<!-- Node19 -->
<g id="node19" class="node">
<title>Node19</title>
<g id="a_node19"><a xlink:title=" ">
<polygon fill="white" stroke="#bfbfbf" points="1375,-56.5 1375,-75.5 1431,-75.5 1431,-56.5 1375,-56.5"/>
<text text-anchor="middle" x="1403" y="-63.5" font-family="Helvetica,sans-Serif" font-size="10.00">QLocale</text>
</a>
</g>
</g>
<!-- Node14&#45;&gt;Node19 -->
<g id="edge26" class="edge">
<title>Node14&#45;&gt;Node19</title>
<path fill="none" stroke="midnightblue" d="M1423.04,-112.08C1419.79,-104.77 1415.08,-94.18 1411.05,-85.1"/>
<polygon fill="midnightblue" stroke="midnightblue" points="1414.15,-83.47 1406.89,-75.75 1407.75,-86.31 1414.15,-83.47"/>
</g>
<!-- Node20 -->
<g id="node20" class="node">
<title>Node20</title>
<g id="a_node20"><a xlink:title=" ">
<polygon fill="white" stroke="#bfbfbf" points="1449.5,-56.5 1449.5,-75.5 1526.5,-75.5 1526.5,-56.5 1449.5,-56.5"/>
<text text-anchor="middle" x="1488" y="-63.5" font-family="Helvetica,sans-Serif" font-size="10.00">../ifc/ifcdef.h</text>
</a>
</g>
</g>
<!-- Node14&#45;&gt;Node20 -->
<g id="edge27" class="edge">
<title>Node14&#45;&gt;Node20</title>
<path fill="none" stroke="midnightblue" d="M1436.8,-112.32C1445.82,-104.34 1459.41,-92.31 1470.32,-82.65"/>
<polygon fill="midnightblue" stroke="midnightblue" points="1472.85,-85.08 1478.02,-75.83 1468.21,-79.84 1472.85,-85.08"/>
</g>
<!-- Node14&#45;&gt;Node21 -->
<g id="edge28" class="edge">
<title>Node14&#45;&gt;Node21</title>
<path fill="none" stroke="midnightblue" d="M1478.17,-116.98C1557.94,-110.42 1717.01,-96.26 1861.88,-76.06"/>
<polygon fill="midnightblue" stroke="midnightblue" points="1862.42,-79.52 1871.84,-74.66 1861.45,-72.59 1862.42,-79.52"/>
</g>
<!-- Node22 -->
<g id="node22" class="node">
<title>Node22</title>
<g id="a_node22"><a xlink:title=" ">
<polygon fill="white" stroke="#bfbfbf" points="1544.5,-56.5 1544.5,-75.5 1661.5,-75.5 1661.5,-56.5 1544.5,-56.5"/>
<text text-anchor="middle" x="1603" y="-63.5" font-family="Helvetica,sans-Serif" font-size="10.00">../vmisc/diagnostic.h</text>
</a>
</g>
</g>
<!-- Node14&#45;&gt;Node22 -->
<g id="edge29" class="edge">
<title>Node14&#45;&gt;Node22</title>
<path fill="none" stroke="midnightblue" d="M1454.89,-112.44C1484.75,-103.28 1532.31,-88.69 1565.46,-78.52"/>
<polygon fill="midnightblue" stroke="midnightblue" points="1566.71,-81.8 1575.24,-75.52 1564.66,-75.1 1566.71,-81.8"/>
</g>
<!-- Node14&#45;&gt;Node23 -->
<g id="edge30" class="edge">
<title>Node14&#45;&gt;Node23</title>
<path fill="none" stroke="midnightblue" d="M1478.1,-117.78C1571.83,-111.64 1777.74,-97.08 1962.28,-76.01"/>
<polygon fill="midnightblue" stroke="midnightblue" points="1962.91,-79.46 1972.45,-74.84 1962.11,-72.5 1962.91,-79.46"/>
</g>
<!-- Node24&#45;&gt;Node3 -->
<g id="edge33" class="edge">
<title>Node24&#45;&gt;Node3</title>
<path fill="none" stroke="midnightblue" d="M528.98,-229.5C465.54,-224.75 370.16,-213.69 291,-188 269.42,-181 139.99,-110.77 84.85,-80.62"/>
<polygon fill="midnightblue" stroke="midnightblue" points="86.21,-77.38 75.76,-75.65 82.85,-83.52 86.21,-77.38"/>
</g>
<!-- Node24&#45;&gt;Node4 -->
<g id="edge34" class="edge">
<title>Node24&#45;&gt;Node4</title>
<path fill="none" stroke="midnightblue" d="M669.15,-230.31C824.65,-224.01 1186.03,-207.36 1204,-188 1213.64,-177.62 1228.49,-143.77 1203,-112 1194.8,-101.78 1126.29,-87.16 1074.56,-77.39"/>
<polygon fill="midnightblue" stroke="midnightblue" points="1074.93,-73.9 1064.46,-75.51 1073.64,-80.78 1074.93,-73.9"/>
</g>
<!-- Node24&#45;&gt;Node8 -->
<g id="edge36" class="edge">
<title>Node24&#45;&gt;Node8</title>
<path fill="none" stroke="midnightblue" d="M615.86,-224.31C668.78,-197.02 831.87,-112.95 895.35,-80.22"/>
<polygon fill="midnightblue" stroke="midnightblue" points="897.02,-83.3 904.31,-75.61 893.82,-77.08 897.02,-83.3"/>
</g>
<!-- Node25 -->
<g id="node25" class="node">
<title>Node25</title>
<g id="a_node25"><a xlink:title=" ">
<polygon fill="white" stroke="#bfbfbf" points="167,-168.5 167,-187.5 239,-187.5 239,-168.5 167,-168.5"/>
<text text-anchor="middle" x="203" y="-175.5" font-family="Helvetica,sans-Serif" font-size="10.00">QException</text>
</a>
</g>
</g>
<!-- Node24&#45;&gt;Node25 -->
<g id="edge35" class="edge">
<title>Node24&#45;&gt;Node25</title>
<path fill="none" stroke="midnightblue" d="M528.94,-224.9C458.95,-216.58 348.33,-202.77 253,-188 251.73,-187.8 250.43,-187.6 249.13,-187.39"/>
<polygon fill="midnightblue" stroke="midnightblue" points="249.45,-183.89 239.01,-185.7 248.3,-190.8 249.45,-183.89"/>
</g>
<!-- Node26 -->
<g id="node26" class="node">
<title>Node26</title>
<g id="a_node26"><a xlink:href="../../d3/da5/ifcdef_8h.html" target="_top" xlink:title=" ">
<polygon fill="white" stroke="black" points="575,-168.5 575,-187.5 637,-187.5 637,-168.5 575,-168.5"/>
<text text-anchor="middle" x="606" y="-175.5" font-family="Helvetica,sans-Serif" font-size="10.00">../ifcdef.h</text>
</a>
</g>
</g>
<!-- Node24&#45;&gt;Node26 -->
<g id="edge37" class="edge">
<title>Node24&#45;&gt;Node26</title>
<path fill="none" stroke="midnightblue" d="M600.16,-224.08C601.08,-216.93 602.42,-206.64 603.58,-197.69"/>
<polygon fill="midnightblue" stroke="midnightblue" points="607.05,-198.12 604.87,-187.75 600.11,-197.22 607.05,-198.12"/>
</g>
<!-- Node26&#45;&gt;Node8 -->
<g id="edge38" class="edge">
<title>Node26&#45;&gt;Node8</title>
<path fill="none" stroke="midnightblue" d="M630.46,-168.46C686.16,-149.01 822.62,-101.36 886.7,-78.98"/>
<polygon fill="midnightblue" stroke="midnightblue" points="888.06,-82.21 896.34,-75.61 885.75,-75.6 888.06,-82.21"/>
</g>
<!-- Node26&#45;&gt;Node9 -->
<g id="edge39" class="edge">
<title>Node26&#45;&gt;Node9</title>
<path fill="none" stroke="midnightblue" d="M584.66,-168.41C558.78,-156.73 520.62,-134.69 538,-112 545.55,-102.15 613.03,-86.25 659.86,-76.22"/>
<polygon fill="midnightblue" stroke="midnightblue" points="660.75,-79.61 669.81,-74.12 659.3,-72.76 660.75,-79.61"/>
</g>
<!-- Node26&#45;&gt;Node11 -->
<g id="edge40" class="edge">
<title>Node26&#45;&gt;Node11</title>
<path fill="none" stroke="midnightblue" d="M620.28,-168.37C651.65,-149.41 726.78,-104 764.93,-80.94"/>
<polygon fill="midnightblue" stroke="midnightblue" points="767.04,-83.76 773.79,-75.59 763.42,-77.77 767.04,-83.76"/>
</g>
<!-- Node27 -->
<g id="node27" class="node">
<title>Node27</title>
<g id="a_node27"><a xlink:href="../../d4/da4/def_8h.html" target="_top" xlink:title=" ">
<polygon fill="white" stroke="black" points="371,-112.5 371,-131.5 453,-131.5 453,-112.5 371,-112.5"/>
<text text-anchor="middle" x="412" y="-119.5" font-family="Helvetica,sans-Serif" font-size="10.00">../vmisc/def.h</text>
</a>
</g>
</g>
<!-- Node26&#45;&gt;Node27 -->
<g id="edge41" class="edge">
<title>Node26&#45;&gt;Node27</title>
<path fill="none" stroke="midnightblue" d="M575.26,-168.44C542.06,-159.2 489.01,-144.44 452.44,-134.26"/>
<polygon fill="midnightblue" stroke="midnightblue" points="453.17,-130.83 442.6,-131.52 451.29,-137.57 453.17,-130.83"/>
</g>
<!-- Node36 -->
<g id="node36" class="node">
<title>Node36</title>
<g id="a_node36"><a xlink:href="../../d6/dcd/diagnostic_8h.html" target="_top" xlink:title=" ">
<polygon fill="white" stroke="black" points="547.5,-112.5 547.5,-131.5 664.5,-131.5 664.5,-112.5 547.5,-112.5"/>
<text text-anchor="middle" x="606" y="-119.5" font-family="Helvetica,sans-Serif" font-size="10.00">../vmisc/diagnostic.h</text>
</a>
</g>
</g>
<!-- Node26&#45;&gt;Node36 -->
<g id="edge54" class="edge">
<title>Node26&#45;&gt;Node36</title>
<path fill="none" stroke="midnightblue" d="M606,-168.08C606,-161.01 606,-150.86 606,-141.99"/>
<polygon fill="midnightblue" stroke="midnightblue" points="609.5,-141.75 606,-131.75 602.5,-141.75 609.5,-141.75"/>
</g>
<!-- Node27&#45;&gt;Node3 -->
<g id="edge42" class="edge">
<title>Node27&#45;&gt;Node3</title>
<path fill="none" stroke="midnightblue" d="M370.86,-114.21C366.19,-113.46 361.49,-112.71 357,-112 278.35,-99.61 187.88,-85.99 127.66,-77.02"/>
<polygon fill="midnightblue" stroke="midnightblue" points="127.93,-73.52 117.52,-75.51 126.9,-80.44 127.93,-73.52"/>
</g>
<!-- Node27&#45;&gt;Node8 -->
<g id="edge45" class="edge">
<title>Node27&#45;&gt;Node8</title>
<path fill="none" stroke="midnightblue" d="M453.22,-116.63C550.3,-106.33 792.07,-80.68 884.38,-70.88"/>
<polygon fill="midnightblue" stroke="midnightblue" points="884.8,-74.36 894.37,-69.82 884.06,-67.4 884.8,-74.36"/>
</g>
<!-- Node27&#45;&gt;Node9 -->
<g id="edge46" class="edge">
<title>Node27&#45;&gt;Node9</title>
<path fill="none" stroke="midnightblue" d="M453.29,-113.74C500.53,-105.38 580.46,-91.09 659.5,-76.07"/>
<polygon fill="midnightblue" stroke="midnightblue" points="660.47,-79.44 669.64,-74.13 659.16,-72.57 660.47,-79.44"/>
</g>
<!-- Node27&#45;&gt;Node11 -->
<g id="edge48" class="edge">
<title>Node27&#45;&gt;Node11</title>
<path fill="none" stroke="midnightblue" d="M453.18,-116.77C515.01,-110.13 635.68,-96.11 748.09,-76.01"/>
<polygon fill="midnightblue" stroke="midnightblue" points="749.03,-79.39 758.25,-74.17 747.79,-72.51 749.03,-79.39"/>
</g>
<!-- Node28 -->
<g id="node28" class="node">
<title>Node28</title>
<g id="a_node28"><a xlink:title=" ">
<polygon fill="white" stroke="#bfbfbf" points="138.5,-56.5 138.5,-75.5 211.5,-75.5 211.5,-56.5 138.5,-56.5"/>
<text text-anchor="middle" x="175" y="-63.5" font-family="Helvetica,sans-Serif" font-size="10.00">QFileDialog</text>
</a>
</g>
</g>
<!-- Node27&#45;&gt;Node28 -->
<g id="edge43" class="edge">
<title>Node27&#45;&gt;Node28</title>
<path fill="none" stroke="midnightblue" d="M374.45,-112.44C333.03,-103.01 266.36,-87.82 221.63,-77.62"/>
<polygon fill="midnightblue" stroke="midnightblue" points="222.13,-74.15 211.6,-75.34 220.57,-80.97 222.13,-74.15"/>
</g>
<!-- Node29 -->
<g id="node29" class="node">
<title>Node29</title>
<g id="a_node29"><a xlink:title=" ">
<polygon fill="white" stroke="#bfbfbf" points="230,-56.5 230,-75.5 280,-75.5 280,-56.5 230,-56.5"/>
<text text-anchor="middle" x="255" y="-63.5" font-family="Helvetica,sans-Serif" font-size="10.00">QLineF</text>
</a>
</g>
</g>
<!-- Node27&#45;&gt;Node29 -->
<g id="edge44" class="edge">
<title>Node27&#45;&gt;Node29</title>
<path fill="none" stroke="midnightblue" d="M387.12,-112.44C360.71,-103.36 318.78,-88.94 289.26,-78.78"/>
<polygon fill="midnightblue" stroke="midnightblue" points="290.36,-75.46 279.76,-75.52 288.08,-82.08 290.36,-75.46"/>
</g>
<!-- Node30 -->
<g id="node30" class="node">
<title>Node30</title>
<g id="a_node30"><a xlink:title=" ">
<polygon fill="white" stroke="#bfbfbf" points="298.5,-56.5 298.5,-75.5 327.5,-75.5 327.5,-56.5 298.5,-56.5"/>
<text text-anchor="middle" x="313" y="-63.5" font-family="Helvetica,sans-Serif" font-size="10.00">Qt</text>
</a>
</g>
</g>
<!-- Node27&#45;&gt;Node30 -->
<g id="edge47" class="edge">
<title>Node27&#45;&gt;Node30</title>
<path fill="none" stroke="midnightblue" d="M396.09,-112.32C379.99,-103.54 354.9,-89.86 336.5,-79.82"/>
<polygon fill="midnightblue" stroke="midnightblue" points="338.03,-76.67 327.58,-74.95 334.68,-82.81 338.03,-76.67"/>
</g>
<!-- Node31 -->
<g id="node31" class="node">
<title>Node31</title>
<g id="a_node31"><a xlink:title=" ">
<polygon fill="white" stroke="#bfbfbf" points="346,-56.5 346,-75.5 402,-75.5 402,-56.5 346,-56.5"/>
<text text-anchor="middle" x="374" y="-63.5" font-family="Helvetica,sans-Serif" font-size="10.00">QPrinter</text>
</a>
</g>
</g>
<!-- Node27&#45;&gt;Node31 -->
<g id="edge49" class="edge">
<title>Node27&#45;&gt;Node31</title>
<path fill="none" stroke="midnightblue" d="M405.73,-112.08C400.36,-104.46 392.48,-93.26 385.92,-83.94"/>
<polygon fill="midnightblue" stroke="midnightblue" points="388.78,-81.91 380.16,-75.75 383.05,-85.94 388.78,-81.91"/>
</g>
<!-- Node32 -->
<g id="node32" class="node">
<title>Node32</title>
<g id="a_node32"><a xlink:title=" ">
<polygon fill="white" stroke="#bfbfbf" points="420.5,-56.5 420.5,-75.5 481.5,-75.5 481.5,-56.5 420.5,-56.5"/>
<text text-anchor="middle" x="451" y="-63.5" font-family="Helvetica,sans-Serif" font-size="10.00">QPixmap</text>
</a>
</g>
</g>
<!-- Node27&#45;&gt;Node32 -->
<g id="edge50" class="edge">
<title>Node27&#45;&gt;Node32</title>
<path fill="none" stroke="midnightblue" d="M418.44,-112.08C423.95,-104.46 432.03,-93.26 438.76,-83.94"/>
<polygon fill="midnightblue" stroke="midnightblue" points="441.66,-85.91 444.68,-75.75 435.99,-81.81 441.66,-85.91"/>
</g>
<!-- Node33 -->
<g id="node33" class="node">
<title>Node33</title>
<g id="a_node33"><a xlink:title=" ">
<polygon fill="white" stroke="#bfbfbf" points="499.5,-56.5 499.5,-75.5 550.5,-75.5 550.5,-56.5 499.5,-56.5"/>
<text text-anchor="middle" x="525" y="-63.5" font-family="Helvetica,sans-Serif" font-size="10.00">csignal</text>
</a>
</g>
</g>
<!-- Node27&#45;&gt;Node33 -->
<g id="edge51" class="edge">
<title>Node27&#45;&gt;Node33</title>
<path fill="none" stroke="midnightblue" d="M429.91,-112.44C448.25,-103.68 477.01,-89.94 498.09,-79.86"/>
<polygon fill="midnightblue" stroke="midnightblue" points="499.67,-82.99 507.18,-75.52 496.65,-76.67 499.67,-82.99"/>
</g>
<!-- Node34 -->
<g id="node34" class="node">
<title>Node34</title>
<g id="a_node34"><a xlink:href="../../d4/d82/debugbreak_8h.html" target="_top" xlink:title=" ">
<polygon fill="white" stroke="black" points="568.5,-56.5 568.5,-75.5 651.5,-75.5 651.5,-56.5 568.5,-56.5"/>
<text text-anchor="middle" x="610" y="-63.5" font-family="Helvetica,sans-Serif" font-size="10.00">debugbreak.h</text>
</a>
</g>
</g>
<!-- Node27&#45;&gt;Node34 -->
<g id="edge52" class="edge">
<title>Node27&#45;&gt;Node34</title>
<path fill="none" stroke="midnightblue" d="M443.37,-112.44C477.26,-103.2 531.4,-88.44 568.72,-78.26"/>
<polygon fill="midnightblue" stroke="midnightblue" points="570.05,-81.52 578.77,-75.52 568.2,-74.77 570.05,-81.52"/>
</g>
<!-- Node35 -->
<g id="node35" class="node">
<title>Node35</title>
<g id="a_node35"><a xlink:title=" ">
<polygon fill="white" stroke="#bfbfbf" points="582.5,-0.5 582.5,-19.5 637.5,-19.5 637.5,-0.5 582.5,-0.5"/>
<text text-anchor="middle" x="610" y="-7.5" font-family="Helvetica,sans-Serif" font-size="10.00">signal.h</text>
</a>
</g>
</g>
<!-- Node34&#45;&gt;Node35 -->
<g id="edge53" class="edge">
<title>Node34&#45;&gt;Node35</title>
<path fill="none" stroke="midnightblue" d="M610,-56.08C610,-49.01 610,-38.86 610,-29.99"/>
<polygon fill="midnightblue" stroke="midnightblue" points="613.5,-29.75 610,-19.75 606.5,-29.75 613.5,-29.75"/>
</g>
<!-- Node36&#45;&gt;Node11 -->
<g id="edge55" class="edge">
<title>Node36&#45;&gt;Node11</title>
<path fill="none" stroke="midnightblue" d="M634.84,-112.44C665.86,-103.24 715.33,-88.56 749.62,-78.39"/>
<polygon fill="midnightblue" stroke="midnightblue" points="750.71,-81.72 759.3,-75.52 748.71,-75.01 750.71,-81.72"/>
</g>
<!-- Node37&#45;&gt;Node3 -->
<g id="edge57" class="edge">
<title>Node37&#45;&gt;Node3</title>
<path fill="none" stroke="midnightblue" d="M613.87,-280.5C482.45,-265.89 233.79,-233.19 158,-188 115.59,-162.71 83.81,-111.91 69.08,-84.87"/>
<polygon fill="midnightblue" stroke="midnightblue" points="72.04,-82.99 64.28,-75.78 65.85,-86.26 72.04,-82.99"/>
</g>
<!-- Node37&#45;&gt;Node8 -->
<g id="edge58" class="edge">
<title>Node37&#45;&gt;Node8</title>
<path fill="none" stroke="midnightblue" d="M807.8,-289.2C893.51,-286.71 1002.26,-276.87 1031,-244 1072.09,-197 1022.68,-160.19 983,-112 972.66,-99.44 958.05,-88.61 945.61,-80.72"/>
<polygon fill="midnightblue" stroke="midnightblue" points="947.39,-77.71 937.02,-75.52 943.76,-83.7 947.39,-77.71"/>
</g>
<!-- Node37&#45;&gt;Node11 -->
<g id="edge59" class="edge">
<title>Node37&#45;&gt;Node11</title>
<path fill="none" stroke="midnightblue" d="M700.57,-280.3C714.01,-247.49 761.81,-130.88 780.47,-85.38"/>
<polygon fill="midnightblue" stroke="midnightblue" points="783.8,-86.46 784.36,-75.88 777.33,-83.81 783.8,-86.46"/>
</g>
<!-- Node37&#45;&gt;Node24 -->
<g id="edge61" class="edge">
<title>Node37&#45;&gt;Node24</title>
<path fill="none" stroke="midnightblue" d="M681.25,-280.32C665.68,-271.74 641.62,-258.49 623.54,-248.52"/>
<polygon fill="midnightblue" stroke="midnightblue" points="625.15,-245.42 614.71,-243.65 621.78,-251.55 625.15,-245.42"/>
</g>
<!-- Node37&#45;&gt;Node26 -->
<g id="edge60" class="edge">
<title>Node37&#45;&gt;Node26</title>
<path fill="none" stroke="midnightblue" d="M696.39,-280.12C695.07,-266.71 690.92,-241.06 678,-224 667.49,-210.12 651.35,-199.47 637.01,-192.02"/>
<polygon fill="midnightblue" stroke="midnightblue" points="638.45,-188.83 627.93,-187.59 635.38,-195.12 638.45,-188.83"/>
</g>
</g>
</svg>
