<?xml version="1.0" encoding="UTF-8" standalone="no"?>
<!DOCTYPE svg PUBLIC "-//W3C//DTD SVG 1.1//EN"
 "http://www.w3.org/Graphics/SVG/1.1/DTD/svg11.dtd">
<!-- Generated by graphviz version 2.43.0 (0)
 -->
<!-- Title: src/libs/vmisc/vsettings.h Pages: 1 -->
<svg width="7564pt" height="229pt"
 viewBox="0.00 0.00 7563.50 229.00" xmlns="http://www.w3.org/2000/svg" xmlns:xlink="http://www.w3.org/1999/xlink">
<g id="graph0" class="graph" transform="scale(1 1) rotate(0) translate(4 225)">
<title>src/libs/vmisc/vsettings.h</title>
<polygon fill="white" stroke="transparent" points="-4,4 -4,-225 7559.5,-225 7559.5,4 -4,4"/>
<!-- Node1 -->
<g id="node1" class="node">
<title>Node1</title>
<g id="a_node1"><a xlink:title=" ">
<polygon fill="#bfbfbf" stroke="black" points="5669.5,-201.5 5669.5,-220.5 5809.5,-220.5 5809.5,-201.5 5669.5,-201.5"/>
<text text-anchor="middle" x="5739.5" y="-208.5" font-family="Helvetica,sans-Serif" font-size="10.00">src/libs/vmisc/vsettings.h</text>
</a>
</g>
</g>
<!-- Node2 -->
<g id="node2" class="node">
<title>Node2</title>
<g id="a_node2"><a xlink:href="../../d9/d02/vapplication_8h.html" target="_top" xlink:title=" ">
<polygon fill="white" stroke="black" points="2222,-134.5 2222,-164.5 2349,-164.5 2349,-134.5 2222,-134.5"/>
<text text-anchor="start" x="2230" y="-152.5" font-family="Helvetica,sans-Serif" font-size="10.00">src/app/seamly2d/core</text>
<text text-anchor="middle" x="2285.5" y="-141.5" font-family="Helvetica,sans-Serif" font-size="10.00">/vapplication.h</text>
</a>
</g>
</g>
<!-- Node1&#45;&gt;Node2 -->
<g id="edge1" class="edge">
<title>Node1&#45;&gt;Node2</title>
<path fill="none" stroke="midnightblue" d="M5659.19,-208.62C5186.56,-200.47 2773.75,-158.91 2349.3,-151.6"/>
<polygon fill="midnightblue" stroke="midnightblue" points="5659.27,-212.12 5669.33,-208.79 5659.39,-205.12 5659.27,-212.12"/>
</g>
<!-- Node26 -->
<g id="node26" class="node">
<title>Node26</title>
<g id="a_node26"><a xlink:href="../../db/d28/vsettings_8cpp.html" target="_top" xlink:title=" ">
<polygon fill="white" stroke="black" points="5567.5,-140 5567.5,-159 5719.5,-159 5719.5,-140 5567.5,-140"/>
<text text-anchor="middle" x="5643.5" y="-147" font-family="Helvetica,sans-Serif" font-size="10.00">src/libs/vmisc/vsettings.cpp</text>
</a>
</g>
</g>
<!-- Node1&#45;&gt;Node26 -->
<g id="edge25" class="edge">
<title>Node1&#45;&gt;Node26</title>
<path fill="none" stroke="midnightblue" d="M5717.05,-196.09C5698.53,-184.6 5672.83,-168.68 5657.23,-159.01"/>
<polygon fill="midnightblue" stroke="midnightblue" points="5715.4,-199.18 5725.75,-201.48 5719.09,-193.23 5715.4,-199.18"/>
</g>
<!-- Node27 -->
<g id="node27" class="node">
<title>Node27</title>
<g id="a_node27"><a xlink:href="../../d5/d74/vabstractapplication_8h.html" target="_top" xlink:title=" ">
<polygon fill="white" stroke="red" points="5738,-140 5738,-159 5933,-159 5933,-140 5738,-140"/>
<text text-anchor="middle" x="5835.5" y="-147" font-family="Helvetica,sans-Serif" font-size="10.00">src/libs/vmisc/vabstractapplication.h</text>
</a>
</g>
</g>
<!-- Node1&#45;&gt;Node27 -->
<g id="edge26" class="edge">
<title>Node1&#45;&gt;Node27</title>
<path fill="none" stroke="midnightblue" d="M5761.95,-196.09C5780.47,-184.6 5806.17,-168.68 5821.77,-159.01"/>
<polygon fill="midnightblue" stroke="midnightblue" points="5759.91,-193.23 5753.25,-201.48 5763.6,-199.18 5759.91,-193.23"/>
</g>
<!-- Node62 -->
<g id="node50" class="node">
<title>Node62</title>
<g id="a_node50"><a xlink:href="../../d2/d31/vmaingraphicsview_8cpp.html" target="_top" xlink:title=" ">
<polygon fill="white" stroke="black" points="7339.5,-73 7339.5,-92 7555.5,-92 7555.5,-73 7339.5,-73"/>
<text text-anchor="middle" x="7447.5" y="-80" font-family="Helvetica,sans-Serif" font-size="10.00">src/libs/vwidgets/vmaingraphicsview.cpp</text>
</a>
</g>
</g>
<!-- Node1&#45;&gt;Node62 -->
<g id="edge51" class="edge">
<title>Node1&#45;&gt;Node62</title>
<path fill="none" stroke="midnightblue" d="M5819.9,-205.85C6053.52,-193.47 6752.4,-154.13 7330.5,-98 7347.82,-96.32 7366.53,-94.16 7383.81,-92.02"/>
<polygon fill="midnightblue" stroke="midnightblue" points="5819.59,-202.36 5809.79,-206.39 5819.96,-209.35 5819.59,-202.36"/>
</g>
<!-- Node3 -->
<g id="node3" class="node">
<title>Node3</title>
<g id="a_node3"><a xlink:href="../../d3/dd8/vapplication_8cpp.html" target="_top" xlink:title=" ">
<polygon fill="white" stroke="black" points="0,-67.5 0,-97.5 127,-97.5 127,-67.5 0,-67.5"/>
<text text-anchor="start" x="8" y="-85.5" font-family="Helvetica,sans-Serif" font-size="10.00">src/app/seamly2d/core</text>
<text text-anchor="middle" x="63.5" y="-74.5" font-family="Helvetica,sans-Serif" font-size="10.00">/vapplication.cpp</text>
</a>
</g>
</g>
<!-- Node2&#45;&gt;Node3 -->
<g id="edge2" class="edge">
<title>Node2&#45;&gt;Node3</title>
<path fill="none" stroke="midnightblue" d="M2211.53,-148.5C1882.61,-148.25 550.64,-144.32 135.5,-98 132.71,-97.69 129.87,-97.32 127.01,-96.92"/>
<polygon fill="midnightblue" stroke="midnightblue" points="2211.89,-152 2221.89,-148.51 2211.89,-145 2211.89,-152"/>
</g>
<!-- Node4 -->
<g id="node4" class="node">
<title>Node4</title>
<g id="a_node4"><a xlink:href="../../d7/dfa/calculator__dialog_8cpp.html" target="_top" xlink:title=" ">
<polygon fill="white" stroke="black" points="145,-67.5 145,-97.5 286,-97.5 286,-67.5 145,-67.5"/>
<text text-anchor="start" x="153" y="-85.5" font-family="Helvetica,sans-Serif" font-size="10.00">src/app/seamly2d/dialogs</text>
<text text-anchor="middle" x="215.5" y="-74.5" font-family="Helvetica,sans-Serif" font-size="10.00">/calculator_dialog.cpp</text>
</a>
</g>
</g>
<!-- Node2&#45;&gt;Node4 -->
<g id="edge3" class="edge">
<title>Node2&#45;&gt;Node4</title>
<path fill="none" stroke="midnightblue" d="M2211.16,-148.17C1897,-146.53 676.86,-137.69 294.5,-98 291.73,-97.71 288.9,-97.38 286.06,-97.01"/>
<polygon fill="midnightblue" stroke="midnightblue" points="2211.49,-151.67 2221.51,-148.22 2211.53,-144.67 2211.49,-151.67"/>
</g>
<!-- Node5 -->
<g id="node5" class="node">
<title>Node5</title>
<g id="a_node5"><a xlink:href="../../d2/d2d/preferencesconfigurationpage_8cpp.html" target="_top" xlink:title=" ">
<polygon fill="white" stroke="black" points="304,-67.5 304,-97.5 551,-97.5 551,-67.5 304,-67.5"/>
<text text-anchor="start" x="312" y="-85.5" font-family="Helvetica,sans-Serif" font-size="10.00">src/app/seamly2d/dialogs</text>
<text text-anchor="middle" x="427.5" y="-74.5" font-family="Helvetica,sans-Serif" font-size="10.00">/configpages/preferencesconfigurationpage.cpp</text>
</a>
</g>
</g>
<!-- Node2&#45;&gt;Node5 -->
<g id="edge4" class="edge">
<title>Node2&#45;&gt;Node5</title>
<path fill="none" stroke="midnightblue" d="M2211.63,-148.45C1972.53,-147.85 1198.22,-142.35 559.5,-98 556.74,-97.81 553.95,-97.6 551.14,-97.39"/>
<polygon fill="midnightblue" stroke="midnightblue" points="2211.93,-151.95 2221.93,-148.48 2211.94,-144.95 2211.93,-151.95"/>
</g>
<!-- Node6 -->
<g id="node6" class="node">
<title>Node6</title>
<g id="a_node6"><a xlink:href="../../dc/d20/preferencespathpage_8cpp.html" target="_top" xlink:title=" ">
<polygon fill="white" stroke="black" points="569,-67.5 569,-97.5 774,-97.5 774,-67.5 569,-67.5"/>
<text text-anchor="start" x="577" y="-85.5" font-family="Helvetica,sans-Serif" font-size="10.00">src/app/seamly2d/dialogs</text>
<text text-anchor="middle" x="671.5" y="-74.5" font-family="Helvetica,sans-Serif" font-size="10.00">/configpages/preferencespathpage.cpp</text>
</a>
</g>
</g>
<!-- Node2&#45;&gt;Node6 -->
<g id="edge5" class="edge">
<title>Node2&#45;&gt;Node6</title>
<path fill="none" stroke="midnightblue" d="M2211.57,-148.53C1992.85,-148.09 1330.01,-142.85 782.5,-98 779.79,-97.78 777.04,-97.54 774.27,-97.28"/>
<polygon fill="midnightblue" stroke="midnightblue" points="2211.64,-152.03 2221.65,-148.55 2211.65,-145.03 2211.64,-152.03"/>
</g>
<!-- Node7 -->
<g id="node7" class="node">
<title>Node7</title>
<g id="a_node7"><a xlink:href="../../d9/d70/preferencesgraphicsviewpage_8cpp.html" target="_top" xlink:title=" ">
<polygon fill="white" stroke="black" points="791.5,-67.5 791.5,-97.5 1039.5,-97.5 1039.5,-67.5 791.5,-67.5"/>
<text text-anchor="start" x="799.5" y="-85.5" font-family="Helvetica,sans-Serif" font-size="10.00">src/app/seamly2d/dialogs</text>
<text text-anchor="middle" x="915.5" y="-74.5" font-family="Helvetica,sans-Serif" font-size="10.00">/configpages/preferencesgraphicsviewpage.cpp</text>
</a>
</g>
</g>
<!-- Node2&#45;&gt;Node7 -->
<g id="edge6" class="edge">
<title>Node2&#45;&gt;Node7</title>
<path fill="none" stroke="midnightblue" d="M2211.42,-147.23C2019.22,-143.54 1488.9,-130.96 1048.5,-98 1045.6,-97.78 1042.68,-97.55 1039.72,-97.31"/>
<polygon fill="midnightblue" stroke="midnightblue" points="2211.62,-150.73 2221.68,-147.42 2211.75,-143.73 2211.62,-150.73"/>
</g>
<!-- Node8 -->
<g id="node8" class="node">
<title>Node8</title>
<g id="a_node8"><a xlink:href="../../dd/dc2/decimalchart__dialog_8cpp.html" target="_top" xlink:title=" ">
<polygon fill="white" stroke="black" points="1058,-67.5 1058,-97.5 1199,-97.5 1199,-67.5 1058,-67.5"/>
<text text-anchor="start" x="1066" y="-85.5" font-family="Helvetica,sans-Serif" font-size="10.00">src/app/seamly2d/dialogs</text>
<text text-anchor="middle" x="1128.5" y="-74.5" font-family="Helvetica,sans-Serif" font-size="10.00">/decimalchart_dialog.cpp</text>
</a>
</g>
</g>
<!-- Node2&#45;&gt;Node8 -->
<g id="edge7" class="edge">
<title>Node2&#45;&gt;Node8</title>
<path fill="none" stroke="midnightblue" d="M2211.73,-148.4C2036.9,-147.43 1583.93,-140.63 1208.5,-98 1205.41,-97.65 1202.27,-97.25 1199.1,-96.82"/>
<polygon fill="midnightblue" stroke="midnightblue" points="2211.82,-151.9 2221.84,-148.45 2211.86,-144.9 2211.82,-151.9"/>
</g>
<!-- Node9 -->
<g id="node9" class="node">
<title>Node9</title>
<g id="a_node9"><a xlink:href="../../d2/d00/vtooloptionspropertybrowser_8cpp.html" target="_top" xlink:title=" ">
<polygon fill="white" stroke="black" points="1217.5,-67.5 1217.5,-97.5 1397.5,-97.5 1397.5,-67.5 1217.5,-67.5"/>
<text text-anchor="start" x="1225.5" y="-85.5" font-family="Helvetica,sans-Serif" font-size="10.00">src/app/seamly2d/core</text>
<text text-anchor="middle" x="1307.5" y="-74.5" font-family="Helvetica,sans-Serif" font-size="10.00">/vtooloptionspropertybrowser.cpp</text>
</a>
</g>
</g>
<!-- Node2&#45;&gt;Node9 -->
<g id="edge8" class="edge">
<title>Node2&#45;&gt;Node9</title>
<path fill="none" stroke="midnightblue" d="M2211.82,-146.46C2060.57,-141.79 1704.18,-128.29 1406.5,-98 1403.56,-97.7 1400.58,-97.38 1397.57,-97.03"/>
<polygon fill="midnightblue" stroke="midnightblue" points="2211.82,-149.96 2221.92,-146.77 2212.03,-142.96 2211.82,-149.96"/>
</g>
<!-- Node10 -->
<g id="node10" class="node">
<title>Node10</title>
<g id="a_node10"><a xlink:href="../../dd/d64/dialogaboutapp_8cpp.html" target="_top" xlink:title=" ">
<polygon fill="white" stroke="black" points="1416,-67.5 1416,-97.5 1557,-97.5 1557,-67.5 1416,-67.5"/>
<text text-anchor="start" x="1424" y="-85.5" font-family="Helvetica,sans-Serif" font-size="10.00">src/app/seamly2d/dialogs</text>
<text text-anchor="middle" x="1486.5" y="-74.5" font-family="Helvetica,sans-Serif" font-size="10.00">/dialogaboutapp.cpp</text>
</a>
</g>
</g>
<!-- Node2&#45;&gt;Node10 -->
<g id="edge9" class="edge">
<title>Node2&#45;&gt;Node10</title>
<path fill="none" stroke="midnightblue" d="M2211.51,-145.97C2080.89,-140.91 1801.02,-127.4 1566.5,-98 1563.42,-97.61 1560.28,-97.19 1557.11,-96.73"/>
<polygon fill="midnightblue" stroke="midnightblue" points="2211.67,-149.48 2221.79,-146.36 2211.94,-142.48 2211.67,-149.48"/>
</g>
<!-- Node11 -->
<g id="node11" class="node">
<title>Node11</title>
<g id="a_node11"><a xlink:href="../../dc/d63/preferencespatternpage_8cpp.html" target="_top" xlink:title=" ">
<polygon fill="white" stroke="black" points="1575.5,-67.5 1575.5,-97.5 1793.5,-97.5 1793.5,-67.5 1575.5,-67.5"/>
<text text-anchor="start" x="1583.5" y="-85.5" font-family="Helvetica,sans-Serif" font-size="10.00">src/app/seamly2d/dialogs</text>
<text text-anchor="middle" x="1684.5" y="-74.5" font-family="Helvetica,sans-Serif" font-size="10.00">/configpages/preferencespatternpage.cpp</text>
</a>
</g>
</g>
<!-- Node2&#45;&gt;Node11 -->
<g id="edge10" class="edge">
<title>Node2&#45;&gt;Node11</title>
<path fill="none" stroke="midnightblue" d="M2211.72,-141.21C2116.95,-131.74 1947.38,-114.47 1802.5,-98 1799.63,-97.67 1796.72,-97.34 1793.78,-97"/>
<polygon fill="midnightblue" stroke="midnightblue" points="2211.48,-144.7 2221.78,-142.21 2212.18,-137.73 2211.48,-144.7"/>
</g>
<!-- Node12 -->
<g id="node12" class="node">
<title>Node12</title>
<g id="a_node12"><a xlink:href="../../d6/d89/dialoglayoutprogress_8cpp.html" target="_top" xlink:title=" ">
<polygon fill="white" stroke="black" points="1812,-67.5 1812,-97.5 1955,-97.5 1955,-67.5 1812,-67.5"/>
<text text-anchor="start" x="1820" y="-85.5" font-family="Helvetica,sans-Serif" font-size="10.00">src/app/seamly2d/dialogs</text>
<text text-anchor="middle" x="1883.5" y="-74.5" font-family="Helvetica,sans-Serif" font-size="10.00">/dialoglayoutprogress.cpp</text>
</a>
</g>
</g>
<!-- Node2&#45;&gt;Node12 -->
<g id="edge11" class="edge">
<title>Node2&#45;&gt;Node12</title>
<path fill="none" stroke="midnightblue" d="M2211.69,-137.43C2146.37,-127.52 2048.5,-112.37 1963.5,-98 1960.72,-97.53 1957.88,-97.04 1955.01,-96.55"/>
<polygon fill="midnightblue" stroke="midnightblue" points="2211.48,-140.94 2221.89,-138.98 2212.52,-134.02 2211.48,-140.94"/>
</g>
<!-- Node13 -->
<g id="node13" class="node">
<title>Node13</title>
<g id="a_node13"><a xlink:href="../../db/def/dialoglayoutsettings_8cpp.html" target="_top" xlink:title=" ">
<polygon fill="white" stroke="black" points="1973,-67.5 1973,-97.5 2114,-97.5 2114,-67.5 1973,-67.5"/>
<text text-anchor="start" x="1981" y="-85.5" font-family="Helvetica,sans-Serif" font-size="10.00">src/app/seamly2d/dialogs</text>
<text text-anchor="middle" x="2043.5" y="-74.5" font-family="Helvetica,sans-Serif" font-size="10.00">/dialoglayoutsettings.cpp</text>
</a>
</g>
</g>
<!-- Node2&#45;&gt;Node13 -->
<g id="edge12" class="edge">
<title>Node2&#45;&gt;Node13</title>
<path fill="none" stroke="midnightblue" d="M2223.51,-131.85C2184.05,-121.25 2133.51,-107.68 2096.04,-97.61"/>
<polygon fill="midnightblue" stroke="midnightblue" points="2222.72,-135.26 2233.29,-134.48 2224.54,-128.5 2222.72,-135.26"/>
</g>
<!-- Node14 -->
<g id="node14" class="node">
<title>Node14</title>
<g id="a_node14"><a xlink:href="../../de/d87/dialognewpattern_8cpp.html" target="_top" xlink:title=" ">
<polygon fill="white" stroke="black" points="2132,-67.5 2132,-97.5 2273,-97.5 2273,-67.5 2132,-67.5"/>
<text text-anchor="start" x="2140" y="-85.5" font-family="Helvetica,sans-Serif" font-size="10.00">src/app/seamly2d/dialogs</text>
<text text-anchor="middle" x="2202.5" y="-74.5" font-family="Helvetica,sans-Serif" font-size="10.00">/dialognewpattern.cpp</text>
</a>
</g>
</g>
<!-- Node2&#45;&gt;Node14 -->
<g id="edge13" class="edge">
<title>Node2&#45;&gt;Node14</title>
<path fill="none" stroke="midnightblue" d="M2259.54,-128.17C2246.85,-118.23 2231.89,-106.51 2220.47,-97.58"/>
<polygon fill="midnightblue" stroke="midnightblue" points="2257.46,-130.99 2267.49,-134.4 2261.78,-125.47 2257.46,-130.99"/>
</g>
<!-- Node15 -->
<g id="node15" class="node">
<title>Node15</title>
<g id="a_node15"><a xlink:href="../../d5/d18/dialogpatternproperties_8cpp.html" target="_top" xlink:title=" ">
<polygon fill="white" stroke="black" points="2291,-67.5 2291,-97.5 2446,-97.5 2446,-67.5 2291,-67.5"/>
<text text-anchor="start" x="2299" y="-85.5" font-family="Helvetica,sans-Serif" font-size="10.00">src/app/seamly2d/dialogs</text>
<text text-anchor="middle" x="2368.5" y="-74.5" font-family="Helvetica,sans-Serif" font-size="10.00">/dialogpatternproperties.cpp</text>
</a>
</g>
</g>
<!-- Node2&#45;&gt;Node15 -->
<g id="edge14" class="edge">
<title>Node2&#45;&gt;Node15</title>
<path fill="none" stroke="midnightblue" d="M2311.46,-128.17C2324.15,-118.23 2339.11,-106.51 2350.53,-97.58"/>
<polygon fill="midnightblue" stroke="midnightblue" points="2309.22,-125.47 2303.51,-134.4 2313.54,-130.99 2309.22,-125.47"/>
</g>
<!-- Node16 -->
<g id="node16" class="node">
<title>Node16</title>
<g id="a_node16"><a xlink:href="../../d5/dc5/dialogpreferences_8cpp.html" target="_top" xlink:title=" ">
<polygon fill="white" stroke="black" points="2464,-67.5 2464,-97.5 2605,-97.5 2605,-67.5 2464,-67.5"/>
<text text-anchor="start" x="2472" y="-85.5" font-family="Helvetica,sans-Serif" font-size="10.00">src/app/seamly2d/dialogs</text>
<text text-anchor="middle" x="2534.5" y="-74.5" font-family="Helvetica,sans-Serif" font-size="10.00">/dialogpreferences.cpp</text>
</a>
</g>
</g>
<!-- Node2&#45;&gt;Node16 -->
<g id="edge15" class="edge">
<title>Node2&#45;&gt;Node16</title>
<path fill="none" stroke="midnightblue" d="M2349.03,-131.92C2389.66,-121.31 2441.8,-107.7 2480.44,-97.61"/>
<polygon fill="midnightblue" stroke="midnightblue" points="2348.01,-128.56 2339.22,-134.48 2349.78,-135.34 2348.01,-128.56"/>
</g>
<!-- Node17 -->
<g id="node17" class="node">
<title>Node17</title>
<g id="a_node17"><a xlink:href="../../dd/d54/export__layout__dialog_8cpp.html" target="_top" xlink:title=" ">
<polygon fill="white" stroke="black" points="2623,-67.5 2623,-97.5 2766,-97.5 2766,-67.5 2623,-67.5"/>
<text text-anchor="start" x="2631" y="-85.5" font-family="Helvetica,sans-Serif" font-size="10.00">src/app/seamly2d/dialogs</text>
<text text-anchor="middle" x="2694.5" y="-74.5" font-family="Helvetica,sans-Serif" font-size="10.00">/export_layout_dialog.cpp</text>
</a>
</g>
</g>
<!-- Node2&#45;&gt;Node17 -->
<g id="edge16" class="edge">
<title>Node2&#45;&gt;Node17</title>
<path fill="none" stroke="midnightblue" d="M2359.04,-137.7C2425.56,-127.81 2526.2,-112.53 2613.5,-98 2616.6,-97.48 2619.77,-96.95 2622.96,-96.4"/>
<polygon fill="midnightblue" stroke="midnightblue" points="2358.44,-134.25 2349.07,-139.18 2359.47,-141.18 2358.44,-134.25"/>
</g>
<!-- Node18 -->
<g id="node18" class="node">
<title>Node18</title>
<g id="a_node18"><a xlink:href="../../db/d5c/groups__widget_8cpp.html" target="_top" xlink:title=" ">
<polygon fill="white" stroke="black" points="2784,-67.5 2784,-97.5 2925,-97.5 2925,-67.5 2784,-67.5"/>
<text text-anchor="start" x="2792" y="-85.5" font-family="Helvetica,sans-Serif" font-size="10.00">src/app/seamly2d/dialogs</text>
<text text-anchor="middle" x="2854.5" y="-74.5" font-family="Helvetica,sans-Serif" font-size="10.00">/groups_widget.cpp</text>
</a>
</g>
</g>
<!-- Node2&#45;&gt;Node18 -->
<g id="edge17" class="edge">
<title>Node2&#45;&gt;Node18</title>
<path fill="none" stroke="midnightblue" d="M2359.56,-142.63C2455.54,-134.61 2627.95,-118.82 2774.5,-98 2777.57,-97.56 2780.71,-97.09 2783.88,-96.6"/>
<polygon fill="midnightblue" stroke="midnightblue" points="2359.05,-139.15 2349.38,-143.47 2359.63,-146.13 2359.05,-139.15"/>
</g>
<!-- Node19 -->
<g id="node19" class="node">
<title>Node19</title>
<g id="a_node19"><a xlink:href="../../dd/d84/shortcuts__dialog_8cpp.html" target="_top" xlink:title=" ">
<polygon fill="white" stroke="black" points="2943,-67.5 2943,-97.5 3084,-97.5 3084,-67.5 2943,-67.5"/>
<text text-anchor="start" x="2951" y="-85.5" font-family="Helvetica,sans-Serif" font-size="10.00">src/app/seamly2d/dialogs</text>
<text text-anchor="middle" x="3013.5" y="-74.5" font-family="Helvetica,sans-Serif" font-size="10.00">/shortcuts_dialog.cpp</text>
</a>
</g>
</g>
<!-- Node2&#45;&gt;Node19 -->
<g id="edge18" class="edge">
<title>Node2&#45;&gt;Node19</title>
<path fill="none" stroke="midnightblue" d="M2359.4,-145.19C2479.98,-139.23 2726.35,-124.77 2933.5,-98 2936.58,-97.6 2939.72,-97.17 2942.89,-96.7"/>
<polygon fill="midnightblue" stroke="midnightblue" points="2359,-141.7 2349.19,-145.69 2359.34,-148.69 2359,-141.7"/>
</g>
<!-- Node20 -->
<g id="node20" class="node">
<title>Node20</title>
<g id="a_node20"><a xlink:href="../../d2/df4/show__info__dialog_8cpp.html" target="_top" xlink:title=" ">
<polygon fill="white" stroke="black" points="3102,-67.5 3102,-97.5 3243,-97.5 3243,-67.5 3102,-67.5"/>
<text text-anchor="start" x="3110" y="-85.5" font-family="Helvetica,sans-Serif" font-size="10.00">src/app/seamly2d/dialogs</text>
<text text-anchor="middle" x="3172.5" y="-74.5" font-family="Helvetica,sans-Serif" font-size="10.00">/show_info_dialog.cpp</text>
</a>
</g>
</g>
<!-- Node2&#45;&gt;Node20 -->
<g id="edge19" class="edge">
<title>Node2&#45;&gt;Node20</title>
<path fill="none" stroke="midnightblue" d="M2359.37,-146.76C2501.71,-142.78 2823.66,-130.66 3092.5,-98 3095.58,-97.63 3098.73,-97.21 3101.9,-96.76"/>
<polygon fill="midnightblue" stroke="midnightblue" points="2358.93,-143.27 2349.03,-147.05 2359.12,-150.27 2358.93,-143.27"/>
</g>
<!-- Node21 -->
<g id="node21" class="node">
<title>Node21</title>
<g id="a_node21"><a xlink:href="../../d5/de4/vabstractlayoutdialog_8cpp.html" target="_top" xlink:title=" ">
<polygon fill="white" stroke="black" points="3261.5,-67.5 3261.5,-97.5 3407.5,-97.5 3407.5,-67.5 3261.5,-67.5"/>
<text text-anchor="start" x="3269.5" y="-85.5" font-family="Helvetica,sans-Serif" font-size="10.00">src/app/seamly2d/dialogs</text>
<text text-anchor="middle" x="3334.5" y="-74.5" font-family="Helvetica,sans-Serif" font-size="10.00">/vabstractlayoutdialog.cpp</text>
</a>
</g>
</g>
<!-- Node2&#45;&gt;Node21 -->
<g id="edge20" class="edge">
<title>Node2&#45;&gt;Node21</title>
<path fill="none" stroke="midnightblue" d="M2359.34,-147.68C2521.35,-145.2 2920.02,-135.48 3251.5,-98 3254.7,-97.64 3257.96,-97.23 3261.25,-96.79"/>
<polygon fill="midnightblue" stroke="midnightblue" points="2358.96,-144.18 2349.01,-147.83 2359.06,-151.18 2358.96,-144.18"/>
</g>
<!-- Node22 -->
<g id="node22" class="node">
<title>Node22</title>
<g id="a_node22"><a xlink:href="../../dc/d14/app_2seamly2d_2main_8cpp.html" target="_top" xlink:title=" ">
<polygon fill="white" stroke="black" points="3426,-73 3426,-92 3577,-92 3577,-73 3426,-73"/>
<text text-anchor="middle" x="3501.5" y="-80" font-family="Helvetica,sans-Serif" font-size="10.00">src/app/seamly2d/main.cpp</text>
</a>
</g>
</g>
<!-- Node2&#45;&gt;Node22 -->
<g id="edge21" class="edge">
<title>Node2&#45;&gt;Node22</title>
<path fill="none" stroke="midnightblue" d="M2359.36,-148.37C2540.21,-147.38 3019.42,-140.57 3416.5,-98 3429.9,-96.56 3444.38,-94.35 3457.53,-92.07"/>
<polygon fill="midnightblue" stroke="midnightblue" points="2359.15,-144.87 2349.17,-148.43 2359.19,-151.87 2359.15,-144.87"/>
</g>
<!-- Node23 -->
<g id="node23" class="node">
<title>Node23</title>
<g id="a_node23"><a xlink:href="../../d8/de8/mainwindowsnogui_8cpp.html" target="_top" xlink:title=" ">
<polygon fill="white" stroke="black" points="3595,-73 3595,-92 3816,-92 3816,-73 3595,-73"/>
<text text-anchor="middle" x="3705.5" y="-80" font-family="Helvetica,sans-Serif" font-size="10.00">src/app/seamly2d/mainwindowsnogui.cpp</text>
</a>
</g>
</g>
<!-- Node2&#45;&gt;Node23 -->
<g id="edge22" class="edge">
<title>Node2&#45;&gt;Node23</title>
<path fill="none" stroke="midnightblue" d="M2359.21,-147.74C2557.64,-145.23 3119.66,-135.13 3585.5,-98 3604.22,-96.51 3624.52,-94.29 3643,-92.03"/>
<polygon fill="midnightblue" stroke="midnightblue" points="2359.14,-144.24 2349.19,-147.86 2359.23,-151.24 2359.14,-144.24"/>
</g>
<!-- Node24 -->
<g id="node24" class="node">
<title>Node24</title>
<g id="a_node24"><a xlink:href="../../d3/d49/vpattern_8cpp.html" target="_top" xlink:title=" ">
<polygon fill="white" stroke="black" points="3834,-67.5 3834,-97.5 3959,-97.5 3959,-67.5 3834,-67.5"/>
<text text-anchor="start" x="3842" y="-85.5" font-family="Helvetica,sans-Serif" font-size="10.00">src/app/seamly2d/xml</text>
<text text-anchor="middle" x="3896.5" y="-74.5" font-family="Helvetica,sans-Serif" font-size="10.00">/vpattern.cpp</text>
</a>
</g>
</g>
<!-- Node2&#45;&gt;Node24 -->
<g id="edge23" class="edge">
<title>Node2&#45;&gt;Node24</title>
<path fill="none" stroke="midnightblue" d="M2359.52,-147.7C2625.96,-144.56 3535.6,-131.6 3824.5,-98 3827.54,-97.65 3830.64,-97.23 3833.77,-96.77"/>
<polygon fill="midnightblue" stroke="midnightblue" points="2359.15,-144.2 2349.19,-147.82 2359.23,-151.2 2359.15,-144.2"/>
</g>
<!-- Node25 -->
<g id="node25" class="node">
<title>Node25</title>
<g id="a_node25"><a xlink:href="../../d8/dd9/mainwindow_8cpp.html" target="_top" xlink:title=" ">
<polygon fill="white" stroke="black" points="3977.5,-73 3977.5,-92 4165.5,-92 4165.5,-73 3977.5,-73"/>
<text text-anchor="middle" x="4071.5" y="-80" font-family="Helvetica,sans-Serif" font-size="10.00">src/app/seamly2d/mainwindow.cpp</text>
</a>
</g>
</g>
<!-- Node2&#45;&gt;Node25 -->
<g id="edge24" class="edge">
<title>Node2&#45;&gt;Node25</title>
<path fill="none" stroke="midnightblue" d="M2359.18,-147.35C2640.63,-142.81 3648.13,-124.98 3967.5,-98 3984.12,-96.6 4002.15,-94.34 4018.45,-92.03"/>
<polygon fill="midnightblue" stroke="midnightblue" points="2359.02,-143.86 2349.08,-147.52 2359.13,-150.85 2359.02,-143.86"/>
</g>
<!-- Node28 -->
<g id="node28" class="node">
<title>Node28</title>
<g id="a_node28"><a xlink:href="../../d4/d90/fvupdater_8cpp.html" target="_top" xlink:title=" ">
<polygon fill="white" stroke="black" points="4184,-73 4184,-92 4337,-92 4337,-73 4184,-73"/>
<text text-anchor="middle" x="4260.5" y="-80" font-family="Helvetica,sans-Serif" font-size="10.00">src/libs/fervor/fvupdater.cpp</text>
</a>
</g>
</g>
<!-- Node27&#45;&gt;Node28 -->
<g id="edge27" class="edge">
<title>Node27&#45;&gt;Node28</title>
<path fill="none" stroke="midnightblue" d="M5771.14,-138.63C5757.11,-136.8 5742.33,-135.11 5728.5,-134 5115.61,-84.64 4957.46,-157.85 4345.5,-98 4331.64,-96.64 4316.64,-94.36 4303.14,-92"/>
<polygon fill="midnightblue" stroke="midnightblue" points="5770.81,-142.11 5781.19,-139.98 5771.75,-135.18 5770.81,-142.11"/>
</g>
<!-- Node29 -->
<g id="node29" class="node">
<title>Node29</title>
<g id="a_node29"><a xlink:href="../../d9/dc8/dxiface_8cpp.html" target="_top" xlink:title=" ">
<polygon fill="white" stroke="black" points="4355,-73 4355,-92 4490,-92 4490,-73 4355,-73"/>
<text text-anchor="middle" x="4422.5" y="-80" font-family="Helvetica,sans-Serif" font-size="10.00">src/libs/vdxf/dxiface.cpp</text>
</a>
</g>
</g>
<!-- Node27&#45;&gt;Node29 -->
<g id="edge28" class="edge">
<title>Node27&#45;&gt;Node29</title>
<path fill="none" stroke="midnightblue" d="M5770.91,-138.63C5756.95,-136.81 5742.26,-135.13 5728.5,-134 5183.44,-89.22 5042.16,-157.44 4498.5,-98 4486.22,-96.66 4472.94,-94.41 4460.98,-92.07"/>
<polygon fill="midnightblue" stroke="midnightblue" points="5770.54,-142.11 5780.91,-139.97 5771.47,-135.17 5770.54,-142.11"/>
</g>
<!-- Node30 -->
<g id="node30" class="node">
<title>Node30</title>
<g id="a_node30"><a xlink:href="../../da/d75/vabstractarc__p_8h.html" target="_top" xlink:title=" ">
<polygon fill="white" stroke="red" points="4508,-67.5 4508,-97.5 4615,-97.5 4615,-67.5 4508,-67.5"/>
<text text-anchor="start" x="4516" y="-85.5" font-family="Helvetica,sans-Serif" font-size="10.00">src/libs/vgeometry</text>
<text text-anchor="middle" x="4561.5" y="-74.5" font-family="Helvetica,sans-Serif" font-size="10.00">/vabstractarc_p.h</text>
</a>
</g>
</g>
<!-- Node27&#45;&gt;Node30 -->
<g id="edge29" class="edge">
<title>Node27&#45;&gt;Node30</title>
<path fill="none" stroke="midnightblue" d="M5770.67,-138.63C5756.79,-136.82 5742.18,-135.15 5728.5,-134 5238.85,-92.95 5110.65,-162.26 4623.5,-98 4620.76,-97.64 4617.96,-97.21 4615.15,-96.73"/>
<polygon fill="midnightblue" stroke="midnightblue" points="5770.26,-142.11 5780.63,-139.97 5771.19,-135.17 5770.26,-142.11"/>
</g>
<!-- Node32 -->
<g id="node31" class="node">
<title>Node32</title>
<g id="a_node31"><a xlink:href="../../dc/da3/varc__p_8h.html" target="_top" xlink:title=" ">
<polygon fill="white" stroke="red" points="4633,-67.5 4633,-97.5 4740,-97.5 4740,-67.5 4633,-67.5"/>
<text text-anchor="start" x="4641" y="-85.5" font-family="Helvetica,sans-Serif" font-size="10.00">src/libs/vgeometry</text>
<text text-anchor="middle" x="4686.5" y="-74.5" font-family="Helvetica,sans-Serif" font-size="10.00">/varc_p.h</text>
</a>
</g>
</g>
<!-- Node27&#45;&gt;Node32 -->
<g id="edge30" class="edge">
<title>Node27&#45;&gt;Node32</title>
<path fill="none" stroke="midnightblue" d="M5770.44,-138.65C5756.62,-136.85 5742.1,-135.17 5728.5,-134 5294.25,-96.69 5180.49,-155.9 4748.5,-98 4745.76,-97.63 4742.97,-97.2 4740.15,-96.72"/>
<polygon fill="midnightblue" stroke="midnightblue" points="5769.98,-142.12 5780.36,-139.98 5770.91,-135.18 5769.98,-142.12"/>
</g>
<!-- Node34 -->
<g id="node32" class="node">
<title>Node34</title>
<g id="a_node32"><a xlink:href="../../d5/d8e/vcubicbezier__p_8h.html" target="_top" xlink:title=" ">
<polygon fill="white" stroke="red" points="4758,-67.5 4758,-97.5 4865,-97.5 4865,-67.5 4758,-67.5"/>
<text text-anchor="start" x="4766" y="-85.5" font-family="Helvetica,sans-Serif" font-size="10.00">src/libs/vgeometry</text>
<text text-anchor="middle" x="4811.5" y="-74.5" font-family="Helvetica,sans-Serif" font-size="10.00">/vcubicbezier_p.h</text>
</a>
</g>
</g>
<!-- Node27&#45;&gt;Node34 -->
<g id="edge31" class="edge">
<title>Node27&#45;&gt;Node34</title>
<path fill="none" stroke="midnightblue" d="M5769.81,-138.62C5756.18,-136.85 5741.89,-135.19 5728.5,-134 5349.65,-100.43 5250.33,-149.53 4873.5,-98 4870.76,-97.63 4867.97,-97.19 4865.15,-96.7"/>
<polygon fill="midnightblue" stroke="midnightblue" points="5769.7,-142.14 5780.07,-139.99 5770.63,-135.2 5769.7,-142.14"/>
</g>
<!-- Node36 -->
<g id="node33" class="node">
<title>Node36</title>
<g id="a_node33"><a xlink:href="../../df/dde/vellipticalarc__p_8h.html" target="_top" xlink:title=" ">
<polygon fill="white" stroke="black" points="4883,-67.5 4883,-97.5 4990,-97.5 4990,-67.5 4883,-67.5"/>
<text text-anchor="start" x="4891" y="-85.5" font-family="Helvetica,sans-Serif" font-size="10.00">src/libs/vgeometry</text>
<text text-anchor="middle" x="4936.5" y="-74.5" font-family="Helvetica,sans-Serif" font-size="10.00">/vellipticalarc_p.h</text>
</a>
</g>
</g>
<!-- Node27&#45;&gt;Node36 -->
<g id="edge32" class="edge">
<title>Node27&#45;&gt;Node36</title>
<path fill="none" stroke="midnightblue" d="M5769.35,-138.64C5755.85,-136.88 5741.74,-135.22 5728.5,-134 5407.69,-104.34 5323.96,-139.73 5004.5,-98 4999.83,-97.39 4995.01,-96.63 4990.18,-95.78"/>
<polygon fill="midnightblue" stroke="midnightblue" points="5769.14,-142.14 5779.51,-140 5770.07,-135.21 5769.14,-142.14"/>
</g>
<!-- Node37 -->
<g id="node34" class="node">
<title>Node37</title>
<g id="a_node34"><a xlink:href="../../d6/dfb/vellipticalarc_8cpp.html" target="_top" xlink:title=" ">
<polygon fill="white" stroke="black" points="4924,-0.5 4924,-30.5 5031,-30.5 5031,-0.5 4924,-0.5"/>
<text text-anchor="start" x="4932" y="-18.5" font-family="Helvetica,sans-Serif" font-size="10.00">src/libs/vgeometry</text>
<text text-anchor="middle" x="4977.5" y="-7.5" font-family="Helvetica,sans-Serif" font-size="10.00">/vellipticalarc.cpp</text>
</a>
</g>
</g>
<!-- Node27&#45;&gt;Node37 -->
<g id="edge34" class="edge">
<title>Node27&#45;&gt;Node37</title>
<path fill="none" stroke="midnightblue" d="M5769.12,-138.64C5755.69,-136.89 5741.66,-135.23 5728.5,-134 5651.95,-126.83 5105.19,-134.46 5037.5,-98 5010.12,-83.25 4991.92,-49.94 4983.29,-30.78"/>
<polygon fill="midnightblue" stroke="midnightblue" points="5768.86,-142.13 5779.24,-139.99 5769.79,-135.19 5768.86,-142.13"/>
</g>
<!-- Node38 -->
<g id="node35" class="node">
<title>Node38</title>
<g id="a_node35"><a xlink:href="../../d1/d76/vspline__p_8h.html" target="_top" xlink:title=" ">
<polygon fill="white" stroke="red" points="5047,-67.5 5047,-97.5 5154,-97.5 5154,-67.5 5047,-67.5"/>
<text text-anchor="start" x="5055" y="-85.5" font-family="Helvetica,sans-Serif" font-size="10.00">src/libs/vgeometry</text>
<text text-anchor="middle" x="5100.5" y="-74.5" font-family="Helvetica,sans-Serif" font-size="10.00">/vspline_p.h</text>
</a>
</g>
</g>
<!-- Node27&#45;&gt;Node38 -->
<g id="edge35" class="edge">
<title>Node27&#45;&gt;Node38</title>
<path fill="none" stroke="midnightblue" d="M5768.42,-138.67C5755.21,-136.94 5741.43,-135.29 5728.5,-134 5478.12,-109.09 5412.48,-134.34 5163.5,-98 5160.39,-97.55 5157.21,-97.02 5154,-96.44"/>
<polygon fill="midnightblue" stroke="midnightblue" points="5768.02,-142.14 5778.39,-140 5768.94,-135.21 5768.02,-142.14"/>
</g>
<!-- Node40 -->
<g id="node36" class="node">
<title>Node40</title>
<g id="a_node36"><a xlink:href="../../d9/d15/vabstractpiece_8cpp.html" target="_top" xlink:title=" ">
<polygon fill="white" stroke="black" points="5172.5,-73 5172.5,-92 5358.5,-92 5358.5,-73 5172.5,-73"/>
<text text-anchor="middle" x="5265.5" y="-80" font-family="Helvetica,sans-Serif" font-size="10.00">src/libs/vlayout/vabstractpiece.cpp</text>
</a>
</g>
</g>
<!-- Node27&#45;&gt;Node40 -->
<g id="edge36" class="edge">
<title>Node27&#45;&gt;Node40</title>
<path fill="none" stroke="midnightblue" d="M5765.36,-138.63C5753.09,-137.01 5740.43,-135.4 5728.5,-134 5567.92,-115.14 5527,-117.49 5366.5,-98 5351.99,-96.24 5336.35,-94.11 5321.8,-92.02"/>
<polygon fill="midnightblue" stroke="midnightblue" points="5765.18,-142.14 5775.56,-140 5766.11,-135.2 5765.18,-142.14"/>
</g>
<!-- Node41 -->
<g id="node37" class="node">
<title>Node41</title>
<g id="a_node37"><a xlink:href="../../dd/d70/vlayoutpiece_8cpp.html" target="_top" xlink:title=" ">
<polygon fill="white" stroke="black" points="5376,-73 5376,-92 5553,-92 5553,-73 5376,-73"/>
<text text-anchor="middle" x="5464.5" y="-80" font-family="Helvetica,sans-Serif" font-size="10.00">src/libs/vlayout/vlayoutpiece.cpp</text>
</a>
</g>
</g>
<!-- Node27&#45;&gt;Node41 -->
<g id="edge37" class="edge">
<title>Node27&#45;&gt;Node41</title>
<path fill="none" stroke="midnightblue" d="M5776.68,-138.19C5703.82,-125.43 5581.03,-103.92 5513.2,-92.03"/>
<polygon fill="midnightblue" stroke="midnightblue" points="5776.16,-141.66 5786.62,-139.94 5777.37,-134.76 5776.16,-141.66"/>
</g>
<!-- Node42 -->
<g id="node38" class="node">
<title>Node42</title>
<g id="a_node38"><a xlink:href="../../d8/d70/vtextmanager_8cpp.html" target="_top" xlink:title=" ">
<polygon fill="white" stroke="black" points="5571.5,-73 5571.5,-92 5753.5,-92 5753.5,-73 5571.5,-73"/>
<text text-anchor="middle" x="5662.5" y="-80" font-family="Helvetica,sans-Serif" font-size="10.00">src/libs/vlayout/vtextmanager.cpp</text>
</a>
</g>
</g>
<!-- Node27&#45;&gt;Node42 -->
<g id="edge38" class="edge">
<title>Node27&#45;&gt;Node42</title>
<path fill="none" stroke="midnightblue" d="M5802.95,-136.27C5768.62,-123.37 5715.4,-103.38 5685.29,-92.06"/>
<polygon fill="midnightblue" stroke="midnightblue" points="5801.93,-139.63 5812.53,-139.87 5804.4,-133.07 5801.93,-139.63"/>
</g>
<!-- Node43 -->
<g id="node39" class="node">
<title>Node43</title>
<g id="a_node39"><a xlink:href="../../db/d65/dialogexporttocsv_8cpp.html" target="_top" xlink:title=" ">
<polygon fill="white" stroke="black" points="5772,-67.5 5772,-97.5 5899,-97.5 5899,-67.5 5772,-67.5"/>
<text text-anchor="start" x="5780" y="-85.5" font-family="Helvetica,sans-Serif" font-size="10.00">src/libs/vmisc/dialogs</text>
<text text-anchor="middle" x="5835.5" y="-74.5" font-family="Helvetica,sans-Serif" font-size="10.00">/dialogexporttocsv.cpp</text>
</a>
</g>
</g>
<!-- Node27&#45;&gt;Node43 -->
<g id="edge39" class="edge">
<title>Node27&#45;&gt;Node43</title>
<path fill="none" stroke="midnightblue" d="M5835.5,-129.41C5835.5,-119.22 5835.5,-106.9 5835.5,-97.59"/>
<polygon fill="midnightblue" stroke="midnightblue" points="5832,-129.73 5835.5,-139.73 5839,-129.73 5832,-129.73"/>
</g>
<!-- Node44 -->
<g id="node40" class="node">
<title>Node44</title>
<g id="a_node40"><a xlink:href="../../d6/d0b/def_8cpp.html" target="_top" xlink:title=" ">
<polygon fill="white" stroke="black" points="5917.5,-73 5917.5,-92 6039.5,-92 6039.5,-73 5917.5,-73"/>
<text text-anchor="middle" x="5978.5" y="-80" font-family="Helvetica,sans-Serif" font-size="10.00">src/libs/vmisc/def.cpp</text>
</a>
</g>
</g>
<!-- Node27&#45;&gt;Node44 -->
<g id="edge40" class="edge">
<title>Node27&#45;&gt;Node44</title>
<path fill="none" stroke="midnightblue" d="M5863.85,-135.61C5892.17,-122.74 5934.93,-103.31 5959.43,-92.17"/>
<polygon fill="midnightblue" stroke="midnightblue" points="5862.14,-132.54 5854.49,-139.87 5865.04,-138.92 5862.14,-132.54"/>
</g>
<!-- Node45 -->
<g id="node41" class="node">
<title>Node45</title>
<g id="a_node41"><a xlink:href="../../d0/df6/vabstractapplication_8cpp.html" target="_top" xlink:title=" ">
<polygon fill="white" stroke="black" points="6057.5,-73 6057.5,-92 6263.5,-92 6263.5,-73 6057.5,-73"/>
<text text-anchor="middle" x="6160.5" y="-80" font-family="Helvetica,sans-Serif" font-size="10.00">src/libs/vmisc/vabstractapplication.cpp</text>
</a>
</g>
</g>
<!-- Node27&#45;&gt;Node45 -->
<g id="edge41" class="edge">
<title>Node27&#45;&gt;Node45</title>
<path fill="none" stroke="midnightblue" d="M5888.21,-137.96C5952.18,-125.16 6058.78,-103.84 6117.84,-92.03"/>
<polygon fill="midnightblue" stroke="midnightblue" points="5887.44,-134.54 5878.32,-139.94 5888.81,-141.41 5887.44,-134.54"/>
</g>
<!-- Node46 -->
<g id="node42" class="node">
<title>Node46</title>
<g id="a_node42"><a xlink:href="../../d4/d4f/pmsystems_8cpp.html" target="_top" xlink:title=" ">
<polygon fill="white" stroke="black" points="6282,-67.5 6282,-97.5 6389,-97.5 6389,-67.5 6282,-67.5"/>
<text text-anchor="start" x="6290" y="-85.5" font-family="Helvetica,sans-Serif" font-size="10.00">src/libs/vpatterndb</text>
<text text-anchor="middle" x="6335.5" y="-74.5" font-family="Helvetica,sans-Serif" font-size="10.00">/pmsystems.cpp</text>
</a>
</g>
</g>
<!-- Node27&#45;&gt;Node46 -->
<g id="edge42" class="edge">
<title>Node27&#45;&gt;Node46</title>
<path fill="none" stroke="midnightblue" d="M5943.22,-139.42C6031.96,-131.13 6160.89,-117.23 6272.5,-98 6275.6,-97.47 6278.77,-96.88 6281.97,-96.25"/>
<polygon fill="midnightblue" stroke="midnightblue" points="5942.77,-135.94 5933.14,-140.35 5943.42,-142.91 5942.77,-135.94"/>
</g>
<!-- Node47 -->
<g id="node43" class="node">
<title>Node47</title>
<g id="a_node43"><a xlink:href="../../d6/d46/vcontainer_8cpp.html" target="_top" xlink:title=" ">
<polygon fill="white" stroke="black" points="6407,-67.5 6407,-97.5 6514,-97.5 6514,-67.5 6407,-67.5"/>
<text text-anchor="start" x="6415" y="-85.5" font-family="Helvetica,sans-Serif" font-size="10.00">src/libs/vpatterndb</text>
<text text-anchor="middle" x="6460.5" y="-74.5" font-family="Helvetica,sans-Serif" font-size="10.00">/vcontainer.cpp</text>
</a>
</g>
</g>
<!-- Node27&#45;&gt;Node47 -->
<g id="edge43" class="edge">
<title>Node27&#45;&gt;Node47</title>
<path fill="none" stroke="midnightblue" d="M5943.3,-143.2C6056.83,-136.59 6240.55,-122.99 6397.5,-98 6400.6,-97.51 6403.78,-96.95 6406.98,-96.34"/>
<polygon fill="midnightblue" stroke="midnightblue" points="5943,-139.71 5933.21,-143.78 5943.4,-146.7 5943,-139.71"/>
</g>
<!-- Node48 -->
<g id="node44" class="node">
<title>Node48</title>
<g id="a_node44"><a xlink:href="../../db/d11/vformula_8cpp.html" target="_top" xlink:title=" ">
<polygon fill="white" stroke="black" points="6532,-67.5 6532,-97.5 6639,-97.5 6639,-67.5 6532,-67.5"/>
<text text-anchor="start" x="6540" y="-85.5" font-family="Helvetica,sans-Serif" font-size="10.00">src/libs/vpatterndb</text>
<text text-anchor="middle" x="6585.5" y="-74.5" font-family="Helvetica,sans-Serif" font-size="10.00">/vformula.cpp</text>
</a>
</g>
</g>
<!-- Node27&#45;&gt;Node48 -->
<g id="edge44" class="edge">
<title>Node27&#45;&gt;Node48</title>
<path fill="none" stroke="midnightblue" d="M5943.41,-145.66C6079.19,-140.93 6319.23,-128.68 6522.5,-98 6525.61,-97.53 6528.79,-96.99 6531.99,-96.4"/>
<polygon fill="midnightblue" stroke="midnightblue" points="5942.88,-142.18 5933.01,-146.02 5943.12,-149.18 5942.88,-142.18"/>
</g>
<!-- Node49 -->
<g id="node45" class="node">
<title>Node49</title>
<g id="a_node45"><a xlink:href="../../df/d7a/vpiece_8cpp.html" target="_top" xlink:title=" ">
<polygon fill="white" stroke="black" points="6657,-67.5 6657,-97.5 6764,-97.5 6764,-67.5 6657,-67.5"/>
<text text-anchor="start" x="6665" y="-85.5" font-family="Helvetica,sans-Serif" font-size="10.00">src/libs/vpatterndb</text>
<text text-anchor="middle" x="6710.5" y="-74.5" font-family="Helvetica,sans-Serif" font-size="10.00">/vpiece.cpp</text>
</a>
</g>
</g>
<!-- Node27&#45;&gt;Node49 -->
<g id="edge45" class="edge">
<title>Node27&#45;&gt;Node49</title>
<path fill="none" stroke="midnightblue" d="M5943.29,-147.41C6099.36,-144.56 6397.03,-134.36 6647.5,-98 6650.61,-97.55 6653.79,-97.02 6657,-96.44"/>
<polygon fill="midnightblue" stroke="midnightblue" points="5943.15,-143.91 5933.21,-147.59 5943.27,-150.91 5943.15,-143.91"/>
</g>
<!-- Node50 -->
<g id="node46" class="node">
<title>Node50</title>
<g id="a_node46"><a xlink:href="../../df/dba/vpiecenode__p_8h.html" target="_top" xlink:title=" ">
<polygon fill="white" stroke="red" points="6782,-67.5 6782,-97.5 6889,-97.5 6889,-67.5 6782,-67.5"/>
<text text-anchor="start" x="6790" y="-85.5" font-family="Helvetica,sans-Serif" font-size="10.00">src/libs/vpatterndb</text>
<text text-anchor="middle" x="6835.5" y="-74.5" font-family="Helvetica,sans-Serif" font-size="10.00">/vpiecenode_p.h</text>
</a>
</g>
</g>
<!-- Node27&#45;&gt;Node50 -->
<g id="edge46" class="edge">
<title>Node27&#45;&gt;Node50</title>
<path fill="none" stroke="midnightblue" d="M5943.39,-148.71C6118.33,-147.69 6474.36,-140.02 6772.5,-98 6775.5,-97.58 6778.57,-97.08 6781.66,-96.53"/>
<polygon fill="midnightblue" stroke="midnightblue" points="5943.14,-145.21 5933.15,-148.76 5943.17,-152.21 5943.14,-145.21"/>
</g>
<!-- Node52 -->
<g id="node47" class="node">
<title>Node52</title>
<g id="a_node47"><a xlink:href="../../de/d3e/vtranslatevars_8cpp.html" target="_top" xlink:title=" ">
<polygon fill="white" stroke="black" points="6907.5,-67.5 6907.5,-97.5 7017.5,-97.5 7017.5,-67.5 6907.5,-67.5"/>
<text text-anchor="start" x="6915.5" y="-85.5" font-family="Helvetica,sans-Serif" font-size="10.00">src/libs/vpatterndb</text>
<text text-anchor="middle" x="6962.5" y="-74.5" font-family="Helvetica,sans-Serif" font-size="10.00">/vtranslatevars.cpp</text>
</a>
</g>
</g>
<!-- Node27&#45;&gt;Node52 -->
<g id="edge47" class="edge">
<title>Node27&#45;&gt;Node52</title>
<path fill="none" stroke="midnightblue" d="M5943.12,-149.47C6135.54,-149.86 6550.86,-144.55 6897.5,-98 6900.71,-97.57 6903.99,-97.06 6907.3,-96.49"/>
<polygon fill="midnightblue" stroke="midnightblue" points="5943.02,-145.97 5933.01,-149.45 5943,-152.97 5943.02,-145.97"/>
</g>
<!-- Node53 -->
<g id="node48" class="node">
<title>Node53</title>
<g id="a_node48"><a xlink:href="../../df/d40/export__format__combobox_8cpp.html" target="_top" xlink:title=" ">
<polygon fill="white" stroke="black" points="7036,-67.5 7036,-97.5 7169,-97.5 7169,-67.5 7036,-67.5"/>
<text text-anchor="start" x="7044" y="-85.5" font-family="Helvetica,sans-Serif" font-size="10.00">src/libs/vwidgets/export</text>
<text text-anchor="middle" x="7102.5" y="-74.5" font-family="Helvetica,sans-Serif" font-size="10.00">_format_combobox.cpp</text>
</a>
</g>
</g>
<!-- Node27&#45;&gt;Node53 -->
<g id="edge48" class="edge">
<title>Node27&#45;&gt;Node53</title>
<path fill="none" stroke="midnightblue" d="M5943.21,-149.19C6152.64,-149.37 6629.05,-144.09 7026.5,-98 7029.57,-97.64 7032.7,-97.24 7035.86,-96.79"/>
<polygon fill="midnightblue" stroke="midnightblue" points="5943.14,-145.69 5933.14,-149.18 5943.14,-152.69 5943.14,-145.69"/>
</g>
<!-- Node54 -->
<g id="node49" class="node">
<title>Node54</title>
<g id="a_node49"><a xlink:href="../../d3/d4f/mouse__coordinates_8cpp.html" target="_top" xlink:title=" ">
<polygon fill="white" stroke="black" points="7187.5,-67.5 7187.5,-97.5 7321.5,-97.5 7321.5,-67.5 7187.5,-67.5"/>
<text text-anchor="start" x="7195.5" y="-85.5" font-family="Helvetica,sans-Serif" font-size="10.00">src/libs/vwidgets/mouse</text>
<text text-anchor="middle" x="7254.5" y="-74.5" font-family="Helvetica,sans-Serif" font-size="10.00">_coordinates.cpp</text>
</a>
</g>
</g>
<!-- Node27&#45;&gt;Node54 -->
<g id="edge49" class="edge">
<title>Node27&#45;&gt;Node54</title>
<path fill="none" stroke="midnightblue" d="M5943.84,-146.5C6218.94,-141.09 6939.45,-124.74 7177.5,-98 7180.74,-97.64 7184.06,-97.21 7187.4,-96.74"/>
<polygon fill="midnightblue" stroke="midnightblue" points="5943.38,-143.01 5933.45,-146.7 5943.52,-150.01 5943.38,-143.01"/>
</g>
<!-- Node27&#45;&gt;Node62 -->
<g id="edge50" class="edge">
<title>Node27&#45;&gt;Node62</title>
<path fill="none" stroke="midnightblue" d="M5943.2,-148.17C6189.33,-146.68 6811.81,-138.82 7330.5,-98 7348.97,-96.55 7369,-94.31 7387.18,-92.02"/>
<polygon fill="midnightblue" stroke="midnightblue" points="5943.16,-144.67 5933.18,-148.22 5943.2,-151.67 5943.16,-144.67"/>
</g>
<!-- Node36&#45;&gt;Node37 -->
<g id="edge33" class="edge">
<title>Node36&#45;&gt;Node37</title>
<path fill="none" stroke="midnightblue" d="M4950.78,-58.87C4956.71,-49.46 4963.41,-38.83 4968.62,-30.58"/>
<polygon fill="midnightblue" stroke="midnightblue" points="4947.77,-57.07 4945.4,-67.4 4953.69,-60.81 4947.77,-57.07"/>
</g>
</g>
</svg>
