<?xml version="1.0" encoding="UTF-8" standalone="no"?>
<!DOCTYPE svg PUBLIC "-//W3C//DTD SVG 1.1//EN"
 "http://www.w3.org/Graphics/SVG/1.1/DTD/svg11.dtd">
<!-- Generated by graphviz version 2.43.0 (0)
 -->
<!-- Title: src/libs/vmisc/vsettings.h Pages: 1 -->
<svg width="7563pt" height="229pt"
 viewBox="0.00 0.00 7562.50 229.00" xmlns="http://www.w3.org/2000/svg" xmlns:xlink="http://www.w3.org/1999/xlink">
<g id="graph0" class="graph" transform="scale(1 1) rotate(0) translate(4 225)">
<title>src/libs/vmisc/vsettings.h</title>
<polygon fill="white" stroke="transparent" points="-4,4 -4,-225 7558.5,-225 7558.5,4 -4,4"/>
<!-- Node1 -->
<g id="node1" class="node">
<title>Node1</title>
<g id="a_node1"><a xlink:title=" ">
<polygon fill="#bfbfbf" stroke="black" points="5769.5,-201.5 5769.5,-220.5 5909.5,-220.5 5909.5,-201.5 5769.5,-201.5"/>
<text text-anchor="middle" x="5839.5" y="-208.5" font-family="Helvetica,sans-Serif" font-size="10.00">src/libs/vmisc/vsettings.h</text>
</a>
</g>
</g>
<!-- Node2 -->
<g id="node2" class="node">
<title>Node2</title>
<g id="a_node2"><a xlink:href="../../d9/d02/vapplication_8h.html" target="_top" xlink:title=" ">
<polygon fill="white" stroke="black" points="2222,-134.5 2222,-164.5 2349,-164.5 2349,-134.5 2222,-134.5"/>
<text text-anchor="start" x="2230" y="-152.5" font-family="Helvetica,sans-Serif" font-size="10.00">src/app/seamly2d/core</text>
<text text-anchor="middle" x="2285.5" y="-141.5" font-family="Helvetica,sans-Serif" font-size="10.00">/vapplication.h</text>
</a>
</g>
</g>
<!-- Node1&#45;&gt;Node2 -->
<g id="edge1" class="edge">
<title>Node1&#45;&gt;Node2</title>
<path fill="none" stroke="midnightblue" d="M5758.97,-208.65C5277.05,-200.58 2781.1,-158.8 2349.21,-151.57"/>
<polygon fill="midnightblue" stroke="midnightblue" points="5759.25,-212.16 5769.31,-208.82 5759.37,-205.16 5759.25,-212.16"/>
</g>
<!-- Node26 -->
<g id="node26" class="node">
<title>Node26</title>
<g id="a_node26"><a xlink:href="../../d5/d74/vabstractapplication_8h.html" target="_top" xlink:title=" ">
<polygon fill="white" stroke="red" points="5680,-140 5680,-159 5875,-159 5875,-140 5680,-140"/>
<text text-anchor="middle" x="5777.5" y="-147" font-family="Helvetica,sans-Serif" font-size="10.00">src/libs/vmisc/vabstractapplication.h</text>
</a>
</g>
</g>
<!-- Node1&#45;&gt;Node26 -->
<g id="edge25" class="edge">
<title>Node1&#45;&gt;Node26</title>
<path fill="none" stroke="midnightblue" d="M5823.17,-194.32C5811.39,-183.02 5795.94,-168.19 5786.37,-159.01"/>
<polygon fill="midnightblue" stroke="midnightblue" points="5820.98,-197.08 5830.62,-201.48 5825.83,-192.03 5820.98,-197.08"/>
</g>
<!-- Node60 -->
<g id="node49" class="node">
<title>Node60</title>
<g id="a_node49"><a xlink:href="../../d2/d31/vmaingraphicsview_8cpp.html" target="_top" xlink:title=" ">
<polygon fill="white" stroke="black" points="7338.5,-73 7338.5,-92 7554.5,-92 7554.5,-73 7338.5,-73"/>
<text text-anchor="middle" x="7446.5" y="-80" font-family="Helvetica,sans-Serif" font-size="10.00">src/libs/vwidgets/vmaingraphicsview.cpp</text>
</a>
</g>
</g>
<!-- Node1&#45;&gt;Node60 -->
<g id="edge51" class="edge">
<title>Node1&#45;&gt;Node60</title>
<path fill="none" stroke="midnightblue" d="M5855.1,-194.4C5876.56,-173.13 5913.45,-137.27 5921.5,-134 6066.45,-75.01 7173.44,-109.64 7329.5,-98 7348.28,-96.6 7368.67,-94.33 7387.09,-92"/>
<polygon fill="midnightblue" stroke="midnightblue" points="5852.6,-191.96 5847.98,-201.49 5857.54,-196.92 5852.6,-191.96"/>
</g>
<!-- Node66 -->
<g id="node50" class="node">
<title>Node66</title>
<g id="a_node50"><a xlink:href="../../db/d28/vsettings_8cpp.html" target="_top" xlink:title=" ">
<polygon fill="white" stroke="black" points="5930.5,-140 5930.5,-159 6082.5,-159 6082.5,-140 5930.5,-140"/>
<text text-anchor="middle" x="6006.5" y="-147" font-family="Helvetica,sans-Serif" font-size="10.00">src/libs/vmisc/vsettings.cpp</text>
</a>
</g>
</g>
<!-- Node1&#45;&gt;Node66 -->
<g id="edge50" class="edge">
<title>Node1&#45;&gt;Node66</title>
<path fill="none" stroke="midnightblue" d="M5872.95,-198.08C5905.41,-186.52 5953.87,-169.25 5982.62,-159.01"/>
<polygon fill="midnightblue" stroke="midnightblue" points="5871.67,-194.82 5863.43,-201.48 5874.02,-201.42 5871.67,-194.82"/>
</g>
<!-- Node3 -->
<g id="node3" class="node">
<title>Node3</title>
<g id="a_node3"><a xlink:href="../../d3/dd8/vapplication_8cpp.html" target="_top" xlink:title=" ">
<polygon fill="white" stroke="black" points="0,-67.5 0,-97.5 127,-97.5 127,-67.5 0,-67.5"/>
<text text-anchor="start" x="8" y="-85.5" font-family="Helvetica,sans-Serif" font-size="10.00">src/app/seamly2d/core</text>
<text text-anchor="middle" x="63.5" y="-74.5" font-family="Helvetica,sans-Serif" font-size="10.00">/vapplication.cpp</text>
</a>
</g>
</g>
<!-- Node2&#45;&gt;Node3 -->
<g id="edge2" class="edge">
<title>Node2&#45;&gt;Node3</title>
<path fill="none" stroke="midnightblue" d="M2211.53,-148.5C1882.61,-148.25 550.64,-144.32 135.5,-98 132.71,-97.69 129.87,-97.32 127.01,-96.92"/>
<polygon fill="midnightblue" stroke="midnightblue" points="2211.89,-152 2221.89,-148.51 2211.89,-145 2211.89,-152"/>
</g>
<!-- Node4 -->
<g id="node4" class="node">
<title>Node4</title>
<g id="a_node4"><a xlink:href="../../d7/dfa/calculator__dialog_8cpp.html" target="_top" xlink:title=" ">
<polygon fill="white" stroke="black" points="145,-67.5 145,-97.5 286,-97.5 286,-67.5 145,-67.5"/>
<text text-anchor="start" x="153" y="-85.5" font-family="Helvetica,sans-Serif" font-size="10.00">src/app/seamly2d/dialogs</text>
<text text-anchor="middle" x="215.5" y="-74.5" font-family="Helvetica,sans-Serif" font-size="10.00">/calculator_dialog.cpp</text>
</a>
</g>
</g>
<!-- Node2&#45;&gt;Node4 -->
<g id="edge3" class="edge">
<title>Node2&#45;&gt;Node4</title>
<path fill="none" stroke="midnightblue" d="M2211.16,-148.17C1897,-146.53 676.86,-137.69 294.5,-98 291.73,-97.71 288.9,-97.38 286.06,-97.01"/>
<polygon fill="midnightblue" stroke="midnightblue" points="2211.49,-151.67 2221.51,-148.22 2211.53,-144.67 2211.49,-151.67"/>
</g>
<!-- Node5 -->
<g id="node5" class="node">
<title>Node5</title>
<g id="a_node5"><a xlink:href="../../d2/d2d/preferencesconfigurationpage_8cpp.html" target="_top" xlink:title=" ">
<polygon fill="white" stroke="black" points="304,-67.5 304,-97.5 551,-97.5 551,-67.5 304,-67.5"/>
<text text-anchor="start" x="312" y="-85.5" font-family="Helvetica,sans-Serif" font-size="10.00">src/app/seamly2d/dialogs</text>
<text text-anchor="middle" x="427.5" y="-74.5" font-family="Helvetica,sans-Serif" font-size="10.00">/configpages/preferencesconfigurationpage.cpp</text>
</a>
</g>
</g>
<!-- Node2&#45;&gt;Node5 -->
<g id="edge4" class="edge">
<title>Node2&#45;&gt;Node5</title>
<path fill="none" stroke="midnightblue" d="M2211.67,-148.43C1972.72,-147.76 1198.87,-142.07 560.5,-98 557.37,-97.78 554.2,-97.55 551.01,-97.3"/>
<polygon fill="midnightblue" stroke="midnightblue" points="2211.96,-151.93 2221.97,-148.46 2211.98,-144.93 2211.96,-151.93"/>
</g>
<!-- Node6 -->
<g id="node6" class="node">
<title>Node6</title>
<g id="a_node6"><a xlink:href="../../d9/d70/preferencesgraphicsviewpage_8cpp.html" target="_top" xlink:title=" ">
<polygon fill="white" stroke="black" points="569.5,-67.5 569.5,-97.5 817.5,-97.5 817.5,-67.5 569.5,-67.5"/>
<text text-anchor="start" x="577.5" y="-85.5" font-family="Helvetica,sans-Serif" font-size="10.00">src/app/seamly2d/dialogs</text>
<text text-anchor="middle" x="693.5" y="-74.5" font-family="Helvetica,sans-Serif" font-size="10.00">/configpages/preferencesgraphicsviewpage.cpp</text>
</a>
</g>
</g>
<!-- Node2&#45;&gt;Node6 -->
<g id="edge5" class="edge">
<title>Node2&#45;&gt;Node6</title>
<path fill="none" stroke="midnightblue" d="M2211.58,-147.87C1997.18,-145.64 1356.6,-136.02 826.5,-98 823.6,-97.79 820.67,-97.57 817.72,-97.34"/>
<polygon fill="midnightblue" stroke="midnightblue" points="2211.74,-151.37 2221.77,-147.98 2211.81,-144.37 2211.74,-151.37"/>
</g>
<!-- Node7 -->
<g id="node7" class="node">
<title>Node7</title>
<g id="a_node7"><a xlink:href="../../dc/d20/preferencespathpage_8cpp.html" target="_top" xlink:title=" ">
<polygon fill="white" stroke="black" points="836,-67.5 836,-97.5 1041,-97.5 1041,-67.5 836,-67.5"/>
<text text-anchor="start" x="844" y="-85.5" font-family="Helvetica,sans-Serif" font-size="10.00">src/app/seamly2d/dialogs</text>
<text text-anchor="middle" x="938.5" y="-74.5" font-family="Helvetica,sans-Serif" font-size="10.00">/configpages/preferencespathpage.cpp</text>
</a>
</g>
</g>
<!-- Node2&#45;&gt;Node7 -->
<g id="edge6" class="edge">
<title>Node2&#45;&gt;Node7</title>
<path fill="none" stroke="midnightblue" d="M2211.43,-147.77C2019.29,-145.38 1489.16,-135.62 1049.5,-98 1046.79,-97.77 1044.04,-97.52 1041.27,-97.25"/>
<polygon fill="midnightblue" stroke="midnightblue" points="2211.65,-151.27 2221.69,-147.9 2211.74,-144.27 2211.65,-151.27"/>
</g>
<!-- Node8 -->
<g id="node8" class="node">
<title>Node8</title>
<g id="a_node8"><a xlink:href="../../dd/dc2/decimalchart__dialog_8cpp.html" target="_top" xlink:title=" ">
<polygon fill="white" stroke="black" points="1059,-67.5 1059,-97.5 1200,-97.5 1200,-67.5 1059,-67.5"/>
<text text-anchor="start" x="1067" y="-85.5" font-family="Helvetica,sans-Serif" font-size="10.00">src/app/seamly2d/dialogs</text>
<text text-anchor="middle" x="1129.5" y="-74.5" font-family="Helvetica,sans-Serif" font-size="10.00">/decimalchart_dialog.cpp</text>
</a>
</g>
</g>
<!-- Node2&#45;&gt;Node8 -->
<g id="edge7" class="edge">
<title>Node2&#45;&gt;Node8</title>
<path fill="none" stroke="midnightblue" d="M2211.72,-148.46C2036.88,-147.61 1583.88,-141.05 1208.5,-98 1205.73,-97.68 1202.91,-97.33 1200.06,-96.94"/>
<polygon fill="midnightblue" stroke="midnightblue" points="2211.82,-151.96 2221.83,-148.5 2211.85,-144.96 2211.82,-151.96"/>
</g>
<!-- Node9 -->
<g id="node9" class="node">
<title>Node9</title>
<g id="a_node9"><a xlink:href="../../dd/d64/dialogaboutapp_8cpp.html" target="_top" xlink:title=" ">
<polygon fill="white" stroke="black" points="1218,-67.5 1218,-97.5 1359,-97.5 1359,-67.5 1218,-67.5"/>
<text text-anchor="start" x="1226" y="-85.5" font-family="Helvetica,sans-Serif" font-size="10.00">src/app/seamly2d/dialogs</text>
<text text-anchor="middle" x="1288.5" y="-74.5" font-family="Helvetica,sans-Serif" font-size="10.00">/dialogaboutapp.cpp</text>
</a>
</g>
</g>
<!-- Node2&#45;&gt;Node9 -->
<g id="edge8" class="edge">
<title>Node2&#45;&gt;Node9</title>
<path fill="none" stroke="midnightblue" d="M2211.48,-147.54C2055.22,-144.83 1680.41,-134.71 1368.5,-98 1365.42,-97.64 1362.27,-97.23 1359.1,-96.79"/>
<polygon fill="midnightblue" stroke="midnightblue" points="2211.84,-151.05 2221.9,-147.71 2211.96,-144.05 2211.84,-151.05"/>
</g>
<!-- Node10 -->
<g id="node10" class="node">
<title>Node10</title>
<g id="a_node10"><a xlink:href="../../d2/d00/vtooloptionspropertybrowser_8cpp.html" target="_top" xlink:title=" ">
<polygon fill="white" stroke="black" points="1377.5,-67.5 1377.5,-97.5 1557.5,-97.5 1557.5,-67.5 1377.5,-67.5"/>
<text text-anchor="start" x="1385.5" y="-85.5" font-family="Helvetica,sans-Serif" font-size="10.00">src/app/seamly2d/core</text>
<text text-anchor="middle" x="1467.5" y="-74.5" font-family="Helvetica,sans-Serif" font-size="10.00">/vtooloptionspropertybrowser.cpp</text>
</a>
</g>
</g>
<!-- Node2&#45;&gt;Node10 -->
<g id="edge9" class="edge">
<title>Node2&#45;&gt;Node10</title>
<path fill="none" stroke="midnightblue" d="M2211.61,-145.15C2081.13,-138.82 1801.49,-123.42 1566.5,-98 1563.56,-97.68 1560.58,-97.34 1557.57,-96.99"/>
<polygon fill="midnightblue" stroke="midnightblue" points="2211.72,-148.66 2221.88,-145.64 2212.06,-141.67 2211.72,-148.66"/>
</g>
<!-- Node11 -->
<g id="node11" class="node">
<title>Node11</title>
<g id="a_node11"><a xlink:href="../../dc/d63/preferencespatternpage_8cpp.html" target="_top" xlink:title=" ">
<polygon fill="white" stroke="black" points="1575.5,-67.5 1575.5,-97.5 1793.5,-97.5 1793.5,-67.5 1575.5,-67.5"/>
<text text-anchor="start" x="1583.5" y="-85.5" font-family="Helvetica,sans-Serif" font-size="10.00">src/app/seamly2d/dialogs</text>
<text text-anchor="middle" x="1684.5" y="-74.5" font-family="Helvetica,sans-Serif" font-size="10.00">/configpages/preferencespatternpage.cpp</text>
</a>
</g>
</g>
<!-- Node2&#45;&gt;Node11 -->
<g id="edge10" class="edge">
<title>Node2&#45;&gt;Node11</title>
<path fill="none" stroke="midnightblue" d="M2211.72,-141.21C2116.95,-131.74 1947.38,-114.47 1802.5,-98 1799.63,-97.67 1796.72,-97.34 1793.78,-97"/>
<polygon fill="midnightblue" stroke="midnightblue" points="2211.48,-144.7 2221.78,-142.21 2212.18,-137.73 2211.48,-144.7"/>
</g>
<!-- Node12 -->
<g id="node12" class="node">
<title>Node12</title>
<g id="a_node12"><a xlink:href="../../db/def/dialoglayoutsettings_8cpp.html" target="_top" xlink:title=" ">
<polygon fill="white" stroke="black" points="1812,-67.5 1812,-97.5 1953,-97.5 1953,-67.5 1812,-67.5"/>
<text text-anchor="start" x="1820" y="-85.5" font-family="Helvetica,sans-Serif" font-size="10.00">src/app/seamly2d/dialogs</text>
<text text-anchor="middle" x="1882.5" y="-74.5" font-family="Helvetica,sans-Serif" font-size="10.00">/dialoglayoutsettings.cpp</text>
</a>
</g>
</g>
<!-- Node2&#45;&gt;Node12 -->
<g id="edge11" class="edge">
<title>Node2&#45;&gt;Node12</title>
<path fill="none" stroke="midnightblue" d="M2211.53,-137.55C2145.8,-127.68 2047.14,-112.53 1961.5,-98 1958.75,-97.53 1955.95,-97.05 1953.12,-96.56"/>
<polygon fill="midnightblue" stroke="midnightblue" points="2211.38,-141.07 2221.79,-139.09 2212.42,-134.14 2211.38,-141.07"/>
</g>
<!-- Node13 -->
<g id="node13" class="node">
<title>Node13</title>
<g id="a_node13"><a xlink:href="../../d6/d89/dialoglayoutprogress_8cpp.html" target="_top" xlink:title=" ">
<polygon fill="white" stroke="black" points="1971,-67.5 1971,-97.5 2114,-97.5 2114,-67.5 1971,-67.5"/>
<text text-anchor="start" x="1979" y="-85.5" font-family="Helvetica,sans-Serif" font-size="10.00">src/app/seamly2d/dialogs</text>
<text text-anchor="middle" x="2042.5" y="-74.5" font-family="Helvetica,sans-Serif" font-size="10.00">/dialoglayoutprogress.cpp</text>
</a>
</g>
</g>
<!-- Node2&#45;&gt;Node13 -->
<g id="edge12" class="edge">
<title>Node2&#45;&gt;Node13</title>
<path fill="none" stroke="midnightblue" d="M2223.25,-131.85C2183.64,-121.25 2132.89,-107.68 2095.25,-97.61"/>
<polygon fill="midnightblue" stroke="midnightblue" points="2222.51,-135.27 2233.07,-134.48 2224.32,-128.51 2222.51,-135.27"/>
</g>
<!-- Node14 -->
<g id="node14" class="node">
<title>Node14</title>
<g id="a_node14"><a xlink:href="../../de/d87/dialognewpattern_8cpp.html" target="_top" xlink:title=" ">
<polygon fill="white" stroke="black" points="2132,-67.5 2132,-97.5 2273,-97.5 2273,-67.5 2132,-67.5"/>
<text text-anchor="start" x="2140" y="-85.5" font-family="Helvetica,sans-Serif" font-size="10.00">src/app/seamly2d/dialogs</text>
<text text-anchor="middle" x="2202.5" y="-74.5" font-family="Helvetica,sans-Serif" font-size="10.00">/dialognewpattern.cpp</text>
</a>
</g>
</g>
<!-- Node2&#45;&gt;Node14 -->
<g id="edge13" class="edge">
<title>Node2&#45;&gt;Node14</title>
<path fill="none" stroke="midnightblue" d="M2259.54,-128.17C2246.85,-118.23 2231.89,-106.51 2220.47,-97.58"/>
<polygon fill="midnightblue" stroke="midnightblue" points="2257.46,-130.99 2267.49,-134.4 2261.78,-125.47 2257.46,-130.99"/>
</g>
<!-- Node15 -->
<g id="node15" class="node">
<title>Node15</title>
<g id="a_node15"><a xlink:href="../../d5/d18/dialogpatternproperties_8cpp.html" target="_top" xlink:title=" ">
<polygon fill="white" stroke="black" points="2291,-67.5 2291,-97.5 2446,-97.5 2446,-67.5 2291,-67.5"/>
<text text-anchor="start" x="2299" y="-85.5" font-family="Helvetica,sans-Serif" font-size="10.00">src/app/seamly2d/dialogs</text>
<text text-anchor="middle" x="2368.5" y="-74.5" font-family="Helvetica,sans-Serif" font-size="10.00">/dialogpatternproperties.cpp</text>
</a>
</g>
</g>
<!-- Node2&#45;&gt;Node15 -->
<g id="edge14" class="edge">
<title>Node2&#45;&gt;Node15</title>
<path fill="none" stroke="midnightblue" d="M2311.46,-128.17C2324.15,-118.23 2339.11,-106.51 2350.53,-97.58"/>
<polygon fill="midnightblue" stroke="midnightblue" points="2309.22,-125.47 2303.51,-134.4 2313.54,-130.99 2309.22,-125.47"/>
</g>
<!-- Node16 -->
<g id="node16" class="node">
<title>Node16</title>
<g id="a_node16"><a xlink:href="../../d5/dc5/dialogpreferences_8cpp.html" target="_top" xlink:title=" ">
<polygon fill="white" stroke="black" points="2464,-67.5 2464,-97.5 2605,-97.5 2605,-67.5 2464,-67.5"/>
<text text-anchor="start" x="2472" y="-85.5" font-family="Helvetica,sans-Serif" font-size="10.00">src/app/seamly2d/dialogs</text>
<text text-anchor="middle" x="2534.5" y="-74.5" font-family="Helvetica,sans-Serif" font-size="10.00">/dialogpreferences.cpp</text>
</a>
</g>
</g>
<!-- Node2&#45;&gt;Node16 -->
<g id="edge15" class="edge">
<title>Node2&#45;&gt;Node16</title>
<path fill="none" stroke="midnightblue" d="M2349.03,-131.92C2389.66,-121.31 2441.8,-107.7 2480.44,-97.61"/>
<polygon fill="midnightblue" stroke="midnightblue" points="2348.01,-128.56 2339.22,-134.48 2349.78,-135.34 2348.01,-128.56"/>
</g>
<!-- Node17 -->
<g id="node17" class="node">
<title>Node17</title>
<g id="a_node17"><a xlink:href="../../dd/d54/export__layout__dialog_8cpp.html" target="_top" xlink:title=" ">
<polygon fill="white" stroke="black" points="2623,-67.5 2623,-97.5 2766,-97.5 2766,-67.5 2623,-67.5"/>
<text text-anchor="start" x="2631" y="-85.5" font-family="Helvetica,sans-Serif" font-size="10.00">src/app/seamly2d/dialogs</text>
<text text-anchor="middle" x="2694.5" y="-74.5" font-family="Helvetica,sans-Serif" font-size="10.00">/export_layout_dialog.cpp</text>
</a>
</g>
</g>
<!-- Node2&#45;&gt;Node17 -->
<g id="edge16" class="edge">
<title>Node2&#45;&gt;Node17</title>
<path fill="none" stroke="midnightblue" d="M2359.04,-137.7C2425.56,-127.81 2526.2,-112.53 2613.5,-98 2616.6,-97.48 2619.77,-96.95 2622.96,-96.4"/>
<polygon fill="midnightblue" stroke="midnightblue" points="2358.44,-134.25 2349.07,-139.18 2359.47,-141.18 2358.44,-134.25"/>
</g>
<!-- Node18 -->
<g id="node18" class="node">
<title>Node18</title>
<g id="a_node18"><a xlink:href="../../db/d5c/groups__widget_8cpp.html" target="_top" xlink:title=" ">
<polygon fill="white" stroke="black" points="2784,-67.5 2784,-97.5 2925,-97.5 2925,-67.5 2784,-67.5"/>
<text text-anchor="start" x="2792" y="-85.5" font-family="Helvetica,sans-Serif" font-size="10.00">src/app/seamly2d/dialogs</text>
<text text-anchor="middle" x="2854.5" y="-74.5" font-family="Helvetica,sans-Serif" font-size="10.00">/groups_widget.cpp</text>
</a>
</g>
</g>
<!-- Node2&#45;&gt;Node18 -->
<g id="edge17" class="edge">
<title>Node2&#45;&gt;Node18</title>
<path fill="none" stroke="midnightblue" d="M2359.56,-142.63C2455.54,-134.61 2627.95,-118.82 2774.5,-98 2777.57,-97.56 2780.71,-97.09 2783.88,-96.6"/>
<polygon fill="midnightblue" stroke="midnightblue" points="2359.05,-139.15 2349.38,-143.47 2359.63,-146.13 2359.05,-139.15"/>
</g>
<!-- Node19 -->
<g id="node19" class="node">
<title>Node19</title>
<g id="a_node19"><a xlink:href="../../dd/d84/shortcuts__dialog_8cpp.html" target="_top" xlink:title=" ">
<polygon fill="white" stroke="black" points="2943,-67.5 2943,-97.5 3084,-97.5 3084,-67.5 2943,-67.5"/>
<text text-anchor="start" x="2951" y="-85.5" font-family="Helvetica,sans-Serif" font-size="10.00">src/app/seamly2d/dialogs</text>
<text text-anchor="middle" x="3013.5" y="-74.5" font-family="Helvetica,sans-Serif" font-size="10.00">/shortcuts_dialog.cpp</text>
</a>
</g>
</g>
<!-- Node2&#45;&gt;Node19 -->
<g id="edge18" class="edge">
<title>Node2&#45;&gt;Node19</title>
<path fill="none" stroke="midnightblue" d="M2359.4,-145.19C2479.98,-139.23 2726.35,-124.77 2933.5,-98 2936.58,-97.6 2939.72,-97.17 2942.89,-96.7"/>
<polygon fill="midnightblue" stroke="midnightblue" points="2359,-141.7 2349.19,-145.69 2359.34,-148.69 2359,-141.7"/>
</g>
<!-- Node20 -->
<g id="node20" class="node">
<title>Node20</title>
<g id="a_node20"><a xlink:href="../../d5/de4/vabstractlayoutdialog_8cpp.html" target="_top" xlink:title=" ">
<polygon fill="white" stroke="black" points="3102.5,-67.5 3102.5,-97.5 3248.5,-97.5 3248.5,-67.5 3102.5,-67.5"/>
<text text-anchor="start" x="3110.5" y="-85.5" font-family="Helvetica,sans-Serif" font-size="10.00">src/app/seamly2d/dialogs</text>
<text text-anchor="middle" x="3175.5" y="-74.5" font-family="Helvetica,sans-Serif" font-size="10.00">/vabstractlayoutdialog.cpp</text>
</a>
</g>
</g>
<!-- Node2&#45;&gt;Node20 -->
<g id="edge19" class="edge">
<title>Node2&#45;&gt;Node20</title>
<path fill="none" stroke="midnightblue" d="M2359.35,-146.61C2501.66,-142.35 2823.55,-129.81 3092.5,-98 3095.7,-97.62 3098.96,-97.2 3102.24,-96.75"/>
<polygon fill="midnightblue" stroke="midnightblue" points="2358.91,-143.12 2349.01,-146.91 2359.11,-150.12 2358.91,-143.12"/>
</g>
<!-- Node21 -->
<g id="node21" class="node">
<title>Node21</title>
<g id="a_node21"><a xlink:href="../../dc/d14/app_2seamly2d_2main_8cpp.html" target="_top" xlink:title=" ">
<polygon fill="white" stroke="black" points="3267,-73 3267,-92 3418,-92 3418,-73 3267,-73"/>
<text text-anchor="middle" x="3342.5" y="-80" font-family="Helvetica,sans-Serif" font-size="10.00">src/app/seamly2d/main.cpp</text>
</a>
</g>
</g>
<!-- Node2&#45;&gt;Node21 -->
<g id="edge20" class="edge">
<title>Node2&#45;&gt;Node21</title>
<path fill="none" stroke="midnightblue" d="M2359.48,-147.61C2522.29,-144.99 2923.68,-135.02 3257.5,-98 3270.89,-96.52 3285.37,-94.28 3298.52,-92.01"/>
<polygon fill="midnightblue" stroke="midnightblue" points="2359.05,-144.11 2349.11,-147.77 2359.16,-151.11 2359.05,-144.11"/>
</g>
<!-- Node22 -->
<g id="node22" class="node">
<title>Node22</title>
<g id="a_node22"><a xlink:href="../../d2/df4/show__info__dialog_8cpp.html" target="_top" xlink:title=" ">
<polygon fill="white" stroke="black" points="3436,-67.5 3436,-97.5 3577,-97.5 3577,-67.5 3436,-67.5"/>
<text text-anchor="start" x="3444" y="-85.5" font-family="Helvetica,sans-Serif" font-size="10.00">src/app/seamly2d/dialogs</text>
<text text-anchor="middle" x="3506.5" y="-74.5" font-family="Helvetica,sans-Serif" font-size="10.00">/show_info_dialog.cpp</text>
</a>
</g>
</g>
<!-- Node2&#45;&gt;Node22 -->
<g id="edge21" class="edge">
<title>Node2&#45;&gt;Node22</title>
<path fill="none" stroke="midnightblue" d="M2359.38,-148.68C2541.38,-148.37 3025.66,-142.99 3426.5,-98 3429.59,-97.65 3432.73,-97.26 3435.91,-96.83"/>
<polygon fill="midnightblue" stroke="midnightblue" points="2359.13,-145.18 2349.13,-148.69 2359.13,-152.18 2359.13,-145.18"/>
</g>
<!-- Node23 -->
<g id="node23" class="node">
<title>Node23</title>
<g id="a_node23"><a xlink:href="../../d8/de8/mainwindowsnogui_8cpp.html" target="_top" xlink:title=" ">
<polygon fill="white" stroke="black" points="3595,-73 3595,-92 3816,-92 3816,-73 3595,-73"/>
<text text-anchor="middle" x="3705.5" y="-80" font-family="Helvetica,sans-Serif" font-size="10.00">src/app/seamly2d/mainwindowsnogui.cpp</text>
</a>
</g>
</g>
<!-- Node2&#45;&gt;Node23 -->
<g id="edge22" class="edge">
<title>Node2&#45;&gt;Node23</title>
<path fill="none" stroke="midnightblue" d="M2359.21,-147.74C2557.64,-145.23 3119.66,-135.13 3585.5,-98 3604.22,-96.51 3624.52,-94.29 3643,-92.03"/>
<polygon fill="midnightblue" stroke="midnightblue" points="2359.14,-144.24 2349.19,-147.86 2359.23,-151.24 2359.14,-144.24"/>
</g>
<!-- Node24 -->
<g id="node24" class="node">
<title>Node24</title>
<g id="a_node24"><a xlink:href="../../d3/d49/vpattern_8cpp.html" target="_top" xlink:title=" ">
<polygon fill="white" stroke="black" points="3834,-67.5 3834,-97.5 3959,-97.5 3959,-67.5 3834,-67.5"/>
<text text-anchor="start" x="3842" y="-85.5" font-family="Helvetica,sans-Serif" font-size="10.00">src/app/seamly2d/xml</text>
<text text-anchor="middle" x="3896.5" y="-74.5" font-family="Helvetica,sans-Serif" font-size="10.00">/vpattern.cpp</text>
</a>
</g>
</g>
<!-- Node2&#45;&gt;Node24 -->
<g id="edge23" class="edge">
<title>Node2&#45;&gt;Node24</title>
<path fill="none" stroke="midnightblue" d="M2359.52,-147.7C2625.96,-144.56 3535.6,-131.6 3824.5,-98 3827.54,-97.65 3830.64,-97.23 3833.77,-96.77"/>
<polygon fill="midnightblue" stroke="midnightblue" points="2359.15,-144.2 2349.19,-147.82 2359.23,-151.2 2359.15,-144.2"/>
</g>
<!-- Node25 -->
<g id="node25" class="node">
<title>Node25</title>
<g id="a_node25"><a xlink:href="../../d8/dd9/mainwindow_8cpp.html" target="_top" xlink:title=" ">
<polygon fill="white" stroke="black" points="3977.5,-73 3977.5,-92 4165.5,-92 4165.5,-73 3977.5,-73"/>
<text text-anchor="middle" x="4071.5" y="-80" font-family="Helvetica,sans-Serif" font-size="10.00">src/app/seamly2d/mainwindow.cpp</text>
</a>
</g>
</g>
<!-- Node2&#45;&gt;Node25 -->
<g id="edge24" class="edge">
<title>Node2&#45;&gt;Node25</title>
<path fill="none" stroke="midnightblue" d="M2359.18,-147.35C2640.63,-142.81 3648.13,-124.98 3967.5,-98 3984.12,-96.6 4002.15,-94.34 4018.45,-92.03"/>
<polygon fill="midnightblue" stroke="midnightblue" points="2359.02,-143.86 2349.08,-147.52 2359.13,-150.85 2359.02,-143.86"/>
</g>
<!-- Node27 -->
<g id="node27" class="node">
<title>Node27</title>
<g id="a_node27"><a xlink:href="../../d4/d90/fvupdater_8cpp.html" target="_top" xlink:title=" ">
<polygon fill="white" stroke="black" points="4184,-73 4184,-92 4337,-92 4337,-73 4184,-73"/>
<text text-anchor="middle" x="4260.5" y="-80" font-family="Helvetica,sans-Serif" font-size="10.00">src/libs/fervor/fvupdater.cpp</text>
</a>
</g>
</g>
<!-- Node26&#45;&gt;Node27 -->
<g id="edge26" class="edge">
<title>Node26&#45;&gt;Node27</title>
<path fill="none" stroke="midnightblue" d="M5669.56,-146.57C5382.02,-141.11 4601.99,-124.28 4345.5,-98 4331.95,-96.61 4317.29,-94.38 4304.03,-92.08"/>
<polygon fill="midnightblue" stroke="midnightblue" points="5669.52,-150.07 5679.58,-146.75 5669.65,-143.07 5669.52,-150.07"/>
</g>
<!-- Node28 -->
<g id="node28" class="node">
<title>Node28</title>
<g id="a_node28"><a xlink:href="../../d9/dc8/dxiface_8cpp.html" target="_top" xlink:title=" ">
<polygon fill="white" stroke="black" points="4355,-73 4355,-92 4490,-92 4490,-73 4355,-73"/>
<text text-anchor="middle" x="4422.5" y="-80" font-family="Helvetica,sans-Serif" font-size="10.00">src/libs/vdxf/dxiface.cpp</text>
</a>
</g>
</g>
<!-- Node26&#45;&gt;Node28 -->
<g id="edge27" class="edge">
<title>Node26&#45;&gt;Node28</title>
<path fill="none" stroke="midnightblue" d="M5669.95,-146.32C5404.64,-140.6 4724.11,-123.83 4498.5,-98 4486.36,-96.61 4473.24,-94.38 4461.38,-92.07"/>
<polygon fill="midnightblue" stroke="midnightblue" points="5669.91,-149.82 5679.98,-146.53 5670.06,-142.82 5669.91,-149.82"/>
</g>
<!-- Node29 -->
<g id="node29" class="node">
<title>Node29</title>
<g id="a_node29"><a xlink:href="../../da/d75/vabstractarc__p_8h.html" target="_top" xlink:title=" ">
<polygon fill="white" stroke="red" points="4508,-67.5 4508,-97.5 4615,-97.5 4615,-67.5 4508,-67.5"/>
<text text-anchor="start" x="4516" y="-85.5" font-family="Helvetica,sans-Serif" font-size="10.00">src/libs/vgeometry</text>
<text text-anchor="middle" x="4561.5" y="-74.5" font-family="Helvetica,sans-Serif" font-size="10.00">/vabstractarc_p.h</text>
</a>
</g>
</g>
<!-- Node26&#45;&gt;Node29 -->
<g id="edge28" class="edge">
<title>Node26&#45;&gt;Node29</title>
<path fill="none" stroke="midnightblue" d="M5669.92,-146.35C5423.42,-141.01 4823.61,-125.54 4623.5,-98 4620.76,-97.62 4617.97,-97.18 4615.15,-96.69"/>
<polygon fill="midnightblue" stroke="midnightblue" points="5669.89,-149.85 5679.97,-146.57 5670.04,-142.85 5669.89,-149.85"/>
</g>
<!-- Node31 -->
<g id="node30" class="node">
<title>Node31</title>
<g id="a_node30"><a xlink:href="../../dc/da3/varc__p_8h.html" target="_top" xlink:title=" ">
<polygon fill="white" stroke="red" points="4633,-67.5 4633,-97.5 4740,-97.5 4740,-67.5 4633,-67.5"/>
<text text-anchor="start" x="4641" y="-85.5" font-family="Helvetica,sans-Serif" font-size="10.00">src/libs/vgeometry</text>
<text text-anchor="middle" x="4686.5" y="-74.5" font-family="Helvetica,sans-Serif" font-size="10.00">/varc_p.h</text>
</a>
</g>
</g>
<!-- Node26&#45;&gt;Node31 -->
<g id="edge29" class="edge">
<title>Node26&#45;&gt;Node31</title>
<path fill="none" stroke="midnightblue" d="M5669.41,-145.67C5442.64,-139.33 4923.71,-122.58 4748.5,-98 4745.76,-97.62 4742.97,-97.17 4740.16,-96.67"/>
<polygon fill="midnightblue" stroke="midnightblue" points="5669.56,-149.18 5679.66,-145.96 5669.76,-142.18 5669.56,-149.18"/>
</g>
<!-- Node33 -->
<g id="node31" class="node">
<title>Node33</title>
<g id="a_node31"><a xlink:href="../../d5/d8e/vcubicbezier__p_8h.html" target="_top" xlink:title=" ">
<polygon fill="white" stroke="red" points="4758,-67.5 4758,-97.5 4865,-97.5 4865,-67.5 4758,-67.5"/>
<text text-anchor="start" x="4766" y="-85.5" font-family="Helvetica,sans-Serif" font-size="10.00">src/libs/vgeometry</text>
<text text-anchor="middle" x="4811.5" y="-74.5" font-family="Helvetica,sans-Serif" font-size="10.00">/vcubicbezier_p.h</text>
</a>
</g>
</g>
<!-- Node26&#45;&gt;Node33 -->
<g id="edge30" class="edge">
<title>Node26&#45;&gt;Node33</title>
<path fill="none" stroke="midnightblue" d="M5669.75,-148.52C5499.69,-147.19 5159.01,-139.04 4873.5,-98 4870.76,-97.61 4867.97,-97.15 4865.16,-96.65"/>
<polygon fill="midnightblue" stroke="midnightblue" points="5669.94,-152.02 5679.96,-148.59 5669.99,-145.02 5669.94,-152.02"/>
</g>
<!-- Node35 -->
<g id="node32" class="node">
<title>Node35</title>
<g id="a_node32"><a xlink:href="../../df/dde/vellipticalarc__p_8h.html" target="_top" xlink:title=" ">
<polygon fill="white" stroke="black" points="4883,-67.5 4883,-97.5 4990,-97.5 4990,-67.5 4883,-67.5"/>
<text text-anchor="start" x="4891" y="-85.5" font-family="Helvetica,sans-Serif" font-size="10.00">src/libs/vgeometry</text>
<text text-anchor="middle" x="4936.5" y="-74.5" font-family="Helvetica,sans-Serif" font-size="10.00">/vellipticalarc_p.h</text>
</a>
</g>
</g>
<!-- Node26&#45;&gt;Node35 -->
<g id="edge31" class="edge">
<title>Node26&#45;&gt;Node35</title>
<path fill="none" stroke="midnightblue" d="M5669.6,-146.38C5519.73,-142.31 5240.37,-130.68 5004.5,-98 4999.84,-97.35 4995.02,-96.57 4990.19,-95.7"/>
<polygon fill="midnightblue" stroke="midnightblue" points="5669.64,-149.88 5679.73,-146.65 5669.82,-142.88 5669.64,-149.88"/>
</g>
<!-- Node36 -->
<g id="node33" class="node">
<title>Node36</title>
<g id="a_node33"><a xlink:href="../../d6/dfb/vellipticalarc_8cpp.html" target="_top" xlink:title=" ">
<polygon fill="white" stroke="black" points="4924,-0.5 4924,-30.5 5031,-30.5 5031,-0.5 4924,-0.5"/>
<text text-anchor="start" x="4932" y="-18.5" font-family="Helvetica,sans-Serif" font-size="10.00">src/libs/vgeometry</text>
<text text-anchor="middle" x="4977.5" y="-7.5" font-family="Helvetica,sans-Serif" font-size="10.00">/vellipticalarc.cpp</text>
</a>
</g>
</g>
<!-- Node26&#45;&gt;Node36 -->
<g id="edge33" class="edge">
<title>Node26&#45;&gt;Node36</title>
<path fill="none" stroke="midnightblue" d="M5669.65,-146.13C5477.62,-141.17 5091.45,-127.63 5037.5,-98 5010.24,-83.03 4991.99,-49.8 4983.33,-30.72"/>
<polygon fill="midnightblue" stroke="midnightblue" points="5669.68,-149.63 5679.76,-146.38 5669.86,-142.63 5669.68,-149.63"/>
</g>
<!-- Node37 -->
<g id="node34" class="node">
<title>Node37</title>
<g id="a_node34"><a xlink:href="../../d1/d76/vspline__p_8h.html" target="_top" xlink:title=" ">
<polygon fill="white" stroke="red" points="5047,-67.5 5047,-97.5 5154,-97.5 5154,-67.5 5047,-67.5"/>
<text text-anchor="start" x="5055" y="-85.5" font-family="Helvetica,sans-Serif" font-size="10.00">src/libs/vgeometry</text>
<text text-anchor="middle" x="5100.5" y="-74.5" font-family="Helvetica,sans-Serif" font-size="10.00">/vspline_p.h</text>
</a>
</g>
</g>
<!-- Node26&#45;&gt;Node37 -->
<g id="edge34" class="edge">
<title>Node26&#45;&gt;Node37</title>
<path fill="none" stroke="midnightblue" d="M5669.78,-144.34C5546.74,-138.51 5339.67,-125.37 5163.5,-98 5160.39,-97.52 5157.22,-96.97 5154.01,-96.37"/>
<polygon fill="midnightblue" stroke="midnightblue" points="5669.8,-147.85 5679.95,-144.82 5670.13,-140.86 5669.8,-147.85"/>
</g>
<!-- Node39 -->
<g id="node35" class="node">
<title>Node39</title>
<g id="a_node35"><a xlink:href="../../d9/d15/vabstractpiece_8cpp.html" target="_top" xlink:title=" ">
<polygon fill="white" stroke="black" points="5172.5,-73 5172.5,-92 5358.5,-92 5358.5,-73 5172.5,-73"/>
<text text-anchor="middle" x="5265.5" y="-80" font-family="Helvetica,sans-Serif" font-size="10.00">src/libs/vlayout/vabstractpiece.cpp</text>
</a>
</g>
</g>
<!-- Node26&#45;&gt;Node39 -->
<g id="edge35" class="edge">
<title>Node26&#45;&gt;Node39</title>
<path fill="none" stroke="midnightblue" d="M5694.17,-138.77C5611.1,-128.94 5479.89,-113.1 5366.5,-98 5352.54,-96.14 5337.51,-94.04 5323.42,-92.02"/>
<polygon fill="midnightblue" stroke="midnightblue" points="5693.97,-142.27 5704.31,-139.96 5694.79,-135.31 5693.97,-142.27"/>
</g>
<!-- Node40 -->
<g id="node36" class="node">
<title>Node40</title>
<g id="a_node36"><a xlink:href="../../dd/d70/vlayoutpiece_8cpp.html" target="_top" xlink:title=" ">
<polygon fill="white" stroke="black" points="5376,-73 5376,-92 5553,-92 5553,-73 5376,-73"/>
<text text-anchor="middle" x="5464.5" y="-80" font-family="Helvetica,sans-Serif" font-size="10.00">src/libs/vlayout/vlayoutpiece.cpp</text>
</a>
</g>
</g>
<!-- Node26&#45;&gt;Node40 -->
<g id="edge36" class="edge">
<title>Node26&#45;&gt;Node40</title>
<path fill="none" stroke="midnightblue" d="M5726.37,-137.88C5664.82,-125.1 5562.65,-103.88 5505.83,-92.08"/>
<polygon fill="midnightblue" stroke="midnightblue" points="5725.76,-141.33 5736.26,-139.94 5727.18,-134.48 5725.76,-141.33"/>
</g>
<!-- Node41 -->
<g id="node37" class="node">
<title>Node41</title>
<g id="a_node37"><a xlink:href="../../db/d65/dialogexporttocsv_8cpp.html" target="_top" xlink:title=" ">
<polygon fill="white" stroke="black" points="5571,-67.5 5571,-97.5 5698,-97.5 5698,-67.5 5571,-67.5"/>
<text text-anchor="start" x="5579" y="-85.5" font-family="Helvetica,sans-Serif" font-size="10.00">src/libs/vmisc/dialogs</text>
<text text-anchor="middle" x="5634.5" y="-74.5" font-family="Helvetica,sans-Serif" font-size="10.00">/dialogexporttocsv.cpp</text>
</a>
</g>
</g>
<!-- Node26&#45;&gt;Node41 -->
<g id="edge37" class="edge">
<title>Node26&#45;&gt;Node41</title>
<path fill="none" stroke="midnightblue" d="M5749.17,-135.62C5724.98,-124.63 5690.25,-108.84 5665.36,-97.53"/>
<polygon fill="midnightblue" stroke="midnightblue" points="5747.96,-138.92 5758.51,-139.87 5750.86,-132.54 5747.96,-138.92"/>
</g>
<!-- Node42 -->
<g id="node38" class="node">
<title>Node42</title>
<g id="a_node38"><a xlink:href="../../d6/d0b/def_8cpp.html" target="_top" xlink:title=" ">
<polygon fill="white" stroke="black" points="5716.5,-73 5716.5,-92 5838.5,-92 5838.5,-73 5716.5,-73"/>
<text text-anchor="middle" x="5777.5" y="-80" font-family="Helvetica,sans-Serif" font-size="10.00">src/libs/vmisc/def.cpp</text>
</a>
</g>
</g>
<!-- Node26&#45;&gt;Node42 -->
<g id="edge38" class="edge">
<title>Node26&#45;&gt;Node42</title>
<path fill="none" stroke="midnightblue" d="M5777.5,-129.54C5777.5,-117.17 5777.5,-101.62 5777.5,-92.13"/>
<polygon fill="midnightblue" stroke="midnightblue" points="5774,-129.73 5777.5,-139.73 5781,-129.73 5774,-129.73"/>
</g>
<!-- Node43 -->
<g id="node39" class="node">
<title>Node43</title>
<g id="a_node39"><a xlink:href="../../d0/df6/vabstractapplication_8cpp.html" target="_top" xlink:title=" ">
<polygon fill="white" stroke="black" points="5856.5,-73 5856.5,-92 6062.5,-92 6062.5,-73 5856.5,-73"/>
<text text-anchor="middle" x="5959.5" y="-80" font-family="Helvetica,sans-Serif" font-size="10.00">src/libs/vmisc/vabstractapplication.cpp</text>
</a>
</g>
</g>
<!-- Node26&#45;&gt;Node43 -->
<g id="edge39" class="edge">
<title>Node26&#45;&gt;Node43</title>
<path fill="none" stroke="midnightblue" d="M5811.28,-136.44C5847.38,-123.54 5903.71,-103.42 5935.52,-92.06"/>
<polygon fill="midnightblue" stroke="midnightblue" points="5809.91,-133.21 5801.67,-139.87 5812.26,-139.8 5809.91,-133.21"/>
</g>
<!-- Node44 -->
<g id="node40" class="node">
<title>Node44</title>
<g id="a_node40"><a xlink:href="../../d8/d70/vtextmanager_8cpp.html" target="_top" xlink:title=" ">
<polygon fill="white" stroke="black" points="6080.5,-73 6080.5,-92 6262.5,-92 6262.5,-73 6080.5,-73"/>
<text text-anchor="middle" x="6171.5" y="-80" font-family="Helvetica,sans-Serif" font-size="10.00">src/libs/vlayout/vtextmanager.cpp</text>
</a>
</g>
</g>
<!-- Node26&#45;&gt;Node44 -->
<g id="edge40" class="edge">
<title>Node26&#45;&gt;Node44</title>
<path fill="none" stroke="midnightblue" d="M5839.49,-138.27C5916.82,-125.52 6047.6,-103.94 6119.78,-92.03"/>
<polygon fill="midnightblue" stroke="midnightblue" points="5838.71,-134.85 5829.41,-139.94 5839.85,-141.76 5838.71,-134.85"/>
</g>
<!-- Node45 -->
<g id="node41" class="node">
<title>Node45</title>
<g id="a_node41"><a xlink:href="../../d4/d4f/pmsystems_8cpp.html" target="_top" xlink:title=" ">
<polygon fill="white" stroke="black" points="6281,-67.5 6281,-97.5 6388,-97.5 6388,-67.5 6281,-67.5"/>
<text text-anchor="start" x="6289" y="-85.5" font-family="Helvetica,sans-Serif" font-size="10.00">src/libs/vpatterndb</text>
<text text-anchor="middle" x="6334.5" y="-74.5" font-family="Helvetica,sans-Serif" font-size="10.00">/pmsystems.cpp</text>
</a>
</g>
</g>
<!-- Node26&#45;&gt;Node45 -->
<g id="edge41" class="edge">
<title>Node26&#45;&gt;Node45</title>
<path fill="none" stroke="midnightblue" d="M5849.88,-138.66C5862.73,-137.02 5876,-135.4 5888.5,-134 6058.4,-114.92 6102.71,-125.23 6271.5,-98 6274.6,-97.5 6277.78,-96.93 6280.98,-96.33"/>
<polygon fill="midnightblue" stroke="midnightblue" points="5849.15,-135.23 5839.68,-139.97 5850.05,-142.17 5849.15,-135.23"/>
</g>
<!-- Node46 -->
<g id="node42" class="node">
<title>Node46</title>
<g id="a_node42"><a xlink:href="../../db/d11/vformula_8cpp.html" target="_top" xlink:title=" ">
<polygon fill="white" stroke="black" points="6406,-67.5 6406,-97.5 6513,-97.5 6513,-67.5 6406,-67.5"/>
<text text-anchor="start" x="6414" y="-85.5" font-family="Helvetica,sans-Serif" font-size="10.00">src/libs/vpatterndb</text>
<text text-anchor="middle" x="6459.5" y="-74.5" font-family="Helvetica,sans-Serif" font-size="10.00">/vformula.cpp</text>
</a>
</g>
</g>
<!-- Node26&#45;&gt;Node46 -->
<g id="edge42" class="edge">
<title>Node26&#45;&gt;Node46</title>
<path fill="none" stroke="midnightblue" d="M5847.81,-138.68C5861.3,-136.97 5875.33,-135.33 5888.5,-134 6113.71,-111.33 6172.65,-131.48 6396.5,-98 6399.61,-97.54 6402.79,-97 6405.99,-96.41"/>
<polygon fill="midnightblue" stroke="midnightblue" points="5847.1,-135.24 5837.62,-139.99 5847.99,-142.18 5847.1,-135.24"/>
</g>
<!-- Node47 -->
<g id="node43" class="node">
<title>Node47</title>
<g id="a_node43"><a xlink:href="../../d6/d46/vcontainer_8cpp.html" target="_top" xlink:title=" ">
<polygon fill="white" stroke="black" points="6531,-67.5 6531,-97.5 6638,-97.5 6638,-67.5 6531,-67.5"/>
<text text-anchor="start" x="6539" y="-85.5" font-family="Helvetica,sans-Serif" font-size="10.00">src/libs/vpatterndb</text>
<text text-anchor="middle" x="6584.5" y="-74.5" font-family="Helvetica,sans-Serif" font-size="10.00">/vcontainer.cpp</text>
</a>
</g>
</g>
<!-- Node26&#45;&gt;Node47 -->
<g id="edge43" class="edge">
<title>Node26&#45;&gt;Node47</title>
<path fill="none" stroke="midnightblue" d="M5846.45,-138.7C5860.35,-136.95 5874.88,-135.28 5888.5,-134 6169.06,-107.73 6242.53,-137.74 6521.5,-98 6524.61,-97.56 6527.8,-97.04 6531,-96.46"/>
<polygon fill="midnightblue" stroke="midnightblue" points="5845.93,-135.24 5836.46,-139.98 5846.82,-142.18 5845.93,-135.24"/>
</g>
<!-- Node48 -->
<g id="node44" class="node">
<title>Node48</title>
<g id="a_node44"><a xlink:href="../../df/d7a/vpiece_8cpp.html" target="_top" xlink:title=" ">
<polygon fill="white" stroke="black" points="6656,-67.5 6656,-97.5 6763,-97.5 6763,-67.5 6656,-67.5"/>
<text text-anchor="start" x="6664" y="-85.5" font-family="Helvetica,sans-Serif" font-size="10.00">src/libs/vpatterndb</text>
<text text-anchor="middle" x="6709.5" y="-74.5" font-family="Helvetica,sans-Serif" font-size="10.00">/vpiece.cpp</text>
</a>
</g>
</g>
<!-- Node26&#45;&gt;Node48 -->
<g id="edge44" class="edge">
<title>Node26&#45;&gt;Node48</title>
<path fill="none" stroke="midnightblue" d="M5845.72,-138.69C5859.84,-136.91 5874.64,-135.23 5888.5,-134 6224.44,-104.13 6312.38,-144.01 6646.5,-98 6649.5,-97.59 6652.57,-97.1 6655.66,-96.56"/>
<polygon fill="midnightblue" stroke="midnightblue" points="5845.06,-135.24 5835.59,-139.99 5845.95,-142.19 5845.06,-135.24"/>
</g>
<!-- Node49 -->
<g id="node45" class="node">
<title>Node49</title>
<g id="a_node45"><a xlink:href="../../df/dba/vpiecenode__p_8h.html" target="_top" xlink:title=" ">
<polygon fill="white" stroke="red" points="6781,-67.5 6781,-97.5 6888,-97.5 6888,-67.5 6781,-67.5"/>
<text text-anchor="start" x="6789" y="-85.5" font-family="Helvetica,sans-Serif" font-size="10.00">src/libs/vpatterndb</text>
<text text-anchor="middle" x="6834.5" y="-74.5" font-family="Helvetica,sans-Serif" font-size="10.00">/vpiecenode_p.h</text>
</a>
</g>
</g>
<!-- Node26&#45;&gt;Node49 -->
<g id="edge45" class="edge">
<title>Node26&#45;&gt;Node49</title>
<path fill="none" stroke="midnightblue" d="M5845.24,-138.68C5859.5,-136.88 5874.48,-135.2 5888.5,-134 6279.84,-100.53 6382.22,-150.27 6771.5,-98 6774.5,-97.6 6777.57,-97.12 6780.66,-96.58"/>
<polygon fill="midnightblue" stroke="midnightblue" points="5844.48,-135.24 5835.01,-140 5845.37,-142.19 5844.48,-135.24"/>
</g>
<!-- Node51 -->
<g id="node46" class="node">
<title>Node51</title>
<g id="a_node46"><a xlink:href="../../de/d3e/vtranslatevars_8cpp.html" target="_top" xlink:title=" ">
<polygon fill="white" stroke="black" points="6906.5,-67.5 6906.5,-97.5 7016.5,-97.5 7016.5,-67.5 6906.5,-67.5"/>
<text text-anchor="start" x="6914.5" y="-85.5" font-family="Helvetica,sans-Serif" font-size="10.00">src/libs/vpatterndb</text>
<text text-anchor="middle" x="6961.5" y="-74.5" font-family="Helvetica,sans-Serif" font-size="10.00">/vtranslatevars.cpp</text>
</a>
</g>
</g>
<!-- Node26&#45;&gt;Node51 -->
<g id="edge46" class="edge">
<title>Node26&#45;&gt;Node51</title>
<path fill="none" stroke="midnightblue" d="M5845,-138.65C5859.33,-136.85 5874.4,-135.17 5888.5,-134 6335.25,-96.93 6451.86,-155.04 6896.5,-98 6899.71,-97.59 6903,-97.09 6906.3,-96.54"/>
<polygon fill="midnightblue" stroke="midnightblue" points="5844.18,-135.23 5834.71,-139.98 5845.08,-142.17 5844.18,-135.23"/>
</g>
<!-- Node52 -->
<g id="node47" class="node">
<title>Node52</title>
<g id="a_node47"><a xlink:href="../../df/d40/export__format__combobox_8cpp.html" target="_top" xlink:title=" ">
<polygon fill="white" stroke="black" points="7035,-67.5 7035,-97.5 7168,-97.5 7168,-67.5 7035,-67.5"/>
<text text-anchor="start" x="7043" y="-85.5" font-family="Helvetica,sans-Serif" font-size="10.00">src/libs/vwidgets/export</text>
<text text-anchor="middle" x="7101.5" y="-74.5" font-family="Helvetica,sans-Serif" font-size="10.00">_format_combobox.cpp</text>
</a>
</g>
</g>
<!-- Node26&#45;&gt;Node52 -->
<g id="edge47" class="edge">
<title>Node26&#45;&gt;Node52</title>
<path fill="none" stroke="midnightblue" d="M5844.76,-138.64C5859.16,-136.83 5874.32,-135.15 5888.5,-134 6392.44,-93.21 6522.97,-153.55 7025.5,-98 7028.57,-97.66 7031.7,-97.27 7034.86,-96.83"/>
<polygon fill="midnightblue" stroke="midnightblue" points="5843.89,-135.22 5834.43,-139.97 5844.79,-142.16 5843.89,-135.22"/>
</g>
<!-- Node53 -->
<g id="node48" class="node">
<title>Node53</title>
<g id="a_node48"><a xlink:href="../../d3/d4f/mouse__coordinates_8cpp.html" target="_top" xlink:title=" ">
<polygon fill="white" stroke="black" points="7186.5,-67.5 7186.5,-97.5 7320.5,-97.5 7320.5,-67.5 7186.5,-67.5"/>
<text text-anchor="start" x="7194.5" y="-85.5" font-family="Helvetica,sans-Serif" font-size="10.00">src/libs/vwidgets/mouse</text>
<text text-anchor="middle" x="7253.5" y="-74.5" font-family="Helvetica,sans-Serif" font-size="10.00">_coordinates.cpp</text>
</a>
</g>
</g>
<!-- Node26&#45;&gt;Node53 -->
<g id="edge48" class="edge">
<title>Node26&#45;&gt;Node53</title>
<path fill="none" stroke="midnightblue" d="M5844.1,-138.68C5858.7,-136.84 5874.1,-135.14 5888.5,-134 6459.39,-88.85 6607.11,-159.18 7176.5,-98 7179.75,-97.65 7183.06,-97.24 7186.4,-96.78"/>
<polygon fill="midnightblue" stroke="midnightblue" points="5843.6,-135.21 5834.14,-139.97 5844.5,-142.16 5843.6,-135.21"/>
</g>
<!-- Node26&#45;&gt;Node60 -->
<g id="edge49" class="edge">
<title>Node26&#45;&gt;Node60</title>
<path fill="none" stroke="midnightblue" d="M5843.85,-138.68C5858.53,-136.83 5874.02,-135.12 5888.5,-134 6527.22,-84.44 6690.62,-145.45 7329.5,-98 7348.28,-96.61 7368.67,-94.34 7387.09,-92.01"/>
<polygon fill="midnightblue" stroke="midnightblue" points="5843.32,-135.22 5833.85,-139.98 5844.22,-142.16 5843.32,-135.22"/>
</g>
<!-- Node35&#45;&gt;Node36 -->
<g id="edge32" class="edge">
<title>Node35&#45;&gt;Node36</title>
<path fill="none" stroke="midnightblue" d="M4950.78,-58.87C4956.71,-49.46 4963.41,-38.83 4968.62,-30.58"/>
<polygon fill="midnightblue" stroke="midnightblue" points="4947.77,-57.07 4945.4,-67.4 4953.69,-60.81 4947.77,-57.07"/>
</g>
</g>
</svg>
