<?xml version="1.0" encoding="UTF-8" standalone="no"?>
<!DOCTYPE svg PUBLIC "-//W3C//DTD SVG 1.1//EN"
 "http://www.w3.org/Graphics/SVG/1.1/DTD/svg11.dtd">
<!-- Generated by graphviz version 2.43.0 (0)
 -->
<!-- Title: src/libs/vdxf/vdxfengine.cpp Pages: 1 -->
<!--zoomable 274 -->
<svg id="main" version="1.1" xmlns="http://www.w3.org/2000/svg" xmlns:xlink="http://www.w3.org/1999/xlink" xml:space="preserve" onload="init(evt)">
<style type="text/css"><![CDATA[
.edge:hover path { stroke: red; }
.edge:hover polygon { stroke: red; fill: red; }
]]></style>
<script type="text/javascript"><![CDATA[
var edges = document.getElementsByTagName('g');
if (edges && edges.length) {
  for (var i=0;i<edges.length;i++) {
    if (edges[i].id.substr(0,4)=='edge') {
      edges[i].setAttribute('class','edge');
    }
  }
}
]]></script>
        <defs>
                <circle id="rim" cx="0" cy="0" r="7"/>
                <circle id="rim2" cx="0" cy="0" r="3.5"/>
                <g id="zoomPlus">
                        <use xlink:href="#rim" fill="#404040">
                                <set attributeName="fill" to="#808080" begin="zoomplus.mouseover" end="zoomplus.mouseout"/>
                        </use>
                        <path d="M-4,0h8M0,-4v8" fill="none" stroke="white" stroke-width="1.5" pointer-events="none"/>
                </g>
                <g id="zoomMin">
                        <use xlink:href="#rim" fill="#404040">
                                <set attributeName="fill" to="#808080" begin="zoomminus.mouseover" end="zoomminus.mouseout"/>
                        </use>
                        <path d="M-4,0h8" fill="none" stroke="white" stroke-width="1.5" pointer-events="none"/>
                </g>
                <g id="dirArrow">
                        <path fill="none" stroke="white" stroke-width="1.5" d="M0,-3.0v7 M-2.5,-0.5L0,-3.0L2.5,-0.5"/>
                </g>
               <g id="resetDef">
                       <use xlink:href="#rim2" fill="#404040">
                               <set attributeName="fill" to="#808080" begin="reset.mouseover" end="reset.mouseout"/>
                       </use>
               </g>
        </defs>

<script type="text/javascript">
var viewWidth = 3305;
var viewHeight = 274;
var sectionId = 'dynsection-0';
</script>
<script xlink:href="../../svgpan.js"/>
<svg id="graph" class="graph">
<g id="viewport">
<title>src/libs/vdxf/vdxfengine.cpp</title>
<polygon fill="white" stroke="transparent" points="-4,4 -4,-270 3301,-270 3301,4 -4,4"/>
<!-- Node1 -->
<g id="node1" class="node">
<title>Node1</title>
<g id="a_node1"><a xlink:title=" ">
<polygon fill="#bfbfbf" stroke="black" points="2273,-246.5 2273,-265.5 2427,-265.5 2427,-246.5 2273,-246.5"/>
<text text-anchor="middle" x="2350" y="-253.5" font-family="Helvetica,sans-Serif" font-size="10.00">src/libs/vdxf/vdxfengine.cpp</text>
</a>
</g>
</g>
<!-- Node2 -->
<g id="node2" class="node">
<title>Node2</title>
<g id="a_node2"><a xlink:href="../../d8/d96/vdxfengine_8h.html" target="_top" xlink:title=" ">
<polygon fill="white" stroke="black" points="1304,-190.5 1304,-209.5 1384,-209.5 1384,-190.5 1304,-190.5"/>
<text text-anchor="middle" x="1344" y="-197.5" font-family="Helvetica,sans-Serif" font-size="10.00">vdxfengine.h</text>
</a>
</g>
</g>
<!-- Node1&#45;&gt;Node2 -->
<g id="edge1" class="edge">
<title>Node1&#45;&gt;Node2</title>
<path fill="none" stroke="midnightblue" d="M2272.73,-250.85C2075.65,-240.27 1558.29,-212.5 1394.49,-203.71"/>
<polygon fill="midnightblue" stroke="midnightblue" points="1394.4,-200.2 1384.22,-203.16 1394.02,-207.19 1394.4,-200.2"/>
</g>
<!-- Node12 -->
<g id="node12" class="node">
<title>Node12</title>
<g id="a_node12"><a xlink:href="../../d4/da4/def_8h.html" target="_top" xlink:title=" ">
<polygon fill="white" stroke="black" points="1806,-129 1806,-148 1888,-148 1888,-129 1806,-129"/>
<text text-anchor="middle" x="1847" y="-136" font-family="Helvetica,sans-Serif" font-size="10.00">../vmisc/def.h</text>
</a>
</g>
</g>
<!-- Node1&#45;&gt;Node12 -->
<g id="edge42" class="edge">
<title>Node1&#45;&gt;Node12</title>
<path fill="none" stroke="midnightblue" d="M2272.61,-253.16C2165.4,-249.56 1978.02,-239.19 1917,-210 1892.06,-198.07 1870.9,-173.43 1858.57,-156.68"/>
<polygon fill="midnightblue" stroke="midnightblue" points="1861.29,-154.47 1852.66,-148.32 1855.58,-158.51 1861.29,-154.47"/>
</g>
<!-- Node14 -->
<g id="node14" class="node">
<title>Node14</title>
<g id="a_node14"><a xlink:title=" ">
<polygon fill="white" stroke="#bfbfbf" points="1033,-62 1033,-81 1083,-81 1083,-62 1033,-62"/>
<text text-anchor="middle" x="1058" y="-69" font-family="Helvetica,sans-Serif" font-size="10.00">QLineF</text>
</a>
</g>
</g>
<!-- Node1&#45;&gt;Node14 -->
<g id="edge32" class="edge">
<title>Node1&#45;&gt;Node14</title>
<path fill="none" stroke="midnightblue" d="M2272.69,-255.02C2062.1,-254.56 1481.62,-249.61 1295,-210 1228.64,-195.92 1211.11,-189.02 1153,-154 1122.01,-135.32 1091.15,-106.47 1073.35,-88.57"/>
<polygon fill="midnightblue" stroke="midnightblue" points="1075.64,-85.9 1066.14,-81.2 1070.63,-90.79 1075.64,-85.9"/>
</g>
<!-- Node16 -->
<g id="node16" class="node">
<title>Node16</title>
<g id="a_node16"><a xlink:title=" ">
<polygon fill="white" stroke="#bfbfbf" points="2110.5,-62 2110.5,-81 2139.5,-81 2139.5,-62 2110.5,-62"/>
<text text-anchor="middle" x="2125" y="-69" font-family="Helvetica,sans-Serif" font-size="10.00">Qt</text>
</a>
</g>
</g>
<!-- Node1&#45;&gt;Node16 -->
<g id="edge40" class="edge">
<title>Node1&#45;&gt;Node16</title>
<path fill="none" stroke="midnightblue" d="M2272.71,-255.05C2189.82,-253.26 2066.03,-244.64 2036,-210 2030.18,-203.28 2030.55,-197.02 2036,-190 2075.37,-139.23 2136.63,-204.77 2176,-154 2192.99,-132.09 2166.46,-104.3 2145.73,-87.48"/>
<polygon fill="midnightblue" stroke="midnightblue" points="2147.67,-84.56 2137.62,-81.2 2143.39,-90.09 2147.67,-84.56"/>
</g>
<!-- Node24 -->
<g id="node23" class="node">
<title>Node24</title>
<g id="a_node23"><a xlink:title=" ">
<polygon fill="white" stroke="#bfbfbf" points="2044.5,-190.5 2044.5,-209.5 2117.5,-209.5 2117.5,-190.5 2044.5,-190.5"/>
<text text-anchor="middle" x="2081" y="-197.5" font-family="Helvetica,sans-Serif" font-size="10.00">QByteArray</text>
</a>
</g>
</g>
<!-- Node1&#45;&gt;Node24 -->
<g id="edge26" class="edge">
<title>Node1&#45;&gt;Node24</title>
<path fill="none" stroke="midnightblue" d="M2307.38,-246.44C2258.45,-236.62 2178.46,-220.56 2127.83,-210.4"/>
<polygon fill="midnightblue" stroke="midnightblue" points="2128.3,-206.93 2117.81,-208.39 2126.92,-213.79 2128.3,-206.93"/>
</g>
<!-- Node25 -->
<g id="node24" class="node">
<title>Node25</title>
<g id="a_node24"><a xlink:title=" ">
<polygon fill="white" stroke="#bfbfbf" points="2136,-190.5 2136,-209.5 2186,-209.5 2186,-190.5 2136,-190.5"/>
<text text-anchor="middle" x="2161" y="-197.5" font-family="Helvetica,sans-Serif" font-size="10.00">QColor</text>
</a>
</g>
</g>
<!-- Node1&#45;&gt;Node25 -->
<g id="edge27" class="edge">
<title>Node1&#45;&gt;Node25</title>
<path fill="none" stroke="midnightblue" d="M2320.05,-246.44C2286.42,-236.83 2231.9,-221.26 2196.24,-211.07"/>
<polygon fill="midnightblue" stroke="midnightblue" points="2196.85,-207.6 2186.27,-208.22 2194.92,-214.33 2196.85,-207.6"/>
</g>
<!-- Node26 -->
<g id="node25" class="node">
<title>Node26</title>
<g id="a_node25"><a xlink:title=" ">
<polygon fill="white" stroke="#bfbfbf" points="2204,-190.5 2204,-209.5 2276,-209.5 2276,-190.5 2204,-190.5"/>
<text text-anchor="middle" x="2240" y="-197.5" font-family="Helvetica,sans-Serif" font-size="10.00">QDateTime</text>
</a>
</g>
</g>
<!-- Node1&#45;&gt;Node26 -->
<g id="edge28" class="edge">
<title>Node1&#45;&gt;Node26</title>
<path fill="none" stroke="midnightblue" d="M2332.33,-246.32C2314.61,-237.62 2287.1,-224.12 2266.71,-214.11"/>
<polygon fill="midnightblue" stroke="midnightblue" points="2268.15,-210.92 2257.63,-209.65 2265.06,-217.2 2268.15,-210.92"/>
</g>
<!-- Node27 -->
<g id="node26" class="node">
<title>Node27</title>
<g id="a_node26"><a xlink:title=" ">
<polygon fill="white" stroke="#bfbfbf" points="2294.5,-190.5 2294.5,-209.5 2339.5,-209.5 2339.5,-190.5 2294.5,-190.5"/>
<text text-anchor="middle" x="2317" y="-197.5" font-family="Helvetica,sans-Serif" font-size="10.00">QFlag</text>
</a>
</g>
</g>
<!-- Node1&#45;&gt;Node27 -->
<g id="edge29" class="edge">
<title>Node1&#45;&gt;Node27</title>
<path fill="none" stroke="midnightblue" d="M2344.55,-246.08C2339.99,-238.61 2333.33,-227.72 2327.71,-218.52"/>
<polygon fill="midnightblue" stroke="midnightblue" points="2330.55,-216.46 2322.35,-209.75 2324.58,-220.11 2330.55,-216.46"/>
</g>
<!-- Node28 -->
<g id="node27" class="node">
<title>Node28</title>
<g id="a_node27"><a xlink:title=" ">
<polygon fill="white" stroke="#bfbfbf" points="2358,-190.5 2358,-209.5 2408,-209.5 2408,-190.5 2358,-190.5"/>
<text text-anchor="middle" x="2383" y="-197.5" font-family="Helvetica,sans-Serif" font-size="10.00">QFlags</text>
</a>
</g>
</g>
<!-- Node1&#45;&gt;Node28 -->
<g id="edge30" class="edge">
<title>Node1&#45;&gt;Node28</title>
<path fill="none" stroke="midnightblue" d="M2355.45,-246.08C2360.01,-238.61 2366.67,-227.72 2372.29,-218.52"/>
<polygon fill="midnightblue" stroke="midnightblue" points="2375.42,-220.11 2377.65,-209.75 2369.45,-216.46 2375.42,-220.11"/>
</g>
<!-- Node29 -->
<g id="node28" class="node">
<title>Node29</title>
<g id="a_node28"><a xlink:title=" ">
<polygon fill="white" stroke="#bfbfbf" points="2426.5,-190.5 2426.5,-209.5 2471.5,-209.5 2471.5,-190.5 2426.5,-190.5"/>
<text text-anchor="middle" x="2449" y="-197.5" font-family="Helvetica,sans-Serif" font-size="10.00">QFont</text>
</a>
</g>
</g>
<!-- Node1&#45;&gt;Node29 -->
<g id="edge31" class="edge">
<title>Node1&#45;&gt;Node29</title>
<path fill="none" stroke="midnightblue" d="M2365.91,-246.32C2381.64,-237.74 2405.94,-224.49 2424.21,-214.52"/>
<polygon fill="midnightblue" stroke="midnightblue" points="2426.03,-217.52 2433.13,-209.65 2422.68,-211.37 2426.03,-217.52"/>
</g>
<!-- Node30 -->
<g id="node29" class="node">
<title>Node30</title>
<g id="a_node29"><a xlink:title=" ">
<polygon fill="white" stroke="#bfbfbf" points="2489.5,-190.5 2489.5,-209.5 2530.5,-209.5 2530.5,-190.5 2489.5,-190.5"/>
<text text-anchor="middle" x="2510" y="-197.5" font-family="Helvetica,sans-Serif" font-size="10.00">QList</text>
</a>
</g>
</g>
<!-- Node1&#45;&gt;Node30 -->
<g id="edge33" class="edge">
<title>Node1&#45;&gt;Node30</title>
<path fill="none" stroke="midnightblue" d="M2375.35,-246.44C2403.69,-236.88 2449.56,-221.4 2479.76,-211.21"/>
<polygon fill="midnightblue" stroke="midnightblue" points="2480.99,-214.49 2489.35,-207.97 2478.75,-207.85 2480.99,-214.49"/>
</g>
<!-- Node31 -->
<g id="node30" class="node">
<title>Node31</title>
<g id="a_node30"><a xlink:title=" ">
<polygon fill="white" stroke="#bfbfbf" points="2548.5,-190.5 2548.5,-209.5 2649.5,-209.5 2649.5,-190.5 2548.5,-190.5"/>
<text text-anchor="middle" x="2599" y="-197.5" font-family="Helvetica,sans-Serif" font-size="10.00">QMessageLogger</text>
</a>
</g>
</g>
<!-- Node1&#45;&gt;Node31 -->
<g id="edge34" class="edge">
<title>Node1&#45;&gt;Node31</title>
<path fill="none" stroke="midnightblue" d="M2389.45,-246.44C2432.89,-237.02 2502.79,-221.87 2549.78,-211.68"/>
<polygon fill="midnightblue" stroke="midnightblue" points="2550.7,-215.06 2559.73,-209.52 2549.22,-208.22 2550.7,-215.06"/>
</g>
<!-- Node32 -->
<g id="node31" class="node">
<title>Node32</title>
<g id="a_node31"><a xlink:title=" ">
<polygon fill="white" stroke="#bfbfbf" points="2667.5,-190.5 2667.5,-209.5 2774.5,-209.5 2774.5,-190.5 2667.5,-190.5"/>
<text text-anchor="middle" x="2721" y="-197.5" font-family="Helvetica,sans-Serif" font-size="10.00">QPaintEngineState</text>
</a>
</g>
</g>
<!-- Node1&#45;&gt;Node32 -->
<g id="edge35" class="edge">
<title>Node1&#45;&gt;Node32</title>
<path fill="none" stroke="midnightblue" d="M2408.79,-246.44C2476.56,-236.58 2587.55,-220.42 2657.32,-210.27"/>
<polygon fill="midnightblue" stroke="midnightblue" points="2657.92,-213.72 2667.31,-208.82 2656.91,-206.79 2657.92,-213.72"/>
</g>
<!-- Node33 -->
<g id="node32" class="node">
<title>Node33</title>
<g id="a_node32"><a xlink:title=" ">
<polygon fill="white" stroke="#bfbfbf" points="2792.5,-190.5 2792.5,-209.5 2871.5,-209.5 2871.5,-190.5 2792.5,-190.5"/>
<text text-anchor="middle" x="2832" y="-197.5" font-family="Helvetica,sans-Serif" font-size="10.00">QPainterPath</text>
</a>
</g>
</g>
<!-- Node1&#45;&gt;Node33 -->
<g id="edge36" class="edge">
<title>Node1&#45;&gt;Node33</title>
<path fill="none" stroke="midnightblue" d="M2427.07,-248.93C2511.81,-241.82 2652.21,-228.77 2782.34,-210.14"/>
<polygon fill="midnightblue" stroke="midnightblue" points="2783.09,-213.57 2792.49,-208.67 2782.09,-206.64 2783.09,-213.57"/>
</g>
<!-- Node34 -->
<g id="node33" class="node">
<title>Node34</title>
<g id="a_node33"><a xlink:title=" ">
<polygon fill="white" stroke="#bfbfbf" points="2889,-190.5 2889,-209.5 2931,-209.5 2931,-190.5 2889,-190.5"/>
<text text-anchor="middle" x="2910" y="-197.5" font-family="Helvetica,sans-Serif" font-size="10.00">QPen</text>
</a>
</g>
</g>
<!-- Node1&#45;&gt;Node34 -->
<g id="edge37" class="edge">
<title>Node1&#45;&gt;Node34</title>
<path fill="none" stroke="midnightblue" d="M2427.22,-253.68C2529.19,-250.77 2714.23,-241.47 2879.09,-210.03"/>
<polygon fill="midnightblue" stroke="midnightblue" points="2879.76,-213.46 2888.91,-208.12 2878.43,-206.59 2879.76,-213.46"/>
</g>
<!-- Node35 -->
<g id="node34" class="node">
<title>Node35</title>
<g id="a_node34"><a xlink:title=" ">
<polygon fill="white" stroke="#bfbfbf" points="2949.5,-190.5 2949.5,-209.5 3018.5,-209.5 3018.5,-190.5 2949.5,-190.5"/>
<text text-anchor="middle" x="2984" y="-197.5" font-family="Helvetica,sans-Serif" font-size="10.00">QPolygonF</text>
</a>
</g>
</g>
<!-- Node1&#45;&gt;Node35 -->
<g id="edge38" class="edge">
<title>Node1&#45;&gt;Node35</title>
<path fill="none" stroke="midnightblue" d="M2427.17,-252.21C2538.2,-247.5 2749.53,-235.99 2939.32,-209.9"/>
<polygon fill="midnightblue" stroke="midnightblue" points="2940.06,-213.33 2949.48,-208.49 2939.1,-206.4 2940.06,-213.33"/>
</g>
<!-- Node36 -->
<g id="node35" class="node">
<title>Node36</title>
<g id="a_node35"><a xlink:title=" ">
<polygon fill="white" stroke="#bfbfbf" points="3036.5,-190.5 3036.5,-209.5 3103.5,-209.5 3103.5,-190.5 3036.5,-190.5"/>
<text text-anchor="middle" x="3070" y="-197.5" font-family="Helvetica,sans-Serif" font-size="10.00">QTextItem</text>
</a>
</g>
</g>
<!-- Node1&#45;&gt;Node36 -->
<g id="edge39" class="edge">
<title>Node1&#45;&gt;Node36</title>
<path fill="none" stroke="midnightblue" d="M2427.14,-253.51C2551.43,-250.31 2803.78,-240.51 3025.93,-210.11"/>
<polygon fill="midnightblue" stroke="midnightblue" points="3026.72,-213.53 3036.15,-208.69 3025.76,-206.6 3026.72,-213.53"/>
</g>
<!-- Node37 -->
<g id="node36" class="node">
<title>Node37</title>
<g id="a_node36"><a xlink:title=" ">
<polygon fill="white" stroke="#bfbfbf" points="3121.5,-190.5 3121.5,-209.5 3180.5,-209.5 3180.5,-190.5 3121.5,-190.5"/>
<text text-anchor="middle" x="3151" y="-197.5" font-family="Helvetica,sans-Serif" font-size="10.00">QtDebug</text>
</a>
</g>
</g>
<!-- Node1&#45;&gt;Node37 -->
<g id="edge41" class="edge">
<title>Node1&#45;&gt;Node37</title>
<path fill="none" stroke="midnightblue" d="M2427.07,-254.86C2563.45,-253.65 2856.19,-246.73 3111.03,-210.05"/>
<polygon fill="midnightblue" stroke="midnightblue" points="3111.83,-213.47 3121.22,-208.57 3110.82,-206.55 3111.83,-213.47"/>
</g>
<!-- Node38 -->
<g id="node37" class="node">
<title>Node38</title>
<g id="a_node37"><a xlink:href="../../d6/dcd/diagnostic_8h.html" target="_top" xlink:title=" ">
<polygon fill="white" stroke="black" points="1670.5,-129 1670.5,-148 1787.5,-148 1787.5,-129 1670.5,-129"/>
<text text-anchor="middle" x="1729" y="-136" font-family="Helvetica,sans-Serif" font-size="10.00">../vmisc/diagnostic.h</text>
</a>
</g>
</g>
<!-- Node1&#45;&gt;Node38 -->
<g id="edge43" class="edge">
<title>Node1&#45;&gt;Node38</title>
<path fill="none" stroke="midnightblue" d="M2272.93,-255.2C2179.57,-253.7 2018.23,-245.51 1885,-210 1835.76,-196.88 1782.51,-169.71 1752.7,-153.2"/>
<polygon fill="midnightblue" stroke="midnightblue" points="1754.31,-150.09 1743.88,-148.24 1750.88,-156.19 1754.31,-150.09"/>
</g>
<!-- Node39 -->
<g id="node38" class="node">
<title>Node39</title>
<g id="a_node38"><a xlink:href="../../db/db3/vmath_8h.html" target="_top" xlink:title=" ">
<polygon fill="white" stroke="black" points="3199,-190.5 3199,-209.5 3297,-209.5 3297,-190.5 3199,-190.5"/>
<text text-anchor="middle" x="3248" y="-197.5" font-family="Helvetica,sans-Serif" font-size="10.00">../vmisc/vmath.h</text>
</a>
</g>
</g>
<!-- Node1&#45;&gt;Node39 -->
<g id="edge45" class="edge">
<title>Node1&#45;&gt;Node39</title>
<path fill="none" stroke="midnightblue" d="M2427.22,-253.45C2573.71,-249.96 2902.2,-239.4 3188.82,-210.01"/>
<polygon fill="midnightblue" stroke="midnightblue" points="3189.41,-213.47 3199,-208.96 3188.69,-206.51 3189.41,-213.47"/>
</g>
<!-- Node41 -->
<g id="node40" class="node">
<title>Node41</title>
<g id="a_node40"><a xlink:href="../../dd/d78/dxiface_8h.html" target="_top" xlink:title=" ">
<polygon fill="white" stroke="black" points="1926,-190.5 1926,-209.5 1988,-209.5 1988,-190.5 1926,-190.5"/>
<text text-anchor="middle" x="1957" y="-197.5" font-family="Helvetica,sans-Serif" font-size="10.00">dxiface.h</text>
</a>
</g>
</g>
<!-- Node1&#45;&gt;Node41 -->
<g id="edge47" class="edge">
<title>Node1&#45;&gt;Node41</title>
<path fill="none" stroke="midnightblue" d="M2272.72,-246.55C2202.05,-238.46 2094.72,-225.25 2002,-210 2000.9,-209.82 1999.78,-209.63 1998.66,-209.44"/>
<polygon fill="midnightblue" stroke="midnightblue" points="1998.89,-205.92 1988.42,-207.57 1997.63,-212.81 1998.89,-205.92"/>
</g>
<!-- Node44 -->
<g id="node43" class="node">
<title>Node44</title>
<g id="a_node43"><a xlink:href="../../d6/de0/vlayoutpiece_8h.html" target="_top" xlink:title=" ">
<polygon fill="white" stroke="red" points="477.5,-190.5 477.5,-209.5 614.5,-209.5 614.5,-190.5 477.5,-190.5"/>
<text text-anchor="middle" x="546" y="-197.5" font-family="Helvetica,sans-Serif" font-size="10.00">../vlayout/vlayoutpiece.h</text>
</a>
</g>
</g>
<!-- Node1&#45;&gt;Node44 -->
<g id="edge51" class="edge">
<title>Node1&#45;&gt;Node44</title>
<path fill="none" stroke="midnightblue" d="M2272.77,-252.69C1977.76,-243.86 923.54,-212.3 625.19,-203.37"/>
<polygon fill="midnightblue" stroke="midnightblue" points="625,-199.86 614.89,-203.06 624.79,-206.86 625,-199.86"/>
</g>
<!-- Node3 -->
<g id="node3" class="node">
<title>Node3</title>
<g id="a_node3"><a xlink:title=" ">
<polygon fill="white" stroke="#bfbfbf" points="723,-62 723,-81 843,-81 843,-62 723,-62"/>
<text text-anchor="middle" x="783" y="-69" font-family="Helvetica,sans-Serif" font-size="10.00">qcompilerdetection.h</text>
</a>
</g>
</g>
<!-- Node2&#45;&gt;Node3 -->
<g id="edge2" class="edge">
<title>Node2&#45;&gt;Node3</title>
<path fill="none" stroke="midnightblue" d="M1303.74,-194.2C1264.03,-188.4 1202.28,-176.48 1153,-154 1131.57,-144.22 1131.8,-131.93 1110,-123 1086.71,-113.46 942.07,-93.31 853.14,-81.56"/>
<polygon fill="midnightblue" stroke="midnightblue" points="853.48,-78.07 843.11,-80.24 852.57,-85.01 853.48,-78.07"/>
</g>
<!-- Node4 -->
<g id="node4" class="node">
<title>Node4</title>
<g id="a_node4"><a xlink:title=" ">
<polygon fill="white" stroke="#bfbfbf" points="956.5,-129 956.5,-148 1029.5,-148 1029.5,-129 956.5,-129"/>
<text text-anchor="middle" x="993" y="-136" font-family="Helvetica,sans-Serif" font-size="10.00">QTransform</text>
</a>
</g>
</g>
<!-- Node2&#45;&gt;Node4 -->
<g id="edge3" class="edge">
<title>Node2&#45;&gt;Node4</title>
<path fill="none" stroke="midnightblue" d="M1303.74,-192.17C1238.31,-181.08 1109.25,-159.21 1039.82,-147.44"/>
<polygon fill="midnightblue" stroke="midnightblue" points="1040.07,-143.93 1029.62,-145.71 1038.9,-150.83 1040.07,-143.93"/>
</g>
<!-- Node5 -->
<g id="node5" class="node">
<title>Node5</title>
<g id="a_node5"><a xlink:title=" ">
<polygon fill="white" stroke="#bfbfbf" points="1372.5,-129 1372.5,-148 1453.5,-148 1453.5,-129 1372.5,-129"/>
<text text-anchor="middle" x="1413" y="-136" font-family="Helvetica,sans-Serif" font-size="10.00">QPaintEngine</text>
</a>
</g>
</g>
<!-- Node2&#45;&gt;Node5 -->
<g id="edge4" class="edge">
<title>Node2&#45;&gt;Node5</title>
<path fill="none" stroke="midnightblue" d="M1353.89,-190.48C1364.65,-181.2 1382.07,-166.17 1395.22,-154.83"/>
<polygon fill="midnightblue" stroke="midnightblue" points="1397.84,-157.19 1403.13,-148.01 1393.27,-151.89 1397.84,-157.19"/>
</g>
<!-- Node6 -->
<g id="node6" class="node">
<title>Node6</title>
<g id="a_node6"><a xlink:title=" ">
<polygon fill="white" stroke="#bfbfbf" points="340.5,-0.5 340.5,-19.5 395.5,-19.5 395.5,-0.5 340.5,-0.5"/>
<text text-anchor="middle" x="368" y="-7.5" font-family="Helvetica,sans-Serif" font-size="10.00">QPointF</text>
</a>
</g>
</g>
<!-- Node2&#45;&gt;Node6 -->
<g id="edge5" class="edge">
<title>Node2&#45;&gt;Node6</title>
<path fill="none" stroke="midnightblue" d="M1339.65,-190.38C1331.33,-174.73 1311.7,-141.57 1286,-123 1212.06,-69.57 1181.45,-73.88 1092,-56 958.67,-29.35 535.17,-15.64 405.86,-12"/>
<polygon fill="midnightblue" stroke="midnightblue" points="405.76,-8.5 395.67,-11.72 405.57,-15.5 405.76,-8.5"/>
</g>
<!-- Node7 -->
<g id="node7" class="node">
<title>Node7</title>
<g id="a_node7"><a xlink:title=" ">
<polygon fill="white" stroke="#bfbfbf" points="886,-129 886,-148 938,-148 938,-129 886,-129"/>
<text text-anchor="middle" x="912" y="-136" font-family="Helvetica,sans-Serif" font-size="10.00">QRectF</text>
</a>
</g>
</g>
<!-- Node2&#45;&gt;Node7 -->
<g id="edge6" class="edge">
<title>Node2&#45;&gt;Node7</title>
<path fill="none" stroke="midnightblue" d="M1303.89,-198.14C1231.48,-195.79 1074.6,-186.97 947,-154 944.49,-153.35 941.93,-152.56 939.38,-151.68"/>
<polygon fill="midnightblue" stroke="midnightblue" points="940.42,-148.34 929.83,-148.02 937.91,-154.87 940.42,-148.34"/>
</g>
<!-- Node8 -->
<g id="node8" class="node">
<title>Node8</title>
<g id="a_node8"><a xlink:title=" ">
<polygon fill="white" stroke="#bfbfbf" points="1472,-129 1472,-148 1516,-148 1516,-129 1472,-129"/>
<text text-anchor="middle" x="1494" y="-136" font-family="Helvetica,sans-Serif" font-size="10.00">QSize</text>
</a>
</g>
</g>
<!-- Node2&#45;&gt;Node8 -->
<g id="edge7" class="edge">
<title>Node2&#45;&gt;Node8</title>
<path fill="none" stroke="midnightblue" d="M1367.68,-190.46C1391.62,-181.7 1429.62,-167.5 1462,-154 1463.37,-153.43 1464.77,-152.83 1466.19,-152.23"/>
<polygon fill="midnightblue" stroke="midnightblue" points="1467.74,-155.37 1475.47,-148.13 1464.91,-148.96 1467.74,-155.37"/>
</g>
<!-- Node9 -->
<g id="node9" class="node">
<title>Node9</title>
<g id="a_node9"><a xlink:title=" ">
<polygon fill="white" stroke="#bfbfbf" points="623.5,-62 623.5,-81 676.5,-81 676.5,-62 623.5,-62"/>
<text text-anchor="middle" x="650" y="-69" font-family="Helvetica,sans-Serif" font-size="10.00">QString</text>
</a>
</g>
</g>
<!-- Node2&#45;&gt;Node9 -->
<g id="edge8" class="edge">
<title>Node2&#45;&gt;Node9</title>
<path fill="none" stroke="midnightblue" d="M1303.61,-193.94C1256.45,-187.42 1176.43,-174.42 1110,-154 1076.7,-143.76 1071.68,-131.91 1038,-123 897.93,-85.95 856.88,-111.04 714,-87 705.02,-85.49 695.41,-83.51 686.44,-81.5"/>
<polygon fill="midnightblue" stroke="midnightblue" points="687.18,-78.08 676.65,-79.24 685.6,-84.9 687.18,-78.08"/>
</g>
<!-- Node10 -->
<g id="node10" class="node">
<title>Node10</title>
<g id="a_node10"><a xlink:title=" ">
<polygon fill="white" stroke="#bfbfbf" points="1442.5,-62 1442.5,-81 1501.5,-81 1501.5,-62 1442.5,-62"/>
<text text-anchor="middle" x="1472" y="-69" font-family="Helvetica,sans-Serif" font-size="10.00">QtGlobal</text>
</a>
</g>
</g>
<!-- Node2&#45;&gt;Node10 -->
<g id="edge9" class="edge">
<title>Node2&#45;&gt;Node10</title>
<path fill="none" stroke="midnightblue" d="M1343.85,-190.42C1344.04,-175.13 1346.53,-142.91 1363,-123 1380.56,-101.76 1409.03,-89 1432.47,-81.61"/>
<polygon fill="midnightblue" stroke="midnightblue" points="1433.55,-84.94 1442.16,-78.77 1431.58,-78.23 1433.55,-84.94"/>
</g>
<!-- Node11 -->
<g id="node11" class="node">
<title>Node11</title>
<g id="a_node11"><a xlink:title=" ">
<polygon fill="white" stroke="#bfbfbf" points="1534,-129 1534,-148 1578,-148 1578,-129 1534,-129"/>
<text text-anchor="middle" x="1556" y="-136" font-family="Helvetica,sans-Serif" font-size="10.00">string</text>
</a>
</g>
</g>
<!-- Node2&#45;&gt;Node11 -->
<g id="edge10" class="edge">
<title>Node2&#45;&gt;Node11</title>
<path fill="none" stroke="midnightblue" d="M1384.2,-191.34C1421.32,-183.73 1477.69,-170.77 1525,-154 1526.62,-153.43 1528.26,-152.8 1529.91,-152.13"/>
<polygon fill="midnightblue" stroke="midnightblue" points="1531.43,-155.29 1539.19,-148.08 1528.63,-148.88 1531.43,-155.29"/>
</g>
<!-- Node2&#45;&gt;Node12 -->
<g id="edge11" class="edge">
<title>Node2&#45;&gt;Node12</title>
<path fill="none" stroke="midnightblue" d="M1384.25,-197.39C1463.63,-193.7 1645.71,-182.61 1796,-154 1800.78,-153.09 1805.76,-151.94 1810.65,-150.68"/>
<polygon fill="midnightblue" stroke="midnightblue" points="1811.75,-154.01 1820.48,-148 1809.91,-147.26 1811.75,-154.01"/>
</g>
<!-- Node22 -->
<g id="node21" class="node">
<title>Node22</title>
<g id="a_node21"><a xlink:href="../../d7/de8/dxfdef_8h.html" target="_top" xlink:title=" ">
<polygon fill="white" stroke="black" points="1596,-129 1596,-148 1652,-148 1652,-129 1596,-129"/>
<text text-anchor="middle" x="1624" y="-136" font-family="Helvetica,sans-Serif" font-size="10.00">dxfdef.h</text>
</a>
</g>
</g>
<!-- Node2&#45;&gt;Node22 -->
<g id="edge23" class="edge">
<title>Node2&#45;&gt;Node22</title>
<path fill="none" stroke="midnightblue" d="M1384.1,-193.96C1432.72,-187.31 1516.87,-174.04 1587,-154 1589.59,-153.26 1592.24,-152.41 1594.88,-151.5"/>
<polygon fill="midnightblue" stroke="midnightblue" points="1596.1,-154.78 1604.27,-148.03 1593.68,-148.22 1596.1,-154.78"/>
</g>
<!-- Node23 -->
<g id="node22" class="node">
<title>Node23</title>
<g id="a_node22"><a xlink:title=" ">
<polygon fill="white" stroke="#bfbfbf" points="1162.5,-129 1162.5,-148 1277.5,-148 1277.5,-129 1162.5,-129"/>
<text text-anchor="middle" x="1220" y="-136" font-family="Helvetica,sans-Serif" font-size="10.00">libdxfrw/drw_base.h</text>
</a>
</g>
</g>
<!-- Node2&#45;&gt;Node23 -->
<g id="edge25" class="edge">
<title>Node2&#45;&gt;Node23</title>
<path fill="none" stroke="midnightblue" d="M1326.23,-190.48C1305.52,-180.53 1271.05,-163.99 1247.01,-152.46"/>
<polygon fill="midnightblue" stroke="midnightblue" points="1248.26,-149.18 1237.73,-148.01 1245.23,-155.49 1248.26,-149.18"/>
</g>
<!-- Node12&#45;&gt;Node3 -->
<g id="edge12" class="edge">
<title>Node12&#45;&gt;Node3</title>
<path fill="none" stroke="midnightblue" d="M1821.58,-129C1813.5,-126.64 1804.45,-124.35 1796,-123 1405.98,-60.55 1301.79,-117.78 908,-87 890.34,-85.62 871.33,-83.66 853.59,-81.62"/>
<polygon fill="midnightblue" stroke="midnightblue" points="853.65,-78.11 843.31,-80.42 852.84,-85.06 853.65,-78.11"/>
</g>
<!-- Node12&#45;&gt;Node9 -->
<g id="edge15" class="edge">
<title>Node12&#45;&gt;Node9</title>
<path fill="none" stroke="midnightblue" d="M1821.59,-128.96C1813.5,-126.6 1804.46,-124.32 1796,-123 1320.62,-48.66 1191.22,-148.43 714,-87 704.97,-85.84 695.34,-83.99 686.36,-81.99"/>
<polygon fill="midnightblue" stroke="midnightblue" points="687.11,-78.57 676.58,-79.71 685.52,-85.39 687.11,-78.57"/>
</g>
<!-- Node12&#45;&gt;Node10 -->
<g id="edge18" class="edge">
<title>Node12&#45;&gt;Node10</title>
<path fill="none" stroke="midnightblue" d="M1819.36,-128.98C1811.83,-126.84 1803.64,-124.68 1796,-123 1694.54,-100.76 1573.14,-84.57 1511.75,-77.1"/>
<polygon fill="midnightblue" stroke="midnightblue" points="1512.06,-73.61 1501.71,-75.9 1511.22,-80.56 1512.06,-73.61"/>
</g>
<!-- Node13 -->
<g id="node13" class="node">
<title>Node13</title>
<g id="a_node13"><a xlink:title=" ">
<polygon fill="white" stroke="#bfbfbf" points="1727.5,-62 1727.5,-81 1800.5,-81 1800.5,-62 1727.5,-62"/>
<text text-anchor="middle" x="1764" y="-69" font-family="Helvetica,sans-Serif" font-size="10.00">QFileDialog</text>
</a>
</g>
</g>
<!-- Node12&#45;&gt;Node13 -->
<g id="edge13" class="edge">
<title>Node12&#45;&gt;Node13</title>
<path fill="none" stroke="midnightblue" d="M1835.81,-128.73C1822.37,-118.21 1799.6,-100.38 1783.3,-87.62"/>
<polygon fill="midnightblue" stroke="midnightblue" points="1785.05,-84.54 1775.02,-81.13 1780.73,-90.05 1785.05,-84.54"/>
</g>
<!-- Node12&#45;&gt;Node14 -->
<g id="edge14" class="edge">
<title>Node12&#45;&gt;Node14</title>
<path fill="none" stroke="midnightblue" d="M1821.04,-128.99C1813.08,-126.69 1804.25,-124.44 1796,-123 1658.32,-98.99 1221.27,-79.3 1093.44,-73.94"/>
<polygon fill="midnightblue" stroke="midnightblue" points="1093.21,-70.43 1083.07,-73.51 1092.91,-77.42 1093.21,-70.43"/>
</g>
<!-- Node15 -->
<g id="node15" class="node">
<title>Node15</title>
<g id="a_node15"><a xlink:title=" ">
<polygon fill="white" stroke="#bfbfbf" points="917,-62 917,-81 987,-81 987,-62 917,-62"/>
<text text-anchor="middle" x="952" y="-69" font-family="Helvetica,sans-Serif" font-size="10.00">QStringList</text>
</a>
</g>
</g>
<!-- Node12&#45;&gt;Node15 -->
<g id="edge16" class="edge">
<title>Node12&#45;&gt;Node15</title>
<path fill="none" stroke="midnightblue" d="M1821.32,-128.95C1813.3,-126.62 1804.36,-124.36 1796,-123 1457,-67.67 1364.9,-129.03 1024,-87 1015.36,-85.93 1006.21,-84.41 997.43,-82.74"/>
<polygon fill="midnightblue" stroke="midnightblue" points="997.84,-79.25 987.35,-80.73 996.47,-86.12 997.84,-79.25"/>
</g>
<!-- Node12&#45;&gt;Node16 -->
<g id="edge17" class="edge">
<title>Node12&#45;&gt;Node16</title>
<path fill="none" stroke="midnightblue" d="M1876.05,-128.93C1883.2,-126.9 1890.86,-124.81 1898,-123 1971.27,-104.45 2058.77,-86.03 2100.5,-77.46"/>
<polygon fill="midnightblue" stroke="midnightblue" points="2101.23,-80.89 2110.32,-75.46 2099.83,-74.03 2101.23,-80.89"/>
</g>
<!-- Node17 -->
<g id="node17" class="node">
<title>Node17</title>
<g id="a_node17"><a xlink:title=" ">
<polygon fill="white" stroke="#bfbfbf" points="1819,-62 1819,-81 1875,-81 1875,-62 1819,-62"/>
<text text-anchor="middle" x="1847" y="-69" font-family="Helvetica,sans-Serif" font-size="10.00">QPrinter</text>
</a>
</g>
</g>
<!-- Node12&#45;&gt;Node17 -->
<g id="edge19" class="edge">
<title>Node12&#45;&gt;Node17</title>
<path fill="none" stroke="midnightblue" d="M1847,-128.73C1847,-119.18 1847,-103.62 1847,-91.28"/>
<polygon fill="midnightblue" stroke="midnightblue" points="1850.5,-91.13 1847,-81.13 1843.5,-91.13 1850.5,-91.13"/>
</g>
<!-- Node18 -->
<g id="node18" class="node">
<title>Node18</title>
<g id="a_node18"><a xlink:title=" ">
<polygon fill="white" stroke="#bfbfbf" points="1893.5,-62 1893.5,-81 1954.5,-81 1954.5,-62 1893.5,-62"/>
<text text-anchor="middle" x="1924" y="-69" font-family="Helvetica,sans-Serif" font-size="10.00">QPixmap</text>
</a>
</g>
</g>
<!-- Node12&#45;&gt;Node18 -->
<g id="edge20" class="edge">
<title>Node12&#45;&gt;Node18</title>
<path fill="none" stroke="midnightblue" d="M1857.38,-128.73C1869.85,-118.21 1890.97,-100.38 1906.09,-87.62"/>
<polygon fill="midnightblue" stroke="midnightblue" points="1908.4,-90.25 1913.78,-81.13 1903.88,-84.9 1908.4,-90.25"/>
</g>
<!-- Node19 -->
<g id="node19" class="node">
<title>Node19</title>
<g id="a_node19"><a xlink:title=" ">
<polygon fill="white" stroke="#bfbfbf" points="1972.5,-62 1972.5,-81 2023.5,-81 2023.5,-62 1972.5,-62"/>
<text text-anchor="middle" x="1998" y="-69" font-family="Helvetica,sans-Serif" font-size="10.00">csignal</text>
</a>
</g>
</g>
<!-- Node12&#45;&gt;Node19 -->
<g id="edge21" class="edge">
<title>Node12&#45;&gt;Node19</title>
<path fill="none" stroke="midnightblue" d="M1867.05,-128.87C1893,-117.7 1938.42,-98.15 1968.36,-85.26"/>
<polygon fill="midnightblue" stroke="midnightblue" points="1970.06,-88.34 1977.87,-81.17 1967.3,-81.91 1970.06,-88.34"/>
</g>
<!-- Node20 -->
<g id="node20" class="node">
<title>Node20</title>
<g id="a_node20"><a xlink:href="../../d4/d82/debugbreak_8h.html" target="_top" xlink:title=" ">
<polygon fill="white" stroke="red" points="1626.5,-62 1626.5,-81 1709.5,-81 1709.5,-62 1626.5,-62"/>
<text text-anchor="middle" x="1668" y="-69" font-family="Helvetica,sans-Serif" font-size="10.00">debugbreak.h</text>
</a>
</g>
</g>
<!-- Node12&#45;&gt;Node20 -->
<g id="edge22" class="edge">
<title>Node12&#45;&gt;Node20</title>
<path fill="none" stroke="midnightblue" d="M1823.23,-128.87C1791.85,-117.47 1736.44,-97.35 1701.01,-84.49"/>
<polygon fill="midnightblue" stroke="midnightblue" points="1702.18,-81.19 1691.58,-81.06 1699.79,-87.77 1702.18,-81.19"/>
</g>
<!-- Node22&#45;&gt;Node10 -->
<g id="edge24" class="edge">
<title>Node22&#45;&gt;Node10</title>
<path fill="none" stroke="midnightblue" d="M1603.82,-128.87C1577.7,-117.7 1531.97,-98.15 1501.84,-85.26"/>
<polygon fill="midnightblue" stroke="midnightblue" points="1502.84,-81.88 1492.27,-81.17 1500.09,-88.32 1502.84,-81.88"/>
</g>
<!-- Node38&#45;&gt;Node10 -->
<g id="edge44" class="edge">
<title>Node38&#45;&gt;Node10</title>
<path fill="none" stroke="midnightblue" d="M1695.14,-128.94C1647.7,-116.94 1561.66,-95.18 1511.41,-82.47"/>
<polygon fill="midnightblue" stroke="midnightblue" points="1512.11,-79.03 1501.55,-79.97 1510.39,-85.82 1512.11,-79.03"/>
</g>
<!-- Node40 -->
<g id="node39" class="node">
<title>Node40</title>
<g id="a_node39"><a xlink:title=" ">
<polygon fill="white" stroke="#bfbfbf" points="3221.5,-129 3221.5,-148 3274.5,-148 3274.5,-129 3221.5,-129"/>
<text text-anchor="middle" x="3248" y="-136" font-family="Helvetica,sans-Serif" font-size="10.00">QtMath</text>
</a>
</g>
</g>
<!-- Node39&#45;&gt;Node40 -->
<g id="edge46" class="edge">
<title>Node39&#45;&gt;Node40</title>
<path fill="none" stroke="midnightblue" d="M3248,-190.48C3248,-182.08 3248,-168.98 3248,-158.16"/>
<polygon fill="midnightblue" stroke="midnightblue" points="3251.5,-158.01 3248,-148.01 3244.5,-158.01 3251.5,-158.01"/>
</g>
<!-- Node41&#45;&gt;Node22 -->
<g id="edge50" class="edge">
<title>Node41&#45;&gt;Node22</title>
<path fill="none" stroke="midnightblue" d="M1925.85,-196.56C1871.39,-191.79 1755.63,-179.4 1661,-154 1658.34,-153.29 1655.62,-152.44 1652.91,-151.53"/>
<polygon fill="midnightblue" stroke="midnightblue" points="1653.91,-148.17 1643.31,-148 1651.49,-154.74 1653.91,-148.17"/>
</g>
<!-- Node42 -->
<g id="node41" class="node">
<title>Node42</title>
<g id="a_node41"><a xlink:title=" ">
<polygon fill="white" stroke="#bfbfbf" points="1906.5,-129 1906.5,-148 2041.5,-148 2041.5,-129 1906.5,-129"/>
<text text-anchor="middle" x="1974" y="-136" font-family="Helvetica,sans-Serif" font-size="10.00">libdxfrw/drw_interface.h</text>
</a>
</g>
</g>
<!-- Node41&#45;&gt;Node42 -->
<g id="edge48" class="edge">
<title>Node41&#45;&gt;Node42</title>
<path fill="none" stroke="midnightblue" d="M1959.44,-190.48C1961.86,-181.99 1965.66,-168.7 1968.77,-157.82"/>
<polygon fill="midnightblue" stroke="midnightblue" points="1972.19,-158.59 1971.57,-148.01 1965.46,-156.66 1972.19,-158.59"/>
</g>
<!-- Node43 -->
<g id="node42" class="node">
<title>Node43</title>
<g id="a_node42"><a xlink:title=" ">
<polygon fill="white" stroke="#bfbfbf" points="2059.5,-129 2059.5,-148 2166.5,-148 2166.5,-129 2059.5,-129"/>
<text text-anchor="middle" x="2113" y="-136" font-family="Helvetica,sans-Serif" font-size="10.00">libdxfrw/libdxfrw.h</text>
</a>
</g>
</g>
<!-- Node41&#45;&gt;Node43 -->
<g id="edge49" class="edge">
<title>Node41&#45;&gt;Node43</title>
<path fill="none" stroke="midnightblue" d="M1979.35,-190.48C2005.99,-180.31 2050.71,-163.26 2081.01,-151.7"/>
<polygon fill="midnightblue" stroke="midnightblue" points="2082.59,-154.84 2090.69,-148.01 2080.1,-148.3 2082.59,-154.84"/>
</g>
<!-- Node44&#45;&gt;Node3 -->
<g id="edge52" class="edge">
<title>Node44&#45;&gt;Node3</title>
<path fill="none" stroke="midnightblue" d="M545.47,-190.31C545.02,-174.55 546.47,-141.21 565,-123 576.43,-111.76 663.75,-94.02 724.35,-82.84"/>
<polygon fill="midnightblue" stroke="midnightblue" points="724.99,-86.28 734.2,-81.03 723.73,-79.39 724.99,-86.28"/>
</g>
<!-- Node44&#45;&gt;Node4 -->
<g id="edge55" class="edge">
<title>Node44&#45;&gt;Node4</title>
<path fill="none" stroke="midnightblue" d="M614.76,-195.34C695.14,-190.13 831.86,-178.37 947,-154 950.94,-153.17 955.03,-152.13 959.06,-151"/>
<polygon fill="midnightblue" stroke="midnightblue" points="960.31,-154.29 968.88,-148.07 958.3,-147.58 960.31,-154.29"/>
</g>
<!-- Node44&#45;&gt;Node6 -->
<g id="edge56" class="edge">
<title>Node44&#45;&gt;Node6</title>
<path fill="none" stroke="midnightblue" d="M477.45,-194.3C414.75,-188.62 328.06,-176.82 303,-154 270.2,-124.12 261.21,-94.07 284,-56 294.25,-38.87 313.5,-27.89 330.99,-21.07"/>
<polygon fill="midnightblue" stroke="midnightblue" points="332.21,-24.35 340.45,-17.7 329.86,-17.76 332.21,-24.35"/>
</g>
<!-- Node44&#45;&gt;Node7 -->
<g id="edge57" class="edge">
<title>Node44&#45;&gt;Node7</title>
<path fill="none" stroke="midnightblue" d="M614.53,-193.77C681.06,-187.7 784.51,-175.64 872,-154 875.06,-153.24 878.2,-152.34 881.33,-151.35"/>
<polygon fill="midnightblue" stroke="midnightblue" points="882.75,-154.57 891.08,-148.02 880.49,-147.94 882.75,-154.57"/>
</g>
<!-- Node44&#45;&gt;Node9 -->
<g id="edge59" class="edge">
<title>Node44&#45;&gt;Node9</title>
<path fill="none" stroke="midnightblue" d="M540.62,-190.22C532.17,-175.17 518.11,-144.05 532,-123 549.9,-95.87 585.71,-83.26 613.21,-77.43"/>
<polygon fill="midnightblue" stroke="midnightblue" points="614.12,-80.82 623.29,-75.52 612.81,-73.95 614.12,-80.82"/>
</g>
<!-- Node44&#45;&gt;Node10 -->
<g id="edge62" class="edge">
<title>Node44&#45;&gt;Node10</title>
<path fill="none" stroke="midnightblue" d="M614.79,-197.74C675.24,-194.47 764.46,-184.31 836,-154 857.04,-145.09 855.67,-131.18 877,-123 978.97,-83.92 1316.06,-74.96 1432.24,-73.01"/>
<polygon fill="midnightblue" stroke="midnightblue" points="1432.51,-76.51 1442.46,-72.85 1432.4,-69.51 1432.51,-76.51"/>
</g>
<!-- Node44&#45;&gt;Node14 -->
<g id="edge54" class="edge">
<title>Node44&#45;&gt;Node14</title>
<path fill="none" stroke="midnightblue" d="M614.58,-194.98C667.03,-190.01 740.26,-178.88 800,-154 822.08,-144.8 822.18,-132.81 844,-123 845.03,-122.54 962.42,-94.94 1022.88,-80.74"/>
<polygon fill="midnightblue" stroke="midnightblue" points="1023.83,-84.12 1032.76,-78.42 1022.23,-77.3 1023.83,-84.12"/>
</g>
<!-- Node45 -->
<g id="node44" class="node">
<title>Node45</title>
<g id="a_node44"><a xlink:title=" ">
<polygon fill="white" stroke="#bfbfbf" points="744.5,-129 744.5,-148 791.5,-148 791.5,-129 744.5,-129"/>
<text text-anchor="middle" x="768" y="-136" font-family="Helvetica,sans-Serif" font-size="10.00">QDate</text>
</a>
</g>
</g>
<!-- Node44&#45;&gt;Node45 -->
<g id="edge53" class="edge">
<title>Node44&#45;&gt;Node45</title>
<path fill="none" stroke="midnightblue" d="M592.09,-190.45C630.77,-182.7 687.2,-170.05 735,-154 736.87,-153.37 738.78,-152.68 740.69,-151.95"/>
<polygon fill="midnightblue" stroke="midnightblue" points="742.17,-155.12 750.08,-148.08 739.5,-148.65 742.17,-155.12"/>
</g>
<!-- Node46 -->
<g id="node45" class="node">
<title>Node46</title>
<g id="a_node45"><a xlink:title=" ">
<polygon fill="white" stroke="#bfbfbf" points="0,-129 0,-148 116,-148 116,-129 0,-129"/>
<text text-anchor="middle" x="58" y="-136" font-family="Helvetica,sans-Serif" font-size="10.00">QSharedDataPointer</text>
</a>
</g>
</g>
<!-- Node44&#45;&gt;Node46 -->
<g id="edge58" class="edge">
<title>Node44&#45;&gt;Node46</title>
<path fill="none" stroke="midnightblue" d="M477.16,-193.91C393.54,-187.2 248.37,-173.88 125,-154 118.21,-152.91 111.07,-151.57 104.09,-150.15"/>
<polygon fill="midnightblue" stroke="midnightblue" points="104.53,-146.67 94.03,-148.04 103.1,-153.52 104.53,-146.67"/>
</g>
<!-- Node47 -->
<g id="node46" class="node">
<title>Node47</title>
<g id="a_node46"><a xlink:title=" ">
<polygon fill="white" stroke="#bfbfbf" points="134.5,-129 134.5,-148 199.5,-148 199.5,-129 134.5,-129"/>
<text text-anchor="middle" x="167" y="-136" font-family="Helvetica,sans-Serif" font-size="10.00">QTypeInfo</text>
</a>
</g>
</g>
<!-- Node44&#45;&gt;Node47 -->
<g id="edge60" class="edge">
<title>Node44&#45;&gt;Node47</title>
<path fill="none" stroke="midnightblue" d="M477.39,-193.03C409.85,-186.37 304.03,-173.85 214,-154 210.08,-153.14 206.01,-152.1 201.98,-150.98"/>
<polygon fill="midnightblue" stroke="midnightblue" points="202.74,-147.56 192.16,-148.1 200.77,-154.28 202.74,-147.56"/>
</g>
<!-- Node48 -->
<g id="node47" class="node">
<title>Node48</title>
<g id="a_node47"><a xlink:title=" ">
<polygon fill="white" stroke="#bfbfbf" points="505.5,-62 505.5,-81 560.5,-81 560.5,-62 505.5,-62"/>
<text text-anchor="middle" x="533" y="-69" font-family="Helvetica,sans-Serif" font-size="10.00">QVector</text>
</a>
</g>
</g>
<!-- Node44&#45;&gt;Node48 -->
<g id="edge61" class="edge">
<title>Node44&#45;&gt;Node48</title>
<path fill="none" stroke="midnightblue" d="M477.44,-194.57C418.98,-189.19 341.42,-177.7 322,-154 313.27,-143.34 313.47,-133.82 322,-123 332.76,-109.37 437.52,-89.17 495.27,-78.94"/>
<polygon fill="midnightblue" stroke="midnightblue" points="495.88,-82.38 505.13,-77.21 494.67,-75.49 495.88,-82.38"/>
</g>
<!-- Node49 -->
<g id="node48" class="node">
<title>Node49</title>
<g id="a_node48"><a xlink:href="../../d0/d89/vabstractpattern_8h.html" target="_top" xlink:title=" ">
<polygon fill="white" stroke="red" points="574,-129 574,-148 726,-148 726,-129 574,-129"/>
<text text-anchor="middle" x="650" y="-136" font-family="Helvetica,sans-Serif" font-size="10.00">../ifc/xml/vabstractpattern.h</text>
</a>
</g>
</g>
<!-- Node44&#45;&gt;Node49 -->
<g id="edge63" class="edge">
<title>Node44&#45;&gt;Node49</title>
<path fill="none" stroke="midnightblue" d="M560.9,-190.48C577.97,-180.71 606.16,-164.58 626.26,-153.08"/>
<polygon fill="midnightblue" stroke="midnightblue" points="628.19,-156.01 635.13,-148.01 624.71,-149.94 628.19,-156.01"/>
</g>
<!-- Node74 -->
<g id="node49" class="node">
<title>Node74</title>
<g id="a_node49"><a xlink:href="../../de/d1f/vpatternlabeldata_8h.html" target="_top" xlink:title=" ">
<polygon fill="white" stroke="red" points="293.5,-56.5 293.5,-86.5 442.5,-86.5 442.5,-56.5 293.5,-56.5"/>
<text text-anchor="start" x="301.5" y="-74.5" font-family="Helvetica,sans-Serif" font-size="10.00">../vpatterndb/floatItemData</text>
<text text-anchor="middle" x="368" y="-63.5" font-family="Helvetica,sans-Serif" font-size="10.00">/vpatternlabeldata.h</text>
</a>
</g>
</g>
<!-- Node44&#45;&gt;Node74 -->
<g id="edge69" class="edge">
<title>Node44&#45;&gt;Node74</title>
<path fill="none" stroke="midnightblue" d="M477.36,-195.25C416.01,-190.29 332.68,-179.04 312,-154 295.62,-134.17 317.6,-109.62 338.65,-92.68"/>
<polygon fill="midnightblue" stroke="midnightblue" points="340.79,-95.46 346.59,-86.59 336.53,-89.9 340.79,-95.46"/>
</g>
<!-- Node76 -->
<g id="node50" class="node">
<title>Node76</title>
<g id="a_node50"><a xlink:href="../../d8/dbc/vpiecelabeldata_8h.html" target="_top" xlink:title=" ">
<polygon fill="white" stroke="red" points="331.5,-123.5 331.5,-153.5 480.5,-153.5 480.5,-123.5 331.5,-123.5"/>
<text text-anchor="start" x="339.5" y="-141.5" font-family="Helvetica,sans-Serif" font-size="10.00">../vpatterndb/floatItemData</text>
<text text-anchor="middle" x="406" y="-130.5" font-family="Helvetica,sans-Serif" font-size="10.00">/vpiecelabeldata.h</text>
</a>
</g>
</g>
<!-- Node44&#45;&gt;Node76 -->
<g id="edge71" class="edge">
<title>Node44&#45;&gt;Node76</title>
<path fill="none" stroke="midnightblue" d="M525.94,-190.48C505.83,-181.93 474.24,-168.5 448.53,-157.57"/>
<polygon fill="midnightblue" stroke="midnightblue" points="449.57,-154.21 439,-153.52 446.83,-160.66 449.57,-154.21"/>
</g>
<!-- Node49&#45;&gt;Node3 -->
<g id="edge64" class="edge">
<title>Node49&#45;&gt;Node3</title>
<path fill="none" stroke="midnightblue" d="M667.66,-128.87C690.32,-117.8 729.83,-98.49 756.2,-85.6"/>
<polygon fill="midnightblue" stroke="midnightblue" points="757.82,-88.7 765.27,-81.17 754.74,-82.41 757.82,-88.7"/>
</g>
<!-- Node49&#45;&gt;Node9 -->
<g id="edge65" class="edge">
<title>Node49&#45;&gt;Node9</title>
<path fill="none" stroke="midnightblue" d="M650,-128.73C650,-119.18 650,-103.62 650,-91.28"/>
<polygon fill="midnightblue" stroke="midnightblue" points="653.5,-91.13 650,-81.13 646.5,-91.13 653.5,-91.13"/>
</g>
<!-- Node49&#45;&gt;Node10 -->
<g id="edge68" class="edge">
<title>Node49&#45;&gt;Node10</title>
<path fill="none" stroke="midnightblue" d="M694.87,-128.98C707.79,-126.76 721.92,-124.56 735,-123 1000.24,-91.37 1321.74,-77.78 1432.37,-73.81"/>
<polygon fill="midnightblue" stroke="midnightblue" points="1432.54,-77.31 1442.41,-73.46 1432.29,-70.31 1432.54,-77.31"/>
</g>
<!-- Node49&#45;&gt;Node15 -->
<g id="edge66" class="edge">
<title>Node49&#45;&gt;Node15</title>
<path fill="none" stroke="midnightblue" d="M689.79,-128.94C745.85,-116.87 847.79,-94.93 906.69,-82.25"/>
<polygon fill="midnightblue" stroke="midnightblue" points="907.78,-85.6 916.81,-80.07 906.3,-78.76 907.78,-85.6"/>
</g>
<!-- Node49&#45;&gt;Node48 -->
<g id="edge67" class="edge">
<title>Node49&#45;&gt;Node48</title>
<path fill="none" stroke="midnightblue" d="M634.22,-128.73C614.49,-117.77 580.49,-98.88 557.39,-86.05"/>
<polygon fill="midnightblue" stroke="midnightblue" points="558.97,-82.92 548.53,-81.13 555.57,-89.04 558.97,-82.92"/>
</g>
<!-- Node74&#45;&gt;Node6 -->
<g id="edge70" class="edge">
<title>Node74&#45;&gt;Node6</title>
<path fill="none" stroke="midnightblue" d="M368,-56.4C368,-48.47 368,-38.46 368,-29.86"/>
<polygon fill="midnightblue" stroke="midnightblue" points="371.5,-29.66 368,-19.66 364.5,-29.66 371.5,-29.66"/>
</g>
<!-- Node76&#45;&gt;Node9 -->
<g id="edge72" class="edge">
<title>Node76&#45;&gt;Node9</title>
<path fill="none" stroke="midnightblue" d="M458.64,-123.48C505.4,-111.02 572.5,-93.15 613.56,-82.21"/>
<polygon fill="midnightblue" stroke="midnightblue" points="614.65,-85.54 623.41,-79.58 612.85,-78.78 614.65,-85.54"/>
</g>
<!-- Node76&#45;&gt;Node74 -->
<g id="edge73" class="edge">
<title>Node76&#45;&gt;Node74</title>
<path fill="none" stroke="midnightblue" d="M397.75,-123.4C392.97,-115.22 386.84,-104.73 381.38,-95.39"/>
<polygon fill="midnightblue" stroke="midnightblue" points="384.3,-93.44 376.23,-86.58 378.25,-96.98 384.3,-93.44"/>
</g>
</g>
</svg>
        <g id="navigator" transform="translate(0 0)" fill="#404254">
                <rect fill="#f2f5e9" fill-opacity="0.5" stroke="#606060" stroke-width=".5" x="0" y="0" width="60" height="60"/>
                <use id="zoomplus" xlink:href="#zoomPlus" x="17" y="9" onmousedown="handleZoom(evt,'in')"/>
                <use id="zoomminus" xlink:href="#zoomMin" x="42" y="9" onmousedown="handleZoom(evt,'out')"/>
                <use id="reset" xlink:href="#resetDef" x="30" y="36" onmousedown="handleReset()"/>
                <g id="arrowUp" xlink:href="#dirArrow" transform="translate(30 24)" onmousedown="handlePan(0,-1)">
                  <use xlink:href="#rim" fill="#404040">
                        <set attributeName="fill" to="#808080" begin="arrowUp.mouseover" end="arrowUp.mouseout"/>
                  </use>
                  <path fill="none" stroke="white" stroke-width="1.5" d="M0,-3.0v7 M-2.5,-0.5L0,-3.0L2.5,-0.5"/>
                </g>
                <g id="arrowRight" xlink:href="#dirArrow" transform="rotate(90) translate(36 -43)" onmousedown="handlePan(1,0)">
                  <use xlink:href="#rim" fill="#404040">
                        <set attributeName="fill" to="#808080" begin="arrowRight.mouseover" end="arrowRight.mouseout"/>
                  </use>
                  <path fill="none" stroke="white" stroke-width="1.5" d="M0,-3.0v7 M-2.5,-0.5L0,-3.0L2.5,-0.5"/>
                </g>
                <g id="arrowDown" xlink:href="#dirArrow" transform="rotate(180) translate(-30 -48)" onmousedown="handlePan(0,1)">
                  <use xlink:href="#rim" fill="#404040">
                        <set attributeName="fill" to="#808080" begin="arrowDown.mouseover" end="arrowDown.mouseout"/>
                  </use>
                  <path fill="none" stroke="white" stroke-width="1.5" d="M0,-3.0v7 M-2.5,-0.5L0,-3.0L2.5,-0.5"/>
                </g>
                <g id="arrowLeft" xlink:href="#dirArrow" transform="rotate(270) translate(-36 17)" onmousedown="handlePan(-1,0)">
                  <use xlink:href="#rim" fill="#404040">
                        <set attributeName="fill" to="#808080" begin="arrowLeft.mouseover" end="arrowLeft.mouseout"/>
                  </use>
                  <path fill="none" stroke="white" stroke-width="1.5" d="M0,-3.0v7 M-2.5,-0.5L0,-3.0L2.5,-0.5"/>
                </g>
        </g>
        <svg viewBox="0 0 15 15" width="100%" height="30px" preserveAspectRatio="xMaxYMin meet">
         <g id="arrow_out" transform="scale(0.3 0.3)">
          <a xlink:href="vdxfengine_8cpp__incl_org.svg" target="_base">
           <rect id="button" ry="5" rx="5" y="6" x="6" height="38" width="38"
                fill="#f2f5e9" fill-opacity="0.5" stroke="#606060" stroke-width="1.0"/>
           <path id="arrow"
             d="M 11.500037,31.436501 C 11.940474,20.09759 22.043105,11.32322 32.158766,21.979434 L 37.068811,17.246167 C 37.068811,17.246167 37.088388,32 37.088388,32 L 22.160133,31.978069 C 22.160133,31.978069 26.997745,27.140456 26.997745,27.140456 C 18.528582,18.264221 13.291696,25.230495 11.500037,31.436501 z"
             style="fill:#404040;"/>
          </a>
         </g>
        </svg>
</svg>
