<?xml version="1.0" encoding="UTF-8" standalone="no"?>
<!DOCTYPE svg PUBLIC "-//W3C//DTD SVG 1.1//EN"
 "http://www.w3.org/Graphics/SVG/1.1/DTD/svg11.dtd">
<!-- Generated by graphviz version 2.43.0 (0)
 -->
<!-- Title: src/libs/vpropertyexplorer/plugins/direction_property.cpp Pages: 1 -->
<!--zoomable 207 -->
<svg id="main" version="1.1" xmlns="http://www.w3.org/2000/svg" xmlns:xlink="http://www.w3.org/1999/xlink" xml:space="preserve" onload="init(evt)">
<style type="text/css"><![CDATA[
.edge:hover path { stroke: red; }
.edge:hover polygon { stroke: red; fill: red; }
]]></style>
<script type="text/javascript"><![CDATA[
var edges = document.getElementsByTagName('g');
if (edges && edges.length) {
  for (var i=0;i<edges.length;i++) {
    if (edges[i].id.substr(0,4)=='edge') {
      edges[i].setAttribute('class','edge');
    }
  }
}
]]></script>
        <defs>
                <circle id="rim" cx="0" cy="0" r="7"/>
                <circle id="rim2" cx="0" cy="0" r="3.5"/>
                <g id="zoomPlus">
                        <use xlink:href="#rim" fill="#404040">
                                <set attributeName="fill" to="#808080" begin="zoomplus.mouseover" end="zoomplus.mouseout"/>
                        </use>
                        <path d="M-4,0h8M0,-4v8" fill="none" stroke="white" stroke-width="1.5" pointer-events="none"/>
                </g>
                <g id="zoomMin">
                        <use xlink:href="#rim" fill="#404040">
                                <set attributeName="fill" to="#808080" begin="zoomminus.mouseover" end="zoomminus.mouseout"/>
                        </use>
                        <path d="M-4,0h8" fill="none" stroke="white" stroke-width="1.5" pointer-events="none"/>
                </g>
                <g id="dirArrow">
                        <path fill="none" stroke="white" stroke-width="1.5" d="M0,-3.0v7 M-2.5,-0.5L0,-3.0L2.5,-0.5"/>
                </g>
               <g id="resetDef">
                       <use xlink:href="#rim2" fill="#404040">
                               <set attributeName="fill" to="#808080" begin="reset.mouseover" end="reset.mouseout"/>
                       </use>
               </g>
        </defs>

<script type="text/javascript">
var viewWidth = 1555;
var viewHeight = 207;
var sectionId = 'dynsection-0';
</script>
<script xlink:href="../../svgpan.js"/>
<svg id="graph" class="graph">
<g id="viewport">
<title>src/libs/vpropertyexplorer/plugins/direction_property.cpp</title>
<polygon fill="white" stroke="transparent" points="-4,4 -4,-203 1551,-203 1551,4 -4,4"/>
<!-- Node1 -->
<g id="node1" class="node">
<title>Node1</title>
<g id="a_node1"><a xlink:title=" ">
<polygon fill="#bfbfbf" stroke="black" points="1022.5,-168.5 1022.5,-198.5 1188.5,-198.5 1188.5,-168.5 1022.5,-168.5"/>
<text text-anchor="start" x="1030.5" y="-186.5" font-family="Helvetica,sans-Serif" font-size="10.00">src/libs/vpropertyexplorer</text>
<text text-anchor="middle" x="1105.5" y="-175.5" font-family="Helvetica,sans-Serif" font-size="10.00">/plugins/direction_property.cpp</text>
</a>
</g>
</g>
<!-- Node2 -->
<g id="node2" class="node">
<title>Node2</title>
<g id="a_node2"><a xlink:href="../../d1/d38/direction__property_8h.html" target="_top" xlink:title=" ">
<polygon fill="white" stroke="black" points="624,-112.5 624,-131.5 737,-131.5 737,-112.5 624,-112.5"/>
<text text-anchor="middle" x="680.5" y="-119.5" font-family="Helvetica,sans-Serif" font-size="10.00">direction_property.h</text>
</a>
</g>
</g>
<!-- Node1&#45;&gt;Node2 -->
<g id="edge1" class="edge">
<title>Node1&#45;&gt;Node2</title>
<path fill="none" stroke="midnightblue" d="M1022.29,-170.85C941.86,-159.59 821.56,-142.75 747.22,-132.34"/>
<polygon fill="midnightblue" stroke="midnightblue" points="747.43,-128.84 737.04,-130.92 746.46,-135.77 747.43,-128.84"/>
</g>
<!-- Node19 -->
<g id="node19" class="node">
<title>Node19</title>
<g id="a_node19"><a xlink:title=" ">
<polygon fill="white" stroke="#bfbfbf" points="755.5,-112.5 755.5,-131.5 807.5,-131.5 807.5,-112.5 755.5,-112.5"/>
<text text-anchor="middle" x="781.5" y="-119.5" font-family="Helvetica,sans-Serif" font-size="10.00">QBrush</text>
</a>
</g>
</g>
<!-- Node1&#45;&gt;Node19 -->
<g id="edge27" class="edge">
<title>Node1&#45;&gt;Node19</title>
<path fill="none" stroke="midnightblue" d="M1022.33,-169.53C967.12,-160.54 892.86,-147.74 817.9,-131.95"/>
<polygon fill="midnightblue" stroke="midnightblue" points="818.3,-128.46 807.8,-129.8 816.85,-135.31 818.3,-128.46"/>
</g>
<!-- Node20 -->
<g id="node20" class="node">
<title>Node20</title>
<g id="a_node20"><a xlink:title=" ">
<polygon fill="white" stroke="#bfbfbf" points="826,-112.5 826,-131.5 903,-131.5 903,-112.5 826,-112.5"/>
<text text-anchor="middle" x="864.5" y="-119.5" font-family="Helvetica,sans-Serif" font-size="10.00">QComboBox</text>
</a>
</g>
</g>
<!-- Node1&#45;&gt;Node20 -->
<g id="edge28" class="edge">
<title>Node1&#45;&gt;Node20</title>
<path fill="none" stroke="midnightblue" d="M1048.69,-168.47C1005.93,-157.92 948.16,-143.66 908.79,-133.94"/>
<polygon fill="midnightblue" stroke="midnightblue" points="909.5,-130.51 898.95,-131.51 907.82,-137.3 909.5,-130.51"/>
</g>
<!-- Node21 -->
<g id="node21" class="node">
<title>Node21</title>
<g id="a_node21"><a xlink:title=" ">
<polygon fill="white" stroke="#bfbfbf" points="921,-112.5 921,-131.5 1022,-131.5 1022,-112.5 921,-112.5"/>
<text text-anchor="middle" x="971.5" y="-119.5" font-family="Helvetica,sans-Serif" font-size="10.00">QCoreApplication</text>
</a>
</g>
</g>
<!-- Node1&#45;&gt;Node21 -->
<g id="edge29" class="edge">
<title>Node1&#45;&gt;Node21</title>
<path fill="none" stroke="midnightblue" d="M1073.74,-168.4C1051.46,-158.51 1021.91,-145.38 1000.31,-135.79"/>
<polygon fill="midnightblue" stroke="midnightblue" points="1001.56,-132.52 991,-131.66 998.72,-138.91 1001.56,-132.52"/>
</g>
<!-- Node22 -->
<g id="node22" class="node">
<title>Node22</title>
<g id="a_node22"><a xlink:title=" ">
<polygon fill="white" stroke="#bfbfbf" points="1040.5,-112.5 1040.5,-131.5 1096.5,-131.5 1096.5,-112.5 1040.5,-112.5"/>
<text text-anchor="middle" x="1068.5" y="-119.5" font-family="Helvetica,sans-Serif" font-size="10.00">QLocale</text>
</a>
</g>
</g>
<!-- Node1&#45;&gt;Node22 -->
<g id="edge30" class="edge">
<title>Node1&#45;&gt;Node22</title>
<path fill="none" stroke="midnightblue" d="M1096.73,-168.4C1091.52,-160.02 1084.87,-149.33 1079.33,-140.42"/>
<polygon fill="midnightblue" stroke="midnightblue" points="1082.14,-138.3 1073.88,-131.66 1076.19,-142 1082.14,-138.3"/>
</g>
<!-- Node23 -->
<g id="node23" class="node">
<title>Node23</title>
<g id="a_node23"><a xlink:title=" ">
<polygon fill="white" stroke="#bfbfbf" points="1114.5,-112.5 1114.5,-131.5 1172.5,-131.5 1172.5,-112.5 1114.5,-112.5"/>
<text text-anchor="middle" x="1143.5" y="-119.5" font-family="Helvetica,sans-Serif" font-size="10.00">QPainter</text>
</a>
</g>
</g>
<!-- Node1&#45;&gt;Node23 -->
<g id="edge31" class="edge">
<title>Node1&#45;&gt;Node23</title>
<path fill="none" stroke="midnightblue" d="M1114.51,-168.4C1119.91,-159.93 1126.83,-149.1 1132.55,-140.14"/>
<polygon fill="midnightblue" stroke="midnightblue" points="1135.54,-141.97 1137.97,-131.66 1129.64,-138.2 1135.54,-141.97"/>
</g>
<!-- Node24 -->
<g id="node24" class="node">
<title>Node24</title>
<g id="a_node24"><a xlink:title=" ">
<polygon fill="white" stroke="#bfbfbf" points="1190.5,-112.5 1190.5,-131.5 1232.5,-131.5 1232.5,-112.5 1190.5,-112.5"/>
<text text-anchor="middle" x="1211.5" y="-119.5" font-family="Helvetica,sans-Serif" font-size="10.00">QPen</text>
</a>
</g>
</g>
<!-- Node1&#45;&gt;Node24 -->
<g id="edge32" class="edge">
<title>Node1&#45;&gt;Node24</title>
<path fill="none" stroke="midnightblue" d="M1130.62,-168.4C1147.77,-158.77 1170.36,-146.09 1187.31,-136.58"/>
<polygon fill="midnightblue" stroke="midnightblue" points="1189.07,-139.6 1196.08,-131.66 1185.64,-133.5 1189.07,-139.6"/>
</g>
<!-- Node25 -->
<g id="node25" class="node">
<title>Node25</title>
<g id="a_node25"><a xlink:title=" ">
<polygon fill="white" stroke="#bfbfbf" points="1251,-112.5 1251,-131.5 1312,-131.5 1312,-112.5 1251,-112.5"/>
<text text-anchor="middle" x="1281.5" y="-119.5" font-family="Helvetica,sans-Serif" font-size="10.00">QPixmap</text>
</a>
</g>
</g>
<!-- Node1&#45;&gt;Node25 -->
<g id="edge33" class="edge">
<title>Node1&#45;&gt;Node25</title>
<path fill="none" stroke="midnightblue" d="M1147.21,-168.4C1177.49,-158.16 1217.99,-144.47 1246.57,-134.81"/>
<polygon fill="midnightblue" stroke="midnightblue" points="1247.8,-138.09 1256.15,-131.57 1245.55,-131.46 1247.8,-138.09"/>
</g>
<!-- Node26 -->
<g id="node26" class="node">
<title>Node26</title>
<g id="a_node26"><a xlink:title=" ">
<polygon fill="white" stroke="#bfbfbf" points="1330.5,-112.5 1330.5,-131.5 1374.5,-131.5 1374.5,-112.5 1330.5,-112.5"/>
<text text-anchor="middle" x="1352.5" y="-119.5" font-family="Helvetica,sans-Serif" font-size="10.00">QSize</text>
</a>
</g>
</g>
<!-- Node1&#45;&gt;Node26 -->
<g id="edge34" class="edge">
<title>Node1&#45;&gt;Node26</title>
<path fill="none" stroke="midnightblue" d="M1169.52,-168.47C1210.26,-159.32 1264.34,-146.78 1320.44,-132.18"/>
<polygon fill="midnightblue" stroke="midnightblue" points="1321.4,-135.55 1330.19,-129.63 1319.63,-128.78 1321.4,-135.55"/>
</g>
<!-- Node27 -->
<g id="node27" class="node">
<title>Node27</title>
<g id="a_node27"><a xlink:title=" ">
<polygon fill="white" stroke="#bfbfbf" points="1393,-112.5 1393,-131.5 1452,-131.5 1452,-112.5 1393,-112.5"/>
<text text-anchor="middle" x="1422.5" y="-119.5" font-family="Helvetica,sans-Serif" font-size="10.00">QWidget</text>
</a>
</g>
</g>
<!-- Node1&#45;&gt;Node27 -->
<g id="edge35" class="edge">
<title>Node1&#45;&gt;Node27</title>
<path fill="none" stroke="midnightblue" d="M1188.41,-168.49C1241.3,-159.31 1311.52,-146.66 1382.68,-132.09"/>
<polygon fill="midnightblue" stroke="midnightblue" points="1383.63,-135.47 1392.72,-130.02 1382.22,-128.61 1383.63,-135.47"/>
</g>
<!-- Node28 -->
<g id="node28" class="node">
<title>Node28</title>
<g id="a_node28"><a xlink:title=" ">
<polygon fill="white" stroke="#bfbfbf" points="1470,-112.5 1470,-131.5 1547,-131.5 1547,-112.5 1470,-112.5"/>
<text text-anchor="middle" x="1508.5" y="-119.5" font-family="Helvetica,sans-Serif" font-size="10.00">../ifc/ifcdef.h</text>
</a>
</g>
</g>
<!-- Node1&#45;&gt;Node28 -->
<g id="edge36" class="edge">
<title>Node1&#45;&gt;Node28</title>
<path fill="none" stroke="midnightblue" d="M1188.76,-171.85C1258.62,-162.64 1361.28,-148.49 1459.68,-132.25"/>
<polygon fill="midnightblue" stroke="midnightblue" points="1460.51,-135.66 1469.8,-130.56 1459.36,-128.75 1460.51,-135.66"/>
</g>
<!-- Node29 -->
<g id="node29" class="node">
<title>Node29</title>
<g id="a_node29"><a xlink:href="../../d1/de6/vproperty__p_8h.html" target="_top" xlink:title=" ">
<polygon fill="white" stroke="black" points="301,-112.5 301,-131.5 394,-131.5 394,-112.5 301,-112.5"/>
<text text-anchor="middle" x="347.5" y="-119.5" font-family="Helvetica,sans-Serif" font-size="10.00">../vproperty_p.h</text>
</a>
</g>
</g>
<!-- Node1&#45;&gt;Node29 -->
<g id="edge37" class="edge">
<title>Node1&#45;&gt;Node29</title>
<path fill="none" stroke="midnightblue" d="M1022.21,-175.96C867,-163.78 537.28,-137.9 404.58,-127.48"/>
<polygon fill="midnightblue" stroke="midnightblue" points="404.48,-123.96 394.24,-126.67 403.94,-130.94 404.48,-123.96"/>
</g>
<!-- Node3 -->
<g id="node3" class="node">
<title>Node3</title>
<g id="a_node3"><a xlink:title=" ">
<polygon fill="white" stroke="#bfbfbf" points="690.5,-0.5 690.5,-19.5 810.5,-19.5 810.5,-0.5 690.5,-0.5"/>
<text text-anchor="middle" x="750.5" y="-7.5" font-family="Helvetica,sans-Serif" font-size="10.00">qcompilerdetection.h</text>
</a>
</g>
</g>
<!-- Node2&#45;&gt;Node3 -->
<g id="edge2" class="edge">
<title>Node2&#45;&gt;Node3</title>
<path fill="none" stroke="midnightblue" d="M686.08,-112.39C691.94,-103.34 701.41,-88.7 709.5,-76 719.77,-59.89 731.39,-41.46 739.62,-28.35"/>
<polygon fill="midnightblue" stroke="midnightblue" points="742.6,-30.18 744.96,-19.85 736.68,-26.46 742.6,-30.18"/>
</g>
<!-- Node4 -->
<g id="node4" class="node">
<title>Node4</title>
<g id="a_node4"><a xlink:title=" ">
<polygon fill="white" stroke="#bfbfbf" points="534.5,-56.5 534.5,-75.5 578.5,-75.5 578.5,-56.5 534.5,-56.5"/>
<text text-anchor="middle" x="556.5" y="-63.5" font-family="Helvetica,sans-Serif" font-size="10.00">QIcon</text>
</a>
</g>
</g>
<!-- Node2&#45;&gt;Node4 -->
<g id="edge3" class="edge">
<title>Node2&#45;&gt;Node4</title>
<path fill="none" stroke="midnightblue" d="M660.85,-112.44C640.54,-103.6 608.6,-89.69 585.4,-79.59"/>
<polygon fill="midnightblue" stroke="midnightblue" points="586.62,-76.3 576.06,-75.52 583.83,-82.72 586.62,-76.3"/>
</g>
<!-- Node5 -->
<g id="node5" class="node">
<title>Node5</title>
<g id="a_node5"><a xlink:title=" ">
<polygon fill="white" stroke="#bfbfbf" points="829,-0.5 829,-19.5 874,-19.5 874,-0.5 829,-0.5"/>
<text text-anchor="middle" x="851.5" y="-7.5" font-family="Helvetica,sans-Serif" font-size="10.00">QMap</text>
</a>
</g>
</g>
<!-- Node2&#45;&gt;Node5 -->
<g id="edge4" class="edge">
<title>Node2&#45;&gt;Node5</title>
<path fill="none" stroke="midnightblue" d="M693.92,-112.37C723.26,-93.49 793.38,-48.38 829.37,-25.24"/>
<polygon fill="midnightblue" stroke="midnightblue" points="831.63,-27.95 838.14,-19.59 827.84,-22.06 831.63,-27.95"/>
</g>
<!-- Node6 -->
<g id="node6" class="node">
<title>Node6</title>
<g id="a_node6"><a xlink:title=" ">
<polygon fill="white" stroke="#bfbfbf" points="892.5,-0.5 892.5,-19.5 972.5,-19.5 972.5,-0.5 892.5,-0.5"/>
<text text-anchor="middle" x="932.5" y="-7.5" font-family="Helvetica,sans-Serif" font-size="10.00">QMetaObject</text>
</a>
</g>
</g>
<!-- Node2&#45;&gt;Node6 -->
<g id="edge5" class="edge">
<title>Node2&#45;&gt;Node6</title>
<path fill="none" stroke="midnightblue" d="M700.27,-112.37C744.53,-93.05 851.72,-46.26 903.52,-23.65"/>
<polygon fill="midnightblue" stroke="midnightblue" points="905.05,-26.8 912.82,-19.59 902.25,-20.38 905.05,-26.8"/>
</g>
<!-- Node7 -->
<g id="node7" class="node">
<title>Node7</title>
<g id="a_node7"><a xlink:title=" ">
<polygon fill="white" stroke="#bfbfbf" points="990.5,-0.5 990.5,-19.5 1046.5,-19.5 1046.5,-0.5 990.5,-0.5"/>
<text text-anchor="middle" x="1018.5" y="-7.5" font-family="Helvetica,sans-Serif" font-size="10.00">QObject</text>
</a>
</g>
</g>
<!-- Node2&#45;&gt;Node7 -->
<g id="edge6" class="edge">
<title>Node2&#45;&gt;Node7</title>
<path fill="none" stroke="midnightblue" d="M707.35,-112.42C735.55,-103.4 781.16,-88.78 820.5,-76 877.32,-57.54 943.22,-35.85 982.84,-22.78"/>
<polygon fill="midnightblue" stroke="midnightblue" points="984.17,-26.03 992.57,-19.57 981.98,-19.38 984.17,-26.03"/>
</g>
<!-- Node8 -->
<g id="node8" class="node">
<title>Node8</title>
<g id="a_node8"><a xlink:title=" ">
<polygon fill="white" stroke="#bfbfbf" points="0,-0.5 0,-19.5 53,-19.5 53,-0.5 0,-0.5"/>
<text text-anchor="middle" x="26.5" y="-7.5" font-family="Helvetica,sans-Serif" font-size="10.00">QString</text>
</a>
</g>
</g>
<!-- Node2&#45;&gt;Node8 -->
<g id="edge7" class="edge">
<title>Node2&#45;&gt;Node8</title>
<path fill="none" stroke="midnightblue" d="M623.84,-114.88C555.34,-107.18 436.63,-92.91 335.5,-76 216.14,-56.04 184.28,-48.34 63.25,-20.34"/>
<polygon fill="midnightblue" stroke="midnightblue" points="63.75,-16.86 53.22,-18.02 62.17,-23.68 63.75,-16.86"/>
</g>
<!-- Node9 -->
<g id="node9" class="node">
<title>Node9</title>
<g id="a_node9"><a xlink:title=" ">
<polygon fill="white" stroke="#bfbfbf" points="1064.5,-0.5 1064.5,-19.5 1192.5,-19.5 1192.5,-0.5 1064.5,-0.5"/>
<text text-anchor="middle" x="1128.5" y="-7.5" font-family="Helvetica,sans-Serif" font-size="10.00">QStyleOptionViewItem</text>
</a>
</g>
</g>
<!-- Node2&#45;&gt;Node9 -->
<g id="edge8" class="edge">
<title>Node2&#45;&gt;Node9</title>
<path fill="none" stroke="midnightblue" d="M715.28,-112.46C795.75,-92.7 994.68,-43.86 1083.93,-21.94"/>
<polygon fill="midnightblue" stroke="midnightblue" points="1084.86,-25.32 1093.74,-19.53 1083.19,-18.52 1084.86,-25.32"/>
</g>
<!-- Node10 -->
<g id="node10" class="node">
<title>Node10</title>
<g id="a_node10"><a xlink:title=" ">
<polygon fill="white" stroke="#bfbfbf" points="71,-0.5 71,-19.5 130,-19.5 130,-0.5 71,-0.5"/>
<text text-anchor="middle" x="100.5" y="-7.5" font-family="Helvetica,sans-Serif" font-size="10.00">QVariant</text>
</a>
</g>
</g>
<!-- Node2&#45;&gt;Node10 -->
<g id="edge9" class="edge">
<title>Node2&#45;&gt;Node10</title>
<path fill="none" stroke="midnightblue" d="M629.03,-112.44C577.83,-103.78 497.09,-89.75 427.5,-76 386.45,-67.89 376.53,-64.23 335.5,-56 251.71,-39.2 227.88,-38.03 140.13,-20.05"/>
<polygon fill="midnightblue" stroke="midnightblue" points="140.78,-16.61 130.28,-18.02 139.37,-23.47 140.78,-16.61"/>
</g>
<!-- Node11 -->
<g id="node11" class="node">
<title>Node11</title>
<g id="a_node11"><a xlink:title=" ">
<polygon fill="white" stroke="#bfbfbf" points="597,-56.5 597,-75.5 652,-75.5 652,-56.5 597,-56.5"/>
<text text-anchor="middle" x="624.5" y="-63.5" font-family="Helvetica,sans-Serif" font-size="10.00">QVector</text>
</a>
</g>
</g>
<!-- Node2&#45;&gt;Node11 -->
<g id="edge10" class="edge">
<title>Node2&#45;&gt;Node11</title>
<path fill="none" stroke="midnightblue" d="M671.5,-112.32C663.31,-104.42 650.99,-92.55 641.03,-82.94"/>
<polygon fill="midnightblue" stroke="midnightblue" points="643.29,-80.26 633.66,-75.83 638.43,-85.29 643.29,-80.26"/>
</g>
<!-- Node12 -->
<g id="node12" class="node">
<title>Node12</title>
<g id="a_node12"><a xlink:title=" ">
<polygon fill="white" stroke="#bfbfbf" points="566,-0.5 566,-19.5 595,-19.5 595,-0.5 566,-0.5"/>
<text text-anchor="middle" x="580.5" y="-7.5" font-family="Helvetica,sans-Serif" font-size="10.00">Qt</text>
</a>
</g>
</g>
<!-- Node2&#45;&gt;Node12 -->
<g id="edge11" class="edge">
<title>Node2&#45;&gt;Node12</title>
<path fill="none" stroke="midnightblue" d="M680.04,-112.48C678.91,-99.09 675,-72.9 661.5,-56 653.7,-46.23 625.52,-31.74 604.58,-21.86"/>
<polygon fill="midnightblue" stroke="midnightblue" points="605.83,-18.58 595.29,-17.55 602.89,-24.93 605.83,-18.58"/>
</g>
<!-- Node13 -->
<g id="node13" class="node">
<title>Node13</title>
<g id="a_node13"><a xlink:title=" ">
<polygon fill="white" stroke="#bfbfbf" points="613,-0.5 613,-19.5 672,-19.5 672,-0.5 613,-0.5"/>
<text text-anchor="middle" x="642.5" y="-7.5" font-family="Helvetica,sans-Serif" font-size="10.00">QtGlobal</text>
</a>
</g>
</g>
<!-- Node2&#45;&gt;Node13 -->
<g id="edge12" class="edge">
<title>Node2&#45;&gt;Node13</title>
<path fill="none" stroke="midnightblue" d="M685.75,-112.21C692.71,-99.36 703.14,-74.9 694.5,-56 688.72,-43.36 677.45,-32.91 666.87,-25.27"/>
<polygon fill="midnightblue" stroke="midnightblue" points="668.54,-22.18 658.28,-19.53 664.65,-28 668.54,-22.18"/>
</g>
<!-- Node14 -->
<g id="node14" class="node">
<title>Node14</title>
<g id="a_node14"><a xlink:href="../../d2/d6e/vproperty_8h.html" target="_top" xlink:title=" ">
<polygon fill="white" stroke="black" points="436.5,-56.5 436.5,-75.5 516.5,-75.5 516.5,-56.5 436.5,-56.5"/>
<text text-anchor="middle" x="476.5" y="-63.5" font-family="Helvetica,sans-Serif" font-size="10.00">../vproperty.h</text>
</a>
</g>
</g>
<!-- Node2&#45;&gt;Node14 -->
<g id="edge13" class="edge">
<title>Node2&#45;&gt;Node14</title>
<path fill="none" stroke="midnightblue" d="M648.18,-112.44C613.11,-103.16 557,-88.31 518.54,-78.13"/>
<polygon fill="midnightblue" stroke="midnightblue" points="519.24,-74.69 508.67,-75.52 517.44,-81.46 519.24,-74.69"/>
</g>
<!-- Node14&#45;&gt;Node3 -->
<g id="edge14" class="edge">
<title>Node14&#45;&gt;Node3</title>
<path fill="none" stroke="midnightblue" d="M516.64,-57.09C564.39,-47.68 644.31,-31.93 697.21,-21.5"/>
<polygon fill="midnightblue" stroke="midnightblue" points="697.95,-24.92 707.09,-19.56 696.6,-18.06 697.95,-24.92"/>
</g>
<!-- Node14&#45;&gt;Node5 -->
<g id="edge17" class="edge">
<title>Node14&#45;&gt;Node5</title>
<path fill="none" stroke="midnightblue" d="M516.58,-57.44C519.59,-56.93 522.59,-56.44 525.5,-56 652.45,-36.59 688.67,-45.44 818.92,-19.81"/>
<polygon fill="midnightblue" stroke="midnightblue" points="819.76,-23.21 828.88,-17.82 818.39,-16.35 819.76,-23.21"/>
</g>
<!-- Node14&#45;&gt;Node6 -->
<g id="edge18" class="edge">
<title>Node14&#45;&gt;Node6</title>
<path fill="none" stroke="midnightblue" d="M516.57,-57.37C519.59,-56.88 522.59,-56.41 525.5,-56 680.58,-34 723.43,-42.11 882.3,-20.06"/>
<polygon fill="midnightblue" stroke="midnightblue" points="883.02,-23.49 892.43,-18.63 882.04,-16.56 883.02,-23.49"/>
</g>
<!-- Node14&#45;&gt;Node7 -->
<g id="edge19" class="edge">
<title>Node14&#45;&gt;Node7</title>
<path fill="none" stroke="midnightblue" d="M516.56,-57.3C519.58,-56.82 522.58,-56.38 525.5,-56 723.83,-30.03 778.99,-51.41 980.3,-19.94"/>
<polygon fill="midnightblue" stroke="midnightblue" points="980.99,-23.37 990.31,-18.35 979.89,-16.46 980.99,-23.37"/>
</g>
<!-- Node14&#45;&gt;Node8 -->
<g id="edge21" class="edge">
<title>Node14&#45;&gt;Node8</title>
<path fill="none" stroke="midnightblue" d="M436.45,-62.58C363.84,-57.77 205.51,-45.39 63.37,-20.12"/>
<polygon fill="midnightblue" stroke="midnightblue" points="63.63,-16.61 53.17,-18.28 62.38,-23.5 63.63,-16.61"/>
</g>
<!-- Node14&#45;&gt;Node9 -->
<g id="edge23" class="edge">
<title>Node14&#45;&gt;Node9</title>
<path fill="none" stroke="midnightblue" d="M516.55,-57.26C519.57,-56.79 522.58,-56.37 525.5,-56 756.45,-27.04 818.72,-42.01 1054.17,-20.07"/>
<polygon fill="midnightblue" stroke="midnightblue" points="1054.8,-23.53 1064.43,-19.1 1054.14,-16.56 1054.8,-23.53"/>
</g>
<!-- Node14&#45;&gt;Node10 -->
<g id="edge24" class="edge">
<title>Node14&#45;&gt;Node10</title>
<path fill="none" stroke="midnightblue" d="M436.29,-59.73C357.64,-49.42 187.59,-27.05 140.31,-19.82"/>
<polygon fill="midnightblue" stroke="midnightblue" points="140.68,-16.33 130.25,-18.17 139.55,-23.24 140.68,-16.33"/>
</g>
<!-- Node14&#45;&gt;Node12 -->
<g id="edge25" class="edge">
<title>Node14&#45;&gt;Node12</title>
<path fill="none" stroke="midnightblue" d="M493.21,-56.32C510.4,-47.4 537.34,-33.41 556.74,-23.34"/>
<polygon fill="midnightblue" stroke="midnightblue" points="558.59,-26.32 565.85,-18.61 555.36,-20.11 558.59,-26.32"/>
</g>
<!-- Node14&#45;&gt;Node13 -->
<g id="edge26" class="edge">
<title>Node14&#45;&gt;Node13</title>
<path fill="none" stroke="midnightblue" d="M502.8,-56.44C530.85,-47.32 575.44,-32.81 606.68,-22.65"/>
<polygon fill="midnightblue" stroke="midnightblue" points="607.89,-25.94 616.32,-19.52 605.73,-19.28 607.89,-25.94"/>
</g>
<!-- Node15 -->
<g id="node15" class="node">
<title>Node15</title>
<g id="a_node15"><a xlink:title=" ">
<polygon fill="white" stroke="#bfbfbf" points="417,-0.5 417,-19.5 548,-19.5 548,-0.5 417,-0.5"/>
<text text-anchor="middle" x="482.5" y="-7.5" font-family="Helvetica,sans-Serif" font-size="10.00">QAbstractItemDelegate</text>
</a>
</g>
</g>
<!-- Node14&#45;&gt;Node15 -->
<g id="edge15" class="edge">
<title>Node14&#45;&gt;Node15</title>
<path fill="none" stroke="midnightblue" d="M477.49,-56.08C478.29,-48.93 479.43,-38.64 480.42,-29.69"/>
<polygon fill="midnightblue" stroke="midnightblue" points="483.9,-30.08 481.53,-19.75 476.94,-29.3 483.9,-30.08"/>
</g>
<!-- Node16 -->
<g id="node16" class="node">
<title>Node16</title>
<g id="a_node16"><a xlink:title=" ">
<polygon fill="white" stroke="#bfbfbf" points="148.5,-0.5 148.5,-19.5 200.5,-19.5 200.5,-0.5 148.5,-0.5"/>
<text text-anchor="middle" x="174.5" y="-7.5" font-family="Helvetica,sans-Serif" font-size="10.00">QEvent</text>
</a>
</g>
</g>
<!-- Node14&#45;&gt;Node16 -->
<g id="edge16" class="edge">
<title>Node14&#45;&gt;Node16</title>
<path fill="none" stroke="midnightblue" d="M436.49,-59.34C386.05,-51.96 296.47,-38.08 210.71,-20.12"/>
<polygon fill="midnightblue" stroke="midnightblue" points="211.32,-16.67 200.82,-18.02 209.88,-23.52 211.32,-16.67"/>
</g>
<!-- Node17 -->
<g id="node17" class="node">
<title>Node17</title>
<g id="a_node17"><a xlink:title=" ">
<polygon fill="white" stroke="#bfbfbf" points="218.5,-0.5 218.5,-19.5 310.5,-19.5 310.5,-0.5 218.5,-0.5"/>
<text text-anchor="middle" x="264.5" y="-7.5" font-family="Helvetica,sans-Serif" font-size="10.00">QSharedPointer</text>
</a>
</g>
</g>
<!-- Node14&#45;&gt;Node17 -->
<g id="edge20" class="edge">
<title>Node14&#45;&gt;Node17</title>
<path fill="none" stroke="midnightblue" d="M442.91,-56.44C406.31,-47.12 347.66,-32.18 307.67,-22"/>
<polygon fill="midnightblue" stroke="midnightblue" points="308.49,-18.59 297.93,-19.52 306.76,-25.38 308.49,-18.59"/>
</g>
<!-- Node18 -->
<g id="node18" class="node">
<title>Node18</title>
<g id="a_node18"><a xlink:title=" ">
<polygon fill="white" stroke="#bfbfbf" points="328.5,-0.5 328.5,-19.5 398.5,-19.5 398.5,-0.5 328.5,-0.5"/>
<text text-anchor="middle" x="363.5" y="-7.5" font-family="Helvetica,sans-Serif" font-size="10.00">QStringList</text>
</a>
</g>
</g>
<!-- Node14&#45;&gt;Node18 -->
<g id="edge22" class="edge">
<title>Node14&#45;&gt;Node18</title>
<path fill="none" stroke="midnightblue" d="M458.59,-56.44C440.25,-47.68 411.49,-33.94 390.41,-23.86"/>
<polygon fill="midnightblue" stroke="midnightblue" points="391.85,-20.67 381.32,-19.52 388.83,-26.99 391.85,-20.67"/>
</g>
<!-- Node29&#45;&gt;Node8 -->
<g id="edge39" class="edge">
<title>Node29&#45;&gt;Node8</title>
<path fill="none" stroke="midnightblue" d="M317.06,-112.46C286.81,-103.83 239.18,-89.81 198.5,-76 148.57,-59.05 91.46,-36.91 57.22,-23.33"/>
<polygon fill="midnightblue" stroke="midnightblue" points="58.37,-20.02 47.78,-19.58 55.78,-26.53 58.37,-20.02"/>
</g>
<!-- Node29&#45;&gt;Node10 -->
<g id="edge38" class="edge">
<title>Node29&#45;&gt;Node10</title>
<path fill="none" stroke="midnightblue" d="M328.12,-112.37C284.83,-93.09 180.11,-46.45 129.22,-23.79"/>
<polygon fill="midnightblue" stroke="midnightblue" points="130.35,-20.46 119.79,-19.59 127.5,-26.86 130.35,-20.46"/>
</g>
<!-- Node29&#45;&gt;Node14 -->
<g id="edge40" class="edge">
<title>Node29&#45;&gt;Node14</title>
<path fill="none" stroke="midnightblue" d="M367.94,-112.44C389.17,-103.56 422.6,-89.56 446.75,-79.45"/>
<polygon fill="midnightblue" stroke="midnightblue" points="448.28,-82.61 456.16,-75.52 445.58,-76.15 448.28,-82.61"/>
</g>
</g>
</svg>
        <g id="navigator" transform="translate(0 0)" fill="#404254">
                <rect fill="#f2f5e9" fill-opacity="0.5" stroke="#606060" stroke-width=".5" x="0" y="0" width="60" height="60"/>
                <use id="zoomplus" xlink:href="#zoomPlus" x="17" y="9" onmousedown="handleZoom(evt,'in')"/>
                <use id="zoomminus" xlink:href="#zoomMin" x="42" y="9" onmousedown="handleZoom(evt,'out')"/>
                <use id="reset" xlink:href="#resetDef" x="30" y="36" onmousedown="handleReset()"/>
                <g id="arrowUp" xlink:href="#dirArrow" transform="translate(30 24)" onmousedown="handlePan(0,-1)">
                  <use xlink:href="#rim" fill="#404040">
                        <set attributeName="fill" to="#808080" begin="arrowUp.mouseover" end="arrowUp.mouseout"/>
                  </use>
                  <path fill="none" stroke="white" stroke-width="1.5" d="M0,-3.0v7 M-2.5,-0.5L0,-3.0L2.5,-0.5"/>
                </g>
                <g id="arrowRight" xlink:href="#dirArrow" transform="rotate(90) translate(36 -43)" onmousedown="handlePan(1,0)">
                  <use xlink:href="#rim" fill="#404040">
                        <set attributeName="fill" to="#808080" begin="arrowRight.mouseover" end="arrowRight.mouseout"/>
                  </use>
                  <path fill="none" stroke="white" stroke-width="1.5" d="M0,-3.0v7 M-2.5,-0.5L0,-3.0L2.5,-0.5"/>
                </g>
                <g id="arrowDown" xlink:href="#dirArrow" transform="rotate(180) translate(-30 -48)" onmousedown="handlePan(0,1)">
                  <use xlink:href="#rim" fill="#404040">
                        <set attributeName="fill" to="#808080" begin="arrowDown.mouseover" end="arrowDown.mouseout"/>
                  </use>
                  <path fill="none" stroke="white" stroke-width="1.5" d="M0,-3.0v7 M-2.5,-0.5L0,-3.0L2.5,-0.5"/>
                </g>
                <g id="arrowLeft" xlink:href="#dirArrow" transform="rotate(270) translate(-36 17)" onmousedown="handlePan(-1,0)">
                  <use xlink:href="#rim" fill="#404040">
                        <set attributeName="fill" to="#808080" begin="arrowLeft.mouseover" end="arrowLeft.mouseout"/>
                  </use>
                  <path fill="none" stroke="white" stroke-width="1.5" d="M0,-3.0v7 M-2.5,-0.5L0,-3.0L2.5,-0.5"/>
                </g>
        </g>
        <svg viewBox="0 0 15 15" width="100%" height="30px" preserveAspectRatio="xMaxYMin meet">
         <g id="arrow_out" transform="scale(0.3 0.3)">
          <a xlink:href="direction__property_8cpp__incl_org.svg" target="_base">
           <rect id="button" ry="5" rx="5" y="6" x="6" height="38" width="38"
                fill="#f2f5e9" fill-opacity="0.5" stroke="#606060" stroke-width="1.0"/>
           <path id="arrow"
             d="M 11.500037,31.436501 C 11.940474,20.09759 22.043105,11.32322 32.158766,21.979434 L 37.068811,17.246167 C 37.068811,17.246167 37.088388,32 37.088388,32 L 22.160133,31.978069 C 22.160133,31.978069 26.997745,27.140456 26.997745,27.140456 C 18.528582,18.264221 13.291696,25.230495 11.500037,31.436501 z"
             style="fill:#404040;"/>
          </a>
         </g>
        </svg>
</svg>
