<?xml version="1.0" encoding="UTF-8" standalone="no"?>
<!DOCTYPE svg PUBLIC "-//W3C//DTD SVG 1.1//EN"
 "http://www.w3.org/Graphics/SVG/1.1/DTD/svg11.dtd">
<!-- Generated by graphviz version 2.43.0 (0)
 -->
<!-- Title: src/app/seamly2d/core/vapplication.cpp Pages: 1 -->
<!--zoomable 274 -->
<svg id="main" version="1.1" xmlns="http://www.w3.org/2000/svg" xmlns:xlink="http://www.w3.org/1999/xlink" xml:space="preserve" onload="init(evt)">
<style type="text/css"><![CDATA[
.edge:hover path { stroke: red; }
.edge:hover polygon { stroke: red; fill: red; }
]]></style>
<script type="text/javascript"><![CDATA[
var edges = document.getElementsByTagName('g');
if (edges && edges.length) {
  for (var i=0;i<edges.length;i++) {
    if (edges[i].id.substr(0,4)=='edge') {
      edges[i].setAttribute('class','edge');
    }
  }
}
]]></script>
        <defs>
                <circle id="rim" cx="0" cy="0" r="7"/>
                <circle id="rim2" cx="0" cy="0" r="3.5"/>
                <g id="zoomPlus">
                        <use xlink:href="#rim" fill="#404040">
                                <set attributeName="fill" to="#808080" begin="zoomplus.mouseover" end="zoomplus.mouseout"/>
                        </use>
                        <path d="M-4,0h8M0,-4v8" fill="none" stroke="white" stroke-width="1.5" pointer-events="none"/>
                </g>
                <g id="zoomMin">
                        <use xlink:href="#rim" fill="#404040">
                                <set attributeName="fill" to="#808080" begin="zoomminus.mouseover" end="zoomminus.mouseout"/>
                        </use>
                        <path d="M-4,0h8" fill="none" stroke="white" stroke-width="1.5" pointer-events="none"/>
                </g>
                <g id="dirArrow">
                        <path fill="none" stroke="white" stroke-width="1.5" d="M0,-3.0v7 M-2.5,-0.5L0,-3.0L2.5,-0.5"/>
                </g>
               <g id="resetDef">
                       <use xlink:href="#rim2" fill="#404040">
                               <set attributeName="fill" to="#808080" begin="reset.mouseover" end="reset.mouseout"/>
                       </use>
               </g>
        </defs>

<script type="text/javascript">
var viewWidth = 3321;
var viewHeight = 274;
var sectionId = 'dynsection-0';
</script>
<script xlink:href="../../svgpan.js"/>
<svg id="graph" class="graph">
<g id="viewport">
<title>src/app/seamly2d/core/vapplication.cpp</title>
<polygon fill="white" stroke="transparent" points="-4,4 -4,-270 3316.5,-270 3316.5,4 -4,4"/>
<!-- Node1 -->
<g id="node1" class="node">
<title>Node1</title>
<g id="a_node1"><a xlink:title=" ">
<polygon fill="#bfbfbf" stroke="black" points="2076.5,-235.5 2076.5,-265.5 2203.5,-265.5 2203.5,-235.5 2076.5,-235.5"/>
<text text-anchor="start" x="2084.5" y="-253.5" font-family="Helvetica,sans-Serif" font-size="10.00">src/app/seamly2d/core</text>
<text text-anchor="middle" x="2140" y="-242.5" font-family="Helvetica,sans-Serif" font-size="10.00">/vapplication.cpp</text>
</a>
</g>
</g>
<!-- Node2 -->
<g id="node2" class="node">
<title>Node2</title>
<g id="a_node2"><a xlink:title=" ">
<polygon fill="white" stroke="#bfbfbf" points="0,-179.5 0,-198.5 86,-198.5 86,-179.5 0,-179.5"/>
<text text-anchor="middle" x="43" y="-186.5" font-family="Helvetica,sans-Serif" font-size="10.00">vapplication.h</text>
</a>
</g>
</g>
<!-- Node1&#45;&gt;Node2 -->
<g id="edge1" class="edge">
<title>Node1&#45;&gt;Node2</title>
<path fill="none" stroke="midnightblue" d="M2076.3,-249.19C1777.7,-247.53 513.87,-238.32 96.08,-198.92"/>
<polygon fill="midnightblue" stroke="midnightblue" points="96.35,-195.43 86.06,-197.95 95.68,-202.4 96.35,-195.43"/>
</g>
<!-- Node3 -->
<g id="node3" class="node">
<title>Node3</title>
<g id="a_node3"><a xlink:title=" ">
<polygon fill="white" stroke="#bfbfbf" points="104.5,-179.5 104.5,-198.5 311.5,-198.5 311.5,-179.5 104.5,-179.5"/>
<text text-anchor="middle" x="208" y="-186.5" font-family="Helvetica,sans-Serif" font-size="10.00">../ifc/exception/vexceptionobjecterror.h</text>
</a>
</g>
</g>
<!-- Node1&#45;&gt;Node3 -->
<g id="edge2" class="edge">
<title>Node1&#45;&gt;Node3</title>
<path fill="none" stroke="midnightblue" d="M2076.32,-248.92C1843.46,-246.56 1016.06,-235.97 321.95,-199.02"/>
<polygon fill="midnightblue" stroke="midnightblue" points="321.92,-195.51 311.74,-198.47 321.54,-202.5 321.92,-195.51"/>
</g>
<!-- Node4 -->
<g id="node4" class="node">
<title>Node4</title>
<g id="a_node4"><a xlink:title=" ">
<polygon fill="white" stroke="#bfbfbf" points="330,-179.5 330,-198.5 512,-198.5 512,-179.5 330,-179.5"/>
<text text-anchor="middle" x="421" y="-186.5" font-family="Helvetica,sans-Serif" font-size="10.00">../ifc/exception/vexceptionbadid.h</text>
</a>
</g>
</g>
<!-- Node1&#45;&gt;Node4 -->
<g id="edge3" class="edge">
<title>Node1&#45;&gt;Node4</title>
<path fill="none" stroke="midnightblue" d="M2076.3,-248.85C1860.03,-246.37 1133.77,-235.72 522.35,-199.04"/>
<polygon fill="midnightblue" stroke="midnightblue" points="522.19,-195.53 512,-198.42 521.77,-202.51 522.19,-195.53"/>
</g>
<!-- Node5 -->
<g id="node5" class="node">
<title>Node5</title>
<g id="a_node5"><a xlink:title=" ">
<polygon fill="white" stroke="#bfbfbf" points="530,-179.5 530,-198.5 760,-198.5 760,-179.5 530,-179.5"/>
<text text-anchor="middle" x="645" y="-186.5" font-family="Helvetica,sans-Serif" font-size="10.00">../ifc/exception/vexceptionconversionerror.h</text>
</a>
</g>
</g>
<!-- Node1&#45;&gt;Node5 -->
<g id="edge4" class="edge">
<title>Node1&#45;&gt;Node5</title>
<path fill="none" stroke="midnightblue" d="M2076.41,-247.96C1882.39,-243.1 1280.6,-226.76 770.32,-199.05"/>
<polygon fill="midnightblue" stroke="midnightblue" points="770.35,-195.55 760.17,-198.5 769.96,-202.54 770.35,-195.55"/>
</g>
<!-- Node6 -->
<g id="node6" class="node">
<title>Node6</title>
<g id="a_node6"><a xlink:title=" ">
<polygon fill="white" stroke="#bfbfbf" points="778,-179.5 778,-198.5 1014,-198.5 1014,-179.5 778,-179.5"/>
<text text-anchor="middle" x="896" y="-186.5" font-family="Helvetica,sans-Serif" font-size="10.00">../ifc/exception/vexceptionemptyparameter.h</text>
</a>
</g>
</g>
<!-- Node1&#45;&gt;Node6 -->
<g id="edge5" class="edge">
<title>Node1&#45;&gt;Node6</title>
<path fill="none" stroke="midnightblue" d="M2076.37,-247.19C1907.14,-240.94 1431.65,-222.56 1024.51,-199.07"/>
<polygon fill="midnightblue" stroke="midnightblue" points="1024.48,-195.57 1014.3,-198.48 1024.08,-202.55 1024.48,-195.57"/>
</g>
<!-- Node7 -->
<g id="node7" class="node">
<title>Node7</title>
<g id="a_node7"><a xlink:title=" ">
<polygon fill="white" stroke="#bfbfbf" points="1032,-179.5 1032,-198.5 1226,-198.5 1226,-179.5 1032,-179.5"/>
<text text-anchor="middle" x="1129" y="-186.5" font-family="Helvetica,sans-Serif" font-size="10.00">../ifc/exception/vexceptionwrongid.h</text>
</a>
</g>
</g>
<!-- Node1&#45;&gt;Node7 -->
<g id="edge6" class="edge">
<title>Node1&#45;&gt;Node7</title>
<path fill="none" stroke="midnightblue" d="M2076.32,-246.58C1930,-239.74 1558.25,-221.57 1236.04,-199.05"/>
<polygon fill="midnightblue" stroke="midnightblue" points="1236.26,-195.56 1226.04,-198.35 1235.77,-202.54 1236.26,-195.56"/>
</g>
<!-- Node8 -->
<g id="node8" class="node">
<title>Node8</title>
<g id="a_node8"><a xlink:title=" ">
<polygon fill="white" stroke="#bfbfbf" points="1244,-179.5 1244,-198.5 1420,-198.5 1420,-179.5 1244,-179.5"/>
<text text-anchor="middle" x="1332" y="-186.5" font-family="Helvetica,sans-Serif" font-size="10.00">../vwidgets/vmaingraphicsview.h</text>
</a>
</g>
</g>
<!-- Node1&#45;&gt;Node8 -->
<g id="edge7" class="edge">
<title>Node1&#45;&gt;Node8</title>
<path fill="none" stroke="midnightblue" d="M2076.32,-245.41C1953.71,-237.44 1676.06,-218.93 1430.34,-199.01"/>
<polygon fill="midnightblue" stroke="midnightblue" points="1430.39,-195.5 1420.14,-198.18 1429.82,-202.48 1430.39,-195.5"/>
</g>
<!-- Node9 -->
<g id="node9" class="node">
<title>Node9</title>
<g id="a_node9"><a xlink:href="../../d1/d9f/seamly2d_2version_8h.html" target="_top" xlink:title=" ">
<polygon fill="white" stroke="black" points="1438.5,-179.5 1438.5,-198.5 1509.5,-198.5 1509.5,-179.5 1438.5,-179.5"/>
<text text-anchor="middle" x="1474" y="-186.5" font-family="Helvetica,sans-Serif" font-size="10.00">../version.h</text>
</a>
</g>
</g>
<!-- Node1&#45;&gt;Node9 -->
<g id="edge8" class="edge">
<title>Node1&#45;&gt;Node9</title>
<path fill="none" stroke="midnightblue" d="M2076.26,-246.77C1965.22,-241.46 1728.99,-227.82 1519.74,-198.94"/>
<polygon fill="midnightblue" stroke="midnightblue" points="1520.18,-195.46 1509.8,-197.55 1519.22,-202.4 1520.18,-195.46"/>
</g>
<!-- Node11 -->
<g id="node11" class="node">
<title>Node11</title>
<g id="a_node11"><a xlink:title=" ">
<polygon fill="white" stroke="#bfbfbf" points="1527.5,-179.5 1527.5,-198.5 1630.5,-198.5 1630.5,-179.5 1527.5,-179.5"/>
<text text-anchor="middle" x="1579" y="-186.5" font-family="Helvetica,sans-Serif" font-size="10.00">../vmisc/logging.h</text>
</a>
</g>
</g>
<!-- Node1&#45;&gt;Node11 -->
<g id="edge10" class="edge">
<title>Node1&#45;&gt;Node11</title>
<path fill="none" stroke="midnightblue" d="M2076.36,-244.01C1983.21,-235.77 1804.04,-219.14 1640.79,-199.04"/>
<polygon fill="midnightblue" stroke="midnightblue" points="1640.92,-195.53 1630.56,-197.78 1640.06,-202.48 1640.92,-195.53"/>
</g>
<!-- Node12 -->
<g id="node12" class="node">
<title>Node12</title>
<g id="a_node12"><a xlink:title=" ">
<polygon fill="white" stroke="#bfbfbf" points="1649,-179.5 1649,-198.5 1747,-198.5 1747,-179.5 1649,-179.5"/>
<text text-anchor="middle" x="1698" y="-186.5" font-family="Helvetica,sans-Serif" font-size="10.00">../vmisc/vmath.h</text>
</a>
</g>
</g>
<!-- Node1&#45;&gt;Node12 -->
<g id="edge11" class="edge">
<title>Node1&#45;&gt;Node12</title>
<path fill="none" stroke="midnightblue" d="M2076.24,-241.5C2002.27,-232.12 1876.34,-215.87 1757.27,-199.01"/>
<polygon fill="midnightblue" stroke="midnightblue" points="1757.64,-195.53 1747.24,-197.59 1756.65,-202.46 1757.64,-195.53"/>
</g>
<!-- Node13 -->
<g id="node13" class="node">
<title>Node13</title>
<g id="a_node13"><a xlink:title=" ">
<polygon fill="white" stroke="#bfbfbf" points="1765.5,-179.5 1765.5,-198.5 1930.5,-198.5 1930.5,-179.5 1765.5,-179.5"/>
<text text-anchor="middle" x="1848" y="-186.5" font-family="Helvetica,sans-Serif" font-size="10.00">../qmuparser/qmuparsererror.h</text>
</a>
</g>
</g>
<!-- Node1&#45;&gt;Node13 -->
<g id="edge12" class="edge">
<title>Node1&#45;&gt;Node13</title>
<path fill="none" stroke="midnightblue" d="M2076.28,-236.52C2023.37,-225.74 1949.06,-210.59 1899.77,-200.55"/>
<polygon fill="midnightblue" stroke="midnightblue" points="1900.45,-197.12 1889.96,-198.55 1899.06,-203.98 1900.45,-197.12"/>
</g>
<!-- Node14 -->
<g id="node14" class="node">
<title>Node14</title>
<g id="a_node14"><a xlink:href="../../d9/d53/mainwindow_8h.html" target="_top" xlink:title=" ">
<polygon fill="white" stroke="black" points="1949,-179.5 1949,-198.5 2045,-198.5 2045,-179.5 1949,-179.5"/>
<text text-anchor="middle" x="1997" y="-186.5" font-family="Helvetica,sans-Serif" font-size="10.00">../mainwindow.h</text>
</a>
</g>
</g>
<!-- Node1&#45;&gt;Node14 -->
<g id="edge13" class="edge">
<title>Node1&#45;&gt;Node14</title>
<path fill="none" stroke="midnightblue" d="M2106.11,-235.4C2082.12,-225.42 2050.23,-212.15 2027.12,-202.53"/>
<polygon fill="midnightblue" stroke="midnightblue" points="2028.39,-199.27 2017.81,-198.66 2025.7,-205.73 2028.39,-199.27"/>
</g>
<!-- Node49 -->
<g id="node36" class="node">
<title>Node49</title>
<g id="a_node36"><a xlink:title=" ">
<polygon fill="white" stroke="#bfbfbf" points="2063.5,-179.5 2063.5,-198.5 2092.5,-198.5 2092.5,-179.5 2063.5,-179.5"/>
<text text-anchor="middle" x="2078" y="-186.5" font-family="Helvetica,sans-Serif" font-size="10.00">Qt</text>
</a>
</g>
</g>
<!-- Node1&#45;&gt;Node49 -->
<g id="edge37" class="edge">
<title>Node1&#45;&gt;Node49</title>
<path fill="none" stroke="midnightblue" d="M2125.31,-235.4C2116.02,-226.49 2104,-214.95 2094.4,-205.74"/>
<polygon fill="midnightblue" stroke="midnightblue" points="2096.66,-203.06 2087.02,-198.66 2091.81,-208.11 2096.66,-203.06"/>
</g>
<!-- Node50 -->
<g id="node37" class="node">
<title>Node50</title>
<g id="a_node37"><a xlink:title=" ">
<polygon fill="white" stroke="#bfbfbf" points="2110.5,-179.5 2110.5,-198.5 2169.5,-198.5 2169.5,-179.5 2110.5,-179.5"/>
<text text-anchor="middle" x="2140" y="-186.5" font-family="Helvetica,sans-Serif" font-size="10.00">QtDebug</text>
</a>
</g>
</g>
<!-- Node1&#45;&gt;Node50 -->
<g id="edge38" class="edge">
<title>Node1&#45;&gt;Node50</title>
<path fill="none" stroke="midnightblue" d="M2140,-235.4C2140,-227.47 2140,-217.46 2140,-208.86"/>
<polygon fill="midnightblue" stroke="midnightblue" points="2143.5,-208.66 2140,-198.66 2136.5,-208.66 2143.5,-208.66"/>
</g>
<!-- Node51 -->
<g id="node38" class="node">
<title>Node51</title>
<g id="a_node38"><a xlink:title=" ">
<polygon fill="white" stroke="#bfbfbf" points="2188,-179.5 2188,-198.5 2226,-198.5 2226,-179.5 2188,-179.5"/>
<text text-anchor="middle" x="2207" y="-186.5" font-family="Helvetica,sans-Serif" font-size="10.00">QDir</text>
</a>
</g>
</g>
<!-- Node1&#45;&gt;Node51 -->
<g id="edge39" class="edge">
<title>Node1&#45;&gt;Node51</title>
<path fill="none" stroke="midnightblue" d="M2155.88,-235.4C2166.02,-226.4 2179.16,-214.72 2189.59,-205.47"/>
<polygon fill="midnightblue" stroke="midnightblue" points="2192.1,-207.92 2197.25,-198.66 2187.45,-202.68 2192.1,-207.92"/>
</g>
<!-- Node52 -->
<g id="node39" class="node">
<title>Node52</title>
<g id="a_node39"><a xlink:title=" ">
<polygon fill="white" stroke="#bfbfbf" points="2244,-179.5 2244,-198.5 2306,-198.5 2306,-179.5 2244,-179.5"/>
<text text-anchor="middle" x="2275" y="-186.5" font-family="Helvetica,sans-Serif" font-size="10.00">QProcess</text>
</a>
</g>
</g>
<!-- Node1&#45;&gt;Node52 -->
<g id="edge40" class="edge">
<title>Node1&#45;&gt;Node52</title>
<path fill="none" stroke="midnightblue" d="M2171.99,-235.4C2194.44,-225.51 2224.21,-212.38 2245.98,-202.79"/>
<polygon fill="midnightblue" stroke="midnightblue" points="2247.62,-205.89 2255.36,-198.66 2244.79,-199.49 2247.62,-205.89"/>
</g>
<!-- Node53 -->
<g id="node40" class="node">
<title>Node53</title>
<g id="a_node40"><a xlink:title=" ">
<polygon fill="white" stroke="#bfbfbf" points="2324.5,-179.5 2324.5,-198.5 2417.5,-198.5 2417.5,-179.5 2324.5,-179.5"/>
<text text-anchor="middle" x="2371" y="-186.5" font-family="Helvetica,sans-Serif" font-size="10.00">QTemporaryFile</text>
</a>
</g>
</g>
<!-- Node1&#45;&gt;Node53 -->
<g id="edge41" class="edge">
<title>Node1&#45;&gt;Node53</title>
<path fill="none" stroke="midnightblue" d="M2194.45,-235.47C2235.17,-224.99 2290.1,-210.84 2327.82,-201.12"/>
<polygon fill="midnightblue" stroke="midnightblue" points="2329.16,-204.39 2337.98,-198.51 2327.42,-197.61 2329.16,-204.39"/>
</g>
<!-- Node54 -->
<g id="node41" class="node">
<title>Node54</title>
<g id="a_node41"><a xlink:title=" ">
<polygon fill="white" stroke="#bfbfbf" points="2435.5,-179.5 2435.5,-198.5 2512.5,-198.5 2512.5,-179.5 2435.5,-179.5"/>
<text text-anchor="middle" x="2474" y="-186.5" font-family="Helvetica,sans-Serif" font-size="10.00">QUndoStack</text>
</a>
</g>
</g>
<!-- Node1&#45;&gt;Node54 -->
<g id="edge42" class="edge">
<title>Node1&#45;&gt;Node54</title>
<path fill="none" stroke="midnightblue" d="M2203.6,-238.59C2259.52,-228.94 2343.38,-214.3 2425.3,-199.29"/>
<polygon fill="midnightblue" stroke="midnightblue" points="2426.08,-202.71 2435.28,-197.46 2424.81,-195.82 2426.08,-202.71"/>
</g>
<!-- Node55 -->
<g id="node42" class="node">
<title>Node55</title>
<g id="a_node42"><a xlink:title=" ">
<polygon fill="white" stroke="#bfbfbf" points="2530.5,-179.5 2530.5,-198.5 2571.5,-198.5 2571.5,-179.5 2530.5,-179.5"/>
<text text-anchor="middle" x="2551" y="-186.5" font-family="Helvetica,sans-Serif" font-size="10.00">QFile</text>
</a>
</g>
</g>
<!-- Node1&#45;&gt;Node55 -->
<g id="edge43" class="edge">
<title>Node1&#45;&gt;Node55</title>
<path fill="none" stroke="midnightblue" d="M2203.77,-244.4C2277.99,-237.72 2404.27,-224.06 2520.43,-199.05"/>
<polygon fill="midnightblue" stroke="midnightblue" points="2521.18,-202.47 2530.2,-196.92 2519.69,-195.63 2521.18,-202.47"/>
</g>
<!-- Node56 -->
<g id="node43" class="node">
<title>Node56</title>
<g id="a_node43"><a xlink:title=" ">
<polygon fill="white" stroke="#bfbfbf" points="2590,-179.5 2590,-198.5 2684,-198.5 2684,-179.5 2590,-179.5"/>
<text text-anchor="middle" x="2637" y="-186.5" font-family="Helvetica,sans-Serif" font-size="10.00">QStandardPaths</text>
</a>
</g>
</g>
<!-- Node1&#45;&gt;Node56 -->
<g id="edge44" class="edge">
<title>Node1&#45;&gt;Node56</title>
<path fill="none" stroke="midnightblue" d="M2203.65,-243.13C2287.47,-234.53 2439.67,-218.22 2579.9,-199.1"/>
<polygon fill="midnightblue" stroke="midnightblue" points="2580.54,-202.54 2589.97,-197.72 2579.59,-195.61 2580.54,-202.54"/>
</g>
<!-- Node57 -->
<g id="node44" class="node">
<title>Node57</title>
<g id="a_node44"><a xlink:title=" ">
<polygon fill="white" stroke="#bfbfbf" points="2702,-179.5 2702,-198.5 2788,-198.5 2788,-179.5 2702,-179.5"/>
<text text-anchor="middle" x="2745" y="-186.5" font-family="Helvetica,sans-Serif" font-size="10.00">QMessageBox</text>
</a>
</g>
</g>
<!-- Node1&#45;&gt;Node57 -->
<g id="edge45" class="edge">
<title>Node1&#45;&gt;Node57</title>
<path fill="none" stroke="midnightblue" d="M2203.63,-245.36C2304.83,-238.4 2508.88,-222.88 2691.83,-199.06"/>
<polygon fill="midnightblue" stroke="midnightblue" points="2692.45,-202.5 2701.91,-197.73 2691.54,-195.56 2692.45,-202.5"/>
</g>
<!-- Node58 -->
<g id="node45" class="node">
<title>Node58</title>
<g id="a_node45"><a xlink:title=" ">
<polygon fill="white" stroke="#bfbfbf" points="2806,-179.5 2806,-198.5 2864,-198.5 2864,-179.5 2806,-179.5"/>
<text text-anchor="middle" x="2835" y="-186.5" font-family="Helvetica,sans-Serif" font-size="10.00">QThread</text>
</a>
</g>
</g>
<!-- Node1&#45;&gt;Node58 -->
<g id="edge46" class="edge">
<title>Node1&#45;&gt;Node58</title>
<path fill="none" stroke="midnightblue" d="M2203.8,-247.9C2319.92,-244.25 2573.53,-232.99 2795.74,-198.97"/>
<polygon fill="midnightblue" stroke="midnightblue" points="2796.29,-202.42 2805.63,-197.43 2795.21,-195.51 2796.29,-202.42"/>
</g>
<!-- Node59 -->
<g id="node46" class="node">
<title>Node59</title>
<g id="a_node46"><a xlink:title=" ">
<polygon fill="white" stroke="#bfbfbf" points="2882,-179.5 2882,-198.5 2954,-198.5 2954,-179.5 2882,-179.5"/>
<text text-anchor="middle" x="2918" y="-186.5" font-family="Helvetica,sans-Serif" font-size="10.00">QDateTime</text>
</a>
</g>
</g>
<!-- Node1&#45;&gt;Node59 -->
<g id="edge47" class="edge">
<title>Node1&#45;&gt;Node59</title>
<path fill="none" stroke="midnightblue" d="M2203.52,-247.87C2329.29,-244.05 2619.01,-232.28 2871.61,-199.02"/>
<polygon fill="midnightblue" stroke="midnightblue" points="2872.27,-202.46 2881.72,-197.67 2871.34,-195.52 2872.27,-202.46"/>
</g>
<!-- Node60 -->
<g id="node47" class="node">
<title>Node60</title>
<g id="a_node47"><a xlink:title=" ">
<polygon fill="white" stroke="#bfbfbf" points="2972,-179.5 2972,-198.5 3016,-198.5 3016,-179.5 2972,-179.5"/>
<text text-anchor="middle" x="2994" y="-186.5" font-family="Helvetica,sans-Serif" font-size="10.00">QIcon</text>
</a>
</g>
</g>
<!-- Node1&#45;&gt;Node60 -->
<g id="edge48" class="edge">
<title>Node1&#45;&gt;Node60</title>
<path fill="none" stroke="midnightblue" d="M2203.54,-250.36C2340.79,-251.19 2675.08,-247.69 2961.61,-198.84"/>
<polygon fill="midnightblue" stroke="midnightblue" points="2962.53,-202.24 2971.79,-197.09 2961.34,-195.34 2962.53,-202.24"/>
</g>
<!-- Node61 -->
<g id="node48" class="node">
<title>Node61</title>
<g id="a_node48"><a xlink:title=" ">
<polygon fill="white" stroke="#bfbfbf" points="3034,-179.5 3034,-198.5 3110,-198.5 3110,-179.5 3034,-179.5"/>
<text text-anchor="middle" x="3072" y="-186.5" font-family="Helvetica,sans-Serif" font-size="10.00">QJsonObject</text>
</a>
</g>
</g>
<!-- Node1&#45;&gt;Node61 -->
<g id="edge49" class="edge">
<title>Node1&#45;&gt;Node61</title>
<path fill="none" stroke="midnightblue" d="M2203.57,-248.75C2347.79,-246.43 2710.86,-237.09 3023.68,-198.99"/>
<polygon fill="midnightblue" stroke="midnightblue" points="3024.35,-202.44 3033.85,-197.74 3023.49,-195.49 3024.35,-202.44"/>
</g>
<!-- Node62 -->
<g id="node49" class="node">
<title>Node62</title>
<g id="a_node49"><a xlink:title=" ">
<polygon fill="white" stroke="#bfbfbf" points="3128.5,-179.5 3128.5,-198.5 3199.5,-198.5 3199.5,-179.5 3128.5,-179.5"/>
<text text-anchor="middle" x="3164" y="-186.5" font-family="Helvetica,sans-Serif" font-size="10.00">QJsonValue</text>
</a>
</g>
</g>
<!-- Node1&#45;&gt;Node62 -->
<g id="edge50" class="edge">
<title>Node1&#45;&gt;Node62</title>
<path fill="none" stroke="midnightblue" d="M2203.56,-249.42C2358.44,-248.55 2767.66,-242.09 3118.13,-198.9"/>
<polygon fill="midnightblue" stroke="midnightblue" points="3118.72,-202.35 3128.22,-197.65 3117.86,-195.41 3118.72,-202.35"/>
</g>
<!-- Node63 -->
<g id="node50" class="node">
<title>Node63</title>
<g id="a_node50"><a xlink:title=" ">
<polygon fill="white" stroke="#bfbfbf" points="3217.5,-179.5 3217.5,-198.5 3312.5,-198.5 3312.5,-179.5 3217.5,-179.5"/>
<text text-anchor="middle" x="3265" y="-186.5" font-family="Helvetica,sans-Serif" font-size="10.00">QJsonDocument</text>
</a>
</g>
</g>
<!-- Node1&#45;&gt;Node63 -->
<g id="edge51" class="edge">
<title>Node1&#45;&gt;Node63</title>
<path fill="none" stroke="midnightblue" d="M2203.75,-248.98C2368.34,-247.1 2821.16,-238.54 3207.42,-199.05"/>
<polygon fill="midnightblue" stroke="midnightblue" points="3207.8,-202.53 3217.39,-198.02 3207.08,-195.57 3207.8,-202.53"/>
</g>
<!-- Node10 -->
<g id="node10" class="node">
<title>Node10</title>
<g id="a_node10"><a xlink:href="../../dc/d73/projectversion_8h.html" target="_top" xlink:title=" ">
<polygon fill="white" stroke="black" points="957,-123.5 957,-142.5 1123,-142.5 1123,-123.5 957,-123.5"/>
<text text-anchor="middle" x="1040" y="-130.5" font-family="Helvetica,sans-Serif" font-size="10.00">../../libs/vmisc/projectversion.h</text>
</a>
</g>
</g>
<!-- Node9&#45;&gt;Node10 -->
<g id="edge9" class="edge">
<title>Node9&#45;&gt;Node10</title>
<path fill="none" stroke="midnightblue" d="M1438.19,-180.56C1435.08,-180 1431.99,-179.47 1429,-179 1373.38,-170.24 1226.89,-153.97 1130.4,-143.59"/>
<polygon fill="midnightblue" stroke="midnightblue" points="1130.66,-140.09 1120.35,-142.51 1129.91,-147.05 1130.66,-140.09"/>
</g>
<!-- Node15 -->
<g id="node15" class="node">
<title>Node15</title>
<g id="a_node15"><a xlink:href="../../d1/d82/mainwindowsnogui_8h.html" target="_top" xlink:title=" ">
<polygon fill="white" stroke="black" points="1141,-123.5 1141,-142.5 1261,-142.5 1261,-123.5 1141,-123.5"/>
<text text-anchor="middle" x="1201" y="-130.5" font-family="Helvetica,sans-Serif" font-size="10.00">mainwindowsnogui.h</text>
</a>
</g>
</g>
<!-- Node14&#45;&gt;Node15 -->
<g id="edge14" class="edge">
<title>Node14&#45;&gt;Node15</title>
<path fill="none" stroke="midnightblue" d="M1948.84,-180.06C1945.85,-179.67 1942.89,-179.32 1940,-179 1695.23,-152.29 1402.98,-140.35 1271.37,-136.04"/>
<polygon fill="midnightblue" stroke="midnightblue" points="1271.14,-132.53 1261.03,-135.71 1270.92,-139.53 1271.14,-132.53"/>
</g>
<!-- Node34 -->
<g id="node25" class="node">
<title>Node34</title>
<g id="a_node25"><a xlink:href="../../dd/d57/vcmdexport_8h.html" target="_top" xlink:title=" ">
<polygon fill="white" stroke="red" points="1810,-123.5 1810,-142.5 1918,-142.5 1918,-123.5 1810,-123.5"/>
<text text-anchor="middle" x="1864" y="-130.5" font-family="Helvetica,sans-Serif" font-size="10.00">core/vcmdexport.h</text>
</a>
</g>
</g>
<!-- Node14&#45;&gt;Node34 -->
<g id="edge24" class="edge">
<title>Node14&#45;&gt;Node34</title>
<path fill="none" stroke="midnightblue" d="M1975.93,-179.44C1953.94,-170.52 1919.27,-156.44 1894.34,-146.32"/>
<polygon fill="midnightblue" stroke="midnightblue" points="1895.56,-143.04 1884.98,-142.52 1892.92,-149.52 1895.56,-143.04"/>
</g>
<!-- Node45 -->
<g id="node32" class="node">
<title>Node45</title>
<g id="a_node32"><a xlink:title=" ">
<polygon fill="white" stroke="#bfbfbf" points="1936.5,-123.5 1936.5,-142.5 2057.5,-142.5 2057.5,-123.5 1936.5,-123.5"/>
<text text-anchor="middle" x="1997" y="-130.5" font-family="Helvetica,sans-Serif" font-size="10.00">../vmisc/vlockguard.h</text>
</a>
</g>
</g>
<!-- Node14&#45;&gt;Node45 -->
<g id="edge33" class="edge">
<title>Node14&#45;&gt;Node45</title>
<path fill="none" stroke="midnightblue" d="M1997,-179.08C1997,-172.01 1997,-161.86 1997,-152.99"/>
<polygon fill="midnightblue" stroke="midnightblue" points="2000.5,-152.75 1997,-142.75 1993.5,-152.75 2000.5,-152.75"/>
</g>
<!-- Node46 -->
<g id="node33" class="node">
<title>Node46</title>
<g id="a_node33"><a xlink:title=" ">
<polygon fill="white" stroke="#bfbfbf" points="2075.5,-123.5 2075.5,-142.5 2120.5,-142.5 2120.5,-123.5 2075.5,-123.5"/>
<text text-anchor="middle" x="2098" y="-130.5" font-family="Helvetica,sans-Serif" font-size="10.00">QMap</text>
</a>
</g>
</g>
<!-- Node14&#45;&gt;Node46 -->
<g id="edge34" class="edge">
<title>Node14&#45;&gt;Node46</title>
<path fill="none" stroke="midnightblue" d="M2013.23,-179.32C2029.35,-170.7 2054.3,-157.36 2072.96,-147.39"/>
<polygon fill="midnightblue" stroke="midnightblue" points="2074.64,-150.46 2081.81,-142.65 2071.34,-144.28 2074.64,-150.46"/>
</g>
<!-- Node47 -->
<g id="node34" class="node">
<title>Node47</title>
<g id="a_node34"><a xlink:title=" ">
<polygon fill="white" stroke="#bfbfbf" points="2138.5,-123.5 2138.5,-142.5 2197.5,-142.5 2197.5,-123.5 2138.5,-123.5"/>
<text text-anchor="middle" x="2168" y="-130.5" font-family="Helvetica,sans-Serif" font-size="10.00">QPointer</text>
</a>
</g>
</g>
<!-- Node14&#45;&gt;Node47 -->
<g id="edge35" class="edge">
<title>Node14&#45;&gt;Node47</title>
<path fill="none" stroke="midnightblue" d="M2024.1,-179.44C2052.99,-170.32 2098.92,-155.81 2131.11,-145.65"/>
<polygon fill="midnightblue" stroke="midnightblue" points="2132.55,-148.87 2141.03,-142.52 2130.44,-142.19 2132.55,-148.87"/>
</g>
<!-- Node48 -->
<g id="node35" class="node">
<title>Node48</title>
<g id="a_node35"><a xlink:title=" ">
<polygon fill="white" stroke="#bfbfbf" points="2216,-123.5 2216,-142.5 2308,-142.5 2308,-123.5 2216,-123.5"/>
<text text-anchor="middle" x="2262" y="-130.5" font-family="Helvetica,sans-Serif" font-size="10.00">QSharedPointer</text>
</a>
</g>
</g>
<!-- Node14&#45;&gt;Node48 -->
<g id="edge36" class="edge">
<title>Node14&#45;&gt;Node48</title>
<path fill="none" stroke="midnightblue" d="M2038.99,-179.44C2085.41,-169.98 2160.23,-154.74 2210.24,-144.55"/>
<polygon fill="midnightblue" stroke="midnightblue" points="2211.11,-147.94 2220.21,-142.52 2209.71,-141.08 2211.11,-147.94"/>
</g>
<!-- Node16 -->
<g id="node16" class="node">
<title>Node16</title>
<g id="a_node16"><a xlink:title=" ">
<polygon fill="white" stroke="#bfbfbf" points="665.5,-62 665.5,-81 752.5,-81 752.5,-62 665.5,-62"/>
<text text-anchor="middle" x="709" y="-69" font-family="Helvetica,sans-Serif" font-size="10.00">QMainWindow</text>
</a>
</g>
</g>
<!-- Node15&#45;&gt;Node16 -->
<g id="edge15" class="edge">
<title>Node15&#45;&gt;Node16</title>
<path fill="none" stroke="midnightblue" d="M1140.8,-124.03C1137.83,-123.67 1134.88,-123.33 1132,-123 967.84,-104.31 924.49,-116.91 762,-87 756.97,-86.07 751.72,-84.9 746.57,-83.62"/>
<polygon fill="midnightblue" stroke="midnightblue" points="747.41,-80.23 736.85,-81.07 745.64,-87 747.41,-80.23"/>
</g>
<!-- Node17 -->
<g id="node17" class="node">
<title>Node17</title>
<g id="a_node17"><a xlink:title=" ">
<polygon fill="white" stroke="#bfbfbf" points="771,-62 771,-81 827,-81 827,-62 771,-62"/>
<text text-anchor="middle" x="799" y="-69" font-family="Helvetica,sans-Serif" font-size="10.00">QPrinter</text>
</a>
</g>
</g>
<!-- Node15&#45;&gt;Node17 -->
<g id="edge16" class="edge">
<title>Node15&#45;&gt;Node17</title>
<path fill="none" stroke="midnightblue" d="M1140.79,-124.12C1137.82,-123.74 1134.88,-123.36 1132,-123 1000.52,-106.43 964.49,-119.44 836,-87 833.33,-86.33 830.6,-85.51 827.88,-84.61"/>
<polygon fill="midnightblue" stroke="midnightblue" points="828.88,-81.25 818.28,-81.12 826.48,-87.83 828.88,-81.25"/>
</g>
<!-- Node18 -->
<g id="node18" class="node">
<title>Node18</title>
<g id="a_node18"><a xlink:title=" ">
<polygon fill="white" stroke="#bfbfbf" points="845,-62 845,-81 921,-81 921,-62 845,-62"/>
<text text-anchor="middle" x="883" y="-69" font-family="Helvetica,sans-Serif" font-size="10.00">QToolButton</text>
</a>
</g>
</g>
<!-- Node15&#45;&gt;Node18 -->
<g id="edge17" class="edge">
<title>Node15&#45;&gt;Node18</title>
<path fill="none" stroke="midnightblue" d="M1144.04,-123.47C1076.95,-113.25 969.63,-96.36 930,-87 926.18,-86.1 922.22,-85.05 918.29,-83.95"/>
<polygon fill="midnightblue" stroke="midnightblue" points="919.27,-80.58 908.69,-81.11 917.28,-87.3 919.27,-80.58"/>
</g>
<!-- Node19 -->
<g id="node19" class="node">
<title>Node19</title>
<g id="a_node19"><a xlink:title=" ">
<polygon fill="white" stroke="#bfbfbf" points="939.5,-62 939.5,-81 1076.5,-81 1076.5,-62 939.5,-62"/>
<text text-anchor="middle" x="1008" y="-69" font-family="Helvetica,sans-Serif" font-size="10.00">../vlayout/vlayoutpiece.h</text>
</a>
</g>
</g>
<!-- Node15&#45;&gt;Node19 -->
<g id="edge18" class="edge">
<title>Node15&#45;&gt;Node19</title>
<path fill="none" stroke="midnightblue" d="M1173.35,-123.48C1139.81,-113.14 1083.13,-95.66 1045.63,-84.1"/>
<polygon fill="midnightblue" stroke="midnightblue" points="1046.19,-80.61 1035.6,-81.01 1044.13,-87.3 1046.19,-80.61"/>
</g>
<!-- Node20 -->
<g id="node20" class="node">
<title>Node20</title>
<g id="a_node20"><a xlink:href="../../d4/d38/vpattern_8h.html" target="_top" xlink:title=" ">
<polygon fill="white" stroke="red" points="1094.5,-62 1094.5,-81 1183.5,-81 1183.5,-62 1094.5,-62"/>
<text text-anchor="middle" x="1139" y="-69" font-family="Helvetica,sans-Serif" font-size="10.00">xml/vpattern.h</text>
</a>
</g>
</g>
<!-- Node15&#45;&gt;Node20 -->
<g id="edge19" class="edge">
<title>Node15&#45;&gt;Node20</title>
<path fill="none" stroke="midnightblue" d="M1192.12,-123.48C1182.54,-114.28 1167.09,-99.46 1155.31,-88.16"/>
<polygon fill="midnightblue" stroke="midnightblue" points="1157.51,-85.41 1147.87,-81.01 1152.66,-90.46 1157.51,-85.41"/>
</g>
<!-- Node25 -->
<g id="node21" class="node">
<title>Node25</title>
<g id="a_node21"><a xlink:href="../../d1/d8e/export__layout__dialog_8h.html" target="_top" xlink:title=" ">
<polygon fill="white" stroke="red" points="1202,-56.5 1202,-86.5 1324,-86.5 1324,-56.5 1202,-56.5"/>
<text text-anchor="start" x="1210" y="-74.5" font-family="Helvetica,sans-Serif" font-size="10.00">dialogs/export_layout</text>
<text text-anchor="middle" x="1263" y="-63.5" font-family="Helvetica,sans-Serif" font-size="10.00">_dialog.h</text>
</a>
</g>
</g>
<!-- Node15&#45;&gt;Node25 -->
<g id="edge20" class="edge">
<title>Node15&#45;&gt;Node25</title>
<path fill="none" stroke="midnightblue" d="M1209.88,-123.48C1217.97,-115.72 1230.24,-103.94 1240.95,-93.66"/>
<polygon fill="midnightblue" stroke="midnightblue" points="1243.6,-95.97 1248.39,-86.52 1238.75,-90.92 1243.6,-95.97"/>
</g>
<!-- Node32 -->
<g id="node23" class="node">
<title>Node32</title>
<g id="a_node23"><a xlink:title=" ">
<polygon fill="white" stroke="#bfbfbf" points="1342,-62 1342,-81 1500,-81 1500,-62 1342,-62"/>
<text text-anchor="middle" x="1421" y="-69" font-family="Helvetica,sans-Serif" font-size="10.00">../vlayout/vlayoutgenerator.h</text>
</a>
</g>
</g>
<!-- Node15&#45;&gt;Node32 -->
<g id="edge22" class="edge">
<title>Node15&#45;&gt;Node32</title>
<path fill="none" stroke="midnightblue" d="M1232.52,-123.48C1271.24,-113 1337.02,-95.21 1379.74,-83.66"/>
<polygon fill="midnightblue" stroke="midnightblue" points="1380.8,-87 1389.54,-81.01 1378.97,-80.24 1380.8,-87"/>
</g>
<!-- Node33 -->
<g id="node24" class="node">
<title>Node33</title>
<g id="a_node24"><a xlink:title=" ">
<polygon fill="white" stroke="#bfbfbf" points="1518.5,-62 1518.5,-81 1707.5,-81 1707.5,-62 1518.5,-62"/>
<text text-anchor="middle" x="1613" y="-69" font-family="Helvetica,sans-Serif" font-size="10.00">../vwidgets/vabstractmainwindow.h</text>
</a>
</g>
</g>
<!-- Node15&#45;&gt;Node33 -->
<g id="edge23" class="edge">
<title>Node15&#45;&gt;Node33</title>
<path fill="none" stroke="midnightblue" d="M1260.03,-123.48C1335.14,-112.63 1464.64,-93.93 1544.16,-82.44"/>
<polygon fill="midnightblue" stroke="midnightblue" points="1544.68,-85.9 1554.08,-81.01 1543.68,-78.97 1544.68,-85.9"/>
</g>
<!-- Node29 -->
<g id="node22" class="node">
<title>Node29</title>
<g id="a_node22"><a xlink:title=" ">
<polygon fill="white" stroke="#bfbfbf" points="1695,-0.5 1695,-19.5 1777,-19.5 1777,-0.5 1695,-0.5"/>
<text text-anchor="middle" x="1736" y="-7.5" font-family="Helvetica,sans-Serif" font-size="10.00">../vmisc/def.h</text>
</a>
</g>
</g>
<!-- Node25&#45;&gt;Node29 -->
<g id="edge21" class="edge">
<title>Node25&#45;&gt;Node29</title>
<path fill="none" stroke="midnightblue" d="M1324.02,-57.51C1327.05,-56.98 1330.06,-56.47 1333,-56 1458.67,-36.01 1607.78,-21.82 1684.58,-15.2"/>
<polygon fill="midnightblue" stroke="midnightblue" points="1685.26,-18.65 1694.93,-14.31 1684.67,-11.68 1685.26,-18.65"/>
</g>
<!-- Node34&#45;&gt;Node29 -->
<g id="edge32" class="edge">
<title>Node34&#45;&gt;Node29</title>
<path fill="none" stroke="midnightblue" d="M1819.09,-123.46C1796.84,-117.01 1771.32,-105.91 1755,-87 1741.28,-71.11 1737.2,-46.74 1736.12,-29.91"/>
<polygon fill="midnightblue" stroke="midnightblue" points="1739.61,-29.52 1735.77,-19.65 1732.61,-29.76 1739.61,-29.52"/>
</g>
<!-- Node35 -->
<g id="node26" class="node">
<title>Node35</title>
<g id="a_node26"><a xlink:title=" ">
<polygon fill="white" stroke="#bfbfbf" points="1764,-62 1764,-81 1822,-81 1822,-62 1764,-62"/>
<text text-anchor="middle" x="1793" y="-69" font-family="Helvetica,sans-Serif" font-size="10.00">memory</text>
</a>
</g>
</g>
<!-- Node34&#45;&gt;Node35 -->
<g id="edge25" class="edge">
<title>Node34&#45;&gt;Node35</title>
<path fill="none" stroke="midnightblue" d="M1853.83,-123.48C1842.65,-114.11 1824.48,-98.88 1810.91,-87.51"/>
<polygon fill="midnightblue" stroke="midnightblue" points="1813.07,-84.75 1803.15,-81.01 1808.57,-90.11 1813.07,-84.75"/>
</g>
<!-- Node36 -->
<g id="node27" class="node">
<title>Node36</title>
<g id="a_node27"><a xlink:title=" ">
<polygon fill="white" stroke="#bfbfbf" points="1840.5,-62 1840.5,-81 1887.5,-81 1887.5,-62 1840.5,-62"/>
<text text-anchor="middle" x="1864" y="-69" font-family="Helvetica,sans-Serif" font-size="10.00">vector</text>
</a>
</g>
</g>
<!-- Node34&#45;&gt;Node36 -->
<g id="edge26" class="edge">
<title>Node34&#45;&gt;Node36</title>
<path fill="none" stroke="midnightblue" d="M1864,-123.48C1864,-115.08 1864,-101.98 1864,-91.16"/>
<polygon fill="midnightblue" stroke="midnightblue" points="1867.5,-91.01 1864,-81.01 1860.5,-91.01 1867.5,-91.01"/>
</g>
<!-- Node37 -->
<g id="node28" class="node">
<title>Node37</title>
<g id="a_node28"><a xlink:title=" ">
<polygon fill="white" stroke="#bfbfbf" points="1906,-62 1906,-81 1986,-81 1986,-62 1906,-62"/>
<text text-anchor="middle" x="1946" y="-69" font-family="Helvetica,sans-Serif" font-size="10.00">QTextStream</text>
</a>
</g>
</g>
<!-- Node34&#45;&gt;Node37 -->
<g id="edge27" class="edge">
<title>Node34&#45;&gt;Node37</title>
<path fill="none" stroke="midnightblue" d="M1875.75,-123.48C1888.78,-114.02 1910.04,-98.6 1925.76,-87.19"/>
<polygon fill="midnightblue" stroke="midnightblue" points="1928.23,-89.71 1934.27,-81.01 1924.12,-84.05 1928.23,-89.71"/>
</g>
<!-- Node38 -->
<g id="node29" class="node">
<title>Node38</title>
<g id="a_node29"><a xlink:title=" ">
<polygon fill="white" stroke="#bfbfbf" points="2004.5,-62 2004.5,-81 2105.5,-81 2105.5,-62 2004.5,-62"/>
<text text-anchor="middle" x="2055" y="-69" font-family="Helvetica,sans-Serif" font-size="10.00">QCoreApplication</text>
</a>
</g>
</g>
<!-- Node34&#45;&gt;Node38 -->
<g id="edge28" class="edge">
<title>Node34&#45;&gt;Node38</title>
<path fill="none" stroke="midnightblue" d="M1891.37,-123.48C1924.55,-113.14 1980.65,-95.66 2017.76,-84.1"/>
<polygon fill="midnightblue" stroke="midnightblue" points="2019.18,-87.32 2027.69,-81.01 2017.1,-80.64 2019.18,-87.32"/>
</g>
<!-- Node39 -->
<g id="node30" class="node">
<title>Node39</title>
<g id="a_node30"><a xlink:title=" ">
<polygon fill="white" stroke="#bfbfbf" points="2123.5,-62 2123.5,-81 2248.5,-81 2248.5,-62 2123.5,-62"/>
<text text-anchor="middle" x="2186" y="-69" font-family="Helvetica,sans-Serif" font-size="10.00">QCommandLineParser</text>
</a>
</g>
</g>
<!-- Node34&#45;&gt;Node39 -->
<g id="edge29" class="edge">
<title>Node34&#45;&gt;Node39</title>
<path fill="none" stroke="midnightblue" d="M1913.59,-123.47C1964.27,-114.67 2045.22,-100.38 2115,-87 2121.56,-85.74 2128.45,-84.38 2135.25,-83.02"/>
<polygon fill="midnightblue" stroke="midnightblue" points="2136,-86.44 2145.11,-81.03 2134.61,-79.58 2136,-86.44"/>
</g>
<!-- Node40 -->
<g id="node31" class="node">
<title>Node40</title>
<g id="a_node31"><a xlink:href="../../d3/dd8/layoutsettings__dialog_8h.html" target="_top" xlink:title=" ">
<polygon fill="white" stroke="red" points="2267,-56.5 2267,-86.5 2401,-86.5 2401,-56.5 2267,-56.5"/>
<text text-anchor="start" x="2275" y="-74.5" font-family="Helvetica,sans-Serif" font-size="10.00">../dialogs/layoutsettings</text>
<text text-anchor="middle" x="2334" y="-63.5" font-family="Helvetica,sans-Serif" font-size="10.00">_dialog.h</text>
</a>
</g>
</g>
<!-- Node34&#45;&gt;Node40 -->
<g id="edge30" class="edge">
<title>Node34&#45;&gt;Node40</title>
<path fill="none" stroke="midnightblue" d="M1918.11,-124.27C1921.45,-123.83 1924.77,-123.4 1928,-123 2071.11,-105.14 2110.34,-108.67 2256.66,-87.13"/>
<polygon fill="midnightblue" stroke="midnightblue" points="2257.54,-90.53 2266.91,-85.6 2256.51,-83.61 2257.54,-90.53"/>
</g>
<!-- Node40&#45;&gt;Node29 -->
<g id="edge31" class="edge">
<title>Node40&#45;&gt;Node29</title>
<path fill="none" stroke="midnightblue" d="M2266.92,-57.32C2263.91,-56.85 2260.93,-56.4 2258,-56 2086.25,-32.28 1880.88,-18.93 1787.16,-13.67"/>
<polygon fill="midnightblue" stroke="midnightblue" points="1787.28,-10.17 1777.1,-13.11 1786.89,-17.16 1787.28,-10.17"/>
</g>
</g>
</svg>
        <g id="navigator" transform="translate(0 0)" fill="#404254">
                <rect fill="#f2f5e9" fill-opacity="0.5" stroke="#606060" stroke-width=".5" x="0" y="0" width="60" height="60"/>
                <use id="zoomplus" xlink:href="#zoomPlus" x="17" y="9" onmousedown="handleZoom(evt,'in')"/>
                <use id="zoomminus" xlink:href="#zoomMin" x="42" y="9" onmousedown="handleZoom(evt,'out')"/>
                <use id="reset" xlink:href="#resetDef" x="30" y="36" onmousedown="handleReset()"/>
                <g id="arrowUp" xlink:href="#dirArrow" transform="translate(30 24)" onmousedown="handlePan(0,-1)">
                  <use xlink:href="#rim" fill="#404040">
                        <set attributeName="fill" to="#808080" begin="arrowUp.mouseover" end="arrowUp.mouseout"/>
                  </use>
                  <path fill="none" stroke="white" stroke-width="1.5" d="M0,-3.0v7 M-2.5,-0.5L0,-3.0L2.5,-0.5"/>
                </g>
                <g id="arrowRight" xlink:href="#dirArrow" transform="rotate(90) translate(36 -43)" onmousedown="handlePan(1,0)">
                  <use xlink:href="#rim" fill="#404040">
                        <set attributeName="fill" to="#808080" begin="arrowRight.mouseover" end="arrowRight.mouseout"/>
                  </use>
                  <path fill="none" stroke="white" stroke-width="1.5" d="M0,-3.0v7 M-2.5,-0.5L0,-3.0L2.5,-0.5"/>
                </g>
                <g id="arrowDown" xlink:href="#dirArrow" transform="rotate(180) translate(-30 -48)" onmousedown="handlePan(0,1)">
                  <use xlink:href="#rim" fill="#404040">
                        <set attributeName="fill" to="#808080" begin="arrowDown.mouseover" end="arrowDown.mouseout"/>
                  </use>
                  <path fill="none" stroke="white" stroke-width="1.5" d="M0,-3.0v7 M-2.5,-0.5L0,-3.0L2.5,-0.5"/>
                </g>
                <g id="arrowLeft" xlink:href="#dirArrow" transform="rotate(270) translate(-36 17)" onmousedown="handlePan(-1,0)">
                  <use xlink:href="#rim" fill="#404040">
                        <set attributeName="fill" to="#808080" begin="arrowLeft.mouseover" end="arrowLeft.mouseout"/>
                  </use>
                  <path fill="none" stroke="white" stroke-width="1.5" d="M0,-3.0v7 M-2.5,-0.5L0,-3.0L2.5,-0.5"/>
                </g>
        </g>
        <svg viewBox="0 0 15 15" width="100%" height="30px" preserveAspectRatio="xMaxYMin meet">
         <g id="arrow_out" transform="scale(0.3 0.3)">
          <a xlink:href="vapplication_8cpp__incl_org.svg" target="_base">
           <rect id="button" ry="5" rx="5" y="6" x="6" height="38" width="38"
                fill="#f2f5e9" fill-opacity="0.5" stroke="#606060" stroke-width="1.0"/>
           <path id="arrow"
             d="M 11.500037,31.436501 C 11.940474,20.09759 22.043105,11.32322 32.158766,21.979434 L 37.068811,17.246167 C 37.068811,17.246167 37.088388,32 37.088388,32 L 22.160133,31.978069 C 22.160133,31.978069 26.997745,27.140456 26.997745,27.140456 C 18.528582,18.264221 13.291696,25.230495 11.500037,31.436501 z"
             style="fill:#404040;"/>
          </a>
         </g>
        </svg>
</svg>
