<?xml version="1.0" encoding="UTF-8" standalone="no"?>
<!DOCTYPE svg PUBLIC "-//W3C//DTD SVG 1.1//EN"
 "http://www.w3.org/Graphics/SVG/1.1/DTD/svg11.dtd">
<!-- Generated by graphviz version 2.43.0 (0)
 -->
<!-- Title: src/libs/vpatterndb/vcontainer.h Pages: 1 -->
<svg width="7199pt" height="240pt"
 viewBox="0.00 0.00 7199.00 240.00" xmlns="http://www.w3.org/2000/svg" xmlns:xlink="http://www.w3.org/1999/xlink">
<g id="graph0" class="graph" transform="scale(1 1) rotate(0) translate(4 236)">
<title>src/libs/vpatterndb/vcontainer.h</title>
<polygon fill="white" stroke="transparent" points="-4,4 -4,-236 7195,-236 7195,4 -4,4"/>
<!-- Node1 -->
<g id="node1" class="node">
<title>Node1</title>
<g id="a_node1"><a xlink:title=" ">
<polygon fill="#bfbfbf" stroke="black" points="6171.5,-201.5 6171.5,-231.5 6278.5,-231.5 6278.5,-201.5 6171.5,-201.5"/>
<text text-anchor="start" x="6179.5" y="-219.5" font-family="Helvetica,sans-Serif" font-size="10.00">src/libs/vpatterndb</text>
<text text-anchor="middle" x="6225" y="-208.5" font-family="Helvetica,sans-Serif" font-size="10.00">/vcontainer.h</text>
</a>
</g>
</g>
<!-- Node2 -->
<g id="node2" class="node">
<title>Node2</title>
<g id="a_node2"><a xlink:href="../../d4/dd6/vmeasurements_8h.html" target="_top" xlink:title=" ">
<polygon fill="white" stroke="black" points="138.5,-140 138.5,-159 323.5,-159 323.5,-140 138.5,-140"/>
<text text-anchor="middle" x="231" y="-147" font-family="Helvetica,sans-Serif" font-size="10.00">src/libs/vformat/vmeasurements.h</text>
</a>
</g>
</g>
<!-- Node1&#45;&gt;Node2 -->
<g id="edge1" class="edge">
<title>Node1&#45;&gt;Node2</title>
<path fill="none" stroke="midnightblue" d="M6161.25,-215.65C5705.17,-216.61 2890.89,-219.99 602,-165 507.11,-162.72 398.64,-158.27 323.6,-154.89"/>
<polygon fill="midnightblue" stroke="midnightblue" points="6161.28,-219.15 6171.27,-215.63 6161.26,-212.15 6161.28,-219.15"/>
</g>
<!-- Node3 -->
<g id="node3" class="node">
<title>Node3</title>
<g id="a_node3"><a xlink:href="../../de/db3/vmeasurements_8cpp.html" target="_top" xlink:title=" ">
<polygon fill="white" stroke="black" points="0,-73 0,-92 196,-92 196,-73 0,-73"/>
<text text-anchor="middle" x="98" y="-80" font-family="Helvetica,sans-Serif" font-size="10.00">src/libs/vformat/vmeasurements.cpp</text>
</a>
</g>
</g>
<!-- Node1&#45;&gt;Node3 -->
<g id="edge3" class="edge">
<title>Node1&#45;&gt;Node3</title>
<path fill="none" stroke="midnightblue" d="M6161.04,-215.33C5587.18,-213.78 1332.13,-201.07 768,-165 537.05,-150.23 263.67,-109.74 150.79,-92.01"/>
<polygon fill="midnightblue" stroke="midnightblue" points="6161.19,-218.83 6171.2,-215.36 6161.21,-211.83 6161.19,-218.83"/>
</g>
<!-- Node4 -->
<g id="node4" class="node">
<title>Node4</title>
<g id="a_node4"><a xlink:href="../../d6/de0/vlayoutpiece_8h.html" target="_top" xlink:title=" ">
<polygon fill="white" stroke="black" points="777,-140 777,-159 943,-159 943,-140 777,-140"/>
<text text-anchor="middle" x="860" y="-147" font-family="Helvetica,sans-Serif" font-size="10.00">src/libs/vlayout/vlayoutpiece.h</text>
</a>
</g>
</g>
<!-- Node1&#45;&gt;Node4 -->
<g id="edge4" class="edge">
<title>Node1&#45;&gt;Node4</title>
<path fill="none" stroke="midnightblue" d="M6161.22,-214.73C5604.37,-207.98 1574,-159.15 943,-151.51"/>
<polygon fill="midnightblue" stroke="midnightblue" points="6161.42,-218.23 6171.47,-214.85 6161.51,-211.23 6161.42,-218.23"/>
</g>
<!-- Node14 -->
<g id="node13" class="node">
<title>Node14</title>
<g id="a_node13"><a xlink:href="../../d5/d74/vabstractapplication_8h.html" target="_top" xlink:title=" ">
<polygon fill="white" stroke="red" points="4264.5,-140 4264.5,-159 4459.5,-159 4459.5,-140 4264.5,-140"/>
<text text-anchor="middle" x="4362" y="-147" font-family="Helvetica,sans-Serif" font-size="10.00">src/libs/vmisc/vabstractapplication.h</text>
</a>
</g>
</g>
<!-- Node1&#45;&gt;Node14 -->
<g id="edge15" class="edge">
<title>Node1&#45;&gt;Node14</title>
<path fill="none" stroke="midnightblue" d="M6161.01,-213.27C5884.82,-203.63 4793.88,-165.57 4459.77,-153.91"/>
<polygon fill="midnightblue" stroke="midnightblue" points="6161.14,-216.77 6171.25,-213.62 6161.38,-209.78 6161.14,-216.77"/>
</g>
<!-- Node31 -->
<g id="node26" class="node">
<title>Node31</title>
<g id="a_node26"><a xlink:href="../../d8/d70/vtextmanager_8cpp.html" target="_top" xlink:title=" ">
<polygon fill="white" stroke="black" points="1536,-73 1536,-92 1718,-92 1718,-73 1536,-73"/>
<text text-anchor="middle" x="1627" y="-80" font-family="Helvetica,sans-Serif" font-size="10.00">src/libs/vlayout/vtextmanager.cpp</text>
</a>
</g>
</g>
<!-- Node1&#45;&gt;Node31 -->
<g id="edge49" class="edge">
<title>Node1&#45;&gt;Node31</title>
<path fill="none" stroke="midnightblue" d="M6161.14,-213.88C5915.08,-207.65 5004.78,-184.55 4255,-165 3131.43,-135.71 2846.87,-193.7 1727,-98 1710.92,-96.63 1693.48,-94.37 1677.74,-92.04"/>
<polygon fill="midnightblue" stroke="midnightblue" points="6161.25,-217.39 6171.33,-214.14 6161.42,-210.39 6161.25,-217.39"/>
</g>
<!-- Node33 -->
<g id="node28" class="node">
<title>Node33</title>
<g id="a_node28"><a xlink:href="../../db/d11/vformula_8cpp.html" target="_top" xlink:title=" ">
<polygon fill="white" stroke="black" points="6030.5,-67.5 6030.5,-97.5 6137.5,-97.5 6137.5,-67.5 6030.5,-67.5"/>
<text text-anchor="start" x="6038.5" y="-85.5" font-family="Helvetica,sans-Serif" font-size="10.00">src/libs/vpatterndb</text>
<text text-anchor="middle" x="6084" y="-74.5" font-family="Helvetica,sans-Serif" font-size="10.00">/vformula.cpp</text>
</a>
</g>
</g>
<!-- Node1&#45;&gt;Node33 -->
<g id="edge52" class="edge">
<title>Node1&#45;&gt;Node33</title>
<path fill="none" stroke="midnightblue" d="M6202.3,-194.25C6173.24,-167.04 6123.71,-120.68 6098.98,-97.52"/>
<polygon fill="midnightblue" stroke="midnightblue" points="6200.22,-197.09 6209.91,-201.37 6205,-191.98 6200.22,-197.09"/>
</g>
<!-- Node34 -->
<g id="node29" class="node">
<title>Node34</title>
<g id="a_node29"><a xlink:href="../../d6/d46/vcontainer_8cpp.html" target="_top" xlink:title=" ">
<polygon fill="white" stroke="black" points="6155.5,-67.5 6155.5,-97.5 6262.5,-97.5 6262.5,-67.5 6155.5,-67.5"/>
<text text-anchor="start" x="6163.5" y="-85.5" font-family="Helvetica,sans-Serif" font-size="10.00">src/libs/vpatterndb</text>
<text text-anchor="middle" x="6209" y="-74.5" font-family="Helvetica,sans-Serif" font-size="10.00">/vcontainer.cpp</text>
</a>
</g>
</g>
<!-- Node1&#45;&gt;Node34 -->
<g id="edge54" class="edge">
<title>Node1&#45;&gt;Node34</title>
<path fill="none" stroke="midnightblue" d="M6217.01,-191.37C6214.62,-183.1 6212.3,-173.73 6211,-165 6207.53,-141.62 6207.73,-114.06 6208.3,-97.72"/>
<polygon fill="midnightblue" stroke="midnightblue" points="6213.72,-192.58 6219.99,-201.12 6220.41,-190.53 6213.72,-192.58"/>
</g>
<!-- Node35 -->
<g id="node30" class="node">
<title>Node35</title>
<g id="a_node30"><a xlink:href="../../df/d7a/vpiece_8cpp.html" target="_top" xlink:title=" ">
<polygon fill="white" stroke="black" points="6280.5,-67.5 6280.5,-97.5 6387.5,-97.5 6387.5,-67.5 6280.5,-67.5"/>
<text text-anchor="start" x="6288.5" y="-85.5" font-family="Helvetica,sans-Serif" font-size="10.00">src/libs/vpatterndb</text>
<text text-anchor="middle" x="6334" y="-74.5" font-family="Helvetica,sans-Serif" font-size="10.00">/vpiece.cpp</text>
</a>
</g>
</g>
<!-- Node1&#45;&gt;Node35 -->
<g id="edge56" class="edge">
<title>Node1&#45;&gt;Node35</title>
<path fill="none" stroke="midnightblue" d="M6227.37,-191.41C6230.13,-173.95 6236.11,-150.59 6249,-134 6261.53,-117.87 6280.78,-105.82 6297.79,-97.55"/>
<polygon fill="midnightblue" stroke="midnightblue" points="6223.89,-191.03 6226.03,-201.4 6230.83,-191.96 6223.89,-191.03"/>
</g>
<!-- Node37 -->
<g id="node32" class="node">
<title>Node37</title>
<g id="a_node32"><a xlink:href="../../d8/dba/vpiecenode_8cpp.html" target="_top" xlink:title=" ">
<polygon fill="white" stroke="black" points="5993.5,-0.5 5993.5,-30.5 6100.5,-30.5 6100.5,-0.5 5993.5,-0.5"/>
<text text-anchor="start" x="6001.5" y="-18.5" font-family="Helvetica,sans-Serif" font-size="10.00">src/libs/vpatterndb</text>
<text text-anchor="middle" x="6047" y="-7.5" font-family="Helvetica,sans-Serif" font-size="10.00">/vpiecenode.cpp</text>
</a>
</g>
</g>
<!-- Node1&#45;&gt;Node37 -->
<g id="edge55" class="edge">
<title>Node1&#45;&gt;Node37</title>
<path fill="none" stroke="midnightblue" d="M6235.97,-192.09C6245.66,-173.81 6261.45,-149.04 6282,-134 6325.21,-102.36 6365.29,-141.16 6397,-98 6405.16,-86.9 6406.02,-77.41 6397,-67 6359.32,-23.49 6189.08,-16.63 6100.67,-16.07"/>
<polygon fill="midnightblue" stroke="midnightblue" points="6232.73,-190.73 6231.34,-201.23 6238.98,-193.89 6232.73,-190.73"/>
</g>
<!-- Node53 -->
<g id="node45" class="node">
<title>Node53</title>
<g id="a_node45"><a xlink:href="../../d1/de1/vincrement__p_8h.html" target="_top" xlink:title=" ">
<polygon fill="white" stroke="red" points="6291.5,-134.5 6291.5,-164.5 6434.5,-164.5 6434.5,-134.5 6291.5,-134.5"/>
<text text-anchor="start" x="6299.5" y="-152.5" font-family="Helvetica,sans-Serif" font-size="10.00">src/libs/vpatterndb</text>
<text text-anchor="middle" x="6363" y="-141.5" font-family="Helvetica,sans-Serif" font-size="10.00">/variables/vincrement_p.h</text>
</a>
</g>
</g>
<!-- Node1&#45;&gt;Node53 -->
<g id="edge50" class="edge">
<title>Node1&#45;&gt;Node53</title>
<path fill="none" stroke="midnightblue" d="M6264,-197.13C6285.93,-186.8 6312.87,-174.11 6333.11,-164.58"/>
<polygon fill="midnightblue" stroke="midnightblue" points="6262.5,-193.97 6254.94,-201.4 6265.48,-200.3 6262.5,-193.97"/>
</g>
<!-- Node55 -->
<g id="node46" class="node">
<title>Node55</title>
<g id="a_node46"><a xlink:href="../../d6/dc1/vmeasurement__p_8h.html" target="_top" xlink:title=" ">
<polygon fill="white" stroke="red" points="6453,-134.5 6453,-164.5 6615,-164.5 6615,-134.5 6453,-134.5"/>
<text text-anchor="start" x="6461" y="-152.5" font-family="Helvetica,sans-Serif" font-size="10.00">src/libs/vpatterndb</text>
<text text-anchor="middle" x="6534" y="-141.5" font-family="Helvetica,sans-Serif" font-size="10.00">/variables/vmeasurement_p.h</text>
</a>
</g>
</g>
<!-- Node1&#45;&gt;Node55 -->
<g id="edge51" class="edge">
<title>Node1&#45;&gt;Node55</title>
<path fill="none" stroke="midnightblue" d="M6288.63,-202.12C6340.79,-191.14 6414.38,-175.66 6467.34,-164.52"/>
<polygon fill="midnightblue" stroke="midnightblue" points="6287.89,-198.69 6278.82,-204.18 6289.33,-205.54 6287.89,-198.69"/>
</g>
<!-- Node57 -->
<g id="node47" class="node">
<title>Node57</title>
<g id="a_node47"><a xlink:href="../../d6/d91/vnodedetail_8cpp.html" target="_top" xlink:title=" ">
<polygon fill="white" stroke="black" points="6633.5,-134.5 6633.5,-164.5 6740.5,-164.5 6740.5,-134.5 6633.5,-134.5"/>
<text text-anchor="start" x="6641.5" y="-152.5" font-family="Helvetica,sans-Serif" font-size="10.00">src/libs/vpatterndb</text>
<text text-anchor="middle" x="6687" y="-141.5" font-family="Helvetica,sans-Serif" font-size="10.00">/vnodedetail.cpp</text>
</a>
</g>
</g>
<!-- Node1&#45;&gt;Node57 -->
<g id="edge53" class="edge">
<title>Node1&#45;&gt;Node57</title>
<path fill="none" stroke="midnightblue" d="M6288.78,-209.42C6367.8,-201.43 6506.4,-185.92 6624,-165 6627.09,-164.45 6630.26,-163.85 6633.46,-163.21"/>
<polygon fill="midnightblue" stroke="midnightblue" points="6288.1,-205.97 6278.5,-210.45 6288.8,-212.94 6288.1,-205.97"/>
</g>
<!-- Node58 -->
<g id="node48" class="node">
<title>Node58</title>
<g id="a_node48"><a xlink:href="../../da/de1/vpiecepath_8cpp.html" target="_top" xlink:title=" ">
<polygon fill="white" stroke="black" points="6758.5,-134.5 6758.5,-164.5 6865.5,-164.5 6865.5,-134.5 6758.5,-134.5"/>
<text text-anchor="start" x="6766.5" y="-152.5" font-family="Helvetica,sans-Serif" font-size="10.00">src/libs/vpatterndb</text>
<text text-anchor="middle" x="6812" y="-141.5" font-family="Helvetica,sans-Serif" font-size="10.00">/vpiecepath.cpp</text>
</a>
</g>
</g>
<!-- Node1&#45;&gt;Node58 -->
<g id="edge57" class="edge">
<title>Node1&#45;&gt;Node58</title>
<path fill="none" stroke="midnightblue" d="M6288.74,-212.13C6387.89,-206.26 6584.85,-192.13 6750,-165 6752.73,-164.55 6755.51,-164.05 6758.32,-163.52"/>
<polygon fill="midnightblue" stroke="midnightblue" points="6288.37,-208.64 6278.59,-212.72 6288.78,-215.63 6288.37,-208.64"/>
</g>
<!-- Node59 -->
<g id="node49" class="node">
<title>Node59</title>
<g id="a_node49"><a xlink:href="../../d1/d3a/abstracttest_8cpp.html" target="_top" xlink:title=" ">
<polygon fill="white" stroke="black" points="6883.5,-140 6883.5,-159 7044.5,-159 7044.5,-140 6883.5,-140"/>
<text text-anchor="middle" x="6964" y="-147" font-family="Helvetica,sans-Serif" font-size="10.00">src/libs/vtest/abstracttest.cpp</text>
</a>
</g>
</g>
<!-- Node1&#45;&gt;Node59 -->
<g id="edge58" class="edge">
<title>Node1&#45;&gt;Node59</title>
<path fill="none" stroke="midnightblue" d="M6288.84,-212.32C6405.51,-206.12 6660.92,-190.71 6875,-165 6888.37,-163.39 6902.8,-161.23 6916.07,-159.07"/>
<polygon fill="midnightblue" stroke="midnightblue" points="6288.46,-208.84 6278.65,-212.86 6288.83,-215.83 6288.46,-208.84"/>
</g>
<!-- Node60 -->
<g id="node50" class="node">
<title>Node60</title>
<g id="a_node50"><a xlink:href="../../da/db4/piece__tablewidgetitem_8cpp.html" target="_top" xlink:title=" ">
<polygon fill="white" stroke="black" points="7063,-134.5 7063,-164.5 7191,-164.5 7191,-134.5 7063,-134.5"/>
<text text-anchor="start" x="7071" y="-152.5" font-family="Helvetica,sans-Serif" font-size="10.00">src/libs/vwidgets/piece</text>
<text text-anchor="middle" x="7127" y="-141.5" font-family="Helvetica,sans-Serif" font-size="10.00">_tablewidgetitem.cpp</text>
</a>
</g>
</g>
<!-- Node1&#45;&gt;Node60 -->
<g id="edge59" class="edge">
<title>Node1&#45;&gt;Node60</title>
<path fill="none" stroke="midnightblue" d="M6288.65,-214.55C6427.96,-211.84 6770.09,-201.67 7054,-165 7056.95,-164.62 7059.95,-164.19 7062.99,-163.72"/>
<polygon fill="midnightblue" stroke="midnightblue" points="6288.51,-211.05 6278.58,-214.74 6288.64,-218.05 6288.51,-211.05"/>
</g>
<!-- Node2&#45;&gt;Node3 -->
<g id="edge2" class="edge">
<title>Node2&#45;&gt;Node3</title>
<path fill="none" stroke="midnightblue" d="M204.28,-135.44C177.94,-122.57 138.43,-103.26 115.73,-92.17"/>
<polygon fill="midnightblue" stroke="midnightblue" points="202.82,-138.62 213.34,-139.87 205.89,-132.33 202.82,-138.62"/>
</g>
<!-- Node5 -->
<g id="node5" class="node">
<title>Node5</title>
<g id="a_node5"><a xlink:href="../../dd/d66/vdxfengine_8cpp.html" target="_top" xlink:title=" ">
<polygon fill="white" stroke="black" points="1168,-73 1168,-92 1322,-92 1322,-73 1168,-73"/>
<text text-anchor="middle" x="1245" y="-80" font-family="Helvetica,sans-Serif" font-size="10.00">src/libs/vdxf/vdxfengine.cpp</text>
</a>
</g>
</g>
<!-- Node4&#45;&gt;Node5 -->
<g id="edge5" class="edge">
<title>Node4&#45;&gt;Node5</title>
<path fill="none" stroke="midnightblue" d="M921.04,-138.19C996.65,-125.43 1124.07,-103.92 1194.47,-92.03"/>
<polygon fill="midnightblue" stroke="midnightblue" points="920.01,-134.82 910.73,-139.94 921.17,-141.72 920.01,-134.82"/>
</g>
<!-- Node6 -->
<g id="node6" class="node">
<title>Node6</title>
<g id="a_node6"><a xlink:href="../../de/da8/vbank_8cpp.html" target="_top" xlink:title=" ">
<polygon fill="white" stroke="black" points="214,-73 214,-92 358,-92 358,-73 214,-73"/>
<text text-anchor="middle" x="286" y="-80" font-family="Helvetica,sans-Serif" font-size="10.00">src/libs/vlayout/vbank.cpp</text>
</a>
</g>
</g>
<!-- Node4&#45;&gt;Node6 -->
<g id="edge6" class="edge">
<title>Node4&#45;&gt;Node6</title>
<path fill="none" stroke="midnightblue" d="M766.9,-141.06C667.58,-132.63 505.8,-117.5 367,-98 354.98,-96.31 342.01,-94.14 330.04,-92"/>
<polygon fill="midnightblue" stroke="midnightblue" points="766.64,-144.55 776.9,-141.9 767.23,-137.58 766.64,-144.55"/>
</g>
<!-- Node7 -->
<g id="node7" class="node">
<title>Node7</title>
<g id="a_node7"><a xlink:href="../../df/d5d/vcontour_8cpp.html" target="_top" xlink:title=" ">
<polygon fill="white" stroke="black" points="376,-73 376,-92 532,-92 532,-73 376,-73"/>
<text text-anchor="middle" x="454" y="-80" font-family="Helvetica,sans-Serif" font-size="10.00">src/libs/vlayout/vcontour.cpp</text>
</a>
</g>
</g>
<!-- Node4&#45;&gt;Node7 -->
<g id="edge7" class="edge">
<title>Node4&#45;&gt;Node7</title>
<path fill="none" stroke="midnightblue" d="M796.6,-138.35C716.99,-125.6 581.83,-103.96 507.29,-92.03"/>
<polygon fill="midnightblue" stroke="midnightblue" points="796.08,-141.81 806.51,-139.94 797.18,-134.9 796.08,-141.81"/>
</g>
<!-- Node8 -->
<g id="node8" class="node">
<title>Node8</title>
<g id="a_node8"><a xlink:href="../../d2/d2d/vlayoutpaper__p_8h.html" target="_top" xlink:title=" ">
<polygon fill="white" stroke="black" points="588.5,-73 588.5,-92 767.5,-92 767.5,-73 588.5,-73"/>
<text text-anchor="middle" x="678" y="-80" font-family="Helvetica,sans-Serif" font-size="10.00">src/libs/vlayout/vlayoutpaper_p.h</text>
</a>
</g>
</g>
<!-- Node4&#45;&gt;Node8 -->
<g id="edge8" class="edge">
<title>Node4&#45;&gt;Node8</title>
<path fill="none" stroke="midnightblue" d="M826.22,-136.44C790.12,-123.54 733.79,-103.42 701.98,-92.06"/>
<polygon fill="midnightblue" stroke="midnightblue" points="825.24,-139.8 835.83,-139.87 827.59,-133.21 825.24,-139.8"/>
</g>
<!-- Node9 -->
<g id="node9" class="node">
<title>Node9</title>
<g id="a_node9"><a xlink:href="../../d1/dd1/vlayoutpaper_8cpp.html" target="_top" xlink:title=" ">
<polygon fill="white" stroke="black" points="589,-6 589,-25 767,-25 767,-6 589,-6"/>
<text text-anchor="middle" x="678" y="-13" font-family="Helvetica,sans-Serif" font-size="10.00">src/libs/vlayout/vlayoutpaper.cpp</text>
</a>
</g>
</g>
<!-- Node4&#45;&gt;Node9 -->
<g id="edge11" class="edge">
<title>Node4&#45;&gt;Node9</title>
<path fill="none" stroke="midnightblue" d="M766.86,-144.31C694.57,-138.87 602.76,-126.42 579,-98 552.94,-66.83 614.35,-38.68 651.76,-25.09"/>
<polygon fill="midnightblue" stroke="midnightblue" points="766.7,-147.8 776.93,-145.03 767.2,-140.82 766.7,-147.8"/>
</g>
<!-- Node10 -->
<g id="node10" class="node">
<title>Node10</title>
<g id="a_node10"><a xlink:href="../../d3/d39/vlayoutgenerator_8cpp.html" target="_top" xlink:title=" ">
<polygon fill="white" stroke="black" points="952.5,-73 952.5,-92 1149.5,-92 1149.5,-73 952.5,-73"/>
<text text-anchor="middle" x="1051" y="-80" font-family="Helvetica,sans-Serif" font-size="10.00">src/libs/vlayout/vlayoutgenerator.cpp</text>
</a>
</g>
</g>
<!-- Node4&#45;&gt;Node10 -->
<g id="edge10" class="edge">
<title>Node4&#45;&gt;Node10</title>
<path fill="none" stroke="midnightblue" d="M894.96,-136.6C932.83,-123.71 992.31,-103.47 1025.84,-92.06"/>
<polygon fill="midnightblue" stroke="midnightblue" points="893.7,-133.33 885.36,-139.87 895.96,-139.96 893.7,-133.33"/>
</g>
<!-- Node11 -->
<g id="node11" class="node">
<title>Node11</title>
<g id="a_node11"><a xlink:href="../../db/d5c/vposition_8h.html" target="_top" xlink:title=" ">
<polygon fill="white" stroke="red" points="786,-73 786,-92 934,-92 934,-73 786,-73"/>
<text text-anchor="middle" x="860" y="-80" font-family="Helvetica,sans-Serif" font-size="10.00">src/libs/vlayout/vposition.h</text>
</a>
</g>
</g>
<!-- Node4&#45;&gt;Node11 -->
<g id="edge12" class="edge">
<title>Node4&#45;&gt;Node11</title>
<path fill="none" stroke="midnightblue" d="M860,-129.54C860,-117.17 860,-101.62 860,-92.13"/>
<polygon fill="midnightblue" stroke="midnightblue" points="856.5,-129.73 860,-139.73 863.5,-129.73 856.5,-129.73"/>
</g>
<!-- Node13 -->
<g id="node12" class="node">
<title>Node13</title>
<g id="a_node12"><a xlink:href="../../dd/d70/vlayoutpiece_8cpp.html" target="_top" xlink:title=" ">
<polygon fill="white" stroke="black" points="1340.5,-73 1340.5,-92 1517.5,-92 1517.5,-73 1340.5,-73"/>
<text text-anchor="middle" x="1429" y="-80" font-family="Helvetica,sans-Serif" font-size="10.00">src/libs/vlayout/vlayoutpiece.cpp</text>
</a>
</g>
</g>
<!-- Node4&#45;&gt;Node13 -->
<g id="edge14" class="edge">
<title>Node4&#45;&gt;Node13</title>
<path fill="none" stroke="midnightblue" d="M953.24,-139.62C1048.35,-130.29 1200.14,-114.69 1331,-98 1344.99,-96.22 1360.07,-94.09 1374.11,-92.02"/>
<polygon fill="midnightblue" stroke="midnightblue" points="952.68,-136.15 943.07,-140.61 953.37,-143.12 952.68,-136.15"/>
</g>
<!-- Node8&#45;&gt;Node9 -->
<g id="edge9" class="edge">
<title>Node8&#45;&gt;Node9</title>
<path fill="none" stroke="midnightblue" d="M678,-62.54C678,-50.17 678,-34.62 678,-25.13"/>
<polygon fill="midnightblue" stroke="midnightblue" points="674.5,-62.73 678,-72.73 681.5,-62.73 674.5,-62.73"/>
</g>
<!-- Node11&#45;&gt;Node9 -->
<g id="edge13" class="edge">
<title>Node11&#45;&gt;Node9</title>
<path fill="none" stroke="midnightblue" d="M826.22,-69.44C790.12,-56.54 733.79,-36.42 701.98,-25.06"/>
<polygon fill="midnightblue" stroke="midnightblue" points="825.24,-72.8 835.83,-72.87 827.59,-66.21 825.24,-72.8"/>
</g>
<!-- Node14&#45;&gt;Node13 -->
<g id="edge26" class="edge">
<title>Node14&#45;&gt;Node13</title>
<path fill="none" stroke="midnightblue" d="M4254.42,-148.44C3804.49,-147.92 2071.7,-142.96 1527,-98 1510.97,-96.68 1493.58,-94.39 1477.96,-92.01"/>
<polygon fill="midnightblue" stroke="midnightblue" points="4254.49,-151.94 4264.49,-148.45 4254.5,-144.94 4254.49,-151.94"/>
</g>
<!-- Node15 -->
<g id="node14" class="node">
<title>Node15</title>
<g id="a_node14"><a xlink:href="../../d4/d90/fvupdater_8cpp.html" target="_top" xlink:title=" ">
<polygon fill="white" stroke="black" points="3797.5,-73 3797.5,-92 3950.5,-92 3950.5,-73 3797.5,-73"/>
<text text-anchor="middle" x="3874" y="-80" font-family="Helvetica,sans-Serif" font-size="10.00">src/libs/fervor/fvupdater.cpp</text>
</a>
</g>
</g>
<!-- Node14&#45;&gt;Node15 -->
<g id="edge16" class="edge">
<title>Node14&#45;&gt;Node15</title>
<path fill="none" stroke="midnightblue" d="M4275.49,-138.78C4193.78,-129.34 4067.87,-114.1 3959,-98 3946.86,-96.2 3933.77,-94.07 3921.59,-92"/>
<polygon fill="midnightblue" stroke="midnightblue" points="4275.39,-142.29 4285.73,-139.96 4276.2,-135.34 4275.39,-142.29"/>
</g>
<!-- Node16 -->
<g id="node15" class="node">
<title>Node16</title>
<g id="a_node15"><a xlink:href="../../d9/dc8/dxiface_8cpp.html" target="_top" xlink:title=" ">
<polygon fill="white" stroke="black" points="3968.5,-73 3968.5,-92 4103.5,-92 4103.5,-73 3968.5,-73"/>
<text text-anchor="middle" x="4036" y="-80" font-family="Helvetica,sans-Serif" font-size="10.00">src/libs/vdxf/dxiface.cpp</text>
</a>
</g>
</g>
<!-- Node14&#45;&gt;Node16 -->
<g id="edge17" class="edge">
<title>Node14&#45;&gt;Node16</title>
<path fill="none" stroke="midnightblue" d="M4309.13,-137.96C4244.97,-125.16 4138.03,-103.84 4078.79,-92.03"/>
<polygon fill="midnightblue" stroke="midnightblue" points="4308.55,-141.41 4319.05,-139.94 4309.92,-134.55 4308.55,-141.41"/>
</g>
<!-- Node17 -->
<g id="node16" class="node">
<title>Node17</title>
<g id="a_node16"><a xlink:href="../../da/d75/vabstractarc__p_8h.html" target="_top" xlink:title=" ">
<polygon fill="white" stroke="red" points="4121.5,-67.5 4121.5,-97.5 4228.5,-97.5 4228.5,-67.5 4121.5,-67.5"/>
<text text-anchor="start" x="4129.5" y="-85.5" font-family="Helvetica,sans-Serif" font-size="10.00">src/libs/vgeometry</text>
<text text-anchor="middle" x="4175" y="-74.5" font-family="Helvetica,sans-Serif" font-size="10.00">/vabstractarc_p.h</text>
</a>
</g>
</g>
<!-- Node14&#45;&gt;Node17 -->
<g id="edge18" class="edge">
<title>Node14&#45;&gt;Node17</title>
<path fill="none" stroke="midnightblue" d="M4327.45,-136.49C4295.75,-125.47 4248.77,-109.14 4215.36,-97.53"/>
<polygon fill="midnightblue" stroke="midnightblue" points="4326.57,-139.89 4337.17,-139.87 4328.87,-133.28 4326.57,-139.89"/>
</g>
<!-- Node19 -->
<g id="node17" class="node">
<title>Node19</title>
<g id="a_node17"><a xlink:href="../../dc/da3/varc__p_8h.html" target="_top" xlink:title=" ">
<polygon fill="white" stroke="red" points="4246.5,-67.5 4246.5,-97.5 4353.5,-97.5 4353.5,-67.5 4246.5,-67.5"/>
<text text-anchor="start" x="4254.5" y="-85.5" font-family="Helvetica,sans-Serif" font-size="10.00">src/libs/vgeometry</text>
<text text-anchor="middle" x="4300" y="-74.5" font-family="Helvetica,sans-Serif" font-size="10.00">/varc_p.h</text>
</a>
</g>
</g>
<!-- Node14&#45;&gt;Node19 -->
<g id="edge19" class="edge">
<title>Node14&#45;&gt;Node19</title>
<path fill="none" stroke="midnightblue" d="M4346.55,-132.3C4336.37,-121.63 4323.18,-107.8 4313.44,-97.59"/>
<polygon fill="midnightblue" stroke="midnightblue" points="4344.2,-134.91 4353.64,-139.73 4349.27,-130.08 4344.2,-134.91"/>
</g>
<!-- Node21 -->
<g id="node18" class="node">
<title>Node21</title>
<g id="a_node18"><a xlink:href="../../d5/d8e/vcubicbezier__p_8h.html" target="_top" xlink:title=" ">
<polygon fill="white" stroke="red" points="4371.5,-67.5 4371.5,-97.5 4478.5,-97.5 4478.5,-67.5 4371.5,-67.5"/>
<text text-anchor="start" x="4379.5" y="-85.5" font-family="Helvetica,sans-Serif" font-size="10.00">src/libs/vgeometry</text>
<text text-anchor="middle" x="4425" y="-74.5" font-family="Helvetica,sans-Serif" font-size="10.00">/vcubicbezier_p.h</text>
</a>
</g>
</g>
<!-- Node14&#45;&gt;Node21 -->
<g id="edge20" class="edge">
<title>Node14&#45;&gt;Node21</title>
<path fill="none" stroke="midnightblue" d="M4377.7,-132.3C4388.04,-121.63 4401.45,-107.8 4411.34,-97.59"/>
<polygon fill="midnightblue" stroke="midnightblue" points="4374.94,-130.12 4370.5,-139.73 4379.97,-134.99 4374.94,-130.12"/>
</g>
<!-- Node23 -->
<g id="node19" class="node">
<title>Node23</title>
<g id="a_node19"><a xlink:href="../../df/dde/vellipticalarc__p_8h.html" target="_top" xlink:title=" ">
<polygon fill="white" stroke="black" points="4535.5,-67.5 4535.5,-97.5 4642.5,-97.5 4642.5,-67.5 4535.5,-67.5"/>
<text text-anchor="start" x="4543.5" y="-85.5" font-family="Helvetica,sans-Serif" font-size="10.00">src/libs/vgeometry</text>
<text text-anchor="middle" x="4589" y="-74.5" font-family="Helvetica,sans-Serif" font-size="10.00">/vellipticalarc_p.h</text>
</a>
</g>
</g>
<!-- Node14&#45;&gt;Node23 -->
<g id="edge21" class="edge">
<title>Node14&#45;&gt;Node23</title>
<path fill="none" stroke="midnightblue" d="M4401.96,-137.06C4440.45,-126.04 4498.74,-109.34 4540.01,-97.53"/>
<polygon fill="midnightblue" stroke="midnightblue" points="4400.79,-133.75 4392.14,-139.87 4402.72,-140.48 4400.79,-133.75"/>
</g>
<!-- Node24 -->
<g id="node20" class="node">
<title>Node24</title>
<g id="a_node20"><a xlink:href="../../d6/dfb/vellipticalarc_8cpp.html" target="_top" xlink:title=" ">
<polygon fill="white" stroke="black" points="4494.5,-0.5 4494.5,-30.5 4601.5,-30.5 4601.5,-0.5 4494.5,-0.5"/>
<text text-anchor="start" x="4502.5" y="-18.5" font-family="Helvetica,sans-Serif" font-size="10.00">src/libs/vgeometry</text>
<text text-anchor="middle" x="4548" y="-7.5" font-family="Helvetica,sans-Serif" font-size="10.00">/vellipticalarc.cpp</text>
</a>
</g>
</g>
<!-- Node14&#45;&gt;Node24 -->
<g id="edge23" class="edge">
<title>Node14&#45;&gt;Node24</title>
<path fill="none" stroke="midnightblue" d="M4406.69,-136.96C4432.01,-128.9 4463.26,-116.28 4487,-98 4511.23,-79.35 4530.57,-48.69 4540.56,-30.76"/>
<polygon fill="midnightblue" stroke="midnightblue" points="4405.5,-133.66 4396.96,-139.93 4407.54,-140.36 4405.5,-133.66"/>
</g>
<!-- Node25 -->
<g id="node21" class="node">
<title>Node25</title>
<g id="a_node21"><a xlink:href="../../d1/d76/vspline__p_8h.html" target="_top" xlink:title=" ">
<polygon fill="white" stroke="red" points="4660.5,-67.5 4660.5,-97.5 4767.5,-97.5 4767.5,-67.5 4660.5,-67.5"/>
<text text-anchor="start" x="4668.5" y="-85.5" font-family="Helvetica,sans-Serif" font-size="10.00">src/libs/vgeometry</text>
<text text-anchor="middle" x="4714" y="-74.5" font-family="Helvetica,sans-Serif" font-size="10.00">/vspline_p.h</text>
</a>
</g>
</g>
<!-- Node14&#45;&gt;Node25 -->
<g id="edge24" class="edge">
<title>Node14&#45;&gt;Node25</title>
<path fill="none" stroke="midnightblue" d="M4425.92,-138.33C4484.6,-128.76 4573.88,-113.6 4651,-98 4654.08,-97.38 4657.24,-96.72 4660.43,-96.03"/>
<polygon fill="midnightblue" stroke="midnightblue" points="4425,-134.94 4415.69,-140 4426.12,-141.85 4425,-134.94"/>
</g>
<!-- Node27 -->
<g id="node22" class="node">
<title>Node27</title>
<g id="a_node22"><a xlink:href="../../d9/d15/vabstractpiece_8cpp.html" target="_top" xlink:title=" ">
<polygon fill="white" stroke="black" points="4786,-73 4786,-92 4972,-92 4972,-73 4786,-73"/>
<text text-anchor="middle" x="4879" y="-80" font-family="Helvetica,sans-Serif" font-size="10.00">src/libs/vlayout/vabstractpiece.cpp</text>
</a>
</g>
</g>
<!-- Node14&#45;&gt;Node27 -->
<g id="edge25" class="edge">
<title>Node14&#45;&gt;Node27</title>
<path fill="none" stroke="midnightblue" d="M4445.29,-138.8C4528.94,-128.95 4661.48,-113.04 4776,-98 4790.23,-96.13 4805.56,-94.02 4819.93,-92.01"/>
<polygon fill="midnightblue" stroke="midnightblue" points="4444.86,-135.32 4435.34,-139.97 4445.68,-142.28 4444.86,-135.32"/>
</g>
<!-- Node28 -->
<g id="node23" class="node">
<title>Node28</title>
<g id="a_node23"><a xlink:href="../../db/d65/dialogexporttocsv_8cpp.html" target="_top" xlink:title=" ">
<polygon fill="white" stroke="black" points="4990.5,-67.5 4990.5,-97.5 5117.5,-97.5 5117.5,-67.5 4990.5,-67.5"/>
<text text-anchor="start" x="4998.5" y="-85.5" font-family="Helvetica,sans-Serif" font-size="10.00">src/libs/vmisc/dialogs</text>
<text text-anchor="middle" x="5054" y="-74.5" font-family="Helvetica,sans-Serif" font-size="10.00">/dialogexporttocsv.cpp</text>
</a>
</g>
</g>
<!-- Node14&#45;&gt;Node28 -->
<g id="edge27" class="edge">
<title>Node14&#45;&gt;Node28</title>
<path fill="none" stroke="midnightblue" d="M4469.91,-143.45C4593.76,-136.79 4802.74,-122.89 4981,-98 4984.07,-97.57 4987.21,-97.1 4990.37,-96.58"/>
<polygon fill="midnightblue" stroke="midnightblue" points="4469.47,-139.97 4459.67,-144 4469.85,-146.96 4469.47,-139.97"/>
</g>
<!-- Node29 -->
<g id="node24" class="node">
<title>Node29</title>
<g id="a_node24"><a xlink:href="../../d6/d0b/def_8cpp.html" target="_top" xlink:title=" ">
<polygon fill="white" stroke="black" points="5136,-73 5136,-92 5258,-92 5258,-73 5136,-73"/>
<text text-anchor="middle" x="5197" y="-80" font-family="Helvetica,sans-Serif" font-size="10.00">src/libs/vmisc/def.cpp</text>
</a>
</g>
</g>
<!-- Node14&#45;&gt;Node29 -->
<g id="edge28" class="edge">
<title>Node14&#45;&gt;Node29</title>
<path fill="none" stroke="midnightblue" d="M4469.52,-145.98C4617.82,-141.46 4893.23,-129.32 5126,-98 5137.1,-96.51 5149.06,-94.3 5159.94,-92.06"/>
<polygon fill="midnightblue" stroke="midnightblue" points="4469.4,-142.48 4459.51,-146.28 4469.61,-149.48 4469.4,-142.48"/>
</g>
<!-- Node30 -->
<g id="node25" class="node">
<title>Node30</title>
<g id="a_node25"><a xlink:href="../../d0/df6/vabstractapplication_8cpp.html" target="_top" xlink:title=" ">
<polygon fill="white" stroke="black" points="5276,-73 5276,-92 5482,-92 5482,-73 5276,-73"/>
<text text-anchor="middle" x="5379" y="-80" font-family="Helvetica,sans-Serif" font-size="10.00">src/libs/vmisc/vabstractapplication.cpp</text>
</a>
</g>
</g>
<!-- Node14&#45;&gt;Node30 -->
<g id="edge29" class="edge">
<title>Node14&#45;&gt;Node30</title>
<path fill="none" stroke="midnightblue" d="M4469.79,-145.03C4639.6,-138.99 4979.66,-124.58 5267,-98 5284.08,-96.42 5302.57,-94.23 5319.51,-92.02"/>
<polygon fill="midnightblue" stroke="midnightblue" points="4469.47,-141.54 4459.6,-145.39 4469.72,-148.54 4469.47,-141.54"/>
</g>
<!-- Node14&#45;&gt;Node31 -->
<g id="edge30" class="edge">
<title>Node14&#45;&gt;Node31</title>
<path fill="none" stroke="midnightblue" d="M4254.09,-147.23C3790.66,-141.66 1981.14,-118.78 1727,-98 1710.74,-96.67 1693.1,-94.39 1677.22,-92.03"/>
<polygon fill="midnightblue" stroke="midnightblue" points="4254.09,-150.73 4264.13,-147.35 4254.17,-143.73 4254.09,-150.73"/>
</g>
<!-- Node32 -->
<g id="node27" class="node">
<title>Node32</title>
<g id="a_node27"><a xlink:href="../../d4/d4f/pmsystems_8cpp.html" target="_top" xlink:title=" ">
<polygon fill="white" stroke="black" points="5500.5,-67.5 5500.5,-97.5 5607.5,-97.5 5607.5,-67.5 5500.5,-67.5"/>
<text text-anchor="start" x="5508.5" y="-85.5" font-family="Helvetica,sans-Serif" font-size="10.00">src/libs/vpatterndb</text>
<text text-anchor="middle" x="5554" y="-74.5" font-family="Helvetica,sans-Serif" font-size="10.00">/pmsystems.cpp</text>
</a>
</g>
</g>
<!-- Node14&#45;&gt;Node32 -->
<g id="edge31" class="edge">
<title>Node14&#45;&gt;Node32</title>
<path fill="none" stroke="midnightblue" d="M4469.83,-146.17C4712.56,-140.53 5295.87,-124.59 5491,-98 5494,-97.59 5497.07,-97.11 5500.16,-96.57"/>
<polygon fill="midnightblue" stroke="midnightblue" points="4469.5,-142.68 4459.58,-146.41 4469.66,-149.68 4469.5,-142.68"/>
</g>
<!-- Node14&#45;&gt;Node33 -->
<g id="edge32" class="edge">
<title>Node14&#45;&gt;Node33</title>
<path fill="none" stroke="midnightblue" d="M4469.72,-147.97C4787.8,-145.99 5719.47,-136.91 6021,-98 6024.01,-97.61 6027.08,-97.14 6030.17,-96.62"/>
<polygon fill="midnightblue" stroke="midnightblue" points="4469.55,-144.48 4459.58,-148.04 4469.6,-151.47 4469.55,-144.48"/>
</g>
<!-- Node14&#45;&gt;Node34 -->
<g id="edge33" class="edge">
<title>Node14&#45;&gt;Node34</title>
<path fill="none" stroke="midnightblue" d="M4469.93,-148.24C4804.16,-147.01 5819.19,-139.82 6146,-98 6149.01,-97.62 6152.08,-97.15 6155.17,-96.63"/>
<polygon fill="midnightblue" stroke="midnightblue" points="4469.75,-144.74 4459.76,-148.28 4469.77,-151.74 4469.75,-144.74"/>
</g>
<!-- Node14&#45;&gt;Node35 -->
<g id="edge34" class="edge">
<title>Node14&#45;&gt;Node35</title>
<path fill="none" stroke="midnightblue" d="M4469.89,-148.48C4819.48,-147.97 5918.75,-142.74 6271,-98 6274.01,-97.62 6277.08,-97.16 6280.17,-96.63"/>
<polygon fill="midnightblue" stroke="midnightblue" points="4469.76,-144.98 4459.77,-148.49 4469.77,-151.98 4469.76,-144.98"/>
</g>
<!-- Node36 -->
<g id="node31" class="node">
<title>Node36</title>
<g id="a_node31"><a xlink:href="../../df/dba/vpiecenode__p_8h.html" target="_top" xlink:title=" ">
<polygon fill="white" stroke="black" points="5625.5,-67.5 5625.5,-97.5 5732.5,-97.5 5732.5,-67.5 5625.5,-67.5"/>
<text text-anchor="start" x="5633.5" y="-85.5" font-family="Helvetica,sans-Serif" font-size="10.00">src/libs/vpatterndb</text>
<text text-anchor="middle" x="5679" y="-74.5" font-family="Helvetica,sans-Serif" font-size="10.00">/vpiecenode_p.h</text>
</a>
</g>
</g>
<!-- Node14&#45;&gt;Node36 -->
<g id="edge35" class="edge">
<title>Node14&#45;&gt;Node36</title>
<path fill="none" stroke="midnightblue" d="M4469.79,-146.73C4731.66,-142.03 5395.97,-127.49 5616,-98 5619,-97.6 5622.07,-97.12 5625.16,-96.58"/>
<polygon fill="midnightblue" stroke="midnightblue" points="4469.45,-143.24 4459.51,-146.92 4469.57,-150.24 4469.45,-143.24"/>
</g>
<!-- Node38 -->
<g id="node33" class="node">
<title>Node38</title>
<g id="a_node33"><a xlink:href="../../de/d3e/vtranslatevars_8cpp.html" target="_top" xlink:title=" ">
<polygon fill="white" stroke="black" points="5751,-67.5 5751,-97.5 5861,-97.5 5861,-67.5 5751,-67.5"/>
<text text-anchor="start" x="5759" y="-85.5" font-family="Helvetica,sans-Serif" font-size="10.00">src/libs/vpatterndb</text>
<text text-anchor="middle" x="5806" y="-74.5" font-family="Helvetica,sans-Serif" font-size="10.00">/vtranslatevars.cpp</text>
</a>
</g>
</g>
<!-- Node14&#45;&gt;Node38 -->
<g id="edge37" class="edge">
<title>Node14&#45;&gt;Node38</title>
<path fill="none" stroke="midnightblue" d="M4469.93,-147.1C4750.12,-143.05 5495.88,-129.56 5741,-98 5744.21,-97.59 5747.5,-97.09 5750.8,-96.53"/>
<polygon fill="midnightblue" stroke="midnightblue" points="4469.71,-143.6 4459.76,-147.24 4469.81,-150.6 4469.71,-143.6"/>
</g>
<!-- Node39 -->
<g id="node34" class="node">
<title>Node39</title>
<g id="a_node34"><a xlink:href="../../df/d40/export__format__combobox_8cpp.html" target="_top" xlink:title=" ">
<polygon fill="white" stroke="black" points="5879.5,-67.5 5879.5,-97.5 6012.5,-97.5 6012.5,-67.5 5879.5,-67.5"/>
<text text-anchor="start" x="5887.5" y="-85.5" font-family="Helvetica,sans-Serif" font-size="10.00">src/libs/vwidgets/export</text>
<text text-anchor="middle" x="5946" y="-74.5" font-family="Helvetica,sans-Serif" font-size="10.00">_format_combobox.cpp</text>
</a>
</g>
</g>
<!-- Node14&#45;&gt;Node39 -->
<g id="edge38" class="edge">
<title>Node14&#45;&gt;Node39</title>
<path fill="none" stroke="midnightblue" d="M4470.07,-147.06C4768.27,-142.74 5598.48,-128.26 5870,-98 5873.07,-97.66 5876.2,-97.26 5879.36,-96.82"/>
<polygon fill="midnightblue" stroke="midnightblue" points="4469.64,-143.57 4459.69,-147.21 4469.74,-150.56 4469.64,-143.57"/>
</g>
<!-- Node40 -->
<g id="node35" class="node">
<title>Node40</title>
<g id="a_node35"><a xlink:href="../../d3/d4f/mouse__coordinates_8cpp.html" target="_top" xlink:title=" ">
<polygon fill="white" stroke="black" points="1736,-67.5 1736,-97.5 1870,-97.5 1870,-67.5 1736,-67.5"/>
<text text-anchor="start" x="1744" y="-85.5" font-family="Helvetica,sans-Serif" font-size="10.00">src/libs/vwidgets/mouse</text>
<text text-anchor="middle" x="1803" y="-74.5" font-family="Helvetica,sans-Serif" font-size="10.00">_coordinates.cpp</text>
</a>
</g>
</g>
<!-- Node14&#45;&gt;Node40 -->
<g id="edge39" class="edge">
<title>Node14&#45;&gt;Node40</title>
<path fill="none" stroke="midnightblue" d="M4254.1,-147.38C3807.61,-142.58 2116.86,-122.93 1879,-98 1876.06,-97.69 1873.07,-97.33 1870.05,-96.93"/>
<polygon fill="midnightblue" stroke="midnightblue" points="4254.38,-150.88 4264.41,-147.49 4254.45,-143.88 4254.38,-150.88"/>
</g>
<!-- Node41 -->
<g id="node36" class="node">
<title>Node41</title>
<g id="a_node36"><a xlink:href="../../d7/d1b/pen__toolbar_8cpp.html" target="_top" xlink:title=" ">
<polygon fill="white" stroke="black" points="1888.5,-67.5 1888.5,-97.5 2007.5,-97.5 2007.5,-67.5 1888.5,-67.5"/>
<text text-anchor="start" x="1896.5" y="-85.5" font-family="Helvetica,sans-Serif" font-size="10.00">src/libs/vwidgets/pen</text>
<text text-anchor="middle" x="1948" y="-74.5" font-family="Helvetica,sans-Serif" font-size="10.00">_toolbar.cpp</text>
</a>
</g>
</g>
<!-- Node14&#45;&gt;Node41 -->
<g id="edge40" class="edge">
<title>Node14&#45;&gt;Node41</title>
<path fill="none" stroke="midnightblue" d="M4254.04,-147.35C3823.32,-142.62 2240.35,-123.65 2017,-98 2013.96,-97.65 2010.86,-97.23 2007.73,-96.76"/>
<polygon fill="midnightblue" stroke="midnightblue" points="4254.26,-150.86 4264.3,-147.47 4254.34,-143.86 4254.26,-150.86"/>
</g>
<!-- Node42 -->
<g id="node37" class="node">
<title>Node42</title>
<g id="a_node37"><a xlink:href="../../d8/d76/scene__rect_8cpp.html" target="_top" xlink:title=" ">
<polygon fill="white" stroke="black" points="2026,-67.5 2026,-97.5 2156,-97.5 2156,-67.5 2026,-67.5"/>
<text text-anchor="start" x="2034" y="-85.5" font-family="Helvetica,sans-Serif" font-size="10.00">src/libs/vwidgets/scene</text>
<text text-anchor="middle" x="2091" y="-74.5" font-family="Helvetica,sans-Serif" font-size="10.00">_rect.cpp</text>
</a>
</g>
</g>
<!-- Node14&#45;&gt;Node42 -->
<g id="edge41" class="edge">
<title>Node14&#45;&gt;Node42</title>
<path fill="none" stroke="midnightblue" d="M4253.99,-148.46C3870.71,-147.92 2576.81,-142.75 2165,-98 2162.14,-97.69 2159.22,-97.32 2156.28,-96.92"/>
<polygon fill="midnightblue" stroke="midnightblue" points="4254.24,-151.96 4264.25,-148.47 4254.25,-144.96 4254.24,-151.96"/>
</g>
<!-- Node43 -->
<g id="node38" class="node">
<title>Node43</title>
<g id="a_node38"><a xlink:href="../../dd/df6/vabstractmainwindow_8cpp.html" target="_top" xlink:title=" ">
<polygon fill="white" stroke="black" points="2174.5,-73 2174.5,-92 2403.5,-92 2403.5,-73 2174.5,-73"/>
<text text-anchor="middle" x="2289" y="-80" font-family="Helvetica,sans-Serif" font-size="10.00">src/libs/vwidgets/vabstractmainwindow.cpp</text>
</a>
</g>
</g>
<!-- Node14&#45;&gt;Node43 -->
<g id="edge42" class="edge">
<title>Node14&#45;&gt;Node43</title>
<path fill="none" stroke="midnightblue" d="M4254.19,-149.16C3959.02,-150.23 3113.04,-148.29 2412,-98 2392.38,-96.59 2371.07,-94.34 2351.78,-92.02"/>
<polygon fill="midnightblue" stroke="midnightblue" points="4254.47,-152.66 4264.45,-149.12 4254.44,-145.66 4254.47,-152.66"/>
</g>
<!-- Node44 -->
<g id="node39" class="node">
<title>Node44</title>
<g id="a_node39"><a xlink:href="../../de/d45/vcontrolpointspline_8cpp.html" target="_top" xlink:title=" ">
<polygon fill="white" stroke="black" points="2421.5,-73 2421.5,-92 2636.5,-92 2636.5,-73 2421.5,-73"/>
<text text-anchor="middle" x="2529" y="-80" font-family="Helvetica,sans-Serif" font-size="10.00">src/libs/vwidgets/vcontrolpointspline.cpp</text>
</a>
</g>
</g>
<!-- Node14&#45;&gt;Node44 -->
<g id="edge43" class="edge">
<title>Node14&#45;&gt;Node44</title>
<path fill="none" stroke="midnightblue" d="M4253.9,-148.84C3982.86,-148.92 3252.61,-144.41 2646,-98 2627.43,-96.58 2607.28,-94.34 2589.01,-92.04"/>
<polygon fill="midnightblue" stroke="midnightblue" points="4254.13,-152.34 4264.12,-148.83 4254.12,-145.34 4254.13,-152.34"/>
</g>
<!-- Node45 -->
<g id="node40" class="node">
<title>Node45</title>
<g id="a_node40"><a xlink:href="../../de/dec/vgraphicssimpletextitem_8cpp.html" target="_top" xlink:title=" ">
<polygon fill="white" stroke="black" points="2655,-73 2655,-92 2899,-92 2899,-73 2655,-73"/>
<text text-anchor="middle" x="2777" y="-80" font-family="Helvetica,sans-Serif" font-size="10.00">src/libs/vwidgets/vgraphicssimpletextitem.cpp</text>
</a>
</g>
</g>
<!-- Node14&#45;&gt;Node45 -->
<g id="edge44" class="edge">
<title>Node14&#45;&gt;Node45</title>
<path fill="none" stroke="midnightblue" d="M4254.27,-147.54C4012.92,-144.78 3410.6,-134.49 2908,-98 2887.46,-96.51 2865.17,-94.27 2844.9,-92"/>
<polygon fill="midnightblue" stroke="midnightblue" points="4254.4,-151.04 4264.44,-147.65 4254.48,-144.04 4254.4,-151.04"/>
</g>
<!-- Node46 -->
<g id="node41" class="node">
<title>Node46</title>
<g id="a_node41"><a xlink:href="../../d1/d88/vmaingraphicsscene_8cpp.html" target="_top" xlink:title=" ">
<polygon fill="white" stroke="black" points="2917,-73 2917,-92 3139,-92 3139,-73 2917,-73"/>
<text text-anchor="middle" x="3028" y="-80" font-family="Helvetica,sans-Serif" font-size="10.00">src/libs/vwidgets/vmaingraphicsscene.cpp</text>
</a>
</g>
</g>
<!-- Node14&#45;&gt;Node46 -->
<g id="edge45" class="edge">
<title>Node14&#45;&gt;Node46</title>
<path fill="none" stroke="midnightblue" d="M4254.07,-146.86C4041.88,-143 3555.53,-131.05 3148,-98 3129.38,-96.49 3109.21,-94.28 3090.81,-92.03"/>
<polygon fill="midnightblue" stroke="midnightblue" points="4254.22,-150.36 4264.28,-147.04 4254.34,-143.36 4254.22,-150.36"/>
</g>
<!-- Node47 -->
<g id="node42" class="node">
<title>Node47</title>
<g id="a_node42"><a xlink:href="../../d2/d31/vmaingraphicsview_8cpp.html" target="_top" xlink:title=" ">
<polygon fill="white" stroke="black" points="3157,-73 3157,-92 3373,-92 3373,-73 3157,-73"/>
<text text-anchor="middle" x="3265" y="-80" font-family="Helvetica,sans-Serif" font-size="10.00">src/libs/vwidgets/vmaingraphicsview.cpp</text>
</a>
</g>
</g>
<!-- Node14&#45;&gt;Node47 -->
<g id="edge46" class="edge">
<title>Node14&#45;&gt;Node47</title>
<path fill="none" stroke="midnightblue" d="M4254.44,-145.48C4073.88,-139.86 3698.47,-125.73 3382,-98 3364.06,-96.43 3344.62,-94.22 3326.85,-92.01"/>
<polygon fill="midnightblue" stroke="midnightblue" points="4254.37,-148.98 4264.47,-145.79 4254.58,-141.99 4254.37,-148.98"/>
</g>
<!-- Node48 -->
<g id="node43" class="node">
<title>Node48</title>
<g id="a_node43"><a xlink:href="../../d0/d5d/vscenepoint_8cpp.html" target="_top" xlink:title=" ">
<polygon fill="white" stroke="black" points="3391.5,-73 3391.5,-92 3572.5,-92 3572.5,-73 3391.5,-73"/>
<text text-anchor="middle" x="3482" y="-80" font-family="Helvetica,sans-Serif" font-size="10.00">src/libs/vwidgets/vscenepoint.cpp</text>
</a>
</g>
</g>
<!-- Node14&#45;&gt;Node48 -->
<g id="edge47" class="edge">
<title>Node14&#45;&gt;Node48</title>
<path fill="none" stroke="midnightblue" d="M4254.02,-144.22C4103.27,-137.63 3821.29,-123.05 3582,-98 3566.82,-96.41 3550.41,-94.23 3535.36,-92.04"/>
<polygon fill="midnightblue" stroke="midnightblue" points="4254.06,-147.73 4264.2,-144.66 4254.36,-140.73 4254.06,-147.73"/>
</g>
<!-- Node49 -->
<g id="node44" class="node">
<title>Node49</title>
<g id="a_node44"><a xlink:href="../../de/d22/vsimplecurve_8cpp.html" target="_top" xlink:title=" ">
<polygon fill="white" stroke="black" points="3591,-73 3591,-92 3779,-92 3779,-73 3591,-73"/>
<text text-anchor="middle" x="3685" y="-80" font-family="Helvetica,sans-Serif" font-size="10.00">src/libs/vwidgets/vsimplecurve.cpp</text>
</a>
</g>
</g>
<!-- Node14&#45;&gt;Node49 -->
<g id="edge48" class="edge">
<title>Node14&#45;&gt;Node49</title>
<path fill="none" stroke="midnightblue" d="M4254.09,-140.69C4138.59,-131.94 3950.08,-116.53 3788,-98 3772.93,-96.28 3756.66,-94.12 3741.6,-92.01"/>
<polygon fill="midnightblue" stroke="midnightblue" points="4254.11,-144.2 4264.34,-141.47 4254.64,-137.22 4254.11,-144.2"/>
</g>
<!-- Node23&#45;&gt;Node24 -->
<g id="edge22" class="edge">
<title>Node23&#45;&gt;Node24</title>
<path fill="none" stroke="midnightblue" d="M4574.72,-58.87C4568.79,-49.46 4562.09,-38.83 4556.88,-30.58"/>
<polygon fill="midnightblue" stroke="midnightblue" points="4571.81,-60.81 4580.1,-67.4 4577.73,-57.07 4571.81,-60.81"/>
</g>
<!-- Node36&#45;&gt;Node37 -->
<g id="edge36" class="edge">
<title>Node36&#45;&gt;Node37</title>
<path fill="none" stroke="midnightblue" d="M5742.54,-66.97C5836.64,-48.58 5934.4,-33.21 5993.37,-24.35"/>
<polygon fill="midnightblue" stroke="midnightblue" points="5741.7,-63.57 5732.57,-68.93 5743.06,-70.43 5741.7,-63.57"/>
</g>
</g>
</svg>
