<?xml version="1.0" encoding="UTF-8" standalone="no"?>
<!DOCTYPE svg PUBLIC "-//W3C//DTD SVG 1.1//EN"
 "http://www.w3.org/Graphics/SVG/1.1/DTD/svg11.dtd">
<!-- Generated by graphviz version 2.43.0 (0)
 -->
<!-- Title: src/libs/vpatterndb/vcontainer.h Pages: 1 -->
<svg width="7119pt" height="251pt"
 viewBox="0.00 0.00 7119.00 251.00" xmlns="http://www.w3.org/2000/svg" xmlns:xlink="http://www.w3.org/1999/xlink">
<g id="graph0" class="graph" transform="scale(1 1) rotate(0) translate(4 247)">
<title>src/libs/vpatterndb/vcontainer.h</title>
<polygon fill="white" stroke="transparent" points="-4,4 -4,-247 7115,-247 7115,4 -4,4"/>
<!-- Node1 -->
<g id="node1" class="node">
<title>Node1</title>
<g id="a_node1"><a xlink:title=" ">
<polygon fill="#bfbfbf" stroke="black" points="6092.5,-212.5 6092.5,-242.5 6199.5,-242.5 6199.5,-212.5 6092.5,-212.5"/>
<text text-anchor="start" x="6100.5" y="-230.5" font-family="Helvetica,sans-Serif" font-size="10.00">src/libs/vpatterndb</text>
<text text-anchor="middle" x="6146" y="-219.5" font-family="Helvetica,sans-Serif" font-size="10.00">/vcontainer.h</text>
</a>
</g>
</g>
<!-- Node2 -->
<g id="node2" class="node">
<title>Node2</title>
<g id="a_node2"><a xlink:href="../../dc/db7/measurements_8h.html" target="_top" xlink:title=" ">
<polygon fill="white" stroke="black" points="138.5,-145.5 138.5,-164.5 317.5,-164.5 317.5,-145.5 138.5,-145.5"/>
<text text-anchor="middle" x="228" y="-152.5" font-family="Helvetica,sans-Serif" font-size="10.00">src/libs/vformat/measurements.h</text>
</a>
</g>
</g>
<!-- Node1&#45;&gt;Node2 -->
<g id="edge1" class="edge">
<title>Node1&#45;&gt;Node2</title>
<path fill="none" stroke="midnightblue" d="M6081.93,-226.32C5541.79,-224.7 1741.01,-212.19 597,-176 501.61,-172.98 392.49,-166.72 317.8,-162"/>
<polygon fill="midnightblue" stroke="midnightblue" points="6082.23,-229.82 6092.24,-226.35 6082.26,-222.82 6082.23,-229.82"/>
</g>
<!-- Node3 -->
<g id="node3" class="node">
<title>Node3</title>
<g id="a_node3"><a xlink:href="../../d9/de3/measurements_8cpp.html" target="_top" xlink:title=" ">
<polygon fill="white" stroke="black" points="0,-73 0,-92 190,-92 190,-73 0,-73"/>
<text text-anchor="middle" x="95" y="-80" font-family="Helvetica,sans-Serif" font-size="10.00">src/libs/vformat/measurements.cpp</text>
</a>
</g>
</g>
<!-- Node1&#45;&gt;Node3 -->
<g id="edge3" class="edge">
<title>Node1&#45;&gt;Node3</title>
<path fill="none" stroke="midnightblue" d="M6082.01,-226.4C5512.3,-225.43 1317.93,-216.95 762,-176 527.36,-158.72 249.43,-111.44 141.28,-92.01"/>
<polygon fill="midnightblue" stroke="midnightblue" points="6082.08,-229.9 6092.09,-226.42 6082.1,-222.9 6082.08,-229.9"/>
</g>
<!-- Node4 -->
<g id="node4" class="node">
<title>Node4</title>
<g id="a_node4"><a xlink:href="../../d6/de0/vlayoutpiece_8h.html" target="_top" xlink:title=" ">
<polygon fill="white" stroke="black" points="771,-145.5 771,-164.5 937,-164.5 937,-145.5 771,-145.5"/>
<text text-anchor="middle" x="854" y="-152.5" font-family="Helvetica,sans-Serif" font-size="10.00">src/libs/vlayout/vlayoutpiece.h</text>
</a>
</g>
</g>
<!-- Node1&#45;&gt;Node4 -->
<g id="edge4" class="edge">
<title>Node1&#45;&gt;Node4</title>
<path fill="none" stroke="midnightblue" d="M6082.17,-225.65C5529.71,-218.29 1562.87,-165.44 937.04,-157.11"/>
<polygon fill="midnightblue" stroke="midnightblue" points="6082.29,-229.15 6092.33,-225.79 6082.38,-222.15 6082.29,-229.15"/>
</g>
<!-- Node14 -->
<g id="node13" class="node">
<title>Node14</title>
<g id="a_node13"><a xlink:href="../../d8/d70/vtextmanager_8cpp.html" target="_top" xlink:title=" ">
<polygon fill="white" stroke="black" points="1530,-73 1530,-92 1712,-92 1712,-73 1530,-73"/>
<text text-anchor="middle" x="1621" y="-80" font-family="Helvetica,sans-Serif" font-size="10.00">src/libs/vlayout/vtextmanager.cpp</text>
</a>
</g>
</g>
<!-- Node1&#45;&gt;Node14 -->
<g id="edge15" class="edge">
<title>Node1&#45;&gt;Node14</title>
<path fill="none" stroke="midnightblue" d="M6082.14,-225.01C5836.07,-219.22 4925.72,-197.52 4176,-176 3084.79,-144.68 2808.45,-193.81 1721,-98 1705.01,-96.59 1687.68,-94.34 1672,-92.02"/>
<polygon fill="midnightblue" stroke="midnightblue" points="6082.25,-228.51 6092.33,-225.24 6082.41,-221.51 6082.25,-228.51"/>
</g>
<!-- Node15 -->
<g id="node14" class="node">
<title>Node15</title>
<g id="a_node14"><a xlink:href="../../d5/d74/vabstractapplication_8h.html" target="_top" xlink:title=" ">
<polygon fill="white" stroke="red" points="4185.5,-145.5 4185.5,-164.5 4380.5,-164.5 4380.5,-145.5 4185.5,-145.5"/>
<text text-anchor="middle" x="4283" y="-152.5" font-family="Helvetica,sans-Serif" font-size="10.00">src/libs/vmisc/vabstractapplication.h</text>
</a>
</g>
</g>
<!-- Node1&#45;&gt;Node15 -->
<g id="edge16" class="edge">
<title>Node1&#45;&gt;Node15</title>
<path fill="none" stroke="midnightblue" d="M6082.01,-224.08C5805.82,-213.63 4714.88,-172.34 4380.77,-159.7"/>
<polygon fill="midnightblue" stroke="midnightblue" points="6082.13,-227.59 6092.25,-224.47 6082.39,-220.59 6082.13,-227.59"/>
</g>
<!-- Node33 -->
<g id="node28" class="node">
<title>Node33</title>
<g id="a_node28"><a xlink:href="../../db/d11/vformula_8cpp.html" target="_top" xlink:title=" ">
<polygon fill="white" stroke="black" points="5951.5,-67.5 5951.5,-97.5 6058.5,-97.5 6058.5,-67.5 5951.5,-67.5"/>
<text text-anchor="start" x="5959.5" y="-85.5" font-family="Helvetica,sans-Serif" font-size="10.00">src/libs/vpatterndb</text>
<text text-anchor="middle" x="6005" y="-74.5" font-family="Helvetica,sans-Serif" font-size="10.00">/vformula.cpp</text>
</a>
</g>
</g>
<!-- Node1&#45;&gt;Node33 -->
<g id="edge52" class="edge">
<title>Node1&#45;&gt;Node33</title>
<path fill="none" stroke="midnightblue" d="M6124.7,-204.9C6095.48,-175.26 6043.75,-122.8 6018.98,-97.68"/>
<polygon fill="midnightblue" stroke="midnightblue" points="6122.45,-207.6 6131.96,-212.27 6127.44,-202.69 6122.45,-207.6"/>
</g>
<!-- Node34 -->
<g id="node29" class="node">
<title>Node34</title>
<g id="a_node29"><a xlink:href="../../d6/d46/vcontainer_8cpp.html" target="_top" xlink:title=" ">
<polygon fill="white" stroke="black" points="6076.5,-67.5 6076.5,-97.5 6183.5,-97.5 6183.5,-67.5 6076.5,-67.5"/>
<text text-anchor="start" x="6084.5" y="-85.5" font-family="Helvetica,sans-Serif" font-size="10.00">src/libs/vpatterndb</text>
<text text-anchor="middle" x="6130" y="-74.5" font-family="Helvetica,sans-Serif" font-size="10.00">/vcontainer.cpp</text>
</a>
</g>
</g>
<!-- Node1&#45;&gt;Node34 -->
<g id="edge53" class="edge">
<title>Node1&#45;&gt;Node34</title>
<path fill="none" stroke="midnightblue" d="M6138,-202.37C6135.61,-194.1 6133.28,-184.73 6132,-176 6127.96,-148.51 6128.46,-115.93 6129.22,-97.7"/>
<polygon fill="midnightblue" stroke="midnightblue" points="6134.71,-203.58 6140.98,-212.12 6141.4,-201.53 6134.71,-203.58"/>
</g>
<!-- Node35 -->
<g id="node30" class="node">
<title>Node35</title>
<g id="a_node30"><a xlink:href="../../df/d7a/vpiece_8cpp.html" target="_top" xlink:title=" ">
<polygon fill="white" stroke="black" points="6201.5,-67.5 6201.5,-97.5 6308.5,-97.5 6308.5,-67.5 6201.5,-67.5"/>
<text text-anchor="start" x="6209.5" y="-85.5" font-family="Helvetica,sans-Serif" font-size="10.00">src/libs/vpatterndb</text>
<text text-anchor="middle" x="6255" y="-74.5" font-family="Helvetica,sans-Serif" font-size="10.00">/vpiece.cpp</text>
</a>
</g>
</g>
<!-- Node1&#45;&gt;Node35 -->
<g id="edge55" class="edge">
<title>Node1&#45;&gt;Node35</title>
<path fill="none" stroke="midnightblue" d="M6147.28,-202.03C6149.43,-181.99 6155.12,-153.81 6170,-134 6182.17,-117.81 6201.18,-105.81 6218.14,-97.59"/>
<polygon fill="midnightblue" stroke="midnightblue" points="6143.77,-201.96 6146.41,-212.22 6150.74,-202.55 6143.77,-201.96"/>
</g>
<!-- Node37 -->
<g id="node32" class="node">
<title>Node37</title>
<g id="a_node32"><a xlink:href="../../d8/dba/vpiecenode_8cpp.html" target="_top" xlink:title=" ">
<polygon fill="white" stroke="black" points="5914.5,-0.5 5914.5,-30.5 6021.5,-30.5 6021.5,-0.5 5914.5,-0.5"/>
<text text-anchor="start" x="5922.5" y="-18.5" font-family="Helvetica,sans-Serif" font-size="10.00">src/libs/vpatterndb</text>
<text text-anchor="middle" x="5968" y="-7.5" font-family="Helvetica,sans-Serif" font-size="10.00">/vpiecenode.cpp</text>
</a>
</g>
</g>
<!-- Node1&#45;&gt;Node37 -->
<g id="edge56" class="edge">
<title>Node1&#45;&gt;Node37</title>
<path fill="none" stroke="midnightblue" d="M6157.81,-203.4C6170.57,-179.26 6190.71,-143.56 6203,-134 6245.28,-101.12 6286.29,-141.16 6318,-98 6326.16,-86.9 6327.02,-77.41 6318,-67 6280.32,-23.49 6110.08,-16.63 6021.67,-16.07"/>
<polygon fill="midnightblue" stroke="midnightblue" points="6154.68,-201.84 6153.16,-212.32 6160.89,-205.08 6154.68,-201.84"/>
</g>
<!-- Node54 -->
<g id="node45" class="node">
<title>Node54</title>
<g id="a_node45"><a xlink:href="../../d3/d02/custom__variable__p_8h.html" target="_top" xlink:title=" ">
<polygon fill="white" stroke="red" points="6211.5,-140 6211.5,-170 6380.5,-170 6380.5,-140 6211.5,-140"/>
<text text-anchor="start" x="6219.5" y="-158" font-family="Helvetica,sans-Serif" font-size="10.00">src/libs/vpatterndb</text>
<text text-anchor="middle" x="6296" y="-147" font-family="Helvetica,sans-Serif" font-size="10.00">/variables/custom_variable_p.h</text>
</a>
</g>
</g>
<!-- Node1&#45;&gt;Node54 -->
<g id="edge50" class="edge">
<title>Node1&#45;&gt;Node54</title>
<path fill="none" stroke="midnightblue" d="M6185.3,-208.03C6210.56,-196.16 6242.87,-180.97 6266.06,-170.07"/>
<polygon fill="midnightblue" stroke="midnightblue" points="6183.56,-204.98 6175.99,-212.4 6186.53,-211.32 6183.56,-204.98"/>
</g>
<!-- Node56 -->
<g id="node46" class="node">
<title>Node56</title>
<g id="a_node46"><a xlink:href="../../d7/d8a/measurement__variable__p_8h.html" target="_top" xlink:title=" ">
<polygon fill="white" stroke="red" points="6399,-134.5 6399,-175.5 6535,-175.5 6535,-134.5 6399,-134.5"/>
<text text-anchor="start" x="6407" y="-163.5" font-family="Helvetica,sans-Serif" font-size="10.00">src/libs/vpatterndb</text>
<text text-anchor="start" x="6407" y="-152.5" font-family="Helvetica,sans-Serif" font-size="10.00">/variables/measurement</text>
<text text-anchor="middle" x="6467" y="-141.5" font-family="Helvetica,sans-Serif" font-size="10.00">_variable_p.h</text>
</a>
</g>
</g>
<!-- Node1&#45;&gt;Node56 -->
<g id="edge51" class="edge">
<title>Node1&#45;&gt;Node56</title>
<path fill="none" stroke="midnightblue" d="M6209.85,-214.19C6259.19,-204.46 6329.11,-190.2 6390,-176 6392.82,-175.34 6395.7,-174.66 6398.61,-173.95"/>
<polygon fill="midnightblue" stroke="midnightblue" points="6209.1,-210.77 6199.96,-216.14 6210.45,-217.64 6209.1,-210.77"/>
</g>
<!-- Node58 -->
<g id="node47" class="node">
<title>Node58</title>
<g id="a_node47"><a xlink:href="../../d6/d91/vnodedetail_8cpp.html" target="_top" xlink:title=" ">
<polygon fill="white" stroke="black" points="6553.5,-140 6553.5,-170 6660.5,-170 6660.5,-140 6553.5,-140"/>
<text text-anchor="start" x="6561.5" y="-158" font-family="Helvetica,sans-Serif" font-size="10.00">src/libs/vpatterndb</text>
<text text-anchor="middle" x="6607" y="-147" font-family="Helvetica,sans-Serif" font-size="10.00">/vnodedetail.cpp</text>
</a>
</g>
</g>
<!-- Node1&#45;&gt;Node58 -->
<g id="edge54" class="edge">
<title>Node1&#45;&gt;Node58</title>
<path fill="none" stroke="midnightblue" d="M6209.93,-221.98C6289.07,-215.56 6427.64,-201.63 6544,-176 6551.4,-174.37 6559.17,-172.25 6566.63,-170.01"/>
<polygon fill="midnightblue" stroke="midnightblue" points="6209.33,-218.51 6199.64,-222.8 6209.88,-225.49 6209.33,-218.51"/>
</g>
<!-- Node59 -->
<g id="node48" class="node">
<title>Node59</title>
<g id="a_node48"><a xlink:href="../../da/de1/vpiecepath_8cpp.html" target="_top" xlink:title=" ">
<polygon fill="white" stroke="black" points="6678.5,-140 6678.5,-170 6785.5,-170 6785.5,-140 6678.5,-140"/>
<text text-anchor="start" x="6686.5" y="-158" font-family="Helvetica,sans-Serif" font-size="10.00">src/libs/vpatterndb</text>
<text text-anchor="middle" x="6732" y="-147" font-family="Helvetica,sans-Serif" font-size="10.00">/vpiecepath.cpp</text>
</a>
</g>
</g>
<!-- Node1&#45;&gt;Node59 -->
<g id="edge57" class="edge">
<title>Node1&#45;&gt;Node59</title>
<path fill="none" stroke="midnightblue" d="M6209.93,-224.78C6309.3,-221.11 6506.42,-209.85 6670,-176 6677.42,-174.46 6685.2,-172.36 6692.65,-170.1"/>
<polygon fill="midnightblue" stroke="midnightblue" points="6209.62,-221.29 6199.75,-225.14 6209.87,-228.28 6209.62,-221.29"/>
</g>
<!-- Node60 -->
<g id="node49" class="node">
<title>Node60</title>
<g id="a_node49"><a xlink:href="../../d1/d3a/abstracttest_8cpp.html" target="_top" xlink:title=" ">
<polygon fill="white" stroke="black" points="6803.5,-145.5 6803.5,-164.5 6964.5,-164.5 6964.5,-145.5 6803.5,-145.5"/>
<text text-anchor="middle" x="6884" y="-152.5" font-family="Helvetica,sans-Serif" font-size="10.00">src/libs/vtest/abstracttest.cpp</text>
</a>
</g>
</g>
<!-- Node1&#45;&gt;Node60 -->
<g id="edge58" class="edge">
<title>Node1&#45;&gt;Node60</title>
<path fill="none" stroke="midnightblue" d="M6209.91,-224.57C6326.68,-220.36 6582.1,-208.03 6795,-176 6813.79,-173.17 6834.52,-168.6 6851.24,-164.54"/>
<polygon fill="midnightblue" stroke="midnightblue" points="6209.59,-221.07 6199.72,-224.92 6209.83,-228.07 6209.59,-221.07"/>
</g>
<!-- Node61 -->
<g id="node50" class="node">
<title>Node61</title>
<g id="a_node50"><a xlink:href="../../da/db4/piece__tablewidgetitem_8cpp.html" target="_top" xlink:title=" ">
<polygon fill="white" stroke="black" points="6983,-140 6983,-170 7111,-170 7111,-140 6983,-140"/>
<text text-anchor="start" x="6991" y="-158" font-family="Helvetica,sans-Serif" font-size="10.00">src/libs/vwidgets/piece</text>
<text text-anchor="middle" x="7047" y="-147" font-family="Helvetica,sans-Serif" font-size="10.00">_tablewidgetitem.cpp</text>
</a>
</g>
</g>
<!-- Node1&#45;&gt;Node61 -->
<g id="edge59" class="edge">
<title>Node1&#45;&gt;Node61</title>
<path fill="none" stroke="midnightblue" d="M6209.8,-227.07C6349.38,-227.35 6691.92,-222.73 6974,-176 6982.95,-174.52 6992.37,-172.38 7001.37,-170.05"/>
<polygon fill="midnightblue" stroke="midnightblue" points="6209.72,-223.57 6199.71,-227.04 6209.7,-230.57 6209.72,-223.57"/>
</g>
<!-- Node2&#45;&gt;Node3 -->
<g id="edge2" class="edge">
<title>Node2&#45;&gt;Node3</title>
<path fill="none" stroke="midnightblue" d="M203.12,-140.81C176.18,-126.53 134,-104.17 111.1,-92.03"/>
<polygon fill="midnightblue" stroke="midnightblue" points="201.48,-143.9 211.96,-145.5 204.76,-137.72 201.48,-143.9"/>
</g>
<!-- Node5 -->
<g id="node5" class="node">
<title>Node5</title>
<g id="a_node5"><a xlink:href="../../dd/d66/vdxfengine_8cpp.html" target="_top" xlink:title=" ">
<polygon fill="white" stroke="black" points="1162,-73 1162,-92 1316,-92 1316,-73 1162,-73"/>
<text text-anchor="middle" x="1239" y="-80" font-family="Helvetica,sans-Serif" font-size="10.00">src/libs/vdxf/vdxfengine.cpp</text>
</a>
</g>
</g>
<!-- Node4&#45;&gt;Node5 -->
<g id="edge5" class="edge">
<title>Node4&#45;&gt;Node5</title>
<path fill="none" stroke="midnightblue" d="M910.35,-143.68C986.67,-129.71 1121.48,-105.02 1192.4,-92.03"/>
<polygon fill="midnightblue" stroke="midnightblue" points="909.65,-140.25 900.44,-145.5 910.91,-147.14 909.65,-140.25"/>
</g>
<!-- Node6 -->
<g id="node6" class="node">
<title>Node6</title>
<g id="a_node6"><a xlink:href="../../de/da8/vbank_8cpp.html" target="_top" xlink:title=" ">
<polygon fill="white" stroke="black" points="208,-73 208,-92 352,-92 352,-73 208,-73"/>
<text text-anchor="middle" x="280" y="-80" font-family="Helvetica,sans-Serif" font-size="10.00">src/libs/vlayout/vbank.cpp</text>
</a>
</g>
</g>
<!-- Node4&#45;&gt;Node6 -->
<g id="edge6" class="edge">
<title>Node4&#45;&gt;Node6</title>
<path fill="none" stroke="midnightblue" d="M760.92,-145.22C661.62,-135.44 499.85,-118.29 361,-98 349.27,-96.29 336.63,-94.16 324.9,-92.07"/>
<polygon fill="midnightblue" stroke="midnightblue" points="760.63,-148.71 770.92,-146.2 761.31,-141.74 760.63,-148.71"/>
</g>
<!-- Node7 -->
<g id="node7" class="node">
<title>Node7</title>
<g id="a_node7"><a xlink:href="../../df/d5d/vcontour_8cpp.html" target="_top" xlink:title=" ">
<polygon fill="white" stroke="black" points="370,-73 370,-92 526,-92 526,-73 370,-73"/>
<text text-anchor="middle" x="448" y="-80" font-family="Helvetica,sans-Serif" font-size="10.00">src/libs/vlayout/vcontour.cpp</text>
</a>
</g>
</g>
<!-- Node4&#45;&gt;Node7 -->
<g id="edge7" class="edge">
<title>Node4&#45;&gt;Node7</title>
<path fill="none" stroke="midnightblue" d="M795.06,-143.77C714.67,-129.81 572.09,-105.05 497.15,-92.03"/>
<polygon fill="midnightblue" stroke="midnightblue" points="794.58,-147.23 805.03,-145.5 795.77,-140.34 794.58,-147.23"/>
</g>
<!-- Node8 -->
<g id="node8" class="node">
<title>Node8</title>
<g id="a_node8"><a xlink:href="../../d2/d2d/vlayoutpaper__p_8h.html" target="_top" xlink:title=" ">
<polygon fill="white" stroke="black" points="582.5,-73 582.5,-92 761.5,-92 761.5,-73 582.5,-73"/>
<text text-anchor="middle" x="672" y="-80" font-family="Helvetica,sans-Serif" font-size="10.00">src/libs/vlayout/vlayoutpaper_p.h</text>
</a>
</g>
</g>
<!-- Node4&#45;&gt;Node8 -->
<g id="edge8" class="edge">
<title>Node4&#45;&gt;Node8</title>
<path fill="none" stroke="midnightblue" d="M822.34,-141.74C785.62,-127.51 726.05,-104.44 694.03,-92.03"/>
<polygon fill="midnightblue" stroke="midnightblue" points="821.46,-145.15 832.05,-145.5 823.99,-138.62 821.46,-145.15"/>
</g>
<!-- Node9 -->
<g id="node9" class="node">
<title>Node9</title>
<g id="a_node9"><a xlink:href="../../d1/dd1/vlayoutpaper_8cpp.html" target="_top" xlink:title=" ">
<polygon fill="white" stroke="black" points="583,-6 583,-25 761,-25 761,-6 583,-6"/>
<text text-anchor="middle" x="672" y="-13" font-family="Helvetica,sans-Serif" font-size="10.00">src/libs/vlayout/vlayoutpaper.cpp</text>
</a>
</g>
</g>
<!-- Node4&#45;&gt;Node9 -->
<g id="edge11" class="edge">
<title>Node4&#45;&gt;Node9</title>
<path fill="none" stroke="midnightblue" d="M760.77,-147.91C688.42,-141.01 596.58,-126.74 573,-98 547.23,-66.59 608.52,-38.54 645.83,-25.03"/>
<polygon fill="midnightblue" stroke="midnightblue" points="760.56,-151.41 770.84,-148.84 761.2,-144.44 760.56,-151.41"/>
</g>
<!-- Node10 -->
<g id="node10" class="node">
<title>Node10</title>
<g id="a_node10"><a xlink:href="../../d3/d39/vlayoutgenerator_8cpp.html" target="_top" xlink:title=" ">
<polygon fill="white" stroke="black" points="946.5,-73 946.5,-92 1143.5,-92 1143.5,-73 946.5,-73"/>
<text text-anchor="middle" x="1045" y="-80" font-family="Helvetica,sans-Serif" font-size="10.00">src/libs/vlayout/vlayoutgenerator.cpp</text>
</a>
</g>
</g>
<!-- Node4&#45;&gt;Node10 -->
<g id="edge10" class="edge">
<title>Node4&#45;&gt;Node10</title>
<path fill="none" stroke="midnightblue" d="M886.73,-141.92C925.23,-127.71 988.13,-104.49 1021.88,-92.03"/>
<polygon fill="midnightblue" stroke="midnightblue" points="885.21,-138.75 877.04,-145.5 887.63,-145.32 885.21,-138.75"/>
</g>
<!-- Node11 -->
<g id="node11" class="node">
<title>Node11</title>
<g id="a_node11"><a xlink:href="../../db/d5c/vposition_8h.html" target="_top" xlink:title=" ">
<polygon fill="white" stroke="red" points="780,-73 780,-92 928,-92 928,-73 780,-73"/>
<text text-anchor="middle" x="854" y="-80" font-family="Helvetica,sans-Serif" font-size="10.00">src/libs/vlayout/vposition.h</text>
</a>
</g>
</g>
<!-- Node4&#45;&gt;Node11 -->
<g id="edge12" class="edge">
<title>Node4&#45;&gt;Node11</title>
<path fill="none" stroke="midnightblue" d="M854,-134.94C854,-121.03 854,-102.82 854,-92.22"/>
<polygon fill="midnightblue" stroke="midnightblue" points="850.5,-135.36 854,-145.36 857.5,-135.36 850.5,-135.36"/>
</g>
<!-- Node13 -->
<g id="node12" class="node">
<title>Node13</title>
<g id="a_node12"><a xlink:href="../../dd/d70/vlayoutpiece_8cpp.html" target="_top" xlink:title=" ">
<polygon fill="white" stroke="black" points="1334.5,-73 1334.5,-92 1511.5,-92 1511.5,-73 1334.5,-73"/>
<text text-anchor="middle" x="1423" y="-80" font-family="Helvetica,sans-Serif" font-size="10.00">src/libs/vlayout/vlayoutpiece.cpp</text>
</a>
</g>
</g>
<!-- Node4&#45;&gt;Node13 -->
<g id="edge14" class="edge">
<title>Node4&#45;&gt;Node13</title>
<path fill="none" stroke="midnightblue" d="M941.7,-144.33C1036.36,-133.72 1191.51,-115.81 1325,-98 1338.72,-96.17 1353.51,-94.06 1367.33,-92.02"/>
<polygon fill="midnightblue" stroke="midnightblue" points="941.14,-140.87 931.6,-145.46 941.92,-147.83 941.14,-140.87"/>
</g>
<!-- Node8&#45;&gt;Node9 -->
<g id="edge9" class="edge">
<title>Node8&#45;&gt;Node9</title>
<path fill="none" stroke="midnightblue" d="M672,-62.54C672,-50.17 672,-34.62 672,-25.13"/>
<polygon fill="midnightblue" stroke="midnightblue" points="668.5,-62.73 672,-72.73 675.5,-62.73 668.5,-62.73"/>
</g>
<!-- Node11&#45;&gt;Node9 -->
<g id="edge13" class="edge">
<title>Node11&#45;&gt;Node9</title>
<path fill="none" stroke="midnightblue" d="M820.22,-69.44C784.12,-56.54 727.79,-36.42 695.98,-25.06"/>
<polygon fill="midnightblue" stroke="midnightblue" points="819.24,-72.8 829.83,-72.87 821.59,-66.21 819.24,-72.8"/>
</g>
<!-- Node15&#45;&gt;Node13 -->
<g id="edge27" class="edge">
<title>Node15&#45;&gt;Node13</title>
<path fill="none" stroke="midnightblue" d="M4174.91,-153.64C3731.47,-151.88 2050.33,-142.35 1521,-98 1505.06,-96.66 1487.77,-94.39 1472.21,-92.03"/>
<polygon fill="midnightblue" stroke="midnightblue" points="4175.14,-157.14 4185.15,-153.68 4175.16,-150.14 4175.14,-157.14"/>
</g>
<!-- Node15&#45;&gt;Node14 -->
<g id="edge29" class="edge">
<title>Node15&#45;&gt;Node14</title>
<path fill="none" stroke="midnightblue" d="M4175.1,-152.42C3719.77,-145.65 1967.55,-118.49 1721,-98 1704.74,-96.65 1687.1,-94.37 1671.22,-92.01"/>
<polygon fill="midnightblue" stroke="midnightblue" points="4175.24,-155.92 4185.29,-152.57 4175.34,-148.92 4175.24,-155.92"/>
</g>
<!-- Node16 -->
<g id="node15" class="node">
<title>Node16</title>
<g id="a_node15"><a xlink:href="../../d4/d90/fvupdater_8cpp.html" target="_top" xlink:title=" ">
<polygon fill="white" stroke="black" points="3718.5,-73 3718.5,-92 3871.5,-92 3871.5,-73 3718.5,-73"/>
<text text-anchor="middle" x="3795" y="-80" font-family="Helvetica,sans-Serif" font-size="10.00">src/libs/fervor/fvupdater.cpp</text>
</a>
</g>
</g>
<!-- Node15&#45;&gt;Node16 -->
<g id="edge17" class="edge">
<title>Node15&#45;&gt;Node16</title>
<path fill="none" stroke="midnightblue" d="M4206.82,-144.13C4125.71,-133.45 3993.64,-115.58 3880,-98 3868.16,-96.17 3855.43,-94.07 3843.5,-92.04"/>
<polygon fill="midnightblue" stroke="midnightblue" points="4206.57,-147.62 4216.94,-145.46 4207.48,-140.68 4206.57,-147.62"/>
</g>
<!-- Node17 -->
<g id="node16" class="node">
<title>Node17</title>
<g id="a_node16"><a xlink:href="../../d9/dc8/dxiface_8cpp.html" target="_top" xlink:title=" ">
<polygon fill="white" stroke="black" points="3889.5,-73 3889.5,-92 4024.5,-92 4024.5,-73 3889.5,-73"/>
<text text-anchor="middle" x="3957" y="-80" font-family="Helvetica,sans-Serif" font-size="10.00">src/libs/vdxf/dxiface.cpp</text>
</a>
</g>
</g>
<!-- Node15&#45;&gt;Node17 -->
<g id="edge18" class="edge">
<title>Node15&#45;&gt;Node17</title>
<path fill="none" stroke="midnightblue" d="M4233.69,-143.34C4168.8,-129.3 4056.02,-104.91 3996.46,-92.03"/>
<polygon fill="midnightblue" stroke="midnightblue" points="4233.16,-146.8 4243.68,-145.5 4234.64,-139.96 4233.16,-146.8"/>
</g>
<!-- Node18 -->
<g id="node17" class="node">
<title>Node18</title>
<g id="a_node17"><a xlink:href="../../da/d75/vabstractarc__p_8h.html" target="_top" xlink:title=" ">
<polygon fill="white" stroke="red" points="4042.5,-67.5 4042.5,-97.5 4149.5,-97.5 4149.5,-67.5 4042.5,-67.5"/>
<text text-anchor="start" x="4050.5" y="-85.5" font-family="Helvetica,sans-Serif" font-size="10.00">src/libs/vgeometry</text>
<text text-anchor="middle" x="4096" y="-74.5" font-family="Helvetica,sans-Serif" font-size="10.00">/vabstractarc_p.h</text>
</a>
</g>
</g>
<!-- Node15&#45;&gt;Node18 -->
<g id="edge19" class="edge">
<title>Node15&#45;&gt;Node18</title>
<path fill="none" stroke="midnightblue" d="M4250.91,-141.9C4218.22,-129.58 4167.56,-110.48 4133.15,-97.51"/>
<polygon fill="midnightblue" stroke="midnightblue" points="4249.85,-145.24 4260.44,-145.5 4252.32,-138.69 4249.85,-145.24"/>
</g>
<!-- Node20 -->
<g id="node18" class="node">
<title>Node20</title>
<g id="a_node18"><a xlink:href="../../dc/da3/varc__p_8h.html" target="_top" xlink:title=" ">
<polygon fill="white" stroke="red" points="4167.5,-67.5 4167.5,-97.5 4274.5,-97.5 4274.5,-67.5 4167.5,-67.5"/>
<text text-anchor="start" x="4175.5" y="-85.5" font-family="Helvetica,sans-Serif" font-size="10.00">src/libs/vgeometry</text>
<text text-anchor="middle" x="4221" y="-74.5" font-family="Helvetica,sans-Serif" font-size="10.00">/varc_p.h</text>
</a>
</g>
</g>
<!-- Node15&#45;&gt;Node20 -->
<g id="edge20" class="edge">
<title>Node15&#45;&gt;Node20</title>
<path fill="none" stroke="midnightblue" d="M4268.7,-137.74C4258.02,-125.6 4243.57,-109.16 4233.38,-97.58"/>
<polygon fill="midnightblue" stroke="midnightblue" points="4266.17,-140.16 4275.4,-145.36 4271.42,-135.53 4266.17,-140.16"/>
</g>
<!-- Node22 -->
<g id="node19" class="node">
<title>Node22</title>
<g id="a_node19"><a xlink:href="../../d5/d8e/vcubicbezier__p_8h.html" target="_top" xlink:title=" ">
<polygon fill="white" stroke="red" points="4292.5,-67.5 4292.5,-97.5 4399.5,-97.5 4399.5,-67.5 4292.5,-67.5"/>
<text text-anchor="start" x="4300.5" y="-85.5" font-family="Helvetica,sans-Serif" font-size="10.00">src/libs/vgeometry</text>
<text text-anchor="middle" x="4346" y="-74.5" font-family="Helvetica,sans-Serif" font-size="10.00">/vcubicbezier_p.h</text>
</a>
</g>
</g>
<!-- Node15&#45;&gt;Node22 -->
<g id="edge21" class="edge">
<title>Node15&#45;&gt;Node22</title>
<path fill="none" stroke="midnightblue" d="M4297.53,-137.74C4308.38,-125.6 4323.07,-109.16 4333.42,-97.58"/>
<polygon fill="midnightblue" stroke="midnightblue" points="4294.78,-135.57 4290.73,-145.36 4300,-140.23 4294.78,-135.57"/>
</g>
<!-- Node24 -->
<g id="node20" class="node">
<title>Node24</title>
<g id="a_node20"><a xlink:href="../../d6/dfb/vellipticalarc_8cpp.html" target="_top" xlink:title=" ">
<polygon fill="white" stroke="black" points="4415.5,-0.5 4415.5,-30.5 4522.5,-30.5 4522.5,-0.5 4415.5,-0.5"/>
<text text-anchor="start" x="4423.5" y="-18.5" font-family="Helvetica,sans-Serif" font-size="10.00">src/libs/vgeometry</text>
<text text-anchor="middle" x="4469" y="-7.5" font-family="Helvetica,sans-Serif" font-size="10.00">/vellipticalarc.cpp</text>
</a>
</g>
</g>
<!-- Node15&#45;&gt;Node24 -->
<g id="edge22" class="edge">
<title>Node15&#45;&gt;Node24</title>
<path fill="none" stroke="midnightblue" d="M4322.18,-142.23C4348.33,-133.05 4382.48,-118.42 4408,-98 4431.88,-78.9 4451.34,-48.4 4461.45,-30.62"/>
<polygon fill="midnightblue" stroke="midnightblue" points="4320.93,-138.96 4312.58,-145.48 4323.17,-145.59 4320.93,-138.96"/>
</g>
<!-- Node25 -->
<g id="node21" class="node">
<title>Node25</title>
<g id="a_node21"><a xlink:href="../../df/dde/vellipticalarc__p_8h.html" target="_top" xlink:title=" ">
<polygon fill="white" stroke="black" points="4456.5,-67.5 4456.5,-97.5 4563.5,-97.5 4563.5,-67.5 4456.5,-67.5"/>
<text text-anchor="start" x="4464.5" y="-85.5" font-family="Helvetica,sans-Serif" font-size="10.00">src/libs/vgeometry</text>
<text text-anchor="middle" x="4510" y="-74.5" font-family="Helvetica,sans-Serif" font-size="10.00">/vellipticalarc_p.h</text>
</a>
</g>
</g>
<!-- Node15&#45;&gt;Node25 -->
<g id="edge23" class="edge">
<title>Node15&#45;&gt;Node25</title>
<path fill="none" stroke="midnightblue" d="M4320.17,-142.46C4359.78,-130.15 4422.5,-110.68 4464.9,-97.51"/>
<polygon fill="midnightblue" stroke="midnightblue" points="4318.89,-139.19 4310.38,-145.5 4320.97,-145.87 4318.89,-139.19"/>
</g>
<!-- Node26 -->
<g id="node22" class="node">
<title>Node26</title>
<g id="a_node22"><a xlink:href="../../d1/d76/vspline__p_8h.html" target="_top" xlink:title=" ">
<polygon fill="white" stroke="red" points="4581.5,-67.5 4581.5,-97.5 4688.5,-97.5 4688.5,-67.5 4581.5,-67.5"/>
<text text-anchor="start" x="4589.5" y="-85.5" font-family="Helvetica,sans-Serif" font-size="10.00">src/libs/vgeometry</text>
<text text-anchor="middle" x="4635" y="-74.5" font-family="Helvetica,sans-Serif" font-size="10.00">/vspline_p.h</text>
</a>
</g>
</g>
<!-- Node15&#45;&gt;Node26 -->
<g id="edge25" class="edge">
<title>Node15&#45;&gt;Node26</title>
<path fill="none" stroke="midnightblue" d="M4339.77,-143.6C4398.13,-132.77 4491.58,-115.04 4572,-98 4575.07,-97.35 4578.23,-96.67 4581.41,-95.97"/>
<polygon fill="midnightblue" stroke="midnightblue" points="4338.85,-140.22 4329.65,-145.48 4340.12,-147.1 4338.85,-140.22"/>
</g>
<!-- Node28 -->
<g id="node23" class="node">
<title>Node28</title>
<g id="a_node23"><a xlink:href="../../d9/d15/vabstractpiece_8cpp.html" target="_top" xlink:title=" ">
<polygon fill="white" stroke="black" points="4707,-73 4707,-92 4893,-92 4893,-73 4707,-73"/>
<text text-anchor="middle" x="4800" y="-80" font-family="Helvetica,sans-Serif" font-size="10.00">src/libs/vlayout/vabstractpiece.cpp</text>
</a>
</g>
</g>
<!-- Node15&#45;&gt;Node28 -->
<g id="edge26" class="edge">
<title>Node15&#45;&gt;Node28</title>
<path fill="none" stroke="midnightblue" d="M4356.91,-144.12C4439.74,-133.03 4578.02,-114.42 4697,-98 4710.86,-96.09 4725.77,-94 4739.82,-92.03"/>
<polygon fill="midnightblue" stroke="midnightblue" points="4356.29,-140.68 4346.84,-145.47 4357.22,-147.61 4356.29,-140.68"/>
</g>
<!-- Node29 -->
<g id="node24" class="node">
<title>Node29</title>
<g id="a_node24"><a xlink:href="../../db/d65/dialogexporttocsv_8cpp.html" target="_top" xlink:title=" ">
<polygon fill="white" stroke="black" points="4911.5,-67.5 4911.5,-97.5 5038.5,-97.5 5038.5,-67.5 4911.5,-67.5"/>
<text text-anchor="start" x="4919.5" y="-85.5" font-family="Helvetica,sans-Serif" font-size="10.00">src/libs/vmisc/dialogs</text>
<text text-anchor="middle" x="4975" y="-74.5" font-family="Helvetica,sans-Serif" font-size="10.00">/dialogexporttocsv.cpp</text>
</a>
</g>
</g>
<!-- Node15&#45;&gt;Node29 -->
<g id="edge28" class="edge">
<title>Node15&#45;&gt;Node29</title>
<path fill="none" stroke="midnightblue" d="M4390.91,-147.71C4514.74,-139.69 4723.72,-123.7 4902,-98 4905.07,-97.56 4908.2,-97.07 4911.37,-96.55"/>
<polygon fill="midnightblue" stroke="midnightblue" points="4390.42,-144.24 4380.67,-148.37 4390.87,-151.22 4390.42,-144.24"/>
</g>
<!-- Node30 -->
<g id="node25" class="node">
<title>Node30</title>
<g id="a_node25"><a xlink:href="../../d6/d0b/def_8cpp.html" target="_top" xlink:title=" ">
<polygon fill="white" stroke="black" points="5057,-73 5057,-92 5179,-92 5179,-73 5057,-73"/>
<text text-anchor="middle" x="5118" y="-80" font-family="Helvetica,sans-Serif" font-size="10.00">src/libs/vmisc/def.cpp</text>
</a>
</g>
</g>
<!-- Node15&#45;&gt;Node30 -->
<g id="edge30" class="edge">
<title>Node15&#45;&gt;Node30</title>
<path fill="none" stroke="midnightblue" d="M4390.52,-150.47C4538.82,-144.61 4814.22,-130.17 5047,-98 5058.09,-96.47 5070.05,-94.25 5080.94,-92"/>
<polygon fill="midnightblue" stroke="midnightblue" points="4390.36,-146.97 4380.5,-150.86 4390.63,-153.97 4390.36,-146.97"/>
</g>
<!-- Node31 -->
<g id="node26" class="node">
<title>Node31</title>
<g id="a_node26"><a xlink:href="../../d0/df6/vabstractapplication_8cpp.html" target="_top" xlink:title=" ">
<polygon fill="white" stroke="black" points="5197,-73 5197,-92 5403,-92 5403,-73 5197,-73"/>
<text text-anchor="middle" x="5300" y="-80" font-family="Helvetica,sans-Serif" font-size="10.00">src/libs/vmisc/vabstractapplication.cpp</text>
</a>
</g>
</g>
<!-- Node15&#45;&gt;Node31 -->
<g id="edge31" class="edge">
<title>Node15&#45;&gt;Node31</title>
<path fill="none" stroke="midnightblue" d="M4390.79,-149.67C4560.59,-142.31 4900.64,-125.46 5188,-98 5204.88,-96.39 5223.14,-94.21 5239.92,-92.03"/>
<polygon fill="midnightblue" stroke="midnightblue" points="4390.44,-146.18 4380.6,-150.11 4390.74,-153.17 4390.44,-146.18"/>
</g>
<!-- Node32 -->
<g id="node27" class="node">
<title>Node32</title>
<g id="a_node27"><a xlink:href="../../d4/d4f/pmsystems_8cpp.html" target="_top" xlink:title=" ">
<polygon fill="white" stroke="black" points="5421.5,-67.5 5421.5,-97.5 5528.5,-97.5 5528.5,-67.5 5421.5,-67.5"/>
<text text-anchor="start" x="5429.5" y="-85.5" font-family="Helvetica,sans-Serif" font-size="10.00">src/libs/vpatterndb</text>
<text text-anchor="middle" x="5475" y="-74.5" font-family="Helvetica,sans-Serif" font-size="10.00">/pmsystems.cpp</text>
</a>
</g>
</g>
<!-- Node15&#45;&gt;Node32 -->
<g id="edge32" class="edge">
<title>Node15&#45;&gt;Node32</title>
<path fill="none" stroke="midnightblue" d="M4390.86,-154.96C4592.45,-155.37 5039.67,-149.67 5412,-98 5415,-97.58 5418.07,-97.09 5421.16,-96.55"/>
<polygon fill="midnightblue" stroke="midnightblue" points="4390.58,-151.46 4380.57,-154.94 4390.56,-158.46 4390.58,-151.46"/>
</g>
<!-- Node15&#45;&gt;Node33 -->
<g id="edge33" class="edge">
<title>Node15&#45;&gt;Node33</title>
<path fill="none" stroke="midnightblue" d="M4390.72,-153.07C4708.81,-149.9 5640.5,-137.41 5942,-98 5945,-97.61 5948.08,-97.14 5951.17,-96.61"/>
<polygon fill="midnightblue" stroke="midnightblue" points="4390.54,-149.57 4380.58,-153.17 4390.61,-156.57 4390.54,-149.57"/>
</g>
<!-- Node15&#45;&gt;Node34 -->
<g id="edge34" class="edge">
<title>Node15&#45;&gt;Node34</title>
<path fill="none" stroke="midnightblue" d="M4390.93,-153.37C4725.17,-150.97 5740.22,-140.32 6067,-98 6070.01,-97.61 6073.08,-97.14 6076.17,-96.62"/>
<polygon fill="midnightblue" stroke="midnightblue" points="4390.74,-149.87 4380.76,-153.44 4390.79,-156.87 4390.74,-149.87"/>
</g>
<!-- Node15&#45;&gt;Node35 -->
<g id="edge35" class="edge">
<title>Node15&#45;&gt;Node35</title>
<path fill="none" stroke="midnightblue" d="M4390.89,-153.63C4740.49,-151.98 5839.79,-143.25 6192,-98 6195.01,-97.61 6198.08,-97.15 6201.17,-96.62"/>
<polygon fill="midnightblue" stroke="midnightblue" points="4390.76,-150.13 4380.77,-153.67 4390.79,-157.13 4390.76,-150.13"/>
</g>
<!-- Node36 -->
<g id="node31" class="node">
<title>Node36</title>
<g id="a_node31"><a xlink:href="../../df/dba/vpiecenode__p_8h.html" target="_top" xlink:title=" ">
<polygon fill="white" stroke="black" points="5546.5,-67.5 5546.5,-97.5 5653.5,-97.5 5653.5,-67.5 5546.5,-67.5"/>
<text text-anchor="start" x="5554.5" y="-85.5" font-family="Helvetica,sans-Serif" font-size="10.00">src/libs/vpatterndb</text>
<text text-anchor="middle" x="5600" y="-74.5" font-family="Helvetica,sans-Serif" font-size="10.00">/vpiecenode_p.h</text>
</a>
</g>
</g>
<!-- Node15&#45;&gt;Node36 -->
<g id="edge36" class="edge">
<title>Node15&#45;&gt;Node36</title>
<path fill="none" stroke="midnightblue" d="M4390.79,-151.7C4652.67,-145.71 5316.99,-127.98 5537,-98 5540,-97.59 5543.07,-97.11 5546.16,-96.57"/>
<polygon fill="midnightblue" stroke="midnightblue" points="4390.43,-148.21 4380.52,-151.94 4390.59,-155.21 4390.43,-148.21"/>
</g>
<!-- Node38 -->
<g id="node33" class="node">
<title>Node38</title>
<g id="a_node33"><a xlink:href="../../de/d3e/vtranslatevars_8cpp.html" target="_top" xlink:title=" ">
<polygon fill="white" stroke="black" points="5672,-67.5 5672,-97.5 5782,-97.5 5782,-67.5 5672,-67.5"/>
<text text-anchor="start" x="5680" y="-85.5" font-family="Helvetica,sans-Serif" font-size="10.00">src/libs/vpatterndb</text>
<text text-anchor="middle" x="5727" y="-74.5" font-family="Helvetica,sans-Serif" font-size="10.00">/vtranslatevars.cpp</text>
</a>
</g>
</g>
<!-- Node15&#45;&gt;Node38 -->
<g id="edge38" class="edge">
<title>Node15&#45;&gt;Node38</title>
<path fill="none" stroke="midnightblue" d="M4390.93,-152.11C4671.13,-146.81 5416.9,-130.05 5662,-98 5665.21,-97.58 5668.5,-97.08 5671.8,-96.52"/>
<polygon fill="midnightblue" stroke="midnightblue" points="4390.69,-148.62 4380.76,-152.3 4390.82,-155.62 4390.69,-148.62"/>
</g>
<!-- Node39 -->
<g id="node34" class="node">
<title>Node39</title>
<g id="a_node34"><a xlink:href="../../df/d40/export__format__combobox_8cpp.html" target="_top" xlink:title=" ">
<polygon fill="white" stroke="black" points="5800.5,-67.5 5800.5,-97.5 5933.5,-97.5 5933.5,-67.5 5800.5,-67.5"/>
<text text-anchor="start" x="5808.5" y="-85.5" font-family="Helvetica,sans-Serif" font-size="10.00">src/libs/vwidgets/export</text>
<text text-anchor="middle" x="5867" y="-74.5" font-family="Helvetica,sans-Serif" font-size="10.00">_format_combobox.cpp</text>
</a>
</g>
</g>
<!-- Node15&#45;&gt;Node39 -->
<g id="edge39" class="edge">
<title>Node15&#45;&gt;Node39</title>
<path fill="none" stroke="midnightblue" d="M4391.07,-152.11C4689.27,-146.57 5519.5,-128.76 5791,-98 5794.07,-97.65 5797.2,-97.25 5800.36,-96.81"/>
<polygon fill="midnightblue" stroke="midnightblue" points="4390.62,-148.62 4380.69,-152.31 4390.75,-155.62 4390.62,-148.62"/>
</g>
<!-- Node40 -->
<g id="node35" class="node">
<title>Node40</title>
<g id="a_node35"><a xlink:href="../../d3/d4f/mouse__coordinates_8cpp.html" target="_top" xlink:title=" ">
<polygon fill="white" stroke="black" points="1730,-67.5 1730,-97.5 1864,-97.5 1864,-67.5 1730,-67.5"/>
<text text-anchor="start" x="1738" y="-85.5" font-family="Helvetica,sans-Serif" font-size="10.00">src/libs/vwidgets/mouse</text>
<text text-anchor="middle" x="1797" y="-74.5" font-family="Helvetica,sans-Serif" font-size="10.00">_coordinates.cpp</text>
</a>
</g>
</g>
<!-- Node15&#45;&gt;Node40 -->
<g id="edge40" class="edge">
<title>Node15&#45;&gt;Node40</title>
<path fill="none" stroke="midnightblue" d="M4175.34,-152.55C3737.57,-146.5 2103.33,-122.48 1873,-98 1870.06,-97.69 1867.07,-97.32 1864.05,-96.91"/>
<polygon fill="midnightblue" stroke="midnightblue" points="4175.41,-156.05 4185.46,-152.69 4175.51,-149.05 4175.41,-156.05"/>
</g>
<!-- Node41 -->
<g id="node36" class="node">
<title>Node41</title>
<g id="a_node36"><a xlink:href="../../d2/d28/page__format__combobox_8cpp.html" target="_top" xlink:title=" ">
<polygon fill="white" stroke="black" points="1882.5,-67.5 1882.5,-97.5 2013.5,-97.5 2013.5,-67.5 1882.5,-67.5"/>
<text text-anchor="start" x="1890.5" y="-85.5" font-family="Helvetica,sans-Serif" font-size="10.00">src/libs/vwidgets/page</text>
<text text-anchor="middle" x="1948" y="-74.5" font-family="Helvetica,sans-Serif" font-size="10.00">_format_combobox.cpp</text>
</a>
</g>
</g>
<!-- Node15&#45;&gt;Node41 -->
<g id="edge41" class="edge">
<title>Node15&#45;&gt;Node41</title>
<path fill="none" stroke="midnightblue" d="M4175.39,-152.4C3755.1,-146.02 2236.88,-121.54 2022,-98 2019.27,-97.7 2016.48,-97.35 2013.68,-96.97"/>
<polygon fill="midnightblue" stroke="midnightblue" points="4175.36,-155.9 4185.41,-152.55 4175.46,-148.9 4175.36,-155.9"/>
</g>
<!-- Node42 -->
<g id="node37" class="node">
<title>Node42</title>
<g id="a_node37"><a xlink:href="../../d7/d1b/pen__toolbar_8cpp.html" target="_top" xlink:title=" ">
<polygon fill="white" stroke="black" points="2031.5,-67.5 2031.5,-97.5 2150.5,-97.5 2150.5,-67.5 2031.5,-67.5"/>
<text text-anchor="start" x="2039.5" y="-85.5" font-family="Helvetica,sans-Serif" font-size="10.00">src/libs/vwidgets/pen</text>
<text text-anchor="middle" x="2091" y="-74.5" font-family="Helvetica,sans-Serif" font-size="10.00">_toolbar.cpp</text>
</a>
</g>
</g>
<!-- Node15&#45;&gt;Node42 -->
<g id="edge42" class="edge">
<title>Node15&#45;&gt;Node42</title>
<path fill="none" stroke="midnightblue" d="M4175.27,-152.3C3771.46,-145.78 2360.48,-121.51 2160,-98 2156.96,-97.64 2153.86,-97.22 2150.73,-96.74"/>
<polygon fill="midnightblue" stroke="midnightblue" points="4175.43,-155.8 4185.49,-152.47 4175.54,-148.81 4175.43,-155.8"/>
</g>
<!-- Node43 -->
<g id="node38" class="node">
<title>Node43</title>
<g id="a_node38"><a xlink:href="../../d8/d76/scene__rect_8cpp.html" target="_top" xlink:title=" ">
<polygon fill="white" stroke="black" points="2169,-67.5 2169,-97.5 2299,-97.5 2299,-67.5 2169,-67.5"/>
<text text-anchor="start" x="2177" y="-85.5" font-family="Helvetica,sans-Serif" font-size="10.00">src/libs/vwidgets/scene</text>
<text text-anchor="middle" x="2234" y="-74.5" font-family="Helvetica,sans-Serif" font-size="10.00">_rect.cpp</text>
</a>
</g>
</g>
<!-- Node15&#45;&gt;Node43 -->
<g id="edge43" class="edge">
<title>Node15&#45;&gt;Node43</title>
<path fill="none" stroke="midnightblue" d="M4175.12,-153.29C3817.73,-150.57 2674.37,-138.81 2308,-98 2305.14,-97.68 2302.22,-97.31 2299.28,-96.9"/>
<polygon fill="midnightblue" stroke="midnightblue" points="4175.18,-156.79 4185.21,-153.37 4175.24,-149.79 4175.18,-156.79"/>
</g>
<!-- Node44 -->
<g id="node39" class="node">
<title>Node44</title>
<g id="a_node39"><a xlink:href="../../dd/df6/vabstractmainwindow_8cpp.html" target="_top" xlink:title=" ">
<polygon fill="white" stroke="black" points="2317.5,-73 2317.5,-92 2546.5,-92 2546.5,-73 2317.5,-73"/>
<text text-anchor="middle" x="2432" y="-80" font-family="Helvetica,sans-Serif" font-size="10.00">src/libs/vwidgets/vabstractmainwindow.cpp</text>
</a>
</g>
</g>
<!-- Node15&#45;&gt;Node44 -->
<g id="edge44" class="edge">
<title>Node15&#45;&gt;Node44</title>
<path fill="none" stroke="midnightblue" d="M4175.14,-153.68C3903.04,-152.2 3166.72,-143.89 2555,-98 2535.6,-96.54 2514.54,-94.31 2495.42,-92.02"/>
<polygon fill="midnightblue" stroke="midnightblue" points="4175.39,-157.19 4185.41,-153.74 4175.43,-150.19 4175.39,-157.19"/>
</g>
<!-- Node45 -->
<g id="node40" class="node">
<title>Node45</title>
<g id="a_node40"><a xlink:href="../../de/d45/vcontrolpointspline_8cpp.html" target="_top" xlink:title=" ">
<polygon fill="white" stroke="black" points="2564.5,-73 2564.5,-92 2779.5,-92 2779.5,-73 2564.5,-73"/>
<text text-anchor="middle" x="2672" y="-80" font-family="Helvetica,sans-Serif" font-size="10.00">src/libs/vwidgets/vcontrolpointspline.cpp</text>
</a>
</g>
</g>
<!-- Node15&#45;&gt;Node45 -->
<g id="edge45" class="edge">
<title>Node15&#45;&gt;Node45</title>
<path fill="none" stroke="midnightblue" d="M4175.37,-153.13C3929.4,-150.45 3307.34,-139.76 2789,-98 2770.64,-96.52 2750.73,-94.29 2732.62,-92.02"/>
<polygon fill="midnightblue" stroke="midnightblue" points="4175.35,-156.63 4185.38,-153.24 4175.42,-149.63 4175.35,-156.63"/>
</g>
<!-- Node46 -->
<g id="node41" class="node">
<title>Node46</title>
<g id="a_node41"><a xlink:href="../../de/dec/vgraphicssimpletextitem_8cpp.html" target="_top" xlink:title=" ">
<polygon fill="white" stroke="black" points="2798,-73 2798,-92 3042,-92 3042,-73 2798,-73"/>
<text text-anchor="middle" x="2920" y="-80" font-family="Helvetica,sans-Serif" font-size="10.00">src/libs/vwidgets/vgraphicssimpletextitem.cpp</text>
</a>
</g>
</g>
<!-- Node15&#45;&gt;Node46 -->
<g id="edge46" class="edge">
<title>Node15&#45;&gt;Node46</title>
<path fill="none" stroke="midnightblue" d="M4175.14,-151.45C3960.72,-145.85 3465.79,-130.35 3051,-98 3030.92,-96.43 3009.17,-94.23 2989.27,-92.02"/>
<polygon fill="midnightblue" stroke="midnightblue" points="4175.36,-154.95 4185.44,-151.71 4175.54,-147.96 4175.36,-154.95"/>
</g>
<!-- Node47 -->
<g id="node42" class="node">
<title>Node47</title>
<g id="a_node42"><a xlink:href="../../d1/d88/vmaingraphicsscene_8cpp.html" target="_top" xlink:title=" ">
<polygon fill="white" stroke="black" points="3060,-73 3060,-92 3282,-92 3282,-73 3060,-73"/>
<text text-anchor="middle" x="3171" y="-80" font-family="Helvetica,sans-Serif" font-size="10.00">src/libs/vwidgets/vmaingraphicsscene.cpp</text>
</a>
</g>
</g>
<!-- Node15&#45;&gt;Node47 -->
<g id="edge47" class="edge">
<title>Node15&#45;&gt;Node47</title>
<path fill="none" stroke="midnightblue" d="M4175.22,-150.17C3992.88,-143.19 3612.04,-126.43 3291,-98 3272.81,-96.39 3253.13,-94.2 3235.07,-92.01"/>
<polygon fill="midnightblue" stroke="midnightblue" points="4175.22,-153.67 4185.34,-150.56 4175.48,-146.68 4175.22,-153.67"/>
</g>
<!-- Node48 -->
<g id="node43" class="node">
<title>Node48</title>
<g id="a_node43"><a xlink:href="../../d1/d90/vgrainlineitem_8cpp.html" target="_top" xlink:title=" ">
<polygon fill="white" stroke="black" points="3300.5,-73 3300.5,-92 3493.5,-92 3493.5,-73 3300.5,-73"/>
<text text-anchor="middle" x="3397" y="-80" font-family="Helvetica,sans-Serif" font-size="10.00">src/libs/vwidgets/vgrainlineitem.cpp</text>
</a>
</g>
</g>
<!-- Node15&#45;&gt;Node48 -->
<g id="edge48" class="edge">
<title>Node15&#45;&gt;Node48</title>
<path fill="none" stroke="midnightblue" d="M4175.06,-148.45C4024.35,-140.2 3742.42,-122.94 3503,-98 3487.11,-96.34 3469.94,-94.17 3454.13,-92"/>
<polygon fill="midnightblue" stroke="midnightblue" points="4175.06,-151.95 4185.24,-149 4175.44,-144.96 4175.06,-151.95"/>
</g>
<!-- Node49 -->
<g id="node44" class="node">
<title>Node49</title>
<g id="a_node44"><a xlink:href="../../de/d22/vsimplecurve_8cpp.html" target="_top" xlink:title=" ">
<polygon fill="white" stroke="black" points="3512,-73 3512,-92 3700,-92 3700,-73 3512,-73"/>
<text text-anchor="middle" x="3606" y="-80" font-family="Helvetica,sans-Serif" font-size="10.00">src/libs/vwidgets/vsimplecurve.cpp</text>
</a>
</g>
</g>
<!-- Node15&#45;&gt;Node49 -->
<g id="edge49" class="edge">
<title>Node15&#45;&gt;Node49</title>
<path fill="none" stroke="midnightblue" d="M4175.11,-144.86C4059.63,-134.74 3871.14,-117.31 3709,-98 3694.21,-96.24 3678.25,-94.11 3663.42,-92.02"/>
<polygon fill="midnightblue" stroke="midnightblue" points="4175.1,-148.37 4185.36,-145.75 4175.71,-141.39 4175.1,-148.37"/>
</g>
<!-- Node25&#45;&gt;Node24 -->
<g id="edge24" class="edge">
<title>Node25&#45;&gt;Node24</title>
<path fill="none" stroke="midnightblue" d="M4495.72,-58.87C4489.79,-49.46 4483.09,-38.83 4477.88,-30.58"/>
<polygon fill="midnightblue" stroke="midnightblue" points="4492.81,-60.81 4501.1,-67.4 4498.73,-57.07 4492.81,-60.81"/>
</g>
<!-- Node36&#45;&gt;Node37 -->
<g id="edge37" class="edge">
<title>Node36&#45;&gt;Node37</title>
<path fill="none" stroke="midnightblue" d="M5663.54,-66.97C5757.64,-48.58 5855.4,-33.21 5914.37,-24.35"/>
<polygon fill="midnightblue" stroke="midnightblue" points="5662.7,-63.57 5653.57,-68.93 5664.06,-70.43 5662.7,-63.57"/>
</g>
</g>
</svg>
