<?xml version="1.0" encoding="UTF-8" standalone="no"?>
<!DOCTYPE svg PUBLIC "-//W3C//DTD SVG 1.1//EN"
 "http://www.w3.org/Graphics/SVG/1.1/DTD/svg11.dtd">
<!-- Generated by graphviz version 2.43.0 (0)
 -->
<!-- Title: src/app/seamly2d/core/vcmdexport.h Pages: 1 -->
<svg width="4472pt" height="173pt"
 viewBox="0.00 0.00 4472.00 173.00" xmlns="http://www.w3.org/2000/svg" xmlns:xlink="http://www.w3.org/1999/xlink">
<g id="graph0" class="graph" transform="scale(1 1) rotate(0) translate(4 169)">
<title>src/app/seamly2d/core/vcmdexport.h</title>
<polygon fill="white" stroke="transparent" points="-4,4 -4,-169 4468,-169 4468,4 -4,4"/>
<!-- Node1 -->
<g id="node1" class="node">
<title>Node1</title>
<g id="a_node1"><a xlink:title=" ">
<polygon fill="#bfbfbf" stroke="black" points="2005,-134.5 2005,-164.5 2132,-164.5 2132,-134.5 2005,-134.5"/>
<text text-anchor="start" x="2013" y="-152.5" font-family="Helvetica,sans-Serif" font-size="10.00">src/app/seamly2d/core</text>
<text text-anchor="middle" x="2068.5" y="-141.5" font-family="Helvetica,sans-Serif" font-size="10.00">/vcmdexport.h</text>
</a>
</g>
</g>
<!-- Node2 -->
<g id="node2" class="node">
<title>Node2</title>
<g id="a_node2"><a xlink:href="../../d7/d61/application__2d_8h.html" target="_top" xlink:title=" ">
<polygon fill="white" stroke="black" points="2005,-67.5 2005,-97.5 2132,-97.5 2132,-67.5 2005,-67.5"/>
<text text-anchor="start" x="2013" y="-85.5" font-family="Helvetica,sans-Serif" font-size="10.00">src/app/seamly2d/core</text>
<text text-anchor="middle" x="2068.5" y="-74.5" font-family="Helvetica,sans-Serif" font-size="10.00">/application_2d.h</text>
</a>
</g>
</g>
<!-- Node1&#45;&gt;Node2 -->
<g id="edge1" class="edge">
<title>Node1&#45;&gt;Node2</title>
<path fill="none" stroke="midnightblue" d="M2068.5,-124.11C2068.5,-115.15 2068.5,-105.32 2068.5,-97.58"/>
<polygon fill="midnightblue" stroke="midnightblue" points="2065,-124.4 2068.5,-134.4 2072,-124.4 2065,-124.4"/>
</g>
<!-- Node28 -->
<g id="node28" class="node">
<title>Node28</title>
<g id="a_node28"><a xlink:href="../../df/d9b/vcmdexport_8cpp.html" target="_top" xlink:title=" ">
<polygon fill="white" stroke="black" points="2150,-67.5 2150,-97.5 2277,-97.5 2277,-67.5 2150,-67.5"/>
<text text-anchor="start" x="2158" y="-85.5" font-family="Helvetica,sans-Serif" font-size="10.00">src/app/seamly2d/core</text>
<text text-anchor="middle" x="2213.5" y="-74.5" font-family="Helvetica,sans-Serif" font-size="10.00">/vcmdexport.cpp</text>
</a>
</g>
</g>
<!-- Node1&#45;&gt;Node28 -->
<g id="edge27" class="edge">
<title>Node1&#45;&gt;Node28</title>
<path fill="none" stroke="midnightblue" d="M2109.17,-130.27C2132.26,-119.92 2160.74,-107.15 2182.1,-97.58"/>
<polygon fill="midnightblue" stroke="midnightblue" points="2107.66,-127.11 2099.96,-134.4 2110.52,-133.5 2107.66,-127.11"/>
</g>
<!-- Node29 -->
<g id="node29" class="node">
<title>Node29</title>
<g id="a_node29"><a xlink:href="../../d9/d53/mainwindow_8h.html" target="_top" xlink:title=" ">
<polygon fill="white" stroke="black" points="226.5,-73 226.5,-92 402.5,-92 402.5,-73 226.5,-73"/>
<text text-anchor="middle" x="314.5" y="-80" font-family="Helvetica,sans-Serif" font-size="10.00">src/app/seamly2d/mainwindow.h</text>
</a>
</g>
</g>
<!-- Node1&#45;&gt;Node29 -->
<g id="edge28" class="edge">
<title>Node1&#45;&gt;Node29</title>
<path fill="none" stroke="midnightblue" d="M1994.68,-145.76C1713.15,-135.33 707.54,-98.07 402.71,-86.77"/>
<polygon fill="midnightblue" stroke="midnightblue" points="1994.65,-149.27 2004.78,-146.14 1994.91,-142.27 1994.65,-149.27"/>
</g>
<!-- Node3 -->
<g id="node3" class="node">
<title>Node3</title>
<g id="a_node3"><a xlink:href="../../df/d3e/application__2d_8cpp.html" target="_top" xlink:title=" ">
<polygon fill="white" stroke="black" points="0,-0.5 0,-30.5 127,-30.5 127,-0.5 0,-0.5"/>
<text text-anchor="start" x="8" y="-18.5" font-family="Helvetica,sans-Serif" font-size="10.00">src/app/seamly2d/core</text>
<text text-anchor="middle" x="63.5" y="-7.5" font-family="Helvetica,sans-Serif" font-size="10.00">/application_2d.cpp</text>
</a>
</g>
</g>
<!-- Node2&#45;&gt;Node3 -->
<g id="edge2" class="edge">
<title>Node2&#45;&gt;Node3</title>
<path fill="none" stroke="midnightblue" d="M1994.77,-81.28C1687.27,-80.08 505.74,-72.8 135.5,-31 132.71,-30.69 129.87,-30.32 127.01,-29.91"/>
<polygon fill="midnightblue" stroke="midnightblue" points="1994.9,-84.78 2004.91,-81.31 1994.92,-77.78 1994.9,-84.78"/>
</g>
<!-- Node4 -->
<g id="node4" class="node">
<title>Node4</title>
<g id="a_node4"><a xlink:href="../../dd/db4/abstractlayout__dialog_8cpp.html" target="_top" xlink:title=" ">
<polygon fill="white" stroke="black" points="2754.5,-0.5 2754.5,-30.5 2900.5,-30.5 2900.5,-0.5 2754.5,-0.5"/>
<text text-anchor="start" x="2762.5" y="-18.5" font-family="Helvetica,sans-Serif" font-size="10.00">src/app/seamly2d/dialogs</text>
<text text-anchor="middle" x="2827.5" y="-7.5" font-family="Helvetica,sans-Serif" font-size="10.00">/abstractlayout_dialog.cpp</text>
</a>
</g>
</g>
<!-- Node2&#45;&gt;Node4 -->
<g id="edge3" class="edge">
<title>Node2&#45;&gt;Node4</title>
<path fill="none" stroke="midnightblue" d="M2142.14,-67.06C2409.97,-33.44 2481.69,-62.08 2745.5,-31 2748.37,-30.66 2751.29,-30.29 2754.24,-29.89"/>
<polygon fill="midnightblue" stroke="midnightblue" points="2141.6,-63.6 2132.12,-68.33 2142.48,-70.54 2141.6,-63.6"/>
</g>
<!-- Node5 -->
<g id="node5" class="node">
<title>Node5</title>
<g id="a_node5"><a xlink:href="../../d9/d7f/about2d__dialog_8cpp.html" target="_top" xlink:title=" ">
<polygon fill="white" stroke="black" points="2919,-0.5 2919,-30.5 3060,-30.5 3060,-0.5 2919,-0.5"/>
<text text-anchor="start" x="2927" y="-18.5" font-family="Helvetica,sans-Serif" font-size="10.00">src/app/seamly2d/dialogs</text>
<text text-anchor="middle" x="2989.5" y="-7.5" font-family="Helvetica,sans-Serif" font-size="10.00">/about2d_dialog.cpp</text>
</a>
</g>
</g>
<!-- Node2&#45;&gt;Node5 -->
<g id="edge4" class="edge">
<title>Node2&#45;&gt;Node5</title>
<path fill="none" stroke="midnightblue" d="M2142.25,-67.06C2482.46,-26.45 2573.29,-69.18 2909.5,-31 2912.59,-30.65 2915.73,-30.25 2918.9,-29.82"/>
<polygon fill="midnightblue" stroke="midnightblue" points="2141.62,-63.61 2132.11,-68.28 2142.46,-70.56 2141.62,-63.61"/>
</g>
<!-- Node6 -->
<g id="node6" class="node">
<title>Node6</title>
<g id="a_node6"><a xlink:href="../../d7/dfa/calculator__dialog_8cpp.html" target="_top" xlink:title=" ">
<polygon fill="white" stroke="black" points="3078,-0.5 3078,-30.5 3219,-30.5 3219,-0.5 3078,-0.5"/>
<text text-anchor="start" x="3086" y="-18.5" font-family="Helvetica,sans-Serif" font-size="10.00">src/app/seamly2d/dialogs</text>
<text text-anchor="middle" x="3148.5" y="-7.5" font-family="Helvetica,sans-Serif" font-size="10.00">/calculator_dialog.cpp</text>
</a>
</g>
</g>
<!-- Node2&#45;&gt;Node6 -->
<g id="edge5" class="edge">
<title>Node2&#45;&gt;Node6</title>
<path fill="none" stroke="midnightblue" d="M2142.18,-67.08C2553.17,-19.57 2662.55,-76.01 3069.5,-31 3072.27,-30.69 3075.09,-30.35 3077.94,-29.97"/>
<polygon fill="midnightblue" stroke="midnightblue" points="2141.63,-63.62 2132.11,-68.25 2142.45,-70.57 2141.63,-63.62"/>
</g>
<!-- Node7 -->
<g id="node7" class="node">
<title>Node7</title>
<g id="a_node7"><a xlink:href="../../d9/d70/preferencesgraphicsviewpage_8cpp.html" target="_top" xlink:title=" ">
<polygon fill="white" stroke="black" points="3237.5,-0.5 3237.5,-30.5 3485.5,-30.5 3485.5,-0.5 3237.5,-0.5"/>
<text text-anchor="start" x="3245.5" y="-18.5" font-family="Helvetica,sans-Serif" font-size="10.00">src/app/seamly2d/dialogs</text>
<text text-anchor="middle" x="3361.5" y="-7.5" font-family="Helvetica,sans-Serif" font-size="10.00">/configpages/preferencesgraphicsviewpage.cpp</text>
</a>
</g>
</g>
<!-- Node2&#45;&gt;Node7 -->
<g id="edge6" class="edge">
<title>Node2&#45;&gt;Node7</title>
<path fill="none" stroke="midnightblue" d="M2142.09,-67.09C2623.43,-12.46 2749.63,-64.98 3228.5,-31 3231.4,-30.79 3234.33,-30.57 3237.28,-30.34"/>
<polygon fill="midnightblue" stroke="midnightblue" points="2141.64,-63.62 2132.1,-68.23 2142.44,-70.57 2141.64,-63.62"/>
</g>
<!-- Node8 -->
<g id="node8" class="node">
<title>Node8</title>
<g id="a_node8"><a xlink:href="../../d2/d00/vtooloptionspropertybrowser_8cpp.html" target="_top" xlink:title=" ">
<polygon fill="white" stroke="black" points="3503.5,-0.5 3503.5,-30.5 3683.5,-30.5 3683.5,-0.5 3503.5,-0.5"/>
<text text-anchor="start" x="3511.5" y="-18.5" font-family="Helvetica,sans-Serif" font-size="10.00">src/app/seamly2d/core</text>
<text text-anchor="middle" x="3593.5" y="-7.5" font-family="Helvetica,sans-Serif" font-size="10.00">/vtooloptionspropertybrowser.cpp</text>
</a>
</g>
</g>
<!-- Node2&#45;&gt;Node8 -->
<g id="edge7" class="edge">
<title>Node2&#45;&gt;Node8</title>
<path fill="none" stroke="midnightblue" d="M2142.29,-67.08C2741.09,-1.08 2898.54,-82.39 3494.5,-31 3497.44,-30.75 3500.43,-30.46 3503.44,-30.15"/>
<polygon fill="midnightblue" stroke="midnightblue" points="2141.65,-63.62 2132.1,-68.21 2142.43,-70.58 2141.65,-63.62"/>
</g>
<!-- Node9 -->
<g id="node9" class="node">
<title>Node9</title>
<g id="a_node9"><a xlink:href="../../dc/d20/preferencespathpage_8cpp.html" target="_top" xlink:title=" ">
<polygon fill="white" stroke="black" points="3702,-0.5 3702,-30.5 3907,-30.5 3907,-0.5 3702,-0.5"/>
<text text-anchor="start" x="3710" y="-18.5" font-family="Helvetica,sans-Serif" font-size="10.00">src/app/seamly2d/dialogs</text>
<text text-anchor="middle" x="3804.5" y="-7.5" font-family="Helvetica,sans-Serif" font-size="10.00">/configpages/preferencespathpage.cpp</text>
</a>
</g>
</g>
<!-- Node2&#45;&gt;Node9 -->
<g id="edge8" class="edge">
<title>Node2&#45;&gt;Node9</title>
<path fill="none" stroke="midnightblue" d="M2142.24,-67.08C2828.63,7.56 3008.33,-83.08 3692.5,-31 3695.53,-30.77 3698.6,-30.51 3701.71,-30.24"/>
<polygon fill="midnightblue" stroke="midnightblue" points="2141.66,-63.63 2132.1,-68.19 2142.42,-70.58 2141.66,-63.63"/>
</g>
<!-- Node10 -->
<g id="node10" class="node">
<title>Node10</title>
<g id="a_node10"><a xlink:href="../../dd/dc2/decimalchart__dialog_8cpp.html" target="_top" xlink:title=" ">
<polygon fill="white" stroke="black" points="3925,-0.5 3925,-30.5 4066,-30.5 4066,-0.5 3925,-0.5"/>
<text text-anchor="start" x="3933" y="-18.5" font-family="Helvetica,sans-Serif" font-size="10.00">src/app/seamly2d/dialogs</text>
<text text-anchor="middle" x="3995.5" y="-7.5" font-family="Helvetica,sans-Serif" font-size="10.00">/decimalchart_dialog.cpp</text>
</a>
</g>
</g>
<!-- Node2&#45;&gt;Node10 -->
<g id="edge9" class="edge">
<title>Node2&#45;&gt;Node10</title>
<path fill="none" stroke="midnightblue" d="M2142.24,-67.09C2927.71,17.1 3134.82,-110.14 3916.5,-31 3919.27,-30.72 3922.1,-30.39 3924.95,-30.03"/>
<polygon fill="midnightblue" stroke="midnightblue" points="2141.67,-63.63 2132.1,-68.18 2142.42,-70.59 2141.67,-63.63"/>
</g>
<!-- Node11 -->
<g id="node11" class="node">
<title>Node11</title>
<g id="a_node11"><a xlink:href="../../dc/d63/preferencespatternpage_8cpp.html" target="_top" xlink:title=" ">
<polygon fill="white" stroke="black" points="4084.5,-0.5 4084.5,-30.5 4302.5,-30.5 4302.5,-0.5 4084.5,-0.5"/>
<text text-anchor="start" x="4092.5" y="-18.5" font-family="Helvetica,sans-Serif" font-size="10.00">src/app/seamly2d/dialogs</text>
<text text-anchor="middle" x="4193.5" y="-7.5" font-family="Helvetica,sans-Serif" font-size="10.00">/configpages/preferencespatternpage.cpp</text>
</a>
</g>
</g>
<!-- Node2&#45;&gt;Node11 -->
<g id="edge10" class="edge">
<title>Node2&#45;&gt;Node11</title>
<path fill="none" stroke="midnightblue" d="M2142.13,-67.12C2585.16,-21.55 3649.96,-61.02 4075.5,-31 4078.38,-30.8 4081.3,-30.57 4084.25,-30.33"/>
<polygon fill="midnightblue" stroke="midnightblue" points="2141.68,-63.65 2132.1,-68.18 2142.41,-70.61 2141.68,-63.65"/>
</g>
<!-- Node12 -->
<g id="node12" class="node">
<title>Node12</title>
<g id="a_node12"><a xlink:href="../../d6/d89/dialoglayoutprogress_8cpp.html" target="_top" xlink:title=" ">
<polygon fill="white" stroke="black" points="4321,-0.5 4321,-30.5 4464,-30.5 4464,-0.5 4321,-0.5"/>
<text text-anchor="start" x="4329" y="-18.5" font-family="Helvetica,sans-Serif" font-size="10.00">src/app/seamly2d/dialogs</text>
<text text-anchor="middle" x="4392.5" y="-7.5" font-family="Helvetica,sans-Serif" font-size="10.00">/dialoglayoutprogress.cpp</text>
</a>
</g>
</g>
<!-- Node2&#45;&gt;Node12 -->
<g id="edge11" class="edge">
<title>Node2&#45;&gt;Node12</title>
<path fill="none" stroke="midnightblue" d="M2142.36,-67.08C3102.41,34.25 3354.84,-123.95 4311.5,-31 4314.49,-30.71 4317.53,-30.37 4320.59,-29.99"/>
<polygon fill="midnightblue" stroke="midnightblue" points="2141.67,-63.63 2132.1,-68.17 2142.41,-70.59 2141.67,-63.63"/>
</g>
<!-- Node13 -->
<g id="node13" class="node">
<title>Node13</title>
<g id="a_node13"><a xlink:href="../../de/d87/dialognewpattern_8cpp.html" target="_top" xlink:title=" ">
<polygon fill="white" stroke="black" points="521,-0.5 521,-30.5 662,-30.5 662,-0.5 521,-0.5"/>
<text text-anchor="start" x="529" y="-18.5" font-family="Helvetica,sans-Serif" font-size="10.00">src/app/seamly2d/dialogs</text>
<text text-anchor="middle" x="591.5" y="-7.5" font-family="Helvetica,sans-Serif" font-size="10.00">/dialognewpattern.cpp</text>
</a>
</g>
</g>
<!-- Node2&#45;&gt;Node13 -->
<g id="edge12" class="edge">
<title>Node2&#45;&gt;Node13</title>
<path fill="none" stroke="midnightblue" d="M1994.66,-80.23C1744.73,-75.7 931.65,-59.13 671.5,-31 668.41,-30.67 665.27,-30.28 662.09,-29.86"/>
<polygon fill="midnightblue" stroke="midnightblue" points="1994.67,-83.73 2004.73,-80.41 1994.79,-76.73 1994.67,-83.73"/>
</g>
<!-- Node14 -->
<g id="node14" class="node">
<title>Node14</title>
<g id="a_node14"><a xlink:href="../../d5/d18/dialogpatternproperties_8cpp.html" target="_top" xlink:title=" ">
<polygon fill="white" stroke="black" points="680,-0.5 680,-30.5 835,-30.5 835,-0.5 680,-0.5"/>
<text text-anchor="start" x="688" y="-18.5" font-family="Helvetica,sans-Serif" font-size="10.00">src/app/seamly2d/dialogs</text>
<text text-anchor="middle" x="757.5" y="-7.5" font-family="Helvetica,sans-Serif" font-size="10.00">/dialogpatternproperties.cpp</text>
</a>
</g>
</g>
<!-- Node2&#45;&gt;Node14 -->
<g id="edge13" class="edge">
<title>Node2&#45;&gt;Node14</title>
<path fill="none" stroke="midnightblue" d="M1994.73,-81.63C1803.96,-81.3 1278.91,-75.99 844.5,-31 841.45,-30.68 838.35,-30.33 835.22,-29.94"/>
<polygon fill="midnightblue" stroke="midnightblue" points="1994.91,-85.14 2004.91,-81.65 1994.92,-78.14 1994.91,-85.14"/>
</g>
<!-- Node15 -->
<g id="node15" class="node">
<title>Node15</title>
<g id="a_node15"><a xlink:href="../../d5/dc5/dialogpreferences_8cpp.html" target="_top" xlink:title=" ">
<polygon fill="white" stroke="black" points="853,-0.5 853,-30.5 994,-30.5 994,-0.5 853,-0.5"/>
<text text-anchor="start" x="861" y="-18.5" font-family="Helvetica,sans-Serif" font-size="10.00">src/app/seamly2d/dialogs</text>
<text text-anchor="middle" x="923.5" y="-7.5" font-family="Helvetica,sans-Serif" font-size="10.00">/dialogpreferences.cpp</text>
</a>
</g>
</g>
<!-- Node2&#45;&gt;Node15 -->
<g id="edge14" class="edge">
<title>Node2&#45;&gt;Node15</title>
<path fill="none" stroke="midnightblue" d="M1994.92,-81.35C1821.58,-80.26 1374.29,-73.21 1003.5,-31 1000.41,-30.65 997.27,-30.25 994.1,-29.82"/>
<polygon fill="midnightblue" stroke="midnightblue" points="1994.93,-84.85 2004.95,-81.4 1994.97,-77.85 1994.93,-84.85"/>
</g>
<!-- Node16 -->
<g id="node16" class="node">
<title>Node16</title>
<g id="a_node16"><a xlink:href="../../d2/d2d/preferencesconfigurationpage_8cpp.html" target="_top" xlink:title=" ">
<polygon fill="white" stroke="black" points="1012,-0.5 1012,-30.5 1259,-30.5 1259,-0.5 1012,-0.5"/>
<text text-anchor="start" x="1020" y="-18.5" font-family="Helvetica,sans-Serif" font-size="10.00">src/app/seamly2d/dialogs</text>
<text text-anchor="middle" x="1135.5" y="-7.5" font-family="Helvetica,sans-Serif" font-size="10.00">/configpages/preferencesconfigurationpage.cpp</text>
</a>
</g>
</g>
<!-- Node2&#45;&gt;Node16 -->
<g id="edge15" class="edge">
<title>Node2&#45;&gt;Node16</title>
<path fill="none" stroke="midnightblue" d="M1994.64,-77.96C1853.44,-70.96 1535.49,-53.97 1268.5,-31 1265.38,-30.73 1262.21,-30.45 1259.02,-30.16"/>
<polygon fill="midnightblue" stroke="midnightblue" points="1994.75,-81.47 2004.91,-78.47 1995.09,-74.48 1994.75,-81.47"/>
</g>
<!-- Node17 -->
<g id="node17" class="node">
<title>Node17</title>
<g id="a_node17"><a xlink:href="../../dd/d54/export__layout__dialog_8cpp.html" target="_top" xlink:title=" ">
<polygon fill="white" stroke="black" points="1277,-0.5 1277,-30.5 1420,-30.5 1420,-0.5 1277,-0.5"/>
<text text-anchor="start" x="1285" y="-18.5" font-family="Helvetica,sans-Serif" font-size="10.00">src/app/seamly2d/dialogs</text>
<text text-anchor="middle" x="1348.5" y="-7.5" font-family="Helvetica,sans-Serif" font-size="10.00">/export_layout_dialog.cpp</text>
</a>
</g>
</g>
<!-- Node2&#45;&gt;Node17 -->
<g id="edge16" class="edge">
<title>Node2&#45;&gt;Node17</title>
<path fill="none" stroke="midnightblue" d="M1994.69,-78.03C1875.47,-71.89 1633.27,-57.23 1429.5,-31 1426.52,-30.62 1423.49,-30.2 1420.43,-29.76"/>
<polygon fill="midnightblue" stroke="midnightblue" points="1994.63,-81.53 2004.8,-78.54 1994.99,-74.54 1994.63,-81.53"/>
</g>
<!-- Node18 -->
<g id="node18" class="node">
<title>Node18</title>
<g id="a_node18"><a xlink:href="../../d0/dfa/layoutsettings__dialog_8cpp.html" target="_top" xlink:title=" ">
<polygon fill="white" stroke="black" points="1438,-0.5 1438,-30.5 1583,-30.5 1583,-0.5 1438,-0.5"/>
<text text-anchor="start" x="1446" y="-18.5" font-family="Helvetica,sans-Serif" font-size="10.00">src/app/seamly2d/dialogs</text>
<text text-anchor="middle" x="1510.5" y="-7.5" font-family="Helvetica,sans-Serif" font-size="10.00">/layoutsettings_dialog.cpp</text>
</a>
</g>
</g>
<!-- Node2&#45;&gt;Node18 -->
<g id="edge17" class="edge">
<title>Node2&#45;&gt;Node18</title>
<path fill="none" stroke="midnightblue" d="M1994.58,-75.26C1900.82,-66.97 1734.27,-51.03 1592.5,-31 1589.49,-30.58 1586.43,-30.12 1583.34,-29.65"/>
<polygon fill="midnightblue" stroke="midnightblue" points="1994.54,-78.77 2004.81,-76.16 1995.15,-71.79 1994.54,-78.77"/>
</g>
<!-- Node19 -->
<g id="node19" class="node">
<title>Node19</title>
<g id="a_node19"><a xlink:href="../../db/d5c/groups__widget_8cpp.html" target="_top" xlink:title=" ">
<polygon fill="white" stroke="black" points="1601,-0.5 1601,-30.5 1742,-30.5 1742,-0.5 1601,-0.5"/>
<text text-anchor="start" x="1609" y="-18.5" font-family="Helvetica,sans-Serif" font-size="10.00">src/app/seamly2d/dialogs</text>
<text text-anchor="middle" x="1671.5" y="-7.5" font-family="Helvetica,sans-Serif" font-size="10.00">/groups_widget.cpp</text>
</a>
</g>
</g>
<!-- Node2&#45;&gt;Node19 -->
<g id="edge18" class="edge">
<title>Node2&#45;&gt;Node19</title>
<path fill="none" stroke="midnightblue" d="M1994.94,-70.24C1930.65,-60.28 1834.81,-45.18 1751.5,-31 1748.44,-30.48 1745.31,-29.94 1742.16,-29.39"/>
<polygon fill="midnightblue" stroke="midnightblue" points="1994.56,-73.72 2004.98,-71.79 1995.63,-66.8 1994.56,-73.72"/>
</g>
<!-- Node20 -->
<g id="node20" class="node">
<title>Node20</title>
<g id="a_node20"><a xlink:href="../../dd/d84/shortcuts__dialog_8cpp.html" target="_top" xlink:title=" ">
<polygon fill="white" stroke="black" points="1760,-0.5 1760,-30.5 1901,-30.5 1901,-0.5 1760,-0.5"/>
<text text-anchor="start" x="1768" y="-18.5" font-family="Helvetica,sans-Serif" font-size="10.00">src/app/seamly2d/dialogs</text>
<text text-anchor="middle" x="1830.5" y="-7.5" font-family="Helvetica,sans-Serif" font-size="10.00">/shortcuts_dialog.cpp</text>
</a>
</g>
</g>
<!-- Node2&#45;&gt;Node20 -->
<g id="edge19" class="edge">
<title>Node2&#45;&gt;Node20</title>
<path fill="none" stroke="midnightblue" d="M2007.04,-64.71C1968.31,-54.14 1918.87,-40.63 1882.17,-30.61"/>
<polygon fill="midnightblue" stroke="midnightblue" points="2006.58,-68.22 2017.15,-67.48 2008.43,-61.46 2006.58,-68.22"/>
</g>
<!-- Node21 -->
<g id="node21" class="node">
<title>Node21</title>
<g id="a_node21"><a xlink:href="../../d2/df4/show__info__dialog_8cpp.html" target="_top" xlink:title=" ">
<polygon fill="white" stroke="black" points="1919,-0.5 1919,-30.5 2060,-30.5 2060,-0.5 1919,-0.5"/>
<text text-anchor="start" x="1927" y="-18.5" font-family="Helvetica,sans-Serif" font-size="10.00">src/app/seamly2d/dialogs</text>
<text text-anchor="middle" x="1989.5" y="-7.5" font-family="Helvetica,sans-Serif" font-size="10.00">/show_info_dialog.cpp</text>
</a>
</g>
</g>
<!-- Node2&#45;&gt;Node21 -->
<g id="edge20" class="edge">
<title>Node2&#45;&gt;Node21</title>
<path fill="none" stroke="midnightblue" d="M2043.44,-60.88C2031.44,-51.01 2017.37,-39.43 2006.61,-30.58"/>
<polygon fill="midnightblue" stroke="midnightblue" points="2041.41,-63.75 2051.36,-67.4 2045.86,-58.34 2041.41,-63.75"/>
</g>
<!-- Node22 -->
<g id="node22" class="node">
<title>Node22</title>
<g id="a_node22"><a xlink:href="../../df/d69/welcome__dialog_8cpp.html" target="_top" xlink:title=" ">
<polygon fill="white" stroke="black" points="2078,-0.5 2078,-30.5 2219,-30.5 2219,-0.5 2078,-0.5"/>
<text text-anchor="start" x="2086" y="-18.5" font-family="Helvetica,sans-Serif" font-size="10.00">src/app/seamly2d/dialogs</text>
<text text-anchor="middle" x="2148.5" y="-7.5" font-family="Helvetica,sans-Serif" font-size="10.00">/welcome_dialog.cpp</text>
</a>
</g>
</g>
<!-- Node2&#45;&gt;Node22 -->
<g id="edge21" class="edge">
<title>Node2&#45;&gt;Node22</title>
<path fill="none" stroke="midnightblue" d="M2093.87,-60.88C2106.03,-51.01 2120.28,-39.43 2131.18,-30.58"/>
<polygon fill="midnightblue" stroke="midnightblue" points="2091.41,-58.37 2085.86,-67.4 2095.83,-63.81 2091.41,-58.37"/>
</g>
<!-- Node23 -->
<g id="node23" class="node">
<title>Node23</title>
<g id="a_node23"><a xlink:href="../../dc/d14/app_2seamly2d_2main_8cpp.html" target="_top" xlink:title=" ">
<polygon fill="white" stroke="black" points="145,-6 145,-25 296,-25 296,-6 145,-6"/>
<text text-anchor="middle" x="220.5" y="-13" font-family="Helvetica,sans-Serif" font-size="10.00">src/app/seamly2d/main.cpp</text>
</a>
</g>
</g>
<!-- Node2&#45;&gt;Node23 -->
<g id="edge22" class="edge">
<title>Node2&#45;&gt;Node23</title>
<path fill="none" stroke="midnightblue" d="M1994.21,-80.76C1703.28,-77.66 640.91,-64.25 305.5,-31 291.79,-29.64 276.96,-27.39 263.58,-25.06"/>
<polygon fill="midnightblue" stroke="midnightblue" points="1994.6,-84.27 2004.64,-80.87 1994.68,-77.27 1994.6,-84.27"/>
</g>
<!-- Node24 -->
<g id="node24" class="node">
<title>Node24</title>
<g id="a_node24"><a xlink:href="../../d8/de8/mainwindowsnogui_8cpp.html" target="_top" xlink:title=" ">
<polygon fill="white" stroke="black" points="2237,-6 2237,-25 2458,-25 2458,-6 2237,-6"/>
<text text-anchor="middle" x="2347.5" y="-13" font-family="Helvetica,sans-Serif" font-size="10.00">src/app/seamly2d/mainwindowsnogui.cpp</text>
</a>
</g>
</g>
<!-- Node2&#45;&gt;Node24 -->
<g id="edge23" class="edge">
<title>Node2&#45;&gt;Node24</title>
<path fill="none" stroke="midnightblue" d="M2138.68,-65.15C2193.43,-52.39 2267.27,-35.19 2310.89,-25.03"/>
<polygon fill="midnightblue" stroke="midnightblue" points="2137.64,-61.8 2128.7,-67.48 2139.23,-68.62 2137.64,-61.8"/>
</g>
<!-- Node25 -->
<g id="node25" class="node">
<title>Node25</title>
<g id="a_node25"><a xlink:href="../../d3/d49/vpattern_8cpp.html" target="_top" xlink:title=" ">
<polygon fill="white" stroke="black" points="2476,-0.5 2476,-30.5 2601,-30.5 2601,-0.5 2476,-0.5"/>
<text text-anchor="start" x="2484" y="-18.5" font-family="Helvetica,sans-Serif" font-size="10.00">src/app/seamly2d/xml</text>
<text text-anchor="middle" x="2538.5" y="-7.5" font-family="Helvetica,sans-Serif" font-size="10.00">/vpattern.cpp</text>
</a>
</g>
</g>
<!-- Node2&#45;&gt;Node25 -->
<g id="edge24" class="edge">
<title>Node2&#45;&gt;Node25</title>
<path fill="none" stroke="midnightblue" d="M2142.31,-66.97C2287.32,-45.16 2326.73,-53.1 2467.5,-31 2470.23,-30.57 2473.02,-30.11 2475.84,-29.62"/>
<polygon fill="midnightblue" stroke="midnightblue" points="2141.5,-63.55 2132.14,-68.52 2142.56,-70.47 2141.5,-63.55"/>
</g>
<!-- Node26 -->
<g id="node26" class="node">
<title>Node26</title>
<g id="a_node26"><a xlink:href="../../d8/dd9/mainwindow_8cpp.html" target="_top" xlink:title=" ">
<polygon fill="white" stroke="black" points="314.5,-6 314.5,-25 502.5,-25 502.5,-6 314.5,-6"/>
<text text-anchor="middle" x="408.5" y="-13" font-family="Helvetica,sans-Serif" font-size="10.00">src/app/seamly2d/mainwindow.cpp</text>
</a>
</g>
</g>
<!-- Node2&#45;&gt;Node26 -->
<g id="edge25" class="edge">
<title>Node2&#45;&gt;Node26</title>
<path fill="none" stroke="midnightblue" d="M1994.7,-81.88C1771.08,-82.43 1081.44,-79.76 512.5,-31 495.88,-29.58 477.86,-27.32 461.55,-25"/>
<polygon fill="midnightblue" stroke="midnightblue" points="1995.01,-85.38 2005,-81.85 1994.99,-78.38 1995.01,-85.38"/>
</g>
<!-- Node27 -->
<g id="node27" class="node">
<title>Node27</title>
<g id="a_node27"><a xlink:href="../../d9/da3/image__tool_8cpp.html" target="_top" xlink:title=" ">
<polygon fill="white" stroke="black" points="2619,-0.5 2619,-30.5 2736,-30.5 2736,-0.5 2619,-0.5"/>
<text text-anchor="start" x="2627" y="-18.5" font-family="Helvetica,sans-Serif" font-size="10.00">src/libs/tools/images</text>
<text text-anchor="middle" x="2677.5" y="-7.5" font-family="Helvetica,sans-Serif" font-size="10.00">/image_tool.cpp</text>
</a>
</g>
</g>
<!-- Node2&#45;&gt;Node27 -->
<g id="edge26" class="edge">
<title>Node2&#45;&gt;Node27</title>
<path fill="none" stroke="midnightblue" d="M2142.16,-67.04C2350.37,-39.28 2406.86,-60.71 2610.5,-31 2613.21,-30.6 2615.97,-30.16 2618.76,-29.69"/>
<polygon fill="midnightblue" stroke="midnightblue" points="2141.57,-63.59 2132.13,-68.4 2142.51,-70.52 2141.57,-63.59"/>
</g>
<!-- Node29&#45;&gt;Node3 -->
<g id="edge29" class="edge">
<title>Node29&#45;&gt;Node3</title>
<path fill="none" stroke="midnightblue" d="M271.67,-70.41C229.17,-59.4 163.9,-42.5 117.79,-30.56"/>
<polygon fill="midnightblue" stroke="midnightblue" points="270.87,-73.82 281.43,-72.94 272.62,-67.04 270.87,-73.82"/>
</g>
<!-- Node29&#45;&gt;Node23 -->
<g id="edge30" class="edge">
<title>Node29&#45;&gt;Node23</title>
<path fill="none" stroke="midnightblue" d="M293.41,-66.92C274.83,-54.07 248.38,-35.78 232.98,-25.13"/>
<polygon fill="midnightblue" stroke="midnightblue" points="291.61,-69.93 301.82,-72.73 295.59,-64.17 291.61,-69.93"/>
</g>
<!-- Node29&#45;&gt;Node26 -->
<g id="edge31" class="edge">
<title>Node29&#45;&gt;Node26</title>
<path fill="none" stroke="midnightblue" d="M335.59,-66.92C354.17,-54.07 380.62,-35.78 396.02,-25.13"/>
<polygon fill="midnightblue" stroke="midnightblue" points="333.41,-64.17 327.18,-72.73 337.39,-69.93 333.41,-64.17"/>
</g>
</g>
</svg>
