<?xml version="1.0" encoding="UTF-8" standalone="no"?>
<!DOCTYPE svg PUBLIC "-//W3C//DTD SVG 1.1//EN"
 "http://www.w3.org/Graphics/SVG/1.1/DTD/svg11.dtd">
<!-- Generated by graphviz version 2.43.0 (0)
 -->
<!-- Title: src/app/seamly2d/core/vcmdexport.h Pages: 1 -->
<svg width="4617pt" height="173pt"
 viewBox="0.00 0.00 4617.00 173.00" xmlns="http://www.w3.org/2000/svg" xmlns:xlink="http://www.w3.org/1999/xlink">
<g id="graph0" class="graph" transform="scale(1 1) rotate(0) translate(4 169)">
<title>src/app/seamly2d/core/vcmdexport.h</title>
<polygon fill="white" stroke="transparent" points="-4,4 -4,-169 4613,-169 4613,4 -4,4"/>
<!-- Node1 -->
<g id="node1" class="node">
<title>Node1</title>
<g id="a_node1"><a xlink:title=" ">
<polygon fill="#bfbfbf" stroke="black" points="2092,-134.5 2092,-164.5 2219,-164.5 2219,-134.5 2092,-134.5"/>
<text text-anchor="start" x="2100" y="-152.5" font-family="Helvetica,sans-Serif" font-size="10.00">src/app/seamly2d/core</text>
<text text-anchor="middle" x="2155.5" y="-141.5" font-family="Helvetica,sans-Serif" font-size="10.00">/vcmdexport.h</text>
</a>
</g>
</g>
<!-- Node2 -->
<g id="node2" class="node">
<title>Node2</title>
<g id="a_node2"><a xlink:href="../../d7/d61/application__2d_8h.html" target="_top" xlink:title=" ">
<polygon fill="white" stroke="black" points="2092,-67.5 2092,-97.5 2219,-97.5 2219,-67.5 2092,-67.5"/>
<text text-anchor="start" x="2100" y="-85.5" font-family="Helvetica,sans-Serif" font-size="10.00">src/app/seamly2d/core</text>
<text text-anchor="middle" x="2155.5" y="-74.5" font-family="Helvetica,sans-Serif" font-size="10.00">/application_2d.h</text>
</a>
</g>
</g>
<!-- Node1&#45;&gt;Node2 -->
<g id="edge1" class="edge">
<title>Node1&#45;&gt;Node2</title>
<path fill="none" stroke="midnightblue" d="M2155.5,-124.11C2155.5,-115.15 2155.5,-105.32 2155.5,-97.58"/>
<polygon fill="midnightblue" stroke="midnightblue" points="2152,-124.4 2155.5,-134.4 2159,-124.4 2152,-124.4"/>
</g>
<!-- Node28 -->
<g id="node28" class="node">
<title>Node28</title>
<g id="a_node28"><a xlink:href="../../df/d9b/vcmdexport_8cpp.html" target="_top" xlink:title=" ">
<polygon fill="white" stroke="black" points="2237,-67.5 2237,-97.5 2364,-97.5 2364,-67.5 2237,-67.5"/>
<text text-anchor="start" x="2245" y="-85.5" font-family="Helvetica,sans-Serif" font-size="10.00">src/app/seamly2d/core</text>
<text text-anchor="middle" x="2300.5" y="-74.5" font-family="Helvetica,sans-Serif" font-size="10.00">/vcmdexport.cpp</text>
</a>
</g>
</g>
<!-- Node1&#45;&gt;Node28 -->
<g id="edge27" class="edge">
<title>Node1&#45;&gt;Node28</title>
<path fill="none" stroke="midnightblue" d="M2196.17,-130.27C2219.26,-119.92 2247.74,-107.15 2269.1,-97.58"/>
<polygon fill="midnightblue" stroke="midnightblue" points="2194.66,-127.11 2186.96,-134.4 2197.52,-133.5 2194.66,-127.11"/>
</g>
<!-- Node29 -->
<g id="node29" class="node">
<title>Node29</title>
<g id="a_node29"><a xlink:href="../../d9/d53/mainwindow_8h.html" target="_top" xlink:title=" ">
<polygon fill="white" stroke="black" points="277.5,-73 277.5,-92 453.5,-92 453.5,-73 277.5,-73"/>
<text text-anchor="middle" x="365.5" y="-80" font-family="Helvetica,sans-Serif" font-size="10.00">src/app/seamly2d/mainwindow.h</text>
</a>
</g>
</g>
<!-- Node1&#45;&gt;Node29 -->
<g id="edge28" class="edge">
<title>Node1&#45;&gt;Node29</title>
<path fill="none" stroke="midnightblue" d="M2081.54,-145.81C1795.55,-135.43 762.81,-97.93 453.58,-86.7"/>
<polygon fill="midnightblue" stroke="midnightblue" points="2081.67,-149.32 2091.79,-146.19 2081.93,-142.33 2081.67,-149.32"/>
</g>
<!-- Node3 -->
<g id="node3" class="node">
<title>Node3</title>
<g id="a_node3"><a xlink:href="../../df/d3e/application__2d_8cpp.html" target="_top" xlink:title=" ">
<polygon fill="white" stroke="black" points="145,-0.5 145,-30.5 272,-30.5 272,-0.5 145,-0.5"/>
<text text-anchor="start" x="153" y="-18.5" font-family="Helvetica,sans-Serif" font-size="10.00">src/app/seamly2d/core</text>
<text text-anchor="middle" x="208.5" y="-7.5" font-family="Helvetica,sans-Serif" font-size="10.00">/application_2d.cpp</text>
</a>
</g>
</g>
<!-- Node2&#45;&gt;Node3 -->
<g id="edge2" class="edge">
<title>Node2&#45;&gt;Node3</title>
<path fill="none" stroke="midnightblue" d="M2081.57,-81.18C1779.7,-79.61 639.51,-71.09 281.5,-31 278.42,-30.65 275.27,-30.25 272.1,-29.79"/>
<polygon fill="midnightblue" stroke="midnightblue" points="2081.94,-84.68 2091.96,-81.23 2081.98,-77.68 2081.94,-84.68"/>
</g>
<!-- Node4 -->
<g id="node4" class="node">
<title>Node4</title>
<g id="a_node4"><a xlink:href="../../dd/db4/abstractlayout__dialog_8cpp.html" target="_top" xlink:title=" ">
<polygon fill="white" stroke="black" points="2302.5,-0.5 2302.5,-30.5 2448.5,-30.5 2448.5,-0.5 2302.5,-0.5"/>
<text text-anchor="start" x="2310.5" y="-18.5" font-family="Helvetica,sans-Serif" font-size="10.00">src/app/seamly2d/dialogs</text>
<text text-anchor="middle" x="2375.5" y="-7.5" font-family="Helvetica,sans-Serif" font-size="10.00">/abstractlayout_dialog.cpp</text>
</a>
</g>
</g>
<!-- Node2&#45;&gt;Node4 -->
<g id="edge3" class="edge">
<title>Node2&#45;&gt;Node4</title>
<path fill="none" stroke="midnightblue" d="M2212.77,-64.58C2248.5,-54.02 2293.96,-40.59 2327.74,-30.61"/>
<polygon fill="midnightblue" stroke="midnightblue" points="2211.56,-61.29 2202.97,-67.48 2213.55,-68 2211.56,-61.29"/>
</g>
<!-- Node5 -->
<g id="node5" class="node">
<title>Node5</title>
<g id="a_node5"><a xlink:href="../../d9/d7f/about2d__dialog_8cpp.html" target="_top" xlink:title=" ">
<polygon fill="white" stroke="black" points="2467,-0.5 2467,-30.5 2608,-30.5 2608,-0.5 2467,-0.5"/>
<text text-anchor="start" x="2475" y="-18.5" font-family="Helvetica,sans-Serif" font-size="10.00">src/app/seamly2d/dialogs</text>
<text text-anchor="middle" x="2537.5" y="-7.5" font-family="Helvetica,sans-Serif" font-size="10.00">/about2d_dialog.cpp</text>
</a>
</g>
</g>
<!-- Node2&#45;&gt;Node5 -->
<g id="edge4" class="edge">
<title>Node2&#45;&gt;Node5</title>
<path fill="none" stroke="midnightblue" d="M2229.31,-66.9C2331.63,-48.9 2359.09,-47.65 2457.5,-31 2460.56,-30.48 2463.69,-29.95 2466.85,-29.4"/>
<polygon fill="midnightblue" stroke="midnightblue" points="2228.41,-63.51 2219.17,-68.7 2229.63,-70.4 2228.41,-63.51"/>
</g>
<!-- Node6 -->
<g id="node6" class="node">
<title>Node6</title>
<g id="a_node6"><a xlink:href="../../d7/dfa/calculator__dialog_8cpp.html" target="_top" xlink:title=" ">
<polygon fill="white" stroke="black" points="2626,-0.5 2626,-30.5 2767,-30.5 2767,-0.5 2626,-0.5"/>
<text text-anchor="start" x="2634" y="-18.5" font-family="Helvetica,sans-Serif" font-size="10.00">src/app/seamly2d/dialogs</text>
<text text-anchor="middle" x="2696.5" y="-7.5" font-family="Helvetica,sans-Serif" font-size="10.00">/calculator_dialog.cpp</text>
</a>
</g>
</g>
<!-- Node2&#45;&gt;Node6 -->
<g id="edge5" class="edge">
<title>Node2&#45;&gt;Node6</title>
<path fill="none" stroke="midnightblue" d="M2229.08,-67.03C2402.05,-42.51 2448.69,-54.26 2617.5,-31 2620.26,-30.62 2623.08,-30.21 2625.92,-29.78"/>
<polygon fill="midnightblue" stroke="midnightblue" points="2228.53,-63.57 2219.13,-68.46 2229.53,-70.5 2228.53,-63.57"/>
</g>
<!-- Node7 -->
<g id="node7" class="node">
<title>Node7</title>
<g id="a_node7"><a xlink:href="../../d2/d2d/preferencesconfigurationpage_8cpp.html" target="_top" xlink:title=" ">
<polygon fill="white" stroke="black" points="2785,-0.5 2785,-30.5 3032,-30.5 3032,-0.5 2785,-0.5"/>
<text text-anchor="start" x="2793" y="-18.5" font-family="Helvetica,sans-Serif" font-size="10.00">src/app/seamly2d/dialogs</text>
<text text-anchor="middle" x="2908.5" y="-7.5" font-family="Helvetica,sans-Serif" font-size="10.00">/configpages/preferencesconfigurationpage.cpp</text>
</a>
</g>
</g>
<!-- Node2&#45;&gt;Node7 -->
<g id="edge6" class="edge">
<title>Node2&#45;&gt;Node7</title>
<path fill="none" stroke="midnightblue" d="M2229.33,-67.02C2472.25,-35.62 2536.68,-52.04 2776.5,-31 2779.26,-30.76 2782.04,-30.51 2784.85,-30.25"/>
<polygon fill="midnightblue" stroke="midnightblue" points="2228.58,-63.59 2219.12,-68.36 2229.49,-70.53 2228.58,-63.59"/>
</g>
<!-- Node8 -->
<g id="node8" class="node">
<title>Node8</title>
<g id="a_node8"><a xlink:href="../../d9/d70/preferencesgraphicsviewpage_8cpp.html" target="_top" xlink:title=" ">
<polygon fill="white" stroke="black" points="3050.5,-0.5 3050.5,-30.5 3298.5,-30.5 3298.5,-0.5 3050.5,-0.5"/>
<text text-anchor="start" x="3058.5" y="-18.5" font-family="Helvetica,sans-Serif" font-size="10.00">src/app/seamly2d/dialogs</text>
<text text-anchor="middle" x="3174.5" y="-7.5" font-family="Helvetica,sans-Serif" font-size="10.00">/configpages/preferencesgraphicsviewpage.cpp</text>
</a>
</g>
</g>
<!-- Node2&#45;&gt;Node8 -->
<g id="edge7" class="edge">
<title>Node2&#45;&gt;Node8</title>
<path fill="none" stroke="midnightblue" d="M2229.29,-67.05C2589.33,-24.29 2684.21,-58.36 3041.5,-31 3044.39,-30.78 3047.32,-30.54 3050.28,-30.3"/>
<polygon fill="midnightblue" stroke="midnightblue" points="2228.62,-63.61 2219.11,-68.27 2229.46,-70.56 2228.62,-63.61"/>
</g>
<!-- Node9 -->
<g id="node9" class="node">
<title>Node9</title>
<g id="a_node9"><a xlink:href="../../dc/d20/preferencespathpage_8cpp.html" target="_top" xlink:title=" ">
<polygon fill="white" stroke="black" points="3317,-0.5 3317,-30.5 3522,-30.5 3522,-0.5 3317,-0.5"/>
<text text-anchor="start" x="3325" y="-18.5" font-family="Helvetica,sans-Serif" font-size="10.00">src/app/seamly2d/dialogs</text>
<text text-anchor="middle" x="3419.5" y="-7.5" font-family="Helvetica,sans-Serif" font-size="10.00">/configpages/preferencespathpage.cpp</text>
</a>
</g>
</g>
<!-- Node2&#45;&gt;Node9 -->
<g id="edge8" class="edge">
<title>Node2&#45;&gt;Node9</title>
<path fill="none" stroke="midnightblue" d="M2229.37,-67.06C2706.94,-12.89 2832.64,-69.57 3307.5,-31 3310.53,-30.75 3313.6,-30.48 3316.7,-30.2"/>
<polygon fill="midnightblue" stroke="midnightblue" points="2228.64,-63.62 2219.11,-68.23 2229.44,-70.57 2228.64,-63.62"/>
</g>
<!-- Node10 -->
<g id="node10" class="node">
<title>Node10</title>
<g id="a_node10"><a xlink:href="../../dd/dc2/decimalchart__dialog_8cpp.html" target="_top" xlink:title=" ">
<polygon fill="white" stroke="black" points="3540,-0.5 3540,-30.5 3681,-30.5 3681,-0.5 3540,-0.5"/>
<text text-anchor="start" x="3548" y="-18.5" font-family="Helvetica,sans-Serif" font-size="10.00">src/app/seamly2d/dialogs</text>
<text text-anchor="middle" x="3610.5" y="-7.5" font-family="Helvetica,sans-Serif" font-size="10.00">/decimalchart_dialog.cpp</text>
</a>
</g>
</g>
<!-- Node2&#45;&gt;Node10 -->
<g id="edge9" class="edge">
<title>Node2&#45;&gt;Node10</title>
<path fill="none" stroke="midnightblue" d="M2229.34,-67.07C2806,-3.38 2958.71,-91.12 3531.5,-31 3534.27,-30.71 3537.1,-30.37 3539.94,-30.01"/>
<polygon fill="midnightblue" stroke="midnightblue" points="2228.65,-63.62 2219.1,-68.21 2229.43,-70.58 2228.65,-63.62"/>
</g>
<!-- Node11 -->
<g id="node11" class="node">
<title>Node11</title>
<g id="a_node11"><a xlink:href="../../dc/d63/preferencespatternpage_8cpp.html" target="_top" xlink:title=" ">
<polygon fill="white" stroke="black" points="3699.5,-0.5 3699.5,-30.5 3917.5,-30.5 3917.5,-0.5 3699.5,-0.5"/>
<text text-anchor="start" x="3707.5" y="-18.5" font-family="Helvetica,sans-Serif" font-size="10.00">src/app/seamly2d/dialogs</text>
<text text-anchor="middle" x="3808.5" y="-7.5" font-family="Helvetica,sans-Serif" font-size="10.00">/configpages/preferencespatternpage.cpp</text>
</a>
</g>
</g>
<!-- Node2&#45;&gt;Node11 -->
<g id="edge10" class="edge">
<title>Node2&#45;&gt;Node11</title>
<path fill="none" stroke="midnightblue" d="M2229.14,-67.09C2876.25,3.73 3045.6,-78.45 3690.5,-31 3693.38,-30.79 3696.3,-30.56 3699.25,-30.31"/>
<polygon fill="midnightblue" stroke="midnightblue" points="2228.66,-63.63 2219.1,-68.2 2229.42,-70.58 2228.66,-63.63"/>
</g>
<!-- Node12 -->
<g id="node12" class="node">
<title>Node12</title>
<g id="a_node12"><a xlink:href="../../d2/d00/vtooloptionspropertybrowser_8cpp.html" target="_top" xlink:title=" ">
<polygon fill="white" stroke="black" points="3935.5,-0.5 3935.5,-30.5 4115.5,-30.5 4115.5,-0.5 3935.5,-0.5"/>
<text text-anchor="start" x="3943.5" y="-18.5" font-family="Helvetica,sans-Serif" font-size="10.00">src/app/seamly2d/core</text>
<text text-anchor="middle" x="4025.5" y="-7.5" font-family="Helvetica,sans-Serif" font-size="10.00">/vtooloptionspropertybrowser.cpp</text>
</a>
</g>
</g>
<!-- Node2&#45;&gt;Node12 -->
<g id="edge11" class="edge">
<title>Node2&#45;&gt;Node12</title>
<path fill="none" stroke="midnightblue" d="M2229.08,-67.1C2980.61,13.89 3177.59,-93.54 3926.5,-31 3929.44,-30.75 3932.43,-30.48 3935.45,-30.17"/>
<polygon fill="midnightblue" stroke="midnightblue" points="2228.66,-63.63 2219.1,-68.19 2229.42,-70.59 2228.66,-63.63"/>
</g>
<!-- Node13 -->
<g id="node13" class="node">
<title>Node13</title>
<g id="a_node13"><a xlink:href="../../d6/d89/dialoglayoutprogress_8cpp.html" target="_top" xlink:title=" ">
<polygon fill="white" stroke="black" points="4134,-0.5 4134,-30.5 4277,-30.5 4277,-0.5 4134,-0.5"/>
<text text-anchor="start" x="4142" y="-18.5" font-family="Helvetica,sans-Serif" font-size="10.00">src/app/seamly2d/dialogs</text>
<text text-anchor="middle" x="4205.5" y="-7.5" font-family="Helvetica,sans-Serif" font-size="10.00">/dialoglayoutprogress.cpp</text>
</a>
</g>
</g>
<!-- Node2&#45;&gt;Node13 -->
<g id="edge12" class="edge">
<title>Node2&#45;&gt;Node13</title>
<path fill="none" stroke="midnightblue" d="M2229.31,-67.08C3068.23,22.36 3289.11,-113.18 4124.5,-31 4127.49,-30.71 4130.53,-30.36 4133.59,-29.98"/>
<polygon fill="midnightblue" stroke="midnightblue" points="2228.67,-63.63 2219.1,-68.18 2229.42,-70.59 2228.67,-63.63"/>
</g>
<!-- Node14 -->
<g id="node14" class="node">
<title>Node14</title>
<g id="a_node14"><a xlink:href="../../de/d87/dialognewpattern_8cpp.html" target="_top" xlink:title=" ">
<polygon fill="white" stroke="black" points="4295,-0.5 4295,-30.5 4436,-30.5 4436,-0.5 4295,-0.5"/>
<text text-anchor="start" x="4303" y="-18.5" font-family="Helvetica,sans-Serif" font-size="10.00">src/app/seamly2d/dialogs</text>
<text text-anchor="middle" x="4365.5" y="-7.5" font-family="Helvetica,sans-Serif" font-size="10.00">/dialognewpattern.cpp</text>
</a>
</g>
</g>
<!-- Node2&#45;&gt;Node14 -->
<g id="edge13" class="edge">
<title>Node2&#45;&gt;Node14</title>
<path fill="none" stroke="midnightblue" d="M2229.17,-67.1C3139.85,29.39 3379.55,-121.55 4286.5,-31 4289.28,-30.72 4292.1,-30.4 4294.95,-30.04"/>
<polygon fill="midnightblue" stroke="midnightblue" points="2228.67,-63.63 2219.1,-68.17 2229.41,-70.59 2228.67,-63.63"/>
</g>
<!-- Node15 -->
<g id="node15" class="node">
<title>Node15</title>
<g id="a_node15"><a xlink:href="../../d5/d18/dialogpatternproperties_8cpp.html" target="_top" xlink:title=" ">
<polygon fill="white" stroke="black" points="4454,-0.5 4454,-30.5 4609,-30.5 4609,-0.5 4454,-0.5"/>
<text text-anchor="start" x="4462" y="-18.5" font-family="Helvetica,sans-Serif" font-size="10.00">src/app/seamly2d/dialogs</text>
<text text-anchor="middle" x="4531.5" y="-7.5" font-family="Helvetica,sans-Serif" font-size="10.00">/dialogpatternproperties.cpp</text>
</a>
</g>
</g>
<!-- Node2&#45;&gt;Node15 -->
<g id="edge14" class="edge">
<title>Node2&#45;&gt;Node15</title>
<path fill="none" stroke="midnightblue" d="M2229.07,-67.13C2734.73,-15.59 3958.07,-75.79 4445.5,-31 4448.21,-30.75 4450.97,-30.46 4453.75,-30.15"/>
<polygon fill="midnightblue" stroke="midnightblue" points="2228.68,-63.65 2219.1,-68.17 2229.41,-70.61 2228.68,-63.65"/>
</g>
<!-- Node16 -->
<g id="node16" class="node">
<title>Node16</title>
<g id="a_node16"><a xlink:href="../../d5/dc5/dialogpreferences_8cpp.html" target="_top" xlink:title=" ">
<polygon fill="white" stroke="black" points="666,-0.5 666,-30.5 807,-30.5 807,-0.5 666,-0.5"/>
<text text-anchor="start" x="674" y="-18.5" font-family="Helvetica,sans-Serif" font-size="10.00">src/app/seamly2d/dialogs</text>
<text text-anchor="middle" x="736.5" y="-7.5" font-family="Helvetica,sans-Serif" font-size="10.00">/dialogpreferences.cpp</text>
</a>
</g>
</g>
<!-- Node2&#45;&gt;Node16 -->
<g id="edge15" class="edge">
<title>Node2&#45;&gt;Node16</title>
<path fill="none" stroke="midnightblue" d="M2081.47,-80.09C1838.18,-75.24 1064.72,-58.04 816.5,-31 813.41,-30.66 810.27,-30.28 807.09,-29.85"/>
<polygon fill="midnightblue" stroke="midnightblue" points="2081.55,-83.59 2091.62,-80.29 2081.69,-76.59 2081.55,-83.59"/>
</g>
<!-- Node17 -->
<g id="node17" class="node">
<title>Node17</title>
<g id="a_node17"><a xlink:href="../../dd/d54/export__layout__dialog_8cpp.html" target="_top" xlink:title=" ">
<polygon fill="white" stroke="black" points="825,-0.5 825,-30.5 968,-30.5 968,-0.5 825,-0.5"/>
<text text-anchor="start" x="833" y="-18.5" font-family="Helvetica,sans-Serif" font-size="10.00">src/app/seamly2d/dialogs</text>
<text text-anchor="middle" x="896.5" y="-7.5" font-family="Helvetica,sans-Serif" font-size="10.00">/export_layout_dialog.cpp</text>
</a>
</g>
</g>
<!-- Node2&#45;&gt;Node17 -->
<g id="edge16" class="edge">
<title>Node2&#45;&gt;Node17</title>
<path fill="none" stroke="midnightblue" d="M2081.53,-81.77C1895.46,-81.7 1393.1,-76.9 977.5,-31 974.52,-30.67 971.48,-30.3 968.42,-29.89"/>
<polygon fill="midnightblue" stroke="midnightblue" points="2081.74,-85.27 2091.74,-81.77 2081.74,-78.27 2081.74,-85.27"/>
</g>
<!-- Node18 -->
<g id="node18" class="node">
<title>Node18</title>
<g id="a_node18"><a xlink:href="../../db/d5c/groups__widget_8cpp.html" target="_top" xlink:title=" ">
<polygon fill="white" stroke="black" points="986,-0.5 986,-30.5 1127,-30.5 1127,-0.5 986,-0.5"/>
<text text-anchor="start" x="994" y="-18.5" font-family="Helvetica,sans-Serif" font-size="10.00">src/app/seamly2d/dialogs</text>
<text text-anchor="middle" x="1056.5" y="-7.5" font-family="Helvetica,sans-Serif" font-size="10.00">/groups_widget.cpp</text>
</a>
</g>
</g>
<!-- Node2&#45;&gt;Node18 -->
<g id="edge17" class="edge">
<title>Node2&#45;&gt;Node18</title>
<path fill="none" stroke="midnightblue" d="M2081.54,-81.12C1913.2,-79.53 1488.76,-71.48 1136.5,-31 1133.41,-30.65 1130.27,-30.24 1127.1,-29.81"/>
<polygon fill="midnightblue" stroke="midnightblue" points="2081.74,-84.62 2091.77,-81.21 2081.8,-77.62 2081.74,-84.62"/>
</g>
<!-- Node19 -->
<g id="node19" class="node">
<title>Node19</title>
<g id="a_node19"><a xlink:href="../../d0/dfa/layoutsettings__dialog_8cpp.html" target="_top" xlink:title=" ">
<polygon fill="white" stroke="black" points="1145,-0.5 1145,-30.5 1290,-30.5 1290,-0.5 1145,-0.5"/>
<text text-anchor="start" x="1153" y="-18.5" font-family="Helvetica,sans-Serif" font-size="10.00">src/app/seamly2d/dialogs</text>
<text text-anchor="middle" x="1217.5" y="-7.5" font-family="Helvetica,sans-Serif" font-size="10.00">/layoutsettings_dialog.cpp</text>
</a>
</g>
</g>
<!-- Node2&#45;&gt;Node19 -->
<g id="edge18" class="edge">
<title>Node2&#45;&gt;Node19</title>
<path fill="none" stroke="midnightblue" d="M2081.56,-80.03C1932.94,-76.43 1587.55,-64.85 1299.5,-31 1296.48,-30.65 1293.41,-30.25 1290.31,-29.83"/>
<polygon fill="midnightblue" stroke="midnightblue" points="2081.84,-83.53 2091.92,-80.27 2082.01,-76.54 2081.84,-83.53"/>
</g>
<!-- Node20 -->
<g id="node20" class="node">
<title>Node20</title>
<g id="a_node20"><a xlink:href="../../df/d69/welcome__dialog_8cpp.html" target="_top" xlink:title=" ">
<polygon fill="white" stroke="black" points="1308,-0.5 1308,-30.5 1449,-30.5 1449,-0.5 1308,-0.5"/>
<text text-anchor="start" x="1316" y="-18.5" font-family="Helvetica,sans-Serif" font-size="10.00">src/app/seamly2d/dialogs</text>
<text text-anchor="middle" x="1378.5" y="-7.5" font-family="Helvetica,sans-Serif" font-size="10.00">/welcome_dialog.cpp</text>
</a>
</g>
</g>
<!-- Node2&#45;&gt;Node20 -->
<g id="edge19" class="edge">
<title>Node2&#45;&gt;Node20</title>
<path fill="none" stroke="midnightblue" d="M2081.81,-78.75C1954.36,-73.43 1684.68,-59.61 1458.5,-31 1455.42,-30.61 1452.28,-30.18 1449.11,-29.72"/>
<polygon fill="midnightblue" stroke="midnightblue" points="2081.71,-82.25 2091.85,-79.17 2082,-75.26 2081.71,-82.25"/>
</g>
<!-- Node21 -->
<g id="node21" class="node">
<title>Node21</title>
<g id="a_node21"><a xlink:href="../../dd/d84/shortcuts__dialog_8cpp.html" target="_top" xlink:title=" ">
<polygon fill="white" stroke="black" points="1467,-0.5 1467,-30.5 1608,-30.5 1608,-0.5 1467,-0.5"/>
<text text-anchor="start" x="1475" y="-18.5" font-family="Helvetica,sans-Serif" font-size="10.00">src/app/seamly2d/dialogs</text>
<text text-anchor="middle" x="1537.5" y="-7.5" font-family="Helvetica,sans-Serif" font-size="10.00">/shortcuts_dialog.cpp</text>
</a>
</g>
</g>
<!-- Node2&#45;&gt;Node21 -->
<g id="edge20" class="edge">
<title>Node2&#45;&gt;Node21</title>
<path fill="none" stroke="midnightblue" d="M2081.87,-76.6C1978.04,-69.23 1782.78,-53.69 1617.5,-31 1614.42,-30.58 1611.28,-30.12 1608.12,-29.64"/>
<polygon fill="midnightblue" stroke="midnightblue" points="2081.72,-80.09 2091.94,-77.31 2082.21,-73.11 2081.72,-80.09"/>
</g>
<!-- Node22 -->
<g id="node22" class="node">
<title>Node22</title>
<g id="a_node22"><a xlink:href="../../d2/df4/show__info__dialog_8cpp.html" target="_top" xlink:title=" ">
<polygon fill="white" stroke="black" points="1626,-0.5 1626,-30.5 1767,-30.5 1767,-0.5 1626,-0.5"/>
<text text-anchor="start" x="1634" y="-18.5" font-family="Helvetica,sans-Serif" font-size="10.00">src/app/seamly2d/dialogs</text>
<text text-anchor="middle" x="1696.5" y="-7.5" font-family="Helvetica,sans-Serif" font-size="10.00">/show_info_dialog.cpp</text>
</a>
</g>
</g>
<!-- Node2&#45;&gt;Node22 -->
<g id="edge21" class="edge">
<title>Node2&#45;&gt;Node22</title>
<path fill="none" stroke="midnightblue" d="M2081.99,-72.74C2005.52,-63.39 1882.4,-47.64 1776.5,-31 1773.43,-30.52 1770.3,-30.01 1767.14,-29.49"/>
<polygon fill="midnightblue" stroke="midnightblue" points="2081.65,-76.22 2092,-73.96 2082.5,-69.28 2081.65,-76.22"/>
</g>
<!-- Node23 -->
<g id="node23" class="node">
<title>Node23</title>
<g id="a_node23"><a xlink:href="../../dc/d14/app_2seamly2d_2main_8cpp.html" target="_top" xlink:title=" ">
<polygon fill="white" stroke="black" points="290,-6 290,-25 441,-25 441,-6 290,-6"/>
<text text-anchor="middle" x="365.5" y="-13" font-family="Helvetica,sans-Serif" font-size="10.00">src/app/seamly2d/main.cpp</text>
</a>
</g>
</g>
<!-- Node2&#45;&gt;Node23 -->
<g id="edge22" class="edge">
<title>Node2&#45;&gt;Node23</title>
<path fill="none" stroke="midnightblue" d="M2081.75,-80.69C1797.69,-77.33 774.15,-63.24 450.5,-31 436.8,-29.63 421.96,-27.38 408.58,-25.05"/>
<polygon fill="midnightblue" stroke="midnightblue" points="2081.9,-84.19 2091.94,-80.8 2081.98,-77.19 2081.9,-84.19"/>
</g>
<!-- Node24 -->
<g id="node24" class="node">
<title>Node24</title>
<g id="a_node24"><a xlink:href="../../d8/de8/mainwindowsnogui_8cpp.html" target="_top" xlink:title=" ">
<polygon fill="white" stroke="black" points="1785,-6 1785,-25 2006,-25 2006,-6 1785,-6"/>
<text text-anchor="middle" x="1895.5" y="-13" font-family="Helvetica,sans-Serif" font-size="10.00">src/app/seamly2d/mainwindowsnogui.cpp</text>
</a>
</g>
</g>
<!-- Node2&#45;&gt;Node24 -->
<g id="edge23" class="edge">
<title>Node2&#45;&gt;Node24</title>
<path fill="none" stroke="midnightblue" d="M2089.46,-64.99C2038.51,-52.25 1970.09,-35.15 1929.61,-25.03"/>
<polygon fill="midnightblue" stroke="midnightblue" points="2088.85,-68.45 2099.4,-67.48 2090.55,-61.66 2088.85,-68.45"/>
</g>
<!-- Node25 -->
<g id="node25" class="node">
<title>Node25</title>
<g id="a_node25"><a xlink:href="../../d3/d49/vpattern_8cpp.html" target="_top" xlink:title=" ">
<polygon fill="white" stroke="black" points="2024,-0.5 2024,-30.5 2149,-30.5 2149,-0.5 2024,-0.5"/>
<text text-anchor="start" x="2032" y="-18.5" font-family="Helvetica,sans-Serif" font-size="10.00">src/app/seamly2d/xml</text>
<text text-anchor="middle" x="2086.5" y="-7.5" font-family="Helvetica,sans-Serif" font-size="10.00">/vpattern.cpp</text>
</a>
</g>
</g>
<!-- Node2&#45;&gt;Node25 -->
<g id="edge24" class="edge">
<title>Node2&#45;&gt;Node25</title>
<path fill="none" stroke="midnightblue" d="M2133.01,-60.31C2122.66,-50.56 2110.66,-39.26 2101.44,-30.58"/>
<polygon fill="midnightblue" stroke="midnightblue" points="2130.85,-63.09 2140.53,-67.4 2135.65,-57.99 2130.85,-63.09"/>
</g>
<!-- Node26 -->
<g id="node26" class="node">
<title>Node26</title>
<g id="a_node26"><a xlink:href="../../d8/dd9/mainwindow_8cpp.html" target="_top" xlink:title=" ">
<polygon fill="white" stroke="black" points="459.5,-6 459.5,-25 647.5,-25 647.5,-6 459.5,-6"/>
<text text-anchor="middle" x="553.5" y="-13" font-family="Helvetica,sans-Serif" font-size="10.00">src/app/seamly2d/mainwindow.cpp</text>
</a>
</g>
</g>
<!-- Node2&#45;&gt;Node26 -->
<g id="edge25" class="edge">
<title>Node2&#45;&gt;Node26</title>
<path fill="none" stroke="midnightblue" d="M2081.8,-81.75C1863.75,-81.89 1202.99,-78.09 657.5,-31 640.97,-29.57 623.05,-27.33 606.82,-25.03"/>
<polygon fill="midnightblue" stroke="midnightblue" points="2081.85,-85.25 2091.84,-81.74 2081.84,-78.25 2081.85,-85.25"/>
</g>
<!-- Node27 -->
<g id="node27" class="node">
<title>Node27</title>
<g id="a_node27"><a xlink:href="../../d9/da3/image__tool_8cpp.html" target="_top" xlink:title=" ">
<polygon fill="white" stroke="black" points="2167,-0.5 2167,-30.5 2284,-30.5 2284,-0.5 2167,-0.5"/>
<text text-anchor="start" x="2175" y="-18.5" font-family="Helvetica,sans-Serif" font-size="10.00">src/libs/tools/images</text>
<text text-anchor="middle" x="2225.5" y="-7.5" font-family="Helvetica,sans-Serif" font-size="10.00">/image_tool.cpp</text>
</a>
</g>
</g>
<!-- Node2&#45;&gt;Node27 -->
<g id="edge26" class="edge">
<title>Node2&#45;&gt;Node27</title>
<path fill="none" stroke="midnightblue" d="M2178.32,-60.31C2188.82,-50.56 2200.99,-39.26 2210.34,-30.58"/>
<polygon fill="midnightblue" stroke="midnightblue" points="2175.64,-58.03 2170.69,-67.4 2180.4,-63.16 2175.64,-58.03"/>
</g>
<!-- Node29&#45;&gt;Node3 -->
<g id="edge29" class="edge">
<title>Node29&#45;&gt;Node3</title>
<path fill="none" stroke="midnightblue" d="M335.1,-68.91C308.51,-57.91 269.95,-41.94 242.38,-30.53"/>
<polygon fill="midnightblue" stroke="midnightblue" points="334.07,-72.28 344.65,-72.87 336.75,-65.81 334.07,-72.28"/>
</g>
<!-- Node29&#45;&gt;Node23 -->
<g id="edge31" class="edge">
<title>Node29&#45;&gt;Node23</title>
<path fill="none" stroke="midnightblue" d="M365.5,-62.54C365.5,-50.17 365.5,-34.62 365.5,-25.13"/>
<polygon fill="midnightblue" stroke="midnightblue" points="362,-62.73 365.5,-72.73 369,-62.73 362,-62.73"/>
</g>
<!-- Node29&#45;&gt;Node26 -->
<g id="edge32" class="edge">
<title>Node29&#45;&gt;Node26</title>
<path fill="none" stroke="midnightblue" d="M400.39,-69.44C437.69,-56.54 495.87,-36.42 528.73,-25.06"/>
<polygon fill="midnightblue" stroke="midnightblue" points="398.77,-66.29 390.46,-72.87 401.06,-72.91 398.77,-66.29"/>
</g>
<!-- Node30 -->
<g id="node30" class="node">
<title>Node30</title>
<g id="a_node30"><a xlink:href="../../d3/dd8/vapplication_8cpp.html" target="_top" xlink:title=" ">
<polygon fill="white" stroke="black" points="0,-0.5 0,-30.5 127,-30.5 127,-0.5 0,-0.5"/>
<text text-anchor="start" x="8" y="-18.5" font-family="Helvetica,sans-Serif" font-size="10.00">src/app/seamly2d/core</text>
<text text-anchor="middle" x="63.5" y="-7.5" font-family="Helvetica,sans-Serif" font-size="10.00">/vapplication.cpp</text>
</a>
</g>
</g>
<!-- Node29&#45;&gt;Node30 -->
<g id="edge30" class="edge">
<title>Node29&#45;&gt;Node30</title>
<path fill="none" stroke="midnightblue" d="M315.8,-70.8C264.2,-59.7 183.33,-42.29 127.11,-30.19"/>
<polygon fill="midnightblue" stroke="midnightblue" points="315.2,-74.25 325.71,-72.94 316.67,-67.41 315.2,-74.25"/>
</g>
</g>
</svg>
