<?xml version="1.0" encoding="UTF-8" standalone="no"?>
<!DOCTYPE svg PUBLIC "-//W3C//DTD SVG 1.1//EN"
 "http://www.w3.org/Graphics/SVG/1.1/DTD/svg11.dtd">
<!-- Generated by graphviz version 2.43.0 (0)
 -->
<!-- Title: src/app/seamly2d/core/vcmdexport.h Pages: 1 -->
<svg width="4178pt" height="173pt"
 viewBox="0.00 0.00 4178.00 173.00" xmlns="http://www.w3.org/2000/svg" xmlns:xlink="http://www.w3.org/1999/xlink">
<g id="graph0" class="graph" transform="scale(1 1) rotate(0) translate(4 169)">
<title>src/app/seamly2d/core/vcmdexport.h</title>
<polygon fill="white" stroke="transparent" points="-4,4 -4,-169 4174,-169 4174,4 -4,4"/>
<!-- Node1 -->
<g id="node1" class="node">
<title>Node1</title>
<g id="a_node1"><a xlink:title=" ">
<polygon fill="#bfbfbf" stroke="black" points="1846,-134.5 1846,-164.5 1973,-164.5 1973,-134.5 1846,-134.5"/>
<text text-anchor="start" x="1854" y="-152.5" font-family="Helvetica,sans-Serif" font-size="10.00">src/app/seamly2d/core</text>
<text text-anchor="middle" x="1909.5" y="-141.5" font-family="Helvetica,sans-Serif" font-size="10.00">/vcmdexport.h</text>
</a>
</g>
</g>
<!-- Node2 -->
<g id="node2" class="node">
<title>Node2</title>
<g id="a_node2"><a xlink:href="../../d7/d61/application__2d_8h.html" target="_top" xlink:title=" ">
<polygon fill="white" stroke="black" points="1846,-67.5 1846,-97.5 1973,-97.5 1973,-67.5 1846,-67.5"/>
<text text-anchor="start" x="1854" y="-85.5" font-family="Helvetica,sans-Serif" font-size="10.00">src/app/seamly2d/core</text>
<text text-anchor="middle" x="1909.5" y="-74.5" font-family="Helvetica,sans-Serif" font-size="10.00">/application_2d.h</text>
</a>
</g>
</g>
<!-- Node1&#45;&gt;Node2 -->
<g id="edge1" class="edge">
<title>Node1&#45;&gt;Node2</title>
<path fill="none" stroke="midnightblue" d="M1909.5,-124.11C1909.5,-115.15 1909.5,-105.32 1909.5,-97.58"/>
<polygon fill="midnightblue" stroke="midnightblue" points="1906,-124.4 1909.5,-134.4 1913,-124.4 1906,-124.4"/>
</g>
<!-- Node26 -->
<g id="node26" class="node">
<title>Node26</title>
<g id="a_node26"><a xlink:href="../../df/d9b/vcmdexport_8cpp.html" target="_top" xlink:title=" ">
<polygon fill="white" stroke="black" points="1991,-67.5 1991,-97.5 2118,-97.5 2118,-67.5 1991,-67.5"/>
<text text-anchor="start" x="1999" y="-85.5" font-family="Helvetica,sans-Serif" font-size="10.00">src/app/seamly2d/core</text>
<text text-anchor="middle" x="2054.5" y="-74.5" font-family="Helvetica,sans-Serif" font-size="10.00">/vcmdexport.cpp</text>
</a>
</g>
</g>
<!-- Node1&#45;&gt;Node26 -->
<g id="edge25" class="edge">
<title>Node1&#45;&gt;Node26</title>
<path fill="none" stroke="midnightblue" d="M1950.17,-130.27C1973.26,-119.92 2001.74,-107.15 2023.1,-97.58"/>
<polygon fill="midnightblue" stroke="midnightblue" points="1948.66,-127.11 1940.96,-134.4 1951.52,-133.5 1948.66,-127.11"/>
</g>
<!-- Node27 -->
<g id="node27" class="node">
<title>Node27</title>
<g id="a_node27"><a xlink:href="../../d9/d53/mainwindow_8h.html" target="_top" xlink:title=" ">
<polygon fill="white" stroke="black" points="226.5,-73 226.5,-92 402.5,-92 402.5,-73 226.5,-73"/>
<text text-anchor="middle" x="314.5" y="-80" font-family="Helvetica,sans-Serif" font-size="10.00">src/app/seamly2d/mainwindow.h</text>
</a>
</g>
</g>
<!-- Node1&#45;&gt;Node27 -->
<g id="edge26" class="edge">
<title>Node1&#45;&gt;Node27</title>
<path fill="none" stroke="midnightblue" d="M1835.82,-145.5C1573.62,-134.81 686.41,-98.66 402.6,-87.09"/>
<polygon fill="midnightblue" stroke="midnightblue" points="1835.86,-149 1845.99,-145.91 1836.14,-142.01 1835.86,-149"/>
</g>
<!-- Node3 -->
<g id="node3" class="node">
<title>Node3</title>
<g id="a_node3"><a xlink:href="../../df/d3e/application__2d_8cpp.html" target="_top" xlink:title=" ">
<polygon fill="white" stroke="black" points="0,-0.5 0,-30.5 127,-30.5 127,-0.5 0,-0.5"/>
<text text-anchor="start" x="8" y="-18.5" font-family="Helvetica,sans-Serif" font-size="10.00">src/app/seamly2d/core</text>
<text text-anchor="middle" x="63.5" y="-7.5" font-family="Helvetica,sans-Serif" font-size="10.00">/application_2d.cpp</text>
</a>
</g>
</g>
<!-- Node2&#45;&gt;Node3 -->
<g id="edge2" class="edge">
<title>Node2&#45;&gt;Node3</title>
<path fill="none" stroke="midnightblue" d="M1835.64,-81.07C1544.11,-79.13 472.83,-69.48 135.5,-31 132.71,-30.68 129.87,-30.31 127.01,-29.9"/>
<polygon fill="midnightblue" stroke="midnightblue" points="1835.66,-84.57 1845.68,-81.14 1835.7,-77.57 1835.66,-84.57"/>
</g>
<!-- Node4 -->
<g id="node4" class="node">
<title>Node4</title>
<g id="a_node4"><a xlink:href="../../dd/db4/abstractlayout__dialog_8cpp.html" target="_top" xlink:title=" ">
<polygon fill="white" stroke="black" points="2460.5,-0.5 2460.5,-30.5 2606.5,-30.5 2606.5,-0.5 2460.5,-0.5"/>
<text text-anchor="start" x="2468.5" y="-18.5" font-family="Helvetica,sans-Serif" font-size="10.00">src/app/seamly2d/dialogs</text>
<text text-anchor="middle" x="2533.5" y="-7.5" font-family="Helvetica,sans-Serif" font-size="10.00">/abstractlayout_dialog.cpp</text>
</a>
</g>
</g>
<!-- Node2&#45;&gt;Node4 -->
<g id="edge3" class="edge">
<title>Node2&#45;&gt;Node4</title>
<path fill="none" stroke="midnightblue" d="M1983.16,-67.03C2191.36,-39.16 2247.34,-56.82 2451.5,-31 2454.37,-30.64 2457.29,-30.24 2460.24,-29.82"/>
<polygon fill="midnightblue" stroke="midnightblue" points="1982.56,-63.58 1973.13,-68.4 1983.51,-70.52 1982.56,-63.58"/>
</g>
<!-- Node5 -->
<g id="node5" class="node">
<title>Node5</title>
<g id="a_node5"><a xlink:href="../../d7/dfa/calculator__dialog_8cpp.html" target="_top" xlink:title=" ">
<polygon fill="white" stroke="black" points="2625,-0.5 2625,-30.5 2766,-30.5 2766,-0.5 2625,-0.5"/>
<text text-anchor="start" x="2633" y="-18.5" font-family="Helvetica,sans-Serif" font-size="10.00">src/app/seamly2d/dialogs</text>
<text text-anchor="middle" x="2695.5" y="-7.5" font-family="Helvetica,sans-Serif" font-size="10.00">/calculator_dialog.cpp</text>
</a>
</g>
</g>
<!-- Node2&#45;&gt;Node5 -->
<g id="edge4" class="edge">
<title>Node2&#45;&gt;Node5</title>
<path fill="none" stroke="midnightblue" d="M1983.19,-67.05C2263.79,-32.22 2338.95,-63.8 2615.5,-31 2618.58,-30.63 2621.73,-30.22 2624.9,-29.78"/>
<polygon fill="midnightblue" stroke="midnightblue" points="1982.6,-63.6 1973.12,-68.32 1983.47,-70.55 1982.6,-63.6"/>
</g>
<!-- Node6 -->
<g id="node6" class="node">
<title>Node6</title>
<g id="a_node6"><a xlink:href="../../d9/d70/preferencesgraphicsviewpage_8cpp.html" target="_top" xlink:title=" ">
<polygon fill="white" stroke="black" points="2784.5,-0.5 2784.5,-30.5 3032.5,-30.5 3032.5,-0.5 2784.5,-0.5"/>
<text text-anchor="start" x="2792.5" y="-18.5" font-family="Helvetica,sans-Serif" font-size="10.00">src/app/seamly2d/dialogs</text>
<text text-anchor="middle" x="2908.5" y="-7.5" font-family="Helvetica,sans-Serif" font-size="10.00">/configpages/preferencesgraphicsviewpage.cpp</text>
</a>
</g>
</g>
<!-- Node2&#45;&gt;Node6 -->
<g id="edge5" class="edge">
<title>Node2&#45;&gt;Node6</title>
<path fill="none" stroke="midnightblue" d="M1983.05,-67.08C2334.45,-25.13 2427,-57.88 2775.5,-31 2778.39,-30.78 2781.32,-30.54 2784.28,-30.29"/>
<polygon fill="midnightblue" stroke="midnightblue" points="1982.62,-63.61 1973.11,-68.28 1983.46,-70.56 1982.62,-63.61"/>
</g>
<!-- Node7 -->
<g id="node7" class="node">
<title>Node7</title>
<g id="a_node7"><a xlink:href="../../dc/d20/preferencespathpage_8cpp.html" target="_top" xlink:title=" ">
<polygon fill="white" stroke="black" points="3051,-0.5 3051,-30.5 3256,-30.5 3256,-0.5 3051,-0.5"/>
<text text-anchor="start" x="3059" y="-18.5" font-family="Helvetica,sans-Serif" font-size="10.00">src/app/seamly2d/dialogs</text>
<text text-anchor="middle" x="3153.5" y="-7.5" font-family="Helvetica,sans-Serif" font-size="10.00">/configpages/preferencespathpage.cpp</text>
</a>
</g>
</g>
<!-- Node2&#45;&gt;Node7 -->
<g id="edge6" class="edge">
<title>Node2&#45;&gt;Node7</title>
<path fill="none" stroke="midnightblue" d="M1983.19,-67.08C2452.07,-13.74 2575.44,-69 3041.5,-31 3044.53,-30.75 3047.6,-30.48 3050.7,-30.19"/>
<polygon fill="midnightblue" stroke="midnightblue" points="1982.64,-63.62 1973.11,-68.24 1983.44,-70.57 1982.64,-63.62"/>
</g>
<!-- Node8 -->
<g id="node8" class="node">
<title>Node8</title>
<g id="a_node8"><a xlink:href="../../dd/dc2/decimalchart__dialog_8cpp.html" target="_top" xlink:title=" ">
<polygon fill="white" stroke="black" points="3274,-0.5 3274,-30.5 3415,-30.5 3415,-0.5 3274,-0.5"/>
<text text-anchor="start" x="3282" y="-18.5" font-family="Helvetica,sans-Serif" font-size="10.00">src/app/seamly2d/dialogs</text>
<text text-anchor="middle" x="3344.5" y="-7.5" font-family="Helvetica,sans-Serif" font-size="10.00">/decimalchart_dialog.cpp</text>
</a>
</g>
</g>
<!-- Node2&#45;&gt;Node8 -->
<g id="edge7" class="edge">
<title>Node2&#45;&gt;Node8</title>
<path fill="none" stroke="midnightblue" d="M1983.19,-67.09C2551.13,-4.23 2701.51,-90.32 3265.5,-31 3268.27,-30.71 3271.1,-30.37 3273.94,-30"/>
<polygon fill="midnightblue" stroke="midnightblue" points="1982.65,-63.62 1973.1,-68.21 1983.43,-70.58 1982.65,-63.62"/>
</g>
<!-- Node9 -->
<g id="node9" class="node">
<title>Node9</title>
<g id="a_node9"><a xlink:href="../../dc/d63/preferencespatternpage_8cpp.html" target="_top" xlink:title=" ">
<polygon fill="white" stroke="black" points="3433.5,-0.5 3433.5,-30.5 3651.5,-30.5 3651.5,-0.5 3433.5,-0.5"/>
<text text-anchor="start" x="3441.5" y="-18.5" font-family="Helvetica,sans-Serif" font-size="10.00">src/app/seamly2d/dialogs</text>
<text text-anchor="middle" x="3542.5" y="-7.5" font-family="Helvetica,sans-Serif" font-size="10.00">/configpages/preferencespatternpage.cpp</text>
</a>
</g>
</g>
<!-- Node2&#45;&gt;Node9 -->
<g id="edge8" class="edge">
<title>Node2&#45;&gt;Node9</title>
<path fill="none" stroke="midnightblue" d="M1983.48,-67.06C2621.47,2.83 2788.58,-77.9 3424.5,-31 3427.38,-30.79 3430.3,-30.55 3433.25,-30.3"/>
<polygon fill="midnightblue" stroke="midnightblue" points="1982.66,-63.63 1973.1,-68.2 1983.43,-70.58 1982.66,-63.63"/>
</g>
<!-- Node10 -->
<g id="node10" class="node">
<title>Node10</title>
<g id="a_node10"><a xlink:href="../../d2/d00/vtooloptionspropertybrowser_8cpp.html" target="_top" xlink:title=" ">
<polygon fill="white" stroke="black" points="3669.5,-0.5 3669.5,-30.5 3849.5,-30.5 3849.5,-0.5 3669.5,-0.5"/>
<text text-anchor="start" x="3677.5" y="-18.5" font-family="Helvetica,sans-Serif" font-size="10.00">src/app/seamly2d/core</text>
<text text-anchor="middle" x="3759.5" y="-7.5" font-family="Helvetica,sans-Serif" font-size="10.00">/vtooloptionspropertybrowser.cpp</text>
</a>
</g>
</g>
<!-- Node2&#45;&gt;Node10 -->
<g id="edge9" class="edge">
<title>Node2&#45;&gt;Node10</title>
<path fill="none" stroke="midnightblue" d="M1983.24,-67.09C2725.8,13.01 2920.5,-92.89 3660.5,-31 3663.44,-30.75 3666.43,-30.48 3669.45,-30.17"/>
<polygon fill="midnightblue" stroke="midnightblue" points="1982.66,-63.63 1973.1,-68.19 1983.42,-70.59 1982.66,-63.63"/>
</g>
<!-- Node11 -->
<g id="node11" class="node">
<title>Node11</title>
<g id="a_node11"><a xlink:href="../../dd/d64/dialogaboutapp_8cpp.html" target="_top" xlink:title=" ">
<polygon fill="white" stroke="black" points="3868,-0.5 3868,-30.5 4009,-30.5 4009,-0.5 3868,-0.5"/>
<text text-anchor="start" x="3876" y="-18.5" font-family="Helvetica,sans-Serif" font-size="10.00">src/app/seamly2d/dialogs</text>
<text text-anchor="middle" x="3938.5" y="-7.5" font-family="Helvetica,sans-Serif" font-size="10.00">/dialogaboutapp.cpp</text>
</a>
</g>
</g>
<!-- Node2&#45;&gt;Node11 -->
<g id="edge10" class="edge">
<title>Node2&#45;&gt;Node11</title>
<path fill="none" stroke="midnightblue" d="M1983.2,-67.09C2813.36,21.49 3032.02,-113.3 3858.5,-31 3861.59,-30.69 3864.74,-30.33 3867.92,-29.93"/>
<polygon fill="midnightblue" stroke="midnightblue" points="1982.67,-63.63 1973.1,-68.18 1983.42,-70.59 1982.67,-63.63"/>
</g>
<!-- Node12 -->
<g id="node12" class="node">
<title>Node12</title>
<g id="a_node12"><a xlink:href="../../d6/d89/dialoglayoutprogress_8cpp.html" target="_top" xlink:title=" ">
<polygon fill="white" stroke="black" points="4027,-0.5 4027,-30.5 4170,-30.5 4170,-0.5 4027,-0.5"/>
<text text-anchor="start" x="4035" y="-18.5" font-family="Helvetica,sans-Serif" font-size="10.00">src/app/seamly2d/dialogs</text>
<text text-anchor="middle" x="4098.5" y="-7.5" font-family="Helvetica,sans-Serif" font-size="10.00">/dialoglayoutprogress.cpp</text>
</a>
</g>
</g>
<!-- Node2&#45;&gt;Node12 -->
<g id="edge11" class="edge">
<title>Node2&#45;&gt;Node12</title>
<path fill="none" stroke="midnightblue" d="M1983.06,-67.11C2884.1,28.45 3121.15,-119.67 4018.5,-31 4021.17,-30.74 4023.88,-30.43 4026.62,-30.09"/>
<polygon fill="midnightblue" stroke="midnightblue" points="1982.67,-63.63 1973.1,-68.17 1983.41,-70.59 1982.67,-63.63"/>
</g>
<!-- Node13 -->
<g id="node13" class="node">
<title>Node13</title>
<g id="a_node13"><a xlink:href="../../d2/d2d/preferencesconfigurationpage_8cpp.html" target="_top" xlink:title=" ">
<polygon fill="white" stroke="black" points="521,-0.5 521,-30.5 768,-30.5 768,-0.5 521,-0.5"/>
<text text-anchor="start" x="529" y="-18.5" font-family="Helvetica,sans-Serif" font-size="10.00">src/app/seamly2d/dialogs</text>
<text text-anchor="middle" x="644.5" y="-7.5" font-family="Helvetica,sans-Serif" font-size="10.00">/configpages/preferencesconfigurationpage.cpp</text>
</a>
</g>
</g>
<!-- Node2&#45;&gt;Node13 -->
<g id="edge12" class="edge">
<title>Node2&#45;&gt;Node13</title>
<path fill="none" stroke="midnightblue" d="M1835.71,-79.84C1655.02,-75.43 1176.03,-61.58 777.5,-31 774.37,-30.76 771.21,-30.51 768.01,-30.24"/>
<polygon fill="midnightblue" stroke="midnightblue" points="1835.82,-83.35 1845.9,-80.09 1835.98,-76.35 1835.82,-83.35"/>
</g>
<!-- Node14 -->
<g id="node14" class="node">
<title>Node14</title>
<g id="a_node14"><a xlink:href="../../d5/d18/dialogpatternproperties_8cpp.html" target="_top" xlink:title=" ">
<polygon fill="white" stroke="black" points="786,-0.5 786,-30.5 941,-30.5 941,-0.5 786,-0.5"/>
<text text-anchor="start" x="794" y="-18.5" font-family="Helvetica,sans-Serif" font-size="10.00">src/app/seamly2d/dialogs</text>
<text text-anchor="middle" x="863.5" y="-7.5" font-family="Helvetica,sans-Serif" font-size="10.00">/dialogpatternproperties.cpp</text>
</a>
</g>
</g>
<!-- Node2&#45;&gt;Node14 -->
<g id="edge13" class="edge">
<title>Node2&#45;&gt;Node14</title>
<path fill="none" stroke="midnightblue" d="M1835.62,-80.44C1674.45,-77.51 1279.31,-66.94 950.5,-31 947.46,-30.67 944.36,-30.3 941.23,-29.9"/>
<polygon fill="midnightblue" stroke="midnightblue" points="1835.84,-83.94 1845.9,-80.62 1835.96,-76.94 1835.84,-83.94"/>
</g>
<!-- Node15 -->
<g id="node15" class="node">
<title>Node15</title>
<g id="a_node15"><a xlink:href="../../d5/dc5/dialogpreferences_8cpp.html" target="_top" xlink:title=" ">
<polygon fill="white" stroke="black" points="959,-0.5 959,-30.5 1100,-30.5 1100,-0.5 959,-0.5"/>
<text text-anchor="start" x="967" y="-18.5" font-family="Helvetica,sans-Serif" font-size="10.00">src/app/seamly2d/dialogs</text>
<text text-anchor="middle" x="1029.5" y="-7.5" font-family="Helvetica,sans-Serif" font-size="10.00">/dialogpreferences.cpp</text>
</a>
</g>
</g>
<!-- Node2&#45;&gt;Node15 -->
<g id="edge14" class="edge">
<title>Node2&#45;&gt;Node15</title>
<path fill="none" stroke="midnightblue" d="M1835.46,-79.7C1693.96,-75.63 1375.51,-63.39 1109.5,-31 1106.42,-30.62 1103.27,-30.21 1100.1,-29.76"/>
<polygon fill="midnightblue" stroke="midnightblue" points="1835.66,-83.21 1845.75,-79.99 1835.85,-76.21 1835.66,-83.21"/>
</g>
<!-- Node16 -->
<g id="node16" class="node">
<title>Node16</title>
<g id="a_node16"><a xlink:href="../../dd/d54/export__layout__dialog_8cpp.html" target="_top" xlink:title=" ">
<polygon fill="white" stroke="black" points="1118,-0.5 1118,-30.5 1261,-30.5 1261,-0.5 1118,-0.5"/>
<text text-anchor="start" x="1126" y="-18.5" font-family="Helvetica,sans-Serif" font-size="10.00">src/app/seamly2d/dialogs</text>
<text text-anchor="middle" x="1189.5" y="-7.5" font-family="Helvetica,sans-Serif" font-size="10.00">/export_layout_dialog.cpp</text>
</a>
</g>
</g>
<!-- Node2&#45;&gt;Node16 -->
<g id="edge15" class="edge">
<title>Node2&#45;&gt;Node16</title>
<path fill="none" stroke="midnightblue" d="M1835.69,-78.03C1716.47,-71.89 1474.27,-57.23 1270.5,-31 1267.52,-30.62 1264.49,-30.2 1261.43,-29.76"/>
<polygon fill="midnightblue" stroke="midnightblue" points="1835.63,-81.53 1845.8,-78.54 1835.99,-74.54 1835.63,-81.53"/>
</g>
<!-- Node17 -->
<g id="node17" class="node">
<title>Node17</title>
<g id="a_node17"><a xlink:href="../../db/d5c/groups__widget_8cpp.html" target="_top" xlink:title=" ">
<polygon fill="white" stroke="black" points="1279,-0.5 1279,-30.5 1420,-30.5 1420,-0.5 1279,-0.5"/>
<text text-anchor="start" x="1287" y="-18.5" font-family="Helvetica,sans-Serif" font-size="10.00">src/app/seamly2d/dialogs</text>
<text text-anchor="middle" x="1349.5" y="-7.5" font-family="Helvetica,sans-Serif" font-size="10.00">/groups_widget.cpp</text>
</a>
</g>
</g>
<!-- Node2&#45;&gt;Node17 -->
<g id="edge16" class="edge">
<title>Node2&#45;&gt;Node17</title>
<path fill="none" stroke="midnightblue" d="M1835.62,-75.45C1741.19,-67.32 1572.76,-51.49 1429.5,-31 1426.43,-30.56 1423.29,-30.09 1420.12,-29.6"/>
<polygon fill="midnightblue" stroke="midnightblue" points="1835.38,-78.94 1845.65,-76.31 1835.98,-71.97 1835.38,-78.94"/>
</g>
<!-- Node18 -->
<g id="node18" class="node">
<title>Node18</title>
<g id="a_node18"><a xlink:href="../../d0/dfa/layoutsettings__dialog_8cpp.html" target="_top" xlink:title=" ">
<polygon fill="white" stroke="black" points="1438,-0.5 1438,-30.5 1583,-30.5 1583,-0.5 1438,-0.5"/>
<text text-anchor="start" x="1446" y="-18.5" font-family="Helvetica,sans-Serif" font-size="10.00">src/app/seamly2d/dialogs</text>
<text text-anchor="middle" x="1510.5" y="-7.5" font-family="Helvetica,sans-Serif" font-size="10.00">/layoutsettings_dialog.cpp</text>
</a>
</g>
</g>
<!-- Node2&#45;&gt;Node18 -->
<g id="edge17" class="edge">
<title>Node2&#45;&gt;Node18</title>
<path fill="none" stroke="midnightblue" d="M1835.96,-70.15C1771.67,-60.14 1675.84,-45.01 1592.5,-31 1589.51,-30.5 1586.45,-29.98 1583.37,-29.45"/>
<polygon fill="midnightblue" stroke="midnightblue" points="1835.58,-73.63 1846,-71.71 1836.65,-66.71 1835.58,-73.63"/>
</g>
<!-- Node19 -->
<g id="node19" class="node">
<title>Node19</title>
<g id="a_node19"><a xlink:href="../../df/d69/welcome__dialog_8cpp.html" target="_top" xlink:title=" ">
<polygon fill="white" stroke="black" points="1601,-0.5 1601,-30.5 1742,-30.5 1742,-0.5 1601,-0.5"/>
<text text-anchor="start" x="1609" y="-18.5" font-family="Helvetica,sans-Serif" font-size="10.00">src/app/seamly2d/dialogs</text>
<text text-anchor="middle" x="1671.5" y="-7.5" font-family="Helvetica,sans-Serif" font-size="10.00">/welcome_dialog.cpp</text>
</a>
</g>
</g>
<!-- Node2&#45;&gt;Node19 -->
<g id="edge18" class="edge">
<title>Node2&#45;&gt;Node19</title>
<path fill="none" stroke="midnightblue" d="M1848.04,-64.71C1809.31,-54.14 1759.87,-40.63 1723.17,-30.61"/>
<polygon fill="midnightblue" stroke="midnightblue" points="1847.58,-68.22 1858.15,-67.48 1849.43,-61.46 1847.58,-68.22"/>
</g>
<!-- Node20 -->
<g id="node20" class="node">
<title>Node20</title>
<g id="a_node20"><a xlink:href="../../dd/d84/shortcuts__dialog_8cpp.html" target="_top" xlink:title=" ">
<polygon fill="white" stroke="black" points="1760,-0.5 1760,-30.5 1901,-30.5 1901,-0.5 1760,-0.5"/>
<text text-anchor="start" x="1768" y="-18.5" font-family="Helvetica,sans-Serif" font-size="10.00">src/app/seamly2d/dialogs</text>
<text text-anchor="middle" x="1830.5" y="-7.5" font-family="Helvetica,sans-Serif" font-size="10.00">/shortcuts_dialog.cpp</text>
</a>
</g>
</g>
<!-- Node2&#45;&gt;Node20 -->
<g id="edge19" class="edge">
<title>Node2&#45;&gt;Node20</title>
<path fill="none" stroke="midnightblue" d="M1884.44,-60.88C1872.44,-51.01 1858.37,-39.43 1847.61,-30.58"/>
<polygon fill="midnightblue" stroke="midnightblue" points="1882.41,-63.75 1892.36,-67.4 1886.86,-58.34 1882.41,-63.75"/>
</g>
<!-- Node21 -->
<g id="node21" class="node">
<title>Node21</title>
<g id="a_node21"><a xlink:href="../../dc/d14/app_2seamly2d_2main_8cpp.html" target="_top" xlink:title=" ">
<polygon fill="white" stroke="black" points="145,-6 145,-25 296,-25 296,-6 145,-6"/>
<text text-anchor="middle" x="220.5" y="-13" font-family="Helvetica,sans-Serif" font-size="10.00">src/app/seamly2d/main.cpp</text>
</a>
</g>
</g>
<!-- Node2&#45;&gt;Node21 -->
<g id="edge20" class="edge">
<title>Node2&#45;&gt;Node21</title>
<path fill="none" stroke="midnightblue" d="M1835.6,-80.52C1562.21,-76.7 608.27,-61.45 305.5,-31 291.8,-29.62 276.96,-27.36 263.59,-25.03"/>
<polygon fill="midnightblue" stroke="midnightblue" points="1835.76,-84.03 1845.81,-80.67 1835.86,-77.03 1835.76,-84.03"/>
</g>
<!-- Node22 -->
<g id="node22" class="node">
<title>Node22</title>
<g id="a_node22"><a xlink:href="../../d2/df4/show__info__dialog_8cpp.html" target="_top" xlink:title=" ">
<polygon fill="white" stroke="black" points="1919,-0.5 1919,-30.5 2060,-30.5 2060,-0.5 1919,-0.5"/>
<text text-anchor="start" x="1927" y="-18.5" font-family="Helvetica,sans-Serif" font-size="10.00">src/app/seamly2d/dialogs</text>
<text text-anchor="middle" x="1989.5" y="-7.5" font-family="Helvetica,sans-Serif" font-size="10.00">/show_info_dialog.cpp</text>
</a>
</g>
</g>
<!-- Node2&#45;&gt;Node22 -->
<g id="edge21" class="edge">
<title>Node2&#45;&gt;Node22</title>
<path fill="none" stroke="midnightblue" d="M1934.87,-60.88C1947.03,-51.01 1961.28,-39.43 1972.18,-30.58"/>
<polygon fill="midnightblue" stroke="midnightblue" points="1932.41,-58.37 1926.86,-67.4 1936.83,-63.81 1932.41,-58.37"/>
</g>
<!-- Node23 -->
<g id="node23" class="node">
<title>Node23</title>
<g id="a_node23"><a xlink:href="../../d8/de8/mainwindowsnogui_8cpp.html" target="_top" xlink:title=" ">
<polygon fill="white" stroke="black" points="2078,-6 2078,-25 2299,-25 2299,-6 2078,-6"/>
<text text-anchor="middle" x="2188.5" y="-13" font-family="Helvetica,sans-Serif" font-size="10.00">src/app/seamly2d/mainwindowsnogui.cpp</text>
</a>
</g>
</g>
<!-- Node2&#45;&gt;Node23 -->
<g id="edge22" class="edge">
<title>Node2&#45;&gt;Node23</title>
<path fill="none" stroke="midnightblue" d="M1979.68,-65.15C2034.43,-52.39 2108.27,-35.19 2151.89,-25.03"/>
<polygon fill="midnightblue" stroke="midnightblue" points="1978.64,-61.8 1969.7,-67.48 1980.23,-68.62 1978.64,-61.8"/>
</g>
<!-- Node24 -->
<g id="node24" class="node">
<title>Node24</title>
<g id="a_node24"><a xlink:href="../../d3/d49/vpattern_8cpp.html" target="_top" xlink:title=" ">
<polygon fill="white" stroke="black" points="2317,-0.5 2317,-30.5 2442,-30.5 2442,-0.5 2317,-0.5"/>
<text text-anchor="start" x="2325" y="-18.5" font-family="Helvetica,sans-Serif" font-size="10.00">src/app/seamly2d/xml</text>
<text text-anchor="middle" x="2379.5" y="-7.5" font-family="Helvetica,sans-Serif" font-size="10.00">/vpattern.cpp</text>
</a>
</g>
</g>
<!-- Node2&#45;&gt;Node24 -->
<g id="edge23" class="edge">
<title>Node2&#45;&gt;Node24</title>
<path fill="none" stroke="midnightblue" d="M1983.31,-66.97C2128.32,-45.16 2167.73,-53.1 2308.5,-31 2311.23,-30.57 2314.02,-30.11 2316.84,-29.62"/>
<polygon fill="midnightblue" stroke="midnightblue" points="1982.5,-63.55 1973.14,-68.52 1983.56,-70.47 1982.5,-63.55"/>
</g>
<!-- Node25 -->
<g id="node25" class="node">
<title>Node25</title>
<g id="a_node25"><a xlink:href="../../d8/dd9/mainwindow_8cpp.html" target="_top" xlink:title=" ">
<polygon fill="white" stroke="black" points="314.5,-6 314.5,-25 502.5,-25 502.5,-6 314.5,-6"/>
<text text-anchor="middle" x="408.5" y="-13" font-family="Helvetica,sans-Serif" font-size="10.00">src/app/seamly2d/mainwindow.cpp</text>
</a>
</g>
</g>
<!-- Node2&#45;&gt;Node25 -->
<g id="edge24" class="edge">
<title>Node2&#45;&gt;Node25</title>
<path fill="none" stroke="midnightblue" d="M1835.44,-81.49C1626.85,-80.88 1016.84,-75.16 512.5,-31 495.97,-29.55 478.06,-27.3 461.82,-25"/>
<polygon fill="midnightblue" stroke="midnightblue" points="1835.65,-84.99 1845.65,-81.52 1835.66,-77.99 1835.65,-84.99"/>
</g>
<!-- Node27&#45;&gt;Node3 -->
<g id="edge27" class="edge">
<title>Node27&#45;&gt;Node3</title>
<path fill="none" stroke="midnightblue" d="M271.67,-70.41C229.17,-59.4 163.9,-42.5 117.79,-30.56"/>
<polygon fill="midnightblue" stroke="midnightblue" points="270.87,-73.82 281.43,-72.94 272.62,-67.04 270.87,-73.82"/>
</g>
<!-- Node27&#45;&gt;Node21 -->
<g id="edge28" class="edge">
<title>Node27&#45;&gt;Node21</title>
<path fill="none" stroke="midnightblue" d="M293.41,-66.92C274.83,-54.07 248.38,-35.78 232.98,-25.13"/>
<polygon fill="midnightblue" stroke="midnightblue" points="291.61,-69.93 301.82,-72.73 295.59,-64.17 291.61,-69.93"/>
</g>
<!-- Node27&#45;&gt;Node25 -->
<g id="edge29" class="edge">
<title>Node27&#45;&gt;Node25</title>
<path fill="none" stroke="midnightblue" d="M335.59,-66.92C354.17,-54.07 380.62,-35.78 396.02,-25.13"/>
<polygon fill="midnightblue" stroke="midnightblue" points="333.41,-64.17 327.18,-72.73 337.39,-69.93 333.41,-64.17"/>
</g>
</g>
</svg>
