<?xml version="1.0" encoding="UTF-8" standalone="no"?>
<!DOCTYPE svg PUBLIC "-//W3C//DTD SVG 1.1//EN"
 "http://www.w3.org/Graphics/SVG/1.1/DTD/svg11.dtd">
<!-- Generated by graphviz version 2.43.0 (0)
 -->
<!-- Title: src/libs/vtools/visualization/line/operation/visoperation.h Pages: 1 -->
<!--zoomable 184 -->
<svg id="main" version="1.1" xmlns="http://www.w3.org/2000/svg" xmlns:xlink="http://www.w3.org/1999/xlink" xml:space="preserve" onload="init(evt)">
<style type="text/css"><![CDATA[
.edge:hover path { stroke: red; }
.edge:hover polygon { stroke: red; fill: red; }
]]></style>
<script type="text/javascript"><![CDATA[
var edges = document.getElementsByTagName('g');
if (edges && edges.length) {
  for (var i=0;i<edges.length;i++) {
    if (edges[i].id.substr(0,4)=='edge') {
      edges[i].setAttribute('class','edge');
    }
  }
}
]]></script>
        <defs>
                <circle id="rim" cx="0" cy="0" r="7"/>
                <circle id="rim2" cx="0" cy="0" r="3.5"/>
                <g id="zoomPlus">
                        <use xlink:href="#rim" fill="#404040">
                                <set attributeName="fill" to="#808080" begin="zoomplus.mouseover" end="zoomplus.mouseout"/>
                        </use>
                        <path d="M-4,0h8M0,-4v8" fill="none" stroke="white" stroke-width="1.5" pointer-events="none"/>
                </g>
                <g id="zoomMin">
                        <use xlink:href="#rim" fill="#404040">
                                <set attributeName="fill" to="#808080" begin="zoomminus.mouseover" end="zoomminus.mouseout"/>
                        </use>
                        <path d="M-4,0h8" fill="none" stroke="white" stroke-width="1.5" pointer-events="none"/>
                </g>
                <g id="dirArrow">
                        <path fill="none" stroke="white" stroke-width="1.5" d="M0,-3.0v7 M-2.5,-0.5L0,-3.0L2.5,-0.5"/>
                </g>
               <g id="resetDef">
                       <use xlink:href="#rim2" fill="#404040">
                               <set attributeName="fill" to="#808080" begin="reset.mouseover" end="reset.mouseout"/>
                       </use>
               </g>
        </defs>

<script type="text/javascript">
var viewWidth = 2231;
var viewHeight = 184;
var sectionId = 'dynsection-1';
</script>
<script xlink:href="../../svgpan.js"/>
<svg id="graph" class="graph">
<g id="viewport">
<title>src/libs/vtools/visualization/line/operation/visoperation.h</title>
<polygon fill="white" stroke="transparent" points="-4,4 -4,-180 2226.5,-180 2226.5,4 -4,4"/>
<!-- Node1 -->
<g id="node1" class="node">
<title>Node1</title>
<g id="a_node1"><a xlink:title=" ">
<polygon fill="#bfbfbf" stroke="black" points="1313.5,-145.5 1313.5,-175.5 1473.5,-175.5 1473.5,-145.5 1313.5,-145.5"/>
<text text-anchor="start" x="1321.5" y="-163.5" font-family="Helvetica,sans-Serif" font-size="10.00">src/libs/vtools/visualization</text>
<text text-anchor="middle" x="1393.5" y="-152.5" font-family="Helvetica,sans-Serif" font-size="10.00">/line/operation/visoperation.h</text>
</a>
</g>
</g>
<!-- Node2 -->
<g id="node2" class="node">
<title>Node2</title>
<g id="a_node2"><a xlink:href="../../da/d4d/vistoolmirrorbyaxis_8h.html" target="_top" xlink:title=" ">
<polygon fill="white" stroke="black" points="261.5,-78.5 261.5,-108.5 455.5,-108.5 455.5,-78.5 261.5,-78.5"/>
<text text-anchor="start" x="269.5" y="-96.5" font-family="Helvetica,sans-Serif" font-size="10.00">src/libs/vtools/visualization</text>
<text text-anchor="middle" x="358.5" y="-85.5" font-family="Helvetica,sans-Serif" font-size="10.00">/line/operation/vistoolmirrorbyaxis.h</text>
</a>
</g>
</g>
<!-- Node1&#45;&gt;Node2 -->
<g id="edge1" class="edge">
<title>Node1&#45;&gt;Node2</title>
<path fill="none" stroke="midnightblue" d="M1303,-153.82C1109.23,-141.65 655.64,-113.16 455.88,-100.62"/>
<polygon fill="midnightblue" stroke="midnightblue" points="1302.95,-157.32 1313.15,-154.45 1303.39,-150.33 1302.95,-157.32"/>
</g>
<!-- Node6 -->
<g id="node6" class="node">
<title>Node6</title>
<g id="a_node6"><a xlink:href="../../d5/de2/visoperation_8cpp.html" target="_top" xlink:title=" ">
<polygon fill="white" stroke="black" points="747,-78.5 747,-108.5 918,-108.5 918,-78.5 747,-78.5"/>
<text text-anchor="start" x="755" y="-96.5" font-family="Helvetica,sans-Serif" font-size="10.00">src/libs/vtools/visualization</text>
<text text-anchor="middle" x="832.5" y="-85.5" font-family="Helvetica,sans-Serif" font-size="10.00">/line/operation/visoperation.cpp</text>
</a>
</g>
</g>
<!-- Node1&#45;&gt;Node6 -->
<g id="edge5" class="edge">
<title>Node1&#45;&gt;Node6</title>
<path fill="none" stroke="midnightblue" d="M1303.35,-150.9C1209.38,-141.67 1057.91,-126.01 927.5,-109 924.44,-108.6 921.32,-108.18 918.18,-107.75"/>
<polygon fill="midnightblue" stroke="midnightblue" points="1303.1,-154.4 1313.39,-151.89 1303.78,-147.43 1303.1,-154.4"/>
</g>
<!-- Node7 -->
<g id="node7" class="node">
<title>Node7</title>
<g id="a_node7"><a xlink:href="../../d8/d1e/vistoolmirrorbyline_8h.html" target="_top" xlink:title=" ">
<polygon fill="white" stroke="black" points="936.5,-78.5 936.5,-108.5 1128.5,-108.5 1128.5,-78.5 936.5,-78.5"/>
<text text-anchor="start" x="944.5" y="-96.5" font-family="Helvetica,sans-Serif" font-size="10.00">src/libs/vtools/visualization</text>
<text text-anchor="middle" x="1032.5" y="-85.5" font-family="Helvetica,sans-Serif" font-size="10.00">/line/operation/vistoolmirrorbyline.h</text>
</a>
</g>
</g>
<!-- Node1&#45;&gt;Node7 -->
<g id="edge6" class="edge">
<title>Node1&#45;&gt;Node7</title>
<path fill="none" stroke="midnightblue" d="M1305.47,-143.65C1245.89,-132.92 1167.91,-118.88 1110.56,-108.55"/>
<polygon fill="midnightblue" stroke="midnightblue" points="1305.15,-147.15 1315.61,-145.48 1306.39,-140.26 1305.15,-147.15"/>
</g>
<!-- Node11 -->
<g id="node11" class="node">
<title>Node11</title>
<g id="a_node11"><a xlink:href="../../d0/d44/vistoolmove_8h.html" target="_top" xlink:title=" ">
<polygon fill="white" stroke="black" points="1313.5,-78.5 1313.5,-108.5 1473.5,-108.5 1473.5,-78.5 1313.5,-78.5"/>
<text text-anchor="start" x="1321.5" y="-96.5" font-family="Helvetica,sans-Serif" font-size="10.00">src/libs/vtools/visualization</text>
<text text-anchor="middle" x="1393.5" y="-85.5" font-family="Helvetica,sans-Serif" font-size="10.00">/line/operation/vistoolmove.h</text>
</a>
</g>
</g>
<!-- Node1&#45;&gt;Node11 -->
<g id="edge10" class="edge">
<title>Node1&#45;&gt;Node11</title>
<path fill="none" stroke="midnightblue" d="M1393.5,-135.11C1393.5,-126.15 1393.5,-116.32 1393.5,-108.58"/>
<polygon fill="midnightblue" stroke="midnightblue" points="1390,-135.4 1393.5,-145.4 1397,-135.4 1390,-135.4"/>
</g>
<!-- Node15 -->
<g id="node15" class="node">
<title>Node15</title>
<g id="a_node15"><a xlink:href="../../df/d46/vistoolmove_8cpp.html" target="_top" xlink:title=" ">
<polygon fill="white" stroke="black" points="1562,-6 1562,-36 1733,-36 1733,-6 1562,-6"/>
<text text-anchor="start" x="1570" y="-24" font-family="Helvetica,sans-Serif" font-size="10.00">src/libs/vtools/visualization</text>
<text text-anchor="middle" x="1647.5" y="-13" font-family="Helvetica,sans-Serif" font-size="10.00">/line/operation/vistoolmove.cpp</text>
</a>
</g>
</g>
<!-- Node1&#45;&gt;Node15 -->
<g id="edge20" class="edge">
<title>Node1&#45;&gt;Node15</title>
<path fill="none" stroke="midnightblue" d="M1428.53,-140.54C1480.15,-112.59 1575.48,-60.99 1621.42,-36.12"/>
<polygon fill="midnightblue" stroke="midnightblue" points="1426.85,-137.46 1419.73,-145.3 1430.19,-143.62 1426.85,-137.46"/>
</g>
<!-- Node16 -->
<g id="node16" class="node">
<title>Node16</title>
<g id="a_node16"><a xlink:href="../../de/d9c/vistoolrotation_8h.html" target="_top" xlink:title=" ">
<polygon fill="white" stroke="black" points="1783.5,-78.5 1783.5,-108.5 1953.5,-108.5 1953.5,-78.5 1783.5,-78.5"/>
<text text-anchor="start" x="1791.5" y="-96.5" font-family="Helvetica,sans-Serif" font-size="10.00">src/libs/vtools/visualization</text>
<text text-anchor="middle" x="1868.5" y="-85.5" font-family="Helvetica,sans-Serif" font-size="10.00">/line/operation/vistoolrotation.h</text>
</a>
</g>
</g>
<!-- Node1&#45;&gt;Node16 -->
<g id="edge15" class="edge">
<title>Node1&#45;&gt;Node16</title>
<path fill="none" stroke="midnightblue" d="M1483.57,-147.17C1569.76,-135.38 1698.8,-117.72 1783.32,-106.16"/>
<polygon fill="midnightblue" stroke="midnightblue" points="1482.97,-143.72 1473.54,-148.55 1483.92,-150.66 1482.97,-143.72"/>
</g>
<!-- Node19 -->
<g id="node19" class="node">
<title>Node19</title>
<g id="a_node19"><a xlink:href="../../d1/df2/vistoolrotation_8cpp.html" target="_top" xlink:title=" ">
<polygon fill="white" stroke="black" points="2040.5,-6 2040.5,-36 2222.5,-36 2222.5,-6 2040.5,-6"/>
<text text-anchor="start" x="2048.5" y="-24" font-family="Helvetica,sans-Serif" font-size="10.00">src/libs/vtools/visualization</text>
<text text-anchor="middle" x="2131.5" y="-13" font-family="Helvetica,sans-Serif" font-size="10.00">/line/operation/vistoolrotation.cpp</text>
</a>
</g>
</g>
<!-- Node1&#45;&gt;Node19 -->
<g id="edge19" class="edge">
<title>Node1&#45;&gt;Node19</title>
<path fill="none" stroke="midnightblue" d="M1483.73,-155.73C1620.9,-149.27 1875.14,-134.31 1962.5,-109 2019.55,-92.47 2079.93,-56.18 2110.74,-36.08"/>
<polygon fill="midnightblue" stroke="midnightblue" points="1483.49,-152.23 1473.66,-156.19 1483.81,-159.23 1483.49,-152.23"/>
</g>
<!-- Node3 -->
<g id="node3" class="node">
<title>Node3</title>
<g id="a_node3"><a xlink:href="../../d9/d34/dialogmirrorbyaxis_8cpp.html" target="_top" xlink:title=" ">
<polygon fill="white" stroke="black" points="0,-6 0,-36 159,-36 159,-6 0,-6"/>
<text text-anchor="start" x="8" y="-24" font-family="Helvetica,sans-Serif" font-size="10.00">src/libs/vtools/dialogs</text>
<text text-anchor="middle" x="79.5" y="-13" font-family="Helvetica,sans-Serif" font-size="10.00">/tools/dialogmirrorbyaxis.cpp</text>
</a>
</g>
</g>
<!-- Node2&#45;&gt;Node3 -->
<g id="edge2" class="edge">
<title>Node2&#45;&gt;Node3</title>
<path fill="none" stroke="midnightblue" d="M293.08,-75.97C245.17,-63.86 180.83,-47.6 135.33,-36.11"/>
<polygon fill="midnightblue" stroke="midnightblue" points="292.49,-79.43 303.05,-78.49 294.21,-72.64 292.49,-79.43"/>
</g>
<!-- Node4 -->
<g id="node4" class="node">
<title>Node4</title>
<g id="a_node4"><a xlink:href="../../d5/d3b/vtoolmirrorbyaxis_8cpp.html" target="_top" xlink:title=" ">
<polygon fill="white" stroke="black" points="177.5,-0.5 177.5,-41.5 337.5,-41.5 337.5,-0.5 177.5,-0.5"/>
<text text-anchor="start" x="185.5" y="-29.5" font-family="Helvetica,sans-Serif" font-size="10.00">src/libs/vtools/tools</text>
<text text-anchor="start" x="185.5" y="-18.5" font-family="Helvetica,sans-Serif" font-size="10.00">/drawTools/operation</text>
<text text-anchor="middle" x="257.5" y="-7.5" font-family="Helvetica,sans-Serif" font-size="10.00">/mirror/vtoolmirrorbyaxis.cpp</text>
</a>
</g>
</g>
<!-- Node2&#45;&gt;Node4 -->
<g id="edge3" class="edge">
<title>Node2&#45;&gt;Node4</title>
<path fill="none" stroke="midnightblue" d="M329.82,-72.48C315.95,-62.8 299.36,-51.22 285.56,-41.59"/>
<polygon fill="midnightblue" stroke="midnightblue" points="327.86,-75.38 338.06,-78.23 331.86,-69.64 327.86,-75.38"/>
</g>
<!-- Node5 -->
<g id="node5" class="node">
<title>Node5</title>
<g id="a_node5"><a xlink:href="../../de/da4/vistoolmirrorbyaxis_8cpp.html" target="_top" xlink:title=" ">
<polygon fill="white" stroke="black" points="355.5,-6 355.5,-36 561.5,-36 561.5,-6 355.5,-6"/>
<text text-anchor="start" x="363.5" y="-24" font-family="Helvetica,sans-Serif" font-size="10.00">src/libs/vtools/visualization</text>
<text text-anchor="middle" x="458.5" y="-13" font-family="Helvetica,sans-Serif" font-size="10.00">/line/operation/vistoolmirrorbyaxis.cpp</text>
</a>
</g>
</g>
<!-- Node2&#45;&gt;Node5 -->
<g id="edge4" class="edge">
<title>Node2&#45;&gt;Node5</title>
<path fill="none" stroke="midnightblue" d="M386.97,-72.43C403.48,-60.79 423.86,-46.42 438.63,-36"/>
<polygon fill="midnightblue" stroke="midnightblue" points="384.89,-69.61 378.74,-78.23 388.93,-75.33 384.89,-69.61"/>
</g>
<!-- Node8 -->
<g id="node8" class="node">
<title>Node8</title>
<g id="a_node8"><a xlink:href="../../df/d5e/dialogmirrorbyline_8cpp.html" target="_top" xlink:title=" ">
<polygon fill="white" stroke="black" points="580,-6 580,-36 737,-36 737,-6 580,-6"/>
<text text-anchor="start" x="588" y="-24" font-family="Helvetica,sans-Serif" font-size="10.00">src/libs/vtools/dialogs</text>
<text text-anchor="middle" x="658.5" y="-13" font-family="Helvetica,sans-Serif" font-size="10.00">/tools/dialogmirrorbyline.cpp</text>
</a>
</g>
</g>
<!-- Node7&#45;&gt;Node8 -->
<g id="edge7" class="edge">
<title>Node7&#45;&gt;Node8</title>
<path fill="none" stroke="midnightblue" d="M936.37,-76.73C880.77,-67.3 809.55,-54.72 746.5,-42 737.44,-40.17 727.88,-38.12 718.53,-36.05"/>
<polygon fill="midnightblue" stroke="midnightblue" points="936.12,-80.24 946.57,-78.45 937.29,-73.33 936.12,-80.24"/>
</g>
<!-- Node9 -->
<g id="node9" class="node">
<title>Node9</title>
<g id="a_node9"><a xlink:href="../../d2/d3c/vtoolmirrorbyline_8cpp.html" target="_top" xlink:title=" ">
<polygon fill="white" stroke="black" points="755.5,-0.5 755.5,-41.5 913.5,-41.5 913.5,-0.5 755.5,-0.5"/>
<text text-anchor="start" x="763.5" y="-29.5" font-family="Helvetica,sans-Serif" font-size="10.00">src/libs/vtools/tools</text>
<text text-anchor="start" x="763.5" y="-18.5" font-family="Helvetica,sans-Serif" font-size="10.00">/drawTools/operation</text>
<text text-anchor="middle" x="834.5" y="-7.5" font-family="Helvetica,sans-Serif" font-size="10.00">/mirror/vtoolmirrorbyline.cpp</text>
</a>
</g>
</g>
<!-- Node7&#45;&gt;Node9 -->
<g id="edge8" class="edge">
<title>Node7&#45;&gt;Node9</title>
<path fill="none" stroke="midnightblue" d="M983.16,-74.93C954.67,-64.79 918.78,-52.01 889.4,-41.55"/>
<polygon fill="midnightblue" stroke="midnightblue" points="982.31,-78.35 992.91,-78.4 984.66,-71.75 982.31,-78.35"/>
</g>
<!-- Node10 -->
<g id="node10" class="node">
<title>Node10</title>
<g id="a_node10"><a xlink:href="../../d0/d35/vistoolmirrorbyline_8cpp.html" target="_top" xlink:title=" ">
<polygon fill="white" stroke="black" points="931,-6 931,-36 1134,-36 1134,-6 931,-6"/>
<text text-anchor="start" x="939" y="-24" font-family="Helvetica,sans-Serif" font-size="10.00">src/libs/vtools/visualization</text>
<text text-anchor="middle" x="1032.5" y="-13" font-family="Helvetica,sans-Serif" font-size="10.00">/line/operation/vistoolmirrorbyline.cpp</text>
</a>
</g>
</g>
<!-- Node7&#45;&gt;Node10 -->
<g id="edge9" class="edge">
<title>Node7&#45;&gt;Node10</title>
<path fill="none" stroke="midnightblue" d="M1032.5,-68.23C1032.5,-57.57 1032.5,-45.41 1032.5,-36.25"/>
<polygon fill="midnightblue" stroke="midnightblue" points="1029,-68.23 1032.5,-78.23 1036,-68.23 1029,-68.23"/>
</g>
<!-- Node12 -->
<g id="node12" class="node">
<title>Node12</title>
<g id="a_node12"><a xlink:href="../../d2/d47/image__dialog_8cpp.html" target="_top" xlink:title=" ">
<polygon fill="white" stroke="black" points="1151.5,-6 1151.5,-36 1263.5,-36 1263.5,-6 1151.5,-6"/>
<text text-anchor="start" x="1159.5" y="-24" font-family="Helvetica,sans-Serif" font-size="10.00">src/libs/tools/image</text>
<text text-anchor="middle" x="1207.5" y="-13" font-family="Helvetica,sans-Serif" font-size="10.00">_dialog.cpp</text>
</a>
</g>
</g>
<!-- Node11&#45;&gt;Node12 -->
<g id="edge11" class="edge">
<title>Node11&#45;&gt;Node12</title>
<path fill="none" stroke="midnightblue" d="M1346.83,-74.81C1315.22,-62.83 1274.01,-47.21 1244.63,-36.07"/>
<polygon fill="midnightblue" stroke="midnightblue" points="1345.72,-78.13 1356.31,-78.4 1348.2,-71.59 1345.72,-78.13"/>
</g>
<!-- Node13 -->
<g id="node13" class="node">
<title>Node13</title>
<g id="a_node13"><a xlink:href="../../d2/d51/dialogmove_8cpp.html" target="_top" xlink:title=" ">
<polygon fill="white" stroke="black" points="1282,-6 1282,-36 1407,-36 1407,-6 1282,-6"/>
<text text-anchor="start" x="1290" y="-24" font-family="Helvetica,sans-Serif" font-size="10.00">src/libs/vtools/dialogs</text>
<text text-anchor="middle" x="1344.5" y="-13" font-family="Helvetica,sans-Serif" font-size="10.00">/tools/dialogmove.cpp</text>
</a>
</g>
</g>
<!-- Node11&#45;&gt;Node13 -->
<g id="edge12" class="edge">
<title>Node11&#45;&gt;Node13</title>
<path fill="none" stroke="midnightblue" d="M1377.78,-69.89C1370.11,-58.84 1361.11,-45.89 1354.4,-36.25"/>
<polygon fill="midnightblue" stroke="midnightblue" points="1375,-72.02 1383.58,-78.23 1380.75,-68.02 1375,-72.02"/>
</g>
<!-- Node14 -->
<g id="node14" class="node">
<title>Node14</title>
<g id="a_node14"><a xlink:href="../../d3/d2b/vtoolmove_8cpp.html" target="_top" xlink:title=" ">
<polygon fill="white" stroke="black" points="1425.5,-0.5 1425.5,-41.5 1543.5,-41.5 1543.5,-0.5 1425.5,-0.5"/>
<text text-anchor="start" x="1433.5" y="-29.5" font-family="Helvetica,sans-Serif" font-size="10.00">src/libs/vtools/tools</text>
<text text-anchor="start" x="1433.5" y="-18.5" font-family="Helvetica,sans-Serif" font-size="10.00">/drawTools/operation</text>
<text text-anchor="middle" x="1484.5" y="-7.5" font-family="Helvetica,sans-Serif" font-size="10.00">/vtoolmove.cpp</text>
</a>
</g>
</g>
<!-- Node11&#45;&gt;Node14 -->
<g id="edge13" class="edge">
<title>Node11&#45;&gt;Node14</title>
<path fill="none" stroke="midnightblue" d="M1420.05,-71.93C1432.4,-62.36 1447.02,-51.03 1459.22,-41.59"/>
<polygon fill="midnightblue" stroke="midnightblue" points="1417.68,-69.34 1411.92,-78.23 1421.96,-74.88 1417.68,-69.34"/>
</g>
<!-- Node11&#45;&gt;Node15 -->
<g id="edge14" class="edge">
<title>Node11&#45;&gt;Node15</title>
<path fill="none" stroke="midnightblue" d="M1453.88,-75.74C1497.41,-63.66 1555.51,-47.53 1596.68,-36.11"/>
<polygon fill="midnightblue" stroke="midnightblue" points="1452.69,-72.44 1443.99,-78.49 1454.56,-79.19 1452.69,-72.44"/>
</g>
<!-- Node17 -->
<g id="node17" class="node">
<title>Node17</title>
<g id="a_node17"><a xlink:href="../../dc/d64/dialogrotation_8cpp.html" target="_top" xlink:title=" ">
<polygon fill="white" stroke="black" points="1751,-6 1751,-36 1886,-36 1886,-6 1751,-6"/>
<text text-anchor="start" x="1759" y="-24" font-family="Helvetica,sans-Serif" font-size="10.00">src/libs/vtools/dialogs</text>
<text text-anchor="middle" x="1818.5" y="-13" font-family="Helvetica,sans-Serif" font-size="10.00">/tools/dialogrotation.cpp</text>
</a>
</g>
</g>
<!-- Node16&#45;&gt;Node17 -->
<g id="edge16" class="edge">
<title>Node16&#45;&gt;Node17</title>
<path fill="none" stroke="midnightblue" d="M1852.46,-69.89C1844.63,-58.84 1835.44,-45.89 1828.6,-36.25"/>
<polygon fill="midnightblue" stroke="midnightblue" points="1849.74,-72.1 1858.38,-78.23 1855.45,-68.05 1849.74,-72.1"/>
</g>
<!-- Node18 -->
<g id="node18" class="node">
<title>Node18</title>
<g id="a_node18"><a xlink:href="../../df/dd2/vtoolrotation_8cpp.html" target="_top" xlink:title=" ">
<polygon fill="white" stroke="black" points="1904.5,-0.5 1904.5,-41.5 2022.5,-41.5 2022.5,-0.5 1904.5,-0.5"/>
<text text-anchor="start" x="1912.5" y="-29.5" font-family="Helvetica,sans-Serif" font-size="10.00">src/libs/vtools/tools</text>
<text text-anchor="start" x="1912.5" y="-18.5" font-family="Helvetica,sans-Serif" font-size="10.00">/drawTools/operation</text>
<text text-anchor="middle" x="1963.5" y="-7.5" font-family="Helvetica,sans-Serif" font-size="10.00">/vtoolrotation.cpp</text>
</a>
</g>
</g>
<!-- Node16&#45;&gt;Node18 -->
<g id="edge17" class="edge">
<title>Node16&#45;&gt;Node18</title>
<path fill="none" stroke="midnightblue" d="M1895.84,-72.21C1908.82,-62.58 1924.25,-51.12 1937.1,-41.59"/>
<polygon fill="midnightblue" stroke="midnightblue" points="1893.67,-69.46 1887.72,-78.23 1897.84,-75.08 1893.67,-69.46"/>
</g>
<!-- Node16&#45;&gt;Node19 -->
<g id="edge18" class="edge">
<title>Node16&#45;&gt;Node19</title>
<path fill="none" stroke="midnightblue" d="M1930.45,-75.89C1975.59,-63.79 2036.07,-47.58 2078.87,-36.11"/>
<polygon fill="midnightblue" stroke="midnightblue" points="1929.53,-72.52 1920.77,-78.49 1931.34,-79.28 1929.53,-72.52"/>
</g>
</g>
</svg>
        <g id="navigator" transform="translate(0 0)" fill="#404254">
                <rect fill="#f2f5e9" fill-opacity="0.5" stroke="#606060" stroke-width=".5" x="0" y="0" width="60" height="60"/>
                <use id="zoomplus" xlink:href="#zoomPlus" x="17" y="9" onmousedown="handleZoom(evt,'in')"/>
                <use id="zoomminus" xlink:href="#zoomMin" x="42" y="9" onmousedown="handleZoom(evt,'out')"/>
                <use id="reset" xlink:href="#resetDef" x="30" y="36" onmousedown="handleReset()"/>
                <g id="arrowUp" xlink:href="#dirArrow" transform="translate(30 24)" onmousedown="handlePan(0,-1)">
                  <use xlink:href="#rim" fill="#404040">
                        <set attributeName="fill" to="#808080" begin="arrowUp.mouseover" end="arrowUp.mouseout"/>
                  </use>
                  <path fill="none" stroke="white" stroke-width="1.5" d="M0,-3.0v7 M-2.5,-0.5L0,-3.0L2.5,-0.5"/>
                </g>
                <g id="arrowRight" xlink:href="#dirArrow" transform="rotate(90) translate(36 -43)" onmousedown="handlePan(1,0)">
                  <use xlink:href="#rim" fill="#404040">
                        <set attributeName="fill" to="#808080" begin="arrowRight.mouseover" end="arrowRight.mouseout"/>
                  </use>
                  <path fill="none" stroke="white" stroke-width="1.5" d="M0,-3.0v7 M-2.5,-0.5L0,-3.0L2.5,-0.5"/>
                </g>
                <g id="arrowDown" xlink:href="#dirArrow" transform="rotate(180) translate(-30 -48)" onmousedown="handlePan(0,1)">
                  <use xlink:href="#rim" fill="#404040">
                        <set attributeName="fill" to="#808080" begin="arrowDown.mouseover" end="arrowDown.mouseout"/>
                  </use>
                  <path fill="none" stroke="white" stroke-width="1.5" d="M0,-3.0v7 M-2.5,-0.5L0,-3.0L2.5,-0.5"/>
                </g>
                <g id="arrowLeft" xlink:href="#dirArrow" transform="rotate(270) translate(-36 17)" onmousedown="handlePan(-1,0)">
                  <use xlink:href="#rim" fill="#404040">
                        <set attributeName="fill" to="#808080" begin="arrowLeft.mouseover" end="arrowLeft.mouseout"/>
                  </use>
                  <path fill="none" stroke="white" stroke-width="1.5" d="M0,-3.0v7 M-2.5,-0.5L0,-3.0L2.5,-0.5"/>
                </g>
        </g>
        <svg viewBox="0 0 15 15" width="100%" height="30px" preserveAspectRatio="xMaxYMin meet">
         <g id="arrow_out" transform="scale(0.3 0.3)">
          <a xlink:href="visoperation_8h__dep__incl_org.svg" target="_base">
           <rect id="button" ry="5" rx="5" y="6" x="6" height="38" width="38"
                fill="#f2f5e9" fill-opacity="0.5" stroke="#606060" stroke-width="1.0"/>
           <path id="arrow"
             d="M 11.500037,31.436501 C 11.940474,20.09759 22.043105,11.32322 32.158766,21.979434 L 37.068811,17.246167 C 37.068811,17.246167 37.088388,32 37.088388,32 L 22.160133,31.978069 C 22.160133,31.978069 26.997745,27.140456 26.997745,27.140456 C 18.528582,18.264221 13.291696,25.230495 11.500037,31.436501 z"
             style="fill:#404040;"/>
          </a>
         </g>
        </svg>
</svg>
