<?xml version="1.0" encoding="UTF-8" standalone="no"?>
<!DOCTYPE svg PUBLIC "-//W3C//DTD SVG 1.1//EN"
 "http://www.w3.org/Graphics/SVG/1.1/DTD/svg11.dtd">
<!-- Generated by graphviz version 2.43.0 (0)
 -->
<!-- Title: src/libs/vtools/visualization/line/operation/visoperation.h Pages: 1 -->
<svg width="2102pt" height="184pt"
 viewBox="0.00 0.00 2101.50 184.00" xmlns="http://www.w3.org/2000/svg" xmlns:xlink="http://www.w3.org/1999/xlink">
<g id="graph0" class="graph" transform="scale(1 1) rotate(0) translate(4 180)">
<title>src/libs/vtools/visualization/line/operation/visoperation.h</title>
<polygon fill="white" stroke="transparent" points="-4,4 -4,-180 2097.5,-180 2097.5,4 -4,4"/>
<!-- Node1 -->
<g id="node1" class="node">
<title>Node1</title>
<g id="a_node1"><a xlink:title=" ">
<polygon fill="#bfbfbf" stroke="black" points="1396.5,-145.5 1396.5,-175.5 1556.5,-175.5 1556.5,-145.5 1396.5,-145.5"/>
<text text-anchor="start" x="1404.5" y="-163.5" font-family="Helvetica,sans-Serif" font-size="10.00">src/libs/vtools/visualization</text>
<text text-anchor="middle" x="1476.5" y="-152.5" font-family="Helvetica,sans-Serif" font-size="10.00">/line/operation/visoperation.h</text>
</a>
</g>
</g>
<!-- Node2 -->
<g id="node2" class="node">
<title>Node2</title>
<g id="a_node2"><a xlink:href="../../da/d4d/vistoolmirrorbyaxis_8h.html" target="_top" xlink:title=" ">
<polygon fill="white" stroke="black" points="261.5,-78.5 261.5,-108.5 455.5,-108.5 455.5,-78.5 261.5,-78.5"/>
<text text-anchor="start" x="269.5" y="-96.5" font-family="Helvetica,sans-Serif" font-size="10.00">src/libs/vtools/visualization</text>
<text text-anchor="middle" x="358.5" y="-85.5" font-family="Helvetica,sans-Serif" font-size="10.00">/line/operation/vistoolmirrorbyaxis.h</text>
</a>
</g>
</g>
<!-- Node1&#45;&gt;Node2 -->
<g id="edge1" class="edge">
<title>Node1&#45;&gt;Node2</title>
<path fill="none" stroke="midnightblue" d="M1385.84,-154.23C1178.19,-142.16 669.62,-112.59 455.76,-100.15"/>
<polygon fill="midnightblue" stroke="midnightblue" points="1385.91,-157.74 1396.1,-154.83 1386.32,-150.75 1385.91,-157.74"/>
</g>
<!-- Node6 -->
<g id="node6" class="node">
<title>Node6</title>
<g id="a_node6"><a xlink:href="../../d8/d1e/vistoolmirrorbyline_8h.html" target="_top" xlink:title=" ">
<polygon fill="white" stroke="black" points="837.5,-78.5 837.5,-108.5 1029.5,-108.5 1029.5,-78.5 837.5,-78.5"/>
<text text-anchor="start" x="845.5" y="-96.5" font-family="Helvetica,sans-Serif" font-size="10.00">src/libs/vtools/visualization</text>
<text text-anchor="middle" x="933.5" y="-85.5" font-family="Helvetica,sans-Serif" font-size="10.00">/line/operation/vistoolmirrorbyline.h</text>
</a>
</g>
</g>
<!-- Node1&#45;&gt;Node6 -->
<g id="edge5" class="edge">
<title>Node1&#45;&gt;Node6</title>
<path fill="none" stroke="midnightblue" d="M1386.43,-148.72C1287.85,-136.92 1130.42,-118.07 1029.53,-106"/>
<polygon fill="midnightblue" stroke="midnightblue" points="1386.03,-152.2 1396.38,-149.91 1386.87,-145.25 1386.03,-152.2"/>
</g>
<!-- Node10 -->
<g id="node10" class="node">
<title>Node10</title>
<g id="a_node10"><a xlink:href="../../d0/d44/vistoolmove_8h.html" target="_top" xlink:title=" ">
<polygon fill="white" stroke="black" points="1277.5,-78.5 1277.5,-108.5 1437.5,-108.5 1437.5,-78.5 1277.5,-78.5"/>
<text text-anchor="start" x="1285.5" y="-96.5" font-family="Helvetica,sans-Serif" font-size="10.00">src/libs/vtools/visualization</text>
<text text-anchor="middle" x="1357.5" y="-85.5" font-family="Helvetica,sans-Serif" font-size="10.00">/line/operation/vistoolmove.h</text>
</a>
</g>
</g>
<!-- Node1&#45;&gt;Node10 -->
<g id="edge9" class="edge">
<title>Node1&#45;&gt;Node10</title>
<path fill="none" stroke="midnightblue" d="M1441.85,-140.57C1423.13,-130.35 1400.41,-117.94 1383.27,-108.58"/>
<polygon fill="midnightblue" stroke="midnightblue" points="1440.22,-143.67 1450.68,-145.4 1443.58,-137.53 1440.22,-143.67"/>
</g>
<!-- Node13 -->
<g id="node13" class="node">
<title>Node13</title>
<g id="a_node13"><a xlink:href="../../df/d46/vistoolmove_8cpp.html" target="_top" xlink:title=" ">
<polygon fill="white" stroke="black" points="1432,-6 1432,-36 1603,-36 1603,-6 1432,-6"/>
<text text-anchor="start" x="1440" y="-24" font-family="Helvetica,sans-Serif" font-size="10.00">src/libs/vtools/visualization</text>
<text text-anchor="middle" x="1517.5" y="-13" font-family="Helvetica,sans-Serif" font-size="10.00">/line/operation/vistoolmove.cpp</text>
</a>
</g>
</g>
<!-- Node1&#45;&gt;Node13 -->
<g id="edge19" class="edge">
<title>Node1&#45;&gt;Node13</title>
<path fill="none" stroke="midnightblue" d="M1481.11,-135.65C1484.5,-119.27 1489.55,-97.12 1495.5,-78 1500.03,-63.44 1506.55,-47.27 1511.31,-36.07"/>
<polygon fill="midnightblue" stroke="midnightblue" points="1477.67,-135 1479.12,-145.49 1484.53,-136.38 1477.67,-135"/>
</g>
<!-- Node14 -->
<g id="node14" class="node">
<title>Node14</title>
<g id="a_node14"><a xlink:href="../../d5/de2/visoperation_8cpp.html" target="_top" xlink:title=" ">
<polygon fill="white" stroke="black" points="1505,-78.5 1505,-108.5 1676,-108.5 1676,-78.5 1505,-78.5"/>
<text text-anchor="start" x="1513" y="-96.5" font-family="Helvetica,sans-Serif" font-size="10.00">src/libs/vtools/visualization</text>
<text text-anchor="middle" x="1590.5" y="-85.5" font-family="Helvetica,sans-Serif" font-size="10.00">/line/operation/visoperation.cpp</text>
</a>
</g>
</g>
<!-- Node1&#45;&gt;Node14 -->
<g id="edge13" class="edge">
<title>Node1&#45;&gt;Node14</title>
<path fill="none" stroke="midnightblue" d="M1510.18,-140.3C1528.02,-130.12 1549.54,-117.85 1565.81,-108.58"/>
<polygon fill="midnightblue" stroke="midnightblue" points="1508.19,-137.4 1501.24,-145.4 1511.66,-143.48 1508.19,-137.4"/>
</g>
<!-- Node15 -->
<g id="node15" class="node">
<title>Node15</title>
<g id="a_node15"><a xlink:href="../../d1/df2/vistoolrotation_8cpp.html" target="_top" xlink:title=" ">
<polygon fill="white" stroke="black" points="1621.5,-6 1621.5,-36 1803.5,-36 1803.5,-6 1621.5,-6"/>
<text text-anchor="start" x="1629.5" y="-24" font-family="Helvetica,sans-Serif" font-size="10.00">src/libs/vtools/visualization</text>
<text text-anchor="middle" x="1712.5" y="-13" font-family="Helvetica,sans-Serif" font-size="10.00">/line/operation/vistoolrotation.cpp</text>
</a>
</g>
</g>
<!-- Node1&#45;&gt;Node15 -->
<g id="edge14" class="edge">
<title>Node1&#45;&gt;Node15</title>
<path fill="none" stroke="midnightblue" d="M1566.76,-146.51C1614.59,-137.93 1667,-125.27 1684.5,-109 1705.07,-89.88 1710.58,-55.61 1712.02,-36.28"/>
<polygon fill="midnightblue" stroke="midnightblue" points="1565.89,-143.11 1556.64,-148.28 1567.09,-150.01 1565.89,-143.11"/>
</g>
<!-- Node16 -->
<g id="node16" class="node">
<title>Node16</title>
<g id="a_node16"><a xlink:href="../../de/d9c/vistoolrotation_8h.html" target="_top" xlink:title=" ">
<polygon fill="white" stroke="black" points="1772.5,-78.5 1772.5,-108.5 1942.5,-108.5 1942.5,-78.5 1772.5,-78.5"/>
<text text-anchor="start" x="1780.5" y="-96.5" font-family="Helvetica,sans-Serif" font-size="10.00">src/libs/vtools/visualization</text>
<text text-anchor="middle" x="1857.5" y="-85.5" font-family="Helvetica,sans-Serif" font-size="10.00">/line/operation/vistoolrotation.h</text>
</a>
</g>
</g>
<!-- Node1&#45;&gt;Node16 -->
<g id="edge15" class="edge">
<title>Node1&#45;&gt;Node16</title>
<path fill="none" stroke="midnightblue" d="M1566.8,-144.09C1630.06,-133.3 1713.92,-119 1775.3,-108.52"/>
<polygon fill="midnightblue" stroke="midnightblue" points="1566.1,-140.66 1556.83,-145.79 1567.28,-147.56 1566.1,-140.66"/>
</g>
<!-- Node3 -->
<g id="node3" class="node">
<title>Node3</title>
<g id="a_node3"><a xlink:href="../../d9/d34/dialogmirrorbyaxis_8cpp.html" target="_top" xlink:title=" ">
<polygon fill="white" stroke="black" points="0,-6 0,-36 159,-36 159,-6 0,-6"/>
<text text-anchor="start" x="8" y="-24" font-family="Helvetica,sans-Serif" font-size="10.00">src/libs/vtools/dialogs</text>
<text text-anchor="middle" x="79.5" y="-13" font-family="Helvetica,sans-Serif" font-size="10.00">/tools/dialogmirrorbyaxis.cpp</text>
</a>
</g>
</g>
<!-- Node2&#45;&gt;Node3 -->
<g id="edge2" class="edge">
<title>Node2&#45;&gt;Node3</title>
<path fill="none" stroke="midnightblue" d="M293.08,-75.97C245.17,-63.86 180.83,-47.6 135.33,-36.11"/>
<polygon fill="midnightblue" stroke="midnightblue" points="292.49,-79.43 303.05,-78.49 294.21,-72.64 292.49,-79.43"/>
</g>
<!-- Node4 -->
<g id="node4" class="node">
<title>Node4</title>
<g id="a_node4"><a xlink:href="../../d5/d3b/vtoolmirrorbyaxis_8cpp.html" target="_top" xlink:title=" ">
<polygon fill="white" stroke="black" points="177.5,-0.5 177.5,-41.5 337.5,-41.5 337.5,-0.5 177.5,-0.5"/>
<text text-anchor="start" x="185.5" y="-29.5" font-family="Helvetica,sans-Serif" font-size="10.00">src/libs/vtools/tools</text>
<text text-anchor="start" x="185.5" y="-18.5" font-family="Helvetica,sans-Serif" font-size="10.00">/drawTools/operation</text>
<text text-anchor="middle" x="257.5" y="-7.5" font-family="Helvetica,sans-Serif" font-size="10.00">/mirror/vtoolmirrorbyaxis.cpp</text>
</a>
</g>
</g>
<!-- Node2&#45;&gt;Node4 -->
<g id="edge3" class="edge">
<title>Node2&#45;&gt;Node4</title>
<path fill="none" stroke="midnightblue" d="M329.82,-72.48C315.95,-62.8 299.36,-51.22 285.56,-41.59"/>
<polygon fill="midnightblue" stroke="midnightblue" points="327.86,-75.38 338.06,-78.23 331.86,-69.64 327.86,-75.38"/>
</g>
<!-- Node5 -->
<g id="node5" class="node">
<title>Node5</title>
<g id="a_node5"><a xlink:href="../../de/da4/vistoolmirrorbyaxis_8cpp.html" target="_top" xlink:title=" ">
<polygon fill="white" stroke="black" points="355.5,-6 355.5,-36 561.5,-36 561.5,-6 355.5,-6"/>
<text text-anchor="start" x="363.5" y="-24" font-family="Helvetica,sans-Serif" font-size="10.00">src/libs/vtools/visualization</text>
<text text-anchor="middle" x="458.5" y="-13" font-family="Helvetica,sans-Serif" font-size="10.00">/line/operation/vistoolmirrorbyaxis.cpp</text>
</a>
</g>
</g>
<!-- Node2&#45;&gt;Node5 -->
<g id="edge4" class="edge">
<title>Node2&#45;&gt;Node5</title>
<path fill="none" stroke="midnightblue" d="M386.97,-72.43C403.48,-60.79 423.86,-46.42 438.63,-36"/>
<polygon fill="midnightblue" stroke="midnightblue" points="384.89,-69.61 378.74,-78.23 388.93,-75.33 384.89,-69.61"/>
</g>
<!-- Node7 -->
<g id="node7" class="node">
<title>Node7</title>
<g id="a_node7"><a xlink:href="../../df/d5e/dialogmirrorbyline_8cpp.html" target="_top" xlink:title=" ">
<polygon fill="white" stroke="black" points="580,-6 580,-36 737,-36 737,-6 580,-6"/>
<text text-anchor="start" x="588" y="-24" font-family="Helvetica,sans-Serif" font-size="10.00">src/libs/vtools/dialogs</text>
<text text-anchor="middle" x="658.5" y="-13" font-family="Helvetica,sans-Serif" font-size="10.00">/tools/dialogmirrorbyline.cpp</text>
</a>
</g>
</g>
<!-- Node6&#45;&gt;Node7 -->
<g id="edge6" class="edge">
<title>Node6&#45;&gt;Node7</title>
<path fill="none" stroke="midnightblue" d="M869.02,-75.97C821.79,-63.86 758.38,-47.6 713.53,-36.11"/>
<polygon fill="midnightblue" stroke="midnightblue" points="868.28,-79.39 878.84,-78.49 870.02,-72.61 868.28,-79.39"/>
</g>
<!-- Node8 -->
<g id="node8" class="node">
<title>Node8</title>
<g id="a_node8"><a xlink:href="../../d2/d3c/vtoolmirrorbyline_8cpp.html" target="_top" xlink:title=" ">
<polygon fill="white" stroke="black" points="755.5,-0.5 755.5,-41.5 913.5,-41.5 913.5,-0.5 755.5,-0.5"/>
<text text-anchor="start" x="763.5" y="-29.5" font-family="Helvetica,sans-Serif" font-size="10.00">src/libs/vtools/tools</text>
<text text-anchor="start" x="763.5" y="-18.5" font-family="Helvetica,sans-Serif" font-size="10.00">/drawTools/operation</text>
<text text-anchor="middle" x="834.5" y="-7.5" font-family="Helvetica,sans-Serif" font-size="10.00">/mirror/vtoolmirrorbyline.cpp</text>
</a>
</g>
</g>
<!-- Node6&#45;&gt;Node8 -->
<g id="edge7" class="edge">
<title>Node6&#45;&gt;Node8</title>
<path fill="none" stroke="midnightblue" d="M905.01,-72.21C891.49,-62.58 875.4,-51.12 862.01,-41.59"/>
<polygon fill="midnightblue" stroke="midnightblue" points="903.29,-75.28 913.47,-78.23 907.35,-69.58 903.29,-75.28"/>
</g>
<!-- Node9 -->
<g id="node9" class="node">
<title>Node9</title>
<g id="a_node9"><a xlink:href="../../d0/d35/vistoolmirrorbyline_8cpp.html" target="_top" xlink:title=" ">
<polygon fill="white" stroke="black" points="931,-6 931,-36 1134,-36 1134,-6 931,-6"/>
<text text-anchor="start" x="939" y="-24" font-family="Helvetica,sans-Serif" font-size="10.00">src/libs/vtools/visualization</text>
<text text-anchor="middle" x="1032.5" y="-13" font-family="Helvetica,sans-Serif" font-size="10.00">/line/operation/vistoolmirrorbyline.cpp</text>
</a>
</g>
</g>
<!-- Node6&#45;&gt;Node9 -->
<g id="edge8" class="edge">
<title>Node6&#45;&gt;Node9</title>
<path fill="none" stroke="midnightblue" d="M961.68,-72.43C978.03,-60.79 998.2,-46.42 1012.83,-36"/>
<polygon fill="midnightblue" stroke="midnightblue" points="959.65,-69.58 953.53,-78.23 963.71,-75.28 959.65,-69.58"/>
</g>
<!-- Node11 -->
<g id="node11" class="node">
<title>Node11</title>
<g id="a_node11"><a xlink:href="../../d2/d51/dialogmove_8cpp.html" target="_top" xlink:title=" ">
<polygon fill="white" stroke="black" points="1152,-6 1152,-36 1277,-36 1277,-6 1152,-6"/>
<text text-anchor="start" x="1160" y="-24" font-family="Helvetica,sans-Serif" font-size="10.00">src/libs/vtools/dialogs</text>
<text text-anchor="middle" x="1214.5" y="-13" font-family="Helvetica,sans-Serif" font-size="10.00">/tools/dialogmove.cpp</text>
</a>
</g>
</g>
<!-- Node10&#45;&gt;Node11 -->
<g id="edge10" class="edge">
<title>Node10&#45;&gt;Node11</title>
<path fill="none" stroke="midnightblue" d="M1319.72,-73.87C1295.68,-62.02 1265.05,-46.92 1243.04,-36.07"/>
<polygon fill="midnightblue" stroke="midnightblue" points="1318.39,-77.12 1328.91,-78.4 1321.48,-70.84 1318.39,-77.12"/>
</g>
<!-- Node12 -->
<g id="node12" class="node">
<title>Node12</title>
<g id="a_node12"><a xlink:href="../../d3/d2b/vtoolmove_8cpp.html" target="_top" xlink:title=" ">
<polygon fill="white" stroke="black" points="1295.5,-0.5 1295.5,-41.5 1413.5,-41.5 1413.5,-0.5 1295.5,-0.5"/>
<text text-anchor="start" x="1303.5" y="-29.5" font-family="Helvetica,sans-Serif" font-size="10.00">src/libs/vtools/tools</text>
<text text-anchor="start" x="1303.5" y="-18.5" font-family="Helvetica,sans-Serif" font-size="10.00">/drawTools/operation</text>
<text text-anchor="middle" x="1354.5" y="-7.5" font-family="Helvetica,sans-Serif" font-size="10.00">/vtoolmove.cpp</text>
</a>
</g>
</g>
<!-- Node10&#45;&gt;Node12 -->
<g id="edge11" class="edge">
<title>Node10&#45;&gt;Node12</title>
<path fill="none" stroke="midnightblue" d="M1356.46,-67.98C1356.09,-59.35 1355.68,-49.76 1355.33,-41.59"/>
<polygon fill="midnightblue" stroke="midnightblue" points="1352.97,-68.39 1356.89,-78.23 1359.96,-68.09 1352.97,-68.39"/>
</g>
<!-- Node10&#45;&gt;Node13 -->
<g id="edge12" class="edge">
<title>Node10&#45;&gt;Node13</title>
<path fill="none" stroke="midnightblue" d="M1398.71,-74.34C1425.76,-62.42 1460.61,-47.07 1485.56,-36.07"/>
<polygon fill="midnightblue" stroke="midnightblue" points="1397.23,-71.17 1389.49,-78.4 1400.06,-77.57 1397.23,-71.17"/>
</g>
<!-- Node16&#45;&gt;Node15 -->
<g id="edge18" class="edge">
<title>Node16&#45;&gt;Node15</title>
<path fill="none" stroke="midnightblue" d="M1819.51,-74.03C1795.09,-62.16 1763.86,-46.97 1741.44,-36.07"/>
<polygon fill="midnightblue" stroke="midnightblue" points="1817.98,-77.18 1828.51,-78.4 1821.04,-70.88 1817.98,-77.18"/>
</g>
<!-- Node17 -->
<g id="node17" class="node">
<title>Node17</title>
<g id="a_node17"><a xlink:href="../../dc/d64/dialogrotation_8cpp.html" target="_top" xlink:title=" ">
<polygon fill="white" stroke="black" points="1822,-6 1822,-36 1957,-36 1957,-6 1822,-6"/>
<text text-anchor="start" x="1830" y="-24" font-family="Helvetica,sans-Serif" font-size="10.00">src/libs/vtools/dialogs</text>
<text text-anchor="middle" x="1889.5" y="-13" font-family="Helvetica,sans-Serif" font-size="10.00">/tools/dialogrotation.cpp</text>
</a>
</g>
</g>
<!-- Node16&#45;&gt;Node17 -->
<g id="edge16" class="edge">
<title>Node16&#45;&gt;Node17</title>
<path fill="none" stroke="midnightblue" d="M1868.21,-68.9C1873.13,-58.08 1878.79,-45.61 1883.03,-36.25"/>
<polygon fill="midnightblue" stroke="midnightblue" points="1864.92,-67.68 1863.98,-78.23 1871.3,-70.57 1864.92,-67.68"/>
</g>
<!-- Node18 -->
<g id="node18" class="node">
<title>Node18</title>
<g id="a_node18"><a xlink:href="../../df/dd2/vtoolrotation_8cpp.html" target="_top" xlink:title=" ">
<polygon fill="white" stroke="black" points="1975.5,-0.5 1975.5,-41.5 2093.5,-41.5 2093.5,-0.5 1975.5,-0.5"/>
<text text-anchor="start" x="1983.5" y="-29.5" font-family="Helvetica,sans-Serif" font-size="10.00">src/libs/vtools/tools</text>
<text text-anchor="start" x="1983.5" y="-18.5" font-family="Helvetica,sans-Serif" font-size="10.00">/drawTools/operation</text>
<text text-anchor="middle" x="2034.5" y="-7.5" font-family="Helvetica,sans-Serif" font-size="10.00">/vtoolrotation.cpp</text>
</a>
</g>
</g>
<!-- Node16&#45;&gt;Node18 -->
<g id="edge17" class="edge">
<title>Node16&#45;&gt;Node18</title>
<path fill="none" stroke="midnightblue" d="M1902.27,-74.67C1927.63,-64.57 1959.39,-51.92 1985.43,-41.55"/>
<polygon fill="midnightblue" stroke="midnightblue" points="1900.89,-71.45 1892.89,-78.4 1903.48,-77.95 1900.89,-71.45"/>
</g>
</g>
</svg>
