<?xml version="1.0" encoding="UTF-8" standalone="no"?>
<!DOCTYPE svg PUBLIC "-//W3C//DTD SVG 1.1//EN"
 "http://www.w3.org/Graphics/SVG/1.1/DTD/svg11.dtd">
<!-- Generated by graphviz version 2.43.0 (0)
 -->
<!-- Title: src/libs/xerces&#45;c/mingw/include/xercesc/dom/impl/DOMNodeBase.hpp Pages: 1 -->
<!--zoomable 284 -->
<svg id="main" version="1.1" xmlns="http://www.w3.org/2000/svg" xmlns:xlink="http://www.w3.org/1999/xlink" xml:space="preserve" onload="init(evt)">
<style type="text/css"><![CDATA[
.edge:hover path { stroke: red; }
.edge:hover polygon { stroke: red; fill: red; }
]]></style>
<script type="text/javascript"><![CDATA[
var edges = document.getElementsByTagName('g');
if (edges && edges.length) {
  for (var i=0;i<edges.length;i++) {
    if (edges[i].id.substr(0,4)=='edge') {
      edges[i].setAttribute('class','edge');
    }
  }
}
]]></script>
        <defs>
                <circle id="rim" cx="0" cy="0" r="7"/>
                <circle id="rim2" cx="0" cy="0" r="3.5"/>
                <g id="zoomPlus">
                        <use xlink:href="#rim" fill="#404040">
                                <set attributeName="fill" to="#808080" begin="zoomplus.mouseover" end="zoomplus.mouseout"/>
                        </use>
                        <path d="M-4,0h8M0,-4v8" fill="none" stroke="white" stroke-width="1.5" pointer-events="none"/>
                </g>
                <g id="zoomMin">
                        <use xlink:href="#rim" fill="#404040">
                                <set attributeName="fill" to="#808080" begin="zoomminus.mouseover" end="zoomminus.mouseout"/>
                        </use>
                        <path d="M-4,0h8" fill="none" stroke="white" stroke-width="1.5" pointer-events="none"/>
                </g>
                <g id="dirArrow">
                        <path fill="none" stroke="white" stroke-width="1.5" d="M0,-3.0v7 M-2.5,-0.5L0,-3.0L2.5,-0.5"/>
                </g>
               <g id="resetDef">
                       <use xlink:href="#rim2" fill="#404040">
                               <set attributeName="fill" to="#808080" begin="reset.mouseover" end="reset.mouseout"/>
                       </use>
               </g>
        </defs>

<script type="text/javascript">
var viewWidth = 1983;
var viewHeight = 284;
var sectionId = 'dynsection-1';
</script>
<script xlink:href="../../svgpan.js"/>
<svg id="graph" class="graph">
<g id="viewport">
<title>src/libs/xerces&#45;c/mingw/include/xercesc/dom/impl/DOMNodeBase.hpp</title>
<polygon fill="white" stroke="transparent" points="-4,4 -4,-280 1979,-280 1979,4 -4,4"/>
<!-- Node1 -->
<g id="node1" class="node">
<title>Node1</title>
<g id="a_node1"><a xlink:title=" ">
<polygon fill="#bfbfbf" stroke="black" points="977,-234.5 977,-275.5 1121,-275.5 1121,-234.5 977,-234.5"/>
<text text-anchor="start" x="985" y="-263.5" font-family="Helvetica,sans-Serif" font-size="10.00">src/libs/xerces&#45;c/mingw</text>
<text text-anchor="start" x="985" y="-252.5" font-family="Helvetica,sans-Serif" font-size="10.00">/include/xercesc/dom/impl</text>
<text text-anchor="middle" x="1049" y="-241.5" font-family="Helvetica,sans-Serif" font-size="10.00">/DOMNodeBase.hpp</text>
</a>
</g>
</g>
<!-- Node2 -->
<g id="node2" class="node">
<title>Node2</title>
<g id="a_node2"><a xlink:href="../../df/d5f/mingw_2include_2xercesc_2dom_2impl_2DOMCasts_8hpp.html" target="_top" xlink:title=" ">
<polygon fill="white" stroke="black" points="877,-78.5 877,-119.5 1021,-119.5 1021,-78.5 877,-78.5"/>
<text text-anchor="start" x="885" y="-107.5" font-family="Helvetica,sans-Serif" font-size="10.00">src/libs/xerces&#45;c/mingw</text>
<text text-anchor="start" x="885" y="-96.5" font-family="Helvetica,sans-Serif" font-size="10.00">/include/xercesc/dom/impl</text>
<text text-anchor="middle" x="949" y="-85.5" font-family="Helvetica,sans-Serif" font-size="10.00">/DOMCasts.hpp</text>
</a>
</g>
</g>
<!-- Node1&#45;&gt;Node2 -->
<g id="edge1" class="edge">
<title>Node1&#45;&gt;Node2</title>
<path fill="none" stroke="midnightblue" d="M1049,-224.23C1047.69,-203.58 1043.24,-176.26 1030,-156 1020.09,-140.83 1004.5,-128.62 989.63,-119.52"/>
<polygon fill="midnightblue" stroke="midnightblue" points="1045.5,-224.5 1049.43,-234.35 1052.5,-224.21 1045.5,-224.5"/>
</g>
<!-- Node3 -->
<g id="node3" class="node">
<title>Node3</title>
<g id="a_node3"><a xlink:href="../../d1/dd6/mingw_2include_2xercesc_2dom_2impl_2DOMCDATASectionImpl_8hpp.html" target="_top" xlink:title=" ">
<polygon fill="white" stroke="black" points="162.5,-156.5 162.5,-197.5 317.5,-197.5 317.5,-156.5 162.5,-156.5"/>
<text text-anchor="start" x="170.5" y="-185.5" font-family="Helvetica,sans-Serif" font-size="10.00">src/libs/xerces&#45;c/mingw</text>
<text text-anchor="start" x="170.5" y="-174.5" font-family="Helvetica,sans-Serif" font-size="10.00">/include/xercesc/dom/impl</text>
<text text-anchor="middle" x="240" y="-163.5" font-family="Helvetica,sans-Serif" font-size="10.00">/DOMCDATASectionImpl.hpp</text>
</a>
</g>
</g>
<!-- Node1&#45;&gt;Node3 -->
<g id="edge2" class="edge">
<title>Node1&#45;&gt;Node3</title>
<path fill="none" stroke="midnightblue" d="M966.64,-251.59C832.11,-246.77 557.14,-233.18 327,-198 323.94,-197.53 320.82,-197.01 317.68,-196.46"/>
<polygon fill="midnightblue" stroke="midnightblue" points="966.74,-255.1 976.86,-251.95 966.99,-248.1 966.74,-255.1"/>
</g>
<!-- Node4 -->
<g id="node4" class="node">
<title>Node4</title>
<g id="a_node4"><a xlink:href="../../d4/dae/mingw_2include_2xercesc_2dom_2impl_2DOMCommentImpl_8hpp.html" target="_top" xlink:title=" ">
<polygon fill="white" stroke="black" points="336,-156.5 336,-197.5 480,-197.5 480,-156.5 336,-156.5"/>
<text text-anchor="start" x="344" y="-185.5" font-family="Helvetica,sans-Serif" font-size="10.00">src/libs/xerces&#45;c/mingw</text>
<text text-anchor="start" x="344" y="-174.5" font-family="Helvetica,sans-Serif" font-size="10.00">/include/xercesc/dom/impl</text>
<text text-anchor="middle" x="408" y="-163.5" font-family="Helvetica,sans-Serif" font-size="10.00">/DOMCommentImpl.hpp</text>
</a>
</g>
</g>
<!-- Node1&#45;&gt;Node4 -->
<g id="edge3" class="edge">
<title>Node1&#45;&gt;Node4</title>
<path fill="none" stroke="midnightblue" d="M966.96,-249.47C857.4,-242.57 657.53,-227.08 489,-198 486.15,-197.51 483.24,-196.97 480.32,-196.4"/>
<polygon fill="midnightblue" stroke="midnightblue" points="966.76,-252.96 976.95,-250.09 967.19,-245.97 966.76,-252.96"/>
</g>
<!-- Node5 -->
<g id="node5" class="node">
<title>Node5</title>
<g id="a_node5"><a xlink:href="../../d7/d68/mingw_2include_2xercesc_2dom_2impl_2DOMDocumentFragmentImpl_8hpp.html" target="_top" xlink:title=" ">
<polygon fill="white" stroke="black" points="498.5,-156.5 498.5,-197.5 681.5,-197.5 681.5,-156.5 498.5,-156.5"/>
<text text-anchor="start" x="506.5" y="-185.5" font-family="Helvetica,sans-Serif" font-size="10.00">src/libs/xerces&#45;c/mingw</text>
<text text-anchor="start" x="506.5" y="-174.5" font-family="Helvetica,sans-Serif" font-size="10.00">/include/xercesc/dom/impl</text>
<text text-anchor="middle" x="590" y="-163.5" font-family="Helvetica,sans-Serif" font-size="10.00">/DOMDocumentFragmentImpl.hpp</text>
</a>
</g>
</g>
<!-- Node1&#45;&gt;Node5 -->
<g id="edge4" class="edge">
<title>Node1&#45;&gt;Node5</title>
<path fill="none" stroke="midnightblue" d="M966.96,-242.22C894.08,-231.51 784.76,-214.86 690,-198 687.21,-197.5 684.38,-196.99 681.52,-196.47"/>
<polygon fill="midnightblue" stroke="midnightblue" points="966.59,-245.7 976.99,-243.69 967.6,-238.78 966.59,-245.7"/>
</g>
<!-- Node6 -->
<g id="node6" class="node">
<title>Node6</title>
<g id="a_node6"><a xlink:href="../../d2/d4f/mingw_2include_2xercesc_2dom_2impl_2DOMDocumentTypeImpl_8hpp.html" target="_top" xlink:title=" ">
<polygon fill="white" stroke="black" points="699.5,-156.5 699.5,-197.5 858.5,-197.5 858.5,-156.5 699.5,-156.5"/>
<text text-anchor="start" x="707.5" y="-185.5" font-family="Helvetica,sans-Serif" font-size="10.00">src/libs/xerces&#45;c/mingw</text>
<text text-anchor="start" x="707.5" y="-174.5" font-family="Helvetica,sans-Serif" font-size="10.00">/include/xercesc/dom/impl</text>
<text text-anchor="middle" x="779" y="-163.5" font-family="Helvetica,sans-Serif" font-size="10.00">/DOMDocumentTypeImpl.hpp</text>
</a>
</g>
</g>
<!-- Node1&#45;&gt;Node6 -->
<g id="edge5" class="edge">
<title>Node1&#45;&gt;Node6</title>
<path fill="none" stroke="midnightblue" d="M969.84,-231.72C931.31,-220.87 885.42,-207.96 848.3,-197.51"/>
<polygon fill="midnightblue" stroke="midnightblue" points="968.89,-235.09 979.47,-234.43 970.79,-228.35 968.89,-235.09"/>
</g>
<!-- Node7 -->
<g id="node7" class="node">
<title>Node7</title>
<g id="a_node7"><a xlink:href="../../d1/d7e/mingw_2include_2xercesc_2dom_2impl_2DOMElementImpl_8hpp.html" target="_top" xlink:title=" ">
<polygon fill="white" stroke="black" points="0,-156.5 0,-197.5 144,-197.5 144,-156.5 0,-156.5"/>
<text text-anchor="start" x="8" y="-185.5" font-family="Helvetica,sans-Serif" font-size="10.00">src/libs/xerces&#45;c/mingw</text>
<text text-anchor="start" x="8" y="-174.5" font-family="Helvetica,sans-Serif" font-size="10.00">/include/xercesc/dom/impl</text>
<text text-anchor="middle" x="72" y="-163.5" font-family="Helvetica,sans-Serif" font-size="10.00">/DOMElementImpl.hpp</text>
</a>
</g>
</g>
<!-- Node1&#45;&gt;Node7 -->
<g id="edge6" class="edge">
<title>Node1&#45;&gt;Node7</title>
<path fill="none" stroke="midnightblue" d="M966.67,-253.78C808.2,-252.27 450.16,-243.59 153,-198 150.14,-197.56 147.23,-197.07 144.29,-196.53"/>
<polygon fill="midnightblue" stroke="midnightblue" points="966.78,-257.28 976.81,-253.87 966.84,-250.28 966.78,-257.28"/>
</g>
<!-- Node10 -->
<g id="node10" class="node">
<title>Node10</title>
<g id="a_node10"><a xlink:href="../../db/db4/mingw_2include_2xercesc_2dom_2impl_2DOMDocumentImpl_8hpp.html" target="_top" xlink:title=" ">
<polygon fill="white" stroke="black" points="1831,-156.5 1831,-197.5 1975,-197.5 1975,-156.5 1831,-156.5"/>
<text text-anchor="start" x="1839" y="-185.5" font-family="Helvetica,sans-Serif" font-size="10.00">src/libs/xerces&#45;c/mingw</text>
<text text-anchor="start" x="1839" y="-174.5" font-family="Helvetica,sans-Serif" font-size="10.00">/include/xercesc/dom/impl</text>
<text text-anchor="middle" x="1903" y="-163.5" font-family="Helvetica,sans-Serif" font-size="10.00">/DOMDocumentImpl.hpp</text>
</a>
</g>
</g>
<!-- Node1&#45;&gt;Node10 -->
<g id="edge10" class="edge">
<title>Node1&#45;&gt;Node10</title>
<path fill="none" stroke="midnightblue" d="M1131.49,-252.61C1273.41,-249.2 1572.59,-237.53 1822,-198 1824.86,-197.55 1827.77,-197.04 1830.7,-196.5"/>
<polygon fill="midnightblue" stroke="midnightblue" points="1131.05,-249.12 1121.13,-252.85 1131.21,-256.12 1131.05,-249.12"/>
</g>
<!-- Node11 -->
<g id="node11" class="node">
<title>Node11</title>
<g id="a_node11"><a xlink:href="../../d4/d5d/mingw_2include_2xercesc_2dom_2impl_2DOMAttrImpl_8hpp.html" target="_top" xlink:title=" ">
<polygon fill="white" stroke="black" points="1435,-78.5 1435,-119.5 1579,-119.5 1579,-78.5 1435,-78.5"/>
<text text-anchor="start" x="1443" y="-107.5" font-family="Helvetica,sans-Serif" font-size="10.00">src/libs/xerces&#45;c/mingw</text>
<text text-anchor="start" x="1443" y="-96.5" font-family="Helvetica,sans-Serif" font-size="10.00">/include/xercesc/dom/impl</text>
<text text-anchor="middle" x="1507" y="-85.5" font-family="Helvetica,sans-Serif" font-size="10.00">/DOMAttrImpl.hpp</text>
</a>
</g>
</g>
<!-- Node1&#45;&gt;Node11 -->
<g id="edge15" class="edge">
<title>Node1&#45;&gt;Node11</title>
<path fill="none" stroke="midnightblue" d="M1058.1,-224.7C1066.71,-202.14 1081.95,-172.15 1106,-156 1158.3,-120.88 1333.96,-107.48 1434.59,-102.61"/>
<polygon fill="midnightblue" stroke="midnightblue" points="1054.79,-223.57 1054.71,-234.16 1061.38,-225.93 1054.79,-223.57"/>
</g>
<!-- Node13 -->
<g id="node13" class="node">
<title>Node13</title>
<g id="a_node13"><a xlink:href="../../d0/d50/mingw_2include_2xercesc_2dom_2impl_2DOMEntityImpl_8hpp.html" target="_top" xlink:title=" ">
<polygon fill="white" stroke="black" points="1115,-156.5 1115,-197.5 1259,-197.5 1259,-156.5 1115,-156.5"/>
<text text-anchor="start" x="1123" y="-185.5" font-family="Helvetica,sans-Serif" font-size="10.00">src/libs/xerces&#45;c/mingw</text>
<text text-anchor="start" x="1123" y="-174.5" font-family="Helvetica,sans-Serif" font-size="10.00">/include/xercesc/dom/impl</text>
<text text-anchor="middle" x="1187" y="-163.5" font-family="Helvetica,sans-Serif" font-size="10.00">/DOMEntityImpl.hpp</text>
</a>
</g>
</g>
<!-- Node1&#45;&gt;Node13 -->
<g id="edge13" class="edge">
<title>Node1&#45;&gt;Node13</title>
<path fill="none" stroke="midnightblue" d="M1093.51,-229.49C1112.31,-219.13 1133.89,-207.25 1151.58,-197.51"/>
<polygon fill="midnightblue" stroke="midnightblue" points="1091.61,-226.54 1084.54,-234.43 1094.99,-232.67 1091.61,-226.54"/>
</g>
<!-- Node14 -->
<g id="node14" class="node">
<title>Node14</title>
<g id="a_node14"><a xlink:href="../../d7/d73/mingw_2include_2xercesc_2dom_2impl_2DOMEntityReferenceImpl_8hpp.html" target="_top" xlink:title=" ">
<polygon fill="white" stroke="black" points="1277,-156.5 1277,-197.5 1441,-197.5 1441,-156.5 1277,-156.5"/>
<text text-anchor="start" x="1285" y="-185.5" font-family="Helvetica,sans-Serif" font-size="10.00">src/libs/xerces&#45;c/mingw</text>
<text text-anchor="start" x="1285" y="-174.5" font-family="Helvetica,sans-Serif" font-size="10.00">/include/xercesc/dom/impl</text>
<text text-anchor="middle" x="1359" y="-163.5" font-family="Helvetica,sans-Serif" font-size="10.00">/DOMEntityReferenceImpl.hpp</text>
</a>
</g>
</g>
<!-- Node1&#45;&gt;Node14 -->
<g id="edge14" class="edge">
<title>Node1&#45;&gt;Node14</title>
<path fill="none" stroke="midnightblue" d="M1131.19,-233.85C1177.01,-222.62 1233.81,-208.69 1279.24,-197.56"/>
<polygon fill="midnightblue" stroke="midnightblue" points="1130.17,-230.5 1121.29,-236.28 1131.84,-237.3 1130.17,-230.5"/>
</g>
<!-- Node15 -->
<g id="node15" class="node">
<title>Node15</title>
<g id="a_node15"><a xlink:href="../../dc/d83/mingw_2include_2xercesc_2dom_2impl_2DOMNotationImpl_8hpp.html" target="_top" xlink:title=" ">
<polygon fill="white" stroke="black" points="1459,-156.5 1459,-197.5 1603,-197.5 1603,-156.5 1459,-156.5"/>
<text text-anchor="start" x="1467" y="-185.5" font-family="Helvetica,sans-Serif" font-size="10.00">src/libs/xerces&#45;c/mingw</text>
<text text-anchor="start" x="1467" y="-174.5" font-family="Helvetica,sans-Serif" font-size="10.00">/include/xercesc/dom/impl</text>
<text text-anchor="middle" x="1531" y="-163.5" font-family="Helvetica,sans-Serif" font-size="10.00">/DOMNotationImpl.hpp</text>
</a>
</g>
</g>
<!-- Node1&#45;&gt;Node15 -->
<g id="edge16" class="edge">
<title>Node1&#45;&gt;Node15</title>
<path fill="none" stroke="midnightblue" d="M1131.26,-245.03C1212.61,-235.57 1340.45,-219.12 1450,-198 1452.84,-197.45 1455.74,-196.87 1458.66,-196.25"/>
<polygon fill="midnightblue" stroke="midnightblue" points="1130.61,-241.58 1121.08,-246.21 1131.42,-248.54 1130.61,-241.58"/>
</g>
<!-- Node16 -->
<g id="node16" class="node">
<title>Node16</title>
<g id="a_node16"><a xlink:href="../../d4/d3c/mingw_2include_2xercesc_2dom_2impl_2DOMProcessingInstructionImpl_8hpp.html" target="_top" xlink:title=" ">
<polygon fill="white" stroke="black" points="1621.5,-156.5 1621.5,-197.5 1812.5,-197.5 1812.5,-156.5 1621.5,-156.5"/>
<text text-anchor="start" x="1629.5" y="-185.5" font-family="Helvetica,sans-Serif" font-size="10.00">src/libs/xerces&#45;c/mingw</text>
<text text-anchor="start" x="1629.5" y="-174.5" font-family="Helvetica,sans-Serif" font-size="10.00">/include/xercesc/dom/impl</text>
<text text-anchor="middle" x="1717" y="-163.5" font-family="Helvetica,sans-Serif" font-size="10.00">/DOMProcessingInstructionImpl.hpp</text>
</a>
</g>
</g>
<!-- Node1&#45;&gt;Node16 -->
<g id="edge17" class="edge">
<title>Node1&#45;&gt;Node16</title>
<path fill="none" stroke="midnightblue" d="M1131.26,-248.13C1241.17,-239.75 1441.84,-222.62 1612,-198 1615.12,-197.55 1618.29,-197.07 1621.49,-196.57"/>
<polygon fill="midnightblue" stroke="midnightblue" points="1130.94,-244.64 1121.24,-248.88 1131.47,-251.62 1130.94,-244.64"/>
</g>
<!-- Node17 -->
<g id="node17" class="node">
<title>Node17</title>
<g id="a_node17"><a xlink:href="../../d5/d16/mingw_2include_2xercesc_2dom_2impl_2DOMTextImpl_8hpp.html" target="_top" xlink:title=" ">
<polygon fill="white" stroke="black" points="877,-156.5 877,-197.5 1021,-197.5 1021,-156.5 877,-156.5"/>
<text text-anchor="start" x="885" y="-185.5" font-family="Helvetica,sans-Serif" font-size="10.00">src/libs/xerces&#45;c/mingw</text>
<text text-anchor="start" x="885" y="-174.5" font-family="Helvetica,sans-Serif" font-size="10.00">/include/xercesc/dom/impl</text>
<text text-anchor="middle" x="949" y="-163.5" font-family="Helvetica,sans-Serif" font-size="10.00">/DOMTextImpl.hpp</text>
</a>
</g>
</g>
<!-- Node1&#45;&gt;Node17 -->
<g id="edge18" class="edge">
<title>Node1&#45;&gt;Node17</title>
<path fill="none" stroke="midnightblue" d="M1015.25,-228.35C1001.99,-218.27 987.02,-206.89 974.67,-197.51"/>
<polygon fill="midnightblue" stroke="midnightblue" points="1013.17,-231.16 1023.25,-234.43 1017.4,-225.59 1013.17,-231.16"/>
</g>
<!-- Node7&#45;&gt;Node2 -->
<g id="edge7" class="edge">
<title>Node7&#45;&gt;Node2</title>
<path fill="none" stroke="midnightblue" d="M154.33,-155.93C425.4,-114.08 738.37,-103.63 876.91,-100.93"/>
<polygon fill="midnightblue" stroke="midnightblue" points="153.64,-152.49 144.3,-157.5 154.72,-159.41 153.64,-152.49"/>
</g>
<!-- Node8 -->
<g id="node8" class="node">
<title>Node8</title>
<g id="a_node8"><a xlink:href="../../d7/d39/mingw_2include_2xercesc_2dom_2impl_2DOMElementNSImpl_8hpp.html" target="_top" xlink:title=" ">
<polygon fill="white" stroke="black" points="0,-78.5 0,-119.5 144,-119.5 144,-78.5 0,-78.5"/>
<text text-anchor="start" x="8" y="-107.5" font-family="Helvetica,sans-Serif" font-size="10.00">src/libs/xerces&#45;c/mingw</text>
<text text-anchor="start" x="8" y="-96.5" font-family="Helvetica,sans-Serif" font-size="10.00">/include/xercesc/dom/impl</text>
<text text-anchor="middle" x="72" y="-85.5" font-family="Helvetica,sans-Serif" font-size="10.00">/DOMElementNSImpl.hpp</text>
</a>
</g>
</g>
<!-- Node7&#45;&gt;Node8 -->
<g id="edge8" class="edge">
<title>Node7&#45;&gt;Node8</title>
<path fill="none" stroke="midnightblue" d="M72,-146.3C72,-137.3 72,-127.65 72,-119.51"/>
<polygon fill="midnightblue" stroke="midnightblue" points="68.5,-146.43 72,-156.43 75.5,-146.43 68.5,-146.43"/>
</g>
<!-- Node9 -->
<g id="node9" class="node">
<title>Node9</title>
<g id="a_node9"><a xlink:href="../../d8/d6b/mingw_2include_2xercesc_2dom_2impl_2XSDElementNSImpl_8hpp.html" target="_top" xlink:title=" ">
<polygon fill="white" stroke="black" points="0,-0.5 0,-41.5 144,-41.5 144,-0.5 0,-0.5"/>
<text text-anchor="start" x="8" y="-29.5" font-family="Helvetica,sans-Serif" font-size="10.00">src/libs/xerces&#45;c/mingw</text>
<text text-anchor="start" x="8" y="-18.5" font-family="Helvetica,sans-Serif" font-size="10.00">/include/xercesc/dom/impl</text>
<text text-anchor="middle" x="72" y="-7.5" font-family="Helvetica,sans-Serif" font-size="10.00">/XSDElementNSImpl.hpp</text>
</a>
</g>
</g>
<!-- Node8&#45;&gt;Node9 -->
<g id="edge9" class="edge">
<title>Node8&#45;&gt;Node9</title>
<path fill="none" stroke="midnightblue" d="M72,-68.3C72,-59.3 72,-49.65 72,-41.51"/>
<polygon fill="midnightblue" stroke="midnightblue" points="68.5,-68.43 72,-78.43 75.5,-68.43 68.5,-68.43"/>
</g>
<!-- Node10&#45;&gt;Node11 -->
<g id="edge11" class="edge">
<title>Node10&#45;&gt;Node11</title>
<path fill="none" stroke="midnightblue" d="M1820.7,-155.78C1732.25,-137.24 1640.9,-121.54 1579.2,-111.44"/>
<polygon fill="midnightblue" stroke="midnightblue" points="1820.12,-159.24 1830.63,-157.88 1821.57,-152.39 1820.12,-159.24"/>
</g>
<!-- Node12 -->
<g id="node12" class="node">
<title>Node12</title>
<g id="a_node12"><a xlink:href="../../da/d5b/mingw_2include_2xercesc_2dom_2impl_2DOMAttrNSImpl_8hpp.html" target="_top" xlink:title=" ">
<polygon fill="white" stroke="black" points="1435,-0.5 1435,-41.5 1579,-41.5 1579,-0.5 1435,-0.5"/>
<text text-anchor="start" x="1443" y="-29.5" font-family="Helvetica,sans-Serif" font-size="10.00">src/libs/xerces&#45;c/mingw</text>
<text text-anchor="start" x="1443" y="-18.5" font-family="Helvetica,sans-Serif" font-size="10.00">/include/xercesc/dom/impl</text>
<text text-anchor="middle" x="1507" y="-7.5" font-family="Helvetica,sans-Serif" font-size="10.00">/DOMAttrNSImpl.hpp</text>
</a>
</g>
</g>
<!-- Node11&#45;&gt;Node12 -->
<g id="edge12" class="edge">
<title>Node11&#45;&gt;Node12</title>
<path fill="none" stroke="midnightblue" d="M1507,-68.3C1507,-59.3 1507,-49.65 1507,-41.51"/>
<polygon fill="midnightblue" stroke="midnightblue" points="1503.5,-68.43 1507,-78.43 1510.5,-68.43 1503.5,-68.43"/>
</g>
<!-- Node17&#45;&gt;Node2 -->
<g id="edge19" class="edge">
<title>Node17&#45;&gt;Node2</title>
<path fill="none" stroke="midnightblue" d="M949,-146.3C949,-137.3 949,-127.65 949,-119.51"/>
<polygon fill="midnightblue" stroke="midnightblue" points="945.5,-146.43 949,-156.43 952.5,-146.43 945.5,-146.43"/>
</g>
</g>
</svg>
        <g id="navigator" transform="translate(0 0)" fill="#404254">
                <rect fill="#f2f5e9" fill-opacity="0.5" stroke="#606060" stroke-width=".5" x="0" y="0" width="60" height="60"/>
                <use id="zoomplus" xlink:href="#zoomPlus" x="17" y="9" onmousedown="handleZoom(evt,'in')"/>
                <use id="zoomminus" xlink:href="#zoomMin" x="42" y="9" onmousedown="handleZoom(evt,'out')"/>
                <use id="reset" xlink:href="#resetDef" x="30" y="36" onmousedown="handleReset()"/>
                <g id="arrowUp" xlink:href="#dirArrow" transform="translate(30 24)" onmousedown="handlePan(0,-1)">
                  <use xlink:href="#rim" fill="#404040">
                        <set attributeName="fill" to="#808080" begin="arrowUp.mouseover" end="arrowUp.mouseout"/>
                  </use>
                  <path fill="none" stroke="white" stroke-width="1.5" d="M0,-3.0v7 M-2.5,-0.5L0,-3.0L2.5,-0.5"/>
                </g>
                <g id="arrowRight" xlink:href="#dirArrow" transform="rotate(90) translate(36 -43)" onmousedown="handlePan(1,0)">
                  <use xlink:href="#rim" fill="#404040">
                        <set attributeName="fill" to="#808080" begin="arrowRight.mouseover" end="arrowRight.mouseout"/>
                  </use>
                  <path fill="none" stroke="white" stroke-width="1.5" d="M0,-3.0v7 M-2.5,-0.5L0,-3.0L2.5,-0.5"/>
                </g>
                <g id="arrowDown" xlink:href="#dirArrow" transform="rotate(180) translate(-30 -48)" onmousedown="handlePan(0,1)">
                  <use xlink:href="#rim" fill="#404040">
                        <set attributeName="fill" to="#808080" begin="arrowDown.mouseover" end="arrowDown.mouseout"/>
                  </use>
                  <path fill="none" stroke="white" stroke-width="1.5" d="M0,-3.0v7 M-2.5,-0.5L0,-3.0L2.5,-0.5"/>
                </g>
                <g id="arrowLeft" xlink:href="#dirArrow" transform="rotate(270) translate(-36 17)" onmousedown="handlePan(-1,0)">
                  <use xlink:href="#rim" fill="#404040">
                        <set attributeName="fill" to="#808080" begin="arrowLeft.mouseover" end="arrowLeft.mouseout"/>
                  </use>
                  <path fill="none" stroke="white" stroke-width="1.5" d="M0,-3.0v7 M-2.5,-0.5L0,-3.0L2.5,-0.5"/>
                </g>
        </g>
        <svg viewBox="0 0 15 15" width="100%" height="30px" preserveAspectRatio="xMaxYMin meet">
         <g id="arrow_out" transform="scale(0.3 0.3)">
          <a xlink:href="mingw_2include_2xercesc_2dom_2impl_2DOMNodeBase_8hpp__dep__incl_org.svg" target="_base">
           <rect id="button" ry="5" rx="5" y="6" x="6" height="38" width="38"
                fill="#f2f5e9" fill-opacity="0.5" stroke="#606060" stroke-width="1.0"/>
           <path id="arrow"
             d="M 11.500037,31.436501 C 11.940474,20.09759 22.043105,11.32322 32.158766,21.979434 L 37.068811,17.246167 C 37.068811,17.246167 37.088388,32 37.088388,32 L 22.160133,31.978069 C 22.160133,31.978069 26.997745,27.140456 26.997745,27.140456 C 18.528582,18.264221 13.291696,25.230495 11.500037,31.436501 z"
             style="fill:#404040;"/>
          </a>
         </g>
        </svg>
</svg>
