<?xml version="1.0" encoding="UTF-8" standalone="no"?>
<!DOCTYPE svg PUBLIC "-//W3C//DTD SVG 1.1//EN"
 "http://www.w3.org/Graphics/SVG/1.1/DTD/svg11.dtd">
<!-- Generated by graphviz version 2.43.0 (0)
 -->
<!-- Title: src/app/seamly2d/options.h Pages: 1 -->
<svg width="4488pt" height="218pt"
 viewBox="0.00 0.00 4487.50 218.00" xmlns="http://www.w3.org/2000/svg" xmlns:xlink="http://www.w3.org/1999/xlink">
<g id="graph0" class="graph" transform="scale(1 1) rotate(0) translate(4 214)">
<title>src/app/seamly2d/options.h</title>
<polygon fill="white" stroke="transparent" points="-4,4 -4,-214 4483.5,-214 4483.5,4 -4,4"/>
<!-- Node1 -->
<g id="node1" class="node">
<title>Node1</title>
<g id="a_node1"><a xlink:title=" ">
<polygon fill="#bfbfbf" stroke="black" points="1675,-190.5 1675,-209.5 1826,-209.5 1826,-190.5 1675,-190.5"/>
<text text-anchor="middle" x="1750.5" y="-197.5" font-family="Helvetica,sans-Serif" font-size="10.00">src/app/seamly2d/options.h</text>
</a>
</g>
</g>
<!-- Node2 -->
<g id="node2" class="node">
<title>Node2</title>
<g id="a_node2"><a xlink:href="../../d7/d61/application__2d_8h.html" target="_top" xlink:title=" ">
<polygon fill="white" stroke="black" points="2094,-123.5 2094,-153.5 2221,-153.5 2221,-123.5 2094,-123.5"/>
<text text-anchor="start" x="2102" y="-141.5" font-family="Helvetica,sans-Serif" font-size="10.00">src/app/seamly2d/core</text>
<text text-anchor="middle" x="2157.5" y="-130.5" font-family="Helvetica,sans-Serif" font-size="10.00">/application_2d.h</text>
</a>
</g>
</g>
<!-- Node1&#45;&gt;Node2 -->
<g id="edge1" class="edge">
<title>Node1&#45;&gt;Node2</title>
<path fill="none" stroke="midnightblue" d="M1818.86,-189.01C1895.62,-177.78 2019.19,-159.72 2093.93,-148.79"/>
<polygon fill="midnightblue" stroke="midnightblue" points="1818.2,-185.57 1808.81,-190.48 1819.21,-192.49 1818.2,-185.57"/>
</g>
<!-- Node5 -->
<g id="node5" class="node">
<title>Node5</title>
<g id="a_node5"><a xlink:href="../../d9/d7f/about2d__dialog_8cpp.html" target="_top" xlink:title=" ">
<polygon fill="white" stroke="black" points="0,-56.5 0,-86.5 141,-86.5 141,-56.5 0,-56.5"/>
<text text-anchor="start" x="8" y="-74.5" font-family="Helvetica,sans-Serif" font-size="10.00">src/app/seamly2d/dialogs</text>
<text text-anchor="middle" x="70.5" y="-63.5" font-family="Helvetica,sans-Serif" font-size="10.00">/about2d_dialog.cpp</text>
</a>
</g>
</g>
<!-- Node1&#45;&gt;Node5 -->
<g id="edge27" class="edge">
<title>Node1&#45;&gt;Node5</title>
<path fill="none" stroke="midnightblue" d="M1664.72,-199.56C1467.34,-200.03 965.97,-196.5 549.5,-154 400.54,-138.8 227.87,-105.5 135.98,-86.5"/>
<polygon fill="midnightblue" stroke="midnightblue" points="1664.75,-203.06 1674.74,-199.53 1664.73,-196.06 1664.75,-203.06"/>
</g>
<!-- Node6 -->
<g id="node6" class="node">
<title>Node6</title>
<g id="a_node6"><a xlink:href="../../d7/dfa/calculator__dialog_8cpp.html" target="_top" xlink:title=" ">
<polygon fill="white" stroke="black" points="159,-56.5 159,-86.5 300,-86.5 300,-56.5 159,-56.5"/>
<text text-anchor="start" x="167" y="-74.5" font-family="Helvetica,sans-Serif" font-size="10.00">src/app/seamly2d/dialogs</text>
<text text-anchor="middle" x="229.5" y="-63.5" font-family="Helvetica,sans-Serif" font-size="10.00">/calculator_dialog.cpp</text>
</a>
</g>
</g>
<!-- Node1&#45;&gt;Node6 -->
<g id="edge28" class="edge">
<title>Node1&#45;&gt;Node6</title>
<path fill="none" stroke="midnightblue" d="M1664.77,-197.51C1497.61,-194.03 1116.58,-183.33 797.5,-154 688.28,-143.96 416.8,-104.35 308.5,-87 305.75,-86.56 302.94,-86.1 300.11,-85.62"/>
<polygon fill="midnightblue" stroke="midnightblue" points="1664.91,-201.01 1674.98,-197.72 1665.06,-194.01 1664.91,-201.01"/>
</g>
<!-- Node8 -->
<g id="node8" class="node">
<title>Node8</title>
<g id="a_node8"><a xlink:href="../../dc/d20/preferencespathpage_8cpp.html" target="_top" xlink:title=" ">
<polygon fill="white" stroke="black" points="318,-56.5 318,-86.5 523,-86.5 523,-56.5 318,-56.5"/>
<text text-anchor="start" x="326" y="-74.5" font-family="Helvetica,sans-Serif" font-size="10.00">src/app/seamly2d/dialogs</text>
<text text-anchor="middle" x="420.5" y="-63.5" font-family="Helvetica,sans-Serif" font-size="10.00">/configpages/preferencespathpage.cpp</text>
</a>
</g>
</g>
<!-- Node1&#45;&gt;Node8 -->
<g id="edge29" class="edge">
<title>Node1&#45;&gt;Node8</title>
<path fill="none" stroke="midnightblue" d="M1664.75,-197.08C1522.13,-193.21 1227.33,-182.25 979.5,-154 897.97,-144.71 878.62,-135.34 797.5,-123 770.9,-118.95 625.33,-99.59 523.08,-86.05"/>
<polygon fill="midnightblue" stroke="midnightblue" points="1664.66,-200.58 1674.75,-197.35 1664.85,-193.59 1664.66,-200.58"/>
</g>
<!-- Node12 -->
<g id="node12" class="node">
<title>Node12</title>
<g id="a_node12"><a xlink:href="../../d6/d89/dialoglayoutprogress_8cpp.html" target="_top" xlink:title=" ">
<polygon fill="white" stroke="black" points="541,-56.5 541,-86.5 684,-86.5 684,-56.5 541,-56.5"/>
<text text-anchor="start" x="549" y="-74.5" font-family="Helvetica,sans-Serif" font-size="10.00">src/app/seamly2d/dialogs</text>
<text text-anchor="middle" x="612.5" y="-63.5" font-family="Helvetica,sans-Serif" font-size="10.00">/dialoglayoutprogress.cpp</text>
</a>
</g>
</g>
<!-- Node1&#45;&gt;Node12 -->
<g id="edge30" class="edge">
<title>Node1&#45;&gt;Node12</title>
<path fill="none" stroke="midnightblue" d="M1664.76,-192.01C1484.47,-176.85 1053.05,-138.16 693.5,-87 690.39,-86.56 687.21,-86.08 684.01,-85.59"/>
<polygon fill="midnightblue" stroke="midnightblue" points="1664.72,-195.52 1674.98,-192.87 1665.3,-188.54 1664.72,-195.52"/>
</g>
<!-- Node17 -->
<g id="node17" class="node">
<title>Node17</title>
<g id="a_node17"><a xlink:href="../../dd/d54/export__layout__dialog_8cpp.html" target="_top" xlink:title=" ">
<polygon fill="white" stroke="black" points="3981,-56.5 3981,-86.5 4124,-86.5 4124,-56.5 3981,-56.5"/>
<text text-anchor="start" x="3989" y="-74.5" font-family="Helvetica,sans-Serif" font-size="10.00">src/app/seamly2d/dialogs</text>
<text text-anchor="middle" x="4052.5" y="-63.5" font-family="Helvetica,sans-Serif" font-size="10.00">/export_layout_dialog.cpp</text>
</a>
</g>
</g>
<!-- Node1&#45;&gt;Node17 -->
<g id="edge35" class="edge">
<title>Node1&#45;&gt;Node17</title>
<path fill="none" stroke="midnightblue" d="M1836.3,-198.58C2133.14,-196.29 3143.66,-181.58 3971.5,-87 3974.48,-86.66 3977.52,-86.28 3980.58,-85.86"/>
<polygon fill="midnightblue" stroke="midnightblue" points="1836.02,-195.08 1826.04,-198.66 1836.07,-202.08 1836.02,-195.08"/>
</g>
<!-- Node26 -->
<g id="node26" class="node">
<title>Node26</title>
<g id="a_node26"><a xlink:href="../../d8/dd9/mainwindow_8cpp.html" target="_top" xlink:title=" ">
<polygon fill="white" stroke="black" points="4291.5,-0.5 4291.5,-19.5 4479.5,-19.5 4479.5,-0.5 4291.5,-0.5"/>
<text text-anchor="middle" x="4385.5" y="-7.5" font-family="Helvetica,sans-Serif" font-size="10.00">src/app/seamly2d/mainwindow.cpp</text>
</a>
</g>
</g>
<!-- Node1&#45;&gt;Node26 -->
<g id="edge36" class="edge">
<title>Node1&#45;&gt;Node26</title>
<path fill="none" stroke="midnightblue" d="M1836.31,-198.37C2266.9,-195.09 4176.44,-179.16 4299.5,-154 4377.04,-138.14 4420.3,-152.66 4464.5,-87 4472.19,-75.57 4471.42,-67.91 4464.5,-56 4453.95,-37.85 4433.04,-26.41 4415.38,-19.61"/>
<polygon fill="midnightblue" stroke="midnightblue" points="1836.08,-194.87 1826.11,-198.45 1836.14,-201.87 1836.08,-194.87"/>
</g>
<!-- Node28 -->
<g id="node28" class="node">
<title>Node28</title>
<g id="a_node28"><a xlink:href="../../d5/d4e/dialogpatternproperties_8h.html" target="_top" xlink:title=" ">
<polygon fill="white" stroke="black" points="4148,-123.5 4148,-153.5 4291,-153.5 4291,-123.5 4148,-123.5"/>
<text text-anchor="start" x="4156" y="-141.5" font-family="Helvetica,sans-Serif" font-size="10.00">src/app/seamly2d/dialogs</text>
<text text-anchor="middle" x="4219.5" y="-130.5" font-family="Helvetica,sans-Serif" font-size="10.00">/dialogpatternproperties.h</text>
</a>
</g>
</g>
<!-- Node1&#45;&gt;Node28 -->
<g id="edge31" class="edge">
<title>Node1&#45;&gt;Node28</title>
<path fill="none" stroke="midnightblue" d="M1836.33,-196.93C2222.18,-187.63 3792.71,-149.79 4147.88,-141.23"/>
<polygon fill="midnightblue" stroke="midnightblue" points="1835.99,-193.44 1826.08,-197.18 1836.16,-200.44 1835.99,-193.44"/>
</g>
<!-- Node3 -->
<g id="node3" class="node">
<title>Node3</title>
<g id="a_node3"><a xlink:href="../../df/d3e/application__2d_8cpp.html" target="_top" xlink:title=" ">
<polygon fill="white" stroke="black" points="3048,-56.5 3048,-86.5 3175,-86.5 3175,-56.5 3048,-56.5"/>
<text text-anchor="start" x="3056" y="-74.5" font-family="Helvetica,sans-Serif" font-size="10.00">src/app/seamly2d/core</text>
<text text-anchor="middle" x="3111.5" y="-63.5" font-family="Helvetica,sans-Serif" font-size="10.00">/application_2d.cpp</text>
</a>
</g>
</g>
<!-- Node2&#45;&gt;Node3 -->
<g id="edge2" class="edge">
<title>Node2&#45;&gt;Node3</title>
<path fill="none" stroke="midnightblue" d="M2231.2,-136.72C2382.91,-134.37 2740.82,-124.91 3038.5,-87 3041.58,-86.61 3044.72,-86.16 3047.88,-85.68"/>
<polygon fill="midnightblue" stroke="midnightblue" points="2231.02,-133.23 2221.08,-136.88 2231.13,-140.23 2231.02,-133.23"/>
</g>
<!-- Node4 -->
<g id="node4" class="node">
<title>Node4</title>
<g id="a_node4"><a xlink:href="../../dd/db4/abstractlayout__dialog_8cpp.html" target="_top" xlink:title=" ">
<polygon fill="white" stroke="black" points="3193.5,-56.5 3193.5,-86.5 3339.5,-86.5 3339.5,-56.5 3193.5,-56.5"/>
<text text-anchor="start" x="3201.5" y="-74.5" font-family="Helvetica,sans-Serif" font-size="10.00">src/app/seamly2d/dialogs</text>
<text text-anchor="middle" x="3266.5" y="-63.5" font-family="Helvetica,sans-Serif" font-size="10.00">/abstractlayout_dialog.cpp</text>
</a>
</g>
</g>
<!-- Node2&#45;&gt;Node4 -->
<g id="edge3" class="edge">
<title>Node2&#45;&gt;Node4</title>
<path fill="none" stroke="midnightblue" d="M2231.08,-137C2399.94,-135.16 2828.08,-126.64 3183.5,-87 3186.7,-86.64 3189.96,-86.24 3193.25,-85.8"/>
<polygon fill="midnightblue" stroke="midnightblue" points="2231.02,-133.5 2221.06,-137.1 2231.09,-140.5 2231.02,-133.5"/>
</g>
<!-- Node2&#45;&gt;Node5 -->
<g id="edge4" class="edge">
<title>Node2&#45;&gt;Node5</title>
<path fill="none" stroke="midnightblue" d="M2083.58,-137.19C1768.42,-135.63 535.55,-127.03 149.5,-87 146.73,-86.71 143.9,-86.38 141.06,-86.01"/>
<polygon fill="midnightblue" stroke="midnightblue" points="2083.94,-140.69 2093.96,-137.24 2083.98,-133.69 2083.94,-140.69"/>
</g>
<!-- Node2&#45;&gt;Node6 -->
<g id="edge5" class="edge">
<title>Node2&#45;&gt;Node6</title>
<path fill="none" stroke="midnightblue" d="M2083.58,-137C1784.27,-134.76 661.62,-124.01 308.5,-87 305.73,-86.71 302.9,-86.38 300.06,-86.01"/>
<polygon fill="midnightblue" stroke="midnightblue" points="2083.85,-140.51 2093.87,-137.08 2083.9,-133.51 2083.85,-140.51"/>
</g>
<!-- Node7 -->
<g id="node7" class="node">
<title>Node7</title>
<g id="a_node7"><a xlink:href="../../d2/d2d/preferencesconfigurationpage_8cpp.html" target="_top" xlink:title=" ">
<polygon fill="white" stroke="black" points="3358,-56.5 3358,-86.5 3605,-86.5 3605,-56.5 3358,-56.5"/>
<text text-anchor="start" x="3366" y="-74.5" font-family="Helvetica,sans-Serif" font-size="10.00">src/app/seamly2d/dialogs</text>
<text text-anchor="middle" x="3481.5" y="-63.5" font-family="Helvetica,sans-Serif" font-size="10.00">/configpages/preferencesconfigurationpage.cpp</text>
</a>
</g>
</g>
<!-- Node2&#45;&gt;Node7 -->
<g id="edge6" class="edge">
<title>Node2&#45;&gt;Node7</title>
<path fill="none" stroke="midnightblue" d="M2231.45,-136.07C2418.65,-132.07 2926.46,-118.92 3348.5,-87 3351.63,-86.76 3354.79,-86.51 3357.99,-86.25"/>
<polygon fill="midnightblue" stroke="midnightblue" points="2231.1,-132.57 2221.17,-136.28 2231.25,-139.57 2231.1,-132.57"/>
</g>
<!-- Node2&#45;&gt;Node8 -->
<g id="edge7" class="edge">
<title>Node2&#45;&gt;Node8</title>
<path fill="none" stroke="midnightblue" d="M2083.58,-137.8C1853.37,-138.18 1128.98,-135.18 531.5,-87 528.79,-86.78 526.04,-86.54 523.27,-86.29"/>
<polygon fill="midnightblue" stroke="midnightblue" points="2083.85,-141.3 2093.84,-137.78 2083.83,-134.3 2083.85,-141.3"/>
</g>
<!-- Node9 -->
<g id="node9" class="node">
<title>Node9</title>
<g id="a_node9"><a xlink:href="../../d2/d00/vtooloptionspropertybrowser_8cpp.html" target="_top" xlink:title=" ">
<polygon fill="white" stroke="black" points="3623.5,-56.5 3623.5,-86.5 3803.5,-86.5 3803.5,-56.5 3623.5,-56.5"/>
<text text-anchor="start" x="3631.5" y="-74.5" font-family="Helvetica,sans-Serif" font-size="10.00">src/app/seamly2d/core</text>
<text text-anchor="middle" x="3713.5" y="-63.5" font-family="Helvetica,sans-Serif" font-size="10.00">/vtooloptionspropertybrowser.cpp</text>
</a>
</g>
</g>
<!-- Node2&#45;&gt;Node9 -->
<g id="edge8" class="edge">
<title>Node2&#45;&gt;Node9</title>
<path fill="none" stroke="midnightblue" d="M2231.34,-137.79C2445.5,-138 3085.24,-134.32 3613.5,-87 3616.73,-86.71 3620.02,-86.39 3623.34,-86.04"/>
<polygon fill="midnightblue" stroke="midnightblue" points="2231.17,-134.29 2221.16,-137.77 2231.16,-141.29 2231.17,-134.29"/>
</g>
<!-- Node10 -->
<g id="node10" class="node">
<title>Node10</title>
<g id="a_node10"><a xlink:href="../../dd/dc2/decimalchart__dialog_8cpp.html" target="_top" xlink:title=" ">
<polygon fill="white" stroke="black" points="3822,-56.5 3822,-86.5 3963,-86.5 3963,-56.5 3822,-56.5"/>
<text text-anchor="start" x="3830" y="-74.5" font-family="Helvetica,sans-Serif" font-size="10.00">src/app/seamly2d/dialogs</text>
<text text-anchor="middle" x="3892.5" y="-63.5" font-family="Helvetica,sans-Serif" font-size="10.00">/decimalchart_dialog.cpp</text>
</a>
</g>
</g>
<!-- Node2&#45;&gt;Node10 -->
<g id="edge9" class="edge">
<title>Node2&#45;&gt;Node10</title>
<path fill="none" stroke="midnightblue" d="M2231.44,-136.71C2510.45,-133.49 3499.4,-119.97 3812.5,-87 3815.59,-86.67 3818.74,-86.3 3821.91,-85.88"/>
<polygon fill="midnightblue" stroke="midnightblue" points="2231.38,-133.21 2221.42,-136.82 2231.46,-140.21 2231.38,-133.21"/>
</g>
<!-- Node11 -->
<g id="node11" class="node">
<title>Node11</title>
<g id="a_node11"><a xlink:href="../../dc/d63/preferencespatternpage_8cpp.html" target="_top" xlink:title=" ">
<polygon fill="white" stroke="black" points="702.5,-56.5 702.5,-86.5 920.5,-86.5 920.5,-56.5 702.5,-56.5"/>
<text text-anchor="start" x="710.5" y="-74.5" font-family="Helvetica,sans-Serif" font-size="10.00">src/app/seamly2d/dialogs</text>
<text text-anchor="middle" x="811.5" y="-63.5" font-family="Helvetica,sans-Serif" font-size="10.00">/configpages/preferencespatternpage.cpp</text>
</a>
</g>
</g>
<!-- Node2&#45;&gt;Node11 -->
<g id="edge10" class="edge">
<title>Node2&#45;&gt;Node11</title>
<path fill="none" stroke="midnightblue" d="M2083.59,-136.55C1892.44,-133.64 1366.2,-122.75 929.5,-87 926.62,-86.76 923.7,-86.51 920.76,-86.24"/>
<polygon fill="midnightblue" stroke="midnightblue" points="2083.74,-140.05 2093.79,-136.7 2083.85,-133.05 2083.74,-140.05"/>
</g>
<!-- Node2&#45;&gt;Node12 -->
<g id="edge11" class="edge">
<title>Node2&#45;&gt;Node12</title>
<path fill="none" stroke="midnightblue" d="M2083.63,-136.35C1825.9,-132.11 967.39,-116.09 693.5,-87 690.52,-86.68 687.48,-86.32 684.41,-85.92"/>
<polygon fill="midnightblue" stroke="midnightblue" points="2083.57,-139.85 2093.63,-136.51 2083.69,-132.85 2083.57,-139.85"/>
</g>
<!-- Node13 -->
<g id="node13" class="node">
<title>Node13</title>
<g id="a_node13"><a xlink:href="../../de/d87/dialognewpattern_8cpp.html" target="_top" xlink:title=" ">
<polygon fill="white" stroke="black" points="939,-56.5 939,-86.5 1080,-86.5 1080,-56.5 939,-56.5"/>
<text text-anchor="start" x="947" y="-74.5" font-family="Helvetica,sans-Serif" font-size="10.00">src/app/seamly2d/dialogs</text>
<text text-anchor="middle" x="1009.5" y="-63.5" font-family="Helvetica,sans-Serif" font-size="10.00">/dialognewpattern.cpp</text>
</a>
</g>
</g>
<!-- Node2&#45;&gt;Node13 -->
<g id="edge12" class="edge">
<title>Node2&#45;&gt;Node13</title>
<path fill="none" stroke="midnightblue" d="M2083.63,-137.42C1909.64,-136.48 1460.64,-129.75 1088.5,-87 1085.73,-86.68 1082.91,-86.32 1080.06,-85.94"/>
<polygon fill="midnightblue" stroke="midnightblue" points="2083.68,-140.92 2093.7,-137.47 2083.72,-133.92 2083.68,-140.92"/>
</g>
<!-- Node14 -->
<g id="node14" class="node">
<title>Node14</title>
<g id="a_node14"><a xlink:href="../../d5/d18/dialogpatternproperties_8cpp.html" target="_top" xlink:title=" ">
<polygon fill="white" stroke="black" points="4142,-56.5 4142,-86.5 4297,-86.5 4297,-56.5 4142,-56.5"/>
<text text-anchor="start" x="4150" y="-74.5" font-family="Helvetica,sans-Serif" font-size="10.00">src/app/seamly2d/dialogs</text>
<text text-anchor="middle" x="4219.5" y="-63.5" font-family="Helvetica,sans-Serif" font-size="10.00">/dialogpatternproperties.cpp</text>
</a>
</g>
</g>
<!-- Node2&#45;&gt;Node14 -->
<g id="edge13" class="edge">
<title>Node2&#45;&gt;Node14</title>
<path fill="none" stroke="midnightblue" d="M2231.75,-136.99C2544.14,-134.63 3753.12,-123.29 4132.5,-87 4135.55,-86.71 4138.65,-86.37 4141.78,-86"/>
<polygon fill="midnightblue" stroke="midnightblue" points="2231.43,-133.49 2221.45,-137.07 2231.48,-140.49 2231.43,-133.49"/>
</g>
<!-- Node15 -->
<g id="node15" class="node">
<title>Node15</title>
<g id="a_node15"><a xlink:href="../../d5/dc5/dialogpreferences_8cpp.html" target="_top" xlink:title=" ">
<polygon fill="white" stroke="black" points="1098,-56.5 1098,-86.5 1239,-86.5 1239,-56.5 1098,-56.5"/>
<text text-anchor="start" x="1106" y="-74.5" font-family="Helvetica,sans-Serif" font-size="10.00">src/app/seamly2d/dialogs</text>
<text text-anchor="middle" x="1168.5" y="-63.5" font-family="Helvetica,sans-Serif" font-size="10.00">/dialogpreferences.cpp</text>
</a>
</g>
</g>
<!-- Node2&#45;&gt;Node15 -->
<g id="edge14" class="edge">
<title>Node2&#45;&gt;Node15</title>
<path fill="none" stroke="midnightblue" d="M2083.54,-136.49C1928.3,-133.69 1557.3,-123.42 1248.5,-87 1245.42,-86.64 1242.27,-86.23 1239.1,-85.79"/>
<polygon fill="midnightblue" stroke="midnightblue" points="2083.84,-140 2093.9,-136.67 2083.96,-133 2083.84,-140"/>
</g>
<!-- Node16 -->
<g id="node16" class="node">
<title>Node16</title>
<g id="a_node16"><a xlink:href="../../d9/d70/preferencesgraphicsviewpage_8cpp.html" target="_top" xlink:title=" ">
<polygon fill="white" stroke="black" points="1257.5,-56.5 1257.5,-86.5 1505.5,-86.5 1505.5,-56.5 1257.5,-56.5"/>
<text text-anchor="start" x="1265.5" y="-74.5" font-family="Helvetica,sans-Serif" font-size="10.00">src/app/seamly2d/dialogs</text>
<text text-anchor="middle" x="1381.5" y="-63.5" font-family="Helvetica,sans-Serif" font-size="10.00">/configpages/preferencesgraphicsviewpage.cpp</text>
</a>
</g>
</g>
<!-- Node2&#45;&gt;Node16 -->
<g id="edge15" class="edge">
<title>Node2&#45;&gt;Node16</title>
<path fill="none" stroke="midnightblue" d="M2083.41,-132.41C1963.7,-124.03 1720.33,-106.3 1514.5,-87 1511.61,-86.73 1508.68,-86.45 1505.73,-86.16"/>
<polygon fill="midnightblue" stroke="midnightblue" points="2083.34,-135.92 2093.56,-133.12 2083.83,-128.93 2083.34,-135.92"/>
</g>
<!-- Node2&#45;&gt;Node17 -->
<g id="edge16" class="edge">
<title>Node2&#45;&gt;Node17</title>
<path fill="none" stroke="midnightblue" d="M2231.12,-136.1C2549.12,-129.97 3796.72,-104.98 3971.5,-87 3974.48,-86.69 3977.52,-86.34 3980.59,-85.95"/>
<polygon fill="midnightblue" stroke="midnightblue" points="2231.02,-132.6 2221.09,-136.29 2231.15,-139.6 2231.02,-132.6"/>
</g>
<!-- Node18 -->
<g id="node18" class="node">
<title>Node18</title>
<g id="a_node18"><a xlink:href="../../db/d5c/groups__widget_8cpp.html" target="_top" xlink:title=" ">
<polygon fill="white" stroke="black" points="1524,-56.5 1524,-86.5 1665,-86.5 1665,-56.5 1524,-56.5"/>
<text text-anchor="start" x="1532" y="-74.5" font-family="Helvetica,sans-Serif" font-size="10.00">src/app/seamly2d/dialogs</text>
<text text-anchor="middle" x="1594.5" y="-63.5" font-family="Helvetica,sans-Serif" font-size="10.00">/groups_widget.cpp</text>
</a>
</g>
</g>
<!-- Node2&#45;&gt;Node18 -->
<g id="edge17" class="edge">
<title>Node2&#45;&gt;Node18</title>
<path fill="none" stroke="midnightblue" d="M2083.79,-131.6C1988.72,-123.58 1818.33,-107.81 1673.5,-87 1670.74,-86.6 1667.93,-86.18 1665.09,-85.74"/>
<polygon fill="midnightblue" stroke="midnightblue" points="2083.63,-135.1 2093.88,-132.45 2084.21,-128.12 2083.63,-135.1"/>
</g>
<!-- Node19 -->
<g id="node19" class="node">
<title>Node19</title>
<g id="a_node19"><a xlink:href="../../d0/dfa/layoutsettings__dialog_8cpp.html" target="_top" xlink:title=" ">
<polygon fill="white" stroke="black" points="1683,-56.5 1683,-86.5 1828,-86.5 1828,-56.5 1683,-56.5"/>
<text text-anchor="start" x="1691" y="-74.5" font-family="Helvetica,sans-Serif" font-size="10.00">src/app/seamly2d/dialogs</text>
<text text-anchor="middle" x="1755.5" y="-63.5" font-family="Helvetica,sans-Serif" font-size="10.00">/layoutsettings_dialog.cpp</text>
</a>
</g>
</g>
<!-- Node2&#45;&gt;Node19 -->
<g id="edge18" class="edge">
<title>Node2&#45;&gt;Node19</title>
<path fill="none" stroke="midnightblue" d="M2083.62,-126.33C2018.52,-116.38 1921.13,-101.23 1836.5,-87 1833.82,-86.55 1831.1,-86.09 1828.35,-85.61"/>
<polygon fill="midnightblue" stroke="midnightblue" points="2083.38,-129.83 2093.79,-127.88 2084.43,-122.91 2083.38,-129.83"/>
</g>
<!-- Node20 -->
<g id="node20" class="node">
<title>Node20</title>
<g id="a_node20"><a xlink:href="../../d2/df4/show__info__dialog_8cpp.html" target="_top" xlink:title=" ">
<polygon fill="white" stroke="black" points="1846,-56.5 1846,-86.5 1987,-86.5 1987,-56.5 1846,-56.5"/>
<text text-anchor="start" x="1854" y="-74.5" font-family="Helvetica,sans-Serif" font-size="10.00">src/app/seamly2d/dialogs</text>
<text text-anchor="middle" x="1916.5" y="-63.5" font-family="Helvetica,sans-Serif" font-size="10.00">/show_info_dialog.cpp</text>
</a>
</g>
</g>
<!-- Node2&#45;&gt;Node20 -->
<g id="edge19" class="edge">
<title>Node2&#45;&gt;Node20</title>
<path fill="none" stroke="midnightblue" d="M2095.77,-120.85C2056.47,-110.25 2006.14,-96.68 1968.82,-86.61"/>
<polygon fill="midnightblue" stroke="midnightblue" points="2094.94,-124.25 2105.5,-123.48 2096.76,-117.49 2094.94,-124.25"/>
</g>
<!-- Node21 -->
<g id="node21" class="node">
<title>Node21</title>
<g id="a_node21"><a xlink:href="../../df/d69/welcome__dialog_8cpp.html" target="_top" xlink:title=" ">
<polygon fill="white" stroke="black" points="2005,-56.5 2005,-86.5 2146,-86.5 2146,-56.5 2005,-56.5"/>
<text text-anchor="start" x="2013" y="-74.5" font-family="Helvetica,sans-Serif" font-size="10.00">src/app/seamly2d/dialogs</text>
<text text-anchor="middle" x="2075.5" y="-63.5" font-family="Helvetica,sans-Serif" font-size="10.00">/welcome_dialog.cpp</text>
</a>
</g>
</g>
<!-- Node2&#45;&gt;Node21 -->
<g id="edge20" class="edge">
<title>Node2&#45;&gt;Node21</title>
<path fill="none" stroke="midnightblue" d="M2131.85,-117.17C2119.31,-107.23 2104.53,-95.51 2093.26,-86.58"/>
<polygon fill="midnightblue" stroke="midnightblue" points="2129.7,-119.93 2139.71,-123.4 2134.04,-114.44 2129.7,-119.93"/>
</g>
<!-- Node22 -->
<g id="node22" class="node">
<title>Node22</title>
<g id="a_node22"><a xlink:href="../../dc/d14/app_2seamly2d_2main_8cpp.html" target="_top" xlink:title=" ">
<polygon fill="white" stroke="black" points="2164,-62 2164,-81 2315,-81 2315,-62 2164,-62"/>
<text text-anchor="middle" x="2239.5" y="-69" font-family="Helvetica,sans-Serif" font-size="10.00">src/app/seamly2d/main.cpp</text>
</a>
</g>
</g>
<!-- Node2&#45;&gt;Node22 -->
<g id="edge21" class="edge">
<title>Node2&#45;&gt;Node22</title>
<path fill="none" stroke="midnightblue" d="M2183.35,-117.01C2198.57,-104.94 2217.04,-90.3 2228.53,-81.19"/>
<polygon fill="midnightblue" stroke="midnightblue" points="2180.96,-114.44 2175.29,-123.4 2185.3,-119.93 2180.96,-114.44"/>
</g>
<!-- Node23 -->
<g id="node23" class="node">
<title>Node23</title>
<g id="a_node23"><a xlink:href="../../dd/d84/shortcuts__dialog_8cpp.html" target="_top" xlink:title=" ">
<polygon fill="white" stroke="black" points="2333,-56.5 2333,-86.5 2474,-86.5 2474,-56.5 2333,-56.5"/>
<text text-anchor="start" x="2341" y="-74.5" font-family="Helvetica,sans-Serif" font-size="10.00">src/app/seamly2d/dialogs</text>
<text text-anchor="middle" x="2403.5" y="-63.5" font-family="Helvetica,sans-Serif" font-size="10.00">/shortcuts_dialog.cpp</text>
</a>
</g>
</g>
<!-- Node2&#45;&gt;Node23 -->
<g id="edge22" class="edge">
<title>Node2&#45;&gt;Node23</title>
<path fill="none" stroke="midnightblue" d="M2220.26,-120.92C2260.4,-110.31 2311.92,-96.7 2350.1,-86.61"/>
<polygon fill="midnightblue" stroke="midnightblue" points="2219.35,-117.54 2210.58,-123.48 2221.14,-124.31 2219.35,-117.54"/>
</g>
<!-- Node24 -->
<g id="node24" class="node">
<title>Node24</title>
<g id="a_node24"><a xlink:href="../../d8/de8/mainwindowsnogui_8cpp.html" target="_top" xlink:title=" ">
<polygon fill="white" stroke="black" points="2492,-62 2492,-81 2713,-81 2713,-62 2492,-62"/>
<text text-anchor="middle" x="2602.5" y="-69" font-family="Helvetica,sans-Serif" font-size="10.00">src/app/seamly2d/mainwindowsnogui.cpp</text>
</a>
</g>
</g>
<!-- Node2&#45;&gt;Node24 -->
<g id="edge23" class="edge">
<title>Node2&#45;&gt;Node24</title>
<path fill="none" stroke="midnightblue" d="M2231.41,-126.7C2319.21,-113.88 2463.86,-92.75 2544.18,-81.02"/>
<polygon fill="midnightblue" stroke="midnightblue" points="2230.65,-123.28 2221.26,-128.19 2231.66,-130.2 2230.65,-123.28"/>
</g>
<!-- Node25 -->
<g id="node25" class="node">
<title>Node25</title>
<g id="a_node25"><a xlink:href="../../d3/d49/vpattern_8cpp.html" target="_top" xlink:title=" ">
<polygon fill="white" stroke="black" points="2731,-56.5 2731,-86.5 2856,-86.5 2856,-56.5 2731,-56.5"/>
<text text-anchor="start" x="2739" y="-74.5" font-family="Helvetica,sans-Serif" font-size="10.00">src/app/seamly2d/xml</text>
<text text-anchor="middle" x="2793.5" y="-63.5" font-family="Helvetica,sans-Serif" font-size="10.00">/vpattern.cpp</text>
</a>
</g>
</g>
<!-- Node2&#45;&gt;Node25 -->
<g id="edge24" class="edge">
<title>Node2&#45;&gt;Node25</title>
<path fill="none" stroke="midnightblue" d="M2231.34,-133.47C2339.37,-127 2546.67,-112.35 2721.5,-87 2724.53,-86.56 2727.62,-86.08 2730.74,-85.56"/>
<polygon fill="midnightblue" stroke="midnightblue" points="2230.98,-129.99 2221.2,-134.07 2231.39,-136.98 2230.98,-129.99"/>
</g>
<!-- Node2&#45;&gt;Node26 -->
<g id="edge25" class="edge">
<title>Node2&#45;&gt;Node26</title>
<path fill="none" stroke="midnightblue" d="M2231.22,-137.71C2388.25,-137.28 2750.69,-131.33 2864.5,-87 2885.13,-78.96 2882.71,-63.61 2903.5,-56 3033.08,-8.55 3985.42,-9.02 4291.24,-10.42"/>
<polygon fill="midnightblue" stroke="midnightblue" points="2231.17,-134.21 2221.18,-137.73 2231.18,-141.21 2231.17,-134.21"/>
</g>
<!-- Node27 -->
<g id="node27" class="node">
<title>Node27</title>
<g id="a_node27"><a xlink:href="../../d9/da3/image__tool_8cpp.html" target="_top" xlink:title=" ">
<polygon fill="white" stroke="black" points="2913,-56.5 2913,-86.5 3030,-86.5 3030,-56.5 2913,-56.5"/>
<text text-anchor="start" x="2921" y="-74.5" font-family="Helvetica,sans-Serif" font-size="10.00">src/libs/tools/images</text>
<text text-anchor="middle" x="2971.5" y="-63.5" font-family="Helvetica,sans-Serif" font-size="10.00">/image_tool.cpp</text>
</a>
</g>
</g>
<!-- Node2&#45;&gt;Node27 -->
<g id="edge26" class="edge">
<title>Node2&#45;&gt;Node27</title>
<path fill="none" stroke="midnightblue" d="M2231.33,-135.6C2364.95,-131.46 2655.58,-119.27 2898.5,-87 2903.11,-86.39 2907.87,-85.66 2912.64,-84.86"/>
<polygon fill="midnightblue" stroke="midnightblue" points="2231.1,-132.1 2221.21,-135.9 2231.31,-139.1 2231.1,-132.1"/>
</g>
<!-- Node28&#45;&gt;Node14 -->
<g id="edge32" class="edge">
<title>Node28&#45;&gt;Node14</title>
<path fill="none" stroke="midnightblue" d="M4219.5,-113.11C4219.5,-104.15 4219.5,-94.32 4219.5,-86.58"/>
<polygon fill="midnightblue" stroke="midnightblue" points="4216,-113.4 4219.5,-123.4 4223,-113.4 4216,-113.4"/>
</g>
<!-- Node29 -->
<g id="node29" class="node">
<title>Node29</title>
<g id="a_node29"><a xlink:href="../../d6/d64/dialogs_8h.html" target="_top" xlink:title=" ">
<polygon fill="white" stroke="black" points="4315,-56.5 4315,-86.5 4456,-86.5 4456,-56.5 4315,-56.5"/>
<text text-anchor="start" x="4323" y="-74.5" font-family="Helvetica,sans-Serif" font-size="10.00">src/app/seamly2d/dialogs</text>
<text text-anchor="middle" x="4385.5" y="-63.5" font-family="Helvetica,sans-Serif" font-size="10.00">/dialogs.h</text>
</a>
</g>
</g>
<!-- Node28&#45;&gt;Node29 -->
<g id="edge33" class="edge">
<title>Node28&#45;&gt;Node29</title>
<path fill="none" stroke="midnightblue" d="M4265.01,-119.68C4291.63,-109.26 4324.77,-96.28 4349.55,-86.58"/>
<polygon fill="midnightblue" stroke="midnightblue" points="4263.55,-116.49 4255.52,-123.4 4266.11,-123.01 4263.55,-116.49"/>
</g>
<!-- Node29&#45;&gt;Node26 -->
<g id="edge34" class="edge">
<title>Node29&#45;&gt;Node26</title>
<path fill="none" stroke="midnightblue" d="M4385.5,-46.29C4385.5,-36.86 4385.5,-26.65 4385.5,-19.66"/>
<polygon fill="midnightblue" stroke="midnightblue" points="4382,-46.4 4385.5,-56.4 4389,-46.4 4382,-46.4"/>
</g>
</g>
</svg>
