<?xml version="1.0" encoding="UTF-8" standalone="no"?>
<!DOCTYPE svg PUBLIC "-//W3C//DTD SVG 1.1//EN"
 "http://www.w3.org/Graphics/SVG/1.1/DTD/svg11.dtd">
<!-- Generated by graphviz version 2.43.0 (0)
 -->
<!-- Title: src/app/seamly2d/options.h Pages: 1 -->
<!--zoomable 218 -->
<svg id="main" version="1.1" xmlns="http://www.w3.org/2000/svg" xmlns:xlink="http://www.w3.org/1999/xlink" xml:space="preserve" onload="init(evt)">
<style type="text/css"><![CDATA[
.edge:hover path { stroke: red; }
.edge:hover polygon { stroke: red; fill: red; }
]]></style>
<script type="text/javascript"><![CDATA[
var edges = document.getElementsByTagName('g');
if (edges && edges.length) {
  for (var i=0;i<edges.length;i++) {
    if (edges[i].id.substr(0,4)=='edge') {
      edges[i].setAttribute('class','edge');
    }
  }
}
]]></script>
        <defs>
                <circle id="rim" cx="0" cy="0" r="7"/>
                <circle id="rim2" cx="0" cy="0" r="3.5"/>
                <g id="zoomPlus">
                        <use xlink:href="#rim" fill="#404040">
                                <set attributeName="fill" to="#808080" begin="zoomplus.mouseover" end="zoomplus.mouseout"/>
                        </use>
                        <path d="M-4,0h8M0,-4v8" fill="none" stroke="white" stroke-width="1.5" pointer-events="none"/>
                </g>
                <g id="zoomMin">
                        <use xlink:href="#rim" fill="#404040">
                                <set attributeName="fill" to="#808080" begin="zoomminus.mouseover" end="zoomminus.mouseout"/>
                        </use>
                        <path d="M-4,0h8" fill="none" stroke="white" stroke-width="1.5" pointer-events="none"/>
                </g>
                <g id="dirArrow">
                        <path fill="none" stroke="white" stroke-width="1.5" d="M0,-3.0v7 M-2.5,-0.5L0,-3.0L2.5,-0.5"/>
                </g>
               <g id="resetDef">
                       <use xlink:href="#rim2" fill="#404040">
                               <set attributeName="fill" to="#808080" begin="reset.mouseover" end="reset.mouseout"/>
                       </use>
               </g>
        </defs>

<script type="text/javascript">
var viewWidth = 4487;
var viewHeight = 218;
var sectionId = 'dynsection-1';
</script>
<script xlink:href="../../svgpan.js"/>
<svg id="graph" class="graph">
<g id="viewport">
<title>src/app/seamly2d/options.h</title>
<polygon fill="white" stroke="transparent" points="-4,4 -4,-214 4482.5,-214 4482.5,4 -4,4"/>
<!-- Node1 -->
<g id="node1" class="node">
<title>Node1</title>
<g id="a_node1"><a xlink:title=" ">
<polygon fill="#bfbfbf" stroke="black" points="1474,-190.5 1474,-209.5 1625,-209.5 1625,-190.5 1474,-190.5"/>
<text text-anchor="middle" x="1549.5" y="-197.5" font-family="Helvetica,sans-Serif" font-size="10.00">src/app/seamly2d/options.h</text>
</a>
</g>
</g>
<!-- Node2 -->
<g id="node2" class="node">
<title>Node2</title>
<g id="a_node2"><a xlink:href="../../d7/d61/application__2d_8h.html" target="_top" xlink:title=" ">
<polygon fill="white" stroke="black" points="1825,-123.5 1825,-153.5 1952,-153.5 1952,-123.5 1825,-123.5"/>
<text text-anchor="start" x="1833" y="-141.5" font-family="Helvetica,sans-Serif" font-size="10.00">src/app/seamly2d/core</text>
<text text-anchor="middle" x="1888.5" y="-130.5" font-family="Helvetica,sans-Serif" font-size="10.00">/application_2d.h</text>
</a>
</g>
</g>
<!-- Node1&#45;&gt;Node2 -->
<g id="edge1" class="edge">
<title>Node1&#45;&gt;Node2</title>
<path fill="none" stroke="midnightblue" d="M1608.22,-188.69C1668.74,-178.07 1762.78,-161.57 1824.99,-150.65"/>
<polygon fill="midnightblue" stroke="midnightblue" points="1607.31,-185.3 1598.07,-190.48 1608.52,-192.19 1607.31,-185.3"/>
</g>
<!-- Node5 -->
<g id="node5" class="node">
<title>Node5</title>
<g id="a_node5"><a xlink:href="../../d9/d7f/about2d__dialog_8cpp.html" target="_top" xlink:title=" ">
<polygon fill="white" stroke="black" points="0,-56.5 0,-86.5 141,-86.5 141,-56.5 0,-56.5"/>
<text text-anchor="start" x="8" y="-74.5" font-family="Helvetica,sans-Serif" font-size="10.00">src/app/seamly2d/dialogs</text>
<text text-anchor="middle" x="70.5" y="-63.5" font-family="Helvetica,sans-Serif" font-size="10.00">/about2d_dialog.cpp</text>
</a>
</g>
</g>
<!-- Node1&#45;&gt;Node5 -->
<g id="edge27" class="edge">
<title>Node1&#45;&gt;Node5</title>
<path fill="none" stroke="midnightblue" d="M1463.75,-199.35C1285.46,-199.18 862.01,-194.15 509.5,-154 373.18,-138.47 215.5,-105.46 131.17,-86.56"/>
<polygon fill="midnightblue" stroke="midnightblue" points="1463.85,-202.85 1473.85,-199.35 1463.85,-195.85 1463.85,-202.85"/>
</g>
<!-- Node6 -->
<g id="node6" class="node">
<title>Node6</title>
<g id="a_node6"><a xlink:href="../../d7/dfa/calculator__dialog_8cpp.html" target="_top" xlink:title=" ">
<polygon fill="white" stroke="black" points="159,-56.5 159,-86.5 300,-86.5 300,-56.5 159,-56.5"/>
<text text-anchor="start" x="167" y="-74.5" font-family="Helvetica,sans-Serif" font-size="10.00">src/app/seamly2d/dialogs</text>
<text text-anchor="middle" x="229.5" y="-63.5" font-family="Helvetica,sans-Serif" font-size="10.00">/calculator_dialog.cpp</text>
</a>
</g>
</g>
<!-- Node1&#45;&gt;Node6 -->
<g id="edge28" class="edge">
<title>Node1&#45;&gt;Node6</title>
<path fill="none" stroke="midnightblue" d="M1463.4,-197.08C1314.62,-193.13 999.92,-181.98 735.5,-154 579.32,-137.47 397.97,-104.99 300.4,-86.42"/>
<polygon fill="midnightblue" stroke="midnightblue" points="1463.74,-200.59 1473.83,-197.35 1463.92,-193.59 1463.74,-200.59"/>
</g>
<!-- Node8 -->
<g id="node8" class="node">
<title>Node8</title>
<g id="a_node8"><a xlink:href="../../dc/d20/preferencespathpage_8cpp.html" target="_top" xlink:title=" ">
<polygon fill="white" stroke="black" points="318,-56.5 318,-86.5 523,-86.5 523,-56.5 318,-56.5"/>
<text text-anchor="start" x="326" y="-74.5" font-family="Helvetica,sans-Serif" font-size="10.00">src/app/seamly2d/dialogs</text>
<text text-anchor="middle" x="420.5" y="-63.5" font-family="Helvetica,sans-Serif" font-size="10.00">/configpages/preferencespathpage.cpp</text>
</a>
</g>
</g>
<!-- Node1&#45;&gt;Node8 -->
<g id="edge29" class="edge">
<title>Node1&#45;&gt;Node8</title>
<path fill="none" stroke="midnightblue" d="M1463.45,-194.7C1346.43,-188.38 1130.7,-174.98 947.5,-154 863.68,-144.4 632.11,-107.16 505.64,-86.5"/>
<polygon fill="midnightblue" stroke="midnightblue" points="1463.59,-198.22 1473.77,-195.26 1463.97,-191.23 1463.59,-198.22"/>
</g>
<!-- Node12 -->
<g id="node12" class="node">
<title>Node12</title>
<g id="a_node12"><a xlink:href="../../d6/d89/dialoglayoutprogress_8cpp.html" target="_top" xlink:title=" ">
<polygon fill="white" stroke="black" points="541,-56.5 541,-86.5 684,-86.5 684,-56.5 541,-56.5"/>
<text text-anchor="start" x="549" y="-74.5" font-family="Helvetica,sans-Serif" font-size="10.00">src/app/seamly2d/dialogs</text>
<text text-anchor="middle" x="612.5" y="-63.5" font-family="Helvetica,sans-Serif" font-size="10.00">/dialoglayoutprogress.cpp</text>
</a>
</g>
</g>
<!-- Node1&#45;&gt;Node12 -->
<g id="edge30" class="edge">
<title>Node1&#45;&gt;Node12</title>
<path fill="none" stroke="midnightblue" d="M1464.88,-189.27C1311.02,-171.27 975.29,-130.63 693.5,-87 690.39,-86.52 687.22,-86.01 684.02,-85.49"/>
<polygon fill="midnightblue" stroke="midnightblue" points="1464.86,-192.79 1475.19,-190.47 1465.67,-185.83 1464.86,-192.79"/>
</g>
<!-- Node16 -->
<g id="node16" class="node">
<title>Node16</title>
<g id="a_node16"><a xlink:href="../../dd/d54/export__layout__dialog_8cpp.html" target="_top" xlink:title=" ">
<polygon fill="white" stroke="black" points="3980,-56.5 3980,-86.5 4123,-86.5 4123,-56.5 3980,-56.5"/>
<text text-anchor="start" x="3988" y="-74.5" font-family="Helvetica,sans-Serif" font-size="10.00">src/app/seamly2d/dialogs</text>
<text text-anchor="middle" x="4051.5" y="-63.5" font-family="Helvetica,sans-Serif" font-size="10.00">/export_layout_dialog.cpp</text>
</a>
</g>
</g>
<!-- Node1&#45;&gt;Node16 -->
<g id="edge35" class="edge">
<title>Node1&#45;&gt;Node16</title>
<path fill="none" stroke="midnightblue" d="M1635.46,-199.08C1949.09,-198.53 3060.92,-189.01 3970.5,-87 3973.48,-86.67 3976.52,-86.29 3979.58,-85.88"/>
<polygon fill="midnightblue" stroke="midnightblue" points="1635.08,-195.58 1625.09,-199.1 1635.09,-202.58 1635.08,-195.58"/>
</g>
<!-- Node26 -->
<g id="node26" class="node">
<title>Node26</title>
<g id="a_node26"><a xlink:href="../../d8/dd9/mainwindow_8cpp.html" target="_top" xlink:title=" ">
<polygon fill="white" stroke="black" points="4290.5,-0.5 4290.5,-19.5 4478.5,-19.5 4478.5,-0.5 4290.5,-0.5"/>
<text text-anchor="middle" x="4384.5" y="-7.5" font-family="Helvetica,sans-Serif" font-size="10.00">src/app/seamly2d/mainwindow.cpp</text>
</a>
</g>
</g>
<!-- Node1&#45;&gt;Node26 -->
<g id="edge36" class="edge">
<title>Node1&#45;&gt;Node26</title>
<path fill="none" stroke="midnightblue" d="M1635.04,-198.49C2085.4,-195.66 4166.04,-181.2 4299.5,-154 4377.05,-138.19 4420.3,-152.66 4464.5,-87 4472.19,-75.57 4471.46,-67.89 4464.5,-56 4453.8,-37.71 4432.63,-26.27 4414.75,-19.51"/>
<polygon fill="midnightblue" stroke="midnightblue" points="1635,-194.99 1625.02,-198.55 1635.04,-201.99 1635,-194.99"/>
</g>
<!-- Node28 -->
<g id="node28" class="node">
<title>Node28</title>
<g id="a_node28"><a xlink:href="../../d5/d4e/dialogpatternproperties_8h.html" target="_top" xlink:title=" ">
<polygon fill="white" stroke="black" points="4147,-123.5 4147,-153.5 4290,-153.5 4290,-123.5 4147,-123.5"/>
<text text-anchor="start" x="4155" y="-141.5" font-family="Helvetica,sans-Serif" font-size="10.00">src/app/seamly2d/dialogs</text>
<text text-anchor="middle" x="4218.5" y="-130.5" font-family="Helvetica,sans-Serif" font-size="10.00">/dialogpatternproperties.h</text>
</a>
</g>
</g>
<!-- Node1&#45;&gt;Node28 -->
<g id="edge31" class="edge">
<title>Node1&#45;&gt;Node28</title>
<path fill="none" stroke="midnightblue" d="M1635.3,-197.09C2042.05,-188.02 3771.99,-149.45 4146.72,-141.1"/>
<polygon fill="midnightblue" stroke="midnightblue" points="1635,-193.59 1625.08,-197.32 1635.15,-200.59 1635,-193.59"/>
</g>
<!-- Node3 -->
<g id="node3" class="node">
<title>Node3</title>
<g id="a_node3"><a xlink:href="../../df/d3e/application__2d_8cpp.html" target="_top" xlink:title=" ">
<polygon fill="white" stroke="black" points="2902,-56.5 2902,-86.5 3029,-86.5 3029,-56.5 2902,-56.5"/>
<text text-anchor="start" x="2910" y="-74.5" font-family="Helvetica,sans-Serif" font-size="10.00">src/app/seamly2d/core</text>
<text text-anchor="middle" x="2965.5" y="-63.5" font-family="Helvetica,sans-Serif" font-size="10.00">/application_2d.cpp</text>
</a>
</g>
</g>
<!-- Node2&#45;&gt;Node3 -->
<g id="edge2" class="edge">
<title>Node2&#45;&gt;Node3</title>
<path fill="none" stroke="midnightblue" d="M1962.42,-137.53C2129.19,-136.79 2547.12,-130.34 2893.5,-87 2896.28,-86.65 2899.12,-86.26 2901.98,-85.82"/>
<polygon fill="midnightblue" stroke="midnightblue" points="1962.27,-134.03 1952.28,-137.57 1962.29,-141.03 1962.27,-134.03"/>
</g>
<!-- Node4 -->
<g id="node4" class="node">
<title>Node4</title>
<g id="a_node4"><a xlink:href="../../dd/db4/abstractlayout__dialog_8cpp.html" target="_top" xlink:title=" ">
<polygon fill="white" stroke="black" points="3047.5,-56.5 3047.5,-86.5 3193.5,-86.5 3193.5,-56.5 3047.5,-56.5"/>
<text text-anchor="start" x="3055.5" y="-74.5" font-family="Helvetica,sans-Serif" font-size="10.00">src/app/seamly2d/dialogs</text>
<text text-anchor="middle" x="3120.5" y="-63.5" font-family="Helvetica,sans-Serif" font-size="10.00">/abstractlayout_dialog.cpp</text>
</a>
</g>
</g>
<!-- Node2&#45;&gt;Node4 -->
<g id="edge3" class="edge">
<title>Node2&#45;&gt;Node4</title>
<path fill="none" stroke="midnightblue" d="M1962.35,-137.61C2145.29,-137.14 2633.95,-131.46 3038.5,-87 3041.37,-86.68 3044.3,-86.33 3047.25,-85.94"/>
<polygon fill="midnightblue" stroke="midnightblue" points="1962.3,-134.11 1952.3,-137.63 1962.31,-141.11 1962.3,-134.11"/>
</g>
<!-- Node2&#45;&gt;Node5 -->
<g id="edge4" class="edge">
<title>Node2&#45;&gt;Node5</title>
<path fill="none" stroke="midnightblue" d="M1814.24,-136.85C1525.84,-134.1 479.76,-121.9 149.5,-87 146.73,-86.71 143.9,-86.37 141.06,-86"/>
<polygon fill="midnightblue" stroke="midnightblue" points="1814.55,-140.36 1824.58,-136.95 1814.62,-133.36 1814.55,-140.36"/>
</g>
<!-- Node2&#45;&gt;Node6 -->
<g id="edge5" class="edge">
<title>Node2&#45;&gt;Node6</title>
<path fill="none" stroke="midnightblue" d="M1814.78,-136.61C1544.22,-133.11 606.21,-118.9 308.5,-87 305.73,-86.7 302.91,-86.36 300.06,-85.99"/>
<polygon fill="midnightblue" stroke="midnightblue" points="1814.84,-140.11 1824.88,-136.74 1814.93,-133.11 1814.84,-140.11"/>
</g>
<!-- Node7 -->
<g id="node7" class="node">
<title>Node7</title>
<g id="a_node7"><a xlink:href="../../d2/d2d/preferencesconfigurationpage_8cpp.html" target="_top" xlink:title=" ">
<polygon fill="white" stroke="black" points="3212,-56.5 3212,-86.5 3459,-86.5 3459,-56.5 3212,-56.5"/>
<text text-anchor="start" x="3220" y="-74.5" font-family="Helvetica,sans-Serif" font-size="10.00">src/app/seamly2d/dialogs</text>
<text text-anchor="middle" x="3335.5" y="-63.5" font-family="Helvetica,sans-Serif" font-size="10.00">/configpages/preferencesconfigurationpage.cpp</text>
</a>
</g>
</g>
<!-- Node2&#45;&gt;Node7 -->
<g id="edge6" class="edge">
<title>Node2&#45;&gt;Node7</title>
<path fill="none" stroke="midnightblue" d="M1962.26,-136.48C2162.14,-133.32 2730.87,-121.73 3202.5,-87 3205.63,-86.77 3208.79,-86.52 3211.99,-86.26"/>
<polygon fill="midnightblue" stroke="midnightblue" points="1962.12,-132.98 1952.17,-136.64 1962.23,-139.98 1962.12,-132.98"/>
</g>
<!-- Node2&#45;&gt;Node8 -->
<g id="edge7" class="edge">
<title>Node2&#45;&gt;Node8</title>
<path fill="none" stroke="midnightblue" d="M1814.77,-137.16C1610.51,-135.68 1020.13,-127.92 531.5,-87 528.79,-86.77 526.04,-86.53 523.27,-86.27"/>
<polygon fill="midnightblue" stroke="midnightblue" points="1814.76,-140.66 1824.79,-137.22 1814.81,-133.66 1814.76,-140.66"/>
</g>
<!-- Node9 -->
<g id="node9" class="node">
<title>Node9</title>
<g id="a_node9"><a xlink:href="../../d9/d70/preferencesgraphicsviewpage_8cpp.html" target="_top" xlink:title=" ">
<polygon fill="white" stroke="black" points="3477.5,-56.5 3477.5,-86.5 3725.5,-86.5 3725.5,-56.5 3477.5,-56.5"/>
<text text-anchor="start" x="3485.5" y="-74.5" font-family="Helvetica,sans-Serif" font-size="10.00">src/app/seamly2d/dialogs</text>
<text text-anchor="middle" x="3601.5" y="-63.5" font-family="Helvetica,sans-Serif" font-size="10.00">/configpages/preferencesgraphicsviewpage.cpp</text>
</a>
</g>
</g>
<!-- Node2&#45;&gt;Node9 -->
<g id="edge8" class="edge">
<title>Node2&#45;&gt;Node9</title>
<path fill="none" stroke="midnightblue" d="M1962.25,-137.15C2187.94,-135.65 2889.14,-127.78 3468.5,-87 3471.4,-86.8 3474.33,-86.58 3477.28,-86.35"/>
<polygon fill="midnightblue" stroke="midnightblue" points="1962.16,-133.65 1952.18,-137.21 1962.2,-140.65 1962.16,-133.65"/>
</g>
<!-- Node10 -->
<g id="node10" class="node">
<title>Node10</title>
<g id="a_node10"><a xlink:href="../../dc/d63/preferencespatternpage_8cpp.html" target="_top" xlink:title=" ">
<polygon fill="white" stroke="black" points="3743.5,-56.5 3743.5,-86.5 3961.5,-86.5 3961.5,-56.5 3743.5,-56.5"/>
<text text-anchor="start" x="3751.5" y="-74.5" font-family="Helvetica,sans-Serif" font-size="10.00">src/app/seamly2d/dialogs</text>
<text text-anchor="middle" x="3852.5" y="-63.5" font-family="Helvetica,sans-Serif" font-size="10.00">/configpages/preferencespatternpage.cpp</text>
</a>
</g>
</g>
<!-- Node2&#45;&gt;Node10 -->
<g id="edge9" class="edge">
<title>Node2&#45;&gt;Node10</title>
<path fill="none" stroke="midnightblue" d="M1962.75,-136.41C2262.12,-131.88 3381.21,-113.48 3734.5,-87 3737.38,-86.78 3740.3,-86.55 3743.25,-86.3"/>
<polygon fill="midnightblue" stroke="midnightblue" points="1962.4,-132.92 1952.45,-136.57 1962.5,-139.92 1962.4,-132.92"/>
</g>
<!-- Node11 -->
<g id="node11" class="node">
<title>Node11</title>
<g id="a_node11"><a xlink:href="../../dd/dc2/decimalchart__dialog_8cpp.html" target="_top" xlink:title=" ">
<polygon fill="white" stroke="black" points="702,-56.5 702,-86.5 843,-86.5 843,-56.5 702,-56.5"/>
<text text-anchor="start" x="710" y="-74.5" font-family="Helvetica,sans-Serif" font-size="10.00">src/app/seamly2d/dialogs</text>
<text text-anchor="middle" x="772.5" y="-63.5" font-family="Helvetica,sans-Serif" font-size="10.00">/decimalchart_dialog.cpp</text>
</a>
</g>
</g>
<!-- Node2&#45;&gt;Node11 -->
<g id="edge10" class="edge">
<title>Node2&#45;&gt;Node11</title>
<path fill="none" stroke="midnightblue" d="M1814.81,-137.21C1644.7,-135.81 1211.7,-128.13 852.5,-87 849.41,-86.65 846.27,-86.25 843.1,-85.81"/>
<polygon fill="midnightblue" stroke="midnightblue" points="1814.88,-140.71 1824.9,-137.28 1814.93,-133.71 1814.88,-140.71"/>
</g>
<!-- Node2&#45;&gt;Node12 -->
<g id="edge11" class="edge">
<title>Node2&#45;&gt;Node12</title>
<path fill="none" stroke="midnightblue" d="M1814.76,-137.83C1627.05,-137.94 1116.07,-133.54 693.5,-87 690.52,-86.67 687.48,-86.3 684.42,-85.89"/>
<polygon fill="midnightblue" stroke="midnightblue" points="1814.8,-141.33 1824.79,-137.82 1814.79,-134.33 1814.8,-141.33"/>
</g>
<!-- Node13 -->
<g id="node13" class="node">
<title>Node13</title>
<g id="a_node13"><a xlink:href="../../de/d87/dialognewpattern_8cpp.html" target="_top" xlink:title=" ">
<polygon fill="white" stroke="black" points="861,-56.5 861,-86.5 1002,-86.5 1002,-56.5 861,-56.5"/>
<text text-anchor="start" x="869" y="-74.5" font-family="Helvetica,sans-Serif" font-size="10.00">src/app/seamly2d/dialogs</text>
<text text-anchor="middle" x="931.5" y="-63.5" font-family="Helvetica,sans-Serif" font-size="10.00">/dialognewpattern.cpp</text>
</a>
</g>
</g>
<!-- Node2&#45;&gt;Node13 -->
<g id="edge12" class="edge">
<title>Node2&#45;&gt;Node13</title>
<path fill="none" stroke="midnightblue" d="M1814.9,-136.29C1663.82,-133.13 1307.95,-122.27 1011.5,-87 1008.42,-86.63 1005.27,-86.22 1002.1,-85.78"/>
<polygon fill="midnightblue" stroke="midnightblue" points="1814.92,-139.79 1824.99,-136.49 1815.06,-132.79 1814.92,-139.79"/>
</g>
<!-- Node14 -->
<g id="node14" class="node">
<title>Node14</title>
<g id="a_node14"><a xlink:href="../../d2/d00/vtooloptionspropertybrowser_8cpp.html" target="_top" xlink:title=" ">
<polygon fill="white" stroke="black" points="1020.5,-56.5 1020.5,-86.5 1200.5,-86.5 1200.5,-56.5 1020.5,-56.5"/>
<text text-anchor="start" x="1028.5" y="-74.5" font-family="Helvetica,sans-Serif" font-size="10.00">src/app/seamly2d/core</text>
<text text-anchor="middle" x="1110.5" y="-63.5" font-family="Helvetica,sans-Serif" font-size="10.00">/vtooloptionspropertybrowser.cpp</text>
</a>
</g>
</g>
<!-- Node2&#45;&gt;Node14 -->
<g id="edge13" class="edge">
<title>Node2&#45;&gt;Node14</title>
<path fill="none" stroke="midnightblue" d="M1814.61,-133.69C1689.85,-126.87 1429.62,-111.02 1210.5,-87 1207.27,-86.65 1203.99,-86.27 1200.68,-85.87"/>
<polygon fill="midnightblue" stroke="midnightblue" points="1814.63,-137.19 1824.8,-134.24 1815.01,-130.2 1814.63,-137.19"/>
</g>
<!-- Node15 -->
<g id="node15" class="node">
<title>Node15</title>
<g id="a_node15"><a xlink:href="../../d5/dc5/dialogpreferences_8cpp.html" target="_top" xlink:title=" ">
<polygon fill="white" stroke="black" points="1219,-56.5 1219,-86.5 1360,-86.5 1360,-56.5 1219,-56.5"/>
<text text-anchor="start" x="1227" y="-74.5" font-family="Helvetica,sans-Serif" font-size="10.00">src/app/seamly2d/dialogs</text>
<text text-anchor="middle" x="1289.5" y="-63.5" font-family="Helvetica,sans-Serif" font-size="10.00">/dialogpreferences.cpp</text>
</a>
</g>
</g>
<!-- Node2&#45;&gt;Node15 -->
<g id="edge14" class="edge">
<title>Node2&#45;&gt;Node15</title>
<path fill="none" stroke="midnightblue" d="M1814.62,-131.9C1714.6,-123.94 1530.66,-107.96 1374.5,-87 1369.9,-86.38 1365.17,-85.7 1360.4,-84.98"/>
<polygon fill="midnightblue" stroke="midnightblue" points="1814.38,-135.39 1824.63,-132.69 1814.93,-128.41 1814.38,-135.39"/>
</g>
<!-- Node2&#45;&gt;Node16 -->
<g id="edge15" class="edge">
<title>Node2&#45;&gt;Node16</title>
<path fill="none" stroke="midnightblue" d="M1962.19,-136.38C2308.71,-131.03 3767.84,-107.48 3970.5,-87 3973.48,-86.7 3976.53,-86.35 3979.59,-85.96"/>
<polygon fill="midnightblue" stroke="midnightblue" points="1961.96,-132.88 1952.02,-136.54 1962.07,-139.88 1961.96,-132.88"/>
</g>
<!-- Node17 -->
<g id="node17" class="node">
<title>Node17</title>
<g id="a_node17"><a xlink:href="../../d5/d18/dialogpatternproperties_8cpp.html" target="_top" xlink:title=" ">
<polygon fill="white" stroke="black" points="4141,-56.5 4141,-86.5 4296,-86.5 4296,-56.5 4141,-56.5"/>
<text text-anchor="start" x="4149" y="-74.5" font-family="Helvetica,sans-Serif" font-size="10.00">src/app/seamly2d/dialogs</text>
<text text-anchor="middle" x="4218.5" y="-63.5" font-family="Helvetica,sans-Serif" font-size="10.00">/dialogpatternproperties.cpp</text>
</a>
</g>
</g>
<!-- Node2&#45;&gt;Node17 -->
<g id="edge16" class="edge">
<title>Node2&#45;&gt;Node17</title>
<path fill="none" stroke="midnightblue" d="M1962.35,-137.27C2299.76,-136.02 3697.07,-128.39 4132.5,-87 4135.21,-86.74 4137.97,-86.45 4140.75,-86.13"/>
<polygon fill="midnightblue" stroke="midnightblue" points="1962.19,-133.77 1952.2,-137.31 1962.21,-140.77 1962.19,-133.77"/>
</g>
<!-- Node18 -->
<g id="node18" class="node">
<title>Node18</title>
<g id="a_node18"><a xlink:href="../../db/d5c/groups__widget_8cpp.html" target="_top" xlink:title=" ">
<polygon fill="white" stroke="black" points="1417,-56.5 1417,-86.5 1558,-86.5 1558,-56.5 1417,-56.5"/>
<text text-anchor="start" x="1425" y="-74.5" font-family="Helvetica,sans-Serif" font-size="10.00">src/app/seamly2d/dialogs</text>
<text text-anchor="middle" x="1487.5" y="-63.5" font-family="Helvetica,sans-Serif" font-size="10.00">/groups_widget.cpp</text>
</a>
</g>
</g>
<!-- Node2&#45;&gt;Node18 -->
<g id="edge17" class="edge">
<title>Node2&#45;&gt;Node18</title>
<path fill="none" stroke="midnightblue" d="M1814.62,-126.38C1749.5,-116.45 1652.11,-101.32 1567.5,-87 1564.44,-86.48 1561.31,-85.95 1558.15,-85.4"/>
<polygon fill="midnightblue" stroke="midnightblue" points="1814.37,-129.88 1824.78,-127.92 1815.42,-122.96 1814.37,-129.88"/>
</g>
<!-- Node19 -->
<g id="node19" class="node">
<title>Node19</title>
<g id="a_node19"><a xlink:href="../../d0/dfa/layoutsettings__dialog_8cpp.html" target="_top" xlink:title=" ">
<polygon fill="white" stroke="black" points="1576,-56.5 1576,-86.5 1721,-86.5 1721,-56.5 1576,-56.5"/>
<text text-anchor="start" x="1584" y="-74.5" font-family="Helvetica,sans-Serif" font-size="10.00">src/app/seamly2d/dialogs</text>
<text text-anchor="middle" x="1648.5" y="-63.5" font-family="Helvetica,sans-Serif" font-size="10.00">/layoutsettings_dialog.cpp</text>
</a>
</g>
</g>
<!-- Node2&#45;&gt;Node19 -->
<g id="edge18" class="edge">
<title>Node2&#45;&gt;Node19</title>
<path fill="none" stroke="midnightblue" d="M1827.02,-120.85C1787.89,-110.25 1737.77,-96.68 1700.6,-86.61"/>
<polygon fill="midnightblue" stroke="midnightblue" points="1826.15,-124.24 1836.72,-123.48 1827.98,-117.48 1826.15,-124.24"/>
</g>
<!-- Node20 -->
<g id="node20" class="node">
<title>Node20</title>
<g id="a_node20"><a xlink:href="../../d2/df4/show__info__dialog_8cpp.html" target="_top" xlink:title=" ">
<polygon fill="white" stroke="black" points="1739,-56.5 1739,-86.5 1880,-86.5 1880,-56.5 1739,-56.5"/>
<text text-anchor="start" x="1747" y="-74.5" font-family="Helvetica,sans-Serif" font-size="10.00">src/app/seamly2d/dialogs</text>
<text text-anchor="middle" x="1809.5" y="-63.5" font-family="Helvetica,sans-Serif" font-size="10.00">/show_info_dialog.cpp</text>
</a>
</g>
</g>
<!-- Node2&#45;&gt;Node20 -->
<g id="edge19" class="edge">
<title>Node2&#45;&gt;Node20</title>
<path fill="none" stroke="midnightblue" d="M1863.44,-116.88C1851.44,-107.01 1837.37,-95.43 1826.61,-86.58"/>
<polygon fill="midnightblue" stroke="midnightblue" points="1861.41,-119.75 1871.36,-123.4 1865.86,-114.34 1861.41,-119.75"/>
</g>
<!-- Node21 -->
<g id="node21" class="node">
<title>Node21</title>
<g id="a_node21"><a xlink:href="../../df/d69/welcome__dialog_8cpp.html" target="_top" xlink:title=" ">
<polygon fill="white" stroke="black" points="1898,-56.5 1898,-86.5 2039,-86.5 2039,-56.5 1898,-56.5"/>
<text text-anchor="start" x="1906" y="-74.5" font-family="Helvetica,sans-Serif" font-size="10.00">src/app/seamly2d/dialogs</text>
<text text-anchor="middle" x="1968.5" y="-63.5" font-family="Helvetica,sans-Serif" font-size="10.00">/welcome_dialog.cpp</text>
</a>
</g>
</g>
<!-- Node2&#45;&gt;Node21 -->
<g id="edge20" class="edge">
<title>Node2&#45;&gt;Node21</title>
<path fill="none" stroke="midnightblue" d="M1913.87,-116.88C1926.03,-107.01 1940.28,-95.43 1951.18,-86.58"/>
<polygon fill="midnightblue" stroke="midnightblue" points="1911.41,-114.37 1905.86,-123.4 1915.83,-119.81 1911.41,-114.37"/>
</g>
<!-- Node22 -->
<g id="node22" class="node">
<title>Node22</title>
<g id="a_node22"><a xlink:href="../../dc/d14/app_2seamly2d_2main_8cpp.html" target="_top" xlink:title=" ">
<polygon fill="white" stroke="black" points="2057,-62 2057,-81 2208,-81 2208,-62 2057,-62"/>
<text text-anchor="middle" x="2132.5" y="-69" font-family="Helvetica,sans-Serif" font-size="10.00">src/app/seamly2d/main.cpp</text>
</a>
</g>
</g>
<!-- Node2&#45;&gt;Node22 -->
<g id="edge21" class="edge">
<title>Node2&#45;&gt;Node22</title>
<path fill="none" stroke="midnightblue" d="M1951.07,-120.83C1998.83,-108.11 2062.66,-91.11 2100.48,-81.03"/>
<polygon fill="midnightblue" stroke="midnightblue" points="1949.91,-117.52 1941.14,-123.48 1951.71,-124.28 1949.91,-117.52"/>
</g>
<!-- Node23 -->
<g id="node23" class="node">
<title>Node23</title>
<g id="a_node23"><a xlink:href="../../dd/d84/shortcuts__dialog_8cpp.html" target="_top" xlink:title=" ">
<polygon fill="white" stroke="black" points="2226,-56.5 2226,-86.5 2367,-86.5 2367,-56.5 2226,-56.5"/>
<text text-anchor="start" x="2234" y="-74.5" font-family="Helvetica,sans-Serif" font-size="10.00">src/app/seamly2d/dialogs</text>
<text text-anchor="middle" x="2296.5" y="-63.5" font-family="Helvetica,sans-Serif" font-size="10.00">/shortcuts_dialog.cpp</text>
</a>
</g>
</g>
<!-- Node2&#45;&gt;Node23 -->
<g id="edge22" class="edge">
<title>Node2&#45;&gt;Node23</title>
<path fill="none" stroke="midnightblue" d="M1962.28,-126.81C2029.02,-116.98 2129.96,-101.75 2217.5,-87 2220.25,-86.54 2223.05,-86.06 2225.88,-85.57"/>
<polygon fill="midnightblue" stroke="midnightblue" points="1961.66,-123.36 1952.27,-128.27 1962.68,-130.28 1961.66,-123.36"/>
</g>
<!-- Node24 -->
<g id="node24" class="node">
<title>Node24</title>
<g id="a_node24"><a xlink:href="../../d8/de8/mainwindowsnogui_8cpp.html" target="_top" xlink:title=" ">
<polygon fill="white" stroke="black" points="2385,-62 2385,-81 2606,-81 2606,-62 2385,-62"/>
<text text-anchor="middle" x="2495.5" y="-69" font-family="Helvetica,sans-Serif" font-size="10.00">src/app/seamly2d/mainwindowsnogui.cpp</text>
</a>
</g>
</g>
<!-- Node2&#45;&gt;Node24 -->
<g id="edge23" class="edge">
<title>Node2&#45;&gt;Node24</title>
<path fill="none" stroke="midnightblue" d="M1962.24,-130.29C2057.84,-120.84 2229.71,-103.54 2376.5,-87 2392.94,-85.15 2410.65,-83.05 2427.25,-81.03"/>
<polygon fill="midnightblue" stroke="midnightblue" points="1961.71,-126.82 1952.1,-131.29 1962.39,-133.79 1961.71,-126.82"/>
</g>
<!-- Node25 -->
<g id="node25" class="node">
<title>Node25</title>
<g id="a_node25"><a xlink:href="../../d3/d49/vpattern_8cpp.html" target="_top" xlink:title=" ">
<polygon fill="white" stroke="black" points="2624,-56.5 2624,-86.5 2749,-86.5 2749,-56.5 2624,-56.5"/>
<text text-anchor="start" x="2632" y="-74.5" font-family="Helvetica,sans-Serif" font-size="10.00">src/app/seamly2d/xml</text>
<text text-anchor="middle" x="2686.5" y="-63.5" font-family="Helvetica,sans-Serif" font-size="10.00">/vpattern.cpp</text>
</a>
</g>
</g>
<!-- Node2&#45;&gt;Node25 -->
<g id="edge24" class="edge">
<title>Node2&#45;&gt;Node25</title>
<path fill="none" stroke="midnightblue" d="M1962.87,-135.57C2094.84,-131.44 2378.41,-119.3 2615.5,-87 2618.24,-86.63 2621.04,-86.21 2623.86,-85.76"/>
<polygon fill="midnightblue" stroke="midnightblue" points="1962.37,-132.09 1952.49,-135.89 1962.59,-139.09 1962.37,-132.09"/>
</g>
<!-- Node2&#45;&gt;Node26 -->
<g id="edge25" class="edge">
<title>Node2&#45;&gt;Node26</title>
<path fill="none" stroke="midnightblue" d="M1814.75,-135.07C1686.91,-130.08 1435.15,-116.6 1408.5,-87 1399.28,-76.76 1398.83,-65.82 1408.5,-56 1434.4,-29.71 3786.32,-14.49 4290.16,-11.53"/>
<polygon fill="midnightblue" stroke="midnightblue" points="1814.73,-138.57 1824.86,-135.45 1815,-131.57 1814.73,-138.57"/>
</g>
<!-- Node27 -->
<g id="node27" class="node">
<title>Node27</title>
<g id="a_node27"><a xlink:href="../../d9/da3/image__tool_8cpp.html" target="_top" xlink:title=" ">
<polygon fill="white" stroke="black" points="2767,-56.5 2767,-86.5 2884,-86.5 2884,-56.5 2767,-56.5"/>
<text text-anchor="start" x="2775" y="-74.5" font-family="Helvetica,sans-Serif" font-size="10.00">src/libs/tools/images</text>
<text text-anchor="middle" x="2825.5" y="-63.5" font-family="Helvetica,sans-Serif" font-size="10.00">/image_tool.cpp</text>
</a>
</g>
</g>
<!-- Node2&#45;&gt;Node27 -->
<g id="edge26" class="edge">
<title>Node2&#45;&gt;Node27</title>
<path fill="none" stroke="midnightblue" d="M1962.18,-137.07C2112.57,-135.35 2465.42,-126.97 2758.5,-87 2761.21,-86.63 2763.98,-86.21 2766.77,-85.75"/>
<polygon fill="midnightblue" stroke="midnightblue" points="1962.1,-133.57 1952.14,-137.18 1962.18,-140.57 1962.1,-133.57"/>
</g>
<!-- Node28&#45;&gt;Node17 -->
<g id="edge34" class="edge">
<title>Node28&#45;&gt;Node17</title>
<path fill="none" stroke="midnightblue" d="M4218.5,-113.11C4218.5,-104.15 4218.5,-94.32 4218.5,-86.58"/>
<polygon fill="midnightblue" stroke="midnightblue" points="4215,-113.4 4218.5,-123.4 4222,-113.4 4215,-113.4"/>
</g>
<!-- Node29 -->
<g id="node29" class="node">
<title>Node29</title>
<g id="a_node29"><a xlink:href="../../d6/d64/dialogs_8h.html" target="_top" xlink:title=" ">
<polygon fill="white" stroke="black" points="4314,-56.5 4314,-86.5 4455,-86.5 4455,-56.5 4314,-56.5"/>
<text text-anchor="start" x="4322" y="-74.5" font-family="Helvetica,sans-Serif" font-size="10.00">src/app/seamly2d/dialogs</text>
<text text-anchor="middle" x="4384.5" y="-63.5" font-family="Helvetica,sans-Serif" font-size="10.00">/dialogs.h</text>
</a>
</g>
</g>
<!-- Node28&#45;&gt;Node29 -->
<g id="edge32" class="edge">
<title>Node28&#45;&gt;Node29</title>
<path fill="none" stroke="midnightblue" d="M4264.01,-119.68C4290.63,-109.26 4323.77,-96.28 4348.55,-86.58"/>
<polygon fill="midnightblue" stroke="midnightblue" points="4262.55,-116.49 4254.52,-123.4 4265.11,-123.01 4262.55,-116.49"/>
</g>
<!-- Node29&#45;&gt;Node26 -->
<g id="edge33" class="edge">
<title>Node29&#45;&gt;Node26</title>
<path fill="none" stroke="midnightblue" d="M4384.5,-46.29C4384.5,-36.86 4384.5,-26.65 4384.5,-19.66"/>
<polygon fill="midnightblue" stroke="midnightblue" points="4381,-46.4 4384.5,-56.4 4388,-46.4 4381,-46.4"/>
</g>
</g>
</svg>
        <g id="navigator" transform="translate(0 0)" fill="#404254">
                <rect fill="#f2f5e9" fill-opacity="0.5" stroke="#606060" stroke-width=".5" x="0" y="0" width="60" height="60"/>
                <use id="zoomplus" xlink:href="#zoomPlus" x="17" y="9" onmousedown="handleZoom(evt,'in')"/>
                <use id="zoomminus" xlink:href="#zoomMin" x="42" y="9" onmousedown="handleZoom(evt,'out')"/>
                <use id="reset" xlink:href="#resetDef" x="30" y="36" onmousedown="handleReset()"/>
                <g id="arrowUp" xlink:href="#dirArrow" transform="translate(30 24)" onmousedown="handlePan(0,-1)">
                  <use xlink:href="#rim" fill="#404040">
                        <set attributeName="fill" to="#808080" begin="arrowUp.mouseover" end="arrowUp.mouseout"/>
                  </use>
                  <path fill="none" stroke="white" stroke-width="1.5" d="M0,-3.0v7 M-2.5,-0.5L0,-3.0L2.5,-0.5"/>
                </g>
                <g id="arrowRight" xlink:href="#dirArrow" transform="rotate(90) translate(36 -43)" onmousedown="handlePan(1,0)">
                  <use xlink:href="#rim" fill="#404040">
                        <set attributeName="fill" to="#808080" begin="arrowRight.mouseover" end="arrowRight.mouseout"/>
                  </use>
                  <path fill="none" stroke="white" stroke-width="1.5" d="M0,-3.0v7 M-2.5,-0.5L0,-3.0L2.5,-0.5"/>
                </g>
                <g id="arrowDown" xlink:href="#dirArrow" transform="rotate(180) translate(-30 -48)" onmousedown="handlePan(0,1)">
                  <use xlink:href="#rim" fill="#404040">
                        <set attributeName="fill" to="#808080" begin="arrowDown.mouseover" end="arrowDown.mouseout"/>
                  </use>
                  <path fill="none" stroke="white" stroke-width="1.5" d="M0,-3.0v7 M-2.5,-0.5L0,-3.0L2.5,-0.5"/>
                </g>
                <g id="arrowLeft" xlink:href="#dirArrow" transform="rotate(270) translate(-36 17)" onmousedown="handlePan(-1,0)">
                  <use xlink:href="#rim" fill="#404040">
                        <set attributeName="fill" to="#808080" begin="arrowLeft.mouseover" end="arrowLeft.mouseout"/>
                  </use>
                  <path fill="none" stroke="white" stroke-width="1.5" d="M0,-3.0v7 M-2.5,-0.5L0,-3.0L2.5,-0.5"/>
                </g>
        </g>
        <svg viewBox="0 0 15 15" width="100%" height="30px" preserveAspectRatio="xMaxYMin meet">
         <g id="arrow_out" transform="scale(0.3 0.3)">
          <a xlink:href="options_8h__dep__incl_org.svg" target="_base">
           <rect id="button" ry="5" rx="5" y="6" x="6" height="38" width="38"
                fill="#f2f5e9" fill-opacity="0.5" stroke="#606060" stroke-width="1.0"/>
           <path id="arrow"
             d="M 11.500037,31.436501 C 11.940474,20.09759 22.043105,11.32322 32.158766,21.979434 L 37.068811,17.246167 C 37.068811,17.246167 37.088388,32 37.088388,32 L 22.160133,31.978069 C 22.160133,31.978069 26.997745,27.140456 26.997745,27.140456 C 18.528582,18.264221 13.291696,25.230495 11.500037,31.436501 z"
             style="fill:#404040;"/>
          </a>
         </g>
        </svg>
</svg>
