<?xml version="1.0" encoding="UTF-8" standalone="no"?>
<!DOCTYPE svg PUBLIC "-//W3C//DTD SVG 1.1//EN"
 "http://www.w3.org/Graphics/SVG/1.1/DTD/svg11.dtd">
<!-- Generated by graphviz version 2.43.0 (0)
 -->
<!-- Title: src/libs/vwidgets/group_tablewidgetitem.cpp Pages: 1 -->
<!--zoomable 229 -->
<svg id="main" version="1.1" xmlns="http://www.w3.org/2000/svg" xmlns:xlink="http://www.w3.org/1999/xlink" xml:space="preserve" onload="init(evt)">
<style type="text/css"><![CDATA[
.edge:hover path { stroke: red; }
.edge:hover polygon { stroke: red; fill: red; }
]]></style>
<script type="text/javascript"><![CDATA[
var edges = document.getElementsByTagName('g');
if (edges && edges.length) {
  for (var i=0;i<edges.length;i++) {
    if (edges[i].id.substr(0,4)=='edge') {
      edges[i].setAttribute('class','edge');
    }
  }
}
]]></script>
        <defs>
                <circle id="rim" cx="0" cy="0" r="7"/>
                <circle id="rim2" cx="0" cy="0" r="3.5"/>
                <g id="zoomPlus">
                        <use xlink:href="#rim" fill="#404040">
                                <set attributeName="fill" to="#808080" begin="zoomplus.mouseover" end="zoomplus.mouseout"/>
                        </use>
                        <path d="M-4,0h8M0,-4v8" fill="none" stroke="white" stroke-width="1.5" pointer-events="none"/>
                </g>
                <g id="zoomMin">
                        <use xlink:href="#rim" fill="#404040">
                                <set attributeName="fill" to="#808080" begin="zoomminus.mouseover" end="zoomminus.mouseout"/>
                        </use>
                        <path d="M-4,0h8" fill="none" stroke="white" stroke-width="1.5" pointer-events="none"/>
                </g>
                <g id="dirArrow">
                        <path fill="none" stroke="white" stroke-width="1.5" d="M0,-3.0v7 M-2.5,-0.5L0,-3.0L2.5,-0.5"/>
                </g>
               <g id="resetDef">
                       <use xlink:href="#rim2" fill="#404040">
                               <set attributeName="fill" to="#808080" begin="reset.mouseover" end="reset.mouseout"/>
                       </use>
               </g>
        </defs>

<script type="text/javascript">
var viewWidth = 2254;
var viewHeight = 229;
var sectionId = 'dynsection-0';
</script>
<script xlink:href="../../svgpan.js"/>
<svg id="graph" class="graph">
<g id="viewport">
<title>src/libs/vwidgets/group_tablewidgetitem.cpp</title>
<polygon fill="white" stroke="transparent" points="-4,4 -4,-225 2249.5,-225 2249.5,4 -4,4"/>
<!-- Node1 -->
<g id="node1" class="node">
<title>Node1</title>
<g id="a_node1"><a xlink:title=" ">
<polygon fill="#bfbfbf" stroke="black" points="859,-190.5 859,-220.5 988,-220.5 988,-190.5 859,-190.5"/>
<text text-anchor="start" x="867" y="-208.5" font-family="Helvetica,sans-Serif" font-size="10.00">src/libs/vwidgets/group</text>
<text text-anchor="middle" x="923.5" y="-197.5" font-family="Helvetica,sans-Serif" font-size="10.00">_tablewidgetitem.cpp</text>
</a>
</g>
</g>
<!-- Node2 -->
<g id="node2" class="node">
<title>Node2</title>
<g id="a_node2"><a xlink:href="../../de/d4a/group__tablewidgetitem_8h.html" target="_top" xlink:title=" ">
<polygon fill="white" stroke="black" points="772,-134.5 772,-153.5 911,-153.5 911,-134.5 772,-134.5"/>
<text text-anchor="middle" x="841.5" y="-141.5" font-family="Helvetica,sans-Serif" font-size="10.00">group_tablewidgetitem.h</text>
</a>
</g>
</g>
<!-- Node1&#45;&gt;Node2 -->
<g id="edge1" class="edge">
<title>Node1&#45;&gt;Node2</title>
<path fill="none" stroke="midnightblue" d="M904.07,-190.4C891.29,-181.13 874.61,-169.03 861.69,-159.65"/>
<polygon fill="midnightblue" stroke="midnightblue" points="863.58,-156.7 853.43,-153.66 859.47,-162.36 863.58,-156.7"/>
</g>
<!-- Node4 -->
<g id="node4" class="node">
<title>Node4</title>
<g id="a_node4"><a xlink:href="../../d0/d89/vabstractpattern_8h.html" target="_top" xlink:title=" ">
<polygon fill="white" stroke="black" points="1149.5,-134.5 1149.5,-153.5 1301.5,-153.5 1301.5,-134.5 1149.5,-134.5"/>
<text text-anchor="middle" x="1225.5" y="-141.5" font-family="Helvetica,sans-Serif" font-size="10.00">../ifc/xml/vabstractpattern.h</text>
</a>
</g>
</g>
<!-- Node1&#45;&gt;Node4 -->
<g id="edge3" class="edge">
<title>Node1&#45;&gt;Node4</title>
<path fill="none" stroke="midnightblue" d="M988.29,-191.74C1043.21,-180.92 1121.01,-165.59 1172.33,-155.48"/>
<polygon fill="midnightblue" stroke="midnightblue" points="1173.09,-158.89 1182.23,-153.53 1171.74,-152.02 1173.09,-158.89"/>
</g>
<!-- Node3 -->
<g id="node3" class="node">
<title>Node3</title>
<g id="a_node3"><a xlink:title=" ">
<polygon fill="white" stroke="#bfbfbf" points="548,-73 548,-92 655,-92 655,-73 548,-73"/>
<text text-anchor="middle" x="601.5" y="-80" font-family="Helvetica,sans-Serif" font-size="10.00">QTableWidgetItem</text>
</a>
</g>
</g>
<!-- Node2&#45;&gt;Node3 -->
<g id="edge2" class="edge">
<title>Node2&#45;&gt;Node3</title>
<path fill="none" stroke="midnightblue" d="M807.11,-134.48C764.61,-123.94 692.2,-105.99 645.63,-94.44"/>
<polygon fill="midnightblue" stroke="midnightblue" points="646.37,-91.02 635.82,-92.01 644.69,-97.81 646.37,-91.02"/>
</g>
<!-- Node5 -->
<g id="node5" class="node">
<title>Node5</title>
<g id="a_node5"><a xlink:title=" ">
<polygon fill="white" stroke="#bfbfbf" points="2125.5,-6 2125.5,-25 2245.5,-25 2245.5,-6 2125.5,-6"/>
<text text-anchor="middle" x="2185.5" y="-13" font-family="Helvetica,sans-Serif" font-size="10.00">qcompilerdetection.h</text>
</a>
</g>
</g>
<!-- Node4&#45;&gt;Node5 -->
<g id="edge4" class="edge">
<title>Node4&#45;&gt;Node5</title>
<path fill="none" stroke="midnightblue" d="M1301.89,-140.83C1415.97,-136.78 1637.38,-125.8 1823.5,-98 1941.67,-80.35 2078.64,-45.49 2145.13,-27.63"/>
<polygon fill="midnightblue" stroke="midnightblue" points="2146.06,-31 2154.8,-25.02 2144.23,-24.24 2146.06,-31"/>
</g>
<!-- Node6 -->
<g id="node6" class="node">
<title>Node6</title>
<g id="a_node6"><a xlink:title=" ">
<polygon fill="white" stroke="#bfbfbf" points="0,-6 0,-25 49,-25 49,-6 0,-6"/>
<text text-anchor="middle" x="24.5" y="-13" font-family="Helvetica,sans-Serif" font-size="10.00">QHash</text>
</a>
</g>
</g>
<!-- Node4&#45;&gt;Node6 -->
<g id="edge5" class="edge">
<title>Node4&#45;&gt;Node6</title>
<path fill="none" stroke="midnightblue" d="M1149.25,-141.82C1024.24,-138.99 781.67,-129.5 702.5,-98 681.93,-89.81 684.18,-74.91 663.5,-67 537.51,-18.79 188.64,-62.63 57.5,-31 55.14,-30.43 52.74,-29.7 50.36,-28.87"/>
<polygon fill="midnightblue" stroke="midnightblue" points="51.47,-25.55 40.89,-25.07 48.86,-32.04 51.47,-25.55"/>
</g>
<!-- Node7 -->
<g id="node7" class="node">
<title>Node7</title>
<g id="a_node7"><a xlink:title=" ">
<polygon fill="white" stroke="#bfbfbf" points="1273,-73 1273,-92 1318,-92 1318,-73 1273,-73"/>
<text text-anchor="middle" x="1295.5" y="-80" font-family="Helvetica,sans-Serif" font-size="10.00">QMap</text>
</a>
</g>
</g>
<!-- Node4&#45;&gt;Node7 -->
<g id="edge6" class="edge">
<title>Node4&#45;&gt;Node7</title>
<path fill="none" stroke="midnightblue" d="M1235.53,-134.48C1246.55,-125.11 1264.46,-109.88 1277.84,-98.51"/>
<polygon fill="midnightblue" stroke="midnightblue" points="1280.14,-101.15 1285.49,-92.01 1275.6,-95.82 1280.14,-101.15"/>
</g>
<!-- Node8 -->
<g id="node8" class="node">
<title>Node8</title>
<g id="a_node8"><a xlink:title=" ">
<polygon fill="white" stroke="#bfbfbf" points="1275.5,-6 1275.5,-25 1355.5,-25 1355.5,-6 1275.5,-6"/>
<text text-anchor="middle" x="1315.5" y="-13" font-family="Helvetica,sans-Serif" font-size="10.00">QMetaObject</text>
</a>
</g>
</g>
<!-- Node4&#45;&gt;Node8 -->
<g id="edge7" class="edge">
<title>Node4&#45;&gt;Node8</title>
<path fill="none" stroke="midnightblue" d="M1223.62,-134.25C1220.9,-119.24 1217.5,-88.19 1230.5,-67 1241.33,-49.35 1260.83,-37.12 1278.43,-29.12"/>
<polygon fill="midnightblue" stroke="midnightblue" points="1280.09,-32.22 1287.94,-25.1 1277.36,-25.77 1280.09,-32.22"/>
</g>
<!-- Node9 -->
<g id="node9" class="node">
<title>Node9</title>
<g id="a_node9"><a xlink:title=" ">
<polygon fill="white" stroke="#bfbfbf" points="1336.5,-73 1336.5,-92 1392.5,-92 1392.5,-73 1336.5,-73"/>
<text text-anchor="middle" x="1364.5" y="-80" font-family="Helvetica,sans-Serif" font-size="10.00">QObject</text>
</a>
</g>
</g>
<!-- Node4&#45;&gt;Node9 -->
<g id="edge8" class="edge">
<title>Node4&#45;&gt;Node9</title>
<path fill="none" stroke="midnightblue" d="M1245.42,-134.48C1268.95,-124.4 1308.31,-107.55 1335.29,-96"/>
<polygon fill="midnightblue" stroke="midnightblue" points="1336.81,-99.16 1344.62,-92.01 1334.05,-92.73 1336.81,-99.16"/>
</g>
<!-- Node10 -->
<g id="node10" class="node">
<title>Node10</title>
<g id="a_node10"><a xlink:title=" ">
<polygon fill="white" stroke="#bfbfbf" points="1410.5,-73 1410.5,-92 1452.5,-92 1452.5,-73 1410.5,-73"/>
<text text-anchor="middle" x="1431.5" y="-80" font-family="Helvetica,sans-Serif" font-size="10.00">QPair</text>
</a>
</g>
</g>
<!-- Node4&#45;&gt;Node10 -->
<g id="edge9" class="edge">
<title>Node4&#45;&gt;Node10</title>
<path fill="none" stroke="midnightblue" d="M1268.91,-134.44C1304.98,-126.72 1357.36,-114.13 1401.5,-98 1402.93,-97.48 1404.38,-96.91 1405.83,-96.31"/>
<polygon fill="midnightblue" stroke="midnightblue" points="1407.56,-99.37 1415.25,-92.08 1404.7,-92.99 1407.56,-99.37"/>
</g>
<!-- Node11 -->
<g id="node11" class="node">
<title>Node11</title>
<g id="a_node11"><a xlink:title=" ">
<polygon fill="white" stroke="#bfbfbf" points="1104,-6 1104,-25 1157,-25 1157,-6 1104,-6"/>
<text text-anchor="middle" x="1130.5" y="-13" font-family="Helvetica,sans-Serif" font-size="10.00">QString</text>
</a>
</g>
</g>
<!-- Node4&#45;&gt;Node11 -->
<g id="edge10" class="edge">
<title>Node4&#45;&gt;Node11</title>
<path fill="none" stroke="midnightblue" d="M1217.17,-134.33C1208.82,-125.49 1195.76,-111.21 1185.5,-98 1169.05,-76.81 1152.07,-50.92 1141.41,-34.09"/>
<polygon fill="midnightblue" stroke="midnightblue" points="1144.19,-31.94 1135.91,-25.33 1138.26,-35.66 1144.19,-31.94"/>
</g>
<!-- Node12 -->
<g id="node12" class="node">
<title>Node12</title>
<g id="a_node12"><a xlink:title=" ">
<polygon fill="white" stroke="#bfbfbf" points="1470.5,-73 1470.5,-92 1540.5,-92 1540.5,-73 1470.5,-73"/>
<text text-anchor="middle" x="1505.5" y="-80" font-family="Helvetica,sans-Serif" font-size="10.00">QStringList</text>
</a>
</g>
</g>
<!-- Node4&#45;&gt;Node12 -->
<g id="edge11" class="edge">
<title>Node4&#45;&gt;Node12</title>
<path fill="none" stroke="midnightblue" d="M1281.27,-134.47C1329.38,-126.61 1400.53,-113.79 1461.5,-98 1464.87,-97.13 1468.36,-96.13 1471.84,-95.09"/>
<polygon fill="midnightblue" stroke="midnightblue" points="1472.98,-98.4 1481.46,-92.05 1470.87,-91.72 1472.98,-98.4"/>
</g>
<!-- Node13 -->
<g id="node13" class="node">
<title>Node13</title>
<g id="a_node13"><a xlink:title=" ">
<polygon fill="white" stroke="#bfbfbf" points="1374,-6 1374,-25 1429,-25 1429,-6 1374,-6"/>
<text text-anchor="middle" x="1401.5" y="-13" font-family="Helvetica,sans-Serif" font-size="10.00">QVector</text>
</a>
</g>
</g>
<!-- Node4&#45;&gt;Node13 -->
<g id="edge12" class="edge">
<title>Node4&#45;&gt;Node13</title>
<path fill="none" stroke="midnightblue" d="M1227.65,-134.41C1231.99,-118.8 1243.23,-85.7 1264.5,-67 1299.98,-35.81 1320.28,-47.62 1364.5,-31 1366.39,-30.29 1368.33,-29.55 1370.28,-28.8"/>
<polygon fill="midnightblue" stroke="midnightblue" points="1371.96,-31.91 1380.02,-25.04 1369.43,-25.38 1371.96,-31.91"/>
</g>
<!-- Node14 -->
<g id="node14" class="node">
<title>Node14</title>
<g id="a_node14"><a xlink:title=" ">
<polygon fill="white" stroke="#bfbfbf" points="1027,-6 1027,-25 1086,-25 1086,-6 1027,-6"/>
<text text-anchor="middle" x="1056.5" y="-13" font-family="Helvetica,sans-Serif" font-size="10.00">QtGlobal</text>
</a>
</g>
</g>
<!-- Node4&#45;&gt;Node14 -->
<g id="edge13" class="edge">
<title>Node4&#45;&gt;Node14</title>
<path fill="none" stroke="midnightblue" d="M1149.47,-137.01C1095.2,-130.97 1028.85,-119.37 1011.5,-98 994.57,-77.14 1018.61,-49 1037.54,-31.83"/>
<polygon fill="midnightblue" stroke="midnightblue" points="1039.94,-34.39 1045.21,-25.2 1035.36,-29.1 1039.94,-34.39"/>
</g>
<!-- Node15 -->
<g id="node15" class="node">
<title>Node15</title>
<g id="a_node15"><a xlink:href="../../d8/da5/vdomdocument_8h.html" target="_top" xlink:title=" ">
<polygon fill="white" stroke="black" points="711.5,-73 711.5,-92 813.5,-92 813.5,-73 711.5,-73"/>
<text text-anchor="middle" x="762.5" y="-80" font-family="Helvetica,sans-Serif" font-size="10.00">vdomdocument.h</text>
</a>
</g>
</g>
<!-- Node4&#45;&gt;Node15 -->
<g id="edge14" class="edge">
<title>Node4&#45;&gt;Node15</title>
<path fill="none" stroke="midnightblue" d="M1159.16,-134.48C1069.45,-122.95 910.68,-102.54 823.7,-91.36"/>
<polygon fill="midnightblue" stroke="midnightblue" points="824.07,-87.88 813.71,-90.08 823.18,-94.83 824.07,-87.88"/>
</g>
<!-- Node23 -->
<g id="node23" class="node">
<title>Node23</title>
<g id="a_node23"><a xlink:title=" ">
<polygon fill="white" stroke="#bfbfbf" points="1175.5,-6 1175.5,-25 1257.5,-25 1257.5,-6 1175.5,-6"/>
<text text-anchor="middle" x="1216.5" y="-13" font-family="Helvetica,sans-Serif" font-size="10.00">../vmisc/def.h</text>
</a>
</g>
</g>
<!-- Node4&#45;&gt;Node23 -->
<g id="edge32" class="edge">
<title>Node4&#45;&gt;Node23</title>
<path fill="none" stroke="midnightblue" d="M1216.48,-134.34C1208.43,-125.93 1197.2,-112.36 1192.5,-98 1185.29,-75.97 1195.98,-50.27 1205.3,-33.71"/>
<polygon fill="midnightblue" stroke="midnightblue" points="1208.32,-35.49 1210.49,-25.12 1202.33,-31.87 1208.32,-35.49"/>
</g>
<!-- Node26 -->
<g id="node26" class="node">
<title>Node26</title>
<g id="a_node26"><a xlink:href="../../d9/d47/vtoolrecord_8h.html" target="_top" xlink:title=" ">
<polygon fill="white" stroke="black" points="1021,-73 1021,-92 1102,-92 1102,-73 1021,-73"/>
<text text-anchor="middle" x="1061.5" y="-80" font-family="Helvetica,sans-Serif" font-size="10.00">vtoolrecord.h</text>
</a>
</g>
</g>
<!-- Node4&#45;&gt;Node26 -->
<g id="edge28" class="edge">
<title>Node4&#45;&gt;Node26</title>
<path fill="none" stroke="midnightblue" d="M1202,-134.48C1173.87,-124.27 1126.57,-107.11 1094.71,-95.55"/>
<polygon fill="midnightblue" stroke="midnightblue" points="1095.55,-92.13 1084.95,-92.01 1093.16,-98.71 1095.55,-92.13"/>
</g>
<!-- Node27 -->
<g id="node27" class="node">
<title>Node27</title>
<g id="a_node27"><a xlink:title=" ">
<polygon fill="white" stroke="#bfbfbf" points="1559,-73 1559,-92 1698,-92 1698,-73 1559,-73"/>
<text text-anchor="middle" x="1628.5" y="-80" font-family="Helvetica,sans-Serif" font-size="10.00">../vwidgets/pen_toolbar.h</text>
</a>
</g>
</g>
<!-- Node4&#45;&gt;Node27 -->
<g id="edge33" class="edge">
<title>Node4&#45;&gt;Node27</title>
<path fill="none" stroke="midnightblue" d="M1293.27,-134.46C1358.91,-125.98 1461.19,-112.23 1549.5,-98 1557.43,-96.72 1565.79,-95.29 1573.98,-93.83"/>
<polygon fill="midnightblue" stroke="midnightblue" points="1574.64,-97.27 1583.85,-92.04 1573.39,-90.38 1574.64,-97.27"/>
</g>
<!-- Node28 -->
<g id="node28" class="node">
<title>Node28</title>
<g id="a_node28"><a xlink:href="../../d1/d8d/image__item_8h.html" target="_top" xlink:title=" ">
<polygon fill="white" stroke="black" points="1716.5,-67.5 1716.5,-97.5 1814.5,-97.5 1814.5,-67.5 1716.5,-67.5"/>
<text text-anchor="start" x="1724.5" y="-85.5" font-family="Helvetica,sans-Serif" font-size="10.00">../../tools/images</text>
<text text-anchor="middle" x="1765.5" y="-74.5" font-family="Helvetica,sans-Serif" font-size="10.00">/image_item.h</text>
</a>
</g>
</g>
<!-- Node4&#45;&gt;Node28 -->
<g id="edge34" class="edge">
<title>Node4&#45;&gt;Node28</title>
<path fill="none" stroke="midnightblue" d="M1301.52,-139.48C1394.75,-134.36 1557.69,-122.82 1706.04,-98.08"/>
<polygon fill="midnightblue" stroke="midnightblue" points="1706.97,-101.47 1716.25,-96.35 1705.8,-94.57 1706.97,-101.47"/>
</g>
<!-- Node15&#45;&gt;Node6 -->
<g id="edge19" class="edge">
<title>Node15&#45;&gt;Node6</title>
<path fill="none" stroke="midnightblue" d="M729.29,-73C719.15,-70.7 707.92,-68.45 697.5,-67 415.31,-27.86 334.56,-97.36 57.5,-31 55.14,-30.43 52.73,-29.71 50.35,-28.88"/>
<polygon fill="midnightblue" stroke="midnightblue" points="51.47,-25.56 40.88,-25.08 48.86,-32.05 51.47,-25.56"/>
</g>
<!-- Node15&#45;&gt;Node11 -->
<g id="edge21" class="edge">
<title>Node15&#45;&gt;Node11</title>
<path fill="none" stroke="midnightblue" d="M813.6,-77.43C879.46,-71.35 997.07,-57.64 1094.5,-31 1097,-30.32 1099.57,-29.51 1102.12,-28.63"/>
<polygon fill="midnightblue" stroke="midnightblue" points="1103.6,-31.81 1111.73,-25.02 1101.13,-25.26 1103.6,-31.81"/>
</g>
<!-- Node15&#45;&gt;Node14 -->
<g id="edge22" class="edge">
<title>Node15&#45;&gt;Node14</title>
<path fill="none" stroke="midnightblue" d="M813.87,-73.82C865.78,-65.47 948.02,-50.66 1017.5,-31 1020.15,-30.25 1022.87,-29.4 1025.58,-28.51"/>
<polygon fill="midnightblue" stroke="midnightblue" points="1026.98,-31.73 1035.25,-25.1 1024.65,-25.12 1026.98,-31.73"/>
</g>
<!-- Node16 -->
<g id="node16" class="node">
<title>Node16</title>
<g id="a_node16"><a xlink:title=" ">
<polygon fill="white" stroke="#bfbfbf" points="594,-6 594,-25 695,-25 695,-6 594,-6"/>
<text text-anchor="middle" x="644.5" y="-13" font-family="Helvetica,sans-Serif" font-size="10.00">QCoreApplication</text>
</a>
</g>
</g>
<!-- Node15&#45;&gt;Node16 -->
<g id="edge15" class="edge">
<title>Node15&#45;&gt;Node16</title>
<path fill="none" stroke="midnightblue" d="M746.59,-72.73C726.68,-61.77 692.39,-42.88 669.1,-30.05"/>
<polygon fill="midnightblue" stroke="midnightblue" points="670.61,-26.89 660.16,-25.13 667.23,-33.02 670.61,-26.89"/>
</g>
<!-- Node17 -->
<g id="node17" class="node">
<title>Node17</title>
<g id="a_node17"><a xlink:title=" ">
<polygon fill="white" stroke="#bfbfbf" points="713.5,-6 713.5,-25 811.5,-25 811.5,-6 713.5,-6"/>
<text text-anchor="middle" x="762.5" y="-13" font-family="Helvetica,sans-Serif" font-size="10.00">QDomDocument</text>
</a>
</g>
</g>
<!-- Node15&#45;&gt;Node17 -->
<g id="edge16" class="edge">
<title>Node15&#45;&gt;Node17</title>
<path fill="none" stroke="midnightblue" d="M762.5,-72.73C762.5,-63.18 762.5,-47.62 762.5,-35.28"/>
<polygon fill="midnightblue" stroke="midnightblue" points="766,-35.13 762.5,-25.13 759,-35.13 766,-35.13"/>
</g>
<!-- Node18 -->
<g id="node18" class="node">
<title>Node18</title>
<g id="a_node18"><a xlink:title=" ">
<polygon fill="white" stroke="#bfbfbf" points="829.5,-6 829.5,-25 917.5,-25 917.5,-6 829.5,-6"/>
<text text-anchor="middle" x="873.5" y="-13" font-family="Helvetica,sans-Serif" font-size="10.00">QDomElement</text>
</a>
</g>
</g>
<!-- Node15&#45;&gt;Node18 -->
<g id="edge17" class="edge">
<title>Node15&#45;&gt;Node18</title>
<path fill="none" stroke="midnightblue" d="M777.47,-72.73C796.11,-61.82 828.16,-43.05 850.07,-30.22"/>
<polygon fill="midnightblue" stroke="midnightblue" points="851.91,-33.2 858.77,-25.13 848.37,-27.16 851.91,-33.2"/>
</g>
<!-- Node19 -->
<g id="node19" class="node">
<title>Node19</title>
<g id="a_node19"><a xlink:title=" ">
<polygon fill="white" stroke="#bfbfbf" points="936,-6 936,-25 1009,-25 1009,-6 936,-6"/>
<text text-anchor="middle" x="972.5" y="-13" font-family="Helvetica,sans-Serif" font-size="10.00">QDomNode</text>
</a>
</g>
</g>
<!-- Node15&#45;&gt;Node19 -->
<g id="edge18" class="edge">
<title>Node15&#45;&gt;Node19</title>
<path fill="none" stroke="midnightblue" d="M790.37,-72.98C823.02,-62.98 878.72,-45.89 926.5,-31 929.44,-30.08 932.49,-29.13 935.55,-28.17"/>
<polygon fill="midnightblue" stroke="midnightblue" points="936.78,-31.45 945.27,-25.12 934.68,-24.78 936.78,-31.45"/>
</g>
<!-- Node20 -->
<g id="node20" class="node">
<title>Node20</title>
<g id="a_node20"><a xlink:title=" ">
<polygon fill="white" stroke="#bfbfbf" points="67,-6 67,-25 150,-25 150,-6 67,-6"/>
<text text-anchor="middle" x="108.5" y="-13" font-family="Helvetica,sans-Serif" font-size="10.00">QLatin1String</text>
</a>
</g>
</g>
<!-- Node15&#45;&gt;Node20 -->
<g id="edge20" class="edge">
<title>Node15&#45;&gt;Node20</title>
<path fill="none" stroke="midnightblue" d="M728.94,-72.99C718.89,-70.72 707.8,-68.48 697.5,-67 460.31,-32.81 395.61,-71.99 159.5,-31 154.6,-30.15 149.5,-29.01 144.49,-27.75"/>
<polygon fill="midnightblue" stroke="midnightblue" points="145.03,-24.27 134.46,-25.02 143.2,-31.02 145.03,-24.27"/>
</g>
<!-- Node21 -->
<g id="node21" class="node">
<title>Node21</title>
<g id="a_node21"><a xlink:title=" ">
<polygon fill="white" stroke="#bfbfbf" points="168.5,-6 168.5,-25 224.5,-25 224.5,-6 168.5,-6"/>
<text text-anchor="middle" x="196.5" y="-13" font-family="Helvetica,sans-Serif" font-size="10.00">QLocale</text>
</a>
</g>
</g>
<!-- Node15&#45;&gt;Node21 -->
<g id="edge23" class="edge">
<title>Node15&#45;&gt;Node21</title>
<path fill="none" stroke="midnightblue" d="M728.6,-72.98C718.63,-70.74 707.68,-68.52 697.5,-67 492.93,-36.41 435.11,-77.24 233.5,-31 230.66,-30.35 227.76,-29.52 224.88,-28.59"/>
<polygon fill="midnightblue" stroke="midnightblue" points="225.96,-25.25 215.36,-25.13 223.57,-31.83 225.96,-25.25"/>
</g>
<!-- Node22 -->
<g id="node22" class="node">
<title>Node22</title>
<g id="a_node22"><a xlink:title=" ">
<polygon fill="white" stroke="#bfbfbf" points="243,-6 243,-25 320,-25 320,-6 243,-6"/>
<text text-anchor="middle" x="281.5" y="-13" font-family="Helvetica,sans-Serif" font-size="10.00">../ifc/ifcdef.h</text>
</a>
</g>
</g>
<!-- Node15&#45;&gt;Node22 -->
<g id="edge24" class="edge">
<title>Node15&#45;&gt;Node22</title>
<path fill="none" stroke="midnightblue" d="M727.91,-72.96C718.12,-70.77 707.43,-68.59 697.5,-67 534.78,-41.01 490.05,-63.45 328.5,-31 324.36,-30.17 320.06,-29.11 315.82,-27.96"/>
<polygon fill="midnightblue" stroke="midnightblue" points="316.72,-24.58 306.14,-25.13 314.75,-31.29 316.72,-24.58"/>
</g>
<!-- Node15&#45;&gt;Node23 -->
<g id="edge25" class="edge">
<title>Node15&#45;&gt;Node23</title>
<path fill="none" stroke="midnightblue" d="M813.8,-77.59C890.76,-71.16 1040.44,-56.46 1165.5,-31 1170.04,-30.08 1174.76,-28.96 1179.42,-27.75"/>
<polygon fill="midnightblue" stroke="midnightblue" points="1180.7,-31.03 1189.43,-25.03 1178.86,-24.28 1180.7,-31.03"/>
</g>
<!-- Node24 -->
<g id="node24" class="node">
<title>Node24</title>
<g id="a_node24"><a xlink:title=" ">
<polygon fill="white" stroke="#bfbfbf" points="338,-6 338,-25 455,-25 455,-6 338,-6"/>
<text text-anchor="middle" x="396.5" y="-13" font-family="Helvetica,sans-Serif" font-size="10.00">../vmisc/diagnostic.h</text>
</a>
</g>
</g>
<!-- Node15&#45;&gt;Node24 -->
<g id="edge26" class="edge">
<title>Node15&#45;&gt;Node24</title>
<path fill="none" stroke="midnightblue" d="M726.15,-72.94C716.83,-70.87 706.82,-68.75 697.5,-67 594.09,-47.53 566.97,-50.14 463.5,-31 457.2,-29.84 450.59,-28.52 444.08,-27.17"/>
<polygon fill="midnightblue" stroke="midnightblue" points="444.49,-23.68 433.98,-25.03 443.04,-30.53 444.49,-23.68"/>
</g>
<!-- Node25 -->
<g id="node25" class="node">
<title>Node25</title>
<g id="a_node25"><a xlink:title=" ">
<polygon fill="white" stroke="#bfbfbf" points="473,-6 473,-25 576,-25 576,-6 473,-6"/>
<text text-anchor="middle" x="524.5" y="-13" font-family="Helvetica,sans-Serif" font-size="10.00">../vmisc/logging.h</text>
</a>
</g>
</g>
<!-- Node15&#45;&gt;Node25 -->
<g id="edge27" class="edge">
<title>Node15&#45;&gt;Node25</title>
<path fill="none" stroke="midnightblue" d="M730.9,-72.87C688.37,-61.25 612.65,-40.58 565.7,-27.75"/>
<polygon fill="midnightblue" stroke="midnightblue" points="566.43,-24.32 555.86,-25.06 564.58,-31.07 566.43,-24.32"/>
</g>
<!-- Node26&#45;&gt;Node11 -->
<g id="edge29" class="edge">
<title>Node26&#45;&gt;Node11</title>
<path fill="none" stroke="midnightblue" d="M1070.81,-72.73C1081.77,-62.4 1100.21,-45.04 1113.69,-32.33"/>
<polygon fill="midnightblue" stroke="midnightblue" points="1116.46,-34.53 1121.34,-25.13 1111.66,-29.44 1116.46,-34.53"/>
</g>
<!-- Node26&#45;&gt;Node14 -->
<g id="edge30" class="edge">
<title>Node26&#45;&gt;Node14</title>
<path fill="none" stroke="midnightblue" d="M1060.83,-72.73C1060.09,-63.18 1058.89,-47.62 1057.94,-35.28"/>
<polygon fill="midnightblue" stroke="midnightblue" points="1061.42,-34.83 1057.16,-25.13 1054.44,-35.37 1061.42,-34.83"/>
</g>
<!-- Node26&#45;&gt;Node23 -->
<g id="edge31" class="edge">
<title>Node26&#45;&gt;Node23</title>
<path fill="none" stroke="midnightblue" d="M1082.08,-72.87C1108.83,-61.65 1155.75,-41.98 1186.47,-29.09"/>
<polygon fill="midnightblue" stroke="midnightblue" points="1187.96,-32.26 1195.83,-25.17 1185.26,-25.81 1187.96,-32.26"/>
</g>
<!-- Node28&#45;&gt;Node5 -->
<g id="edge35" class="edge">
<title>Node28&#45;&gt;Node5</title>
<path fill="none" stroke="midnightblue" d="M1814.78,-75.42C1882.84,-66.8 2009.35,-49.95 2116.5,-31 2123.14,-29.83 2130.12,-28.49 2136.98,-27.1"/>
<polygon fill="midnightblue" stroke="midnightblue" points="2137.81,-30.51 2146.9,-25.07 2136.4,-23.65 2137.81,-30.51"/>
</g>
<!-- Node28&#45;&gt;Node8 -->
<g id="edge39" class="edge">
<title>Node28&#45;&gt;Node8</title>
<path fill="none" stroke="midnightblue" d="M1716.24,-68.69C1713.29,-68.07 1710.36,-67.51 1707.5,-67 1556.99,-40.4 1515.49,-60.4 1365.5,-31 1360.99,-30.12 1356.29,-29.01 1351.67,-27.81"/>
<polygon fill="midnightblue" stroke="midnightblue" points="1352.32,-24.36 1341.75,-25.06 1350.46,-31.1 1352.32,-24.36"/>
</g>
<!-- Node28&#45;&gt;Node11 -->
<g id="edge41" class="edge">
<title>Node28&#45;&gt;Node11</title>
<path fill="none" stroke="midnightblue" d="M1716.26,-68.55C1713.31,-67.98 1710.37,-67.45 1707.5,-67 1469.44,-29.63 1401.42,-84.69 1166.5,-31 1163.67,-30.35 1160.77,-29.51 1157.9,-28.56"/>
<polygon fill="midnightblue" stroke="midnightblue" points="1159.05,-25.25 1148.45,-25.03 1156.59,-31.81 1159.05,-25.25"/>
</g>
<!-- Node28&#45;&gt;Node13 -->
<g id="edge43" class="edge">
<title>Node28&#45;&gt;Node13</title>
<path fill="none" stroke="midnightblue" d="M1716.22,-68.78C1713.28,-68.15 1710.35,-67.55 1707.5,-67 1589.03,-44.34 1555.27,-61.22 1438.5,-31 1435.84,-30.31 1433.11,-29.48 1430.39,-28.58"/>
<polygon fill="midnightblue" stroke="midnightblue" points="1431.39,-25.22 1420.8,-25.07 1428.99,-31.79 1431.39,-25.22"/>
</g>
<!-- Node28&#45;&gt;Node23 -->
<g id="edge36" class="edge">
<title>Node28&#45;&gt;Node23</title>
<path fill="none" stroke="midnightblue" d="M1716.25,-68.61C1713.3,-68.01 1710.37,-67.47 1707.5,-67 1513.46,-35.05 1459.91,-66.57 1266.5,-31 1261.75,-30.13 1256.8,-28.99 1251.95,-27.73"/>
<polygon fill="midnightblue" stroke="midnightblue" points="1252.79,-24.33 1242.21,-25.03 1250.92,-31.07 1252.79,-24.33"/>
</g>
<!-- Node29 -->
<g id="node29" class="node">
<title>Node29</title>
<g id="a_node29"><a xlink:title=" ">
<polygon fill="white" stroke="#bfbfbf" points="2005.5,-0.5 2005.5,-30.5 2107.5,-30.5 2107.5,-0.5 2005.5,-0.5"/>
<text text-anchor="start" x="2013.5" y="-18.5" font-family="Helvetica,sans-Serif" font-size="10.00">../vwidgets/resize</text>
<text text-anchor="middle" x="2056.5" y="-7.5" font-family="Helvetica,sans-Serif" font-size="10.00">_handle.h</text>
</a>
</g>
</g>
<!-- Node28&#45;&gt;Node29 -->
<g id="edge37" class="edge">
<title>Node28&#45;&gt;Node29</title>
<path fill="none" stroke="midnightblue" d="M1814.92,-71.14C1859.74,-61.66 1927.89,-47.01 1995.4,-31.46"/>
<polygon fill="midnightblue" stroke="midnightblue" points="1996.4,-34.82 2005.35,-29.16 1994.82,-28 1996.4,-34.82"/>
</g>
<!-- Node30 -->
<g id="node30" class="node">
<title>Node30</title>
<g id="a_node30"><a xlink:title=" ">
<polygon fill="white" stroke="#bfbfbf" points="1447,-6 1447,-25 1614,-25 1614,-6 1447,-6"/>
<text text-anchor="middle" x="1530.5" y="-13" font-family="Helvetica,sans-Serif" font-size="10.00">../vmisc/vabstractapplication.h</text>
</a>
</g>
</g>
<!-- Node28&#45;&gt;Node30 -->
<g id="edge38" class="edge">
<title>Node28&#45;&gt;Node30</title>
<path fill="none" stroke="midnightblue" d="M1716.24,-67.87C1673.18,-55.97 1611.42,-38.88 1571.14,-27.74"/>
<polygon fill="midnightblue" stroke="midnightblue" points="1571.96,-24.34 1561.39,-25.04 1570.09,-31.08 1571.96,-24.34"/>
</g>
<!-- Node31 -->
<g id="node31" class="node">
<title>Node31</title>
<g id="a_node31"><a xlink:title=" ">
<polygon fill="white" stroke="#bfbfbf" points="1632,-6 1632,-25 1687,-25 1687,-6 1632,-6"/>
<text text-anchor="middle" x="1659.5" y="-13" font-family="Helvetica,sans-Serif" font-size="10.00">QPointF</text>
</a>
</g>
</g>
<!-- Node28&#45;&gt;Node31 -->
<g id="edge40" class="edge">
<title>Node28&#45;&gt;Node31</title>
<path fill="none" stroke="midnightblue" d="M1742.5,-67.4C1724.56,-56.39 1699.78,-41.2 1681.98,-30.28"/>
<polygon fill="midnightblue" stroke="midnightblue" points="1683.73,-27.25 1673.37,-25.01 1680.07,-33.22 1683.73,-27.25"/>
</g>
<!-- Node32 -->
<g id="node32" class="node">
<title>Node32</title>
<g id="a_node32"><a xlink:title=" ">
<polygon fill="white" stroke="#bfbfbf" points="1705,-6 1705,-25 1764,-25 1764,-6 1705,-6"/>
<text text-anchor="middle" x="1734.5" y="-13" font-family="Helvetica,sans-Serif" font-size="10.00">QVariant</text>
</a>
</g>
</g>
<!-- Node28&#45;&gt;Node32 -->
<g id="edge42" class="edge">
<title>Node28&#45;&gt;Node32</title>
<path fill="none" stroke="midnightblue" d="M1758.77,-67.4C1754.18,-57.76 1748.05,-44.91 1743.1,-34.54"/>
<polygon fill="midnightblue" stroke="midnightblue" points="1746.11,-32.71 1738.65,-25.19 1739.79,-35.73 1746.11,-32.71"/>
</g>
<!-- Node33 -->
<g id="node33" class="node">
<title>Node33</title>
<g id="a_node33"><a xlink:title=" ">
<polygon fill="white" stroke="#bfbfbf" points="1782.5,-6 1782.5,-25 1880.5,-25 1880.5,-6 1782.5,-6"/>
<text text-anchor="middle" x="1831.5" y="-13" font-family="Helvetica,sans-Serif" font-size="10.00">QtCore/qglobal.h</text>
</a>
</g>
</g>
<!-- Node28&#45;&gt;Node33 -->
<g id="edge44" class="edge">
<title>Node28&#45;&gt;Node33</title>
<path fill="none" stroke="midnightblue" d="M1779.82,-67.4C1790.32,-57.06 1804.57,-43.02 1815.45,-32.31"/>
<polygon fill="midnightblue" stroke="midnightblue" points="1818,-34.71 1822.67,-25.19 1813.09,-29.72 1818,-34.71"/>
</g>
<!-- Node34 -->
<g id="node34" class="node">
<title>Node34</title>
<g id="a_node34"><a xlink:title=" ">
<polygon fill="white" stroke="#bfbfbf" points="1899,-6 1899,-25 1988,-25 1988,-6 1899,-6"/>
<text text-anchor="middle" x="1943.5" y="-13" font-family="Helvetica,sans-Serif" font-size="10.00">QGraphicsItem</text>
</a>
</g>
</g>
<!-- Node28&#45;&gt;Node34 -->
<g id="edge45" class="edge">
<title>Node28&#45;&gt;Node34</title>
<path fill="none" stroke="midnightblue" d="M1804.12,-67.4C1835.91,-55.79 1880.48,-39.51 1910.59,-28.52"/>
<polygon fill="midnightblue" stroke="midnightblue" points="1912.01,-31.72 1920.2,-25.01 1909.61,-25.15 1912.01,-31.72"/>
</g>
</g>
</svg>
        <g id="navigator" transform="translate(0 0)" fill="#404254">
                <rect fill="#f2f5e9" fill-opacity="0.5" stroke="#606060" stroke-width=".5" x="0" y="0" width="60" height="60"/>
                <use id="zoomplus" xlink:href="#zoomPlus" x="17" y="9" onmousedown="handleZoom(evt,'in')"/>
                <use id="zoomminus" xlink:href="#zoomMin" x="42" y="9" onmousedown="handleZoom(evt,'out')"/>
                <use id="reset" xlink:href="#resetDef" x="30" y="36" onmousedown="handleReset()"/>
                <g id="arrowUp" xlink:href="#dirArrow" transform="translate(30 24)" onmousedown="handlePan(0,-1)">
                  <use xlink:href="#rim" fill="#404040">
                        <set attributeName="fill" to="#808080" begin="arrowUp.mouseover" end="arrowUp.mouseout"/>
                  </use>
                  <path fill="none" stroke="white" stroke-width="1.5" d="M0,-3.0v7 M-2.5,-0.5L0,-3.0L2.5,-0.5"/>
                </g>
                <g id="arrowRight" xlink:href="#dirArrow" transform="rotate(90) translate(36 -43)" onmousedown="handlePan(1,0)">
                  <use xlink:href="#rim" fill="#404040">
                        <set attributeName="fill" to="#808080" begin="arrowRight.mouseover" end="arrowRight.mouseout"/>
                  </use>
                  <path fill="none" stroke="white" stroke-width="1.5" d="M0,-3.0v7 M-2.5,-0.5L0,-3.0L2.5,-0.5"/>
                </g>
                <g id="arrowDown" xlink:href="#dirArrow" transform="rotate(180) translate(-30 -48)" onmousedown="handlePan(0,1)">
                  <use xlink:href="#rim" fill="#404040">
                        <set attributeName="fill" to="#808080" begin="arrowDown.mouseover" end="arrowDown.mouseout"/>
                  </use>
                  <path fill="none" stroke="white" stroke-width="1.5" d="M0,-3.0v7 M-2.5,-0.5L0,-3.0L2.5,-0.5"/>
                </g>
                <g id="arrowLeft" xlink:href="#dirArrow" transform="rotate(270) translate(-36 17)" onmousedown="handlePan(-1,0)">
                  <use xlink:href="#rim" fill="#404040">
                        <set attributeName="fill" to="#808080" begin="arrowLeft.mouseover" end="arrowLeft.mouseout"/>
                  </use>
                  <path fill="none" stroke="white" stroke-width="1.5" d="M0,-3.0v7 M-2.5,-0.5L0,-3.0L2.5,-0.5"/>
                </g>
        </g>
        <svg viewBox="0 0 15 15" width="100%" height="30px" preserveAspectRatio="xMaxYMin meet">
         <g id="arrow_out" transform="scale(0.3 0.3)">
          <a xlink:href="group__tablewidgetitem_8cpp__incl_org.svg" target="_base">
           <rect id="button" ry="5" rx="5" y="6" x="6" height="38" width="38"
                fill="#f2f5e9" fill-opacity="0.5" stroke="#606060" stroke-width="1.0"/>
           <path id="arrow"
             d="M 11.500037,31.436501 C 11.940474,20.09759 22.043105,11.32322 32.158766,21.979434 L 37.068811,17.246167 C 37.068811,17.246167 37.088388,32 37.088388,32 L 22.160133,31.978069 C 22.160133,31.978069 26.997745,27.140456 26.997745,27.140456 C 18.528582,18.264221 13.291696,25.230495 11.500037,31.436501 z"
             style="fill:#404040;"/>
          </a>
         </g>
        </svg>
</svg>
