<?xml version="1.0" encoding="UTF-8" standalone="no"?>
<!DOCTYPE svg PUBLIC "-//W3C//DTD SVG 1.1//EN"
 "http://www.w3.org/Graphics/SVG/1.1/DTD/svg11.dtd">
<!-- Generated by graphviz version 2.43.0 (0)
 -->
<!-- Title: src/libs/vlayout/vlayoutpiece.h Pages: 1 -->
<svg width="1312pt" height="140pt"
 viewBox="0.00 0.00 1311.50 140.00" xmlns="http://www.w3.org/2000/svg" xmlns:xlink="http://www.w3.org/1999/xlink">
<g id="graph0" class="graph" transform="scale(1 1) rotate(0) translate(4 136)">
<title>src/libs/vlayout/vlayoutpiece.h</title>
<polygon fill="white" stroke="transparent" points="-4,4 -4,-136 1307.5,-136 1307.5,4 -4,4"/>
<!-- Node1 -->
<g id="node1" class="node">
<title>Node1</title>
<g id="a_node1"><a xlink:title=" ">
<polygon fill="#bfbfbf" stroke="black" points="641,-112.5 641,-131.5 807,-131.5 807,-112.5 641,-112.5"/>
<text text-anchor="middle" x="724" y="-119.5" font-family="Helvetica,sans-Serif" font-size="10.00">src/libs/vlayout/vlayoutpiece.h</text>
</a>
</g>
</g>
<!-- Node2 -->
<g id="node2" class="node">
<title>Node2</title>
<g id="a_node2"><a xlink:href="../../dd/d66/vdxfengine_8cpp.html" target="_top" xlink:title=" ">
<polygon fill="white" stroke="black" points="0,-56.5 0,-75.5 154,-75.5 154,-56.5 0,-56.5"/>
<text text-anchor="middle" x="77" y="-63.5" font-family="Helvetica,sans-Serif" font-size="10.00">src/libs/vdxf/vdxfengine.cpp</text>
</a>
</g>
</g>
<!-- Node1&#45;&gt;Node2 -->
<g id="edge1" class="edge">
<title>Node1&#45;&gt;Node2</title>
<path fill="none" stroke="midnightblue" d="M630.58,-114.2C519.19,-105.94 327.4,-91.19 163,-76 160.16,-75.74 157.27,-75.46 154.35,-75.18"/>
<polygon fill="midnightblue" stroke="midnightblue" points="630.55,-117.71 640.78,-114.96 631.06,-110.73 630.55,-117.71"/>
</g>
<!-- Node3 -->
<g id="node3" class="node">
<title>Node3</title>
<g id="a_node3"><a xlink:href="../../df/d5d/vcontour_8cpp.html" target="_top" xlink:title=" ">
<polygon fill="white" stroke="black" points="172,-56.5 172,-75.5 328,-75.5 328,-56.5 172,-56.5"/>
<text text-anchor="middle" x="250" y="-63.5" font-family="Helvetica,sans-Serif" font-size="10.00">src/libs/vlayout/vcontour.cpp</text>
</a>
</g>
</g>
<!-- Node1&#45;&gt;Node3 -->
<g id="edge2" class="edge">
<title>Node1&#45;&gt;Node3</title>
<path fill="none" stroke="midnightblue" d="M639.05,-111.32C549.63,-101.14 410.25,-85.26 324.84,-75.53"/>
<polygon fill="midnightblue" stroke="midnightblue" points="638.82,-114.82 649.15,-112.47 639.62,-107.86 638.82,-114.82"/>
</g>
<!-- Node4 -->
<g id="node4" class="node">
<title>Node4</title>
<g id="a_node4"><a xlink:href="../../d3/d39/vlayoutgenerator_8cpp.html" target="_top" xlink:title=" ">
<polygon fill="white" stroke="black" points="346.5,-56.5 346.5,-75.5 543.5,-75.5 543.5,-56.5 346.5,-56.5"/>
<text text-anchor="middle" x="445" y="-63.5" font-family="Helvetica,sans-Serif" font-size="10.00">src/libs/vlayout/vlayoutgenerator.cpp</text>
</a>
</g>
</g>
<!-- Node1&#45;&gt;Node4 -->
<g id="edge3" class="edge">
<title>Node1&#45;&gt;Node4</title>
<path fill="none" stroke="midnightblue" d="M669.94,-110.54C617.21,-100.33 538,-85 489,-75.52"/>
<polygon fill="midnightblue" stroke="midnightblue" points="669.31,-113.98 679.79,-112.44 670.64,-107.11 669.31,-113.98"/>
</g>
<!-- Node5 -->
<g id="node5" class="node">
<title>Node5</title>
<g id="a_node5"><a xlink:href="../../de/da8/vbank_8cpp.html" target="_top" xlink:title=" ">
<polygon fill="white" stroke="black" points="562,-56.5 562,-75.5 706,-75.5 706,-56.5 562,-56.5"/>
<text text-anchor="middle" x="634" y="-63.5" font-family="Helvetica,sans-Serif" font-size="10.00">src/libs/vlayout/vbank.cpp</text>
</a>
</g>
</g>
<!-- Node1&#45;&gt;Node5 -->
<g id="edge4" class="edge">
<title>Node1&#45;&gt;Node5</title>
<path fill="none" stroke="midnightblue" d="M700.96,-107.18C684.4,-97.24 662.58,-84.15 648.42,-75.65"/>
<polygon fill="midnightblue" stroke="midnightblue" points="699.16,-110.18 709.54,-112.32 702.77,-104.18 699.16,-110.18"/>
</g>
<!-- Node6 -->
<g id="node6" class="node">
<title>Node6</title>
<g id="a_node6"><a xlink:href="../../d2/d2d/vlayoutpaper__p_8h.html" target="_top" xlink:title=" ">
<polygon fill="white" stroke="black" points="724.5,-56.5 724.5,-75.5 903.5,-75.5 903.5,-56.5 724.5,-56.5"/>
<text text-anchor="middle" x="814" y="-63.5" font-family="Helvetica,sans-Serif" font-size="10.00">src/libs/vlayout/vlayoutpaper_p.h</text>
</a>
</g>
</g>
<!-- Node1&#45;&gt;Node6 -->
<g id="edge5" class="edge">
<title>Node1&#45;&gt;Node6</title>
<path fill="none" stroke="midnightblue" d="M747.04,-107.18C763.6,-97.24 785.42,-84.15 799.58,-75.65"/>
<polygon fill="midnightblue" stroke="midnightblue" points="745.23,-104.18 738.46,-112.32 748.84,-110.18 745.23,-104.18"/>
</g>
<!-- Node7 -->
<g id="node7" class="node">
<title>Node7</title>
<g id="a_node7"><a xlink:href="../../d1/dd1/vlayoutpaper_8cpp.html" target="_top" xlink:title=" ">
<polygon fill="white" stroke="black" points="801,-0.5 801,-19.5 979,-19.5 979,-0.5 801,-0.5"/>
<text text-anchor="middle" x="890" y="-7.5" font-family="Helvetica,sans-Serif" font-size="10.00">src/libs/vlayout/vlayoutpaper.cpp</text>
</a>
</g>
</g>
<!-- Node1&#45;&gt;Node7 -->
<g id="edge7" class="edge">
<title>Node1&#45;&gt;Node7</title>
<path fill="none" stroke="midnightblue" d="M810.35,-110.9C853.71,-103.87 899.81,-92.7 913,-76 926.5,-58.9 909.18,-33.26 898.04,-19.87"/>
<polygon fill="midnightblue" stroke="midnightblue" points="809.62,-107.47 800.28,-112.47 810.7,-114.39 809.62,-107.47"/>
</g>
<!-- Node8 -->
<g id="node8" class="node">
<title>Node8</title>
<g id="a_node8"><a xlink:href="../../db/d5c/vposition_8h.html" target="_top" xlink:title=" ">
<polygon fill="white" stroke="black" points="960,-56.5 960,-75.5 1108,-75.5 1108,-56.5 960,-56.5"/>
<text text-anchor="middle" x="1034" y="-63.5" font-family="Helvetica,sans-Serif" font-size="10.00">src/libs/vlayout/vposition.h</text>
</a>
</g>
</g>
<!-- Node1&#45;&gt;Node8 -->
<g id="edge8" class="edge">
<title>Node1&#45;&gt;Node8</title>
<path fill="none" stroke="midnightblue" d="M783.34,-110.66C841.92,-100.46 930.45,-85.04 985.11,-75.52"/>
<polygon fill="midnightblue" stroke="midnightblue" points="782.37,-107.28 773.12,-112.44 783.57,-114.18 782.37,-107.28"/>
</g>
<!-- Node10 -->
<g id="node10" class="node">
<title>Node10</title>
<g id="a_node10"><a xlink:href="../../dd/d70/vlayoutpiece_8cpp.html" target="_top" xlink:title=" ">
<polygon fill="white" stroke="black" points="1126.5,-56.5 1126.5,-75.5 1303.5,-75.5 1303.5,-56.5 1126.5,-56.5"/>
<text text-anchor="middle" x="1215" y="-63.5" font-family="Helvetica,sans-Serif" font-size="10.00">src/libs/vlayout/vlayoutpiece.cpp</text>
</a>
</g>
</g>
<!-- Node1&#45;&gt;Node10 -->
<g id="edge11" class="edge">
<title>Node1&#45;&gt;Node10</title>
<path fill="none" stroke="midnightblue" d="M811.72,-111.35C904.33,-101.17 1048.91,-85.27 1137.47,-75.53"/>
<polygon fill="midnightblue" stroke="midnightblue" points="811.09,-107.9 801.53,-112.47 811.85,-114.86 811.09,-107.9"/>
</g>
<!-- Node6&#45;&gt;Node7 -->
<g id="edge6" class="edge">
<title>Node6&#45;&gt;Node7</title>
<path fill="none" stroke="midnightblue" d="M834.58,-50.38C848.31,-40.62 865.93,-28.11 877.57,-19.83"/>
<polygon fill="midnightblue" stroke="midnightblue" points="832.34,-47.68 826.21,-56.32 836.39,-53.38 832.34,-47.68"/>
</g>
<!-- Node8&#45;&gt;Node7 -->
<g id="edge9" class="edge">
<title>Node8&#45;&gt;Node7</title>
<path fill="none" stroke="midnightblue" d="M1001.75,-52.91C974.68,-42.75 936.68,-28.51 912.71,-19.52"/>
<polygon fill="midnightblue" stroke="midnightblue" points="1000.59,-56.21 1011.18,-56.44 1003.05,-49.66 1000.59,-56.21"/>
</g>
<!-- Node9 -->
<g id="node9" class="node">
<title>Node9</title>
<g id="a_node9"><a xlink:href="../../df/d76/vposition_8cpp.html" target="_top" xlink:title=" ">
<polygon fill="white" stroke="black" points="996.5,-0.5 996.5,-19.5 1155.5,-19.5 1155.5,-0.5 996.5,-0.5"/>
<text text-anchor="middle" x="1076" y="-7.5" font-family="Helvetica,sans-Serif" font-size="10.00">src/libs/vlayout/vposition.cpp</text>
</a>
</g>
</g>
<!-- Node8&#45;&gt;Node9 -->
<g id="edge10" class="edge">
<title>Node8&#45;&gt;Node9</title>
<path fill="none" stroke="midnightblue" d="M1047.11,-48.14C1054.43,-38.74 1063.24,-27.4 1069.19,-19.75"/>
<polygon fill="midnightblue" stroke="midnightblue" points="1044.31,-46.04 1040.94,-56.08 1049.84,-50.34 1044.31,-46.04"/>
</g>
</g>
</svg>
