<?xml version="1.0" encoding="UTF-8" standalone="no"?>
<!DOCTYPE svg PUBLIC "-//W3C//DTD SVG 1.1//EN"
 "http://www.w3.org/Graphics/SVG/1.1/DTD/svg11.dtd">
<!-- Generated by graphviz version 2.43.0 (0)
 -->
<!-- Title: src/libs/vtools/tools/nodeDetails/vabstractnode.h Pages: 1 -->
<!--zoomable 262 -->
<svg id="main" version="1.1" xmlns="http://www.w3.org/2000/svg" xmlns:xlink="http://www.w3.org/1999/xlink" xml:space="preserve" onload="init(evt)">
<style type="text/css"><![CDATA[
.edge:hover path { stroke: red; }
.edge:hover polygon { stroke: red; fill: red; }
]]></style>
<script type="text/javascript"><![CDATA[
var edges = document.getElementsByTagName('g');
if (edges && edges.length) {
  for (var i=0;i<edges.length;i++) {
    if (edges[i].id.substr(0,4)=='edge') {
      edges[i].setAttribute('class','edge');
    }
  }
}
]]></script>
        <defs>
                <circle id="rim" cx="0" cy="0" r="7"/>
                <circle id="rim2" cx="0" cy="0" r="3.5"/>
                <g id="zoomPlus">
                        <use xlink:href="#rim" fill="#404040">
                                <set attributeName="fill" to="#808080" begin="zoomplus.mouseover" end="zoomplus.mouseout"/>
                        </use>
                        <path d="M-4,0h8M0,-4v8" fill="none" stroke="white" stroke-width="1.5" pointer-events="none"/>
                </g>
                <g id="zoomMin">
                        <use xlink:href="#rim" fill="#404040">
                                <set attributeName="fill" to="#808080" begin="zoomminus.mouseover" end="zoomminus.mouseout"/>
                        </use>
                        <path d="M-4,0h8" fill="none" stroke="white" stroke-width="1.5" pointer-events="none"/>
                </g>
                <g id="dirArrow">
                        <path fill="none" stroke="white" stroke-width="1.5" d="M0,-3.0v7 M-2.5,-0.5L0,-3.0L2.5,-0.5"/>
                </g>
               <g id="resetDef">
                       <use xlink:href="#rim2" fill="#404040">
                               <set attributeName="fill" to="#808080" begin="reset.mouseover" end="reset.mouseout"/>
                       </use>
               </g>
        </defs>

<script type="text/javascript">
var viewWidth = 1983;
var viewHeight = 262;
var sectionId = 'dynsection-1';
</script>
<script xlink:href="../../svgpan.js"/>
<svg id="graph" class="graph">
<g id="viewport">
<title>src/libs/vtools/tools/nodeDetails/vabstractnode.h</title>
<polygon fill="white" stroke="transparent" points="-4,4 -4,-258 1978.5,-258 1978.5,4 -4,4"/>
<!-- Node1 -->
<g id="node1" class="node">
<title>Node1</title>
<g id="a_node1"><a xlink:title=" ">
<polygon fill="#bfbfbf" stroke="black" points="776.5,-223.5 776.5,-253.5 936.5,-253.5 936.5,-223.5 776.5,-223.5"/>
<text text-anchor="start" x="784.5" y="-241.5" font-family="Helvetica,sans-Serif" font-size="10.00">src/libs/vtools/tools</text>
<text text-anchor="middle" x="856.5" y="-230.5" font-family="Helvetica,sans-Serif" font-size="10.00">/nodeDetails/vabstractnode.h</text>
</a>
</g>
</g>
<!-- Node2 -->
<g id="node2" class="node">
<title>Node2</title>
<g id="a_node2"><a xlink:href="../../d5/dcd/vabstractnode_8cpp.html" target="_top" xlink:title=" ">
<polygon fill="white" stroke="black" points="0,-151 0,-181 171,-181 171,-151 0,-151"/>
<text text-anchor="start" x="8" y="-169" font-family="Helvetica,sans-Serif" font-size="10.00">src/libs/vtools/tools</text>
<text text-anchor="middle" x="85.5" y="-158" font-family="Helvetica,sans-Serif" font-size="10.00">/nodeDetails/vabstractnode.cpp</text>
</a>
</g>
</g>
<!-- Node1&#45;&gt;Node2 -->
<g id="edge1" class="edge">
<title>Node1&#45;&gt;Node2</title>
<path fill="none" stroke="midnightblue" d="M766.14,-234.21C636.92,-228.71 392.14,-215.33 185.5,-187 173.84,-185.4 161.48,-183.28 149.59,-181.02"/>
<polygon fill="midnightblue" stroke="midnightblue" points="766.24,-237.72 776.38,-234.64 766.53,-230.72 766.24,-237.72"/>
</g>
<!-- Node3 -->
<g id="node3" class="node">
<title>Node3</title>
<g id="a_node3"><a xlink:href="../../de/d51/anchorpoint__tool_8h.html" target="_top" xlink:title=" ">
<polygon fill="white" stroke="black" points="266,-145.5 266,-186.5 405,-186.5 405,-145.5 266,-145.5"/>
<text text-anchor="start" x="274" y="-174.5" font-family="Helvetica,sans-Serif" font-size="10.00">src/libs/vtools/tools</text>
<text text-anchor="start" x="274" y="-163.5" font-family="Helvetica,sans-Serif" font-size="10.00">/nodeDetails/anchorpoint</text>
<text text-anchor="middle" x="335.5" y="-152.5" font-family="Helvetica,sans-Serif" font-size="10.00">_tool.h</text>
</a>
</g>
</g>
<!-- Node1&#45;&gt;Node3 -->
<g id="edge2" class="edge">
<title>Node1&#45;&gt;Node3</title>
<path fill="none" stroke="midnightblue" d="M766.04,-230.74C676.33,-223.2 535.21,-209.07 414.5,-187 411.44,-186.44 408.32,-185.83 405.18,-185.18"/>
<polygon fill="midnightblue" stroke="midnightblue" points="765.92,-234.24 776.18,-231.58 766.5,-227.27 765.92,-234.24"/>
</g>
<!-- Node9 -->
<g id="node9" class="node">
<title>Node9</title>
<g id="a_node9"><a xlink:href="../../df/d98/vnodearc_8h.html" target="_top" xlink:title=" ">
<polygon fill="white" stroke="black" points="423,-151 423,-181 558,-181 558,-151 423,-151"/>
<text text-anchor="start" x="431" y="-169" font-family="Helvetica,sans-Serif" font-size="10.00">src/libs/vtools/tools</text>
<text text-anchor="middle" x="490.5" y="-158" font-family="Helvetica,sans-Serif" font-size="10.00">/nodeDetails/vnodearc.h</text>
</a>
</g>
</g>
<!-- Node1&#45;&gt;Node9 -->
<g id="edge8" class="edge">
<title>Node1&#45;&gt;Node9</title>
<path fill="none" stroke="midnightblue" d="M766.33,-223.67C709.14,-214.43 633.71,-201.36 567.5,-187 559.27,-185.21 550.58,-183.14 542.14,-181.03"/>
<polygon fill="midnightblue" stroke="midnightblue" points="766,-227.17 776.43,-225.3 767.11,-220.26 766,-227.17"/>
</g>
<!-- Node10 -->
<g id="node10" class="node">
<title>Node10</title>
<g id="a_node10"><a xlink:href="../../d0/d43/vnodearc_8cpp.html" target="_top" xlink:title=" ">
<polygon fill="white" stroke="black" points="238.5,-73 238.5,-103 384.5,-103 384.5,-73 238.5,-73"/>
<text text-anchor="start" x="246.5" y="-91" font-family="Helvetica,sans-Serif" font-size="10.00">src/libs/vtools/tools</text>
<text text-anchor="middle" x="311.5" y="-80" font-family="Helvetica,sans-Serif" font-size="10.00">/nodeDetails/vnodearc.cpp</text>
</a>
</g>
</g>
<!-- Node1&#45;&gt;Node10 -->
<g id="edge18" class="edge">
<title>Node1&#45;&gt;Node10</title>
<path fill="none" stroke="midnightblue" d="M765.77,-236.66C603.71,-234.2 278.12,-224.59 243.5,-187 230.85,-173.27 235.53,-161.88 243.5,-145 252.05,-126.88 269.66,-112.64 284.81,-103.06"/>
<polygon fill="midnightblue" stroke="midnightblue" points="766.15,-240.16 776.2,-236.81 766.25,-233.16 766.15,-240.16"/>
</g>
<!-- Node12 -->
<g id="node12" class="node">
<title>Node12</title>
<g id="a_node12"><a xlink:href="../../df/d25/vnodeellipticalarc_8h.html" target="_top" xlink:title=" ">
<polygon fill="white" stroke="black" points="576,-151 576,-181 753,-181 753,-151 576,-151"/>
<text text-anchor="start" x="584" y="-169" font-family="Helvetica,sans-Serif" font-size="10.00">src/libs/vtools/tools</text>
<text text-anchor="middle" x="664.5" y="-158" font-family="Helvetica,sans-Serif" font-size="10.00">/nodeDetails/vnodeellipticalarc.h</text>
</a>
</g>
</g>
<!-- Node1&#45;&gt;Node12 -->
<g id="edge13" class="edge">
<title>Node1&#45;&gt;Node12</title>
<path fill="none" stroke="midnightblue" d="M808.32,-219.81C775.69,-207.83 733.16,-192.21 702.83,-181.07"/>
<polygon fill="midnightblue" stroke="midnightblue" points="807.51,-223.24 818.11,-223.4 809.93,-216.67 807.51,-223.24"/>
</g>
<!-- Node13 -->
<g id="node13" class="node">
<title>Node13</title>
<g id="a_node13"><a xlink:href="../../d3/d3a/vnodeellipticalarc_8cpp.html" target="_top" xlink:title=" ">
<polygon fill="white" stroke="black" points="402.5,-73 402.5,-103 590.5,-103 590.5,-73 402.5,-73"/>
<text text-anchor="start" x="410.5" y="-91" font-family="Helvetica,sans-Serif" font-size="10.00">src/libs/vtools/tools</text>
<text text-anchor="middle" x="496.5" y="-80" font-family="Helvetica,sans-Serif" font-size="10.00">/nodeDetails/vnodeellipticalarc.cpp</text>
</a>
</g>
</g>
<!-- Node1&#45;&gt;Node13 -->
<g id="edge19" class="edge">
<title>Node1&#45;&gt;Node13</title>
<path fill="none" stroke="midnightblue" d="M766,-236.47C607.03,-233.71 291.17,-223.63 257.5,-187 244.87,-173.26 245.9,-159.63 257.5,-145 262.9,-138.19 358.61,-117.29 427.24,-103.04"/>
<polygon fill="midnightblue" stroke="midnightblue" points="766.19,-239.97 776.24,-236.64 766.3,-232.97 766.19,-239.97"/>
</g>
<!-- Node14 -->
<g id="node14" class="node">
<title>Node14</title>
<g id="a_node14"><a xlink:href="../../df/d94/vnodespline_8cpp.html" target="_top" xlink:title=" ">
<polygon fill="white" stroke="black" points="1253,-73 1253,-103 1414,-103 1414,-73 1253,-73"/>
<text text-anchor="start" x="1261" y="-91" font-family="Helvetica,sans-Serif" font-size="10.00">src/libs/vtools/tools</text>
<text text-anchor="middle" x="1333.5" y="-80" font-family="Helvetica,sans-Serif" font-size="10.00">/nodeDetails/vnodespline.cpp</text>
</a>
</g>
</g>
<!-- Node1&#45;&gt;Node14 -->
<g id="edge20" class="edge">
<title>Node1&#45;&gt;Node14</title>
<path fill="none" stroke="midnightblue" d="M946.61,-237.01C1114.14,-235.16 1459.97,-226.53 1496.5,-187 1509.17,-173.29 1507.35,-160.19 1496.5,-145 1484.5,-128.2 1438.08,-113.24 1397.82,-103.01"/>
<polygon fill="midnightblue" stroke="midnightblue" points="946.53,-233.51 936.57,-237.12 946.6,-240.51 946.53,-233.51"/>
</g>
<!-- Node15 -->
<g id="node15" class="node">
<title>Node15</title>
<g id="a_node15"><a xlink:href="../../d0/dd2/vnodespline_8h.html" target="_top" xlink:title=" ">
<polygon fill="white" stroke="black" points="960,-151 960,-181 1109,-181 1109,-151 960,-151"/>
<text text-anchor="start" x="968" y="-169" font-family="Helvetica,sans-Serif" font-size="10.00">src/libs/vtools/tools</text>
<text text-anchor="middle" x="1034.5" y="-158" font-family="Helvetica,sans-Serif" font-size="10.00">/nodeDetails/vnodespline.h</text>
</a>
</g>
</g>
<!-- Node1&#45;&gt;Node15 -->
<g id="edge21" class="edge">
<title>Node1&#45;&gt;Node15</title>
<path fill="none" stroke="midnightblue" d="M901.56,-219.65C931.76,-207.69 970.97,-192.16 998.97,-181.07"/>
<polygon fill="midnightblue" stroke="midnightblue" points="900.1,-216.47 892.09,-223.4 902.68,-222.97 900.1,-216.47"/>
</g>
<!-- Node16 -->
<g id="node16" class="node">
<title>Node16</title>
<g id="a_node16"><a xlink:href="../../df/d88/vnodesplinepath_8h.html" target="_top" xlink:title=" ">
<polygon fill="white" stroke="black" points="771,-151 771,-181 942,-181 942,-151 771,-151"/>
<text text-anchor="start" x="779" y="-169" font-family="Helvetica,sans-Serif" font-size="10.00">src/libs/vtools/tools</text>
<text text-anchor="middle" x="856.5" y="-158" font-family="Helvetica,sans-Serif" font-size="10.00">/nodeDetails/vnodesplinepath.h</text>
</a>
</g>
</g>
<!-- Node1&#45;&gt;Node16 -->
<g id="edge26" class="edge">
<title>Node1&#45;&gt;Node16</title>
<path fill="none" stroke="midnightblue" d="M856.5,-213.23C856.5,-202.57 856.5,-190.41 856.5,-181.25"/>
<polygon fill="midnightblue" stroke="midnightblue" points="853,-213.23 856.5,-223.23 860,-213.23 853,-213.23"/>
</g>
<!-- Node17 -->
<g id="node17" class="node">
<title>Node17</title>
<g id="a_node17"><a xlink:href="../../d2/dad/vnodesplinepath_8cpp.html" target="_top" xlink:title=" ">
<polygon fill="white" stroke="black" points="1052.5,-73 1052.5,-103 1234.5,-103 1234.5,-73 1052.5,-73"/>
<text text-anchor="start" x="1060.5" y="-91" font-family="Helvetica,sans-Serif" font-size="10.00">src/libs/vtools/tools</text>
<text text-anchor="middle" x="1143.5" y="-80" font-family="Helvetica,sans-Serif" font-size="10.00">/nodeDetails/vnodesplinepath.cpp</text>
</a>
</g>
</g>
<!-- Node1&#45;&gt;Node17 -->
<g id="edge31" class="edge">
<title>Node1&#45;&gt;Node17</title>
<path fill="none" stroke="midnightblue" d="M947.2,-236.71C1110.1,-234.34 1438.6,-224.87 1473.5,-187 1536.94,-118.15 1432.77,-142.43 1244.5,-109 1234.12,-107.16 1223.15,-105.1 1212.43,-103.03"/>
<polygon fill="midnightblue" stroke="midnightblue" points="946.66,-233.22 936.71,-236.86 946.76,-240.22 946.66,-233.22"/>
</g>
<!-- Node18 -->
<g id="node18" class="node">
<title>Node18</title>
<g id="a_node18"><a xlink:href="../../d4/d7b/vnodepoint_8cpp.html" target="_top" xlink:title=" ">
<polygon fill="white" stroke="black" points="1818.5,-73 1818.5,-103 1974.5,-103 1974.5,-73 1818.5,-73"/>
<text text-anchor="start" x="1826.5" y="-91" font-family="Helvetica,sans-Serif" font-size="10.00">src/libs/vtools/tools</text>
<text text-anchor="middle" x="1896.5" y="-80" font-family="Helvetica,sans-Serif" font-size="10.00">/nodeDetails/vnodepoint.cpp</text>
</a>
</g>
</g>
<!-- Node1&#45;&gt;Node18 -->
<g id="edge32" class="edge">
<title>Node1&#45;&gt;Node18</title>
<path fill="none" stroke="midnightblue" d="M946.64,-235.55C1073.96,-231.68 1313.37,-220.26 1514.5,-187 1638.79,-166.45 1781.76,-124.81 1852.34,-103.02"/>
<polygon fill="midnightblue" stroke="midnightblue" points="946.44,-232.06 936.55,-235.85 946.65,-239.05 946.44,-232.06"/>
</g>
<!-- Node19 -->
<g id="node19" class="node">
<title>Node19</title>
<g id="a_node19"><a xlink:href="../../d5/d9d/vtoolinternalpath_8h.html" target="_top" xlink:title=" ">
<polygon fill="white" stroke="black" points="1290.5,-151 1290.5,-181 1464.5,-181 1464.5,-151 1290.5,-151"/>
<text text-anchor="start" x="1298.5" y="-169" font-family="Helvetica,sans-Serif" font-size="10.00">src/libs/vtools/tools</text>
<text text-anchor="middle" x="1377.5" y="-158" font-family="Helvetica,sans-Serif" font-size="10.00">/nodeDetails/vtoolinternalpath.h</text>
</a>
</g>
</g>
<!-- Node1&#45;&gt;Node19 -->
<g id="edge33" class="edge">
<title>Node1&#45;&gt;Node19</title>
<path fill="none" stroke="midnightblue" d="M946.71,-229.08C1032.96,-220.49 1166.52,-205.77 1281.5,-187 1292.09,-185.27 1303.27,-183.18 1314.13,-181.02"/>
<polygon fill="midnightblue" stroke="midnightblue" points="946.3,-225.61 936.69,-230.07 946.98,-232.57 946.3,-225.61"/>
</g>
<!-- Node22 -->
<g id="node22" class="node">
<title>Node22</title>
<g id="a_node22"><a xlink:href="../../d5/df0/vnodepoint_8h.html" target="_top" xlink:title=" ">
<polygon fill="white" stroke="black" points="1127,-151 1127,-181 1272,-181 1272,-151 1127,-151"/>
<text text-anchor="start" x="1135" y="-169" font-family="Helvetica,sans-Serif" font-size="10.00">src/libs/vtools/tools</text>
<text text-anchor="middle" x="1199.5" y="-158" font-family="Helvetica,sans-Serif" font-size="10.00">/nodeDetails/vnodepoint.h</text>
</a>
</g>
</g>
<!-- Node1&#45;&gt;Node22 -->
<g id="edge39" class="edge">
<title>Node1&#45;&gt;Node22</title>
<path fill="none" stroke="midnightblue" d="M944.94,-221.63C995.84,-212.2 1060.92,-199.65 1118.5,-187 1126.85,-185.17 1135.65,-183.12 1144.25,-181.05"/>
<polygon fill="midnightblue" stroke="midnightblue" points="944.16,-218.21 934.96,-223.47 945.43,-225.1 944.16,-218.21"/>
</g>
<!-- Node4 -->
<g id="node4" class="node">
<title>Node4</title>
<g id="a_node4"><a xlink:href="../../d9/d3a/anchorpoint__tool_8cpp.html" target="_top" xlink:title=" ">
<polygon fill="white" stroke="black" points="81,-67.5 81,-108.5 220,-108.5 220,-67.5 81,-67.5"/>
<text text-anchor="start" x="89" y="-96.5" font-family="Helvetica,sans-Serif" font-size="10.00">src/libs/vtools/tools</text>
<text text-anchor="start" x="89" y="-85.5" font-family="Helvetica,sans-Serif" font-size="10.00">/nodeDetails/anchorpoint</text>
<text text-anchor="middle" x="150.5" y="-74.5" font-family="Helvetica,sans-Serif" font-size="10.00">_tool.cpp</text>
</a>
</g>
</g>
<!-- Node3&#45;&gt;Node4 -->
<g id="edge3" class="edge">
<title>Node3&#45;&gt;Node4</title>
<path fill="none" stroke="midnightblue" d="M278.56,-141.61C252.74,-131 222.56,-118.6 197.98,-108.51"/>
<polygon fill="midnightblue" stroke="midnightblue" points="277.28,-144.87 287.86,-145.43 279.94,-138.39 277.28,-144.87"/>
</g>
<!-- Node5 -->
<g id="node5" class="node">
<title>Node5</title>
<g id="a_node5"><a xlink:href="../../d5/dcf/nodedetails_8h.html" target="_top" xlink:title=" ">
<polygon fill="white" stroke="black" points="738,-73 738,-103 885,-103 885,-73 738,-73"/>
<text text-anchor="start" x="746" y="-91" font-family="Helvetica,sans-Serif" font-size="10.00">src/libs/vtools/tools</text>
<text text-anchor="middle" x="811.5" y="-80" font-family="Helvetica,sans-Serif" font-size="10.00">/nodeDetails/nodedetails.h</text>
</a>
</g>
</g>
<!-- Node3&#45;&gt;Node5 -->
<g id="edge4" class="edge">
<title>Node3&#45;&gt;Node5</title>
<path fill="none" stroke="midnightblue" d="M415.4,-144.98C554.93,-120.29 594.03,-133.16 729.5,-109 738.73,-107.35 748.47,-105.28 757.89,-103.1"/>
<polygon fill="midnightblue" stroke="midnightblue" points="414.4,-141.6 405.18,-146.82 415.64,-148.49 414.4,-141.6"/>
</g>
<!-- Node8 -->
<g id="node8" class="node">
<title>Node8</title>
<g id="a_node8"><a xlink:href="../../d4/d9f/union__tool_8cpp.html" target="_top" xlink:title=" ">
<polygon fill="white" stroke="black" points="609,-73 609,-103 720,-103 720,-73 609,-73"/>
<text text-anchor="start" x="617" y="-91" font-family="Helvetica,sans-Serif" font-size="10.00">src/libs/vtools/tools</text>
<text text-anchor="middle" x="664.5" y="-80" font-family="Helvetica,sans-Serif" font-size="10.00">/union_tool.cpp</text>
</a>
</g>
</g>
<!-- Node3&#45;&gt;Node8 -->
<g id="edge7" class="edge">
<title>Node3&#45;&gt;Node8</title>
<path fill="none" stroke="midnightblue" d="M415.09,-144.94C497.96,-126.88 521.26,-128.59 599.5,-109 606.49,-107.25 613.83,-105.2 620.97,-103.09"/>
<polygon fill="midnightblue" stroke="midnightblue" points="414.24,-141.54 405.24,-147.12 415.76,-148.38 414.24,-141.54"/>
</g>
<!-- Node6 -->
<g id="node6" class="node">
<title>Node6</title>
<g id="a_node6"><a xlink:href="../../d5/da5/tools_8h.html" target="_top" xlink:title=" ">
<polygon fill="white" stroke="black" points="691,-0.5 691,-30.5 802,-30.5 802,-0.5 691,-0.5"/>
<text text-anchor="start" x="699" y="-18.5" font-family="Helvetica,sans-Serif" font-size="10.00">src/libs/vtools/tools</text>
<text text-anchor="middle" x="746.5" y="-7.5" font-family="Helvetica,sans-Serif" font-size="10.00">/tools.h</text>
</a>
</g>
</g>
<!-- Node5&#45;&gt;Node6 -->
<g id="edge5" class="edge">
<title>Node5&#45;&gt;Node6</title>
<path fill="none" stroke="midnightblue" d="M791.55,-65.36C781.18,-54.11 768.79,-40.68 759.63,-30.75"/>
<polygon fill="midnightblue" stroke="midnightblue" points="788.99,-67.75 798.35,-72.73 794.14,-63.01 788.99,-67.75"/>
</g>
<!-- Node7 -->
<g id="node7" class="node">
<title>Node7</title>
<g id="a_node7"><a xlink:href="../../d9/d4e/vabstracttool_8cpp.html" target="_top" xlink:title=" ">
<polygon fill="white" stroke="black" points="820,-0.5 820,-30.5 931,-30.5 931,-0.5 820,-0.5"/>
<text text-anchor="start" x="828" y="-18.5" font-family="Helvetica,sans-Serif" font-size="10.00">src/libs/vtools/tools</text>
<text text-anchor="middle" x="875.5" y="-7.5" font-family="Helvetica,sans-Serif" font-size="10.00">/vabstracttool.cpp</text>
</a>
</g>
</g>
<!-- Node5&#45;&gt;Node7 -->
<g id="edge6" class="edge">
<title>Node5&#45;&gt;Node7</title>
<path fill="none" stroke="midnightblue" d="M831.44,-65.04C841.59,-53.86 853.64,-40.58 862.57,-30.75"/>
<polygon fill="midnightblue" stroke="midnightblue" points="828.58,-62.98 824.45,-72.73 833.76,-67.68 828.58,-62.98"/>
</g>
<!-- Node9&#45;&gt;Node5 -->
<g id="edge9" class="edge">
<title>Node9&#45;&gt;Node5</title>
<path fill="none" stroke="midnightblue" d="M553.3,-148.49C558.1,-147.29 562.88,-146.11 567.5,-145 639.21,-127.73 657.67,-125.74 729.5,-109 737.63,-107.1 746.21,-105.06 754.63,-103.03"/>
<polygon fill="midnightblue" stroke="midnightblue" points="552.29,-145.14 543.46,-150.98 554.01,-151.92 552.29,-145.14"/>
</g>
<!-- Node9&#45;&gt;Node8 -->
<g id="edge12" class="edge">
<title>Node9&#45;&gt;Node8</title>
<path fill="none" stroke="midnightblue" d="M532,-146.87C562.76,-133.44 604.08,-115.39 632.35,-103.04"/>
<polygon fill="midnightblue" stroke="midnightblue" points="530.58,-143.67 522.82,-150.88 533.39,-150.09 530.58,-143.67"/>
</g>
<!-- Node9&#45;&gt;Node10 -->
<g id="edge10" class="edge">
<title>Node9&#45;&gt;Node10</title>
<path fill="none" stroke="midnightblue" d="M447.81,-146.87C416.16,-133.44 373.65,-115.39 344.57,-103.04"/>
<polygon fill="midnightblue" stroke="midnightblue" points="446.68,-150.2 457.25,-150.88 449.41,-143.75 446.68,-150.2"/>
</g>
<!-- Node11 -->
<g id="node11" class="node">
<title>Node11</title>
<g id="a_node11"><a xlink:href="../../d8/dea/pattern__piece__tool_8cpp.html" target="_top" xlink:title=" ">
<polygon fill="white" stroke="black" points="903,-73 903,-103 1034,-103 1034,-73 903,-73"/>
<text text-anchor="start" x="911" y="-91" font-family="Helvetica,sans-Serif" font-size="10.00">src/libs/vtools/tools</text>
<text text-anchor="middle" x="968.5" y="-80" font-family="Helvetica,sans-Serif" font-size="10.00">/pattern_piece_tool.cpp</text>
</a>
</g>
</g>
<!-- Node9&#45;&gt;Node11 -->
<g id="edge11" class="edge">
<title>Node9&#45;&gt;Node11</title>
<path fill="none" stroke="midnightblue" d="M550.15,-148.6C555.99,-147.27 561.84,-146.04 567.5,-145 711.3,-118.55 750.83,-136.15 894.5,-109 903.13,-107.37 912.23,-105.25 920.98,-103"/>
<polygon fill="midnightblue" stroke="midnightblue" points="549.3,-145.21 540.38,-150.93 550.92,-152.02 549.3,-145.21"/>
</g>
<!-- Node12&#45;&gt;Node5 -->
<g id="edge14" class="edge">
<title>Node12&#45;&gt;Node5</title>
<path fill="none" stroke="midnightblue" d="M700.91,-146.17C726.75,-132.82 760.87,-115.18 784.34,-103.04"/>
<polygon fill="midnightblue" stroke="midnightblue" points="699.08,-143.18 691.81,-150.88 702.3,-149.4 699.08,-143.18"/>
</g>
<!-- Node12&#45;&gt;Node8 -->
<g id="edge17" class="edge">
<title>Node12&#45;&gt;Node8</title>
<path fill="none" stroke="midnightblue" d="M664.5,-140.59C664.5,-128.26 664.5,-113.72 664.5,-103.23"/>
<polygon fill="midnightblue" stroke="midnightblue" points="661,-140.7 664.5,-150.7 668,-140.71 661,-140.7"/>
</g>
<!-- Node12&#45;&gt;Node11 -->
<g id="edge16" class="edge">
<title>Node12&#45;&gt;Node11</title>
<path fill="none" stroke="midnightblue" d="M733.97,-148.57C779.66,-137.64 840.73,-122.81 894.5,-109 901.85,-107.11 909.59,-105.07 917.19,-103.05"/>
<polygon fill="midnightblue" stroke="midnightblue" points="733.08,-145.18 724.17,-150.91 734.71,-151.99 733.08,-145.18"/>
</g>
<!-- Node12&#45;&gt;Node13 -->
<g id="edge15" class="edge">
<title>Node12&#45;&gt;Node13</title>
<path fill="none" stroke="midnightblue" d="M624.04,-146.7C594.39,-133.28 554.72,-115.34 527.54,-103.04"/>
<polygon fill="midnightblue" stroke="midnightblue" points="622.74,-149.95 633.29,-150.88 625.63,-143.57 622.74,-149.95"/>
</g>
<!-- Node15&#45;&gt;Node5 -->
<g id="edge22" class="edge">
<title>Node15&#45;&gt;Node5</title>
<path fill="none" stroke="midnightblue" d="M983.86,-147.74C944.23,-134.23 889.81,-115.69 852.8,-103.07"/>
<polygon fill="midnightblue" stroke="midnightblue" points="982.74,-151.06 993.34,-150.97 985,-144.43 982.74,-151.06"/>
</g>
<!-- Node15&#45;&gt;Node8 -->
<g id="edge25" class="edge">
<title>Node15&#45;&gt;Node8</title>
<path fill="none" stroke="midnightblue" d="M968.94,-148.72C963.06,-147.4 957.18,-146.14 951.5,-145 853.51,-125.28 826.83,-131.75 729.5,-109 722.26,-107.31 714.64,-105.24 707.28,-103.08"/>
<polygon fill="midnightblue" stroke="midnightblue" points="968.29,-152.16 978.82,-150.97 969.85,-145.33 968.29,-152.16"/>
</g>
<!-- Node15&#45;&gt;Node11 -->
<g id="edge24" class="edge">
<title>Node15&#45;&gt;Node11</title>
<path fill="none" stroke="midnightblue" d="M1015.23,-142.81C1004.13,-130.03 990.52,-114.36 980.86,-103.23"/>
<polygon fill="midnightblue" stroke="midnightblue" points="1012.89,-145.45 1022.09,-150.7 1018.17,-140.86 1012.89,-145.45"/>
</g>
<!-- Node15&#45;&gt;Node14 -->
<g id="edge23" class="edge">
<title>Node15&#45;&gt;Node14</title>
<path fill="none" stroke="midnightblue" d="M1099.41,-148.5C1152.86,-134.92 1227.81,-115.87 1278.38,-103.01"/>
<polygon fill="midnightblue" stroke="midnightblue" points="1098.52,-145.12 1089.69,-150.97 1100.24,-151.9 1098.52,-145.12"/>
</g>
<!-- Node16&#45;&gt;Node5 -->
<g id="edge27" class="edge">
<title>Node16&#45;&gt;Node5</title>
<path fill="none" stroke="midnightblue" d="M842.93,-142.07C835.44,-129.44 826.39,-114.15 819.93,-103.23"/>
<polygon fill="midnightblue" stroke="midnightblue" points="839.93,-143.88 848.04,-150.7 845.95,-140.32 839.93,-143.88"/>
</g>
<!-- Node16&#45;&gt;Node8 -->
<g id="edge30" class="edge">
<title>Node16&#45;&gt;Node8</title>
<path fill="none" stroke="midnightblue" d="M811.14,-147.05C777.16,-133.59 731.3,-115.44 699.97,-103.04"/>
<polygon fill="midnightblue" stroke="midnightblue" points="810.25,-150.46 820.84,-150.88 812.83,-143.95 810.25,-150.46"/>
</g>
<!-- Node16&#45;&gt;Node11 -->
<g id="edge29" class="edge">
<title>Node16&#45;&gt;Node11</title>
<path fill="none" stroke="midnightblue" d="M885.81,-145.11C905.29,-131.89 930.4,-114.86 947.81,-103.04"/>
<polygon fill="midnightblue" stroke="midnightblue" points="883.61,-142.37 877.3,-150.88 887.54,-148.16 883.61,-142.37"/>
</g>
<!-- Node16&#45;&gt;Node17 -->
<g id="edge28" class="edge">
<title>Node16&#45;&gt;Node17</title>
<path fill="none" stroke="midnightblue" d="M919.43,-148.34C970.6,-134.78 1042.01,-115.88 1090.35,-103.07"/>
<polygon fill="midnightblue" stroke="midnightblue" points="918.25,-145.03 909.47,-150.97 920.04,-151.8 918.25,-145.03"/>
</g>
<!-- Node19&#45;&gt;Node5 -->
<g id="edge34" class="edge">
<title>Node19&#45;&gt;Node5</title>
<path fill="none" stroke="midnightblue" d="M1305.16,-149.02C1297.2,-147.54 1289.19,-146.16 1281.5,-145 1110.67,-119.34 1064.91,-137.31 894.5,-109 884.85,-107.4 874.66,-105.29 864.85,-103.05"/>
<polygon fill="midnightblue" stroke="midnightblue" points="1304.72,-152.5 1315.2,-150.96 1306.04,-145.63 1304.72,-152.5"/>
</g>
<!-- Node19&#45;&gt;Node8 -->
<g id="edge37" class="edge">
<title>Node19&#45;&gt;Node8</title>
<path fill="none" stroke="midnightblue" d="M1306.66,-149.08C1298.21,-147.52 1289.68,-146.11 1281.5,-145 1037.89,-111.85 971.3,-153.45 729.5,-109 721.49,-107.53 713.07,-105.4 705.05,-103.07"/>
<polygon fill="midnightblue" stroke="midnightblue" points="1306.04,-152.52 1316.52,-150.96 1307.36,-145.65 1306.04,-152.52"/>
</g>
<!-- Node19&#45;&gt;Node11 -->
<g id="edge36" class="edge">
<title>Node19&#45;&gt;Node11</title>
<path fill="none" stroke="midnightblue" d="M1302.28,-148.92C1295.26,-147.54 1288.25,-146.21 1281.5,-145 1176.2,-126.08 1148.23,-130.82 1043.5,-109 1035.19,-107.27 1026.43,-105.18 1017.94,-103.01"/>
<polygon fill="midnightblue" stroke="midnightblue" points="1302.04,-152.44 1312.53,-150.96 1303.4,-145.57 1302.04,-152.44"/>
</g>
<!-- Node20 -->
<g id="node20" class="node">
<title>Node20</title>
<g id="a_node20"><a xlink:href="../../d3/dd9/vtoolinternalpath_8cpp.html" target="_top" xlink:title=" ">
<polygon fill="white" stroke="black" points="1432,-73 1432,-103 1617,-103 1617,-73 1432,-73"/>
<text text-anchor="start" x="1440" y="-91" font-family="Helvetica,sans-Serif" font-size="10.00">src/libs/vtools/tools</text>
<text text-anchor="middle" x="1524.5" y="-80" font-family="Helvetica,sans-Serif" font-size="10.00">/nodeDetails/vtoolinternalpath.cpp</text>
</a>
</g>
</g>
<!-- Node19&#45;&gt;Node20 -->
<g id="edge35" class="edge">
<title>Node19&#45;&gt;Node20</title>
<path fill="none" stroke="midnightblue" d="M1413.91,-146.17C1439.75,-132.82 1473.87,-115.18 1497.34,-103.04"/>
<polygon fill="midnightblue" stroke="midnightblue" points="1412.08,-143.18 1404.81,-150.88 1415.3,-149.4 1412.08,-143.18"/>
</g>
<!-- Node21 -->
<g id="node21" class="node">
<title>Node21</title>
<g id="a_node21"><a xlink:href="../../dd/d3a/savepiecepathoptions_8cpp.html" target="_top" xlink:title=" ">
<polygon fill="white" stroke="black" points="1635,-73 1635,-103 1800,-103 1800,-73 1635,-73"/>
<text text-anchor="start" x="1643" y="-91" font-family="Helvetica,sans-Serif" font-size="10.00">src/libs/vtools/undocommands</text>
<text text-anchor="middle" x="1717.5" y="-80" font-family="Helvetica,sans-Serif" font-size="10.00">/savepiecepathoptions.cpp</text>
</a>
</g>
</g>
<!-- Node19&#45;&gt;Node21 -->
<g id="edge38" class="edge">
<title>Node19&#45;&gt;Node21</title>
<path fill="none" stroke="midnightblue" d="M1450.18,-148.75C1511.02,-135.15 1596.96,-115.95 1654.82,-103.01"/>
<polygon fill="midnightblue" stroke="midnightblue" points="1449.25,-145.37 1440.26,-150.97 1450.78,-152.21 1449.25,-145.37"/>
</g>
<!-- Node22&#45;&gt;Node5 -->
<g id="edge40" class="edge">
<title>Node22&#45;&gt;Node5</title>
<path fill="none" stroke="midnightblue" d="M1135.11,-148.59C1129.51,-147.32 1123.91,-146.1 1118.5,-145 1019.69,-124.9 993.36,-128.83 894.5,-109 885.63,-107.22 876.28,-105.16 867.18,-103.04"/>
<polygon fill="midnightblue" stroke="midnightblue" points="1134.64,-152.08 1145.18,-150.93 1136.23,-145.26 1134.64,-152.08"/>
</g>
<!-- Node22&#45;&gt;Node8 -->
<g id="edge43" class="edge">
<title>Node22&#45;&gt;Node8</title>
<path fill="none" stroke="midnightblue" d="M1137.48,-148.69C1131.1,-147.31 1124.69,-146.04 1118.5,-145 947.29,-116.11 899.82,-142.71 729.5,-109 721.74,-107.46 713.59,-105.36 705.78,-103.1"/>
<polygon fill="midnightblue" stroke="midnightblue" points="1136.93,-152.15 1147.45,-150.93 1138.47,-145.32 1136.93,-152.15"/>
</g>
<!-- Node22&#45;&gt;Node11 -->
<g id="edge42" class="edge">
<title>Node22&#45;&gt;Node11</title>
<path fill="none" stroke="midnightblue" d="M1147.3,-147.83C1106.23,-134.31 1049.7,-115.72 1011.28,-103.07"/>
<polygon fill="midnightblue" stroke="midnightblue" points="1146.27,-151.17 1156.86,-150.97 1148.46,-144.52 1146.27,-151.17"/>
</g>
<!-- Node22&#45;&gt;Node18 -->
<g id="edge41" class="edge">
<title>Node22&#45;&gt;Node18</title>
<path fill="none" stroke="midnightblue" d="M1261.2,-148.76C1268.02,-147.32 1274.88,-146.02 1281.5,-145 1513.94,-109 1576.83,-143.46 1809.5,-109 1819.93,-107.46 1830.95,-105.32 1841.52,-103.02"/>
<polygon fill="midnightblue" stroke="midnightblue" points="1260.29,-145.37 1251.29,-150.95 1261.8,-152.21 1260.29,-145.37"/>
</g>
</g>
</svg>
        <g id="navigator" transform="translate(0 0)" fill="#404254">
                <rect fill="#f2f5e9" fill-opacity="0.5" stroke="#606060" stroke-width=".5" x="0" y="0" width="60" height="60"/>
                <use id="zoomplus" xlink:href="#zoomPlus" x="17" y="9" onmousedown="handleZoom(evt,'in')"/>
                <use id="zoomminus" xlink:href="#zoomMin" x="42" y="9" onmousedown="handleZoom(evt,'out')"/>
                <use id="reset" xlink:href="#resetDef" x="30" y="36" onmousedown="handleReset()"/>
                <g id="arrowUp" xlink:href="#dirArrow" transform="translate(30 24)" onmousedown="handlePan(0,-1)">
                  <use xlink:href="#rim" fill="#404040">
                        <set attributeName="fill" to="#808080" begin="arrowUp.mouseover" end="arrowUp.mouseout"/>
                  </use>
                  <path fill="none" stroke="white" stroke-width="1.5" d="M0,-3.0v7 M-2.5,-0.5L0,-3.0L2.5,-0.5"/>
                </g>
                <g id="arrowRight" xlink:href="#dirArrow" transform="rotate(90) translate(36 -43)" onmousedown="handlePan(1,0)">
                  <use xlink:href="#rim" fill="#404040">
                        <set attributeName="fill" to="#808080" begin="arrowRight.mouseover" end="arrowRight.mouseout"/>
                  </use>
                  <path fill="none" stroke="white" stroke-width="1.5" d="M0,-3.0v7 M-2.5,-0.5L0,-3.0L2.5,-0.5"/>
                </g>
                <g id="arrowDown" xlink:href="#dirArrow" transform="rotate(180) translate(-30 -48)" onmousedown="handlePan(0,1)">
                  <use xlink:href="#rim" fill="#404040">
                        <set attributeName="fill" to="#808080" begin="arrowDown.mouseover" end="arrowDown.mouseout"/>
                  </use>
                  <path fill="none" stroke="white" stroke-width="1.5" d="M0,-3.0v7 M-2.5,-0.5L0,-3.0L2.5,-0.5"/>
                </g>
                <g id="arrowLeft" xlink:href="#dirArrow" transform="rotate(270) translate(-36 17)" onmousedown="handlePan(-1,0)">
                  <use xlink:href="#rim" fill="#404040">
                        <set attributeName="fill" to="#808080" begin="arrowLeft.mouseover" end="arrowLeft.mouseout"/>
                  </use>
                  <path fill="none" stroke="white" stroke-width="1.5" d="M0,-3.0v7 M-2.5,-0.5L0,-3.0L2.5,-0.5"/>
                </g>
        </g>
        <svg viewBox="0 0 15 15" width="100%" height="30px" preserveAspectRatio="xMaxYMin meet">
         <g id="arrow_out" transform="scale(0.3 0.3)">
          <a xlink:href="vabstractnode_8h__dep__incl_org.svg" target="_base">
           <rect id="button" ry="5" rx="5" y="6" x="6" height="38" width="38"
                fill="#f2f5e9" fill-opacity="0.5" stroke="#606060" stroke-width="1.0"/>
           <path id="arrow"
             d="M 11.500037,31.436501 C 11.940474,20.09759 22.043105,11.32322 32.158766,21.979434 L 37.068811,17.246167 C 37.068811,17.246167 37.088388,32 37.088388,32 L 22.160133,31.978069 C 22.160133,31.978069 26.997745,27.140456 26.997745,27.140456 C 18.528582,18.264221 13.291696,25.230495 11.500037,31.436501 z"
             style="fill:#404040;"/>
          </a>
         </g>
        </svg>
</svg>
