<?xml version="1.0" encoding="UTF-8" standalone="no"?>
<!DOCTYPE svg PUBLIC "-//W3C//DTD SVG 1.1//EN"
 "http://www.w3.org/Graphics/SVG/1.1/DTD/svg11.dtd">
<!-- Generated by graphviz version 2.43.0 (0)
 -->
<!-- Title: src/libs/vtools/tools/nodeDetails/vabstractnode.h Pages: 1 -->
<svg width="2107pt" height="262pt"
 viewBox="0.00 0.00 2106.50 262.00" xmlns="http://www.w3.org/2000/svg" xmlns:xlink="http://www.w3.org/1999/xlink">
<g id="graph0" class="graph" transform="scale(1 1) rotate(0) translate(4 258)">
<title>src/libs/vtools/tools/nodeDetails/vabstractnode.h</title>
<polygon fill="white" stroke="transparent" points="-4,4 -4,-258 2102.5,-258 2102.5,4 -4,4"/>
<!-- Node1 -->
<g id="node1" class="node">
<title>Node1</title>
<g id="a_node1"><a xlink:title=" ">
<polygon fill="#bfbfbf" stroke="black" points="1401.5,-223.5 1401.5,-253.5 1561.5,-253.5 1561.5,-223.5 1401.5,-223.5"/>
<text text-anchor="start" x="1409.5" y="-241.5" font-family="Helvetica,sans-Serif" font-size="10.00">src/libs/vtools/tools</text>
<text text-anchor="middle" x="1481.5" y="-230.5" font-family="Helvetica,sans-Serif" font-size="10.00">/nodeDetails/vabstractnode.h</text>
</a>
</g>
</g>
<!-- Node2 -->
<g id="node2" class="node">
<title>Node2</title>
<g id="a_node2"><a xlink:href="../../de/d51/anchorpoint__tool_8h.html" target="_top" xlink:title=" ">
<polygon fill="white" stroke="black" points="350,-145.5 350,-186.5 489,-186.5 489,-145.5 350,-145.5"/>
<text text-anchor="start" x="358" y="-174.5" font-family="Helvetica,sans-Serif" font-size="10.00">src/libs/vtools/tools</text>
<text text-anchor="start" x="358" y="-163.5" font-family="Helvetica,sans-Serif" font-size="10.00">/nodeDetails/anchorpoint</text>
<text text-anchor="middle" x="419.5" y="-152.5" font-family="Helvetica,sans-Serif" font-size="10.00">_tool.h</text>
</a>
</g>
</g>
<!-- Node1&#45;&gt;Node2 -->
<g id="edge1" class="edge">
<title>Node1&#45;&gt;Node2</title>
<path fill="none" stroke="midnightblue" d="M1391.34,-235.14C1182.24,-229.29 669.12,-212.72 498.5,-187 495.42,-186.54 492.29,-186 489.14,-185.42"/>
<polygon fill="midnightblue" stroke="midnightblue" points="1391.27,-238.64 1401.37,-235.42 1391.47,-231.64 1391.27,-238.64"/>
</g>
<!-- Node9 -->
<g id="node9" class="node">
<title>Node9</title>
<g id="a_node9"><a xlink:href="../../d0/d43/vnodearc_8cpp.html" target="_top" xlink:title=" ">
<polygon fill="white" stroke="black" points="1952.5,-73 1952.5,-103 2098.5,-103 2098.5,-73 1952.5,-73"/>
<text text-anchor="start" x="1960.5" y="-91" font-family="Helvetica,sans-Serif" font-size="10.00">src/libs/vtools/tools</text>
<text text-anchor="middle" x="2025.5" y="-80" font-family="Helvetica,sans-Serif" font-size="10.00">/nodeDetails/vnodearc.cpp</text>
</a>
</g>
</g>
<!-- Node1&#45;&gt;Node9 -->
<g id="edge8" class="edge">
<title>Node1&#45;&gt;Node9</title>
<path fill="none" stroke="midnightblue" d="M1571.52,-223.57C1609.36,-215.74 1653.16,-204.03 1690.5,-187 1719.79,-173.64 1719.87,-157.57 1749.5,-145 1830.24,-110.76 1857.76,-127.4 1943.5,-109 1951.95,-107.19 1960.87,-105.15 1969.58,-103.08"/>
<polygon fill="midnightblue" stroke="midnightblue" points="1570.64,-220.17 1561.53,-225.57 1572.02,-227.04 1570.64,-220.17"/>
</g>
<!-- Node10 -->
<g id="node10" class="node">
<title>Node10</title>
<g id="a_node10"><a xlink:href="../../df/d98/vnodearc_8h.html" target="_top" xlink:title=" ">
<polygon fill="white" stroke="black" points="1414,-151 1414,-181 1549,-181 1549,-151 1414,-151"/>
<text text-anchor="start" x="1422" y="-169" font-family="Helvetica,sans-Serif" font-size="10.00">src/libs/vtools/tools</text>
<text text-anchor="middle" x="1481.5" y="-158" font-family="Helvetica,sans-Serif" font-size="10.00">/nodeDetails/vnodearc.h</text>
</a>
</g>
</g>
<!-- Node1&#45;&gt;Node10 -->
<g id="edge9" class="edge">
<title>Node1&#45;&gt;Node10</title>
<path fill="none" stroke="midnightblue" d="M1481.5,-213.23C1481.5,-202.57 1481.5,-190.41 1481.5,-181.25"/>
<polygon fill="midnightblue" stroke="midnightblue" points="1478,-213.23 1481.5,-223.23 1485,-213.23 1478,-213.23"/>
</g>
<!-- Node12 -->
<g id="node12" class="node">
<title>Node12</title>
<g id="a_node12"><a xlink:href="../../df/d25/vnodeellipticalarc_8h.html" target="_top" xlink:title=" ">
<polygon fill="white" stroke="black" points="1219,-151 1219,-181 1396,-181 1396,-151 1219,-151"/>
<text text-anchor="start" x="1227" y="-169" font-family="Helvetica,sans-Serif" font-size="10.00">src/libs/vtools/tools</text>
<text text-anchor="middle" x="1307.5" y="-158" font-family="Helvetica,sans-Serif" font-size="10.00">/nodeDetails/vnodeellipticalarc.h</text>
</a>
</g>
</g>
<!-- Node1&#45;&gt;Node12 -->
<g id="edge14" class="edge">
<title>Node1&#45;&gt;Node12</title>
<path fill="none" stroke="midnightblue" d="M1437.07,-219.5C1407.6,-207.56 1369.48,-192.11 1342.23,-181.07"/>
<polygon fill="midnightblue" stroke="midnightblue" points="1436.12,-222.89 1446.71,-223.4 1438.75,-216.4 1436.12,-222.89"/>
</g>
<!-- Node13 -->
<g id="node13" class="node">
<title>Node13</title>
<g id="a_node13"><a xlink:href="../../d3/d3a/vnodeellipticalarc_8cpp.html" target="_top" xlink:title=" ">
<polygon fill="white" stroke="black" points="1746.5,-73 1746.5,-103 1934.5,-103 1934.5,-73 1746.5,-73"/>
<text text-anchor="start" x="1754.5" y="-91" font-family="Helvetica,sans-Serif" font-size="10.00">src/libs/vtools/tools</text>
<text text-anchor="middle" x="1840.5" y="-80" font-family="Helvetica,sans-Serif" font-size="10.00">/nodeDetails/vnodeellipticalarc.cpp</text>
</a>
</g>
</g>
<!-- Node1&#45;&gt;Node13 -->
<g id="edge19" class="edge">
<title>Node1&#45;&gt;Node13</title>
<path fill="none" stroke="midnightblue" d="M1541.83,-220.51C1570.88,-211.66 1605.96,-199.98 1636.5,-187 1673.1,-171.45 1679.78,-162.47 1715.5,-145 1746.37,-129.9 1782.21,-114.01 1807.58,-103.02"/>
<polygon fill="midnightblue" stroke="midnightblue" points="1540.79,-217.17 1532.22,-223.4 1542.81,-223.87 1540.79,-217.17"/>
</g>
<!-- Node14 -->
<g id="node14" class="node">
<title>Node14</title>
<g id="a_node14"><a xlink:href="../../df/d94/vnodespline_8cpp.html" target="_top" xlink:title=" ">
<polygon fill="white" stroke="black" points="1193,-73 1193,-103 1354,-103 1354,-73 1193,-73"/>
<text text-anchor="start" x="1201" y="-91" font-family="Helvetica,sans-Serif" font-size="10.00">src/libs/vtools/tools</text>
<text text-anchor="middle" x="1273.5" y="-80" font-family="Helvetica,sans-Serif" font-size="10.00">/nodeDetails/vnodespline.cpp</text>
</a>
</g>
</g>
<!-- Node1&#45;&gt;Node14 -->
<g id="edge20" class="edge">
<title>Node1&#45;&gt;Node14</title>
<path fill="none" stroke="midnightblue" d="M1525.41,-218.46C1538.07,-210.65 1550.38,-200.27 1557.5,-187 1566.32,-170.55 1569.43,-159.35 1557.5,-145 1529.47,-111.29 1406.46,-117.76 1363.5,-109 1354.4,-107.15 1344.81,-105.11 1335.41,-103.06"/>
<polygon fill="midnightblue" stroke="midnightblue" points="1523.6,-215.46 1516.64,-223.45 1527.06,-221.54 1523.6,-215.46"/>
</g>
<!-- Node15 -->
<g id="node15" class="node">
<title>Node15</title>
<g id="a_node15"><a xlink:href="../../d5/dcd/vabstractnode_8cpp.html" target="_top" xlink:title=" ">
<polygon fill="white" stroke="black" points="1758,-151 1758,-181 1929,-181 1929,-151 1758,-151"/>
<text text-anchor="start" x="1766" y="-169" font-family="Helvetica,sans-Serif" font-size="10.00">src/libs/vtools/tools</text>
<text text-anchor="middle" x="1843.5" y="-158" font-family="Helvetica,sans-Serif" font-size="10.00">/nodeDetails/vabstractnode.cpp</text>
</a>
</g>
</g>
<!-- Node1&#45;&gt;Node15 -->
<g id="edge21" class="edge">
<title>Node1&#45;&gt;Node15</title>
<path fill="none" stroke="midnightblue" d="M1565.01,-221.56C1616.49,-211.69 1683.84,-198.72 1743.5,-187 1753.23,-185.09 1763.49,-183.06 1773.58,-181.05"/>
<polygon fill="midnightblue" stroke="midnightblue" points="1564.1,-218.17 1554.93,-223.49 1565.41,-225.04 1564.1,-218.17"/>
</g>
<!-- Node16 -->
<g id="node16" class="node">
<title>Node16</title>
<g id="a_node16"><a xlink:href="../../d0/dd2/vnodespline_8h.html" target="_top" xlink:title=" ">
<polygon fill="white" stroke="black" points="700,-151 700,-181 849,-181 849,-151 700,-151"/>
<text text-anchor="start" x="708" y="-169" font-family="Helvetica,sans-Serif" font-size="10.00">src/libs/vtools/tools</text>
<text text-anchor="middle" x="774.5" y="-158" font-family="Helvetica,sans-Serif" font-size="10.00">/nodeDetails/vnodespline.h</text>
</a>
</g>
</g>
<!-- Node1&#45;&gt;Node16 -->
<g id="edge22" class="edge">
<title>Node1&#45;&gt;Node16</title>
<path fill="none" stroke="midnightblue" d="M1391.21,-234.6C1269.38,-229.69 1045.92,-217.14 857.5,-187 847.69,-185.43 837.34,-183.31 827.39,-181.04"/>
<polygon fill="midnightblue" stroke="midnightblue" points="1391.11,-238.1 1401.24,-235 1391.38,-231.11 1391.11,-238.1"/>
</g>
<!-- Node17 -->
<g id="node17" class="node">
<title>Node17</title>
<g id="a_node17"><a xlink:href="../../d4/d7b/vnodepoint_8cpp.html" target="_top" xlink:title=" ">
<polygon fill="white" stroke="black" points="1572.5,-73 1572.5,-103 1728.5,-103 1728.5,-73 1572.5,-73"/>
<text text-anchor="start" x="1580.5" y="-91" font-family="Helvetica,sans-Serif" font-size="10.00">src/libs/vtools/tools</text>
<text text-anchor="middle" x="1650.5" y="-80" font-family="Helvetica,sans-Serif" font-size="10.00">/nodeDetails/vnodepoint.cpp</text>
</a>
</g>
</g>
<!-- Node1&#45;&gt;Node17 -->
<g id="edge27" class="edge">
<title>Node1&#45;&gt;Node17</title>
<path fill="none" stroke="midnightblue" d="M1554.78,-219.94C1574.43,-212.4 1594.4,-201.8 1609.5,-187 1633.34,-163.64 1643.97,-124.32 1648.14,-103.29"/>
<polygon fill="midnightblue" stroke="midnightblue" points="1553.4,-216.72 1545.18,-223.4 1555.77,-223.3 1553.4,-216.72"/>
</g>
<!-- Node18 -->
<g id="node18" class="node">
<title>Node18</title>
<g id="a_node18"><a xlink:href="../../d2/dad/vnodesplinepath_8cpp.html" target="_top" xlink:title=" ">
<polygon fill="white" stroke="black" points="1372.5,-73 1372.5,-103 1554.5,-103 1554.5,-73 1372.5,-73"/>
<text text-anchor="start" x="1380.5" y="-91" font-family="Helvetica,sans-Serif" font-size="10.00">src/libs/vtools/tools</text>
<text text-anchor="middle" x="1463.5" y="-80" font-family="Helvetica,sans-Serif" font-size="10.00">/nodeDetails/vnodesplinepath.cpp</text>
</a>
</g>
</g>
<!-- Node1&#45;&gt;Node18 -->
<g id="edge28" class="edge">
<title>Node1&#45;&gt;Node18</title>
<path fill="none" stroke="midnightblue" d="M1551.79,-219.42C1567.45,-211.99 1582.16,-201.57 1591.5,-187 1601.58,-171.29 1601.72,-160.62 1591.5,-145 1578.02,-124.4 1555.11,-111.33 1532.37,-103.06"/>
<polygon fill="midnightblue" stroke="midnightblue" points="1550.27,-216.26 1542.49,-223.46 1553.06,-222.68 1550.27,-216.26"/>
</g>
<!-- Node19 -->
<g id="node19" class="node">
<title>Node19</title>
<g id="a_node19"><a xlink:href="../../df/d88/vnodesplinepath_8h.html" target="_top" xlink:title=" ">
<polygon fill="white" stroke="black" points="867,-151 867,-181 1038,-181 1038,-151 867,-151"/>
<text text-anchor="start" x="875" y="-169" font-family="Helvetica,sans-Serif" font-size="10.00">src/libs/vtools/tools</text>
<text text-anchor="middle" x="952.5" y="-158" font-family="Helvetica,sans-Serif" font-size="10.00">/nodeDetails/vnodesplinepath.h</text>
</a>
</g>
</g>
<!-- Node1&#45;&gt;Node19 -->
<g id="edge29" class="edge">
<title>Node1&#45;&gt;Node19</title>
<path fill="none" stroke="midnightblue" d="M1391.44,-229.54C1303.23,-221.15 1165.16,-206.47 1046.5,-187 1036.04,-185.28 1024.99,-183.19 1014.28,-181.01"/>
<polygon fill="midnightblue" stroke="midnightblue" points="1391.13,-233.02 1401.41,-230.48 1391.78,-226.06 1391.13,-233.02"/>
</g>
<!-- Node20 -->
<g id="node20" class="node">
<title>Node20</title>
<g id="a_node20"><a xlink:href="../../d5/d9d/vtoolinternalpath_8h.html" target="_top" xlink:title=" ">
<polygon fill="white" stroke="black" points="507.5,-151 507.5,-181 681.5,-181 681.5,-151 507.5,-151"/>
<text text-anchor="start" x="515.5" y="-169" font-family="Helvetica,sans-Serif" font-size="10.00">src/libs/vtools/tools</text>
<text text-anchor="middle" x="594.5" y="-158" font-family="Helvetica,sans-Serif" font-size="10.00">/nodeDetails/vtoolinternalpath.h</text>
</a>
</g>
</g>
<!-- Node1&#45;&gt;Node20 -->
<g id="edge34" class="edge">
<title>Node1&#45;&gt;Node20</title>
<path fill="none" stroke="midnightblue" d="M1391.07,-235.89C1243.71,-232.33 942.85,-221.17 690.5,-187 679.03,-185.45 666.88,-183.31 655.22,-181"/>
<polygon fill="midnightblue" stroke="midnightblue" points="1391.33,-239.39 1401.41,-236.13 1391.5,-232.4 1391.33,-239.39"/>
</g>
<!-- Node23 -->
<g id="node23" class="node">
<title>Node23</title>
<g id="a_node23"><a xlink:href="../../d5/df0/vnodepoint_8h.html" target="_top" xlink:title=" ">
<polygon fill="white" stroke="black" points="1056,-151 1056,-181 1201,-181 1201,-151 1056,-151"/>
<text text-anchor="start" x="1064" y="-169" font-family="Helvetica,sans-Serif" font-size="10.00">src/libs/vtools/tools</text>
<text text-anchor="middle" x="1128.5" y="-158" font-family="Helvetica,sans-Serif" font-size="10.00">/nodeDetails/vnodepoint.h</text>
</a>
</g>
</g>
<!-- Node1&#45;&gt;Node23 -->
<g id="edge41" class="edge">
<title>Node1&#45;&gt;Node23</title>
<path fill="none" stroke="midnightblue" d="M1391.15,-222.09C1338.09,-212.7 1269.81,-200.03 1209.5,-187 1201.15,-185.19 1192.34,-183.16 1183.74,-181.1"/>
<polygon fill="midnightblue" stroke="midnightblue" points="1390.76,-225.58 1401.21,-223.87 1391.97,-218.68 1390.76,-225.58"/>
</g>
<!-- Node3 -->
<g id="node3" class="node">
<title>Node3</title>
<g id="a_node3"><a xlink:href="../../d8/dd9/mainwindow_8cpp.html" target="_top" xlink:title=" ">
<polygon fill="white" stroke="black" points="157.5,-78.5 157.5,-97.5 345.5,-97.5 345.5,-78.5 157.5,-78.5"/>
<text text-anchor="middle" x="251.5" y="-85.5" font-family="Helvetica,sans-Serif" font-size="10.00">src/app/seamly2d/mainwindow.cpp</text>
</a>
</g>
</g>
<!-- Node2&#45;&gt;Node3 -->
<g id="edge2" class="edge">
<title>Node2&#45;&gt;Node3</title>
<path fill="none" stroke="midnightblue" d="M366.75,-141.14C333.89,-126.27 293.6,-108.05 270.4,-97.55"/>
<polygon fill="midnightblue" stroke="midnightblue" points="365.68,-144.5 376.24,-145.43 368.57,-138.12 365.68,-144.5"/>
</g>
<!-- Node4 -->
<g id="node4" class="node">
<title>Node4</title>
<g id="a_node4"><a xlink:href="../../d9/d3a/anchorpoint__tool_8cpp.html" target="_top" xlink:title=" ">
<polygon fill="white" stroke="black" points="0,-67.5 0,-108.5 139,-108.5 139,-67.5 0,-67.5"/>
<text text-anchor="start" x="8" y="-96.5" font-family="Helvetica,sans-Serif" font-size="10.00">src/libs/vtools/tools</text>
<text text-anchor="start" x="8" y="-85.5" font-family="Helvetica,sans-Serif" font-size="10.00">/nodeDetails/anchorpoint</text>
<text text-anchor="middle" x="69.5" y="-74.5" font-family="Helvetica,sans-Serif" font-size="10.00">_tool.cpp</text>
</a>
</g>
</g>
<!-- Node2&#45;&gt;Node4 -->
<g id="edge3" class="edge">
<title>Node2&#45;&gt;Node4</title>
<path fill="none" stroke="midnightblue" d="M340.1,-149.55C285.97,-138.79 212.74,-123.76 148.5,-109 145.47,-108.3 142.37,-107.58 139.25,-106.84"/>
<polygon fill="midnightblue" stroke="midnightblue" points="339.49,-153 349.98,-151.51 340.85,-146.13 339.49,-153"/>
</g>
<!-- Node5 -->
<g id="node5" class="node">
<title>Node5</title>
<g id="a_node5"><a xlink:href="../../d5/dcf/nodedetails_8h.html" target="_top" xlink:title=" ">
<polygon fill="white" stroke="black" points="879,-73 879,-103 1026,-103 1026,-73 879,-73"/>
<text text-anchor="start" x="887" y="-91" font-family="Helvetica,sans-Serif" font-size="10.00">src/libs/vtools/tools</text>
<text text-anchor="middle" x="952.5" y="-80" font-family="Helvetica,sans-Serif" font-size="10.00">/nodeDetails/nodedetails.h</text>
</a>
</g>
</g>
<!-- Node2&#45;&gt;Node5 -->
<g id="edge4" class="edge">
<title>Node2&#45;&gt;Node5</title>
<path fill="none" stroke="midnightblue" d="M499.13,-145.04C663.49,-117.35 709.32,-135.93 869.5,-109 879.15,-107.38 889.34,-105.26 899.15,-103.02"/>
<polygon fill="midnightblue" stroke="midnightblue" points="498.43,-141.61 489.16,-146.76 499.61,-148.51 498.43,-141.61"/>
</g>
<!-- Node8 -->
<g id="node8" class="node">
<title>Node8</title>
<g id="a_node8"><a xlink:href="../../d4/d9f/union__tool_8cpp.html" target="_top" xlink:title=" ">
<polygon fill="white" stroke="black" points="750,-73 750,-103 861,-103 861,-73 750,-73"/>
<text text-anchor="start" x="758" y="-91" font-family="Helvetica,sans-Serif" font-size="10.00">src/libs/vtools/tools</text>
<text text-anchor="middle" x="805.5" y="-80" font-family="Helvetica,sans-Serif" font-size="10.00">/union_tool.cpp</text>
</a>
</g>
</g>
<!-- Node2&#45;&gt;Node8 -->
<g id="edge7" class="edge">
<title>Node2&#45;&gt;Node8</title>
<path fill="none" stroke="midnightblue" d="M499.17,-144.98C606.9,-124.15 637.56,-132.35 740.5,-109 747.87,-107.33 755.62,-105.24 763.09,-103.05"/>
<polygon fill="midnightblue" stroke="midnightblue" points="498.33,-141.58 489.2,-146.95 499.69,-148.45 498.33,-141.58"/>
</g>
<!-- Node6 -->
<g id="node6" class="node">
<title>Node6</title>
<g id="a_node6"><a xlink:href="../../d5/da5/tools_8h.html" target="_top" xlink:title=" ">
<polygon fill="white" stroke="black" points="832,-0.5 832,-30.5 943,-30.5 943,-0.5 832,-0.5"/>
<text text-anchor="start" x="840" y="-18.5" font-family="Helvetica,sans-Serif" font-size="10.00">src/libs/vtools/tools</text>
<text text-anchor="middle" x="887.5" y="-7.5" font-family="Helvetica,sans-Serif" font-size="10.00">/tools.h</text>
</a>
</g>
</g>
<!-- Node5&#45;&gt;Node6 -->
<g id="edge5" class="edge">
<title>Node5&#45;&gt;Node6</title>
<path fill="none" stroke="midnightblue" d="M932.55,-65.36C922.18,-54.11 909.79,-40.68 900.63,-30.75"/>
<polygon fill="midnightblue" stroke="midnightblue" points="929.99,-67.75 939.35,-72.73 935.14,-63.01 929.99,-67.75"/>
</g>
<!-- Node7 -->
<g id="node7" class="node">
<title>Node7</title>
<g id="a_node7"><a xlink:href="../../d9/d4e/vabstracttool_8cpp.html" target="_top" xlink:title=" ">
<polygon fill="white" stroke="black" points="961,-0.5 961,-30.5 1072,-30.5 1072,-0.5 961,-0.5"/>
<text text-anchor="start" x="969" y="-18.5" font-family="Helvetica,sans-Serif" font-size="10.00">src/libs/vtools/tools</text>
<text text-anchor="middle" x="1016.5" y="-7.5" font-family="Helvetica,sans-Serif" font-size="10.00">/vabstracttool.cpp</text>
</a>
</g>
</g>
<!-- Node5&#45;&gt;Node7 -->
<g id="edge6" class="edge">
<title>Node5&#45;&gt;Node7</title>
<path fill="none" stroke="midnightblue" d="M972.44,-65.04C982.59,-53.86 994.64,-40.58 1003.57,-30.75"/>
<polygon fill="midnightblue" stroke="midnightblue" points="969.58,-62.98 965.45,-72.73 974.76,-67.68 969.58,-62.98"/>
</g>
<!-- Node10&#45;&gt;Node5 -->
<g id="edge11" class="edge">
<title>Node10&#45;&gt;Node5</title>
<path fill="none" stroke="midnightblue" d="M1422.13,-148.59C1416.2,-147.25 1410.25,-146.02 1404.5,-145 1241.82,-116.14 1197.39,-136.64 1034.5,-109 1024.97,-107.38 1014.9,-105.27 1005.2,-103.02"/>
<polygon fill="midnightblue" stroke="midnightblue" points="1421.51,-152.04 1432.05,-150.93 1423.12,-145.23 1421.51,-152.04"/>
</g>
<!-- Node10&#45;&gt;Node8 -->
<g id="edge12" class="edge">
<title>Node10&#45;&gt;Node8</title>
<path fill="none" stroke="midnightblue" d="M1423.15,-148.63C1416.89,-147.24 1410.58,-145.99 1404.5,-145 1169.25,-106.88 1103.75,-152.85 869.5,-109 861.6,-107.52 853.32,-105.39 845.42,-103.06"/>
<polygon fill="midnightblue" stroke="midnightblue" points="1422.38,-152.04 1432.91,-150.91 1423.97,-145.23 1422.38,-152.04"/>
</g>
<!-- Node10&#45;&gt;Node9 -->
<g id="edge10" class="edge">
<title>Node10&#45;&gt;Node9</title>
<path fill="none" stroke="midnightblue" d="M1559.29,-158.41C1651.45,-149.95 1809.42,-133.39 1943.5,-109 1952.73,-107.32 1962.47,-105.23 1971.88,-103.04"/>
<polygon fill="midnightblue" stroke="midnightblue" points="1558.85,-154.94 1549.21,-159.33 1559.48,-161.91 1558.85,-154.94"/>
</g>
<!-- Node11 -->
<g id="node11" class="node">
<title>Node11</title>
<g id="a_node11"><a xlink:href="../../d8/dea/pattern__piece__tool_8cpp.html" target="_top" xlink:title=" ">
<polygon fill="white" stroke="black" points="1044,-73 1044,-103 1175,-103 1175,-73 1044,-73"/>
<text text-anchor="start" x="1052" y="-91" font-family="Helvetica,sans-Serif" font-size="10.00">src/libs/vtools/tools</text>
<text text-anchor="middle" x="1109.5" y="-80" font-family="Helvetica,sans-Serif" font-size="10.00">/pattern_piece_tool.cpp</text>
</a>
</g>
</g>
<!-- Node10&#45;&gt;Node11 -->
<g id="edge13" class="edge">
<title>Node10&#45;&gt;Node11</title>
<path fill="none" stroke="midnightblue" d="M1420.57,-148.62C1415.15,-147.33 1409.74,-146.1 1404.5,-145 1307.12,-124.47 1280.77,-130.01 1183.5,-109 1175.43,-107.26 1166.94,-105.19 1158.69,-103.05"/>
<polygon fill="midnightblue" stroke="midnightblue" points="1419.75,-152.02 1430.3,-150.99 1421.41,-145.22 1419.75,-152.02"/>
</g>
<!-- Node12&#45;&gt;Node5 -->
<g id="edge15" class="edge">
<title>Node12&#45;&gt;Node5</title>
<path fill="none" stroke="midnightblue" d="M1228.63,-148.89C1151.45,-133.12 1044.09,-111.15 1034.5,-109 1026.21,-107.14 1017.46,-105.09 1008.9,-103.05"/>
<polygon fill="midnightblue" stroke="midnightblue" points="1228.33,-152.41 1238.83,-150.98 1229.73,-145.55 1228.33,-152.41"/>
</g>
<!-- Node12&#45;&gt;Node8 -->
<g id="edge17" class="edge">
<title>Node12&#45;&gt;Node8</title>
<path fill="none" stroke="midnightblue" d="M1233.26,-149.07C1225.26,-147.59 1217.22,-146.19 1209.5,-145 1059.33,-121.78 1018.3,-139.81 869.5,-109 861.86,-107.42 853.84,-105.29 846.15,-103.02"/>
<polygon fill="midnightblue" stroke="midnightblue" points="1232.87,-152.56 1243.35,-150.99 1234.18,-145.68 1232.87,-152.56"/>
</g>
<!-- Node12&#45;&gt;Node11 -->
<g id="edge18" class="edge">
<title>Node12&#45;&gt;Node11</title>
<path fill="none" stroke="midnightblue" d="M1261.18,-147.22C1226.08,-133.75 1178.53,-115.5 1146.08,-103.04"/>
<polygon fill="midnightblue" stroke="midnightblue" points="1260.13,-150.57 1270.72,-150.88 1262.64,-144.03 1260.13,-150.57"/>
</g>
<!-- Node12&#45;&gt;Node13 -->
<g id="edge16" class="edge">
<title>Node12&#45;&gt;Node13</title>
<path fill="none" stroke="midnightblue" d="M1381.17,-149.04C1389.03,-147.57 1396.92,-146.19 1404.5,-145 1551.57,-121.94 1590.3,-131.21 1737.5,-109 1748.85,-107.29 1760.85,-105.21 1772.49,-103.04"/>
<polygon fill="midnightblue" stroke="midnightblue" points="1380.42,-145.62 1371.26,-150.95 1381.74,-152.5 1380.42,-145.62"/>
</g>
<!-- Node16&#45;&gt;Node5 -->
<g id="edge23" class="edge">
<title>Node16&#45;&gt;Node5</title>
<path fill="none" stroke="midnightblue" d="M816.96,-146.87C848.42,-133.44 890.69,-115.39 919.61,-103.04"/>
<polygon fill="midnightblue" stroke="midnightblue" points="815.39,-143.74 807.56,-150.88 818.13,-150.18 815.39,-143.74"/>
</g>
<!-- Node16&#45;&gt;Node8 -->
<g id="edge25" class="edge">
<title>Node16&#45;&gt;Node8</title>
<path fill="none" stroke="midnightblue" d="M784.15,-141.33C789.25,-128.85 795.33,-113.94 799.7,-103.23"/>
<polygon fill="midnightblue" stroke="midnightblue" points="780.87,-140.12 780.33,-150.7 787.35,-142.77 780.87,-140.12"/>
</g>
<!-- Node16&#45;&gt;Node11 -->
<g id="edge26" class="edge">
<title>Node16&#45;&gt;Node11</title>
<path fill="none" stroke="midnightblue" d="M841.38,-148.66C846.83,-147.4 852.25,-146.16 857.5,-145 935.87,-127.59 956.35,-127.35 1034.5,-109 1042.24,-107.18 1050.4,-105.14 1058.37,-103.07"/>
<polygon fill="midnightblue" stroke="midnightblue" points="840.53,-145.27 831.59,-150.96 842.12,-152.09 840.53,-145.27"/>
</g>
<!-- Node16&#45;&gt;Node14 -->
<g id="edge24" class="edge">
<title>Node16&#45;&gt;Node14</title>
<path fill="none" stroke="midnightblue" d="M838.38,-148.75C844.82,-147.37 851.27,-146.09 857.5,-145 1001.09,-119.88 1039.69,-132.85 1183.5,-109 1193.61,-107.32 1204.28,-105.24 1214.62,-103.05"/>
<polygon fill="midnightblue" stroke="midnightblue" points="837.32,-145.4 828.32,-150.99 838.84,-152.23 837.32,-145.4"/>
</g>
<!-- Node19&#45;&gt;Node5 -->
<g id="edge30" class="edge">
<title>Node19&#45;&gt;Node5</title>
<path fill="none" stroke="midnightblue" d="M952.5,-140.59C952.5,-128.26 952.5,-113.72 952.5,-103.23"/>
<polygon fill="midnightblue" stroke="midnightblue" points="949,-140.7 952.5,-150.7 956,-140.71 949,-140.7"/>
</g>
<!-- Node19&#45;&gt;Node8 -->
<g id="edge32" class="edge">
<title>Node19&#45;&gt;Node8</title>
<path fill="none" stroke="midnightblue" d="M916.09,-146.17C890.25,-132.82 856.13,-115.18 832.66,-103.04"/>
<polygon fill="midnightblue" stroke="midnightblue" points="914.7,-149.4 925.19,-150.88 917.92,-143.18 914.7,-149.4"/>
</g>
<!-- Node19&#45;&gt;Node11 -->
<g id="edge33" class="edge">
<title>Node19&#45;&gt;Node11</title>
<path fill="none" stroke="midnightblue" d="M990.67,-146.52C1018.34,-133.13 1055.21,-115.28 1080.49,-103.04"/>
<polygon fill="midnightblue" stroke="midnightblue" points="989.14,-143.38 981.66,-150.88 992.19,-149.68 989.14,-143.38"/>
</g>
<!-- Node19&#45;&gt;Node18 -->
<g id="edge31" class="edge">
<title>Node19&#45;&gt;Node18</title>
<path fill="none" stroke="midnightblue" d="M1024.14,-149.01C1031.67,-147.56 1039.23,-146.18 1046.5,-145 1186.01,-122.27 1222.83,-130.75 1362.5,-109 1373.63,-107.27 1385.39,-105.18 1396.81,-103.01"/>
<polygon fill="midnightblue" stroke="midnightblue" points="1023.41,-145.59 1014.28,-150.97 1024.77,-152.46 1023.41,-145.59"/>
</g>
<!-- Node20&#45;&gt;Node3 -->
<g id="edge35" class="edge">
<title>Node20&#45;&gt;Node3</title>
<path fill="none" stroke="midnightblue" d="M521.43,-148.81C450.58,-133.11 345.85,-109.91 289.95,-97.52"/>
<polygon fill="midnightblue" stroke="midnightblue" points="520.67,-152.23 531.19,-150.97 522.18,-145.39 520.67,-152.23"/>
</g>
<!-- Node20&#45;&gt;Node5 -->
<g id="edge36" class="edge">
<title>Node20&#45;&gt;Node5</title>
<path fill="none" stroke="midnightblue" d="M671.65,-148.88C678.02,-147.56 684.37,-146.25 690.5,-145 770,-128.72 790.26,-126.51 869.5,-109 877.89,-107.15 886.75,-105.1 895.42,-103.06"/>
<polygon fill="midnightblue" stroke="midnightblue" points="670.71,-145.5 661.63,-150.95 672.13,-152.35 670.71,-145.5"/>
</g>
<!-- Node20&#45;&gt;Node8 -->
<g id="edge38" class="edge">
<title>Node20&#45;&gt;Node8</title>
<path fill="none" stroke="midnightblue" d="M643.39,-147.39C680.83,-133.9 731.79,-115.55 766.52,-103.04"/>
<polygon fill="midnightblue" stroke="midnightblue" points="641.92,-144.2 633.69,-150.88 644.29,-150.79 641.92,-144.2"/>
</g>
<!-- Node20&#45;&gt;Node11 -->
<g id="edge39" class="edge">
<title>Node20&#45;&gt;Node11</title>
<path fill="none" stroke="midnightblue" d="M667.22,-149.04C675.06,-147.57 682.93,-146.18 690.5,-145 842.38,-121.29 883.33,-136.89 1034.5,-109 1043.25,-107.39 1052.47,-105.28 1061.34,-103.03"/>
<polygon fill="midnightblue" stroke="midnightblue" points="666.48,-145.62 657.33,-150.96 667.82,-152.49 666.48,-145.62"/>
</g>
<!-- Node21 -->
<g id="node21" class="node">
<title>Node21</title>
<g id="a_node21"><a xlink:href="../../d3/dd9/vtoolinternalpath_8cpp.html" target="_top" xlink:title=" ">
<polygon fill="white" stroke="black" points="364,-73 364,-103 549,-103 549,-73 364,-73"/>
<text text-anchor="start" x="372" y="-91" font-family="Helvetica,sans-Serif" font-size="10.00">src/libs/vtools/tools</text>
<text text-anchor="middle" x="456.5" y="-80" font-family="Helvetica,sans-Serif" font-size="10.00">/nodeDetails/vtoolinternalpath.cpp</text>
</a>
</g>
</g>
<!-- Node20&#45;&gt;Node21 -->
<g id="edge37" class="edge">
<title>Node20&#45;&gt;Node21</title>
<path fill="none" stroke="midnightblue" d="M560,-146C535.78,-132.66 503.93,-115.12 482,-103.04"/>
<polygon fill="midnightblue" stroke="midnightblue" points="558.42,-149.12 568.87,-150.88 561.8,-142.99 558.42,-149.12"/>
</g>
<!-- Node22 -->
<g id="node22" class="node">
<title>Node22</title>
<g id="a_node22"><a xlink:href="../../dd/d3a/savepiecepathoptions_8cpp.html" target="_top" xlink:title=" ">
<polygon fill="white" stroke="black" points="567,-73 567,-103 732,-103 732,-73 567,-73"/>
<text text-anchor="start" x="575" y="-91" font-family="Helvetica,sans-Serif" font-size="10.00">src/libs/vtools/undocommands</text>
<text text-anchor="middle" x="649.5" y="-80" font-family="Helvetica,sans-Serif" font-size="10.00">/savepiecepathoptions.cpp</text>
</a>
</g>
</g>
<!-- Node20&#45;&gt;Node22 -->
<g id="edge40" class="edge">
<title>Node20&#45;&gt;Node22</title>
<path fill="none" stroke="midnightblue" d="M610.83,-142.44C620.02,-129.73 631.22,-114.25 639.2,-103.23"/>
<polygon fill="midnightblue" stroke="midnightblue" points="607.87,-140.55 604.85,-150.7 613.54,-144.66 607.87,-140.55"/>
</g>
<!-- Node23&#45;&gt;Node5 -->
<g id="edge42" class="edge">
<title>Node23&#45;&gt;Node5</title>
<path fill="none" stroke="midnightblue" d="M1086.52,-146.87C1055.41,-133.44 1013.61,-115.39 985.02,-103.04"/>
<polygon fill="midnightblue" stroke="midnightblue" points="1085.24,-150.13 1095.81,-150.88 1088.02,-143.71 1085.24,-150.13"/>
</g>
<!-- Node23&#45;&gt;Node8 -->
<g id="edge44" class="edge">
<title>Node23&#45;&gt;Node8</title>
<path fill="none" stroke="midnightblue" d="M1062.02,-148.56C1056.78,-147.33 1051.55,-146.13 1046.5,-145 968.16,-127.49 947.25,-129 869.5,-109 862.62,-107.23 855.39,-105.17 848.36,-103.06"/>
<polygon fill="midnightblue" stroke="midnightblue" points="1061.57,-152.05 1072.11,-150.94 1063.18,-145.23 1061.57,-152.05"/>
</g>
<!-- Node23&#45;&gt;Node11 -->
<g id="edge45" class="edge">
<title>Node23&#45;&gt;Node11</title>
<path fill="none" stroke="midnightblue" d="M1122.49,-140.96C1119.39,-128.55 1115.71,-113.83 1113.06,-103.23"/>
<polygon fill="midnightblue" stroke="midnightblue" points="1119.11,-141.85 1124.93,-150.7 1125.9,-140.15 1119.11,-141.85"/>
</g>
<!-- Node23&#45;&gt;Node17 -->
<g id="edge43" class="edge">
<title>Node23&#45;&gt;Node17</title>
<path fill="none" stroke="midnightblue" d="M1190.82,-148.68C1197.1,-147.31 1203.41,-146.06 1209.5,-145 1365.32,-117.98 1407.47,-134.77 1563.5,-109 1573.44,-107.36 1583.94,-105.26 1594.08,-103.05"/>
<polygon fill="midnightblue" stroke="midnightblue" points="1189.98,-145.28 1180.99,-150.9 1191.52,-152.11 1189.98,-145.28"/>
</g>
</g>
</svg>
