<?xml version="1.0" encoding="UTF-8" standalone="no"?>
<!DOCTYPE svg PUBLIC "-//W3C//DTD SVG 1.1//EN"
 "http://www.w3.org/Graphics/SVG/1.1/DTD/svg11.dtd">
<!-- Generated by graphviz version 2.43.0 (0)
 -->
<!-- Title: src/libs/vtools/tools/nodeDetails/vabstractnode.h Pages: 1 -->
<!--zoomable 262 -->
<svg id="main" version="1.1" xmlns="http://www.w3.org/2000/svg" xmlns:xlink="http://www.w3.org/1999/xlink" xml:space="preserve" onload="init(evt)">
<style type="text/css"><![CDATA[
.edge:hover path { stroke: red; }
.edge:hover polygon { stroke: red; fill: red; }
]]></style>
<script type="text/javascript"><![CDATA[
var edges = document.getElementsByTagName('g');
if (edges && edges.length) {
  for (var i=0;i<edges.length;i++) {
    if (edges[i].id.substr(0,4)=='edge') {
      edges[i].setAttribute('class','edge');
    }
  }
}
]]></script>
        <defs>
                <circle id="rim" cx="0" cy="0" r="7"/>
                <circle id="rim2" cx="0" cy="0" r="3.5"/>
                <g id="zoomPlus">
                        <use xlink:href="#rim" fill="#404040">
                                <set attributeName="fill" to="#808080" begin="zoomplus.mouseover" end="zoomplus.mouseout"/>
                        </use>
                        <path d="M-4,0h8M0,-4v8" fill="none" stroke="white" stroke-width="1.5" pointer-events="none"/>
                </g>
                <g id="zoomMin">
                        <use xlink:href="#rim" fill="#404040">
                                <set attributeName="fill" to="#808080" begin="zoomminus.mouseover" end="zoomminus.mouseout"/>
                        </use>
                        <path d="M-4,0h8" fill="none" stroke="white" stroke-width="1.5" pointer-events="none"/>
                </g>
                <g id="dirArrow">
                        <path fill="none" stroke="white" stroke-width="1.5" d="M0,-3.0v7 M-2.5,-0.5L0,-3.0L2.5,-0.5"/>
                </g>
               <g id="resetDef">
                       <use xlink:href="#rim2" fill="#404040">
                               <set attributeName="fill" to="#808080" begin="reset.mouseover" end="reset.mouseout"/>
                       </use>
               </g>
        </defs>

<script type="text/javascript">
var viewWidth = 1901;
var viewHeight = 262;
var sectionId = 'dynsection-1';
</script>
<script xlink:href="../../svgpan.js"/>
<svg id="graph" class="graph">
<g id="viewport">
<title>src/libs/vtools/tools/nodeDetails/vabstractnode.h</title>
<polygon fill="white" stroke="transparent" points="-4,4 -4,-258 1897,-258 1897,4 -4,4"/>
<!-- Node1 -->
<g id="node1" class="node">
<title>Node1</title>
<g id="a_node1"><a xlink:title=" ">
<polygon fill="#bfbfbf" stroke="black" points="844.5,-223.5 844.5,-253.5 1004.5,-253.5 1004.5,-223.5 844.5,-223.5"/>
<text text-anchor="start" x="852.5" y="-241.5" font-family="Helvetica,sans-Serif" font-size="10.00">src/libs/vtools/tools</text>
<text text-anchor="middle" x="924.5" y="-230.5" font-family="Helvetica,sans-Serif" font-size="10.00">/nodeDetails/vabstractnode.h</text>
</a>
</g>
</g>
<!-- Node2 -->
<g id="node2" class="node">
<title>Node2</title>
<g id="a_node2"><a xlink:href="../../de/d51/anchorpoint__tool_8h.html" target="_top" xlink:title=" ">
<polygon fill="white" stroke="black" points="158,-145.5 158,-186.5 297,-186.5 297,-145.5 158,-145.5"/>
<text text-anchor="start" x="166" y="-174.5" font-family="Helvetica,sans-Serif" font-size="10.00">src/libs/vtools/tools</text>
<text text-anchor="start" x="166" y="-163.5" font-family="Helvetica,sans-Serif" font-size="10.00">/nodeDetails/anchorpoint</text>
<text text-anchor="middle" x="227.5" y="-152.5" font-family="Helvetica,sans-Serif" font-size="10.00">_tool.h</text>
</a>
</g>
</g>
<!-- Node1&#45;&gt;Node2 -->
<g id="edge1" class="edge">
<title>Node1&#45;&gt;Node2</title>
<path fill="none" stroke="midnightblue" d="M834.16,-234.82C713.26,-230.17 492.49,-217.92 306.5,-187 303.43,-186.49 300.3,-185.92 297.15,-185.3"/>
<polygon fill="midnightblue" stroke="midnightblue" points="834.35,-238.33 844.47,-235.21 834.61,-231.34 834.35,-238.33"/>
</g>
<!-- Node8 -->
<g id="node8" class="node">
<title>Node8</title>
<g id="a_node8"><a xlink:href="../../d0/d43/vnodearc_8cpp.html" target="_top" xlink:title=" ">
<polygon fill="white" stroke="black" points="157.5,-73 157.5,-103 303.5,-103 303.5,-73 157.5,-73"/>
<text text-anchor="start" x="165.5" y="-91" font-family="Helvetica,sans-Serif" font-size="10.00">src/libs/vtools/tools</text>
<text text-anchor="middle" x="230.5" y="-80" font-family="Helvetica,sans-Serif" font-size="10.00">/nodeDetails/vnodearc.cpp</text>
</a>
</g>
</g>
<!-- Node1&#45;&gt;Node8 -->
<g id="edge7" class="edge">
<title>Node1&#45;&gt;Node8</title>
<path fill="none" stroke="midnightblue" d="M834.18,-234.99C632.06,-228.94 159.09,-212.15 135.5,-187 122.73,-173.39 126.24,-161.21 135.5,-145 146.71,-125.38 167.77,-111.95 187.21,-103.17"/>
<polygon fill="midnightblue" stroke="midnightblue" points="834.37,-238.5 844.47,-235.3 834.58,-231.5 834.37,-238.5"/>
</g>
<!-- Node9 -->
<g id="node9" class="node">
<title>Node9</title>
<g id="a_node9"><a xlink:href="../../df/d98/vnodearc_8h.html" target="_top" xlink:title=" ">
<polygon fill="white" stroke="black" points="315,-151 315,-181 450,-181 450,-151 315,-151"/>
<text text-anchor="start" x="323" y="-169" font-family="Helvetica,sans-Serif" font-size="10.00">src/libs/vtools/tools</text>
<text text-anchor="middle" x="382.5" y="-158" font-family="Helvetica,sans-Serif" font-size="10.00">/nodeDetails/vnodearc.h</text>
</a>
</g>
</g>
<!-- Node1&#45;&gt;Node9 -->
<g id="edge8" class="edge">
<title>Node1&#45;&gt;Node9</title>
<path fill="none" stroke="midnightblue" d="M834.12,-231.61C740.01,-224.56 588.59,-210.64 459.5,-187 450.67,-185.38 441.36,-183.3 432.38,-181.09"/>
<polygon fill="midnightblue" stroke="midnightblue" points="833.94,-235.11 844.17,-232.35 834.46,-228.13 833.94,-235.11"/>
</g>
<!-- Node11 -->
<g id="node11" class="node">
<title>Node11</title>
<g id="a_node11"><a xlink:href="../../df/d25/vnodeellipticalarc_8h.html" target="_top" xlink:title=" ">
<polygon fill="white" stroke="black" points="468,-151 468,-181 645,-181 645,-151 468,-151"/>
<text text-anchor="start" x="476" y="-169" font-family="Helvetica,sans-Serif" font-size="10.00">src/libs/vtools/tools</text>
<text text-anchor="middle" x="556.5" y="-158" font-family="Helvetica,sans-Serif" font-size="10.00">/nodeDetails/vnodeellipticalarc.h</text>
</a>
</g>
</g>
<!-- Node1&#45;&gt;Node11 -->
<g id="edge13" class="edge">
<title>Node1&#45;&gt;Node11</title>
<path fill="none" stroke="midnightblue" d="M837.59,-221.62C784.63,-211.85 715.62,-198.95 654.5,-187 644.79,-185.1 634.54,-183.06 624.48,-181.02"/>
<polygon fill="midnightblue" stroke="midnightblue" points="837.16,-225.1 847.62,-223.47 838.42,-218.21 837.16,-225.1"/>
</g>
<!-- Node12 -->
<g id="node12" class="node">
<title>Node12</title>
<g id="a_node12"><a xlink:href="../../d3/d3a/vnodeellipticalarc_8cpp.html" target="_top" xlink:title=" ">
<polygon fill="white" stroke="black" points="321.5,-73 321.5,-103 509.5,-103 509.5,-73 321.5,-73"/>
<text text-anchor="start" x="329.5" y="-91" font-family="Helvetica,sans-Serif" font-size="10.00">src/libs/vtools/tools</text>
<text text-anchor="middle" x="415.5" y="-80" font-family="Helvetica,sans-Serif" font-size="10.00">/nodeDetails/vnodeellipticalarc.cpp</text>
</a>
</g>
</g>
<!-- Node1&#45;&gt;Node12 -->
<g id="edge18" class="edge">
<title>Node1&#45;&gt;Node12</title>
<path fill="none" stroke="midnightblue" d="M834.32,-234.89C634.97,-228.67 172.61,-211.66 149.5,-187 136.74,-173.38 137.74,-159.5 149.5,-145 152.62,-141.16 265.87,-118.31 343.57,-103.01"/>
<polygon fill="midnightblue" stroke="midnightblue" points="834.37,-238.39 844.47,-235.2 834.58,-231.39 834.37,-238.39"/>
</g>
<!-- Node13 -->
<g id="node13" class="node">
<title>Node13</title>
<g id="a_node13"><a xlink:href="../../d5/df0/vnodepoint_8h.html" target="_top" xlink:title=" ">
<polygon fill="white" stroke="black" points="852,-151 852,-181 997,-181 997,-151 852,-151"/>
<text text-anchor="start" x="860" y="-169" font-family="Helvetica,sans-Serif" font-size="10.00">src/libs/vtools/tools</text>
<text text-anchor="middle" x="924.5" y="-158" font-family="Helvetica,sans-Serif" font-size="10.00">/nodeDetails/vnodepoint.h</text>
</a>
</g>
</g>
<!-- Node1&#45;&gt;Node13 -->
<g id="edge19" class="edge">
<title>Node1&#45;&gt;Node13</title>
<path fill="none" stroke="midnightblue" d="M924.5,-213.23C924.5,-202.57 924.5,-190.41 924.5,-181.25"/>
<polygon fill="midnightblue" stroke="midnightblue" points="921,-213.23 924.5,-223.23 928,-213.23 921,-213.23"/>
</g>
<!-- Node14 -->
<g id="node14" class="node">
<title>Node14</title>
<g id="a_node14"><a xlink:href="../../d4/d7b/vnodepoint_8cpp.html" target="_top" xlink:title=" ">
<polygon fill="white" stroke="black" points="1171.5,-73 1171.5,-103 1327.5,-103 1327.5,-73 1171.5,-73"/>
<text text-anchor="start" x="1179.5" y="-91" font-family="Helvetica,sans-Serif" font-size="10.00">src/libs/vtools/tools</text>
<text text-anchor="middle" x="1249.5" y="-80" font-family="Helvetica,sans-Serif" font-size="10.00">/nodeDetails/vnodepoint.cpp</text>
</a>
</g>
</g>
<!-- Node1&#45;&gt;Node14 -->
<g id="edge43" class="edge">
<title>Node1&#45;&gt;Node14</title>
<path fill="none" stroke="midnightblue" d="M1014.76,-237.11C1184.01,-235.42 1535.42,-227.08 1572.5,-187 1701.4,-47.67 1735.33,-184.58 1337.5,-109 1328.11,-107.22 1318.2,-105.15 1308.55,-103.03"/>
<polygon fill="midnightblue" stroke="midnightblue" points="1014.59,-233.61 1004.62,-237.2 1014.65,-240.61 1014.59,-233.61"/>
</g>
<!-- Node15 -->
<g id="node15" class="node">
<title>Node15</title>
<g id="a_node15"><a xlink:href="../../df/d94/vnodespline_8cpp.html" target="_top" xlink:title=" ">
<polygon fill="white" stroke="black" points="1346,-73 1346,-103 1507,-103 1507,-73 1346,-73"/>
<text text-anchor="start" x="1354" y="-91" font-family="Helvetica,sans-Serif" font-size="10.00">src/libs/vtools/tools</text>
<text text-anchor="middle" x="1426.5" y="-80" font-family="Helvetica,sans-Serif" font-size="10.00">/nodeDetails/vnodespline.cpp</text>
</a>
</g>
</g>
<!-- Node1&#45;&gt;Node15 -->
<g id="edge24" class="edge">
<title>Node1&#45;&gt;Node15</title>
<path fill="none" stroke="midnightblue" d="M1014.6,-237.49C1190.74,-236.54 1567.05,-229.48 1606.5,-187 1619.2,-173.32 1617.57,-160.03 1606.5,-145 1598.88,-134.66 1532.91,-115.94 1483.02,-103.01"/>
<polygon fill="midnightblue" stroke="midnightblue" points="1014.56,-233.99 1004.57,-237.54 1014.59,-240.99 1014.56,-233.99"/>
</g>
<!-- Node16 -->
<g id="node16" class="node">
<title>Node16</title>
<g id="a_node16"><a xlink:href="../../d5/dcd/vabstractnode_8cpp.html" target="_top" xlink:title=" ">
<polygon fill="white" stroke="black" points="1182,-151 1182,-181 1353,-181 1353,-151 1182,-151"/>
<text text-anchor="start" x="1190" y="-169" font-family="Helvetica,sans-Serif" font-size="10.00">src/libs/vtools/tools</text>
<text text-anchor="middle" x="1267.5" y="-158" font-family="Helvetica,sans-Serif" font-size="10.00">/nodeDetails/vabstractnode.cpp</text>
</a>
</g>
</g>
<!-- Node1&#45;&gt;Node16 -->
<g id="edge25" class="edge">
<title>Node1&#45;&gt;Node16</title>
<path fill="none" stroke="midnightblue" d="M1004.45,-221.49C1053.3,-211.65 1117.04,-198.73 1173.5,-187 1182.73,-185.08 1192.46,-183.04 1202.03,-181.01"/>
<polygon fill="midnightblue" stroke="midnightblue" points="1003.68,-218.07 994.57,-223.47 1005.06,-224.93 1003.68,-218.07"/>
</g>
<!-- Node17 -->
<g id="node17" class="node">
<title>Node17</title>
<g id="a_node17"><a xlink:href="../../d0/dd2/vnodespline_8h.html" target="_top" xlink:title=" ">
<polygon fill="white" stroke="black" points="1015,-151 1015,-181 1164,-181 1164,-151 1015,-151"/>
<text text-anchor="start" x="1023" y="-169" font-family="Helvetica,sans-Serif" font-size="10.00">src/libs/vtools/tools</text>
<text text-anchor="middle" x="1089.5" y="-158" font-family="Helvetica,sans-Serif" font-size="10.00">/nodeDetails/vnodespline.h</text>
</a>
</g>
</g>
<!-- Node1&#45;&gt;Node17 -->
<g id="edge26" class="edge">
<title>Node1&#45;&gt;Node17</title>
<path fill="none" stroke="midnightblue" d="M966.99,-219.34C994.89,-207.42 1030.84,-192.07 1056.56,-181.07"/>
<polygon fill="midnightblue" stroke="midnightblue" points="965.31,-216.26 957.49,-223.4 968.06,-222.69 965.31,-216.26"/>
</g>
<!-- Node18 -->
<g id="node18" class="node">
<title>Node18</title>
<g id="a_node18"><a xlink:href="../../d2/dad/vnodesplinepath_8cpp.html" target="_top" xlink:title=" ">
<polygon fill="white" stroke="black" points="971.5,-73 971.5,-103 1153.5,-103 1153.5,-73 971.5,-73"/>
<text text-anchor="start" x="979.5" y="-91" font-family="Helvetica,sans-Serif" font-size="10.00">src/libs/vtools/tools</text>
<text text-anchor="middle" x="1062.5" y="-80" font-family="Helvetica,sans-Serif" font-size="10.00">/nodeDetails/vnodesplinepath.cpp</text>
</a>
</g>
</g>
<!-- Node1&#45;&gt;Node18 -->
<g id="edge31" class="edge">
<title>Node1&#45;&gt;Node18</title>
<path fill="none" stroke="midnightblue" d="M1014.71,-236.89C1180.18,-234.81 1518.67,-225.82 1554.5,-187 1567.16,-173.28 1567.08,-158.79 1554.5,-145 1525.02,-112.69 1205.78,-115.3 1162.5,-109 1151.11,-107.34 1139.06,-105.24 1127.42,-103.02"/>
<polygon fill="midnightblue" stroke="midnightblue" points="1014.5,-233.39 1004.54,-237.01 1014.59,-240.39 1014.5,-233.39"/>
</g>
<!-- Node19 -->
<g id="node19" class="node">
<title>Node19</title>
<g id="a_node19"><a xlink:href="../../df/d88/vnodesplinepath_8h.html" target="_top" xlink:title=" ">
<polygon fill="white" stroke="black" points="663,-151 663,-181 834,-181 834,-151 663,-151"/>
<text text-anchor="start" x="671" y="-169" font-family="Helvetica,sans-Serif" font-size="10.00">src/libs/vtools/tools</text>
<text text-anchor="middle" x="748.5" y="-158" font-family="Helvetica,sans-Serif" font-size="10.00">/nodeDetails/vnodesplinepath.h</text>
</a>
</g>
</g>
<!-- Node1&#45;&gt;Node19 -->
<g id="edge32" class="edge">
<title>Node1&#45;&gt;Node19</title>
<path fill="none" stroke="midnightblue" d="M879.95,-219.65C850.09,-207.69 811.31,-192.16 783.63,-181.07"/>
<polygon fill="midnightblue" stroke="midnightblue" points="878.72,-222.93 889.31,-223.4 881.33,-216.44 878.72,-222.93"/>
</g>
<!-- Node20 -->
<g id="node20" class="node">
<title>Node20</title>
<g id="a_node20"><a xlink:href="../../d5/d9d/vtoolinternalpath_8h.html" target="_top" xlink:title=" ">
<polygon fill="white" stroke="black" points="1371.5,-151 1371.5,-181 1545.5,-181 1545.5,-151 1371.5,-151"/>
<text text-anchor="start" x="1379.5" y="-169" font-family="Helvetica,sans-Serif" font-size="10.00">src/libs/vtools/tools</text>
<text text-anchor="middle" x="1458.5" y="-158" font-family="Helvetica,sans-Serif" font-size="10.00">/nodeDetails/vtoolinternalpath.h</text>
</a>
</g>
</g>
<!-- Node1&#45;&gt;Node20 -->
<g id="edge37" class="edge">
<title>Node1&#45;&gt;Node20</title>
<path fill="none" stroke="midnightblue" d="M1014.76,-229.5C1103.55,-221.07 1242.81,-206.33 1362.5,-187 1373.09,-185.29 1384.28,-183.21 1395.13,-181.05"/>
<polygon fill="midnightblue" stroke="midnightblue" points="1014.35,-226.03 1004.72,-230.45 1015.01,-233 1014.35,-226.03"/>
</g>
<!-- Node3 -->
<g id="node3" class="node">
<title>Node3</title>
<g id="a_node3"><a xlink:href="../../d9/d3a/anchorpoint__tool_8cpp.html" target="_top" xlink:title=" ">
<polygon fill="white" stroke="black" points="0,-67.5 0,-108.5 139,-108.5 139,-67.5 0,-67.5"/>
<text text-anchor="start" x="8" y="-96.5" font-family="Helvetica,sans-Serif" font-size="10.00">src/libs/vtools/tools</text>
<text text-anchor="start" x="8" y="-85.5" font-family="Helvetica,sans-Serif" font-size="10.00">/nodeDetails/anchorpoint</text>
<text text-anchor="middle" x="69.5" y="-74.5" font-family="Helvetica,sans-Serif" font-size="10.00">_tool.cpp</text>
</a>
</g>
</g>
<!-- Node2&#45;&gt;Node3 -->
<g id="edge2" class="edge">
<title>Node2&#45;&gt;Node3</title>
<path fill="none" stroke="midnightblue" d="M177.71,-141.05C155.91,-130.57 130.67,-118.42 110.05,-108.51"/>
<polygon fill="midnightblue" stroke="midnightblue" points="176.28,-144.25 186.81,-145.43 179.32,-137.94 176.28,-144.25"/>
</g>
<!-- Node4 -->
<g id="node4" class="node">
<title>Node4</title>
<g id="a_node4"><a xlink:href="../../d5/dcf/nodedetails_8h.html" target="_top" xlink:title=" ">
<polygon fill="white" stroke="black" points="528,-73 528,-103 675,-103 675,-73 528,-73"/>
<text text-anchor="start" x="536" y="-91" font-family="Helvetica,sans-Serif" font-size="10.00">src/libs/vtools/tools</text>
<text text-anchor="middle" x="601.5" y="-80" font-family="Helvetica,sans-Serif" font-size="10.00">/nodeDetails/nodedetails.h</text>
</a>
</g>
</g>
<!-- Node2&#45;&gt;Node4 -->
<g id="edge3" class="edge">
<title>Node2&#45;&gt;Node4</title>
<path fill="none" stroke="midnightblue" d="M307.2,-144.94C401.74,-125.43 427.99,-127.57 518.5,-109 527.21,-107.21 536.4,-105.16 545.36,-103.08"/>
<polygon fill="midnightblue" stroke="midnightblue" points="306.29,-141.56 297.22,-147.03 307.72,-148.41 306.29,-141.56"/>
</g>
<!-- Node7 -->
<g id="node7" class="node">
<title>Node7</title>
<g id="a_node7"><a xlink:href="../../d4/d9f/union__tool_8cpp.html" target="_top" xlink:title=" ">
<polygon fill="white" stroke="black" points="693,-73 693,-103 804,-103 804,-73 693,-73"/>
<text text-anchor="start" x="701" y="-91" font-family="Helvetica,sans-Serif" font-size="10.00">src/libs/vtools/tools</text>
<text text-anchor="middle" x="748.5" y="-80" font-family="Helvetica,sans-Serif" font-size="10.00">/union_tool.cpp</text>
</a>
</g>
</g>
<!-- Node2&#45;&gt;Node7 -->
<g id="edge6" class="edge">
<title>Node2&#45;&gt;Node7</title>
<path fill="none" stroke="midnightblue" d="M307.06,-145.06C474.59,-117.18 522.22,-141.71 684.5,-109 692.15,-107.46 700.17,-105.35 707.86,-103.09"/>
<polygon fill="midnightblue" stroke="midnightblue" points="306.43,-141.62 297.16,-146.75 307.61,-148.52 306.43,-141.62"/>
</g>
<!-- Node5 -->
<g id="node5" class="node">
<title>Node5</title>
<g id="a_node5"><a xlink:href="../../d5/da5/tools_8h.html" target="_top" xlink:title=" ">
<polygon fill="white" stroke="black" points="481,-0.5 481,-30.5 592,-30.5 592,-0.5 481,-0.5"/>
<text text-anchor="start" x="489" y="-18.5" font-family="Helvetica,sans-Serif" font-size="10.00">src/libs/vtools/tools</text>
<text text-anchor="middle" x="536.5" y="-7.5" font-family="Helvetica,sans-Serif" font-size="10.00">/tools.h</text>
</a>
</g>
</g>
<!-- Node4&#45;&gt;Node5 -->
<g id="edge4" class="edge">
<title>Node4&#45;&gt;Node5</title>
<path fill="none" stroke="midnightblue" d="M581.55,-65.36C571.18,-54.11 558.79,-40.68 549.63,-30.75"/>
<polygon fill="midnightblue" stroke="midnightblue" points="578.99,-67.75 588.35,-72.73 584.14,-63.01 578.99,-67.75"/>
</g>
<!-- Node6 -->
<g id="node6" class="node">
<title>Node6</title>
<g id="a_node6"><a xlink:href="../../d9/d4e/vabstracttool_8cpp.html" target="_top" xlink:title=" ">
<polygon fill="white" stroke="black" points="610,-0.5 610,-30.5 721,-30.5 721,-0.5 610,-0.5"/>
<text text-anchor="start" x="618" y="-18.5" font-family="Helvetica,sans-Serif" font-size="10.00">src/libs/vtools/tools</text>
<text text-anchor="middle" x="665.5" y="-7.5" font-family="Helvetica,sans-Serif" font-size="10.00">/vabstracttool.cpp</text>
</a>
</g>
</g>
<!-- Node4&#45;&gt;Node6 -->
<g id="edge5" class="edge">
<title>Node4&#45;&gt;Node6</title>
<path fill="none" stroke="midnightblue" d="M621.44,-65.04C631.59,-53.86 643.64,-40.58 652.57,-30.75"/>
<polygon fill="midnightblue" stroke="midnightblue" points="618.58,-62.98 614.45,-72.73 623.76,-67.68 618.58,-62.98"/>
</g>
<!-- Node9&#45;&gt;Node4 -->
<g id="edge10" class="edge">
<title>Node9&#45;&gt;Node4</title>
<path fill="none" stroke="midnightblue" d="M432.48,-147.65C471.38,-134.16 524.67,-115.66 560.94,-103.07"/>
<polygon fill="midnightblue" stroke="midnightblue" points="431.22,-144.39 422.92,-150.97 433.52,-151 431.22,-144.39"/>
</g>
<!-- Node9&#45;&gt;Node7 -->
<g id="edge11" class="edge">
<title>Node9&#45;&gt;Node7</title>
<path fill="none" stroke="midnightblue" d="M443.42,-148.61C448.84,-147.32 454.26,-146.1 459.5,-145 558.62,-124.25 585.91,-132.16 684.5,-109 691.64,-107.32 699.14,-105.26 706.39,-103.1"/>
<polygon fill="midnightblue" stroke="midnightblue" points="442.59,-145.21 433.7,-150.97 444.24,-152.01 442.59,-145.21"/>
</g>
<!-- Node9&#45;&gt;Node8 -->
<g id="edge9" class="edge">
<title>Node9&#45;&gt;Node8</title>
<path fill="none" stroke="midnightblue" d="M345.2,-146.35C318.44,-132.97 282.96,-115.23 258.58,-103.04"/>
<polygon fill="midnightblue" stroke="midnightblue" points="343.76,-149.54 354.27,-150.88 346.89,-143.28 343.76,-149.54"/>
</g>
<!-- Node10 -->
<g id="node10" class="node">
<title>Node10</title>
<g id="a_node10"><a xlink:href="../../d8/dea/pattern__piece__tool_8cpp.html" target="_top" xlink:title=" ">
<polygon fill="white" stroke="black" points="822,-73 822,-103 953,-103 953,-73 822,-73"/>
<text text-anchor="start" x="830" y="-91" font-family="Helvetica,sans-Serif" font-size="10.00">src/libs/vtools/tools</text>
<text text-anchor="middle" x="887.5" y="-80" font-family="Helvetica,sans-Serif" font-size="10.00">/pattern_piece_tool.cpp</text>
</a>
</g>
</g>
<!-- Node9&#45;&gt;Node10 -->
<g id="edge12" class="edge">
<title>Node9&#45;&gt;Node10</title>
<path fill="none" stroke="midnightblue" d="M441.87,-148.62C447.8,-147.27 453.75,-146.03 459.5,-145 615.15,-117.04 657.99,-137.73 813.5,-109 822.14,-107.4 831.24,-105.3 839.99,-103.06"/>
<polygon fill="midnightblue" stroke="midnightblue" points="440.88,-145.25 431.96,-150.97 442.5,-152.06 440.88,-145.25"/>
</g>
<!-- Node11&#45;&gt;Node4 -->
<g id="edge15" class="edge">
<title>Node11&#45;&gt;Node4</title>
<path fill="none" stroke="midnightblue" d="M570.07,-142.07C577.56,-129.44 586.61,-114.15 593.07,-103.23"/>
<polygon fill="midnightblue" stroke="midnightblue" points="567.05,-140.32 564.96,-150.7 573.07,-143.88 567.05,-140.32"/>
</g>
<!-- Node11&#45;&gt;Node7 -->
<g id="edge16" class="edge">
<title>Node11&#45;&gt;Node7</title>
<path fill="none" stroke="midnightblue" d="M601.86,-147.05C635.84,-133.59 681.7,-115.44 713.03,-103.04"/>
<polygon fill="midnightblue" stroke="midnightblue" points="600.17,-143.95 592.16,-150.88 602.75,-150.46 600.17,-143.95"/>
</g>
<!-- Node11&#45;&gt;Node10 -->
<g id="edge17" class="edge">
<title>Node11&#45;&gt;Node10</title>
<path fill="none" stroke="midnightblue" d="M635.4,-148.86C686.36,-138.18 754.02,-123.51 813.5,-109 821,-107.17 828.9,-105.14 836.63,-103.1"/>
<polygon fill="midnightblue" stroke="midnightblue" points="634.51,-145.47 625.43,-150.94 635.94,-152.32 634.51,-145.47"/>
</g>
<!-- Node11&#45;&gt;Node12 -->
<g id="edge14" class="edge">
<title>Node11&#45;&gt;Node12</title>
<path fill="none" stroke="midnightblue" d="M521.25,-146C496.5,-132.66 463.97,-115.12 441.55,-103.04"/>
<polygon fill="midnightblue" stroke="midnightblue" points="519.85,-149.22 530.31,-150.88 523.17,-143.06 519.85,-149.22"/>
</g>
<!-- Node13&#45;&gt;Node4 -->
<g id="edge20" class="edge">
<title>Node13&#45;&gt;Node4</title>
<path fill="none" stroke="midnightblue" d="M858.54,-148.6C853.45,-147.37 848.4,-146.16 843.5,-145 772.99,-128.31 755.05,-125.49 684.5,-109 676.42,-107.11 667.9,-105.09 659.52,-103.09"/>
<polygon fill="midnightblue" stroke="midnightblue" points="857.78,-152.02 868.32,-150.98 859.43,-145.22 857.78,-152.02"/>
</g>
<!-- Node13&#45;&gt;Node7 -->
<g id="edge22" class="edge">
<title>Node13&#45;&gt;Node7</title>
<path fill="none" stroke="midnightblue" d="M882.52,-146.87C851.41,-133.44 809.61,-115.39 781.02,-103.04"/>
<polygon fill="midnightblue" stroke="midnightblue" points="881.24,-150.13 891.81,-150.88 884.02,-143.71 881.24,-150.13"/>
</g>
<!-- Node13&#45;&gt;Node10 -->
<g id="edge23" class="edge">
<title>Node13&#45;&gt;Node10</title>
<path fill="none" stroke="midnightblue" d="M913.16,-141.7C907.04,-129.14 899.69,-114.04 894.43,-103.23"/>
<polygon fill="midnightblue" stroke="midnightblue" points="910.02,-143.25 917.54,-150.7 916.31,-140.18 910.02,-143.25"/>
</g>
<!-- Node13&#45;&gt;Node14 -->
<g id="edge21" class="edge">
<title>Node13&#45;&gt;Node14</title>
<path fill="none" stroke="midnightblue" d="M991.55,-148.57C996.61,-147.36 1001.63,-146.15 1006.5,-145 1015.44,-142.88 1119.37,-118.95 1188.38,-103.06"/>
<polygon fill="midnightblue" stroke="midnightblue" points="990.72,-145.17 981.83,-150.92 992.37,-151.98 990.72,-145.17"/>
</g>
<!-- Node17&#45;&gt;Node4 -->
<g id="edge27" class="edge">
<title>Node17&#45;&gt;Node4</title>
<path fill="none" stroke="midnightblue" d="M1025.62,-148.76C1019.18,-147.38 1012.73,-146.09 1006.5,-145 864.67,-120.08 826.33,-133.92 684.5,-109 675.01,-107.33 664.99,-105.22 655.32,-103"/>
<polygon fill="midnightblue" stroke="midnightblue" points="1025.16,-152.24 1035.68,-151 1026.68,-145.41 1025.16,-152.24"/>
</g>
<!-- Node17&#45;&gt;Node7 -->
<g id="edge29" class="edge">
<title>Node17&#45;&gt;Node7</title>
<path fill="none" stroke="midnightblue" d="M1022.92,-148.63C1017.37,-147.37 1011.85,-146.14 1006.5,-145 921.17,-126.77 898.23,-129.86 813.5,-109 806.39,-107.25 798.91,-105.17 791.66,-103.03"/>
<polygon fill="midnightblue" stroke="midnightblue" points="1022.36,-152.1 1032.89,-150.94 1023.93,-145.28 1022.36,-152.1"/>
</g>
<!-- Node17&#45;&gt;Node10 -->
<g id="edge30" class="edge">
<title>Node17&#45;&gt;Node10</title>
<path fill="none" stroke="midnightblue" d="M1042.24,-147.22C1006.44,-133.75 957.92,-115.5 924.82,-103.04"/>
<polygon fill="midnightblue" stroke="midnightblue" points="1041.39,-150.64 1051.98,-150.88 1043.85,-144.09 1041.39,-150.64"/>
</g>
<!-- Node17&#45;&gt;Node15 -->
<g id="edge28" class="edge">
<title>Node17&#45;&gt;Node15</title>
<path fill="none" stroke="midnightblue" d="M1157.5,-148.71C1162.91,-147.44 1168.29,-146.19 1173.5,-145 1245.81,-128.41 1264.07,-125.05 1336.5,-109 1345.09,-107.1 1354.15,-105.09 1363.07,-103.11"/>
<polygon fill="midnightblue" stroke="midnightblue" points="1156.7,-145.3 1147.76,-151 1158.3,-152.12 1156.7,-145.3"/>
</g>
<!-- Node19&#45;&gt;Node4 -->
<g id="edge33" class="edge">
<title>Node19&#45;&gt;Node4</title>
<path fill="none" stroke="midnightblue" d="M712.09,-146.17C686.25,-132.82 652.13,-115.18 628.66,-103.04"/>
<polygon fill="midnightblue" stroke="midnightblue" points="710.7,-149.4 721.19,-150.88 713.92,-143.18 710.7,-149.4"/>
</g>
<!-- Node19&#45;&gt;Node7 -->
<g id="edge35" class="edge">
<title>Node19&#45;&gt;Node7</title>
<path fill="none" stroke="midnightblue" d="M748.5,-140.59C748.5,-128.26 748.5,-113.72 748.5,-103.23"/>
<polygon fill="midnightblue" stroke="midnightblue" points="745,-140.7 748.5,-150.7 752,-140.71 745,-140.7"/>
</g>
<!-- Node19&#45;&gt;Node10 -->
<g id="edge36" class="edge">
<title>Node19&#45;&gt;Node10</title>
<path fill="none" stroke="midnightblue" d="M783.25,-146C807.64,-132.66 839.72,-115.12 861.82,-103.04"/>
<polygon fill="midnightblue" stroke="midnightblue" points="781.41,-143.01 774.32,-150.88 784.77,-149.16 781.41,-143.01"/>
</g>
<!-- Node19&#45;&gt;Node18 -->
<g id="edge34" class="edge">
<title>Node19&#45;&gt;Node18</title>
<path fill="none" stroke="midnightblue" d="M816.32,-148.59C872.47,-134.99 951.39,-115.89 1004.61,-103.01"/>
<polygon fill="midnightblue" stroke="midnightblue" points="815.35,-145.22 806.46,-150.97 817,-152.02 815.35,-145.22"/>
</g>
<!-- Node20&#45;&gt;Node4 -->
<g id="edge38" class="edge">
<title>Node20&#45;&gt;Node4</title>
<path fill="none" stroke="midnightblue" d="M1388.24,-149.08C1379.6,-147.51 1370.87,-146.09 1362.5,-145 1063.26,-106.11 983.1,-152.53 684.5,-109 674.38,-107.52 663.69,-105.39 653.46,-103.06"/>
<polygon fill="midnightblue" stroke="midnightblue" points="1387.83,-152.57 1398.31,-151 1389.14,-145.69 1387.83,-152.57"/>
</g>
<!-- Node20&#45;&gt;Node7 -->
<g id="edge40" class="edge">
<title>Node20&#45;&gt;Node7</title>
<path fill="none" stroke="midnightblue" d="M1387.66,-149.08C1379.21,-147.53 1370.68,-146.12 1362.5,-145 1120.22,-111.98 1053.99,-153.26 813.5,-109 805.49,-107.53 797.07,-105.39 789.05,-103.06"/>
<polygon fill="midnightblue" stroke="midnightblue" points="1387.04,-152.53 1397.52,-150.96 1388.36,-145.65 1387.04,-152.53"/>
</g>
<!-- Node20&#45;&gt;Node10 -->
<g id="edge41" class="edge">
<title>Node20&#45;&gt;Node10</title>
<path fill="none" stroke="midnightblue" d="M1386.62,-149.09C1378.51,-147.57 1370.34,-146.17 1362.5,-145 1185.94,-118.75 1138.26,-140.11 962.5,-109 953.61,-107.43 944.24,-105.31 935.24,-103.03"/>
<polygon fill="midnightblue" stroke="midnightblue" points="1385.98,-152.53 1396.46,-150.98 1387.3,-145.65 1385.98,-152.53"/>
</g>
<!-- Node21 -->
<g id="node21" class="node">
<title>Node21</title>
<g id="a_node21"><a xlink:href="../../d3/dd9/vtoolinternalpath_8cpp.html" target="_top" xlink:title=" ">
<polygon fill="white" stroke="black" points="1708,-73 1708,-103 1893,-103 1893,-73 1708,-73"/>
<text text-anchor="start" x="1716" y="-91" font-family="Helvetica,sans-Serif" font-size="10.00">src/libs/vtools/tools</text>
<text text-anchor="middle" x="1800.5" y="-80" font-family="Helvetica,sans-Serif" font-size="10.00">/nodeDetails/vtoolinternalpath.cpp</text>
</a>
</g>
</g>
<!-- Node20&#45;&gt;Node21 -->
<g id="edge39" class="edge">
<title>Node20&#45;&gt;Node21</title>
<path fill="none" stroke="midnightblue" d="M1531.6,-148.75C1592.81,-135.15 1679.25,-115.95 1737.45,-103.01"/>
<polygon fill="midnightblue" stroke="midnightblue" points="1530.63,-145.39 1521.63,-150.97 1532.15,-152.22 1530.63,-145.39"/>
</g>
<!-- Node22 -->
<g id="node22" class="node">
<title>Node22</title>
<g id="a_node22"><a xlink:href="../../dd/d3a/savepiecepathoptions_8cpp.html" target="_top" xlink:title=" ">
<polygon fill="white" stroke="black" points="1525,-73 1525,-103 1690,-103 1690,-73 1525,-73"/>
<text text-anchor="start" x="1533" y="-91" font-family="Helvetica,sans-Serif" font-size="10.00">src/libs/vtools/undocommands</text>
<text text-anchor="middle" x="1607.5" y="-80" font-family="Helvetica,sans-Serif" font-size="10.00">/savepiecepathoptions.cpp</text>
</a>
</g>
</g>
<!-- Node20&#45;&gt;Node22 -->
<g id="edge42" class="edge">
<title>Node20&#45;&gt;Node22</title>
<path fill="none" stroke="midnightblue" d="M1495.41,-146.17C1521.6,-132.82 1556.18,-115.18 1579.97,-103.04"/>
<polygon fill="midnightblue" stroke="midnightblue" points="1493.49,-143.22 1486.18,-150.88 1496.68,-149.46 1493.49,-143.22"/>
</g>
</g>
</svg>
        <g id="navigator" transform="translate(0 0)" fill="#404254">
                <rect fill="#f2f5e9" fill-opacity="0.5" stroke="#606060" stroke-width=".5" x="0" y="0" width="60" height="60"/>
                <use id="zoomplus" xlink:href="#zoomPlus" x="17" y="9" onmousedown="handleZoom(evt,'in')"/>
                <use id="zoomminus" xlink:href="#zoomMin" x="42" y="9" onmousedown="handleZoom(evt,'out')"/>
                <use id="reset" xlink:href="#resetDef" x="30" y="36" onmousedown="handleReset()"/>
                <g id="arrowUp" xlink:href="#dirArrow" transform="translate(30 24)" onmousedown="handlePan(0,-1)">
                  <use xlink:href="#rim" fill="#404040">
                        <set attributeName="fill" to="#808080" begin="arrowUp.mouseover" end="arrowUp.mouseout"/>
                  </use>
                  <path fill="none" stroke="white" stroke-width="1.5" d="M0,-3.0v7 M-2.5,-0.5L0,-3.0L2.5,-0.5"/>
                </g>
                <g id="arrowRight" xlink:href="#dirArrow" transform="rotate(90) translate(36 -43)" onmousedown="handlePan(1,0)">
                  <use xlink:href="#rim" fill="#404040">
                        <set attributeName="fill" to="#808080" begin="arrowRight.mouseover" end="arrowRight.mouseout"/>
                  </use>
                  <path fill="none" stroke="white" stroke-width="1.5" d="M0,-3.0v7 M-2.5,-0.5L0,-3.0L2.5,-0.5"/>
                </g>
                <g id="arrowDown" xlink:href="#dirArrow" transform="rotate(180) translate(-30 -48)" onmousedown="handlePan(0,1)">
                  <use xlink:href="#rim" fill="#404040">
                        <set attributeName="fill" to="#808080" begin="arrowDown.mouseover" end="arrowDown.mouseout"/>
                  </use>
                  <path fill="none" stroke="white" stroke-width="1.5" d="M0,-3.0v7 M-2.5,-0.5L0,-3.0L2.5,-0.5"/>
                </g>
                <g id="arrowLeft" xlink:href="#dirArrow" transform="rotate(270) translate(-36 17)" onmousedown="handlePan(-1,0)">
                  <use xlink:href="#rim" fill="#404040">
                        <set attributeName="fill" to="#808080" begin="arrowLeft.mouseover" end="arrowLeft.mouseout"/>
                  </use>
                  <path fill="none" stroke="white" stroke-width="1.5" d="M0,-3.0v7 M-2.5,-0.5L0,-3.0L2.5,-0.5"/>
                </g>
        </g>
        <svg viewBox="0 0 15 15" width="100%" height="30px" preserveAspectRatio="xMaxYMin meet">
         <g id="arrow_out" transform="scale(0.3 0.3)">
          <a xlink:href="vabstractnode_8h__dep__incl_org.svg" target="_base">
           <rect id="button" ry="5" rx="5" y="6" x="6" height="38" width="38"
                fill="#f2f5e9" fill-opacity="0.5" stroke="#606060" stroke-width="1.0"/>
           <path id="arrow"
             d="M 11.500037,31.436501 C 11.940474,20.09759 22.043105,11.32322 32.158766,21.979434 L 37.068811,17.246167 C 37.068811,17.246167 37.088388,32 37.088388,32 L 22.160133,31.978069 C 22.160133,31.978069 26.997745,27.140456 26.997745,27.140456 C 18.528582,18.264221 13.291696,25.230495 11.500037,31.436501 z"
             style="fill:#404040;"/>
          </a>
         </g>
        </svg>
</svg>
