<?xml version="1.0" encoding="UTF-8" standalone="no"?>
<!DOCTYPE svg PUBLIC "-//W3C//DTD SVG 1.1//EN"
 "http://www.w3.org/Graphics/SVG/1.1/DTD/svg11.dtd">
<!-- Generated by graphviz version 2.43.0 (0)
 -->
<!-- Title: src/libs/vtools/tools/nodeDetails/vabstractnode.h Pages: 1 -->
<svg width="1913pt" height="262pt"
 viewBox="0.00 0.00 1913.00 262.00" xmlns="http://www.w3.org/2000/svg" xmlns:xlink="http://www.w3.org/1999/xlink">
<g id="graph0" class="graph" transform="scale(1 1) rotate(0) translate(4 258)">
<title>src/libs/vtools/tools/nodeDetails/vabstractnode.h</title>
<polygon fill="white" stroke="transparent" points="-4,4 -4,-258 1909,-258 1909,4 -4,4"/>
<!-- Node1 -->
<g id="node1" class="node">
<title>Node1</title>
<g id="a_node1"><a xlink:title=" ">
<polygon fill="#bfbfbf" stroke="black" points="658,-223.5 658,-253.5 818,-253.5 818,-223.5 658,-223.5"/>
<text text-anchor="start" x="666" y="-241.5" font-family="Helvetica,sans-Serif" font-size="10.00">src/libs/vtools/tools</text>
<text text-anchor="middle" x="738" y="-230.5" font-family="Helvetica,sans-Serif" font-size="10.00">/nodeDetails/vabstractnode.h</text>
</a>
</g>
</g>
<!-- Node2 -->
<g id="node2" class="node">
<title>Node2</title>
<g id="a_node2"><a xlink:href="../../de/d51/anchorpoint__tool_8h.html" target="_top" xlink:title=" ">
<polygon fill="white" stroke="black" points="355.5,-145.5 355.5,-186.5 494.5,-186.5 494.5,-145.5 355.5,-145.5"/>
<text text-anchor="start" x="363.5" y="-174.5" font-family="Helvetica,sans-Serif" font-size="10.00">src/libs/vtools/tools</text>
<text text-anchor="start" x="363.5" y="-163.5" font-family="Helvetica,sans-Serif" font-size="10.00">/nodeDetails/anchorpoint</text>
<text text-anchor="middle" x="425" y="-152.5" font-family="Helvetica,sans-Serif" font-size="10.00">_tool.h</text>
</a>
</g>
</g>
<!-- Node1&#45;&gt;Node2 -->
<g id="edge1" class="edge">
<title>Node1&#45;&gt;Node2</title>
<path fill="none" stroke="midnightblue" d="M660.2,-221.43C614.6,-211.83 555.93,-199.17 504,-187 500.97,-186.29 497.88,-185.55 494.75,-184.8"/>
<polygon fill="midnightblue" stroke="midnightblue" points="659.51,-224.86 670.02,-223.49 660.95,-218.01 659.51,-224.86"/>
</g>
<!-- Node8 -->
<g id="node8" class="node">
<title>Node8</title>
<g id="a_node8"><a xlink:href="../../d5/dcd/vabstractnode_8cpp.html" target="_top" xlink:title=" ">
<polygon fill="white" stroke="black" points="89.5,-151 89.5,-181 260.5,-181 260.5,-151 89.5,-151"/>
<text text-anchor="start" x="97.5" y="-169" font-family="Helvetica,sans-Serif" font-size="10.00">src/libs/vtools/tools</text>
<text text-anchor="middle" x="175" y="-158" font-family="Helvetica,sans-Serif" font-size="10.00">/nodeDetails/vabstractnode.cpp</text>
</a>
</g>
</g>
<!-- Node1&#45;&gt;Node8 -->
<g id="edge7" class="edge">
<title>Node1&#45;&gt;Node8</title>
<path fill="none" stroke="midnightblue" d="M647.84,-230.05C554.31,-221.77 403.96,-206.89 275,-187 263.89,-185.29 252.14,-183.19 240.75,-181.01"/>
<polygon fill="midnightblue" stroke="midnightblue" points="647.57,-233.54 657.83,-230.93 648.18,-226.57 647.57,-233.54"/>
</g>
<!-- Node9 -->
<g id="node9" class="node">
<title>Node9</title>
<g id="a_node9"><a xlink:href="../../d0/d43/vnodearc_8cpp.html" target="_top" xlink:title=" ">
<polygon fill="white" stroke="black" points="0,-73 0,-103 146,-103 146,-73 0,-73"/>
<text text-anchor="start" x="8" y="-91" font-family="Helvetica,sans-Serif" font-size="10.00">src/libs/vtools/tools</text>
<text text-anchor="middle" x="73" y="-80" font-family="Helvetica,sans-Serif" font-size="10.00">/nodeDetails/vnodearc.cpp</text>
</a>
</g>
</g>
<!-- Node1&#45;&gt;Node9 -->
<g id="edge8" class="edge">
<title>Node1&#45;&gt;Node9</title>
<path fill="none" stroke="midnightblue" d="M647.58,-236.98C476.54,-235.08 119.17,-226.38 80,-187 58.11,-164.99 63.8,-124.74 68.93,-103.31"/>
<polygon fill="midnightblue" stroke="midnightblue" points="647.79,-240.48 657.82,-237.09 647.86,-233.48 647.79,-240.48"/>
</g>
<!-- Node10 -->
<g id="node10" class="node">
<title>Node10</title>
<g id="a_node10"><a xlink:href="../../df/d98/vnodearc_8h.html" target="_top" xlink:title=" ">
<polygon fill="white" stroke="black" points="512.5,-151 512.5,-181 647.5,-181 647.5,-151 512.5,-151"/>
<text text-anchor="start" x="520.5" y="-169" font-family="Helvetica,sans-Serif" font-size="10.00">src/libs/vtools/tools</text>
<text text-anchor="middle" x="580" y="-158" font-family="Helvetica,sans-Serif" font-size="10.00">/nodeDetails/vnodearc.h</text>
</a>
</g>
</g>
<!-- Node1&#45;&gt;Node10 -->
<g id="edge9" class="edge">
<title>Node1&#45;&gt;Node10</title>
<path fill="none" stroke="midnightblue" d="M696.96,-219.19C670.3,-207.29 636.07,-192.02 611.54,-181.07"/>
<polygon fill="midnightblue" stroke="midnightblue" points="695.85,-222.52 706.41,-223.4 698.7,-216.13 695.85,-222.52"/>
</g>
<!-- Node12 -->
<g id="node12" class="node">
<title>Node12</title>
<g id="a_node12"><a xlink:href="../../d3/d3a/vnodeellipticalarc_8cpp.html" target="_top" xlink:title=" ">
<polygon fill="white" stroke="black" points="508,-73 508,-103 696,-103 696,-73 508,-73"/>
<text text-anchor="start" x="516" y="-91" font-family="Helvetica,sans-Serif" font-size="10.00">src/libs/vtools/tools</text>
<text text-anchor="middle" x="602" y="-80" font-family="Helvetica,sans-Serif" font-size="10.00">/nodeDetails/vnodeellipticalarc.cpp</text>
</a>
</g>
</g>
<!-- Node1&#45;&gt;Node12 -->
<g id="edge14" class="edge">
<title>Node1&#45;&gt;Node12</title>
<path fill="none" stroke="midnightblue" d="M647.69,-232.04C538.43,-224.5 366.56,-209.24 347,-187 334.67,-172.98 335.3,-159.55 347,-145 349.98,-141.3 458.55,-118.4 533.04,-103.06"/>
<polygon fill="midnightblue" stroke="midnightblue" points="647.52,-235.54 657.74,-232.72 648,-228.55 647.52,-235.54"/>
</g>
<!-- Node13 -->
<g id="node13" class="node">
<title>Node13</title>
<g id="a_node13"><a xlink:href="../../d5/df0/vnodepoint_8h.html" target="_top" xlink:title=" ">
<polygon fill="white" stroke="black" points="665.5,-151 665.5,-181 810.5,-181 810.5,-151 665.5,-151"/>
<text text-anchor="start" x="673.5" y="-169" font-family="Helvetica,sans-Serif" font-size="10.00">src/libs/vtools/tools</text>
<text text-anchor="middle" x="738" y="-158" font-family="Helvetica,sans-Serif" font-size="10.00">/nodeDetails/vnodepoint.h</text>
</a>
</g>
</g>
<!-- Node1&#45;&gt;Node13 -->
<g id="edge15" class="edge">
<title>Node1&#45;&gt;Node13</title>
<path fill="none" stroke="midnightblue" d="M738,-213.23C738,-202.57 738,-190.41 738,-181.25"/>
<polygon fill="midnightblue" stroke="midnightblue" points="734.5,-213.23 738,-223.23 741.5,-213.23 734.5,-213.23"/>
</g>
<!-- Node14 -->
<g id="node14" class="node">
<title>Node14</title>
<g id="a_node14"><a xlink:href="../../d4/d7b/vnodepoint_8cpp.html" target="_top" xlink:title=" ">
<polygon fill="white" stroke="black" points="334,-73 334,-103 490,-103 490,-73 334,-73"/>
<text text-anchor="start" x="342" y="-91" font-family="Helvetica,sans-Serif" font-size="10.00">src/libs/vtools/tools</text>
<text text-anchor="middle" x="412" y="-80" font-family="Helvetica,sans-Serif" font-size="10.00">/nodeDetails/vnodepoint.cpp</text>
</a>
</g>
</g>
<!-- Node1&#45;&gt;Node14 -->
<g id="edge26" class="edge">
<title>Node1&#45;&gt;Node14</title>
<path fill="none" stroke="midnightblue" d="M647.65,-232.48C534.67,-225.26 353.49,-210.2 333,-187 320.64,-173.01 324.43,-161.58 333,-145 342.73,-126.18 362.02,-112.32 379.1,-103.1"/>
<polygon fill="midnightblue" stroke="midnightblue" points="647.49,-235.97 657.69,-233.11 647.93,-228.99 647.49,-235.97"/>
</g>
<!-- Node15 -->
<g id="node15" class="node">
<title>Node15</title>
<g id="a_node15"><a xlink:href="../../df/d94/vnodespline_8cpp.html" target="_top" xlink:title=" ">
<polygon fill="white" stroke="black" points="1543.5,-73 1543.5,-103 1704.5,-103 1704.5,-73 1543.5,-73"/>
<text text-anchor="start" x="1551.5" y="-91" font-family="Helvetica,sans-Serif" font-size="10.00">src/libs/vtools/tools</text>
<text text-anchor="middle" x="1624" y="-80" font-family="Helvetica,sans-Serif" font-size="10.00">/nodeDetails/vnodespline.cpp</text>
</a>
</g>
</g>
<!-- Node1&#45;&gt;Node15 -->
<g id="edge20" class="edge">
<title>Node1&#45;&gt;Node15</title>
<path fill="none" stroke="midnightblue" d="M828.39,-236.61C1029.51,-233.96 1501.18,-223.86 1563,-187 1594.85,-168.02 1612.52,-125.29 1619.88,-103.05"/>
<polygon fill="midnightblue" stroke="midnightblue" points="828.1,-233.11 818.15,-236.74 828.19,-240.11 828.1,-233.11"/>
</g>
<!-- Node16 -->
<g id="node16" class="node">
<title>Node16</title>
<g id="a_node16"><a xlink:href="../../d0/dd2/vnodespline_8h.html" target="_top" xlink:title=" ">
<polygon fill="white" stroke="black" points="1023.5,-151 1023.5,-181 1172.5,-181 1172.5,-151 1023.5,-151"/>
<text text-anchor="start" x="1031.5" y="-169" font-family="Helvetica,sans-Serif" font-size="10.00">src/libs/vtools/tools</text>
<text text-anchor="middle" x="1098" y="-158" font-family="Helvetica,sans-Serif" font-size="10.00">/nodeDetails/vnodespline.h</text>
</a>
</g>
</g>
<!-- Node1&#45;&gt;Node16 -->
<g id="edge21" class="edge">
<title>Node1&#45;&gt;Node16</title>
<path fill="none" stroke="midnightblue" d="M828.18,-222.38C882.46,-212.95 952.87,-200.14 1015,-187 1023.56,-185.19 1032.58,-183.15 1041.39,-181.09"/>
<polygon fill="midnightblue" stroke="midnightblue" points="827.49,-218.94 818.24,-224.1 828.69,-225.84 827.49,-218.94"/>
</g>
<!-- Node17 -->
<g id="node17" class="node">
<title>Node17</title>
<g id="a_node17"><a xlink:href="../../d2/dad/vnodesplinepath_8cpp.html" target="_top" xlink:title=" ">
<polygon fill="white" stroke="black" points="1723,-73 1723,-103 1905,-103 1905,-73 1723,-73"/>
<text text-anchor="start" x="1731" y="-91" font-family="Helvetica,sans-Serif" font-size="10.00">src/libs/vtools/tools</text>
<text text-anchor="middle" x="1814" y="-80" font-family="Helvetica,sans-Serif" font-size="10.00">/nodeDetails/vnodesplinepath.cpp</text>
</a>
</g>
</g>
<!-- Node1&#45;&gt;Node17 -->
<g id="edge27" class="edge">
<title>Node1&#45;&gt;Node17</title>
<path fill="none" stroke="midnightblue" d="M828.37,-236.29C1018.01,-233.07 1451.77,-222.02 1595,-187 1670.06,-168.65 1751.33,-125.44 1790.4,-103.03"/>
<polygon fill="midnightblue" stroke="midnightblue" points="828.09,-232.79 818.15,-236.46 828.21,-239.79 828.09,-232.79"/>
</g>
<!-- Node18 -->
<g id="node18" class="node">
<title>Node18</title>
<g id="a_node18"><a xlink:href="../../df/d25/vnodeellipticalarc_8h.html" target="_top" xlink:title=" ">
<polygon fill="white" stroke="black" points="828.5,-151 828.5,-181 1005.5,-181 1005.5,-151 828.5,-151"/>
<text text-anchor="start" x="836.5" y="-169" font-family="Helvetica,sans-Serif" font-size="10.00">src/libs/vtools/tools</text>
<text text-anchor="middle" x="917" y="-158" font-family="Helvetica,sans-Serif" font-size="10.00">/nodeDetails/vnodeellipticalarc.h</text>
</a>
</g>
</g>
<!-- Node1&#45;&gt;Node18 -->
<g id="edge28" class="edge">
<title>Node1&#45;&gt;Node18</title>
<path fill="none" stroke="midnightblue" d="M783.31,-219.65C813.68,-207.69 853.11,-192.16 881.27,-181.07"/>
<polygon fill="midnightblue" stroke="midnightblue" points="781.81,-216.48 773.79,-223.4 784.38,-222.99 781.81,-216.48"/>
</g>
<!-- Node19 -->
<g id="node19" class="node">
<title>Node19</title>
<g id="a_node19"><a xlink:href="../../d5/d9d/vtoolinternalpath_8h.html" target="_top" xlink:title=" ">
<polygon fill="white" stroke="black" points="1380,-151 1380,-181 1554,-181 1554,-151 1380,-151"/>
<text text-anchor="start" x="1388" y="-169" font-family="Helvetica,sans-Serif" font-size="10.00">src/libs/vtools/tools</text>
<text text-anchor="middle" x="1467" y="-158" font-family="Helvetica,sans-Serif" font-size="10.00">/nodeDetails/vtoolinternalpath.h</text>
</a>
</g>
</g>
<!-- Node1&#45;&gt;Node19 -->
<g id="edge33" class="edge">
<title>Node1&#45;&gt;Node19</title>
<path fill="none" stroke="midnightblue" d="M828.44,-233.87C951.64,-228.1 1178.88,-214.56 1371,-187 1382.21,-185.39 1394.07,-183.27 1405.49,-181.01"/>
<polygon fill="midnightblue" stroke="midnightblue" points="828.13,-230.38 818.3,-234.33 828.45,-237.37 828.13,-230.38"/>
</g>
<!-- Node22 -->
<g id="node22" class="node">
<title>Node22</title>
<g id="a_node22"><a xlink:href="../../df/d88/vnodesplinepath_8h.html" target="_top" xlink:title=" ">
<polygon fill="white" stroke="black" points="1190.5,-151 1190.5,-181 1361.5,-181 1361.5,-151 1190.5,-151"/>
<text text-anchor="start" x="1198.5" y="-169" font-family="Helvetica,sans-Serif" font-size="10.00">src/libs/vtools/tools</text>
<text text-anchor="middle" x="1276" y="-158" font-family="Helvetica,sans-Serif" font-size="10.00">/nodeDetails/vnodesplinepath.h</text>
</a>
</g>
</g>
<!-- Node1&#45;&gt;Node22 -->
<g id="edge39" class="edge">
<title>Node1&#45;&gt;Node22</title>
<path fill="none" stroke="midnightblue" d="M828.29,-229.8C918.25,-221.53 1060.16,-206.84 1182,-187 1192.46,-185.3 1203.51,-183.21 1214.22,-181.03"/>
<polygon fill="midnightblue" stroke="midnightblue" points="827.77,-226.34 818.12,-230.73 828.4,-233.31 827.77,-226.34"/>
</g>
<!-- Node3 -->
<g id="node3" class="node">
<title>Node3</title>
<g id="a_node3"><a xlink:href="../../d9/d3a/anchorpoint__tool_8cpp.html" target="_top" xlink:title=" ">
<polygon fill="white" stroke="black" points="176.5,-67.5 176.5,-108.5 315.5,-108.5 315.5,-67.5 176.5,-67.5"/>
<text text-anchor="start" x="184.5" y="-96.5" font-family="Helvetica,sans-Serif" font-size="10.00">src/libs/vtools/tools</text>
<text text-anchor="start" x="184.5" y="-85.5" font-family="Helvetica,sans-Serif" font-size="10.00">/nodeDetails/anchorpoint</text>
<text text-anchor="middle" x="246" y="-74.5" font-family="Helvetica,sans-Serif" font-size="10.00">_tool.cpp</text>
</a>
</g>
</g>
<!-- Node2&#45;&gt;Node3 -->
<g id="edge2" class="edge">
<title>Node2&#45;&gt;Node3</title>
<path fill="none" stroke="midnightblue" d="M369.58,-141.47C344.67,-130.89 315.62,-118.56 291.94,-108.51"/>
<polygon fill="midnightblue" stroke="midnightblue" points="368.33,-144.74 378.9,-145.43 371.07,-138.3 368.33,-144.74"/>
</g>
<!-- Node4 -->
<g id="node4" class="node">
<title>Node4</title>
<g id="a_node4"><a xlink:href="../../d5/dcf/nodedetails_8h.html" target="_top" xlink:title=" ">
<polygon fill="white" stroke="black" points="843.5,-73 843.5,-103 990.5,-103 990.5,-73 843.5,-73"/>
<text text-anchor="start" x="851.5" y="-91" font-family="Helvetica,sans-Serif" font-size="10.00">src/libs/vtools/tools</text>
<text text-anchor="middle" x="917" y="-80" font-family="Helvetica,sans-Serif" font-size="10.00">/nodeDetails/nodedetails.h</text>
</a>
</g>
</g>
<!-- Node2&#45;&gt;Node4 -->
<g id="edge3" class="edge">
<title>Node2&#45;&gt;Node4</title>
<path fill="none" stroke="midnightblue" d="M504.94,-144.98C651.47,-119.47 692.52,-134.01 835,-109 844.38,-107.35 854.29,-105.25 863.84,-103.04"/>
<polygon fill="midnightblue" stroke="midnightblue" points="503.91,-141.61 494.67,-146.8 505.13,-148.5 503.91,-141.61"/>
</g>
<!-- Node7 -->
<g id="node7" class="node">
<title>Node7</title>
<g id="a_node7"><a xlink:href="../../d4/d9f/union__tool_8cpp.html" target="_top" xlink:title=" ">
<polygon fill="white" stroke="black" points="714.5,-73 714.5,-103 825.5,-103 825.5,-73 714.5,-73"/>
<text text-anchor="start" x="722.5" y="-91" font-family="Helvetica,sans-Serif" font-size="10.00">src/libs/vtools/tools</text>
<text text-anchor="middle" x="770" y="-80" font-family="Helvetica,sans-Serif" font-size="10.00">/union_tool.cpp</text>
</a>
</g>
</g>
<!-- Node2&#45;&gt;Node7 -->
<g id="edge6" class="edge">
<title>Node2&#45;&gt;Node7</title>
<path fill="none" stroke="midnightblue" d="M504.52,-144.98C594.43,-126.13 619.82,-129.65 705,-109 712.11,-107.28 719.59,-105.21 726.85,-103.08"/>
<polygon fill="midnightblue" stroke="midnightblue" points="503.77,-141.56 494.72,-147.06 505.23,-148.4 503.77,-141.56"/>
</g>
<!-- Node5 -->
<g id="node5" class="node">
<title>Node5</title>
<g id="a_node5"><a xlink:href="../../d5/da5/tools_8h.html" target="_top" xlink:title=" ">
<polygon fill="white" stroke="black" points="796.5,-0.5 796.5,-30.5 907.5,-30.5 907.5,-0.5 796.5,-0.5"/>
<text text-anchor="start" x="804.5" y="-18.5" font-family="Helvetica,sans-Serif" font-size="10.00">src/libs/vtools/tools</text>
<text text-anchor="middle" x="852" y="-7.5" font-family="Helvetica,sans-Serif" font-size="10.00">/tools.h</text>
</a>
</g>
</g>
<!-- Node4&#45;&gt;Node5 -->
<g id="edge4" class="edge">
<title>Node4&#45;&gt;Node5</title>
<path fill="none" stroke="midnightblue" d="M897.05,-65.36C886.68,-54.11 874.29,-40.68 865.13,-30.75"/>
<polygon fill="midnightblue" stroke="midnightblue" points="894.49,-67.75 903.85,-72.73 899.64,-63.01 894.49,-67.75"/>
</g>
<!-- Node6 -->
<g id="node6" class="node">
<title>Node6</title>
<g id="a_node6"><a xlink:href="../../d9/d4e/vabstracttool_8cpp.html" target="_top" xlink:title=" ">
<polygon fill="white" stroke="black" points="925.5,-0.5 925.5,-30.5 1036.5,-30.5 1036.5,-0.5 925.5,-0.5"/>
<text text-anchor="start" x="933.5" y="-18.5" font-family="Helvetica,sans-Serif" font-size="10.00">src/libs/vtools/tools</text>
<text text-anchor="middle" x="981" y="-7.5" font-family="Helvetica,sans-Serif" font-size="10.00">/vabstracttool.cpp</text>
</a>
</g>
</g>
<!-- Node4&#45;&gt;Node6 -->
<g id="edge5" class="edge">
<title>Node4&#45;&gt;Node6</title>
<path fill="none" stroke="midnightblue" d="M936.94,-65.04C947.09,-53.86 959.14,-40.58 968.07,-30.75"/>
<polygon fill="midnightblue" stroke="midnightblue" points="934.08,-62.98 929.95,-72.73 939.26,-67.68 934.08,-62.98"/>
</g>
<!-- Node10&#45;&gt;Node4 -->
<g id="edge11" class="edge">
<title>Node10&#45;&gt;Node4</title>
<path fill="none" stroke="midnightblue" d="M642.53,-148.45C647.42,-147.25 652.29,-146.09 657,-145 735.65,-126.85 756.22,-126.57 835,-109 843.3,-107.15 852.04,-105.11 860.61,-103.07"/>
<polygon fill="midnightblue" stroke="midnightblue" points="641.37,-145.14 632.51,-150.95 643.06,-151.93 641.37,-145.14"/>
</g>
<!-- Node10&#45;&gt;Node7 -->
<g id="edge12" class="edge">
<title>Node10&#45;&gt;Node7</title>
<path fill="none" stroke="midnightblue" d="M624.88,-147.05C658.52,-133.59 703.89,-115.44 734.9,-103.04"/>
<polygon fill="midnightblue" stroke="midnightblue" points="623.28,-143.92 615.29,-150.88 625.88,-150.42 623.28,-143.92"/>
</g>
<!-- Node10&#45;&gt;Node9 -->
<g id="edge10" class="edge">
<title>Node10&#45;&gt;Node9</title>
<path fill="none" stroke="midnightblue" d="M521.4,-148.64C515.55,-147.29 509.67,-146.04 504,-145 355.85,-117.76 315.75,-132.71 167,-109 156.45,-107.32 145.31,-105.23 134.52,-103.04"/>
<polygon fill="midnightblue" stroke="midnightblue" points="520.64,-152.06 531.19,-150.99 522.28,-145.25 520.64,-152.06"/>
</g>
<!-- Node11 -->
<g id="node11" class="node">
<title>Node11</title>
<g id="a_node11"><a xlink:href="../../d8/dea/pattern__piece__tool_8cpp.html" target="_top" xlink:title=" ">
<polygon fill="white" stroke="black" points="1008.5,-73 1008.5,-103 1139.5,-103 1139.5,-73 1008.5,-73"/>
<text text-anchor="start" x="1016.5" y="-91" font-family="Helvetica,sans-Serif" font-size="10.00">src/libs/vtools/tools</text>
<text text-anchor="middle" x="1074" y="-80" font-family="Helvetica,sans-Serif" font-size="10.00">/pattern_piece_tool.cpp</text>
</a>
</g>
</g>
<!-- Node10&#45;&gt;Node11 -->
<g id="edge13" class="edge">
<title>Node10&#45;&gt;Node11</title>
<path fill="none" stroke="midnightblue" d="M639.38,-148.63C645.31,-147.28 651.25,-146.04 657,-145 807.82,-117.66 849.31,-137.09 1000,-109 1008.63,-107.39 1017.74,-105.28 1026.49,-103.04"/>
<polygon fill="midnightblue" stroke="midnightblue" points="638.38,-145.27 629.46,-150.99 640,-152.08 638.38,-145.27"/>
</g>
<!-- Node13&#45;&gt;Node4 -->
<g id="edge16" class="edge">
<title>Node13&#45;&gt;Node4</title>
<path fill="none" stroke="midnightblue" d="M780.69,-146.87C812.34,-133.44 854.85,-115.39 883.93,-103.04"/>
<polygon fill="midnightblue" stroke="midnightblue" points="779.09,-143.75 771.25,-150.88 781.82,-150.2 779.09,-143.75"/>
</g>
<!-- Node13&#45;&gt;Node7 -->
<g id="edge18" class="edge">
<title>Node13&#45;&gt;Node7</title>
<path fill="none" stroke="midnightblue" d="M747.96,-141.33C753.22,-128.85 759.5,-113.94 764.01,-103.23"/>
<polygon fill="midnightblue" stroke="midnightblue" points="744.67,-140.13 744.02,-150.7 751.13,-142.85 744.67,-140.13"/>
</g>
<!-- Node13&#45;&gt;Node11 -->
<g id="edge19" class="edge">
<title>Node13&#45;&gt;Node11</title>
<path fill="none" stroke="midnightblue" d="M804.47,-148.54C809.72,-147.31 814.94,-146.12 820,-145 899.65,-127.33 920.58,-127.65 1000,-109 1007.77,-107.17 1015.97,-105.11 1023.96,-103.01"/>
<polygon fill="midnightblue" stroke="midnightblue" points="803.32,-145.21 794.39,-150.92 804.93,-152.03 803.32,-145.21"/>
</g>
<!-- Node13&#45;&gt;Node14 -->
<g id="edge17" class="edge">
<title>Node13&#45;&gt;Node14</title>
<path fill="none" stroke="midnightblue" d="M672.04,-148.61C666.95,-147.38 661.9,-146.16 657,-145 586.93,-128.37 569.21,-125.07 499,-109 490.54,-107.06 481.62,-105.02 472.84,-103"/>
<polygon fill="midnightblue" stroke="midnightblue" points="671.28,-152.03 681.82,-150.99 672.93,-145.22 671.28,-152.03"/>
</g>
<!-- Node16&#45;&gt;Node4 -->
<g id="edge22" class="edge">
<title>Node16&#45;&gt;Node4</title>
<path fill="none" stroke="midnightblue" d="M1054.83,-146.87C1022.83,-133.44 979.85,-115.39 950.44,-103.04"/>
<polygon fill="midnightblue" stroke="midnightblue" points="1053.8,-150.24 1064.38,-150.88 1056.51,-143.78 1053.8,-150.24"/>
</g>
<!-- Node16&#45;&gt;Node7 -->
<g id="edge24" class="edge">
<title>Node16&#45;&gt;Node7</title>
<path fill="none" stroke="midnightblue" d="M1031.12,-148.65C1025.67,-147.39 1020.25,-146.16 1015,-145 935.33,-127.44 914.09,-129.02 835,-109 828.02,-107.23 820.67,-105.17 813.53,-103.06"/>
<polygon fill="midnightblue" stroke="midnightblue" points="1030.38,-152.07 1040.92,-150.94 1031.98,-145.25 1030.38,-152.07"/>
</g>
<!-- Node16&#45;&gt;Node11 -->
<g id="edge25" class="edge">
<title>Node16&#45;&gt;Node11</title>
<path fill="none" stroke="midnightblue" d="M1090.41,-140.96C1086.49,-128.55 1081.84,-113.83 1078.49,-103.23"/>
<polygon fill="midnightblue" stroke="midnightblue" points="1087.14,-142.22 1093.49,-150.7 1093.81,-140.12 1087.14,-142.22"/>
</g>
<!-- Node16&#45;&gt;Node15 -->
<g id="edge23" class="edge">
<title>Node16&#45;&gt;Node15</title>
<path fill="none" stroke="midnightblue" d="M1162.64,-148.7C1169.16,-147.33 1175.7,-146.07 1182,-145 1337.49,-118.68 1379.35,-134.33 1535,-109 1545.16,-107.35 1555.9,-105.24 1566.27,-103.03"/>
<polygon fill="midnightblue" stroke="midnightblue" points="1161.48,-145.38 1152.46,-150.93 1162.98,-152.21 1161.48,-145.38"/>
</g>
<!-- Node18&#45;&gt;Node4 -->
<g id="edge30" class="edge">
<title>Node18&#45;&gt;Node4</title>
<path fill="none" stroke="midnightblue" d="M917,-140.59C917,-128.26 917,-113.72 917,-103.23"/>
<polygon fill="midnightblue" stroke="midnightblue" points="913.5,-140.7 917,-150.7 920.5,-140.71 913.5,-140.7"/>
</g>
<!-- Node18&#45;&gt;Node7 -->
<g id="edge31" class="edge">
<title>Node18&#45;&gt;Node7</title>
<path fill="none" stroke="midnightblue" d="M880.59,-146.17C854.75,-132.82 820.63,-115.18 797.16,-103.04"/>
<polygon fill="midnightblue" stroke="midnightblue" points="879.2,-149.4 889.69,-150.88 882.42,-143.18 879.2,-149.4"/>
</g>
<!-- Node18&#45;&gt;Node11 -->
<g id="edge32" class="edge">
<title>Node18&#45;&gt;Node11</title>
<path fill="none" stroke="midnightblue" d="M955.17,-146.52C982.84,-133.13 1019.71,-115.28 1044.99,-103.04"/>
<polygon fill="midnightblue" stroke="midnightblue" points="953.64,-143.38 946.16,-150.88 956.69,-149.68 953.64,-143.38"/>
</g>
<!-- Node18&#45;&gt;Node12 -->
<g id="edge29" class="edge">
<title>Node18&#45;&gt;Node12</title>
<path fill="none" stroke="midnightblue" d="M848.97,-148.59C792.64,-134.99 713.46,-115.89 660.07,-103.01"/>
<polygon fill="midnightblue" stroke="midnightblue" points="848.32,-152.03 858.86,-150.97 849.96,-145.22 848.32,-152.03"/>
</g>
<!-- Node19&#45;&gt;Node4 -->
<g id="edge34" class="edge">
<title>Node19&#45;&gt;Node4</title>
<path fill="none" stroke="midnightblue" d="M1394.66,-149.06C1386.7,-147.56 1378.69,-146.17 1371,-145 1207.22,-120.07 1163.37,-136.47 1000,-109 990.35,-107.38 980.16,-105.26 970.35,-103.02"/>
<polygon fill="midnightblue" stroke="midnightblue" points="1394.21,-152.53 1404.69,-150.99 1395.54,-145.66 1394.21,-152.53"/>
</g>
<!-- Node19&#45;&gt;Node7 -->
<g id="edge36" class="edge">
<title>Node19&#45;&gt;Node7</title>
<path fill="none" stroke="midnightblue" d="M1396.16,-149.09C1387.71,-147.54 1379.18,-146.12 1371,-145 1134.45,-112.57 1069.78,-152.4 835,-109 826.99,-107.52 818.57,-105.38 810.56,-103.05"/>
<polygon fill="midnightblue" stroke="midnightblue" points="1395.54,-152.54 1406.02,-150.98 1396.86,-145.66 1395.54,-152.54"/>
</g>
<!-- Node19&#45;&gt;Node11 -->
<g id="edge37" class="edge">
<title>Node19&#45;&gt;Node11</title>
<path fill="none" stroke="midnightblue" d="M1391.59,-148.96C1384.64,-147.58 1377.69,-146.24 1371,-145 1272.71,-126.8 1246.75,-129.9 1149,-109 1140.83,-107.25 1132.22,-105.18 1123.86,-103.04"/>
<polygon fill="midnightblue" stroke="midnightblue" points="1391.26,-152.46 1401.75,-151 1392.64,-145.6 1391.26,-152.46"/>
</g>
<!-- Node20 -->
<g id="node20" class="node">
<title>Node20</title>
<g id="a_node20"><a xlink:href="../../d3/dd9/vtoolinternalpath_8cpp.html" target="_top" xlink:title=" ">
<polygon fill="white" stroke="black" points="1157.5,-73 1157.5,-103 1342.5,-103 1342.5,-73 1157.5,-73"/>
<text text-anchor="start" x="1165.5" y="-91" font-family="Helvetica,sans-Serif" font-size="10.00">src/libs/vtools/tools</text>
<text text-anchor="middle" x="1250" y="-80" font-family="Helvetica,sans-Serif" font-size="10.00">/nodeDetails/vtoolinternalpath.cpp</text>
</a>
</g>
</g>
<!-- Node19&#45;&gt;Node20 -->
<g id="edge35" class="edge">
<title>Node19&#45;&gt;Node20</title>
<path fill="none" stroke="midnightblue" d="M1417.47,-147.65C1378.93,-134.16 1326.13,-115.66 1290.19,-103.07"/>
<polygon fill="midnightblue" stroke="midnightblue" points="1416.35,-150.97 1426.95,-150.97 1418.66,-144.36 1416.35,-150.97"/>
</g>
<!-- Node21 -->
<g id="node21" class="node">
<title>Node21</title>
<g id="a_node21"><a xlink:href="../../dd/d3a/savepiecepathoptions_8cpp.html" target="_top" xlink:title=" ">
<polygon fill="white" stroke="black" points="1360.5,-73 1360.5,-103 1525.5,-103 1525.5,-73 1360.5,-73"/>
<text text-anchor="start" x="1368.5" y="-91" font-family="Helvetica,sans-Serif" font-size="10.00">src/libs/vtools/undocommands</text>
<text text-anchor="middle" x="1443" y="-80" font-family="Helvetica,sans-Serif" font-size="10.00">/savepiecepathoptions.cpp</text>
</a>
</g>
</g>
<!-- Node19&#45;&gt;Node21 -->
<g id="edge38" class="edge">
<title>Node19&#45;&gt;Node21</title>
<path fill="none" stroke="midnightblue" d="M1459.41,-140.96C1455.49,-128.55 1450.84,-113.83 1447.49,-103.23"/>
<polygon fill="midnightblue" stroke="midnightblue" points="1456.14,-142.22 1462.49,-150.7 1462.81,-140.12 1456.14,-142.22"/>
</g>
<!-- Node22&#45;&gt;Node4 -->
<g id="edge40" class="edge">
<title>Node22&#45;&gt;Node4</title>
<path fill="none" stroke="midnightblue" d="M1200.81,-148.9C1194.45,-147.57 1188.11,-146.25 1182,-145 1101.23,-128.42 1080.54,-126.66 1000,-109 991.6,-107.16 982.75,-105.12 974.08,-103.08"/>
<polygon fill="midnightblue" stroke="midnightblue" points="1200.29,-152.37 1210.79,-151 1201.73,-145.52 1200.29,-152.37"/>
</g>
<!-- Node22&#45;&gt;Node7 -->
<g id="edge42" class="edge">
<title>Node22&#45;&gt;Node7</title>
<path fill="none" stroke="midnightblue" d="M1204.73,-149.01C1197.08,-147.54 1189.39,-146.17 1182,-145 1028.85,-120.83 986.93,-139.95 835,-109 827.25,-107.42 819.1,-105.3 811.3,-103.03"/>
<polygon fill="midnightblue" stroke="midnightblue" points="1204.25,-152.48 1214.74,-150.98 1205.61,-145.61 1204.25,-152.48"/>
</g>
<!-- Node22&#45;&gt;Node11 -->
<g id="edge43" class="edge">
<title>Node22&#45;&gt;Node11</title>
<path fill="none" stroke="midnightblue" d="M1228.74,-147.22C1192.94,-133.75 1144.42,-115.5 1111.32,-103.04"/>
<polygon fill="midnightblue" stroke="midnightblue" points="1227.89,-150.64 1238.48,-150.88 1230.35,-144.09 1227.89,-150.64"/>
</g>
<!-- Node22&#45;&gt;Node17 -->
<g id="edge41" class="edge">
<title>Node22&#45;&gt;Node17</title>
<path fill="none" stroke="midnightblue" d="M1348.21,-148.99C1355.89,-147.53 1363.59,-146.17 1371,-145 1522.42,-121.18 1562.46,-132.06 1714,-109 1725.11,-107.31 1736.87,-105.23 1748.26,-103.05"/>
<polygon fill="midnightblue" stroke="midnightblue" points="1347.32,-145.6 1338.17,-150.95 1348.66,-152.47 1347.32,-145.6"/>
</g>
</g>
</svg>
