<?xml version="1.0" encoding="UTF-8" standalone="no"?>
<!DOCTYPE svg PUBLIC "-//W3C//DTD SVG 1.1//EN"
 "http://www.w3.org/Graphics/SVG/1.1/DTD/svg11.dtd">
<!-- Generated by graphviz version 2.43.0 (0)
 -->
<!-- Title: src/libs/vtools/tools/nodeDetails/vabstractnode.h Pages: 1 -->
<svg width="1983pt" height="262pt"
 viewBox="0.00 0.00 1983.00 262.00" xmlns="http://www.w3.org/2000/svg" xmlns:xlink="http://www.w3.org/1999/xlink">
<g id="graph0" class="graph" transform="scale(1 1) rotate(0) translate(4 258)">
<title>src/libs/vtools/tools/nodeDetails/vabstractnode.h</title>
<polygon fill="white" stroke="transparent" points="-4,4 -4,-258 1979,-258 1979,4 -4,4"/>
<!-- Node1 -->
<g id="node1" class="node">
<title>Node1</title>
<g id="a_node1"><a xlink:title=" ">
<polygon fill="#bfbfbf" stroke="black" points="765.5,-223.5 765.5,-253.5 925.5,-253.5 925.5,-223.5 765.5,-223.5"/>
<text text-anchor="start" x="773.5" y="-241.5" font-family="Helvetica,sans-Serif" font-size="10.00">src/libs/vtools/tools</text>
<text text-anchor="middle" x="845.5" y="-230.5" font-family="Helvetica,sans-Serif" font-size="10.00">/nodeDetails/vabstractnode.h</text>
</a>
</g>
</g>
<!-- Node2 -->
<g id="node2" class="node">
<title>Node2</title>
<g id="a_node2"><a xlink:href="../../d5/dcd/vabstractnode_8cpp.html" target="_top" xlink:title=" ">
<polygon fill="white" stroke="black" points="0,-151 0,-181 171,-181 171,-151 0,-151"/>
<text text-anchor="start" x="8" y="-169" font-family="Helvetica,sans-Serif" font-size="10.00">src/libs/vtools/tools</text>
<text text-anchor="middle" x="85.5" y="-158" font-family="Helvetica,sans-Serif" font-size="10.00">/nodeDetails/vabstractnode.cpp</text>
</a>
</g>
</g>
<!-- Node1&#45;&gt;Node2 -->
<g id="edge1" class="edge">
<title>Node1&#45;&gt;Node2</title>
<path fill="none" stroke="midnightblue" d="M755.31,-234.06C627.88,-228.41 388.06,-214.9 185.5,-187 173.84,-185.39 161.48,-183.27 149.59,-181.01"/>
<polygon fill="midnightblue" stroke="midnightblue" points="755.27,-237.56 765.42,-234.5 755.58,-230.57 755.27,-237.56"/>
</g>
<!-- Node3 -->
<g id="node3" class="node">
<title>Node3</title>
<g id="a_node3"><a xlink:href="../../d0/d43/vnodearc_8cpp.html" target="_top" xlink:title=" ">
<polygon fill="white" stroke="black" points="238.5,-73 238.5,-103 384.5,-103 384.5,-73 238.5,-73"/>
<text text-anchor="start" x="246.5" y="-91" font-family="Helvetica,sans-Serif" font-size="10.00">src/libs/vtools/tools</text>
<text text-anchor="middle" x="311.5" y="-80" font-family="Helvetica,sans-Serif" font-size="10.00">/nodeDetails/vnodearc.cpp</text>
</a>
</g>
</g>
<!-- Node1&#45;&gt;Node3 -->
<g id="edge2" class="edge">
<title>Node1&#45;&gt;Node3</title>
<path fill="none" stroke="midnightblue" d="M755.17,-236.51C595.6,-233.82 277.39,-223.85 243.5,-187 230.86,-173.26 235.53,-161.88 243.5,-145 252.05,-126.88 269.66,-112.64 284.81,-103.06"/>
<polygon fill="midnightblue" stroke="midnightblue" points="755.39,-240.02 765.44,-236.68 755.5,-233.02 755.39,-240.02"/>
</g>
<!-- Node4 -->
<g id="node4" class="node">
<title>Node4</title>
<g id="a_node4"><a xlink:href="../../de/d51/anchorpoint__tool_8h.html" target="_top" xlink:title=" ">
<polygon fill="white" stroke="black" points="266,-145.5 266,-186.5 405,-186.5 405,-145.5 266,-145.5"/>
<text text-anchor="start" x="274" y="-174.5" font-family="Helvetica,sans-Serif" font-size="10.00">src/libs/vtools/tools</text>
<text text-anchor="start" x="274" y="-163.5" font-family="Helvetica,sans-Serif" font-size="10.00">/nodeDetails/anchorpoint</text>
<text text-anchor="middle" x="335.5" y="-152.5" font-family="Helvetica,sans-Serif" font-size="10.00">_tool.h</text>
</a>
</g>
</g>
<!-- Node1&#45;&gt;Node4 -->
<g id="edge3" class="edge">
<title>Node1&#45;&gt;Node4</title>
<path fill="none" stroke="midnightblue" d="M755.21,-230.51C667.44,-222.88 530.62,-208.76 413.5,-187 410.75,-186.49 407.96,-185.94 405.14,-185.35"/>
<polygon fill="midnightblue" stroke="midnightblue" points="755.13,-234.02 765.4,-231.39 755.73,-227.04 755.13,-234.02"/>
</g>
<!-- Node10 -->
<g id="node10" class="node">
<title>Node10</title>
<g id="a_node10"><a xlink:href="../../df/d25/vnodeellipticalarc_8h.html" target="_top" xlink:title=" ">
<polygon fill="white" stroke="black" points="576,-151 576,-181 753,-181 753,-151 576,-151"/>
<text text-anchor="start" x="584" y="-169" font-family="Helvetica,sans-Serif" font-size="10.00">src/libs/vtools/tools</text>
<text text-anchor="middle" x="664.5" y="-158" font-family="Helvetica,sans-Serif" font-size="10.00">/nodeDetails/vnodeellipticalarc.h</text>
</a>
</g>
</g>
<!-- Node1&#45;&gt;Node10 -->
<g id="edge9" class="edge">
<title>Node1&#45;&gt;Node10</title>
<path fill="none" stroke="midnightblue" d="M799.68,-219.65C768.97,-207.69 729.1,-192.16 700.63,-181.07"/>
<polygon fill="midnightblue" stroke="midnightblue" points="798.72,-223.03 809.31,-223.4 801.26,-216.51 798.72,-223.03"/>
</g>
<!-- Node11 -->
<g id="node11" class="node">
<title>Node11</title>
<g id="a_node11"><a xlink:href="../../d3/d3a/vnodeellipticalarc_8cpp.html" target="_top" xlink:title=" ">
<polygon fill="white" stroke="black" points="402.5,-73 402.5,-103 590.5,-103 590.5,-73 402.5,-73"/>
<text text-anchor="start" x="410.5" y="-91" font-family="Helvetica,sans-Serif" font-size="10.00">src/libs/vtools/tools</text>
<text text-anchor="middle" x="496.5" y="-80" font-family="Helvetica,sans-Serif" font-size="10.00">/nodeDetails/vnodeellipticalarc.cpp</text>
</a>
</g>
</g>
<!-- Node1&#45;&gt;Node11 -->
<g id="edge14" class="edge">
<title>Node1&#45;&gt;Node11</title>
<path fill="none" stroke="midnightblue" d="M755.3,-236.33C598.59,-233.36 289.5,-222.95 256.5,-187 243.88,-173.25 244.9,-159.62 256.5,-145 261.93,-138.16 358.03,-117.27 426.95,-103.03"/>
<polygon fill="midnightblue" stroke="midnightblue" points="755.34,-239.83 765.4,-236.52 755.47,-232.83 755.34,-239.83"/>
</g>
<!-- Node13 -->
<g id="node13" class="node">
<title>Node13</title>
<g id="a_node13"><a xlink:href="../../df/d98/vnodearc_8h.html" target="_top" xlink:title=" ">
<polygon fill="white" stroke="black" points="423,-151 423,-181 558,-181 558,-151 423,-151"/>
<text text-anchor="start" x="431" y="-169" font-family="Helvetica,sans-Serif" font-size="10.00">src/libs/vtools/tools</text>
<text text-anchor="middle" x="490.5" y="-158" font-family="Helvetica,sans-Serif" font-size="10.00">/nodeDetails/vnodearc.h</text>
</a>
</g>
</g>
<!-- Node1&#45;&gt;Node13 -->
<g id="edge15" class="edge">
<title>Node1&#45;&gt;Node13</title>
<path fill="none" stroke="midnightblue" d="M755.45,-223.04C700.62,-213.78 629.27,-200.92 566.5,-187 558.51,-185.23 550.09,-183.19 541.88,-181.1"/>
<polygon fill="midnightblue" stroke="midnightblue" points="755.05,-226.52 765.49,-224.73 756.21,-219.62 755.05,-226.52"/>
</g>
<!-- Node14 -->
<g id="node14" class="node">
<title>Node14</title>
<g id="a_node14"><a xlink:href="../../d5/df0/vnodepoint_8h.html" target="_top" xlink:title=" ">
<polygon fill="white" stroke="black" points="938,-151 938,-181 1083,-181 1083,-151 938,-151"/>
<text text-anchor="start" x="946" y="-169" font-family="Helvetica,sans-Serif" font-size="10.00">src/libs/vtools/tools</text>
<text text-anchor="middle" x="1010.5" y="-158" font-family="Helvetica,sans-Serif" font-size="10.00">/nodeDetails/vnodepoint.h</text>
</a>
</g>
</g>
<!-- Node1&#45;&gt;Node14 -->
<g id="edge20" class="edge">
<title>Node1&#45;&gt;Node14</title>
<path fill="none" stroke="midnightblue" d="M887.99,-219.34C915.89,-207.42 951.84,-192.07 977.56,-181.07"/>
<polygon fill="midnightblue" stroke="midnightblue" points="886.31,-216.26 878.49,-223.4 889.06,-222.69 886.31,-216.26"/>
</g>
<!-- Node15 -->
<g id="node15" class="node">
<title>Node15</title>
<g id="a_node15"><a xlink:href="../../d4/d7b/vnodepoint_8cpp.html" target="_top" xlink:title=" ">
<polygon fill="white" stroke="black" points="1231.5,-73 1231.5,-103 1387.5,-103 1387.5,-73 1231.5,-73"/>
<text text-anchor="start" x="1239.5" y="-91" font-family="Helvetica,sans-Serif" font-size="10.00">src/libs/vtools/tools</text>
<text text-anchor="middle" x="1309.5" y="-80" font-family="Helvetica,sans-Serif" font-size="10.00">/nodeDetails/vnodepoint.cpp</text>
</a>
</g>
</g>
<!-- Node1&#45;&gt;Node15 -->
<g id="edge43" class="edge">
<title>Node1&#45;&gt;Node15</title>
<path fill="none" stroke="midnightblue" d="M935.81,-237.16C1106.12,-235.59 1461.08,-227.43 1498.5,-187 1511.18,-173.3 1509.67,-159.96 1498.5,-145 1490.5,-134.29 1421.86,-115.79 1369.58,-103"/>
<polygon fill="midnightblue" stroke="midnightblue" points="935.58,-233.67 925.61,-237.25 935.64,-240.67 935.58,-233.67"/>
</g>
<!-- Node16 -->
<g id="node16" class="node">
<title>Node16</title>
<g id="a_node16"><a xlink:href="../../df/d94/vnodespline_8cpp.html" target="_top" xlink:title=" ">
<polygon fill="white" stroke="black" points="1052,-73 1052,-103 1213,-103 1213,-73 1052,-73"/>
<text text-anchor="start" x="1060" y="-91" font-family="Helvetica,sans-Serif" font-size="10.00">src/libs/vtools/tools</text>
<text text-anchor="middle" x="1132.5" y="-80" font-family="Helvetica,sans-Serif" font-size="10.00">/nodeDetails/vnodespline.cpp</text>
</a>
</g>
</g>
<!-- Node1&#45;&gt;Node16 -->
<g id="edge25" class="edge">
<title>Node1&#45;&gt;Node16</title>
<path fill="none" stroke="midnightblue" d="M935.74,-236.86C1100.8,-234.74 1437.81,-225.68 1473.5,-187 1541.02,-113.83 1453.57,-151.18 1222.5,-109 1212.89,-107.25 1202.76,-105.19 1192.89,-103.08"/>
<polygon fill="midnightblue" stroke="midnightblue" points="935.55,-233.36 925.6,-236.98 935.64,-240.36 935.55,-233.36"/>
</g>
<!-- Node17 -->
<g id="node17" class="node">
<title>Node17</title>
<g id="a_node17"><a xlink:href="../../d0/dd2/vnodespline_8h.html" target="_top" xlink:title=" ">
<polygon fill="white" stroke="black" points="771,-151 771,-181 920,-181 920,-151 771,-151"/>
<text text-anchor="start" x="779" y="-169" font-family="Helvetica,sans-Serif" font-size="10.00">src/libs/vtools/tools</text>
<text text-anchor="middle" x="845.5" y="-158" font-family="Helvetica,sans-Serif" font-size="10.00">/nodeDetails/vnodespline.h</text>
</a>
</g>
</g>
<!-- Node1&#45;&gt;Node17 -->
<g id="edge26" class="edge">
<title>Node1&#45;&gt;Node17</title>
<path fill="none" stroke="midnightblue" d="M845.5,-213.23C845.5,-202.57 845.5,-190.41 845.5,-181.25"/>
<polygon fill="midnightblue" stroke="midnightblue" points="842,-213.23 845.5,-223.23 849,-213.23 842,-213.23"/>
</g>
<!-- Node18 -->
<g id="node18" class="node">
<title>Node18</title>
<g id="a_node18"><a xlink:href="../../d2/dad/vnodesplinepath_8cpp.html" target="_top" xlink:title=" ">
<polygon fill="white" stroke="black" points="1589.5,-73 1589.5,-103 1771.5,-103 1771.5,-73 1589.5,-73"/>
<text text-anchor="start" x="1597.5" y="-91" font-family="Helvetica,sans-Serif" font-size="10.00">src/libs/vtools/tools</text>
<text text-anchor="middle" x="1680.5" y="-80" font-family="Helvetica,sans-Serif" font-size="10.00">/nodeDetails/vnodesplinepath.cpp</text>
</a>
</g>
</g>
<!-- Node1&#45;&gt;Node18 -->
<g id="edge31" class="edge">
<title>Node1&#45;&gt;Node18</title>
<path fill="none" stroke="midnightblue" d="M935.93,-235.83C1093.31,-232.07 1410.86,-220.47 1516.5,-187 1574.99,-168.46 1634.59,-125.54 1663.15,-103.16"/>
<polygon fill="midnightblue" stroke="midnightblue" points="935.71,-232.33 925.8,-236.07 935.88,-239.33 935.71,-232.33"/>
</g>
<!-- Node19 -->
<g id="node19" class="node">
<title>Node19</title>
<g id="a_node19"><a xlink:href="../../df/d88/vnodesplinepath_8h.html" target="_top" xlink:title=" ">
<polygon fill="white" stroke="black" points="1101,-151 1101,-181 1272,-181 1272,-151 1101,-151"/>
<text text-anchor="start" x="1109" y="-169" font-family="Helvetica,sans-Serif" font-size="10.00">src/libs/vtools/tools</text>
<text text-anchor="middle" x="1186.5" y="-158" font-family="Helvetica,sans-Serif" font-size="10.00">/nodeDetails/vnodesplinepath.h</text>
</a>
</g>
</g>
<!-- Node1&#45;&gt;Node19 -->
<g id="edge32" class="edge">
<title>Node1&#45;&gt;Node19</title>
<path fill="none" stroke="midnightblue" d="M924.25,-221.44C972.54,-211.56 1035.61,-198.62 1091.5,-187 1100.74,-185.08 1110.48,-183.04 1120.07,-181.03"/>
<polygon fill="midnightblue" stroke="midnightblue" points="923.28,-218.07 914.18,-223.5 924.68,-224.92 923.28,-218.07"/>
</g>
<!-- Node20 -->
<g id="node20" class="node">
<title>Node20</title>
<g id="a_node20"><a xlink:href="../../d5/d9d/vtoolinternalpath_8h.html" target="_top" xlink:title=" ">
<polygon fill="white" stroke="black" points="1290.5,-151 1290.5,-181 1464.5,-181 1464.5,-151 1290.5,-151"/>
<text text-anchor="start" x="1298.5" y="-169" font-family="Helvetica,sans-Serif" font-size="10.00">src/libs/vtools/tools</text>
<text text-anchor="middle" x="1377.5" y="-158" font-family="Helvetica,sans-Serif" font-size="10.00">/nodeDetails/vtoolinternalpath.h</text>
</a>
</g>
</g>
<!-- Node1&#45;&gt;Node20 -->
<g id="edge37" class="edge">
<title>Node1&#45;&gt;Node20</title>
<path fill="none" stroke="midnightblue" d="M935.54,-229.37C1023.73,-220.87 1161.78,-206.09 1280.5,-187 1291.2,-185.28 1302.5,-183.2 1313.47,-181.03"/>
<polygon fill="midnightblue" stroke="midnightblue" points="935.19,-225.89 925.56,-230.33 935.85,-232.86 935.19,-225.89"/>
</g>
<!-- Node5 -->
<g id="node5" class="node">
<title>Node5</title>
<g id="a_node5"><a xlink:href="../../d9/d3a/anchorpoint__tool_8cpp.html" target="_top" xlink:title=" ">
<polygon fill="white" stroke="black" points="81,-67.5 81,-108.5 220,-108.5 220,-67.5 81,-67.5"/>
<text text-anchor="start" x="89" y="-96.5" font-family="Helvetica,sans-Serif" font-size="10.00">src/libs/vtools/tools</text>
<text text-anchor="start" x="89" y="-85.5" font-family="Helvetica,sans-Serif" font-size="10.00">/nodeDetails/anchorpoint</text>
<text text-anchor="middle" x="150.5" y="-74.5" font-family="Helvetica,sans-Serif" font-size="10.00">_tool.cpp</text>
</a>
</g>
</g>
<!-- Node4&#45;&gt;Node5 -->
<g id="edge4" class="edge">
<title>Node4&#45;&gt;Node5</title>
<path fill="none" stroke="midnightblue" d="M278.56,-141.61C252.74,-131 222.56,-118.6 197.98,-108.51"/>
<polygon fill="midnightblue" stroke="midnightblue" points="277.28,-144.87 287.86,-145.43 279.94,-138.39 277.28,-144.87"/>
</g>
<!-- Node6 -->
<g id="node6" class="node">
<title>Node6</title>
<g id="a_node6"><a xlink:href="../../d5/dcf/nodedetails_8h.html" target="_top" xlink:title=" ">
<polygon fill="white" stroke="black" points="738,-73 738,-103 885,-103 885,-73 738,-73"/>
<text text-anchor="start" x="746" y="-91" font-family="Helvetica,sans-Serif" font-size="10.00">src/libs/vtools/tools</text>
<text text-anchor="middle" x="811.5" y="-80" font-family="Helvetica,sans-Serif" font-size="10.00">/nodeDetails/nodedetails.h</text>
</a>
</g>
</g>
<!-- Node4&#45;&gt;Node6 -->
<g id="edge5" class="edge">
<title>Node4&#45;&gt;Node6</title>
<path fill="none" stroke="midnightblue" d="M415.29,-144.79C553.9,-120.08 593,-132.98 728.5,-109 737.84,-107.35 747.7,-105.27 757.23,-103.09"/>
<polygon fill="midnightblue" stroke="midnightblue" points="414.35,-141.41 405.14,-146.64 415.6,-148.3 414.35,-141.41"/>
</g>
<!-- Node9 -->
<g id="node9" class="node">
<title>Node9</title>
<g id="a_node9"><a xlink:href="../../d4/d9f/union__tool_8cpp.html" target="_top" xlink:title=" ">
<polygon fill="white" stroke="black" points="609,-73 609,-103 720,-103 720,-73 609,-73"/>
<text text-anchor="start" x="617" y="-91" font-family="Helvetica,sans-Serif" font-size="10.00">src/libs/vtools/tools</text>
<text text-anchor="middle" x="664.5" y="-80" font-family="Helvetica,sans-Serif" font-size="10.00">/union_tool.cpp</text>
</a>
</g>
</g>
<!-- Node4&#45;&gt;Node9 -->
<g id="edge8" class="edge">
<title>Node4&#45;&gt;Node9</title>
<path fill="none" stroke="midnightblue" d="M414.99,-144.74C497.38,-126.72 520.84,-128.65 599.5,-109 606.49,-107.25 613.84,-105.2 620.98,-103.1"/>
<polygon fill="midnightblue" stroke="midnightblue" points="414.19,-141.33 405.19,-146.91 415.71,-148.16 414.19,-141.33"/>
</g>
<!-- Node7 -->
<g id="node7" class="node">
<title>Node7</title>
<g id="a_node7"><a xlink:href="../../d5/da5/tools_8h.html" target="_top" xlink:title=" ">
<polygon fill="white" stroke="black" points="691,-0.5 691,-30.5 802,-30.5 802,-0.5 691,-0.5"/>
<text text-anchor="start" x="699" y="-18.5" font-family="Helvetica,sans-Serif" font-size="10.00">src/libs/vtools/tools</text>
<text text-anchor="middle" x="746.5" y="-7.5" font-family="Helvetica,sans-Serif" font-size="10.00">/tools.h</text>
</a>
</g>
</g>
<!-- Node6&#45;&gt;Node7 -->
<g id="edge6" class="edge">
<title>Node6&#45;&gt;Node7</title>
<path fill="none" stroke="midnightblue" d="M791.55,-65.36C781.18,-54.11 768.79,-40.68 759.63,-30.75"/>
<polygon fill="midnightblue" stroke="midnightblue" points="788.99,-67.75 798.35,-72.73 794.14,-63.01 788.99,-67.75"/>
</g>
<!-- Node8 -->
<g id="node8" class="node">
<title>Node8</title>
<g id="a_node8"><a xlink:href="../../d9/d4e/vabstracttool_8cpp.html" target="_top" xlink:title=" ">
<polygon fill="white" stroke="black" points="820,-0.5 820,-30.5 931,-30.5 931,-0.5 820,-0.5"/>
<text text-anchor="start" x="828" y="-18.5" font-family="Helvetica,sans-Serif" font-size="10.00">src/libs/vtools/tools</text>
<text text-anchor="middle" x="875.5" y="-7.5" font-family="Helvetica,sans-Serif" font-size="10.00">/vabstracttool.cpp</text>
</a>
</g>
</g>
<!-- Node6&#45;&gt;Node8 -->
<g id="edge7" class="edge">
<title>Node6&#45;&gt;Node8</title>
<path fill="none" stroke="midnightblue" d="M831.44,-65.04C841.59,-53.86 853.64,-40.58 862.57,-30.75"/>
<polygon fill="midnightblue" stroke="midnightblue" points="828.58,-62.98 824.45,-72.73 833.76,-67.68 828.58,-62.98"/>
</g>
<!-- Node10&#45;&gt;Node6 -->
<g id="edge10" class="edge">
<title>Node10&#45;&gt;Node6</title>
<path fill="none" stroke="midnightblue" d="M700.91,-146.17C726.75,-132.82 760.87,-115.18 784.34,-103.04"/>
<polygon fill="midnightblue" stroke="midnightblue" points="699.08,-143.18 691.81,-150.88 702.3,-149.4 699.08,-143.18"/>
</g>
<!-- Node10&#45;&gt;Node9 -->
<g id="edge13" class="edge">
<title>Node10&#45;&gt;Node9</title>
<path fill="none" stroke="midnightblue" d="M664.5,-140.59C664.5,-128.26 664.5,-113.72 664.5,-103.23"/>
<polygon fill="midnightblue" stroke="midnightblue" points="661,-140.7 664.5,-150.7 668,-140.71 661,-140.7"/>
</g>
<!-- Node10&#45;&gt;Node11 -->
<g id="edge11" class="edge">
<title>Node10&#45;&gt;Node11</title>
<path fill="none" stroke="midnightblue" d="M624.04,-146.7C594.39,-133.28 554.72,-115.34 527.54,-103.04"/>
<polygon fill="midnightblue" stroke="midnightblue" points="622.74,-149.95 633.29,-150.88 625.63,-143.57 622.74,-149.95"/>
</g>
<!-- Node12 -->
<g id="node12" class="node">
<title>Node12</title>
<g id="a_node12"><a xlink:href="../../d8/dea/pattern__piece__tool_8cpp.html" target="_top" xlink:title=" ">
<polygon fill="white" stroke="black" points="903,-73 903,-103 1034,-103 1034,-73 903,-73"/>
<text text-anchor="start" x="911" y="-91" font-family="Helvetica,sans-Serif" font-size="10.00">src/libs/vtools/tools</text>
<text text-anchor="middle" x="968.5" y="-80" font-family="Helvetica,sans-Serif" font-size="10.00">/pattern_piece_tool.cpp</text>
</a>
</g>
</g>
<!-- Node10&#45;&gt;Node12 -->
<g id="edge12" class="edge">
<title>Node10&#45;&gt;Node12</title>
<path fill="none" stroke="midnightblue" d="M733.18,-148.6C778.71,-137.63 839.75,-122.74 893.5,-109 900.94,-107.1 908.79,-105.05 916.49,-103.02"/>
<polygon fill="midnightblue" stroke="midnightblue" points="732.32,-145.21 723.42,-150.95 733.96,-152.01 732.32,-145.21"/>
</g>
<!-- Node13&#45;&gt;Node3 -->
<g id="edge16" class="edge">
<title>Node13&#45;&gt;Node3</title>
<path fill="none" stroke="midnightblue" d="M447.81,-146.87C416.16,-133.44 373.65,-115.39 344.57,-103.04"/>
<polygon fill="midnightblue" stroke="midnightblue" points="446.68,-150.2 457.25,-150.88 449.41,-143.75 446.68,-150.2"/>
</g>
<!-- Node13&#45;&gt;Node6 -->
<g id="edge17" class="edge">
<title>Node13&#45;&gt;Node6</title>
<path fill="none" stroke="midnightblue" d="M552.48,-148.48C557.22,-147.28 561.93,-146.11 566.5,-145 638.18,-127.61 656.65,-125.64 728.5,-109 736.73,-107.09 745.41,-105.05 753.93,-103.01"/>
<polygon fill="midnightblue" stroke="midnightblue" points="551.58,-145.09 542.76,-150.96 553.32,-151.88 551.58,-145.09"/>
</g>
<!-- Node13&#45;&gt;Node9 -->
<g id="edge19" class="edge">
<title>Node13&#45;&gt;Node9</title>
<path fill="none" stroke="midnightblue" d="M532,-146.87C562.76,-133.44 604.08,-115.39 632.35,-103.04"/>
<polygon fill="midnightblue" stroke="midnightblue" points="530.58,-143.67 522.82,-150.88 533.39,-150.09 530.58,-143.67"/>
</g>
<!-- Node13&#45;&gt;Node12 -->
<g id="edge18" class="edge">
<title>Node13&#45;&gt;Node12</title>
<path fill="none" stroke="midnightblue" d="M549.79,-148.5C555.42,-147.21 561.05,-146.01 566.5,-145 710.26,-118.32 749.79,-135.91 893.5,-109 902.11,-107.39 911.18,-105.3 919.93,-103.09"/>
<polygon fill="midnightblue" stroke="midnightblue" points="548.63,-145.18 539.73,-150.92 550.27,-151.98 548.63,-145.18"/>
</g>
<!-- Node14&#45;&gt;Node6 -->
<g id="edge21" class="edge">
<title>Node14&#45;&gt;Node6</title>
<path fill="none" stroke="midnightblue" d="M963.94,-147.22C928.67,-133.75 880.88,-115.5 848.27,-103.04"/>
<polygon fill="midnightblue" stroke="midnightblue" points="962.95,-150.58 973.54,-150.88 965.44,-144.05 962.95,-150.58"/>
</g>
<!-- Node14&#45;&gt;Node9 -->
<g id="edge24" class="edge">
<title>Node14&#45;&gt;Node9</title>
<path fill="none" stroke="midnightblue" d="M945.01,-148.65C939.44,-147.37 933.88,-146.14 928.5,-145 840.14,-126.29 816.22,-130.51 728.5,-109 721.49,-107.28 714.12,-105.22 706.98,-103.09"/>
<polygon fill="midnightblue" stroke="midnightblue" points="944.49,-152.12 955.03,-150.98 946.08,-145.31 944.49,-152.12"/>
</g>
<!-- Node14&#45;&gt;Node12 -->
<g id="edge23" class="edge">
<title>Node14&#45;&gt;Node12</title>
<path fill="none" stroke="midnightblue" d="M997.63,-141.7C990.68,-129.14 982.34,-114.04 976.36,-103.23"/>
<polygon fill="midnightblue" stroke="midnightblue" points="994.7,-143.65 1002.6,-150.7 1000.83,-140.26 994.7,-143.65"/>
</g>
<!-- Node14&#45;&gt;Node15 -->
<g id="edge22" class="edge">
<title>Node14&#45;&gt;Node15</title>
<path fill="none" stroke="midnightblue" d="M1075.41,-148.5C1128.86,-134.92 1203.81,-115.87 1254.38,-103.01"/>
<polygon fill="midnightblue" stroke="midnightblue" points="1074.52,-145.12 1065.69,-150.97 1076.24,-151.9 1074.52,-145.12"/>
</g>
<!-- Node17&#45;&gt;Node6 -->
<g id="edge27" class="edge">
<title>Node17&#45;&gt;Node6</title>
<path fill="none" stroke="midnightblue" d="M834.91,-141.33C829.33,-128.85 822.66,-113.94 817.87,-103.23"/>
<polygon fill="midnightblue" stroke="midnightblue" points="831.83,-143.01 839.1,-150.7 838.22,-140.15 831.83,-143.01"/>
</g>
<!-- Node17&#45;&gt;Node9 -->
<g id="edge30" class="edge">
<title>Node17&#45;&gt;Node9</title>
<path fill="none" stroke="midnightblue" d="M802.33,-146.87C770.33,-133.44 727.35,-115.39 697.94,-103.04"/>
<polygon fill="midnightblue" stroke="midnightblue" points="801.3,-150.24 811.88,-150.88 804.01,-143.78 801.3,-150.24"/>
</g>
<!-- Node17&#45;&gt;Node12 -->
<g id="edge29" class="edge">
<title>Node17&#45;&gt;Node12</title>
<path fill="none" stroke="midnightblue" d="M877.11,-145.47C898.59,-132.2 926.48,-114.96 945.78,-103.04"/>
<polygon fill="midnightblue" stroke="midnightblue" points="875.01,-142.65 868.35,-150.88 878.69,-148.6 875.01,-142.65"/>
</g>
<!-- Node17&#45;&gt;Node16 -->
<g id="edge28" class="edge">
<title>Node17&#45;&gt;Node16</title>
<path fill="none" stroke="midnightblue" d="M908.43,-148.34C959.6,-134.78 1031.01,-115.88 1079.35,-103.07"/>
<polygon fill="midnightblue" stroke="midnightblue" points="907.25,-145.03 898.47,-150.97 909.04,-151.8 907.25,-145.03"/>
</g>
<!-- Node19&#45;&gt;Node6 -->
<g id="edge33" class="edge">
<title>Node19&#45;&gt;Node6</title>
<path fill="none" stroke="midnightblue" d="M1111.33,-148.97C1104.63,-147.61 1097.95,-146.26 1091.5,-145 1003.73,-127.79 980.99,-127.61 893.5,-109 884.9,-107.17 875.83,-105.1 866.98,-103"/>
<polygon fill="midnightblue" stroke="midnightblue" points="1110.64,-152.4 1121.14,-150.99 1112.05,-145.55 1110.64,-152.4"/>
</g>
<!-- Node19&#45;&gt;Node9 -->
<g id="edge36" class="edge">
<title>Node19&#45;&gt;Node9</title>
<path fill="none" stroke="midnightblue" d="M1114.73,-149.03C1106.91,-147.55 1099.05,-146.17 1091.5,-145 931.27,-120.26 887.37,-141.35 728.5,-109 720.86,-107.44 712.83,-105.33 705.15,-103.06"/>
<polygon fill="midnightblue" stroke="midnightblue" points="1114.1,-152.47 1124.59,-150.95 1115.44,-145.6 1114.1,-152.47"/>
</g>
<!-- Node19&#45;&gt;Node12 -->
<g id="edge35" class="edge">
<title>Node19&#45;&gt;Node12</title>
<path fill="none" stroke="midnightblue" d="M1136.75,-147.65C1098.03,-134.16 1044.98,-115.66 1008.87,-103.07"/>
<polygon fill="midnightblue" stroke="midnightblue" points="1135.67,-150.98 1146.26,-150.97 1137.97,-144.37 1135.67,-150.98"/>
</g>
<!-- Node19&#45;&gt;Node18 -->
<g id="edge34" class="edge">
<title>Node19&#45;&gt;Node18</title>
<path fill="none" stroke="midnightblue" d="M1259.09,-149.04C1266.64,-147.58 1274.22,-146.2 1281.5,-145 1413.56,-123.19 1448.33,-130.14 1580.5,-109 1591.43,-107.25 1602.98,-105.17 1614.2,-103.01"/>
<polygon fill="midnightblue" stroke="midnightblue" points="1258.34,-145.62 1249.21,-150.99 1259.7,-152.48 1258.34,-145.62"/>
</g>
<!-- Node20&#45;&gt;Node6 -->
<g id="edge38" class="edge">
<title>Node20&#45;&gt;Node6</title>
<path fill="none" stroke="midnightblue" d="M1304.67,-149.08C1296.54,-147.57 1288.36,-146.17 1280.5,-145 1109.65,-119.52 1063.87,-137.54 893.5,-109 883.96,-107.4 873.89,-105.3 864.2,-103.06"/>
<polygon fill="midnightblue" stroke="midnightblue" points="1304.07,-152.53 1314.54,-150.97 1305.38,-145.65 1304.07,-152.53"/>
</g>
<!-- Node20&#45;&gt;Node9 -->
<g id="edge41" class="edge">
<title>Node20&#45;&gt;Node9</title>
<path fill="none" stroke="midnightblue" d="M1305.92,-149.08C1297.38,-147.53 1288.77,-146.12 1280.5,-145 1036.86,-112.1 970.2,-153.98 728.5,-109 720.6,-107.53 712.31,-105.4 704.42,-103.07"/>
<polygon fill="midnightblue" stroke="midnightblue" points="1305.41,-152.55 1315.88,-150.96 1306.71,-145.67 1305.41,-152.55"/>
</g>
<!-- Node20&#45;&gt;Node12 -->
<g id="edge40" class="edge">
<title>Node20&#45;&gt;Node12</title>
<path fill="none" stroke="midnightblue" d="M1301.98,-149.02C1294.73,-147.61 1287.48,-146.25 1280.5,-145 1175.19,-126.19 1147.2,-130.99 1042.5,-109 1034.29,-107.28 1025.65,-105.19 1017.27,-103.02"/>
<polygon fill="midnightblue" stroke="midnightblue" points="1301.36,-152.47 1311.85,-150.97 1302.71,-145.6 1301.36,-152.47"/>
</g>
<!-- Node21 -->
<g id="node21" class="node">
<title>Node21</title>
<g id="a_node21"><a xlink:href="../../d3/dd9/vtoolinternalpath_8cpp.html" target="_top" xlink:title=" ">
<polygon fill="white" stroke="black" points="1790,-73 1790,-103 1975,-103 1975,-73 1790,-73"/>
<text text-anchor="start" x="1798" y="-91" font-family="Helvetica,sans-Serif" font-size="10.00">src/libs/vtools/tools</text>
<text text-anchor="middle" x="1882.5" y="-80" font-family="Helvetica,sans-Serif" font-size="10.00">/nodeDetails/vtoolinternalpath.cpp</text>
</a>
</g>
</g>
<!-- Node20&#45;&gt;Node21 -->
<g id="edge39" class="edge">
<title>Node20&#45;&gt;Node21</title>
<path fill="none" stroke="midnightblue" d="M1474.61,-153.04C1556.38,-142.61 1676.34,-126.44 1780.5,-109 1791.27,-107.2 1802.64,-105.13 1813.74,-103.02"/>
<polygon fill="midnightblue" stroke="midnightblue" points="1474.06,-149.58 1464.58,-154.32 1474.94,-156.53 1474.06,-149.58"/>
</g>
<!-- Node22 -->
<g id="node22" class="node">
<title>Node22</title>
<g id="a_node22"><a xlink:href="../../dd/d3a/savepiecepathoptions_8cpp.html" target="_top" xlink:title=" ">
<polygon fill="white" stroke="black" points="1406,-73 1406,-103 1571,-103 1571,-73 1406,-73"/>
<text text-anchor="start" x="1414" y="-91" font-family="Helvetica,sans-Serif" font-size="10.00">src/libs/vtools/undocommands</text>
<text text-anchor="middle" x="1488.5" y="-80" font-family="Helvetica,sans-Serif" font-size="10.00">/savepiecepathoptions.cpp</text>
</a>
</g>
</g>
<!-- Node20&#45;&gt;Node22 -->
<g id="edge42" class="edge">
<title>Node20&#45;&gt;Node22</title>
<path fill="none" stroke="midnightblue" d="M1406.55,-145.11C1425.86,-131.89 1450.74,-114.86 1467.99,-103.04"/>
<polygon fill="midnightblue" stroke="midnightblue" points="1404.39,-142.35 1398.12,-150.88 1408.35,-148.12 1404.39,-142.35"/>
</g>
</g>
</svg>
