<?xml version="1.0" encoding="UTF-8" standalone="no"?>
<!DOCTYPE svg PUBLIC "-//W3C//DTD SVG 1.1//EN"
 "http://www.w3.org/Graphics/SVG/1.1/DTD/svg11.dtd">
<!-- Generated by graphviz version 2.43.0 (0)
 -->
<!-- Title: src/app/seamly2d/mainwindowsnogui.cpp Pages: 1 -->
<!--zoomable 330 -->
<svg id="main" version="1.1" xmlns="http://www.w3.org/2000/svg" xmlns:xlink="http://www.w3.org/1999/xlink" xml:space="preserve" onload="init(evt)">
<style type="text/css"><![CDATA[
.edge:hover path { stroke: red; }
.edge:hover polygon { stroke: red; fill: red; }
]]></style>
<script type="text/javascript"><![CDATA[
var edges = document.getElementsByTagName('g');
if (edges && edges.length) {
  for (var i=0;i<edges.length;i++) {
    if (edges[i].id.substr(0,4)=='edge') {
      edges[i].setAttribute('class','edge');
    }
  }
}
]]></script>
        <defs>
                <circle id="rim" cx="0" cy="0" r="7"/>
                <circle id="rim2" cx="0" cy="0" r="3.5"/>
                <g id="zoomPlus">
                        <use xlink:href="#rim" fill="#404040">
                                <set attributeName="fill" to="#808080" begin="zoomplus.mouseover" end="zoomplus.mouseout"/>
                        </use>
                        <path d="M-4,0h8M0,-4v8" fill="none" stroke="white" stroke-width="1.5" pointer-events="none"/>
                </g>
                <g id="zoomMin">
                        <use xlink:href="#rim" fill="#404040">
                                <set attributeName="fill" to="#808080" begin="zoomminus.mouseover" end="zoomminus.mouseout"/>
                        </use>
                        <path d="M-4,0h8" fill="none" stroke="white" stroke-width="1.5" pointer-events="none"/>
                </g>
                <g id="dirArrow">
                        <path fill="none" stroke="white" stroke-width="1.5" d="M0,-3.0v7 M-2.5,-0.5L0,-3.0L2.5,-0.5"/>
                </g>
               <g id="resetDef">
                       <use xlink:href="#rim2" fill="#404040">
                               <set attributeName="fill" to="#808080" begin="reset.mouseover" end="reset.mouseout"/>
                       </use>
               </g>
        </defs>

<script type="text/javascript">
var viewWidth = 4169;
var viewHeight = 330;
var sectionId = 'dynsection-0';
</script>
<script xlink:href="../../svgpan.js"/>
<svg id="graph" class="graph">
<g id="viewport">
<title>src/app/seamly2d/mainwindowsnogui.cpp</title>
<polygon fill="white" stroke="transparent" points="-4,4 -4,-326 4164.5,-326 4164.5,4 -4,4"/>
<!-- Node1 -->
<g id="node1" class="node">
<title>Node1</title>
<g id="a_node1"><a xlink:title=" ">
<polygon fill="#bfbfbf" stroke="black" points="2417.5,-302.5 2417.5,-321.5 2638.5,-321.5 2638.5,-302.5 2417.5,-302.5"/>
<text text-anchor="middle" x="2528" y="-309.5" font-family="Helvetica,sans-Serif" font-size="10.00">src/app/seamly2d/mainwindowsnogui.cpp</text>
</a>
</g>
</g>
<!-- Node2 -->
<g id="node2" class="node">
<title>Node2</title>
<g id="a_node2"><a xlink:href="../../d1/d82/mainwindowsnogui_8h.html" target="_top" xlink:title=" ">
<polygon fill="white" stroke="black" points="547,-241 547,-260 667,-260 667,-241 547,-241"/>
<text text-anchor="middle" x="607" y="-248" font-family="Helvetica,sans-Serif" font-size="10.00">mainwindowsnogui.h</text>
</a>
</g>
</g>
<!-- Node1&#45;&gt;Node2 -->
<g id="edge1" class="edge">
<title>Node1&#45;&gt;Node2</title>
<path fill="none" stroke="midnightblue" d="M2417.05,-308.96C2151.5,-303.85 1458.41,-289.25 880,-266 811.02,-263.23 732.3,-258.92 677.17,-255.73"/>
<polygon fill="midnightblue" stroke="midnightblue" points="677.35,-252.23 667.16,-255.14 676.94,-259.22 677.35,-252.23"/>
</g>
<!-- Node5 -->
<g id="node5" class="node">
<title>Node5</title>
<g id="a_node5"><a xlink:title=" ">
<polygon fill="white" stroke="#bfbfbf" points="0,-179.5 0,-198.5 76,-198.5 76,-179.5 0,-179.5"/>
<text text-anchor="middle" x="38" y="-186.5" font-family="Helvetica,sans-Serif" font-size="10.00">QToolButton</text>
</a>
</g>
</g>
<!-- Node1&#45;&gt;Node5 -->
<g id="edge56" class="edge">
<title>Node1&#45;&gt;Node5</title>
<path fill="none" stroke="midnightblue" d="M2417.5,-310.31C2055.5,-307.77 907.41,-297.37 538,-266 370.95,-251.81 174.94,-216.51 86.1,-199.48"/>
<polygon fill="midnightblue" stroke="midnightblue" points="86.54,-196 76.06,-197.55 85.22,-202.88 86.54,-196"/>
</g>
<!-- Node10 -->
<g id="node8" class="node">
<title>Node10</title>
<g id="a_node8"><a xlink:title=" ">
<polygon fill="white" stroke="#bfbfbf" points="530,-118 530,-137 672,-137 672,-118 530,-118"/>
<text text-anchor="middle" x="601" y="-125" font-family="Helvetica,sans-Serif" font-size="10.00">../vpatterndb/vcontainer.h</text>
</a>
</g>
</g>
<!-- Node1&#45;&gt;Node10 -->
<g id="edge34" class="edge">
<title>Node1&#45;&gt;Node10</title>
<path fill="none" stroke="midnightblue" d="M2417.23,-311.05C2073.22,-310.77 1042.79,-306.55 984,-266 949.55,-242.24 981.02,-204.71 948,-179 907.76,-147.67 771.56,-135.72 682.24,-131.2"/>
<polygon fill="midnightblue" stroke="midnightblue" points="682.29,-127.7 672.14,-130.71 681.95,-134.69 682.29,-127.7"/>
</g>
<!-- Node12 -->
<g id="node9" class="node">
<title>Node12</title>
<g id="a_node9"><a xlink:href="../../d1/d8e/export__layout__dialog_8h.html" target="_top" xlink:title=" ">
<polygon fill="white" stroke="red" points="1127,-112.5 1127,-142.5 1249,-142.5 1249,-112.5 1127,-112.5"/>
<text text-anchor="start" x="1135" y="-130.5" font-family="Helvetica,sans-Serif" font-size="10.00">dialogs/export_layout</text>
<text text-anchor="middle" x="1188" y="-119.5" font-family="Helvetica,sans-Serif" font-size="10.00">_dialog.h</text>
</a>
</g>
</g>
<!-- Node1&#45;&gt;Node12 -->
<g id="edge43" class="edge">
<title>Node1&#45;&gt;Node12</title>
<path fill="none" stroke="midnightblue" d="M2417.4,-310.76C2110.75,-309.64 1269.15,-303.17 1223,-266 1189.36,-238.91 1185.38,-184.43 1186.22,-152.79"/>
<polygon fill="midnightblue" stroke="midnightblue" points="1189.72,-152.77 1186.67,-142.63 1182.73,-152.46 1189.72,-152.77"/>
</g>
<!-- Node19 -->
<g id="node14" class="node">
<title>Node19</title>
<g id="a_node14"><a xlink:title=" ">
<polygon fill="white" stroke="#bfbfbf" points="781,-179.5 781,-198.5 939,-198.5 939,-179.5 781,-179.5"/>
<text text-anchor="middle" x="860" y="-186.5" font-family="Helvetica,sans-Serif" font-size="10.00">../vlayout/vlayoutgenerator.h</text>
</a>
</g>
</g>
<!-- Node1&#45;&gt;Node19 -->
<g id="edge39" class="edge">
<title>Node1&#45;&gt;Node19</title>
<path fill="none" stroke="midnightblue" d="M2417.46,-309.81C2070.24,-305.82 1020.36,-291.69 952,-266 919.37,-253.74 889.9,-224.77 873.52,-206.35"/>
<polygon fill="midnightblue" stroke="midnightblue" points="876.13,-204.02 866.95,-198.73 870.83,-208.59 876.13,-204.02"/>
</g>
<!-- Node21 -->
<g id="node16" class="node">
<title>Node21</title>
<g id="a_node16"><a xlink:href="../../d7/d61/application__2d_8h.html" target="_top" xlink:title=" ">
<polygon fill="white" stroke="black" points="1766.5,-241 1766.5,-260 1887.5,-260 1887.5,-241 1766.5,-241"/>
<text text-anchor="middle" x="1827" y="-248" font-family="Helvetica,sans-Serif" font-size="10.00">core/application_2d.h</text>
</a>
</g>
</g>
<!-- Node1&#45;&gt;Node21 -->
<g id="edge17" class="edge">
<title>Node1&#45;&gt;Node21</title>
<path fill="none" stroke="midnightblue" d="M2417.25,-307.56C2290.89,-302.61 2078.27,-291.12 1897,-266 1889.39,-264.95 1881.37,-263.55 1873.58,-262.05"/>
<polygon fill="midnightblue" stroke="midnightblue" points="1874.03,-258.57 1863.53,-260.02 1872.65,-265.43 1874.03,-258.57"/>
</g>
<!-- Node34 -->
<g id="node23" class="node">
<title>Node34</title>
<g id="a_node23"><a xlink:href="../../d3/dd8/layoutsettings__dialog_8h.html" target="_top" xlink:title=" ">
<polygon fill="white" stroke="black" points="1463,-112.5 1463,-142.5 1597,-142.5 1597,-112.5 1463,-112.5"/>
<text text-anchor="start" x="1471" y="-130.5" font-family="Helvetica,sans-Serif" font-size="10.00">../dialogs/layoutsettings</text>
<text text-anchor="middle" x="1530" y="-119.5" font-family="Helvetica,sans-Serif" font-size="10.00">_dialog.h</text>
</a>
</g>
</g>
<!-- Node1&#45;&gt;Node34 -->
<g id="edge37" class="edge">
<title>Node1&#45;&gt;Node34</title>
<path fill="none" stroke="midnightblue" d="M2417.26,-311.21C2113.45,-311.24 1286.68,-307.5 1246,-266 1218.93,-238.38 1220.16,-208.63 1245,-179 1271.02,-147.97 1377.24,-135.99 1452.36,-131.38"/>
<polygon fill="midnightblue" stroke="midnightblue" points="1452.96,-134.85 1462.74,-130.78 1452.56,-127.86 1452.96,-134.85"/>
</g>
<!-- Node39 -->
<g id="node27" class="node">
<title>Node39</title>
<g id="a_node27"><a xlink:title=" ">
<polygon fill="white" stroke="#bfbfbf" points="1254.5,-241 1254.5,-260 1391.5,-260 1391.5,-241 1254.5,-241"/>
<text text-anchor="middle" x="1323" y="-248" font-family="Helvetica,sans-Serif" font-size="10.00">../vobj/vobjpaintdevice.h</text>
</a>
</g>
</g>
<!-- Node1&#45;&gt;Node39 -->
<g id="edge35" class="edge">
<title>Node1&#45;&gt;Node39</title>
<path fill="none" stroke="midnightblue" d="M2417.22,-311.85C2214.76,-312.23 1771.7,-307.64 1401,-266 1391.85,-264.97 1382.17,-263.49 1372.84,-261.87"/>
<polygon fill="midnightblue" stroke="midnightblue" points="1373.38,-258.41 1362.92,-260.06 1372.13,-265.3 1373.38,-258.41"/>
</g>
<!-- Node40 -->
<g id="node28" class="node">
<title>Node40</title>
<g id="a_node28"><a xlink:title=" ">
<polygon fill="white" stroke="#bfbfbf" points="1410,-241 1410,-260 1548,-260 1548,-241 1410,-241"/>
<text text-anchor="middle" x="1479" y="-248" font-family="Helvetica,sans-Serif" font-size="10.00">../vdxf/vdxfpaintdevice.h</text>
</a>
</g>
</g>
<!-- Node1&#45;&gt;Node40 -->
<g id="edge36" class="edge">
<title>Node1&#45;&gt;Node40</title>
<path fill="none" stroke="midnightblue" d="M2417.3,-310.81C2236.62,-309.39 1867.35,-301.87 1557,-266 1547.86,-264.94 1538.17,-263.45 1528.85,-261.82"/>
<polygon fill="midnightblue" stroke="midnightblue" points="1529.39,-258.36 1518.92,-260.01 1528.13,-265.25 1529.39,-258.36"/>
</g>
<!-- Node41 -->
<g id="node29" class="node">
<title>Node41</title>
<g id="a_node29"><a xlink:title=" ">
<polygon fill="white" stroke="#bfbfbf" points="1566,-241 1566,-260 1748,-260 1748,-241 1566,-241"/>
<text text-anchor="middle" x="1657" y="-248" font-family="Helvetica,sans-Serif" font-size="10.00">../vwidgets/vmaingraphicsscene.h</text>
</a>
</g>
</g>
<!-- Node1&#45;&gt;Node41 -->
<g id="edge38" class="edge">
<title>Node1&#45;&gt;Node41</title>
<path fill="none" stroke="midnightblue" d="M2417.47,-307.47C2267.72,-302.01 1992.16,-289.61 1758,-266 1745.88,-264.78 1732.99,-263.17 1720.61,-261.46"/>
<polygon fill="midnightblue" stroke="midnightblue" points="1720.75,-257.95 1710.36,-260.02 1719.78,-264.88 1720.75,-257.95"/>
</g>
<!-- Node42 -->
<g id="node30" class="node">
<title>Node42</title>
<g id="a_node30"><a xlink:href="../../d3/d03/dialoglayoutprogress_8h.html" target="_top" xlink:title=" ">
<polygon fill="white" stroke="black" points="993.5,-241 993.5,-260 1160.5,-260 1160.5,-241 993.5,-241"/>
<text text-anchor="middle" x="1077" y="-248" font-family="Helvetica,sans-Serif" font-size="10.00">dialogs/dialoglayoutprogress.h</text>
</a>
</g>
</g>
<!-- Node1&#45;&gt;Node42 -->
<g id="edge40" class="edge">
<title>Node1&#45;&gt;Node42</title>
<path fill="none" stroke="midnightblue" d="M2417.16,-311.63C2185.69,-311.99 1634.26,-307.91 1174,-266 1161.94,-264.9 1149.1,-263.3 1136.84,-261.55"/>
<polygon fill="midnightblue" stroke="midnightblue" points="1137.12,-258.05 1126.71,-260.05 1136.1,-264.98 1137.12,-258.05"/>
</g>
<!-- Node44 -->
<g id="node32" class="node">
<title>Node44</title>
<g id="a_node32"><a xlink:title=" ">
<polygon fill="white" stroke="#bfbfbf" points="1906,-241 1906,-260 2016,-260 2016,-241 1906,-241"/>
<text text-anchor="middle" x="1961" y="-248" font-family="Helvetica,sans-Serif" font-size="10.00">../vlayout/vposter.h</text>
</a>
</g>
</g>
<!-- Node1&#45;&gt;Node44 -->
<g id="edge44" class="edge">
<title>Node1&#45;&gt;Node44</title>
<path fill="none" stroke="midnightblue" d="M2417.33,-305.23C2315.27,-298.92 2159.8,-286.83 2026,-266 2019.25,-264.95 2012.14,-263.61 2005.22,-262.17"/>
<polygon fill="midnightblue" stroke="midnightblue" points="2005.76,-258.71 1995.25,-260.02 2004.28,-265.55 2005.76,-258.71"/>
</g>
<!-- Node45 -->
<g id="node33" class="node">
<title>Node45</title>
<g id="a_node33"><a xlink:title=" ">
<polygon fill="white" stroke="#bfbfbf" points="2034.5,-235.5 2034.5,-265.5 2183.5,-265.5 2183.5,-235.5 2034.5,-235.5"/>
<text text-anchor="start" x="2042.5" y="-253.5" font-family="Helvetica,sans-Serif" font-size="10.00">../vpatterndb/floatItemData</text>
<text text-anchor="middle" x="2109" y="-242.5" font-family="Helvetica,sans-Serif" font-size="10.00">/vpiecelabeldata.h</text>
</a>
</g>
</g>
<!-- Node1&#45;&gt;Node45 -->
<g id="edge45" class="edge">
<title>Node1&#45;&gt;Node45</title>
<path fill="none" stroke="midnightblue" d="M2458.92,-302.49C2393.36,-294.23 2291.81,-281 2193.72,-266.08"/>
<polygon fill="midnightblue" stroke="midnightblue" points="2194.05,-262.58 2183.63,-264.53 2192.99,-269.5 2194.05,-262.58"/>
</g>
<!-- Node46 -->
<g id="node34" class="node">
<title>Node46</title>
<g id="a_node34"><a xlink:title=" ">
<polygon fill="white" stroke="#bfbfbf" points="2201.5,-235.5 2201.5,-265.5 2350.5,-265.5 2350.5,-235.5 2201.5,-235.5"/>
<text text-anchor="start" x="2209.5" y="-253.5" font-family="Helvetica,sans-Serif" font-size="10.00">../vpatterndb/floatItemData</text>
<text text-anchor="middle" x="2276" y="-242.5" font-family="Helvetica,sans-Serif" font-size="10.00">/vpatternlabeldata.h</text>
</a>
</g>
</g>
<!-- Node1&#45;&gt;Node46 -->
<g id="edge46" class="edge">
<title>Node1&#45;&gt;Node46</title>
<path fill="none" stroke="midnightblue" d="M2491.89,-302.48C2453.78,-293.48 2392.76,-279.07 2345.3,-267.86"/>
<polygon fill="midnightblue" stroke="midnightblue" points="2345.93,-264.41 2335.39,-265.52 2344.32,-271.23 2345.93,-264.41"/>
</g>
<!-- Node47 -->
<g id="node35" class="node">
<title>Node47</title>
<g id="a_node35"><a xlink:title=" ">
<polygon fill="white" stroke="#bfbfbf" points="2368.5,-235.5 2368.5,-265.5 2517.5,-265.5 2517.5,-235.5 2368.5,-235.5"/>
<text text-anchor="start" x="2376.5" y="-253.5" font-family="Helvetica,sans-Serif" font-size="10.00">../vpatterndb/floatItemData</text>
<text text-anchor="middle" x="2443" y="-242.5" font-family="Helvetica,sans-Serif" font-size="10.00">/vgrainlinedata.h</text>
</a>
</g>
</g>
<!-- Node1&#45;&gt;Node47 -->
<g id="edge47" class="edge">
<title>Node1&#45;&gt;Node47</title>
<path fill="none" stroke="midnightblue" d="M2515.82,-302.48C2504.31,-294.42 2486.6,-282.02 2471.53,-271.47"/>
<polygon fill="midnightblue" stroke="midnightblue" points="2473.23,-268.39 2463.03,-265.52 2469.22,-274.12 2473.23,-268.39"/>
</g>
<!-- Node48 -->
<g id="node36" class="node">
<title>Node48</title>
<g id="a_node36"><a xlink:title=" ">
<polygon fill="white" stroke="#bfbfbf" points="2535.5,-235.5 2535.5,-265.5 2690.5,-265.5 2690.5,-235.5 2535.5,-235.5"/>
<text text-anchor="start" x="2543.5" y="-253.5" font-family="Helvetica,sans-Serif" font-size="10.00">../vpatterndb/measurements</text>
<text text-anchor="middle" x="2613" y="-242.5" font-family="Helvetica,sans-Serif" font-size="10.00">_def.h</text>
</a>
</g>
</g>
<!-- Node1&#45;&gt;Node48 -->
<g id="edge48" class="edge">
<title>Node1&#45;&gt;Node48</title>
<path fill="none" stroke="midnightblue" d="M2540.18,-302.48C2551.69,-294.42 2569.4,-282.02 2584.47,-271.47"/>
<polygon fill="midnightblue" stroke="midnightblue" points="2586.78,-274.12 2592.97,-265.52 2582.77,-268.39 2586.78,-274.12"/>
</g>
<!-- Node49 -->
<g id="node37" class="node">
<title>Node49</title>
<g id="a_node37"><a xlink:title=" ">
<polygon fill="white" stroke="#bfbfbf" points="2708.5,-241 2708.5,-260 2867.5,-260 2867.5,-241 2708.5,-241"/>
<text text-anchor="middle" x="2788" y="-248" font-family="Helvetica,sans-Serif" font-size="10.00">../vtools/tools/vabstracttool.h</text>
</a>
</g>
</g>
<!-- Node1&#45;&gt;Node49 -->
<g id="edge49" class="edge">
<title>Node1&#45;&gt;Node49</title>
<path fill="none" stroke="midnightblue" d="M2565.25,-302.48C2611.49,-291.89 2690.4,-273.84 2740.82,-262.3"/>
<polygon fill="midnightblue" stroke="midnightblue" points="2741.85,-265.65 2750.82,-260.01 2740.29,-258.83 2741.85,-265.65"/>
</g>
<!-- Node50 -->
<g id="node38" class="node">
<title>Node50</title>
<g id="a_node38"><a xlink:title=" ">
<polygon fill="white" stroke="#bfbfbf" points="2885.5,-235.5 2885.5,-265.5 3006.5,-265.5 3006.5,-235.5 2885.5,-235.5"/>
<text text-anchor="start" x="2893.5" y="-253.5" font-family="Helvetica,sans-Serif" font-size="10.00">../vtools/tools/pattern</text>
<text text-anchor="middle" x="2946" y="-242.5" font-family="Helvetica,sans-Serif" font-size="10.00">_piece_tool.h</text>
</a>
</g>
</g>
<!-- Node1&#45;&gt;Node50 -->
<g id="edge50" class="edge">
<title>Node1&#45;&gt;Node50</title>
<path fill="none" stroke="midnightblue" d="M2608.32,-302.47C2676.87,-294.76 2778.29,-282.38 2875.47,-266.18"/>
<polygon fill="midnightblue" stroke="midnightblue" points="2876.19,-269.61 2885.47,-264.5 2875.03,-262.71 2876.19,-269.61"/>
</g>
<!-- Node51 -->
<g id="node39" class="node">
<title>Node51</title>
<g id="a_node39"><a xlink:title=" ">
<polygon fill="white" stroke="#bfbfbf" points="3024.5,-241 3024.5,-260 3097.5,-260 3097.5,-241 3024.5,-241"/>
<text text-anchor="middle" x="3061" y="-248" font-family="Helvetica,sans-Serif" font-size="10.00">QFileDialog</text>
</a>
</g>
</g>
<!-- Node1&#45;&gt;Node51 -->
<g id="edge51" class="edge">
<title>Node1&#45;&gt;Node51</title>
<path fill="none" stroke="midnightblue" d="M2638.51,-307.73C2738.09,-303.14 2888.05,-292.18 3016,-266 3019.96,-265.19 3024.06,-264.16 3028.1,-263.01"/>
<polygon fill="midnightblue" stroke="midnightblue" points="3029.36,-266.29 3037.9,-260.02 3027.32,-259.59 3029.36,-266.29"/>
</g>
<!-- Node52 -->
<g id="node40" class="node">
<title>Node52</title>
<g id="a_node40"><a xlink:title=" ">
<polygon fill="white" stroke="#bfbfbf" points="3116,-241 3116,-260 3176,-260 3176,-241 3116,-241"/>
<text text-anchor="middle" x="3146" y="-248" font-family="Helvetica,sans-Serif" font-size="10.00">QFileInfo</text>
</a>
</g>
</g>
<!-- Node1&#45;&gt;Node52 -->
<g id="edge52" class="edge">
<title>Node1&#45;&gt;Node52</title>
<path fill="none" stroke="midnightblue" d="M2638.72,-311.48C2756.24,-309.9 2946.75,-301.29 3107,-266 3110.08,-265.32 3113.23,-264.46 3116.36,-263.48"/>
<polygon fill="midnightblue" stroke="midnightblue" points="3117.77,-266.7 3126.08,-260.12 3115.49,-260.08 3117.77,-266.7"/>
</g>
<!-- Node53 -->
<g id="node41" class="node">
<title>Node53</title>
<g id="a_node41"><a xlink:title=" ">
<polygon fill="white" stroke="#bfbfbf" points="3194,-241 3194,-260 3290,-260 3290,-241 3194,-241"/>
<text text-anchor="middle" x="3242" y="-248" font-family="Helvetica,sans-Serif" font-size="10.00">QGraphicsScene</text>
</a>
</g>
</g>
<!-- Node1&#45;&gt;Node53 -->
<g id="edge53" class="edge">
<title>Node1&#45;&gt;Node53</title>
<path fill="none" stroke="midnightblue" d="M2638.54,-309.51C2769.67,-306.34 2994.49,-296.5 3185,-266 3190.81,-265.07 3196.9,-263.82 3202.84,-262.45"/>
<polygon fill="midnightblue" stroke="midnightblue" points="3203.75,-265.83 3212.63,-260.05 3202.08,-259.03 3203.75,-265.83"/>
</g>
<!-- Node54 -->
<g id="node42" class="node">
<title>Node54</title>
<g id="a_node42"><a xlink:title=" ">
<polygon fill="white" stroke="#bfbfbf" points="3308,-241 3308,-260 3394,-260 3394,-241 3308,-241"/>
<text text-anchor="middle" x="3351" y="-248" font-family="Helvetica,sans-Serif" font-size="10.00">QMessageBox</text>
</a>
</g>
</g>
<!-- Node1&#45;&gt;Node54 -->
<g id="edge54" class="edge">
<title>Node1&#45;&gt;Node54</title>
<path fill="none" stroke="midnightblue" d="M2638.63,-311.93C2789.1,-311.51 3066.23,-304.79 3299,-266 3304.13,-265.15 3309.47,-263.98 3314.7,-262.68"/>
<polygon fill="midnightblue" stroke="midnightblue" points="3315.77,-266.02 3324.52,-260.06 3313.96,-259.26 3315.77,-266.02"/>
</g>
<!-- Node55 -->
<g id="node43" class="node">
<title>Node55</title>
<g id="a_node43"><a xlink:title=" ">
<polygon fill="white" stroke="#bfbfbf" points="3412,-241 3412,-260 3474,-260 3474,-241 3412,-241"/>
<text text-anchor="middle" x="3443" y="-248" font-family="Helvetica,sans-Serif" font-size="10.00">QProcess</text>
</a>
</g>
</g>
<!-- Node1&#45;&gt;Node55 -->
<g id="edge55" class="edge">
<title>Node1&#45;&gt;Node55</title>
<path fill="none" stroke="midnightblue" d="M2638.67,-309.38C2840.34,-305.76 3260.06,-294.91 3403,-266 3406.43,-265.31 3409.97,-264.37 3413.45,-263.31"/>
<polygon fill="midnightblue" stroke="midnightblue" points="3414.64,-266.6 3422.99,-260.07 3412.39,-259.97 3414.64,-266.6"/>
</g>
<!-- Node56 -->
<g id="node44" class="node">
<title>Node56</title>
<g id="a_node44"><a xlink:title=" ">
<polygon fill="white" stroke="#bfbfbf" points="3492,-241 3492,-260 3538,-260 3538,-241 3492,-241"/>
<text text-anchor="middle" x="3515" y="-248" font-family="Helvetica,sans-Serif" font-size="10.00">QtSvg</text>
</a>
</g>
</g>
<!-- Node1&#45;&gt;Node56 -->
<g id="edge57" class="edge">
<title>Node1&#45;&gt;Node56</title>
<path fill="none" stroke="midnightblue" d="M2638.86,-311C2855.12,-310.15 3325.86,-303.83 3483,-266 3485.22,-265.47 3487.47,-264.78 3489.7,-264"/>
<polygon fill="midnightblue" stroke="midnightblue" points="3491.23,-267.15 3499.14,-260.11 3488.57,-260.68 3491.23,-267.15"/>
</g>
<!-- Node57 -->
<g id="node45" class="node">
<title>Node57</title>
<g id="a_node45"><a xlink:title=" ">
<polygon fill="white" stroke="#bfbfbf" points="3556.5,-241 3556.5,-260 3673.5,-260 3673.5,-241 3556.5,-241"/>
<text text-anchor="middle" x="3615" y="-248" font-family="Helvetica,sans-Serif" font-size="10.00">QPrintPreviewDialog</text>
</a>
</g>
</g>
<!-- Node1&#45;&gt;Node57 -->
<g id="edge58" class="edge">
<title>Node1&#45;&gt;Node57</title>
<path fill="none" stroke="midnightblue" d="M2638.72,-308.43C2865.11,-302.8 3374.2,-288.08 3547,-266 3554.58,-265.03 3562.56,-263.66 3570.29,-262.13"/>
<polygon fill="midnightblue" stroke="midnightblue" points="3571.17,-265.53 3580.25,-260.07 3569.75,-258.67 3571.17,-265.53"/>
</g>
<!-- Node58 -->
<g id="node46" class="node">
<title>Node58</title>
<g id="a_node46"><a xlink:title=" ">
<polygon fill="white" stroke="#bfbfbf" points="3692,-241 3692,-260 3770,-260 3770,-241 3692,-241"/>
<text text-anchor="middle" x="3731" y="-248" font-family="Helvetica,sans-Serif" font-size="10.00">QPrintDialog</text>
</a>
</g>
</g>
<!-- Node1&#45;&gt;Node58 -->
<g id="edge59" class="edge">
<title>Node1&#45;&gt;Node58</title>
<path fill="none" stroke="midnightblue" d="M2638.88,-310.27C2887.74,-308.04 3484.47,-299.29 3683,-266 3687.57,-265.23 3692.31,-264.16 3696.95,-262.94"/>
<polygon fill="midnightblue" stroke="midnightblue" points="3698.22,-266.22 3706.87,-260.1 3696.29,-259.49 3698.22,-266.22"/>
</g>
<!-- Node59 -->
<g id="node47" class="node">
<title>Node59</title>
<g id="a_node47"><a xlink:title=" ">
<polygon fill="white" stroke="#bfbfbf" points="3788.5,-241 3788.5,-260 3863.5,-260 3863.5,-241 3788.5,-241"/>
<text text-anchor="middle" x="3826" y="-248" font-family="Helvetica,sans-Serif" font-size="10.00">QPrinterInfo</text>
</a>
</g>
</g>
<!-- Node1&#45;&gt;Node59 -->
<g id="edge60" class="edge">
<title>Node1&#45;&gt;Node59</title>
<path fill="none" stroke="midnightblue" d="M2638.69,-310.74C2902.31,-309.53 3561.5,-302.8 3779,-266 3783.48,-265.24 3788.12,-264.17 3792.68,-262.96"/>
<polygon fill="midnightblue" stroke="midnightblue" points="3793.77,-266.28 3802.38,-260.11 3791.8,-259.56 3793.77,-266.28"/>
</g>
<!-- Node60 -->
<g id="node48" class="node">
<title>Node60</title>
<g id="a_node48"><a xlink:title=" ">
<polygon fill="white" stroke="#bfbfbf" points="3881.5,-241 3881.5,-260 3966.5,-260 3966.5,-241 3881.5,-241"/>
<text text-anchor="middle" x="3924" y="-248" font-family="Helvetica,sans-Serif" font-size="10.00">QImageWriter</text>
</a>
</g>
</g>
<!-- Node1&#45;&gt;Node60 -->
<g id="edge61" class="edge">
<title>Node1&#45;&gt;Node60</title>
<path fill="none" stroke="midnightblue" d="M2638.7,-310.76C2916.25,-309.61 3636.4,-303.02 3873,-266 3878.15,-265.19 3883.53,-264.03 3888.77,-262.72"/>
<polygon fill="midnightblue" stroke="midnightblue" points="3889.86,-266.05 3898.59,-260.04 3888.02,-259.29 3889.86,-266.05"/>
</g>
<!-- Node61 -->
<g id="node49" class="node">
<title>Node61</title>
<g id="a_node49"><a xlink:title=" ">
<polygon fill="white" stroke="#bfbfbf" points="3985,-241 3985,-260 4065,-260 4065,-241 3985,-241"/>
<text text-anchor="middle" x="4025" y="-248" font-family="Helvetica,sans-Serif" font-size="10.00">QSpacerItem</text>
</a>
</g>
</g>
<!-- Node1&#45;&gt;Node61 -->
<g id="edge62" class="edge">
<title>Node1&#45;&gt;Node61</title>
<path fill="none" stroke="midnightblue" d="M2638.59,-311.23C2930.88,-311.24 3718.99,-307.32 3976,-266 3980.84,-265.22 3985.87,-264.11 3990.78,-262.83"/>
<polygon fill="midnightblue" stroke="midnightblue" points="3991.94,-266.14 4000.61,-260.06 3990.03,-259.41 3991.94,-266.14"/>
</g>
<!-- Node62 -->
<g id="node50" class="node">
<title>Node62</title>
<g id="a_node50"><a xlink:title=" ">
<polygon fill="white" stroke="#bfbfbf" points="4083.5,-241 4083.5,-260 4160.5,-260 4160.5,-241 4083.5,-241"/>
<text text-anchor="middle" x="4122" y="-248" font-family="Helvetica,sans-Serif" font-size="10.00">QGridLayout</text>
</a>
</g>
</g>
<!-- Node1&#45;&gt;Node62 -->
<g id="edge63" class="edge">
<title>Node1&#45;&gt;Node62</title>
<path fill="none" stroke="midnightblue" d="M2638.56,-311.57C2944.42,-312.53 3797.45,-310.98 4074,-266 4078.57,-265.26 4083.31,-264.2 4087.96,-262.98"/>
<polygon fill="midnightblue" stroke="midnightblue" points="4089.22,-266.26 4097.87,-260.14 4087.3,-259.53 4089.22,-266.26"/>
</g>
<!-- Node3 -->
<g id="node3" class="node">
<title>Node3</title>
<g id="a_node3"><a xlink:title=" ">
<polygon fill="white" stroke="#bfbfbf" points="563.5,-179.5 563.5,-198.5 650.5,-198.5 650.5,-179.5 563.5,-179.5"/>
<text text-anchor="middle" x="607" y="-186.5" font-family="Helvetica,sans-Serif" font-size="10.00">QMainWindow</text>
</a>
</g>
</g>
<!-- Node2&#45;&gt;Node3 -->
<g id="edge2" class="edge">
<title>Node2&#45;&gt;Node3</title>
<path fill="none" stroke="midnightblue" d="M607,-240.98C607,-232.58 607,-219.48 607,-208.66"/>
<polygon fill="midnightblue" stroke="midnightblue" points="610.5,-208.51 607,-198.51 603.5,-208.51 610.5,-208.51"/>
</g>
<!-- Node4 -->
<g id="node4" class="node">
<title>Node4</title>
<g id="a_node4"><a xlink:title=" ">
<polygon fill="white" stroke="#bfbfbf" points="669,-179.5 669,-198.5 725,-198.5 725,-179.5 669,-179.5"/>
<text text-anchor="middle" x="697" y="-186.5" font-family="Helvetica,sans-Serif" font-size="10.00">QPrinter</text>
</a>
</g>
</g>
<!-- Node2&#45;&gt;Node4 -->
<g id="edge3" class="edge">
<title>Node2&#45;&gt;Node4</title>
<path fill="none" stroke="midnightblue" d="M619.89,-240.98C634.46,-231.34 658.4,-215.52 675.75,-204.05"/>
<polygon fill="midnightblue" stroke="midnightblue" points="677.72,-206.94 684.13,-198.51 673.86,-201.1 677.72,-206.94"/>
</g>
<!-- Node2&#45;&gt;Node5 -->
<g id="edge4" class="edge">
<title>Node2&#45;&gt;Node5</title>
<path fill="none" stroke="midnightblue" d="M546.89,-245.51C451.4,-238.76 259.01,-223.54 86.21,-199.05"/>
<polygon fill="midnightblue" stroke="midnightblue" points="86.56,-195.57 76.17,-197.62 85.57,-202.5 86.56,-195.57"/>
</g>
<!-- Node6 -->
<g id="node6" class="node">
<title>Node6</title>
<g id="a_node6"><a xlink:title=" ">
<polygon fill="white" stroke="#bfbfbf" points="94.5,-179.5 94.5,-198.5 231.5,-198.5 231.5,-179.5 94.5,-179.5"/>
<text text-anchor="middle" x="163" y="-186.5" font-family="Helvetica,sans-Serif" font-size="10.00">../vlayout/vlayoutpiece.h</text>
</a>
</g>
</g>
<!-- Node2&#45;&gt;Node6 -->
<g id="edge5" class="edge">
<title>Node2&#45;&gt;Node6</title>
<path fill="none" stroke="midnightblue" d="M546.66,-241.41C466.03,-230.61 323.28,-211.48 236.48,-199.85"/>
<polygon fill="midnightblue" stroke="midnightblue" points="236.82,-196.36 226.44,-198.5 235.89,-203.3 236.82,-196.36"/>
</g>
<!-- Node7 -->
<g id="node7" class="node">
<title>Node7</title>
<g id="a_node7"><a xlink:href="../../d4/d38/vpattern_8h.html" target="_top" xlink:title=" ">
<polygon fill="white" stroke="red" points="249.5,-179.5 249.5,-198.5 338.5,-198.5 338.5,-179.5 249.5,-179.5"/>
<text text-anchor="middle" x="294" y="-186.5" font-family="Helvetica,sans-Serif" font-size="10.00">xml/vpattern.h</text>
</a>
</g>
</g>
<!-- Node2&#45;&gt;Node7 -->
<g id="edge6" class="edge">
<title>Node2&#45;&gt;Node7</title>
<path fill="none" stroke="midnightblue" d="M562.15,-240.98C505.83,-230.27 409.24,-211.91 348.65,-200.39"/>
<polygon fill="midnightblue" stroke="midnightblue" points="348.99,-196.89 338.51,-198.46 347.68,-203.77 348.99,-196.89"/>
</g>
<!-- Node2&#45;&gt;Node12 -->
<g id="edge8" class="edge">
<title>Node2&#45;&gt;Node12</title>
<path fill="none" stroke="midnightblue" d="M630.72,-240.93C656.47,-231.42 698.65,-215.27 734,-199 751.34,-191.02 753.78,-184.69 772,-179 889.16,-142.42 1032.58,-132.12 1116.76,-129.35"/>
<polygon fill="midnightblue" stroke="midnightblue" points="1117.08,-132.84 1126.97,-129.04 1116.87,-125.85 1117.08,-132.84"/>
</g>
<!-- Node2&#45;&gt;Node19 -->
<g id="edge15" class="edge">
<title>Node2&#45;&gt;Node19</title>
<path fill="none" stroke="midnightblue" d="M643.25,-240.98C688.15,-230.42 764.71,-212.41 813.78,-200.87"/>
<polygon fill="midnightblue" stroke="midnightblue" points="814.89,-204.21 823.82,-198.51 813.28,-197.39 814.89,-204.21"/>
</g>
<!-- Node20 -->
<g id="node15" class="node">
<title>Node20</title>
<g id="a_node15"><a xlink:title=" ">
<polygon fill="white" stroke="#bfbfbf" points="356.5,-179.5 356.5,-198.5 545.5,-198.5 545.5,-179.5 356.5,-179.5"/>
<text text-anchor="middle" x="451" y="-186.5" font-family="Helvetica,sans-Serif" font-size="10.00">../vwidgets/vabstractmainwindow.h</text>
</a>
</g>
</g>
<!-- Node2&#45;&gt;Node20 -->
<g id="edge16" class="edge">
<title>Node2&#45;&gt;Node20</title>
<path fill="none" stroke="midnightblue" d="M584.65,-240.98C558.01,-230.81 513.29,-213.76 482.99,-202.2"/>
<polygon fill="midnightblue" stroke="midnightblue" points="483.9,-198.8 473.31,-198.51 481.41,-205.34 483.9,-198.8"/>
</g>
<!-- Node7&#45;&gt;Node10 -->
<g id="edge7" class="edge">
<title>Node7&#45;&gt;Node10</title>
<path fill="none" stroke="midnightblue" d="M337.99,-179.48C393.15,-168.78 487.7,-150.46 547.15,-138.94"/>
<polygon fill="midnightblue" stroke="midnightblue" points="547.94,-142.35 557.1,-137.01 546.61,-135.48 547.94,-142.35"/>
</g>
<!-- Node13 -->
<g id="node10" class="node">
<title>Node13</title>
<g id="a_node10"><a xlink:title=" ">
<polygon fill="white" stroke="#bfbfbf" points="1141,-0.5 1141,-19.5 1197,-19.5 1197,-0.5 1141,-0.5"/>
<text text-anchor="middle" x="1169" y="-7.5" font-family="Helvetica,sans-Serif" font-size="10.00">QDialog</text>
</a>
</g>
</g>
<!-- Node12&#45;&gt;Node13 -->
<g id="edge9" class="edge">
<title>Node12&#45;&gt;Node13</title>
<path fill="none" stroke="midnightblue" d="M1185.67,-112.34C1182.25,-91.53 1175.85,-52.66 1172.06,-29.58"/>
<polygon fill="midnightblue" stroke="midnightblue" points="1175.5,-28.97 1170.43,-19.67 1168.6,-30.1 1175.5,-28.97"/>
</g>
<!-- Node16 -->
<g id="node11" class="node">
<title>Node16</title>
<g id="a_node11"><a xlink:title=" ">
<polygon fill="white" stroke="#bfbfbf" points="1354,-0.5 1354,-19.5 1436,-19.5 1436,-0.5 1354,-0.5"/>
<text text-anchor="middle" x="1395" y="-7.5" font-family="Helvetica,sans-Serif" font-size="10.00">../vmisc/def.h</text>
</a>
</g>
</g>
<!-- Node12&#45;&gt;Node16 -->
<g id="edge10" class="edge">
<title>Node12&#45;&gt;Node16</title>
<path fill="none" stroke="midnightblue" d="M1192.09,-112.37C1197.48,-96.31 1208.49,-70.47 1227,-56 1260.34,-29.93 1307.53,-18.92 1343.42,-14.29"/>
<polygon fill="midnightblue" stroke="midnightblue" points="1344.16,-17.73 1353.69,-13.1 1343.35,-10.77 1344.16,-17.73"/>
</g>
<!-- Node17 -->
<g id="node12" class="node">
<title>Node17</title>
<g id="a_node12"><a xlink:href="../../d7/d9e/abstractlayout__dialog_8h.html" target="_top" xlink:title=" ">
<polygon fill="white" stroke="black" points="1235.5,-56.5 1235.5,-75.5 1366.5,-75.5 1366.5,-56.5 1235.5,-56.5"/>
<text text-anchor="middle" x="1301" y="-63.5" font-family="Helvetica,sans-Serif" font-size="10.00">abstractlayout_dialog.h</text>
</a>
</g>
</g>
<!-- Node12&#45;&gt;Node17 -->
<g id="edge11" class="edge">
<title>Node12&#45;&gt;Node17</title>
<path fill="none" stroke="midnightblue" d="M1214.78,-112.4C1233.06,-102.77 1257.15,-90.09 1275.21,-80.58"/>
<polygon fill="midnightblue" stroke="midnightblue" points="1277.34,-83.41 1284.56,-75.66 1274.08,-77.22 1277.34,-83.41"/>
</g>
<!-- Node17&#45;&gt;Node13 -->
<g id="edge14" class="edge">
<title>Node17&#45;&gt;Node13</title>
<path fill="none" stroke="midnightblue" d="M1280.08,-56.44C1258.26,-47.52 1223.85,-33.44 1199.11,-23.32"/>
<polygon fill="midnightblue" stroke="midnightblue" points="1200.4,-20.06 1189.82,-19.52 1197.75,-26.54 1200.4,-20.06"/>
</g>
<!-- Node17&#45;&gt;Node16 -->
<g id="edge13" class="edge">
<title>Node17&#45;&gt;Node16</title>
<path fill="none" stroke="midnightblue" d="M1316.1,-56.32C1330.9,-47.82 1353.69,-34.73 1370.98,-24.8"/>
<polygon fill="midnightblue" stroke="midnightblue" points="1373.01,-27.67 1379.93,-19.65 1369.52,-21.6 1373.01,-27.67"/>
</g>
<!-- Node18 -->
<g id="node13" class="node">
<title>Node18</title>
<g id="a_node13"><a xlink:title=" ">
<polygon fill="white" stroke="#bfbfbf" points="1733.5,-0.5 1733.5,-19.5 1810.5,-19.5 1810.5,-0.5 1733.5,-0.5"/>
<text text-anchor="middle" x="1772" y="-7.5" font-family="Helvetica,sans-Serif" font-size="10.00">../ifc/ifcdef.h</text>
</a>
</g>
</g>
<!-- Node17&#45;&gt;Node18 -->
<g id="edge12" class="edge">
<title>Node17&#45;&gt;Node18</title>
<path fill="none" stroke="midnightblue" d="M1366.99,-57.43C1462.74,-46.46 1638.04,-26.36 1723.11,-16.6"/>
<polygon fill="midnightblue" stroke="midnightblue" points="1723.74,-20.06 1733.27,-15.44 1722.94,-13.1 1723.74,-20.06"/>
</g>
<!-- Node22 -->
<g id="node17" class="node">
<title>Node22</title>
<g id="a_node17"><a xlink:title=" ">
<polygon fill="white" stroke="#bfbfbf" points="1627.5,-179.5 1627.5,-198.5 1794.5,-198.5 1794.5,-179.5 1627.5,-179.5"/>
<text text-anchor="middle" x="1711" y="-186.5" font-family="Helvetica,sans-Serif" font-size="10.00">../vmisc/vabstractapplication.h</text>
</a>
</g>
</g>
<!-- Node21&#45;&gt;Node22 -->
<g id="edge18" class="edge">
<title>Node21&#45;&gt;Node22</title>
<path fill="none" stroke="midnightblue" d="M1810.38,-240.98C1791.08,-231.08 1759.04,-214.64 1736.57,-203.12"/>
<polygon fill="midnightblue" stroke="midnightblue" points="1738.08,-199.96 1727.59,-198.51 1734.89,-206.19 1738.08,-199.96"/>
</g>
<!-- Node23 -->
<g id="node18" class="node">
<title>Node23</title>
<g id="a_node18"><a xlink:title=" ">
<polygon fill="white" stroke="#bfbfbf" points="1812,-179.5 1812,-198.5 1924,-198.5 1924,-179.5 1812,-179.5"/>
<text text-anchor="middle" x="1868" y="-186.5" font-family="Helvetica,sans-Serif" font-size="10.00">../vmisc/vsettings.h</text>
</a>
</g>
</g>
<!-- Node21&#45;&gt;Node23 -->
<g id="edge19" class="edge">
<title>Node21&#45;&gt;Node23</title>
<path fill="none" stroke="midnightblue" d="M1832.87,-240.98C1838.96,-232.14 1848.64,-218.09 1856.3,-206.98"/>
<polygon fill="midnightblue" stroke="midnightblue" points="1859.34,-208.73 1862.14,-198.51 1853.58,-204.76 1859.34,-208.73"/>
</g>
<!-- Node24 -->
<g id="node19" class="node">
<title>Node24</title>
<g id="a_node19"><a xlink:href="../../d7/d5b/options_8h.html" target="_top" xlink:title=" ">
<polygon fill="white" stroke="red" points="1800.5,-56.5 1800.5,-75.5 1871.5,-75.5 1871.5,-56.5 1800.5,-56.5"/>
<text text-anchor="middle" x="1836" y="-63.5" font-family="Helvetica,sans-Serif" font-size="10.00">../options.h</text>
</a>
</g>
</g>
<!-- Node21&#45;&gt;Node24 -->
<g id="edge20" class="edge">
<title>Node21&#45;&gt;Node24</title>
<path fill="none" stroke="midnightblue" d="M1867.78,-240.95C1926.85,-228.37 2029.77,-205.65 2035,-199 2083.03,-137.91 1954.05,-95.52 1881.52,-77.19"/>
<polygon fill="midnightblue" stroke="midnightblue" points="1882.23,-73.76 1871.68,-74.76 1880.55,-80.56 1882.23,-73.76"/>
</g>
<!-- Node26 -->
<g id="node20" class="node">
<title>Node26</title>
<g id="a_node20"><a xlink:title=" ">
<polygon fill="white" stroke="#bfbfbf" points="1254,-179.5 1254,-198.5 1430,-198.5 1430,-179.5 1254,-179.5"/>
<text text-anchor="middle" x="1342" y="-186.5" font-family="Helvetica,sans-Serif" font-size="10.00">../vwidgets/vmaingraphicsview.h</text>
</a>
</g>
</g>
<!-- Node21&#45;&gt;Node26 -->
<g id="edge23" class="edge">
<title>Node21&#45;&gt;Node26</title>
<path fill="none" stroke="midnightblue" d="M1788.98,-240.93C1778.64,-238.79 1767.42,-236.64 1757,-235 1698.02,-225.72 1543.06,-209.74 1440.09,-199.54"/>
<polygon fill="midnightblue" stroke="midnightblue" points="1440.28,-196.04 1429.98,-198.54 1439.59,-203 1440.28,-196.04"/>
</g>
<!-- Node27 -->
<g id="node21" class="node">
<title>Node27</title>
<g id="a_node21"><a xlink:title=" ">
<polygon fill="white" stroke="#bfbfbf" points="1448.5,-179.5 1448.5,-198.5 1609.5,-198.5 1609.5,-179.5 1448.5,-179.5"/>
<text text-anchor="middle" x="1529" y="-186.5" font-family="Helvetica,sans-Serif" font-size="10.00">../vpatterndb/vtranslatevars.h</text>
</a>
</g>
</g>
<!-- Node21&#45;&gt;Node27 -->
<g id="edge24" class="edge">
<title>Node21&#45;&gt;Node27</title>
<path fill="none" stroke="midnightblue" d="M1785.93,-240.92C1776.43,-238.96 1766.37,-236.89 1757,-235 1697.44,-222.95 1629.05,-209.51 1582.83,-200.48"/>
<polygon fill="midnightblue" stroke="midnightblue" points="1583.22,-196.99 1572.73,-198.51 1581.88,-203.86 1583.22,-196.99"/>
</g>
<!-- Node28 -->
<g id="node22" class="node">
<title>Node28</title>
<g id="a_node22"><a xlink:href="../../dd/d57/vcmdexport_8h.html" target="_top" xlink:title=" ">
<polygon fill="white" stroke="red" points="1942,-179.5 1942,-198.5 2026,-198.5 2026,-179.5 1942,-179.5"/>
<text text-anchor="middle" x="1984" y="-186.5" font-family="Helvetica,sans-Serif" font-size="10.00">vcmdexport.h</text>
</a>
</g>
</g>
<!-- Node21&#45;&gt;Node28 -->
<g id="edge25" class="edge">
<title>Node21&#45;&gt;Node28</title>
<path fill="none" stroke="midnightblue" d="M1849.49,-240.98C1876.31,-230.81 1921.32,-213.76 1951.81,-202.2"/>
<polygon fill="midnightblue" stroke="midnightblue" points="1953.44,-205.33 1961.55,-198.51 1950.96,-198.78 1953.44,-205.33"/>
</g>
<!-- Node24&#45;&gt;Node16 -->
<g id="edge22" class="edge">
<title>Node24&#45;&gt;Node16</title>
<path fill="none" stroke="midnightblue" d="M1800.28,-60.63C1722.29,-51.08 1536.53,-28.33 1446.14,-17.26"/>
<polygon fill="midnightblue" stroke="midnightblue" points="1446.48,-13.78 1436.13,-16.04 1445.63,-20.73 1446.48,-13.78"/>
</g>
<!-- Node24&#45;&gt;Node18 -->
<g id="edge21" class="edge">
<title>Node24&#45;&gt;Node18</title>
<path fill="none" stroke="midnightblue" d="M1825.72,-56.32C1816.16,-48.26 1801.72,-36.08 1790.22,-26.37"/>
<polygon fill="midnightblue" stroke="midnightblue" points="1792.37,-23.61 1782.47,-19.83 1787.86,-28.96 1792.37,-23.61"/>
</g>
<!-- Node28&#45;&gt;Node16 -->
<g id="edge33" class="edge">
<title>Node28&#45;&gt;Node16</title>
<path fill="none" stroke="midnightblue" d="M1970.36,-179.34C1931.91,-155.38 1818.69,-87.84 1715,-56 1622.92,-27.72 1510.42,-17.13 1446.3,-13.23"/>
<polygon fill="midnightblue" stroke="midnightblue" points="1446.24,-9.72 1436.05,-12.63 1445.83,-16.71 1446.24,-9.72"/>
</g>
<!-- Node28&#45;&gt;Node34 -->
<g id="edge26" class="edge">
<title>Node28&#45;&gt;Node34</title>
<path fill="none" stroke="midnightblue" d="M1941.73,-180.37C1938.78,-179.89 1935.84,-179.43 1933,-179 1820,-161.96 1688.56,-146.26 1607.31,-137.03"/>
<polygon fill="midnightblue" stroke="midnightblue" points="1607.5,-133.52 1597.17,-135.88 1606.71,-140.48 1607.5,-133.52"/>
</g>
<!-- Node34&#45;&gt;Node16 -->
<g id="edge29" class="edge">
<title>Node34&#45;&gt;Node16</title>
<path fill="none" stroke="midnightblue" d="M1472.15,-112.47C1451.29,-104.8 1429.17,-93.22 1414,-76 1402.72,-63.19 1398.12,-44.01 1396.25,-29.79"/>
<polygon fill="midnightblue" stroke="midnightblue" points="1399.72,-29.29 1395.27,-19.68 1392.76,-29.97 1399.72,-29.29"/>
</g>
<!-- Node34&#45;&gt;Node17 -->
<g id="edge27" class="edge">
<title>Node34&#45;&gt;Node17</title>
<path fill="none" stroke="midnightblue" d="M1476.02,-112.47C1435.65,-101.99 1381.2,-87.84 1343.81,-78.12"/>
<polygon fill="midnightblue" stroke="midnightblue" points="1344.3,-74.63 1333.74,-75.51 1342.54,-81.41 1344.3,-74.63"/>
</g>
<!-- Node34&#45;&gt;Node18 -->
<g id="edge30" class="edge">
<title>Node34&#45;&gt;Node18</title>
<path fill="none" stroke="midnightblue" d="M1597.15,-117.86C1634.06,-110.82 1679.43,-98.24 1715,-76 1734.42,-63.86 1750.94,-43.1 1761.12,-28.31"/>
<polygon fill="midnightblue" stroke="midnightblue" points="1764.27,-29.88 1766.86,-19.6 1758.43,-26.03 1764.27,-29.88"/>
</g>
<!-- Node35 -->
<g id="node24" class="node">
<title>Node35</title>
<g id="a_node24"><a xlink:title=" ">
<polygon fill="white" stroke="#bfbfbf" points="1423,-56.5 1423,-75.5 1527,-75.5 1527,-56.5 1423,-56.5"/>
<text text-anchor="middle" x="1475" y="-63.5" font-family="Helvetica,sans-Serif" font-size="10.00">../vlayout/vbank.h</text>
</a>
</g>
</g>
<!-- Node34&#45;&gt;Node35 -->
<g id="edge28" class="edge">
<title>Node34&#45;&gt;Node35</title>
<path fill="none" stroke="midnightblue" d="M1516.97,-112.4C1508.81,-103.58 1498.28,-92.18 1489.81,-83.02"/>
<polygon fill="midnightblue" stroke="midnightblue" points="1492.36,-80.63 1483,-75.66 1487.22,-85.38 1492.36,-80.63"/>
</g>
<!-- Node36 -->
<g id="node25" class="node">
<title>Node36</title>
<g id="a_node25"><a xlink:title=" ">
<polygon fill="white" stroke="#bfbfbf" points="1545.5,-56.5 1545.5,-75.5 1624.5,-75.5 1624.5,-56.5 1545.5,-56.5"/>
<text text-anchor="middle" x="1585" y="-63.5" font-family="Helvetica,sans-Serif" font-size="10.00">QCloseEvent</text>
</a>
</g>
</g>
<!-- Node34&#45;&gt;Node36 -->
<g id="edge31" class="edge">
<title>Node34&#45;&gt;Node36</title>
<path fill="none" stroke="midnightblue" d="M1543.03,-112.4C1551.19,-103.58 1561.72,-92.18 1570.19,-83.02"/>
<polygon fill="midnightblue" stroke="midnightblue" points="1572.78,-85.38 1577,-75.66 1567.64,-80.63 1572.78,-85.38"/>
</g>
<!-- Node37 -->
<g id="node26" class="node">
<title>Node37</title>
<g id="a_node26"><a xlink:title=" ">
<polygon fill="white" stroke="#bfbfbf" points="1642.5,-56.5 1642.5,-75.5 1705.5,-75.5 1705.5,-56.5 1642.5,-56.5"/>
<text text-anchor="middle" x="1674" y="-63.5" font-family="Helvetica,sans-Serif" font-size="10.00">QMargins</text>
</a>
</g>
</g>
<!-- Node34&#45;&gt;Node37 -->
<g id="edge32" class="edge">
<title>Node34&#45;&gt;Node37</title>
<path fill="none" stroke="midnightblue" d="M1564.13,-112.4C1588.29,-102.42 1620.4,-89.15 1643.67,-79.53"/>
<polygon fill="midnightblue" stroke="midnightblue" points="1645.14,-82.71 1653.05,-75.66 1642.47,-76.24 1645.14,-82.71"/>
</g>
<!-- Node42&#45;&gt;Node13 -->
<g id="edge41" class="edge">
<title>Node42&#45;&gt;Node13</title>
<path fill="none" stroke="midnightblue" d="M1062.84,-240.93C1044.42,-228.56 1015.61,-204.39 1025,-179 1050.08,-111.2 1116.1,-52.3 1149.32,-25.85"/>
<polygon fill="midnightblue" stroke="midnightblue" points="1151.66,-28.46 1157.38,-19.55 1147.35,-22.95 1151.66,-28.46"/>
</g>
<!-- Node43 -->
<g id="node31" class="node">
<title>Node43</title>
<g id="a_node31"><a xlink:title=" ">
<polygon fill="white" stroke="#bfbfbf" points="1034,-179.5 1034,-198.5 1160,-198.5 1160,-179.5 1034,-179.5"/>
<text text-anchor="middle" x="1097" y="-186.5" font-family="Helvetica,sans-Serif" font-size="10.00">../vlayout/vlayoutdef.h</text>
</a>
</g>
</g>
<!-- Node42&#45;&gt;Node43 -->
<g id="edge42" class="edge">
<title>Node42&#45;&gt;Node43</title>
<path fill="none" stroke="midnightblue" d="M1079.87,-240.98C1082.72,-232.49 1087.18,-219.2 1090.84,-208.32"/>
<polygon fill="midnightblue" stroke="midnightblue" points="1094.27,-209.1 1094.14,-198.51 1087.64,-206.87 1094.27,-209.1"/>
</g>
</g>
</svg>
        <g id="navigator" transform="translate(0 0)" fill="#404254">
                <rect fill="#f2f5e9" fill-opacity="0.5" stroke="#606060" stroke-width=".5" x="0" y="0" width="60" height="60"/>
                <use id="zoomplus" xlink:href="#zoomPlus" x="17" y="9" onmousedown="handleZoom(evt,'in')"/>
                <use id="zoomminus" xlink:href="#zoomMin" x="42" y="9" onmousedown="handleZoom(evt,'out')"/>
                <use id="reset" xlink:href="#resetDef" x="30" y="36" onmousedown="handleReset()"/>
                <g id="arrowUp" xlink:href="#dirArrow" transform="translate(30 24)" onmousedown="handlePan(0,-1)">
                  <use xlink:href="#rim" fill="#404040">
                        <set attributeName="fill" to="#808080" begin="arrowUp.mouseover" end="arrowUp.mouseout"/>
                  </use>
                  <path fill="none" stroke="white" stroke-width="1.5" d="M0,-3.0v7 M-2.5,-0.5L0,-3.0L2.5,-0.5"/>
                </g>
                <g id="arrowRight" xlink:href="#dirArrow" transform="rotate(90) translate(36 -43)" onmousedown="handlePan(1,0)">
                  <use xlink:href="#rim" fill="#404040">
                        <set attributeName="fill" to="#808080" begin="arrowRight.mouseover" end="arrowRight.mouseout"/>
                  </use>
                  <path fill="none" stroke="white" stroke-width="1.5" d="M0,-3.0v7 M-2.5,-0.5L0,-3.0L2.5,-0.5"/>
                </g>
                <g id="arrowDown" xlink:href="#dirArrow" transform="rotate(180) translate(-30 -48)" onmousedown="handlePan(0,1)">
                  <use xlink:href="#rim" fill="#404040">
                        <set attributeName="fill" to="#808080" begin="arrowDown.mouseover" end="arrowDown.mouseout"/>
                  </use>
                  <path fill="none" stroke="white" stroke-width="1.5" d="M0,-3.0v7 M-2.5,-0.5L0,-3.0L2.5,-0.5"/>
                </g>
                <g id="arrowLeft" xlink:href="#dirArrow" transform="rotate(270) translate(-36 17)" onmousedown="handlePan(-1,0)">
                  <use xlink:href="#rim" fill="#404040">
                        <set attributeName="fill" to="#808080" begin="arrowLeft.mouseover" end="arrowLeft.mouseout"/>
                  </use>
                  <path fill="none" stroke="white" stroke-width="1.5" d="M0,-3.0v7 M-2.5,-0.5L0,-3.0L2.5,-0.5"/>
                </g>
        </g>
        <svg viewBox="0 0 15 15" width="100%" height="30px" preserveAspectRatio="xMaxYMin meet">
         <g id="arrow_out" transform="scale(0.3 0.3)">
          <a xlink:href="mainwindowsnogui_8cpp__incl_org.svg" target="_base">
           <rect id="button" ry="5" rx="5" y="6" x="6" height="38" width="38"
                fill="#f2f5e9" fill-opacity="0.5" stroke="#606060" stroke-width="1.0"/>
           <path id="arrow"
             d="M 11.500037,31.436501 C 11.940474,20.09759 22.043105,11.32322 32.158766,21.979434 L 37.068811,17.246167 C 37.068811,17.246167 37.088388,32 37.088388,32 L 22.160133,31.978069 C 22.160133,31.978069 26.997745,27.140456 26.997745,27.140456 C 18.528582,18.264221 13.291696,25.230495 11.500037,31.436501 z"
             style="fill:#404040;"/>
          </a>
         </g>
        </svg>
</svg>
