<?xml version="1.0" encoding="UTF-8" standalone="no"?>
<!DOCTYPE svg PUBLIC "-//W3C//DTD SVG 1.1//EN"
 "http://www.w3.org/Graphics/SVG/1.1/DTD/svg11.dtd">
<!-- Generated by graphviz version 2.43.0 (0)
 -->
<!-- Title: VisToolEllipticalArc Pages: 1 -->
<svg width="522pt" height="1328pt"
 viewBox="0.00 0.00 522.00 1328.00" xmlns="http://www.w3.org/2000/svg" xmlns:xlink="http://www.w3.org/1999/xlink">
<g id="graph0" class="graph" transform="scale(1 1) rotate(0) translate(4 1324)">
<title>VisToolEllipticalArc</title>
<polygon fill="white" stroke="transparent" points="-4,4 -4,-1324 518,-1324 518,4 -4,4"/>
<!-- Node1 -->
<g id="node1" class="node">
<title>Node1</title>
<g id="a_node1"><a xlink:title=" ">
<polygon fill="#bfbfbf" stroke="black" points="312,-0.5 312,-189.5 448,-189.5 448,-0.5 312,-0.5"/>
<text text-anchor="middle" x="380" y="-177.5" font-family="Helvetica,sans-Serif" font-size="10.00">VisToolEllipticalArc</text>
<polyline fill="none" stroke="black" points="312,-170.5 448,-170.5 "/>
<text text-anchor="start" x="320" y="-158.5" font-family="Helvetica,sans-Serif" font-size="10.00">&#45; radius1</text>
<text text-anchor="start" x="320" y="-147.5" font-family="Helvetica,sans-Serif" font-size="10.00">&#45; radius2</text>
<text text-anchor="start" x="320" y="-136.5" font-family="Helvetica,sans-Serif" font-size="10.00">&#45; f1</text>
<text text-anchor="start" x="320" y="-125.5" font-family="Helvetica,sans-Serif" font-size="10.00">&#45; f2</text>
<text text-anchor="start" x="320" y="-114.5" font-family="Helvetica,sans-Serif" font-size="10.00">&#45; rotationAngle</text>
<polyline fill="none" stroke="black" points="312,-107.5 448,-107.5 "/>
<text text-anchor="start" x="320" y="-95.5" font-family="Helvetica,sans-Serif" font-size="10.00">+ VisToolEllipticalArc()</text>
<text text-anchor="start" x="320" y="-84.5" font-family="Helvetica,sans-Serif" font-size="10.00">+ ~VisToolEllipticalArc()</text>
<text text-anchor="start" x="320" y="-73.5" font-family="Helvetica,sans-Serif" font-size="10.00">+ RefreshGeometry()</text>
<text text-anchor="start" x="320" y="-62.5" font-family="Helvetica,sans-Serif" font-size="10.00">+ setRadius1()</text>
<text text-anchor="start" x="320" y="-51.5" font-family="Helvetica,sans-Serif" font-size="10.00">+ setRadius2()</text>
<text text-anchor="start" x="320" y="-40.5" font-family="Helvetica,sans-Serif" font-size="10.00">+ setF1()</text>
<text text-anchor="start" x="320" y="-29.5" font-family="Helvetica,sans-Serif" font-size="10.00">+ setF2()</text>
<text text-anchor="start" x="320" y="-18.5" font-family="Helvetica,sans-Serif" font-size="10.00">+ setRotationAngle()</text>
<text text-anchor="start" x="320" y="-7.5" font-family="Helvetica,sans-Serif" font-size="10.00">+ type()</text>
</a>
</g>
</g>
<!-- Node2 -->
<g id="node2" class="node">
<title>Node2</title>
<g id="a_node2"><a xlink:href="../../db/d76/classVisPath.html" target="_top" xlink:title=" ">
<polygon fill="white" stroke="black" points="260.5,-237.5 260.5,-349.5 357.5,-349.5 357.5,-237.5 260.5,-237.5"/>
<text text-anchor="middle" x="309" y="-337.5" font-family="Helvetica,sans-Serif" font-size="10.00">VisPath</text>
<polyline fill="none" stroke="black" points="260.5,-330.5 357.5,-330.5 "/>
<text text-anchor="middle" x="309" y="-318.5" font-family="Helvetica,sans-Serif" font-size="10.00"> </text>
<polyline fill="none" stroke="black" points="260.5,-311.5 357.5,-311.5 "/>
<text text-anchor="start" x="268.5" y="-299.5" font-family="Helvetica,sans-Serif" font-size="10.00">+ VisPath()</text>
<text text-anchor="start" x="268.5" y="-288.5" font-family="Helvetica,sans-Serif" font-size="10.00">+ ~VisPath()</text>
<text text-anchor="start" x="268.5" y="-277.5" font-family="Helvetica,sans-Serif" font-size="10.00">+ type()</text>
<text text-anchor="start" x="268.5" y="-266.5" font-family="Helvetica,sans-Serif" font-size="10.00"># initPen()</text>
<text text-anchor="start" x="268.5" y="-255.5" font-family="Helvetica,sans-Serif" font-size="10.00"># AddOnScene()</text>
<text text-anchor="start" x="268.5" y="-244.5" font-family="Helvetica,sans-Serif" font-size="10.00"># GetPoint()</text>
</a>
</g>
</g>
<!-- Node2&#45;&gt;Node1 -->
<g id="edge1" class="edge">
<title>Node2&#45;&gt;Node1</title>
<path fill="none" stroke="midnightblue" d="M332.44,-227.63C336.85,-215.41 341.55,-202.42 346.21,-189.53"/>
<polygon fill="none" stroke="midnightblue" points="329.07,-226.65 328.97,-237.24 335.66,-229.03 329.07,-226.65"/>
</g>
<!-- Node3 -->
<g id="node3" class="node">
<title>Node3</title>
<g id="a_node3"><a xlink:href="../../d7/d24/classVisualization.html" target="_top" xlink:title=" ">
<polygon fill="white" stroke="black" points="97,-387.5 97,-840.5 219,-840.5 219,-387.5 97,-387.5"/>
<text text-anchor="middle" x="158" y="-828.5" font-family="Helvetica,sans-Serif" font-size="10.00">Visualization</text>
<polyline fill="none" stroke="black" points="97,-821.5 219,-821.5 "/>
<text text-anchor="start" x="105" y="-809.5" font-family="Helvetica,sans-Serif" font-size="10.00"># scenePos</text>
<text text-anchor="start" x="105" y="-798.5" font-family="Helvetica,sans-Serif" font-size="10.00"># mainColor</text>
<text text-anchor="start" x="105" y="-787.5" font-family="Helvetica,sans-Serif" font-size="10.00"># supportColor</text>
<text text-anchor="start" x="105" y="-776.5" font-family="Helvetica,sans-Serif" font-size="10.00"># lineStyle</text>
<text text-anchor="start" x="105" y="-765.5" font-family="Helvetica,sans-Serif" font-size="10.00"># lineWeight</text>
<text text-anchor="start" x="105" y="-754.5" font-family="Helvetica,sans-Serif" font-size="10.00"># object1Id</text>
<text text-anchor="start" x="105" y="-743.5" font-family="Helvetica,sans-Serif" font-size="10.00"># toolTip</text>
<text text-anchor="start" x="105" y="-732.5" font-family="Helvetica,sans-Serif" font-size="10.00"># mode</text>
<polyline fill="none" stroke="black" points="97,-725.5 219,-725.5 "/>
<text text-anchor="start" x="105" y="-713.5" font-family="Helvetica,sans-Serif" font-size="10.00">+ Visualization()</text>
<text text-anchor="start" x="105" y="-702.5" font-family="Helvetica,sans-Serif" font-size="10.00">+ ~Visualization()</text>
<text text-anchor="start" x="105" y="-691.5" font-family="Helvetica,sans-Serif" font-size="10.00">+ RefreshGeometry()</text>
<text text-anchor="start" x="105" y="-680.5" font-family="Helvetica,sans-Serif" font-size="10.00">+ setObject1Id()</text>
<text text-anchor="start" x="105" y="-669.5" font-family="Helvetica,sans-Serif" font-size="10.00">+ setLineStyle()</text>
<text text-anchor="start" x="105" y="-658.5" font-family="Helvetica,sans-Serif" font-size="10.00">+ setLineWeight()</text>
<text text-anchor="start" x="105" y="-647.5" font-family="Helvetica,sans-Serif" font-size="10.00">+ setScenePos()</text>
<text text-anchor="start" x="105" y="-636.5" font-family="Helvetica,sans-Serif" font-size="10.00">+ VisualMode()</text>
<text text-anchor="start" x="105" y="-625.5" font-family="Helvetica,sans-Serif" font-size="10.00">+ setMainColor()</text>
<text text-anchor="start" x="105" y="-614.5" font-family="Helvetica,sans-Serif" font-size="10.00">+ getData()</text>
<text text-anchor="start" x="105" y="-603.5" font-family="Helvetica,sans-Serif" font-size="10.00">+ setData()</text>
<text text-anchor="start" x="105" y="-592.5" font-family="Helvetica,sans-Serif" font-size="10.00">+ GetMode()</text>
<text text-anchor="start" x="105" y="-581.5" font-family="Helvetica,sans-Serif" font-size="10.00">+ SetMode()</text>
<text text-anchor="start" x="105" y="-570.5" font-family="Helvetica,sans-Serif" font-size="10.00">+ CurrentToolTip()</text>
<text text-anchor="start" x="105" y="-559.5" font-family="Helvetica,sans-Serif" font-size="10.00">+ FindLength()</text>
<text text-anchor="start" x="105" y="-548.5" font-family="Helvetica,sans-Serif" font-size="10.00">+ FindVal()</text>
<text text-anchor="start" x="105" y="-537.5" font-family="Helvetica,sans-Serif" font-size="10.00">+ mousePos()</text>
<text text-anchor="start" x="105" y="-526.5" font-family="Helvetica,sans-Serif" font-size="10.00"># initPen()</text>
<text text-anchor="start" x="105" y="-515.5" font-family="Helvetica,sans-Serif" font-size="10.00"># AddOnScene()</text>
<text text-anchor="start" x="105" y="-504.5" font-family="Helvetica,sans-Serif" font-size="10.00"># InitPoint()</text>
<text text-anchor="start" x="105" y="-493.5" font-family="Helvetica,sans-Serif" font-size="10.00"># DrawPoint()</text>
<text text-anchor="start" x="105" y="-482.5" font-family="Helvetica,sans-Serif" font-size="10.00"># DrawLine()</text>
<text text-anchor="start" x="105" y="-471.5" font-family="Helvetica,sans-Serif" font-size="10.00"># DrawPath()</text>
<text text-anchor="start" x="105" y="-460.5" font-family="Helvetica,sans-Serif" font-size="10.00"># DrawPath()</text>
<text text-anchor="start" x="105" y="-449.5" font-family="Helvetica,sans-Serif" font-size="10.00"># drawArrowedLine()</text>
<text text-anchor="start" x="105" y="-438.5" font-family="Helvetica,sans-Serif" font-size="10.00"># drawArrow()</text>
<text text-anchor="start" x="105" y="-427.5" font-family="Helvetica,sans-Serif" font-size="10.00"># addItem()</text>
<text text-anchor="start" x="105" y="-416.5" font-family="Helvetica,sans-Serif" font-size="10.00"># InitItem()</text>
<text text-anchor="start" x="105" y="-405.5" font-family="Helvetica,sans-Serif" font-size="10.00"># GetPointItem()</text>
<text text-anchor="start" x="105" y="-394.5" font-family="Helvetica,sans-Serif" font-size="10.00">&#45; initPointItem()</text>
</a>
</g>
</g>
<!-- Node3&#45;&gt;Node2 -->
<g id="edge2" class="edge">
<title>Node3&#45;&gt;Node2</title>
<path fill="none" stroke="midnightblue" d="M223.33,-409.81C227.06,-402.01 230.95,-394.38 235,-387 242.12,-374.02 251.09,-361.02 260.3,-349.04"/>
<polygon fill="none" stroke="midnightblue" points="220.09,-408.49 219.03,-419.03 226.43,-411.45 220.09,-408.49"/>
</g>
<!-- Node4 -->
<g id="node4" class="node">
<title>Node4</title>
<g id="a_node4"><a xlink:title=" ">
<polygon fill="white" stroke="#bfbfbf" points="0,-1075.5 0,-1132.5 56,-1132.5 56,-1075.5 0,-1075.5"/>
<text text-anchor="middle" x="28" y="-1120.5" font-family="Helvetica,sans-Serif" font-size="10.00">QObject</text>
<polyline fill="none" stroke="#bfbfbf" points="0,-1113.5 56,-1113.5 "/>
<text text-anchor="middle" x="28" y="-1101.5" font-family="Helvetica,sans-Serif" font-size="10.00"> </text>
<polyline fill="none" stroke="#bfbfbf" points="0,-1094.5 56,-1094.5 "/>
<text text-anchor="middle" x="28" y="-1082.5" font-family="Helvetica,sans-Serif" font-size="10.00"> </text>
</a>
</g>
</g>
<!-- Node4&#45;&gt;Node3 -->
<g id="edge3" class="edge">
<title>Node4&#45;&gt;Node3</title>
<path fill="none" stroke="midnightblue" d="M32.67,-1065.14C38.43,-1021.9 49.41,-949.2 65,-888 73.96,-852.82 85.3,-815.67 96.96,-780.49"/>
<polygon fill="none" stroke="midnightblue" points="29.18,-1064.85 31.35,-1075.22 36.12,-1065.75 29.18,-1064.85"/>
</g>
<!-- Node5 -->
<g id="node5" class="node">
<title>Node5</title>
<g id="a_node5"><a xlink:href="../../d2/d83/classVContainer.html" target="_top" xlink:title="Manages a collection of geometric objects, pieces, paths, and variables.">
<polygon fill="white" stroke="black" points="74,-888.5 74,-1319.5 242,-1319.5 242,-888.5 74,-888.5"/>
<text text-anchor="middle" x="158" y="-1307.5" font-family="Helvetica,sans-Serif" font-size="10.00">VContainer</text>
<polyline fill="none" stroke="black" points="74,-1300.5 242,-1300.5 "/>
<text text-anchor="start" x="82" y="-1288.5" font-family="Helvetica,sans-Serif" font-size="10.00">&#45; d</text>
<text text-anchor="start" x="82" y="-1277.5" font-family="Helvetica,sans-Serif" font-size="10.00">&#45; _id</text>
<text text-anchor="start" x="82" y="-1266.5" font-family="Helvetica,sans-Serif" font-size="10.00">&#45; _size</text>
<text text-anchor="start" x="82" y="-1255.5" font-family="Helvetica,sans-Serif" font-size="10.00">&#45; _height</text>
<text text-anchor="start" x="82" y="-1244.5" font-family="Helvetica,sans-Serif" font-size="10.00">&#45; uniqueNames</text>
<polyline fill="none" stroke="black" points="74,-1237.5 242,-1237.5 "/>
<text text-anchor="start" x="82" y="-1225.5" font-family="Helvetica,sans-Serif" font-size="10.00">+ VContainer()</text>
<text text-anchor="start" x="82" y="-1214.5" font-family="Helvetica,sans-Serif" font-size="10.00">+ VContainer()</text>
<text text-anchor="start" x="82" y="-1203.5" font-family="Helvetica,sans-Serif" font-size="10.00">+ ~VContainer()</text>
<text text-anchor="start" x="82" y="-1192.5" font-family="Helvetica,sans-Serif" font-size="10.00">+ operator=()</text>
<text text-anchor="start" x="82" y="-1181.5" font-family="Helvetica,sans-Serif" font-size="10.00">+ Swap()</text>
<text text-anchor="start" x="82" y="-1170.5" font-family="Helvetica,sans-Serif" font-size="10.00">+ GeometricObject()</text>
<text text-anchor="start" x="82" y="-1159.5" font-family="Helvetica,sans-Serif" font-size="10.00">+ GetGObject()</text>
<text text-anchor="start" x="82" y="-1148.5" font-family="Helvetica,sans-Serif" font-size="10.00">+ GetPiece()</text>
<text text-anchor="start" x="82" y="-1137.5" font-family="Helvetica,sans-Serif" font-size="10.00">+ GetPiecePath()</text>
<text text-anchor="start" x="82" y="-1126.5" font-family="Helvetica,sans-Serif" font-size="10.00">+ getVariable()</text>
<text text-anchor="start" x="82" y="-1115.5" font-family="Helvetica,sans-Serif" font-size="10.00">and 34 more...</text>
<text text-anchor="start" x="82" y="-1104.5" font-family="Helvetica,sans-Serif" font-size="10.00">+ GetFakeGObject()</text>
<text text-anchor="start" x="82" y="-1093.5" font-family="Helvetica,sans-Serif" font-size="10.00">+ getId()</text>
<text text-anchor="start" x="82" y="-1082.5" font-family="Helvetica,sans-Serif" font-size="10.00">+ getNextId()</text>
<text text-anchor="start" x="82" y="-1071.5" font-family="Helvetica,sans-Serif" font-size="10.00">+ UpdateId()</text>
<text text-anchor="start" x="82" y="-1060.5" font-family="Helvetica,sans-Serif" font-size="10.00">+ ClearUniqueNames()</text>
<text text-anchor="start" x="82" y="-1049.5" font-family="Helvetica,sans-Serif" font-size="10.00">+ clearUniqueVariableNames()</text>
<text text-anchor="start" x="82" y="-1038.5" font-family="Helvetica,sans-Serif" font-size="10.00">+ setSize()</text>
<text text-anchor="start" x="82" y="-1027.5" font-family="Helvetica,sans-Serif" font-size="10.00">+ setHeight()</text>
<text text-anchor="start" x="82" y="-1016.5" font-family="Helvetica,sans-Serif" font-size="10.00">+ size()</text>
<text text-anchor="start" x="82" y="-1005.5" font-family="Helvetica,sans-Serif" font-size="10.00">+ rsize()</text>
<text text-anchor="start" x="82" y="-994.5" font-family="Helvetica,sans-Serif" font-size="10.00">+ height()</text>
<text text-anchor="start" x="82" y="-983.5" font-family="Helvetica,sans-Serif" font-size="10.00">+ rheight()</text>
<text text-anchor="start" x="82" y="-972.5" font-family="Helvetica,sans-Serif" font-size="10.00">+ IsUnique()</text>
<text text-anchor="start" x="82" y="-961.5" font-family="Helvetica,sans-Serif" font-size="10.00">+ AllUniqueNames()</text>
<text text-anchor="start" x="82" y="-950.5" font-family="Helvetica,sans-Serif" font-size="10.00">&#45; AddCurve()</text>
<text text-anchor="start" x="82" y="-939.5" font-family="Helvetica,sans-Serif" font-size="10.00">&#45; qHash()</text>
<text text-anchor="start" x="82" y="-928.5" font-family="Helvetica,sans-Serif" font-size="10.00">&#45; GetObject()</text>
<text text-anchor="start" x="82" y="-917.5" font-family="Helvetica,sans-Serif" font-size="10.00">&#45; UpdateObject()</text>
<text text-anchor="start" x="82" y="-906.5" font-family="Helvetica,sans-Serif" font-size="10.00">&#45; DataVar()</text>
<text text-anchor="start" x="82" y="-895.5" font-family="Helvetica,sans-Serif" font-size="10.00">&#45; AddObject()</text>
</a>
</g>
</g>
<!-- Node5&#45;&gt;Node3 -->
<g id="edge4" class="edge">
<title>Node5&#45;&gt;Node3</title>
<path fill="none" stroke="#404040" d="M158,-888.25C158,-876.57 158,-864.81 158,-853.07"/>
<polygon fill="none" stroke="#404040" points="158,-852.84 154,-846.84 158,-840.84 162,-846.84 158,-852.84"/>
<text text-anchor="middle" x="175" y="-862" font-family="Helvetica,sans-Serif" font-size="10.00"> #data</text>
</g>
<!-- Node6 -->
<g id="node6" class="node">
<title>Node6</title>
<g id="a_node6"><a xlink:href="../../d3/d85/classVCurvePathItem.html" target="_top" xlink:title=" ">
<polygon fill="white" stroke="black" points="244.5,-541.5 244.5,-686.5 373.5,-686.5 373.5,-541.5 244.5,-541.5"/>
<text text-anchor="middle" x="309" y="-674.5" font-family="Helvetica,sans-Serif" font-size="10.00">VCurvePathItem</text>
<polyline fill="none" stroke="black" points="244.5,-667.5 373.5,-667.5 "/>
<text text-anchor="start" x="252.5" y="-655.5" font-family="Helvetica,sans-Serif" font-size="10.00">&#45; m_directionArrows</text>
<text text-anchor="start" x="252.5" y="-644.5" font-family="Helvetica,sans-Serif" font-size="10.00">&#45; m_points</text>
<polyline fill="none" stroke="black" points="244.5,-637.5 373.5,-637.5 "/>
<text text-anchor="start" x="252.5" y="-625.5" font-family="Helvetica,sans-Serif" font-size="10.00">+ VCurvePathItem()</text>
<text text-anchor="start" x="252.5" y="-614.5" font-family="Helvetica,sans-Serif" font-size="10.00">+ ~VCurvePathItem()</text>
<text text-anchor="start" x="252.5" y="-603.5" font-family="Helvetica,sans-Serif" font-size="10.00">+ shape()</text>
<text text-anchor="start" x="252.5" y="-592.5" font-family="Helvetica,sans-Serif" font-size="10.00">+ paint()</text>
<text text-anchor="start" x="252.5" y="-581.5" font-family="Helvetica,sans-Serif" font-size="10.00">+ type()</text>
<text text-anchor="start" x="252.5" y="-570.5" font-family="Helvetica,sans-Serif" font-size="10.00">+ SetDirectionArrows()</text>
<text text-anchor="start" x="252.5" y="-559.5" font-family="Helvetica,sans-Serif" font-size="10.00">+ SetPoints()</text>
<text text-anchor="start" x="252.5" y="-548.5" font-family="Helvetica,sans-Serif" font-size="10.00"># ScalePenWidth()</text>
</a>
</g>
</g>
<!-- Node6&#45;&gt;Node2 -->
<g id="edge5" class="edge">
<title>Node6&#45;&gt;Node2</title>
<path fill="none" stroke="midnightblue" d="M309,-531.05C309,-474.02 309,-399.53 309,-349.51"/>
<polygon fill="none" stroke="midnightblue" points="305.5,-531.13 309,-541.13 312.5,-531.13 305.5,-531.13"/>
</g>
<!-- Node7 -->
<g id="node7" class="node">
<title>Node7</title>
<g id="a_node7"><a xlink:title=" ">
<polygon fill="white" stroke="#bfbfbf" points="260,-1075.5 260,-1132.5 370,-1132.5 370,-1075.5 260,-1075.5"/>
<text text-anchor="middle" x="315" y="-1120.5" font-family="Helvetica,sans-Serif" font-size="10.00">QGraphicsPathItem</text>
<polyline fill="none" stroke="#bfbfbf" points="260,-1113.5 370,-1113.5 "/>
<text text-anchor="middle" x="315" y="-1101.5" font-family="Helvetica,sans-Serif" font-size="10.00"> </text>
<polyline fill="none" stroke="#bfbfbf" points="260,-1094.5 370,-1094.5 "/>
<text text-anchor="middle" x="315" y="-1082.5" font-family="Helvetica,sans-Serif" font-size="10.00"> </text>
</a>
</g>
</g>
<!-- Node7&#45;&gt;Node6 -->
<g id="edge6" class="edge">
<title>Node7&#45;&gt;Node6</title>
<path fill="none" stroke="midnightblue" d="M314.53,-1065.11C313.53,-983.83 311.17,-791.64 309.88,-686.6"/>
<polygon fill="none" stroke="midnightblue" points="311.04,-1065.41 314.66,-1075.36 318.04,-1065.32 311.04,-1065.41"/>
</g>
<!-- Node8 -->
<g id="node8" class="node">
<title>Node8</title>
<g id="a_node8"><a xlink:href="../../d8/dbf/classVScaledEllipse.html" target="_top" xlink:title=" ">
<polygon fill="white" stroke="black" points="385.5,-248.5 385.5,-338.5 500.5,-338.5 500.5,-248.5 385.5,-248.5"/>
<text text-anchor="middle" x="443" y="-326.5" font-family="Helvetica,sans-Serif" font-size="10.00">VScaledEllipse</text>
<polyline fill="none" stroke="black" points="385.5,-319.5 500.5,-319.5 "/>
<text text-anchor="middle" x="443" y="-307.5" font-family="Helvetica,sans-Serif" font-size="10.00"> </text>
<polyline fill="none" stroke="black" points="385.5,-300.5 500.5,-300.5 "/>
<text text-anchor="start" x="393.5" y="-288.5" font-family="Helvetica,sans-Serif" font-size="10.00">+ VScaledEllipse()</text>
<text text-anchor="start" x="393.5" y="-277.5" font-family="Helvetica,sans-Serif" font-size="10.00">+ ~VScaledEllipse()</text>
<text text-anchor="start" x="393.5" y="-266.5" font-family="Helvetica,sans-Serif" font-size="10.00">+ type()</text>
<text text-anchor="start" x="393.5" y="-255.5" font-family="Helvetica,sans-Serif" font-size="10.00">+ paint()</text>
</a>
</g>
</g>
<!-- Node8&#45;&gt;Node1 -->
<g id="edge7" class="edge">
<title>Node8&#45;&gt;Node1</title>
<path fill="none" stroke="#404040" d="M428.86,-248.4C424.32,-234.24 419.08,-217.9 413.76,-201.29"/>
<polygon fill="none" stroke="#404040" points="413.73,-201.2 408.09,-196.71 410.06,-189.77 415.71,-194.27 413.73,-201.2"/>
<text text-anchor="middle" x="446.5" y="-211" font-family="Helvetica,sans-Serif" font-size="10.00"> &#45;arcCenter</text>
</g>
<!-- Node9 -->
<g id="node9" class="node">
<title>Node9</title>
<g id="a_node9"><a xlink:title=" ">
<polygon fill="white" stroke="#bfbfbf" points="392,-585.5 392,-642.5 514,-642.5 514,-585.5 392,-585.5"/>
<text text-anchor="middle" x="453" y="-630.5" font-family="Helvetica,sans-Serif" font-size="10.00">QGraphicsEllipseItem</text>
<polyline fill="none" stroke="#bfbfbf" points="392,-623.5 514,-623.5 "/>
<text text-anchor="middle" x="453" y="-611.5" font-family="Helvetica,sans-Serif" font-size="10.00"> </text>
<polyline fill="none" stroke="#bfbfbf" points="392,-604.5 514,-604.5 "/>
<text text-anchor="middle" x="453" y="-592.5" font-family="Helvetica,sans-Serif" font-size="10.00"> </text>
</a>
</g>
</g>
<!-- Node9&#45;&gt;Node8 -->
<g id="edge8" class="edge">
<title>Node9&#45;&gt;Node8</title>
<path fill="none" stroke="midnightblue" d="M451.81,-575.25C449.96,-516.05 446.36,-401.67 444.39,-338.71"/>
<polygon fill="none" stroke="midnightblue" points="448.32,-575.41 452.13,-585.29 455.31,-575.19 448.32,-575.41"/>
</g>
</g>
</svg>
