<?xml version="1.0" encoding="UTF-8" standalone="no"?>
<!DOCTYPE svg PUBLIC "-//W3C//DTD SVG 1.1//EN"
 "http://www.w3.org/Graphics/SVG/1.1/DTD/svg11.dtd">
<!-- Generated by graphviz version 2.43.0 (0)
 -->
<!-- Title: src/libs/xerces&#45;c/msvc/include/xercesc/dom/impl/DOMNodeImpl.hpp Pages: 1 -->
<svg width="1931pt" height="284pt"
 viewBox="0.00 0.00 1930.57 284.00" xmlns="http://www.w3.org/2000/svg" xmlns:xlink="http://www.w3.org/1999/xlink">
<g id="graph0" class="graph" transform="scale(1 1) rotate(0) translate(4 280)">
<title>src/libs/xerces&#45;c/msvc/include/xercesc/dom/impl/DOMNodeImpl.hpp</title>
<polygon fill="white" stroke="transparent" points="-4,4 -4,-280 1926.57,-280 1926.57,4 -4,4"/>
<!-- Node1 -->
<g id="node1" class="node">
<title>Node1</title>
<g id="a_node1"><a xlink:title=" ">
<polygon fill="#bfbfbf" stroke="black" points="819.57,-234.5 819.57,-275.5 963.57,-275.5 963.57,-234.5 819.57,-234.5"/>
<text text-anchor="start" x="827.57" y="-263.5" font-family="Helvetica,sans-Serif" font-size="10.00">src/libs/xerces&#45;c/msvc</text>
<text text-anchor="start" x="827.57" y="-252.5" font-family="Helvetica,sans-Serif" font-size="10.00">/include/xercesc/dom/impl</text>
<text text-anchor="middle" x="891.57" y="-241.5" font-family="Helvetica,sans-Serif" font-size="10.00">/DOMNodeImpl.hpp</text>
</a>
</g>
</g>
<!-- Node2 -->
<g id="node2" class="node">
<title>Node2</title>
<g id="a_node2"><a xlink:href="../../de/d08/msvc_2include_2xercesc_2dom_2impl_2DOMAttrImpl_8hpp.html" target="_top" xlink:title=" ">
<polygon fill="white" stroke="black" points="250.57,-78.5 250.57,-119.5 394.57,-119.5 394.57,-78.5 250.57,-78.5"/>
<text text-anchor="start" x="258.57" y="-107.5" font-family="Helvetica,sans-Serif" font-size="10.00">src/libs/xerces&#45;c/msvc</text>
<text text-anchor="start" x="258.57" y="-96.5" font-family="Helvetica,sans-Serif" font-size="10.00">/include/xercesc/dom/impl</text>
<text text-anchor="middle" x="322.57" y="-85.5" font-family="Helvetica,sans-Serif" font-size="10.00">/DOMAttrImpl.hpp</text>
</a>
</g>
</g>
<!-- Node1&#45;&gt;Node2 -->
<g id="edge1" class="edge">
<title>Node1&#45;&gt;Node2</title>
<path fill="none" stroke="midnightblue" d="M809.36,-251.76C596.59,-245.55 42.5,-226.7 15.57,-198 -55.62,-122.1 138.7,-104.76 250.3,-100.95"/>
<polygon fill="midnightblue" stroke="midnightblue" points="809.44,-255.26 819.54,-252.05 809.64,-248.26 809.44,-255.26"/>
</g>
<!-- Node4 -->
<g id="node4" class="node">
<title>Node4</title>
<g id="a_node4"><a xlink:href="../../d3/d3c/msvc_2include_2xercesc_2dom_2impl_2DOMCDATASectionImpl_8hpp.html" target="_top" xlink:title=" ">
<polygon fill="white" stroke="black" points="25.07,-156.5 25.07,-197.5 180.07,-197.5 180.07,-156.5 25.07,-156.5"/>
<text text-anchor="start" x="33.07" y="-185.5" font-family="Helvetica,sans-Serif" font-size="10.00">src/libs/xerces&#45;c/msvc</text>
<text text-anchor="start" x="33.07" y="-174.5" font-family="Helvetica,sans-Serif" font-size="10.00">/include/xercesc/dom/impl</text>
<text text-anchor="middle" x="102.57" y="-163.5" font-family="Helvetica,sans-Serif" font-size="10.00">/DOMCDATASectionImpl.hpp</text>
</a>
</g>
</g>
<!-- Node1&#45;&gt;Node4 -->
<g id="edge3" class="edge">
<title>Node1&#45;&gt;Node4</title>
<path fill="none" stroke="midnightblue" d="M809.55,-251.43C677.9,-246.42 411.58,-232.62 188.57,-198 185.85,-197.58 183.08,-197.11 180.29,-196.62"/>
<polygon fill="midnightblue" stroke="midnightblue" points="809.44,-254.93 819.56,-251.8 809.7,-247.93 809.44,-254.93"/>
</g>
<!-- Node5 -->
<g id="node5" class="node">
<title>Node5</title>
<g id="a_node5"><a xlink:href="../../df/d65/msvc_2include_2xercesc_2dom_2impl_2DOMDocumentFragmentImpl_8hpp.html" target="_top" xlink:title=" ">
<polygon fill="white" stroke="black" points="198.07,-156.5 198.07,-197.5 381.07,-197.5 381.07,-156.5 198.07,-156.5"/>
<text text-anchor="start" x="206.07" y="-185.5" font-family="Helvetica,sans-Serif" font-size="10.00">src/libs/xerces&#45;c/msvc</text>
<text text-anchor="start" x="206.07" y="-174.5" font-family="Helvetica,sans-Serif" font-size="10.00">/include/xercesc/dom/impl</text>
<text text-anchor="middle" x="289.57" y="-163.5" font-family="Helvetica,sans-Serif" font-size="10.00">/DOMDocumentFragmentImpl.hpp</text>
</a>
</g>
</g>
<!-- Node1&#45;&gt;Node5 -->
<g id="edge4" class="edge">
<title>Node1&#45;&gt;Node5</title>
<path fill="none" stroke="midnightblue" d="M809.4,-247.03C709.75,-238.07 536.81,-220.89 389.57,-198 386.86,-197.58 384.11,-197.13 381.34,-196.67"/>
<polygon fill="midnightblue" stroke="midnightblue" points="809.14,-250.52 819.41,-247.92 809.76,-243.55 809.14,-250.52"/>
</g>
<!-- Node6 -->
<g id="node6" class="node">
<title>Node6</title>
<g id="a_node6"><a xlink:href="../../de/de5/msvc_2include_2xercesc_2dom_2impl_2DOMDocumentTypeImpl_8hpp.html" target="_top" xlink:title=" ">
<polygon fill="white" stroke="black" points="399.07,-156.5 399.07,-197.5 558.07,-197.5 558.07,-156.5 399.07,-156.5"/>
<text text-anchor="start" x="407.07" y="-185.5" font-family="Helvetica,sans-Serif" font-size="10.00">src/libs/xerces&#45;c/msvc</text>
<text text-anchor="start" x="407.07" y="-174.5" font-family="Helvetica,sans-Serif" font-size="10.00">/include/xercesc/dom/impl</text>
<text text-anchor="middle" x="478.57" y="-163.5" font-family="Helvetica,sans-Serif" font-size="10.00">/DOMDocumentTypeImpl.hpp</text>
</a>
</g>
</g>
<!-- Node1&#45;&gt;Node6 -->
<g id="edge5" class="edge">
<title>Node1&#45;&gt;Node6</title>
<path fill="none" stroke="midnightblue" d="M809.45,-240.97C743.83,-230.27 649.59,-214.29 567.57,-198 564.47,-197.38 561.3,-196.74 558.11,-196.08"/>
<polygon fill="midnightblue" stroke="midnightblue" points="808.89,-244.42 819.32,-242.57 810.01,-237.51 808.89,-244.42"/>
</g>
<!-- Node7 -->
<g id="node7" class="node">
<title>Node7</title>
<g id="a_node7"><a xlink:href="../../d2/d5e/msvc_2include_2xercesc_2dom_2impl_2DOMDocumentImpl_8hpp.html" target="_top" xlink:title=" ">
<polygon fill="white" stroke="black" points="576.57,-156.5 576.57,-197.5 720.57,-197.5 720.57,-156.5 576.57,-156.5"/>
<text text-anchor="start" x="584.57" y="-185.5" font-family="Helvetica,sans-Serif" font-size="10.00">src/libs/xerces&#45;c/msvc</text>
<text text-anchor="start" x="584.57" y="-174.5" font-family="Helvetica,sans-Serif" font-size="10.00">/include/xercesc/dom/impl</text>
<text text-anchor="middle" x="648.57" y="-163.5" font-family="Helvetica,sans-Serif" font-size="10.00">/DOMDocumentImpl.hpp</text>
</a>
</g>
</g>
<!-- Node1&#45;&gt;Node7 -->
<g id="edge6" class="edge">
<title>Node1&#45;&gt;Node7</title>
<path fill="none" stroke="midnightblue" d="M819.45,-231.44C784.96,-220.66 744.07,-207.87 710.94,-197.51"/>
<polygon fill="midnightblue" stroke="midnightblue" points="818.41,-234.78 829,-234.43 820.5,-228.1 818.41,-234.78"/>
</g>
<!-- Node8 -->
<g id="node8" class="node">
<title>Node8</title>
<g id="a_node8"><a xlink:href="../../d4/dff/msvc_2include_2xercesc_2dom_2impl_2DOMElementImpl_8hpp.html" target="_top" xlink:title=" ">
<polygon fill="white" stroke="black" points="738.57,-156.5 738.57,-197.5 882.57,-197.5 882.57,-156.5 738.57,-156.5"/>
<text text-anchor="start" x="746.57" y="-185.5" font-family="Helvetica,sans-Serif" font-size="10.00">src/libs/xerces&#45;c/msvc</text>
<text text-anchor="start" x="746.57" y="-174.5" font-family="Helvetica,sans-Serif" font-size="10.00">/include/xercesc/dom/impl</text>
<text text-anchor="middle" x="810.57" y="-163.5" font-family="Helvetica,sans-Serif" font-size="10.00">/DOMElementImpl.hpp</text>
</a>
</g>
</g>
<!-- Node1&#45;&gt;Node8 -->
<g id="edge8" class="edge">
<title>Node1&#45;&gt;Node8</title>
<path fill="none" stroke="midnightblue" d="M863.32,-227.49C852.81,-217.63 841.09,-206.63 831.36,-197.51"/>
<polygon fill="midnightblue" stroke="midnightblue" points="861.03,-230.14 870.71,-234.43 865.82,-225.03 861.03,-230.14"/>
</g>
<!-- Node12 -->
<g id="node12" class="node">
<title>Node12</title>
<g id="a_node12"><a xlink:href="../../dc/d29/msvc_2include_2xercesc_2dom_2impl_2DOMEntityImpl_8hpp.html" target="_top" xlink:title=" ">
<polygon fill="white" stroke="black" points="900.57,-156.5 900.57,-197.5 1044.57,-197.5 1044.57,-156.5 900.57,-156.5"/>
<text text-anchor="start" x="908.57" y="-185.5" font-family="Helvetica,sans-Serif" font-size="10.00">src/libs/xerces&#45;c/msvc</text>
<text text-anchor="start" x="908.57" y="-174.5" font-family="Helvetica,sans-Serif" font-size="10.00">/include/xercesc/dom/impl</text>
<text text-anchor="middle" x="972.57" y="-163.5" font-family="Helvetica,sans-Serif" font-size="10.00">/DOMEntityImpl.hpp</text>
</a>
</g>
</g>
<!-- Node1&#45;&gt;Node12 -->
<g id="edge12" class="edge">
<title>Node1&#45;&gt;Node12</title>
<path fill="none" stroke="midnightblue" d="M919.83,-227.49C930.34,-217.63 942.06,-206.63 951.79,-197.51"/>
<polygon fill="midnightblue" stroke="midnightblue" points="917.33,-225.03 912.43,-234.43 922.12,-230.14 917.33,-225.03"/>
</g>
<!-- Node13 -->
<g id="node13" class="node">
<title>Node13</title>
<g id="a_node13"><a xlink:href="../../dc/dba/msvc_2include_2xercesc_2dom_2impl_2DOMEntityReferenceImpl_8hpp.html" target="_top" xlink:title=" ">
<polygon fill="white" stroke="black" points="1062.57,-156.5 1062.57,-197.5 1226.57,-197.5 1226.57,-156.5 1062.57,-156.5"/>
<text text-anchor="start" x="1070.57" y="-185.5" font-family="Helvetica,sans-Serif" font-size="10.00">src/libs/xerces&#45;c/msvc</text>
<text text-anchor="start" x="1070.57" y="-174.5" font-family="Helvetica,sans-Serif" font-size="10.00">/include/xercesc/dom/impl</text>
<text text-anchor="middle" x="1144.57" y="-163.5" font-family="Helvetica,sans-Serif" font-size="10.00">/DOMEntityReferenceImpl.hpp</text>
</a>
</g>
</g>
<!-- Node1&#45;&gt;Node13 -->
<g id="edge13" class="edge">
<title>Node1&#45;&gt;Node13</title>
<path fill="none" stroke="midnightblue" d="M966.67,-231.44C1002.58,-220.66 1045.15,-207.87 1079.64,-197.51"/>
<polygon fill="midnightblue" stroke="midnightblue" points="965.3,-228.2 956.73,-234.43 967.31,-234.9 965.3,-228.2"/>
</g>
<!-- Node14 -->
<g id="node14" class="node">
<title>Node14</title>
<g id="a_node14"><a xlink:href="../../dc/d7d/msvc_2include_2xercesc_2dom_2impl_2DOMCommentImpl_8hpp.html" target="_top" xlink:title=" ">
<polygon fill="white" stroke="black" points="1244.57,-156.5 1244.57,-197.5 1388.57,-197.5 1388.57,-156.5 1244.57,-156.5"/>
<text text-anchor="start" x="1252.57" y="-185.5" font-family="Helvetica,sans-Serif" font-size="10.00">src/libs/xerces&#45;c/msvc</text>
<text text-anchor="start" x="1252.57" y="-174.5" font-family="Helvetica,sans-Serif" font-size="10.00">/include/xercesc/dom/impl</text>
<text text-anchor="middle" x="1316.57" y="-163.5" font-family="Helvetica,sans-Serif" font-size="10.00">/DOMCommentImpl.hpp</text>
</a>
</g>
</g>
<!-- Node1&#45;&gt;Node14 -->
<g id="edge14" class="edge">
<title>Node1&#45;&gt;Node14</title>
<path fill="none" stroke="midnightblue" d="M973.77,-242.52C1043.67,-232.31 1146.58,-216.2 1235.57,-198 1238.41,-197.42 1241.3,-196.81 1244.22,-196.17"/>
<polygon fill="midnightblue" stroke="midnightblue" points="973.09,-239.09 963.7,-243.99 974.1,-246.01 973.09,-239.09"/>
</g>
<!-- Node15 -->
<g id="node15" class="node">
<title>Node15</title>
<g id="a_node15"><a xlink:href="../../d1/d32/msvc_2include_2xercesc_2dom_2impl_2DOMNotationImpl_8hpp.html" target="_top" xlink:title=" ">
<polygon fill="white" stroke="black" points="1406.57,-156.5 1406.57,-197.5 1550.57,-197.5 1550.57,-156.5 1406.57,-156.5"/>
<text text-anchor="start" x="1414.57" y="-185.5" font-family="Helvetica,sans-Serif" font-size="10.00">src/libs/xerces&#45;c/msvc</text>
<text text-anchor="start" x="1414.57" y="-174.5" font-family="Helvetica,sans-Serif" font-size="10.00">/include/xercesc/dom/impl</text>
<text text-anchor="middle" x="1478.57" y="-163.5" font-family="Helvetica,sans-Serif" font-size="10.00">/DOMNotationImpl.hpp</text>
</a>
</g>
</g>
<!-- Node1&#45;&gt;Node15 -->
<g id="edge15" class="edge">
<title>Node1&#45;&gt;Node15</title>
<path fill="none" stroke="midnightblue" d="M973.73,-248.26C1074.23,-240.46 1249.3,-224.39 1397.57,-198 1400.43,-197.49 1403.33,-196.94 1406.25,-196.36"/>
<polygon fill="midnightblue" stroke="midnightblue" points="973.35,-244.77 963.65,-249.03 973.88,-251.75 973.35,-244.77"/>
</g>
<!-- Node16 -->
<g id="node16" class="node">
<title>Node16</title>
<g id="a_node16"><a xlink:href="../../dc/d12/msvc_2include_2xercesc_2dom_2impl_2DOMProcessingInstructionImpl_8hpp.html" target="_top" xlink:title=" ">
<polygon fill="white" stroke="black" points="1569.07,-156.5 1569.07,-197.5 1760.07,-197.5 1760.07,-156.5 1569.07,-156.5"/>
<text text-anchor="start" x="1577.07" y="-185.5" font-family="Helvetica,sans-Serif" font-size="10.00">src/libs/xerces&#45;c/msvc</text>
<text text-anchor="start" x="1577.07" y="-174.5" font-family="Helvetica,sans-Serif" font-size="10.00">/include/xercesc/dom/impl</text>
<text text-anchor="middle" x="1664.57" y="-163.5" font-family="Helvetica,sans-Serif" font-size="10.00">/DOMProcessingInstructionImpl.hpp</text>
</a>
</g>
</g>
<!-- Node1&#45;&gt;Node16 -->
<g id="edge16" class="edge">
<title>Node1&#45;&gt;Node16</title>
<path fill="none" stroke="midnightblue" d="M974,-249.87C1100.43,-242.91 1349.64,-226.71 1559.57,-198 1562.61,-197.59 1565.69,-197.14 1568.79,-196.67"/>
<polygon fill="midnightblue" stroke="midnightblue" points="973.8,-246.38 964.01,-250.42 974.18,-253.37 973.8,-246.38"/>
</g>
<!-- Node17 -->
<g id="node17" class="node">
<title>Node17</title>
<g id="a_node17"><a xlink:href="../../df/de1/msvc_2include_2xercesc_2dom_2impl_2DOMTextImpl_8hpp.html" target="_top" xlink:title=" ">
<polygon fill="white" stroke="black" points="1778.57,-156.5 1778.57,-197.5 1922.57,-197.5 1922.57,-156.5 1778.57,-156.5"/>
<text text-anchor="start" x="1786.57" y="-185.5" font-family="Helvetica,sans-Serif" font-size="10.00">src/libs/xerces&#45;c/msvc</text>
<text text-anchor="start" x="1786.57" y="-174.5" font-family="Helvetica,sans-Serif" font-size="10.00">/include/xercesc/dom/impl</text>
<text text-anchor="middle" x="1850.57" y="-163.5" font-family="Helvetica,sans-Serif" font-size="10.00">/DOMTextImpl.hpp</text>
</a>
</g>
</g>
<!-- Node1&#45;&gt;Node17 -->
<g id="edge17" class="edge">
<title>Node1&#45;&gt;Node17</title>
<path fill="none" stroke="midnightblue" d="M974.21,-253.63C1130.46,-251.84 1479.6,-242.68 1769.57,-198 1772.44,-197.56 1775.35,-197.06 1778.28,-196.53"/>
<polygon fill="midnightblue" stroke="midnightblue" points="973.71,-250.13 963.74,-253.74 973.78,-257.13 973.71,-250.13"/>
</g>
<!-- Node3 -->
<g id="node3" class="node">
<title>Node3</title>
<g id="a_node3"><a xlink:href="../../de/d6a/msvc_2include_2xercesc_2dom_2impl_2DOMAttrNSImpl_8hpp.html" target="_top" xlink:title=" ">
<polygon fill="white" stroke="black" points="250.57,-0.5 250.57,-41.5 394.57,-41.5 394.57,-0.5 250.57,-0.5"/>
<text text-anchor="start" x="258.57" y="-29.5" font-family="Helvetica,sans-Serif" font-size="10.00">src/libs/xerces&#45;c/msvc</text>
<text text-anchor="start" x="258.57" y="-18.5" font-family="Helvetica,sans-Serif" font-size="10.00">/include/xercesc/dom/impl</text>
<text text-anchor="middle" x="322.57" y="-7.5" font-family="Helvetica,sans-Serif" font-size="10.00">/DOMAttrNSImpl.hpp</text>
</a>
</g>
</g>
<!-- Node2&#45;&gt;Node3 -->
<g id="edge2" class="edge">
<title>Node2&#45;&gt;Node3</title>
<path fill="none" stroke="midnightblue" d="M322.57,-68.3C322.57,-59.3 322.57,-49.65 322.57,-41.51"/>
<polygon fill="midnightblue" stroke="midnightblue" points="319.07,-68.43 322.57,-78.43 326.07,-68.43 319.07,-68.43"/>
</g>
<!-- Node7&#45;&gt;Node2 -->
<g id="edge7" class="edge">
<title>Node7&#45;&gt;Node2</title>
<path fill="none" stroke="midnightblue" d="M566.31,-155.95C502.48,-140.88 440.93,-126.78 394.7,-116.28"/>
<polygon fill="midnightblue" stroke="midnightblue" points="565.61,-159.38 576.15,-158.28 567.22,-152.57 565.61,-159.38"/>
</g>
<!-- Node9 -->
<g id="node9" class="node">
<title>Node9</title>
<g id="a_node9"><a xlink:href="../../dd/d8d/msvc_2include_2xercesc_2dom_2impl_2DOMCasts_8hpp.html" target="_top" xlink:title=" ">
<polygon fill="white" stroke="black" points="1339.57,-78.5 1339.57,-119.5 1483.57,-119.5 1483.57,-78.5 1339.57,-78.5"/>
<text text-anchor="start" x="1347.57" y="-107.5" font-family="Helvetica,sans-Serif" font-size="10.00">src/libs/xerces&#45;c/msvc</text>
<text text-anchor="start" x="1347.57" y="-96.5" font-family="Helvetica,sans-Serif" font-size="10.00">/include/xercesc/dom/impl</text>
<text text-anchor="middle" x="1411.57" y="-85.5" font-family="Helvetica,sans-Serif" font-size="10.00">/DOMCasts.hpp</text>
</a>
</g>
</g>
<!-- Node8&#45;&gt;Node9 -->
<g id="edge9" class="edge">
<title>Node8&#45;&gt;Node9</title>
<path fill="none" stroke="midnightblue" d="M893.21,-155.83C1057.75,-127.37 1240.44,-111.8 1339.22,-104.7"/>
<polygon fill="midnightblue" stroke="midnightblue" points="892.14,-152.46 882.89,-157.63 893.35,-159.35 892.14,-152.46"/>
</g>
<!-- Node10 -->
<g id="node10" class="node">
<title>Node10</title>
<g id="a_node10"><a xlink:href="../../d4/da4/msvc_2include_2xercesc_2dom_2impl_2DOMElementNSImpl_8hpp.html" target="_top" xlink:title=" ">
<polygon fill="white" stroke="black" points="738.57,-78.5 738.57,-119.5 882.57,-119.5 882.57,-78.5 738.57,-78.5"/>
<text text-anchor="start" x="746.57" y="-107.5" font-family="Helvetica,sans-Serif" font-size="10.00">src/libs/xerces&#45;c/msvc</text>
<text text-anchor="start" x="746.57" y="-96.5" font-family="Helvetica,sans-Serif" font-size="10.00">/include/xercesc/dom/impl</text>
<text text-anchor="middle" x="810.57" y="-85.5" font-family="Helvetica,sans-Serif" font-size="10.00">/DOMElementNSImpl.hpp</text>
</a>
</g>
</g>
<!-- Node8&#45;&gt;Node10 -->
<g id="edge10" class="edge">
<title>Node8&#45;&gt;Node10</title>
<path fill="none" stroke="midnightblue" d="M810.57,-146.3C810.57,-137.3 810.57,-127.65 810.57,-119.51"/>
<polygon fill="midnightblue" stroke="midnightblue" points="807.07,-146.43 810.57,-156.43 814.07,-146.43 807.07,-146.43"/>
</g>
<!-- Node11 -->
<g id="node11" class="node">
<title>Node11</title>
<g id="a_node11"><a xlink:href="../../db/d0c/msvc_2include_2xercesc_2dom_2impl_2XSDElementNSImpl_8hpp.html" target="_top" xlink:title=" ">
<polygon fill="white" stroke="black" points="738.57,-0.5 738.57,-41.5 882.57,-41.5 882.57,-0.5 738.57,-0.5"/>
<text text-anchor="start" x="746.57" y="-29.5" font-family="Helvetica,sans-Serif" font-size="10.00">src/libs/xerces&#45;c/msvc</text>
<text text-anchor="start" x="746.57" y="-18.5" font-family="Helvetica,sans-Serif" font-size="10.00">/include/xercesc/dom/impl</text>
<text text-anchor="middle" x="810.57" y="-7.5" font-family="Helvetica,sans-Serif" font-size="10.00">/XSDElementNSImpl.hpp</text>
</a>
</g>
</g>
<!-- Node10&#45;&gt;Node11 -->
<g id="edge11" class="edge">
<title>Node10&#45;&gt;Node11</title>
<path fill="none" stroke="midnightblue" d="M810.57,-68.3C810.57,-59.3 810.57,-49.65 810.57,-41.51"/>
<polygon fill="midnightblue" stroke="midnightblue" points="807.07,-68.43 810.57,-78.43 814.07,-68.43 807.07,-68.43"/>
</g>
<!-- Node17&#45;&gt;Node9 -->
<g id="edge18" class="edge">
<title>Node17&#45;&gt;Node9</title>
<path fill="none" stroke="midnightblue" d="M1768.17,-155.79C1664.08,-135.15 1554.18,-119.03 1483.9,-109.43"/>
<polygon fill="midnightblue" stroke="midnightblue" points="1767.73,-159.27 1778.22,-157.8 1769.1,-152.41 1767.73,-159.27"/>
</g>
</g>
</svg>
