<?xml version="1.0" encoding="UTF-8" standalone="no"?>
<!DOCTYPE svg PUBLIC "-//W3C//DTD SVG 1.1//EN"
 "http://www.w3.org/Graphics/SVG/1.1/DTD/svg11.dtd">
<!-- Generated by graphviz version 2.43.0 (0)
 -->
<!-- Title: src/libs/xerces&#45;c/msvc/include/xercesc/dom/impl/DOMNodeImpl.hpp Pages: 1 -->
<svg width="1945pt" height="284pt"
 viewBox="0.00 0.00 1944.50 284.00" xmlns="http://www.w3.org/2000/svg" xmlns:xlink="http://www.w3.org/1999/xlink">
<g id="graph0" class="graph" transform="scale(1 1) rotate(0) translate(4 280)">
<title>src/libs/xerces&#45;c/msvc/include/xercesc/dom/impl/DOMNodeImpl.hpp</title>
<polygon fill="white" stroke="transparent" points="-4,4 -4,-280 1940.5,-280 1940.5,4 -4,4"/>
<!-- Node1 -->
<g id="node1" class="node">
<title>Node1</title>
<g id="a_node1"><a xlink:title=" ">
<polygon fill="#bfbfbf" stroke="black" points="864.5,-234.5 864.5,-275.5 1008.5,-275.5 1008.5,-234.5 864.5,-234.5"/>
<text text-anchor="start" x="872.5" y="-263.5" font-family="Helvetica,sans-Serif" font-size="10.00">src/libs/xerces&#45;c/msvc</text>
<text text-anchor="start" x="872.5" y="-252.5" font-family="Helvetica,sans-Serif" font-size="10.00">/include/xercesc/dom/impl</text>
<text text-anchor="middle" x="936.5" y="-241.5" font-family="Helvetica,sans-Serif" font-size="10.00">/DOMNodeImpl.hpp</text>
</a>
</g>
</g>
<!-- Node2 -->
<g id="node2" class="node">
<title>Node2</title>
<g id="a_node2"><a xlink:href="../../d3/d3c/msvc_2include_2xercesc_2dom_2impl_2DOMCDATASectionImpl_8hpp.html" target="_top" xlink:title=" ">
<polygon fill="white" stroke="black" points="0,-156.5 0,-197.5 155,-197.5 155,-156.5 0,-156.5"/>
<text text-anchor="start" x="8" y="-185.5" font-family="Helvetica,sans-Serif" font-size="10.00">src/libs/xerces&#45;c/msvc</text>
<text text-anchor="start" x="8" y="-174.5" font-family="Helvetica,sans-Serif" font-size="10.00">/include/xercesc/dom/impl</text>
<text text-anchor="middle" x="77.5" y="-163.5" font-family="Helvetica,sans-Serif" font-size="10.00">/DOMCDATASectionImpl.hpp</text>
</a>
</g>
</g>
<!-- Node1&#45;&gt;Node2 -->
<g id="edge1" class="edge">
<title>Node1&#45;&gt;Node2</title>
<path fill="none" stroke="midnightblue" d="M853.91,-252.16C712.15,-248.09 413.74,-235.46 164.5,-198 161.43,-197.54 158.32,-197.03 155.18,-196.48"/>
<polygon fill="midnightblue" stroke="midnightblue" points="854.16,-255.67 864.25,-252.46 854.35,-248.68 854.16,-255.67"/>
</g>
<!-- Node3 -->
<g id="node3" class="node">
<title>Node3</title>
<g id="a_node3"><a xlink:href="../../de/d08/msvc_2include_2xercesc_2dom_2impl_2DOMAttrImpl_8hpp.html" target="_top" xlink:title=" ">
<polygon fill="white" stroke="black" points="494.5,-78.5 494.5,-119.5 638.5,-119.5 638.5,-78.5 494.5,-78.5"/>
<text text-anchor="start" x="502.5" y="-107.5" font-family="Helvetica,sans-Serif" font-size="10.00">src/libs/xerces&#45;c/msvc</text>
<text text-anchor="start" x="502.5" y="-96.5" font-family="Helvetica,sans-Serif" font-size="10.00">/include/xercesc/dom/impl</text>
<text text-anchor="middle" x="566.5" y="-85.5" font-family="Helvetica,sans-Serif" font-size="10.00">/DOMAttrImpl.hpp</text>
</a>
</g>
</g>
<!-- Node1&#45;&gt;Node3 -->
<g id="edge2" class="edge">
<title>Node1&#45;&gt;Node3</title>
<path fill="none" stroke="midnightblue" d="M919.53,-225.54C903.66,-199.88 880.38,-164.85 866.5,-156 829.53,-132.43 714.98,-115.93 638.61,-107.21"/>
<polygon fill="midnightblue" stroke="midnightblue" points="916.61,-227.46 924.81,-234.17 922.58,-223.81 916.61,-227.46"/>
</g>
<!-- Node5 -->
<g id="node5" class="node">
<title>Node5</title>
<g id="a_node5"><a xlink:href="../../dc/d7d/msvc_2include_2xercesc_2dom_2impl_2DOMCommentImpl_8hpp.html" target="_top" xlink:title=" ">
<polygon fill="white" stroke="black" points="335.5,-156.5 335.5,-197.5 479.5,-197.5 479.5,-156.5 335.5,-156.5"/>
<text text-anchor="start" x="343.5" y="-185.5" font-family="Helvetica,sans-Serif" font-size="10.00">src/libs/xerces&#45;c/msvc</text>
<text text-anchor="start" x="343.5" y="-174.5" font-family="Helvetica,sans-Serif" font-size="10.00">/include/xercesc/dom/impl</text>
<text text-anchor="middle" x="407.5" y="-163.5" font-family="Helvetica,sans-Serif" font-size="10.00">/DOMCommentImpl.hpp</text>
</a>
</g>
</g>
<!-- Node1&#45;&gt;Node5 -->
<g id="edge4" class="edge">
<title>Node1&#45;&gt;Node5</title>
<path fill="none" stroke="midnightblue" d="M854.16,-246.64C763.96,-237.9 615.22,-221.48 488.5,-198 485.65,-197.47 482.75,-196.9 479.83,-196.31"/>
<polygon fill="midnightblue" stroke="midnightblue" points="854.04,-250.15 864.33,-247.62 854.71,-243.18 854.04,-250.15"/>
</g>
<!-- Node6 -->
<g id="node6" class="node">
<title>Node6</title>
<g id="a_node6"><a xlink:href="../../de/de5/msvc_2include_2xercesc_2dom_2impl_2DOMDocumentTypeImpl_8hpp.html" target="_top" xlink:title=" ">
<polygon fill="white" stroke="black" points="498,-156.5 498,-197.5 657,-197.5 657,-156.5 498,-156.5"/>
<text text-anchor="start" x="506" y="-185.5" font-family="Helvetica,sans-Serif" font-size="10.00">src/libs/xerces&#45;c/msvc</text>
<text text-anchor="start" x="506" y="-174.5" font-family="Helvetica,sans-Serif" font-size="10.00">/include/xercesc/dom/impl</text>
<text text-anchor="middle" x="577.5" y="-163.5" font-family="Helvetica,sans-Serif" font-size="10.00">/DOMDocumentTypeImpl.hpp</text>
</a>
</g>
</g>
<!-- Node1&#45;&gt;Node6 -->
<g id="edge5" class="edge">
<title>Node1&#45;&gt;Node6</title>
<path fill="none" stroke="midnightblue" d="M854.41,-237.48C800.63,-226.54 728.82,-211.74 665.5,-198 662.74,-197.4 659.94,-196.79 657.11,-196.17"/>
<polygon fill="midnightblue" stroke="midnightblue" points="853.74,-240.91 864.24,-239.47 855.14,-234.05 853.74,-240.91"/>
</g>
<!-- Node7 -->
<g id="node7" class="node">
<title>Node7</title>
<g id="a_node7"><a xlink:href="../../df/d65/msvc_2include_2xercesc_2dom_2impl_2DOMDocumentFragmentImpl_8hpp.html" target="_top" xlink:title=" ">
<polygon fill="white" stroke="black" points="675,-156.5 675,-197.5 858,-197.5 858,-156.5 675,-156.5"/>
<text text-anchor="start" x="683" y="-185.5" font-family="Helvetica,sans-Serif" font-size="10.00">src/libs/xerces&#45;c/msvc</text>
<text text-anchor="start" x="683" y="-174.5" font-family="Helvetica,sans-Serif" font-size="10.00">/include/xercesc/dom/impl</text>
<text text-anchor="middle" x="766.5" y="-163.5" font-family="Helvetica,sans-Serif" font-size="10.00">/DOMDocumentFragmentImpl.hpp</text>
</a>
</g>
</g>
<!-- Node1&#45;&gt;Node7 -->
<g id="edge6" class="edge">
<title>Node1&#45;&gt;Node7</title>
<path fill="none" stroke="midnightblue" d="M883.55,-230.33C859.96,-219.78 832.52,-207.51 810.13,-197.51"/>
<polygon fill="midnightblue" stroke="midnightblue" points="882.16,-233.54 892.72,-234.43 885.02,-227.15 882.16,-233.54"/>
</g>
<!-- Node8 -->
<g id="node8" class="node">
<title>Node8</title>
<g id="a_node8"><a xlink:href="../../d4/dff/msvc_2include_2xercesc_2dom_2impl_2DOMElementImpl_8hpp.html" target="_top" xlink:title=" ">
<polygon fill="white" stroke="black" points="1258.5,-156.5 1258.5,-197.5 1402.5,-197.5 1402.5,-156.5 1258.5,-156.5"/>
<text text-anchor="start" x="1266.5" y="-185.5" font-family="Helvetica,sans-Serif" font-size="10.00">src/libs/xerces&#45;c/msvc</text>
<text text-anchor="start" x="1266.5" y="-174.5" font-family="Helvetica,sans-Serif" font-size="10.00">/include/xercesc/dom/impl</text>
<text text-anchor="middle" x="1330.5" y="-163.5" font-family="Helvetica,sans-Serif" font-size="10.00">/DOMElementImpl.hpp</text>
</a>
</g>
</g>
<!-- Node1&#45;&gt;Node8 -->
<g id="edge7" class="edge">
<title>Node1&#45;&gt;Node8</title>
<path fill="none" stroke="midnightblue" d="M1018.48,-240.83C1081.79,-230.3 1171.47,-214.6 1249.5,-198 1252.33,-197.4 1255.22,-196.77 1258.13,-196.12"/>
<polygon fill="midnightblue" stroke="midnightblue" points="1017.84,-237.39 1008.55,-242.48 1018.99,-244.3 1017.84,-237.39"/>
</g>
<!-- Node12 -->
<g id="node12" class="node">
<title>Node12</title>
<g id="a_node12"><a xlink:href="../../dc/d29/msvc_2include_2xercesc_2dom_2impl_2DOMEntityImpl_8hpp.html" target="_top" xlink:title=" ">
<polygon fill="white" stroke="black" points="914.5,-156.5 914.5,-197.5 1058.5,-197.5 1058.5,-156.5 914.5,-156.5"/>
<text text-anchor="start" x="922.5" y="-185.5" font-family="Helvetica,sans-Serif" font-size="10.00">src/libs/xerces&#45;c/msvc</text>
<text text-anchor="start" x="922.5" y="-174.5" font-family="Helvetica,sans-Serif" font-size="10.00">/include/xercesc/dom/impl</text>
<text text-anchor="middle" x="986.5" y="-163.5" font-family="Helvetica,sans-Serif" font-size="10.00">/DOMEntityImpl.hpp</text>
</a>
</g>
</g>
<!-- Node1&#45;&gt;Node12 -->
<g id="edge11" class="edge">
<title>Node1&#45;&gt;Node12</title>
<path fill="none" stroke="midnightblue" d="M954.89,-226.05C961.13,-216.57 967.96,-206.18 973.67,-197.51"/>
<polygon fill="midnightblue" stroke="midnightblue" points="951.95,-224.15 949.38,-234.43 957.8,-228 951.95,-224.15"/>
</g>
<!-- Node13 -->
<g id="node13" class="node">
<title>Node13</title>
<g id="a_node13"><a xlink:href="../../dc/dba/msvc_2include_2xercesc_2dom_2impl_2DOMEntityReferenceImpl_8hpp.html" target="_top" xlink:title=" ">
<polygon fill="white" stroke="black" points="1076.5,-156.5 1076.5,-197.5 1240.5,-197.5 1240.5,-156.5 1076.5,-156.5"/>
<text text-anchor="start" x="1084.5" y="-185.5" font-family="Helvetica,sans-Serif" font-size="10.00">src/libs/xerces&#45;c/msvc</text>
<text text-anchor="start" x="1084.5" y="-174.5" font-family="Helvetica,sans-Serif" font-size="10.00">/include/xercesc/dom/impl</text>
<text text-anchor="middle" x="1158.5" y="-163.5" font-family="Helvetica,sans-Serif" font-size="10.00">/DOMEntityReferenceImpl.hpp</text>
</a>
</g>
</g>
<!-- Node1&#45;&gt;Node13 -->
<g id="edge12" class="edge">
<title>Node1&#45;&gt;Node13</title>
<path fill="none" stroke="midnightblue" d="M1003.2,-231.17C1034.54,-220.44 1071.52,-207.78 1101.52,-197.51"/>
<polygon fill="midnightblue" stroke="midnightblue" points="1002,-227.88 993.67,-234.43 1004.27,-234.5 1002,-227.88"/>
</g>
<!-- Node14 -->
<g id="node14" class="node">
<title>Node14</title>
<g id="a_node14"><a xlink:href="../../d2/d5e/msvc_2include_2xercesc_2dom_2impl_2DOMDocumentImpl_8hpp.html" target="_top" xlink:title=" ">
<polygon fill="white" stroke="black" points="173.5,-156.5 173.5,-197.5 317.5,-197.5 317.5,-156.5 173.5,-156.5"/>
<text text-anchor="start" x="181.5" y="-185.5" font-family="Helvetica,sans-Serif" font-size="10.00">src/libs/xerces&#45;c/msvc</text>
<text text-anchor="start" x="181.5" y="-174.5" font-family="Helvetica,sans-Serif" font-size="10.00">/include/xercesc/dom/impl</text>
<text text-anchor="middle" x="245.5" y="-163.5" font-family="Helvetica,sans-Serif" font-size="10.00">/DOMDocumentImpl.hpp</text>
</a>
</g>
</g>
<!-- Node1&#45;&gt;Node14 -->
<g id="edge13" class="edge">
<title>Node1&#45;&gt;Node14</title>
<path fill="none" stroke="midnightblue" d="M854.19,-250.38C736.53,-244.32 513.74,-229.53 326.5,-198 323.64,-197.52 320.74,-196.99 317.81,-196.43"/>
<polygon fill="midnightblue" stroke="midnightblue" points="854.05,-253.88 864.21,-250.89 854.4,-246.89 854.05,-253.88"/>
</g>
<!-- Node15 -->
<g id="node15" class="node">
<title>Node15</title>
<g id="a_node15"><a xlink:href="../../dc/d12/msvc_2include_2xercesc_2dom_2impl_2DOMProcessingInstructionImpl_8hpp.html" target="_top" xlink:title=" ">
<polygon fill="white" stroke="black" points="1421,-156.5 1421,-197.5 1612,-197.5 1612,-156.5 1421,-156.5"/>
<text text-anchor="start" x="1429" y="-185.5" font-family="Helvetica,sans-Serif" font-size="10.00">src/libs/xerces&#45;c/msvc</text>
<text text-anchor="start" x="1429" y="-174.5" font-family="Helvetica,sans-Serif" font-size="10.00">/include/xercesc/dom/impl</text>
<text text-anchor="middle" x="1516.5" y="-163.5" font-family="Helvetica,sans-Serif" font-size="10.00">/DOMProcessingInstructionImpl.hpp</text>
</a>
</g>
</g>
<!-- Node1&#45;&gt;Node15 -->
<g id="edge15" class="edge">
<title>Node1&#45;&gt;Node15</title>
<path fill="none" stroke="midnightblue" d="M1018.85,-246.08C1113.76,-236.54 1274.31,-219.12 1411.5,-198 1414.62,-197.52 1417.78,-197.02 1420.98,-196.49"/>
<polygon fill="midnightblue" stroke="midnightblue" points="1018.34,-242.61 1008.74,-247.09 1019.04,-249.58 1018.34,-242.61"/>
</g>
<!-- Node16 -->
<g id="node16" class="node">
<title>Node16</title>
<g id="a_node16"><a xlink:href="../../df/de1/msvc_2include_2xercesc_2dom_2impl_2DOMTextImpl_8hpp.html" target="_top" xlink:title=" ">
<polygon fill="white" stroke="black" points="1630.5,-156.5 1630.5,-197.5 1774.5,-197.5 1774.5,-156.5 1630.5,-156.5"/>
<text text-anchor="start" x="1638.5" y="-185.5" font-family="Helvetica,sans-Serif" font-size="10.00">src/libs/xerces&#45;c/msvc</text>
<text text-anchor="start" x="1638.5" y="-174.5" font-family="Helvetica,sans-Serif" font-size="10.00">/include/xercesc/dom/impl</text>
<text text-anchor="middle" x="1702.5" y="-163.5" font-family="Helvetica,sans-Serif" font-size="10.00">/DOMTextImpl.hpp</text>
</a>
</g>
</g>
<!-- Node1&#45;&gt;Node16 -->
<g id="edge16" class="edge">
<title>Node1&#45;&gt;Node16</title>
<path fill="none" stroke="midnightblue" d="M1019.17,-251.52C1148.44,-246.69 1405.95,-233.19 1621.5,-198 1624.36,-197.53 1627.27,-197.02 1630.2,-196.46"/>
<polygon fill="midnightblue" stroke="midnightblue" points="1018.82,-248.03 1008.96,-251.9 1019.08,-255.03 1018.82,-248.03"/>
</g>
<!-- Node17 -->
<g id="node17" class="node">
<title>Node17</title>
<g id="a_node17"><a xlink:href="../../d1/d32/msvc_2include_2xercesc_2dom_2impl_2DOMNotationImpl_8hpp.html" target="_top" xlink:title=" ">
<polygon fill="white" stroke="black" points="1792.5,-156.5 1792.5,-197.5 1936.5,-197.5 1936.5,-156.5 1792.5,-156.5"/>
<text text-anchor="start" x="1800.5" y="-185.5" font-family="Helvetica,sans-Serif" font-size="10.00">src/libs/xerces&#45;c/msvc</text>
<text text-anchor="start" x="1800.5" y="-174.5" font-family="Helvetica,sans-Serif" font-size="10.00">/include/xercesc/dom/impl</text>
<text text-anchor="middle" x="1864.5" y="-163.5" font-family="Helvetica,sans-Serif" font-size="10.00">/DOMNotationImpl.hpp</text>
</a>
</g>
</g>
<!-- Node1&#45;&gt;Node17 -->
<g id="edge18" class="edge">
<title>Node1&#45;&gt;Node17</title>
<path fill="none" stroke="midnightblue" d="M1018.82,-253.36C1170.81,-251.1 1505.38,-241.19 1783.5,-198 1786.36,-197.56 1789.27,-197.06 1792.2,-196.52"/>
<polygon fill="midnightblue" stroke="midnightblue" points="1018.59,-249.86 1008.64,-253.5 1018.69,-256.86 1018.59,-249.86"/>
</g>
<!-- Node4 -->
<g id="node4" class="node">
<title>Node4</title>
<g id="a_node4"><a xlink:href="../../de/d6a/msvc_2include_2xercesc_2dom_2impl_2DOMAttrNSImpl_8hpp.html" target="_top" xlink:title=" ">
<polygon fill="white" stroke="black" points="494.5,-0.5 494.5,-41.5 638.5,-41.5 638.5,-0.5 494.5,-0.5"/>
<text text-anchor="start" x="502.5" y="-29.5" font-family="Helvetica,sans-Serif" font-size="10.00">src/libs/xerces&#45;c/msvc</text>
<text text-anchor="start" x="502.5" y="-18.5" font-family="Helvetica,sans-Serif" font-size="10.00">/include/xercesc/dom/impl</text>
<text text-anchor="middle" x="566.5" y="-7.5" font-family="Helvetica,sans-Serif" font-size="10.00">/DOMAttrNSImpl.hpp</text>
</a>
</g>
</g>
<!-- Node3&#45;&gt;Node4 -->
<g id="edge3" class="edge">
<title>Node3&#45;&gt;Node4</title>
<path fill="none" stroke="midnightblue" d="M566.5,-68.3C566.5,-59.3 566.5,-49.65 566.5,-41.51"/>
<polygon fill="midnightblue" stroke="midnightblue" points="563,-68.43 566.5,-78.43 570,-68.43 563,-68.43"/>
</g>
<!-- Node9 -->
<g id="node9" class="node">
<title>Node9</title>
<g id="a_node9"><a xlink:href="../../dd/d8d/msvc_2include_2xercesc_2dom_2impl_2DOMCasts_8hpp.html" target="_top" xlink:title=" ">
<polygon fill="white" stroke="black" points="1525.5,-78.5 1525.5,-119.5 1669.5,-119.5 1669.5,-78.5 1525.5,-78.5"/>
<text text-anchor="start" x="1533.5" y="-107.5" font-family="Helvetica,sans-Serif" font-size="10.00">src/libs/xerces&#45;c/msvc</text>
<text text-anchor="start" x="1533.5" y="-96.5" font-family="Helvetica,sans-Serif" font-size="10.00">/include/xercesc/dom/impl</text>
<text text-anchor="middle" x="1597.5" y="-85.5" font-family="Helvetica,sans-Serif" font-size="10.00">/DOMCasts.hpp</text>
</a>
</g>
</g>
<!-- Node8&#45;&gt;Node9 -->
<g id="edge8" class="edge">
<title>Node8&#45;&gt;Node9</title>
<path fill="none" stroke="midnightblue" d="M1409.26,-153.58C1447.26,-142.76 1492.42,-129.91 1528.97,-119.51"/>
<polygon fill="midnightblue" stroke="midnightblue" points="1407.92,-150.32 1399.26,-156.43 1409.84,-157.06 1407.92,-150.32"/>
</g>
<!-- Node10 -->
<g id="node10" class="node">
<title>Node10</title>
<g id="a_node10"><a xlink:href="../../d4/da4/msvc_2include_2xercesc_2dom_2impl_2DOMElementNSImpl_8hpp.html" target="_top" xlink:title=" ">
<polygon fill="white" stroke="black" points="1258.5,-78.5 1258.5,-119.5 1402.5,-119.5 1402.5,-78.5 1258.5,-78.5"/>
<text text-anchor="start" x="1266.5" y="-107.5" font-family="Helvetica,sans-Serif" font-size="10.00">src/libs/xerces&#45;c/msvc</text>
<text text-anchor="start" x="1266.5" y="-96.5" font-family="Helvetica,sans-Serif" font-size="10.00">/include/xercesc/dom/impl</text>
<text text-anchor="middle" x="1330.5" y="-85.5" font-family="Helvetica,sans-Serif" font-size="10.00">/DOMElementNSImpl.hpp</text>
</a>
</g>
</g>
<!-- Node8&#45;&gt;Node10 -->
<g id="edge9" class="edge">
<title>Node8&#45;&gt;Node10</title>
<path fill="none" stroke="midnightblue" d="M1330.5,-146.3C1330.5,-137.3 1330.5,-127.65 1330.5,-119.51"/>
<polygon fill="midnightblue" stroke="midnightblue" points="1327,-146.43 1330.5,-156.43 1334,-146.43 1327,-146.43"/>
</g>
<!-- Node11 -->
<g id="node11" class="node">
<title>Node11</title>
<g id="a_node11"><a xlink:href="../../db/d0c/msvc_2include_2xercesc_2dom_2impl_2XSDElementNSImpl_8hpp.html" target="_top" xlink:title=" ">
<polygon fill="white" stroke="black" points="1258.5,-0.5 1258.5,-41.5 1402.5,-41.5 1402.5,-0.5 1258.5,-0.5"/>
<text text-anchor="start" x="1266.5" y="-29.5" font-family="Helvetica,sans-Serif" font-size="10.00">src/libs/xerces&#45;c/msvc</text>
<text text-anchor="start" x="1266.5" y="-18.5" font-family="Helvetica,sans-Serif" font-size="10.00">/include/xercesc/dom/impl</text>
<text text-anchor="middle" x="1330.5" y="-7.5" font-family="Helvetica,sans-Serif" font-size="10.00">/XSDElementNSImpl.hpp</text>
</a>
</g>
</g>
<!-- Node10&#45;&gt;Node11 -->
<g id="edge10" class="edge">
<title>Node10&#45;&gt;Node11</title>
<path fill="none" stroke="midnightblue" d="M1330.5,-68.3C1330.5,-59.3 1330.5,-49.65 1330.5,-41.51"/>
<polygon fill="midnightblue" stroke="midnightblue" points="1327,-68.43 1330.5,-78.43 1334,-68.43 1327,-68.43"/>
</g>
<!-- Node14&#45;&gt;Node3 -->
<g id="edge14" class="edge">
<title>Node14&#45;&gt;Node3</title>
<path fill="none" stroke="midnightblue" d="M327.78,-155.7C389.21,-140.99 448.99,-127.06 494.24,-116.61"/>
<polygon fill="midnightblue" stroke="midnightblue" points="326.82,-152.34 317.91,-158.07 328.45,-159.14 326.82,-152.34"/>
</g>
<!-- Node16&#45;&gt;Node9 -->
<g id="edge17" class="edge">
<title>Node16&#45;&gt;Node9</title>
<path fill="none" stroke="midnightblue" d="M1667.06,-150.35C1653.14,-140.27 1637.42,-128.89 1624.45,-119.51"/>
<polygon fill="midnightblue" stroke="midnightblue" points="1665.31,-153.4 1675.46,-156.43 1669.41,-147.73 1665.31,-153.4"/>
</g>
</g>
</svg>
