<?xml version="1.0" encoding="UTF-8" standalone="no"?>
<!DOCTYPE svg PUBLIC "-//W3C//DTD SVG 1.1//EN"
 "http://www.w3.org/Graphics/SVG/1.1/DTD/svg11.dtd">
<!-- Generated by graphviz version 2.43.0 (0)
 -->
<!-- Title: src/libs/xerces&#45;c/msvc/include/xercesc/dom/impl/DOMNodeImpl.hpp Pages: 1 -->
<svg width="1944pt" height="284pt"
 viewBox="0.00 0.00 1944.00 284.00" xmlns="http://www.w3.org/2000/svg" xmlns:xlink="http://www.w3.org/1999/xlink">
<g id="graph0" class="graph" transform="scale(1 1) rotate(0) translate(4 280)">
<title>src/libs/xerces&#45;c/msvc/include/xercesc/dom/impl/DOMNodeImpl.hpp</title>
<polygon fill="white" stroke="transparent" points="-4,4 -4,-280 1940,-280 1940,4 -4,4"/>
<!-- Node1 -->
<g id="node1" class="node">
<title>Node1</title>
<g id="a_node1"><a xlink:title=" ">
<polygon fill="#bfbfbf" stroke="black" points="864,-234.5 864,-275.5 1008,-275.5 1008,-234.5 864,-234.5"/>
<text text-anchor="start" x="872" y="-263.5" font-family="Helvetica,sans-Serif" font-size="10.00">src/libs/xerces&#45;c/msvc</text>
<text text-anchor="start" x="872" y="-252.5" font-family="Helvetica,sans-Serif" font-size="10.00">/include/xercesc/dom/impl</text>
<text text-anchor="middle" x="936" y="-241.5" font-family="Helvetica,sans-Serif" font-size="10.00">/DOMNodeImpl.hpp</text>
</a>
</g>
</g>
<!-- Node2 -->
<g id="node2" class="node">
<title>Node2</title>
<g id="a_node2"><a xlink:href="../../de/d08/msvc_2include_2xercesc_2dom_2impl_2DOMAttrImpl_8hpp.html" target="_top" xlink:title=" ">
<polygon fill="white" stroke="black" points="407,-78.5 407,-119.5 551,-119.5 551,-78.5 407,-78.5"/>
<text text-anchor="start" x="415" y="-107.5" font-family="Helvetica,sans-Serif" font-size="10.00">src/libs/xerces&#45;c/msvc</text>
<text text-anchor="start" x="415" y="-96.5" font-family="Helvetica,sans-Serif" font-size="10.00">/include/xercesc/dom/impl</text>
<text text-anchor="middle" x="479" y="-85.5" font-family="Helvetica,sans-Serif" font-size="10.00">/DOMAttrImpl.hpp</text>
</a>
</g>
</g>
<!-- Node1&#45;&gt;Node2 -->
<g id="edge1" class="edge">
<title>Node1&#45;&gt;Node2</title>
<path fill="none" stroke="midnightblue" d="M919.4,-225.41C903.85,-199.66 880.96,-164.57 867,-156 815.44,-124.37 648.43,-109.66 551.14,-103.63"/>
<polygon fill="midnightblue" stroke="midnightblue" points="916.44,-227.28 924.57,-234.08 922.45,-223.7 916.44,-227.28"/>
</g>
<!-- Node4 -->
<g id="node4" class="node">
<title>Node4</title>
<g id="a_node4"><a xlink:href="../../d3/d3c/msvc_2include_2xercesc_2dom_2impl_2DOMCDATASectionImpl_8hpp.html" target="_top" xlink:title=" ">
<polygon fill="white" stroke="black" points="162.5,-156.5 162.5,-197.5 317.5,-197.5 317.5,-156.5 162.5,-156.5"/>
<text text-anchor="start" x="170.5" y="-185.5" font-family="Helvetica,sans-Serif" font-size="10.00">src/libs/xerces&#45;c/msvc</text>
<text text-anchor="start" x="170.5" y="-174.5" font-family="Helvetica,sans-Serif" font-size="10.00">/include/xercesc/dom/impl</text>
<text text-anchor="middle" x="240" y="-163.5" font-family="Helvetica,sans-Serif" font-size="10.00">/DOMCDATASectionImpl.hpp</text>
</a>
</g>
</g>
<!-- Node1&#45;&gt;Node4 -->
<g id="edge3" class="edge">
<title>Node1&#45;&gt;Node4</title>
<path fill="none" stroke="midnightblue" d="M853.75,-250.03C736.15,-243.55 513.45,-228.26 326,-198 323.28,-197.56 320.51,-197.08 317.72,-196.58"/>
<polygon fill="midnightblue" stroke="midnightblue" points="853.59,-253.53 863.76,-250.58 853.97,-246.54 853.59,-253.53"/>
</g>
<!-- Node5 -->
<g id="node5" class="node">
<title>Node5</title>
<g id="a_node5"><a xlink:href="../../df/d65/msvc_2include_2xercesc_2dom_2impl_2DOMDocumentFragmentImpl_8hpp.html" target="_top" xlink:title=" ">
<polygon fill="white" stroke="black" points="335.5,-156.5 335.5,-197.5 518.5,-197.5 518.5,-156.5 335.5,-156.5"/>
<text text-anchor="start" x="343.5" y="-185.5" font-family="Helvetica,sans-Serif" font-size="10.00">src/libs/xerces&#45;c/msvc</text>
<text text-anchor="start" x="343.5" y="-174.5" font-family="Helvetica,sans-Serif" font-size="10.00">/include/xercesc/dom/impl</text>
<text text-anchor="middle" x="427" y="-163.5" font-family="Helvetica,sans-Serif" font-size="10.00">/DOMDocumentFragmentImpl.hpp</text>
</a>
</g>
</g>
<!-- Node1&#45;&gt;Node5 -->
<g id="edge4" class="edge">
<title>Node1&#45;&gt;Node5</title>
<path fill="none" stroke="midnightblue" d="M853.87,-244.18C771.33,-233.96 640.54,-216.85 528,-198 524.91,-197.48 521.78,-196.94 518.62,-196.39"/>
<polygon fill="midnightblue" stroke="midnightblue" points="853.59,-247.67 863.95,-245.42 854.45,-240.72 853.59,-247.67"/>
</g>
<!-- Node6 -->
<g id="node6" class="node">
<title>Node6</title>
<g id="a_node6"><a xlink:href="../../dc/d7d/msvc_2include_2xercesc_2dom_2impl_2DOMCommentImpl_8hpp.html" target="_top" xlink:title=" ">
<polygon fill="white" stroke="black" points="537,-156.5 537,-197.5 681,-197.5 681,-156.5 537,-156.5"/>
<text text-anchor="start" x="545" y="-185.5" font-family="Helvetica,sans-Serif" font-size="10.00">src/libs/xerces&#45;c/msvc</text>
<text text-anchor="start" x="545" y="-174.5" font-family="Helvetica,sans-Serif" font-size="10.00">/include/xercesc/dom/impl</text>
<text text-anchor="middle" x="609" y="-163.5" font-family="Helvetica,sans-Serif" font-size="10.00">/DOMCommentImpl.hpp</text>
</a>
</g>
</g>
<!-- Node1&#45;&gt;Node6 -->
<g id="edge5" class="edge">
<title>Node1&#45;&gt;Node6</title>
<path fill="none" stroke="midnightblue" d="M853.8,-235.68C805.96,-224.92 744.51,-210.93 690,-198 687.18,-197.33 684.31,-196.64 681.41,-195.95"/>
<polygon fill="midnightblue" stroke="midnightblue" points="853.28,-239.15 863.8,-237.93 854.81,-232.32 853.28,-239.15"/>
</g>
<!-- Node7 -->
<g id="node7" class="node">
<title>Node7</title>
<g id="a_node7"><a xlink:href="../../de/de5/msvc_2include_2xercesc_2dom_2impl_2DOMDocumentTypeImpl_8hpp.html" target="_top" xlink:title=" ">
<polygon fill="white" stroke="black" points="699.5,-156.5 699.5,-197.5 858.5,-197.5 858.5,-156.5 699.5,-156.5"/>
<text text-anchor="start" x="707.5" y="-185.5" font-family="Helvetica,sans-Serif" font-size="10.00">src/libs/xerces&#45;c/msvc</text>
<text text-anchor="start" x="707.5" y="-174.5" font-family="Helvetica,sans-Serif" font-size="10.00">/include/xercesc/dom/impl</text>
<text text-anchor="middle" x="779" y="-163.5" font-family="Helvetica,sans-Serif" font-size="10.00">/DOMDocumentTypeImpl.hpp</text>
</a>
</g>
</g>
<!-- Node1&#45;&gt;Node7 -->
<g id="edge6" class="edge">
<title>Node1&#45;&gt;Node7</title>
<path fill="none" stroke="midnightblue" d="M886.52,-230.05C864.87,-219.57 839.78,-207.42 819.29,-197.51"/>
<polygon fill="midnightblue" stroke="midnightblue" points="885.04,-233.22 895.57,-234.43 888.09,-226.92 885.04,-233.22"/>
</g>
<!-- Node8 -->
<g id="node8" class="node">
<title>Node8</title>
<g id="a_node8"><a xlink:href="../../d4/dff/msvc_2include_2xercesc_2dom_2impl_2DOMElementImpl_8hpp.html" target="_top" xlink:title=" ">
<polygon fill="white" stroke="black" points="1076,-156.5 1076,-197.5 1220,-197.5 1220,-156.5 1076,-156.5"/>
<text text-anchor="start" x="1084" y="-185.5" font-family="Helvetica,sans-Serif" font-size="10.00">src/libs/xerces&#45;c/msvc</text>
<text text-anchor="start" x="1084" y="-174.5" font-family="Helvetica,sans-Serif" font-size="10.00">/include/xercesc/dom/impl</text>
<text text-anchor="middle" x="1148" y="-163.5" font-family="Helvetica,sans-Serif" font-size="10.00">/DOMElementImpl.hpp</text>
</a>
</g>
</g>
<!-- Node1&#45;&gt;Node8 -->
<g id="edge7" class="edge">
<title>Node1&#45;&gt;Node8</title>
<path fill="none" stroke="midnightblue" d="M1000.08,-231.03C1029.93,-220.33 1065.06,-207.73 1093.59,-197.51"/>
<polygon fill="midnightblue" stroke="midnightblue" points="998.83,-227.76 990.6,-234.43 1001.19,-234.35 998.83,-227.76"/>
</g>
<!-- Node12 -->
<g id="node12" class="node">
<title>Node12</title>
<g id="a_node12"><a xlink:href="../../dc/d29/msvc_2include_2xercesc_2dom_2impl_2DOMEntityImpl_8hpp.html" target="_top" xlink:title=" ">
<polygon fill="white" stroke="black" points="914,-156.5 914,-197.5 1058,-197.5 1058,-156.5 914,-156.5"/>
<text text-anchor="start" x="922" y="-185.5" font-family="Helvetica,sans-Serif" font-size="10.00">src/libs/xerces&#45;c/msvc</text>
<text text-anchor="start" x="922" y="-174.5" font-family="Helvetica,sans-Serif" font-size="10.00">/include/xercesc/dom/impl</text>
<text text-anchor="middle" x="986" y="-163.5" font-family="Helvetica,sans-Serif" font-size="10.00">/DOMEntityImpl.hpp</text>
</a>
</g>
</g>
<!-- Node1&#45;&gt;Node12 -->
<g id="edge11" class="edge">
<title>Node1&#45;&gt;Node12</title>
<path fill="none" stroke="midnightblue" d="M954.39,-226.05C960.63,-216.57 967.46,-206.18 973.17,-197.51"/>
<polygon fill="midnightblue" stroke="midnightblue" points="951.45,-224.15 948.88,-234.43 957.3,-228 951.45,-224.15"/>
</g>
<!-- Node13 -->
<g id="node13" class="node">
<title>Node13</title>
<g id="a_node13"><a xlink:href="../../d2/d5e/msvc_2include_2xercesc_2dom_2impl_2DOMDocumentImpl_8hpp.html" target="_top" xlink:title=" ">
<polygon fill="white" stroke="black" points="0,-156.5 0,-197.5 144,-197.5 144,-156.5 0,-156.5"/>
<text text-anchor="start" x="8" y="-185.5" font-family="Helvetica,sans-Serif" font-size="10.00">src/libs/xerces&#45;c/msvc</text>
<text text-anchor="start" x="8" y="-174.5" font-family="Helvetica,sans-Serif" font-size="10.00">/include/xercesc/dom/impl</text>
<text text-anchor="middle" x="72" y="-163.5" font-family="Helvetica,sans-Serif" font-size="10.00">/DOMDocumentImpl.hpp</text>
</a>
</g>
</g>
<!-- Node1&#45;&gt;Node13 -->
<g id="edge12" class="edge">
<title>Node1&#45;&gt;Node13</title>
<path fill="none" stroke="midnightblue" d="M853.71,-252.72C710.47,-249.48 406.39,-238.04 153,-198 150.14,-197.55 147.23,-197.04 144.3,-196.5"/>
<polygon fill="midnightblue" stroke="midnightblue" points="853.67,-256.22 863.74,-252.94 853.82,-249.22 853.67,-256.22"/>
</g>
<!-- Node14 -->
<g id="node14" class="node">
<title>Node14</title>
<g id="a_node14"><a xlink:href="../../dc/dba/msvc_2include_2xercesc_2dom_2impl_2DOMEntityReferenceImpl_8hpp.html" target="_top" xlink:title=" ">
<polygon fill="white" stroke="black" points="1238,-156.5 1238,-197.5 1402,-197.5 1402,-156.5 1238,-156.5"/>
<text text-anchor="start" x="1246" y="-185.5" font-family="Helvetica,sans-Serif" font-size="10.00">src/libs/xerces&#45;c/msvc</text>
<text text-anchor="start" x="1246" y="-174.5" font-family="Helvetica,sans-Serif" font-size="10.00">/include/xercesc/dom/impl</text>
<text text-anchor="middle" x="1320" y="-163.5" font-family="Helvetica,sans-Serif" font-size="10.00">/DOMEntityReferenceImpl.hpp</text>
</a>
</g>
</g>
<!-- Node1&#45;&gt;Node14 -->
<g id="edge14" class="edge">
<title>Node1&#45;&gt;Node14</title>
<path fill="none" stroke="midnightblue" d="M1018.03,-238.95C1076.84,-228 1157.91,-212.6 1229,-198 1231.85,-197.41 1234.75,-196.81 1237.68,-196.2"/>
<polygon fill="midnightblue" stroke="midnightblue" points="1017.25,-235.53 1008.06,-240.8 1018.53,-242.41 1017.25,-235.53"/>
</g>
<!-- Node15 -->
<g id="node15" class="node">
<title>Node15</title>
<g id="a_node15"><a xlink:href="../../d1/d32/msvc_2include_2xercesc_2dom_2impl_2DOMNotationImpl_8hpp.html" target="_top" xlink:title=" ">
<polygon fill="white" stroke="black" points="1420,-156.5 1420,-197.5 1564,-197.5 1564,-156.5 1420,-156.5"/>
<text text-anchor="start" x="1428" y="-185.5" font-family="Helvetica,sans-Serif" font-size="10.00">src/libs/xerces&#45;c/msvc</text>
<text text-anchor="start" x="1428" y="-174.5" font-family="Helvetica,sans-Serif" font-size="10.00">/include/xercesc/dom/impl</text>
<text text-anchor="middle" x="1492" y="-163.5" font-family="Helvetica,sans-Serif" font-size="10.00">/DOMNotationImpl.hpp</text>
</a>
</g>
</g>
<!-- Node1&#45;&gt;Node15 -->
<g id="edge15" class="edge">
<title>Node1&#45;&gt;Node15</title>
<path fill="none" stroke="midnightblue" d="M1018.16,-247.45C1113.23,-239.14 1274.24,-222.85 1411,-198 1413.85,-197.48 1416.75,-196.92 1419.67,-196.33"/>
<polygon fill="midnightblue" stroke="midnightblue" points="1017.7,-243.98 1008.03,-248.32 1018.3,-250.95 1017.7,-243.98"/>
</g>
<!-- Node16 -->
<g id="node16" class="node">
<title>Node16</title>
<g id="a_node16"><a xlink:href="../../dc/d12/msvc_2include_2xercesc_2dom_2impl_2DOMProcessingInstructionImpl_8hpp.html" target="_top" xlink:title=" ">
<polygon fill="white" stroke="black" points="1582.5,-156.5 1582.5,-197.5 1773.5,-197.5 1773.5,-156.5 1582.5,-156.5"/>
<text text-anchor="start" x="1590.5" y="-185.5" font-family="Helvetica,sans-Serif" font-size="10.00">src/libs/xerces&#45;c/msvc</text>
<text text-anchor="start" x="1590.5" y="-174.5" font-family="Helvetica,sans-Serif" font-size="10.00">/include/xercesc/dom/impl</text>
<text text-anchor="middle" x="1678" y="-163.5" font-family="Helvetica,sans-Serif" font-size="10.00">/DOMProcessingInstructionImpl.hpp</text>
</a>
</g>
</g>
<!-- Node1&#45;&gt;Node16 -->
<g id="edge16" class="edge">
<title>Node1&#45;&gt;Node16</title>
<path fill="none" stroke="midnightblue" d="M1018.38,-249.41C1140.07,-242.04 1374.87,-225.51 1573,-198 1576.12,-197.57 1579.3,-197.1 1582.5,-196.61"/>
<polygon fill="midnightblue" stroke="midnightblue" points="1018.16,-245.92 1008.39,-250.01 1018.58,-252.91 1018.16,-245.92"/>
</g>
<!-- Node17 -->
<g id="node17" class="node">
<title>Node17</title>
<g id="a_node17"><a xlink:href="../../df/de1/msvc_2include_2xercesc_2dom_2impl_2DOMTextImpl_8hpp.html" target="_top" xlink:title=" ">
<polygon fill="white" stroke="black" points="1792,-156.5 1792,-197.5 1936,-197.5 1936,-156.5 1792,-156.5"/>
<text text-anchor="start" x="1800" y="-185.5" font-family="Helvetica,sans-Serif" font-size="10.00">src/libs/xerces&#45;c/msvc</text>
<text text-anchor="start" x="1800" y="-174.5" font-family="Helvetica,sans-Serif" font-size="10.00">/include/xercesc/dom/impl</text>
<text text-anchor="middle" x="1864" y="-163.5" font-family="Helvetica,sans-Serif" font-size="10.00">/DOMTextImpl.hpp</text>
</a>
</g>
</g>
<!-- Node1&#45;&gt;Node17 -->
<g id="edge17" class="edge">
<title>Node1&#45;&gt;Node17</title>
<path fill="none" stroke="midnightblue" d="M1018.32,-253.36C1170.31,-251.1 1504.88,-241.19 1783,-198 1785.86,-197.56 1788.77,-197.06 1791.7,-196.52"/>
<polygon fill="midnightblue" stroke="midnightblue" points="1018.09,-249.86 1008.14,-253.5 1018.19,-256.86 1018.09,-249.86"/>
</g>
<!-- Node3 -->
<g id="node3" class="node">
<title>Node3</title>
<g id="a_node3"><a xlink:href="../../de/d6a/msvc_2include_2xercesc_2dom_2impl_2DOMAttrNSImpl_8hpp.html" target="_top" xlink:title=" ">
<polygon fill="white" stroke="black" points="407,-0.5 407,-41.5 551,-41.5 551,-0.5 407,-0.5"/>
<text text-anchor="start" x="415" y="-29.5" font-family="Helvetica,sans-Serif" font-size="10.00">src/libs/xerces&#45;c/msvc</text>
<text text-anchor="start" x="415" y="-18.5" font-family="Helvetica,sans-Serif" font-size="10.00">/include/xercesc/dom/impl</text>
<text text-anchor="middle" x="479" y="-7.5" font-family="Helvetica,sans-Serif" font-size="10.00">/DOMAttrNSImpl.hpp</text>
</a>
</g>
</g>
<!-- Node2&#45;&gt;Node3 -->
<g id="edge2" class="edge">
<title>Node2&#45;&gt;Node3</title>
<path fill="none" stroke="midnightblue" d="M479,-68.3C479,-59.3 479,-49.65 479,-41.51"/>
<polygon fill="midnightblue" stroke="midnightblue" points="475.5,-68.43 479,-78.43 482.5,-68.43 475.5,-68.43"/>
</g>
<!-- Node9 -->
<g id="node9" class="node">
<title>Node9</title>
<g id="a_node9"><a xlink:href="../../dd/d8d/msvc_2include_2xercesc_2dom_2impl_2DOMCasts_8hpp.html" target="_top" xlink:title=" ">
<polygon fill="white" stroke="black" points="1515,-78.5 1515,-119.5 1659,-119.5 1659,-78.5 1515,-78.5"/>
<text text-anchor="start" x="1523" y="-107.5" font-family="Helvetica,sans-Serif" font-size="10.00">src/libs/xerces&#45;c/msvc</text>
<text text-anchor="start" x="1523" y="-96.5" font-family="Helvetica,sans-Serif" font-size="10.00">/include/xercesc/dom/impl</text>
<text text-anchor="middle" x="1587" y="-85.5" font-family="Helvetica,sans-Serif" font-size="10.00">/DOMCasts.hpp</text>
</a>
</g>
</g>
<!-- Node8&#45;&gt;Node9 -->
<g id="edge8" class="edge">
<title>Node8&#45;&gt;Node9</title>
<path fill="none" stroke="midnightblue" d="M1230.41,-155.79C1334.5,-135.15 1444.4,-119.03 1514.67,-109.43"/>
<polygon fill="midnightblue" stroke="midnightblue" points="1229.47,-152.41 1220.35,-157.8 1230.85,-159.27 1229.47,-152.41"/>
</g>
<!-- Node10 -->
<g id="node10" class="node">
<title>Node10</title>
<g id="a_node10"><a xlink:href="../../d4/da4/msvc_2include_2xercesc_2dom_2impl_2DOMElementNSImpl_8hpp.html" target="_top" xlink:title=" ">
<polygon fill="white" stroke="black" points="1076,-78.5 1076,-119.5 1220,-119.5 1220,-78.5 1076,-78.5"/>
<text text-anchor="start" x="1084" y="-107.5" font-family="Helvetica,sans-Serif" font-size="10.00">src/libs/xerces&#45;c/msvc</text>
<text text-anchor="start" x="1084" y="-96.5" font-family="Helvetica,sans-Serif" font-size="10.00">/include/xercesc/dom/impl</text>
<text text-anchor="middle" x="1148" y="-85.5" font-family="Helvetica,sans-Serif" font-size="10.00">/DOMElementNSImpl.hpp</text>
</a>
</g>
</g>
<!-- Node8&#45;&gt;Node10 -->
<g id="edge9" class="edge">
<title>Node8&#45;&gt;Node10</title>
<path fill="none" stroke="midnightblue" d="M1148,-146.3C1148,-137.3 1148,-127.65 1148,-119.51"/>
<polygon fill="midnightblue" stroke="midnightblue" points="1144.5,-146.43 1148,-156.43 1151.5,-146.43 1144.5,-146.43"/>
</g>
<!-- Node11 -->
<g id="node11" class="node">
<title>Node11</title>
<g id="a_node11"><a xlink:href="../../db/d0c/msvc_2include_2xercesc_2dom_2impl_2XSDElementNSImpl_8hpp.html" target="_top" xlink:title=" ">
<polygon fill="white" stroke="black" points="1076,-0.5 1076,-41.5 1220,-41.5 1220,-0.5 1076,-0.5"/>
<text text-anchor="start" x="1084" y="-29.5" font-family="Helvetica,sans-Serif" font-size="10.00">src/libs/xerces&#45;c/msvc</text>
<text text-anchor="start" x="1084" y="-18.5" font-family="Helvetica,sans-Serif" font-size="10.00">/include/xercesc/dom/impl</text>
<text text-anchor="middle" x="1148" y="-7.5" font-family="Helvetica,sans-Serif" font-size="10.00">/XSDElementNSImpl.hpp</text>
</a>
</g>
</g>
<!-- Node10&#45;&gt;Node11 -->
<g id="edge10" class="edge">
<title>Node10&#45;&gt;Node11</title>
<path fill="none" stroke="midnightblue" d="M1148,-68.3C1148,-59.3 1148,-49.65 1148,-41.51"/>
<polygon fill="midnightblue" stroke="midnightblue" points="1144.5,-68.43 1148,-78.43 1151.5,-68.43 1144.5,-68.43"/>
</g>
<!-- Node13&#45;&gt;Node2 -->
<g id="edge13" class="edge">
<title>Node13&#45;&gt;Node2</title>
<path fill="none" stroke="midnightblue" d="M154.17,-155.82C246.69,-136.71 342.87,-120.85 406.85,-110.87"/>
<polygon fill="midnightblue" stroke="midnightblue" points="153.44,-152.4 144.36,-157.86 154.87,-159.25 153.44,-152.4"/>
</g>
<!-- Node17&#45;&gt;Node9 -->
<g id="edge18" class="edge">
<title>Node17&#45;&gt;Node9</title>
<path fill="none" stroke="midnightblue" d="M1782.79,-153.72C1743.26,-142.87 1696.18,-129.96 1658.09,-119.51"/>
<polygon fill="midnightblue" stroke="midnightblue" points="1782.1,-157.16 1792.67,-156.43 1783.95,-150.41 1782.1,-157.16"/>
</g>
</g>
</svg>
