<?xml version="1.0" encoding="UTF-8" standalone="no"?>
<!DOCTYPE svg PUBLIC "-//W3C//DTD SVG 1.1//EN"
 "http://www.w3.org/Graphics/SVG/1.1/DTD/svg11.dtd">
<!-- Generated by graphviz version 2.43.0 (0)
 -->
<!-- Title: src/libs/vpatterndb/vtranslatemeasurements.h Pages: 1 -->
<svg width="6404pt" height="374pt"
 viewBox="0.00 0.00 6403.50 374.00" xmlns="http://www.w3.org/2000/svg" xmlns:xlink="http://www.w3.org/1999/xlink">
<g id="graph0" class="graph" transform="scale(1 1) rotate(0) translate(4 370)">
<title>src/libs/vpatterndb/vtranslatemeasurements.h</title>
<polygon fill="white" stroke="transparent" points="-4,4 -4,-370 6399.5,-370 6399.5,4 -4,4"/>
<!-- Node1 -->
<g id="node1" class="node">
<title>Node1</title>
<g id="a_node1"><a xlink:title=" ">
<polygon fill="#bfbfbf" stroke="black" points="5955,-335.5 5955,-365.5 6107,-365.5 6107,-335.5 5955,-335.5"/>
<text text-anchor="start" x="5963" y="-353.5" font-family="Helvetica,sans-Serif" font-size="10.00">src/libs/vpatterndb</text>
<text text-anchor="middle" x="6031" y="-342.5" font-family="Helvetica,sans-Serif" font-size="10.00">/vtranslatemeasurements.h</text>
</a>
</g>
</g>
<!-- Node2 -->
<g id="node2" class="node">
<title>Node2</title>
<g id="a_node2"><a xlink:href="../../dd/de9/measurements__def_8cpp.html" target="_top" xlink:title=" ">
<polygon fill="white" stroke="black" points="5653,-268.5 5653,-298.5 5787,-298.5 5787,-268.5 5653,-268.5"/>
<text text-anchor="start" x="5661" y="-286.5" font-family="Helvetica,sans-Serif" font-size="10.00">src/libs/vpatterndb</text>
<text text-anchor="middle" x="5720" y="-275.5" font-family="Helvetica,sans-Serif" font-size="10.00">/measurements_def.cpp</text>
</a>
</g>
</g>
<!-- Node1&#45;&gt;Node2 -->
<g id="edge1" class="edge">
<title>Node1&#45;&gt;Node2</title>
<path fill="none" stroke="midnightblue" d="M5953.88,-333.38C5902.73,-322.69 5836.25,-308.8 5787.25,-298.55"/>
<polygon fill="midnightblue" stroke="midnightblue" points="5953.4,-336.86 5963.9,-335.48 5954.83,-330 5953.4,-336.86"/>
</g>
<!-- Node3 -->
<g id="node3" class="node">
<title>Node3</title>
<g id="a_node3"><a xlink:href="../../da/d69/vtranslatevars_8h.html" target="_top" xlink:title=" ">
<polygon fill="white" stroke="black" points="5805.5,-268.5 5805.5,-298.5 5912.5,-298.5 5912.5,-268.5 5805.5,-268.5"/>
<text text-anchor="start" x="5813.5" y="-286.5" font-family="Helvetica,sans-Serif" font-size="10.00">src/libs/vpatterndb</text>
<text text-anchor="middle" x="5859" y="-275.5" font-family="Helvetica,sans-Serif" font-size="10.00">/vtranslatevars.h</text>
</a>
</g>
</g>
<!-- Node1&#45;&gt;Node3 -->
<g id="edge2" class="edge">
<title>Node1&#45;&gt;Node3</title>
<path fill="none" stroke="midnightblue" d="M5984.21,-331.82C5956.57,-321.37 5922.04,-308.32 5896.25,-298.58"/>
<polygon fill="midnightblue" stroke="midnightblue" points="5983.09,-335.13 5993.68,-335.4 5985.56,-328.59 5983.09,-335.13"/>
</g>
<!-- Node49 -->
<g id="node26" class="node">
<title>Node49</title>
<g id="a_node26"><a xlink:href="../../de/d3e/vtranslatevars_8cpp.html" target="_top" xlink:title=" ">
<polygon fill="white" stroke="black" points="6200,-67.5 6200,-97.5 6310,-97.5 6310,-67.5 6200,-67.5"/>
<text text-anchor="start" x="6208" y="-85.5" font-family="Helvetica,sans-Serif" font-size="10.00">src/libs/vpatterndb</text>
<text text-anchor="middle" x="6255" y="-74.5" font-family="Helvetica,sans-Serif" font-size="10.00">/vtranslatevars.cpp</text>
</a>
</g>
</g>
<!-- Node1&#45;&gt;Node49 -->
<g id="edge62" class="edge">
<title>Node1&#45;&gt;Node49</title>
<path fill="none" stroke="midnightblue" d="M6057.24,-328.8C6084.48,-306.58 6127.44,-269.39 6159,-232 6197.22,-186.72 6232.37,-125.31 6247.36,-97.83"/>
<polygon fill="midnightblue" stroke="midnightblue" points="6054.9,-326.2 6049.32,-335.2 6059.3,-331.64 6054.9,-326.2"/>
</g>
<!-- Node76 -->
<g id="node50" class="node">
<title>Node76</title>
<g id="a_node50"><a xlink:href="../../d0/d50/vtranslatemeasurements_8cpp.html" target="_top" xlink:title=" ">
<polygon fill="white" stroke="black" points="6232.5,-268.5 6232.5,-298.5 6395.5,-298.5 6395.5,-268.5 6232.5,-268.5"/>
<text text-anchor="start" x="6240.5" y="-286.5" font-family="Helvetica,sans-Serif" font-size="10.00">src/libs/vpatterndb</text>
<text text-anchor="middle" x="6314" y="-275.5" font-family="Helvetica,sans-Serif" font-size="10.00">/vtranslatemeasurements.cpp</text>
</a>
</g>
</g>
<!-- Node1&#45;&gt;Node76 -->
<g id="edge63" class="edge">
<title>Node1&#45;&gt;Node76</title>
<path fill="none" stroke="midnightblue" d="M6102.03,-333.19C6148.38,-322.54 6208.27,-308.78 6252.56,-298.61"/>
<polygon fill="midnightblue" stroke="midnightblue" points="6101.02,-329.83 6092.06,-335.48 6102.59,-336.65 6101.02,-329.83"/>
</g>
<!-- Node4 -->
<g id="node4" class="node">
<title>Node4</title>
<g id="a_node4"><a xlink:href="../../d2/d47/image__dialog_8cpp.html" target="_top" xlink:title=" ">
<polygon fill="white" stroke="black" points="5944,-67.5 5944,-97.5 6056,-97.5 6056,-67.5 5944,-67.5"/>
<text text-anchor="start" x="5952" y="-85.5" font-family="Helvetica,sans-Serif" font-size="10.00">src/libs/tools/image</text>
<text text-anchor="middle" x="6000" y="-74.5" font-family="Helvetica,sans-Serif" font-size="10.00">_dialog.cpp</text>
</a>
</g>
</g>
<!-- Node3&#45;&gt;Node4 -->
<g id="edge3" class="edge">
<title>Node3&#45;&gt;Node4</title>
<path fill="none" stroke="midnightblue" d="M5795.35,-268.05C5709.26,-251.67 5587.33,-262.16 5632,-201 5650.84,-175.21 5845.42,-122.74 5943.76,-97.57"/>
<polygon fill="midnightblue" stroke="midnightblue" points="5794.89,-271.52 5805.39,-270.12 5796.31,-264.67 5794.89,-271.52"/>
</g>
<!-- Node5 -->
<g id="node5" class="node">
<title>Node5</title>
<g id="a_node5"><a xlink:href="../../d5/d74/vabstractapplication_8h.html" target="_top" xlink:title=" ">
<polygon fill="white" stroke="black" points="3400.5,-140 3400.5,-159 3595.5,-159 3595.5,-140 3400.5,-140"/>
<text text-anchor="middle" x="3498" y="-147" font-family="Helvetica,sans-Serif" font-size="10.00">src/libs/vmisc/vabstractapplication.h</text>
</a>
</g>
</g>
<!-- Node3&#45;&gt;Node5 -->
<g id="edge4" class="edge">
<title>Node3&#45;&gt;Node5</title>
<path fill="none" stroke="midnightblue" d="M5795.24,-268.09C5340.57,-206.64 3973.68,-164.06 3595.73,-153.21"/>
<polygon fill="midnightblue" stroke="midnightblue" points="5794.78,-271.56 5805.16,-269.46 5795.73,-264.63 5794.78,-271.56"/>
</g>
<!-- Node44 -->
<g id="node22" class="node">
<title>Node44</title>
<g id="a_node22"><a xlink:href="../../db/d11/vformula_8cpp.html" target="_top" xlink:title=" ">
<polygon fill="white" stroke="black" points="6074.5,-67.5 6074.5,-97.5 6181.5,-97.5 6181.5,-67.5 6074.5,-67.5"/>
<text text-anchor="start" x="6082.5" y="-85.5" font-family="Helvetica,sans-Serif" font-size="10.00">src/libs/vpatterndb</text>
<text text-anchor="middle" x="6128" y="-74.5" font-family="Helvetica,sans-Serif" font-size="10.00">/vformula.cpp</text>
</a>
</g>
</g>
<!-- Node3&#45;&gt;Node44 -->
<g id="edge43" class="edge">
<title>Node3&#45;&gt;Node44</title>
<path fill="none" stroke="midnightblue" d="M5922.82,-278.04C5988.67,-272.03 6085.18,-258.83 6110,-232 6144.74,-194.44 6136.67,-126.75 6131.11,-97.54"/>
<polygon fill="midnightblue" stroke="midnightblue" points="5922.18,-274.58 5912.53,-278.94 5922.8,-281.55 5922.18,-274.58"/>
</g>
<!-- Node46 -->
<g id="node24" class="node">
<title>Node46</title>
<g id="a_node24"><a xlink:href="../../d6/d46/vcontainer_8cpp.html" target="_top" xlink:title=" ">
<polygon fill="white" stroke="black" points="208.5,-67.5 208.5,-97.5 315.5,-97.5 315.5,-67.5 208.5,-67.5"/>
<text text-anchor="start" x="216.5" y="-85.5" font-family="Helvetica,sans-Serif" font-size="10.00">src/libs/vpatterndb</text>
<text text-anchor="middle" x="262" y="-74.5" font-family="Helvetica,sans-Serif" font-size="10.00">/vcontainer.cpp</text>
</a>
</g>
</g>
<!-- Node3&#45;&gt;Node46 -->
<g id="edge57" class="edge">
<title>Node3&#45;&gt;Node46</title>
<path fill="none" stroke="midnightblue" d="M5794.82,-268.13C5189.6,-203.24 1278.85,-277.67 720,-232 528.98,-216.39 443.47,-284.97 294,-165 273.25,-148.35 265.92,-116.38 263.35,-97.81"/>
<polygon fill="midnightblue" stroke="midnightblue" points="5794.85,-271.66 5805.18,-269.3 5795.63,-264.7 5794.85,-271.66"/>
</g>
<!-- Node3&#45;&gt;Node49 -->
<g id="edge58" class="edge">
<title>Node3&#45;&gt;Node49</title>
<path fill="none" stroke="midnightblue" d="M5922.74,-276.82C5992.53,-269.56 6098.95,-255.08 6132,-232 6173.49,-203.02 6156.54,-171.97 6190,-134 6202.47,-119.85 6219.36,-106.86 6232.8,-97.61"/>
<polygon fill="midnightblue" stroke="midnightblue" points="5922.31,-273.35 5912.72,-277.84 5923.02,-280.31 5922.31,-273.35"/>
</g>
<!-- Node62 -->
<g id="node42" class="node">
<title>Node62</title>
<g id="a_node42"><a xlink:href="../../d3/df7/vcontainer_8h.html" target="_top" xlink:title=" ">
<polygon fill="white" stroke="red" points="729.5,-201.5 729.5,-231.5 836.5,-231.5 836.5,-201.5 729.5,-201.5"/>
<text text-anchor="start" x="737.5" y="-219.5" font-family="Helvetica,sans-Serif" font-size="10.00">src/libs/vpatterndb</text>
<text text-anchor="middle" x="783" y="-208.5" font-family="Helvetica,sans-Serif" font-size="10.00">/vcontainer.h</text>
</a>
</g>
</g>
<!-- Node3&#45;&gt;Node62 -->
<g id="edge44" class="edge">
<title>Node3&#45;&gt;Node62</title>
<path fill="none" stroke="midnightblue" d="M5795.19,-268.28C5447.46,-236.86 1354.19,-219.75 836.67,-217.71"/>
<polygon fill="midnightblue" stroke="midnightblue" points="5794.87,-271.76 5805.18,-269.31 5795.59,-264.8 5794.87,-271.76"/>
</g>
<!-- Node73 -->
<g id="node47" class="node">
<title>Node73</title>
<g id="a_node47"><a xlink:href="../../df/de5/dialogspline_8cpp.html" target="_top" xlink:title=" ">
<polygon fill="white" stroke="black" points="5641,-201.5 5641,-231.5 5767,-231.5 5767,-201.5 5641,-201.5"/>
<text text-anchor="start" x="5649" y="-219.5" font-family="Helvetica,sans-Serif" font-size="10.00">src/libs/vtools/dialogs</text>
<text text-anchor="middle" x="5704" y="-208.5" font-family="Helvetica,sans-Serif" font-size="10.00">/tools/dialogspline.cpp</text>
</a>
</g>
</g>
<!-- Node3&#45;&gt;Node73 -->
<g id="edge59" class="edge">
<title>Node3&#45;&gt;Node73</title>
<path fill="none" stroke="midnightblue" d="M5815.85,-264.41C5791.11,-254.03 5760.5,-241.2 5737.57,-231.58"/>
<polygon fill="midnightblue" stroke="midnightblue" points="5814.79,-267.76 5825.37,-268.4 5817.5,-261.3 5814.79,-267.76"/>
</g>
<!-- Node74 -->
<g id="node48" class="node">
<title>Node74</title>
<g id="a_node48"><a xlink:href="../../dc/dc2/dialogsplinepath_8cpp.html" target="_top" xlink:title=" ">
<polygon fill="white" stroke="black" points="5785,-201.5 5785,-231.5 5933,-231.5 5933,-201.5 5785,-201.5"/>
<text text-anchor="start" x="5793" y="-219.5" font-family="Helvetica,sans-Serif" font-size="10.00">src/libs/vtools/dialogs</text>
<text text-anchor="middle" x="5859" y="-208.5" font-family="Helvetica,sans-Serif" font-size="10.00">/tools/dialogsplinepath.cpp</text>
</a>
</g>
</g>
<!-- Node3&#45;&gt;Node74 -->
<g id="edge60" class="edge">
<title>Node3&#45;&gt;Node74</title>
<path fill="none" stroke="midnightblue" d="M5859,-258.11C5859,-249.15 5859,-239.32 5859,-231.58"/>
<polygon fill="midnightblue" stroke="midnightblue" points="5855.5,-258.4 5859,-268.4 5862.5,-258.4 5855.5,-258.4"/>
</g>
<!-- Node75 -->
<g id="node49" class="node">
<title>Node75</title>
<g id="a_node49"><a xlink:href="../../d1/d75/vistoolendline_8cpp.html" target="_top" xlink:title=" ">
<polygon fill="white" stroke="black" points="5951.5,-201.5 5951.5,-231.5 6100.5,-231.5 6100.5,-201.5 5951.5,-201.5"/>
<text text-anchor="start" x="5959.5" y="-219.5" font-family="Helvetica,sans-Serif" font-size="10.00">src/libs/vtools/visualization</text>
<text text-anchor="middle" x="6026" y="-208.5" font-family="Helvetica,sans-Serif" font-size="10.00">/line/vistoolendline.cpp</text>
</a>
</g>
</g>
<!-- Node3&#45;&gt;Node75 -->
<g id="edge61" class="edge">
<title>Node3&#45;&gt;Node75</title>
<path fill="none" stroke="midnightblue" d="M5904.78,-264.68C5931.56,-254.26 5964.9,-241.28 5989.83,-231.58"/>
<polygon fill="midnightblue" stroke="midnightblue" points="5903.29,-261.51 5895.24,-268.4 5905.83,-268.03 5903.29,-261.51"/>
</g>
<!-- Node5&#45;&gt;Node4 -->
<g id="edge7" class="edge">
<title>Node5&#45;&gt;Node4</title>
<path fill="none" stroke="midnightblue" d="M3605.75,-145.69C3724.03,-142.64 3919.54,-137.71 4088,-134 4498.42,-124.96 5527.4,-146.94 5935,-98 5937.87,-97.66 5940.8,-97.24 5943.75,-96.77"/>
<polygon fill="midnightblue" stroke="midnightblue" points="3605.51,-142.19 3595.61,-145.95 3605.7,-149.19 3605.51,-142.19"/>
</g>
<!-- Node6 -->
<g id="node6" class="node">
<title>Node6</title>
<g id="a_node6"><a xlink:href="../../d4/d90/fvupdater_8cpp.html" target="_top" xlink:title=" ">
<polygon fill="white" stroke="black" points="4480.5,-73 4480.5,-92 4633.5,-92 4633.5,-73 4480.5,-73"/>
<text text-anchor="middle" x="4557" y="-80" font-family="Helvetica,sans-Serif" font-size="10.00">src/libs/fervor/fvupdater.cpp</text>
</a>
</g>
</g>
<!-- Node5&#45;&gt;Node6 -->
<g id="edge5" class="edge">
<title>Node5&#45;&gt;Node6</title>
<path fill="none" stroke="midnightblue" d="M3606.04,-147.03C3786.1,-143.65 4158.74,-132.72 4472,-98 4485.39,-96.52 4499.87,-94.28 4513.02,-92.01"/>
<polygon fill="midnightblue" stroke="midnightblue" points="3605.7,-143.53 3595.77,-147.22 3605.83,-150.53 3605.7,-143.53"/>
</g>
<!-- Node7 -->
<g id="node7" class="node">
<title>Node7</title>
<g id="a_node7"><a xlink:href="../../d1/d8d/image__item_8h.html" target="_top" xlink:title=" ">
<polygon fill="white" stroke="red" points="4652,-67.5 4652,-97.5 4764,-97.5 4764,-67.5 4652,-67.5"/>
<text text-anchor="start" x="4660" y="-85.5" font-family="Helvetica,sans-Serif" font-size="10.00">src/libs/tools/image</text>
<text text-anchor="middle" x="4708" y="-74.5" font-family="Helvetica,sans-Serif" font-size="10.00">_item.h</text>
</a>
</g>
</g>
<!-- Node5&#45;&gt;Node7 -->
<g id="edge6" class="edge">
<title>Node5&#45;&gt;Node7</title>
<path fill="none" stroke="midnightblue" d="M3605.98,-146.16C3851.3,-140.44 4444.65,-124.29 4643,-98 4645.87,-97.62 4648.79,-97.18 4651.74,-96.68"/>
<polygon fill="midnightblue" stroke="midnightblue" points="3605.55,-142.67 3595.63,-146.4 3605.71,-149.66 3605.55,-142.67"/>
</g>
<!-- Node28 -->
<g id="node8" class="node">
<title>Node28</title>
<g id="a_node8"><a xlink:href="../../d9/dc8/dxiface_8cpp.html" target="_top" xlink:title=" ">
<polygon fill="white" stroke="black" points="4782.5,-73 4782.5,-92 4917.5,-92 4917.5,-73 4782.5,-73"/>
<text text-anchor="middle" x="4850" y="-80" font-family="Helvetica,sans-Serif" font-size="10.00">src/libs/vdxf/dxiface.cpp</text>
</a>
</g>
</g>
<!-- Node5&#45;&gt;Node28 -->
<g id="edge8" class="edge">
<title>Node5&#45;&gt;Node28</title>
<path fill="none" stroke="midnightblue" d="M3605.69,-146.27C3870.5,-140.45 4548.21,-123.48 4773,-98 4785.3,-96.61 4798.59,-94.37 4810.6,-92.07"/>
<polygon fill="midnightblue" stroke="midnightblue" points="3605.6,-142.77 3595.68,-146.49 3605.75,-149.77 3605.6,-142.77"/>
</g>
<!-- Node29 -->
<g id="node9" class="node">
<title>Node29</title>
<g id="a_node9"><a xlink:href="../../da/d75/vabstractarc__p_8h.html" target="_top" xlink:title=" ">
<polygon fill="white" stroke="red" points="4935.5,-67.5 4935.5,-97.5 5042.5,-97.5 5042.5,-67.5 4935.5,-67.5"/>
<text text-anchor="start" x="4943.5" y="-85.5" font-family="Helvetica,sans-Serif" font-size="10.00">src/libs/vgeometry</text>
<text text-anchor="middle" x="4989" y="-74.5" font-family="Helvetica,sans-Serif" font-size="10.00">/vabstractarc_p.h</text>
</a>
</g>
</g>
<!-- Node5&#45;&gt;Node29 -->
<g id="edge9" class="edge">
<title>Node5&#45;&gt;Node29</title>
<path fill="none" stroke="midnightblue" d="M3606,-145.9C3916.48,-138.24 4797.63,-115.25 4927,-98 4929.74,-97.63 4932.53,-97.2 4935.35,-96.72"/>
<polygon fill="midnightblue" stroke="midnightblue" points="3605.55,-142.41 3595.64,-146.15 3605.72,-149.4 3605.55,-142.41"/>
</g>
<!-- Node31 -->
<g id="node10" class="node">
<title>Node31</title>
<g id="a_node10"><a xlink:href="../../dc/da3/varc__p_8h.html" target="_top" xlink:title=" ">
<polygon fill="white" stroke="red" points="5060.5,-67.5 5060.5,-97.5 5167.5,-97.5 5167.5,-67.5 5060.5,-67.5"/>
<text text-anchor="start" x="5068.5" y="-85.5" font-family="Helvetica,sans-Serif" font-size="10.00">src/libs/vgeometry</text>
<text text-anchor="middle" x="5114" y="-74.5" font-family="Helvetica,sans-Serif" font-size="10.00">/varc_p.h</text>
</a>
</g>
</g>
<!-- Node5&#45;&gt;Node31 -->
<g id="edge10" class="edge">
<title>Node5&#45;&gt;Node31</title>
<path fill="none" stroke="midnightblue" d="M3605.64,-145.59C3945.96,-136.29 4980.53,-107.42 5052,-98 5054.74,-97.64 5057.54,-97.21 5060.35,-96.73"/>
<polygon fill="midnightblue" stroke="midnightblue" points="3605.43,-142.09 3595.53,-145.86 3605.62,-149.09 3605.43,-142.09"/>
</g>
<!-- Node33 -->
<g id="node11" class="node">
<title>Node33</title>
<g id="a_node11"><a xlink:href="../../d5/d8e/vcubicbezier__p_8h.html" target="_top" xlink:title=" ">
<polygon fill="white" stroke="red" points="5185.5,-67.5 5185.5,-97.5 5292.5,-97.5 5292.5,-67.5 5185.5,-67.5"/>
<text text-anchor="start" x="5193.5" y="-85.5" font-family="Helvetica,sans-Serif" font-size="10.00">src/libs/vgeometry</text>
<text text-anchor="middle" x="5239" y="-74.5" font-family="Helvetica,sans-Serif" font-size="10.00">/vcubicbezier_p.h</text>
</a>
</g>
</g>
<!-- Node5&#45;&gt;Node33 -->
<g id="edge11" class="edge">
<title>Node5&#45;&gt;Node33</title>
<path fill="none" stroke="midnightblue" d="M3605.89,-145.85C3964.63,-136.95 5099.18,-108.17 5177,-98 5179.74,-97.64 5182.54,-97.22 5185.35,-96.74"/>
<polygon fill="midnightblue" stroke="midnightblue" points="3605.68,-142.35 3595.76,-146.1 3605.85,-149.35 3605.68,-142.35"/>
</g>
<!-- Node35 -->
<g id="node12" class="node">
<title>Node35</title>
<g id="a_node12"><a xlink:href="../../df/dde/vellipticalarc__p_8h.html" target="_top" xlink:title=" ">
<polygon fill="white" stroke="black" points="5349.5,-67.5 5349.5,-97.5 5456.5,-97.5 5456.5,-67.5 5349.5,-67.5"/>
<text text-anchor="start" x="5357.5" y="-85.5" font-family="Helvetica,sans-Serif" font-size="10.00">src/libs/vgeometry</text>
<text text-anchor="middle" x="5403" y="-74.5" font-family="Helvetica,sans-Serif" font-size="10.00">/vellipticalarc_p.h</text>
</a>
</g>
</g>
<!-- Node5&#45;&gt;Node35 -->
<g id="edge12" class="edge">
<title>Node5&#45;&gt;Node35</title>
<path fill="none" stroke="midnightblue" d="M3605.85,-145.8C3992.97,-136.08 5291.88,-103.15 5335,-98 5339.67,-97.44 5344.5,-96.72 5349.33,-95.89"/>
<polygon fill="midnightblue" stroke="midnightblue" points="3605.68,-142.3 3595.77,-146.05 3605.86,-149.3 3605.68,-142.3"/>
</g>
<!-- Node36 -->
<g id="node13" class="node">
<title>Node36</title>
<g id="a_node13"><a xlink:href="../../d6/dfb/vellipticalarc_8cpp.html" target="_top" xlink:title=" ">
<polygon fill="white" stroke="black" points="5308.5,-0.5 5308.5,-30.5 5415.5,-30.5 5415.5,-0.5 5308.5,-0.5"/>
<text text-anchor="start" x="5316.5" y="-18.5" font-family="Helvetica,sans-Serif" font-size="10.00">src/libs/vgeometry</text>
<text text-anchor="middle" x="5362" y="-7.5" font-family="Helvetica,sans-Serif" font-size="10.00">/vellipticalarc.cpp</text>
</a>
</g>
</g>
<!-- Node5&#45;&gt;Node36 -->
<g id="edge14" class="edge">
<title>Node5&#45;&gt;Node36</title>
<path fill="none" stroke="midnightblue" d="M3605.79,-145.79C3993.17,-136.03 5292.55,-102.94 5302,-98 5329.71,-83.5 5347.89,-49.76 5356.4,-30.55"/>
<polygon fill="midnightblue" stroke="midnightblue" points="3605.61,-142.3 3595.7,-146.05 3605.78,-149.3 3605.61,-142.3"/>
</g>
<!-- Node37 -->
<g id="node14" class="node">
<title>Node37</title>
<g id="a_node14"><a xlink:href="../../d1/d76/vspline__p_8h.html" target="_top" xlink:title=" ">
<polygon fill="white" stroke="red" points="5474.5,-67.5 5474.5,-97.5 5581.5,-97.5 5581.5,-67.5 5474.5,-67.5"/>
<text text-anchor="start" x="5482.5" y="-85.5" font-family="Helvetica,sans-Serif" font-size="10.00">src/libs/vgeometry</text>
<text text-anchor="middle" x="5528" y="-74.5" font-family="Helvetica,sans-Serif" font-size="10.00">/vspline_p.h</text>
</a>
</g>
</g>
<!-- Node5&#45;&gt;Node37 -->
<g id="edge15" class="edge">
<title>Node5&#45;&gt;Node37</title>
<path fill="none" stroke="midnightblue" d="M3605.69,-145.81C4015.38,-135.56 5454.37,-99.49 5466,-98 5468.74,-97.65 5471.54,-97.23 5474.35,-96.75"/>
<polygon fill="midnightblue" stroke="midnightblue" points="3605.53,-142.31 3595.62,-146.06 3605.71,-149.31 3605.53,-142.31"/>
</g>
<!-- Node39 -->
<g id="node15" class="node">
<title>Node39</title>
<g id="a_node15"><a xlink:href="../../d9/d15/vabstractpiece_8cpp.html" target="_top" xlink:title=" ">
<polygon fill="white" stroke="black" points="5600,-73 5600,-92 5786,-92 5786,-73 5600,-73"/>
<text text-anchor="middle" x="5693" y="-80" font-family="Helvetica,sans-Serif" font-size="10.00">src/libs/vlayout/vabstractpiece.cpp</text>
</a>
</g>
</g>
<!-- Node5&#45;&gt;Node39 -->
<g id="edge16" class="edge">
<title>Node5&#45;&gt;Node39</title>
<path fill="none" stroke="midnightblue" d="M3605.75,-145.83C3724.04,-142.91 3919.54,-138.09 4088,-134 4755.99,-117.79 4925.09,-153.12 5591,-98 5607.49,-96.64 5625.38,-94.36 5641.5,-92.02"/>
<polygon fill="midnightblue" stroke="midnightblue" points="3605.52,-142.34 3595.61,-146.08 3605.69,-149.33 3605.52,-142.34"/>
</g>
<!-- Node19 -->
<g id="node16" class="node">
<title>Node19</title>
<g id="a_node16"><a xlink:href="../../dd/d70/vlayoutpiece_8cpp.html" target="_top" xlink:title=" ">
<polygon fill="white" stroke="black" points="333.5,-73 333.5,-92 510.5,-92 510.5,-73 333.5,-73"/>
<text text-anchor="middle" x="422" y="-80" font-family="Helvetica,sans-Serif" font-size="10.00">src/libs/vlayout/vlayoutpiece.cpp</text>
</a>
</g>
</g>
<!-- Node5&#45;&gt;Node19 -->
<g id="edge17" class="edge">
<title>Node5&#45;&gt;Node19</title>
<path fill="none" stroke="midnightblue" d="M3390.44,-148.55C2926.51,-148.48 1094.41,-145.16 520,-98 503.97,-96.68 486.58,-94.4 470.96,-92.02"/>
<polygon fill="midnightblue" stroke="midnightblue" points="3390.48,-152.05 3400.48,-148.55 3390.48,-145.05 3390.48,-152.05"/>
</g>
<!-- Node20 -->
<g id="node17" class="node">
<title>Node20</title>
<g id="a_node17"><a xlink:href="../../d8/d70/vtextmanager_8cpp.html" target="_top" xlink:title=" ">
<polygon fill="white" stroke="black" points="529,-73 529,-92 711,-92 711,-73 529,-73"/>
<text text-anchor="middle" x="620" y="-80" font-family="Helvetica,sans-Serif" font-size="10.00">src/libs/vlayout/vtextmanager.cpp</text>
</a>
</g>
</g>
<!-- Node5&#45;&gt;Node20 -->
<g id="edge18" class="edge">
<title>Node5&#45;&gt;Node20</title>
<path fill="none" stroke="midnightblue" d="M3390.03,-148.35C2945.2,-147.48 1252.78,-141.3 720,-98 703.65,-96.67 685.91,-94.38 669.96,-92"/>
<polygon fill="midnightblue" stroke="midnightblue" points="3390.3,-151.86 3400.31,-148.37 3390.32,-144.86 3390.3,-151.86"/>
</g>
<!-- Node40 -->
<g id="node18" class="node">
<title>Node40</title>
<g id="a_node18"><a xlink:href="../../d6/d0b/def_8cpp.html" target="_top" xlink:title=" ">
<polygon fill="white" stroke="black" points="5804,-73 5804,-92 5926,-92 5926,-73 5804,-73"/>
<text text-anchor="middle" x="5865" y="-80" font-family="Helvetica,sans-Serif" font-size="10.00">src/libs/vmisc/def.cpp</text>
</a>
</g>
</g>
<!-- Node5&#45;&gt;Node40 -->
<g id="edge19" class="edge">
<title>Node5&#45;&gt;Node40</title>
<path fill="none" stroke="midnightblue" d="M3605.75,-145.74C3724.03,-142.73 3919.54,-137.85 4088,-134 4467.32,-125.34 5417.99,-140.66 5795,-98 5806.47,-96.7 5818.84,-94.43 5829.95,-92.07"/>
<polygon fill="midnightblue" stroke="midnightblue" points="3605.52,-142.24 3595.61,-146 3605.69,-149.24 3605.52,-142.24"/>
</g>
<!-- Node41 -->
<g id="node19" class="node">
<title>Node41</title>
<g id="a_node19"><a xlink:href="../../db/d65/dialogexporttocsv_8cpp.html" target="_top" xlink:title=" ">
<polygon fill="white" stroke="black" points="854.5,-67.5 854.5,-97.5 981.5,-97.5 981.5,-67.5 854.5,-67.5"/>
<text text-anchor="start" x="862.5" y="-85.5" font-family="Helvetica,sans-Serif" font-size="10.00">src/libs/vmisc/dialogs</text>
<text text-anchor="middle" x="918" y="-74.5" font-family="Helvetica,sans-Serif" font-size="10.00">/dialogexporttocsv.cpp</text>
</a>
</g>
</g>
<!-- Node5&#45;&gt;Node41 -->
<g id="edge20" class="edge">
<title>Node5&#45;&gt;Node41</title>
<path fill="none" stroke="midnightblue" d="M3390.24,-148.85C2973.43,-149.83 1466.6,-149.62 991,-98 987.92,-97.67 984.77,-97.27 981.6,-96.82"/>
<polygon fill="midnightblue" stroke="midnightblue" points="3390.48,-152.35 3400.47,-148.83 3390.47,-145.35 3390.48,-152.35"/>
</g>
<!-- Node42 -->
<g id="node20" class="node">
<title>Node42</title>
<g id="a_node20"><a xlink:href="../../d0/df6/vabstractapplication_8cpp.html" target="_top" xlink:title=" ">
<polygon fill="white" stroke="black" points="1000,-73 1000,-92 1206,-92 1206,-73 1000,-73"/>
<text text-anchor="middle" x="1103" y="-80" font-family="Helvetica,sans-Serif" font-size="10.00">src/libs/vmisc/vabstractapplication.cpp</text>
</a>
</g>
</g>
<!-- Node5&#45;&gt;Node42 -->
<g id="edge21" class="edge">
<title>Node5&#45;&gt;Node42</title>
<path fill="none" stroke="midnightblue" d="M3390.2,-147.64C2997.75,-144.28 1645.79,-130.56 1215,-98 1196.92,-96.63 1177.28,-94.36 1159.57,-92.02"/>
<polygon fill="midnightblue" stroke="midnightblue" points="3390.38,-151.14 3400.41,-147.73 3390.44,-144.14 3390.38,-151.14"/>
</g>
<!-- Node43 -->
<g id="node21" class="node">
<title>Node43</title>
<g id="a_node21"><a xlink:href="../../d4/d4f/pmsystems_8cpp.html" target="_top" xlink:title=" ">
<polygon fill="white" stroke="black" points="1224.5,-67.5 1224.5,-97.5 1331.5,-97.5 1331.5,-67.5 1224.5,-67.5"/>
<text text-anchor="start" x="1232.5" y="-85.5" font-family="Helvetica,sans-Serif" font-size="10.00">src/libs/vpatterndb</text>
<text text-anchor="middle" x="1278" y="-74.5" font-family="Helvetica,sans-Serif" font-size="10.00">/pmsystems.cpp</text>
</a>
</g>
</g>
<!-- Node5&#45;&gt;Node43 -->
<g id="edge22" class="edge">
<title>Node5&#45;&gt;Node43</title>
<path fill="none" stroke="midnightblue" d="M3390.23,-148.92C3011.55,-149.92 1743.05,-149.29 1340,-98 1337.26,-97.65 1334.46,-97.23 1331.65,-96.76"/>
<polygon fill="midnightblue" stroke="midnightblue" points="3390.38,-152.42 3400.37,-148.89 3390.36,-145.42 3390.38,-152.42"/>
</g>
<!-- Node5&#45;&gt;Node44 -->
<g id="edge23" class="edge">
<title>Node5&#45;&gt;Node44</title>
<path fill="none" stroke="midnightblue" d="M3605.78,-147.69C4061.62,-144.1 5818.94,-128.41 6065,-98 6068.01,-97.63 6071.08,-97.17 6074.17,-96.66"/>
<polygon fill="midnightblue" stroke="midnightblue" points="3605.56,-144.2 3595.58,-147.77 3605.61,-151.2 3605.56,-144.2"/>
</g>
<!-- Node45 -->
<g id="node23" class="node">
<title>Node45</title>
<g id="a_node23"><a xlink:href="../../df/d7a/vpiece_8cpp.html" target="_top" xlink:title=" ">
<polygon fill="white" stroke="black" points="729.5,-67.5 729.5,-97.5 836.5,-97.5 836.5,-67.5 729.5,-67.5"/>
<text text-anchor="start" x="737.5" y="-85.5" font-family="Helvetica,sans-Serif" font-size="10.00">src/libs/vpatterndb</text>
<text text-anchor="middle" x="783" y="-74.5" font-family="Helvetica,sans-Serif" font-size="10.00">/vpiece.cpp</text>
</a>
</g>
</g>
<!-- Node5&#45;&gt;Node45 -->
<g id="edge24" class="edge">
<title>Node5&#45;&gt;Node45</title>
<path fill="none" stroke="midnightblue" d="M3390.08,-147.79C2924.49,-144.54 1099.89,-129.87 845,-98 842.26,-97.66 839.46,-97.24 836.64,-96.77"/>
<polygon fill="midnightblue" stroke="midnightblue" points="3390.14,-151.29 3400.16,-147.86 3390.19,-144.29 3390.14,-151.29"/>
</g>
<!-- Node5&#45;&gt;Node46 -->
<g id="edge25" class="edge">
<title>Node5&#45;&gt;Node46</title>
<path fill="none" stroke="midnightblue" d="M3390.19,-148.15C2870.12,-146.3 633.03,-136.15 324,-98 321.26,-97.66 318.46,-97.25 315.64,-96.79"/>
<polygon fill="midnightblue" stroke="midnightblue" points="3390.3,-151.65 3400.31,-148.19 3390.32,-144.65 3390.3,-151.65"/>
</g>
<!-- Node47 -->
<g id="node25" class="node">
<title>Node47</title>
<g id="a_node25"><a xlink:href="../../df/dba/vpiecenode__p_8h.html" target="_top" xlink:title=" ">
<polygon fill="white" stroke="red" points="1349.5,-67.5 1349.5,-97.5 1456.5,-97.5 1456.5,-67.5 1349.5,-67.5"/>
<text text-anchor="start" x="1357.5" y="-85.5" font-family="Helvetica,sans-Serif" font-size="10.00">src/libs/vpatterndb</text>
<text text-anchor="middle" x="1403" y="-74.5" font-family="Helvetica,sans-Serif" font-size="10.00">/vpiecenode_p.h</text>
</a>
</g>
</g>
<!-- Node5&#45;&gt;Node47 -->
<g id="edge26" class="edge">
<title>Node5&#45;&gt;Node47</title>
<path fill="none" stroke="midnightblue" d="M3390.32,-148.73C3026.19,-149.07 1842.53,-146.32 1465,-98 1462.26,-97.65 1459.46,-97.23 1456.65,-96.76"/>
<polygon fill="midnightblue" stroke="midnightblue" points="3390.34,-152.23 3400.34,-148.72 3390.33,-145.23 3390.34,-152.23"/>
</g>
<!-- Node5&#45;&gt;Node49 -->
<g id="edge27" class="edge">
<title>Node5&#45;&gt;Node49</title>
<path fill="none" stroke="midnightblue" d="M3605.97,-147.78C4076,-144.46 5931.87,-129.45 6191,-98 6193.94,-97.64 6196.94,-97.21 6199.97,-96.72"/>
<polygon fill="midnightblue" stroke="midnightblue" points="3605.77,-144.28 3595.79,-147.85 3605.82,-151.28 3605.77,-144.28"/>
</g>
<!-- Node22 -->
<g id="node27" class="node">
<title>Node22</title>
<g id="a_node27"><a xlink:href="../../df/d40/export__format__combobox_8cpp.html" target="_top" xlink:title=" ">
<polygon fill="white" stroke="black" points="1474.5,-67.5 1474.5,-97.5 1607.5,-97.5 1607.5,-67.5 1474.5,-67.5"/>
<text text-anchor="start" x="1482.5" y="-85.5" font-family="Helvetica,sans-Serif" font-size="10.00">src/libs/vwidgets/export</text>
<text text-anchor="middle" x="1541" y="-74.5" font-family="Helvetica,sans-Serif" font-size="10.00">_format_combobox.cpp</text>
</a>
</g>
</g>
<!-- Node5&#45;&gt;Node22 -->
<g id="edge28" class="edge">
<title>Node5&#45;&gt;Node22</title>
<path fill="none" stroke="midnightblue" d="M3390.26,-147.9C3044.35,-145.61 1964.35,-135.55 1617,-98 1613.93,-97.67 1610.8,-97.28 1607.64,-96.84"/>
<polygon fill="midnightblue" stroke="midnightblue" points="3390.25,-151.4 3400.27,-147.96 3390.3,-144.4 3390.25,-151.4"/>
</g>
<!-- Node50 -->
<g id="node28" class="node">
<title>Node50</title>
<g id="a_node28"><a xlink:href="../../d3/d4f/mouse__coordinates_8cpp.html" target="_top" xlink:title=" ">
<polygon fill="white" stroke="black" points="1626,-67.5 1626,-97.5 1760,-97.5 1760,-67.5 1626,-67.5"/>
<text text-anchor="start" x="1634" y="-85.5" font-family="Helvetica,sans-Serif" font-size="10.00">src/libs/vwidgets/mouse</text>
<text text-anchor="middle" x="1693" y="-74.5" font-family="Helvetica,sans-Serif" font-size="10.00">_coordinates.cpp</text>
</a>
</g>
</g>
<!-- Node5&#45;&gt;Node50 -->
<g id="edge29" class="edge">
<title>Node5&#45;&gt;Node50</title>
<path fill="none" stroke="midnightblue" d="M3389.85,-147.6C3062.46,-144.51 2085.27,-132.57 1769,-98 1766.06,-97.68 1763.07,-97.31 1760.05,-96.89"/>
<polygon fill="midnightblue" stroke="midnightblue" points="3390.25,-151.1 3400.28,-147.69 3390.31,-144.1 3390.25,-151.1"/>
</g>
<!-- Node25 -->
<g id="node29" class="node">
<title>Node25</title>
<g id="a_node29"><a xlink:href="../../d2/d28/page__format__combobox_8cpp.html" target="_top" xlink:title=" ">
<polygon fill="white" stroke="black" points="1778.5,-67.5 1778.5,-97.5 1909.5,-97.5 1909.5,-67.5 1778.5,-67.5"/>
<text text-anchor="start" x="1786.5" y="-85.5" font-family="Helvetica,sans-Serif" font-size="10.00">src/libs/vwidgets/page</text>
<text text-anchor="middle" x="1844" y="-74.5" font-family="Helvetica,sans-Serif" font-size="10.00">_format_combobox.cpp</text>
</a>
</g>
</g>
<!-- Node5&#45;&gt;Node25 -->
<g id="edge30" class="edge">
<title>Node5&#45;&gt;Node25</title>
<path fill="none" stroke="midnightblue" d="M3390.17,-147.32C3082.47,-143.61 2204.07,-130.38 1918,-98 1915.27,-97.69 1912.49,-97.33 1909.68,-96.94"/>
<polygon fill="midnightblue" stroke="midnightblue" points="3390.39,-150.83 3400.43,-147.45 3390.47,-143.83 3390.39,-150.83"/>
</g>
<!-- Node51 -->
<g id="node30" class="node">
<title>Node51</title>
<g id="a_node30"><a xlink:href="../../d7/d1b/pen__toolbar_8cpp.html" target="_top" xlink:title=" ">
<polygon fill="white" stroke="black" points="1927.5,-67.5 1927.5,-97.5 2046.5,-97.5 2046.5,-67.5 1927.5,-67.5"/>
<text text-anchor="start" x="1935.5" y="-85.5" font-family="Helvetica,sans-Serif" font-size="10.00">src/libs/vwidgets/pen</text>
<text text-anchor="middle" x="1987" y="-74.5" font-family="Helvetica,sans-Serif" font-size="10.00">_toolbar.cpp</text>
</a>
</g>
</g>
<!-- Node5&#45;&gt;Node51 -->
<g id="edge31" class="edge">
<title>Node5&#45;&gt;Node51</title>
<path fill="none" stroke="midnightblue" d="M3390.28,-147.13C3101.43,-143.08 2314.04,-129.39 2056,-98 2052.96,-97.63 2049.86,-97.19 2046.73,-96.71"/>
<polygon fill="midnightblue" stroke="midnightblue" points="3390.3,-150.63 3400.35,-147.27 3390.4,-143.63 3390.3,-150.63"/>
</g>
<!-- Node52 -->
<g id="node31" class="node">
<title>Node52</title>
<g id="a_node31"><a xlink:href="../../d8/d76/scene__rect_8cpp.html" target="_top" xlink:title=" ">
<polygon fill="white" stroke="black" points="2065,-67.5 2065,-97.5 2195,-97.5 2195,-67.5 2065,-67.5"/>
<text text-anchor="start" x="2073" y="-85.5" font-family="Helvetica,sans-Serif" font-size="10.00">src/libs/vwidgets/scene</text>
<text text-anchor="middle" x="2130" y="-74.5" font-family="Helvetica,sans-Serif" font-size="10.00">_rect.cpp</text>
</a>
</g>
</g>
<!-- Node5&#45;&gt;Node52 -->
<g id="edge32" class="edge">
<title>Node5&#45;&gt;Node52</title>
<path fill="none" stroke="midnightblue" d="M3390.15,-146.44C3122.4,-140.97 2432.46,-124.68 2204,-98 2201.14,-97.67 2198.22,-97.28 2195.28,-96.86"/>
<polygon fill="midnightblue" stroke="midnightblue" points="3390.2,-149.94 3400.27,-146.64 3390.34,-142.94 3390.2,-149.94"/>
</g>
<!-- Node53 -->
<g id="node32" class="node">
<title>Node53</title>
<g id="a_node32"><a xlink:href="../../dd/df6/vabstractmainwindow_8cpp.html" target="_top" xlink:title=" ">
<polygon fill="white" stroke="black" points="2213.5,-73 2213.5,-92 2442.5,-92 2442.5,-73 2213.5,-73"/>
<text text-anchor="middle" x="2328" y="-80" font-family="Helvetica,sans-Serif" font-size="10.00">src/libs/vwidgets/vabstractmainwindow.cpp</text>
</a>
</g>
</g>
<!-- Node5&#45;&gt;Node53 -->
<g id="edge33" class="edge">
<title>Node5&#45;&gt;Node53</title>
<path fill="none" stroke="midnightblue" d="M3390.15,-145.76C3200.13,-140.38 2793.36,-126.4 2451,-98 2432.14,-96.44 2411.72,-94.23 2393.03,-92.02"/>
<polygon fill="midnightblue" stroke="midnightblue" points="3390.33,-149.26 3400.42,-146.05 3390.52,-142.27 3390.33,-149.26"/>
</g>
<!-- Node54 -->
<g id="node33" class="node">
<title>Node54</title>
<g id="a_node33"><a xlink:href="../../d1/d90/vgrainlineitem_8cpp.html" target="_top" xlink:title=" ">
<polygon fill="white" stroke="black" points="2460.5,-73 2460.5,-92 2653.5,-92 2653.5,-73 2460.5,-73"/>
<text text-anchor="middle" x="2557" y="-80" font-family="Helvetica,sans-Serif" font-size="10.00">src/libs/vwidgets/vgrainlineitem.cpp</text>
</a>
</g>
</g>
<!-- Node5&#45;&gt;Node54 -->
<g id="edge34" class="edge">
<title>Node5&#45;&gt;Node54</title>
<path fill="none" stroke="midnightblue" d="M3390.15,-144.58C3230.86,-138.21 2923.4,-123.65 2663,-98 2646.83,-96.41 2629.32,-94.21 2613.29,-92.01"/>
<polygon fill="midnightblue" stroke="midnightblue" points="3390.3,-148.09 3400.43,-144.99 3390.58,-141.1 3390.3,-148.09"/>
</g>
<!-- Node55 -->
<g id="node34" class="node">
<title>Node55</title>
<g id="a_node34"><a xlink:href="../../de/dec/vgraphicssimpletextitem_8cpp.html" target="_top" xlink:title=" ">
<polygon fill="white" stroke="black" points="2672,-73 2672,-92 2916,-92 2916,-73 2672,-73"/>
<text text-anchor="middle" x="2794" y="-80" font-family="Helvetica,sans-Serif" font-size="10.00">src/libs/vwidgets/vgraphicssimpletextitem.cpp</text>
</a>
</g>
</g>
<!-- Node5&#45;&gt;Node55 -->
<g id="edge35" class="edge">
<title>Node5&#45;&gt;Node55</title>
<path fill="none" stroke="midnightblue" d="M3390.12,-139.72C3274.89,-130.16 3086.94,-114.1 2925,-98 2906.67,-96.18 2886.91,-94.07 2868.44,-92.03"/>
<polygon fill="midnightblue" stroke="midnightblue" points="3390.1,-143.23 3400.35,-140.56 3390.68,-136.25 3390.1,-143.23"/>
</g>
<!-- Node56 -->
<g id="node35" class="node">
<title>Node56</title>
<g id="a_node35"><a xlink:href="../../d1/d88/vmaingraphicsscene_8cpp.html" target="_top" xlink:title=" ">
<polygon fill="white" stroke="black" points="2934,-73 2934,-92 3156,-92 3156,-73 2934,-73"/>
<text text-anchor="middle" x="3045" y="-80" font-family="Helvetica,sans-Serif" font-size="10.00">src/libs/vwidgets/vmaingraphicsscene.cpp</text>
</a>
</g>
</g>
<!-- Node5&#45;&gt;Node56 -->
<g id="edge36" class="edge">
<title>Node5&#45;&gt;Node56</title>
<path fill="none" stroke="midnightblue" d="M3428.35,-138.51C3339.67,-125.78 3187.96,-104.01 3104.46,-92.03"/>
<polygon fill="midnightblue" stroke="midnightblue" points="3427.92,-141.98 3438.31,-139.94 3428.91,-135.05 3427.92,-141.98"/>
</g>
<!-- Node57 -->
<g id="node36" class="node">
<title>Node57</title>
<g id="a_node36"><a xlink:href="../../de/d45/vcontrolpointspline_8cpp.html" target="_top" xlink:title=" ">
<polygon fill="white" stroke="black" points="3174.5,-73 3174.5,-92 3389.5,-92 3389.5,-73 3174.5,-73"/>
<text text-anchor="middle" x="3282" y="-80" font-family="Helvetica,sans-Serif" font-size="10.00">src/libs/vwidgets/vcontrolpointspline.cpp</text>
</a>
</g>
</g>
<!-- Node5&#45;&gt;Node57 -->
<g id="edge37" class="edge">
<title>Node5&#45;&gt;Node57</title>
<path fill="none" stroke="midnightblue" d="M3459.55,-136.93C3416.78,-124.06 3348.69,-103.57 3310.46,-92.06"/>
<polygon fill="midnightblue" stroke="midnightblue" points="3458.73,-140.34 3469.32,-139.87 3460.75,-133.64 3458.73,-140.34"/>
</g>
<!-- Node58 -->
<g id="node37" class="node">
<title>Node58</title>
<g id="a_node37"><a xlink:href="../../d0/d5d/vscenepoint_8cpp.html" target="_top" xlink:title=" ">
<polygon fill="white" stroke="black" points="3407.5,-73 3407.5,-92 3588.5,-92 3588.5,-73 3407.5,-73"/>
<text text-anchor="middle" x="3498" y="-80" font-family="Helvetica,sans-Serif" font-size="10.00">src/libs/vwidgets/vscenepoint.cpp</text>
</a>
</g>
</g>
<!-- Node5&#45;&gt;Node58 -->
<g id="edge38" class="edge">
<title>Node5&#45;&gt;Node58</title>
<path fill="none" stroke="midnightblue" d="M3498,-129.54C3498,-117.17 3498,-101.62 3498,-92.13"/>
<polygon fill="midnightblue" stroke="midnightblue" points="3494.5,-129.73 3498,-139.73 3501.5,-129.73 3494.5,-129.73"/>
</g>
<!-- Node26 -->
<g id="node38" class="node">
<title>Node26</title>
<g id="a_node38"><a xlink:href="../../de/d22/vsimplecurve_8cpp.html" target="_top" xlink:title=" ">
<polygon fill="white" stroke="black" points="3607,-73 3607,-92 3795,-92 3795,-73 3607,-73"/>
<text text-anchor="middle" x="3701" y="-80" font-family="Helvetica,sans-Serif" font-size="10.00">src/libs/vwidgets/vsimplecurve.cpp</text>
</a>
</g>
</g>
<!-- Node5&#45;&gt;Node26 -->
<g id="edge39" class="edge">
<title>Node5&#45;&gt;Node26</title>
<path fill="none" stroke="midnightblue" d="M3534.65,-136.77C3574.87,-123.89 3638.47,-103.52 3674.25,-92.06"/>
<polygon fill="midnightblue" stroke="midnightblue" points="3533.41,-133.49 3524.96,-139.87 3535.55,-140.15 3533.41,-133.49"/>
</g>
<!-- Node59 -->
<g id="node39" class="node">
<title>Node59</title>
<g id="a_node39"><a xlink:href="../../df/d38/vsimplepoint_8cpp.html" target="_top" xlink:title=" ">
<polygon fill="white" stroke="black" points="3813.5,-73 3813.5,-92 3998.5,-92 3998.5,-73 3813.5,-73"/>
<text text-anchor="middle" x="3906" y="-80" font-family="Helvetica,sans-Serif" font-size="10.00">src/libs/vwidgets/vsimplepoint.cpp</text>
</a>
</g>
</g>
<!-- Node5&#45;&gt;Node59 -->
<g id="edge40" class="edge">
<title>Node5&#45;&gt;Node59</title>
<path fill="none" stroke="midnightblue" d="M3561.71,-138.35C3641.71,-125.6 3777.54,-103.96 3852.45,-92.03"/>
<polygon fill="midnightblue" stroke="midnightblue" points="3561.08,-134.91 3551.76,-139.94 3562.18,-141.82 3561.08,-134.91"/>
</g>
<!-- Node60 -->
<g id="node40" class="node">
<title>Node60</title>
<g id="a_node40"><a xlink:href="../../d2/d31/vmaingraphicsview_8cpp.html" target="_top" xlink:title=" ">
<polygon fill="white" stroke="black" points="4017,-73 4017,-92 4233,-92 4233,-73 4017,-73"/>
<text text-anchor="middle" x="4125" y="-80" font-family="Helvetica,sans-Serif" font-size="10.00">src/libs/vwidgets/vmaingraphicsview.cpp</text>
</a>
</g>
</g>
<!-- Node5&#45;&gt;Node60 -->
<g id="edge41" class="edge">
<title>Node5&#45;&gt;Node60</title>
<path fill="none" stroke="midnightblue" d="M3600.56,-139.03C3703.4,-129.38 3866.28,-113.62 4007,-98 4023.51,-96.17 4041.31,-94.05 4057.95,-92.02"/>
<polygon fill="midnightblue" stroke="midnightblue" points="3600.11,-135.56 3590.48,-139.98 3600.77,-142.53 3600.11,-135.56"/>
</g>
<!-- Node61 -->
<g id="node41" class="node">
<title>Node61</title>
<g id="a_node41"><a xlink:href="../../df/df5/vtextgraphicsitem_8cpp.html" target="_top" xlink:title=" ">
<polygon fill="white" stroke="black" points="4251.5,-73 4251.5,-92 4462.5,-92 4462.5,-73 4251.5,-73"/>
<text text-anchor="middle" x="4357" y="-80" font-family="Helvetica,sans-Serif" font-size="10.00">src/libs/vwidgets/vtextgraphicsitem.cpp</text>
</a>
</g>
</g>
<!-- Node5&#45;&gt;Node61 -->
<g id="edge42" class="edge">
<title>Node5&#45;&gt;Node61</title>
<path fill="none" stroke="midnightblue" d="M3605.86,-143.13C3750.74,-135.48 4016.12,-119.89 4242,-98 4259.13,-96.34 4277.64,-94.17 4294.7,-92.02"/>
<polygon fill="midnightblue" stroke="midnightblue" points="3605.44,-139.65 3595.64,-143.67 3605.81,-146.64 3605.44,-139.65"/>
</g>
<!-- Node35&#45;&gt;Node36 -->
<g id="edge13" class="edge">
<title>Node35&#45;&gt;Node36</title>
<path fill="none" stroke="midnightblue" d="M5388.72,-58.87C5382.79,-49.46 5376.09,-38.83 5370.88,-30.58"/>
<polygon fill="midnightblue" stroke="midnightblue" points="5385.81,-60.81 5394.1,-67.4 5391.73,-57.07 5385.81,-60.81"/>
</g>
<!-- Node62&#45;&gt;Node4 -->
<g id="edge45" class="edge">
<title>Node62&#45;&gt;Node4</title>
<path fill="none" stroke="midnightblue" d="M846.81,-214.61C1152.74,-210.31 2500.02,-190.75 3604,-165 3863.04,-158.96 5677.89,-130.08 5935,-98 5937.87,-97.64 5940.8,-97.22 5943.74,-96.74"/>
<polygon fill="midnightblue" stroke="midnightblue" points="846.74,-211.11 836.79,-214.75 846.84,-218.11 846.74,-211.11"/>
</g>
<!-- Node62&#45;&gt;Node5 -->
<g id="edge52" class="edge">
<title>Node62&#45;&gt;Node5</title>
<path fill="none" stroke="midnightblue" d="M846.81,-213.97C1204.97,-205.4 2964.84,-163.26 3400.37,-152.84"/>
<polygon fill="midnightblue" stroke="midnightblue" points="846.54,-210.48 836.62,-214.22 846.7,-217.48 846.54,-210.48"/>
</g>
<!-- Node62&#45;&gt;Node20 -->
<g id="edge51" class="edge">
<title>Node62&#45;&gt;Node20</title>
<path fill="none" stroke="midnightblue" d="M770.18,-192.39C759.43,-174.63 742.68,-150.44 723,-134 699.77,-114.59 667.81,-100.43 645.68,-92.12"/>
<polygon fill="midnightblue" stroke="midnightblue" points="767.45,-194.64 775.52,-201.5 773.49,-191.1 767.45,-194.64"/>
</g>
<!-- Node62&#45;&gt;Node44 -->
<g id="edge54" class="edge">
<title>Node62&#45;&gt;Node44</title>
<path fill="none" stroke="midnightblue" d="M846.75,-215.17C1196.49,-213.22 2917.71,-202.08 4324,-165 5098.08,-144.59 5297.42,-200.18 6065,-98 6068,-97.6 6071.07,-97.12 6074.17,-96.59"/>
<polygon fill="midnightblue" stroke="midnightblue" points="846.55,-211.67 836.57,-215.22 846.58,-218.67 846.55,-211.67"/>
</g>
<!-- Node62&#45;&gt;Node45 -->
<g id="edge55" class="edge">
<title>Node62&#45;&gt;Node45</title>
<path fill="none" stroke="midnightblue" d="M783,-191.02C783,-163.51 783,-119.79 783,-97.52"/>
<polygon fill="midnightblue" stroke="midnightblue" points="779.5,-191.37 783,-201.37 786.5,-191.37 779.5,-191.37"/>
</g>
<!-- Node62&#45;&gt;Node46 -->
<g id="edge56" class="edge">
<title>Node62&#45;&gt;Node46</title>
<path fill="none" stroke="midnightblue" d="M719.36,-208.86C668.99,-202.07 597.61,-189.01 539,-165 515.5,-155.37 514.46,-143.72 491,-134 420.86,-104.93 398.08,-114.65 324,-98 321.3,-97.39 318.54,-96.77 315.76,-96.13"/>
<polygon fill="midnightblue" stroke="midnightblue" points="719.1,-212.35 729.46,-210.17 720,-205.41 719.1,-212.35"/>
</g>
<!-- Node63 -->
<g id="node43" class="node">
<title>Node63</title>
<g id="a_node43"><a xlink:href="../../dc/db7/measurements_8h.html" target="_top" xlink:title=" ">
<polygon fill="white" stroke="black" points="303.5,-140 303.5,-159 482.5,-159 482.5,-140 303.5,-140"/>
<text text-anchor="middle" x="393" y="-147" font-family="Helvetica,sans-Serif" font-size="10.00">src/libs/vformat/measurements.h</text>
</a>
</g>
</g>
<!-- Node62&#45;&gt;Node63 -->
<g id="edge46" class="edge">
<title>Node62&#45;&gt;Node63</title>
<path fill="none" stroke="midnightblue" d="M719.15,-204.86C642.29,-192.05 514.76,-170.79 444.1,-159.02"/>
<polygon fill="midnightblue" stroke="midnightblue" points="718.74,-208.34 729.18,-206.53 719.89,-201.43 718.74,-208.34"/>
</g>
<!-- Node64 -->
<g id="node44" class="node">
<title>Node64</title>
<g id="a_node44"><a xlink:href="../../d9/de3/measurements_8cpp.html" target="_top" xlink:title=" ">
<polygon fill="white" stroke="black" points="0,-73 0,-92 190,-92 190,-73 0,-73"/>
<text text-anchor="middle" x="95" y="-80" font-family="Helvetica,sans-Serif" font-size="10.00">src/libs/vformat/measurements.cpp</text>
</a>
</g>
</g>
<!-- Node62&#45;&gt;Node64 -->
<g id="edge48" class="edge">
<title>Node62&#45;&gt;Node64</title>
<path fill="none" stroke="midnightblue" d="M719.08,-214.68C624.72,-212.19 443.21,-202.43 294,-165 223.21,-147.24 144.48,-109.07 111.23,-92.03"/>
<polygon fill="midnightblue" stroke="midnightblue" points="719.23,-218.19 729.31,-214.94 719.4,-211.19 719.23,-218.19"/>
</g>
<!-- Node10 -->
<g id="node45" class="node">
<title>Node10</title>
<g id="a_node45"><a xlink:href="../../d6/de0/vlayoutpiece_8h.html" target="_top" xlink:title=" ">
<polygon fill="white" stroke="red" points="548,-140 548,-159 714,-159 714,-140 548,-140"/>
<text text-anchor="middle" x="631" y="-147" font-family="Helvetica,sans-Serif" font-size="10.00">src/libs/vlayout/vlayoutpiece.h</text>
</a>
</g>
</g>
<!-- Node62&#45;&gt;Node10 -->
<g id="edge49" class="edge">
<title>Node62&#45;&gt;Node10</title>
<path fill="none" stroke="midnightblue" d="M740.81,-197.46C711.44,-184.9 673.62,-168.72 650.89,-159.01"/>
<polygon fill="midnightblue" stroke="midnightblue" points="739.45,-200.68 750.02,-201.4 742.2,-194.25 739.45,-200.68"/>
</g>
<!-- Node65 -->
<g id="node46" class="node">
<title>Node65</title>
<g id="a_node46"><a xlink:href="../../d3/d02/custom__variable__p_8h.html" target="_top" xlink:title=" ">
<polygon fill="white" stroke="red" points="810.5,-134.5 810.5,-164.5 979.5,-164.5 979.5,-134.5 810.5,-134.5"/>
<text text-anchor="start" x="818.5" y="-152.5" font-family="Helvetica,sans-Serif" font-size="10.00">src/libs/vpatterndb</text>
<text text-anchor="middle" x="895" y="-141.5" font-family="Helvetica,sans-Serif" font-size="10.00">/variables/custom_variable_p.h</text>
</a>
</g>
</g>
<!-- Node62&#45;&gt;Node65 -->
<g id="edge53" class="edge">
<title>Node62&#45;&gt;Node65</title>
<path fill="none" stroke="midnightblue" d="M816.09,-196.3C833.62,-186.12 854.76,-173.85 870.75,-164.58"/>
<polygon fill="midnightblue" stroke="midnightblue" points="814.19,-193.35 807.3,-201.4 817.71,-199.4 814.19,-193.35"/>
</g>
<!-- Node63&#45;&gt;Node64 -->
<g id="edge47" class="edge">
<title>Node63&#45;&gt;Node64</title>
<path fill="none" stroke="midnightblue" d="M343.96,-137.8C285.32,-125.01 188.33,-103.86 134.35,-92.08"/>
<polygon fill="midnightblue" stroke="midnightblue" points="343.22,-141.22 353.74,-139.94 344.71,-134.38 343.22,-141.22"/>
</g>
<!-- Node10&#45;&gt;Node19 -->
<g id="edge50" class="edge">
<title>Node10&#45;&gt;Node19</title>
<path fill="none" stroke="midnightblue" d="M593.53,-136.85C552.13,-123.97 486.45,-103.55 449.54,-92.06"/>
<polygon fill="midnightblue" stroke="midnightblue" points="592.66,-140.24 603.25,-139.87 594.74,-133.56 592.66,-140.24"/>
</g>
</g>
</svg>
