<?xml version="1.0" encoding="UTF-8" standalone="no"?>
<!DOCTYPE svg PUBLIC "-//W3C//DTD SVG 1.1//EN"
 "http://www.w3.org/Graphics/SVG/1.1/DTD/svg11.dtd">
<!-- Generated by graphviz version 2.43.0 (0)
 -->
<!-- Title: src/libs/vmisc/vcommonsettings.h Pages: 1 -->
<svg width="6266pt" height="285pt"
 viewBox="0.00 0.00 6266.00 285.00" xmlns="http://www.w3.org/2000/svg" xmlns:xlink="http://www.w3.org/1999/xlink">
<g id="graph0" class="graph" transform="scale(1 1) rotate(0) translate(4 281)">
<title>src/libs/vmisc/vcommonsettings.h</title>
<polygon fill="white" stroke="transparent" points="-4,4 -4,-281 6262,-281 6262,4 -4,4"/>
<!-- Node1 -->
<g id="node1" class="node">
<title>Node1</title>
<g id="a_node1"><a xlink:title=" ">
<polygon fill="#bfbfbf" stroke="black" points="3894,-257.5 3894,-276.5 4077,-276.5 4077,-257.5 3894,-257.5"/>
<text text-anchor="middle" x="3985.5" y="-264.5" font-family="Helvetica,sans-Serif" font-size="10.00">src/libs/vmisc/vcommonsettings.h</text>
</a>
</g>
</g>
<!-- Node2 -->
<g id="node2" class="node">
<title>Node2</title>
<g id="a_node2"><a xlink:href="../../d4/d90/fvupdater_8cpp.html" target="_top" xlink:title=" ">
<polygon fill="white" stroke="black" points="0,-73 0,-92 153,-92 153,-73 0,-73"/>
<text text-anchor="middle" x="76.5" y="-80" font-family="Helvetica,sans-Serif" font-size="10.00">src/libs/fervor/fvupdater.cpp</text>
</a>
</g>
</g>
<!-- Node1&#45;&gt;Node2 -->
<g id="edge1" class="edge">
<title>Node1&#45;&gt;Node2</title>
<path fill="none" stroke="midnightblue" d="M3883.7,-266.15C3484.09,-266.05 1984.41,-259.04 754.5,-165 490.04,-144.78 424.11,-135.2 161.5,-98 149.2,-96.26 135.94,-94.12 123.63,-92.03"/>
<polygon fill="midnightblue" stroke="midnightblue" points="3883.78,-269.65 3893.78,-266.16 3883.78,-262.65 3883.78,-269.65"/>
</g>
<!-- Node3 -->
<g id="node3" class="node">
<title>Node3</title>
<g id="a_node3"><a xlink:href="../../dd/d70/vlayoutpiece_8cpp.html" target="_top" xlink:title=" ">
<polygon fill="white" stroke="black" points="171,-73 171,-92 348,-92 348,-73 171,-73"/>
<text text-anchor="middle" x="259.5" y="-80" font-family="Helvetica,sans-Serif" font-size="10.00">src/libs/vlayout/vlayoutpiece.cpp</text>
</a>
</g>
</g>
<!-- Node1&#45;&gt;Node3 -->
<g id="edge2" class="edge">
<title>Node1&#45;&gt;Node3</title>
<path fill="none" stroke="midnightblue" d="M3883.52,-262.99C3665.58,-256.45 3138.32,-239.97 2696.5,-221 1656.02,-176.33 1392.61,-203.17 356.5,-98 341.42,-96.47 325.11,-94.25 310.23,-92.01"/>
<polygon fill="midnightblue" stroke="midnightblue" points="3883.56,-266.5 3893.66,-263.3 3883.77,-259.5 3883.56,-266.5"/>
</g>
<!-- Node4 -->
<g id="node4" class="node">
<title>Node4</title>
<g id="a_node4"><a xlink:href="../../d5/d74/vabstractapplication_8h.html" target="_top" xlink:title=" ">
<polygon fill="white" stroke="black" points="2942,-140 2942,-159 3137,-159 3137,-140 2942,-140"/>
<text text-anchor="middle" x="3039.5" y="-147" font-family="Helvetica,sans-Serif" font-size="10.00">src/libs/vmisc/vabstractapplication.h</text>
</a>
</g>
</g>
<!-- Node1&#45;&gt;Node4 -->
<g id="edge3" class="edge">
<title>Node1&#45;&gt;Node4</title>
<path fill="none" stroke="midnightblue" d="M3905.52,-256.23C3723.59,-234.02 3281.26,-180.02 3109.41,-159.04"/>
<polygon fill="midnightblue" stroke="midnightblue" points="3905.2,-259.72 3915.55,-257.46 3906.05,-252.77 3905.2,-259.72"/>
</g>
<!-- Node22 -->
<g id="node22" class="node">
<title>Node22</title>
<g id="a_node22"><a xlink:href="../../db/d11/vformula_8cpp.html" target="_top" xlink:title=" ">
<polygon fill="white" stroke="black" points="366,-67.5 366,-97.5 473,-97.5 473,-67.5 366,-67.5"/>
<text text-anchor="start" x="374" y="-85.5" font-family="Helvetica,sans-Serif" font-size="10.00">src/libs/vpatterndb</text>
<text text-anchor="middle" x="419.5" y="-74.5" font-family="Helvetica,sans-Serif" font-size="10.00">/vformula.cpp</text>
</a>
</g>
</g>
<!-- Node1&#45;&gt;Node22 -->
<g id="edge55" class="edge">
<title>Node1&#45;&gt;Node22</title>
<path fill="none" stroke="midnightblue" d="M3883.73,-261.63C3709.56,-254.06 3343.11,-237.7 3033.5,-221 2395.04,-186.57 2236.2,-163.64 1597.5,-134 1101.78,-110.99 973.51,-162.82 481.5,-98 478.76,-97.64 475.96,-97.21 473.15,-96.73"/>
<polygon fill="midnightblue" stroke="midnightblue" points="3883.77,-265.14 3893.91,-262.08 3884.07,-258.14 3883.77,-265.14"/>
</g>
<!-- Node25 -->
<g id="node25" class="node">
<title>Node25</title>
<g id="a_node25"><a xlink:href="../../df/dba/vpiecenode__p_8h.html" target="_top" xlink:title=" ">
<polygon fill="white" stroke="black" points="491,-67.5 491,-97.5 598,-97.5 598,-67.5 491,-67.5"/>
<text text-anchor="start" x="499" y="-85.5" font-family="Helvetica,sans-Serif" font-size="10.00">src/libs/vpatterndb</text>
<text text-anchor="middle" x="544.5" y="-74.5" font-family="Helvetica,sans-Serif" font-size="10.00">/vpiecenode_p.h</text>
</a>
</g>
</g>
<!-- Node1&#45;&gt;Node25 -->
<g id="edge56" class="edge">
<title>Node1&#45;&gt;Node25</title>
<path fill="none" stroke="midnightblue" d="M3883.59,-260.57C3742.91,-252.87 3481.32,-237.84 3258.5,-221 3150.16,-212.81 2392.99,-140 2284.5,-134 1912.09,-113.4 976.54,-144.72 606.5,-98 603.76,-97.65 600.96,-97.24 598.14,-96.77"/>
<polygon fill="midnightblue" stroke="midnightblue" points="3883.74,-264.08 3893.92,-261.13 3884.13,-257.09 3883.74,-264.08"/>
</g>
<!-- Node28 -->
<g id="node28" class="node">
<title>Node28</title>
<g id="a_node28"><a xlink:href="../../df/d40/export__format__combobox_8cpp.html" target="_top" xlink:title=" ">
<polygon fill="white" stroke="black" points="616,-67.5 616,-97.5 749,-97.5 749,-67.5 616,-67.5"/>
<text text-anchor="start" x="624" y="-85.5" font-family="Helvetica,sans-Serif" font-size="10.00">src/libs/vwidgets/export</text>
<text text-anchor="middle" x="682.5" y="-74.5" font-family="Helvetica,sans-Serif" font-size="10.00">_format_combobox.cpp</text>
</a>
</g>
</g>
<!-- Node1&#45;&gt;Node28 -->
<g id="edge57" class="edge">
<title>Node1&#45;&gt;Node28</title>
<path fill="none" stroke="midnightblue" d="M3883.78,-258.11C3776.48,-249.63 3602.5,-235.41 3452.5,-221 3221.12,-198.78 3163.6,-190.01 2932.5,-165 2805.83,-151.29 2774.66,-142.11 2647.5,-134 2228.28,-107.26 1175.26,-142.03 757.5,-98 754.73,-97.71 751.91,-97.37 749.07,-96.99"/>
<polygon fill="midnightblue" stroke="midnightblue" points="3883.71,-261.62 3893.96,-258.92 3884.26,-254.64 3883.71,-261.62"/>
</g>
<!-- Node35 -->
<g id="node35" class="node">
<title>Node35</title>
<g id="a_node35"><a xlink:href="../../d1/d88/vmaingraphicsscene_8cpp.html" target="_top" xlink:title=" ">
<polygon fill="white" stroke="black" points="4792.5,-73 4792.5,-92 5014.5,-92 5014.5,-73 4792.5,-73"/>
<text text-anchor="middle" x="4903.5" y="-80" font-family="Helvetica,sans-Serif" font-size="10.00">src/libs/vwidgets/vmaingraphicsscene.cpp</text>
</a>
</g>
</g>
<!-- Node1&#45;&gt;Node35 -->
<g id="edge58" class="edge">
<title>Node1&#45;&gt;Node35</title>
<path fill="none" stroke="midnightblue" d="M3982.45,-247.07C3978.95,-217.84 3977.31,-162.16 4009.5,-134 4041.9,-105.66 4740.6,-101.58 4783.5,-98 4802.01,-96.45 4822.06,-94.24 4840.38,-92.01"/>
<polygon fill="midnightblue" stroke="midnightblue" points="3979.01,-247.77 3983.87,-257.18 3985.95,-246.79 3979.01,-247.77"/>
</g>
<!-- Node36 -->
<g id="node36" class="node">
<title>Node36</title>
<g id="a_node36"><a xlink:href="../../d2/d31/vmaingraphicsview_8cpp.html" target="_top" xlink:title=" ">
<polygon fill="white" stroke="black" points="5032.5,-73 5032.5,-92 5248.5,-92 5248.5,-73 5032.5,-73"/>
<text text-anchor="middle" x="5140.5" y="-80" font-family="Helvetica,sans-Serif" font-size="10.00">src/libs/vwidgets/vmaingraphicsview.cpp</text>
</a>
</g>
</g>
<!-- Node1&#45;&gt;Node36 -->
<g id="edge59" class="edge">
<title>Node1&#45;&gt;Node36</title>
<path fill="none" stroke="midnightblue" d="M3990.8,-247.59C4000.69,-214.57 4022.79,-147.48 4042.5,-134 4087.51,-103.21 4969.14,-102.36 5023.5,-98 5041.86,-96.53 5061.77,-94.3 5079.88,-92.03"/>
<polygon fill="midnightblue" stroke="midnightblue" points="3987.39,-246.77 3987.93,-257.35 3994.1,-248.74 3987.39,-246.77"/>
</g>
<!-- Node39 -->
<g id="node39" class="node">
<title>Node39</title>
<g id="a_node39"><a xlink:href="../../d1/d90/vgrainlineitem_8cpp.html" target="_top" xlink:title=" ">
<polygon fill="white" stroke="black" points="5267,-73 5267,-92 5460,-92 5460,-73 5267,-73"/>
<text text-anchor="middle" x="5363.5" y="-80" font-family="Helvetica,sans-Serif" font-size="10.00">src/libs/vwidgets/vgrainlineitem.cpp</text>
</a>
</g>
</g>
<!-- Node1&#45;&gt;Node39 -->
<g id="edge60" class="edge">
<title>Node1&#45;&gt;Node39</title>
<path fill="none" stroke="midnightblue" d="M4087.54,-257.83C4126.51,-251.55 4170.25,-240.48 4206.5,-221 4254.67,-195.11 4243.38,-155.87 4293.5,-134 4391.74,-91.14 5150.72,-107.27 5257.5,-98 5274.25,-96.55 5292.4,-94.31 5308.87,-92.02"/>
<polygon fill="midnightblue" stroke="midnightblue" points="4086.58,-254.44 4077.22,-259.41 4087.63,-261.36 4086.58,-254.44"/>
</g>
<!-- Node41 -->
<g id="node41" class="node">
<title>Node41</title>
<g id="a_node41"><a xlink:href="../../df/df5/vtextgraphicsitem_8cpp.html" target="_top" xlink:title=" ">
<polygon fill="white" stroke="black" points="5478,-73 5478,-92 5689,-92 5689,-73 5478,-73"/>
<text text-anchor="middle" x="5583.5" y="-80" font-family="Helvetica,sans-Serif" font-size="10.00">src/libs/vwidgets/vtextgraphicsitem.cpp</text>
</a>
</g>
</g>
<!-- Node1&#45;&gt;Node41 -->
<g id="edge61" class="edge">
<title>Node1&#45;&gt;Node41</title>
<path fill="none" stroke="midnightblue" d="M4044.8,-255.7C4094.89,-246.88 4168.49,-233.64 4232.5,-221 4274.4,-212.73 4284.27,-207.37 4326.5,-201 4830.85,-124.9 4962.42,-153.08 5469.5,-98 5485.86,-96.22 5503.52,-94.08 5519.94,-92"/>
<polygon fill="midnightblue" stroke="midnightblue" points="4044.03,-252.28 4034.79,-257.46 4045.24,-259.18 4044.03,-252.28"/>
</g>
<!-- Node42 -->
<g id="node42" class="node">
<title>Node42</title>
<g id="a_node42"><a xlink:href="../../df/da4/vseamlymesettings_8h.html" target="_top" xlink:title=" ">
<polygon fill="white" stroke="black" points="4335.5,-201.5 4335.5,-220.5 4527.5,-220.5 4527.5,-201.5 4335.5,-201.5"/>
<text text-anchor="middle" x="4431.5" y="-208.5" font-family="Helvetica,sans-Serif" font-size="10.00">src/libs/vmisc/vseamlymesettings.h</text>
</a>
</g>
</g>
<!-- Node1&#45;&gt;Node42 -->
<g id="edge44" class="edge">
<title>Node1&#45;&gt;Node42</title>
<path fill="none" stroke="midnightblue" d="M4066.2,-256.23C4150.39,-246.04 4281.05,-230.22 4361.16,-220.52"/>
<polygon fill="midnightblue" stroke="midnightblue" points="4065.68,-252.77 4056.17,-257.44 4066.52,-259.72 4065.68,-252.77"/>
</g>
<!-- Node44 -->
<g id="node44" class="node">
<title>Node44</title>
<g id="a_node44"><a xlink:href="../../dd/db2/vsettings_8h.html" target="_top" xlink:title=" ">
<polygon fill="white" stroke="black" points="4057.5,-201.5 4057.5,-220.5 4197.5,-220.5 4197.5,-201.5 4057.5,-201.5"/>
<text text-anchor="middle" x="4127.5" y="-208.5" font-family="Helvetica,sans-Serif" font-size="10.00">src/libs/vmisc/vsettings.h</text>
</a>
</g>
</g>
<!-- Node1&#45;&gt;Node44 -->
<g id="edge46" class="edge">
<title>Node1&#45;&gt;Node44</title>
<path fill="none" stroke="midnightblue" d="M4017.66,-253.77C4044.33,-243.63 4081.57,-229.47 4105.1,-220.52"/>
<polygon fill="midnightblue" stroke="midnightblue" points="4016.1,-250.62 4008,-257.44 4018.59,-257.16 4016.1,-250.62"/>
</g>
<!-- Node70 -->
<g id="node50" class="node">
<title>Node70</title>
<g id="a_node50"><a xlink:href="../../d4/d11/vcommonsettings_8cpp.html" target="_top" xlink:title=" ">
<polygon fill="white" stroke="black" points="4545.5,-201.5 4545.5,-220.5 4739.5,-220.5 4739.5,-201.5 4545.5,-201.5"/>
<text text-anchor="middle" x="4642.5" y="-208.5" font-family="Helvetica,sans-Serif" font-size="10.00">src/libs/vmisc/vcommonsettings.cpp</text>
</a>
</g>
</g>
<!-- Node1&#45;&gt;Node70 -->
<g id="edge54" class="edge">
<title>Node1&#45;&gt;Node70</title>
<path fill="none" stroke="midnightblue" d="M4087.3,-257.78C4197.88,-248.84 4379.75,-234.06 4536.5,-221 4539.44,-220.75 4542.44,-220.5 4545.46,-220.25"/>
<polygon fill="midnightblue" stroke="midnightblue" points="4086.84,-254.31 4077.15,-258.61 4087.4,-261.29 4086.84,-254.31"/>
</g>
<!-- Node4&#45;&gt;Node2 -->
<g id="edge4" class="edge">
<title>Node4&#45;&gt;Node2</title>
<path fill="none" stroke="midnightblue" d="M2931.79,-148.79C2477.33,-149.7 714.55,-149.72 161.5,-98 147.64,-96.7 132.63,-94.44 119.14,-92.07"/>
<polygon fill="midnightblue" stroke="midnightblue" points="2931.96,-152.29 2941.96,-148.77 2931.95,-145.29 2931.96,-152.29"/>
</g>
<!-- Node4&#45;&gt;Node3 -->
<g id="edge18" class="edge">
<title>Node4&#45;&gt;Node3</title>
<path fill="none" stroke="midnightblue" d="M2931.59,-147.3C2462.87,-141.96 615.59,-119.71 356.5,-98 340.72,-96.68 323.6,-94.4 308.2,-92.04"/>
<polygon fill="midnightblue" stroke="midnightblue" points="2931.7,-150.8 2941.74,-147.41 2931.78,-143.8 2931.7,-150.8"/>
</g>
<!-- Node5 -->
<g id="node5" class="node">
<title>Node5</title>
<g id="a_node5"><a xlink:href="../../d9/dc8/dxiface_8cpp.html" target="_top" xlink:title=" ">
<polygon fill="white" stroke="black" points="3061,-73 3061,-92 3196,-92 3196,-73 3061,-73"/>
<text text-anchor="middle" x="3128.5" y="-80" font-family="Helvetica,sans-Serif" font-size="10.00">src/libs/vdxf/dxiface.cpp</text>
</a>
</g>
</g>
<!-- Node4&#45;&gt;Node5 -->
<g id="edge5" class="edge">
<title>Node4&#45;&gt;Node5</title>
<path fill="none" stroke="midnightblue" d="M3059.95,-133.57C3077.51,-120.74 3102.23,-102.69 3116.69,-92.13"/>
<polygon fill="midnightblue" stroke="midnightblue" points="3057.51,-131.01 3051.5,-139.73 3061.64,-136.66 3057.51,-131.01"/>
</g>
<!-- Node6 -->
<g id="node6" class="node">
<title>Node6</title>
<g id="a_node6"><a xlink:href="../../da/d75/vabstractarc__p_8h.html" target="_top" xlink:title=" ">
<polygon fill="white" stroke="black" points="3214,-67.5 3214,-97.5 3321,-97.5 3321,-67.5 3214,-67.5"/>
<text text-anchor="start" x="3222" y="-85.5" font-family="Helvetica,sans-Serif" font-size="10.00">src/libs/vgeometry</text>
<text text-anchor="middle" x="3267.5" y="-74.5" font-family="Helvetica,sans-Serif" font-size="10.00">/vabstractarc_p.h</text>
</a>
</g>
</g>
<!-- Node4&#45;&gt;Node6 -->
<g id="edge6" class="edge">
<title>Node4&#45;&gt;Node6</title>
<path fill="none" stroke="midnightblue" d="M3079.64,-137.06C3118.29,-126.04 3176.85,-109.34 3218.29,-97.53"/>
<polygon fill="midnightblue" stroke="midnightblue" points="3078.43,-133.76 3069.78,-139.87 3080.35,-140.49 3078.43,-133.76"/>
</g>
<!-- Node8 -->
<g id="node8" class="node">
<title>Node8</title>
<g id="a_node8"><a xlink:href="../../dc/da3/varc__p_8h.html" target="_top" xlink:title=" ">
<polygon fill="white" stroke="black" points="3339,-67.5 3339,-97.5 3446,-97.5 3446,-67.5 3339,-67.5"/>
<text text-anchor="start" x="3347" y="-85.5" font-family="Helvetica,sans-Serif" font-size="10.00">src/libs/vgeometry</text>
<text text-anchor="middle" x="3392.5" y="-74.5" font-family="Helvetica,sans-Serif" font-size="10.00">/varc_p.h</text>
</a>
</g>
</g>
<!-- Node4&#45;&gt;Node8 -->
<g id="edge8" class="edge">
<title>Node4&#45;&gt;Node8</title>
<path fill="none" stroke="midnightblue" d="M3103.55,-138.36C3162.43,-128.8 3252.08,-113.64 3329.5,-98 3332.58,-97.38 3335.74,-96.72 3338.93,-96.04"/>
<polygon fill="midnightblue" stroke="midnightblue" points="3102.96,-134.91 3093.65,-139.96 3104.08,-141.82 3102.96,-134.91"/>
</g>
<!-- Node10 -->
<g id="node10" class="node">
<title>Node10</title>
<g id="a_node10"><a xlink:href="../../d5/d8e/vcubicbezier__p_8h.html" target="_top" xlink:title=" ">
<polygon fill="white" stroke="black" points="3464,-67.5 3464,-97.5 3571,-97.5 3571,-67.5 3464,-67.5"/>
<text text-anchor="start" x="3472" y="-85.5" font-family="Helvetica,sans-Serif" font-size="10.00">src/libs/vgeometry</text>
<text text-anchor="middle" x="3517.5" y="-74.5" font-family="Helvetica,sans-Serif" font-size="10.00">/vcubicbezier_p.h</text>
</a>
</g>
</g>
<!-- Node4&#45;&gt;Node10 -->
<g id="edge10" class="edge">
<title>Node4&#45;&gt;Node10</title>
<path fill="none" stroke="midnightblue" d="M3142.71,-138.99C3226.95,-130.49 3348.88,-116.53 3454.5,-98 3457.6,-97.46 3460.77,-96.86 3463.96,-96.23"/>
<polygon fill="midnightblue" stroke="midnightblue" points="3142.23,-135.52 3132.63,-139.99 3142.92,-142.48 3142.23,-135.52"/>
</g>
<!-- Node12 -->
<g id="node12" class="node">
<title>Node12</title>
<g id="a_node12"><a xlink:href="../../df/dde/vellipticalarc__p_8h.html" target="_top" xlink:title=" ">
<polygon fill="white" stroke="black" points="3589,-67.5 3589,-97.5 3696,-97.5 3696,-67.5 3589,-67.5"/>
<text text-anchor="start" x="3597" y="-85.5" font-family="Helvetica,sans-Serif" font-size="10.00">src/libs/vgeometry</text>
<text text-anchor="middle" x="3642.5" y="-74.5" font-family="Helvetica,sans-Serif" font-size="10.00">/vellipticalarc_p.h</text>
</a>
</g>
</g>
<!-- Node4&#45;&gt;Node12 -->
<g id="edge12" class="edge">
<title>Node4&#45;&gt;Node12</title>
<path fill="none" stroke="midnightblue" d="M3147.1,-142.66C3256.47,-135.74 3430.53,-122 3579.5,-98 3582.6,-97.5 3585.78,-96.94 3588.98,-96.33"/>
<polygon fill="midnightblue" stroke="midnightblue" points="3146.82,-139.17 3137.05,-143.29 3147.25,-146.16 3146.82,-139.17"/>
</g>
<!-- Node13 -->
<g id="node13" class="node">
<title>Node13</title>
<g id="a_node13"><a xlink:href="../../d6/dfb/vellipticalarc_8cpp.html" target="_top" xlink:title=" ">
<polygon fill="white" stroke="black" points="3609,-0.5 3609,-30.5 3716,-30.5 3716,-0.5 3609,-0.5"/>
<text text-anchor="start" x="3617" y="-18.5" font-family="Helvetica,sans-Serif" font-size="10.00">src/libs/vgeometry</text>
<text text-anchor="middle" x="3662.5" y="-7.5" font-family="Helvetica,sans-Serif" font-size="10.00">/vellipticalarc.cpp</text>
</a>
</g>
</g>
<!-- Node4&#45;&gt;Node13 -->
<g id="edge14" class="edge">
<title>Node4&#45;&gt;Node13</title>
<path fill="none" stroke="midnightblue" d="M3147.22,-148.15C3325.85,-146.45 3667.49,-137.93 3704.5,-98 3723.11,-77.92 3697.75,-48.03 3679.11,-30.58"/>
<polygon fill="midnightblue" stroke="midnightblue" points="3146.98,-144.66 3137.01,-148.25 3147.04,-151.66 3146.98,-144.66"/>
</g>
<!-- Node14 -->
<g id="node14" class="node">
<title>Node14</title>
<g id="a_node14"><a xlink:href="../../d1/d76/vspline__p_8h.html" target="_top" xlink:title=" ">
<polygon fill="white" stroke="black" points="3753,-67.5 3753,-97.5 3860,-97.5 3860,-67.5 3753,-67.5"/>
<text text-anchor="start" x="3761" y="-85.5" font-family="Helvetica,sans-Serif" font-size="10.00">src/libs/vgeometry</text>
<text text-anchor="middle" x="3806.5" y="-74.5" font-family="Helvetica,sans-Serif" font-size="10.00">/vspline_p.h</text>
</a>
</g>
</g>
<!-- Node4&#45;&gt;Node14 -->
<g id="edge15" class="edge">
<title>Node4&#45;&gt;Node14</title>
<path fill="none" stroke="midnightblue" d="M3147.34,-145.32C3285.06,-140.21 3530.49,-127.55 3738.5,-98 3743.16,-97.34 3747.98,-96.54 3752.8,-95.67"/>
<polygon fill="midnightblue" stroke="midnightblue" points="3147.07,-141.83 3137.2,-145.69 3147.32,-148.83 3147.07,-141.83"/>
</g>
<!-- Node16 -->
<g id="node16" class="node">
<title>Node16</title>
<g id="a_node16"><a xlink:href="../../d9/d15/vabstractpiece_8cpp.html" target="_top" xlink:title=" ">
<polygon fill="white" stroke="black" points="3878.5,-73 3878.5,-92 4064.5,-92 4064.5,-73 3878.5,-73"/>
<text text-anchor="middle" x="3971.5" y="-80" font-family="Helvetica,sans-Serif" font-size="10.00">src/libs/vlayout/vabstractpiece.cpp</text>
</a>
</g>
</g>
<!-- Node4&#45;&gt;Node16 -->
<g id="edge17" class="edge">
<title>Node4&#45;&gt;Node16</title>
<path fill="none" stroke="midnightblue" d="M3147.23,-144.66C3305.58,-138.39 3610.37,-123.99 3868.5,-98 3884.22,-96.42 3901.23,-94.22 3916.81,-92.02"/>
<polygon fill="midnightblue" stroke="midnightblue" points="3146.87,-141.17 3137.01,-145.06 3147.14,-148.16 3146.87,-141.17"/>
</g>
<!-- Node17 -->
<g id="node17" class="node">
<title>Node17</title>
<g id="a_node17"><a xlink:href="../../db/d65/dialogexporttocsv_8cpp.html" target="_top" xlink:title=" ">
<polygon fill="white" stroke="black" points="4083,-67.5 4083,-97.5 4210,-97.5 4210,-67.5 4083,-67.5"/>
<text text-anchor="start" x="4091" y="-85.5" font-family="Helvetica,sans-Serif" font-size="10.00">src/libs/vmisc/dialogs</text>
<text text-anchor="middle" x="4146.5" y="-74.5" font-family="Helvetica,sans-Serif" font-size="10.00">/dialogexporttocsv.cpp</text>
</a>
</g>
</g>
<!-- Node4&#45;&gt;Node17 -->
<g id="edge19" class="edge">
<title>Node4&#45;&gt;Node17</title>
<path fill="none" stroke="midnightblue" d="M3147.39,-148.45C3335.96,-147.19 3737.41,-139.36 4073.5,-98 4076.58,-97.62 4079.72,-97.19 4082.89,-96.71"/>
<polygon fill="midnightblue" stroke="midnightblue" points="3147.18,-144.95 3137.2,-148.51 3147.23,-151.95 3147.18,-144.95"/>
</g>
<!-- Node18 -->
<g id="node18" class="node">
<title>Node18</title>
<g id="a_node18"><a xlink:href="../../d6/d0b/def_8cpp.html" target="_top" xlink:title=" ">
<polygon fill="white" stroke="black" points="4228.5,-73 4228.5,-92 4350.5,-92 4350.5,-73 4228.5,-73"/>
<text text-anchor="middle" x="4289.5" y="-80" font-family="Helvetica,sans-Serif" font-size="10.00">src/libs/vmisc/def.cpp</text>
</a>
</g>
</g>
<!-- Node4&#45;&gt;Node18 -->
<g id="edge20" class="edge">
<title>Node4&#45;&gt;Node18</title>
<path fill="none" stroke="midnightblue" d="M3147.61,-146.11C3398.41,-140.2 4014.03,-123.51 4219.5,-98 4230.71,-96.61 4242.79,-94.37 4253.71,-92.07"/>
<polygon fill="midnightblue" stroke="midnightblue" points="3147.31,-142.61 3137.39,-146.35 3147.47,-149.61 3147.31,-142.61"/>
</g>
<!-- Node19 -->
<g id="node19" class="node">
<title>Node19</title>
<g id="a_node19"><a xlink:href="../../d0/df6/vabstractapplication_8cpp.html" target="_top" xlink:title=" ">
<polygon fill="white" stroke="black" points="4368.5,-73 4368.5,-92 4574.5,-92 4574.5,-73 4368.5,-73"/>
<text text-anchor="middle" x="4471.5" y="-80" font-family="Helvetica,sans-Serif" font-size="10.00">src/libs/vmisc/vabstractapplication.cpp</text>
</a>
</g>
</g>
<!-- Node4&#45;&gt;Node19 -->
<g id="edge21" class="edge">
<title>Node4&#45;&gt;Node19</title>
<path fill="none" stroke="midnightblue" d="M3147.56,-147.67C3373.15,-145.22 3910.47,-135.58 4359.5,-98 4377.08,-96.53 4396.15,-94.3 4413.48,-92.03"/>
<polygon fill="midnightblue" stroke="midnightblue" points="3147.35,-144.18 3137.39,-147.78 3147.42,-151.18 3147.35,-144.18"/>
</g>
<!-- Node20 -->
<g id="node20" class="node">
<title>Node20</title>
<g id="a_node20"><a xlink:href="../../d8/d70/vtextmanager_8cpp.html" target="_top" xlink:title=" ">
<polygon fill="white" stroke="black" points="4592.5,-73 4592.5,-92 4774.5,-92 4774.5,-73 4592.5,-73"/>
<text text-anchor="middle" x="4683.5" y="-80" font-family="Helvetica,sans-Serif" font-size="10.00">src/libs/vlayout/vtextmanager.cpp</text>
</a>
</g>
</g>
<!-- Node4&#45;&gt;Node20 -->
<g id="edge22" class="edge">
<title>Node4&#45;&gt;Node20</title>
<path fill="none" stroke="midnightblue" d="M3147.21,-146.54C3449.86,-140.78 4303.99,-122.76 4583.5,-98 4599.49,-96.58 4616.82,-94.33 4632.5,-92.01"/>
<polygon fill="midnightblue" stroke="midnightblue" points="3147.04,-143.04 3137.11,-146.73 3147.18,-150.04 3147.04,-143.04"/>
</g>
<!-- Node21 -->
<g id="node21" class="node">
<title>Node21</title>
<g id="a_node21"><a xlink:href="../../d4/d4f/pmsystems_8cpp.html" target="_top" xlink:title=" ">
<polygon fill="white" stroke="black" points="767,-67.5 767,-97.5 874,-97.5 874,-67.5 767,-67.5"/>
<text text-anchor="start" x="775" y="-85.5" font-family="Helvetica,sans-Serif" font-size="10.00">src/libs/vpatterndb</text>
<text text-anchor="middle" x="820.5" y="-74.5" font-family="Helvetica,sans-Serif" font-size="10.00">/pmsystems.cpp</text>
</a>
</g>
</g>
<!-- Node4&#45;&gt;Node21 -->
<g id="edge23" class="edge">
<title>Node4&#45;&gt;Node21</title>
<path fill="none" stroke="midnightblue" d="M2931.86,-139.28C2904.38,-137.23 2874.86,-135.28 2847.5,-134 2411.24,-113.55 1315.88,-152.03 882.5,-98 879.76,-97.66 876.96,-97.24 874.14,-96.78"/>
<polygon fill="midnightblue" stroke="midnightblue" points="2931.65,-142.78 2941.89,-140.05 2932.18,-135.8 2931.65,-142.78"/>
</g>
<!-- Node4&#45;&gt;Node22 -->
<g id="edge24" class="edge">
<title>Node4&#45;&gt;Node22</title>
<path fill="none" stroke="midnightblue" d="M2931.74,-146.41C2446.71,-137 489.22,-98.97 481.5,-98 478.76,-97.66 475.96,-97.24 473.14,-96.77"/>
<polygon fill="midnightblue" stroke="midnightblue" points="2931.83,-149.91 2941.89,-146.61 2931.96,-142.91 2931.83,-149.91"/>
</g>
<!-- Node23 -->
<g id="node23" class="node">
<title>Node23</title>
<g id="a_node23"><a xlink:href="../../d6/d46/vcontainer_8cpp.html" target="_top" xlink:title=" ">
<polygon fill="white" stroke="black" points="892,-67.5 892,-97.5 999,-97.5 999,-67.5 892,-67.5"/>
<text text-anchor="start" x="900" y="-85.5" font-family="Helvetica,sans-Serif" font-size="10.00">src/libs/vpatterndb</text>
<text text-anchor="middle" x="945.5" y="-74.5" font-family="Helvetica,sans-Serif" font-size="10.00">/vcontainer.cpp</text>
</a>
</g>
</g>
<!-- Node4&#45;&gt;Node23 -->
<g id="edge25" class="edge">
<title>Node4&#45;&gt;Node23</title>
<path fill="none" stroke="midnightblue" d="M2931.86,-139.31C2904.37,-137.25 2874.86,-135.3 2847.5,-134 2438.99,-114.59 1413.29,-148.85 1007.5,-98 1004.76,-97.66 1001.96,-97.24 999.14,-96.77"/>
<polygon fill="midnightblue" stroke="midnightblue" points="2931.65,-142.8 2941.89,-140.07 2932.18,-135.82 2931.65,-142.8"/>
</g>
<!-- Node24 -->
<g id="node24" class="node">
<title>Node24</title>
<g id="a_node24"><a xlink:href="../../df/d7a/vpiece_8cpp.html" target="_top" xlink:title=" ">
<polygon fill="white" stroke="black" points="1017,-67.5 1017,-97.5 1124,-97.5 1124,-67.5 1017,-67.5"/>
<text text-anchor="start" x="1025" y="-85.5" font-family="Helvetica,sans-Serif" font-size="10.00">src/libs/vpatterndb</text>
<text text-anchor="middle" x="1070.5" y="-74.5" font-family="Helvetica,sans-Serif" font-size="10.00">/vpiece.cpp</text>
</a>
</g>
</g>
<!-- Node4&#45;&gt;Node24 -->
<g id="edge26" class="edge">
<title>Node4&#45;&gt;Node24</title>
<path fill="none" stroke="midnightblue" d="M2931.86,-139.34C2904.37,-137.28 2874.86,-135.32 2847.5,-134 2466.97,-115.65 1511.57,-144.97 1133.5,-98 1130.49,-97.63 1127.42,-97.17 1124.33,-96.65"/>
<polygon fill="midnightblue" stroke="midnightblue" points="2931.65,-142.83 2941.89,-140.1 2932.18,-135.85 2931.65,-142.83"/>
</g>
<!-- Node4&#45;&gt;Node25 -->
<g id="edge27" class="edge">
<title>Node4&#45;&gt;Node25</title>
<path fill="none" stroke="midnightblue" d="M2931.24,-143.93C2852.54,-140.75 2743.44,-136.62 2647.5,-134 2194.04,-121.62 1056.66,-153.97 606.5,-98 603.76,-97.66 600.96,-97.25 598.14,-96.78"/>
<polygon fill="midnightblue" stroke="midnightblue" points="2931.52,-147.45 2941.65,-144.36 2931.8,-140.45 2931.52,-147.45"/>
</g>
<!-- Node27 -->
<g id="node27" class="node">
<title>Node27</title>
<g id="a_node27"><a xlink:href="../../de/d3e/vtranslatevars_8cpp.html" target="_top" xlink:title=" ">
<polygon fill="white" stroke="black" points="1142.5,-67.5 1142.5,-97.5 1252.5,-97.5 1252.5,-67.5 1142.5,-67.5"/>
<text text-anchor="start" x="1150.5" y="-85.5" font-family="Helvetica,sans-Serif" font-size="10.00">src/libs/vpatterndb</text>
<text text-anchor="middle" x="1197.5" y="-74.5" font-family="Helvetica,sans-Serif" font-size="10.00">/vtranslatevars.cpp</text>
</a>
</g>
</g>
<!-- Node4&#45;&gt;Node27 -->
<g id="edge29" class="edge">
<title>Node4&#45;&gt;Node27</title>
<path fill="none" stroke="midnightblue" d="M2931.86,-139.37C2904.37,-137.31 2874.86,-135.34 2847.5,-134 2495.39,-116.72 1611.38,-141.16 1261.5,-98 1258.56,-97.64 1255.56,-97.2 1252.53,-96.7"/>
<polygon fill="midnightblue" stroke="midnightblue" points="2931.65,-142.86 2941.89,-140.13 2932.18,-135.88 2931.65,-142.86"/>
</g>
<!-- Node4&#45;&gt;Node28 -->
<g id="edge30" class="edge">
<title>Node4&#45;&gt;Node28</title>
<path fill="none" stroke="midnightblue" d="M2931.86,-139.26C2904.38,-137.21 2874.86,-135.27 2847.5,-134 2383.48,-112.5 1219.5,-146.27 757.5,-98 754.73,-97.71 751.91,-97.37 749.07,-96.99"/>
<polygon fill="midnightblue" stroke="midnightblue" points="2931.66,-142.76 2941.89,-140.02 2932.19,-135.78 2931.66,-142.76"/>
</g>
<!-- Node29 -->
<g id="node29" class="node">
<title>Node29</title>
<g id="a_node29"><a xlink:href="../../d3/d4f/mouse__coordinates_8cpp.html" target="_top" xlink:title=" ">
<polygon fill="white" stroke="black" points="1270.5,-67.5 1270.5,-97.5 1404.5,-97.5 1404.5,-67.5 1270.5,-67.5"/>
<text text-anchor="start" x="1278.5" y="-85.5" font-family="Helvetica,sans-Serif" font-size="10.00">src/libs/vwidgets/mouse</text>
<text text-anchor="middle" x="1337.5" y="-74.5" font-family="Helvetica,sans-Serif" font-size="10.00">_coordinates.cpp</text>
</a>
</g>
</g>
<!-- Node4&#45;&gt;Node29 -->
<g id="edge31" class="edge">
<title>Node4&#45;&gt;Node29</title>
<path fill="none" stroke="midnightblue" d="M2931.86,-139.41C2904.37,-137.36 2874.86,-135.38 2847.5,-134 2210.77,-101.98 2047.4,-165.97 1413.5,-98 1410.56,-97.68 1407.57,-97.32 1404.55,-96.91"/>
<polygon fill="midnightblue" stroke="midnightblue" points="2931.65,-142.91 2941.88,-140.17 2932.18,-135.93 2931.65,-142.91"/>
</g>
<!-- Node30 -->
<g id="node30" class="node">
<title>Node30</title>
<g id="a_node30"><a xlink:href="../../d7/d1b/pen__toolbar_8cpp.html" target="_top" xlink:title=" ">
<polygon fill="white" stroke="black" points="1423,-67.5 1423,-97.5 1542,-97.5 1542,-67.5 1423,-67.5"/>
<text text-anchor="start" x="1431" y="-85.5" font-family="Helvetica,sans-Serif" font-size="10.00">src/libs/vwidgets/pen</text>
<text text-anchor="middle" x="1482.5" y="-74.5" font-family="Helvetica,sans-Serif" font-size="10.00">_toolbar.cpp</text>
</a>
</g>
</g>
<!-- Node4&#45;&gt;Node30 -->
<g id="edge32" class="edge">
<title>Node4&#45;&gt;Node30</title>
<path fill="none" stroke="midnightblue" d="M2931.85,-139.46C2904.37,-137.41 2874.85,-135.41 2847.5,-134 2272.04,-104.29 2123.75,-165.52 1551.5,-98 1548.46,-97.64 1545.36,-97.21 1542.23,-96.74"/>
<polygon fill="midnightblue" stroke="midnightblue" points="2931.65,-142.96 2941.88,-140.22 2932.18,-135.98 2931.65,-142.96"/>
</g>
<!-- Node31 -->
<g id="node31" class="node">
<title>Node31</title>
<g id="a_node31"><a xlink:href="../../d8/d76/scene__rect_8cpp.html" target="_top" xlink:title=" ">
<polygon fill="white" stroke="black" points="1560.5,-67.5 1560.5,-97.5 1690.5,-97.5 1690.5,-67.5 1560.5,-67.5"/>
<text text-anchor="start" x="1568.5" y="-85.5" font-family="Helvetica,sans-Serif" font-size="10.00">src/libs/vwidgets/scene</text>
<text text-anchor="middle" x="1625.5" y="-74.5" font-family="Helvetica,sans-Serif" font-size="10.00">_rect.cpp</text>
</a>
</g>
</g>
<!-- Node4&#45;&gt;Node31 -->
<g id="edge33" class="edge">
<title>Node4&#45;&gt;Node31</title>
<path fill="none" stroke="midnightblue" d="M2931.85,-139.53C2904.36,-137.47 2874.85,-135.46 2847.5,-134 2337.75,-106.77 2206.75,-155.27 1699.5,-98 1696.64,-97.68 1693.72,-97.3 1690.78,-96.89"/>
<polygon fill="midnightblue" stroke="midnightblue" points="2931.64,-143.03 2941.88,-140.29 2932.17,-136.05 2931.64,-143.03"/>
</g>
<!-- Node32 -->
<g id="node32" class="node">
<title>Node32</title>
<g id="a_node32"><a xlink:href="../../dd/df6/vabstractmainwindow_8cpp.html" target="_top" xlink:title=" ">
<polygon fill="white" stroke="black" points="1709,-73 1709,-92 1938,-92 1938,-73 1709,-73"/>
<text text-anchor="middle" x="1823.5" y="-80" font-family="Helvetica,sans-Serif" font-size="10.00">src/libs/vwidgets/vabstractmainwindow.cpp</text>
</a>
</g>
</g>
<!-- Node4&#45;&gt;Node32 -->
<g id="edge34" class="edge">
<title>Node4&#45;&gt;Node32</title>
<path fill="none" stroke="midnightblue" d="M2931.84,-139.69C2904.35,-137.63 2874.84,-135.58 2847.5,-134 2447.4,-110.91 2346.03,-129.48 1946.5,-98 1927.32,-96.49 1906.51,-94.26 1887.56,-92"/>
<polygon fill="midnightblue" stroke="midnightblue" points="2931.63,-143.19 2941.87,-140.45 2932.16,-136.21 2931.63,-143.19"/>
</g>
<!-- Node33 -->
<g id="node33" class="node">
<title>Node33</title>
<g id="a_node33"><a xlink:href="../../de/d45/vcontrolpointspline_8cpp.html" target="_top" xlink:title=" ">
<polygon fill="white" stroke="black" points="1956,-73 1956,-92 2171,-92 2171,-73 1956,-73"/>
<text text-anchor="middle" x="2063.5" y="-80" font-family="Helvetica,sans-Serif" font-size="10.00">src/libs/vwidgets/vcontrolpointspline.cpp</text>
</a>
</g>
</g>
<!-- Node4&#45;&gt;Node33 -->
<g id="edge35" class="edge">
<title>Node4&#45;&gt;Node33</title>
<path fill="none" stroke="midnightblue" d="M2931.83,-139.96C2904.34,-137.89 2874.83,-135.77 2847.5,-134 2551.24,-114.82 2476.21,-124.27 2180.5,-98 2162.66,-96.42 2143.35,-94.22 2125.65,-92.02"/>
<polygon fill="midnightblue" stroke="midnightblue" points="2931.62,-143.45 2941.85,-140.72 2932.15,-136.47 2931.62,-143.45"/>
</g>
<!-- Node34 -->
<g id="node34" class="node">
<title>Node34</title>
<g id="a_node34"><a xlink:href="../../de/dec/vgraphicssimpletextitem_8cpp.html" target="_top" xlink:title=" ">
<polygon fill="white" stroke="black" points="2189.5,-73 2189.5,-92 2433.5,-92 2433.5,-73 2189.5,-73"/>
<text text-anchor="middle" x="2311.5" y="-80" font-family="Helvetica,sans-Serif" font-size="10.00">src/libs/vwidgets/vgraphicssimpletextitem.cpp</text>
</a>
</g>
</g>
<!-- Node4&#45;&gt;Node34 -->
<g id="edge36" class="edge">
<title>Node4&#45;&gt;Node34</title>
<path fill="none" stroke="midnightblue" d="M2931.71,-140.23C2812.1,-130.85 2613.38,-114.68 2442.5,-98 2423.94,-96.19 2403.92,-94.06 2385.25,-92"/>
<polygon fill="midnightblue" stroke="midnightblue" points="2931.73,-143.74 2941.97,-141.03 2932.27,-136.76 2931.73,-143.74"/>
</g>
<!-- Node4&#45;&gt;Node35 -->
<g id="edge37" class="edge">
<title>Node4&#45;&gt;Node35</title>
<path fill="none" stroke="midnightblue" d="M3147.15,-146.67C3475.77,-140.89 4463.05,-121.95 4783.5,-98 4802.54,-96.58 4823.21,-94.33 4841.94,-92.03"/>
<polygon fill="midnightblue" stroke="midnightblue" points="3147.09,-143.17 3137.15,-146.85 3147.21,-150.17 3147.09,-143.17"/>
</g>
<!-- Node4&#45;&gt;Node36 -->
<g id="edge38" class="edge">
<title>Node4&#45;&gt;Node36</title>
<path fill="none" stroke="midnightblue" d="M3147.16,-147.15C3505.18,-142.44 4654.03,-125.53 5023.5,-98 5042.28,-96.6 5062.67,-94.33 5081.09,-92.01"/>
<polygon fill="midnightblue" stroke="midnightblue" points="3147.01,-143.65 3137.05,-147.28 3147.1,-150.65 3147.01,-143.65"/>
</g>
<!-- Node37 -->
<g id="node37" class="node">
<title>Node37</title>
<g id="a_node37"><a xlink:href="../../d0/d5d/vscenepoint_8cpp.html" target="_top" xlink:title=" ">
<polygon fill="white" stroke="black" points="2452,-73 2452,-92 2633,-92 2633,-73 2452,-73"/>
<text text-anchor="middle" x="2542.5" y="-80" font-family="Helvetica,sans-Serif" font-size="10.00">src/libs/vwidgets/vscenepoint.cpp</text>
</a>
</g>
</g>
<!-- Node4&#45;&gt;Node37 -->
<g id="edge39" class="edge">
<title>Node4&#45;&gt;Node37</title>
<path fill="none" stroke="midnightblue" d="M2959.5,-138.74C2879.28,-128.86 2752.26,-112.94 2642.5,-98 2628.77,-96.13 2613.99,-94.03 2600.11,-92.03"/>
<polygon fill="midnightblue" stroke="midnightblue" points="2959.18,-142.23 2969.53,-139.97 2960.03,-135.28 2959.18,-142.23"/>
</g>
<!-- Node38 -->
<g id="node38" class="node">
<title>Node38</title>
<g id="a_node38"><a xlink:href="../../de/d22/vsimplecurve_8cpp.html" target="_top" xlink:title=" ">
<polygon fill="white" stroke="black" points="2651.5,-73 2651.5,-92 2839.5,-92 2839.5,-73 2651.5,-73"/>
<text text-anchor="middle" x="2745.5" y="-80" font-family="Helvetica,sans-Serif" font-size="10.00">src/libs/vwidgets/vsimplecurve.cpp</text>
</a>
</g>
</g>
<!-- Node4&#45;&gt;Node38 -->
<g id="edge40" class="edge">
<title>Node4&#45;&gt;Node38</title>
<path fill="none" stroke="midnightblue" d="M2990.76,-137.72C2932.87,-124.92 2837.47,-103.83 2784.32,-92.08"/>
<polygon fill="midnightblue" stroke="midnightblue" points="2990.24,-141.19 3000.76,-139.94 2991.75,-134.36 2990.24,-141.19"/>
</g>
<!-- Node4&#45;&gt;Node39 -->
<g id="edge41" class="edge">
<title>Node4&#45;&gt;Node39</title>
<path fill="none" stroke="midnightblue" d="M3147.44,-146.76C3562.96,-139.97 5046.53,-114.78 5257.5,-98 5274.63,-96.64 5293.22,-94.37 5309.97,-92.02"/>
<polygon fill="midnightblue" stroke="midnightblue" points="3147.17,-143.27 3137.23,-146.93 3147.28,-150.26 3147.17,-143.27"/>
</g>
<!-- Node40 -->
<g id="node40" class="node">
<title>Node40</title>
<g id="a_node40"><a xlink:href="../../df/d38/vsimplepoint_8cpp.html" target="_top" xlink:title=" ">
<polygon fill="white" stroke="black" points="2858,-73 2858,-92 3043,-92 3043,-73 2858,-73"/>
<text text-anchor="middle" x="2950.5" y="-80" font-family="Helvetica,sans-Serif" font-size="10.00">src/libs/vwidgets/vsimplepoint.cpp</text>
</a>
</g>
</g>
<!-- Node4&#45;&gt;Node40 -->
<g id="edge42" class="edge">
<title>Node4&#45;&gt;Node40</title>
<path fill="none" stroke="midnightblue" d="M3019.05,-133.57C3001.49,-120.74 2976.77,-102.69 2962.31,-92.13"/>
<polygon fill="midnightblue" stroke="midnightblue" points="3017.36,-136.66 3027.5,-139.73 3021.49,-131.01 3017.36,-136.66"/>
</g>
<!-- Node4&#45;&gt;Node41 -->
<g id="edge43" class="edge">
<title>Node4&#45;&gt;Node41</title>
<path fill="none" stroke="midnightblue" d="M3147.27,-146.93C3587.43,-140.44 5236.46,-115.19 5469.5,-98 5487.9,-96.64 5507.89,-94.37 5525.92,-92.03"/>
<polygon fill="midnightblue" stroke="midnightblue" points="3147.05,-143.44 3137.1,-147.08 3147.15,-150.44 3147.05,-143.44"/>
</g>
<!-- Node7 -->
<g id="node7" class="node">
<title>Node7</title>
<g id="a_node7"><a xlink:href="../../d4/da1/vabstractarc_8cpp.html" target="_top" xlink:title=" ">
<polygon fill="white" stroke="black" points="3214,-0.5 3214,-30.5 3321,-30.5 3321,-0.5 3214,-0.5"/>
<text text-anchor="start" x="3222" y="-18.5" font-family="Helvetica,sans-Serif" font-size="10.00">src/libs/vgeometry</text>
<text text-anchor="middle" x="3267.5" y="-7.5" font-family="Helvetica,sans-Serif" font-size="10.00">/vabstractarc.cpp</text>
</a>
</g>
</g>
<!-- Node6&#45;&gt;Node7 -->
<g id="edge7" class="edge">
<title>Node6&#45;&gt;Node7</title>
<path fill="none" stroke="midnightblue" d="M3267.5,-57.11C3267.5,-48.15 3267.5,-38.32 3267.5,-30.58"/>
<polygon fill="midnightblue" stroke="midnightblue" points="3264,-57.4 3267.5,-67.4 3271,-57.4 3264,-57.4"/>
</g>
<!-- Node9 -->
<g id="node9" class="node">
<title>Node9</title>
<g id="a_node9"><a xlink:href="../../d5/ded/varc_8cpp.html" target="_top" xlink:title=" ">
<polygon fill="white" stroke="black" points="3339,-0.5 3339,-30.5 3446,-30.5 3446,-0.5 3339,-0.5"/>
<text text-anchor="start" x="3347" y="-18.5" font-family="Helvetica,sans-Serif" font-size="10.00">src/libs/vgeometry</text>
<text text-anchor="middle" x="3392.5" y="-7.5" font-family="Helvetica,sans-Serif" font-size="10.00">/varc.cpp</text>
</a>
</g>
</g>
<!-- Node8&#45;&gt;Node9 -->
<g id="edge9" class="edge">
<title>Node8&#45;&gt;Node9</title>
<path fill="none" stroke="midnightblue" d="M3392.5,-57.11C3392.5,-48.15 3392.5,-38.32 3392.5,-30.58"/>
<polygon fill="midnightblue" stroke="midnightblue" points="3389,-57.4 3392.5,-67.4 3396,-57.4 3389,-57.4"/>
</g>
<!-- Node11 -->
<g id="node11" class="node">
<title>Node11</title>
<g id="a_node11"><a xlink:href="../../d2/d26/vcubicbezier_8cpp.html" target="_top" xlink:title=" ">
<polygon fill="white" stroke="black" points="3464,-0.5 3464,-30.5 3571,-30.5 3571,-0.5 3464,-0.5"/>
<text text-anchor="start" x="3472" y="-18.5" font-family="Helvetica,sans-Serif" font-size="10.00">src/libs/vgeometry</text>
<text text-anchor="middle" x="3517.5" y="-7.5" font-family="Helvetica,sans-Serif" font-size="10.00">/vcubicbezier.cpp</text>
</a>
</g>
</g>
<!-- Node10&#45;&gt;Node11 -->
<g id="edge11" class="edge">
<title>Node10&#45;&gt;Node11</title>
<path fill="none" stroke="midnightblue" d="M3517.5,-57.11C3517.5,-48.15 3517.5,-38.32 3517.5,-30.58"/>
<polygon fill="midnightblue" stroke="midnightblue" points="3514,-57.4 3517.5,-67.4 3521,-57.4 3514,-57.4"/>
</g>
<!-- Node12&#45;&gt;Node13 -->
<g id="edge13" class="edge">
<title>Node12&#45;&gt;Node13</title>
<path fill="none" stroke="midnightblue" d="M3649.82,-57.7C3652.63,-48.59 3655.73,-38.49 3658.17,-30.58"/>
<polygon fill="midnightblue" stroke="midnightblue" points="3646.44,-56.81 3646.84,-67.4 3653.13,-58.87 3646.44,-56.81"/>
</g>
<!-- Node15 -->
<g id="node15" class="node">
<title>Node15</title>
<g id="a_node15"><a xlink:href="../../d5/dd2/vspline_8cpp.html" target="_top" xlink:title=" ">
<polygon fill="white" stroke="black" points="3753,-0.5 3753,-30.5 3860,-30.5 3860,-0.5 3753,-0.5"/>
<text text-anchor="start" x="3761" y="-18.5" font-family="Helvetica,sans-Serif" font-size="10.00">src/libs/vgeometry</text>
<text text-anchor="middle" x="3806.5" y="-7.5" font-family="Helvetica,sans-Serif" font-size="10.00">/vspline.cpp</text>
</a>
</g>
</g>
<!-- Node14&#45;&gt;Node15 -->
<g id="edge16" class="edge">
<title>Node14&#45;&gt;Node15</title>
<path fill="none" stroke="midnightblue" d="M3806.5,-57.11C3806.5,-48.15 3806.5,-38.32 3806.5,-30.58"/>
<polygon fill="midnightblue" stroke="midnightblue" points="3803,-57.4 3806.5,-67.4 3810,-57.4 3803,-57.4"/>
</g>
<!-- Node26 -->
<g id="node26" class="node">
<title>Node26</title>
<g id="a_node26"><a xlink:href="../../d8/dba/vpiecenode_8cpp.html" target="_top" xlink:title=" ">
<polygon fill="white" stroke="black" points="491,-0.5 491,-30.5 598,-30.5 598,-0.5 491,-0.5"/>
<text text-anchor="start" x="499" y="-18.5" font-family="Helvetica,sans-Serif" font-size="10.00">src/libs/vpatterndb</text>
<text text-anchor="middle" x="544.5" y="-7.5" font-family="Helvetica,sans-Serif" font-size="10.00">/vpiecenode.cpp</text>
</a>
</g>
</g>
<!-- Node25&#45;&gt;Node26 -->
<g id="edge28" class="edge">
<title>Node25&#45;&gt;Node26</title>
<path fill="none" stroke="midnightblue" d="M544.5,-57.11C544.5,-48.15 544.5,-38.32 544.5,-30.58"/>
<polygon fill="midnightblue" stroke="midnightblue" points="541,-57.4 544.5,-67.4 548,-57.4 541,-57.4"/>
</g>
<!-- Node43 -->
<g id="node43" class="node">
<title>Node43</title>
<g id="a_node43"><a xlink:href="../../df/dba/vseamlymesettings_8cpp.html" target="_top" xlink:title=" ">
<polygon fill="white" stroke="black" points="5859,-140 5859,-159 6062,-159 6062,-140 5859,-140"/>
<text text-anchor="middle" x="5960.5" y="-147" font-family="Helvetica,sans-Serif" font-size="10.00">src/libs/vmisc/vseamlymesettings.cpp</text>
</a>
</g>
</g>
<!-- Node42&#45;&gt;Node43 -->
<g id="edge45" class="edge">
<title>Node42&#45;&gt;Node43</title>
<path fill="none" stroke="midnightblue" d="M4537.98,-200.96C5121.54,-168.54 5271.53,-210.97 5850.5,-165 5868.17,-163.6 5887.34,-161.33 5904.66,-159"/>
<polygon fill="midnightblue" stroke="midnightblue" points="4537.4,-197.48 4527.61,-201.54 4537.79,-204.47 4537.4,-197.48"/>
</g>
<!-- Node44&#45;&gt;Node4 -->
<g id="edge51" class="edge">
<title>Node44&#45;&gt;Node4</title>
<path fill="none" stroke="midnightblue" d="M4047.16,-205.61C3851.36,-194.9 3350.06,-167.48 3137.33,-155.85"/>
<polygon fill="midnightblue" stroke="midnightblue" points="4047.19,-209.11 4057.37,-206.16 4047.58,-202.12 4047.19,-209.11"/>
</g>
<!-- Node44&#45;&gt;Node36 -->
<g id="edge53" class="edge">
<title>Node44&#45;&gt;Node36</title>
<path fill="none" stroke="midnightblue" d="M4154.8,-196.75C4171.74,-188.24 4193.77,-176.64 4212.5,-165 4232.51,-152.57 4233.26,-141.76 4255.5,-134 4416.81,-77.71 4853.26,-112.52 5023.5,-98 5041.55,-96.46 5061.1,-94.25 5078.96,-92.02"/>
<polygon fill="midnightblue" stroke="midnightblue" points="4152.88,-193.8 4145.48,-201.38 4155.99,-200.07 4152.88,-193.8"/>
</g>
<!-- Node45 -->
<g id="node45" class="node">
<title>Node45</title>
<g id="a_node45"><a xlink:href="../../d9/d02/vapplication_8h.html" target="_top" xlink:title=" ">
<polygon fill="white" stroke="red" points="5714,-134.5 5714,-164.5 5841,-164.5 5841,-134.5 5714,-134.5"/>
<text text-anchor="start" x="5722" y="-152.5" font-family="Helvetica,sans-Serif" font-size="10.00">src/app/seamly2d/core</text>
<text text-anchor="middle" x="5777.5" y="-141.5" font-family="Helvetica,sans-Serif" font-size="10.00">/vapplication.h</text>
</a>
</g>
</g>
<!-- Node44&#45;&gt;Node45 -->
<g id="edge47" class="edge">
<title>Node44&#45;&gt;Node45</title>
<path fill="none" stroke="midnightblue" d="M4207.97,-206.17C4244.19,-204.5 4287.49,-202.56 4326.5,-201 4862.96,-179.53 5511.21,-158.83 5713.85,-152.48"/>
<polygon fill="midnightblue" stroke="midnightblue" points="4207.77,-202.68 4197.95,-206.64 4208.1,-209.67 4207.77,-202.68"/>
</g>
<!-- Node69 -->
<g id="node49" class="node">
<title>Node69</title>
<g id="a_node49"><a xlink:href="../../db/d28/vsettings_8cpp.html" target="_top" xlink:title=" ">
<polygon fill="white" stroke="black" points="4051.5,-140 4051.5,-159 4203.5,-159 4203.5,-140 4051.5,-140"/>
<text text-anchor="middle" x="4127.5" y="-147" font-family="Helvetica,sans-Serif" font-size="10.00">src/libs/vmisc/vsettings.cpp</text>
</a>
</g>
</g>
<!-- Node44&#45;&gt;Node69 -->
<g id="edge52" class="edge">
<title>Node44&#45;&gt;Node69</title>
<path fill="none" stroke="midnightblue" d="M4127.5,-191.32C4127.5,-180.5 4127.5,-167.4 4127.5,-159.01"/>
<polygon fill="midnightblue" stroke="midnightblue" points="4124,-191.48 4127.5,-201.48 4131,-191.48 4124,-191.48"/>
</g>
<!-- Node46 -->
<g id="node46" class="node">
<title>Node46</title>
<g id="a_node46"><a xlink:href="../../d3/dd8/vapplication_8cpp.html" target="_top" xlink:title=" ">
<polygon fill="white" stroke="black" points="6131,-67.5 6131,-97.5 6258,-97.5 6258,-67.5 6131,-67.5"/>
<text text-anchor="start" x="6139" y="-85.5" font-family="Helvetica,sans-Serif" font-size="10.00">src/app/seamly2d/core</text>
<text text-anchor="middle" x="6194.5" y="-74.5" font-family="Helvetica,sans-Serif" font-size="10.00">/vapplication.cpp</text>
</a>
</g>
</g>
<!-- Node45&#45;&gt;Node46 -->
<g id="edge48" class="edge">
<title>Node45&#45;&gt;Node46</title>
<path fill="none" stroke="midnightblue" d="M5851.21,-133.96C5972.53,-114.3 6005.39,-117.52 6122.5,-98 6125.27,-97.54 6128.09,-97.05 6130.94,-96.54"/>
<polygon fill="midnightblue" stroke="midnightblue" points="5850.46,-130.53 5841.16,-135.6 5851.59,-137.44 5850.46,-130.53"/>
</g>
<!-- Node47 -->
<g id="node47" class="node">
<title>Node47</title>
<g id="a_node47"><a xlink:href="../../d7/dfa/calculator__dialog_8cpp.html" target="_top" xlink:title=" ">
<polygon fill="white" stroke="black" points="5707,-67.5 5707,-97.5 5848,-97.5 5848,-67.5 5707,-67.5"/>
<text text-anchor="start" x="5715" y="-85.5" font-family="Helvetica,sans-Serif" font-size="10.00">src/app/seamly2d/dialogs</text>
<text text-anchor="middle" x="5777.5" y="-74.5" font-family="Helvetica,sans-Serif" font-size="10.00">/calculator_dialog.cpp</text>
</a>
</g>
</g>
<!-- Node45&#45;&gt;Node47 -->
<g id="edge49" class="edge">
<title>Node45&#45;&gt;Node47</title>
<path fill="none" stroke="midnightblue" d="M5777.5,-124.11C5777.5,-115.15 5777.5,-105.32 5777.5,-97.58"/>
<polygon fill="midnightblue" stroke="midnightblue" points="5774,-124.4 5777.5,-134.4 5781,-124.4 5774,-124.4"/>
</g>
<!-- Node48 -->
<g id="node48" class="node">
<title>Node48</title>
<g id="a_node48"><a xlink:href="../../d2/d2d/preferencesconfigurationpage_8cpp.html" target="_top" xlink:title=" ">
<polygon fill="white" stroke="black" points="5866,-67.5 5866,-97.5 6113,-97.5 6113,-67.5 5866,-67.5"/>
<text text-anchor="start" x="5874" y="-85.5" font-family="Helvetica,sans-Serif" font-size="10.00">src/app/seamly2d/dialogs</text>
<text text-anchor="middle" x="5989.5" y="-74.5" font-family="Helvetica,sans-Serif" font-size="10.00">/configpages/preferencesconfigurationpage.cpp</text>
</a>
</g>
</g>
<!-- Node45&#45;&gt;Node48 -->
<g id="edge50" class="edge">
<title>Node45&#45;&gt;Node48</title>
<path fill="none" stroke="midnightblue" d="M5833.13,-131.44C5867.49,-120.91 5911.06,-107.55 5943.48,-97.61"/>
<polygon fill="midnightblue" stroke="midnightblue" points="5831.77,-128.2 5823.24,-134.48 5833.83,-134.89 5831.77,-128.2"/>
</g>
</g>
</svg>
