<?xml version="1.0" encoding="UTF-8" standalone="no"?>
<!DOCTYPE svg PUBLIC "-//W3C//DTD SVG 1.1//EN"
 "http://www.w3.org/Graphics/SVG/1.1/DTD/svg11.dtd">
<!-- Generated by graphviz version 2.43.0 (0)
 -->
<!-- Title: src/app/seamly2d/dialogs/layoutsettings_dialog.h Pages: 1 -->
<svg width="4472pt" height="240pt"
 viewBox="0.00 0.00 4471.50 240.00" xmlns="http://www.w3.org/2000/svg" xmlns:xlink="http://www.w3.org/1999/xlink">
<g id="graph0" class="graph" transform="scale(1 1) rotate(0) translate(4 236)">
<title>src/app/seamly2d/dialogs/layoutsettings_dialog.h</title>
<polygon fill="white" stroke="transparent" points="-4,4 -4,-236 4467.5,-236 4467.5,4 -4,4"/>
<!-- Node1 -->
<g id="node1" class="node">
<title>Node1</title>
<g id="a_node1"><a xlink:title=" ">
<polygon fill="#bfbfbf" stroke="black" points="2849.5,-201.5 2849.5,-231.5 2990.5,-231.5 2990.5,-201.5 2849.5,-201.5"/>
<text text-anchor="start" x="2857.5" y="-219.5" font-family="Helvetica,sans-Serif" font-size="10.00">src/app/seamly2d/dialogs</text>
<text text-anchor="middle" x="2920" y="-208.5" font-family="Helvetica,sans-Serif" font-size="10.00">/layoutsettings_dialog.h</text>
</a>
</g>
</g>
<!-- Node2 -->
<g id="node2" class="node">
<title>Node2</title>
<g id="a_node2"><a xlink:href="../../dd/d57/vcmdexport_8h.html" target="_top" xlink:title=" ">
<polygon fill="white" stroke="black" points="2692.5,-134.5 2692.5,-164.5 2819.5,-164.5 2819.5,-134.5 2692.5,-134.5"/>
<text text-anchor="start" x="2700.5" y="-152.5" font-family="Helvetica,sans-Serif" font-size="10.00">src/app/seamly2d/core</text>
<text text-anchor="middle" x="2756" y="-141.5" font-family="Helvetica,sans-Serif" font-size="10.00">/vcmdexport.h</text>
</a>
</g>
</g>
<!-- Node1&#45;&gt;Node2 -->
<g id="edge1" class="edge">
<title>Node1&#45;&gt;Node2</title>
<path fill="none" stroke="midnightblue" d="M2875.04,-197.68C2848.74,-187.26 2816,-174.28 2791.52,-164.58"/>
<polygon fill="midnightblue" stroke="midnightblue" points="2873.83,-200.97 2884.41,-201.4 2876.41,-194.46 2873.83,-200.97"/>
</g>
<!-- Node19 -->
<g id="node19" class="node">
<title>Node19</title>
<g id="a_node19"><a xlink:href="../../d0/dfa/layoutsettings__dialog_8cpp.html" target="_top" xlink:title=" ">
<polygon fill="white" stroke="black" points="4079.5,-0.5 4079.5,-30.5 4224.5,-30.5 4224.5,-0.5 4079.5,-0.5"/>
<text text-anchor="start" x="4087.5" y="-18.5" font-family="Helvetica,sans-Serif" font-size="10.00">src/app/seamly2d/dialogs</text>
<text text-anchor="middle" x="4152" y="-7.5" font-family="Helvetica,sans-Serif" font-size="10.00">/layoutsettings_dialog.cpp</text>
</a>
</g>
</g>
<!-- Node1&#45;&gt;Node19 -->
<g id="edge34" class="edge">
<title>Node1&#45;&gt;Node19</title>
<path fill="none" stroke="midnightblue" d="M3000.88,-203.05C3188.87,-174.01 3669.85,-99.05 4071,-31 4073.68,-30.55 4076.4,-30.08 4079.15,-29.6"/>
<polygon fill="midnightblue" stroke="midnightblue" points="3000.15,-199.62 2990.8,-204.61 3001.22,-206.54 3000.15,-199.62"/>
</g>
<!-- Node25 -->
<g id="node25" class="node">
<title>Node25</title>
<g id="a_node25"><a xlink:href="../../d8/de8/mainwindowsnogui_8cpp.html" target="_top" xlink:title=" ">
<polygon fill="white" stroke="black" points="4242.5,-6 4242.5,-25 4463.5,-25 4463.5,-6 4242.5,-6"/>
<text text-anchor="middle" x="4353" y="-13" font-family="Helvetica,sans-Serif" font-size="10.00">src/app/seamly2d/mainwindowsnogui.cpp</text>
</a>
</g>
</g>
<!-- Node1&#45;&gt;Node25 -->
<g id="edge35" class="edge">
<title>Node1&#45;&gt;Node25</title>
<path fill="none" stroke="midnightblue" d="M3000.86,-206.74C3087.35,-197.19 3228.51,-181.12 3350,-165 3713.4,-116.77 4149.29,-48.74 4299.26,-25.04"/>
<polygon fill="midnightblue" stroke="midnightblue" points="3000.4,-203.27 2990.84,-207.84 3001.17,-210.22 3000.4,-203.27"/>
</g>
<!-- Node29 -->
<g id="node29" class="node">
<title>Node29</title>
<g id="a_node29"><a xlink:href="../../df/d9b/vcmdexport_8cpp.html" target="_top" xlink:title=" ">
<polygon fill="white" stroke="black" points="2751.5,-67.5 2751.5,-97.5 2878.5,-97.5 2878.5,-67.5 2751.5,-67.5"/>
<text text-anchor="start" x="2759.5" y="-85.5" font-family="Helvetica,sans-Serif" font-size="10.00">src/app/seamly2d/core</text>
<text text-anchor="middle" x="2815" y="-74.5" font-family="Helvetica,sans-Serif" font-size="10.00">/vcmdexport.cpp</text>
</a>
</g>
</g>
<!-- Node1&#45;&gt;Node29 -->
<g id="edge33" class="edge">
<title>Node1&#45;&gt;Node29</title>
<path fill="none" stroke="midnightblue" d="M2902.53,-193.54C2880.83,-166.25 2844.42,-120.48 2826.16,-97.52"/>
<polygon fill="midnightblue" stroke="midnightblue" points="2899.8,-195.73 2908.76,-201.37 2905.28,-191.37 2899.8,-195.73"/>
</g>
<!-- Node3 -->
<g id="node3" class="node">
<title>Node3</title>
<g id="a_node3"><a xlink:href="../../d7/d61/application__2d_8h.html" target="_top" xlink:title=" ">
<polygon fill="white" stroke="black" points="2111.5,-67.5 2111.5,-97.5 2238.5,-97.5 2238.5,-67.5 2111.5,-67.5"/>
<text text-anchor="start" x="2119.5" y="-85.5" font-family="Helvetica,sans-Serif" font-size="10.00">src/app/seamly2d/core</text>
<text text-anchor="middle" x="2175" y="-74.5" font-family="Helvetica,sans-Serif" font-size="10.00">/application_2d.h</text>
</a>
</g>
</g>
<!-- Node2&#45;&gt;Node3 -->
<g id="edge2" class="edge">
<title>Node2&#45;&gt;Node3</title>
<path fill="none" stroke="midnightblue" d="M2682.32,-140.26C2567.3,-127.39 2347.05,-102.75 2238.57,-90.61"/>
<polygon fill="midnightblue" stroke="midnightblue" points="2682.11,-143.76 2692.44,-141.39 2682.89,-136.8 2682.11,-143.76"/>
</g>
<!-- Node2&#45;&gt;Node29 -->
<g id="edge28" class="edge">
<title>Node2&#45;&gt;Node29</title>
<path fill="none" stroke="midnightblue" d="M2775.75,-126.74C2784.48,-117.12 2794.5,-106.09 2802.22,-97.58"/>
<polygon fill="midnightblue" stroke="midnightblue" points="2772.93,-124.64 2768.8,-134.4 2778.11,-129.34 2772.93,-124.64"/>
</g>
<!-- Node30 -->
<g id="node30" class="node">
<title>Node30</title>
<g id="a_node30"><a xlink:href="../../d9/d53/mainwindow_8h.html" target="_top" xlink:title=" ">
<polygon fill="white" stroke="black" points="261,-73 261,-92 437,-92 437,-73 261,-73"/>
<text text-anchor="middle" x="349" y="-80" font-family="Helvetica,sans-Serif" font-size="10.00">src/app/seamly2d/mainwindow.h</text>
</a>
</g>
</g>
<!-- Node2&#45;&gt;Node30 -->
<g id="edge29" class="edge">
<title>Node2&#45;&gt;Node30</title>
<path fill="none" stroke="midnightblue" d="M2682.15,-146.51C2329.66,-136.99 819.63,-96.21 437.26,-85.88"/>
<polygon fill="midnightblue" stroke="midnightblue" points="2682.15,-150.01 2692.24,-146.78 2682.34,-143.01 2682.15,-150.01"/>
</g>
<!-- Node4 -->
<g id="node4" class="node">
<title>Node4</title>
<g id="a_node4"><a xlink:href="../../df/d3e/application__2d_8cpp.html" target="_top" xlink:title=" ">
<polygon fill="white" stroke="black" points="206.5,-0.5 206.5,-30.5 333.5,-30.5 333.5,-0.5 206.5,-0.5"/>
<text text-anchor="start" x="214.5" y="-18.5" font-family="Helvetica,sans-Serif" font-size="10.00">src/app/seamly2d/core</text>
<text text-anchor="middle" x="270" y="-7.5" font-family="Helvetica,sans-Serif" font-size="10.00">/application_2d.cpp</text>
</a>
</g>
</g>
<!-- Node3&#45;&gt;Node4 -->
<g id="edge3" class="edge">
<title>Node3&#45;&gt;Node4</title>
<path fill="none" stroke="midnightblue" d="M2101.2,-81.15C1803.67,-79.5 691.53,-70.71 342,-31 339.21,-30.68 336.37,-30.31 333.51,-29.9"/>
<polygon fill="midnightblue" stroke="midnightblue" points="2101.42,-84.65 2111.44,-81.21 2101.46,-77.65 2101.42,-84.65"/>
</g>
<!-- Node5 -->
<g id="node5" class="node">
<title>Node5</title>
<g id="a_node5"><a xlink:href="../../dd/db4/abstractlayout__dialog_8cpp.html" target="_top" xlink:title=" ">
<polygon fill="white" stroke="black" points="1861,-0.5 1861,-30.5 2007,-30.5 2007,-0.5 1861,-0.5"/>
<text text-anchor="start" x="1869" y="-18.5" font-family="Helvetica,sans-Serif" font-size="10.00">src/app/seamly2d/dialogs</text>
<text text-anchor="middle" x="1934" y="-7.5" font-family="Helvetica,sans-Serif" font-size="10.00">/abstractlayout_dialog.cpp</text>
</a>
</g>
</g>
<!-- Node3&#45;&gt;Node5 -->
<g id="edge4" class="edge">
<title>Node3&#45;&gt;Node5</title>
<path fill="none" stroke="midnightblue" d="M2113.27,-64.85C2073.97,-54.25 2023.64,-40.68 1986.32,-30.61"/>
<polygon fill="midnightblue" stroke="midnightblue" points="2112.44,-68.25 2123,-67.48 2114.26,-61.49 2112.44,-68.25"/>
</g>
<!-- Node6 -->
<g id="node6" class="node">
<title>Node6</title>
<g id="a_node6"><a xlink:href="../../d9/d7f/about2d__dialog_8cpp.html" target="_top" xlink:title=" ">
<polygon fill="white" stroke="black" points="2025.5,-0.5 2025.5,-30.5 2166.5,-30.5 2166.5,-0.5 2025.5,-0.5"/>
<text text-anchor="start" x="2033.5" y="-18.5" font-family="Helvetica,sans-Serif" font-size="10.00">src/app/seamly2d/dialogs</text>
<text text-anchor="middle" x="2096" y="-7.5" font-family="Helvetica,sans-Serif" font-size="10.00">/about2d_dialog.cpp</text>
</a>
</g>
</g>
<!-- Node3&#45;&gt;Node6 -->
<g id="edge5" class="edge">
<title>Node3&#45;&gt;Node6</title>
<path fill="none" stroke="midnightblue" d="M2149.94,-60.88C2137.94,-51.01 2123.87,-39.43 2113.11,-30.58"/>
<polygon fill="midnightblue" stroke="midnightblue" points="2147.91,-63.75 2157.86,-67.4 2152.36,-58.34 2147.91,-63.75"/>
</g>
<!-- Node7 -->
<g id="node7" class="node">
<title>Node7</title>
<g id="a_node7"><a xlink:href="../../d7/dfa/calculator__dialog_8cpp.html" target="_top" xlink:title=" ">
<polygon fill="white" stroke="black" points="2184.5,-0.5 2184.5,-30.5 2325.5,-30.5 2325.5,-0.5 2184.5,-0.5"/>
<text text-anchor="start" x="2192.5" y="-18.5" font-family="Helvetica,sans-Serif" font-size="10.00">src/app/seamly2d/dialogs</text>
<text text-anchor="middle" x="2255" y="-7.5" font-family="Helvetica,sans-Serif" font-size="10.00">/calculator_dialog.cpp</text>
</a>
</g>
</g>
<!-- Node3&#45;&gt;Node7 -->
<g id="edge6" class="edge">
<title>Node3&#45;&gt;Node7</title>
<path fill="none" stroke="midnightblue" d="M2200.37,-60.88C2212.53,-51.01 2226.78,-39.43 2237.68,-30.58"/>
<polygon fill="midnightblue" stroke="midnightblue" points="2197.91,-58.37 2192.36,-67.4 2202.33,-63.81 2197.91,-58.37"/>
</g>
<!-- Node8 -->
<g id="node8" class="node">
<title>Node8</title>
<g id="a_node8"><a xlink:href="../../d9/d70/preferencesgraphicsviewpage_8cpp.html" target="_top" xlink:title=" ">
<polygon fill="white" stroke="black" points="2344,-0.5 2344,-30.5 2592,-30.5 2592,-0.5 2344,-0.5"/>
<text text-anchor="start" x="2352" y="-18.5" font-family="Helvetica,sans-Serif" font-size="10.00">src/app/seamly2d/dialogs</text>
<text text-anchor="middle" x="2468" y="-7.5" font-family="Helvetica,sans-Serif" font-size="10.00">/configpages/preferencesgraphicsviewpage.cpp</text>
</a>
</g>
</g>
<!-- Node3&#45;&gt;Node8 -->
<g id="edge7" class="edge">
<title>Node3&#45;&gt;Node8</title>
<path fill="none" stroke="midnightblue" d="M2248.26,-65.25C2296.37,-54.58 2358.67,-40.75 2404.65,-30.55"/>
<polygon fill="midnightblue" stroke="midnightblue" points="2247.22,-61.89 2238.22,-67.48 2248.74,-68.73 2247.22,-61.89"/>
</g>
<!-- Node9 -->
<g id="node9" class="node">
<title>Node9</title>
<g id="a_node9"><a xlink:href="../../d2/d00/vtooloptionspropertybrowser_8cpp.html" target="_top" xlink:title=" ">
<polygon fill="white" stroke="black" points="2610,-0.5 2610,-30.5 2790,-30.5 2790,-0.5 2610,-0.5"/>
<text text-anchor="start" x="2618" y="-18.5" font-family="Helvetica,sans-Serif" font-size="10.00">src/app/seamly2d/core</text>
<text text-anchor="middle" x="2700" y="-7.5" font-family="Helvetica,sans-Serif" font-size="10.00">/vtooloptionspropertybrowser.cpp</text>
</a>
</g>
</g>
<!-- Node3&#45;&gt;Node9 -->
<g id="edge8" class="edge">
<title>Node3&#45;&gt;Node9</title>
<path fill="none" stroke="midnightblue" d="M2248.65,-73.39C2333.63,-63.89 2477.55,-47.35 2601,-31 2603.93,-30.61 2606.9,-30.21 2609.91,-29.8"/>
<polygon fill="midnightblue" stroke="midnightblue" points="2248.13,-69.93 2238.58,-74.51 2248.91,-76.88 2248.13,-69.93"/>
</g>
<!-- Node10 -->
<g id="node10" class="node">
<title>Node10</title>
<g id="a_node10"><a xlink:href="../../dc/d20/preferencespathpage_8cpp.html" target="_top" xlink:title=" ">
<polygon fill="white" stroke="black" points="2808.5,-0.5 2808.5,-30.5 3013.5,-30.5 3013.5,-0.5 2808.5,-0.5"/>
<text text-anchor="start" x="2816.5" y="-18.5" font-family="Helvetica,sans-Serif" font-size="10.00">src/app/seamly2d/dialogs</text>
<text text-anchor="middle" x="2911" y="-7.5" font-family="Helvetica,sans-Serif" font-size="10.00">/configpages/preferencespathpage.cpp</text>
</a>
</g>
</g>
<!-- Node3&#45;&gt;Node10 -->
<g id="edge9" class="edge">
<title>Node3&#45;&gt;Node10</title>
<path fill="none" stroke="midnightblue" d="M2249.14,-76.66C2366.14,-68.75 2600.69,-51.85 2799,-31 2802.12,-30.67 2805.29,-30.33 2808.48,-29.97"/>
<polygon fill="midnightblue" stroke="midnightblue" points="2248.62,-73.18 2238.87,-77.35 2249.09,-80.17 2248.62,-73.18"/>
</g>
<!-- Node11 -->
<g id="node11" class="node">
<title>Node11</title>
<g id="a_node11"><a xlink:href="../../dd/dc2/decimalchart__dialog_8cpp.html" target="_top" xlink:title=" ">
<polygon fill="white" stroke="black" points="3031.5,-0.5 3031.5,-30.5 3172.5,-30.5 3172.5,-0.5 3031.5,-0.5"/>
<text text-anchor="start" x="3039.5" y="-18.5" font-family="Helvetica,sans-Serif" font-size="10.00">src/app/seamly2d/dialogs</text>
<text text-anchor="middle" x="3102" y="-7.5" font-family="Helvetica,sans-Serif" font-size="10.00">/decimalchart_dialog.cpp</text>
</a>
</g>
</g>
<!-- Node3&#45;&gt;Node11 -->
<g id="edge10" class="edge">
<title>Node3&#45;&gt;Node11</title>
<path fill="none" stroke="midnightblue" d="M2248.82,-80.13C2396.39,-76.73 2738.11,-65.5 3023,-31 3025.77,-30.66 3028.59,-30.29 3031.43,-29.89"/>
<polygon fill="midnightblue" stroke="midnightblue" points="2248.45,-76.64 2238.53,-80.36 2248.61,-83.64 2248.45,-76.64"/>
</g>
<!-- Node12 -->
<g id="node12" class="node">
<title>Node12</title>
<g id="a_node12"><a xlink:href="../../dc/d63/preferencespatternpage_8cpp.html" target="_top" xlink:title=" ">
<polygon fill="white" stroke="black" points="3191,-0.5 3191,-30.5 3409,-30.5 3409,-0.5 3191,-0.5"/>
<text text-anchor="start" x="3199" y="-18.5" font-family="Helvetica,sans-Serif" font-size="10.00">src/app/seamly2d/dialogs</text>
<text text-anchor="middle" x="3300" y="-7.5" font-family="Helvetica,sans-Serif" font-size="10.00">/configpages/preferencespatternpage.cpp</text>
</a>
</g>
</g>
<!-- Node3&#45;&gt;Node12 -->
<g id="edge11" class="edge">
<title>Node3&#45;&gt;Node12</title>
<path fill="none" stroke="midnightblue" d="M2248.87,-79.62C2415.55,-74.98 2833.53,-61.11 3182,-31 3184.88,-30.75 3187.8,-30.49 3190.74,-30.21"/>
<polygon fill="midnightblue" stroke="midnightblue" points="2248.63,-76.13 2238.73,-79.9 2248.82,-83.12 2248.63,-76.13"/>
</g>
<!-- Node13 -->
<g id="node13" class="node">
<title>Node13</title>
<g id="a_node13"><a xlink:href="../../d6/d89/dialoglayoutprogress_8cpp.html" target="_top" xlink:title=" ">
<polygon fill="white" stroke="black" points="3427.5,-0.5 3427.5,-30.5 3570.5,-30.5 3570.5,-0.5 3427.5,-0.5"/>
<text text-anchor="start" x="3435.5" y="-18.5" font-family="Helvetica,sans-Serif" font-size="10.00">src/app/seamly2d/dialogs</text>
<text text-anchor="middle" x="3499" y="-7.5" font-family="Helvetica,sans-Serif" font-size="10.00">/dialoglayoutprogress.cpp</text>
</a>
</g>
</g>
<!-- Node3&#45;&gt;Node13 -->
<g id="edge12" class="edge">
<title>Node3&#45;&gt;Node13</title>
<path fill="none" stroke="midnightblue" d="M2248.81,-79.83C2480.14,-74.37 3189.26,-56 3418,-31 3420.98,-30.67 3424.02,-30.3 3427.09,-29.9"/>
<polygon fill="midnightblue" stroke="midnightblue" points="2248.72,-76.33 2238.81,-80.06 2248.89,-83.32 2248.72,-76.33"/>
</g>
<!-- Node14 -->
<g id="node14" class="node">
<title>Node14</title>
<g id="a_node14"><a xlink:href="../../de/d87/dialognewpattern_8cpp.html" target="_top" xlink:title=" ">
<polygon fill="white" stroke="black" points="3588.5,-0.5 3588.5,-30.5 3729.5,-30.5 3729.5,-0.5 3588.5,-0.5"/>
<text text-anchor="start" x="3596.5" y="-18.5" font-family="Helvetica,sans-Serif" font-size="10.00">src/app/seamly2d/dialogs</text>
<text text-anchor="middle" x="3659" y="-7.5" font-family="Helvetica,sans-Serif" font-size="10.00">/dialognewpattern.cpp</text>
</a>
</g>
</g>
<!-- Node3&#45;&gt;Node14 -->
<g id="edge13" class="edge">
<title>Node3&#45;&gt;Node14</title>
<path fill="none" stroke="midnightblue" d="M2248.76,-79.48C2519.19,-71.98 3447.57,-45.46 3580,-31 3582.77,-30.7 3585.59,-30.35 3588.44,-29.98"/>
<polygon fill="midnightblue" stroke="midnightblue" points="2248.55,-75.98 2238.65,-79.76 2248.75,-82.98 2248.55,-75.98"/>
</g>
<!-- Node15 -->
<g id="node15" class="node">
<title>Node15</title>
<g id="a_node15"><a xlink:href="../../d5/d18/dialogpatternproperties_8cpp.html" target="_top" xlink:title=" ">
<polygon fill="white" stroke="black" points="3747.5,-0.5 3747.5,-30.5 3902.5,-30.5 3902.5,-0.5 3747.5,-0.5"/>
<text text-anchor="start" x="3755.5" y="-18.5" font-family="Helvetica,sans-Serif" font-size="10.00">src/app/seamly2d/dialogs</text>
<text text-anchor="middle" x="3825" y="-7.5" font-family="Helvetica,sans-Serif" font-size="10.00">/dialogpatternproperties.cpp</text>
</a>
</g>
</g>
<!-- Node3&#45;&gt;Node15 -->
<g id="edge14" class="edge">
<title>Node3&#45;&gt;Node15</title>
<path fill="none" stroke="midnightblue" d="M2249.16,-79.69C2539.48,-72.54 3590.14,-45.88 3739,-31 3741.71,-30.73 3744.47,-30.42 3747.25,-30.09"/>
<polygon fill="midnightblue" stroke="midnightblue" points="2248.66,-76.21 2238.75,-79.95 2248.84,-83.2 2248.66,-76.21"/>
</g>
<!-- Node16 -->
<g id="node16" class="node">
<title>Node16</title>
<g id="a_node16"><a xlink:href="../../d5/dc5/dialogpreferences_8cpp.html" target="_top" xlink:title=" ">
<polygon fill="white" stroke="black" points="3920.5,-0.5 3920.5,-30.5 4061.5,-30.5 4061.5,-0.5 3920.5,-0.5"/>
<text text-anchor="start" x="3928.5" y="-18.5" font-family="Helvetica,sans-Serif" font-size="10.00">src/app/seamly2d/dialogs</text>
<text text-anchor="middle" x="3991" y="-7.5" font-family="Helvetica,sans-Serif" font-size="10.00">/dialogpreferences.cpp</text>
</a>
</g>
</g>
<!-- Node3&#45;&gt;Node16 -->
<g id="edge15" class="edge">
<title>Node3&#45;&gt;Node16</title>
<path fill="none" stroke="midnightblue" d="M2248.99,-79.5C2575.13,-70.68 3870.05,-35.43 3912,-31 3914.77,-30.71 3917.6,-30.37 3920.44,-30"/>
<polygon fill="midnightblue" stroke="midnightblue" points="2248.62,-76.01 2238.71,-79.78 2248.8,-83.01 2248.62,-76.01"/>
</g>
<!-- Node17 -->
<g id="node17" class="node">
<title>Node17</title>
<g id="a_node17"><a xlink:href="../../d2/d2d/preferencesconfigurationpage_8cpp.html" target="_top" xlink:title=" ">
<polygon fill="white" stroke="black" points="520.5,-0.5 520.5,-30.5 767.5,-30.5 767.5,-0.5 520.5,-0.5"/>
<text text-anchor="start" x="528.5" y="-18.5" font-family="Helvetica,sans-Serif" font-size="10.00">src/app/seamly2d/dialogs</text>
<text text-anchor="middle" x="644" y="-7.5" font-family="Helvetica,sans-Serif" font-size="10.00">/configpages/preferencesconfigurationpage.cpp</text>
</a>
</g>
</g>
<!-- Node3&#45;&gt;Node17 -->
<g id="edge16" class="edge">
<title>Node3&#45;&gt;Node17</title>
<path fill="none" stroke="midnightblue" d="M2101.26,-80.74C1892.88,-78.19 1281.95,-67.87 776,-31 773.24,-30.8 770.45,-30.58 767.64,-30.36"/>
<polygon fill="midnightblue" stroke="midnightblue" points="2101.42,-84.24 2111.47,-80.86 2101.51,-77.24 2101.42,-84.24"/>
</g>
<!-- Node18 -->
<g id="node18" class="node">
<title>Node18</title>
<g id="a_node18"><a xlink:href="../../dd/d54/export__layout__dialog_8cpp.html" target="_top" xlink:title=" ">
<polygon fill="white" stroke="black" points="785.5,-0.5 785.5,-30.5 928.5,-30.5 928.5,-0.5 785.5,-0.5"/>
<text text-anchor="start" x="793.5" y="-18.5" font-family="Helvetica,sans-Serif" font-size="10.00">src/app/seamly2d/dialogs</text>
<text text-anchor="middle" x="857" y="-7.5" font-family="Helvetica,sans-Serif" font-size="10.00">/export_layout_dialog.cpp</text>
</a>
</g>
</g>
<!-- Node3&#45;&gt;Node18 -->
<g id="edge17" class="edge">
<title>Node3&#45;&gt;Node18</title>
<path fill="none" stroke="midnightblue" d="M2101.03,-82.05C1908.57,-82.7 1376.57,-79.57 937,-31 934.33,-30.71 931.62,-30.37 928.89,-30.01"/>
<polygon fill="midnightblue" stroke="midnightblue" points="2101.32,-85.55 2111.31,-82.01 2101.3,-78.55 2101.32,-85.55"/>
</g>
<!-- Node3&#45;&gt;Node19 -->
<g id="edge18" class="edge">
<title>Node3&#45;&gt;Node19</title>
<path fill="none" stroke="midnightblue" d="M2248.76,-79.61C2595.55,-70.72 4047.93,-33.36 4071,-31 4073.7,-30.72 4076.45,-30.41 4079.22,-30.06"/>
<polygon fill="midnightblue" stroke="midnightblue" points="2248.49,-76.12 2238.59,-79.87 2248.67,-83.11 2248.49,-76.12"/>
</g>
<!-- Node20 -->
<g id="node20" class="node">
<title>Node20</title>
<g id="a_node20"><a xlink:href="../../db/d5c/groups__widget_8cpp.html" target="_top" xlink:title=" ">
<polygon fill="white" stroke="black" points="946.5,-0.5 946.5,-30.5 1087.5,-30.5 1087.5,-0.5 946.5,-0.5"/>
<text text-anchor="start" x="954.5" y="-18.5" font-family="Helvetica,sans-Serif" font-size="10.00">src/app/seamly2d/dialogs</text>
<text text-anchor="middle" x="1017" y="-7.5" font-family="Helvetica,sans-Serif" font-size="10.00">/groups_widget.cpp</text>
</a>
</g>
</g>
<!-- Node3&#45;&gt;Node20 -->
<g id="edge19" class="edge">
<title>Node3&#45;&gt;Node20</title>
<path fill="none" stroke="midnightblue" d="M2101.08,-81.46C1925.92,-80.64 1472.08,-74.12 1096,-31 1093.23,-30.68 1090.41,-30.33 1087.56,-29.94"/>
<polygon fill="midnightblue" stroke="midnightblue" points="2101.2,-84.96 2111.21,-81.51 2101.23,-77.97 2101.2,-84.96"/>
</g>
<!-- Node21 -->
<g id="node21" class="node">
<title>Node21</title>
<g id="a_node21"><a xlink:href="../../dd/d84/shortcuts__dialog_8cpp.html" target="_top" xlink:title=" ">
<polygon fill="white" stroke="black" points="1105.5,-0.5 1105.5,-30.5 1246.5,-30.5 1246.5,-0.5 1105.5,-0.5"/>
<text text-anchor="start" x="1113.5" y="-18.5" font-family="Helvetica,sans-Serif" font-size="10.00">src/app/seamly2d/dialogs</text>
<text text-anchor="middle" x="1176" y="-7.5" font-family="Helvetica,sans-Serif" font-size="10.00">/shortcuts_dialog.cpp</text>
</a>
</g>
</g>
<!-- Node3&#45;&gt;Node21 -->
<g id="edge20" class="edge">
<title>Node3&#45;&gt;Node21</title>
<path fill="none" stroke="midnightblue" d="M2101.02,-80.61C1944.41,-78.04 1568.08,-68.17 1255,-31 1252.23,-30.67 1249.41,-30.31 1246.57,-29.91"/>
<polygon fill="midnightblue" stroke="midnightblue" points="2101.41,-84.12 2111.46,-80.78 2101.52,-77.12 2101.41,-84.12"/>
</g>
<!-- Node22 -->
<g id="node22" class="node">
<title>Node22</title>
<g id="a_node22"><a xlink:href="../../d2/df4/show__info__dialog_8cpp.html" target="_top" xlink:title=" ">
<polygon fill="white" stroke="black" points="1264.5,-0.5 1264.5,-30.5 1405.5,-30.5 1405.5,-0.5 1264.5,-0.5"/>
<text text-anchor="start" x="1272.5" y="-18.5" font-family="Helvetica,sans-Serif" font-size="10.00">src/app/seamly2d/dialogs</text>
<text text-anchor="middle" x="1335" y="-7.5" font-family="Helvetica,sans-Serif" font-size="10.00">/show_info_dialog.cpp</text>
</a>
</g>
</g>
<!-- Node3&#45;&gt;Node22 -->
<g id="edge21" class="edge">
<title>Node3&#45;&gt;Node22</title>
<path fill="none" stroke="midnightblue" d="M2101.06,-79.42C1964.75,-74.97 1664.83,-62.24 1414,-31 1411.23,-30.66 1408.42,-30.28 1405.57,-29.87"/>
<polygon fill="midnightblue" stroke="midnightblue" points="2101.27,-82.93 2111.38,-79.76 2101.49,-75.94 2101.27,-82.93"/>
</g>
<!-- Node23 -->
<g id="node23" class="node">
<title>Node23</title>
<g id="a_node23"><a xlink:href="../../df/d69/welcome__dialog_8cpp.html" target="_top" xlink:title=" ">
<polygon fill="white" stroke="black" points="1423.5,-0.5 1423.5,-30.5 1564.5,-30.5 1564.5,-0.5 1423.5,-0.5"/>
<text text-anchor="start" x="1431.5" y="-18.5" font-family="Helvetica,sans-Serif" font-size="10.00">src/app/seamly2d/dialogs</text>
<text text-anchor="middle" x="1494" y="-7.5" font-family="Helvetica,sans-Serif" font-size="10.00">/welcome_dialog.cpp</text>
</a>
</g>
</g>
<!-- Node3&#45;&gt;Node23 -->
<g id="edge22" class="edge">
<title>Node3&#45;&gt;Node23</title>
<path fill="none" stroke="midnightblue" d="M2101.07,-77.63C1987.27,-71.16 1762.47,-56.27 1573,-31 1570.24,-30.63 1567.42,-30.23 1564.58,-29.81"/>
<polygon fill="midnightblue" stroke="midnightblue" points="2100.89,-81.13 2111.07,-78.2 2101.28,-74.14 2100.89,-81.13"/>
</g>
<!-- Node24 -->
<g id="node24" class="node">
<title>Node24</title>
<g id="a_node24"><a xlink:href="../../dc/d14/app_2seamly2d_2main_8cpp.html" target="_top" xlink:title=" ">
<polygon fill="white" stroke="black" points="351.5,-6 351.5,-25 502.5,-25 502.5,-6 351.5,-6"/>
<text text-anchor="middle" x="427" y="-13" font-family="Helvetica,sans-Serif" font-size="10.00">src/app/seamly2d/main.cpp</text>
</a>
</g>
</g>
<!-- Node3&#45;&gt;Node24 -->
<g id="edge23" class="edge">
<title>Node3&#45;&gt;Node24</title>
<path fill="none" stroke="midnightblue" d="M2101.14,-80.64C1821.29,-77.17 826.12,-62.82 511,-31 497.45,-29.63 482.8,-27.37 469.57,-25.04"/>
<polygon fill="midnightblue" stroke="midnightblue" points="2101.14,-84.14 2111.19,-80.76 2101.23,-77.14 2101.14,-84.14"/>
</g>
<!-- Node3&#45;&gt;Node25 -->
<g id="edge24" class="edge">
<title>Node3&#45;&gt;Node25</title>
<path fill="none" stroke="midnightblue" d="M2248.93,-79.58C2357.16,-76.77 2565.1,-71.4 2742,-67 3405.1,-50.52 3572.45,-79.17 4234,-31 4253.1,-29.61 4273.84,-27.35 4292.57,-25.02"/>
<polygon fill="midnightblue" stroke="midnightblue" points="2248.68,-76.08 2238.77,-79.84 2248.86,-83.08 2248.68,-76.08"/>
</g>
<!-- Node26 -->
<g id="node26" class="node">
<title>Node26</title>
<g id="a_node26"><a xlink:href="../../d3/d49/vpattern_8cpp.html" target="_top" xlink:title=" ">
<polygon fill="white" stroke="black" points="1582.5,-0.5 1582.5,-30.5 1707.5,-30.5 1707.5,-0.5 1582.5,-0.5"/>
<text text-anchor="start" x="1590.5" y="-18.5" font-family="Helvetica,sans-Serif" font-size="10.00">src/app/seamly2d/xml</text>
<text text-anchor="middle" x="1645" y="-7.5" font-family="Helvetica,sans-Serif" font-size="10.00">/vpattern.cpp</text>
</a>
</g>
</g>
<!-- Node3&#45;&gt;Node26 -->
<g id="edge25" class="edge">
<title>Node3&#45;&gt;Node26</title>
<path fill="none" stroke="midnightblue" d="M2101.07,-75.47C2010.12,-67.57 1851.17,-52.19 1716,-31 1713.27,-30.57 1710.48,-30.11 1707.66,-29.62"/>
<polygon fill="midnightblue" stroke="midnightblue" points="2101.01,-78.98 2111.27,-76.35 2101.61,-72.01 2101.01,-78.98"/>
</g>
<!-- Node27 -->
<g id="node27" class="node">
<title>Node27</title>
<g id="a_node27"><a xlink:href="../../d8/dd9/mainwindow_8cpp.html" target="_top" xlink:title=" ">
<polygon fill="white" stroke="black" points="0,-6 0,-25 188,-25 188,-6 0,-6"/>
<text text-anchor="middle" x="94" y="-13" font-family="Helvetica,sans-Serif" font-size="10.00">src/app/seamly2d/mainwindow.cpp</text>
</a>
</g>
</g>
<!-- Node3&#45;&gt;Node27 -->
<g id="edge26" class="edge">
<title>Node3&#45;&gt;Node27</title>
<path fill="none" stroke="midnightblue" d="M2101.18,-80.75C1789.23,-77.39 577.6,-62.54 197,-31 180.35,-29.62 162.29,-27.34 146,-25"/>
<polygon fill="midnightblue" stroke="midnightblue" points="2101.43,-84.25 2111.46,-80.86 2101.5,-77.25 2101.43,-84.25"/>
</g>
<!-- Node28 -->
<g id="node28" class="node">
<title>Node28</title>
<g id="a_node28"><a xlink:href="../../d9/da3/image__tool_8cpp.html" target="_top" xlink:title=" ">
<polygon fill="white" stroke="black" points="1725.5,-0.5 1725.5,-30.5 1842.5,-30.5 1842.5,-0.5 1725.5,-0.5"/>
<text text-anchor="start" x="1733.5" y="-18.5" font-family="Helvetica,sans-Serif" font-size="10.00">src/libs/tools/images</text>
<text text-anchor="middle" x="1784" y="-7.5" font-family="Helvetica,sans-Serif" font-size="10.00">/image_tool.cpp</text>
</a>
</g>
</g>
<!-- Node3&#45;&gt;Node28 -->
<g id="edge27" class="edge">
<title>Node3&#45;&gt;Node28</title>
<path fill="none" stroke="midnightblue" d="M2101.15,-71.13C2035.56,-61.65 1937.17,-46.73 1852,-31 1848.91,-30.43 1845.75,-29.83 1842.56,-29.2"/>
<polygon fill="midnightblue" stroke="midnightblue" points="2100.99,-74.65 2111.39,-72.61 2101.99,-67.72 2100.99,-74.65"/>
</g>
<!-- Node30&#45;&gt;Node4 -->
<g id="edge30" class="edge">
<title>Node30&#45;&gt;Node4</title>
<path fill="none" stroke="midnightblue" d="M330.45,-66.24C317.34,-55.45 299.9,-41.1 287.12,-30.59"/>
<polygon fill="midnightblue" stroke="midnightblue" points="328.4,-69.08 338.35,-72.73 332.85,-63.68 328.4,-69.08"/>
</g>
<!-- Node30&#45;&gt;Node24 -->
<g id="edge31" class="edge">
<title>Node30&#45;&gt;Node24</title>
<path fill="none" stroke="midnightblue" d="M367.34,-66.21C382.71,-53.41 404.09,-35.59 416.65,-25.13"/>
<polygon fill="midnightblue" stroke="midnightblue" points="364.96,-63.64 359.52,-72.73 369.44,-69.02 364.96,-63.64"/>
</g>
<!-- Node30&#45;&gt;Node27 -->
<g id="edge32" class="edge">
<title>Node30&#45;&gt;Node27</title>
<path fill="none" stroke="midnightblue" d="M305.47,-70.4C255.14,-57.58 173.39,-36.74 127.67,-25.08"/>
<polygon fill="midnightblue" stroke="midnightblue" points="304.85,-73.86 315.4,-72.94 306.58,-67.07 304.85,-73.86"/>
</g>
</g>
</svg>
