<?xml version="1.0" encoding="UTF-8" standalone="no"?>
<!DOCTYPE svg PUBLIC "-//W3C//DTD SVG 1.1//EN"
 "http://www.w3.org/Graphics/SVG/1.1/DTD/svg11.dtd">
<!-- Generated by graphviz version 2.43.0 (0)
 -->
<!-- Title: MoveSPoint Pages: 1 -->
<svg width="627pt" height="1939pt"
 viewBox="0.00 0.00 627.09 1939.00" xmlns="http://www.w3.org/2000/svg" xmlns:xlink="http://www.w3.org/1999/xlink">
<g id="graph0" class="graph" transform="scale(1 1) rotate(0) translate(4 1935)">
<title>MoveSPoint</title>
<polygon fill="white" stroke="transparent" points="-4,4 -4,-1935 623.09,-1935 623.09,4 -4,4"/>
<!-- Node1 -->
<g id="node1" class="node">
<title>Node1</title>
<g id="a_node1"><a xlink:title=" ">
<polygon fill="#bfbfbf" stroke="black" points="115.59,-0.5 115.59,-200.5 216.59,-200.5 216.59,-0.5 115.59,-0.5"/>
<text text-anchor="middle" x="166.09" y="-188.5" font-family="Helvetica,sans-Serif" font-size="10.00">MoveSPoint</text>
<polyline fill="none" stroke="black" points="115.59,-181.5 216.59,-181.5 "/>
<text text-anchor="start" x="123.59" y="-169.5" font-family="Helvetica,sans-Serif" font-size="10.00">&#45; oldX</text>
<text text-anchor="start" x="123.59" y="-158.5" font-family="Helvetica,sans-Serif" font-size="10.00">&#45; oldY</text>
<text text-anchor="start" x="123.59" y="-147.5" font-family="Helvetica,sans-Serif" font-size="10.00">&#45; newX</text>
<text text-anchor="start" x="123.59" y="-136.5" font-family="Helvetica,sans-Serif" font-size="10.00">&#45; newY</text>
<text text-anchor="start" x="123.59" y="-125.5" font-family="Helvetica,sans-Serif" font-size="10.00">&#45; scene</text>
<polyline fill="none" stroke="black" points="115.59,-118.5 216.59,-118.5 "/>
<text text-anchor="start" x="123.59" y="-106.5" font-family="Helvetica,sans-Serif" font-size="10.00">+ MoveSPoint()</text>
<text text-anchor="start" x="123.59" y="-95.5" font-family="Helvetica,sans-Serif" font-size="10.00">+ ~MoveSPoint()</text>
<text text-anchor="start" x="123.59" y="-84.5" font-family="Helvetica,sans-Serif" font-size="10.00">+ undo()</text>
<text text-anchor="start" x="123.59" y="-73.5" font-family="Helvetica,sans-Serif" font-size="10.00">+ redo()</text>
<text text-anchor="start" x="123.59" y="-62.5" font-family="Helvetica,sans-Serif" font-size="10.00">+ mergeWith()</text>
<text text-anchor="start" x="123.59" y="-51.5" font-family="Helvetica,sans-Serif" font-size="10.00">+ id()</text>
<text text-anchor="start" x="123.59" y="-40.5" font-family="Helvetica,sans-Serif" font-size="10.00">+ getSPointId()</text>
<text text-anchor="start" x="123.59" y="-29.5" font-family="Helvetica,sans-Serif" font-size="10.00">+ getNewX()</text>
<text text-anchor="start" x="123.59" y="-18.5" font-family="Helvetica,sans-Serif" font-size="10.00">+ getNewY()</text>
<text text-anchor="start" x="123.59" y="-7.5" font-family="Helvetica,sans-Serif" font-size="10.00">+ Do()</text>
</a>
</g>
</g>
<!-- Node2 -->
<g id="node2" class="node">
<title>Node2</title>
<g id="a_node2"><a xlink:href="../../de/d04/classVUndoCommand.html" target="_top" xlink:title=" ">
<polygon fill="white" stroke="black" points="91.59,-238.5 91.59,-427.5 240.59,-427.5 240.59,-238.5 91.59,-238.5"/>
<text text-anchor="middle" x="166.09" y="-415.5" font-family="Helvetica,sans-Serif" font-size="10.00">VUndoCommand</text>
<polyline fill="none" stroke="black" points="91.59,-408.5 240.59,-408.5 "/>
<text text-anchor="start" x="99.59" y="-396.5" font-family="Helvetica,sans-Serif" font-size="10.00"># xml</text>
<text text-anchor="start" x="99.59" y="-385.5" font-family="Helvetica,sans-Serif" font-size="10.00"># nodeId</text>
<text text-anchor="start" x="99.59" y="-374.5" font-family="Helvetica,sans-Serif" font-size="10.00"># redoFlag</text>
<polyline fill="none" stroke="black" points="91.59,-367.5 240.59,-367.5 "/>
<text text-anchor="start" x="99.59" y="-355.5" font-family="Helvetica,sans-Serif" font-size="10.00">+ VUndoCommand()</text>
<text text-anchor="start" x="99.59" y="-344.5" font-family="Helvetica,sans-Serif" font-size="10.00">+ ~VUndoCommand()</text>
<text text-anchor="start" x="99.59" y="-333.5" font-family="Helvetica,sans-Serif" font-size="10.00"># RedoFullParsing()</text>
<text text-anchor="start" x="99.59" y="-322.5" font-family="Helvetica,sans-Serif" font-size="10.00"># UndoDeleteAfterSibling()</text>
<text text-anchor="start" x="99.59" y="-311.5" font-family="Helvetica,sans-Serif" font-size="10.00"># IncrementReferences()</text>
<text text-anchor="start" x="99.59" y="-300.5" font-family="Helvetica,sans-Serif" font-size="10.00"># DecrementReferences()</text>
<text text-anchor="start" x="99.59" y="-289.5" font-family="Helvetica,sans-Serif" font-size="10.00"># IncrementReferences()</text>
<text text-anchor="start" x="99.59" y="-278.5" font-family="Helvetica,sans-Serif" font-size="10.00"># DecrementReferences()</text>
<text text-anchor="start" x="99.59" y="-267.5" font-family="Helvetica,sans-Serif" font-size="10.00"># IncrementReferences()</text>
<text text-anchor="start" x="99.59" y="-256.5" font-family="Helvetica,sans-Serif" font-size="10.00"># DecrementReferences()</text>
<text text-anchor="start" x="99.59" y="-245.5" font-family="Helvetica,sans-Serif" font-size="10.00"># getDestinationObject()</text>
</a>
</g>
</g>
<!-- Node2&#45;&gt;Node1 -->
<g id="edge1" class="edge">
<title>Node2&#45;&gt;Node1</title>
<path fill="none" stroke="midnightblue" d="M166.09,-228.06C166.09,-218.99 166.09,-209.83 166.09,-200.8"/>
<polygon fill="none" stroke="midnightblue" points="162.59,-228.25 166.09,-238.25 169.59,-228.25 162.59,-228.25"/>
</g>
<!-- Node3 -->
<g id="node3" class="node">
<title>Node3</title>
<g id="a_node3"><a xlink:title=" ">
<polygon fill="white" stroke="#bfbfbf" points="13.09,-1565 13.09,-1622 69.09,-1622 69.09,-1565 13.09,-1565"/>
<text text-anchor="middle" x="41.09" y="-1610" font-family="Helvetica,sans-Serif" font-size="10.00">QObject</text>
<polyline fill="none" stroke="#bfbfbf" points="13.09,-1603 69.09,-1603 "/>
<text text-anchor="middle" x="41.09" y="-1591" font-family="Helvetica,sans-Serif" font-size="10.00"> </text>
<polyline fill="none" stroke="#bfbfbf" points="13.09,-1584 69.09,-1584 "/>
<text text-anchor="middle" x="41.09" y="-1572" font-family="Helvetica,sans-Serif" font-size="10.00"> </text>
</a>
</g>
</g>
<!-- Node3&#45;&gt;Node2 -->
<g id="edge2" class="edge">
<title>Node3&#45;&gt;Node2</title>
<path fill="none" stroke="midnightblue" d="M35.22,-1554.71C14.21,-1410.31 -49.42,-881.18 76.09,-475 81.07,-458.91 88.41,-442.87 96.78,-427.69"/>
<polygon fill="none" stroke="midnightblue" points="31.79,-1555.43 36.71,-1564.82 38.71,-1554.41 31.79,-1555.43"/>
</g>
<!-- Node5 -->
<g id="node5" class="node">
<title>Node5</title>
<g id="a_node5"><a xlink:href="../../d8/dba/classVAbstractPattern.html" target="_top" xlink:title=" ">
<polygon fill="white" stroke="black" points="85.09,-475.5 85.09,-1313.5 247.09,-1313.5 247.09,-475.5 85.09,-475.5"/>
<text text-anchor="middle" x="166.09" y="-1301.5" font-family="Helvetica,sans-Serif" font-size="10.00">VAbstractPattern</text>
<polyline fill="none" stroke="black" points="85.09,-1294.5 247.09,-1294.5 "/>
<text text-anchor="start" x="93.09" y="-1282.5" font-family="Helvetica,sans-Serif" font-size="10.00">+ TagPattern</text>
<text text-anchor="start" x="93.09" y="-1271.5" font-family="Helvetica,sans-Serif" font-size="10.00">+ TagCalculation</text>
<text text-anchor="start" x="93.09" y="-1260.5" font-family="Helvetica,sans-Serif" font-size="10.00">+ TagModeling</text>
<text text-anchor="start" x="93.09" y="-1249.5" font-family="Helvetica,sans-Serif" font-size="10.00">+ TagPieces</text>
<text text-anchor="start" x="93.09" y="-1238.5" font-family="Helvetica,sans-Serif" font-size="10.00">+ TagPiece</text>
<text text-anchor="start" x="93.09" y="-1227.5" font-family="Helvetica,sans-Serif" font-size="10.00">+ TagDescription</text>
<text text-anchor="start" x="93.09" y="-1216.5" font-family="Helvetica,sans-Serif" font-size="10.00">+ TagImage</text>
<text text-anchor="start" x="93.09" y="-1205.5" font-family="Helvetica,sans-Serif" font-size="10.00">+ TagNotes</text>
<text text-anchor="start" x="93.09" y="-1194.5" font-family="Helvetica,sans-Serif" font-size="10.00">+ TagMeasurements</text>
<text text-anchor="start" x="93.09" y="-1183.5" font-family="Helvetica,sans-Serif" font-size="10.00">+ TagVariables</text>
<text text-anchor="start" x="93.09" y="-1172.5" font-family="Helvetica,sans-Serif" font-size="10.00">and 142 more...</text>
<text text-anchor="start" x="93.09" y="-1161.5" font-family="Helvetica,sans-Serif" font-size="10.00"># activeDraftBlock</text>
<text text-anchor="start" x="93.09" y="-1150.5" font-family="Helvetica,sans-Serif" font-size="10.00"># m_DefaultLineColor</text>
<text text-anchor="start" x="93.09" y="-1139.5" font-family="Helvetica,sans-Serif" font-size="10.00"># m_DefaultLineWeight</text>
<text text-anchor="start" x="93.09" y="-1128.5" font-family="Helvetica,sans-Serif" font-size="10.00"># m_DefaultLineType</text>
<text text-anchor="start" x="93.09" y="-1117.5" font-family="Helvetica,sans-Serif" font-size="10.00"># defaultBasePoint</text>
<text text-anchor="start" x="93.09" y="-1106.5" font-family="Helvetica,sans-Serif" font-size="10.00"># lastSavedExportFormat</text>
<text text-anchor="start" x="93.09" y="-1095.5" font-family="Helvetica,sans-Serif" font-size="10.00"># cursor</text>
<text text-anchor="start" x="93.09" y="-1084.5" font-family="Helvetica,sans-Serif" font-size="10.00"># toolsOnRemove</text>
<text text-anchor="start" x="93.09" y="-1073.5" font-family="Helvetica,sans-Serif" font-size="10.00"># history</text>
<text text-anchor="start" x="93.09" y="-1062.5" font-family="Helvetica,sans-Serif" font-size="10.00"># patternPieces</text>
<text text-anchor="start" x="93.09" y="-1051.5" font-family="Helvetica,sans-Serif" font-size="10.00"># modified</text>
<text text-anchor="start" x="93.09" y="-1040.5" font-family="Helvetica,sans-Serif" font-size="10.00"># patternLabelLines</text>
<text text-anchor="start" x="93.09" y="-1029.5" font-family="Helvetica,sans-Serif" font-size="10.00"># patternLabelWasChanged</text>
<polyline fill="none" stroke="black" points="85.09,-1022.5 247.09,-1022.5 "/>
<text text-anchor="start" x="93.09" y="-1010.5" font-family="Helvetica,sans-Serif" font-size="10.00">+ VAbstractPattern()</text>
<text text-anchor="start" x="93.09" y="-999.5" font-family="Helvetica,sans-Serif" font-size="10.00">+ ~VAbstractPattern()</text>
<text text-anchor="start" x="93.09" y="-988.5" font-family="Helvetica,sans-Serif" font-size="10.00">+ ListMeasurements()</text>
<text text-anchor="start" x="93.09" y="-977.5" font-family="Helvetica,sans-Serif" font-size="10.00">+ ListExpressions()</text>
<text text-anchor="start" x="93.09" y="-966.5" font-family="Helvetica,sans-Serif" font-size="10.00">+ listVariableExpressions()</text>
<text text-anchor="start" x="93.09" y="-955.5" font-family="Helvetica,sans-Serif" font-size="10.00">+ CreateEmptyFile()</text>
<text text-anchor="start" x="93.09" y="-944.5" font-family="Helvetica,sans-Serif" font-size="10.00">+ changeActiveDraftBlock()</text>
<text text-anchor="start" x="93.09" y="-933.5" font-family="Helvetica,sans-Serif" font-size="10.00">+ getActiveDraftBlockName()</text>
<text text-anchor="start" x="93.09" y="-922.5" font-family="Helvetica,sans-Serif" font-size="10.00">+ draftBlockNameExists()</text>
<text text-anchor="start" x="93.09" y="-911.5" font-family="Helvetica,sans-Serif" font-size="10.00">+ draftBlockCount()</text>
<text text-anchor="start" x="93.09" y="-900.5" font-family="Helvetica,sans-Serif" font-size="10.00">and 96 more...</text>
<text text-anchor="start" x="93.09" y="-889.5" font-family="Helvetica,sans-Serif" font-size="10.00">+ getTool()</text>
<text text-anchor="start" x="93.09" y="-878.5" font-family="Helvetica,sans-Serif" font-size="10.00">+ AddTool()</text>
<text text-anchor="start" x="93.09" y="-867.5" font-family="Helvetica,sans-Serif" font-size="10.00">+ RemoveTool()</text>
<text text-anchor="start" x="93.09" y="-856.5" font-family="Helvetica,sans-Serif" font-size="10.00">+ ParsePieceNodes()</text>
<text text-anchor="start" x="93.09" y="-845.5" font-family="Helvetica,sans-Serif" font-size="10.00">+ ParsePieceCSARecords()</text>
<text text-anchor="start" x="93.09" y="-834.5" font-family="Helvetica,sans-Serif" font-size="10.00">+ ParsePieceInternalPaths()</text>
<text text-anchor="start" x="93.09" y="-823.5" font-family="Helvetica,sans-Serif" font-size="10.00">+ ParsePieceAnchors()</text>
<text text-anchor="start" x="93.09" y="-812.5" font-family="Helvetica,sans-Serif" font-size="10.00">+ LiteParseTree()</text>
<text text-anchor="start" x="93.09" y="-801.5" font-family="Helvetica,sans-Serif" font-size="10.00">+ haveLiteChange()</text>
<text text-anchor="start" x="93.09" y="-790.5" font-family="Helvetica,sans-Serif" font-size="10.00">+ NeedFullParsing()</text>
<text text-anchor="start" x="93.09" y="-779.5" font-family="Helvetica,sans-Serif" font-size="10.00">+ ClearScene()</text>
<text text-anchor="start" x="93.09" y="-768.5" font-family="Helvetica,sans-Serif" font-size="10.00">+ updatePieceList()</text>
<text text-anchor="start" x="93.09" y="-757.5" font-family="Helvetica,sans-Serif" font-size="10.00">+ selectedPiece()</text>
<text text-anchor="start" x="93.09" y="-746.5" font-family="Helvetica,sans-Serif" font-size="10.00"># setActiveDraftBlock()</text>
<text text-anchor="start" x="93.09" y="-735.5" font-family="Helvetica,sans-Serif" font-size="10.00"># CheckTagExists()</text>
<text text-anchor="start" x="93.09" y="-724.5" font-family="Helvetica,sans-Serif" font-size="10.00"># InsertTag()</text>
<text text-anchor="start" x="93.09" y="-713.5" font-family="Helvetica,sans-Serif" font-size="10.00"># SetChildTag()</text>
<text text-anchor="start" x="93.09" y="-702.5" font-family="Helvetica,sans-Serif" font-size="10.00"># getActiveDraftBlockIndex()</text>
<text text-anchor="start" x="93.09" y="-691.5" font-family="Helvetica,sans-Serif" font-size="10.00"># getActiveDraftElement()</text>
<text text-anchor="start" x="93.09" y="-680.5" font-family="Helvetica,sans-Serif" font-size="10.00"># hasGroupItem()</text>
<text text-anchor="start" x="93.09" y="-669.5" font-family="Helvetica,sans-Serif" font-size="10.00"># ToolExists()</text>
<text text-anchor="start" x="93.09" y="-658.5" font-family="Helvetica,sans-Serif" font-size="10.00"># ParsePathNodes()</text>
<text text-anchor="start" x="93.09" y="-647.5" font-family="Helvetica,sans-Serif" font-size="10.00"># ParseSANode()</text>
<text text-anchor="start" x="93.09" y="-636.5" font-family="Helvetica,sans-Serif" font-size="10.00">&#45; listVariables()</text>
<text text-anchor="start" x="93.09" y="-625.5" font-family="Helvetica,sans-Serif" font-size="10.00">&#45; ListPointExpressions()</text>
<text text-anchor="start" x="93.09" y="-614.5" font-family="Helvetica,sans-Serif" font-size="10.00">&#45; ListArcExpressions()</text>
<text text-anchor="start" x="93.09" y="-603.5" font-family="Helvetica,sans-Serif" font-size="10.00">&#45; ListElArcExpressions()</text>
<text text-anchor="start" x="93.09" y="-592.5" font-family="Helvetica,sans-Serif" font-size="10.00">&#45; ListSplineExpressions()</text>
<text text-anchor="start" x="93.09" y="-581.5" font-family="Helvetica,sans-Serif" font-size="10.00">&#45; ListPathPointExpressions()</text>
<text text-anchor="start" x="93.09" y="-570.5" font-family="Helvetica,sans-Serif" font-size="10.00">&#45; ListOperationExpressions()</text>
<text text-anchor="start" x="93.09" y="-559.5" font-family="Helvetica,sans-Serif" font-size="10.00">&#45; ListNodesExpressions()</text>
<text text-anchor="start" x="93.09" y="-548.5" font-family="Helvetica,sans-Serif" font-size="10.00">&#45; ListPathExpressions()</text>
<text text-anchor="start" x="93.09" y="-537.5" font-family="Helvetica,sans-Serif" font-size="10.00">&#45; ListGrainlineExpressions()</text>
<text text-anchor="start" x="93.09" y="-526.5" font-family="Helvetica,sans-Serif" font-size="10.00">&#45; ListPieceExpressions()</text>
<text text-anchor="start" x="93.09" y="-515.5" font-family="Helvetica,sans-Serif" font-size="10.00">&#45; IsVariable()</text>
<text text-anchor="start" x="93.09" y="-504.5" font-family="Helvetica,sans-Serif" font-size="10.00">&#45; IsPostfixOperator()</text>
<text text-anchor="start" x="93.09" y="-493.5" font-family="Helvetica,sans-Serif" font-size="10.00">&#45; IsFunction()</text>
<text text-anchor="start" x="93.09" y="-482.5" font-family="Helvetica,sans-Serif" font-size="10.00">&#45; ParseItemElement()</text>
</a>
</g>
</g>
<!-- Node3&#45;&gt;Node5 -->
<g id="edge5" class="edge">
<title>Node3&#45;&gt;Node5</title>
<path fill="none" stroke="midnightblue" d="M46.82,-1554.57C53.82,-1508.67 66.22,-1429.07 78.09,-1361 80.8,-1345.5 83.59,-1329.73 86.44,-1313.79"/>
<polygon fill="none" stroke="midnightblue" points="43.33,-1554.25 45.28,-1564.66 50.25,-1555.3 43.33,-1554.25"/>
</g>
<!-- Node4 -->
<g id="node4" class="node">
<title>Node4</title>
<g id="a_node4"><a xlink:title=" ">
<polygon fill="white" stroke="#bfbfbf" points="265.09,-866 265.09,-923 365.09,-923 365.09,-866 265.09,-866"/>
<text text-anchor="middle" x="315.09" y="-911" font-family="Helvetica,sans-Serif" font-size="10.00">QUndoCommand</text>
<polyline fill="none" stroke="#bfbfbf" points="265.09,-904 365.09,-904 "/>
<text text-anchor="middle" x="315.09" y="-892" font-family="Helvetica,sans-Serif" font-size="10.00"> </text>
<polyline fill="none" stroke="#bfbfbf" points="265.09,-885 365.09,-885 "/>
<text text-anchor="middle" x="315.09" y="-873" font-family="Helvetica,sans-Serif" font-size="10.00"> </text>
</a>
</g>
</g>
<!-- Node4&#45;&gt;Node2 -->
<g id="edge3" class="edge">
<title>Node4&#45;&gt;Node2</title>
<path fill="none" stroke="midnightblue" d="M315.08,-855.47C313.9,-780.36 305.5,-608.65 256.09,-475 250.2,-459.07 242.31,-443.05 233.63,-427.82"/>
<polygon fill="none" stroke="midnightblue" points="311.58,-855.88 315.2,-865.84 318.58,-855.8 311.58,-855.88"/>
</g>
<!-- Node5&#45;&gt;Node2 -->
<g id="edge4" class="edge">
<title>Node5&#45;&gt;Node2</title>
<path fill="none" stroke="#404040" d="M166.09,-475.19C166.09,-462.76 166.09,-450.83 166.09,-439.52"/>
<polygon fill="none" stroke="#404040" points="166.09,-439.51 162.09,-433.51 166.09,-427.51 170.09,-433.51 166.09,-439.51"/>
<text text-anchor="middle" x="180.59" y="-449" font-family="Helvetica,sans-Serif" font-size="10.00"> #doc</text>
</g>
<!-- Node6 -->
<g id="node6" class="node">
<title>Node6</title>
<g id="a_node6"><a xlink:href="../../d6/deb/classVDomDocument.html" target="_top" xlink:title="The VDomDocument class represents a Seamly2D document (.val file).">
<polygon fill="white" stroke="black" points="87.59,-1361.5 87.59,-1825.5 244.59,-1825.5 244.59,-1361.5 87.59,-1361.5"/>
<text text-anchor="middle" x="166.09" y="-1813.5" font-family="Helvetica,sans-Serif" font-size="10.00">VDomDocument</text>
<polyline fill="none" stroke="black" points="87.59,-1806.5 244.59,-1806.5 "/>
<text text-anchor="start" x="95.59" y="-1794.5" font-family="Helvetica,sans-Serif" font-size="10.00">+ AttrId</text>
<text text-anchor="start" x="95.59" y="-1783.5" font-family="Helvetica,sans-Serif" font-size="10.00">+ AttrText</text>
<text text-anchor="start" x="95.59" y="-1772.5" font-family="Helvetica,sans-Serif" font-size="10.00">+ AttrBold</text>
<text text-anchor="start" x="95.59" y="-1761.5" font-family="Helvetica,sans-Serif" font-size="10.00">+ AttrItalic</text>
<text text-anchor="start" x="95.59" y="-1750.5" font-family="Helvetica,sans-Serif" font-size="10.00">+ AttrAlignment</text>
<text text-anchor="start" x="95.59" y="-1739.5" font-family="Helvetica,sans-Serif" font-size="10.00">+ AttrFSIncrement</text>
<text text-anchor="start" x="95.59" y="-1728.5" font-family="Helvetica,sans-Serif" font-size="10.00">+ TagVersion</text>
<text text-anchor="start" x="95.59" y="-1717.5" font-family="Helvetica,sans-Serif" font-size="10.00">+ TagUnit</text>
<text text-anchor="start" x="95.59" y="-1706.5" font-family="Helvetica,sans-Serif" font-size="10.00">+ TagLine</text>
<polyline fill="none" stroke="black" points="87.59,-1699.5 244.59,-1699.5 "/>
<text text-anchor="start" x="95.59" y="-1687.5" font-family="Helvetica,sans-Serif" font-size="10.00">+ VDomDocument()</text>
<text text-anchor="start" x="95.59" y="-1676.5" font-family="Helvetica,sans-Serif" font-size="10.00">+ ~VDomDocument()</text>
<text text-anchor="start" x="95.59" y="-1665.5" font-family="Helvetica,sans-Serif" font-size="10.00">+ elementById()</text>
<text text-anchor="start" x="95.59" y="-1654.5" font-family="Helvetica,sans-Serif" font-size="10.00">+ SetAttribute()</text>
<text text-anchor="start" x="95.59" y="-1643.5" font-family="Helvetica,sans-Serif" font-size="10.00">+ measurementUnits()</text>
<text text-anchor="start" x="95.59" y="-1632.5" font-family="Helvetica,sans-Serif" font-size="10.00">+ setXMLContent()</text>
<text text-anchor="start" x="95.59" y="-1621.5" font-family="Helvetica,sans-Serif" font-size="10.00">+ SaveDocument()</text>
<text text-anchor="start" x="95.59" y="-1610.5" font-family="Helvetica,sans-Serif" font-size="10.00">+ Major()</text>
<text text-anchor="start" x="95.59" y="-1599.5" font-family="Helvetica,sans-Serif" font-size="10.00">+ Minor()</text>
<text text-anchor="start" x="95.59" y="-1588.5" font-family="Helvetica,sans-Serif" font-size="10.00">+ Patch()</text>
<text text-anchor="start" x="95.59" y="-1577.5" font-family="Helvetica,sans-Serif" font-size="10.00">and 8 more...</text>
<text text-anchor="start" x="95.59" y="-1566.5" font-family="Helvetica,sans-Serif" font-size="10.00">+ GetParametrUInt()</text>
<text text-anchor="start" x="95.59" y="-1555.5" font-family="Helvetica,sans-Serif" font-size="10.00">+ getParameterBool()</text>
<text text-anchor="start" x="95.59" y="-1544.5" font-family="Helvetica,sans-Serif" font-size="10.00">+ GetParametrUsage()</text>
<text text-anchor="start" x="95.59" y="-1533.5" font-family="Helvetica,sans-Serif" font-size="10.00">+ SetParametrUsage()</text>
<text text-anchor="start" x="95.59" y="-1522.5" font-family="Helvetica,sans-Serif" font-size="10.00">+ GetParametrString()</text>
<text text-anchor="start" x="95.59" y="-1511.5" font-family="Helvetica,sans-Serif" font-size="10.00">+ GetParametrEmptyString()</text>
<text text-anchor="start" x="95.59" y="-1500.5" font-family="Helvetica,sans-Serif" font-size="10.00">+ GetParametrDouble()</text>
<text text-anchor="start" x="95.59" y="-1489.5" font-family="Helvetica,sans-Serif" font-size="10.00">+ getParameterId()</text>
<text text-anchor="start" x="95.59" y="-1478.5" font-family="Helvetica,sans-Serif" font-size="10.00">+ ValidateXML()</text>
<text text-anchor="start" x="95.59" y="-1467.5" font-family="Helvetica,sans-Serif" font-size="10.00">+ UnitsHelpString()</text>
<text text-anchor="start" x="95.59" y="-1456.5" font-family="Helvetica,sans-Serif" font-size="10.00">+ RemoveAllChildren()</text>
<text text-anchor="start" x="95.59" y="-1445.5" font-family="Helvetica,sans-Serif" font-size="10.00">+ SafeCopy()</text>
<text text-anchor="start" x="95.59" y="-1434.5" font-family="Helvetica,sans-Serif" font-size="10.00"># setTagText()</text>
<text text-anchor="start" x="95.59" y="-1423.5" font-family="Helvetica,sans-Serif" font-size="10.00"># setTagText()</text>
<text text-anchor="start" x="95.59" y="-1412.5" font-family="Helvetica,sans-Serif" font-size="10.00"># UniqueTagText()</text>
<text text-anchor="start" x="95.59" y="-1401.5" font-family="Helvetica,sans-Serif" font-size="10.00"># TestUniqueId()</text>
<text text-anchor="start" x="95.59" y="-1390.5" font-family="Helvetica,sans-Serif" font-size="10.00"># CollectId()</text>
<text text-anchor="start" x="95.59" y="-1379.5" font-family="Helvetica,sans-Serif" font-size="10.00">&#45; find()</text>
<text text-anchor="start" x="95.59" y="-1368.5" font-family="Helvetica,sans-Serif" font-size="10.00">&#45; SaveCanonicalXML()</text>
</a>
</g>
</g>
<!-- Node6&#45;&gt;Node5 -->
<g id="edge6" class="edge">
<title>Node6&#45;&gt;Node5</title>
<path fill="none" stroke="midnightblue" d="M166.09,-1351.12C166.09,-1338.85 166.09,-1326.39 166.09,-1313.8"/>
<polygon fill="none" stroke="midnightblue" points="162.59,-1351.38 166.09,-1361.38 169.59,-1351.38 162.59,-1351.38"/>
</g>
<!-- Node7 -->
<g id="node7" class="node">
<title>Node7</title>
<g id="a_node7"><a xlink:title=" ">
<polygon fill="white" stroke="#bfbfbf" points="37.09,-1873.5 37.09,-1930.5 135.09,-1930.5 135.09,-1873.5 37.09,-1873.5"/>
<text text-anchor="middle" x="86.09" y="-1918.5" font-family="Helvetica,sans-Serif" font-size="10.00">QDomDocument</text>
<polyline fill="none" stroke="#bfbfbf" points="37.09,-1911.5 135.09,-1911.5 "/>
<text text-anchor="middle" x="86.09" y="-1899.5" font-family="Helvetica,sans-Serif" font-size="10.00"> </text>
<polyline fill="none" stroke="#bfbfbf" points="37.09,-1892.5 135.09,-1892.5 "/>
<text text-anchor="middle" x="86.09" y="-1880.5" font-family="Helvetica,sans-Serif" font-size="10.00"> </text>
</a>
</g>
</g>
<!-- Node7&#45;&gt;Node6 -->
<g id="edge7" class="edge">
<title>Node7&#45;&gt;Node6</title>
<path fill="none" stroke="midnightblue" d="M95.91,-1863.38C98.77,-1852.45 102.11,-1839.65 105.76,-1825.67"/>
<polygon fill="none" stroke="midnightblue" points="92.47,-1862.7 93.34,-1873.26 99.25,-1864.47 92.47,-1862.7"/>
</g>
<!-- Node8 -->
<g id="node8" class="node">
<title>Node8</title>
<g id="a_node8"><a xlink:href="../../da/da1/classQHash.html" target="_top" xlink:title=" ">
<polygon fill="white" stroke="black" points="153.59,-1873.5 153.59,-1930.5 338.59,-1930.5 338.59,-1873.5 153.59,-1873.5"/>
<text text-anchor="middle" x="246.09" y="-1918.5" font-family="Helvetica,sans-Serif" font-size="10.00">QHash&lt; quint32, QDomElement &gt;</text>
<polyline fill="none" stroke="black" points="153.59,-1911.5 338.59,-1911.5 "/>
<text text-anchor="middle" x="246.09" y="-1899.5" font-family="Helvetica,sans-Serif" font-size="10.00"> </text>
<polyline fill="none" stroke="black" points="153.59,-1892.5 338.59,-1892.5 "/>
<text text-anchor="middle" x="246.09" y="-1880.5" font-family="Helvetica,sans-Serif" font-size="10.00"> </text>
</a>
</g>
</g>
<!-- Node8&#45;&gt;Node6 -->
<g id="edge8" class="edge">
<title>Node8&#45;&gt;Node6</title>
<path fill="none" stroke="#404040" d="M238.85,-1873.26C236.25,-1863.3 233.07,-1851.12 229.51,-1837.46"/>
<polygon fill="none" stroke="#404040" points="229.46,-1837.28 224.08,-1832.48 226.43,-1825.67 231.82,-1830.46 229.46,-1837.28"/>
<text text-anchor="middle" x="247.59" y="-1847" font-family="Helvetica,sans-Serif" font-size="10.00"> &#45;map</text>
</g>
<!-- Node9 -->
<g id="node9" class="node">
<title>Node9</title>
<g id="a_node9"><a xlink:href="../../da/da1/classQHash.html" target="_top" xlink:title=" ">
<polygon fill="white" stroke="black" points="263.09,-1565 263.09,-1622 435.09,-1622 435.09,-1565 263.09,-1565"/>
<text text-anchor="middle" x="349.09" y="-1610" font-family="Helvetica,sans-Serif" font-size="10.00">QHash&lt; quint32, VDataTool * &gt;</text>
<polyline fill="none" stroke="black" points="263.09,-1603 435.09,-1603 "/>
<text text-anchor="middle" x="349.09" y="-1591" font-family="Helvetica,sans-Serif" font-size="10.00"> </text>
<polyline fill="none" stroke="black" points="263.09,-1584 435.09,-1584 "/>
<text text-anchor="middle" x="349.09" y="-1572" font-family="Helvetica,sans-Serif" font-size="10.00"> </text>
</a>
</g>
</g>
<!-- Node9&#45;&gt;Node5 -->
<g id="edge9" class="edge">
<title>Node9&#45;&gt;Node5</title>
<path fill="none" stroke="#404040" d="M338.69,-1564.75C320.3,-1515.01 281.59,-1407.17 256.09,-1314 254.1,-1306.71 252.12,-1299.34 250.16,-1291.9"/>
<polygon fill="none" stroke="#404040" points="250.13,-1291.78 244.74,-1286.98 247.1,-1280.16 252.48,-1284.96 250.13,-1291.78"/>
<text text-anchor="middle" x="280.09" y="-1335" font-family="Helvetica,sans-Serif" font-size="10.00"> #tools</text>
</g>
<!-- Node10 -->
<g id="node10" class="node">
<title>Node10</title>
<g id="a_node10"><a xlink:href="../../d0/d4c/classQMap.html" target="_top" xlink:title=" ">
<polygon fill="white" stroke="black" points="453.09,-1565 453.09,-1622 619.09,-1622 619.09,-1565 453.09,-1565"/>
<text text-anchor="middle" x="536.09" y="-1610" font-family="Helvetica,sans-Serif" font-size="10.00">QMap&lt; qint32, ImageItem * &gt;</text>
<polyline fill="none" stroke="black" points="453.09,-1603 619.09,-1603 "/>
<text text-anchor="middle" x="536.09" y="-1591" font-family="Helvetica,sans-Serif" font-size="10.00"> </text>
<polyline fill="none" stroke="black" points="453.09,-1584 619.09,-1584 "/>
<text text-anchor="middle" x="536.09" y="-1572" font-family="Helvetica,sans-Serif" font-size="10.00"> </text>
</a>
</g>
</g>
<!-- Node10&#45;&gt;Node5 -->
<g id="edge10" class="edge">
<title>Node10&#45;&gt;Node5</title>
<path fill="none" stroke="#404040" d="M533.18,-1564.68C526.55,-1515.89 505.78,-1414.96 444.09,-1361 427.89,-1346.82 271.07,-1329.48 256.09,-1314 256,-1313.9 255.91,-1313.81 255.82,-1313.71"/>
<polygon fill="none" stroke="#404040" points="255.55,-1313.42 248.55,-1311.7 247.44,-1304.57 254.45,-1306.29 255.55,-1313.42"/>
<text text-anchor="middle" x="414.59" y="-1335" font-family="Helvetica,sans-Serif" font-size="10.00"> #m_imageMap</text>
</g>
</g>
</svg>
