<?xml version="1.0" encoding="UTF-8" standalone="no"?>
<!DOCTYPE svg PUBLIC "-//W3C//DTD SVG 1.1//EN"
 "http://www.w3.org/Graphics/SVG/1.1/DTD/svg11.dtd">
<!-- Generated by graphviz version 2.43.0 (0)
 -->
<!-- Title: src/libs/xerces&#45;c/macx/include/xercesc/dom/impl/DOMNodeImpl.hpp Pages: 1 -->
<svg width="1924pt" height="284pt"
 viewBox="0.00 0.00 1924.41 284.00" xmlns="http://www.w3.org/2000/svg" xmlns:xlink="http://www.w3.org/1999/xlink">
<g id="graph0" class="graph" transform="scale(1 1) rotate(0) translate(4 280)">
<title>src/libs/xerces&#45;c/macx/include/xercesc/dom/impl/DOMNodeImpl.hpp</title>
<polygon fill="white" stroke="transparent" points="-4,4 -4,-280 1920.41,-280 1920.41,4 -4,4"/>
<!-- Node1 -->
<g id="node1" class="node">
<title>Node1</title>
<g id="a_node1"><a xlink:title=" ">
<polygon fill="#bfbfbf" stroke="black" points="813.41,-234.5 813.41,-275.5 957.41,-275.5 957.41,-234.5 813.41,-234.5"/>
<text text-anchor="start" x="821.41" y="-263.5" font-family="Helvetica,sans-Serif" font-size="10.00">src/libs/xerces&#45;c/macx</text>
<text text-anchor="start" x="821.41" y="-252.5" font-family="Helvetica,sans-Serif" font-size="10.00">/include/xercesc/dom/impl</text>
<text text-anchor="middle" x="885.41" y="-241.5" font-family="Helvetica,sans-Serif" font-size="10.00">/DOMNodeImpl.hpp</text>
</a>
</g>
</g>
<!-- Node2 -->
<g id="node2" class="node">
<title>Node2</title>
<g id="a_node2"><a xlink:href="../../d0/d77/macx_2include_2xercesc_2dom_2impl_2DOMAttrImpl_8hpp.html" target="_top" xlink:title=" ">
<polygon fill="white" stroke="black" points="325.41,-78.5 325.41,-119.5 469.41,-119.5 469.41,-78.5 325.41,-78.5"/>
<text text-anchor="start" x="333.41" y="-107.5" font-family="Helvetica,sans-Serif" font-size="10.00">src/libs/xerces&#45;c/macx</text>
<text text-anchor="start" x="333.41" y="-96.5" font-family="Helvetica,sans-Serif" font-size="10.00">/include/xercesc/dom/impl</text>
<text text-anchor="middle" x="397.41" y="-85.5" font-family="Helvetica,sans-Serif" font-size="10.00">/DOMAttrImpl.hpp</text>
</a>
</g>
</g>
<!-- Node1&#45;&gt;Node2 -->
<g id="edge1" class="edge">
<title>Node1&#45;&gt;Node2</title>
<path fill="none" stroke="midnightblue" d="M803.19,-251.76C590.42,-245.55 36.33,-226.7 9.41,-198 -3.37,-184.39 -2.81,-170.11 9.41,-156 49.45,-109.76 224.55,-100.85 325.3,-99.64"/>
<polygon fill="midnightblue" stroke="midnightblue" points="803.27,-255.26 813.37,-252.05 803.48,-248.26 803.27,-255.26"/>
</g>
<!-- Node4 -->
<g id="node4" class="node">
<title>Node4</title>
<g id="a_node4"><a xlink:href="../../d5/de3/macx_2include_2xercesc_2dom_2impl_2DOMCommentImpl_8hpp.html" target="_top" xlink:title=" ">
<polygon fill="white" stroke="black" points="18.41,-156.5 18.41,-197.5 162.41,-197.5 162.41,-156.5 18.41,-156.5"/>
<text text-anchor="start" x="26.41" y="-185.5" font-family="Helvetica,sans-Serif" font-size="10.00">src/libs/xerces&#45;c/macx</text>
<text text-anchor="start" x="26.41" y="-174.5" font-family="Helvetica,sans-Serif" font-size="10.00">/include/xercesc/dom/impl</text>
<text text-anchor="middle" x="90.41" y="-163.5" font-family="Helvetica,sans-Serif" font-size="10.00">/DOMCommentImpl.hpp</text>
</a>
</g>
</g>
<!-- Node1&#45;&gt;Node4 -->
<g id="edge3" class="edge">
<title>Node1&#45;&gt;Node4</title>
<path fill="none" stroke="midnightblue" d="M803.1,-251.92C669.68,-247.57 398.26,-234.65 171.41,-198 168.55,-197.54 165.64,-197.03 162.71,-196.47"/>
<polygon fill="midnightblue" stroke="midnightblue" points="803.14,-255.42 813.24,-252.24 803.36,-248.43 803.14,-255.42"/>
</g>
<!-- Node5 -->
<g id="node5" class="node">
<title>Node5</title>
<g id="a_node5"><a xlink:href="../../d2/d44/macx_2include_2xercesc_2dom_2impl_2DOMCDATASectionImpl_8hpp.html" target="_top" xlink:title=" ">
<polygon fill="white" stroke="black" points="180.91,-156.5 180.91,-197.5 335.91,-197.5 335.91,-156.5 180.91,-156.5"/>
<text text-anchor="start" x="188.91" y="-185.5" font-family="Helvetica,sans-Serif" font-size="10.00">src/libs/xerces&#45;c/macx</text>
<text text-anchor="start" x="188.91" y="-174.5" font-family="Helvetica,sans-Serif" font-size="10.00">/include/xercesc/dom/impl</text>
<text text-anchor="middle" x="258.41" y="-163.5" font-family="Helvetica,sans-Serif" font-size="10.00">/DOMCDATASectionImpl.hpp</text>
</a>
</g>
</g>
<!-- Node1&#45;&gt;Node5 -->
<g id="edge4" class="edge">
<title>Node1&#45;&gt;Node5</title>
<path fill="none" stroke="midnightblue" d="M803.23,-248.71C696.84,-241.13 505.9,-225.03 344.41,-198 341.68,-197.54 338.92,-197.05 336.13,-196.54"/>
<polygon fill="midnightblue" stroke="midnightblue" points="803.04,-252.21 813.26,-249.42 803.53,-245.23 803.04,-252.21"/>
</g>
<!-- Node6 -->
<g id="node6" class="node">
<title>Node6</title>
<g id="a_node6"><a xlink:href="../../db/d63/macx_2include_2xercesc_2dom_2impl_2DOMDocumentFragmentImpl_8hpp.html" target="_top" xlink:title=" ">
<polygon fill="white" stroke="black" points="353.91,-156.5 353.91,-197.5 536.91,-197.5 536.91,-156.5 353.91,-156.5"/>
<text text-anchor="start" x="361.91" y="-185.5" font-family="Helvetica,sans-Serif" font-size="10.00">src/libs/xerces&#45;c/macx</text>
<text text-anchor="start" x="361.91" y="-174.5" font-family="Helvetica,sans-Serif" font-size="10.00">/include/xercesc/dom/impl</text>
<text text-anchor="middle" x="445.41" y="-163.5" font-family="Helvetica,sans-Serif" font-size="10.00">/DOMDocumentFragmentImpl.hpp</text>
</a>
</g>
</g>
<!-- Node1&#45;&gt;Node6 -->
<g id="edge5" class="edge">
<title>Node1&#45;&gt;Node6</title>
<path fill="none" stroke="midnightblue" d="M803.38,-241.29C734.43,-230.42 633.33,-214.03 545.41,-198 542.62,-197.49 539.79,-196.97 536.94,-196.44"/>
<polygon fill="midnightblue" stroke="midnightblue" points="802.89,-244.76 813.32,-242.86 803.98,-237.85 802.89,-244.76"/>
</g>
<!-- Node7 -->
<g id="node7" class="node">
<title>Node7</title>
<g id="a_node7"><a xlink:href="../../d1/da1/macx_2include_2xercesc_2dom_2impl_2DOMDocumentTypeImpl_8hpp.html" target="_top" xlink:title=" ">
<polygon fill="white" stroke="black" points="554.91,-156.5 554.91,-197.5 713.91,-197.5 713.91,-156.5 554.91,-156.5"/>
<text text-anchor="start" x="562.91" y="-185.5" font-family="Helvetica,sans-Serif" font-size="10.00">src/libs/xerces&#45;c/macx</text>
<text text-anchor="start" x="562.91" y="-174.5" font-family="Helvetica,sans-Serif" font-size="10.00">/include/xercesc/dom/impl</text>
<text text-anchor="middle" x="634.41" y="-163.5" font-family="Helvetica,sans-Serif" font-size="10.00">/DOMDocumentTypeImpl.hpp</text>
</a>
</g>
</g>
<!-- Node1&#45;&gt;Node7 -->
<g id="edge6" class="edge">
<title>Node1&#45;&gt;Node7</title>
<path fill="none" stroke="midnightblue" d="M810.91,-231.44C775.28,-220.66 733.05,-207.87 698.83,-197.51"/>
<polygon fill="midnightblue" stroke="midnightblue" points="810.18,-234.88 820.77,-234.43 812.21,-228.18 810.18,-234.88"/>
</g>
<!-- Node8 -->
<g id="node8" class="node">
<title>Node8</title>
<g id="a_node8"><a xlink:href="../../d5/d1b/macx_2include_2xercesc_2dom_2impl_2DOMElementImpl_8hpp.html" target="_top" xlink:title=" ">
<polygon fill="white" stroke="black" points="894.41,-156.5 894.41,-197.5 1038.41,-197.5 1038.41,-156.5 894.41,-156.5"/>
<text text-anchor="start" x="902.41" y="-185.5" font-family="Helvetica,sans-Serif" font-size="10.00">src/libs/xerces&#45;c/macx</text>
<text text-anchor="start" x="902.41" y="-174.5" font-family="Helvetica,sans-Serif" font-size="10.00">/include/xercesc/dom/impl</text>
<text text-anchor="middle" x="966.41" y="-163.5" font-family="Helvetica,sans-Serif" font-size="10.00">/DOMElementImpl.hpp</text>
</a>
</g>
</g>
<!-- Node1&#45;&gt;Node8 -->
<g id="edge7" class="edge">
<title>Node1&#45;&gt;Node8</title>
<path fill="none" stroke="midnightblue" d="M913.66,-227.49C924.17,-217.63 935.9,-206.63 945.62,-197.51"/>
<polygon fill="midnightblue" stroke="midnightblue" points="911.16,-225.03 906.27,-234.43 915.95,-230.14 911.16,-225.03"/>
</g>
<!-- Node12 -->
<g id="node12" class="node">
<title>Node12</title>
<g id="a_node12"><a xlink:href="../../d3/dd9/macx_2include_2xercesc_2dom_2impl_2DOMDocumentImpl_8hpp.html" target="_top" xlink:title=" ">
<polygon fill="white" stroke="black" points="732.41,-156.5 732.41,-197.5 876.41,-197.5 876.41,-156.5 732.41,-156.5"/>
<text text-anchor="start" x="740.41" y="-185.5" font-family="Helvetica,sans-Serif" font-size="10.00">src/libs/xerces&#45;c/macx</text>
<text text-anchor="start" x="740.41" y="-174.5" font-family="Helvetica,sans-Serif" font-size="10.00">/include/xercesc/dom/impl</text>
<text text-anchor="middle" x="804.41" y="-163.5" font-family="Helvetica,sans-Serif" font-size="10.00">/DOMDocumentImpl.hpp</text>
</a>
</g>
</g>
<!-- Node1&#45;&gt;Node12 -->
<g id="edge11" class="edge">
<title>Node1&#45;&gt;Node12</title>
<path fill="none" stroke="midnightblue" d="M857.15,-227.49C846.64,-217.63 834.92,-206.63 825.2,-197.51"/>
<polygon fill="midnightblue" stroke="midnightblue" points="854.86,-230.14 864.55,-234.43 859.65,-225.03 854.86,-230.14"/>
</g>
<!-- Node13 -->
<g id="node13" class="node">
<title>Node13</title>
<g id="a_node13"><a xlink:href="../../de/d46/macx_2include_2xercesc_2dom_2impl_2DOMEntityImpl_8hpp.html" target="_top" xlink:title=" ">
<polygon fill="white" stroke="black" points="1056.41,-156.5 1056.41,-197.5 1200.41,-197.5 1200.41,-156.5 1056.41,-156.5"/>
<text text-anchor="start" x="1064.41" y="-185.5" font-family="Helvetica,sans-Serif" font-size="10.00">src/libs/xerces&#45;c/macx</text>
<text text-anchor="start" x="1064.41" y="-174.5" font-family="Helvetica,sans-Serif" font-size="10.00">/include/xercesc/dom/impl</text>
<text text-anchor="middle" x="1128.41" y="-163.5" font-family="Helvetica,sans-Serif" font-size="10.00">/DOMEntityImpl.hpp</text>
</a>
</g>
</g>
<!-- Node1&#45;&gt;Node13 -->
<g id="edge13" class="edge">
<title>Node1&#45;&gt;Node13</title>
<path fill="none" stroke="midnightblue" d="M957.53,-231.44C992.02,-220.66 1032.91,-207.87 1066.04,-197.51"/>
<polygon fill="midnightblue" stroke="midnightblue" points="956.48,-228.1 947.98,-234.43 958.57,-234.78 956.48,-228.1"/>
</g>
<!-- Node14 -->
<g id="node14" class="node">
<title>Node14</title>
<g id="a_node14"><a xlink:href="../../de/d13/macx_2include_2xercesc_2dom_2impl_2DOMEntityReferenceImpl_8hpp.html" target="_top" xlink:title=" ">
<polygon fill="white" stroke="black" points="1218.41,-156.5 1218.41,-197.5 1382.41,-197.5 1382.41,-156.5 1218.41,-156.5"/>
<text text-anchor="start" x="1226.41" y="-185.5" font-family="Helvetica,sans-Serif" font-size="10.00">src/libs/xerces&#45;c/macx</text>
<text text-anchor="start" x="1226.41" y="-174.5" font-family="Helvetica,sans-Serif" font-size="10.00">/include/xercesc/dom/impl</text>
<text text-anchor="middle" x="1300.41" y="-163.5" font-family="Helvetica,sans-Serif" font-size="10.00">/DOMEntityReferenceImpl.hpp</text>
</a>
</g>
</g>
<!-- Node1&#45;&gt;Node14 -->
<g id="edge14" class="edge">
<title>Node1&#45;&gt;Node14</title>
<path fill="none" stroke="midnightblue" d="M967.51,-240.86C1033.12,-230.11 1127.35,-214.1 1209.41,-198 1212.26,-197.44 1215.17,-196.86 1218.1,-196.26"/>
<polygon fill="midnightblue" stroke="midnightblue" points="966.95,-237.41 957.64,-242.47 968.08,-244.32 966.95,-237.41"/>
</g>
<!-- Node15 -->
<g id="node15" class="node">
<title>Node15</title>
<g id="a_node15"><a xlink:href="../../d1/d9c/macx_2include_2xercesc_2dom_2impl_2DOMNotationImpl_8hpp.html" target="_top" xlink:title=" ">
<polygon fill="white" stroke="black" points="1400.41,-156.5 1400.41,-197.5 1544.41,-197.5 1544.41,-156.5 1400.41,-156.5"/>
<text text-anchor="start" x="1408.41" y="-185.5" font-family="Helvetica,sans-Serif" font-size="10.00">src/libs/xerces&#45;c/macx</text>
<text text-anchor="start" x="1408.41" y="-174.5" font-family="Helvetica,sans-Serif" font-size="10.00">/include/xercesc/dom/impl</text>
<text text-anchor="middle" x="1472.41" y="-163.5" font-family="Helvetica,sans-Serif" font-size="10.00">/DOMNotationImpl.hpp</text>
</a>
</g>
</g>
<!-- Node1&#45;&gt;Node15 -->
<g id="edge15" class="edge">
<title>Node1&#45;&gt;Node15</title>
<path fill="none" stroke="midnightblue" d="M967.56,-248.26C1068.06,-240.46 1243.13,-224.39 1391.41,-198 1394.26,-197.49 1397.16,-196.94 1400.08,-196.36"/>
<polygon fill="midnightblue" stroke="midnightblue" points="967.18,-244.77 957.48,-249.03 967.72,-251.75 967.18,-244.77"/>
</g>
<!-- Node16 -->
<g id="node16" class="node">
<title>Node16</title>
<g id="a_node16"><a xlink:href="../../df/d28/macx_2include_2xercesc_2dom_2impl_2DOMProcessingInstructionImpl_8hpp.html" target="_top" xlink:title=" ">
<polygon fill="white" stroke="black" points="1562.91,-156.5 1562.91,-197.5 1753.91,-197.5 1753.91,-156.5 1562.91,-156.5"/>
<text text-anchor="start" x="1570.91" y="-185.5" font-family="Helvetica,sans-Serif" font-size="10.00">src/libs/xerces&#45;c/macx</text>
<text text-anchor="start" x="1570.91" y="-174.5" font-family="Helvetica,sans-Serif" font-size="10.00">/include/xercesc/dom/impl</text>
<text text-anchor="middle" x="1658.41" y="-163.5" font-family="Helvetica,sans-Serif" font-size="10.00">/DOMProcessingInstructionImpl.hpp</text>
</a>
</g>
</g>
<!-- Node1&#45;&gt;Node16 -->
<g id="edge16" class="edge">
<title>Node1&#45;&gt;Node16</title>
<path fill="none" stroke="midnightblue" d="M967.84,-249.87C1094.26,-242.91 1343.47,-226.71 1553.41,-198 1556.44,-197.59 1559.52,-197.14 1562.62,-196.67"/>
<polygon fill="midnightblue" stroke="midnightblue" points="967.63,-246.38 957.84,-250.42 968.01,-253.37 967.63,-246.38"/>
</g>
<!-- Node17 -->
<g id="node17" class="node">
<title>Node17</title>
<g id="a_node17"><a xlink:href="../../da/dfd/macx_2include_2xercesc_2dom_2impl_2DOMTextImpl_8hpp.html" target="_top" xlink:title=" ">
<polygon fill="white" stroke="black" points="1772.41,-156.5 1772.41,-197.5 1916.41,-197.5 1916.41,-156.5 1772.41,-156.5"/>
<text text-anchor="start" x="1780.41" y="-185.5" font-family="Helvetica,sans-Serif" font-size="10.00">src/libs/xerces&#45;c/macx</text>
<text text-anchor="start" x="1780.41" y="-174.5" font-family="Helvetica,sans-Serif" font-size="10.00">/include/xercesc/dom/impl</text>
<text text-anchor="middle" x="1844.41" y="-163.5" font-family="Helvetica,sans-Serif" font-size="10.00">/DOMTextImpl.hpp</text>
</a>
</g>
</g>
<!-- Node1&#45;&gt;Node17 -->
<g id="edge17" class="edge">
<title>Node1&#45;&gt;Node17</title>
<path fill="none" stroke="midnightblue" d="M968.04,-253.63C1124.3,-251.84 1473.44,-242.68 1763.41,-198 1766.27,-197.56 1769.18,-197.06 1772.11,-196.53"/>
<polygon fill="midnightblue" stroke="midnightblue" points="967.54,-250.13 957.58,-253.74 967.61,-257.13 967.54,-250.13"/>
</g>
<!-- Node3 -->
<g id="node3" class="node">
<title>Node3</title>
<g id="a_node3"><a xlink:href="../../d8/d8b/macx_2include_2xercesc_2dom_2impl_2DOMAttrNSImpl_8hpp.html" target="_top" xlink:title=" ">
<polygon fill="white" stroke="black" points="325.41,-0.5 325.41,-41.5 469.41,-41.5 469.41,-0.5 325.41,-0.5"/>
<text text-anchor="start" x="333.41" y="-29.5" font-family="Helvetica,sans-Serif" font-size="10.00">src/libs/xerces&#45;c/macx</text>
<text text-anchor="start" x="333.41" y="-18.5" font-family="Helvetica,sans-Serif" font-size="10.00">/include/xercesc/dom/impl</text>
<text text-anchor="middle" x="397.41" y="-7.5" font-family="Helvetica,sans-Serif" font-size="10.00">/DOMAttrNSImpl.hpp</text>
</a>
</g>
</g>
<!-- Node2&#45;&gt;Node3 -->
<g id="edge2" class="edge">
<title>Node2&#45;&gt;Node3</title>
<path fill="none" stroke="midnightblue" d="M397.41,-68.3C397.41,-59.3 397.41,-49.65 397.41,-41.51"/>
<polygon fill="midnightblue" stroke="midnightblue" points="393.91,-68.43 397.41,-78.43 400.91,-68.43 393.91,-68.43"/>
</g>
<!-- Node9 -->
<g id="node9" class="node">
<title>Node9</title>
<g id="a_node9"><a xlink:href="../../d8/dce/macx_2include_2xercesc_2dom_2impl_2DOMCasts_8hpp.html" target="_top" xlink:title=" ">
<polygon fill="white" stroke="black" points="1414.41,-78.5 1414.41,-119.5 1558.41,-119.5 1558.41,-78.5 1414.41,-78.5"/>
<text text-anchor="start" x="1422.41" y="-107.5" font-family="Helvetica,sans-Serif" font-size="10.00">src/libs/xerces&#45;c/macx</text>
<text text-anchor="start" x="1422.41" y="-96.5" font-family="Helvetica,sans-Serif" font-size="10.00">/include/xercesc/dom/impl</text>
<text text-anchor="middle" x="1486.41" y="-85.5" font-family="Helvetica,sans-Serif" font-size="10.00">/DOMCasts.hpp</text>
</a>
</g>
</g>
<!-- Node8&#45;&gt;Node9 -->
<g id="edge8" class="edge">
<title>Node8&#45;&gt;Node9</title>
<path fill="none" stroke="midnightblue" d="M1048.79,-155.84C1182.96,-131.26 1328.95,-115.05 1414.15,-106.64"/>
<polygon fill="midnightblue" stroke="midnightblue" points="1047.94,-152.44 1038.74,-157.7 1049.21,-159.32 1047.94,-152.44"/>
</g>
<!-- Node10 -->
<g id="node10" class="node">
<title>Node10</title>
<g id="a_node10"><a xlink:href="../../d0/d7d/macx_2include_2xercesc_2dom_2impl_2DOMElementNSImpl_8hpp.html" target="_top" xlink:title=" ">
<polygon fill="white" stroke="black" points="894.41,-78.5 894.41,-119.5 1038.41,-119.5 1038.41,-78.5 894.41,-78.5"/>
<text text-anchor="start" x="902.41" y="-107.5" font-family="Helvetica,sans-Serif" font-size="10.00">src/libs/xerces&#45;c/macx</text>
<text text-anchor="start" x="902.41" y="-96.5" font-family="Helvetica,sans-Serif" font-size="10.00">/include/xercesc/dom/impl</text>
<text text-anchor="middle" x="966.41" y="-85.5" font-family="Helvetica,sans-Serif" font-size="10.00">/DOMElementNSImpl.hpp</text>
</a>
</g>
</g>
<!-- Node8&#45;&gt;Node10 -->
<g id="edge9" class="edge">
<title>Node8&#45;&gt;Node10</title>
<path fill="none" stroke="midnightblue" d="M966.41,-146.3C966.41,-137.3 966.41,-127.65 966.41,-119.51"/>
<polygon fill="midnightblue" stroke="midnightblue" points="962.91,-146.43 966.41,-156.43 969.91,-146.43 962.91,-146.43"/>
</g>
<!-- Node11 -->
<g id="node11" class="node">
<title>Node11</title>
<g id="a_node11"><a xlink:href="../../d4/d05/macx_2include_2xercesc_2dom_2impl_2XSDElementNSImpl_8hpp.html" target="_top" xlink:title=" ">
<polygon fill="white" stroke="black" points="894.41,-0.5 894.41,-41.5 1038.41,-41.5 1038.41,-0.5 894.41,-0.5"/>
<text text-anchor="start" x="902.41" y="-29.5" font-family="Helvetica,sans-Serif" font-size="10.00">src/libs/xerces&#45;c/macx</text>
<text text-anchor="start" x="902.41" y="-18.5" font-family="Helvetica,sans-Serif" font-size="10.00">/include/xercesc/dom/impl</text>
<text text-anchor="middle" x="966.41" y="-7.5" font-family="Helvetica,sans-Serif" font-size="10.00">/XSDElementNSImpl.hpp</text>
</a>
</g>
</g>
<!-- Node10&#45;&gt;Node11 -->
<g id="edge10" class="edge">
<title>Node10&#45;&gt;Node11</title>
<path fill="none" stroke="midnightblue" d="M966.41,-68.3C966.41,-59.3 966.41,-49.65 966.41,-41.51"/>
<polygon fill="midnightblue" stroke="midnightblue" points="962.91,-68.43 966.41,-78.43 969.91,-68.43 962.91,-68.43"/>
</g>
<!-- Node12&#45;&gt;Node2 -->
<g id="edge12" class="edge">
<title>Node12&#45;&gt;Node2</title>
<path fill="none" stroke="midnightblue" d="M722.16,-156.02C629.12,-136.9 533.42,-121.03 469.64,-110.99"/>
<polygon fill="midnightblue" stroke="midnightblue" points="721.53,-159.46 732.03,-158.06 722.95,-152.61 721.53,-159.46"/>
</g>
<!-- Node17&#45;&gt;Node9 -->
<g id="edge18" class="edge">
<title>Node17&#45;&gt;Node9</title>
<path fill="none" stroke="midnightblue" d="M1761.97,-155.72C1687.32,-139.09 1612.21,-124.11 1558.62,-113.72"/>
<polygon fill="midnightblue" stroke="midnightblue" points="1761.5,-159.2 1772.02,-157.96 1763.02,-152.37 1761.5,-159.2"/>
</g>
</g>
</svg>
