<?xml version="1.0" encoding="UTF-8" standalone="no"?>
<!DOCTYPE svg PUBLIC "-//W3C//DTD SVG 1.1//EN"
 "http://www.w3.org/Graphics/SVG/1.1/DTD/svg11.dtd">
<!-- Generated by graphviz version 2.43.0 (0)
 -->
<!-- Title: src/libs/xerces&#45;c/macx/include/xercesc/dom/impl/DOMNodeBase.hpp Pages: 1 -->
<svg width="1947pt" height="284pt"
 viewBox="0.00 0.00 1947.19 284.00" xmlns="http://www.w3.org/2000/svg" xmlns:xlink="http://www.w3.org/1999/xlink">
<g id="graph0" class="graph" transform="scale(1 1) rotate(0) translate(4 280)">
<title>src/libs/xerces&#45;c/macx/include/xercesc/dom/impl/DOMNodeBase.hpp</title>
<polygon fill="white" stroke="transparent" points="-4,4 -4,-280 1943.19,-280 1943.19,4 -4,4"/>
<!-- Node1 -->
<g id="node1" class="node">
<title>Node1</title>
<g id="a_node1"><a xlink:title=" ">
<polygon fill="#bfbfbf" stroke="black" points="858.57,-234.5 858.57,-275.5 1002.57,-275.5 1002.57,-234.5 858.57,-234.5"/>
<text text-anchor="start" x="866.57" y="-263.5" font-family="Helvetica,sans-Serif" font-size="10.00">src/libs/xerces&#45;c/macx</text>
<text text-anchor="start" x="866.57" y="-252.5" font-family="Helvetica,sans-Serif" font-size="10.00">/include/xercesc/dom/impl</text>
<text text-anchor="middle" x="930.57" y="-241.5" font-family="Helvetica,sans-Serif" font-size="10.00">/DOMNodeBase.hpp</text>
</a>
</g>
</g>
<!-- Node2 -->
<g id="node2" class="node">
<title>Node2</title>
<g id="a_node2"><a xlink:href="../../d8/dce/macx_2include_2xercesc_2dom_2impl_2DOMCasts_8hpp.html" target="_top" xlink:title=" ">
<polygon fill="white" stroke="black" points="858.57,-78.5 858.57,-119.5 1002.57,-119.5 1002.57,-78.5 858.57,-78.5"/>
<text text-anchor="start" x="866.57" y="-107.5" font-family="Helvetica,sans-Serif" font-size="10.00">src/libs/xerces&#45;c/macx</text>
<text text-anchor="start" x="866.57" y="-96.5" font-family="Helvetica,sans-Serif" font-size="10.00">/include/xercesc/dom/impl</text>
<text text-anchor="middle" x="930.57" y="-85.5" font-family="Helvetica,sans-Serif" font-size="10.00">/DOMCasts.hpp</text>
</a>
</g>
</g>
<!-- Node1&#45;&gt;Node2 -->
<g id="edge1" class="edge">
<title>Node1&#45;&gt;Node2</title>
<path fill="none" stroke="midnightblue" d="M1012.7,-252.44C1246.06,-247.59 1898.25,-231.13 1929.57,-198 1942.4,-184.44 1942.4,-169.56 1929.57,-156 1897.78,-122.37 1226.53,-105.92 1002.58,-101.36"/>
<polygon fill="midnightblue" stroke="midnightblue" points="1012.5,-248.94 1002.58,-252.64 1012.65,-255.94 1012.5,-248.94"/>
</g>
<!-- Node3 -->
<g id="node3" class="node">
<title>Node3</title>
<g id="a_node3"><a xlink:href="../../d5/de3/macx_2include_2xercesc_2dom_2impl_2DOMCommentImpl_8hpp.html" target="_top" xlink:title=" ">
<polygon fill="white" stroke="black" points="20.57,-156.5 20.57,-197.5 164.57,-197.5 164.57,-156.5 20.57,-156.5"/>
<text text-anchor="start" x="28.57" y="-185.5" font-family="Helvetica,sans-Serif" font-size="10.00">src/libs/xerces&#45;c/macx</text>
<text text-anchor="start" x="28.57" y="-174.5" font-family="Helvetica,sans-Serif" font-size="10.00">/include/xercesc/dom/impl</text>
<text text-anchor="middle" x="92.57" y="-163.5" font-family="Helvetica,sans-Serif" font-size="10.00">/DOMCommentImpl.hpp</text>
</a>
</g>
</g>
<!-- Node1&#45;&gt;Node3 -->
<g id="edge2" class="edge">
<title>Node1&#45;&gt;Node3</title>
<path fill="none" stroke="midnightblue" d="M848.16,-252.43C708.52,-248.77 416.87,-236.75 173.57,-198 170.71,-197.54 167.8,-197.04 164.87,-196.49"/>
<polygon fill="midnightblue" stroke="midnightblue" points="848.27,-255.94 858.35,-252.69 848.44,-248.94 848.27,-255.94"/>
</g>
<!-- Node4 -->
<g id="node4" class="node">
<title>Node4</title>
<g id="a_node4"><a xlink:href="../../d2/d44/macx_2include_2xercesc_2dom_2impl_2DOMCDATASectionImpl_8hpp.html" target="_top" xlink:title=" ">
<polygon fill="white" stroke="black" points="183.07,-156.5 183.07,-197.5 338.07,-197.5 338.07,-156.5 183.07,-156.5"/>
<text text-anchor="start" x="191.07" y="-185.5" font-family="Helvetica,sans-Serif" font-size="10.00">src/libs/xerces&#45;c/macx</text>
<text text-anchor="start" x="191.07" y="-174.5" font-family="Helvetica,sans-Serif" font-size="10.00">/include/xercesc/dom/impl</text>
<text text-anchor="middle" x="260.57" y="-163.5" font-family="Helvetica,sans-Serif" font-size="10.00">/DOMCDATASectionImpl.hpp</text>
</a>
</g>
</g>
<!-- Node1&#45;&gt;Node4 -->
<g id="edge3" class="edge">
<title>Node1&#45;&gt;Node4</title>
<path fill="none" stroke="midnightblue" d="M848.4,-249.49C735.13,-242.5 524.89,-226.77 347.57,-198 344.51,-197.5 341.4,-196.96 338.26,-196.39"/>
<polygon fill="midnightblue" stroke="midnightblue" points="848.19,-252.98 858.39,-250.1 848.62,-246 848.19,-252.98"/>
</g>
<!-- Node5 -->
<g id="node5" class="node">
<title>Node5</title>
<g id="a_node5"><a xlink:href="../../d0/d77/macx_2include_2xercesc_2dom_2impl_2DOMAttrImpl_8hpp.html" target="_top" xlink:title=" ">
<polygon fill="white" stroke="black" points="138.57,-78.5 138.57,-119.5 282.57,-119.5 282.57,-78.5 138.57,-78.5"/>
<text text-anchor="start" x="146.57" y="-107.5" font-family="Helvetica,sans-Serif" font-size="10.00">src/libs/xerces&#45;c/macx</text>
<text text-anchor="start" x="146.57" y="-96.5" font-family="Helvetica,sans-Serif" font-size="10.00">/include/xercesc/dom/impl</text>
<text text-anchor="middle" x="210.57" y="-85.5" font-family="Helvetica,sans-Serif" font-size="10.00">/DOMAttrImpl.hpp</text>
</a>
</g>
</g>
<!-- Node1&#45;&gt;Node5 -->
<g id="edge4" class="edge">
<title>Node1&#45;&gt;Node5</title>
<path fill="none" stroke="midnightblue" d="M848.22,-252.01C627.95,-246.29 40.03,-228.24 11.57,-198 -32.37,-151.3 65.03,-123.89 138.5,-110.44"/>
<polygon fill="midnightblue" stroke="midnightblue" points="848.34,-255.51 858.42,-252.27 848.52,-248.52 848.34,-255.51"/>
</g>
<!-- Node7 -->
<g id="node7" class="node">
<title>Node7</title>
<g id="a_node7"><a xlink:href="../../d1/da1/macx_2include_2xercesc_2dom_2impl_2DOMDocumentTypeImpl_8hpp.html" target="_top" xlink:title=" ">
<polygon fill="white" stroke="black" points="519.07,-156.5 519.07,-197.5 678.07,-197.5 678.07,-156.5 519.07,-156.5"/>
<text text-anchor="start" x="527.07" y="-185.5" font-family="Helvetica,sans-Serif" font-size="10.00">src/libs/xerces&#45;c/macx</text>
<text text-anchor="start" x="527.07" y="-174.5" font-family="Helvetica,sans-Serif" font-size="10.00">/include/xercesc/dom/impl</text>
<text text-anchor="middle" x="598.57" y="-163.5" font-family="Helvetica,sans-Serif" font-size="10.00">/DOMDocumentTypeImpl.hpp</text>
</a>
</g>
</g>
<!-- Node1&#45;&gt;Node7 -->
<g id="edge6" class="edge">
<title>Node1&#45;&gt;Node7</title>
<path fill="none" stroke="midnightblue" d="M848.68,-235.25C796.74,-223.36 729.85,-208.05 678.32,-196.26"/>
<polygon fill="midnightblue" stroke="midnightblue" points="848.01,-238.69 858.53,-237.51 849.57,-231.87 848.01,-238.69"/>
</g>
<!-- Node8 -->
<g id="node8" class="node">
<title>Node8</title>
<g id="a_node8"><a xlink:href="../../d3/dd9/macx_2include_2xercesc_2dom_2impl_2DOMDocumentImpl_8hpp.html" target="_top" xlink:title=" ">
<polygon fill="white" stroke="black" points="356.57,-156.5 356.57,-197.5 500.57,-197.5 500.57,-156.5 356.57,-156.5"/>
<text text-anchor="start" x="364.57" y="-185.5" font-family="Helvetica,sans-Serif" font-size="10.00">src/libs/xerces&#45;c/macx</text>
<text text-anchor="start" x="364.57" y="-174.5" font-family="Helvetica,sans-Serif" font-size="10.00">/include/xercesc/dom/impl</text>
<text text-anchor="middle" x="428.57" y="-163.5" font-family="Helvetica,sans-Serif" font-size="10.00">/DOMDocumentImpl.hpp</text>
</a>
</g>
</g>
<!-- Node1&#45;&gt;Node8 -->
<g id="edge7" class="edge">
<title>Node1&#45;&gt;Node8</title>
<path fill="none" stroke="midnightblue" d="M848.38,-245.67C763.41,-236.44 627.11,-219.92 510.57,-198 507.41,-197.4 504.18,-196.76 500.92,-196.09"/>
<polygon fill="midnightblue" stroke="midnightblue" points="848.17,-249.16 858.49,-246.75 848.92,-242.2 848.17,-249.16"/>
</g>
<!-- Node9 -->
<g id="node9" class="node">
<title>Node9</title>
<g id="a_node9"><a xlink:href="../../d5/d1b/macx_2include_2xercesc_2dom_2impl_2DOMElementImpl_8hpp.html" target="_top" xlink:title=" ">
<polygon fill="white" stroke="black" points="696.57,-156.5 696.57,-197.5 840.57,-197.5 840.57,-156.5 696.57,-156.5"/>
<text text-anchor="start" x="704.57" y="-185.5" font-family="Helvetica,sans-Serif" font-size="10.00">src/libs/xerces&#45;c/macx</text>
<text text-anchor="start" x="704.57" y="-174.5" font-family="Helvetica,sans-Serif" font-size="10.00">/include/xercesc/dom/impl</text>
<text text-anchor="middle" x="768.57" y="-163.5" font-family="Helvetica,sans-Serif" font-size="10.00">/DOMElementImpl.hpp</text>
</a>
</g>
</g>
<!-- Node1&#45;&gt;Node9 -->
<g id="edge9" class="edge">
<title>Node1&#45;&gt;Node9</title>
<path fill="none" stroke="midnightblue" d="M879.52,-230.05C857.18,-219.57 831.29,-207.42 810.15,-197.51"/>
<polygon fill="midnightblue" stroke="midnightblue" points="878.31,-233.35 888.85,-234.43 881.29,-227.01 878.31,-233.35"/>
</g>
<!-- Node12 -->
<g id="node12" class="node">
<title>Node12</title>
<g id="a_node12"><a xlink:href="../../db/d63/macx_2include_2xercesc_2dom_2impl_2DOMDocumentFragmentImpl_8hpp.html" target="_top" xlink:title=" ">
<polygon fill="white" stroke="black" points="1021.07,-156.5 1021.07,-197.5 1204.07,-197.5 1204.07,-156.5 1021.07,-156.5"/>
<text text-anchor="start" x="1029.07" y="-185.5" font-family="Helvetica,sans-Serif" font-size="10.00">src/libs/xerces&#45;c/macx</text>
<text text-anchor="start" x="1029.07" y="-174.5" font-family="Helvetica,sans-Serif" font-size="10.00">/include/xercesc/dom/impl</text>
<text text-anchor="middle" x="1112.57" y="-163.5" font-family="Helvetica,sans-Serif" font-size="10.00">/DOMDocumentFragmentImpl.hpp</text>
</a>
</g>
</g>
<!-- Node1&#45;&gt;Node12 -->
<g id="edge13" class="edge">
<title>Node1&#45;&gt;Node12</title>
<path fill="none" stroke="midnightblue" d="M986.92,-230.47C1012.25,-219.89 1041.79,-207.56 1065.86,-197.51"/>
<polygon fill="midnightblue" stroke="midnightblue" points="985.32,-227.34 977.44,-234.43 988.02,-233.8 985.32,-227.34"/>
</g>
<!-- Node13 -->
<g id="node13" class="node">
<title>Node13</title>
<g id="a_node13"><a xlink:href="../../de/d46/macx_2include_2xercesc_2dom_2impl_2DOMEntityImpl_8hpp.html" target="_top" xlink:title=" ">
<polygon fill="white" stroke="black" points="1222.57,-156.5 1222.57,-197.5 1366.57,-197.5 1366.57,-156.5 1222.57,-156.5"/>
<text text-anchor="start" x="1230.57" y="-185.5" font-family="Helvetica,sans-Serif" font-size="10.00">src/libs/xerces&#45;c/macx</text>
<text text-anchor="start" x="1230.57" y="-174.5" font-family="Helvetica,sans-Serif" font-size="10.00">/include/xercesc/dom/impl</text>
<text text-anchor="middle" x="1294.57" y="-163.5" font-family="Helvetica,sans-Serif" font-size="10.00">/DOMEntityImpl.hpp</text>
</a>
</g>
</g>
<!-- Node1&#45;&gt;Node13 -->
<g id="edge14" class="edge">
<title>Node1&#45;&gt;Node13</title>
<path fill="none" stroke="midnightblue" d="M1012.56,-238.83C1069.18,-228.09 1146.12,-212.99 1213.57,-198 1216.4,-197.37 1219.28,-196.72 1222.19,-196.05"/>
<polygon fill="midnightblue" stroke="midnightblue" points="1011.77,-235.41 1002.59,-240.71 1013.07,-242.29 1011.77,-235.41"/>
</g>
<!-- Node14 -->
<g id="node14" class="node">
<title>Node14</title>
<g id="a_node14"><a xlink:href="../../de/d13/macx_2include_2xercesc_2dom_2impl_2DOMEntityReferenceImpl_8hpp.html" target="_top" xlink:title=" ">
<polygon fill="white" stroke="black" points="1384.57,-156.5 1384.57,-197.5 1548.57,-197.5 1548.57,-156.5 1384.57,-156.5"/>
<text text-anchor="start" x="1392.57" y="-185.5" font-family="Helvetica,sans-Serif" font-size="10.00">src/libs/xerces&#45;c/macx</text>
<text text-anchor="start" x="1392.57" y="-174.5" font-family="Helvetica,sans-Serif" font-size="10.00">/include/xercesc/dom/impl</text>
<text text-anchor="middle" x="1466.57" y="-163.5" font-family="Helvetica,sans-Serif" font-size="10.00">/DOMEntityReferenceImpl.hpp</text>
</a>
</g>
</g>
<!-- Node1&#45;&gt;Node14 -->
<g id="edge15" class="edge">
<title>Node1&#45;&gt;Node14</title>
<path fill="none" stroke="midnightblue" d="M1013.03,-245.9C1102.62,-236.57 1249.78,-219.69 1375.57,-198 1378.44,-197.51 1381.36,-196.98 1384.3,-196.43"/>
<polygon fill="midnightblue" stroke="midnightblue" points="1012.52,-242.43 1002.94,-246.94 1013.25,-249.39 1012.52,-242.43"/>
</g>
<!-- Node15 -->
<g id="node15" class="node">
<title>Node15</title>
<g id="a_node15"><a xlink:href="../../d1/d9c/macx_2include_2xercesc_2dom_2impl_2DOMNotationImpl_8hpp.html" target="_top" xlink:title=" ">
<polygon fill="white" stroke="black" points="1566.57,-156.5 1566.57,-197.5 1710.57,-197.5 1710.57,-156.5 1566.57,-156.5"/>
<text text-anchor="start" x="1574.57" y="-185.5" font-family="Helvetica,sans-Serif" font-size="10.00">src/libs/xerces&#45;c/macx</text>
<text text-anchor="start" x="1574.57" y="-174.5" font-family="Helvetica,sans-Serif" font-size="10.00">/include/xercesc/dom/impl</text>
<text text-anchor="middle" x="1638.57" y="-163.5" font-family="Helvetica,sans-Serif" font-size="10.00">/DOMNotationImpl.hpp</text>
</a>
</g>
</g>
<!-- Node1&#45;&gt;Node15 -->
<g id="edge16" class="edge">
<title>Node1&#45;&gt;Node15</title>
<path fill="none" stroke="midnightblue" d="M1013.21,-250.65C1133.63,-244.86 1364.07,-230.34 1557.57,-198 1560.43,-197.52 1563.34,-197 1566.26,-196.44"/>
<polygon fill="midnightblue" stroke="midnightblue" points="1012.79,-247.17 1002.97,-251.13 1013.12,-254.16 1012.79,-247.17"/>
</g>
<!-- Node16 -->
<g id="node16" class="node">
<title>Node16</title>
<g id="a_node16"><a xlink:href="../../df/d28/macx_2include_2xercesc_2dom_2impl_2DOMProcessingInstructionImpl_8hpp.html" target="_top" xlink:title=" ">
<polygon fill="white" stroke="black" points="1729.07,-156.5 1729.07,-197.5 1920.07,-197.5 1920.07,-156.5 1729.07,-156.5"/>
<text text-anchor="start" x="1737.07" y="-185.5" font-family="Helvetica,sans-Serif" font-size="10.00">src/libs/xerces&#45;c/macx</text>
<text text-anchor="start" x="1737.07" y="-174.5" font-family="Helvetica,sans-Serif" font-size="10.00">/include/xercesc/dom/impl</text>
<text text-anchor="middle" x="1824.57" y="-163.5" font-family="Helvetica,sans-Serif" font-size="10.00">/DOMProcessingInstructionImpl.hpp</text>
</a>
</g>
</g>
<!-- Node1&#45;&gt;Node16 -->
<g id="edge17" class="edge">
<title>Node1&#45;&gt;Node16</title>
<path fill="none" stroke="midnightblue" d="M1012.72,-251.35C1156.51,-245.99 1462.92,-231.43 1719.57,-198 1722.61,-197.6 1725.69,-197.18 1728.8,-196.72"/>
<polygon fill="midnightblue" stroke="midnightblue" points="1012.52,-247.85 1002.66,-251.72 1012.78,-254.85 1012.52,-247.85"/>
</g>
<!-- Node17 -->
<g id="node17" class="node">
<title>Node17</title>
<g id="a_node17"><a xlink:href="../../da/dfd/macx_2include_2xercesc_2dom_2impl_2DOMTextImpl_8hpp.html" target="_top" xlink:title=" ">
<polygon fill="white" stroke="black" points="858.57,-156.5 858.57,-197.5 1002.57,-197.5 1002.57,-156.5 858.57,-156.5"/>
<text text-anchor="start" x="866.57" y="-185.5" font-family="Helvetica,sans-Serif" font-size="10.00">src/libs/xerces&#45;c/macx</text>
<text text-anchor="start" x="866.57" y="-174.5" font-family="Helvetica,sans-Serif" font-size="10.00">/include/xercesc/dom/impl</text>
<text text-anchor="middle" x="930.57" y="-163.5" font-family="Helvetica,sans-Serif" font-size="10.00">/DOMTextImpl.hpp</text>
</a>
</g>
</g>
<!-- Node1&#45;&gt;Node17 -->
<g id="edge18" class="edge">
<title>Node1&#45;&gt;Node17</title>
<path fill="none" stroke="midnightblue" d="M930.57,-224.3C930.57,-215.3 930.57,-205.65 930.57,-197.51"/>
<polygon fill="midnightblue" stroke="midnightblue" points="927.07,-224.43 930.57,-234.43 934.07,-224.43 927.07,-224.43"/>
</g>
<!-- Node6 -->
<g id="node6" class="node">
<title>Node6</title>
<g id="a_node6"><a xlink:href="../../d8/d8b/macx_2include_2xercesc_2dom_2impl_2DOMAttrNSImpl_8hpp.html" target="_top" xlink:title=" ">
<polygon fill="white" stroke="black" points="138.57,-0.5 138.57,-41.5 282.57,-41.5 282.57,-0.5 138.57,-0.5"/>
<text text-anchor="start" x="146.57" y="-29.5" font-family="Helvetica,sans-Serif" font-size="10.00">src/libs/xerces&#45;c/macx</text>
<text text-anchor="start" x="146.57" y="-18.5" font-family="Helvetica,sans-Serif" font-size="10.00">/include/xercesc/dom/impl</text>
<text text-anchor="middle" x="210.57" y="-7.5" font-family="Helvetica,sans-Serif" font-size="10.00">/DOMAttrNSImpl.hpp</text>
</a>
</g>
</g>
<!-- Node5&#45;&gt;Node6 -->
<g id="edge5" class="edge">
<title>Node5&#45;&gt;Node6</title>
<path fill="none" stroke="midnightblue" d="M210.57,-68.3C210.57,-59.3 210.57,-49.65 210.57,-41.51"/>
<polygon fill="midnightblue" stroke="midnightblue" points="207.07,-68.43 210.57,-78.43 214.07,-68.43 207.07,-68.43"/>
</g>
<!-- Node8&#45;&gt;Node5 -->
<g id="edge8" class="edge">
<title>Node8&#45;&gt;Node5</title>
<path fill="none" stroke="midnightblue" d="M362.68,-153.03C331.99,-142.33 295.86,-129.73 266.52,-119.51"/>
<polygon fill="midnightblue" stroke="midnightblue" points="361.84,-156.44 372.43,-156.43 364.14,-149.83 361.84,-156.44"/>
</g>
<!-- Node9&#45;&gt;Node2 -->
<g id="edge10" class="edge">
<title>Node9&#45;&gt;Node2</title>
<path fill="none" stroke="midnightblue" d="M819.63,-152.05C841.97,-141.57 867.85,-129.42 889,-119.51"/>
<polygon fill="midnightblue" stroke="midnightblue" points="817.86,-149.01 810.29,-156.43 820.83,-155.35 817.86,-149.01"/>
</g>
<!-- Node10 -->
<g id="node10" class="node">
<title>Node10</title>
<g id="a_node10"><a xlink:href="../../d0/d7d/macx_2include_2xercesc_2dom_2impl_2DOMElementNSImpl_8hpp.html" target="_top" xlink:title=" ">
<polygon fill="white" stroke="black" points="696.57,-78.5 696.57,-119.5 840.57,-119.5 840.57,-78.5 696.57,-78.5"/>
<text text-anchor="start" x="704.57" y="-107.5" font-family="Helvetica,sans-Serif" font-size="10.00">src/libs/xerces&#45;c/macx</text>
<text text-anchor="start" x="704.57" y="-96.5" font-family="Helvetica,sans-Serif" font-size="10.00">/include/xercesc/dom/impl</text>
<text text-anchor="middle" x="768.57" y="-85.5" font-family="Helvetica,sans-Serif" font-size="10.00">/DOMElementNSImpl.hpp</text>
</a>
</g>
</g>
<!-- Node9&#45;&gt;Node10 -->
<g id="edge11" class="edge">
<title>Node9&#45;&gt;Node10</title>
<path fill="none" stroke="midnightblue" d="M768.57,-146.3C768.57,-137.3 768.57,-127.65 768.57,-119.51"/>
<polygon fill="midnightblue" stroke="midnightblue" points="765.07,-146.43 768.57,-156.43 772.07,-146.43 765.07,-146.43"/>
</g>
<!-- Node11 -->
<g id="node11" class="node">
<title>Node11</title>
<g id="a_node11"><a xlink:href="../../d4/d05/macx_2include_2xercesc_2dom_2impl_2XSDElementNSImpl_8hpp.html" target="_top" xlink:title=" ">
<polygon fill="white" stroke="black" points="696.57,-0.5 696.57,-41.5 840.57,-41.5 840.57,-0.5 696.57,-0.5"/>
<text text-anchor="start" x="704.57" y="-29.5" font-family="Helvetica,sans-Serif" font-size="10.00">src/libs/xerces&#45;c/macx</text>
<text text-anchor="start" x="704.57" y="-18.5" font-family="Helvetica,sans-Serif" font-size="10.00">/include/xercesc/dom/impl</text>
<text text-anchor="middle" x="768.57" y="-7.5" font-family="Helvetica,sans-Serif" font-size="10.00">/XSDElementNSImpl.hpp</text>
</a>
</g>
</g>
<!-- Node10&#45;&gt;Node11 -->
<g id="edge12" class="edge">
<title>Node10&#45;&gt;Node11</title>
<path fill="none" stroke="midnightblue" d="M768.57,-68.3C768.57,-59.3 768.57,-49.65 768.57,-41.51"/>
<polygon fill="midnightblue" stroke="midnightblue" points="765.07,-68.43 768.57,-78.43 772.07,-68.43 765.07,-68.43"/>
</g>
<!-- Node17&#45;&gt;Node2 -->
<g id="edge19" class="edge">
<title>Node17&#45;&gt;Node2</title>
<path fill="none" stroke="midnightblue" d="M930.57,-146.3C930.57,-137.3 930.57,-127.65 930.57,-119.51"/>
<polygon fill="midnightblue" stroke="midnightblue" points="927.07,-146.43 930.57,-156.43 934.07,-146.43 927.07,-146.43"/>
</g>
</g>
</svg>
