<?xml version="1.0" encoding="UTF-8" standalone="no"?>
<!DOCTYPE svg PUBLIC "-//W3C//DTD SVG 1.1//EN"
 "http://www.w3.org/Graphics/SVG/1.1/DTD/svg11.dtd">
<!-- Generated by graphviz version 2.43.0 (0)
 -->
<!-- Title: VisToolTriangle Pages: 1 -->
<!--zoomable 1393 -->
<svg id="main" version="1.1" xmlns="http://www.w3.org/2000/svg" xmlns:xlink="http://www.w3.org/1999/xlink" xml:space="preserve" onload="init(evt)">
<style type="text/css"><![CDATA[
.edge:hover path { stroke: red; }
.edge:hover polygon { stroke: red; fill: red; }
]]></style>
<script type="text/javascript"><![CDATA[
var edges = document.getElementsByTagName('g');
if (edges && edges.length) {
  for (var i=0;i<edges.length;i++) {
    if (edges[i].id.substr(0,4)=='edge') {
      edges[i].setAttribute('class','edge');
    }
  }
}
]]></script>
        <defs>
                <circle id="rim" cx="0" cy="0" r="7"/>
                <circle id="rim2" cx="0" cy="0" r="3.5"/>
                <g id="zoomPlus">
                        <use xlink:href="#rim" fill="#404040">
                                <set attributeName="fill" to="#808080" begin="zoomplus.mouseover" end="zoomplus.mouseout"/>
                        </use>
                        <path d="M-4,0h8M0,-4v8" fill="none" stroke="white" stroke-width="1.5" pointer-events="none"/>
                </g>
                <g id="zoomMin">
                        <use xlink:href="#rim" fill="#404040">
                                <set attributeName="fill" to="#808080" begin="zoomminus.mouseover" end="zoomminus.mouseout"/>
                        </use>
                        <path d="M-4,0h8" fill="none" stroke="white" stroke-width="1.5" pointer-events="none"/>
                </g>
                <g id="dirArrow">
                        <path fill="none" stroke="white" stroke-width="1.5" d="M0,-3.0v7 M-2.5,-0.5L0,-3.0L2.5,-0.5"/>
                </g>
               <g id="resetDef">
                       <use xlink:href="#rim2" fill="#404040">
                               <set attributeName="fill" to="#808080" begin="reset.mouseover" end="reset.mouseout"/>
                       </use>
               </g>
        </defs>

<script type="text/javascript">
var viewWidth = 679;
var viewHeight = 1393;
var sectionId = 'dynsection-1';
</script>
<script xlink:href="../../svgpan.js"/>
<svg id="graph" class="graph">
<g id="viewport">
<title>VisToolTriangle</title>
<polygon fill="white" stroke="transparent" points="-4,4 -4,-1389 675,-1389 675,4 -4,4"/>
<!-- Node1 -->
<g id="node1" class="node">
<title>Node1</title>
<g id="a_node1"><a xlink:title=" ">
<polygon fill="#bfbfbf" stroke="black" points="276,-0.5 276,-145.5 406,-145.5 406,-0.5 276,-0.5"/>
<text text-anchor="middle" x="341" y="-133.5" font-family="Helvetica,sans-Serif" font-size="10.00">VisToolTriangle</text>
<polyline fill="none" stroke="black" points="276,-126.5 406,-126.5 "/>
<text text-anchor="start" x="284" y="-114.5" font-family="Helvetica,sans-Serif" font-size="10.00">&#45; object2Id</text>
<text text-anchor="start" x="284" y="-103.5" font-family="Helvetica,sans-Serif" font-size="10.00">&#45; hypotenuseP1Id</text>
<text text-anchor="start" x="284" y="-92.5" font-family="Helvetica,sans-Serif" font-size="10.00">&#45; hypotenuseP2Id</text>
<polyline fill="none" stroke="black" points="276,-85.5 406,-85.5 "/>
<text text-anchor="start" x="284" y="-73.5" font-family="Helvetica,sans-Serif" font-size="10.00">+ VisToolTriangle()</text>
<text text-anchor="start" x="284" y="-62.5" font-family="Helvetica,sans-Serif" font-size="10.00">+ ~VisToolTriangle()</text>
<text text-anchor="start" x="284" y="-51.5" font-family="Helvetica,sans-Serif" font-size="10.00">+ RefreshGeometry()</text>
<text text-anchor="start" x="284" y="-40.5" font-family="Helvetica,sans-Serif" font-size="10.00">+ setObject2Id()</text>
<text text-anchor="start" x="284" y="-29.5" font-family="Helvetica,sans-Serif" font-size="10.00">+ setHypotenuseP1Id()</text>
<text text-anchor="start" x="284" y="-18.5" font-family="Helvetica,sans-Serif" font-size="10.00">+ setHypotenuseP2Id()</text>
<text text-anchor="start" x="284" y="-7.5" font-family="Helvetica,sans-Serif" font-size="10.00">+ type()</text>
</a>
</g>
</g>
<!-- Node2 -->
<g id="node2" class="node">
<title>Node2</title>
<g id="a_node2"><a xlink:href="../../de/d0e/classVisLine.html" target="_top" xlink:title=" ">
<polygon fill="white" stroke="black" points="170,-237.5 170,-404.5 268,-404.5 268,-237.5 170,-237.5"/>
<text text-anchor="middle" x="219" y="-392.5" font-family="Helvetica,sans-Serif" font-size="10.00">VisLine</text>
<polyline fill="none" stroke="black" points="170,-385.5 268,-385.5 "/>
<text text-anchor="middle" x="219" y="-373.5" font-family="Helvetica,sans-Serif" font-size="10.00"> </text>
<polyline fill="none" stroke="black" points="170,-366.5 268,-366.5 "/>
<text text-anchor="start" x="178" y="-354.5" font-family="Helvetica,sans-Serif" font-size="10.00">+ VisLine()</text>
<text text-anchor="start" x="178" y="-343.5" font-family="Helvetica,sans-Serif" font-size="10.00">+ ~VisLine()</text>
<text text-anchor="start" x="178" y="-332.5" font-family="Helvetica,sans-Serif" font-size="10.00">+ type()</text>
<text text-anchor="start" x="178" y="-321.5" font-family="Helvetica,sans-Serif" font-size="10.00">+ CorrectAngle()</text>
<text text-anchor="start" x="178" y="-310.5" font-family="Helvetica,sans-Serif" font-size="10.00"># Ray()</text>
<text text-anchor="start" x="178" y="-299.5" font-family="Helvetica,sans-Serif" font-size="10.00"># Ray()</text>
<text text-anchor="start" x="178" y="-288.5" font-family="Helvetica,sans-Serif" font-size="10.00"># Axis()</text>
<text text-anchor="start" x="178" y="-277.5" font-family="Helvetica,sans-Serif" font-size="10.00"># Axis()</text>
<text text-anchor="start" x="178" y="-266.5" font-family="Helvetica,sans-Serif" font-size="10.00"># initPen()</text>
<text text-anchor="start" x="178" y="-255.5" font-family="Helvetica,sans-Serif" font-size="10.00"># AddOnScene()</text>
<text text-anchor="start" x="178" y="-244.5" font-family="Helvetica,sans-Serif" font-size="10.00"># DrawRay()</text>
</a>
</g>
</g>
<!-- Node2&#45;&gt;Node1 -->
<g id="edge1" class="edge">
<title>Node2&#45;&gt;Node1</title>
<path fill="none" stroke="midnightblue" d="M259.3,-227.87C269,-206.71 279.58,-184.44 290,-164 293.02,-158.08 296.23,-151.99 299.51,-145.91"/>
<polygon fill="none" stroke="midnightblue" points="256.02,-226.62 255.05,-237.17 262.39,-229.53 256.02,-226.62"/>
</g>
<!-- Node3 -->
<g id="node3" class="node">
<title>Node3</title>
<g id="a_node3"><a xlink:href="../../d7/d24/classVisualization.html" target="_top" xlink:title=" ">
<polygon fill="white" stroke="black" points="89,-452.5 89,-905.5 211,-905.5 211,-452.5 89,-452.5"/>
<text text-anchor="middle" x="150" y="-893.5" font-family="Helvetica,sans-Serif" font-size="10.00">Visualization</text>
<polyline fill="none" stroke="black" points="89,-886.5 211,-886.5 "/>
<text text-anchor="start" x="97" y="-874.5" font-family="Helvetica,sans-Serif" font-size="10.00"># scenePos</text>
<text text-anchor="start" x="97" y="-863.5" font-family="Helvetica,sans-Serif" font-size="10.00"># mainColor</text>
<text text-anchor="start" x="97" y="-852.5" font-family="Helvetica,sans-Serif" font-size="10.00"># supportColor</text>
<text text-anchor="start" x="97" y="-841.5" font-family="Helvetica,sans-Serif" font-size="10.00"># lineStyle</text>
<text text-anchor="start" x="97" y="-830.5" font-family="Helvetica,sans-Serif" font-size="10.00"># lineWeight</text>
<text text-anchor="start" x="97" y="-819.5" font-family="Helvetica,sans-Serif" font-size="10.00"># object1Id</text>
<text text-anchor="start" x="97" y="-808.5" font-family="Helvetica,sans-Serif" font-size="10.00"># toolTip</text>
<text text-anchor="start" x="97" y="-797.5" font-family="Helvetica,sans-Serif" font-size="10.00"># mode</text>
<polyline fill="none" stroke="black" points="89,-790.5 211,-790.5 "/>
<text text-anchor="start" x="97" y="-778.5" font-family="Helvetica,sans-Serif" font-size="10.00">+ Visualization()</text>
<text text-anchor="start" x="97" y="-767.5" font-family="Helvetica,sans-Serif" font-size="10.00">+ ~Visualization()</text>
<text text-anchor="start" x="97" y="-756.5" font-family="Helvetica,sans-Serif" font-size="10.00">+ RefreshGeometry()</text>
<text text-anchor="start" x="97" y="-745.5" font-family="Helvetica,sans-Serif" font-size="10.00">+ setObject1Id()</text>
<text text-anchor="start" x="97" y="-734.5" font-family="Helvetica,sans-Serif" font-size="10.00">+ setLineStyle()</text>
<text text-anchor="start" x="97" y="-723.5" font-family="Helvetica,sans-Serif" font-size="10.00">+ setLineWeight()</text>
<text text-anchor="start" x="97" y="-712.5" font-family="Helvetica,sans-Serif" font-size="10.00">+ setScenePos()</text>
<text text-anchor="start" x="97" y="-701.5" font-family="Helvetica,sans-Serif" font-size="10.00">+ VisualMode()</text>
<text text-anchor="start" x="97" y="-690.5" font-family="Helvetica,sans-Serif" font-size="10.00">+ setMainColor()</text>
<text text-anchor="start" x="97" y="-679.5" font-family="Helvetica,sans-Serif" font-size="10.00">+ getData()</text>
<text text-anchor="start" x="97" y="-668.5" font-family="Helvetica,sans-Serif" font-size="10.00">+ setData()</text>
<text text-anchor="start" x="97" y="-657.5" font-family="Helvetica,sans-Serif" font-size="10.00">+ GetMode()</text>
<text text-anchor="start" x="97" y="-646.5" font-family="Helvetica,sans-Serif" font-size="10.00">+ SetMode()</text>
<text text-anchor="start" x="97" y="-635.5" font-family="Helvetica,sans-Serif" font-size="10.00">+ CurrentToolTip()</text>
<text text-anchor="start" x="97" y="-624.5" font-family="Helvetica,sans-Serif" font-size="10.00">+ FindLength()</text>
<text text-anchor="start" x="97" y="-613.5" font-family="Helvetica,sans-Serif" font-size="10.00">+ FindVal()</text>
<text text-anchor="start" x="97" y="-602.5" font-family="Helvetica,sans-Serif" font-size="10.00">+ mousePos()</text>
<text text-anchor="start" x="97" y="-591.5" font-family="Helvetica,sans-Serif" font-size="10.00"># initPen()</text>
<text text-anchor="start" x="97" y="-580.5" font-family="Helvetica,sans-Serif" font-size="10.00"># AddOnScene()</text>
<text text-anchor="start" x="97" y="-569.5" font-family="Helvetica,sans-Serif" font-size="10.00"># InitPoint()</text>
<text text-anchor="start" x="97" y="-558.5" font-family="Helvetica,sans-Serif" font-size="10.00"># DrawPoint()</text>
<text text-anchor="start" x="97" y="-547.5" font-family="Helvetica,sans-Serif" font-size="10.00"># DrawLine()</text>
<text text-anchor="start" x="97" y="-536.5" font-family="Helvetica,sans-Serif" font-size="10.00"># DrawPath()</text>
<text text-anchor="start" x="97" y="-525.5" font-family="Helvetica,sans-Serif" font-size="10.00"># DrawPath()</text>
<text text-anchor="start" x="97" y="-514.5" font-family="Helvetica,sans-Serif" font-size="10.00"># drawArrowedLine()</text>
<text text-anchor="start" x="97" y="-503.5" font-family="Helvetica,sans-Serif" font-size="10.00"># drawArrow()</text>
<text text-anchor="start" x="97" y="-492.5" font-family="Helvetica,sans-Serif" font-size="10.00"># addItem()</text>
<text text-anchor="start" x="97" y="-481.5" font-family="Helvetica,sans-Serif" font-size="10.00"># InitItem()</text>
<text text-anchor="start" x="97" y="-470.5" font-family="Helvetica,sans-Serif" font-size="10.00"># GetPointItem()</text>
<text text-anchor="start" x="97" y="-459.5" font-family="Helvetica,sans-Serif" font-size="10.00">&#45; initPointItem()</text>
</a>
</g>
</g>
<!-- Node3&#45;&gt;Node2 -->
<g id="edge2" class="edge">
<title>Node3&#45;&gt;Node2</title>
<path fill="none" stroke="midnightblue" d="M195.7,-442.21C198.23,-429.14 200.68,-416.54 202.97,-404.73"/>
<polygon fill="none" stroke="midnightblue" points="192.21,-441.8 193.75,-452.29 199.09,-443.14 192.21,-441.8"/>
</g>
<!-- Node4 -->
<g id="node4" class="node">
<title>Node4</title>
<g id="a_node4"><a xlink:title=" ">
<polygon fill="white" stroke="#bfbfbf" points="0,-1140.5 0,-1197.5 56,-1197.5 56,-1140.5 0,-1140.5"/>
<text text-anchor="middle" x="28" y="-1185.5" font-family="Helvetica,sans-Serif" font-size="10.00">QObject</text>
<polyline fill="none" stroke="#bfbfbf" points="0,-1178.5 56,-1178.5 "/>
<text text-anchor="middle" x="28" y="-1166.5" font-family="Helvetica,sans-Serif" font-size="10.00"> </text>
<polyline fill="none" stroke="#bfbfbf" points="0,-1159.5 56,-1159.5 "/>
<text text-anchor="middle" x="28" y="-1147.5" font-family="Helvetica,sans-Serif" font-size="10.00"> </text>
</a>
</g>
</g>
<!-- Node4&#45;&gt;Node3 -->
<g id="edge3" class="edge">
<title>Node4&#45;&gt;Node3</title>
<path fill="none" stroke="midnightblue" d="M32.97,-1130.22C39,-1087.04 50.22,-1014.4 65,-953 71.94,-924.16 80.27,-893.92 88.96,-864.49"/>
<polygon fill="none" stroke="midnightblue" points="29.48,-1129.89 31.58,-1140.27 36.41,-1130.84 29.48,-1129.89"/>
</g>
<!-- Node5 -->
<g id="node5" class="node">
<title>Node5</title>
<g id="a_node5"><a xlink:href="../../d2/d83/classVContainer.html" target="_top" xlink:title="Manages a collection of geometric objects, pieces, paths, and variables.">
<polygon fill="white" stroke="black" points="74,-953.5 74,-1384.5 242,-1384.5 242,-953.5 74,-953.5"/>
<text text-anchor="middle" x="158" y="-1372.5" font-family="Helvetica,sans-Serif" font-size="10.00">VContainer</text>
<polyline fill="none" stroke="black" points="74,-1365.5 242,-1365.5 "/>
<text text-anchor="start" x="82" y="-1353.5" font-family="Helvetica,sans-Serif" font-size="10.00">&#45; d</text>
<text text-anchor="start" x="82" y="-1342.5" font-family="Helvetica,sans-Serif" font-size="10.00">&#45; _id</text>
<text text-anchor="start" x="82" y="-1331.5" font-family="Helvetica,sans-Serif" font-size="10.00">&#45; _size</text>
<text text-anchor="start" x="82" y="-1320.5" font-family="Helvetica,sans-Serif" font-size="10.00">&#45; _height</text>
<text text-anchor="start" x="82" y="-1309.5" font-family="Helvetica,sans-Serif" font-size="10.00">&#45; uniqueNames</text>
<polyline fill="none" stroke="black" points="74,-1302.5 242,-1302.5 "/>
<text text-anchor="start" x="82" y="-1290.5" font-family="Helvetica,sans-Serif" font-size="10.00">+ VContainer()</text>
<text text-anchor="start" x="82" y="-1279.5" font-family="Helvetica,sans-Serif" font-size="10.00">+ VContainer()</text>
<text text-anchor="start" x="82" y="-1268.5" font-family="Helvetica,sans-Serif" font-size="10.00">+ ~VContainer()</text>
<text text-anchor="start" x="82" y="-1257.5" font-family="Helvetica,sans-Serif" font-size="10.00">+ operator=()</text>
<text text-anchor="start" x="82" y="-1246.5" font-family="Helvetica,sans-Serif" font-size="10.00">+ Swap()</text>
<text text-anchor="start" x="82" y="-1235.5" font-family="Helvetica,sans-Serif" font-size="10.00">+ GeometricObject()</text>
<text text-anchor="start" x="82" y="-1224.5" font-family="Helvetica,sans-Serif" font-size="10.00">+ GetGObject()</text>
<text text-anchor="start" x="82" y="-1213.5" font-family="Helvetica,sans-Serif" font-size="10.00">+ GetPiece()</text>
<text text-anchor="start" x="82" y="-1202.5" font-family="Helvetica,sans-Serif" font-size="10.00">+ GetPiecePath()</text>
<text text-anchor="start" x="82" y="-1191.5" font-family="Helvetica,sans-Serif" font-size="10.00">+ getVariable()</text>
<text text-anchor="start" x="82" y="-1180.5" font-family="Helvetica,sans-Serif" font-size="10.00">and 34 more...</text>
<text text-anchor="start" x="82" y="-1169.5" font-family="Helvetica,sans-Serif" font-size="10.00">+ GetFakeGObject()</text>
<text text-anchor="start" x="82" y="-1158.5" font-family="Helvetica,sans-Serif" font-size="10.00">+ getId()</text>
<text text-anchor="start" x="82" y="-1147.5" font-family="Helvetica,sans-Serif" font-size="10.00">+ getNextId()</text>
<text text-anchor="start" x="82" y="-1136.5" font-family="Helvetica,sans-Serif" font-size="10.00">+ UpdateId()</text>
<text text-anchor="start" x="82" y="-1125.5" font-family="Helvetica,sans-Serif" font-size="10.00">+ ClearUniqueNames()</text>
<text text-anchor="start" x="82" y="-1114.5" font-family="Helvetica,sans-Serif" font-size="10.00">+ clearUniqueVariableNames()</text>
<text text-anchor="start" x="82" y="-1103.5" font-family="Helvetica,sans-Serif" font-size="10.00">+ setSize()</text>
<text text-anchor="start" x="82" y="-1092.5" font-family="Helvetica,sans-Serif" font-size="10.00">+ setHeight()</text>
<text text-anchor="start" x="82" y="-1081.5" font-family="Helvetica,sans-Serif" font-size="10.00">+ size()</text>
<text text-anchor="start" x="82" y="-1070.5" font-family="Helvetica,sans-Serif" font-size="10.00">+ rsize()</text>
<text text-anchor="start" x="82" y="-1059.5" font-family="Helvetica,sans-Serif" font-size="10.00">+ height()</text>
<text text-anchor="start" x="82" y="-1048.5" font-family="Helvetica,sans-Serif" font-size="10.00">+ rheight()</text>
<text text-anchor="start" x="82" y="-1037.5" font-family="Helvetica,sans-Serif" font-size="10.00">+ IsUnique()</text>
<text text-anchor="start" x="82" y="-1026.5" font-family="Helvetica,sans-Serif" font-size="10.00">+ AllUniqueNames()</text>
<text text-anchor="start" x="82" y="-1015.5" font-family="Helvetica,sans-Serif" font-size="10.00">&#45; AddCurve()</text>
<text text-anchor="start" x="82" y="-1004.5" font-family="Helvetica,sans-Serif" font-size="10.00">&#45; qHash()</text>
<text text-anchor="start" x="82" y="-993.5" font-family="Helvetica,sans-Serif" font-size="10.00">&#45; GetObject()</text>
<text text-anchor="start" x="82" y="-982.5" font-family="Helvetica,sans-Serif" font-size="10.00">&#45; UpdateObject()</text>
<text text-anchor="start" x="82" y="-971.5" font-family="Helvetica,sans-Serif" font-size="10.00">&#45; DataVar()</text>
<text text-anchor="start" x="82" y="-960.5" font-family="Helvetica,sans-Serif" font-size="10.00">&#45; AddObject()</text>
</a>
</g>
</g>
<!-- Node5&#45;&gt;Node3 -->
<g id="edge4" class="edge">
<title>Node5&#45;&gt;Node3</title>
<path fill="none" stroke="#404040" d="M154.48,-953.25C154.29,-941.57 154.1,-929.81 153.9,-918.07"/>
<polygon fill="none" stroke="#404040" points="153.9,-917.84 149.8,-911.9 153.7,-905.84 157.8,-911.77 153.9,-917.84"/>
<text text-anchor="middle" x="171" y="-927" font-family="Helvetica,sans-Serif" font-size="10.00"> #data</text>
</g>
<!-- Node6 -->
<g id="node6" class="node">
<title>Node6</title>
<g id="a_node6"><a xlink:href="../../dd/da2/classVScaledLine.html" target="_top" xlink:title=" ">
<polygon fill="white" stroke="black" points="229,-617.5 229,-740.5 345,-740.5 345,-617.5 229,-617.5"/>
<text text-anchor="middle" x="287" y="-728.5" font-family="Helvetica,sans-Serif" font-size="10.00">VScaledLine</text>
<polyline fill="none" stroke="black" points="229,-721.5 345,-721.5 "/>
<text text-anchor="start" x="237" y="-709.5" font-family="Helvetica,sans-Serif" font-size="10.00">&#45; m_defaultWidth</text>
<polyline fill="none" stroke="black" points="229,-702.5 345,-702.5 "/>
<text text-anchor="start" x="237" y="-690.5" font-family="Helvetica,sans-Serif" font-size="10.00">+ VScaledLine()</text>
<text text-anchor="start" x="237" y="-679.5" font-family="Helvetica,sans-Serif" font-size="10.00">+ VScaledLine()</text>
<text text-anchor="start" x="237" y="-668.5" font-family="Helvetica,sans-Serif" font-size="10.00">+ ~VScaledLine()</text>
<text text-anchor="start" x="237" y="-657.5" font-family="Helvetica,sans-Serif" font-size="10.00">+ type()</text>
<text text-anchor="start" x="237" y="-646.5" font-family="Helvetica,sans-Serif" font-size="10.00">+ paint()</text>
<text text-anchor="start" x="237" y="-635.5" font-family="Helvetica,sans-Serif" font-size="10.00">+ getDefaultWidth()</text>
<text text-anchor="start" x="237" y="-624.5" font-family="Helvetica,sans-Serif" font-size="10.00">+ setDefaultWidth()</text>
</a>
</g>
</g>
<!-- Node6&#45;&gt;Node1 -->
<g id="edge13" class="edge">
<title>Node6&#45;&gt;Node1</title>
<path fill="none" stroke="#404040" d="M288.45,-617.18C290.96,-531.95 297.45,-372.24 313,-237 315.99,-211.02 320.39,-182.9 324.83,-157.44"/>
<polygon fill="none" stroke="#404040" points="324.84,-157.38 321.95,-150.77 326.94,-145.57 329.83,-152.17 324.84,-157.38"/>
<text text-anchor="middle" x="329.5" y="-324" font-family="Helvetica,sans-Serif" font-size="10.00"> &#45;foot1</text>
<text text-anchor="middle" x="329.5" y="-313" font-family="Helvetica,sans-Serif" font-size="10.00">&#45;foot2</text>
</g>
<!-- Node6&#45;&gt;Node2 -->
<g id="edge5" class="edge">
<title>Node6&#45;&gt;Node2</title>
<path fill="none" stroke="midnightblue" d="M273.5,-607.33C262.35,-548.95 246.5,-465.99 234.77,-404.56"/>
<polygon fill="none" stroke="midnightblue" points="270.07,-608.04 275.39,-617.21 276.95,-606.73 270.07,-608.04"/>
</g>
<!-- Node7 -->
<g id="node7" class="node">
<title>Node7</title>
<g id="a_node7"><a xlink:title=" ">
<polygon fill="white" stroke="#bfbfbf" points="275,-1140.5 275,-1197.5 385,-1197.5 385,-1140.5 275,-1140.5"/>
<text text-anchor="middle" x="330" y="-1185.5" font-family="Helvetica,sans-Serif" font-size="10.00">QGraphicsLineItem</text>
<polyline fill="none" stroke="#bfbfbf" points="275,-1178.5 385,-1178.5 "/>
<text text-anchor="middle" x="330" y="-1166.5" font-family="Helvetica,sans-Serif" font-size="10.00"> </text>
<polyline fill="none" stroke="#bfbfbf" points="275,-1159.5 385,-1159.5 "/>
<text text-anchor="middle" x="330" y="-1147.5" font-family="Helvetica,sans-Serif" font-size="10.00"> </text>
</a>
</g>
</g>
<!-- Node7&#45;&gt;Node6 -->
<g id="edge6" class="edge">
<title>Node7&#45;&gt;Node6</title>
<path fill="none" stroke="midnightblue" d="M326.67,-1130.25C319.27,-1046.17 301.35,-842.9 292.35,-740.74"/>
<polygon fill="none" stroke="midnightblue" points="323.2,-1130.71 327.56,-1140.36 330.17,-1130.1 323.2,-1130.71"/>
</g>
<!-- Node8 -->
<g id="node8" class="node">
<title>Node8</title>
<g id="a_node8"><a xlink:href="../../d6/d43/classArrowedLineItem.html" target="_top" xlink:title=" ">
<polygon fill="white" stroke="black" points="355.5,-265 355.5,-377 482.5,-377 482.5,-265 355.5,-265"/>
<text text-anchor="middle" x="419" y="-365" font-family="Helvetica,sans-Serif" font-size="10.00">ArrowedLineItem</text>
<polyline fill="none" stroke="black" points="355.5,-358 482.5,-358 "/>
<text text-anchor="middle" x="419" y="-346" font-family="Helvetica,sans-Serif" font-size="10.00"> </text>
<polyline fill="none" stroke="black" points="355.5,-339 482.5,-339 "/>
<text text-anchor="start" x="363.5" y="-327" font-family="Helvetica,sans-Serif" font-size="10.00">+ ArrowedLineItem()</text>
<text text-anchor="start" x="363.5" y="-316" font-family="Helvetica,sans-Serif" font-size="10.00">+ ArrowedLineItem()</text>
<text text-anchor="start" x="363.5" y="-305" font-family="Helvetica,sans-Serif" font-size="10.00">+ ~ArrowedLineItem()</text>
<text text-anchor="start" x="363.5" y="-294" font-family="Helvetica,sans-Serif" font-size="10.00">+ type()</text>
<text text-anchor="start" x="363.5" y="-283" font-family="Helvetica,sans-Serif" font-size="10.00">+ paint()</text>
<text text-anchor="start" x="363.5" y="-272" font-family="Helvetica,sans-Serif" font-size="10.00">&#45; drawArrow()</text>
</a>
</g>
</g>
<!-- Node7&#45;&gt;Node8 -->
<g id="edge8" class="edge">
<title>Node7&#45;&gt;Node8</title>
<path fill="none" stroke="midnightblue" d="M333.55,-1130.27C338.32,-1079.37 347,-985.86 354,-906 371.68,-704.29 362.91,-652.38 392,-452 395.59,-427.25 400.99,-400.13 406.02,-377.09"/>
<polygon fill="none" stroke="midnightblue" points="330.04,-1130.19 332.59,-1140.47 337.01,-1130.84 330.04,-1130.19"/>
</g>
<!-- Node8&#45;&gt;Node1 -->
<g id="edge7" class="edge">
<title>Node8&#45;&gt;Node1</title>
<path fill="none" stroke="#404040" d="M401.5,-264.79C391.49,-233.23 378.73,-193.01 367.52,-157.64"/>
<polygon fill="none" stroke="#404040" points="367.41,-157.28 361.78,-152.77 363.78,-145.85 369.41,-150.36 367.41,-157.28"/>
<text text-anchor="middle" x="399" y="-189" font-family="Helvetica,sans-Serif" font-size="10.00"> &#45;axis</text>
</g>
<!-- Node9 -->
<g id="node9" class="node">
<title>Node9</title>
<g id="a_node9"><a xlink:href="../../d3/d85/classVCurvePathItem.html" target="_top" xlink:title=" ">
<polygon fill="white" stroke="black" points="401.5,-606.5 401.5,-751.5 530.5,-751.5 530.5,-606.5 401.5,-606.5"/>
<text text-anchor="middle" x="466" y="-739.5" font-family="Helvetica,sans-Serif" font-size="10.00">VCurvePathItem</text>
<polyline fill="none" stroke="black" points="401.5,-732.5 530.5,-732.5 "/>
<text text-anchor="start" x="409.5" y="-720.5" font-family="Helvetica,sans-Serif" font-size="10.00">&#45; m_directionArrows</text>
<text text-anchor="start" x="409.5" y="-709.5" font-family="Helvetica,sans-Serif" font-size="10.00">&#45; m_points</text>
<polyline fill="none" stroke="black" points="401.5,-702.5 530.5,-702.5 "/>
<text text-anchor="start" x="409.5" y="-690.5" font-family="Helvetica,sans-Serif" font-size="10.00">+ VCurvePathItem()</text>
<text text-anchor="start" x="409.5" y="-679.5" font-family="Helvetica,sans-Serif" font-size="10.00">+ ~VCurvePathItem()</text>
<text text-anchor="start" x="409.5" y="-668.5" font-family="Helvetica,sans-Serif" font-size="10.00">+ shape()</text>
<text text-anchor="start" x="409.5" y="-657.5" font-family="Helvetica,sans-Serif" font-size="10.00">+ paint()</text>
<text text-anchor="start" x="409.5" y="-646.5" font-family="Helvetica,sans-Serif" font-size="10.00">+ type()</text>
<text text-anchor="start" x="409.5" y="-635.5" font-family="Helvetica,sans-Serif" font-size="10.00">+ SetDirectionArrows()</text>
<text text-anchor="start" x="409.5" y="-624.5" font-family="Helvetica,sans-Serif" font-size="10.00">+ SetPoints()</text>
<text text-anchor="start" x="409.5" y="-613.5" font-family="Helvetica,sans-Serif" font-size="10.00"># ScalePenWidth()</text>
</a>
</g>
</g>
<!-- Node9&#45;&gt;Node8 -->
<g id="edge9" class="edge">
<title>Node9&#45;&gt;Node8</title>
<path fill="none" stroke="#404040" d="M456.55,-606.39C448.18,-543 436.05,-451.18 427.87,-389.17"/>
<polygon fill="none" stroke="#404040" points="427.86,-389.08 423.11,-383.65 426.29,-377.18 431.04,-382.61 427.86,-389.08"/>
<text text-anchor="middle" x="460.5" y="-426" font-family="Helvetica,sans-Serif" font-size="10.00"> &#45;m_arrows</text>
</g>
<!-- Node10 -->
<g id="node10" class="node">
<title>Node10</title>
<g id="a_node10"><a xlink:title=" ">
<polygon fill="white" stroke="#bfbfbf" points="411,-1140.5 411,-1197.5 521,-1197.5 521,-1140.5 411,-1140.5"/>
<text text-anchor="middle" x="466" y="-1185.5" font-family="Helvetica,sans-Serif" font-size="10.00">QGraphicsPathItem</text>
<polyline fill="none" stroke="#bfbfbf" points="411,-1178.5 521,-1178.5 "/>
<text text-anchor="middle" x="466" y="-1166.5" font-family="Helvetica,sans-Serif" font-size="10.00"> </text>
<polyline fill="none" stroke="#bfbfbf" points="411,-1159.5 521,-1159.5 "/>
<text text-anchor="middle" x="466" y="-1147.5" font-family="Helvetica,sans-Serif" font-size="10.00"> </text>
</a>
</g>
</g>
<!-- Node10&#45;&gt;Node9 -->
<g id="edge10" class="edge">
<title>Node10&#45;&gt;Node9</title>
<path fill="none" stroke="midnightblue" d="M466,-1130.11C466,-1048.83 466,-856.64 466,-751.6"/>
<polygon fill="none" stroke="midnightblue" points="462.5,-1130.36 466,-1140.36 469.5,-1130.36 462.5,-1130.36"/>
</g>
<!-- Node11 -->
<g id="node11" class="node">
<title>Node11</title>
<g id="a_node11"><a xlink:href="../../d8/dbf/classVScaledEllipse.html" target="_top" xlink:title=" ">
<polygon fill="white" stroke="black" points="526.5,-276 526.5,-366 641.5,-366 641.5,-276 526.5,-276"/>
<text text-anchor="middle" x="584" y="-354" font-family="Helvetica,sans-Serif" font-size="10.00">VScaledEllipse</text>
<polyline fill="none" stroke="black" points="526.5,-347 641.5,-347 "/>
<text text-anchor="middle" x="584" y="-335" font-family="Helvetica,sans-Serif" font-size="10.00"> </text>
<polyline fill="none" stroke="black" points="526.5,-328 641.5,-328 "/>
<text text-anchor="start" x="534.5" y="-316" font-family="Helvetica,sans-Serif" font-size="10.00">+ VScaledEllipse()</text>
<text text-anchor="start" x="534.5" y="-305" font-family="Helvetica,sans-Serif" font-size="10.00">+ ~VScaledEllipse()</text>
<text text-anchor="start" x="534.5" y="-294" font-family="Helvetica,sans-Serif" font-size="10.00">+ type()</text>
<text text-anchor="start" x="534.5" y="-283" font-family="Helvetica,sans-Serif" font-size="10.00">+ paint()</text>
</a>
</g>
</g>
<!-- Node11&#45;&gt;Node1 -->
<g id="edge11" class="edge">
<title>Node11&#45;&gt;Node1</title>
<path fill="none" stroke="#404040" d="M540.28,-275.74C505.45,-240.48 455.92,-190.33 414.95,-148.86"/>
<polygon fill="none" stroke="#404040" points="414.78,-148.69 407.71,-147.23 406.34,-140.15 413.4,-141.61 414.78,-148.69"/>
<text text-anchor="middle" x="514.5" y="-211" font-family="Helvetica,sans-Serif" font-size="10.00"> &#45;axisP1</text>
<text text-anchor="middle" x="514.5" y="-200" font-family="Helvetica,sans-Serif" font-size="10.00">&#45;axisP2</text>
<text text-anchor="middle" x="514.5" y="-189" font-family="Helvetica,sans-Serif" font-size="10.00">&#45;hypotenuseP1</text>
<text text-anchor="middle" x="514.5" y="-178" font-family="Helvetica,sans-Serif" font-size="10.00">&#45;hypotenuseP2</text>
<text text-anchor="middle" x="514.5" y="-167" font-family="Helvetica,sans-Serif" font-size="10.00">&#45;point</text>
</g>
<!-- Node12 -->
<g id="node12" class="node">
<title>Node12</title>
<g id="a_node12"><a xlink:title=" ">
<polygon fill="white" stroke="#bfbfbf" points="549,-650.5 549,-707.5 671,-707.5 671,-650.5 549,-650.5"/>
<text text-anchor="middle" x="610" y="-695.5" font-family="Helvetica,sans-Serif" font-size="10.00">QGraphicsEllipseItem</text>
<polyline fill="none" stroke="#bfbfbf" points="549,-688.5 671,-688.5 "/>
<text text-anchor="middle" x="610" y="-676.5" font-family="Helvetica,sans-Serif" font-size="10.00"> </text>
<polyline fill="none" stroke="#bfbfbf" points="549,-669.5 671,-669.5 "/>
<text text-anchor="middle" x="610" y="-657.5" font-family="Helvetica,sans-Serif" font-size="10.00"> </text>
</a>
</g>
</g>
<!-- Node12&#45;&gt;Node11 -->
<g id="edge12" class="edge">
<title>Node12&#45;&gt;Node11</title>
<path fill="none" stroke="midnightblue" d="M607.25,-640.35C602.41,-574.06 592.39,-436.86 587.23,-366.19"/>
<polygon fill="none" stroke="midnightblue" points="603.76,-640.64 607.98,-650.36 610.74,-640.13 603.76,-640.64"/>
</g>
</g>
</svg>
        <g id="navigator" transform="translate(0 0)" fill="#404254">
                <rect fill="#f2f5e9" fill-opacity="0.5" stroke="#606060" stroke-width=".5" x="0" y="0" width="60" height="60"/>
                <use id="zoomplus" xlink:href="#zoomPlus" x="17" y="9" onmousedown="handleZoom(evt,'in')"/>
                <use id="zoomminus" xlink:href="#zoomMin" x="42" y="9" onmousedown="handleZoom(evt,'out')"/>
                <use id="reset" xlink:href="#resetDef" x="30" y="36" onmousedown="handleReset()"/>
                <g id="arrowUp" xlink:href="#dirArrow" transform="translate(30 24)" onmousedown="handlePan(0,-1)">
                  <use xlink:href="#rim" fill="#404040">
                        <set attributeName="fill" to="#808080" begin="arrowUp.mouseover" end="arrowUp.mouseout"/>
                  </use>
                  <path fill="none" stroke="white" stroke-width="1.5" d="M0,-3.0v7 M-2.5,-0.5L0,-3.0L2.5,-0.5"/>
                </g>
                <g id="arrowRight" xlink:href="#dirArrow" transform="rotate(90) translate(36 -43)" onmousedown="handlePan(1,0)">
                  <use xlink:href="#rim" fill="#404040">
                        <set attributeName="fill" to="#808080" begin="arrowRight.mouseover" end="arrowRight.mouseout"/>
                  </use>
                  <path fill="none" stroke="white" stroke-width="1.5" d="M0,-3.0v7 M-2.5,-0.5L0,-3.0L2.5,-0.5"/>
                </g>
                <g id="arrowDown" xlink:href="#dirArrow" transform="rotate(180) translate(-30 -48)" onmousedown="handlePan(0,1)">
                  <use xlink:href="#rim" fill="#404040">
                        <set attributeName="fill" to="#808080" begin="arrowDown.mouseover" end="arrowDown.mouseout"/>
                  </use>
                  <path fill="none" stroke="white" stroke-width="1.5" d="M0,-3.0v7 M-2.5,-0.5L0,-3.0L2.5,-0.5"/>
                </g>
                <g id="arrowLeft" xlink:href="#dirArrow" transform="rotate(270) translate(-36 17)" onmousedown="handlePan(-1,0)">
                  <use xlink:href="#rim" fill="#404040">
                        <set attributeName="fill" to="#808080" begin="arrowLeft.mouseover" end="arrowLeft.mouseout"/>
                  </use>
                  <path fill="none" stroke="white" stroke-width="1.5" d="M0,-3.0v7 M-2.5,-0.5L0,-3.0L2.5,-0.5"/>
                </g>
        </g>
        <svg viewBox="0 0 15 15" width="100%" height="30px" preserveAspectRatio="xMaxYMin meet">
         <g id="arrow_out" transform="scale(0.3 0.3)">
          <a xlink:href="classVisToolTriangle__coll__graph_org.svg" target="_base">
           <rect id="button" ry="5" rx="5" y="6" x="6" height="38" width="38"
                fill="#f2f5e9" fill-opacity="0.5" stroke="#606060" stroke-width="1.0"/>
           <path id="arrow"
             d="M 11.500037,31.436501 C 11.940474,20.09759 22.043105,11.32322 32.158766,21.979434 L 37.068811,17.246167 C 37.068811,17.246167 37.088388,32 37.088388,32 L 22.160133,31.978069 C 22.160133,31.978069 26.997745,27.140456 26.997745,27.140456 C 18.528582,18.264221 13.291696,25.230495 11.500037,31.436501 z"
             style="fill:#404040;"/>
          </a>
         </g>
        </svg>
</svg>
