<?xml version="1.0" encoding="UTF-8" standalone="no"?>
<!DOCTYPE svg PUBLIC "-//W3C//DTD SVG 1.1//EN"
 "http://www.w3.org/Graphics/SVG/1.1/DTD/svg11.dtd">
<!-- Generated by graphviz version 2.43.0 (0)
 -->
<!-- Title: VPE::DirectionProperty Pages: 1 -->
<svg width="464pt" height="519pt"
 viewBox="0.00 0.00 463.50 519.00" xmlns="http://www.w3.org/2000/svg" xmlns:xlink="http://www.w3.org/1999/xlink">
<g id="graph0" class="graph" transform="scale(1 1) rotate(0) translate(4 515)">
<title>VPE::DirectionProperty</title>
<polygon fill="white" stroke="transparent" points="-4,4 -4,-515 459.5,-515 459.5,4 -4,4"/>
<!-- Node1 -->
<g id="node1" class="node">
<title>Node1</title>
<g id="a_node1"><a xlink:title=" ">
<polygon fill="#bfbfbf" stroke="black" points="286.5,-0.5 286.5,-178.5 426.5,-178.5 426.5,-0.5 286.5,-0.5"/>
<text text-anchor="middle" x="356.5" y="-166.5" font-family="Helvetica,sans-Serif" font-size="10.00">VPE::DirectionProperty</text>
<polyline fill="none" stroke="black" points="286.5,-159.5 426.5,-159.5 "/>
<text text-anchor="start" x="294.5" y="-147.5" font-family="Helvetica,sans-Serif" font-size="10.00"># m_indexList</text>
<polyline fill="none" stroke="black" points="286.5,-140.5 426.5,-140.5 "/>
<text text-anchor="start" x="294.5" y="-128.5" font-family="Helvetica,sans-Serif" font-size="10.00">+ DirectionProperty()</text>
<text text-anchor="start" x="294.5" y="-117.5" font-family="Helvetica,sans-Serif" font-size="10.00">+ ~DirectionProperty()</text>
<text text-anchor="start" x="294.5" y="-106.5" font-family="Helvetica,sans-Serif" font-size="10.00">+ data()</text>
<text text-anchor="start" x="294.5" y="-95.5" font-family="Helvetica,sans-Serif" font-size="10.00">+ createEditor()</text>
<text text-anchor="start" x="294.5" y="-84.5" font-family="Helvetica,sans-Serif" font-size="10.00">+ getEditorData()</text>
<text text-anchor="start" x="294.5" y="-73.5" font-family="Helvetica,sans-Serif" font-size="10.00">+ setDirections()</text>
<text text-anchor="start" x="294.5" y="-62.5" font-family="Helvetica,sans-Serif" font-size="10.00">+ getDirections()</text>
<text text-anchor="start" x="294.5" y="-51.5" font-family="Helvetica,sans-Serif" font-size="10.00">+ setValue()</text>
<text text-anchor="start" x="294.5" y="-40.5" font-family="Helvetica,sans-Serif" font-size="10.00">+ type()</text>
<text text-anchor="start" x="294.5" y="-29.5" font-family="Helvetica,sans-Serif" font-size="10.00">+ clone()</text>
<text text-anchor="start" x="294.5" y="-18.5" font-family="Helvetica,sans-Serif" font-size="10.00">+ indexOfDirection()</text>
<text text-anchor="start" x="294.5" y="-7.5" font-family="Helvetica,sans-Serif" font-size="10.00">+ currentIndexChanged()</text>
</a>
</g>
</g>
<!-- Node2 -->
<g id="node2" class="node">
<title>Node2</title>
<g id="a_node2"><a xlink:href="../../db/df9/classVPE_1_1VProperty.html" target="_top" xlink:title=" ">
<polygon fill="white" stroke="black" points="163.5,-226.5 163.5,-415.5 291.5,-415.5 291.5,-226.5 163.5,-226.5"/>
<text text-anchor="middle" x="227.5" y="-403.5" font-family="Helvetica,sans-Serif" font-size="10.00">VPE::VProperty</text>
<polyline fill="none" stroke="black" points="163.5,-396.5 291.5,-396.5 "/>
<text text-anchor="middle" x="227.5" y="-384.5" font-family="Helvetica,sans-Serif" font-size="10.00"> </text>
<polyline fill="none" stroke="black" points="163.5,-377.5 291.5,-377.5 "/>
<text text-anchor="start" x="171.5" y="-365.5" font-family="Helvetica,sans-Serif" font-size="10.00">+ VProperty()</text>
<text text-anchor="start" x="171.5" y="-354.5" font-family="Helvetica,sans-Serif" font-size="10.00">+ ~VProperty()</text>
<text text-anchor="start" x="171.5" y="-343.5" font-family="Helvetica,sans-Serif" font-size="10.00">+ type()</text>
<text text-anchor="start" x="171.5" y="-332.5" font-family="Helvetica,sans-Serif" font-size="10.00">+ data()</text>
<text text-anchor="start" x="171.5" y="-321.5" font-family="Helvetica,sans-Serif" font-size="10.00">+ setData()</text>
<text text-anchor="start" x="171.5" y="-310.5" font-family="Helvetica,sans-Serif" font-size="10.00">+ paint()</text>
<text text-anchor="start" x="171.5" y="-299.5" font-family="Helvetica,sans-Serif" font-size="10.00">+ createEditor()</text>
<text text-anchor="start" x="171.5" y="-288.5" font-family="Helvetica,sans-Serif" font-size="10.00">+ setEditorData()</text>
<text text-anchor="start" x="171.5" y="-277.5" font-family="Helvetica,sans-Serif" font-size="10.00">+ getEditorData()</text>
<text text-anchor="start" x="171.5" y="-266.5" font-family="Helvetica,sans-Serif" font-size="10.00">+ flags()</text>
<text text-anchor="start" x="171.5" y="-255.5" font-family="Helvetica,sans-Serif" font-size="10.00">and 29 more...</text>
<text text-anchor="start" x="171.5" y="-244.5" font-family="Helvetica,sans-Serif" font-size="10.00">+ childValueChanged()</text>
<text text-anchor="start" x="171.5" y="-233.5" font-family="Helvetica,sans-Serif" font-size="10.00"># VProperty()</text>
</a>
</g>
</g>
<!-- Node2&#45;&gt;Node1 -->
<g id="edge1" class="edge">
<title>Node2&#45;&gt;Node1</title>
<path fill="none" stroke="midnightblue" d="M285.16,-217.42C292.42,-204.5 299.8,-191.37 306.93,-178.7"/>
<polygon fill="none" stroke="midnightblue" points="282,-215.89 280.16,-226.32 288.11,-219.32 282,-215.89"/>
</g>
<!-- Node4 -->
<g id="node4" class="node">
<title>Node4</title>
<g id="a_node4"><a xlink:href="../../db/d53/classVPE_1_1VPropertyPrivate.html" target="_top" xlink:title=" ">
<polygon fill="white" stroke="black" points="98.5,-6 98.5,-173 224.5,-173 224.5,-6 98.5,-6"/>
<text text-anchor="middle" x="161.5" y="-161" font-family="Helvetica,sans-Serif" font-size="10.00">VPE::VPropertyPrivate</text>
<polyline fill="none" stroke="black" points="98.5,-154 224.5,-154 "/>
<text text-anchor="start" x="106.5" y="-142" font-family="Helvetica,sans-Serif" font-size="10.00">+ VariantValue</text>
<text text-anchor="start" x="106.5" y="-131" font-family="Helvetica,sans-Serif" font-size="10.00">+ Name</text>
<text text-anchor="start" x="106.5" y="-120" font-family="Helvetica,sans-Serif" font-size="10.00">+ Description</text>
<text text-anchor="start" x="106.5" y="-109" font-family="Helvetica,sans-Serif" font-size="10.00">+ IsEmpty</text>
<text text-anchor="start" x="106.5" y="-98" font-family="Helvetica,sans-Serif" font-size="10.00">+ PropertyVariantType</text>
<text text-anchor="start" x="106.5" y="-87" font-family="Helvetica,sans-Serif" font-size="10.00">+ updateParent</text>
<text text-anchor="start" x="106.5" y="-76" font-family="Helvetica,sans-Serif" font-size="10.00">+ UpdateChildren</text>
<text text-anchor="start" x="106.5" y="-65" font-family="Helvetica,sans-Serif" font-size="10.00">+ editor</text>
<text text-anchor="start" x="106.5" y="-54" font-family="Helvetica,sans-Serif" font-size="10.00">+ type</text>
<polyline fill="none" stroke="black" points="98.5,-47 224.5,-47 "/>
<text text-anchor="start" x="106.5" y="-35" font-family="Helvetica,sans-Serif" font-size="10.00">+ VPropertyPrivate()</text>
<text text-anchor="start" x="106.5" y="-24" font-family="Helvetica,sans-Serif" font-size="10.00">+ VPropertyPrivate()</text>
<text text-anchor="start" x="106.5" y="-13" font-family="Helvetica,sans-Serif" font-size="10.00">+ ~VPropertyPrivate()</text>
</a>
</g>
</g>
<!-- Node2&#45;&gt;Node4 -->
<g id="edge5" class="edge">
<title>Node2&#45;&gt;Node4</title>
<path fill="none" stroke="#404040" d="M164.94,-226.37C162.43,-220.3 160.24,-214.15 158.5,-208 156.44,-200.72 155.04,-193.08 154.15,-185.35"/>
<polygon fill="none" stroke="#404040" points="154.13,-185.11 149.65,-179.45 153.15,-173.15 157.62,-178.8 154.13,-185.11"/>
<text text-anchor="middle" x="180" y="-200" font-family="Helvetica,sans-Serif" font-size="10.00"> +Parent</text>
</g>
<!-- Node3 -->
<g id="node3" class="node">
<title>Node3</title>
<g id="a_node3"><a xlink:title=" ">
<polygon fill="white" stroke="#bfbfbf" points="199.5,-453.5 199.5,-510.5 255.5,-510.5 255.5,-453.5 199.5,-453.5"/>
<text text-anchor="middle" x="227.5" y="-498.5" font-family="Helvetica,sans-Serif" font-size="10.00">QObject</text>
<polyline fill="none" stroke="#bfbfbf" points="199.5,-491.5 255.5,-491.5 "/>
<text text-anchor="middle" x="227.5" y="-479.5" font-family="Helvetica,sans-Serif" font-size="10.00"> </text>
<polyline fill="none" stroke="#bfbfbf" points="199.5,-472.5 255.5,-472.5 "/>
<text text-anchor="middle" x="227.5" y="-460.5" font-family="Helvetica,sans-Serif" font-size="10.00"> </text>
</a>
</g>
</g>
<!-- Node3&#45;&gt;Node2 -->
<g id="edge2" class="edge">
<title>Node3&#45;&gt;Node2</title>
<path fill="none" stroke="midnightblue" d="M227.5,-443.08C227.5,-434.6 227.5,-425.24 227.5,-415.6"/>
<polygon fill="none" stroke="midnightblue" points="224,-443.3 227.5,-453.3 231,-443.3 224,-443.3"/>
</g>
<!-- Node4&#45;&gt;Node2 -->
<g id="edge3" class="edge">
<title>Node4&#45;&gt;Node2</title>
<path fill="none" stroke="#404040" d="M197.61,-173.02C200.51,-181.04 203.2,-189.13 205.5,-197 207.19,-202.77 208.77,-208.74 210.24,-214.79"/>
<polygon fill="none" stroke="#404040" points="210.25,-214.8 215.5,-219.74 212.96,-226.49 207.7,-221.55 210.25,-214.8"/>
<text text-anchor="middle" x="227" y="-200" font-family="Helvetica,sans-Serif" font-size="10.00"> #d_ptr</text>
</g>
<!-- Node5 -->
<g id="node5" class="node">
<title>Node5</title>
<g id="a_node5"><a xlink:href="../../d1/d4a/classQList.html" target="_top" xlink:title=" ">
<polygon fill="white" stroke="black" points="0,-292.5 0,-349.5 145,-349.5 145,-292.5 0,-292.5"/>
<text text-anchor="middle" x="72.5" y="-337.5" font-family="Helvetica,sans-Serif" font-size="10.00">QList&lt; VPE::VProperty * &gt;</text>
<polyline fill="none" stroke="black" points="0,-330.5 145,-330.5 "/>
<text text-anchor="middle" x="72.5" y="-318.5" font-family="Helvetica,sans-Serif" font-size="10.00"> </text>
<polyline fill="none" stroke="black" points="0,-311.5 145,-311.5 "/>
<text text-anchor="middle" x="72.5" y="-299.5" font-family="Helvetica,sans-Serif" font-size="10.00"> </text>
</a>
</g>
</g>
<!-- Node5&#45;&gt;Node4 -->
<g id="edge4" class="edge">
<title>Node5&#45;&gt;Node4</title>
<path fill="none" stroke="#404040" d="M76.37,-292.44C80.5,-267.04 88.16,-228.62 100.5,-197 102.15,-192.78 103.94,-188.53 105.84,-184.28"/>
<polygon fill="none" stroke="#404040" points="106.01,-183.91 104.95,-176.78 111.12,-173.05 112.19,-180.19 106.01,-183.91"/>
<text text-anchor="middle" x="126.5" y="-200" font-family="Helvetica,sans-Serif" font-size="10.00"> +Children</text>
</g>
<!-- Node6 -->
<g id="node6" class="node">
<title>Node6</title>
<g id="a_node6"><a xlink:href="../../d0/d4c/classQMap.html" target="_top" xlink:title=" ">
<polygon fill="white" stroke="black" points="309.5,-292.5 309.5,-349.5 455.5,-349.5 455.5,-292.5 309.5,-292.5"/>
<text text-anchor="middle" x="382.5" y="-337.5" font-family="Helvetica,sans-Serif" font-size="10.00">QMap&lt; QString, QString &gt;</text>
<polyline fill="none" stroke="black" points="309.5,-330.5 455.5,-330.5 "/>
<text text-anchor="middle" x="382.5" y="-318.5" font-family="Helvetica,sans-Serif" font-size="10.00"> </text>
<polyline fill="none" stroke="black" points="309.5,-311.5 455.5,-311.5 "/>
<text text-anchor="middle" x="382.5" y="-299.5" font-family="Helvetica,sans-Serif" font-size="10.00"> </text>
</a>
</g>
</g>
<!-- Node6&#45;&gt;Node1 -->
<g id="edge6" class="edge">
<title>Node6&#45;&gt;Node1</title>
<path fill="none" stroke="#404040" d="M379.36,-292.32C376.49,-266.93 372.05,-227.75 367.84,-190.64"/>
<polygon fill="none" stroke="#404040" points="367.84,-190.61 363.19,-185.09 366.49,-178.68 371.14,-184.19 367.84,-190.61"/>
<text text-anchor="middle" x="407" y="-200" font-family="Helvetica,sans-Serif" font-size="10.00"> #m_directions</text>
</g>
</g>
</svg>
