<?xml version="1.0" encoding="UTF-8" standalone="no"?>
<!DOCTYPE svg PUBLIC "-//W3C//DTD SVG 1.1//EN"
 "http://www.w3.org/Graphics/SVG/1.1/DTD/svg11.dtd">
<!-- Generated by graphviz version 2.43.0 (0)
 -->
<!-- Title: src/app/seamly2d/core/application_2d.h Pages: 1 -->
<svg width="4179pt" height="106pt"
 viewBox="0.00 0.00 4178.50 106.00" xmlns="http://www.w3.org/2000/svg" xmlns:xlink="http://www.w3.org/1999/xlink">
<g id="graph0" class="graph" transform="scale(1 1) rotate(0) translate(4 102)">
<title>src/app/seamly2d/core/application_2d.h</title>
<polygon fill="white" stroke="transparent" points="-4,4 -4,-102 4174.5,-102 4174.5,4 -4,4"/>
<!-- Node1 -->
<g id="node1" class="node">
<title>Node1</title>
<g id="a_node1"><a xlink:title=" ">
<polygon fill="#bfbfbf" stroke="black" points="2153,-67.5 2153,-97.5 2280,-97.5 2280,-67.5 2153,-67.5"/>
<text text-anchor="start" x="2161" y="-85.5" font-family="Helvetica,sans-Serif" font-size="10.00">src/app/seamly2d/core</text>
<text text-anchor="middle" x="2216.5" y="-74.5" font-family="Helvetica,sans-Serif" font-size="10.00">/application_2d.h</text>
</a>
</g>
</g>
<!-- Node2 -->
<g id="node2" class="node">
<title>Node2</title>
<g id="a_node2"><a xlink:href="../../df/d3e/application__2d_8cpp.html" target="_top" xlink:title=" ">
<polygon fill="white" stroke="black" points="0,-0.5 0,-30.5 127,-30.5 127,-0.5 0,-0.5"/>
<text text-anchor="start" x="8" y="-18.5" font-family="Helvetica,sans-Serif" font-size="10.00">src/app/seamly2d/core</text>
<text text-anchor="middle" x="63.5" y="-7.5" font-family="Helvetica,sans-Serif" font-size="10.00">/application_2d.cpp</text>
</a>
</g>
</g>
<!-- Node1&#45;&gt;Node2 -->
<g id="edge1" class="edge">
<title>Node1&#45;&gt;Node2</title>
<path fill="none" stroke="midnightblue" d="M2142.82,-81.41C1821.04,-80.75 537.29,-75.34 136.5,-31 133.42,-30.66 130.27,-30.25 127.1,-29.8"/>
<polygon fill="midnightblue" stroke="midnightblue" points="2142.95,-84.91 2152.96,-81.43 2142.97,-77.91 2142.95,-84.91"/>
</g>
<!-- Node3 -->
<g id="node3" class="node">
<title>Node3</title>
<g id="a_node3"><a xlink:href="../../dd/db4/abstractlayout__dialog_8cpp.html" target="_top" xlink:title=" ">
<polygon fill="white" stroke="black" points="145.5,-0.5 145.5,-30.5 291.5,-30.5 291.5,-0.5 145.5,-0.5"/>
<text text-anchor="start" x="153.5" y="-18.5" font-family="Helvetica,sans-Serif" font-size="10.00">src/app/seamly2d/dialogs</text>
<text text-anchor="middle" x="218.5" y="-7.5" font-family="Helvetica,sans-Serif" font-size="10.00">/abstractlayout_dialog.cpp</text>
</a>
</g>
</g>
<!-- Node1&#45;&gt;Node3 -->
<g id="edge2" class="edge">
<title>Node1&#45;&gt;Node3</title>
<path fill="none" stroke="midnightblue" d="M2142.43,-81.02C1836.14,-78.81 667.54,-68.08 300.5,-31 297.62,-30.71 294.7,-30.38 291.74,-30.01"/>
<polygon fill="midnightblue" stroke="midnightblue" points="2142.5,-84.52 2152.53,-81.09 2142.55,-77.52 2142.5,-84.52"/>
</g>
<!-- Node4 -->
<g id="node4" class="node">
<title>Node4</title>
<g id="a_node4"><a xlink:href="../../d2/d2d/preferencesconfigurationpage_8cpp.html" target="_top" xlink:title=" ">
<polygon fill="white" stroke="black" points="310,-0.5 310,-30.5 557,-30.5 557,-0.5 310,-0.5"/>
<text text-anchor="start" x="318" y="-18.5" font-family="Helvetica,sans-Serif" font-size="10.00">src/app/seamly2d/dialogs</text>
<text text-anchor="middle" x="433.5" y="-7.5" font-family="Helvetica,sans-Serif" font-size="10.00">/configpages/preferencesconfigurationpage.cpp</text>
</a>
</g>
</g>
<!-- Node1&#45;&gt;Node4 -->
<g id="edge3" class="edge">
<title>Node1&#45;&gt;Node4</title>
<path fill="none" stroke="midnightblue" d="M2142.69,-81.29C1910.49,-80.19 1174.29,-73.37 566.5,-31 563.37,-30.78 560.2,-30.55 557.01,-30.3"/>
<polygon fill="midnightblue" stroke="midnightblue" points="2142.69,-84.79 2152.71,-81.34 2142.72,-77.79 2142.69,-84.79"/>
</g>
<!-- Node5 -->
<g id="node5" class="node">
<title>Node5</title>
<g id="a_node5"><a xlink:href="../../d9/d70/preferencesgraphicsviewpage_8cpp.html" target="_top" xlink:title=" ">
<polygon fill="white" stroke="black" points="575.5,-0.5 575.5,-30.5 823.5,-30.5 823.5,-0.5 575.5,-0.5"/>
<text text-anchor="start" x="583.5" y="-18.5" font-family="Helvetica,sans-Serif" font-size="10.00">src/app/seamly2d/dialogs</text>
<text text-anchor="middle" x="699.5" y="-7.5" font-family="Helvetica,sans-Serif" font-size="10.00">/configpages/preferencesgraphicsviewpage.cpp</text>
</a>
</g>
</g>
<!-- Node1&#45;&gt;Node5 -->
<g id="edge4" class="edge">
<title>Node1&#45;&gt;Node5</title>
<path fill="none" stroke="midnightblue" d="M2142.82,-80.68C1935.99,-77.98 1332.45,-67.33 832.5,-31 829.6,-30.79 826.67,-30.57 823.72,-30.33"/>
<polygon fill="midnightblue" stroke="midnightblue" points="2142.91,-84.18 2152.95,-80.81 2143,-77.18 2142.91,-84.18"/>
</g>
<!-- Node6 -->
<g id="node6" class="node">
<title>Node6</title>
<g id="a_node6"><a xlink:href="../../dc/d20/preferencespathpage_8cpp.html" target="_top" xlink:title=" ">
<polygon fill="white" stroke="black" points="842,-0.5 842,-30.5 1047,-30.5 1047,-0.5 842,-0.5"/>
<text text-anchor="start" x="850" y="-18.5" font-family="Helvetica,sans-Serif" font-size="10.00">src/app/seamly2d/dialogs</text>
<text text-anchor="middle" x="944.5" y="-7.5" font-family="Helvetica,sans-Serif" font-size="10.00">/configpages/preferencespathpage.cpp</text>
</a>
</g>
</g>
<!-- Node1&#45;&gt;Node6 -->
<g id="edge5" class="edge">
<title>Node1&#45;&gt;Node6</title>
<path fill="none" stroke="midnightblue" d="M2142.79,-80.47C1959.04,-77.43 1465.99,-66.36 1056.5,-31 1053.37,-30.73 1050.2,-30.44 1047,-30.13"/>
<polygon fill="midnightblue" stroke="midnightblue" points="2142.82,-83.97 2152.88,-80.63 2142.93,-76.97 2142.82,-83.97"/>
</g>
<!-- Node7 -->
<g id="node7" class="node">
<title>Node7</title>
<g id="a_node7"><a xlink:href="../../d2/d00/vtooloptionspropertybrowser_8cpp.html" target="_top" xlink:title=" ">
<polygon fill="white" stroke="black" points="1065.5,-0.5 1065.5,-30.5 1245.5,-30.5 1245.5,-0.5 1065.5,-0.5"/>
<text text-anchor="start" x="1073.5" y="-18.5" font-family="Helvetica,sans-Serif" font-size="10.00">src/app/seamly2d/core</text>
<text text-anchor="middle" x="1155.5" y="-7.5" font-family="Helvetica,sans-Serif" font-size="10.00">/vtooloptionspropertybrowser.cpp</text>
</a>
</g>
</g>
<!-- Node1&#45;&gt;Node7 -->
<g id="edge6" class="edge">
<title>Node1&#45;&gt;Node7</title>
<path fill="none" stroke="midnightblue" d="M2142.44,-79.96C1980.86,-76.08 1584.68,-63.77 1254.5,-31 1251.56,-30.71 1248.58,-30.39 1245.56,-30.05"/>
<polygon fill="midnightblue" stroke="midnightblue" points="2142.67,-83.46 2152.75,-80.2 2142.83,-76.47 2142.67,-83.46"/>
</g>
<!-- Node8 -->
<g id="node8" class="node">
<title>Node8</title>
<g id="a_node8"><a xlink:href="../../dd/dc2/decimalchart__dialog_8cpp.html" target="_top" xlink:title=" ">
<polygon fill="white" stroke="black" points="1264,-0.5 1264,-30.5 1405,-30.5 1405,-0.5 1264,-0.5"/>
<text text-anchor="start" x="1272" y="-18.5" font-family="Helvetica,sans-Serif" font-size="10.00">src/app/seamly2d/dialogs</text>
<text text-anchor="middle" x="1334.5" y="-7.5" font-family="Helvetica,sans-Serif" font-size="10.00">/decimalchart_dialog.cpp</text>
</a>
</g>
</g>
<!-- Node1&#45;&gt;Node8 -->
<g id="edge7" class="edge">
<title>Node1&#45;&gt;Node8</title>
<path fill="none" stroke="midnightblue" d="M2142.55,-79.72C2000.82,-75.67 1681.34,-63.47 1414.5,-31 1411.42,-30.62 1408.27,-30.21 1405.1,-29.76"/>
<polygon fill="midnightblue" stroke="midnightblue" points="2142.76,-83.23 2152.85,-80.01 2142.95,-76.23 2142.76,-83.23"/>
</g>
<!-- Node9 -->
<g id="node9" class="node">
<title>Node9</title>
<g id="a_node9"><a xlink:href="../../dc/d63/preferencespatternpage_8cpp.html" target="_top" xlink:title=" ">
<polygon fill="white" stroke="black" points="1423.5,-0.5 1423.5,-30.5 1641.5,-30.5 1641.5,-0.5 1423.5,-0.5"/>
<text text-anchor="start" x="1431.5" y="-18.5" font-family="Helvetica,sans-Serif" font-size="10.00">src/app/seamly2d/dialogs</text>
<text text-anchor="middle" x="1532.5" y="-7.5" font-family="Helvetica,sans-Serif" font-size="10.00">/configpages/preferencespatternpage.cpp</text>
</a>
</g>
</g>
<!-- Node1&#45;&gt;Node9 -->
<g id="edge8" class="edge">
<title>Node1&#45;&gt;Node9</title>
<path fill="none" stroke="midnightblue" d="M2142.62,-75.7C2034.48,-67.03 1826.8,-49.69 1650.5,-31 1647.63,-30.7 1644.71,-30.38 1641.78,-30.06"/>
<polygon fill="midnightblue" stroke="midnightblue" points="2142.52,-79.2 2152.77,-76.51 2143.08,-72.22 2142.52,-79.2"/>
</g>
<!-- Node10 -->
<g id="node10" class="node">
<title>Node10</title>
<g id="a_node10"><a xlink:href="../../dd/d64/dialogaboutapp_8cpp.html" target="_top" xlink:title=" ">
<polygon fill="white" stroke="black" points="1660,-0.5 1660,-30.5 1801,-30.5 1801,-0.5 1660,-0.5"/>
<text text-anchor="start" x="1668" y="-18.5" font-family="Helvetica,sans-Serif" font-size="10.00">src/app/seamly2d/dialogs</text>
<text text-anchor="middle" x="1730.5" y="-7.5" font-family="Helvetica,sans-Serif" font-size="10.00">/dialogaboutapp.cpp</text>
</a>
</g>
</g>
<!-- Node1&#45;&gt;Node10 -->
<g id="edge9" class="edge">
<title>Node1&#45;&gt;Node10</title>
<path fill="none" stroke="midnightblue" d="M2142.72,-73.65C2061.04,-64.65 1925.58,-48.84 1809.5,-31 1806.74,-30.58 1803.94,-30.13 1801.1,-29.67"/>
<polygon fill="midnightblue" stroke="midnightblue" points="2142.57,-77.15 2152.89,-74.77 2143.34,-70.2 2142.57,-77.15"/>
</g>
<!-- Node11 -->
<g id="node11" class="node">
<title>Node11</title>
<g id="a_node11"><a xlink:href="../../d7/dfa/calculator__dialog_8cpp.html" target="_top" xlink:title=" ">
<polygon fill="white" stroke="black" points="1819,-0.5 1819,-30.5 1960,-30.5 1960,-0.5 1819,-0.5"/>
<text text-anchor="start" x="1827" y="-18.5" font-family="Helvetica,sans-Serif" font-size="10.00">src/app/seamly2d/dialogs</text>
<text text-anchor="middle" x="1889.5" y="-7.5" font-family="Helvetica,sans-Serif" font-size="10.00">/calculator_dialog.cpp</text>
</a>
</g>
</g>
<!-- Node1&#45;&gt;Node11 -->
<g id="edge10" class="edge">
<title>Node1&#45;&gt;Node11</title>
<path fill="none" stroke="midnightblue" d="M2142.69,-66.83C2087.98,-55.95 2013.87,-41.22 1959.97,-30.51"/>
<polygon fill="midnightblue" stroke="midnightblue" points="2142.18,-70.3 2152.67,-68.81 2143.55,-63.43 2142.18,-70.3"/>
</g>
<!-- Node12 -->
<g id="node12" class="node">
<title>Node12</title>
<g id="a_node12"><a xlink:href="../../d6/d89/dialoglayoutprogress_8cpp.html" target="_top" xlink:title=" ">
<polygon fill="white" stroke="black" points="1978,-0.5 1978,-30.5 2121,-30.5 2121,-0.5 1978,-0.5"/>
<text text-anchor="start" x="1986" y="-18.5" font-family="Helvetica,sans-Serif" font-size="10.00">src/app/seamly2d/dialogs</text>
<text text-anchor="middle" x="2049.5" y="-7.5" font-family="Helvetica,sans-Serif" font-size="10.00">/dialoglayoutprogress.cpp</text>
</a>
</g>
</g>
<!-- Node1&#45;&gt;Node12 -->
<g id="edge11" class="edge">
<title>Node1&#45;&gt;Node12</title>
<path fill="none" stroke="midnightblue" d="M2170.72,-63.68C2143.94,-53.26 2110.6,-40.28 2085.67,-30.58"/>
<polygon fill="midnightblue" stroke="midnightblue" points="2169.67,-67.03 2180.26,-67.4 2172.21,-60.51 2169.67,-67.03"/>
</g>
<!-- Node13 -->
<g id="node13" class="node">
<title>Node13</title>
<g id="a_node13"><a xlink:href="../../d5/d18/dialogpatternproperties_8cpp.html" target="_top" xlink:title=" ">
<polygon fill="white" stroke="black" points="2139,-0.5 2139,-30.5 2294,-30.5 2294,-0.5 2139,-0.5"/>
<text text-anchor="start" x="2147" y="-18.5" font-family="Helvetica,sans-Serif" font-size="10.00">src/app/seamly2d/dialogs</text>
<text text-anchor="middle" x="2216.5" y="-7.5" font-family="Helvetica,sans-Serif" font-size="10.00">/dialogpatternproperties.cpp</text>
</a>
</g>
</g>
<!-- Node1&#45;&gt;Node13 -->
<g id="edge12" class="edge">
<title>Node1&#45;&gt;Node13</title>
<path fill="none" stroke="midnightblue" d="M2216.5,-57.11C2216.5,-48.15 2216.5,-38.32 2216.5,-30.58"/>
<polygon fill="midnightblue" stroke="midnightblue" points="2213,-57.4 2216.5,-67.4 2220,-57.4 2213,-57.4"/>
</g>
<!-- Node14 -->
<g id="node14" class="node">
<title>Node14</title>
<g id="a_node14"><a xlink:href="../../d5/dc5/dialogpreferences_8cpp.html" target="_top" xlink:title=" ">
<polygon fill="white" stroke="black" points="2312,-0.5 2312,-30.5 2453,-30.5 2453,-0.5 2312,-0.5"/>
<text text-anchor="start" x="2320" y="-18.5" font-family="Helvetica,sans-Serif" font-size="10.00">src/app/seamly2d/dialogs</text>
<text text-anchor="middle" x="2382.5" y="-7.5" font-family="Helvetica,sans-Serif" font-size="10.00">/dialogpreferences.cpp</text>
</a>
</g>
</g>
<!-- Node1&#45;&gt;Node14 -->
<g id="edge13" class="edge">
<title>Node1&#45;&gt;Node14</title>
<path fill="none" stroke="midnightblue" d="M2262.01,-63.68C2288.63,-53.26 2321.77,-40.28 2346.55,-30.58"/>
<polygon fill="midnightblue" stroke="midnightblue" points="2260.55,-60.49 2252.52,-67.4 2263.11,-67.01 2260.55,-60.49"/>
</g>
<!-- Node15 -->
<g id="node15" class="node">
<title>Node15</title>
<g id="a_node15"><a xlink:href="../../dd/d54/export__layout__dialog_8cpp.html" target="_top" xlink:title=" ">
<polygon fill="white" stroke="black" points="2471,-0.5 2471,-30.5 2614,-30.5 2614,-0.5 2471,-0.5"/>
<text text-anchor="start" x="2479" y="-18.5" font-family="Helvetica,sans-Serif" font-size="10.00">src/app/seamly2d/dialogs</text>
<text text-anchor="middle" x="2542.5" y="-7.5" font-family="Helvetica,sans-Serif" font-size="10.00">/export_layout_dialog.cpp</text>
</a>
</g>
</g>
<!-- Node1&#45;&gt;Node15 -->
<g id="edge14" class="edge">
<title>Node1&#45;&gt;Node15</title>
<path fill="none" stroke="midnightblue" d="M2290.08,-66.83C2344.62,-55.95 2418.51,-41.22 2472.25,-30.51"/>
<polygon fill="midnightblue" stroke="midnightblue" points="2289.25,-63.43 2280.13,-68.81 2290.62,-70.29 2289.25,-63.43"/>
</g>
<!-- Node16 -->
<g id="node16" class="node">
<title>Node16</title>
<g id="a_node16"><a xlink:href="../../d0/dfa/layoutsettings__dialog_8cpp.html" target="_top" xlink:title=" ">
<polygon fill="white" stroke="black" points="2632,-0.5 2632,-30.5 2777,-30.5 2777,-0.5 2632,-0.5"/>
<text text-anchor="start" x="2640" y="-18.5" font-family="Helvetica,sans-Serif" font-size="10.00">src/app/seamly2d/dialogs</text>
<text text-anchor="middle" x="2704.5" y="-7.5" font-family="Helvetica,sans-Serif" font-size="10.00">/layoutsettings_dialog.cpp</text>
</a>
</g>
</g>
<!-- Node1&#45;&gt;Node16 -->
<g id="edge15" class="edge">
<title>Node1&#45;&gt;Node16</title>
<path fill="none" stroke="midnightblue" d="M2290.27,-73.55C2371.93,-64.47 2507.38,-48.58 2623.5,-31 2626.18,-30.59 2628.92,-30.17 2631.67,-29.73"/>
<polygon fill="midnightblue" stroke="midnightblue" points="2289.65,-70.1 2280.09,-74.68 2290.42,-77.06 2289.65,-70.1"/>
</g>
<!-- Node17 -->
<g id="node17" class="node">
<title>Node17</title>
<g id="a_node17"><a xlink:href="../../db/d5c/groups__widget_8cpp.html" target="_top" xlink:title=" ">
<polygon fill="white" stroke="black" points="2795,-0.5 2795,-30.5 2936,-30.5 2936,-0.5 2795,-0.5"/>
<text text-anchor="start" x="2803" y="-18.5" font-family="Helvetica,sans-Serif" font-size="10.00">src/app/seamly2d/dialogs</text>
<text text-anchor="middle" x="2865.5" y="-7.5" font-family="Helvetica,sans-Serif" font-size="10.00">/groups_widget.cpp</text>
</a>
</g>
</g>
<!-- Node1&#45;&gt;Node17 -->
<g id="edge16" class="edge">
<title>Node1&#45;&gt;Node17</title>
<path fill="none" stroke="midnightblue" d="M2290.63,-77.15C2399.62,-70.24 2609.36,-55.05 2786.5,-31 2789.26,-30.62 2792.08,-30.22 2794.92,-29.79"/>
<polygon fill="midnightblue" stroke="midnightblue" points="2290.16,-73.67 2280.4,-77.79 2290.6,-80.65 2290.16,-73.67"/>
</g>
<!-- Node18 -->
<g id="node18" class="node">
<title>Node18</title>
<g id="a_node18"><a xlink:href="../../dd/d84/shortcuts__dialog_8cpp.html" target="_top" xlink:title=" ">
<polygon fill="white" stroke="black" points="2954,-0.5 2954,-30.5 3095,-30.5 3095,-0.5 2954,-0.5"/>
<text text-anchor="start" x="2962" y="-18.5" font-family="Helvetica,sans-Serif" font-size="10.00">src/app/seamly2d/dialogs</text>
<text text-anchor="middle" x="3024.5" y="-7.5" font-family="Helvetica,sans-Serif" font-size="10.00">/shortcuts_dialog.cpp</text>
</a>
</g>
</g>
<!-- Node1&#45;&gt;Node18 -->
<g id="edge17" class="edge">
<title>Node1&#45;&gt;Node18</title>
<path fill="none" stroke="midnightblue" d="M2290.5,-79.12C2422.51,-74.27 2707.14,-61.03 2945.5,-31 2948.27,-30.65 2951.08,-30.27 2953.93,-29.86"/>
<polygon fill="midnightblue" stroke="midnightblue" points="2289.98,-75.64 2280.12,-79.5 2290.24,-82.63 2289.98,-75.64"/>
</g>
<!-- Node19 -->
<g id="node19" class="node">
<title>Node19</title>
<g id="a_node19"><a xlink:href="../../d2/df4/show__info__dialog_8cpp.html" target="_top" xlink:title=" ">
<polygon fill="white" stroke="black" points="3113,-0.5 3113,-30.5 3254,-30.5 3254,-0.5 3113,-0.5"/>
<text text-anchor="start" x="3121" y="-18.5" font-family="Helvetica,sans-Serif" font-size="10.00">src/app/seamly2d/dialogs</text>
<text text-anchor="middle" x="3183.5" y="-7.5" font-family="Helvetica,sans-Serif" font-size="10.00">/show_info_dialog.cpp</text>
</a>
</g>
</g>
<!-- Node1&#45;&gt;Node19 -->
<g id="edge18" class="edge">
<title>Node1&#45;&gt;Node19</title>
<path fill="none" stroke="midnightblue" d="M2290.46,-80.41C2443.12,-77.47 2804,-66.98 3104.5,-31 3107.27,-30.67 3110.09,-30.3 3112.93,-29.9"/>
<polygon fill="midnightblue" stroke="midnightblue" points="2290.2,-76.91 2280.27,-80.6 2290.33,-83.91 2290.2,-76.91"/>
</g>
<!-- Node20 -->
<g id="node20" class="node">
<title>Node20</title>
<g id="a_node20"><a xlink:href="../../dc/d14/app_2seamly2d_2main_8cpp.html" target="_top" xlink:title=" ">
<polygon fill="white" stroke="black" points="3272,-6 3272,-25 3423,-25 3423,-6 3272,-6"/>
<text text-anchor="middle" x="3347.5" y="-13" font-family="Helvetica,sans-Serif" font-size="10.00">src/app/seamly2d/main.cpp</text>
</a>
</g>
</g>
<!-- Node1&#45;&gt;Node20 -->
<g id="edge19" class="edge">
<title>Node1&#45;&gt;Node20</title>
<path fill="none" stroke="midnightblue" d="M2290.32,-81.05C2461.74,-79.32 2899.88,-71 3263.5,-31 3276.74,-29.54 3291.05,-27.32 3304.05,-25.05"/>
<polygon fill="midnightblue" stroke="midnightblue" points="2290.12,-77.55 2280.15,-81.15 2290.19,-84.55 2290.12,-77.55"/>
</g>
<!-- Node21 -->
<g id="node21" class="node">
<title>Node21</title>
<g id="a_node21"><a xlink:href="../../df/d69/welcome__dialog_8cpp.html" target="_top" xlink:title=" ">
<polygon fill="white" stroke="black" points="3441,-0.5 3441,-30.5 3582,-30.5 3582,-0.5 3441,-0.5"/>
<text text-anchor="start" x="3449" y="-18.5" font-family="Helvetica,sans-Serif" font-size="10.00">src/app/seamly2d/dialogs</text>
<text text-anchor="middle" x="3511.5" y="-7.5" font-family="Helvetica,sans-Serif" font-size="10.00">/welcome_dialog.cpp</text>
</a>
</g>
</g>
<!-- Node1&#45;&gt;Node21 -->
<g id="edge20" class="edge">
<title>Node1&#45;&gt;Node21</title>
<path fill="none" stroke="midnightblue" d="M2290.18,-82.02C2480.09,-82.6 3001.57,-79.26 3432.5,-31 3435.27,-30.69 3438.09,-30.34 3440.94,-29.96"/>
<polygon fill="midnightblue" stroke="midnightblue" points="2290.05,-78.52 2280.03,-81.99 2290.02,-85.52 2290.05,-78.52"/>
</g>
<!-- Node22 -->
<g id="node22" class="node">
<title>Node22</title>
<g id="a_node22"><a xlink:href="../../d8/de8/mainwindowsnogui_8cpp.html" target="_top" xlink:title=" ">
<polygon fill="white" stroke="black" points="3600,-6 3600,-25 3821,-25 3821,-6 3600,-6"/>
<text text-anchor="middle" x="3710.5" y="-13" font-family="Helvetica,sans-Serif" font-size="10.00">src/app/seamly2d/mainwindowsnogui.cpp</text>
</a>
</g>
</g>
<!-- Node1&#45;&gt;Node22 -->
<g id="edge21" class="edge">
<title>Node1&#45;&gt;Node22</title>
<path fill="none" stroke="midnightblue" d="M2290.45,-80.98C2496.69,-79.06 3095.63,-70.25 3591.5,-31 3610.17,-29.52 3630.42,-27.29 3648.84,-25.02"/>
<polygon fill="midnightblue" stroke="midnightblue" points="2290.31,-77.48 2280.35,-81.07 2290.38,-84.48 2290.31,-77.48"/>
</g>
<!-- Node23 -->
<g id="node23" class="node">
<title>Node23</title>
<g id="a_node23"><a xlink:href="../../d3/d49/vpattern_8cpp.html" target="_top" xlink:title=" ">
<polygon fill="white" stroke="black" points="3839,-0.5 3839,-30.5 3964,-30.5 3964,-0.5 3839,-0.5"/>
<text text-anchor="start" x="3847" y="-18.5" font-family="Helvetica,sans-Serif" font-size="10.00">src/app/seamly2d/xml</text>
<text text-anchor="middle" x="3901.5" y="-7.5" font-family="Helvetica,sans-Serif" font-size="10.00">/vpattern.cpp</text>
</a>
</g>
</g>
<!-- Node1&#45;&gt;Node23 -->
<g id="edge22" class="edge">
<title>Node1&#45;&gt;Node23</title>
<path fill="none" stroke="midnightblue" d="M2290.43,-80.86C2565.03,-78.21 3526.2,-66.57 3830.5,-31 3833.25,-30.68 3836.05,-30.31 3838.87,-29.89"/>
<polygon fill="midnightblue" stroke="midnightblue" points="2290.14,-77.36 2280.18,-80.96 2290.21,-84.36 2290.14,-77.36"/>
</g>
<!-- Node24 -->
<g id="node24" class="node">
<title>Node24</title>
<g id="a_node24"><a xlink:href="../../d8/dd9/mainwindow_8cpp.html" target="_top" xlink:title=" ">
<polygon fill="white" stroke="black" points="3982.5,-6 3982.5,-25 4170.5,-25 4170.5,-6 3982.5,-6"/>
<text text-anchor="middle" x="4076.5" y="-13" font-family="Helvetica,sans-Serif" font-size="10.00">src/app/seamly2d/mainwindow.cpp</text>
</a>
</g>
</g>
<!-- Node1&#45;&gt;Node24 -->
<g id="edge23" class="edge">
<title>Node1&#45;&gt;Node24</title>
<path fill="none" stroke="midnightblue" d="M2290.51,-80.47C2580.35,-76.27 3638.78,-59.28 3973.5,-31 3990.05,-29.6 4008.01,-27.34 4024.23,-25.01"/>
<polygon fill="midnightblue" stroke="midnightblue" points="2290.07,-76.98 2280.12,-80.62 2290.17,-83.98 2290.07,-76.98"/>
</g>
</g>
</svg>
