<?xml version="1.0" encoding="UTF-8" standalone="no"?>
<!DOCTYPE svg PUBLIC "-//W3C//DTD SVG 1.1//EN"
 "http://www.w3.org/Graphics/SVG/1.1/DTD/svg11.dtd">
<!-- Generated by graphviz version 2.43.0 (0)
 -->
<!-- Title: src/app/seamly2d/core/application_2d.h Pages: 1 -->
<svg width="4472pt" height="106pt"
 viewBox="0.00 0.00 4472.00 106.00" xmlns="http://www.w3.org/2000/svg" xmlns:xlink="http://www.w3.org/1999/xlink">
<g id="graph0" class="graph" transform="scale(1 1) rotate(0) translate(4 102)">
<title>src/app/seamly2d/core/application_2d.h</title>
<polygon fill="white" stroke="transparent" points="-4,4 -4,-102 4468,-102 4468,4 -4,4"/>
<!-- Node1 -->
<g id="node1" class="node">
<title>Node1</title>
<g id="a_node1"><a xlink:title=" ">
<polygon fill="#bfbfbf" stroke="black" points="2212,-67.5 2212,-97.5 2339,-97.5 2339,-67.5 2212,-67.5"/>
<text text-anchor="start" x="2220" y="-85.5" font-family="Helvetica,sans-Serif" font-size="10.00">src/app/seamly2d/core</text>
<text text-anchor="middle" x="2275.5" y="-74.5" font-family="Helvetica,sans-Serif" font-size="10.00">/application_2d.h</text>
</a>
</g>
</g>
<!-- Node2 -->
<g id="node2" class="node">
<title>Node2</title>
<g id="a_node2"><a xlink:href="../../df/d3e/application__2d_8cpp.html" target="_top" xlink:title=" ">
<polygon fill="white" stroke="black" points="0,-0.5 0,-30.5 127,-30.5 127,-0.5 0,-0.5"/>
<text text-anchor="start" x="8" y="-18.5" font-family="Helvetica,sans-Serif" font-size="10.00">src/app/seamly2d/core</text>
<text text-anchor="middle" x="63.5" y="-7.5" font-family="Helvetica,sans-Serif" font-size="10.00">/application_2d.cpp</text>
</a>
</g>
</g>
<!-- Node1&#45;&gt;Node2 -->
<g id="edge1" class="edge">
<title>Node1&#45;&gt;Node2</title>
<path fill="none" stroke="midnightblue" d="M2201.64,-81.47C1873.95,-81.05 549.46,-76.54 136.5,-31 133.42,-30.66 130.27,-30.26 127.1,-29.8"/>
<polygon fill="midnightblue" stroke="midnightblue" points="2201.96,-84.97 2211.96,-81.48 2201.97,-77.97 2201.96,-84.97"/>
</g>
<!-- Node3 -->
<g id="node3" class="node">
<title>Node3</title>
<g id="a_node3"><a xlink:href="../../dd/db4/abstractlayout__dialog_8cpp.html" target="_top" xlink:title=" ">
<polygon fill="white" stroke="black" points="145.5,-0.5 145.5,-30.5 291.5,-30.5 291.5,-0.5 145.5,-0.5"/>
<text text-anchor="start" x="153.5" y="-18.5" font-family="Helvetica,sans-Serif" font-size="10.00">src/app/seamly2d/dialogs</text>
<text text-anchor="middle" x="218.5" y="-7.5" font-family="Helvetica,sans-Serif" font-size="10.00">/abstractlayout_dialog.cpp</text>
</a>
</g>
</g>
<!-- Node1&#45;&gt;Node3 -->
<g id="edge2" class="edge">
<title>Node1&#45;&gt;Node3</title>
<path fill="none" stroke="midnightblue" d="M2201.24,-81.09C1888.81,-79.12 679.7,-69.16 300.5,-31 297.62,-30.71 294.7,-30.38 291.74,-30.01"/>
<polygon fill="midnightblue" stroke="midnightblue" points="2201.52,-84.59 2211.54,-81.15 2201.56,-77.59 2201.52,-84.59"/>
</g>
<!-- Node4 -->
<g id="node4" class="node">
<title>Node4</title>
<g id="a_node4"><a xlink:href="../../d9/d7f/about2d__dialog_8cpp.html" target="_top" xlink:title=" ">
<polygon fill="white" stroke="black" points="310,-0.5 310,-30.5 451,-30.5 451,-0.5 310,-0.5"/>
<text text-anchor="start" x="318" y="-18.5" font-family="Helvetica,sans-Serif" font-size="10.00">src/app/seamly2d/dialogs</text>
<text text-anchor="middle" x="380.5" y="-7.5" font-family="Helvetica,sans-Serif" font-size="10.00">/about2d_dialog.cpp</text>
</a>
</g>
</g>
<!-- Node1&#45;&gt;Node4 -->
<g id="edge3" class="edge">
<title>Node1&#45;&gt;Node4</title>
<path fill="none" stroke="midnightblue" d="M2201.41,-80.96C1905.24,-78.57 805.73,-67.37 459.5,-31 456.73,-30.71 453.9,-30.37 451.06,-30.01"/>
<polygon fill="midnightblue" stroke="midnightblue" points="2201.58,-84.46 2211.6,-81.04 2201.63,-77.46 2201.58,-84.46"/>
</g>
<!-- Node5 -->
<g id="node5" class="node">
<title>Node5</title>
<g id="a_node5"><a xlink:href="../../d7/dfa/calculator__dialog_8cpp.html" target="_top" xlink:title=" ">
<polygon fill="white" stroke="black" points="469,-0.5 469,-30.5 610,-30.5 610,-0.5 469,-0.5"/>
<text text-anchor="start" x="477" y="-18.5" font-family="Helvetica,sans-Serif" font-size="10.00">src/app/seamly2d/dialogs</text>
<text text-anchor="middle" x="539.5" y="-7.5" font-family="Helvetica,sans-Serif" font-size="10.00">/calculator_dialog.cpp</text>
</a>
</g>
</g>
<!-- Node1&#45;&gt;Node5 -->
<g id="edge4" class="edge">
<title>Node1&#45;&gt;Node5</title>
<path fill="none" stroke="midnightblue" d="M2201.57,-80.71C1922.47,-77.5 932.81,-63.99 619.5,-31 616.41,-30.67 613.26,-30.3 610.09,-29.88"/>
<polygon fill="midnightblue" stroke="midnightblue" points="2201.95,-84.21 2211.98,-80.83 2202.03,-77.21 2201.95,-84.21"/>
</g>
<!-- Node6 -->
<g id="node6" class="node">
<title>Node6</title>
<g id="a_node6"><a xlink:href="../../d9/d70/preferencesgraphicsviewpage_8cpp.html" target="_top" xlink:title=" ">
<polygon fill="white" stroke="black" points="628.5,-0.5 628.5,-30.5 876.5,-30.5 876.5,-0.5 628.5,-0.5"/>
<text text-anchor="start" x="636.5" y="-18.5" font-family="Helvetica,sans-Serif" font-size="10.00">src/app/seamly2d/dialogs</text>
<text text-anchor="middle" x="752.5" y="-7.5" font-family="Helvetica,sans-Serif" font-size="10.00">/configpages/preferencesgraphicsviewpage.cpp</text>
</a>
</g>
</g>
<!-- Node1&#45;&gt;Node6 -->
<g id="edge5" class="edge">
<title>Node1&#45;&gt;Node6</title>
<path fill="none" stroke="midnightblue" d="M2201.5,-80.69C1993.77,-78.02 1387.61,-67.44 885.5,-31 882.6,-30.79 879.67,-30.57 876.72,-30.33"/>
<polygon fill="midnightblue" stroke="midnightblue" points="2201.64,-84.19 2211.68,-80.82 2201.72,-77.2 2201.64,-84.19"/>
</g>
<!-- Node7 -->
<g id="node7" class="node">
<title>Node7</title>
<g id="a_node7"><a xlink:href="../../d2/d00/vtooloptionspropertybrowser_8cpp.html" target="_top" xlink:title=" ">
<polygon fill="white" stroke="black" points="894.5,-0.5 894.5,-30.5 1074.5,-30.5 1074.5,-0.5 894.5,-0.5"/>
<text text-anchor="start" x="902.5" y="-18.5" font-family="Helvetica,sans-Serif" font-size="10.00">src/app/seamly2d/core</text>
<text text-anchor="middle" x="984.5" y="-7.5" font-family="Helvetica,sans-Serif" font-size="10.00">/vtooloptionspropertybrowser.cpp</text>
</a>
</g>
</g>
<!-- Node1&#45;&gt;Node7 -->
<g id="edge6" class="edge">
<title>Node1&#45;&gt;Node7</title>
<path fill="none" stroke="midnightblue" d="M2201.69,-81.02C2014.37,-79.21 1505.44,-70.73 1083.5,-31 1080.56,-30.72 1077.57,-30.42 1074.56,-30.09"/>
<polygon fill="midnightblue" stroke="midnightblue" points="2201.67,-84.52 2211.7,-81.11 2201.74,-77.52 2201.67,-84.52"/>
</g>
<!-- Node8 -->
<g id="node8" class="node">
<title>Node8</title>
<g id="a_node8"><a xlink:href="../../dc/d20/preferencespathpage_8cpp.html" target="_top" xlink:title=" ">
<polygon fill="white" stroke="black" points="1093,-0.5 1093,-30.5 1298,-30.5 1298,-0.5 1093,-0.5"/>
<text text-anchor="start" x="1101" y="-18.5" font-family="Helvetica,sans-Serif" font-size="10.00">src/app/seamly2d/dialogs</text>
<text text-anchor="middle" x="1195.5" y="-7.5" font-family="Helvetica,sans-Serif" font-size="10.00">/configpages/preferencespathpage.cpp</text>
</a>
</g>
</g>
<!-- Node1&#45;&gt;Node8 -->
<g id="edge7" class="edge">
<title>Node1&#45;&gt;Node8</title>
<path fill="none" stroke="midnightblue" d="M2201.54,-79.61C2039.24,-75.03 1639.74,-61.4 1306.5,-31 1303.79,-30.75 1301.05,-30.49 1298.28,-30.21"/>
<polygon fill="midnightblue" stroke="midnightblue" points="2201.79,-83.12 2211.89,-79.9 2201.99,-76.12 2201.79,-83.12"/>
</g>
<!-- Node9 -->
<g id="node9" class="node">
<title>Node9</title>
<g id="a_node9"><a xlink:href="../../dd/dc2/decimalchart__dialog_8cpp.html" target="_top" xlink:title=" ">
<polygon fill="white" stroke="black" points="1316,-0.5 1316,-30.5 1457,-30.5 1457,-0.5 1316,-0.5"/>
<text text-anchor="start" x="1324" y="-18.5" font-family="Helvetica,sans-Serif" font-size="10.00">src/app/seamly2d/dialogs</text>
<text text-anchor="middle" x="1386.5" y="-7.5" font-family="Helvetica,sans-Serif" font-size="10.00">/decimalchart_dialog.cpp</text>
</a>
</g>
</g>
<!-- Node1&#45;&gt;Node9 -->
<g id="edge8" class="edge">
<title>Node1&#45;&gt;Node9</title>
<path fill="none" stroke="midnightblue" d="M2201.44,-79.77C2058.76,-75.81 1736.01,-63.72 1466.5,-31 1463.42,-30.63 1460.27,-30.21 1457.1,-29.76"/>
<polygon fill="midnightblue" stroke="midnightblue" points="2201.72,-83.28 2211.81,-80.06 2201.91,-76.28 2201.72,-83.28"/>
</g>
<!-- Node10 -->
<g id="node10" class="node">
<title>Node10</title>
<g id="a_node10"><a xlink:href="../../dc/d63/preferencespatternpage_8cpp.html" target="_top" xlink:title=" ">
<polygon fill="white" stroke="black" points="1475.5,-0.5 1475.5,-30.5 1693.5,-30.5 1693.5,-0.5 1475.5,-0.5"/>
<text text-anchor="start" x="1483.5" y="-18.5" font-family="Helvetica,sans-Serif" font-size="10.00">src/app/seamly2d/dialogs</text>
<text text-anchor="middle" x="1584.5" y="-7.5" font-family="Helvetica,sans-Serif" font-size="10.00">/configpages/preferencespatternpage.cpp</text>
</a>
</g>
</g>
<!-- Node1&#45;&gt;Node10 -->
<g id="edge9" class="edge">
<title>Node1&#45;&gt;Node10</title>
<path fill="none" stroke="midnightblue" d="M2201.59,-75.8C2092.36,-67.2 1881.45,-49.87 1702.5,-31 1699.63,-30.7 1696.71,-30.38 1693.78,-30.06"/>
<polygon fill="midnightblue" stroke="midnightblue" points="2201.59,-79.31 2211.84,-76.61 2202.14,-72.34 2201.59,-79.31"/>
</g>
<!-- Node11 -->
<g id="node11" class="node">
<title>Node11</title>
<g id="a_node11"><a xlink:href="../../d6/d89/dialoglayoutprogress_8cpp.html" target="_top" xlink:title=" ">
<polygon fill="white" stroke="black" points="1712,-0.5 1712,-30.5 1855,-30.5 1855,-0.5 1712,-0.5"/>
<text text-anchor="start" x="1720" y="-18.5" font-family="Helvetica,sans-Serif" font-size="10.00">src/app/seamly2d/dialogs</text>
<text text-anchor="middle" x="1783.5" y="-7.5" font-family="Helvetica,sans-Serif" font-size="10.00">/dialoglayoutprogress.cpp</text>
</a>
</g>
</g>
<!-- Node1&#45;&gt;Node11 -->
<g id="edge10" class="edge">
<title>Node1&#45;&gt;Node11</title>
<path fill="none" stroke="midnightblue" d="M2201.79,-73.75C2119.22,-64.78 1981.48,-48.91 1863.5,-31 1860.85,-30.6 1858.15,-30.17 1855.43,-29.74"/>
<polygon fill="midnightblue" stroke="midnightblue" points="2201.5,-77.24 2211.82,-74.84 2202.26,-70.28 2201.5,-77.24"/>
</g>
<!-- Node12 -->
<g id="node12" class="node">
<title>Node12</title>
<g id="a_node12"><a xlink:href="../../de/d87/dialognewpattern_8cpp.html" target="_top" xlink:title=" ">
<polygon fill="white" stroke="black" points="1873,-0.5 1873,-30.5 2014,-30.5 2014,-0.5 1873,-0.5"/>
<text text-anchor="start" x="1881" y="-18.5" font-family="Helvetica,sans-Serif" font-size="10.00">src/app/seamly2d/dialogs</text>
<text text-anchor="middle" x="1943.5" y="-7.5" font-family="Helvetica,sans-Serif" font-size="10.00">/dialognewpattern.cpp</text>
</a>
</g>
</g>
<!-- Node1&#45;&gt;Node12 -->
<g id="edge11" class="edge">
<title>Node1&#45;&gt;Node12</title>
<path fill="none" stroke="midnightblue" d="M2202.02,-67.11C2146.02,-56.15 2069.37,-41.14 2014.09,-30.32"/>
<polygon fill="midnightblue" stroke="midnightblue" points="2201.39,-70.56 2211.88,-69.04 2202.74,-63.69 2201.39,-70.56"/>
</g>
<!-- Node13 -->
<g id="node13" class="node">
<title>Node13</title>
<g id="a_node13"><a xlink:href="../../d5/d18/dialogpatternproperties_8cpp.html" target="_top" xlink:title=" ">
<polygon fill="white" stroke="black" points="2032,-0.5 2032,-30.5 2187,-30.5 2187,-0.5 2032,-0.5"/>
<text text-anchor="start" x="2040" y="-18.5" font-family="Helvetica,sans-Serif" font-size="10.00">src/app/seamly2d/dialogs</text>
<text text-anchor="middle" x="2109.5" y="-7.5" font-family="Helvetica,sans-Serif" font-size="10.00">/dialogpatternproperties.cpp</text>
</a>
</g>
</g>
<!-- Node1&#45;&gt;Node13 -->
<g id="edge12" class="edge">
<title>Node1&#45;&gt;Node13</title>
<path fill="none" stroke="midnightblue" d="M2229.99,-63.68C2203.37,-53.26 2170.23,-40.28 2145.45,-30.58"/>
<polygon fill="midnightblue" stroke="midnightblue" points="2228.89,-67.01 2239.48,-67.4 2231.45,-60.49 2228.89,-67.01"/>
</g>
<!-- Node14 -->
<g id="node14" class="node">
<title>Node14</title>
<g id="a_node14"><a xlink:href="../../d5/dc5/dialogpreferences_8cpp.html" target="_top" xlink:title=" ">
<polygon fill="white" stroke="black" points="2205,-0.5 2205,-30.5 2346,-30.5 2346,-0.5 2205,-0.5"/>
<text text-anchor="start" x="2213" y="-18.5" font-family="Helvetica,sans-Serif" font-size="10.00">src/app/seamly2d/dialogs</text>
<text text-anchor="middle" x="2275.5" y="-7.5" font-family="Helvetica,sans-Serif" font-size="10.00">/dialogpreferences.cpp</text>
</a>
</g>
</g>
<!-- Node1&#45;&gt;Node14 -->
<g id="edge13" class="edge">
<title>Node1&#45;&gt;Node14</title>
<path fill="none" stroke="midnightblue" d="M2275.5,-57.11C2275.5,-48.15 2275.5,-38.32 2275.5,-30.58"/>
<polygon fill="midnightblue" stroke="midnightblue" points="2272,-57.4 2275.5,-67.4 2279,-57.4 2272,-57.4"/>
</g>
<!-- Node15 -->
<g id="node15" class="node">
<title>Node15</title>
<g id="a_node15"><a xlink:href="../../d2/d2d/preferencesconfigurationpage_8cpp.html" target="_top" xlink:title=" ">
<polygon fill="white" stroke="black" points="2364,-0.5 2364,-30.5 2611,-30.5 2611,-0.5 2364,-0.5"/>
<text text-anchor="start" x="2372" y="-18.5" font-family="Helvetica,sans-Serif" font-size="10.00">src/app/seamly2d/dialogs</text>
<text text-anchor="middle" x="2487.5" y="-7.5" font-family="Helvetica,sans-Serif" font-size="10.00">/configpages/preferencesconfigurationpage.cpp</text>
</a>
</g>
</g>
<!-- Node1&#45;&gt;Node15 -->
<g id="edge14" class="edge">
<title>Node1&#45;&gt;Node15</title>
<path fill="none" stroke="midnightblue" d="M2331.13,-64.44C2365.49,-53.91 2409.06,-40.55 2441.48,-30.61"/>
<polygon fill="midnightblue" stroke="midnightblue" points="2329.77,-61.2 2321.24,-67.48 2331.83,-67.89 2329.77,-61.2"/>
</g>
<!-- Node16 -->
<g id="node16" class="node">
<title>Node16</title>
<g id="a_node16"><a xlink:href="../../dd/d54/export__layout__dialog_8cpp.html" target="_top" xlink:title=" ">
<polygon fill="white" stroke="black" points="2629,-0.5 2629,-30.5 2772,-30.5 2772,-0.5 2629,-0.5"/>
<text text-anchor="start" x="2637" y="-18.5" font-family="Helvetica,sans-Serif" font-size="10.00">src/app/seamly2d/dialogs</text>
<text text-anchor="middle" x="2700.5" y="-7.5" font-family="Helvetica,sans-Serif" font-size="10.00">/export_layout_dialog.cpp</text>
</a>
</g>
</g>
<!-- Node1&#45;&gt;Node16 -->
<g id="edge15" class="edge">
<title>Node1&#45;&gt;Node16</title>
<path fill="none" stroke="midnightblue" d="M2349.22,-71.45C2419.15,-61.74 2527.12,-46.29 2620.5,-31 2623.29,-30.54 2626.12,-30.07 2628.99,-29.59"/>
<polygon fill="midnightblue" stroke="midnightblue" points="2348.61,-68 2339.19,-72.84 2349.57,-74.93 2348.61,-68"/>
</g>
<!-- Node17 -->
<g id="node17" class="node">
<title>Node17</title>
<g id="a_node17"><a xlink:href="../../d0/dfa/layoutsettings__dialog_8cpp.html" target="_top" xlink:title=" ">
<polygon fill="white" stroke="black" points="2790,-0.5 2790,-30.5 2935,-30.5 2935,-0.5 2790,-0.5"/>
<text text-anchor="start" x="2798" y="-18.5" font-family="Helvetica,sans-Serif" font-size="10.00">src/app/seamly2d/dialogs</text>
<text text-anchor="middle" x="2862.5" y="-7.5" font-family="Helvetica,sans-Serif" font-size="10.00">/layoutsettings_dialog.cpp</text>
</a>
</g>
</g>
<!-- Node1&#45;&gt;Node17 -->
<g id="edge16" class="edge">
<title>Node1&#45;&gt;Node17</title>
<path fill="none" stroke="midnightblue" d="M2349.36,-75.94C2448.1,-68.09 2628.43,-52.31 2781.5,-31 2784.19,-30.63 2786.92,-30.23 2789.68,-29.81"/>
<polygon fill="midnightblue" stroke="midnightblue" points="2348.89,-72.46 2339.19,-76.74 2349.44,-79.44 2348.89,-72.46"/>
</g>
<!-- Node18 -->
<g id="node18" class="node">
<title>Node18</title>
<g id="a_node18"><a xlink:href="../../db/d5c/groups__widget_8cpp.html" target="_top" xlink:title=" ">
<polygon fill="white" stroke="black" points="2953,-0.5 2953,-30.5 3094,-30.5 3094,-0.5 2953,-0.5"/>
<text text-anchor="start" x="2961" y="-18.5" font-family="Helvetica,sans-Serif" font-size="10.00">src/app/seamly2d/dialogs</text>
<text text-anchor="middle" x="3023.5" y="-7.5" font-family="Helvetica,sans-Serif" font-size="10.00">/groups_widget.cpp</text>
</a>
</g>
</g>
<!-- Node1&#45;&gt;Node18 -->
<g id="edge17" class="edge">
<title>Node1&#45;&gt;Node18</title>
<path fill="none" stroke="midnightblue" d="M2349.48,-78.49C2473.11,-72.87 2729.33,-58.79 2944.5,-31 2947.27,-30.64 2950.08,-30.25 2952.92,-29.84"/>
<polygon fill="midnightblue" stroke="midnightblue" points="2349.21,-74.99 2339.38,-78.94 2349.52,-81.99 2349.21,-74.99"/>
</g>
<!-- Node19 -->
<g id="node19" class="node">
<title>Node19</title>
<g id="a_node19"><a xlink:href="../../dd/d84/shortcuts__dialog_8cpp.html" target="_top" xlink:title=" ">
<polygon fill="white" stroke="black" points="3112,-0.5 3112,-30.5 3253,-30.5 3253,-0.5 3112,-0.5"/>
<text text-anchor="start" x="3120" y="-18.5" font-family="Helvetica,sans-Serif" font-size="10.00">src/app/seamly2d/dialogs</text>
<text text-anchor="middle" x="3182.5" y="-7.5" font-family="Helvetica,sans-Serif" font-size="10.00">/shortcuts_dialog.cpp</text>
</a>
</g>
</g>
<!-- Node1&#45;&gt;Node19 -->
<g id="edge18" class="edge">
<title>Node1&#45;&gt;Node19</title>
<path fill="none" stroke="midnightblue" d="M2349.21,-79.98C2494.18,-76.35 2826.37,-64.76 3103.5,-31 3106.27,-30.66 3109.09,-30.29 3111.93,-29.89"/>
<polygon fill="midnightblue" stroke="midnightblue" points="2349.01,-76.49 2339.1,-80.23 2349.19,-83.49 2349.01,-76.49"/>
</g>
<!-- Node20 -->
<g id="node20" class="node">
<title>Node20</title>
<g id="a_node20"><a xlink:href="../../d2/df4/show__info__dialog_8cpp.html" target="_top" xlink:title=" ">
<polygon fill="white" stroke="black" points="3271,-0.5 3271,-30.5 3412,-30.5 3412,-0.5 3271,-0.5"/>
<text text-anchor="start" x="3279" y="-18.5" font-family="Helvetica,sans-Serif" font-size="10.00">src/app/seamly2d/dialogs</text>
<text text-anchor="middle" x="3341.5" y="-7.5" font-family="Helvetica,sans-Serif" font-size="10.00">/show_info_dialog.cpp</text>
</a>
</g>
</g>
<!-- Node1&#45;&gt;Node20 -->
<g id="edge19" class="edge">
<title>Node1&#45;&gt;Node20</title>
<path fill="none" stroke="midnightblue" d="M2349.26,-81.01C2513.73,-79.19 2922.81,-70.69 3262.5,-31 3265.27,-30.68 3268.09,-30.31 3270.93,-29.92"/>
<polygon fill="midnightblue" stroke="midnightblue" points="2349.21,-77.51 2339.25,-81.11 2349.29,-84.51 2349.21,-77.51"/>
</g>
<!-- Node21 -->
<g id="node21" class="node">
<title>Node21</title>
<g id="a_node21"><a xlink:href="../../df/d69/welcome__dialog_8cpp.html" target="_top" xlink:title=" ">
<polygon fill="white" stroke="black" points="3430,-0.5 3430,-30.5 3571,-30.5 3571,-0.5 3430,-0.5"/>
<text text-anchor="start" x="3438" y="-18.5" font-family="Helvetica,sans-Serif" font-size="10.00">src/app/seamly2d/dialogs</text>
<text text-anchor="middle" x="3500.5" y="-7.5" font-family="Helvetica,sans-Serif" font-size="10.00">/welcome_dialog.cpp</text>
</a>
</g>
</g>
<!-- Node1&#45;&gt;Node21 -->
<g id="edge20" class="edge">
<title>Node1&#45;&gt;Node21</title>
<path fill="none" stroke="midnightblue" d="M2349.11,-81.75C2531.46,-81.63 3018.5,-76.64 3421.5,-31 3424.27,-30.69 3427.09,-30.33 3429.94,-29.95"/>
<polygon fill="midnightblue" stroke="midnightblue" points="2349.1,-78.25 2339.1,-81.76 2349.1,-85.25 2349.1,-78.25"/>
</g>
<!-- Node22 -->
<g id="node22" class="node">
<title>Node22</title>
<g id="a_node22"><a xlink:href="../../dc/d14/app_2seamly2d_2main_8cpp.html" target="_top" xlink:title=" ">
<polygon fill="white" stroke="black" points="3589,-6 3589,-25 3740,-25 3740,-6 3589,-6"/>
<text text-anchor="middle" x="3664.5" y="-13" font-family="Helvetica,sans-Serif" font-size="10.00">src/app/seamly2d/main.cpp</text>
</a>
</g>
</g>
<!-- Node1&#45;&gt;Node22 -->
<g id="edge21" class="edge">
<title>Node1&#45;&gt;Node22</title>
<path fill="none" stroke="midnightblue" d="M2349.25,-82.05C2548.44,-82.81 3113.68,-80.11 3580.5,-31 3593.89,-29.59 3608.38,-27.35 3621.49,-25.05"/>
<polygon fill="midnightblue" stroke="midnightblue" points="2349.21,-78.55 2339.2,-82.01 2349.18,-85.55 2349.21,-78.55"/>
</g>
<!-- Node23 -->
<g id="node23" class="node">
<title>Node23</title>
<g id="a_node23"><a xlink:href="../../d8/de8/mainwindowsnogui_8cpp.html" target="_top" xlink:title=" ">
<polygon fill="white" stroke="black" points="3758,-6 3758,-25 3979,-25 3979,-6 3758,-6"/>
<text text-anchor="middle" x="3868.5" y="-13" font-family="Helvetica,sans-Serif" font-size="10.00">src/app/seamly2d/mainwindowsnogui.cpp</text>
</a>
</g>
</g>
<!-- Node1&#45;&gt;Node23 -->
<g id="edge22" class="edge">
<title>Node1&#45;&gt;Node23</title>
<path fill="none" stroke="midnightblue" d="M2349.44,-81.24C2565.36,-79.99 3213.57,-72.75 3749.5,-31 3768.28,-29.54 3788.65,-27.3 3807.15,-25.01"/>
<polygon fill="midnightblue" stroke="midnightblue" points="2349.16,-77.74 2339.18,-81.3 2349.2,-84.74 2349.16,-77.74"/>
</g>
<!-- Node24 -->
<g id="node24" class="node">
<title>Node24</title>
<g id="a_node24"><a xlink:href="../../d3/d49/vpattern_8cpp.html" target="_top" xlink:title=" ">
<polygon fill="white" stroke="black" points="3997,-0.5 3997,-30.5 4122,-30.5 4122,-0.5 3997,-0.5"/>
<text text-anchor="start" x="4005" y="-18.5" font-family="Helvetica,sans-Serif" font-size="10.00">src/app/seamly2d/xml</text>
<text text-anchor="middle" x="4059.5" y="-7.5" font-family="Helvetica,sans-Serif" font-size="10.00">/vpattern.cpp</text>
</a>
</g>
</g>
<!-- Node1&#45;&gt;Node24 -->
<g id="edge23" class="edge">
<title>Node1&#45;&gt;Node24</title>
<path fill="none" stroke="midnightblue" d="M2349.63,-81.01C2635.15,-78.87 3663.9,-68.65 3988.5,-31 3991.25,-30.68 3994.05,-30.31 3996.87,-29.9"/>
<polygon fill="midnightblue" stroke="midnightblue" points="2349.36,-77.51 2339.39,-81.09 2349.41,-84.51 2349.36,-77.51"/>
</g>
<!-- Node25 -->
<g id="node25" class="node">
<title>Node25</title>
<g id="a_node25"><a xlink:href="../../d8/dd9/mainwindow_8cpp.html" target="_top" xlink:title=" ">
<polygon fill="white" stroke="black" points="4140.5,-6 4140.5,-25 4328.5,-25 4328.5,-6 4140.5,-6"/>
<text text-anchor="middle" x="4234.5" y="-13" font-family="Helvetica,sans-Serif" font-size="10.00">src/app/seamly2d/mainwindow.cpp</text>
</a>
</g>
</g>
<!-- Node1&#45;&gt;Node25 -->
<g id="edge24" class="edge">
<title>Node1&#45;&gt;Node25</title>
<path fill="none" stroke="midnightblue" d="M2349.67,-80.6C2649.95,-76.78 3776.35,-60.73 4131.5,-31 4148.06,-29.61 4166.01,-27.35 4182.23,-25.02"/>
<polygon fill="midnightblue" stroke="midnightblue" points="2349.29,-77.1 2339.33,-80.73 2349.38,-84.1 2349.29,-77.1"/>
</g>
<!-- Node26 -->
<g id="node26" class="node">
<title>Node26</title>
<g id="a_node26"><a xlink:href="../../d9/da3/image__tool_8cpp.html" target="_top" xlink:title=" ">
<polygon fill="white" stroke="black" points="4347,-0.5 4347,-30.5 4464,-30.5 4464,-0.5 4347,-0.5"/>
<text text-anchor="start" x="4355" y="-18.5" font-family="Helvetica,sans-Serif" font-size="10.00">src/libs/tools/images</text>
<text text-anchor="middle" x="4405.5" y="-7.5" font-family="Helvetica,sans-Serif" font-size="10.00">/image_tool.cpp</text>
</a>
</g>
</g>
<!-- Node1&#45;&gt;Node26 -->
<g id="edge25" class="edge">
<title>Node1&#45;&gt;Node26</title>
<path fill="none" stroke="midnightblue" d="M2349.09,-81.53C2669.03,-81.37 3940.72,-77.75 4337.5,-31 4340.5,-30.65 4343.56,-30.22 4346.64,-29.75"/>
<polygon fill="midnightblue" stroke="midnightblue" points="2349,-78.03 2339.01,-81.53 2349.01,-85.03 2349,-78.03"/>
</g>
</g>
</svg>
