<?xml version="1.0" encoding="UTF-8" standalone="no"?>
<!DOCTYPE svg PUBLIC "-//W3C//DTD SVG 1.1//EN"
 "http://www.w3.org/Graphics/SVG/1.1/DTD/svg11.dtd">
<!-- Generated by graphviz version 2.43.0 (0)
 -->
<!-- Title: src/app/seamly2d/core/application_2d.h Pages: 1 -->
<svg width="4471pt" height="106pt"
 viewBox="0.00 0.00 4471.00 106.00" xmlns="http://www.w3.org/2000/svg" xmlns:xlink="http://www.w3.org/1999/xlink">
<g id="graph0" class="graph" transform="scale(1 1) rotate(0) translate(4 102)">
<title>src/app/seamly2d/core/application_2d.h</title>
<polygon fill="white" stroke="transparent" points="-4,4 -4,-102 4467,-102 4467,4 -4,4"/>
<!-- Node1 -->
<g id="node1" class="node">
<title>Node1</title>
<g id="a_node1"><a xlink:title=" ">
<polygon fill="#bfbfbf" stroke="black" points="2310,-67.5 2310,-97.5 2437,-97.5 2437,-67.5 2310,-67.5"/>
<text text-anchor="start" x="2318" y="-85.5" font-family="Helvetica,sans-Serif" font-size="10.00">src/app/seamly2d/core</text>
<text text-anchor="middle" x="2373.5" y="-74.5" font-family="Helvetica,sans-Serif" font-size="10.00">/application_2d.h</text>
</a>
</g>
</g>
<!-- Node2 -->
<g id="node2" class="node">
<title>Node2</title>
<g id="a_node2"><a xlink:href="../../df/d3e/application__2d_8cpp.html" target="_top" xlink:title=" ">
<polygon fill="white" stroke="black" points="0,-0.5 0,-30.5 127,-30.5 127,-0.5 0,-0.5"/>
<text text-anchor="start" x="8" y="-18.5" font-family="Helvetica,sans-Serif" font-size="10.00">src/app/seamly2d/core</text>
<text text-anchor="middle" x="63.5" y="-7.5" font-family="Helvetica,sans-Serif" font-size="10.00">/application_2d.cpp</text>
</a>
</g>
</g>
<!-- Node1&#45;&gt;Node2 -->
<g id="edge1" class="edge">
<title>Node1&#45;&gt;Node2</title>
<path fill="none" stroke="midnightblue" d="M2299.86,-81.56C1963.36,-81.54 569.93,-78.57 136.5,-31 133.42,-30.66 130.27,-30.26 127.1,-29.81"/>
<polygon fill="midnightblue" stroke="midnightblue" points="2299.97,-85.06 2309.97,-81.55 2299.97,-78.06 2299.97,-85.06"/>
</g>
<!-- Node3 -->
<g id="node3" class="node">
<title>Node3</title>
<g id="a_node3"><a xlink:href="../../dd/db4/abstractlayout__dialog_8cpp.html" target="_top" xlink:title=" ">
<polygon fill="white" stroke="black" points="145.5,-0.5 145.5,-30.5 291.5,-30.5 291.5,-0.5 145.5,-0.5"/>
<text text-anchor="start" x="153.5" y="-18.5" font-family="Helvetica,sans-Serif" font-size="10.00">src/app/seamly2d/dialogs</text>
<text text-anchor="middle" x="218.5" y="-7.5" font-family="Helvetica,sans-Serif" font-size="10.00">/abstractlayout_dialog.cpp</text>
</a>
</g>
</g>
<!-- Node1&#45;&gt;Node3 -->
<g id="edge2" class="edge">
<title>Node1&#45;&gt;Node3</title>
<path fill="none" stroke="midnightblue" d="M2299.82,-81.19C1978.78,-79.63 700.27,-70.98 300.5,-31 297.62,-30.71 294.69,-30.38 291.74,-30.01"/>
<polygon fill="midnightblue" stroke="midnightblue" points="2299.92,-84.7 2309.94,-81.24 2299.96,-77.7 2299.92,-84.7"/>
</g>
<!-- Node4 -->
<g id="node4" class="node">
<title>Node4</title>
<g id="a_node4"><a xlink:href="../../d9/d7f/about2d__dialog_8cpp.html" target="_top" xlink:title=" ">
<polygon fill="white" stroke="black" points="310,-0.5 310,-30.5 451,-30.5 451,-0.5 310,-0.5"/>
<text text-anchor="start" x="318" y="-18.5" font-family="Helvetica,sans-Serif" font-size="10.00">src/app/seamly2d/dialogs</text>
<text text-anchor="middle" x="380.5" y="-7.5" font-family="Helvetica,sans-Serif" font-size="10.00">/about2d_dialog.cpp</text>
</a>
</g>
</g>
<!-- Node1&#45;&gt;Node4 -->
<g id="edge3" class="edge">
<title>Node1&#45;&gt;Node4</title>
<path fill="none" stroke="midnightblue" d="M2299.5,-81.08C1993.51,-79.12 826.04,-69.24 459.5,-31 456.73,-30.71 453.9,-30.38 451.06,-30.01"/>
<polygon fill="midnightblue" stroke="midnightblue" points="2299.56,-84.58 2309.59,-81.15 2299.61,-77.58 2299.56,-84.58"/>
</g>
<!-- Node5 -->
<g id="node5" class="node">
<title>Node5</title>
<g id="a_node5"><a xlink:href="../../d2/d2d/preferencesconfigurationpage_8cpp.html" target="_top" xlink:title=" ">
<polygon fill="white" stroke="black" points="469,-0.5 469,-30.5 716,-30.5 716,-0.5 469,-0.5"/>
<text text-anchor="start" x="477" y="-18.5" font-family="Helvetica,sans-Serif" font-size="10.00">src/app/seamly2d/dialogs</text>
<text text-anchor="middle" x="592.5" y="-7.5" font-family="Helvetica,sans-Serif" font-size="10.00">/configpages/preferencesconfigurationpage.cpp</text>
</a>
</g>
</g>
<!-- Node1&#45;&gt;Node5 -->
<g id="edge4" class="edge">
<title>Node1&#45;&gt;Node5</title>
<path fill="none" stroke="midnightblue" d="M2299.73,-81.31C2067.67,-80.27 1331.91,-73.6 724.5,-31 721.74,-30.81 718.95,-30.6 716.14,-30.38"/>
<polygon fill="midnightblue" stroke="midnightblue" points="2299.73,-84.81 2309.74,-81.35 2299.76,-77.81 2299.73,-84.81"/>
</g>
<!-- Node6 -->
<g id="node6" class="node">
<title>Node6</title>
<g id="a_node6"><a xlink:href="../../d7/dfa/calculator__dialog_8cpp.html" target="_top" xlink:title=" ">
<polygon fill="white" stroke="black" points="734,-0.5 734,-30.5 875,-30.5 875,-0.5 734,-0.5"/>
<text text-anchor="start" x="742" y="-18.5" font-family="Helvetica,sans-Serif" font-size="10.00">src/app/seamly2d/dialogs</text>
<text text-anchor="middle" x="804.5" y="-7.5" font-family="Helvetica,sans-Serif" font-size="10.00">/calculator_dialog.cpp</text>
</a>
</g>
</g>
<!-- Node1&#45;&gt;Node6 -->
<g id="edge5" class="edge">
<title>Node1&#45;&gt;Node6</title>
<path fill="none" stroke="midnightblue" d="M2299.7,-80.42C2039.21,-76.38 1163.52,-60.86 884.5,-31 881.41,-30.67 878.26,-30.29 875.09,-29.87"/>
<polygon fill="midnightblue" stroke="midnightblue" points="2299.76,-83.92 2309.81,-80.57 2299.86,-76.92 2299.76,-83.92"/>
</g>
<!-- Node7 -->
<g id="node7" class="node">
<title>Node7</title>
<g id="a_node7"><a xlink:href="../../d2/d00/vtooloptionspropertybrowser_8cpp.html" target="_top" xlink:title=" ">
<polygon fill="white" stroke="black" points="893.5,-0.5 893.5,-30.5 1073.5,-30.5 1073.5,-0.5 893.5,-0.5"/>
<text text-anchor="start" x="901.5" y="-18.5" font-family="Helvetica,sans-Serif" font-size="10.00">src/app/seamly2d/core</text>
<text text-anchor="middle" x="983.5" y="-7.5" font-family="Helvetica,sans-Serif" font-size="10.00">/vtooloptionspropertybrowser.cpp</text>
</a>
</g>
</g>
<!-- Node1&#45;&gt;Node7 -->
<g id="edge6" class="edge">
<title>Node1&#45;&gt;Node7</title>
<path fill="none" stroke="midnightblue" d="M2299.6,-81.35C2101.83,-80.37 1544.11,-73.71 1082.5,-31 1079.56,-30.73 1076.57,-30.43 1073.56,-30.11"/>
<polygon fill="midnightblue" stroke="midnightblue" points="2299.86,-84.86 2309.87,-81.4 2299.89,-77.86 2299.86,-84.86"/>
</g>
<!-- Node8 -->
<g id="node8" class="node">
<title>Node8</title>
<g id="a_node8"><a xlink:href="../../dc/d20/preferencespathpage_8cpp.html" target="_top" xlink:title=" ">
<polygon fill="white" stroke="black" points="1092,-0.5 1092,-30.5 1297,-30.5 1297,-0.5 1092,-0.5"/>
<text text-anchor="start" x="1100" y="-18.5" font-family="Helvetica,sans-Serif" font-size="10.00">src/app/seamly2d/dialogs</text>
<text text-anchor="middle" x="1194.5" y="-7.5" font-family="Helvetica,sans-Serif" font-size="10.00">/configpages/preferencespathpage.cpp</text>
</a>
</g>
</g>
<!-- Node1&#45;&gt;Node8 -->
<g id="edge7" class="edge">
<title>Node1&#45;&gt;Node8</title>
<path fill="none" stroke="midnightblue" d="M2299.83,-80.11C2126.29,-76.39 1678.27,-64.1 1305.5,-31 1302.79,-30.76 1300.04,-30.5 1297.27,-30.23"/>
<polygon fill="midnightblue" stroke="midnightblue" points="2299.8,-83.61 2309.88,-80.33 2299.95,-76.61 2299.8,-83.61"/>
</g>
<!-- Node9 -->
<g id="node9" class="node">
<title>Node9</title>
<g id="a_node9"><a xlink:href="../../d9/d70/preferencesgraphicsviewpage_8cpp.html" target="_top" xlink:title=" ">
<polygon fill="white" stroke="black" points="1314.5,-0.5 1314.5,-30.5 1562.5,-30.5 1562.5,-0.5 1314.5,-0.5"/>
<text text-anchor="start" x="1322.5" y="-18.5" font-family="Helvetica,sans-Serif" font-size="10.00">src/app/seamly2d/dialogs</text>
<text text-anchor="middle" x="1438.5" y="-7.5" font-family="Helvetica,sans-Serif" font-size="10.00">/configpages/preferencesgraphicsviewpage.cpp</text>
</a>
</g>
</g>
<!-- Node1&#45;&gt;Node9 -->
<g id="edge8" class="edge">
<title>Node1&#45;&gt;Node9</title>
<path fill="none" stroke="midnightblue" d="M2299.46,-77.97C2157.91,-70.97 1839.15,-54 1571.5,-31 1568.61,-30.75 1565.68,-30.49 1562.73,-30.22"/>
<polygon fill="midnightblue" stroke="midnightblue" points="2299.59,-81.48 2309.75,-78.48 2299.93,-74.49 2299.59,-81.48"/>
</g>
<!-- Node10 -->
<g id="node10" class="node">
<title>Node10</title>
<g id="a_node10"><a xlink:href="../../dc/d63/preferencespatternpage_8cpp.html" target="_top" xlink:title=" ">
<polygon fill="white" stroke="black" points="1580.5,-0.5 1580.5,-30.5 1798.5,-30.5 1798.5,-0.5 1580.5,-0.5"/>
<text text-anchor="start" x="1588.5" y="-18.5" font-family="Helvetica,sans-Serif" font-size="10.00">src/app/seamly2d/dialogs</text>
<text text-anchor="middle" x="1689.5" y="-7.5" font-family="Helvetica,sans-Serif" font-size="10.00">/configpages/preferencespatternpage.cpp</text>
</a>
</g>
</g>
<!-- Node1&#45;&gt;Node10 -->
<g id="edge9" class="edge">
<title>Node1&#45;&gt;Node10</title>
<path fill="none" stroke="midnightblue" d="M2299.62,-75.7C2191.48,-67.03 1983.8,-49.69 1807.5,-31 1804.63,-30.7 1801.71,-30.38 1798.78,-30.06"/>
<polygon fill="midnightblue" stroke="midnightblue" points="2299.52,-79.2 2309.77,-76.51 2300.08,-72.22 2299.52,-79.2"/>
</g>
<!-- Node11 -->
<g id="node11" class="node">
<title>Node11</title>
<g id="a_node11"><a xlink:href="../../dd/dc2/decimalchart__dialog_8cpp.html" target="_top" xlink:title=" ">
<polygon fill="white" stroke="black" points="1817,-0.5 1817,-30.5 1958,-30.5 1958,-0.5 1817,-0.5"/>
<text text-anchor="start" x="1825" y="-18.5" font-family="Helvetica,sans-Serif" font-size="10.00">src/app/seamly2d/dialogs</text>
<text text-anchor="middle" x="1887.5" y="-7.5" font-family="Helvetica,sans-Serif" font-size="10.00">/decimalchart_dialog.cpp</text>
</a>
</g>
</g>
<!-- Node1&#45;&gt;Node11 -->
<g id="edge10" class="edge">
<title>Node1&#45;&gt;Node11</title>
<path fill="none" stroke="midnightblue" d="M2299.72,-73.65C2218.04,-64.65 2082.58,-48.84 1966.5,-31 1963.74,-30.58 1960.94,-30.13 1958.1,-29.67"/>
<polygon fill="midnightblue" stroke="midnightblue" points="2299.57,-77.15 2309.89,-74.77 2300.34,-70.2 2299.57,-77.15"/>
</g>
<!-- Node12 -->
<g id="node12" class="node">
<title>Node12</title>
<g id="a_node12"><a xlink:href="../../d6/d89/dialoglayoutprogress_8cpp.html" target="_top" xlink:title=" ">
<polygon fill="white" stroke="black" points="1976,-0.5 1976,-30.5 2119,-30.5 2119,-0.5 1976,-0.5"/>
<text text-anchor="start" x="1984" y="-18.5" font-family="Helvetica,sans-Serif" font-size="10.00">src/app/seamly2d/dialogs</text>
<text text-anchor="middle" x="2047.5" y="-7.5" font-family="Helvetica,sans-Serif" font-size="10.00">/dialoglayoutprogress.cpp</text>
</a>
</g>
</g>
<!-- Node1&#45;&gt;Node12 -->
<g id="edge11" class="edge">
<title>Node1&#45;&gt;Node12</title>
<path fill="none" stroke="midnightblue" d="M2299.92,-66.83C2245.38,-55.95 2171.49,-41.22 2117.75,-30.51"/>
<polygon fill="midnightblue" stroke="midnightblue" points="2299.38,-70.29 2309.87,-68.81 2300.75,-63.43 2299.38,-70.29"/>
</g>
<!-- Node13 -->
<g id="node13" class="node">
<title>Node13</title>
<g id="a_node13"><a xlink:href="../../de/d87/dialognewpattern_8cpp.html" target="_top" xlink:title=" ">
<polygon fill="white" stroke="black" points="2137,-0.5 2137,-30.5 2278,-30.5 2278,-0.5 2137,-0.5"/>
<text text-anchor="start" x="2145" y="-18.5" font-family="Helvetica,sans-Serif" font-size="10.00">src/app/seamly2d/dialogs</text>
<text text-anchor="middle" x="2207.5" y="-7.5" font-family="Helvetica,sans-Serif" font-size="10.00">/dialognewpattern.cpp</text>
</a>
</g>
</g>
<!-- Node1&#45;&gt;Node13 -->
<g id="edge12" class="edge">
<title>Node1&#45;&gt;Node13</title>
<path fill="none" stroke="midnightblue" d="M2327.99,-63.68C2301.37,-53.26 2268.23,-40.28 2243.45,-30.58"/>
<polygon fill="midnightblue" stroke="midnightblue" points="2326.89,-67.01 2337.48,-67.4 2329.45,-60.49 2326.89,-67.01"/>
</g>
<!-- Node14 -->
<g id="node14" class="node">
<title>Node14</title>
<g id="a_node14"><a xlink:href="../../d5/d18/dialogpatternproperties_8cpp.html" target="_top" xlink:title=" ">
<polygon fill="white" stroke="black" points="2296,-0.5 2296,-30.5 2451,-30.5 2451,-0.5 2296,-0.5"/>
<text text-anchor="start" x="2304" y="-18.5" font-family="Helvetica,sans-Serif" font-size="10.00">src/app/seamly2d/dialogs</text>
<text text-anchor="middle" x="2373.5" y="-7.5" font-family="Helvetica,sans-Serif" font-size="10.00">/dialogpatternproperties.cpp</text>
</a>
</g>
</g>
<!-- Node1&#45;&gt;Node14 -->
<g id="edge13" class="edge">
<title>Node1&#45;&gt;Node14</title>
<path fill="none" stroke="midnightblue" d="M2373.5,-57.11C2373.5,-48.15 2373.5,-38.32 2373.5,-30.58"/>
<polygon fill="midnightblue" stroke="midnightblue" points="2370,-57.4 2373.5,-67.4 2377,-57.4 2370,-57.4"/>
</g>
<!-- Node15 -->
<g id="node15" class="node">
<title>Node15</title>
<g id="a_node15"><a xlink:href="../../d5/dc5/dialogpreferences_8cpp.html" target="_top" xlink:title=" ">
<polygon fill="white" stroke="black" points="2469,-0.5 2469,-30.5 2610,-30.5 2610,-0.5 2469,-0.5"/>
<text text-anchor="start" x="2477" y="-18.5" font-family="Helvetica,sans-Serif" font-size="10.00">src/app/seamly2d/dialogs</text>
<text text-anchor="middle" x="2539.5" y="-7.5" font-family="Helvetica,sans-Serif" font-size="10.00">/dialogpreferences.cpp</text>
</a>
</g>
</g>
<!-- Node1&#45;&gt;Node15 -->
<g id="edge14" class="edge">
<title>Node1&#45;&gt;Node15</title>
<path fill="none" stroke="midnightblue" d="M2419.01,-63.68C2445.63,-53.26 2478.77,-40.28 2503.55,-30.58"/>
<polygon fill="midnightblue" stroke="midnightblue" points="2417.55,-60.49 2409.52,-67.4 2420.11,-67.01 2417.55,-60.49"/>
</g>
<!-- Node16 -->
<g id="node16" class="node">
<title>Node16</title>
<g id="a_node16"><a xlink:href="../../dd/d54/export__layout__dialog_8cpp.html" target="_top" xlink:title=" ">
<polygon fill="white" stroke="black" points="2628,-0.5 2628,-30.5 2771,-30.5 2771,-0.5 2628,-0.5"/>
<text text-anchor="start" x="2636" y="-18.5" font-family="Helvetica,sans-Serif" font-size="10.00">src/app/seamly2d/dialogs</text>
<text text-anchor="middle" x="2699.5" y="-7.5" font-family="Helvetica,sans-Serif" font-size="10.00">/export_layout_dialog.cpp</text>
</a>
</g>
</g>
<!-- Node1&#45;&gt;Node16 -->
<g id="edge15" class="edge">
<title>Node1&#45;&gt;Node16</title>
<path fill="none" stroke="midnightblue" d="M2447.08,-66.83C2501.62,-55.95 2575.51,-41.22 2629.25,-30.51"/>
<polygon fill="midnightblue" stroke="midnightblue" points="2446.25,-63.43 2437.13,-68.81 2447.62,-70.29 2446.25,-63.43"/>
</g>
<!-- Node17 -->
<g id="node17" class="node">
<title>Node17</title>
<g id="a_node17"><a xlink:href="../../db/d5c/groups__widget_8cpp.html" target="_top" xlink:title=" ">
<polygon fill="white" stroke="black" points="2789,-0.5 2789,-30.5 2930,-30.5 2930,-0.5 2789,-0.5"/>
<text text-anchor="start" x="2797" y="-18.5" font-family="Helvetica,sans-Serif" font-size="10.00">src/app/seamly2d/dialogs</text>
<text text-anchor="middle" x="2859.5" y="-7.5" font-family="Helvetica,sans-Serif" font-size="10.00">/groups_widget.cpp</text>
</a>
</g>
</g>
<!-- Node1&#45;&gt;Node17 -->
<g id="edge16" class="edge">
<title>Node1&#45;&gt;Node17</title>
<path fill="none" stroke="midnightblue" d="M2447.28,-73.65C2528.96,-64.65 2664.42,-48.84 2780.5,-31 2783.26,-30.58 2786.06,-30.13 2788.9,-29.67"/>
<polygon fill="midnightblue" stroke="midnightblue" points="2446.66,-70.2 2437.11,-74.77 2447.43,-77.15 2446.66,-70.2"/>
</g>
<!-- Node18 -->
<g id="node18" class="node">
<title>Node18</title>
<g id="a_node18"><a xlink:href="../../d0/dfa/layoutsettings__dialog_8cpp.html" target="_top" xlink:title=" ">
<polygon fill="white" stroke="black" points="2948,-0.5 2948,-30.5 3093,-30.5 3093,-0.5 2948,-0.5"/>
<text text-anchor="start" x="2956" y="-18.5" font-family="Helvetica,sans-Serif" font-size="10.00">src/app/seamly2d/dialogs</text>
<text text-anchor="middle" x="3020.5" y="-7.5" font-family="Helvetica,sans-Serif" font-size="10.00">/layoutsettings_dialog.cpp</text>
</a>
</g>
</g>
<!-- Node1&#45;&gt;Node18 -->
<g id="edge17" class="edge">
<title>Node1&#45;&gt;Node18</title>
<path fill="none" stroke="midnightblue" d="M2447.53,-76.98C2555.86,-69.9 2763.78,-54.52 2939.5,-31 2942.19,-30.64 2944.93,-30.25 2947.69,-29.85"/>
<polygon fill="midnightblue" stroke="midnightblue" points="2447.12,-73.5 2437.36,-77.64 2447.57,-80.49 2447.12,-73.5"/>
</g>
<!-- Node19 -->
<g id="node19" class="node">
<title>Node19</title>
<g id="a_node19"><a xlink:href="../../dd/d84/shortcuts__dialog_8cpp.html" target="_top" xlink:title=" ">
<polygon fill="white" stroke="black" points="3111,-0.5 3111,-30.5 3252,-30.5 3252,-0.5 3111,-0.5"/>
<text text-anchor="start" x="3119" y="-18.5" font-family="Helvetica,sans-Serif" font-size="10.00">src/app/seamly2d/dialogs</text>
<text text-anchor="middle" x="3181.5" y="-7.5" font-family="Helvetica,sans-Serif" font-size="10.00">/shortcuts_dialog.cpp</text>
</a>
</g>
</g>
<!-- Node1&#45;&gt;Node19 -->
<g id="edge18" class="edge">
<title>Node1&#45;&gt;Node19</title>
<path fill="none" stroke="midnightblue" d="M2447.5,-79.12C2579.51,-74.27 2864.14,-61.03 3102.5,-31 3105.27,-30.65 3108.08,-30.27 3110.93,-29.86"/>
<polygon fill="midnightblue" stroke="midnightblue" points="2446.98,-75.64 2437.12,-79.5 2447.24,-82.63 2446.98,-75.64"/>
</g>
<!-- Node20 -->
<g id="node20" class="node">
<title>Node20</title>
<g id="a_node20"><a xlink:href="../../d2/df4/show__info__dialog_8cpp.html" target="_top" xlink:title=" ">
<polygon fill="white" stroke="black" points="3270,-0.5 3270,-30.5 3411,-30.5 3411,-0.5 3270,-0.5"/>
<text text-anchor="start" x="3278" y="-18.5" font-family="Helvetica,sans-Serif" font-size="10.00">src/app/seamly2d/dialogs</text>
<text text-anchor="middle" x="3340.5" y="-7.5" font-family="Helvetica,sans-Serif" font-size="10.00">/show_info_dialog.cpp</text>
</a>
</g>
</g>
<!-- Node1&#45;&gt;Node20 -->
<g id="edge19" class="edge">
<title>Node1&#45;&gt;Node20</title>
<path fill="none" stroke="midnightblue" d="M2447.46,-80.41C2600.12,-77.47 2961,-66.98 3261.5,-31 3264.27,-30.67 3267.09,-30.3 3269.93,-29.9"/>
<polygon fill="midnightblue" stroke="midnightblue" points="2447.2,-76.91 2437.27,-80.6 2447.33,-83.91 2447.2,-76.91"/>
</g>
<!-- Node21 -->
<g id="node21" class="node">
<title>Node21</title>
<g id="a_node21"><a xlink:href="../../df/d69/welcome__dialog_8cpp.html" target="_top" xlink:title=" ">
<polygon fill="white" stroke="black" points="3429,-0.5 3429,-30.5 3570,-30.5 3570,-0.5 3429,-0.5"/>
<text text-anchor="start" x="3437" y="-18.5" font-family="Helvetica,sans-Serif" font-size="10.00">src/app/seamly2d/dialogs</text>
<text text-anchor="middle" x="3499.5" y="-7.5" font-family="Helvetica,sans-Serif" font-size="10.00">/welcome_dialog.cpp</text>
</a>
</g>
</g>
<!-- Node1&#45;&gt;Node21 -->
<g id="edge20" class="edge">
<title>Node1&#45;&gt;Node21</title>
<path fill="none" stroke="midnightblue" d="M2447.35,-81.31C2618.84,-80.15 3057.09,-72.93 3420.5,-31 3423.27,-30.68 3426.09,-30.32 3428.93,-29.93"/>
<polygon fill="midnightblue" stroke="midnightblue" points="2447.16,-77.82 2437.18,-81.38 2447.2,-84.81 2447.16,-77.82"/>
</g>
<!-- Node22 -->
<g id="node22" class="node">
<title>Node22</title>
<g id="a_node22"><a xlink:href="../../dc/d14/app_2seamly2d_2main_8cpp.html" target="_top" xlink:title=" ">
<polygon fill="white" stroke="black" points="3588,-6 3588,-25 3739,-25 3739,-6 3588,-6"/>
<text text-anchor="middle" x="3663.5" y="-13" font-family="Helvetica,sans-Serif" font-size="10.00">src/app/seamly2d/main.cpp</text>
</a>
</g>
</g>
<!-- Node1&#45;&gt;Node22 -->
<g id="edge21" class="edge">
<title>Node1&#45;&gt;Node22</title>
<path fill="none" stroke="midnightblue" d="M2447.22,-81.72C2636.06,-81.56 3152.38,-76.61 3579.5,-31 3592.89,-29.57 3607.38,-27.32 3620.48,-25.02"/>
<polygon fill="midnightblue" stroke="midnightblue" points="2447.13,-78.22 2437.13,-81.72 2447.13,-85.22 2447.13,-78.22"/>
</g>
<!-- Node23 -->
<g id="node23" class="node">
<title>Node23</title>
<g id="a_node23"><a xlink:href="../../d8/de8/mainwindowsnogui_8cpp.html" target="_top" xlink:title=" ">
<polygon fill="white" stroke="black" points="3757,-6 3757,-25 3978,-25 3978,-6 3757,-6"/>
<text text-anchor="middle" x="3867.5" y="-13" font-family="Helvetica,sans-Serif" font-size="10.00">src/app/seamly2d/mainwindowsnogui.cpp</text>
</a>
</g>
</g>
<!-- Node1&#45;&gt;Node23 -->
<g id="edge22" class="edge">
<title>Node1&#45;&gt;Node23</title>
<path fill="none" stroke="midnightblue" d="M2447.45,-80.98C2653.69,-79.06 3252.63,-70.25 3748.5,-31 3767.17,-29.52 3787.42,-27.29 3805.84,-25.02"/>
<polygon fill="midnightblue" stroke="midnightblue" points="2447.31,-77.48 2437.35,-81.07 2447.38,-84.48 2447.31,-77.48"/>
</g>
<!-- Node24 -->
<g id="node24" class="node">
<title>Node24</title>
<g id="a_node24"><a xlink:href="../../d3/d49/vpattern_8cpp.html" target="_top" xlink:title=" ">
<polygon fill="white" stroke="black" points="3996,-0.5 3996,-30.5 4121,-30.5 4121,-0.5 3996,-0.5"/>
<text text-anchor="start" x="4004" y="-18.5" font-family="Helvetica,sans-Serif" font-size="10.00">src/app/seamly2d/xml</text>
<text text-anchor="middle" x="4058.5" y="-7.5" font-family="Helvetica,sans-Serif" font-size="10.00">/vpattern.cpp</text>
</a>
</g>
</g>
<!-- Node1&#45;&gt;Node24 -->
<g id="edge23" class="edge">
<title>Node1&#45;&gt;Node24</title>
<path fill="none" stroke="midnightblue" d="M2447.43,-80.86C2722.03,-78.21 3683.2,-66.57 3987.5,-31 3990.25,-30.68 3993.05,-30.31 3995.87,-29.89"/>
<polygon fill="midnightblue" stroke="midnightblue" points="2447.14,-77.36 2437.18,-80.96 2447.21,-84.36 2447.14,-77.36"/>
</g>
<!-- Node25 -->
<g id="node25" class="node">
<title>Node25</title>
<g id="a_node25"><a xlink:href="../../d8/dd9/mainwindow_8cpp.html" target="_top" xlink:title=" ">
<polygon fill="white" stroke="black" points="4139.5,-6 4139.5,-25 4327.5,-25 4327.5,-6 4139.5,-6"/>
<text text-anchor="middle" x="4233.5" y="-13" font-family="Helvetica,sans-Serif" font-size="10.00">src/app/seamly2d/mainwindow.cpp</text>
</a>
</g>
</g>
<!-- Node1&#45;&gt;Node25 -->
<g id="edge24" class="edge">
<title>Node1&#45;&gt;Node25</title>
<path fill="none" stroke="midnightblue" d="M2447.51,-80.47C2737.35,-76.27 3795.78,-59.28 4130.5,-31 4147.05,-29.6 4165.01,-27.34 4181.23,-25.01"/>
<polygon fill="midnightblue" stroke="midnightblue" points="2447.07,-76.98 2437.12,-80.62 2447.17,-83.98 2447.07,-76.98"/>
</g>
<!-- Node26 -->
<g id="node26" class="node">
<title>Node26</title>
<g id="a_node26"><a xlink:href="../../d9/da3/image__tool_8cpp.html" target="_top" xlink:title=" ">
<polygon fill="white" stroke="black" points="4346,-0.5 4346,-30.5 4463,-30.5 4463,-0.5 4346,-0.5"/>
<text text-anchor="start" x="4354" y="-18.5" font-family="Helvetica,sans-Serif" font-size="10.00">src/libs/tools/images</text>
<text text-anchor="middle" x="4404.5" y="-7.5" font-family="Helvetica,sans-Serif" font-size="10.00">/image_tool.cpp</text>
</a>
</g>
</g>
<!-- Node1&#45;&gt;Node26 -->
<g id="edge25" class="edge">
<title>Node1&#45;&gt;Node26</title>
<path fill="none" stroke="midnightblue" d="M2447.34,-81.42C2758.03,-80.81 3960.33,-75.56 4336.5,-31 4339.5,-30.65 4342.56,-30.22 4345.64,-29.75"/>
<polygon fill="midnightblue" stroke="midnightblue" points="2447.1,-77.92 2437.1,-81.44 2447.11,-84.92 2447.1,-77.92"/>
</g>
</g>
</svg>
