<?xml version="1.0" encoding="UTF-8" standalone="no"?>
<!DOCTYPE svg PUBLIC "-//W3C//DTD SVG 1.1//EN"
 "http://www.w3.org/Graphics/SVG/1.1/DTD/svg11.dtd">
<!-- Generated by graphviz version 2.43.0 (0)
 -->
<!-- Title: src/libs/vpatterndb/variables/measurement_variable.h Pages: 1 -->
<svg width="5616pt" height="407pt"
 viewBox="0.00 0.00 5616.00 407.00" xmlns="http://www.w3.org/2000/svg" xmlns:xlink="http://www.w3.org/1999/xlink">
<g id="graph0" class="graph" transform="scale(1 1) rotate(0) translate(4 403)">
<title>src/libs/vpatterndb/variables/measurement_variable.h</title>
<polygon fill="white" stroke="transparent" points="-4,4 -4,-403 5612,-403 5612,4 -4,4"/>
<!-- Node1 -->
<g id="node1" class="node">
<title>Node1</title>
<g id="a_node1"><a xlink:title=" ">
<polygon fill="#bfbfbf" stroke="black" points="3808,-357.5 3808,-398.5 3944,-398.5 3944,-357.5 3808,-357.5"/>
<text text-anchor="start" x="3816" y="-386.5" font-family="Helvetica,sans-Serif" font-size="10.00">src/libs/vpatterndb</text>
<text text-anchor="start" x="3816" y="-375.5" font-family="Helvetica,sans-Serif" font-size="10.00">/variables/measurement</text>
<text text-anchor="middle" x="3876" y="-364.5" font-family="Helvetica,sans-Serif" font-size="10.00">_variable.h</text>
</a>
</g>
</g>
<!-- Node2 -->
<g id="node2" class="node">
<title>Node2</title>
<g id="a_node2"><a xlink:href="../../d9/de3/measurements_8cpp.html" target="_top" xlink:title=" ">
<polygon fill="white" stroke="black" points="0,-78.5 0,-97.5 190,-97.5 190,-78.5 0,-78.5"/>
<text text-anchor="middle" x="95" y="-85.5" font-family="Helvetica,sans-Serif" font-size="10.00">src/libs/vformat/measurements.cpp</text>
</a>
</g>
</g>
<!-- Node1&#45;&gt;Node2 -->
<g id="edge1" class="edge">
<title>Node1&#45;&gt;Node2</title>
<path fill="none" stroke="midnightblue" d="M3797.73,-375.41C3438.44,-367.48 1911.47,-326.83 668,-187 466.66,-164.36 228.74,-116.96 135.41,-97.56"/>
<polygon fill="midnightblue" stroke="midnightblue" points="3797.69,-378.91 3807.77,-375.63 3797.84,-371.91 3797.69,-378.91"/>
</g>
<!-- Node3 -->
<g id="node3" class="node">
<title>Node3</title>
<g id="a_node3"><a xlink:href="../../d4/da4/measurement__variable_8cpp.html" target="_top" xlink:title=" ">
<polygon fill="white" stroke="black" points="5472,-67.5 5472,-108.5 5608,-108.5 5608,-67.5 5472,-67.5"/>
<text text-anchor="start" x="5480" y="-96.5" font-family="Helvetica,sans-Serif" font-size="10.00">src/libs/vpatterndb</text>
<text text-anchor="start" x="5480" y="-85.5" font-family="Helvetica,sans-Serif" font-size="10.00">/variables/measurement</text>
<text text-anchor="middle" x="5540" y="-74.5" font-family="Helvetica,sans-Serif" font-size="10.00">_variable.cpp</text>
</a>
</g>
</g>
<!-- Node1&#45;&gt;Node3 -->
<g id="edge2" class="edge">
<title>Node1&#45;&gt;Node3</title>
<path fill="none" stroke="midnightblue" d="M3954.42,-372.3C4168.56,-358.21 4780.14,-309.43 5273,-187 5353.51,-167 5443.34,-131.05 5495.58,-108.69"/>
<polygon fill="midnightblue" stroke="midnightblue" points="3953.97,-368.83 3944.22,-372.97 3954.43,-375.81 3953.97,-368.83"/>
</g>
<!-- Node4 -->
<g id="node4" class="node">
<title>Node4</title>
<g id="a_node4"><a xlink:href="../../de/dca/variables_8h.html" target="_top" xlink:title=" ">
<polygon fill="white" stroke="black" points="3162.5,-290.5 3162.5,-320.5 3269.5,-320.5 3269.5,-290.5 3162.5,-290.5"/>
<text text-anchor="start" x="3170.5" y="-308.5" font-family="Helvetica,sans-Serif" font-size="10.00">src/libs/vpatterndb</text>
<text text-anchor="middle" x="3216" y="-297.5" font-family="Helvetica,sans-Serif" font-size="10.00">/variables.h</text>
</a>
</g>
</g>
<!-- Node1&#45;&gt;Node4 -->
<g id="edge3" class="edge">
<title>Node1&#45;&gt;Node4</title>
<path fill="none" stroke="midnightblue" d="M3797.52,-368.62C3661.64,-354.1 3385.95,-324.65 3269.66,-312.23"/>
<polygon fill="midnightblue" stroke="midnightblue" points="3797.54,-372.14 3807.85,-369.72 3798.28,-365.18 3797.54,-372.14"/>
</g>
<!-- Node49 -->
<g id="node35" class="node">
<title>Node49</title>
<g id="a_node35"><a xlink:href="../../d6/d46/vcontainer_8cpp.html" target="_top" xlink:title=" ">
<polygon fill="white" stroke="black" points="3988.5,-73 3988.5,-103 4095.5,-103 4095.5,-73 3988.5,-73"/>
<text text-anchor="start" x="3996.5" y="-91" font-family="Helvetica,sans-Serif" font-size="10.00">src/libs/vpatterndb</text>
<text text-anchor="middle" x="4042" y="-80" font-family="Helvetica,sans-Serif" font-size="10.00">/vcontainer.cpp</text>
</a>
</g>
</g>
<!-- Node1&#45;&gt;Node49 -->
<g id="edge63" class="edge">
<title>Node1&#45;&gt;Node49</title>
<path fill="none" stroke="midnightblue" d="M3903.55,-350.16C3937.24,-315.65 3993.42,-252.35 4023,-187 4035.65,-159.05 4039.89,-122.9 4041.3,-103.25"/>
<polygon fill="midnightblue" stroke="midnightblue" points="3900.85,-347.91 3896.31,-357.48 3905.83,-352.83 3900.85,-347.91"/>
</g>
<!-- Node5 -->
<g id="node5" class="node">
<title>Node5</title>
<g id="a_node5"><a xlink:href="../../d3/df7/vcontainer_8h.html" target="_top" xlink:title=" ">
<polygon fill="white" stroke="black" points="2997.5,-223.5 2997.5,-253.5 3104.5,-253.5 3104.5,-223.5 2997.5,-223.5"/>
<text text-anchor="start" x="3005.5" y="-241.5" font-family="Helvetica,sans-Serif" font-size="10.00">src/libs/vpatterndb</text>
<text text-anchor="middle" x="3051" y="-230.5" font-family="Helvetica,sans-Serif" font-size="10.00">/vcontainer.h</text>
</a>
</g>
</g>
<!-- Node4&#45;&gt;Node5 -->
<g id="edge4" class="edge">
<title>Node4&#45;&gt;Node5</title>
<path fill="none" stroke="midnightblue" d="M3170.77,-286.68C3144.31,-276.26 3111.37,-263.28 3086.73,-253.58"/>
<polygon fill="midnightblue" stroke="midnightblue" points="3169.61,-289.99 3180.2,-290.4 3172.18,-283.47 3169.61,-289.99"/>
</g>
<!-- Node5&#45;&gt;Node2 -->
<g id="edge8" class="edge">
<title>Node5&#45;&gt;Node2</title>
<path fill="none" stroke="midnightblue" d="M2987.3,-236.01C2619.6,-227.2 765.12,-179.88 199,-109 176.92,-106.24 152.48,-101.62 132.84,-97.51"/>
<polygon fill="midnightblue" stroke="midnightblue" points="2987.41,-239.51 2997.49,-236.25 2987.58,-232.52 2987.41,-239.51"/>
</g>
<!-- Node6 -->
<g id="node6" class="node">
<title>Node6</title>
<g id="a_node6"><a xlink:href="../../d2/d47/image__dialog_8cpp.html" target="_top" xlink:title=" ">
<polygon fill="white" stroke="black" points="459,-73 459,-103 571,-103 571,-73 459,-73"/>
<text text-anchor="start" x="467" y="-91" font-family="Helvetica,sans-Serif" font-size="10.00">src/libs/tools/image</text>
<text text-anchor="middle" x="515" y="-80" font-family="Helvetica,sans-Serif" font-size="10.00">_dialog.cpp</text>
</a>
</g>
</g>
<!-- Node5&#45;&gt;Node6 -->
<g id="edge5" class="edge">
<title>Node5&#45;&gt;Node6</title>
<path fill="none" stroke="midnightblue" d="M2987.23,-236.58C2818.57,-233.69 2363.67,-222.71 2218,-187 2173.56,-176.11 2168.64,-155.06 2124,-145 1789.2,-69.52 918.77,-163.99 580,-109 571.61,-107.64 562.8,-105.46 554.46,-103.03"/>
<polygon fill="midnightblue" stroke="midnightblue" points="2987.39,-240.09 2997.45,-236.75 2987.51,-233.09 2987.39,-240.09"/>
</g>
<!-- Node7 -->
<g id="node7" class="node">
<title>Node7</title>
<g id="a_node7"><a xlink:href="../../dc/db7/measurements_8h.html" target="_top" xlink:title=" ">
<polygon fill="white" stroke="black" points="1526.5,-156.5 1526.5,-175.5 1705.5,-175.5 1705.5,-156.5 1526.5,-156.5"/>
<text text-anchor="middle" x="1616" y="-163.5" font-family="Helvetica,sans-Serif" font-size="10.00">src/libs/vformat/measurements.h</text>
</a>
</g>
</g>
<!-- Node5&#45;&gt;Node7 -->
<g id="edge6" class="edge">
<title>Node5&#45;&gt;Node7</title>
<path fill="none" stroke="midnightblue" d="M2987.47,-234.94C2818.06,-228.02 2341.42,-208.1 1945,-187 1864,-182.69 1771.83,-177.02 1705.7,-172.82"/>
<polygon fill="midnightblue" stroke="midnightblue" points="2987.33,-238.43 2997.47,-235.34 2987.62,-231.44 2987.33,-238.43"/>
</g>
<!-- Node8 -->
<g id="node8" class="node">
<title>Node8</title>
<g id="a_node8"><a xlink:href="../../d6/de0/vlayoutpiece_8h.html" target="_top" xlink:title=" ">
<polygon fill="white" stroke="black" points="4696,-156.5 4696,-175.5 4862,-175.5 4862,-156.5 4696,-156.5"/>
<text text-anchor="middle" x="4779" y="-163.5" font-family="Helvetica,sans-Serif" font-size="10.00">src/libs/vlayout/vlayoutpiece.h</text>
</a>
</g>
</g>
<!-- Node5&#45;&gt;Node8 -->
<g id="edge9" class="edge">
<title>Node5&#45;&gt;Node8</title>
<path fill="none" stroke="midnightblue" d="M3114.85,-234.9C3380.35,-224.06 4397.13,-182.58 4695.95,-170.39"/>
<polygon fill="midnightblue" stroke="midnightblue" points="3114.46,-231.41 3104.61,-235.31 3114.74,-238.4 3114.46,-231.41"/>
</g>
<!-- Node18 -->
<g id="node17" class="node">
<title>Node18</title>
<g id="a_node17"><a xlink:href="../../d8/d70/vtextmanager_8cpp.html" target="_top" xlink:title=" ">
<polygon fill="white" stroke="black" points="589,-78.5 589,-97.5 771,-97.5 771,-78.5 589,-78.5"/>
<text text-anchor="middle" x="680" y="-85.5" font-family="Helvetica,sans-Serif" font-size="10.00">src/libs/vlayout/vtextmanager.cpp</text>
</a>
</g>
</g>
<!-- Node5&#45;&gt;Node18 -->
<g id="edge20" class="edge">
<title>Node5&#45;&gt;Node18</title>
<path fill="none" stroke="midnightblue" d="M2986.86,-236.42C2829.98,-233.24 2430.32,-221.89 2302,-187 2261.72,-176.05 2258.5,-155.1 2218,-145 2062.92,-106.34 938.84,-126.74 780,-109 758.18,-106.56 734.04,-101.79 714.94,-97.53"/>
<polygon fill="midnightblue" stroke="midnightblue" points="2987.22,-239.92 2997.29,-236.62 2987.36,-232.92 2987.22,-239.92"/>
</g>
<!-- Node19 -->
<g id="node18" class="node">
<title>Node19</title>
<g id="a_node18"><a xlink:href="../../d5/d74/vabstractapplication_8h.html" target="_top" xlink:title=" ">
<polygon fill="white" stroke="red" points="2311.5,-156.5 2311.5,-175.5 2506.5,-175.5 2506.5,-156.5 2311.5,-156.5"/>
<text text-anchor="middle" x="2409" y="-163.5" font-family="Helvetica,sans-Serif" font-size="10.00">src/libs/vmisc/vabstractapplication.h</text>
</a>
</g>
</g>
<!-- Node5&#45;&gt;Node19 -->
<g id="edge21" class="edge">
<title>Node5&#45;&gt;Node19</title>
<path fill="none" stroke="midnightblue" d="M2987.36,-230.51C2868.83,-217.5 2614.71,-189.59 2486.45,-175.5"/>
<polygon fill="midnightblue" stroke="midnightblue" points="2987.05,-234 2997.37,-231.61 2987.81,-227.04 2987.05,-234"/>
</g>
<!-- Node47 -->
<g id="node33" class="node">
<title>Node47</title>
<g id="a_node33"><a xlink:href="../../db/d11/vformula_8cpp.html" target="_top" xlink:title=" ">
<polygon fill="white" stroke="black" points="208.5,-73 208.5,-103 315.5,-103 315.5,-73 208.5,-73"/>
<text text-anchor="start" x="216.5" y="-91" font-family="Helvetica,sans-Serif" font-size="10.00">src/libs/vpatterndb</text>
<text text-anchor="middle" x="262" y="-80" font-family="Helvetica,sans-Serif" font-size="10.00">/vformula.cpp</text>
</a>
</g>
</g>
<!-- Node5&#45;&gt;Node47 -->
<g id="edge55" class="edge">
<title>Node5&#45;&gt;Node47</title>
<path fill="none" stroke="midnightblue" d="M2987.18,-237.04C2820.15,-235.3 2356.54,-226.95 1973,-187 1857.01,-174.92 1830.11,-155.87 1714,-145 1406.35,-116.2 628.59,-160.96 324,-109 315.97,-107.63 307.56,-105.45 299.61,-103.02"/>
<polygon fill="midnightblue" stroke="midnightblue" points="2987.24,-240.55 2997.28,-237.15 2987.31,-233.55 2987.24,-240.55"/>
</g>
<!-- Node48 -->
<g id="node34" class="node">
<title>Node48</title>
<g id="a_node34"><a xlink:href="../../df/d7a/vpiece_8cpp.html" target="_top" xlink:title=" ">
<polygon fill="white" stroke="black" points="333.5,-73 333.5,-103 440.5,-103 440.5,-73 333.5,-73"/>
<text text-anchor="start" x="341.5" y="-91" font-family="Helvetica,sans-Serif" font-size="10.00">src/libs/vpatterndb</text>
<text text-anchor="middle" x="387" y="-80" font-family="Helvetica,sans-Serif" font-size="10.00">/vpiece.cpp</text>
</a>
</g>
</g>
<!-- Node5&#45;&gt;Node48 -->
<g id="edge57" class="edge">
<title>Node5&#45;&gt;Node48</title>
<path fill="none" stroke="midnightblue" d="M2987.31,-235.83C2806.23,-230.79 2290.74,-214.4 2124,-187 2055.26,-175.71 2041.9,-155.23 1973,-145 1638.14,-95.26 783.91,-164.78 450,-109 441.85,-107.64 433.3,-105.46 425.22,-103.03"/>
<polygon fill="midnightblue" stroke="midnightblue" points="2987.38,-239.33 2997.48,-236.11 2987.58,-232.34 2987.38,-239.33"/>
</g>
<!-- Node5&#45;&gt;Node49 -->
<g id="edge59" class="edge">
<title>Node5&#45;&gt;Node49</title>
<path fill="none" stroke="midnightblue" d="M3048.49,-213.28C3047.76,-191.82 3050.65,-161.43 3070,-145 3108.53,-112.29 3929.22,-117.72 3979,-109 3987.03,-107.59 3995.44,-105.43 4003.42,-103.03"/>
<polygon fill="midnightblue" stroke="midnightblue" points="3045,-213.52 3049.11,-223.28 3051.98,-213.08 3045,-213.52"/>
</g>
<!-- Node51 -->
<g id="node37" class="node">
<title>Node51</title>
<g id="a_node37"><a xlink:href="../../d8/dba/vpiecenode_8cpp.html" target="_top" xlink:title=" ">
<polygon fill="white" stroke="black" points="3999.5,-0.5 3999.5,-30.5 4106.5,-30.5 4106.5,-0.5 3999.5,-0.5"/>
<text text-anchor="start" x="4007.5" y="-18.5" font-family="Helvetica,sans-Serif" font-size="10.00">src/libs/vpatterndb</text>
<text text-anchor="middle" x="4053" y="-7.5" font-family="Helvetica,sans-Serif" font-size="10.00">/vpiecenode.cpp</text>
</a>
</g>
</g>
<!-- Node5&#45;&gt;Node51 -->
<g id="edge58" class="edge">
<title>Node5&#45;&gt;Node51</title>
<path fill="none" stroke="midnightblue" d="M3115.04,-226.56C3230.97,-207.15 3483.49,-166.71 3698,-145 3764.67,-138.25 4254.05,-157.78 4300,-109 4359.42,-45.92 4196,-25.55 4106.74,-19.22"/>
<polygon fill="midnightblue" stroke="midnightblue" points="3114.2,-223.15 3104.92,-228.26 3115.36,-230.05 3114.2,-223.15"/>
</g>
<!-- Node65 -->
<g id="node45" class="node">
<title>Node65</title>
<g id="a_node45"><a xlink:href="../../d3/d02/custom__variable__p_8h.html" target="_top" xlink:title=" ">
<polygon fill="white" stroke="red" points="2854.5,-151 2854.5,-181 3023.5,-181 3023.5,-151 2854.5,-151"/>
<text text-anchor="start" x="2862.5" y="-169" font-family="Helvetica,sans-Serif" font-size="10.00">src/libs/vpatterndb</text>
<text text-anchor="middle" x="2939" y="-158" font-family="Helvetica,sans-Serif" font-size="10.00">/variables/custom_variable_p.h</text>
</a>
</g>
</g>
<!-- Node5&#45;&gt;Node65 -->
<g id="edge52" class="edge">
<title>Node5&#45;&gt;Node65</title>
<path fill="none" stroke="midnightblue" d="M3019.9,-217.92C3001.31,-206.22 2978.13,-191.63 2961.36,-181.07"/>
<polygon fill="midnightblue" stroke="midnightblue" points="3018.28,-221.04 3028.6,-223.4 3022.01,-215.11 3018.28,-221.04"/>
</g>
<!-- Node67 -->
<g id="node46" class="node">
<title>Node67</title>
<g id="a_node46"><a xlink:href="../../d7/d8a/measurement__variable__p_8h.html" target="_top" xlink:title=" ">
<polygon fill="white" stroke="black" points="5128,-145.5 5128,-186.5 5264,-186.5 5264,-145.5 5128,-145.5"/>
<text text-anchor="start" x="5136" y="-174.5" font-family="Helvetica,sans-Serif" font-size="10.00">src/libs/vpatterndb</text>
<text text-anchor="start" x="5136" y="-163.5" font-family="Helvetica,sans-Serif" font-size="10.00">/variables/measurement</text>
<text text-anchor="middle" x="5196" y="-152.5" font-family="Helvetica,sans-Serif" font-size="10.00">_variable_p.h</text>
</a>
</g>
</g>
<!-- Node5&#45;&gt;Node67 -->
<g id="edge53" class="edge">
<title>Node5&#45;&gt;Node67</title>
<path fill="none" stroke="midnightblue" d="M3114.66,-236.51C3348.66,-232.71 4183.35,-217.69 4871,-187 4959.81,-183.04 5062.14,-176.4 5127.87,-171.86"/>
<polygon fill="midnightblue" stroke="midnightblue" points="3114.56,-233.01 3104.62,-236.67 3114.68,-240.01 3114.56,-233.01"/>
</g>
<!-- Node68 -->
<g id="node47" class="node">
<title>Node68</title>
<g id="a_node47"><a xlink:href="../../d6/d91/vnodedetail_8cpp.html" target="_top" xlink:title=" ">
<polygon fill="white" stroke="black" points="3079.5,-151 3079.5,-181 3186.5,-181 3186.5,-151 3079.5,-151"/>
<text text-anchor="start" x="3087.5" y="-169" font-family="Helvetica,sans-Serif" font-size="10.00">src/libs/vpatterndb</text>
<text text-anchor="middle" x="3133" y="-158" font-family="Helvetica,sans-Serif" font-size="10.00">/vnodedetail.cpp</text>
</a>
</g>
</g>
<!-- Node5&#45;&gt;Node68 -->
<g id="edge56" class="edge">
<title>Node5&#45;&gt;Node68</title>
<path fill="none" stroke="midnightblue" d="M3075.47,-216.46C3088.8,-205 3104.93,-191.14 3116.71,-181"/>
<polygon fill="midnightblue" stroke="midnightblue" points="3072.89,-214.06 3067.59,-223.23 3077.46,-219.37 3072.89,-214.06"/>
</g>
<!-- Node69 -->
<g id="node48" class="node">
<title>Node69</title>
<g id="a_node48"><a xlink:href="../../da/de1/vpiecepath_8cpp.html" target="_top" xlink:title=" ">
<polygon fill="white" stroke="black" points="3204.5,-151 3204.5,-181 3311.5,-181 3311.5,-151 3204.5,-151"/>
<text text-anchor="start" x="3212.5" y="-169" font-family="Helvetica,sans-Serif" font-size="10.00">src/libs/vpatterndb</text>
<text text-anchor="middle" x="3258" y="-158" font-family="Helvetica,sans-Serif" font-size="10.00">/vpiecepath.cpp</text>
</a>
</g>
</g>
<!-- Node5&#45;&gt;Node69 -->
<g id="edge60" class="edge">
<title>Node5&#45;&gt;Node69</title>
<path fill="none" stroke="midnightblue" d="M3102.03,-220.12C3137.33,-208.1 3183.7,-192.31 3216.68,-181.07"/>
<polygon fill="midnightblue" stroke="midnightblue" points="3100.73,-216.87 3092.39,-223.4 3102.99,-223.49 3100.73,-216.87"/>
</g>
<!-- Node70 -->
<g id="node49" class="node">
<title>Node70</title>
<g id="a_node49"><a xlink:href="../../d1/d3a/abstracttest_8cpp.html" target="_top" xlink:title=" ">
<polygon fill="white" stroke="black" points="3706.5,-156.5 3706.5,-175.5 3867.5,-175.5 3867.5,-156.5 3706.5,-156.5"/>
<text text-anchor="middle" x="3787" y="-163.5" font-family="Helvetica,sans-Serif" font-size="10.00">src/libs/vtest/abstracttest.cpp</text>
</a>
</g>
</g>
<!-- Node5&#45;&gt;Node70 -->
<g id="edge61" class="edge">
<title>Node5&#45;&gt;Node70</title>
<path fill="none" stroke="midnightblue" d="M3114.96,-235.19C3230.63,-230.41 3482.05,-217.24 3692,-187 3711.85,-184.14 3733.78,-179.62 3751.55,-175.6"/>
<polygon fill="midnightblue" stroke="midnightblue" points="3114.71,-231.7 3104.86,-235.6 3115,-238.69 3114.71,-231.7"/>
</g>
<!-- Node71 -->
<g id="node50" class="node">
<title>Node71</title>
<g id="a_node50"><a xlink:href="../../da/db4/piece__tablewidgetitem_8cpp.html" target="_top" xlink:title=" ">
<polygon fill="white" stroke="black" points="3886,-151 3886,-181 4014,-181 4014,-151 3886,-151"/>
<text text-anchor="start" x="3894" y="-169" font-family="Helvetica,sans-Serif" font-size="10.00">src/libs/vwidgets/piece</text>
<text text-anchor="middle" x="3950" y="-158" font-family="Helvetica,sans-Serif" font-size="10.00">_tablewidgetitem.cpp</text>
</a>
</g>
</g>
<!-- Node5&#45;&gt;Node71 -->
<g id="edge62" class="edge">
<title>Node5&#45;&gt;Node71</title>
<path fill="none" stroke="midnightblue" d="M3114.65,-238.06C3253.89,-238.31 3595.61,-233.64 3877,-187 3885.95,-185.52 3895.37,-183.38 3904.37,-181.05"/>
<polygon fill="midnightblue" stroke="midnightblue" points="3114.59,-234.56 3104.58,-238.03 3114.57,-241.56 3114.59,-234.56"/>
</g>
<!-- Node7&#45;&gt;Node2 -->
<g id="edge7" class="edge">
<title>Node7&#45;&gt;Node2</title>
<path fill="none" stroke="midnightblue" d="M1516.13,-161.25C1198.7,-149.32 231.69,-112.77 199,-109 176.72,-106.43 152.05,-101.77 132.34,-97.59"/>
<polygon fill="midnightblue" stroke="midnightblue" points="1516.12,-164.76 1526.24,-161.63 1516.38,-157.76 1516.12,-164.76"/>
</g>
<!-- Node9 -->
<g id="node9" class="node">
<title>Node9</title>
<g id="a_node9"><a xlink:href="../../dd/d66/vdxfengine_8cpp.html" target="_top" xlink:title=" ">
<polygon fill="white" stroke="black" points="4346,-78.5 4346,-97.5 4500,-97.5 4500,-78.5 4346,-78.5"/>
<text text-anchor="middle" x="4423" y="-85.5" font-family="Helvetica,sans-Serif" font-size="10.00">src/libs/vdxf/vdxfengine.cpp</text>
</a>
</g>
</g>
<!-- Node8&#45;&gt;Node9 -->
<g id="edge10" class="edge">
<title>Node8&#45;&gt;Node9</title>
<path fill="none" stroke="midnightblue" d="M4726.27,-154.45C4671.79,-143.46 4584.33,-125.57 4509,-109 4492.53,-105.38 4474.34,-101.18 4458.94,-97.56"/>
<polygon fill="midnightblue" stroke="midnightblue" points="4725.88,-157.95 4736.38,-156.49 4727.27,-151.08 4725.88,-157.95"/>
</g>
<!-- Node10 -->
<g id="node10" class="node">
<title>Node10</title>
<g id="a_node10"><a xlink:href="../../de/da8/vbank_8cpp.html" target="_top" xlink:title=" ">
<polygon fill="white" stroke="black" points="4518,-78.5 4518,-97.5 4662,-97.5 4662,-78.5 4518,-78.5"/>
<text text-anchor="middle" x="4590" y="-85.5" font-family="Helvetica,sans-Serif" font-size="10.00">src/libs/vlayout/vbank.cpp</text>
</a>
</g>
</g>
<!-- Node8&#45;&gt;Node10 -->
<g id="edge11" class="edge">
<title>Node8&#45;&gt;Node10</title>
<path fill="none" stroke="midnightblue" d="M4748.02,-152.54C4709.45,-137.03 4644.6,-110.95 4611.24,-97.54"/>
<polygon fill="midnightblue" stroke="midnightblue" points="4747.1,-155.95 4757.69,-156.43 4749.71,-149.45 4747.1,-155.95"/>
</g>
<!-- Node11 -->
<g id="node11" class="node">
<title>Node11</title>
<g id="a_node11"><a xlink:href="../../d3/d39/vlayoutgenerator_8cpp.html" target="_top" xlink:title=" ">
<polygon fill="white" stroke="black" points="4680.5,-78.5 4680.5,-97.5 4877.5,-97.5 4877.5,-78.5 4680.5,-78.5"/>
<text text-anchor="middle" x="4779" y="-85.5" font-family="Helvetica,sans-Serif" font-size="10.00">src/libs/vlayout/vlayoutgenerator.cpp</text>
</a>
</g>
</g>
<!-- Node8&#45;&gt;Node11 -->
<g id="edge12" class="edge">
<title>Node8&#45;&gt;Node11</title>
<path fill="none" stroke="midnightblue" d="M4779,-146.22C4779,-130.7 4779,-109.36 4779,-97.62"/>
<polygon fill="midnightblue" stroke="midnightblue" points="4775.5,-146.28 4779,-156.28 4782.5,-146.28 4775.5,-146.28"/>
</g>
<!-- Node12 -->
<g id="node12" class="node">
<title>Node12</title>
<g id="a_node12"><a xlink:href="../../df/d5d/vcontour_8cpp.html" target="_top" xlink:title=" ">
<polygon fill="white" stroke="black" points="4896,-78.5 4896,-97.5 5052,-97.5 5052,-78.5 4896,-78.5"/>
<text text-anchor="middle" x="4974" y="-85.5" font-family="Helvetica,sans-Serif" font-size="10.00">src/libs/vlayout/vcontour.cpp</text>
</a>
</g>
</g>
<!-- Node8&#45;&gt;Node12 -->
<g id="edge13" class="edge">
<title>Node8&#45;&gt;Node12</title>
<path fill="none" stroke="midnightblue" d="M4810.46,-152.74C4850.19,-137.25 4917.52,-111.01 4952.09,-97.54"/>
<polygon fill="midnightblue" stroke="midnightblue" points="4809.04,-149.54 4800.99,-156.43 4811.58,-156.06 4809.04,-149.54"/>
</g>
<!-- Node13 -->
<g id="node13" class="node">
<title>Node13</title>
<g id="a_node13"><a xlink:href="../../d2/d2d/vlayoutpaper__p_8h.html" target="_top" xlink:title=" ">
<polygon fill="white" stroke="black" points="5274.5,-78.5 5274.5,-97.5 5453.5,-97.5 5453.5,-78.5 5274.5,-78.5"/>
<text text-anchor="middle" x="5364" y="-85.5" font-family="Helvetica,sans-Serif" font-size="10.00">src/libs/vlayout/vlayoutpaper_p.h</text>
</a>
</g>
</g>
<!-- Node8&#45;&gt;Node13 -->
<g id="edge14" class="edge">
<title>Node8&#45;&gt;Node13</title>
<path fill="none" stroke="midnightblue" d="M4872.32,-156.2C4969.44,-146.57 5125.78,-129.69 5260,-109 5280.9,-105.78 5304.01,-101.42 5323.12,-97.59"/>
<polygon fill="midnightblue" stroke="midnightblue" points="4871.85,-152.73 4862.24,-157.2 4872.54,-159.7 4871.85,-152.73"/>
</g>
<!-- Node14 -->
<g id="node14" class="node">
<title>Node14</title>
<g id="a_node14"><a xlink:href="../../d1/dd1/vlayoutpaper_8cpp.html" target="_top" xlink:title=" ">
<polygon fill="white" stroke="black" points="5157,-6 5157,-25 5335,-25 5335,-6 5157,-6"/>
<text text-anchor="middle" x="5246" y="-13" font-family="Helvetica,sans-Serif" font-size="10.00">src/libs/vlayout/vlayoutpaper.cpp</text>
</a>
</g>
</g>
<!-- Node8&#45;&gt;Node14 -->
<g id="edge16" class="edge">
<title>Node8&#45;&gt;Node14</title>
<path fill="none" stroke="midnightblue" d="M4872.32,-159.1C4995.94,-150.41 5201.46,-132.62 5227,-109 5250.83,-86.96 5249.17,-43.68 5247.19,-25.2"/>
<polygon fill="midnightblue" stroke="midnightblue" points="4871.82,-155.62 4862.09,-159.81 4872.31,-162.6 4871.82,-155.62"/>
</g>
<!-- Node15 -->
<g id="node15" class="node">
<title>Node15</title>
<g id="a_node15"><a xlink:href="../../db/d5c/vposition_8h.html" target="_top" xlink:title=" ">
<polygon fill="white" stroke="red" points="5070,-78.5 5070,-97.5 5218,-97.5 5218,-78.5 5070,-78.5"/>
<text text-anchor="middle" x="5144" y="-85.5" font-family="Helvetica,sans-Serif" font-size="10.00">src/libs/vlayout/vposition.h</text>
</a>
</g>
</g>
<!-- Node8&#45;&gt;Node15 -->
<g id="edge17" class="edge">
<title>Node8&#45;&gt;Node15</title>
<path fill="none" stroke="midnightblue" d="M4834.92,-154.59C4891.92,-143.81 4982.82,-126.18 5061,-109 5077.07,-105.47 5094.81,-101.24 5109.75,-97.58"/>
<polygon fill="midnightblue" stroke="midnightblue" points="4834.21,-151.16 4825.03,-156.45 4835.51,-158.04 4834.21,-151.16"/>
</g>
<!-- Node17 -->
<g id="node16" class="node">
<title>Node17</title>
<g id="a_node16"><a xlink:href="../../dd/d70/vlayoutpiece_8cpp.html" target="_top" xlink:title=" ">
<polygon fill="white" stroke="black" points="4113.5,-78.5 4113.5,-97.5 4290.5,-97.5 4290.5,-78.5 4113.5,-78.5"/>
<text text-anchor="middle" x="4202" y="-85.5" font-family="Helvetica,sans-Serif" font-size="10.00">src/libs/vlayout/vlayoutpiece.cpp</text>
</a>
</g>
</g>
<!-- Node8&#45;&gt;Node17 -->
<g id="edge19" class="edge">
<title>Node8&#45;&gt;Node17</title>
<path fill="none" stroke="midnightblue" d="M4698.14,-155.27C4609.46,-144.49 4462.99,-126.31 4337,-109 4310.95,-105.42 4282.1,-101.18 4257.79,-97.53"/>
<polygon fill="midnightblue" stroke="midnightblue" points="4697.78,-158.76 4708.13,-156.49 4698.62,-151.81 4697.78,-158.76"/>
</g>
<!-- Node13&#45;&gt;Node14 -->
<g id="edge15" class="edge">
<title>Node13&#45;&gt;Node14</title>
<path fill="none" stroke="midnightblue" d="M5340.77,-73.12C5316.96,-58.89 5280.65,-37.2 5260.59,-25.22"/>
<polygon fill="midnightblue" stroke="midnightblue" points="5339.15,-76.23 5349.53,-78.36 5342.74,-70.22 5339.15,-76.23"/>
</g>
<!-- Node15&#45;&gt;Node14 -->
<g id="edge18" class="edge">
<title>Node15&#45;&gt;Node14</title>
<path fill="none" stroke="midnightblue" d="M5164.9,-72.55C5185.5,-58.32 5216.28,-37.04 5233.39,-25.22"/>
<polygon fill="midnightblue" stroke="midnightblue" points="5162.74,-69.79 5156.51,-78.36 5166.72,-75.55 5162.74,-69.79"/>
</g>
<!-- Node19&#45;&gt;Node6 -->
<g id="edge24" class="edge">
<title>Node19&#45;&gt;Node6</title>
<path fill="none" stroke="midnightblue" d="M2330.59,-155.32C2296.11,-151.44 2255.1,-147.35 2218,-145 1854.64,-122.02 939.42,-167.09 580,-109 571.61,-107.64 562.79,-105.47 554.46,-103.04"/>
<polygon fill="midnightblue" stroke="midnightblue" points="2330.27,-158.8 2340.6,-156.46 2331.06,-151.85 2330.27,-158.8"/>
</g>
<!-- Node19&#45;&gt;Node17 -->
<g id="edge34" class="edge">
<title>Node19&#45;&gt;Node17</title>
<path fill="none" stroke="midnightblue" d="M2516.84,-159.53C2605.06,-155.19 2733.08,-149.17 2845,-145 3404.84,-124.16 3548.53,-173.81 4105,-109 4126.18,-106.53 4149.6,-101.76 4168.12,-97.5"/>
<polygon fill="midnightblue" stroke="midnightblue" points="2516.63,-156.04 2506.82,-160.03 2516.98,-163.03 2516.63,-156.04"/>
</g>
<!-- Node19&#45;&gt;Node18 -->
<g id="edge35" class="edge">
<title>Node19&#45;&gt;Node18</title>
<path fill="none" stroke="midnightblue" d="M2354.82,-154.7C2332.91,-150.96 2307.33,-147.14 2284,-145 1618.15,-84.04 1444.55,-182.84 780,-109 758.18,-106.58 734.04,-101.81 714.94,-97.53"/>
<polygon fill="midnightblue" stroke="midnightblue" points="2354.48,-158.19 2364.93,-156.46 2355.68,-151.3 2354.48,-158.19"/>
</g>
<!-- Node20 -->
<g id="node19" class="node">
<title>Node20</title>
<g id="a_node19"><a xlink:href="../../d4/d90/fvupdater_8cpp.html" target="_top" xlink:title=" ">
<polygon fill="white" stroke="black" points="1775.5,-78.5 1775.5,-97.5 1928.5,-97.5 1928.5,-78.5 1775.5,-78.5"/>
<text text-anchor="middle" x="1852" y="-85.5" font-family="Helvetica,sans-Serif" font-size="10.00">src/libs/fervor/fvupdater.cpp</text>
</a>
</g>
</g>
<!-- Node19&#45;&gt;Node20 -->
<g id="edge22" class="edge">
<title>Node19&#45;&gt;Node20</title>
<path fill="none" stroke="midnightblue" d="M2349.85,-154.85C2329.07,-151.47 2305.53,-147.84 2284,-145 2130.72,-124.78 2090.48,-134.56 1938,-109 1920.16,-106.01 1900.5,-101.53 1884.48,-97.56"/>
<polygon fill="midnightblue" stroke="midnightblue" points="2349.38,-158.32 2359.82,-156.49 2350.52,-151.41 2349.38,-158.32"/>
</g>
<!-- Node21 -->
<g id="node20" class="node">
<title>Node21</title>
<g id="a_node20"><a xlink:href="../../d1/d8d/image__item_8h.html" target="_top" xlink:title=" ">
<polygon fill="white" stroke="red" points="1947,-73 1947,-103 2059,-103 2059,-73 1947,-73"/>
<text text-anchor="start" x="1955" y="-91" font-family="Helvetica,sans-Serif" font-size="10.00">src/libs/tools/image</text>
<text text-anchor="middle" x="2003" y="-80" font-family="Helvetica,sans-Serif" font-size="10.00">_item.h</text>
</a>
</g>
</g>
<!-- Node19&#45;&gt;Node21 -->
<g id="edge23" class="edge">
<title>Node19&#45;&gt;Node21</title>
<path fill="none" stroke="midnightblue" d="M2345.76,-154.84C2250.91,-139.57 2081.4,-112.15 2068,-109 2060.76,-107.3 2053.14,-105.22 2045.78,-103.06"/>
<polygon fill="midnightblue" stroke="midnightblue" points="2345.39,-158.33 2355.82,-156.46 2346.5,-151.42 2345.39,-158.33"/>
</g>
<!-- Node31 -->
<g id="node21" class="node">
<title>Node31</title>
<g id="a_node21"><a xlink:href="../../d9/dc8/dxiface_8cpp.html" target="_top" xlink:title=" ">
<polygon fill="white" stroke="black" points="2077.5,-78.5 2077.5,-97.5 2212.5,-97.5 2212.5,-78.5 2077.5,-78.5"/>
<text text-anchor="middle" x="2145" y="-85.5" font-family="Helvetica,sans-Serif" font-size="10.00">src/libs/vdxf/dxiface.cpp</text>
</a>
</g>
</g>
<!-- Node19&#45;&gt;Node31 -->
<g id="edge25" class="edge">
<title>Node19&#45;&gt;Node31</title>
<path fill="none" stroke="midnightblue" d="M2369.44,-153.61C2316.11,-138.26 2222.35,-111.27 2174.66,-97.54"/>
<polygon fill="midnightblue" stroke="midnightblue" points="2368.65,-157.03 2379.23,-156.43 2370.59,-150.3 2368.65,-157.03"/>
</g>
<!-- Node32 -->
<g id="node22" class="node">
<title>Node32</title>
<g id="a_node22"><a xlink:href="../../da/d75/vabstractarc__p_8h.html" target="_top" xlink:title=" ">
<polygon fill="white" stroke="red" points="2230.5,-73 2230.5,-103 2337.5,-103 2337.5,-73 2230.5,-73"/>
<text text-anchor="start" x="2238.5" y="-91" font-family="Helvetica,sans-Serif" font-size="10.00">src/libs/vgeometry</text>
<text text-anchor="middle" x="2284" y="-80" font-family="Helvetica,sans-Serif" font-size="10.00">/vabstractarc_p.h</text>
</a>
</g>
</g>
<!-- Node19&#45;&gt;Node32 -->
<g id="edge26" class="edge">
<title>Node19&#45;&gt;Node32</title>
<path fill="none" stroke="midnightblue" d="M2386.1,-151.08C2363.64,-137.42 2329.57,-116.71 2307.06,-103.02"/>
<polygon fill="midnightblue" stroke="midnightblue" points="2384.3,-154.08 2394.66,-156.28 2387.93,-148.1 2384.3,-154.08"/>
</g>
<!-- Node34 -->
<g id="node23" class="node">
<title>Node34</title>
<g id="a_node23"><a xlink:href="../../dc/da3/varc__p_8h.html" target="_top" xlink:title=" ">
<polygon fill="white" stroke="red" points="2355.5,-73 2355.5,-103 2462.5,-103 2462.5,-73 2355.5,-73"/>
<text text-anchor="start" x="2363.5" y="-91" font-family="Helvetica,sans-Serif" font-size="10.00">src/libs/vgeometry</text>
<text text-anchor="middle" x="2409" y="-80" font-family="Helvetica,sans-Serif" font-size="10.00">/varc_p.h</text>
</a>
</g>
</g>
<!-- Node19&#45;&gt;Node34 -->
<g id="edge27" class="edge">
<title>Node19&#45;&gt;Node34</title>
<path fill="none" stroke="midnightblue" d="M2409,-146.28C2409,-132.9 2409,-115.19 2409,-103.02"/>
<polygon fill="midnightblue" stroke="midnightblue" points="2405.5,-146.28 2409,-156.28 2412.5,-146.28 2405.5,-146.28"/>
</g>
<!-- Node36 -->
<g id="node24" class="node">
<title>Node36</title>
<g id="a_node24"><a xlink:href="../../d5/d8e/vcubicbezier__p_8h.html" target="_top" xlink:title=" ">
<polygon fill="white" stroke="red" points="2480.5,-73 2480.5,-103 2587.5,-103 2587.5,-73 2480.5,-73"/>
<text text-anchor="start" x="2488.5" y="-91" font-family="Helvetica,sans-Serif" font-size="10.00">src/libs/vgeometry</text>
<text text-anchor="middle" x="2534" y="-80" font-family="Helvetica,sans-Serif" font-size="10.00">/vcubicbezier_p.h</text>
</a>
</g>
</g>
<!-- Node19&#45;&gt;Node36 -->
<g id="edge28" class="edge">
<title>Node19&#45;&gt;Node36</title>
<path fill="none" stroke="midnightblue" d="M2431.9,-151.08C2454.36,-137.42 2488.43,-116.71 2510.94,-103.02"/>
<polygon fill="midnightblue" stroke="midnightblue" points="2430.07,-148.1 2423.34,-156.28 2433.7,-154.08 2430.07,-148.1"/>
</g>
<!-- Node38 -->
<g id="node25" class="node">
<title>Node38</title>
<g id="a_node25"><a xlink:href="../../df/dde/vellipticalarc__p_8h.html" target="_top" xlink:title=" ">
<polygon fill="white" stroke="black" points="2605.5,-73 2605.5,-103 2712.5,-103 2712.5,-73 2605.5,-73"/>
<text text-anchor="start" x="2613.5" y="-91" font-family="Helvetica,sans-Serif" font-size="10.00">src/libs/vgeometry</text>
<text text-anchor="middle" x="2659" y="-80" font-family="Helvetica,sans-Serif" font-size="10.00">/vellipticalarc_p.h</text>
</a>
</g>
</g>
<!-- Node19&#45;&gt;Node38 -->
<g id="edge29" class="edge">
<title>Node19&#45;&gt;Node38</title>
<path fill="none" stroke="midnightblue" d="M2447.81,-153.58C2485.68,-142.39 2544.87,-124.77 2596,-109 2602.14,-107.11 2608.61,-105.08 2614.97,-103.08"/>
<polygon fill="midnightblue" stroke="midnightblue" points="2446.8,-150.23 2438.2,-156.42 2448.78,-156.94 2446.8,-150.23"/>
</g>
<!-- Node39 -->
<g id="node26" class="node">
<title>Node39</title>
<g id="a_node26"><a xlink:href="../../d6/dfb/vellipticalarc_8cpp.html" target="_top" xlink:title=" ">
<polygon fill="white" stroke="black" points="3372.5,-0.5 3372.5,-30.5 3479.5,-30.5 3479.5,-0.5 3372.5,-0.5"/>
<text text-anchor="start" x="3380.5" y="-18.5" font-family="Helvetica,sans-Serif" font-size="10.00">src/libs/vgeometry</text>
<text text-anchor="middle" x="3426" y="-7.5" font-family="Helvetica,sans-Serif" font-size="10.00">/vellipticalarc.cpp</text>
</a>
</g>
</g>
<!-- Node19&#45;&gt;Node39 -->
<g id="edge31" class="edge">
<title>Node19&#45;&gt;Node39</title>
<path fill="none" stroke="midnightblue" d="M2516.85,-159.96C2605.09,-155.86 2733.11,-149.96 2845,-145 2891.77,-142.93 3654.61,-142.81 3687,-109 3750.61,-42.61 3573.51,-23.79 3479.85,-18.52"/>
<polygon fill="midnightblue" stroke="midnightblue" points="2516.66,-156.46 2506.83,-160.43 2516.98,-163.46 2516.66,-156.46"/>
</g>
<!-- Node40 -->
<g id="node27" class="node">
<title>Node40</title>
<g id="a_node27"><a xlink:href="../../d1/d76/vspline__p_8h.html" target="_top" xlink:title=" ">
<polygon fill="white" stroke="red" points="2730.5,-73 2730.5,-103 2837.5,-103 2837.5,-73 2730.5,-73"/>
<text text-anchor="start" x="2738.5" y="-91" font-family="Helvetica,sans-Serif" font-size="10.00">src/libs/vgeometry</text>
<text text-anchor="middle" x="2784" y="-80" font-family="Helvetica,sans-Serif" font-size="10.00">/vspline_p.h</text>
</a>
</g>
</g>
<!-- Node19&#45;&gt;Node40 -->
<g id="edge32" class="edge">
<title>Node19&#45;&gt;Node40</title>
<path fill="none" stroke="midnightblue" d="M2479.81,-154.97C2543.41,-145.34 2639.1,-129.26 2721,-109 2728.02,-107.26 2735.4,-105.17 2742.53,-103"/>
<polygon fill="midnightblue" stroke="midnightblue" points="2479.26,-151.52 2469.89,-156.47 2480.3,-158.44 2479.26,-151.52"/>
</g>
<!-- Node42 -->
<g id="node28" class="node">
<title>Node42</title>
<g id="a_node28"><a xlink:href="../../d9/d15/vabstractpiece_8cpp.html" target="_top" xlink:title=" ">
<polygon fill="white" stroke="black" points="2856,-78.5 2856,-97.5 3042,-97.5 3042,-78.5 2856,-78.5"/>
<text text-anchor="middle" x="2949" y="-85.5" font-family="Helvetica,sans-Serif" font-size="10.00">src/libs/vlayout/vabstractpiece.cpp</text>
</a>
</g>
</g>
<!-- Node19&#45;&gt;Node42 -->
<g id="edge33" class="edge">
<title>Node19&#45;&gt;Node42</title>
<path fill="none" stroke="midnightblue" d="M2497.36,-155.37C2585.8,-145.33 2725.66,-128.37 2846,-109 2866.5,-105.7 2889.17,-101.37 2908.01,-97.59"/>
<polygon fill="midnightblue" stroke="midnightblue" points="2496.91,-151.89 2487.37,-156.5 2497.7,-158.85 2496.91,-151.89"/>
</g>
<!-- Node43 -->
<g id="node29" class="node">
<title>Node43</title>
<g id="a_node29"><a xlink:href="../../d6/d0b/def_8cpp.html" target="_top" xlink:title=" ">
<polygon fill="white" stroke="black" points="3060,-78.5 3060,-97.5 3182,-97.5 3182,-78.5 3060,-78.5"/>
<text text-anchor="middle" x="3121" y="-85.5" font-family="Helvetica,sans-Serif" font-size="10.00">src/libs/vmisc/def.cpp</text>
</a>
</g>
</g>
<!-- Node19&#45;&gt;Node43 -->
<g id="edge36" class="edge">
<title>Node19&#45;&gt;Node43</title>
<path fill="none" stroke="midnightblue" d="M2516.79,-161.89C2645.03,-156.74 2865.15,-143.33 3051,-109 3066.04,-106.22 3082.5,-101.6 3095.68,-97.5"/>
<polygon fill="midnightblue" stroke="midnightblue" points="2516.43,-158.4 2506.58,-162.29 2516.71,-165.39 2516.43,-158.4"/>
</g>
<!-- Node44 -->
<g id="node30" class="node">
<title>Node44</title>
<g id="a_node30"><a xlink:href="../../db/d65/dialogexporttocsv_8cpp.html" target="_top" xlink:title=" ">
<polygon fill="white" stroke="black" points="3200.5,-73 3200.5,-103 3327.5,-103 3327.5,-73 3200.5,-73"/>
<text text-anchor="start" x="3208.5" y="-91" font-family="Helvetica,sans-Serif" font-size="10.00">src/libs/vmisc/dialogs</text>
<text text-anchor="middle" x="3264" y="-80" font-family="Helvetica,sans-Serif" font-size="10.00">/dialogexporttocsv.cpp</text>
</a>
</g>
</g>
<!-- Node19&#45;&gt;Node44 -->
<g id="edge37" class="edge">
<title>Node19&#45;&gt;Node44</title>
<path fill="none" stroke="midnightblue" d="M2516.88,-159.89C2700.1,-150.78 3064.51,-130.64 3191,-109 3199.81,-107.49 3209.09,-105.38 3217.97,-103.08"/>
<polygon fill="midnightblue" stroke="midnightblue" points="2516.5,-156.41 2506.69,-160.4 2516.85,-163.4 2516.5,-156.41"/>
</g>
<!-- Node45 -->
<g id="node31" class="node">
<title>Node45</title>
<g id="a_node31"><a xlink:href="../../d0/df6/vabstractapplication_8cpp.html" target="_top" xlink:title=" ">
<polygon fill="white" stroke="black" points="3346,-78.5 3346,-97.5 3552,-97.5 3552,-78.5 3346,-78.5"/>
<text text-anchor="middle" x="3449" y="-85.5" font-family="Helvetica,sans-Serif" font-size="10.00">src/libs/vmisc/vabstractapplication.cpp</text>
</a>
</g>
</g>
<!-- Node19&#45;&gt;Node45 -->
<g id="edge38" class="edge">
<title>Node19&#45;&gt;Node45</title>
<path fill="none" stroke="midnightblue" d="M2516.75,-160.08C2726.13,-150.26 3181.08,-127.56 3337,-109 3360.63,-106.19 3386.83,-101.59 3407.95,-97.51"/>
<polygon fill="midnightblue" stroke="midnightblue" points="2516.49,-156.59 2506.66,-160.55 2516.81,-163.58 2516.49,-156.59"/>
</g>
<!-- Node46 -->
<g id="node32" class="node">
<title>Node46</title>
<g id="a_node32"><a xlink:href="../../d4/d4f/pmsystems_8cpp.html" target="_top" xlink:title=" ">
<polygon fill="white" stroke="black" points="3570.5,-73 3570.5,-103 3677.5,-103 3677.5,-73 3570.5,-73"/>
<text text-anchor="start" x="3578.5" y="-91" font-family="Helvetica,sans-Serif" font-size="10.00">src/libs/vpatterndb</text>
<text text-anchor="middle" x="3624" y="-80" font-family="Helvetica,sans-Serif" font-size="10.00">/pmsystems.cpp</text>
</a>
</g>
</g>
<!-- Node19&#45;&gt;Node46 -->
<g id="edge39" class="edge">
<title>Node19&#45;&gt;Node46</title>
<path fill="none" stroke="midnightblue" d="M2517.28,-159.92C2801.55,-146.56 3548.24,-111.3 3561,-109 3568.91,-107.58 3577.2,-105.44 3585.08,-103.08"/>
<polygon fill="midnightblue" stroke="midnightblue" points="2516.78,-156.44 2506.95,-160.4 2517.1,-163.43 2516.78,-156.44"/>
</g>
<!-- Node19&#45;&gt;Node47 -->
<g id="edge40" class="edge">
<title>Node19&#45;&gt;Node47</title>
<path fill="none" stroke="midnightblue" d="M2301.17,-159.33C2212.95,-154.87 2084.93,-148.79 1973,-145 1789.84,-138.8 504.72,-139.45 324,-109 315.97,-107.65 307.55,-105.47 299.6,-103.05"/>
<polygon fill="midnightblue" stroke="midnightblue" points="2301.03,-162.83 2311.19,-159.84 2301.38,-155.84 2301.03,-162.83"/>
</g>
<!-- Node19&#45;&gt;Node48 -->
<g id="edge41" class="edge">
<title>Node19&#45;&gt;Node48</title>
<path fill="none" stroke="midnightblue" d="M2301.31,-156.2C2248,-152.17 2182.65,-147.69 2124,-145 1752.3,-127.97 817.07,-169.91 450,-109 441.85,-107.65 433.3,-105.47 425.22,-103.05"/>
<polygon fill="midnightblue" stroke="midnightblue" points="2301.22,-159.71 2311.46,-156.98 2301.75,-152.73 2301.22,-159.71"/>
</g>
<!-- Node19&#45;&gt;Node49 -->
<g id="edge42" class="edge">
<title>Node19&#45;&gt;Node49</title>
<path fill="none" stroke="midnightblue" d="M2516.84,-159.63C2605.06,-155.34 2733.09,-149.34 2845,-145 3096.94,-135.22 3730.49,-151.55 3979,-109 3987.03,-107.63 3995.45,-105.47 4003.43,-103.08"/>
<polygon fill="midnightblue" stroke="midnightblue" points="2516.64,-156.14 2506.82,-160.12 2516.98,-163.13 2516.64,-156.14"/>
</g>
<!-- Node50 -->
<g id="node36" class="node">
<title>Node50</title>
<g id="a_node36"><a xlink:href="../../df/dba/vpiecenode__p_8h.html" target="_top" xlink:title=" ">
<polygon fill="white" stroke="black" points="3734.5,-73 3734.5,-103 3841.5,-103 3841.5,-73 3734.5,-73"/>
<text text-anchor="start" x="3742.5" y="-91" font-family="Helvetica,sans-Serif" font-size="10.00">src/libs/vpatterndb</text>
<text text-anchor="middle" x="3788" y="-80" font-family="Helvetica,sans-Serif" font-size="10.00">/vpiecenode_p.h</text>
</a>
</g>
</g>
<!-- Node19&#45;&gt;Node50 -->
<g id="edge43" class="edge">
<title>Node19&#45;&gt;Node50</title>
<path fill="none" stroke="midnightblue" d="M2516.85,-159.91C2605.08,-155.78 2733.11,-149.87 2845,-145 3233.85,-128.08 3335.98,-172.39 3720,-109 3728.62,-107.58 3737.69,-105.41 3746.3,-103.01"/>
<polygon fill="midnightblue" stroke="midnightblue" points="2516.66,-156.42 2506.83,-160.38 2516.98,-163.41 2516.66,-156.42"/>
</g>
<!-- Node52 -->
<g id="node38" class="node">
<title>Node52</title>
<g id="a_node38"><a xlink:href="../../de/d3e/vtranslatevars_8cpp.html" target="_top" xlink:title=" ">
<polygon fill="white" stroke="black" points="3860,-73 3860,-103 3970,-103 3970,-73 3860,-73"/>
<text text-anchor="start" x="3868" y="-91" font-family="Helvetica,sans-Serif" font-size="10.00">src/libs/vpatterndb</text>
<text text-anchor="middle" x="3915" y="-80" font-family="Helvetica,sans-Serif" font-size="10.00">/vtranslatevars.cpp</text>
</a>
</g>
</g>
<!-- Node19&#45;&gt;Node52 -->
<g id="edge45" class="edge">
<title>Node19&#45;&gt;Node52</title>
<path fill="none" stroke="midnightblue" d="M2516.84,-159.75C2605.07,-155.53 2733.1,-149.57 2845,-145 3068.51,-135.87 3630.5,-146.7 3851,-109 3859.15,-107.61 3867.7,-105.45 3875.8,-103.06"/>
<polygon fill="midnightblue" stroke="midnightblue" points="2516.65,-156.26 2506.82,-160.23 2516.98,-163.25 2516.65,-156.26"/>
</g>
<!-- Node25 -->
<g id="node39" class="node">
<title>Node25</title>
<g id="a_node39"><a xlink:href="../../df/d40/export__format__combobox_8cpp.html" target="_top" xlink:title=" ">
<polygon fill="white" stroke="black" points="789.5,-73 789.5,-103 922.5,-103 922.5,-73 789.5,-73"/>
<text text-anchor="start" x="797.5" y="-91" font-family="Helvetica,sans-Serif" font-size="10.00">src/libs/vwidgets/export</text>
<text text-anchor="middle" x="856" y="-80" font-family="Helvetica,sans-Serif" font-size="10.00">_format_combobox.cpp</text>
</a>
</g>
</g>
<!-- Node19&#45;&gt;Node25 -->
<g id="edge46" class="edge">
<title>Node19&#45;&gt;Node25</title>
<path fill="none" stroke="midnightblue" d="M2354.82,-154.73C2332.91,-151 2307.33,-147.17 2284,-145 1685.48,-89.39 1527.05,-194.05 932,-109 922.41,-107.63 912.29,-105.48 902.68,-103.09"/>
<polygon fill="midnightblue" stroke="midnightblue" points="2354.47,-158.22 2364.92,-156.49 2355.67,-151.33 2354.47,-158.22"/>
</g>
<!-- Node53 -->
<g id="node40" class="node">
<title>Node53</title>
<g id="a_node40"><a xlink:href="../../d3/d4f/mouse__coordinates_8cpp.html" target="_top" xlink:title=" ">
<polygon fill="white" stroke="black" points="941,-73 941,-103 1075,-103 1075,-73 941,-73"/>
<text text-anchor="start" x="949" y="-91" font-family="Helvetica,sans-Serif" font-size="10.00">src/libs/vwidgets/mouse</text>
<text text-anchor="middle" x="1008" y="-80" font-family="Helvetica,sans-Serif" font-size="10.00">_coordinates.cpp</text>
</a>
</g>
</g>
<!-- Node19&#45;&gt;Node53 -->
<g id="edge47" class="edge">
<title>Node19&#45;&gt;Node53</title>
<path fill="none" stroke="midnightblue" d="M2354.55,-154.73C2332.7,-151.01 2307.23,-147.2 2284,-145 1752.8,-94.75 1612.08,-185.39 1084,-109 1074.41,-107.61 1064.3,-105.46 1054.68,-103.07"/>
<polygon fill="midnightblue" stroke="midnightblue" points="2354.18,-158.22 2364.63,-156.48 2355.38,-151.32 2354.18,-158.22"/>
</g>
<!-- Node28 -->
<g id="node41" class="node">
<title>Node28</title>
<g id="a_node41"><a xlink:href="../../d2/d28/page__format__combobox_8cpp.html" target="_top" xlink:title=" ">
<polygon fill="white" stroke="black" points="1093.5,-73 1093.5,-103 1224.5,-103 1224.5,-73 1093.5,-73"/>
<text text-anchor="start" x="1101.5" y="-91" font-family="Helvetica,sans-Serif" font-size="10.00">src/libs/vwidgets/page</text>
<text text-anchor="middle" x="1159" y="-80" font-family="Helvetica,sans-Serif" font-size="10.00">_format_combobox.cpp</text>
</a>
</g>
</g>
<!-- Node19&#45;&gt;Node28 -->
<g id="edge48" class="edge">
<title>Node19&#45;&gt;Node28</title>
<path fill="none" stroke="midnightblue" d="M2354.27,-154.73C2332.49,-151.04 2307.13,-147.24 2284,-145 1818.79,-99.99 1695.2,-178.43 1233,-109 1223.66,-107.6 1213.8,-105.43 1204.44,-103.04"/>
<polygon fill="midnightblue" stroke="midnightblue" points="2353.89,-158.22 2364.34,-156.47 2355.08,-151.32 2353.89,-158.22"/>
</g>
<!-- Node54 -->
<g id="node42" class="node">
<title>Node54</title>
<g id="a_node42"><a xlink:href="../../d7/d1b/pen__toolbar_8cpp.html" target="_top" xlink:title=" ">
<polygon fill="white" stroke="black" points="1242.5,-73 1242.5,-103 1361.5,-103 1361.5,-73 1242.5,-73"/>
<text text-anchor="start" x="1250.5" y="-91" font-family="Helvetica,sans-Serif" font-size="10.00">src/libs/vwidgets/pen</text>
<text text-anchor="middle" x="1302" y="-80" font-family="Helvetica,sans-Serif" font-size="10.00">_toolbar.cpp</text>
</a>
</g>
</g>
<!-- Node19&#45;&gt;Node54 -->
<g id="edge49" class="edge">
<title>Node19&#45;&gt;Node54</title>
<path fill="none" stroke="midnightblue" d="M2354,-154.75C2332.27,-151.08 2307.03,-147.29 2284,-145 1879.9,-104.85 1771.86,-174.01 1371,-109 1362.26,-107.58 1353.06,-105.41 1344.33,-103.02"/>
<polygon fill="midnightblue" stroke="midnightblue" points="2353.59,-158.23 2364.04,-156.48 2354.78,-151.33 2353.59,-158.23"/>
</g>
<!-- Node55 -->
<g id="node43" class="node">
<title>Node55</title>
<g id="a_node43"><a xlink:href="../../d8/d76/scene__rect_8cpp.html" target="_top" xlink:title=" ">
<polygon fill="white" stroke="black" points="1380,-73 1380,-103 1510,-103 1510,-73 1380,-73"/>
<text text-anchor="start" x="1388" y="-91" font-family="Helvetica,sans-Serif" font-size="10.00">src/libs/vwidgets/scene</text>
<text text-anchor="middle" x="1445" y="-80" font-family="Helvetica,sans-Serif" font-size="10.00">_rect.cpp</text>
</a>
</g>
</g>
<!-- Node19&#45;&gt;Node55 -->
<g id="edge50" class="edge">
<title>Node19&#45;&gt;Node55</title>
<path fill="none" stroke="midnightblue" d="M2353.46,-154.75C2331.85,-151.12 2306.84,-147.36 2284,-145 1945.42,-110.06 1855.27,-161.71 1519,-109 1509.8,-107.56 1500.09,-105.41 1490.85,-103.05"/>
<polygon fill="midnightblue" stroke="midnightblue" points="2353,-158.22 2363.45,-156.46 2354.18,-151.32 2353,-158.22"/>
</g>
<!-- Node56 -->
<g id="node44" class="node">
<title>Node56</title>
<g id="a_node44"><a xlink:href="../../dd/df6/vabstractmainwindow_8cpp.html" target="_top" xlink:title=" ">
<polygon fill="white" stroke="black" points="1528.5,-78.5 1528.5,-97.5 1757.5,-97.5 1757.5,-78.5 1528.5,-78.5"/>
<text text-anchor="middle" x="1643" y="-85.5" font-family="Helvetica,sans-Serif" font-size="10.00">src/libs/vwidgets/vabstractmainwindow.cpp</text>
</a>
</g>
</g>
<!-- Node19&#45;&gt;Node56 -->
<g id="edge51" class="edge">
<title>Node19&#45;&gt;Node56</title>
<path fill="none" stroke="midnightblue" d="M2352.08,-154.79C2330.78,-151.27 2306.34,-147.56 2284,-145 2054.72,-118.74 1995.25,-135.55 1766,-109 1740.43,-106.04 1712.05,-101.51 1689,-97.51"/>
<polygon fill="midnightblue" stroke="midnightblue" points="2351.51,-158.25 2361.95,-156.45 2352.67,-151.34 2351.51,-158.25"/>
</g>
<!-- Node38&#45;&gt;Node39 -->
<g id="edge30" class="edge">
<title>Node38&#45;&gt;Node39</title>
<path fill="none" stroke="midnightblue" d="M2707.48,-70.14C2712.02,-68.94 2716.57,-67.86 2721,-67 2960.72,-20.46 3253.75,-15.76 3372.36,-15.97"/>
<polygon fill="midnightblue" stroke="midnightblue" points="2706.3,-66.84 2697.65,-72.96 2708.23,-73.57 2706.3,-66.84"/>
</g>
<!-- Node50&#45;&gt;Node51 -->
<g id="edge44" class="edge">
<title>Node50&#45;&gt;Node51</title>
<path fill="none" stroke="midnightblue" d="M3840.72,-70C3844.19,-68.96 3847.64,-67.95 3851,-67 3900.91,-52.85 3958.34,-38.7 3999.17,-28.99"/>
<polygon fill="midnightblue" stroke="midnightblue" points="3839.48,-66.72 3830.93,-72.98 3841.52,-73.41 3839.48,-66.72"/>
</g>
<!-- Node67&#45;&gt;Node3 -->
<g id="edge54" class="edge">
<title>Node67&#45;&gt;Node3</title>
<path fill="none" stroke="midnightblue" d="M5274.31,-149.59C5327.63,-138.85 5399.75,-123.84 5463,-109 5465.82,-108.34 5468.7,-107.65 5471.61,-106.94"/>
<polygon fill="midnightblue" stroke="midnightblue" points="5273.35,-146.21 5264.24,-151.62 5274.73,-153.08 5273.35,-146.21"/>
</g>
</g>
</svg>
