<?xml version="1.0" encoding="UTF-8" standalone="no"?>
<!DOCTYPE svg PUBLIC "-//W3C//DTD SVG 1.1//EN"
 "http://www.w3.org/Graphics/SVG/1.1/DTD/svg11.dtd">
<!-- Generated by graphviz version 2.43.0 (0)
 -->
<!-- Title: src/libs/vtools/tools/drawTools/toolcurve/vabstractspline.h Pages: 1 -->
<!--zoomable 384 -->
<svg id="main" version="1.1" xmlns="http://www.w3.org/2000/svg" xmlns:xlink="http://www.w3.org/1999/xlink" xml:space="preserve" onload="init(evt)">
<style type="text/css"><![CDATA[
.edge:hover path { stroke: red; }
.edge:hover polygon { stroke: red; fill: red; }
]]></style>
<script type="text/javascript"><![CDATA[
var edges = document.getElementsByTagName('g');
if (edges && edges.length) {
  for (var i=0;i<edges.length;i++) {
    if (edges[i].id.substr(0,4)=='edge') {
      edges[i].setAttribute('class','edge');
    }
  }
}
]]></script>
        <defs>
                <circle id="rim" cx="0" cy="0" r="7"/>
                <circle id="rim2" cx="0" cy="0" r="3.5"/>
                <g id="zoomPlus">
                        <use xlink:href="#rim" fill="#404040">
                                <set attributeName="fill" to="#808080" begin="zoomplus.mouseover" end="zoomplus.mouseout"/>
                        </use>
                        <path d="M-4,0h8M0,-4v8" fill="none" stroke="white" stroke-width="1.5" pointer-events="none"/>
                </g>
                <g id="zoomMin">
                        <use xlink:href="#rim" fill="#404040">
                                <set attributeName="fill" to="#808080" begin="zoomminus.mouseover" end="zoomminus.mouseout"/>
                        </use>
                        <path d="M-4,0h8" fill="none" stroke="white" stroke-width="1.5" pointer-events="none"/>
                </g>
                <g id="dirArrow">
                        <path fill="none" stroke="white" stroke-width="1.5" d="M0,-3.0v7 M-2.5,-0.5L0,-3.0L2.5,-0.5"/>
                </g>
               <g id="resetDef">
                       <use xlink:href="#rim2" fill="#404040">
                               <set attributeName="fill" to="#808080" begin="reset.mouseover" end="reset.mouseout"/>
                       </use>
               </g>
        </defs>

<script type="text/javascript">
var viewWidth = 2391;
var viewHeight = 384;
var sectionId = 'dynsection-1';
</script>
<script xlink:href="../../svgpan.js"/>
<svg id="graph" class="graph">
<g id="viewport">
<title>src/libs/vtools/tools/drawTools/toolcurve/vabstractspline.h</title>
<polygon fill="white" stroke="transparent" points="-4,4 -4,-380 2387,-380 2387,4 -4,4"/>
<!-- Node1 -->
<g id="node1" class="node">
<title>Node1</title>
<g id="a_node1"><a xlink:title=" ">
<polygon fill="#bfbfbf" stroke="black" points="702,-334.5 702,-375.5 819,-375.5 819,-334.5 702,-334.5"/>
<text text-anchor="start" x="710" y="-363.5" font-family="Helvetica,sans-Serif" font-size="10.00">src/libs/vtools/tools</text>
<text text-anchor="start" x="710" y="-352.5" font-family="Helvetica,sans-Serif" font-size="10.00">/drawTools/toolcurve</text>
<text text-anchor="middle" x="760.5" y="-341.5" font-family="Helvetica,sans-Serif" font-size="10.00">/vabstractspline.h</text>
</a>
</g>
</g>
<!-- Node2 -->
<g id="node2" class="node">
<title>Node2</title>
<g id="a_node2"><a xlink:href="../../d1/d05/vabstractspline_8cpp.html" target="_top" xlink:title=" ">
<polygon fill="white" stroke="black" points="0,-251 0,-292 117,-292 117,-251 0,-251"/>
<text text-anchor="start" x="8" y="-280" font-family="Helvetica,sans-Serif" font-size="10.00">src/libs/vtools/tools</text>
<text text-anchor="start" x="8" y="-269" font-family="Helvetica,sans-Serif" font-size="10.00">/drawTools/toolcurve</text>
<text text-anchor="middle" x="58.5" y="-258" font-family="Helvetica,sans-Serif" font-size="10.00">/vabstractspline.cpp</text>
</a>
</g>
</g>
<!-- Node1&#45;&gt;Node2 -->
<g id="edge1" class="edge">
<title>Node1&#45;&gt;Node2</title>
<path fill="none" stroke="midnightblue" d="M691.59,-354.09C573.96,-352.89 327.57,-344.42 125.5,-298 118.71,-296.44 111.68,-294.34 104.85,-292.02"/>
<polygon fill="midnightblue" stroke="midnightblue" points="691.85,-357.6 701.88,-354.18 691.91,-350.6 691.85,-357.6"/>
</g>
<!-- Node3 -->
<g id="node3" class="node">
<title>Node3</title>
<g id="a_node3"><a xlink:href="../../d3/d19/vtoolarc_8h.html" target="_top" xlink:title=" ">
<polygon fill="white" stroke="black" points="309,-251 309,-292 426,-292 426,-251 309,-251"/>
<text text-anchor="start" x="317" y="-280" font-family="Helvetica,sans-Serif" font-size="10.00">src/libs/vtools/tools</text>
<text text-anchor="start" x="317" y="-269" font-family="Helvetica,sans-Serif" font-size="10.00">/drawTools/toolcurve</text>
<text text-anchor="middle" x="367.5" y="-258" font-family="Helvetica,sans-Serif" font-size="10.00">/vtoolarc.h</text>
</a>
</g>
</g>
<!-- Node1&#45;&gt;Node3 -->
<g id="edge2" class="edge">
<title>Node1&#45;&gt;Node3</title>
<path fill="none" stroke="midnightblue" d="M691.62,-345.25C626.34,-336.19 525.86,-320.22 440.5,-298 433.87,-296.28 426.99,-294.23 420.22,-292.05"/>
<polygon fill="midnightblue" stroke="midnightblue" points="691.4,-348.76 701.79,-346.65 692.36,-341.82 691.4,-348.76"/>
</g>
<!-- Node4 -->
<g id="node4" class="node">
<title>Node4</title>
<g id="a_node4"><a xlink:href="../../d2/d9b/vtoolarc_8cpp.html" target="_top" xlink:title=" ">
<polygon fill="white" stroke="black" points="371,-162 371,-203 488,-203 488,-162 371,-162"/>
<text text-anchor="start" x="379" y="-191" font-family="Helvetica,sans-Serif" font-size="10.00">src/libs/vtools/tools</text>
<text text-anchor="start" x="379" y="-180" font-family="Helvetica,sans-Serif" font-size="10.00">/drawTools/toolcurve</text>
<text text-anchor="middle" x="429.5" y="-169" font-family="Helvetica,sans-Serif" font-size="10.00">/vtoolarc.cpp</text>
</a>
</g>
</g>
<!-- Node1&#45;&gt;Node4 -->
<g id="edge6" class="edge">
<title>Node1&#45;&gt;Node4</title>
<path fill="none" stroke="midnightblue" d="M691.59,-353.77C635.23,-350.39 555.91,-337.99 499.5,-298 466.05,-274.28 445.51,-229.06 435.93,-203.11"/>
<polygon fill="midnightblue" stroke="midnightblue" points="691.67,-357.28 701.84,-354.31 692.03,-350.29 691.67,-357.28"/>
</g>
<!-- Node7 -->
<g id="node7" class="node">
<title>Node7</title>
<g id="a_node7"><a xlink:href="../../de/dd9/vtoolarcwithlength_8h.html" target="_top" xlink:title=" ">
<polygon fill="white" stroke="black" points="520.5,-251 520.5,-292 640.5,-292 640.5,-251 520.5,-251"/>
<text text-anchor="start" x="528.5" y="-280" font-family="Helvetica,sans-Serif" font-size="10.00">src/libs/vtools/tools</text>
<text text-anchor="start" x="528.5" y="-269" font-family="Helvetica,sans-Serif" font-size="10.00">/drawTools/toolcurve</text>
<text text-anchor="middle" x="580.5" y="-258" font-family="Helvetica,sans-Serif" font-size="10.00">/vtoolarcwithlength.h</text>
</a>
</g>
</g>
<!-- Node1&#45;&gt;Node7 -->
<g id="edge7" class="edge">
<title>Node1&#45;&gt;Node7</title>
<path fill="none" stroke="midnightblue" d="M708.13,-330.29C681.28,-318.13 648.97,-303.5 623.57,-292"/>
<polygon fill="midnightblue" stroke="midnightblue" points="706.83,-333.54 717.39,-334.48 709.72,-327.17 706.83,-333.54"/>
</g>
<!-- Node8 -->
<g id="node8" class="node">
<title>Node8</title>
<g id="a_node8"><a xlink:href="../../d3/d33/vtoolarcwithlength_8cpp.html" target="_top" xlink:title=" ">
<polygon fill="white" stroke="black" points="506,-162 506,-203 637,-203 637,-162 506,-162"/>
<text text-anchor="start" x="514" y="-191" font-family="Helvetica,sans-Serif" font-size="10.00">src/libs/vtools/tools</text>
<text text-anchor="start" x="514" y="-180" font-family="Helvetica,sans-Serif" font-size="10.00">/drawTools/toolcurve</text>
<text text-anchor="middle" x="571.5" y="-169" font-family="Helvetica,sans-Serif" font-size="10.00">/vtoolarcwithlength.cpp</text>
</a>
</g>
</g>
<!-- Node1&#45;&gt;Node8 -->
<g id="edge15" class="edge">
<title>Node1&#45;&gt;Node8</title>
<path fill="none" stroke="midnightblue" d="M691.57,-348.02C625.85,-340.71 533.7,-325.75 511.5,-298 496.78,-279.61 502.62,-266.82 511.5,-245 518.25,-228.42 531.85,-213.87 544.4,-203.09"/>
<polygon fill="midnightblue" stroke="midnightblue" points="691.56,-351.53 701.88,-349.12 692.31,-344.57 691.56,-351.53"/>
</g>
<!-- Node9 -->
<g id="node9" class="node">
<title>Node9</title>
<g id="a_node9"><a xlink:href="../../d4/df1/vtoolcubicbezier_8h.html" target="_top" xlink:title=" ">
<polygon fill="white" stroke="black" points="135,-251 135,-292 252,-292 252,-251 135,-251"/>
<text text-anchor="start" x="143" y="-280" font-family="Helvetica,sans-Serif" font-size="10.00">src/libs/vtools/tools</text>
<text text-anchor="start" x="143" y="-269" font-family="Helvetica,sans-Serif" font-size="10.00">/drawTools/toolcurve</text>
<text text-anchor="middle" x="193.5" y="-258" font-family="Helvetica,sans-Serif" font-size="10.00">/vtoolcubicbezier.h</text>
</a>
</g>
</g>
<!-- Node1&#45;&gt;Node9 -->
<g id="edge10" class="edge">
<title>Node1&#45;&gt;Node9</title>
<path fill="none" stroke="midnightblue" d="M691.82,-351.06C595.65,-345.84 415.89,-332.11 266.5,-298 259.43,-296.39 252.1,-294.32 244.93,-292.06"/>
<polygon fill="midnightblue" stroke="midnightblue" points="691.82,-354.56 701.99,-351.59 692.19,-347.57 691.82,-354.56"/>
</g>
<!-- Node10 -->
<g id="node10" class="node">
<title>Node10</title>
<g id="a_node10"><a xlink:href="../../db/dcd/vtoolcubicbezier_8cpp.html" target="_top" xlink:title=" ">
<polygon fill="white" stroke="black" points="195,-162 195,-203 314,-203 314,-162 195,-162"/>
<text text-anchor="start" x="203" y="-191" font-family="Helvetica,sans-Serif" font-size="10.00">src/libs/vtools/tools</text>
<text text-anchor="start" x="203" y="-180" font-family="Helvetica,sans-Serif" font-size="10.00">/drawTools/toolcurve</text>
<text text-anchor="middle" x="254.5" y="-169" font-family="Helvetica,sans-Serif" font-size="10.00">/vtoolcubicbezier.cpp</text>
</a>
</g>
</g>
<!-- Node1&#45;&gt;Node10 -->
<g id="edge13" class="edge">
<title>Node1&#45;&gt;Node10</title>
<path fill="none" stroke="midnightblue" d="M691.36,-354.05C577.99,-352.76 359.17,-344.17 299.5,-298 269.77,-274.99 259.65,-229.5 256.23,-203.32"/>
<polygon fill="midnightblue" stroke="midnightblue" points="691.63,-357.55 701.66,-354.15 691.7,-350.55 691.63,-357.55"/>
</g>
<!-- Node11 -->
<g id="node11" class="node">
<title>Node11</title>
<g id="a_node11"><a xlink:href="../../d4/d49/vtoolcubicbezierpath_8cpp.html" target="_top" xlink:title=" ">
<polygon fill="white" stroke="black" points="909.5,-162 909.5,-203 1051.5,-203 1051.5,-162 909.5,-162"/>
<text text-anchor="start" x="917.5" y="-191" font-family="Helvetica,sans-Serif" font-size="10.00">src/libs/vtools/tools</text>
<text text-anchor="start" x="917.5" y="-180" font-family="Helvetica,sans-Serif" font-size="10.00">/drawTools/toolcurve</text>
<text text-anchor="middle" x="980.5" y="-169" font-family="Helvetica,sans-Serif" font-size="10.00">/vtoolcubicbezierpath.cpp</text>
</a>
</g>
</g>
<!-- Node1&#45;&gt;Node11 -->
<g id="edge14" class="edge">
<title>Node1&#45;&gt;Node11</title>
<path fill="none" stroke="midnightblue" d="M829.14,-344.62C883.84,-335.62 954.2,-320.13 972.5,-298 994.47,-271.44 990.4,-228.49 985.45,-203.43"/>
<polygon fill="midnightblue" stroke="midnightblue" points="828.45,-341.18 819.13,-346.22 829.56,-348.1 828.45,-341.18"/>
</g>
<!-- Node12 -->
<g id="node12" class="node">
<title>Node12</title>
<g id="a_node12"><a xlink:href="../../d5/d63/vtoolellipticalarc_8h.html" target="_top" xlink:title=" ">
<polygon fill="white" stroke="black" points="659,-251 659,-292 776,-292 776,-251 659,-251"/>
<text text-anchor="start" x="667" y="-280" font-family="Helvetica,sans-Serif" font-size="10.00">src/libs/vtools/tools</text>
<text text-anchor="start" x="667" y="-269" font-family="Helvetica,sans-Serif" font-size="10.00">/drawTools/toolcurve</text>
<text text-anchor="middle" x="717.5" y="-258" font-family="Helvetica,sans-Serif" font-size="10.00">/vtoolellipticalarc.h</text>
</a>
</g>
</g>
<!-- Node1&#45;&gt;Node12 -->
<g id="edge16" class="edge">
<title>Node1&#45;&gt;Node12</title>
<path fill="none" stroke="midnightblue" d="M745.41,-325.39C739.59,-314.37 733.08,-302.03 727.81,-292.05"/>
<polygon fill="midnightblue" stroke="midnightblue" points="742.33,-327.06 750.09,-334.27 748.52,-323.79 742.33,-327.06"/>
</g>
<!-- Node13 -->
<g id="node13" class="node">
<title>Node13</title>
<g id="a_node13"><a xlink:href="../../d8/dc7/vtoolellipticalarc_8cpp.html" target="_top" xlink:title=" ">
<polygon fill="white" stroke="black" points="731.5,-162 731.5,-203 853.5,-203 853.5,-162 731.5,-162"/>
<text text-anchor="start" x="739.5" y="-191" font-family="Helvetica,sans-Serif" font-size="10.00">src/libs/vtools/tools</text>
<text text-anchor="start" x="739.5" y="-180" font-family="Helvetica,sans-Serif" font-size="10.00">/drawTools/toolcurve</text>
<text text-anchor="middle" x="792.5" y="-169" font-family="Helvetica,sans-Serif" font-size="10.00">/vtoolellipticalarc.cpp</text>
</a>
</g>
</g>
<!-- Node1&#45;&gt;Node13 -->
<g id="edge22" class="edge">
<title>Node1&#45;&gt;Node13</title>
<path fill="none" stroke="midnightblue" d="M775.03,-325.18C778.74,-316.63 782.3,-307.11 784.5,-298 792.37,-265.46 793.36,-226.32 793.1,-203.25"/>
<polygon fill="midnightblue" stroke="midnightblue" points="771.82,-323.79 770.85,-334.34 778.19,-326.7 771.82,-323.79"/>
</g>
<!-- Node14 -->
<g id="node14" class="node">
<title>Node14</title>
<g id="a_node14"><a xlink:href="../../d6/d25/vtoolcubicbezierpath_8h.html" target="_top" xlink:title=" ">
<polygon fill="white" stroke="black" points="833,-251 833,-292 964,-292 964,-251 833,-251"/>
<text text-anchor="start" x="841" y="-280" font-family="Helvetica,sans-Serif" font-size="10.00">src/libs/vtools/tools</text>
<text text-anchor="start" x="841" y="-269" font-family="Helvetica,sans-Serif" font-size="10.00">/drawTools/toolcurve</text>
<text text-anchor="middle" x="898.5" y="-258" font-family="Helvetica,sans-Serif" font-size="10.00">/vtoolcubicbezierpath.h</text>
</a>
</g>
</g>
<!-- Node1&#45;&gt;Node14 -->
<g id="edge19" class="edge">
<title>Node1&#45;&gt;Node14</title>
<path fill="none" stroke="midnightblue" d="M802.24,-329.35C822.42,-317.43 846.31,-303.32 865.24,-292.14"/>
<polygon fill="midnightblue" stroke="midnightblue" points="800.39,-326.38 793.55,-334.48 803.94,-332.41 800.39,-326.38"/>
</g>
<!-- Node15 -->
<g id="node15" class="node">
<title>Node15</title>
<g id="a_node15"><a xlink:href="../../db/d8c/vtoolspline_8h.html" target="_top" xlink:title=" ">
<polygon fill="white" stroke="black" points="1021,-251 1021,-292 1138,-292 1138,-251 1021,-251"/>
<text text-anchor="start" x="1029" y="-280" font-family="Helvetica,sans-Serif" font-size="10.00">src/libs/vtools/tools</text>
<text text-anchor="start" x="1029" y="-269" font-family="Helvetica,sans-Serif" font-size="10.00">/drawTools/toolcurve</text>
<text text-anchor="middle" x="1079.5" y="-258" font-family="Helvetica,sans-Serif" font-size="10.00">/vtoolspline.h</text>
</a>
</g>
</g>
<!-- Node1&#45;&gt;Node15 -->
<g id="edge23" class="edge">
<title>Node1&#45;&gt;Node15</title>
<path fill="none" stroke="midnightblue" d="M829.1,-340.54C878.74,-330.28 947.23,-315.04 1006.5,-298 1012.69,-296.22 1019.13,-294.21 1025.5,-292.12"/>
<polygon fill="midnightblue" stroke="midnightblue" points="828.22,-337.15 819.12,-342.59 829.62,-344 828.22,-337.15"/>
</g>
<!-- Node16 -->
<g id="node16" class="node">
<title>Node16</title>
<g id="a_node16"><a xlink:href="../../d0/d39/vtoolspline_8cpp.html" target="_top" xlink:title=" ">
<polygon fill="white" stroke="black" points="1108,-162 1108,-203 1225,-203 1225,-162 1108,-162"/>
<text text-anchor="start" x="1116" y="-191" font-family="Helvetica,sans-Serif" font-size="10.00">src/libs/vtools/tools</text>
<text text-anchor="start" x="1116" y="-180" font-family="Helvetica,sans-Serif" font-size="10.00">/drawTools/toolcurve</text>
<text text-anchor="middle" x="1166.5" y="-169" font-family="Helvetica,sans-Serif" font-size="10.00">/vtoolspline.cpp</text>
</a>
</g>
</g>
<!-- Node1&#45;&gt;Node16 -->
<g id="edge30" class="edge">
<title>Node1&#45;&gt;Node16</title>
<path fill="none" stroke="midnightblue" d="M829.41,-353.39C928.08,-351 1102.58,-340.67 1146.5,-298 1171.83,-273.39 1171.87,-228.92 1169.37,-203.24"/>
<polygon fill="midnightblue" stroke="midnightblue" points="829.15,-349.89 819.23,-353.61 829.3,-356.89 829.15,-349.89"/>
</g>
<!-- Node17 -->
<g id="node17" class="node">
<title>Node17</title>
<g id="a_node17"><a xlink:href="../../d6/d38/vtoolsplinepath_8h.html" target="_top" xlink:title=" ">
<polygon fill="white" stroke="black" points="1251,-251 1251,-292 1368,-292 1368,-251 1251,-251"/>
<text text-anchor="start" x="1259" y="-280" font-family="Helvetica,sans-Serif" font-size="10.00">src/libs/vtools/tools</text>
<text text-anchor="start" x="1259" y="-269" font-family="Helvetica,sans-Serif" font-size="10.00">/drawTools/toolcurve</text>
<text text-anchor="middle" x="1309.5" y="-258" font-family="Helvetica,sans-Serif" font-size="10.00">/vtoolsplinepath.h</text>
</a>
</g>
</g>
<!-- Node1&#45;&gt;Node17 -->
<g id="edge26" class="edge">
<title>Node1&#45;&gt;Node17</title>
<path fill="none" stroke="midnightblue" d="M829.21,-346.18C912.54,-336.38 1057.18,-318.39 1180.5,-298 1203.59,-294.18 1228.87,-289.33 1250.88,-284.89"/>
<polygon fill="midnightblue" stroke="midnightblue" points="828.63,-342.72 819.1,-347.36 829.44,-349.67 828.63,-342.72"/>
</g>
<!-- Node18 -->
<g id="node18" class="node">
<title>Node18</title>
<g id="a_node18"><a xlink:href="../../d8/d1f/vtoolsplinepath_8cpp.html" target="_top" xlink:title=" ">
<polygon fill="white" stroke="black" points="1465,-162 1465,-203 1582,-203 1582,-162 1465,-162"/>
<text text-anchor="start" x="1473" y="-191" font-family="Helvetica,sans-Serif" font-size="10.00">src/libs/vtools/tools</text>
<text text-anchor="start" x="1473" y="-180" font-family="Helvetica,sans-Serif" font-size="10.00">/drawTools/toolcurve</text>
<text text-anchor="middle" x="1523.5" y="-169" font-family="Helvetica,sans-Serif" font-size="10.00">/vtoolsplinepath.cpp</text>
</a>
</g>
</g>
<!-- Node1&#45;&gt;Node18 -->
<g id="edge31" class="edge">
<title>Node1&#45;&gt;Node18</title>
<path fill="none" stroke="midnightblue" d="M829.3,-352.6C968.47,-348.99 1278.45,-336.73 1376.5,-298 1430.05,-276.84 1480.2,-229.75 1505.79,-203.02"/>
<polygon fill="midnightblue" stroke="midnightblue" points="829.09,-349.11 819.18,-352.86 829.27,-356.11 829.09,-349.11"/>
</g>
<!-- Node20 -->
<g id="node20" class="node">
<title>Node20</title>
<g id="a_node20"><a xlink:href="../../d7/d7d/vtoolcut_8h.html" target="_top" xlink:title=" ">
<polygon fill="white" stroke="black" points="1859,-245.5 1859,-297.5 1988,-297.5 1988,-245.5 1859,-245.5"/>
<text text-anchor="start" x="1867" y="-285.5" font-family="Helvetica,sans-Serif" font-size="10.00">src/libs/vtools/tools</text>
<text text-anchor="start" x="1867" y="-274.5" font-family="Helvetica,sans-Serif" font-size="10.00">/drawTools/toolpoint</text>
<text text-anchor="start" x="1867" y="-263.5" font-family="Helvetica,sans-Serif" font-size="10.00">/toolsinglepoint/toolcut</text>
<text text-anchor="middle" x="1923.5" y="-252.5" font-family="Helvetica,sans-Serif" font-size="10.00">/vtoolcut.h</text>
</a>
</g>
</g>
<!-- Node1&#45;&gt;Node20 -->
<g id="edge32" class="edge">
<title>Node1&#45;&gt;Node20</title>
<path fill="none" stroke="midnightblue" d="M829.56,-349.16C1037.68,-334.58 1656.95,-291.18 1858.97,-277.02"/>
<polygon fill="midnightblue" stroke="midnightblue" points="829.1,-345.68 819.37,-349.87 829.59,-352.67 829.1,-345.68"/>
</g>
<!-- Node3&#45;&gt;Node4 -->
<g id="edge3" class="edge">
<title>Node3&#45;&gt;Node4</title>
<path fill="none" stroke="midnightblue" d="M387.6,-242.3C396.71,-229.52 407.25,-214.72 415.49,-203.16"/>
<polygon fill="midnightblue" stroke="midnightblue" points="384.52,-240.58 381.57,-250.76 390.22,-244.65 384.52,-240.58"/>
</g>
<!-- Node5 -->
<g id="node5" class="node">
<title>Node5</title>
<g id="a_node5"><a xlink:href="../../d4/d56/drawtools_8h.html" target="_top" xlink:title=" ">
<polygon fill="white" stroke="black" points="916.5,-78.5 916.5,-108.5 1044.5,-108.5 1044.5,-78.5 916.5,-78.5"/>
<text text-anchor="start" x="924.5" y="-96.5" font-family="Helvetica,sans-Serif" font-size="10.00">src/libs/vtools/tools</text>
<text text-anchor="middle" x="980.5" y="-85.5" font-family="Helvetica,sans-Serif" font-size="10.00">/drawTools/drawtools.h</text>
</a>
</g>
</g>
<!-- Node3&#45;&gt;Node5 -->
<g id="edge4" class="edge">
<title>Node3&#45;&gt;Node5</title>
<path fill="none" stroke="midnightblue" d="M355.54,-241.08C347.24,-215.36 340.98,-178.66 361.5,-156 398.27,-115.4 765.51,-100.53 916.34,-96.1"/>
<polygon fill="midnightblue" stroke="midnightblue" points="352.29,-242.4 358.89,-250.69 358.9,-240.09 352.29,-242.4"/>
</g>
<!-- Node6 -->
<g id="node6" class="node">
<title>Node6</title>
<g id="a_node6"><a xlink:href="../../d5/da5/tools_8h.html" target="_top" xlink:title=" ">
<polygon fill="white" stroke="black" points="925,-0.5 925,-30.5 1036,-30.5 1036,-0.5 925,-0.5"/>
<text text-anchor="start" x="933" y="-18.5" font-family="Helvetica,sans-Serif" font-size="10.00">src/libs/vtools/tools</text>
<text text-anchor="middle" x="980.5" y="-7.5" font-family="Helvetica,sans-Serif" font-size="10.00">/tools.h</text>
</a>
</g>
</g>
<!-- Node5&#45;&gt;Node6 -->
<g id="edge5" class="edge">
<title>Node5&#45;&gt;Node6</title>
<path fill="none" stroke="midnightblue" d="M980.5,-68.09C980.5,-55.76 980.5,-41.22 980.5,-30.73"/>
<polygon fill="midnightblue" stroke="midnightblue" points="977,-68.2 980.5,-78.2 984,-68.21 977,-68.2"/>
</g>
<!-- Node7&#45;&gt;Node5 -->
<g id="edge9" class="edge">
<title>Node7&#45;&gt;Node5</title>
<path fill="none" stroke="midnightblue" d="M608.93,-243.69C644.38,-210.31 700.68,-157.48 703.5,-156 770.97,-120.52 858.09,-105.47 916.45,-99.1"/>
<polygon fill="midnightblue" stroke="midnightblue" points="606.16,-241.49 601.28,-250.89 610.96,-246.58 606.16,-241.49"/>
</g>
<!-- Node7&#45;&gt;Node8 -->
<g id="edge8" class="edge">
<title>Node7&#45;&gt;Node8</title>
<path fill="none" stroke="midnightblue" d="M577.39,-240.44C576.11,-228.1 574.67,-214.16 573.53,-203.16"/>
<polygon fill="midnightblue" stroke="midnightblue" points="573.95,-241.17 578.46,-250.76 580.91,-240.45 573.95,-241.17"/>
</g>
<!-- Node9&#45;&gt;Node5 -->
<g id="edge12" class="edge">
<title>Node9&#45;&gt;Node5</title>
<path fill="none" stroke="midnightblue" d="M180.71,-240.98C171.75,-215.19 164.71,-178.46 185.5,-156 234.75,-102.79 735.81,-95.48 916.21,-94.58"/>
<polygon fill="midnightblue" stroke="midnightblue" points="177.53,-242.48 184.31,-250.61 184.08,-240.02 177.53,-242.48"/>
</g>
<!-- Node9&#45;&gt;Node10 -->
<g id="edge11" class="edge">
<title>Node9&#45;&gt;Node10</title>
<path fill="none" stroke="midnightblue" d="M213.27,-242.3C222.24,-229.52 232.61,-214.72 240.71,-203.16"/>
<polygon fill="midnightblue" stroke="midnightblue" points="210.22,-240.56 207.34,-250.76 215.95,-244.58 210.22,-240.56"/>
</g>
<!-- Node12&#45;&gt;Node5 -->
<g id="edge17" class="edge">
<title>Node12&#45;&gt;Node5</title>
<path fill="none" stroke="midnightblue" d="M709.78,-240.74C705.09,-215.34 703.24,-179.33 722.5,-156 746.83,-126.53 848.09,-109.42 916.28,-101.03"/>
<polygon fill="midnightblue" stroke="midnightblue" points="706.36,-241.49 711.82,-250.57 713.21,-240.06 706.36,-241.49"/>
</g>
<!-- Node12&#45;&gt;Node13 -->
<g id="edge18" class="edge">
<title>Node12&#45;&gt;Node13</title>
<path fill="none" stroke="midnightblue" d="M741.18,-243.03C752.34,-230.09 765.4,-214.94 775.55,-203.16"/>
<polygon fill="midnightblue" stroke="midnightblue" points="738.4,-240.9 734.52,-250.76 743.7,-245.47 738.4,-240.9"/>
</g>
<!-- Node14&#45;&gt;Node5 -->
<g id="edge21" class="edge">
<title>Node14&#45;&gt;Node5</title>
<path fill="none" stroke="midnightblue" d="M892.21,-240.63C888.67,-216.48 887.26,-182.3 900.5,-156 911.14,-134.88 932.8,-118.93 950.91,-108.57"/>
<polygon fill="midnightblue" stroke="midnightblue" points="888.78,-241.35 893.88,-250.64 895.68,-240.2 888.78,-241.35"/>
</g>
<!-- Node14&#45;&gt;Node11 -->
<g id="edge20" class="edge">
<title>Node14&#45;&gt;Node11</title>
<path fill="none" stroke="midnightblue" d="M924.04,-243.4C936.32,-230.37 950.76,-215.05 961.97,-203.16"/>
<polygon fill="midnightblue" stroke="midnightblue" points="921.42,-241.08 917.11,-250.76 926.51,-245.88 921.42,-241.08"/>
</g>
<!-- Node15&#45;&gt;Node5 -->
<g id="edge24" class="edge">
<title>Node15&#45;&gt;Node5</title>
<path fill="none" stroke="midnightblue" d="M1080.41,-240.69C1079.84,-216.3 1075.93,-181.75 1060.5,-156 1048.16,-135.41 1026.12,-119.25 1008.29,-108.67"/>
<polygon fill="midnightblue" stroke="midnightblue" points="1076.91,-240.81 1080.47,-250.79 1083.91,-240.77 1076.91,-240.81"/>
</g>
<!-- Node15&#45;&gt;Node16 -->
<g id="edge25" class="edge">
<title>Node15&#45;&gt;Node16</title>
<path fill="none" stroke="midnightblue" d="M1106.6,-243.4C1119.63,-230.37 1134.95,-215.05 1146.84,-203.16"/>
<polygon fill="midnightblue" stroke="midnightblue" points="1103.84,-241.21 1099.24,-250.76 1108.79,-246.16 1103.84,-241.21"/>
</g>
<!-- Node17&#45;&gt;Node5 -->
<g id="edge27" class="edge">
<title>Node17&#45;&gt;Node5</title>
<path fill="none" stroke="midnightblue" d="M1292.35,-242.4C1272.6,-210.41 1241.8,-161.82 1233.5,-156 1177.43,-116.68 1099.12,-102.36 1044.53,-97.22"/>
<polygon fill="midnightblue" stroke="midnightblue" points="1289.38,-244.25 1297.6,-250.93 1295.34,-240.58 1289.38,-244.25"/>
</g>
<!-- Node17&#45;&gt;Node18 -->
<g id="edge28" class="edge">
<title>Node17&#45;&gt;Node18</title>
<path fill="none" stroke="midnightblue" d="M1366.84,-247.19C1400.71,-233.42 1443.12,-216.18 1475.26,-203.11"/>
<polygon fill="midnightblue" stroke="midnightblue" points="1365.47,-243.97 1357.53,-250.98 1368.11,-250.45 1365.47,-243.97"/>
</g>
<!-- Node19 -->
<g id="node19" class="node">
<title>Node19</title>
<g id="a_node19"><a xlink:href="../../dc/d3d/movesplinepath_8cpp.html" target="_top" xlink:title=" ">
<polygon fill="white" stroke="black" points="1282,-167.5 1282,-197.5 1447,-197.5 1447,-167.5 1282,-167.5"/>
<text text-anchor="start" x="1290" y="-185.5" font-family="Helvetica,sans-Serif" font-size="10.00">src/libs/vtools/undocommands</text>
<text text-anchor="middle" x="1364.5" y="-174.5" font-family="Helvetica,sans-Serif" font-size="10.00">/movesplinepath.cpp</text>
</a>
</g>
</g>
<!-- Node17&#45;&gt;Node19 -->
<g id="edge29" class="edge">
<title>Node17&#45;&gt;Node19</title>
<path fill="none" stroke="midnightblue" d="M1327.55,-241.95C1336.91,-227.14 1347.94,-209.69 1355.5,-197.74"/>
<polygon fill="midnightblue" stroke="midnightblue" points="1324.37,-240.44 1321.98,-250.76 1330.28,-244.18 1324.37,-240.44"/>
</g>
<!-- Node21 -->
<g id="node21" class="node">
<title>Node21</title>
<g id="a_node21"><a xlink:href="../../d2/dc5/vtoolcut_8cpp.html" target="_top" xlink:title=" ">
<polygon fill="white" stroke="black" points="2118,-156.5 2118,-208.5 2247,-208.5 2247,-156.5 2118,-156.5"/>
<text text-anchor="start" x="2126" y="-196.5" font-family="Helvetica,sans-Serif" font-size="10.00">src/libs/vtools/tools</text>
<text text-anchor="start" x="2126" y="-185.5" font-family="Helvetica,sans-Serif" font-size="10.00">/drawTools/toolpoint</text>
<text text-anchor="start" x="2126" y="-174.5" font-family="Helvetica,sans-Serif" font-size="10.00">/toolsinglepoint/toolcut</text>
<text text-anchor="middle" x="2182.5" y="-163.5" font-family="Helvetica,sans-Serif" font-size="10.00">/vtoolcut.cpp</text>
</a>
</g>
</g>
<!-- Node20&#45;&gt;Node21 -->
<g id="edge33" class="edge">
<title>Node20&#45;&gt;Node21</title>
<path fill="none" stroke="midnightblue" d="M1997.99,-245.94C2031.76,-234.76 2072.17,-221.3 2108.5,-209 2111.59,-207.95 2114.75,-206.88 2117.94,-205.79"/>
<polygon fill="midnightblue" stroke="midnightblue" points="1996.59,-242.72 1988.2,-249.18 1998.79,-249.36 1996.59,-242.72"/>
</g>
<!-- Node22 -->
<g id="node22" class="node">
<title>Node22</title>
<g id="a_node22"><a xlink:href="../../d5/dbe/vtoolcutarc_8h.html" target="_top" xlink:title=" ">
<polygon fill="white" stroke="black" points="1747,-156.5 1747,-208.5 1876,-208.5 1876,-156.5 1747,-156.5"/>
<text text-anchor="start" x="1755" y="-196.5" font-family="Helvetica,sans-Serif" font-size="10.00">src/libs/vtools/tools</text>
<text text-anchor="start" x="1755" y="-185.5" font-family="Helvetica,sans-Serif" font-size="10.00">/drawTools/toolpoint</text>
<text text-anchor="start" x="1755" y="-174.5" font-family="Helvetica,sans-Serif" font-size="10.00">/toolsinglepoint/toolcut</text>
<text text-anchor="middle" x="1811.5" y="-163.5" font-family="Helvetica,sans-Serif" font-size="10.00">/vtoolcutarc.h</text>
</a>
</g>
</g>
<!-- Node20&#45;&gt;Node22 -->
<g id="edge34" class="edge">
<title>Node20&#45;&gt;Node22</title>
<path fill="none" stroke="midnightblue" d="M1882.86,-238.93C1870.02,-228.96 1856,-218.07 1843.82,-208.61"/>
<polygon fill="midnightblue" stroke="midnightblue" points="1881.06,-241.97 1891.1,-245.34 1885.35,-236.44 1881.06,-241.97"/>
</g>
<!-- Node23 -->
<g id="node23" class="node">
<title>Node23</title>
<g id="a_node23"><a xlink:href="../../dc/db5/vtoolcutarc_8cpp.html" target="_top" xlink:title=" ">
<polygon fill="white" stroke="black" points="1747,-67.5 1747,-119.5 1876,-119.5 1876,-67.5 1747,-67.5"/>
<text text-anchor="start" x="1755" y="-107.5" font-family="Helvetica,sans-Serif" font-size="10.00">src/libs/vtools/tools</text>
<text text-anchor="start" x="1755" y="-96.5" font-family="Helvetica,sans-Serif" font-size="10.00">/drawTools/toolpoint</text>
<text text-anchor="start" x="1755" y="-85.5" font-family="Helvetica,sans-Serif" font-size="10.00">/toolsinglepoint/toolcut</text>
<text text-anchor="middle" x="1811.5" y="-74.5" font-family="Helvetica,sans-Serif" font-size="10.00">/vtoolcutarc.cpp</text>
</a>
</g>
</g>
<!-- Node20&#45;&gt;Node23 -->
<g id="edge37" class="edge">
<title>Node20&#45;&gt;Node23</title>
<path fill="none" stroke="midnightblue" d="M1930.36,-235.16C1933.11,-211.13 1932.82,-179.55 1918.5,-156 1908.59,-139.71 1892.64,-127.31 1876.04,-118.07"/>
<polygon fill="midnightblue" stroke="midnightblue" points="1926.86,-234.9 1928.97,-245.28 1933.79,-235.85 1926.86,-234.9"/>
</g>
<!-- Node24 -->
<g id="node24" class="node">
<title>Node24</title>
<g id="a_node24"><a xlink:href="../../d7/dea/vtoolcutspline_8h.html" target="_top" xlink:title=" ">
<polygon fill="white" stroke="black" points="1600,-156.5 1600,-208.5 1729,-208.5 1729,-156.5 1600,-156.5"/>
<text text-anchor="start" x="1608" y="-196.5" font-family="Helvetica,sans-Serif" font-size="10.00">src/libs/vtools/tools</text>
<text text-anchor="start" x="1608" y="-185.5" font-family="Helvetica,sans-Serif" font-size="10.00">/drawTools/toolpoint</text>
<text text-anchor="start" x="1608" y="-174.5" font-family="Helvetica,sans-Serif" font-size="10.00">/toolsinglepoint/toolcut</text>
<text text-anchor="middle" x="1664.5" y="-163.5" font-family="Helvetica,sans-Serif" font-size="10.00">/vtoolcutspline.h</text>
</a>
</g>
</g>
<!-- Node20&#45;&gt;Node24 -->
<g id="edge38" class="edge">
<title>Node20&#45;&gt;Node24</title>
<path fill="none" stroke="midnightblue" d="M1848.98,-246.18C1814.94,-234.99 1774.14,-221.45 1737.5,-209 1734.83,-208.09 1732.11,-207.16 1729.36,-206.22"/>
<polygon fill="midnightblue" stroke="midnightblue" points="1848.26,-249.62 1858.85,-249.42 1850.44,-242.97 1848.26,-249.62"/>
</g>
<!-- Node25 -->
<g id="node25" class="node">
<title>Node25</title>
<g id="a_node25"><a xlink:href="../../da/dae/vtoolcutspline_8cpp.html" target="_top" xlink:title=" ">
<polygon fill="white" stroke="black" points="1600,-67.5 1600,-119.5 1729,-119.5 1729,-67.5 1600,-67.5"/>
<text text-anchor="start" x="1608" y="-107.5" font-family="Helvetica,sans-Serif" font-size="10.00">src/libs/vtools/tools</text>
<text text-anchor="start" x="1608" y="-96.5" font-family="Helvetica,sans-Serif" font-size="10.00">/drawTools/toolpoint</text>
<text text-anchor="start" x="1608" y="-85.5" font-family="Helvetica,sans-Serif" font-size="10.00">/toolsinglepoint/toolcut</text>
<text text-anchor="middle" x="1664.5" y="-74.5" font-family="Helvetica,sans-Serif" font-size="10.00">/vtoolcutspline.cpp</text>
</a>
</g>
</g>
<!-- Node20&#45;&gt;Node25 -->
<g id="edge41" class="edge">
<title>Node20&#45;&gt;Node25</title>
<path fill="none" stroke="midnightblue" d="M1920.38,-235.26C1916.26,-209.75 1906.69,-176.32 1884.5,-156 1834.89,-110.58 1801.99,-139.11 1737.5,-120 1734.8,-119.2 1732.05,-118.36 1729.27,-117.49"/>
<polygon fill="midnightblue" stroke="midnightblue" points="1916.93,-235.88 1921.79,-245.3 1923.87,-234.91 1916.93,-235.88"/>
</g>
<!-- Node26 -->
<g id="node26" class="node">
<title>Node26</title>
<g id="a_node26"><a xlink:href="../../d6/d9d/vtoolcutsplinepath_8h.html" target="_top" xlink:title=" ">
<polygon fill="white" stroke="black" points="1971,-156.5 1971,-208.5 2100,-208.5 2100,-156.5 1971,-156.5"/>
<text text-anchor="start" x="1979" y="-196.5" font-family="Helvetica,sans-Serif" font-size="10.00">src/libs/vtools/tools</text>
<text text-anchor="start" x="1979" y="-185.5" font-family="Helvetica,sans-Serif" font-size="10.00">/drawTools/toolpoint</text>
<text text-anchor="start" x="1979" y="-174.5" font-family="Helvetica,sans-Serif" font-size="10.00">/toolsinglepoint/toolcut</text>
<text text-anchor="middle" x="2035.5" y="-163.5" font-family="Helvetica,sans-Serif" font-size="10.00">/vtoolcutsplinepath.h</text>
</a>
</g>
</g>
<!-- Node20&#45;&gt;Node26 -->
<g id="edge42" class="edge">
<title>Node20&#45;&gt;Node26</title>
<path fill="none" stroke="midnightblue" d="M1964.14,-238.93C1976.98,-228.96 1991,-218.07 2003.18,-208.61"/>
<polygon fill="midnightblue" stroke="midnightblue" points="1961.65,-236.44 1955.9,-245.34 1965.94,-241.97 1961.65,-236.44"/>
</g>
<!-- Node28 -->
<g id="node28" class="node">
<title>Node28</title>
<g id="a_node28"><a xlink:href="../../d1/ddf/vtoolcutsplinepath_8cpp.html" target="_top" xlink:title=" ">
<polygon fill="white" stroke="black" points="2252,-67.5 2252,-119.5 2383,-119.5 2383,-67.5 2252,-67.5"/>
<text text-anchor="start" x="2260" y="-107.5" font-family="Helvetica,sans-Serif" font-size="10.00">src/libs/vtools/tools</text>
<text text-anchor="start" x="2260" y="-96.5" font-family="Helvetica,sans-Serif" font-size="10.00">/drawTools/toolpoint</text>
<text text-anchor="start" x="2260" y="-85.5" font-family="Helvetica,sans-Serif" font-size="10.00">/toolsinglepoint/toolcut</text>
<text text-anchor="middle" x="2317.5" y="-74.5" font-family="Helvetica,sans-Serif" font-size="10.00">/vtoolcutsplinepath.cpp</text>
</a>
</g>
</g>
<!-- Node20&#45;&gt;Node28 -->
<g id="edge47" class="edge">
<title>Node20&#45;&gt;Node28</title>
<path fill="none" stroke="midnightblue" d="M1998.3,-264.24C2083.56,-255.82 2216.33,-238.41 2256.5,-209 2286.3,-187.18 2302.96,-146.33 2311.08,-119.78"/>
<polygon fill="midnightblue" stroke="midnightblue" points="1997.76,-260.78 1988.14,-265.22 1998.44,-267.74 1997.76,-260.78"/>
</g>
<!-- Node22&#45;&gt;Node5 -->
<g id="edge35" class="edge">
<title>Node22&#45;&gt;Node5</title>
<path fill="none" stroke="midnightblue" d="M1736.79,-156.1C1477.06,-102.89 1174.31,-95.13 1044.58,-94.32"/>
<polygon fill="midnightblue" stroke="midnightblue" points="1736.28,-159.57 1746.79,-158.17 1737.71,-152.71 1736.28,-159.57"/>
</g>
<!-- Node22&#45;&gt;Node23 -->
<g id="edge36" class="edge">
<title>Node22&#45;&gt;Node23</title>
<path fill="none" stroke="midnightblue" d="M1811.5,-146.19C1811.5,-137.28 1811.5,-127.9 1811.5,-119.61"/>
<polygon fill="midnightblue" stroke="midnightblue" points="1808,-146.34 1811.5,-156.34 1815,-146.34 1808,-146.34"/>
</g>
<!-- Node24&#45;&gt;Node5 -->
<g id="edge39" class="edge">
<title>Node24&#45;&gt;Node5</title>
<path fill="none" stroke="midnightblue" d="M1589.84,-156.09C1387.16,-112.61 1155.25,-99.93 1044.94,-96.11"/>
<polygon fill="midnightblue" stroke="midnightblue" points="1589.26,-159.54 1599.77,-158.25 1590.74,-152.7 1589.26,-159.54"/>
</g>
<!-- Node24&#45;&gt;Node25 -->
<g id="edge40" class="edge">
<title>Node24&#45;&gt;Node25</title>
<path fill="none" stroke="midnightblue" d="M1664.5,-146.19C1664.5,-137.28 1664.5,-127.9 1664.5,-119.61"/>
<polygon fill="midnightblue" stroke="midnightblue" points="1661,-146.34 1664.5,-156.34 1668,-146.34 1661,-146.34"/>
</g>
<!-- Node26&#45;&gt;Node5 -->
<g id="edge43" class="edge">
<title>Node26&#45;&gt;Node5</title>
<path fill="none" stroke="midnightblue" d="M1960.81,-167.38C1936.55,-163.19 1909.45,-158.95 1884.5,-156 1570.69,-118.92 1192.76,-102.17 1044.55,-96.67"/>
<polygon fill="midnightblue" stroke="midnightblue" points="1960.22,-170.83 1970.67,-169.1 1961.42,-163.93 1960.22,-170.83"/>
</g>
<!-- Node27 -->
<g id="node27" class="node">
<title>Node27</title>
<g id="a_node27"><a xlink:href="../../da/d99/vtoolcurveintersectaxis_8cpp.html" target="_top" xlink:title=" ">
<polygon fill="white" stroke="black" points="1894,-67.5 1894,-119.5 2051,-119.5 2051,-67.5 1894,-67.5"/>
<text text-anchor="start" x="1902" y="-107.5" font-family="Helvetica,sans-Serif" font-size="10.00">src/libs/vtools/tools</text>
<text text-anchor="start" x="1902" y="-96.5" font-family="Helvetica,sans-Serif" font-size="10.00">/drawTools/toolpoint</text>
<text text-anchor="start" x="1902" y="-85.5" font-family="Helvetica,sans-Serif" font-size="10.00">/toolsinglepoint/toollinepoint</text>
<text text-anchor="middle" x="1972.5" y="-74.5" font-family="Helvetica,sans-Serif" font-size="10.00">/vtoolcurveintersectaxis.cpp</text>
</a>
</g>
</g>
<!-- Node26&#45;&gt;Node27 -->
<g id="edge44" class="edge">
<title>Node26&#45;&gt;Node27</title>
<path fill="none" stroke="midnightblue" d="M2011.4,-148.22C2004.52,-138.72 1997.14,-128.53 1990.68,-119.61"/>
<polygon fill="midnightblue" stroke="midnightblue" points="2008.58,-150.29 2017.28,-156.34 2014.25,-146.18 2008.58,-150.29"/>
</g>
<!-- Node26&#45;&gt;Node28 -->
<g id="edge45" class="edge">
<title>Node26&#45;&gt;Node28</title>
<path fill="none" stroke="midnightblue" d="M2110.14,-155.58C2169.17,-137.78 2186.49,-137.02 2242.5,-120 2245.53,-119.08 2248.61,-118.12 2251.73,-117.13"/>
<polygon fill="midnightblue" stroke="midnightblue" points="2108.84,-152.32 2100.3,-158.59 2110.88,-159.01 2108.84,-152.32"/>
</g>
<!-- Node29 -->
<g id="node29" class="node">
<title>Node29</title>
<g id="a_node29"><a xlink:href="../../d7/d3d/vistoolcutsplinepath_8cpp.html" target="_top" xlink:title=" ">
<polygon fill="white" stroke="black" points="2069.5,-78.5 2069.5,-108.5 2233.5,-108.5 2233.5,-78.5 2069.5,-78.5"/>
<text text-anchor="start" x="2077.5" y="-96.5" font-family="Helvetica,sans-Serif" font-size="10.00">src/libs/vtools/visualization</text>
<text text-anchor="middle" x="2151.5" y="-85.5" font-family="Helvetica,sans-Serif" font-size="10.00">/path/vistoolcutsplinepath.cpp</text>
</a>
</g>
</g>
<!-- Node26&#45;&gt;Node29 -->
<g id="edge46" class="edge">
<title>Node26&#45;&gt;Node29</title>
<path fill="none" stroke="midnightblue" d="M2077.3,-150.15C2096.31,-135.89 2117.86,-119.73 2132.81,-108.52"/>
<polygon fill="midnightblue" stroke="midnightblue" points="2074.95,-147.54 2069.05,-156.34 2079.15,-153.14 2074.95,-147.54"/>
</g>
</g>
</svg>
        <g id="navigator" transform="translate(0 0)" fill="#404254">
                <rect fill="#f2f5e9" fill-opacity="0.5" stroke="#606060" stroke-width=".5" x="0" y="0" width="60" height="60"/>
                <use id="zoomplus" xlink:href="#zoomPlus" x="17" y="9" onmousedown="handleZoom(evt,'in')"/>
                <use id="zoomminus" xlink:href="#zoomMin" x="42" y="9" onmousedown="handleZoom(evt,'out')"/>
                <use id="reset" xlink:href="#resetDef" x="30" y="36" onmousedown="handleReset()"/>
                <g id="arrowUp" xlink:href="#dirArrow" transform="translate(30 24)" onmousedown="handlePan(0,-1)">
                  <use xlink:href="#rim" fill="#404040">
                        <set attributeName="fill" to="#808080" begin="arrowUp.mouseover" end="arrowUp.mouseout"/>
                  </use>
                  <path fill="none" stroke="white" stroke-width="1.5" d="M0,-3.0v7 M-2.5,-0.5L0,-3.0L2.5,-0.5"/>
                </g>
                <g id="arrowRight" xlink:href="#dirArrow" transform="rotate(90) translate(36 -43)" onmousedown="handlePan(1,0)">
                  <use xlink:href="#rim" fill="#404040">
                        <set attributeName="fill" to="#808080" begin="arrowRight.mouseover" end="arrowRight.mouseout"/>
                  </use>
                  <path fill="none" stroke="white" stroke-width="1.5" d="M0,-3.0v7 M-2.5,-0.5L0,-3.0L2.5,-0.5"/>
                </g>
                <g id="arrowDown" xlink:href="#dirArrow" transform="rotate(180) translate(-30 -48)" onmousedown="handlePan(0,1)">
                  <use xlink:href="#rim" fill="#404040">
                        <set attributeName="fill" to="#808080" begin="arrowDown.mouseover" end="arrowDown.mouseout"/>
                  </use>
                  <path fill="none" stroke="white" stroke-width="1.5" d="M0,-3.0v7 M-2.5,-0.5L0,-3.0L2.5,-0.5"/>
                </g>
                <g id="arrowLeft" xlink:href="#dirArrow" transform="rotate(270) translate(-36 17)" onmousedown="handlePan(-1,0)">
                  <use xlink:href="#rim" fill="#404040">
                        <set attributeName="fill" to="#808080" begin="arrowLeft.mouseover" end="arrowLeft.mouseout"/>
                  </use>
                  <path fill="none" stroke="white" stroke-width="1.5" d="M0,-3.0v7 M-2.5,-0.5L0,-3.0L2.5,-0.5"/>
                </g>
        </g>
        <svg viewBox="0 0 15 15" width="100%" height="30px" preserveAspectRatio="xMaxYMin meet">
         <g id="arrow_out" transform="scale(0.3 0.3)">
          <a xlink:href="vabstractspline_8h__dep__incl_org.svg" target="_base">
           <rect id="button" ry="5" rx="5" y="6" x="6" height="38" width="38"
                fill="#f2f5e9" fill-opacity="0.5" stroke="#606060" stroke-width="1.0"/>
           <path id="arrow"
             d="M 11.500037,31.436501 C 11.940474,20.09759 22.043105,11.32322 32.158766,21.979434 L 37.068811,17.246167 C 37.068811,17.246167 37.088388,32 37.088388,32 L 22.160133,31.978069 C 22.160133,31.978069 26.997745,27.140456 26.997745,27.140456 C 18.528582,18.264221 13.291696,25.230495 11.500037,31.436501 z"
             style="fill:#404040;"/>
          </a>
         </g>
        </svg>
</svg>
