<?xml version="1.0" encoding="UTF-8" standalone="no"?>
<!DOCTYPE svg PUBLIC "-//W3C//DTD SVG 1.1//EN"
 "http://www.w3.org/Graphics/SVG/1.1/DTD/svg11.dtd">
<!-- Generated by graphviz version 2.43.0 (0)
 -->
<!-- Title: XMLBufBid Pages: 1 -->
<!--zoomable 1250 -->
<svg id="main" version="1.1" xmlns="http://www.w3.org/2000/svg" xmlns:xlink="http://www.w3.org/1999/xlink" xml:space="preserve" onload="init(evt)">
<style type="text/css"><![CDATA[
.edge:hover path { stroke: red; }
.edge:hover polygon { stroke: red; fill: red; }
]]></style>
<script type="text/javascript"><![CDATA[
var edges = document.getElementsByTagName('g');
if (edges && edges.length) {
  for (var i=0;i<edges.length;i++) {
    if (edges[i].id.substr(0,4)=='edge') {
      edges[i].setAttribute('class','edge');
    }
  }
}
]]></script>
        <defs>
                <circle id="rim" cx="0" cy="0" r="7"/>
                <circle id="rim2" cx="0" cy="0" r="3.5"/>
                <g id="zoomPlus">
                        <use xlink:href="#rim" fill="#404040">
                                <set attributeName="fill" to="#808080" begin="zoomplus.mouseover" end="zoomplus.mouseout"/>
                        </use>
                        <path d="M-4,0h8M0,-4v8" fill="none" stroke="white" stroke-width="1.5" pointer-events="none"/>
                </g>
                <g id="zoomMin">
                        <use xlink:href="#rim" fill="#404040">
                                <set attributeName="fill" to="#808080" begin="zoomminus.mouseover" end="zoomminus.mouseout"/>
                        </use>
                        <path d="M-4,0h8" fill="none" stroke="white" stroke-width="1.5" pointer-events="none"/>
                </g>
                <g id="dirArrow">
                        <path fill="none" stroke="white" stroke-width="1.5" d="M0,-3.0v7 M-2.5,-0.5L0,-3.0L2.5,-0.5"/>
                </g>
               <g id="resetDef">
                       <use xlink:href="#rim2" fill="#404040">
                               <set attributeName="fill" to="#808080" begin="reset.mouseover" end="reset.mouseout"/>
                       </use>
               </g>
        </defs>

<script type="text/javascript">
var viewWidth = 550;
var viewHeight = 1250;
var sectionId = 'dynsection-1';
</script>
<script xlink:href="../../svgpan.js"/>
<svg id="graph" class="graph">
<g id="viewport">
<title>XMLBufBid</title>
<polygon fill="white" stroke="transparent" points="-4,4 -4,-1246 545.5,-1246 545.5,4 -4,4"/>
<!-- Node1 -->
<g id="node1" class="node">
<title>Node1</title>
<g id="a_node1"><a xlink:title=" ">
<polygon fill="#bfbfbf" stroke="black" points="0,-0.5 0,-233.5 101,-233.5 101,-0.5 0,-0.5"/>
<text text-anchor="middle" x="50.5" y="-221.5" font-family="Helvetica,sans-Serif" font-size="10.00">XMLBufBid</text>
<polyline fill="none" stroke="black" points="0,-214.5 101,-214.5 "/>
<text text-anchor="middle" x="50.5" y="-202.5" font-family="Helvetica,sans-Serif" font-size="10.00"> </text>
<polyline fill="none" stroke="black" points="0,-195.5 101,-195.5 "/>
<text text-anchor="start" x="8" y="-183.5" font-family="Helvetica,sans-Serif" font-size="10.00">+ XMLBufBid()</text>
<text text-anchor="start" x="8" y="-172.5" font-family="Helvetica,sans-Serif" font-size="10.00">+ ~XMLBufBid()</text>
<text text-anchor="start" x="8" y="-161.5" font-family="Helvetica,sans-Serif" font-size="10.00">+ append()</text>
<text text-anchor="start" x="8" y="-150.5" font-family="Helvetica,sans-Serif" font-size="10.00">+ append()</text>
<text text-anchor="start" x="8" y="-139.5" font-family="Helvetica,sans-Serif" font-size="10.00">+ getBuffer()</text>
<text text-anchor="start" x="8" y="-128.5" font-family="Helvetica,sans-Serif" font-size="10.00">+ getBuffer()</text>
<text text-anchor="start" x="8" y="-117.5" font-family="Helvetica,sans-Serif" font-size="10.00">+ getRawBuffer()</text>
<text text-anchor="start" x="8" y="-106.5" font-family="Helvetica,sans-Serif" font-size="10.00">+ getRawBuffer()</text>
<text text-anchor="start" x="8" y="-95.5" font-family="Helvetica,sans-Serif" font-size="10.00">+ getLen()</text>
<text text-anchor="start" x="8" y="-84.5" font-family="Helvetica,sans-Serif" font-size="10.00">+ isEmpty()</text>
<text text-anchor="start" x="8" y="-73.5" font-family="Helvetica,sans-Serif" font-size="10.00">and 26 more...</text>
<text text-anchor="start" x="8" y="-62.5" font-family="Helvetica,sans-Serif" font-size="10.00">&#45; XMLBufBid()</text>
<text text-anchor="start" x="8" y="-51.5" font-family="Helvetica,sans-Serif" font-size="10.00">&#45; operator=()</text>
<text text-anchor="start" x="8" y="-40.5" font-family="Helvetica,sans-Serif" font-size="10.00">&#45; XMLBufBid()</text>
<text text-anchor="start" x="8" y="-29.5" font-family="Helvetica,sans-Serif" font-size="10.00">&#45; operator=()</text>
<text text-anchor="start" x="8" y="-18.5" font-family="Helvetica,sans-Serif" font-size="10.00">&#45; XMLBufBid()</text>
<text text-anchor="start" x="8" y="-7.5" font-family="Helvetica,sans-Serif" font-size="10.00">&#45; operator=()</text>
</a>
</g>
</g>
<!-- Node2 -->
<g id="node2" class="node">
<title>Node2</title>
<g id="a_node2"><a xlink:href="../../d5/d80/classXMemory.html" target="_top" xlink:title=" ">
<polygon fill="white" stroke="black" points="63.5,-860 63.5,-1214 173.5,-1214 173.5,-860 63.5,-860"/>
<text text-anchor="middle" x="118.5" y="-1202" font-family="Helvetica,sans-Serif" font-size="10.00">XMemory</text>
<polyline fill="none" stroke="black" points="63.5,-1195 173.5,-1195 "/>
<text text-anchor="middle" x="118.5" y="-1183" font-family="Helvetica,sans-Serif" font-size="10.00"> </text>
<polyline fill="none" stroke="black" points="63.5,-1176 173.5,-1176 "/>
<text text-anchor="start" x="71.5" y="-1164" font-family="Helvetica,sans-Serif" font-size="10.00">+ operator new()</text>
<text text-anchor="start" x="71.5" y="-1153" font-family="Helvetica,sans-Serif" font-size="10.00">+ operator new()</text>
<text text-anchor="start" x="71.5" y="-1142" font-family="Helvetica,sans-Serif" font-size="10.00">+ operator new()</text>
<text text-anchor="start" x="71.5" y="-1131" font-family="Helvetica,sans-Serif" font-size="10.00">+ operator delete()</text>
<text text-anchor="start" x="71.5" y="-1120" font-family="Helvetica,sans-Serif" font-size="10.00">+ operator delete()</text>
<text text-anchor="start" x="71.5" y="-1109" font-family="Helvetica,sans-Serif" font-size="10.00">+ operator delete()</text>
<text text-anchor="start" x="71.5" y="-1098" font-family="Helvetica,sans-Serif" font-size="10.00">+ operator new()</text>
<text text-anchor="start" x="71.5" y="-1087" font-family="Helvetica,sans-Serif" font-size="10.00">+ operator new()</text>
<text text-anchor="start" x="71.5" y="-1076" font-family="Helvetica,sans-Serif" font-size="10.00">+ operator new()</text>
<text text-anchor="start" x="71.5" y="-1065" font-family="Helvetica,sans-Serif" font-size="10.00">+ operator delete()</text>
<text text-anchor="start" x="71.5" y="-1054" font-family="Helvetica,sans-Serif" font-size="10.00">and 8 more...</text>
<text text-anchor="start" x="71.5" y="-1043" font-family="Helvetica,sans-Serif" font-size="10.00"># XMemory()</text>
<text text-anchor="start" x="71.5" y="-1032" font-family="Helvetica,sans-Serif" font-size="10.00"># XMemory()</text>
<text text-anchor="start" x="71.5" y="-1021" font-family="Helvetica,sans-Serif" font-size="10.00"># XMemory()</text>
<text text-anchor="start" x="71.5" y="-1010" font-family="Helvetica,sans-Serif" font-size="10.00">* operator new()</text>
<text text-anchor="start" x="71.5" y="-999" font-family="Helvetica,sans-Serif" font-size="10.00">* operator new()</text>
<text text-anchor="start" x="71.5" y="-988" font-family="Helvetica,sans-Serif" font-size="10.00">* operator new()</text>
<text text-anchor="start" x="71.5" y="-977" font-family="Helvetica,sans-Serif" font-size="10.00">* operator delete()</text>
<text text-anchor="start" x="71.5" y="-966" font-family="Helvetica,sans-Serif" font-size="10.00">* operator delete()</text>
<text text-anchor="start" x="71.5" y="-955" font-family="Helvetica,sans-Serif" font-size="10.00">* operator delete()</text>
<text text-anchor="start" x="71.5" y="-944" font-family="Helvetica,sans-Serif" font-size="10.00">* operator new()</text>
<text text-anchor="start" x="71.5" y="-933" font-family="Helvetica,sans-Serif" font-size="10.00">* operator new()</text>
<text text-anchor="start" x="71.5" y="-922" font-family="Helvetica,sans-Serif" font-size="10.00">* operator new()</text>
<text text-anchor="start" x="71.5" y="-911" font-family="Helvetica,sans-Serif" font-size="10.00">* operator delete()</text>
<text text-anchor="start" x="71.5" y="-900" font-family="Helvetica,sans-Serif" font-size="10.00">and 8 more...</text>
<text text-anchor="start" x="71.5" y="-889" font-family="Helvetica,sans-Serif" font-size="10.00">* XMemory()</text>
<text text-anchor="start" x="71.5" y="-878" font-family="Helvetica,sans-Serif" font-size="10.00">* XMemory()</text>
<text text-anchor="start" x="71.5" y="-867" font-family="Helvetica,sans-Serif" font-size="10.00">* XMemory()</text>
</a>
</g>
</g>
<!-- Node2&#45;&gt;Node1 -->
<g id="edge1" class="edge">
<title>Node2&#45;&gt;Node1</title>
<path fill="none" stroke="midnightblue" d="M93.59,-849.73C76.23,-665.26 56.33,-388.58 49.74,-233.67"/>
<polygon fill="none" stroke="midnightblue" points="90.12,-850.19 94.55,-859.82 97.09,-849.53 90.12,-850.19"/>
</g>
<!-- Node2&#45;&gt;Node1 -->
<g id="edge2" class="edge">
<title>Node2&#45;&gt;Node1</title>
<path fill="none" stroke="midnightblue" d="M104.7,-849.73C91.04,-665.26 70.54,-388.58 59.07,-233.67"/>
<polygon fill="none" stroke="midnightblue" points="101.22,-850.1 105.45,-859.82 108.2,-849.58 101.22,-850.1"/>
</g>
<!-- Node2&#45;&gt;Node1 -->
<g id="edge3" class="edge">
<title>Node2&#45;&gt;Node1</title>
<path fill="none" stroke="midnightblue" d="M115.81,-849.73C105.85,-665.26 84.76,-388.58 68.4,-233.67"/>
<polygon fill="none" stroke="midnightblue" points="112.32,-850.02 116.35,-859.82 119.31,-849.64 112.32,-850.02"/>
</g>
<!-- Node3 -->
<g id="node3" class="node">
<title>Node3</title>
<g id="a_node3"><a xlink:href="../../db/db7/classXMLBufferMgr.html" target="_top" xlink:title=" ">
<polygon fill="white" stroke="black" points="97,-281.5 97,-503.5 248,-503.5 248,-281.5 97,-281.5"/>
<text text-anchor="middle" x="172.5" y="-491.5" font-family="Helvetica,sans-Serif" font-size="10.00">XMLBufferMgr</text>
<polyline fill="none" stroke="black" points="97,-484.5 248,-484.5 "/>
<text text-anchor="middle" x="172.5" y="-472.5" font-family="Helvetica,sans-Serif" font-size="10.00"> </text>
<polyline fill="none" stroke="black" points="97,-465.5 248,-465.5 "/>
<text text-anchor="start" x="105" y="-453.5" font-family="Helvetica,sans-Serif" font-size="10.00">+ XMLBufferMgr()</text>
<text text-anchor="start" x="105" y="-442.5" font-family="Helvetica,sans-Serif" font-size="10.00">+ XMLBufferMgr()</text>
<text text-anchor="start" x="105" y="-431.5" font-family="Helvetica,sans-Serif" font-size="10.00">+ XMLBufferMgr()</text>
<text text-anchor="start" x="105" y="-420.5" font-family="Helvetica,sans-Serif" font-size="10.00">* fBufCount</text>
<text text-anchor="start" x="105" y="-409.5" font-family="Helvetica,sans-Serif" font-size="10.00">* ~XMLBufferMgr()</text>
<text text-anchor="start" x="105" y="-398.5" font-family="Helvetica,sans-Serif" font-size="10.00">* bidOnBuffer()</text>
<text text-anchor="start" x="105" y="-387.5" font-family="Helvetica,sans-Serif" font-size="10.00">* releaseBuffer()</text>
<text text-anchor="start" x="105" y="-376.5" font-family="Helvetica,sans-Serif" font-size="10.00">* getBufferCount()</text>
<text text-anchor="start" x="105" y="-365.5" font-family="Helvetica,sans-Serif" font-size="10.00">* getAvailableBufferCount()</text>
<text text-anchor="start" x="105" y="-354.5" font-family="Helvetica,sans-Serif" font-size="10.00">* ~XMLBufferMgr()</text>
<text text-anchor="start" x="105" y="-343.5" font-family="Helvetica,sans-Serif" font-size="10.00">* bidOnBuffer()</text>
<text text-anchor="start" x="105" y="-332.5" font-family="Helvetica,sans-Serif" font-size="10.00">* releaseBuffer()</text>
<text text-anchor="start" x="105" y="-321.5" font-family="Helvetica,sans-Serif" font-size="10.00">* getBufferCount()</text>
<text text-anchor="start" x="105" y="-310.5" font-family="Helvetica,sans-Serif" font-size="10.00">and 12 more...</text>
<text text-anchor="start" x="105" y="-299.5" font-family="Helvetica,sans-Serif" font-size="10.00">* XMLBufferMgr()</text>
<text text-anchor="start" x="105" y="-288.5" font-family="Helvetica,sans-Serif" font-size="10.00">* XMLBufferMgr()</text>
</a>
</g>
</g>
<!-- Node2&#45;&gt;Node3 -->
<g id="edge5" class="edge">
<title>Node2&#45;&gt;Node3</title>
<path fill="none" stroke="midnightblue" d="M121.79,-849.52C129.24,-737.49 141.53,-598.77 152.74,-503.93"/>
<polygon fill="none" stroke="midnightblue" points="118.29,-849.38 121.13,-859.58 125.28,-849.83 118.29,-849.38"/>
</g>
<!-- Node2&#45;&gt;Node3 -->
<g id="edge6" class="edge">
<title>Node2&#45;&gt;Node3</title>
<path fill="none" stroke="midnightblue" d="M134.17,-849.52C143.59,-737.49 155.25,-598.77 163.22,-503.93"/>
<polygon fill="none" stroke="midnightblue" points="130.68,-849.33 133.33,-859.58 137.65,-849.91 130.68,-849.33"/>
</g>
<!-- Node2&#45;&gt;Node3 -->
<g id="edge7" class="edge">
<title>Node2&#45;&gt;Node3</title>
<path fill="none" stroke="midnightblue" d="M146.56,-849.52C157.94,-737.49 168.97,-598.77 173.7,-503.93"/>
<polygon fill="none" stroke="midnightblue" points="143.06,-849.28 145.53,-859.58 150.03,-849.99 143.06,-849.28"/>
</g>
<!-- Node5 -->
<g id="node5" class="node">
<title>Node5</title>
<g id="a_node5"><a xlink:href="../../d9/d5a/classXMLBuffer.html" target="_top" xlink:title=" ">
<polygon fill="white" stroke="black" points="171,-551.5 171,-784.5 274,-784.5 274,-551.5 171,-551.5"/>
<text text-anchor="middle" x="222.5" y="-772.5" font-family="Helvetica,sans-Serif" font-size="10.00">XMLBuffer</text>
<polyline fill="none" stroke="black" points="171,-765.5 274,-765.5 "/>
<text text-anchor="middle" x="222.5" y="-753.5" font-family="Helvetica,sans-Serif" font-size="10.00"> </text>
<polyline fill="none" stroke="black" points="171,-746.5 274,-746.5 "/>
<text text-anchor="start" x="179" y="-734.5" font-family="Helvetica,sans-Serif" font-size="10.00">+ XMLBuffer()</text>
<text text-anchor="start" x="179" y="-723.5" font-family="Helvetica,sans-Serif" font-size="10.00">+ XMLBuffer()</text>
<text text-anchor="start" x="179" y="-712.5" font-family="Helvetica,sans-Serif" font-size="10.00">+ XMLBuffer()</text>
<text text-anchor="start" x="179" y="-701.5" font-family="Helvetica,sans-Serif" font-size="10.00">* XMLBufBid</text>
<text text-anchor="start" x="179" y="-690.5" font-family="Helvetica,sans-Serif" font-size="10.00">* fIndex</text>
<text text-anchor="start" x="179" y="-679.5" font-family="Helvetica,sans-Serif" font-size="10.00">* fCapacity</text>
<text text-anchor="start" x="179" y="-668.5" font-family="Helvetica,sans-Serif" font-size="10.00">* fFullSize</text>
<text text-anchor="start" x="179" y="-657.5" font-family="Helvetica,sans-Serif" font-size="10.00">* fUsed</text>
<text text-anchor="start" x="179" y="-646.5" font-family="Helvetica,sans-Serif" font-size="10.00">* fBuffer</text>
<text text-anchor="start" x="179" y="-635.5" font-family="Helvetica,sans-Serif" font-size="10.00">* ~XMLBuffer()</text>
<text text-anchor="start" x="179" y="-624.5" font-family="Helvetica,sans-Serif" font-size="10.00">* setFullHandler()</text>
<text text-anchor="start" x="179" y="-613.5" font-family="Helvetica,sans-Serif" font-size="10.00">* append()</text>
<text text-anchor="start" x="179" y="-602.5" font-family="Helvetica,sans-Serif" font-size="10.00">* append()</text>
<text text-anchor="start" x="179" y="-591.5" font-family="Helvetica,sans-Serif" font-size="10.00">and 47 more...</text>
<text text-anchor="start" x="179" y="-580.5" font-family="Helvetica,sans-Serif" font-size="10.00">* XMLBuffer()</text>
<text text-anchor="start" x="179" y="-569.5" font-family="Helvetica,sans-Serif" font-size="10.00">* XMLBuffer()</text>
<text text-anchor="start" x="179" y="-558.5" font-family="Helvetica,sans-Serif" font-size="10.00">* XMLBuffer()</text>
</a>
</g>
</g>
<!-- Node2&#45;&gt;Node5 -->
<g id="edge10" class="edge">
<title>Node2&#45;&gt;Node5</title>
<path fill="none" stroke="midnightblue" d="M157.75,-849.87C164.08,-827.6 170.66,-805.39 177.12,-784.53"/>
<polygon fill="none" stroke="midnightblue" points="154.3,-849.18 154.95,-859.76 161.04,-851.08 154.3,-849.18"/>
</g>
<!-- Node2&#45;&gt;Node5 -->
<g id="edge11" class="edge">
<title>Node2&#45;&gt;Node5</title>
<path fill="none" stroke="midnightblue" d="M171.25,-849.87C177.56,-827.6 183.85,-805.39 189.76,-784.53"/>
<polygon fill="none" stroke="midnightblue" points="167.8,-849.18 168.44,-859.76 174.54,-851.09 167.8,-849.18"/>
</g>
<!-- Node2&#45;&gt;Node5 -->
<g id="edge12" class="edge">
<title>Node2&#45;&gt;Node5</title>
<path fill="none" stroke="midnightblue" d="M176.42,-878.81C185.67,-847.21 194.69,-814.55 202.36,-784.68"/>
<polygon fill="none" stroke="midnightblue" points="173.01,-878 173.54,-888.58 179.73,-879.97 173.01,-878"/>
</g>
<!-- Node3&#45;&gt;Node1 -->
<g id="edge4" class="edge">
<title>Node3&#45;&gt;Node1</title>
<path fill="none" stroke="#404040" d="M123.41,-281.44C117.72,-268.7 111.89,-255.63 106.13,-242.71"/>
<polygon fill="none" stroke="#404040" points="105.98,-242.36 99.88,-238.51 101.09,-231.4 107.18,-235.25 105.98,-242.36"/>
<text text-anchor="middle" x="130.5" y="-255" font-family="Helvetica,sans-Serif" font-size="10.00"> &#45;fMgr</text>
</g>
<!-- Node4 -->
<g id="node4" class="node">
<title>Node4</title>
<g id="a_node4"><a xlink:href="../../d6/d9a/classMemoryManager.html" target="_top" xlink:title=" ">
<polygon fill="white" stroke="black" points="359.5,-832.5 359.5,-1241.5 541.5,-1241.5 541.5,-832.5 359.5,-832.5"/>
<text text-anchor="middle" x="450.5" y="-1229.5" font-family="Helvetica,sans-Serif" font-size="10.00">MemoryManager</text>
<polyline fill="none" stroke="black" points="359.5,-1222.5 541.5,-1222.5 "/>
<text text-anchor="middle" x="450.5" y="-1210.5" font-family="Helvetica,sans-Serif" font-size="10.00"> </text>
<polyline fill="none" stroke="black" points="359.5,-1203.5 541.5,-1203.5 "/>
<text text-anchor="start" x="367.5" y="-1191.5" font-family="Helvetica,sans-Serif" font-size="10.00">+ ~MemoryManager()</text>
<text text-anchor="start" x="367.5" y="-1180.5" font-family="Helvetica,sans-Serif" font-size="10.00">+ getExceptionMemoryManager()</text>
<text text-anchor="start" x="367.5" y="-1169.5" font-family="Helvetica,sans-Serif" font-size="10.00">+ ~MemoryManager()</text>
<text text-anchor="start" x="367.5" y="-1158.5" font-family="Helvetica,sans-Serif" font-size="10.00">+ getExceptionMemoryManager()</text>
<text text-anchor="start" x="367.5" y="-1147.5" font-family="Helvetica,sans-Serif" font-size="10.00">+ ~MemoryManager()</text>
<text text-anchor="start" x="367.5" y="-1136.5" font-family="Helvetica,sans-Serif" font-size="10.00">+ getExceptionMemoryManager()</text>
<text text-anchor="start" x="367.5" y="-1125.5" font-family="Helvetica,sans-Serif" font-size="10.00">+ allocate()</text>
<text text-anchor="start" x="367.5" y="-1114.5" font-family="Helvetica,sans-Serif" font-size="10.00">+ deallocate()</text>
<text text-anchor="start" x="367.5" y="-1103.5" font-family="Helvetica,sans-Serif" font-size="10.00">+ allocate()</text>
<text text-anchor="start" x="367.5" y="-1092.5" font-family="Helvetica,sans-Serif" font-size="10.00">+ deallocate()</text>
<text text-anchor="start" x="367.5" y="-1081.5" font-family="Helvetica,sans-Serif" font-size="10.00">+ allocate()</text>
<text text-anchor="start" x="367.5" y="-1070.5" font-family="Helvetica,sans-Serif" font-size="10.00">+ deallocate()</text>
<text text-anchor="start" x="367.5" y="-1059.5" font-family="Helvetica,sans-Serif" font-size="10.00">* ~MemoryManager()</text>
<text text-anchor="start" x="367.5" y="-1048.5" font-family="Helvetica,sans-Serif" font-size="10.00">* getExceptionMemoryManager()</text>
<text text-anchor="start" x="367.5" y="-1037.5" font-family="Helvetica,sans-Serif" font-size="10.00">* ~MemoryManager()</text>
<text text-anchor="start" x="367.5" y="-1026.5" font-family="Helvetica,sans-Serif" font-size="10.00">* getExceptionMemoryManager()</text>
<text text-anchor="start" x="367.5" y="-1015.5" font-family="Helvetica,sans-Serif" font-size="10.00">* ~MemoryManager()</text>
<text text-anchor="start" x="367.5" y="-1004.5" font-family="Helvetica,sans-Serif" font-size="10.00">* getExceptionMemoryManager()</text>
<text text-anchor="start" x="367.5" y="-993.5" font-family="Helvetica,sans-Serif" font-size="10.00">* allocate()</text>
<text text-anchor="start" x="367.5" y="-982.5" font-family="Helvetica,sans-Serif" font-size="10.00">* deallocate()</text>
<text text-anchor="start" x="367.5" y="-971.5" font-family="Helvetica,sans-Serif" font-size="10.00">* allocate()</text>
<text text-anchor="start" x="367.5" y="-960.5" font-family="Helvetica,sans-Serif" font-size="10.00">* deallocate()</text>
<text text-anchor="start" x="367.5" y="-949.5" font-family="Helvetica,sans-Serif" font-size="10.00">* allocate()</text>
<text text-anchor="start" x="367.5" y="-938.5" font-family="Helvetica,sans-Serif" font-size="10.00">* deallocate()</text>
<text text-anchor="start" x="367.5" y="-927.5" font-family="Helvetica,sans-Serif" font-size="10.00">* MemoryManager()</text>
<text text-anchor="start" x="367.5" y="-916.5" font-family="Helvetica,sans-Serif" font-size="10.00">* MemoryManager()</text>
<text text-anchor="start" x="367.5" y="-905.5" font-family="Helvetica,sans-Serif" font-size="10.00">* MemoryManager()</text>
<text text-anchor="start" x="367.5" y="-894.5" font-family="Helvetica,sans-Serif" font-size="10.00">* MemoryManager()</text>
<text text-anchor="start" x="367.5" y="-883.5" font-family="Helvetica,sans-Serif" font-size="10.00">* operator=()</text>
<text text-anchor="start" x="367.5" y="-872.5" font-family="Helvetica,sans-Serif" font-size="10.00">* MemoryManager()</text>
<text text-anchor="start" x="367.5" y="-861.5" font-family="Helvetica,sans-Serif" font-size="10.00">* operator=()</text>
<text text-anchor="start" x="367.5" y="-850.5" font-family="Helvetica,sans-Serif" font-size="10.00">* MemoryManager()</text>
<text text-anchor="start" x="367.5" y="-839.5" font-family="Helvetica,sans-Serif" font-size="10.00">* operator=()</text>
</a>
</g>
</g>
<!-- Node4&#45;&gt;Node3 -->
<g id="edge8" class="edge">
<title>Node4&#45;&gt;Node3</title>
<path fill="none" stroke="#404040" d="M442.21,-832.25C440.03,-822.28 437.48,-812.48 434.5,-803 395.39,-678.43 354.71,-660.44 283.5,-551 274.54,-537.24 264.94,-522.96 255.27,-508.88"/>
<polygon fill="none" stroke="#404040" points="255.04,-508.54 248.34,-505.87 248.22,-498.66 254.92,-501.33 255.04,-508.54"/>
<text text-anchor="middle" x="474.5" y="-665.5" font-family="Helvetica,sans-Serif" font-size="10.00"> &#45;fMemoryManager</text>
</g>
<!-- Node4&#45;&gt;Node5 -->
<g id="edge13" class="edge">
<title>Node4&#45;&gt;Node5</title>
<path fill="none" stroke="#404040" d="M359.35,-848.15C356.1,-842.67 352.81,-837.27 349.5,-832 329.45,-800.07 304.45,-766.88 281.95,-738.85"/>
<polygon fill="none" stroke="#404040" points="281.66,-738.49 274.78,-736.34 274.11,-729.16 280.99,-731.31 281.66,-738.49"/>
<text text-anchor="middle" x="383.5" y="-806" font-family="Helvetica,sans-Serif" font-size="10.00"> &#45;fMemoryManager</text>
</g>
<!-- Node5&#45;&gt;Node1 -->
<g id="edge15" class="edge">
<title>Node5&#45;&gt;Node1</title>
<path fill="none" stroke="#404040" d="M262.95,-551.13C283.76,-471.35 297.16,-365.02 256.5,-281 226.77,-219.55 161.38,-174.24 112.2,-147.2"/>
<polygon fill="none" stroke="#404040" points="111.91,-147.05 104.74,-147.74 101.34,-141.38 108.51,-140.69 111.91,-147.05"/>
<text text-anchor="middle" x="302.5" y="-390" font-family="Helvetica,sans-Serif" font-size="10.00"> &#45;fBuffer</text>
</g>
<!-- Node5&#45;&gt;Node3 -->
<g id="edge9" class="edge">
<title>Node5&#45;&gt;Node3</title>
<path fill="none" stroke="#404040" d="M201.37,-551.41C199.21,-539.6 197.01,-527.57 194.84,-515.7"/>
<polygon fill="none" stroke="#404040" points="194.84,-515.69 189.82,-510.51 192.68,-503.88 197.69,-509.07 194.84,-515.69"/>
<text text-anchor="middle" x="220" y="-525" font-family="Helvetica,sans-Serif" font-size="10.00"> &#45;fBufList</text>
</g>
<!-- Node6 -->
<g id="node6" class="node">
<title>Node6</title>
<g id="a_node6"><a xlink:href="../../d5/d3f/classXMLBufferFullHandler.html" target="_top" xlink:title=" ">
<polygon fill="white" stroke="black" points="192,-981 192,-1093 341,-1093 341,-981 192,-981"/>
<text text-anchor="middle" x="266.5" y="-1081" font-family="Helvetica,sans-Serif" font-size="10.00">XMLBufferFullHandler</text>
<polyline fill="none" stroke="black" points="192,-1074 341,-1074 "/>
<text text-anchor="middle" x="266.5" y="-1062" font-family="Helvetica,sans-Serif" font-size="10.00"> </text>
<polyline fill="none" stroke="black" points="192,-1055 341,-1055 "/>
<text text-anchor="start" x="200" y="-1043" font-family="Helvetica,sans-Serif" font-size="10.00">+ ~XMLBufferFullHandler()</text>
<text text-anchor="start" x="200" y="-1032" font-family="Helvetica,sans-Serif" font-size="10.00">+ bufferFull()</text>
<text text-anchor="start" x="200" y="-1021" font-family="Helvetica,sans-Serif" font-size="10.00">+ ~XMLBufferFullHandler()</text>
<text text-anchor="start" x="200" y="-1010" font-family="Helvetica,sans-Serif" font-size="10.00">+ bufferFull()</text>
<text text-anchor="start" x="200" y="-999" font-family="Helvetica,sans-Serif" font-size="10.00">+ ~XMLBufferFullHandler()</text>
<text text-anchor="start" x="200" y="-988" font-family="Helvetica,sans-Serif" font-size="10.00">+ bufferFull()</text>
</a>
</g>
</g>
<!-- Node6&#45;&gt;Node5 -->
<g id="edge14" class="edge">
<title>Node6&#45;&gt;Node5</title>
<path fill="none" stroke="#404040" d="M259.87,-980.66C254.05,-932.12 245.36,-859.7 237.83,-796.88"/>
<polygon fill="none" stroke="#404040" points="237.82,-796.77 233.13,-791.29 236.39,-784.86 241.08,-790.34 237.82,-796.77"/>
<text text-anchor="middle" x="273" y="-806" font-family="Helvetica,sans-Serif" font-size="10.00"> &#45;fFullHandler</text>
</g>
</g>
</svg>
        <g id="navigator" transform="translate(0 0)" fill="#404254">
                <rect fill="#f2f5e9" fill-opacity="0.5" stroke="#606060" stroke-width=".5" x="0" y="0" width="60" height="60"/>
                <use id="zoomplus" xlink:href="#zoomPlus" x="17" y="9" onmousedown="handleZoom(evt,'in')"/>
                <use id="zoomminus" xlink:href="#zoomMin" x="42" y="9" onmousedown="handleZoom(evt,'out')"/>
                <use id="reset" xlink:href="#resetDef" x="30" y="36" onmousedown="handleReset()"/>
                <g id="arrowUp" xlink:href="#dirArrow" transform="translate(30 24)" onmousedown="handlePan(0,-1)">
                  <use xlink:href="#rim" fill="#404040">
                        <set attributeName="fill" to="#808080" begin="arrowUp.mouseover" end="arrowUp.mouseout"/>
                  </use>
                  <path fill="none" stroke="white" stroke-width="1.5" d="M0,-3.0v7 M-2.5,-0.5L0,-3.0L2.5,-0.5"/>
                </g>
                <g id="arrowRight" xlink:href="#dirArrow" transform="rotate(90) translate(36 -43)" onmousedown="handlePan(1,0)">
                  <use xlink:href="#rim" fill="#404040">
                        <set attributeName="fill" to="#808080" begin="arrowRight.mouseover" end="arrowRight.mouseout"/>
                  </use>
                  <path fill="none" stroke="white" stroke-width="1.5" d="M0,-3.0v7 M-2.5,-0.5L0,-3.0L2.5,-0.5"/>
                </g>
                <g id="arrowDown" xlink:href="#dirArrow" transform="rotate(180) translate(-30 -48)" onmousedown="handlePan(0,1)">
                  <use xlink:href="#rim" fill="#404040">
                        <set attributeName="fill" to="#808080" begin="arrowDown.mouseover" end="arrowDown.mouseout"/>
                  </use>
                  <path fill="none" stroke="white" stroke-width="1.5" d="M0,-3.0v7 M-2.5,-0.5L0,-3.0L2.5,-0.5"/>
                </g>
                <g id="arrowLeft" xlink:href="#dirArrow" transform="rotate(270) translate(-36 17)" onmousedown="handlePan(-1,0)">
                  <use xlink:href="#rim" fill="#404040">
                        <set attributeName="fill" to="#808080" begin="arrowLeft.mouseover" end="arrowLeft.mouseout"/>
                  </use>
                  <path fill="none" stroke="white" stroke-width="1.5" d="M0,-3.0v7 M-2.5,-0.5L0,-3.0L2.5,-0.5"/>
                </g>
        </g>
        <svg viewBox="0 0 15 15" width="100%" height="30px" preserveAspectRatio="xMaxYMin meet">
         <g id="arrow_out" transform="scale(0.3 0.3)">
          <a xlink:href="classXMLBufBid__coll__graph_org.svg" target="_base">
           <rect id="button" ry="5" rx="5" y="6" x="6" height="38" width="38"
                fill="#f2f5e9" fill-opacity="0.5" stroke="#606060" stroke-width="1.0"/>
           <path id="arrow"
             d="M 11.500037,31.436501 C 11.940474,20.09759 22.043105,11.32322 32.158766,21.979434 L 37.068811,17.246167 C 37.068811,17.246167 37.088388,32 37.088388,32 L 22.160133,31.978069 C 22.160133,31.978069 26.997745,27.140456 26.997745,27.140456 C 18.528582,18.264221 13.291696,25.230495 11.500037,31.436501 z"
             style="fill:#404040;"/>
          </a>
         </g>
        </svg>
</svg>
