<?xml version="1.0" encoding="UTF-8" standalone="no"?>
<!DOCTYPE svg PUBLIC "-//W3C//DTD SVG 1.1//EN"
 "http://www.w3.org/Graphics/SVG/1.1/DTD/svg11.dtd">
<!-- Generated by graphviz version 2.43.0 (0)
 -->
<!-- Title: VisToolRotation Pages: 1 -->
<!--zoomable 1565 -->
<svg id="main" version="1.1" xmlns="http://www.w3.org/2000/svg" xmlns:xlink="http://www.w3.org/1999/xlink" xml:space="preserve" onload="init(evt)">
<style type="text/css"><![CDATA[
.edge:hover path { stroke: red; }
.edge:hover polygon { stroke: red; fill: red; }
]]></style>
<script type="text/javascript"><![CDATA[
var edges = document.getElementsByTagName('g');
if (edges && edges.length) {
  for (var i=0;i<edges.length;i++) {
    if (edges[i].id.substr(0,4)=='edge') {
      edges[i].setAttribute('class','edge');
    }
  }
}
]]></script>
        <defs>
                <circle id="rim" cx="0" cy="0" r="7"/>
                <circle id="rim2" cx="0" cy="0" r="3.5"/>
                <g id="zoomPlus">
                        <use xlink:href="#rim" fill="#404040">
                                <set attributeName="fill" to="#808080" begin="zoomplus.mouseover" end="zoomplus.mouseout"/>
                        </use>
                        <path d="M-4,0h8M0,-4v8" fill="none" stroke="white" stroke-width="1.5" pointer-events="none"/>
                </g>
                <g id="zoomMin">
                        <use xlink:href="#rim" fill="#404040">
                                <set attributeName="fill" to="#808080" begin="zoomminus.mouseover" end="zoomminus.mouseout"/>
                        </use>
                        <path d="M-4,0h8" fill="none" stroke="white" stroke-width="1.5" pointer-events="none"/>
                </g>
                <g id="dirArrow">
                        <path fill="none" stroke="white" stroke-width="1.5" d="M0,-3.0v7 M-2.5,-0.5L0,-3.0L2.5,-0.5"/>
                </g>
               <g id="resetDef">
                       <use xlink:href="#rim2" fill="#404040">
                               <set attributeName="fill" to="#808080" begin="reset.mouseover" end="reset.mouseout"/>
                       </use>
               </g>
        </defs>

<script type="text/javascript">
var viewWidth = 607;
var viewHeight = 1565;
var sectionId = 'dynsection-1';
</script>
<script xlink:href="../../svgpan.js"/>
<svg id="graph" class="graph">
<g id="viewport">
<title>VisToolRotation</title>
<polygon fill="white" stroke="transparent" points="-4,4 -4,-1561 603,-1561 603,4 -4,4"/>
<!-- Node1 -->
<g id="node1" class="node">
<title>Node1</title>
<g id="a_node1"><a xlink:title=" ">
<polygon fill="#bfbfbf" stroke="black" points="275,-0.5 275,-134.5 397,-134.5 397,-0.5 275,-0.5"/>
<text text-anchor="middle" x="336" y="-122.5" font-family="Helvetica,sans-Serif" font-size="10.00">VisToolRotation</text>
<polyline fill="none" stroke="black" points="275,-115.5 397,-115.5 "/>
<text text-anchor="start" x="283" y="-103.5" font-family="Helvetica,sans-Serif" font-size="10.00">&#45; angle</text>
<polyline fill="none" stroke="black" points="275,-96.5 397,-96.5 "/>
<text text-anchor="start" x="283" y="-84.5" font-family="Helvetica,sans-Serif" font-size="10.00">+ VisToolRotation()</text>
<text text-anchor="start" x="283" y="-73.5" font-family="Helvetica,sans-Serif" font-size="10.00">+ ~VisToolRotation()</text>
<text text-anchor="start" x="283" y="-62.5" font-family="Helvetica,sans-Serif" font-size="10.00">+ RefreshGeometry()</text>
<text text-anchor="start" x="283" y="-51.5" font-family="Helvetica,sans-Serif" font-size="10.00">+ SetOriginPointId()</text>
<text text-anchor="start" x="283" y="-40.5" font-family="Helvetica,sans-Serif" font-size="10.00">+ Angle()</text>
<text text-anchor="start" x="283" y="-29.5" font-family="Helvetica,sans-Serif" font-size="10.00">+ SetAngle()</text>
<text text-anchor="start" x="283" y="-18.5" font-family="Helvetica,sans-Serif" font-size="10.00">+ type()</text>
<text text-anchor="start" x="283" y="-7.5" font-family="Helvetica,sans-Serif" font-size="10.00">&#45; AddCurve()</text>
</a>
</g>
</g>
<!-- Node2 -->
<g id="node2" class="node">
<title>Node2</title>
<g id="a_node2"><a xlink:href="../../d7/dba/classVisOperation.html" target="_top" xlink:title=" ">
<polygon fill="white" stroke="black" points="129,-182.5 129,-371.5 277,-371.5 277,-182.5 129,-182.5"/>
<text text-anchor="middle" x="203" y="-359.5" font-family="Helvetica,sans-Serif" font-size="10.00">VisOperation</text>
<polyline fill="none" stroke="black" points="129,-352.5 277,-352.5 "/>
<text text-anchor="start" x="137" y="-340.5" font-family="Helvetica,sans-Serif" font-size="10.00"># objects</text>
<text text-anchor="start" x="137" y="-329.5" font-family="Helvetica,sans-Serif" font-size="10.00"># supportColor2</text>
<text text-anchor="start" x="137" y="-318.5" font-family="Helvetica,sans-Serif" font-size="10.00"># supportColor3</text>
<text text-anchor="start" x="137" y="-307.5" font-family="Helvetica,sans-Serif" font-size="10.00"># points</text>
<text text-anchor="start" x="137" y="-296.5" font-family="Helvetica,sans-Serif" font-size="10.00"># curves</text>
<polyline fill="none" stroke="black" points="129,-289.5 277,-289.5 "/>
<text text-anchor="start" x="137" y="-277.5" font-family="Helvetica,sans-Serif" font-size="10.00">+ VisOperation()</text>
<text text-anchor="start" x="137" y="-266.5" font-family="Helvetica,sans-Serif" font-size="10.00">+ ~VisOperation()</text>
<text text-anchor="start" x="137" y="-255.5" font-family="Helvetica,sans-Serif" font-size="10.00">+ setObjects()</text>
<text text-anchor="start" x="137" y="-244.5" font-family="Helvetica,sans-Serif" font-size="10.00">+ VisualMode()</text>
<text text-anchor="start" x="137" y="-233.5" font-family="Helvetica,sans-Serif" font-size="10.00">+ type()</text>
<text text-anchor="start" x="137" y="-222.5" font-family="Helvetica,sans-Serif" font-size="10.00"># GetPoint()</text>
<text text-anchor="start" x="137" y="-211.5" font-family="Helvetica,sans-Serif" font-size="10.00"># GetCurve()</text>
<text text-anchor="start" x="137" y="-200.5" font-family="Helvetica,sans-Serif" font-size="10.00"># addFlippedCurve()</text>
<text text-anchor="start" x="137" y="-189.5" font-family="Helvetica,sans-Serif" font-size="10.00"># refreshMirroredObjects()</text>
</a>
</g>
</g>
<!-- Node2&#45;&gt;Node1 -->
<g id="edge1" class="edge">
<title>Node2&#45;&gt;Node1</title>
<path fill="none" stroke="midnightblue" d="M268.66,-173.56C277.17,-160.29 285.69,-146.99 293.67,-134.53"/>
<polygon fill="none" stroke="midnightblue" points="265.53,-171.96 263.08,-182.27 271.42,-175.74 265.53,-171.96"/>
</g>
<!-- Node3 -->
<g id="node3" class="node">
<title>Node3</title>
<g id="a_node3"><a xlink:href="../../de/d0e/classVisLine.html" target="_top" xlink:title=" ">
<polygon fill="white" stroke="black" points="154,-419.5 154,-586.5 252,-586.5 252,-419.5 154,-419.5"/>
<text text-anchor="middle" x="203" y="-574.5" font-family="Helvetica,sans-Serif" font-size="10.00">VisLine</text>
<polyline fill="none" stroke="black" points="154,-567.5 252,-567.5 "/>
<text text-anchor="middle" x="203" y="-555.5" font-family="Helvetica,sans-Serif" font-size="10.00"> </text>
<polyline fill="none" stroke="black" points="154,-548.5 252,-548.5 "/>
<text text-anchor="start" x="162" y="-536.5" font-family="Helvetica,sans-Serif" font-size="10.00">+ VisLine()</text>
<text text-anchor="start" x="162" y="-525.5" font-family="Helvetica,sans-Serif" font-size="10.00">+ ~VisLine()</text>
<text text-anchor="start" x="162" y="-514.5" font-family="Helvetica,sans-Serif" font-size="10.00">+ type()</text>
<text text-anchor="start" x="162" y="-503.5" font-family="Helvetica,sans-Serif" font-size="10.00">+ CorrectAngle()</text>
<text text-anchor="start" x="162" y="-492.5" font-family="Helvetica,sans-Serif" font-size="10.00"># Ray()</text>
<text text-anchor="start" x="162" y="-481.5" font-family="Helvetica,sans-Serif" font-size="10.00"># Ray()</text>
<text text-anchor="start" x="162" y="-470.5" font-family="Helvetica,sans-Serif" font-size="10.00"># Axis()</text>
<text text-anchor="start" x="162" y="-459.5" font-family="Helvetica,sans-Serif" font-size="10.00"># Axis()</text>
<text text-anchor="start" x="162" y="-448.5" font-family="Helvetica,sans-Serif" font-size="10.00"># initPen()</text>
<text text-anchor="start" x="162" y="-437.5" font-family="Helvetica,sans-Serif" font-size="10.00"># AddOnScene()</text>
<text text-anchor="start" x="162" y="-426.5" font-family="Helvetica,sans-Serif" font-size="10.00"># DrawRay()</text>
</a>
</g>
</g>
<!-- Node3&#45;&gt;Node2 -->
<g id="edge2" class="edge">
<title>Node3&#45;&gt;Node2</title>
<path fill="none" stroke="midnightblue" d="M203,-408.98C203,-396.69 203,-384.07 203,-371.76"/>
<polygon fill="none" stroke="midnightblue" points="199.5,-409.23 203,-419.23 206.5,-409.23 199.5,-409.23"/>
</g>
<!-- Node4 -->
<g id="node4" class="node">
<title>Node4</title>
<g id="a_node4"><a xlink:href="../../d7/d24/classVisualization.html" target="_top" xlink:title=" ">
<polygon fill="white" stroke="black" points="97,-624.5 97,-1077.5 219,-1077.5 219,-624.5 97,-624.5"/>
<text text-anchor="middle" x="158" y="-1065.5" font-family="Helvetica,sans-Serif" font-size="10.00">Visualization</text>
<polyline fill="none" stroke="black" points="97,-1058.5 219,-1058.5 "/>
<text text-anchor="start" x="105" y="-1046.5" font-family="Helvetica,sans-Serif" font-size="10.00"># scenePos</text>
<text text-anchor="start" x="105" y="-1035.5" font-family="Helvetica,sans-Serif" font-size="10.00"># mainColor</text>
<text text-anchor="start" x="105" y="-1024.5" font-family="Helvetica,sans-Serif" font-size="10.00"># supportColor</text>
<text text-anchor="start" x="105" y="-1013.5" font-family="Helvetica,sans-Serif" font-size="10.00"># lineStyle</text>
<text text-anchor="start" x="105" y="-1002.5" font-family="Helvetica,sans-Serif" font-size="10.00"># lineWeight</text>
<text text-anchor="start" x="105" y="-991.5" font-family="Helvetica,sans-Serif" font-size="10.00"># object1Id</text>
<text text-anchor="start" x="105" y="-980.5" font-family="Helvetica,sans-Serif" font-size="10.00"># toolTip</text>
<text text-anchor="start" x="105" y="-969.5" font-family="Helvetica,sans-Serif" font-size="10.00"># mode</text>
<polyline fill="none" stroke="black" points="97,-962.5 219,-962.5 "/>
<text text-anchor="start" x="105" y="-950.5" font-family="Helvetica,sans-Serif" font-size="10.00">+ Visualization()</text>
<text text-anchor="start" x="105" y="-939.5" font-family="Helvetica,sans-Serif" font-size="10.00">+ ~Visualization()</text>
<text text-anchor="start" x="105" y="-928.5" font-family="Helvetica,sans-Serif" font-size="10.00">+ RefreshGeometry()</text>
<text text-anchor="start" x="105" y="-917.5" font-family="Helvetica,sans-Serif" font-size="10.00">+ setObject1Id()</text>
<text text-anchor="start" x="105" y="-906.5" font-family="Helvetica,sans-Serif" font-size="10.00">+ setLineStyle()</text>
<text text-anchor="start" x="105" y="-895.5" font-family="Helvetica,sans-Serif" font-size="10.00">+ setLineWeight()</text>
<text text-anchor="start" x="105" y="-884.5" font-family="Helvetica,sans-Serif" font-size="10.00">+ setScenePos()</text>
<text text-anchor="start" x="105" y="-873.5" font-family="Helvetica,sans-Serif" font-size="10.00">+ VisualMode()</text>
<text text-anchor="start" x="105" y="-862.5" font-family="Helvetica,sans-Serif" font-size="10.00">+ setMainColor()</text>
<text text-anchor="start" x="105" y="-851.5" font-family="Helvetica,sans-Serif" font-size="10.00">+ getData()</text>
<text text-anchor="start" x="105" y="-840.5" font-family="Helvetica,sans-Serif" font-size="10.00">+ setData()</text>
<text text-anchor="start" x="105" y="-829.5" font-family="Helvetica,sans-Serif" font-size="10.00">+ GetMode()</text>
<text text-anchor="start" x="105" y="-818.5" font-family="Helvetica,sans-Serif" font-size="10.00">+ SetMode()</text>
<text text-anchor="start" x="105" y="-807.5" font-family="Helvetica,sans-Serif" font-size="10.00">+ CurrentToolTip()</text>
<text text-anchor="start" x="105" y="-796.5" font-family="Helvetica,sans-Serif" font-size="10.00">+ FindLength()</text>
<text text-anchor="start" x="105" y="-785.5" font-family="Helvetica,sans-Serif" font-size="10.00">+ FindVal()</text>
<text text-anchor="start" x="105" y="-774.5" font-family="Helvetica,sans-Serif" font-size="10.00">+ mousePos()</text>
<text text-anchor="start" x="105" y="-763.5" font-family="Helvetica,sans-Serif" font-size="10.00"># initPen()</text>
<text text-anchor="start" x="105" y="-752.5" font-family="Helvetica,sans-Serif" font-size="10.00"># AddOnScene()</text>
<text text-anchor="start" x="105" y="-741.5" font-family="Helvetica,sans-Serif" font-size="10.00"># InitPoint()</text>
<text text-anchor="start" x="105" y="-730.5" font-family="Helvetica,sans-Serif" font-size="10.00"># DrawPoint()</text>
<text text-anchor="start" x="105" y="-719.5" font-family="Helvetica,sans-Serif" font-size="10.00"># DrawLine()</text>
<text text-anchor="start" x="105" y="-708.5" font-family="Helvetica,sans-Serif" font-size="10.00"># DrawPath()</text>
<text text-anchor="start" x="105" y="-697.5" font-family="Helvetica,sans-Serif" font-size="10.00"># DrawPath()</text>
<text text-anchor="start" x="105" y="-686.5" font-family="Helvetica,sans-Serif" font-size="10.00"># drawArrowedLine()</text>
<text text-anchor="start" x="105" y="-675.5" font-family="Helvetica,sans-Serif" font-size="10.00"># drawArrow()</text>
<text text-anchor="start" x="105" y="-664.5" font-family="Helvetica,sans-Serif" font-size="10.00"># addItem()</text>
<text text-anchor="start" x="105" y="-653.5" font-family="Helvetica,sans-Serif" font-size="10.00"># InitItem()</text>
<text text-anchor="start" x="105" y="-642.5" font-family="Helvetica,sans-Serif" font-size="10.00"># GetPointItem()</text>
<text text-anchor="start" x="105" y="-631.5" font-family="Helvetica,sans-Serif" font-size="10.00">&#45; initPointItem()</text>
</a>
</g>
</g>
<!-- Node4&#45;&gt;Node3 -->
<g id="edge3" class="edge">
<title>Node4&#45;&gt;Node3</title>
<path fill="none" stroke="midnightblue" d="M188.68,-614.12C189.9,-604.69 191.09,-595.55 192.23,-586.84"/>
<polygon fill="none" stroke="midnightblue" points="185.21,-613.68 187.39,-624.04 192.15,-614.58 185.21,-613.68"/>
</g>
<!-- Node5 -->
<g id="node5" class="node">
<title>Node5</title>
<g id="a_node5"><a xlink:title=" ">
<polygon fill="white" stroke="#bfbfbf" points="0,-1312.5 0,-1369.5 56,-1369.5 56,-1312.5 0,-1312.5"/>
<text text-anchor="middle" x="28" y="-1357.5" font-family="Helvetica,sans-Serif" font-size="10.00">QObject</text>
<polyline fill="none" stroke="#bfbfbf" points="0,-1350.5 56,-1350.5 "/>
<text text-anchor="middle" x="28" y="-1338.5" font-family="Helvetica,sans-Serif" font-size="10.00"> </text>
<polyline fill="none" stroke="#bfbfbf" points="0,-1331.5 56,-1331.5 "/>
<text text-anchor="middle" x="28" y="-1319.5" font-family="Helvetica,sans-Serif" font-size="10.00"> </text>
</a>
</g>
</g>
<!-- Node5&#45;&gt;Node4 -->
<g id="edge4" class="edge">
<title>Node5&#45;&gt;Node4</title>
<path fill="none" stroke="midnightblue" d="M32.67,-1302.14C38.43,-1258.9 49.41,-1186.2 65,-1125 73.96,-1089.82 85.3,-1052.67 96.96,-1017.49"/>
<polygon fill="none" stroke="midnightblue" points="29.18,-1301.85 31.35,-1312.22 36.12,-1302.75 29.18,-1301.85"/>
</g>
<!-- Node6 -->
<g id="node6" class="node">
<title>Node6</title>
<g id="a_node6"><a xlink:href="../../d2/d83/classVContainer.html" target="_top" xlink:title="Manages a collection of geometric objects, pieces, paths, and variables.">
<polygon fill="white" stroke="black" points="74,-1125.5 74,-1556.5 242,-1556.5 242,-1125.5 74,-1125.5"/>
<text text-anchor="middle" x="158" y="-1544.5" font-family="Helvetica,sans-Serif" font-size="10.00">VContainer</text>
<polyline fill="none" stroke="black" points="74,-1537.5 242,-1537.5 "/>
<text text-anchor="start" x="82" y="-1525.5" font-family="Helvetica,sans-Serif" font-size="10.00">&#45; d</text>
<text text-anchor="start" x="82" y="-1514.5" font-family="Helvetica,sans-Serif" font-size="10.00">&#45; _id</text>
<text text-anchor="start" x="82" y="-1503.5" font-family="Helvetica,sans-Serif" font-size="10.00">&#45; _size</text>
<text text-anchor="start" x="82" y="-1492.5" font-family="Helvetica,sans-Serif" font-size="10.00">&#45; _height</text>
<text text-anchor="start" x="82" y="-1481.5" font-family="Helvetica,sans-Serif" font-size="10.00">&#45; uniqueNames</text>
<polyline fill="none" stroke="black" points="74,-1474.5 242,-1474.5 "/>
<text text-anchor="start" x="82" y="-1462.5" font-family="Helvetica,sans-Serif" font-size="10.00">+ VContainer()</text>
<text text-anchor="start" x="82" y="-1451.5" font-family="Helvetica,sans-Serif" font-size="10.00">+ VContainer()</text>
<text text-anchor="start" x="82" y="-1440.5" font-family="Helvetica,sans-Serif" font-size="10.00">+ ~VContainer()</text>
<text text-anchor="start" x="82" y="-1429.5" font-family="Helvetica,sans-Serif" font-size="10.00">+ operator=()</text>
<text text-anchor="start" x="82" y="-1418.5" font-family="Helvetica,sans-Serif" font-size="10.00">+ Swap()</text>
<text text-anchor="start" x="82" y="-1407.5" font-family="Helvetica,sans-Serif" font-size="10.00">+ GeometricObject()</text>
<text text-anchor="start" x="82" y="-1396.5" font-family="Helvetica,sans-Serif" font-size="10.00">+ GetGObject()</text>
<text text-anchor="start" x="82" y="-1385.5" font-family="Helvetica,sans-Serif" font-size="10.00">+ GetPiece()</text>
<text text-anchor="start" x="82" y="-1374.5" font-family="Helvetica,sans-Serif" font-size="10.00">+ GetPiecePath()</text>
<text text-anchor="start" x="82" y="-1363.5" font-family="Helvetica,sans-Serif" font-size="10.00">+ getVariable()</text>
<text text-anchor="start" x="82" y="-1352.5" font-family="Helvetica,sans-Serif" font-size="10.00">and 34 more...</text>
<text text-anchor="start" x="82" y="-1341.5" font-family="Helvetica,sans-Serif" font-size="10.00">+ GetFakeGObject()</text>
<text text-anchor="start" x="82" y="-1330.5" font-family="Helvetica,sans-Serif" font-size="10.00">+ getId()</text>
<text text-anchor="start" x="82" y="-1319.5" font-family="Helvetica,sans-Serif" font-size="10.00">+ getNextId()</text>
<text text-anchor="start" x="82" y="-1308.5" font-family="Helvetica,sans-Serif" font-size="10.00">+ UpdateId()</text>
<text text-anchor="start" x="82" y="-1297.5" font-family="Helvetica,sans-Serif" font-size="10.00">+ ClearUniqueNames()</text>
<text text-anchor="start" x="82" y="-1286.5" font-family="Helvetica,sans-Serif" font-size="10.00">+ clearUniqueVariableNames()</text>
<text text-anchor="start" x="82" y="-1275.5" font-family="Helvetica,sans-Serif" font-size="10.00">+ setSize()</text>
<text text-anchor="start" x="82" y="-1264.5" font-family="Helvetica,sans-Serif" font-size="10.00">+ setHeight()</text>
<text text-anchor="start" x="82" y="-1253.5" font-family="Helvetica,sans-Serif" font-size="10.00">+ size()</text>
<text text-anchor="start" x="82" y="-1242.5" font-family="Helvetica,sans-Serif" font-size="10.00">+ rsize()</text>
<text text-anchor="start" x="82" y="-1231.5" font-family="Helvetica,sans-Serif" font-size="10.00">+ height()</text>
<text text-anchor="start" x="82" y="-1220.5" font-family="Helvetica,sans-Serif" font-size="10.00">+ rheight()</text>
<text text-anchor="start" x="82" y="-1209.5" font-family="Helvetica,sans-Serif" font-size="10.00">+ IsUnique()</text>
<text text-anchor="start" x="82" y="-1198.5" font-family="Helvetica,sans-Serif" font-size="10.00">+ AllUniqueNames()</text>
<text text-anchor="start" x="82" y="-1187.5" font-family="Helvetica,sans-Serif" font-size="10.00">&#45; AddCurve()</text>
<text text-anchor="start" x="82" y="-1176.5" font-family="Helvetica,sans-Serif" font-size="10.00">&#45; qHash()</text>
<text text-anchor="start" x="82" y="-1165.5" font-family="Helvetica,sans-Serif" font-size="10.00">&#45; GetObject()</text>
<text text-anchor="start" x="82" y="-1154.5" font-family="Helvetica,sans-Serif" font-size="10.00">&#45; UpdateObject()</text>
<text text-anchor="start" x="82" y="-1143.5" font-family="Helvetica,sans-Serif" font-size="10.00">&#45; DataVar()</text>
<text text-anchor="start" x="82" y="-1132.5" font-family="Helvetica,sans-Serif" font-size="10.00">&#45; AddObject()</text>
</a>
</g>
</g>
<!-- Node6&#45;&gt;Node4 -->
<g id="edge5" class="edge">
<title>Node6&#45;&gt;Node4</title>
<path fill="none" stroke="#404040" d="M158,-1125.25C158,-1113.57 158,-1101.81 158,-1090.07"/>
<polygon fill="none" stroke="#404040" points="158,-1089.84 154,-1083.84 158,-1077.84 162,-1083.84 158,-1089.84"/>
<text text-anchor="middle" x="175" y="-1099" font-family="Helvetica,sans-Serif" font-size="10.00"> #data</text>
</g>
<!-- Node7 -->
<g id="node7" class="node">
<title>Node7</title>
<g id="a_node7"><a xlink:href="../../dd/da2/classVScaledLine.html" target="_top" xlink:title=" ">
<polygon fill="white" stroke="black" points="247,-789.5 247,-912.5 363,-912.5 363,-789.5 247,-789.5"/>
<text text-anchor="middle" x="305" y="-900.5" font-family="Helvetica,sans-Serif" font-size="10.00">VScaledLine</text>
<polyline fill="none" stroke="black" points="247,-893.5 363,-893.5 "/>
<text text-anchor="start" x="255" y="-881.5" font-family="Helvetica,sans-Serif" font-size="10.00">&#45; m_defaultWidth</text>
<polyline fill="none" stroke="black" points="247,-874.5 363,-874.5 "/>
<text text-anchor="start" x="255" y="-862.5" font-family="Helvetica,sans-Serif" font-size="10.00">+ VScaledLine()</text>
<text text-anchor="start" x="255" y="-851.5" font-family="Helvetica,sans-Serif" font-size="10.00">+ VScaledLine()</text>
<text text-anchor="start" x="255" y="-840.5" font-family="Helvetica,sans-Serif" font-size="10.00">+ ~VScaledLine()</text>
<text text-anchor="start" x="255" y="-829.5" font-family="Helvetica,sans-Serif" font-size="10.00">+ type()</text>
<text text-anchor="start" x="255" y="-818.5" font-family="Helvetica,sans-Serif" font-size="10.00">+ paint()</text>
<text text-anchor="start" x="255" y="-807.5" font-family="Helvetica,sans-Serif" font-size="10.00">+ getDefaultWidth()</text>
<text text-anchor="start" x="255" y="-796.5" font-family="Helvetica,sans-Serif" font-size="10.00">+ setDefaultWidth()</text>
</a>
</g>
</g>
<!-- Node7&#45;&gt;Node1 -->
<g id="edge12" class="edge">
<title>Node7&#45;&gt;Node1</title>
<path fill="none" stroke="#404040" d="M305.17,-789.14C305.83,-671.64 309.03,-405.42 324,-182 324.76,-170.63 325.79,-158.64 326.92,-146.88"/>
<polygon fill="none" stroke="#404040" points="326.94,-146.68 323.55,-140.32 328.13,-134.74 331.51,-141.11 326.94,-146.68"/>
<text text-anchor="middle" x="331" y="-393" font-family="Helvetica,sans-Serif" font-size="10.00"> &#45;xAxis</text>
</g>
<!-- Node7&#45;&gt;Node3 -->
<g id="edge6" class="edge">
<title>Node7&#45;&gt;Node3</title>
<path fill="none" stroke="midnightblue" d="M284.22,-779.53C267.76,-723.68 244.72,-645.52 227.38,-586.71"/>
<polygon fill="none" stroke="midnightblue" points="280.93,-780.73 287.12,-789.34 287.65,-778.75 280.93,-780.73"/>
</g>
<!-- Node8 -->
<g id="node8" class="node">
<title>Node8</title>
<g id="a_node8"><a xlink:title=" ">
<polygon fill="white" stroke="#bfbfbf" points="260,-1312.5 260,-1369.5 370,-1369.5 370,-1312.5 260,-1312.5"/>
<text text-anchor="middle" x="315" y="-1357.5" font-family="Helvetica,sans-Serif" font-size="10.00">QGraphicsLineItem</text>
<polyline fill="none" stroke="#bfbfbf" points="260,-1350.5 370,-1350.5 "/>
<text text-anchor="middle" x="315" y="-1338.5" font-family="Helvetica,sans-Serif" font-size="10.00"> </text>
<polyline fill="none" stroke="#bfbfbf" points="260,-1331.5 370,-1331.5 "/>
<text text-anchor="middle" x="315" y="-1319.5" font-family="Helvetica,sans-Serif" font-size="10.00"> </text>
</a>
</g>
</g>
<!-- Node8&#45;&gt;Node7 -->
<g id="edge7" class="edge">
<title>Node8&#45;&gt;Node7</title>
<path fill="none" stroke="midnightblue" d="M314.23,-1302.25C312.5,-1218.17 308.34,-1014.9 306.24,-912.74"/>
<polygon fill="none" stroke="midnightblue" points="310.73,-1302.44 314.43,-1312.36 317.73,-1302.3 310.73,-1302.44"/>
</g>
<!-- Node9 -->
<g id="node9" class="node">
<title>Node9</title>
<g id="a_node9"><a xlink:href="../../d3/d85/classVCurvePathItem.html" target="_top" xlink:title=" ">
<polygon fill="white" stroke="black" points="333.5,-204.5 333.5,-349.5 462.5,-349.5 462.5,-204.5 333.5,-204.5"/>
<text text-anchor="middle" x="398" y="-337.5" font-family="Helvetica,sans-Serif" font-size="10.00">VCurvePathItem</text>
<polyline fill="none" stroke="black" points="333.5,-330.5 462.5,-330.5 "/>
<text text-anchor="start" x="341.5" y="-318.5" font-family="Helvetica,sans-Serif" font-size="10.00">&#45; m_directionArrows</text>
<text text-anchor="start" x="341.5" y="-307.5" font-family="Helvetica,sans-Serif" font-size="10.00">&#45; m_points</text>
<polyline fill="none" stroke="black" points="333.5,-300.5 462.5,-300.5 "/>
<text text-anchor="start" x="341.5" y="-288.5" font-family="Helvetica,sans-Serif" font-size="10.00">+ VCurvePathItem()</text>
<text text-anchor="start" x="341.5" y="-277.5" font-family="Helvetica,sans-Serif" font-size="10.00">+ ~VCurvePathItem()</text>
<text text-anchor="start" x="341.5" y="-266.5" font-family="Helvetica,sans-Serif" font-size="10.00">+ shape()</text>
<text text-anchor="start" x="341.5" y="-255.5" font-family="Helvetica,sans-Serif" font-size="10.00">+ paint()</text>
<text text-anchor="start" x="341.5" y="-244.5" font-family="Helvetica,sans-Serif" font-size="10.00">+ type()</text>
<text text-anchor="start" x="341.5" y="-233.5" font-family="Helvetica,sans-Serif" font-size="10.00">+ SetDirectionArrows()</text>
<text text-anchor="start" x="341.5" y="-222.5" font-family="Helvetica,sans-Serif" font-size="10.00">+ SetPoints()</text>
<text text-anchor="start" x="341.5" y="-211.5" font-family="Helvetica,sans-Serif" font-size="10.00"># ScalePenWidth()</text>
</a>
</g>
</g>
<!-- Node9&#45;&gt;Node1 -->
<g id="edge8" class="edge">
<title>Node9&#45;&gt;Node1</title>
<path fill="none" stroke="#404040" d="M376.58,-204.3C370.98,-185.58 364.93,-165.31 359.24,-146.29"/>
<polygon fill="none" stroke="#404040" points="359.19,-146.13 353.64,-141.52 355.76,-134.63 361.31,-139.23 359.19,-146.13"/>
<text text-anchor="middle" x="389" y="-156" font-family="Helvetica,sans-Serif" font-size="10.00"> &#45;angleArc</text>
</g>
<!-- Node10 -->
<g id="node10" class="node">
<title>Node10</title>
<g id="a_node10"><a xlink:title=" ">
<polygon fill="white" stroke="#bfbfbf" points="343,-474.5 343,-531.5 453,-531.5 453,-474.5 343,-474.5"/>
<text text-anchor="middle" x="398" y="-519.5" font-family="Helvetica,sans-Serif" font-size="10.00">QGraphicsPathItem</text>
<polyline fill="none" stroke="#bfbfbf" points="343,-512.5 453,-512.5 "/>
<text text-anchor="middle" x="398" y="-500.5" font-family="Helvetica,sans-Serif" font-size="10.00"> </text>
<polyline fill="none" stroke="#bfbfbf" points="343,-493.5 453,-493.5 "/>
<text text-anchor="middle" x="398" y="-481.5" font-family="Helvetica,sans-Serif" font-size="10.00"> </text>
</a>
</g>
</g>
<!-- Node10&#45;&gt;Node9 -->
<g id="edge9" class="edge">
<title>Node10&#45;&gt;Node9</title>
<path fill="none" stroke="midnightblue" d="M398,-464.05C398,-432.82 398,-387.66 398,-349.65"/>
<polygon fill="none" stroke="midnightblue" points="394.5,-464.08 398,-474.08 401.5,-464.08 394.5,-464.08"/>
</g>
<!-- Node11 -->
<g id="node11" class="node">
<title>Node11</title>
<g id="a_node11"><a xlink:href="../../d8/dbf/classVScaledEllipse.html" target="_top" xlink:title=" ">
<polygon fill="white" stroke="black" points="480.5,-232 480.5,-322 595.5,-322 595.5,-232 480.5,-232"/>
<text text-anchor="middle" x="538" y="-310" font-family="Helvetica,sans-Serif" font-size="10.00">VScaledEllipse</text>
<polyline fill="none" stroke="black" points="480.5,-303 595.5,-303 "/>
<text text-anchor="middle" x="538" y="-291" font-family="Helvetica,sans-Serif" font-size="10.00"> </text>
<polyline fill="none" stroke="black" points="480.5,-284 595.5,-284 "/>
<text text-anchor="start" x="488.5" y="-272" font-family="Helvetica,sans-Serif" font-size="10.00">+ VScaledEllipse()</text>
<text text-anchor="start" x="488.5" y="-261" font-family="Helvetica,sans-Serif" font-size="10.00">+ ~VScaledEllipse()</text>
<text text-anchor="start" x="488.5" y="-250" font-family="Helvetica,sans-Serif" font-size="10.00">+ type()</text>
<text text-anchor="start" x="488.5" y="-239" font-family="Helvetica,sans-Serif" font-size="10.00">+ paint()</text>
</a>
</g>
</g>
<!-- Node11&#45;&gt;Node1 -->
<g id="edge10" class="edge">
<title>Node11&#45;&gt;Node1</title>
<path fill="none" stroke="#404040" d="M509.81,-231.66C498.58,-215.35 485,-197.17 471,-182 451.55,-160.93 428.27,-140.09 406.56,-122.13"/>
<polygon fill="none" stroke="#404040" points="406.33,-121.94 399.15,-121.25 397.04,-114.35 404.21,-115.05 406.33,-121.94"/>
<text text-anchor="middle" x="467" y="-156" font-family="Helvetica,sans-Serif" font-size="10.00"> &#45;point</text>
</g>
<!-- Node12 -->
<g id="node12" class="node">
<title>Node12</title>
<g id="a_node12"><a xlink:title=" ">
<polygon fill="white" stroke="#bfbfbf" points="477,-474.5 477,-531.5 599,-531.5 599,-474.5 477,-474.5"/>
<text text-anchor="middle" x="538" y="-519.5" font-family="Helvetica,sans-Serif" font-size="10.00">QGraphicsEllipseItem</text>
<polyline fill="none" stroke="#bfbfbf" points="477,-512.5 599,-512.5 "/>
<text text-anchor="middle" x="538" y="-500.5" font-family="Helvetica,sans-Serif" font-size="10.00"> </text>
<polyline fill="none" stroke="#bfbfbf" points="477,-493.5 599,-493.5 "/>
<text text-anchor="middle" x="538" y="-481.5" font-family="Helvetica,sans-Serif" font-size="10.00"> </text>
</a>
</g>
</g>
<!-- Node12&#45;&gt;Node11 -->
<g id="edge11" class="edge">
<title>Node12&#45;&gt;Node11</title>
<path fill="none" stroke="midnightblue" d="M538,-463.86C538,-424.59 538,-363.44 538,-322.11"/>
<polygon fill="none" stroke="midnightblue" points="534.5,-464.08 538,-474.08 541.5,-464.08 534.5,-464.08"/>
</g>
</g>
</svg>
        <g id="navigator" transform="translate(0 0)" fill="#404254">
                <rect fill="#f2f5e9" fill-opacity="0.5" stroke="#606060" stroke-width=".5" x="0" y="0" width="60" height="60"/>
                <use id="zoomplus" xlink:href="#zoomPlus" x="17" y="9" onmousedown="handleZoom(evt,'in')"/>
                <use id="zoomminus" xlink:href="#zoomMin" x="42" y="9" onmousedown="handleZoom(evt,'out')"/>
                <use id="reset" xlink:href="#resetDef" x="30" y="36" onmousedown="handleReset()"/>
                <g id="arrowUp" xlink:href="#dirArrow" transform="translate(30 24)" onmousedown="handlePan(0,-1)">
                  <use xlink:href="#rim" fill="#404040">
                        <set attributeName="fill" to="#808080" begin="arrowUp.mouseover" end="arrowUp.mouseout"/>
                  </use>
                  <path fill="none" stroke="white" stroke-width="1.5" d="M0,-3.0v7 M-2.5,-0.5L0,-3.0L2.5,-0.5"/>
                </g>
                <g id="arrowRight" xlink:href="#dirArrow" transform="rotate(90) translate(36 -43)" onmousedown="handlePan(1,0)">
                  <use xlink:href="#rim" fill="#404040">
                        <set attributeName="fill" to="#808080" begin="arrowRight.mouseover" end="arrowRight.mouseout"/>
                  </use>
                  <path fill="none" stroke="white" stroke-width="1.5" d="M0,-3.0v7 M-2.5,-0.5L0,-3.0L2.5,-0.5"/>
                </g>
                <g id="arrowDown" xlink:href="#dirArrow" transform="rotate(180) translate(-30 -48)" onmousedown="handlePan(0,1)">
                  <use xlink:href="#rim" fill="#404040">
                        <set attributeName="fill" to="#808080" begin="arrowDown.mouseover" end="arrowDown.mouseout"/>
                  </use>
                  <path fill="none" stroke="white" stroke-width="1.5" d="M0,-3.0v7 M-2.5,-0.5L0,-3.0L2.5,-0.5"/>
                </g>
                <g id="arrowLeft" xlink:href="#dirArrow" transform="rotate(270) translate(-36 17)" onmousedown="handlePan(-1,0)">
                  <use xlink:href="#rim" fill="#404040">
                        <set attributeName="fill" to="#808080" begin="arrowLeft.mouseover" end="arrowLeft.mouseout"/>
                  </use>
                  <path fill="none" stroke="white" stroke-width="1.5" d="M0,-3.0v7 M-2.5,-0.5L0,-3.0L2.5,-0.5"/>
                </g>
        </g>
        <svg viewBox="0 0 15 15" width="100%" height="30px" preserveAspectRatio="xMaxYMin meet">
         <g id="arrow_out" transform="scale(0.3 0.3)">
          <a xlink:href="classVisToolRotation__coll__graph_org.svg" target="_base">
           <rect id="button" ry="5" rx="5" y="6" x="6" height="38" width="38"
                fill="#f2f5e9" fill-opacity="0.5" stroke="#606060" stroke-width="1.0"/>
           <path id="arrow"
             d="M 11.500037,31.436501 C 11.940474,20.09759 22.043105,11.32322 32.158766,21.979434 L 37.068811,17.246167 C 37.068811,17.246167 37.088388,32 37.088388,32 L 22.160133,31.978069 C 22.160133,31.978069 26.997745,27.140456 26.997745,27.140456 C 18.528582,18.264221 13.291696,25.230495 11.500037,31.436501 z"
             style="fill:#404040;"/>
          </a>
         </g>
        </svg>
</svg>
