<?xml version="1.0" encoding="UTF-8" standalone="no"?>
<!DOCTYPE svg PUBLIC "-//W3C//DTD SVG 1.1//EN"
 "http://www.w3.org/Graphics/SVG/1.1/DTD/svg11.dtd">
<!-- Generated by graphviz version 2.43.0 (0)
 -->
<!-- Title: src/libs/vpatterndb/variables.h Pages: 1 -->
<svg width="6976pt" height="307pt"
 viewBox="0.00 0.00 6976.00 307.00" xmlns="http://www.w3.org/2000/svg" xmlns:xlink="http://www.w3.org/1999/xlink">
<g id="graph0" class="graph" transform="scale(1 1) rotate(0) translate(4 303)">
<title>src/libs/vpatterndb/variables.h</title>
<polygon fill="white" stroke="transparent" points="-4,4 -4,-303 6972,-303 6972,4 -4,4"/>
<!-- Node1 -->
<g id="node1" class="node">
<title>Node1</title>
<g id="a_node1"><a xlink:title=" ">
<polygon fill="#bfbfbf" stroke="black" points="5948.5,-268.5 5948.5,-298.5 6055.5,-298.5 6055.5,-268.5 5948.5,-268.5"/>
<text text-anchor="start" x="5956.5" y="-286.5" font-family="Helvetica,sans-Serif" font-size="10.00">src/libs/vpatterndb</text>
<text text-anchor="middle" x="6002" y="-275.5" font-family="Helvetica,sans-Serif" font-size="10.00">/variables.h</text>
</a>
</g>
</g>
<!-- Node2 -->
<g id="node2" class="node">
<title>Node2</title>
<g id="a_node2"><a xlink:href="../../d3/df7/vcontainer_8h.html" target="_top" xlink:title=" ">
<polygon fill="white" stroke="black" points="5948.5,-201.5 5948.5,-231.5 6055.5,-231.5 6055.5,-201.5 5948.5,-201.5"/>
<text text-anchor="start" x="5956.5" y="-219.5" font-family="Helvetica,sans-Serif" font-size="10.00">src/libs/vpatterndb</text>
<text text-anchor="middle" x="6002" y="-208.5" font-family="Helvetica,sans-Serif" font-size="10.00">/vcontainer.h</text>
</a>
</g>
</g>
<!-- Node1&#45;&gt;Node2 -->
<g id="edge1" class="edge">
<title>Node1&#45;&gt;Node2</title>
<path fill="none" stroke="midnightblue" d="M6002,-258.11C6002,-249.15 6002,-239.32 6002,-231.58"/>
<polygon fill="midnightblue" stroke="midnightblue" points="5998.5,-258.4 6002,-268.4 6005.5,-258.4 5998.5,-258.4"/>
</g>
<!-- Node3 -->
<g id="node3" class="node">
<title>Node3</title>
<g id="a_node3"><a xlink:href="../../d4/dd6/vmeasurements_8h.html" target="_top" xlink:title=" ">
<polygon fill="white" stroke="black" points="138.5,-140 138.5,-159 323.5,-159 323.5,-140 138.5,-140"/>
<text text-anchor="middle" x="231" y="-147" font-family="Helvetica,sans-Serif" font-size="10.00">src/libs/vformat/vmeasurements.h</text>
</a>
</g>
</g>
<!-- Node2&#45;&gt;Node3 -->
<g id="edge2" class="edge">
<title>Node2&#45;&gt;Node3</title>
<path fill="none" stroke="midnightblue" d="M5938.34,-215.62C5492.88,-216.32 2796.09,-218.12 602,-165 507.11,-162.7 398.64,-158.25 323.6,-154.88"/>
<polygon fill="midnightblue" stroke="midnightblue" points="5938.45,-219.12 5948.45,-215.6 5938.44,-212.12 5938.45,-219.12"/>
</g>
<!-- Node4 -->
<g id="node4" class="node">
<title>Node4</title>
<g id="a_node4"><a xlink:href="../../de/db3/vmeasurements_8cpp.html" target="_top" xlink:title=" ">
<polygon fill="white" stroke="black" points="0,-73 0,-92 196,-92 196,-73 0,-73"/>
<text text-anchor="middle" x="98" y="-80" font-family="Helvetica,sans-Serif" font-size="10.00">src/libs/vformat/vmeasurements.cpp</text>
</a>
</g>
</g>
<!-- Node2&#45;&gt;Node4 -->
<g id="edge4" class="edge">
<title>Node2&#45;&gt;Node4</title>
<path fill="none" stroke="midnightblue" d="M5938.08,-215.31C5377.63,-213.55 1308.24,-199.65 768,-165 537.05,-150.19 263.67,-109.72 150.79,-92"/>
<polygon fill="midnightblue" stroke="midnightblue" points="5938.38,-218.81 5948.39,-215.34 5938.4,-211.81 5938.38,-218.81"/>
</g>
<!-- Node5 -->
<g id="node5" class="node">
<title>Node5</title>
<g id="a_node5"><a xlink:href="../../d6/de0/vlayoutpiece_8h.html" target="_top" xlink:title=" ">
<polygon fill="white" stroke="black" points="777,-140 777,-159 943,-159 943,-140 777,-140"/>
<text text-anchor="middle" x="860" y="-147" font-family="Helvetica,sans-Serif" font-size="10.00">src/libs/vlayout/vlayoutpiece.h</text>
</a>
</g>
</g>
<!-- Node2&#45;&gt;Node5 -->
<g id="edge5" class="edge">
<title>Node2&#45;&gt;Node5</title>
<path fill="none" stroke="midnightblue" d="M5937.76,-214.69C5393.51,-207.81 1559.56,-159.34 943.46,-151.56"/>
<polygon fill="midnightblue" stroke="midnightblue" points="5938.12,-218.19 5948.16,-214.82 5938.2,-211.19 5938.12,-218.19"/>
</g>
<!-- Node15 -->
<g id="node14" class="node">
<title>Node15</title>
<g id="a_node14"><a xlink:href="../../d8/d70/vtextmanager_8cpp.html" target="_top" xlink:title=" ">
<polygon fill="white" stroke="black" points="1536,-73 1536,-92 1718,-92 1718,-73 1536,-73"/>
<text text-anchor="middle" x="1627" y="-80" font-family="Helvetica,sans-Serif" font-size="10.00">src/libs/vlayout/vtextmanager.cpp</text>
</a>
</g>
</g>
<!-- Node2&#45;&gt;Node15 -->
<g id="edge16" class="edge">
<title>Node2&#45;&gt;Node15</title>
<path fill="none" stroke="midnightblue" d="M5938.14,-214.65C5652.04,-210.74 4459.47,-193.49 3481,-165 2701.21,-142.3 2503.89,-168.96 1727,-98 1711.19,-96.56 1694.06,-94.32 1678.52,-92.03"/>
<polygon fill="midnightblue" stroke="midnightblue" points="5938.28,-218.15 5948.33,-214.79 5938.38,-211.15 5938.28,-218.15"/>
</g>
<!-- Node16 -->
<g id="node15" class="node">
<title>Node16</title>
<g id="a_node15"><a xlink:href="../../d5/d74/vabstractapplication_8h.html" target="_top" xlink:title=" ">
<polygon fill="white" stroke="red" points="3490.5,-140 3490.5,-159 3685.5,-159 3685.5,-140 3490.5,-140"/>
<text text-anchor="middle" x="3588" y="-147" font-family="Helvetica,sans-Serif" font-size="10.00">src/libs/vmisc/vabstractapplication.h</text>
</a>
</g>
</g>
<!-- Node2&#45;&gt;Node16 -->
<g id="edge17" class="edge">
<title>Node2&#45;&gt;Node16</title>
<path fill="none" stroke="midnightblue" d="M5938.12,-213.78C5607.15,-204.87 4087.14,-163.94 3685.54,-153.13"/>
<polygon fill="midnightblue" stroke="midnightblue" points="5938.39,-217.29 5948.48,-214.06 5938.58,-210.29 5938.39,-217.29"/>
</g>
<!-- Node34 -->
<g id="node29" class="node">
<title>Node34</title>
<g id="a_node29"><a xlink:href="../../db/d11/vformula_8cpp.html" target="_top" xlink:title=" ">
<polygon fill="white" stroke="black" points="5807.5,-67.5 5807.5,-97.5 5914.5,-97.5 5914.5,-67.5 5807.5,-67.5"/>
<text text-anchor="start" x="5815.5" y="-85.5" font-family="Helvetica,sans-Serif" font-size="10.00">src/libs/vpatterndb</text>
<text text-anchor="middle" x="5861" y="-74.5" font-family="Helvetica,sans-Serif" font-size="10.00">/vformula.cpp</text>
</a>
</g>
</g>
<!-- Node2&#45;&gt;Node34 -->
<g id="edge52" class="edge">
<title>Node2&#45;&gt;Node34</title>
<path fill="none" stroke="midnightblue" d="M5979.3,-194.25C5950.24,-167.04 5900.71,-120.68 5875.98,-97.52"/>
<polygon fill="midnightblue" stroke="midnightblue" points="5977.22,-197.09 5986.91,-201.37 5982,-191.98 5977.22,-197.09"/>
</g>
<!-- Node35 -->
<g id="node30" class="node">
<title>Node35</title>
<g id="a_node30"><a xlink:href="../../d6/d46/vcontainer_8cpp.html" target="_top" xlink:title=" ">
<polygon fill="white" stroke="black" points="5932.5,-67.5 5932.5,-97.5 6039.5,-97.5 6039.5,-67.5 5932.5,-67.5"/>
<text text-anchor="start" x="5940.5" y="-85.5" font-family="Helvetica,sans-Serif" font-size="10.00">src/libs/vpatterndb</text>
<text text-anchor="middle" x="5986" y="-74.5" font-family="Helvetica,sans-Serif" font-size="10.00">/vcontainer.cpp</text>
</a>
</g>
</g>
<!-- Node2&#45;&gt;Node35 -->
<g id="edge53" class="edge">
<title>Node2&#45;&gt;Node35</title>
<path fill="none" stroke="midnightblue" d="M5994.01,-191.37C5991.62,-183.1 5989.3,-173.73 5988,-165 5984.53,-141.62 5984.73,-114.06 5985.3,-97.72"/>
<polygon fill="midnightblue" stroke="midnightblue" points="5990.72,-192.58 5996.99,-201.12 5997.41,-190.53 5990.72,-192.58"/>
</g>
<!-- Node37 -->
<g id="node32" class="node">
<title>Node37</title>
<g id="a_node32"><a xlink:href="../../d8/dba/vpiecenode_8cpp.html" target="_top" xlink:title=" ">
<polygon fill="white" stroke="black" points="4627.5,-0.5 4627.5,-30.5 4734.5,-30.5 4734.5,-0.5 4627.5,-0.5"/>
<text text-anchor="start" x="4635.5" y="-18.5" font-family="Helvetica,sans-Serif" font-size="10.00">src/libs/vpatterndb</text>
<text text-anchor="middle" x="4681" y="-7.5" font-family="Helvetica,sans-Serif" font-size="10.00">/vpiecenode.cpp</text>
</a>
</g>
</g>
<!-- Node2&#45;&gt;Node37 -->
<g id="edge55" class="edge">
<title>Node2&#45;&gt;Node37</title>
<path fill="none" stroke="midnightblue" d="M6013.13,-192.36C6023.04,-174.06 6039.19,-149.14 6060,-134 6102.96,-102.74 6142.59,-140.86 6174,-98 6182.14,-86.89 6183.58,-76.91 6174,-67 6123.02,-14.27 4995.99,-15.3 4734.74,-16.25"/>
<polygon fill="midnightblue" stroke="midnightblue" points="6010.02,-190.76 6008.52,-201.24 6016.23,-193.98 6010.02,-190.76"/>
</g>
<!-- Node38 -->
<g id="node33" class="node">
<title>Node38</title>
<g id="a_node33"><a xlink:href="../../df/d7a/vpiece_8cpp.html" target="_top" xlink:title=" ">
<polygon fill="white" stroke="black" points="6057.5,-67.5 6057.5,-97.5 6164.5,-97.5 6164.5,-67.5 6057.5,-67.5"/>
<text text-anchor="start" x="6065.5" y="-85.5" font-family="Helvetica,sans-Serif" font-size="10.00">src/libs/vpatterndb</text>
<text text-anchor="middle" x="6111" y="-74.5" font-family="Helvetica,sans-Serif" font-size="10.00">/vpiece.cpp</text>
</a>
</g>
</g>
<!-- Node2&#45;&gt;Node38 -->
<g id="edge56" class="edge">
<title>Node2&#45;&gt;Node38</title>
<path fill="none" stroke="midnightblue" d="M6004.37,-191.41C6007.13,-173.95 6013.11,-150.59 6026,-134 6038.53,-117.87 6057.78,-105.82 6074.79,-97.55"/>
<polygon fill="midnightblue" stroke="midnightblue" points="6000.89,-191.03 6003.03,-201.4 6007.83,-191.96 6000.89,-191.03"/>
</g>
<!-- Node54 -->
<g id="node45" class="node">
<title>Node54</title>
<g id="a_node45"><a xlink:href="../../d1/de1/vincrement__p_8h.html" target="_top" xlink:title=" ">
<polygon fill="white" stroke="red" points="6068.5,-134.5 6068.5,-164.5 6211.5,-164.5 6211.5,-134.5 6068.5,-134.5"/>
<text text-anchor="start" x="6076.5" y="-152.5" font-family="Helvetica,sans-Serif" font-size="10.00">src/libs/vpatterndb</text>
<text text-anchor="middle" x="6140" y="-141.5" font-family="Helvetica,sans-Serif" font-size="10.00">/variables/vincrement_p.h</text>
</a>
</g>
</g>
<!-- Node2&#45;&gt;Node54 -->
<g id="edge50" class="edge">
<title>Node2&#45;&gt;Node54</title>
<path fill="none" stroke="midnightblue" d="M6041,-197.13C6062.93,-186.8 6089.87,-174.11 6110.11,-164.58"/>
<polygon fill="midnightblue" stroke="midnightblue" points="6039.5,-193.97 6031.94,-201.4 6042.48,-200.3 6039.5,-193.97"/>
</g>
<!-- Node56 -->
<g id="node46" class="node">
<title>Node56</title>
<g id="a_node46"><a xlink:href="../../d6/dc1/vmeasurement__p_8h.html" target="_top" xlink:title=" ">
<polygon fill="white" stroke="red" points="6230,-134.5 6230,-164.5 6392,-164.5 6392,-134.5 6230,-134.5"/>
<text text-anchor="start" x="6238" y="-152.5" font-family="Helvetica,sans-Serif" font-size="10.00">src/libs/vpatterndb</text>
<text text-anchor="middle" x="6311" y="-141.5" font-family="Helvetica,sans-Serif" font-size="10.00">/variables/vmeasurement_p.h</text>
</a>
</g>
</g>
<!-- Node2&#45;&gt;Node56 -->
<g id="edge51" class="edge">
<title>Node2&#45;&gt;Node56</title>
<path fill="none" stroke="midnightblue" d="M6065.63,-202.12C6117.79,-191.14 6191.38,-175.66 6244.34,-164.52"/>
<polygon fill="midnightblue" stroke="midnightblue" points="6064.89,-198.69 6055.82,-204.18 6066.33,-205.54 6064.89,-198.69"/>
</g>
<!-- Node58 -->
<g id="node47" class="node">
<title>Node58</title>
<g id="a_node47"><a xlink:href="../../d6/d91/vnodedetail_8cpp.html" target="_top" xlink:title=" ">
<polygon fill="white" stroke="black" points="6410.5,-134.5 6410.5,-164.5 6517.5,-164.5 6517.5,-134.5 6410.5,-134.5"/>
<text text-anchor="start" x="6418.5" y="-152.5" font-family="Helvetica,sans-Serif" font-size="10.00">src/libs/vpatterndb</text>
<text text-anchor="middle" x="6464" y="-141.5" font-family="Helvetica,sans-Serif" font-size="10.00">/vnodedetail.cpp</text>
</a>
</g>
</g>
<!-- Node2&#45;&gt;Node58 -->
<g id="edge54" class="edge">
<title>Node2&#45;&gt;Node58</title>
<path fill="none" stroke="midnightblue" d="M6065.78,-209.42C6144.8,-201.43 6283.4,-185.92 6401,-165 6404.09,-164.45 6407.26,-163.85 6410.46,-163.21"/>
<polygon fill="midnightblue" stroke="midnightblue" points="6065.1,-205.97 6055.5,-210.45 6065.8,-212.94 6065.1,-205.97"/>
</g>
<!-- Node59 -->
<g id="node48" class="node">
<title>Node59</title>
<g id="a_node48"><a xlink:href="../../da/de1/vpiecepath_8cpp.html" target="_top" xlink:title=" ">
<polygon fill="white" stroke="black" points="6535.5,-134.5 6535.5,-164.5 6642.5,-164.5 6642.5,-134.5 6535.5,-134.5"/>
<text text-anchor="start" x="6543.5" y="-152.5" font-family="Helvetica,sans-Serif" font-size="10.00">src/libs/vpatterndb</text>
<text text-anchor="middle" x="6589" y="-141.5" font-family="Helvetica,sans-Serif" font-size="10.00">/vpiecepath.cpp</text>
</a>
</g>
</g>
<!-- Node2&#45;&gt;Node59 -->
<g id="edge57" class="edge">
<title>Node2&#45;&gt;Node59</title>
<path fill="none" stroke="midnightblue" d="M6065.74,-212.13C6164.89,-206.26 6361.85,-192.13 6527,-165 6529.73,-164.55 6532.51,-164.05 6535.32,-163.52"/>
<polygon fill="midnightblue" stroke="midnightblue" points="6065.37,-208.64 6055.59,-212.72 6065.78,-215.63 6065.37,-208.64"/>
</g>
<!-- Node60 -->
<g id="node49" class="node">
<title>Node60</title>
<g id="a_node49"><a xlink:href="../../d1/d3a/abstracttest_8cpp.html" target="_top" xlink:title=" ">
<polygon fill="white" stroke="black" points="6660.5,-140 6660.5,-159 6821.5,-159 6821.5,-140 6660.5,-140"/>
<text text-anchor="middle" x="6741" y="-147" font-family="Helvetica,sans-Serif" font-size="10.00">src/libs/vtest/abstracttest.cpp</text>
</a>
</g>
</g>
<!-- Node2&#45;&gt;Node60 -->
<g id="edge58" class="edge">
<title>Node2&#45;&gt;Node60</title>
<path fill="none" stroke="midnightblue" d="M6065.84,-212.32C6182.51,-206.12 6437.92,-190.71 6652,-165 6665.37,-163.39 6679.8,-161.23 6693.07,-159.07"/>
<polygon fill="midnightblue" stroke="midnightblue" points="6065.46,-208.84 6055.65,-212.86 6065.83,-215.83 6065.46,-208.84"/>
</g>
<!-- Node61 -->
<g id="node50" class="node">
<title>Node61</title>
<g id="a_node50"><a xlink:href="../../da/db4/piece__tablewidgetitem_8cpp.html" target="_top" xlink:title=" ">
<polygon fill="white" stroke="black" points="6840,-134.5 6840,-164.5 6968,-164.5 6968,-134.5 6840,-134.5"/>
<text text-anchor="start" x="6848" y="-152.5" font-family="Helvetica,sans-Serif" font-size="10.00">src/libs/vwidgets/piece</text>
<text text-anchor="middle" x="6904" y="-141.5" font-family="Helvetica,sans-Serif" font-size="10.00">_tablewidgetitem.cpp</text>
</a>
</g>
</g>
<!-- Node2&#45;&gt;Node61 -->
<g id="edge59" class="edge">
<title>Node2&#45;&gt;Node61</title>
<path fill="none" stroke="midnightblue" d="M6065.65,-214.55C6204.96,-211.84 6547.09,-201.67 6831,-165 6833.95,-164.62 6836.95,-164.19 6839.99,-163.72"/>
<polygon fill="midnightblue" stroke="midnightblue" points="6065.51,-211.05 6055.58,-214.74 6065.64,-218.05 6065.51,-211.05"/>
</g>
<!-- Node3&#45;&gt;Node4 -->
<g id="edge3" class="edge">
<title>Node3&#45;&gt;Node4</title>
<path fill="none" stroke="midnightblue" d="M204.28,-135.44C177.94,-122.57 138.43,-103.26 115.73,-92.17"/>
<polygon fill="midnightblue" stroke="midnightblue" points="202.82,-138.62 213.34,-139.87 205.89,-132.33 202.82,-138.62"/>
</g>
<!-- Node6 -->
<g id="node6" class="node">
<title>Node6</title>
<g id="a_node6"><a xlink:href="../../dd/d66/vdxfengine_8cpp.html" target="_top" xlink:title=" ">
<polygon fill="white" stroke="black" points="1168,-73 1168,-92 1322,-92 1322,-73 1168,-73"/>
<text text-anchor="middle" x="1245" y="-80" font-family="Helvetica,sans-Serif" font-size="10.00">src/libs/vdxf/vdxfengine.cpp</text>
</a>
</g>
</g>
<!-- Node5&#45;&gt;Node6 -->
<g id="edge6" class="edge">
<title>Node5&#45;&gt;Node6</title>
<path fill="none" stroke="midnightblue" d="M921.04,-138.19C996.65,-125.43 1124.07,-103.92 1194.47,-92.03"/>
<polygon fill="midnightblue" stroke="midnightblue" points="920.01,-134.82 910.73,-139.94 921.17,-141.72 920.01,-134.82"/>
</g>
<!-- Node7 -->
<g id="node7" class="node">
<title>Node7</title>
<g id="a_node7"><a xlink:href="../../de/da8/vbank_8cpp.html" target="_top" xlink:title=" ">
<polygon fill="white" stroke="black" points="214,-73 214,-92 358,-92 358,-73 214,-73"/>
<text text-anchor="middle" x="286" y="-80" font-family="Helvetica,sans-Serif" font-size="10.00">src/libs/vlayout/vbank.cpp</text>
</a>
</g>
</g>
<!-- Node5&#45;&gt;Node7 -->
<g id="edge7" class="edge">
<title>Node5&#45;&gt;Node7</title>
<path fill="none" stroke="midnightblue" d="M766.9,-141.06C667.58,-132.63 505.8,-117.5 367,-98 354.98,-96.31 342.01,-94.14 330.04,-92"/>
<polygon fill="midnightblue" stroke="midnightblue" points="766.64,-144.55 776.9,-141.9 767.23,-137.58 766.64,-144.55"/>
</g>
<!-- Node8 -->
<g id="node8" class="node">
<title>Node8</title>
<g id="a_node8"><a xlink:href="../../df/d5d/vcontour_8cpp.html" target="_top" xlink:title=" ">
<polygon fill="white" stroke="black" points="376,-73 376,-92 532,-92 532,-73 376,-73"/>
<text text-anchor="middle" x="454" y="-80" font-family="Helvetica,sans-Serif" font-size="10.00">src/libs/vlayout/vcontour.cpp</text>
</a>
</g>
</g>
<!-- Node5&#45;&gt;Node8 -->
<g id="edge8" class="edge">
<title>Node5&#45;&gt;Node8</title>
<path fill="none" stroke="midnightblue" d="M796.6,-138.35C716.99,-125.6 581.83,-103.96 507.29,-92.03"/>
<polygon fill="midnightblue" stroke="midnightblue" points="796.08,-141.81 806.51,-139.94 797.18,-134.9 796.08,-141.81"/>
</g>
<!-- Node9 -->
<g id="node9" class="node">
<title>Node9</title>
<g id="a_node9"><a xlink:href="../../d2/d2d/vlayoutpaper__p_8h.html" target="_top" xlink:title=" ">
<polygon fill="white" stroke="black" points="588.5,-73 588.5,-92 767.5,-92 767.5,-73 588.5,-73"/>
<text text-anchor="middle" x="678" y="-80" font-family="Helvetica,sans-Serif" font-size="10.00">src/libs/vlayout/vlayoutpaper_p.h</text>
</a>
</g>
</g>
<!-- Node5&#45;&gt;Node9 -->
<g id="edge9" class="edge">
<title>Node5&#45;&gt;Node9</title>
<path fill="none" stroke="midnightblue" d="M826.22,-136.44C790.12,-123.54 733.79,-103.42 701.98,-92.06"/>
<polygon fill="midnightblue" stroke="midnightblue" points="825.24,-139.8 835.83,-139.87 827.59,-133.21 825.24,-139.8"/>
</g>
<!-- Node10 -->
<g id="node10" class="node">
<title>Node10</title>
<g id="a_node10"><a xlink:href="../../d1/dd1/vlayoutpaper_8cpp.html" target="_top" xlink:title=" ">
<polygon fill="white" stroke="black" points="589,-6 589,-25 767,-25 767,-6 589,-6"/>
<text text-anchor="middle" x="678" y="-13" font-family="Helvetica,sans-Serif" font-size="10.00">src/libs/vlayout/vlayoutpaper.cpp</text>
</a>
</g>
</g>
<!-- Node5&#45;&gt;Node10 -->
<g id="edge12" class="edge">
<title>Node5&#45;&gt;Node10</title>
<path fill="none" stroke="midnightblue" d="M766.86,-144.31C694.57,-138.87 602.76,-126.42 579,-98 552.94,-66.83 614.35,-38.68 651.76,-25.09"/>
<polygon fill="midnightblue" stroke="midnightblue" points="766.7,-147.8 776.93,-145.03 767.2,-140.82 766.7,-147.8"/>
</g>
<!-- Node11 -->
<g id="node11" class="node">
<title>Node11</title>
<g id="a_node11"><a xlink:href="../../d3/d39/vlayoutgenerator_8cpp.html" target="_top" xlink:title=" ">
<polygon fill="white" stroke="black" points="952.5,-73 952.5,-92 1149.5,-92 1149.5,-73 952.5,-73"/>
<text text-anchor="middle" x="1051" y="-80" font-family="Helvetica,sans-Serif" font-size="10.00">src/libs/vlayout/vlayoutgenerator.cpp</text>
</a>
</g>
</g>
<!-- Node5&#45;&gt;Node11 -->
<g id="edge11" class="edge">
<title>Node5&#45;&gt;Node11</title>
<path fill="none" stroke="midnightblue" d="M894.96,-136.6C932.83,-123.71 992.31,-103.47 1025.84,-92.06"/>
<polygon fill="midnightblue" stroke="midnightblue" points="893.7,-133.33 885.36,-139.87 895.96,-139.96 893.7,-133.33"/>
</g>
<!-- Node12 -->
<g id="node12" class="node">
<title>Node12</title>
<g id="a_node12"><a xlink:href="../../dd/d70/vlayoutpiece_8cpp.html" target="_top" xlink:title=" ">
<polygon fill="white" stroke="black" points="1340.5,-73 1340.5,-92 1517.5,-92 1517.5,-73 1340.5,-73"/>
<text text-anchor="middle" x="1429" y="-80" font-family="Helvetica,sans-Serif" font-size="10.00">src/libs/vlayout/vlayoutpiece.cpp</text>
</a>
</g>
</g>
<!-- Node5&#45;&gt;Node12 -->
<g id="edge13" class="edge">
<title>Node5&#45;&gt;Node12</title>
<path fill="none" stroke="midnightblue" d="M953.24,-139.62C1048.35,-130.29 1200.14,-114.69 1331,-98 1344.99,-96.22 1360.07,-94.09 1374.11,-92.02"/>
<polygon fill="midnightblue" stroke="midnightblue" points="952.68,-136.15 943.07,-140.61 953.37,-143.12 952.68,-136.15"/>
</g>
<!-- Node13 -->
<g id="node13" class="node">
<title>Node13</title>
<g id="a_node13"><a xlink:href="../../db/d5c/vposition_8h.html" target="_top" xlink:title=" ">
<polygon fill="white" stroke="red" points="786,-73 786,-92 934,-92 934,-73 786,-73"/>
<text text-anchor="middle" x="860" y="-80" font-family="Helvetica,sans-Serif" font-size="10.00">src/libs/vlayout/vposition.h</text>
</a>
</g>
</g>
<!-- Node5&#45;&gt;Node13 -->
<g id="edge14" class="edge">
<title>Node5&#45;&gt;Node13</title>
<path fill="none" stroke="midnightblue" d="M860,-129.54C860,-117.17 860,-101.62 860,-92.13"/>
<polygon fill="midnightblue" stroke="midnightblue" points="856.5,-129.73 860,-139.73 863.5,-129.73 856.5,-129.73"/>
</g>
<!-- Node9&#45;&gt;Node10 -->
<g id="edge10" class="edge">
<title>Node9&#45;&gt;Node10</title>
<path fill="none" stroke="midnightblue" d="M678,-62.54C678,-50.17 678,-34.62 678,-25.13"/>
<polygon fill="midnightblue" stroke="midnightblue" points="674.5,-62.73 678,-72.73 681.5,-62.73 674.5,-62.73"/>
</g>
<!-- Node13&#45;&gt;Node10 -->
<g id="edge15" class="edge">
<title>Node13&#45;&gt;Node10</title>
<path fill="none" stroke="midnightblue" d="M826.22,-69.44C790.12,-56.54 733.79,-36.42 701.98,-25.06"/>
<polygon fill="midnightblue" stroke="midnightblue" points="825.24,-72.8 835.83,-72.87 827.59,-66.21 825.24,-72.8"/>
</g>
<!-- Node16&#45;&gt;Node12 -->
<g id="edge28" class="edge">
<title>Node16&#45;&gt;Node12</title>
<path fill="none" stroke="midnightblue" d="M3480.23,-147.6C3112.98,-144.27 1911.87,-131.06 1527,-98 1511.15,-96.64 1493.96,-94.37 1478.47,-92.02"/>
<polygon fill="midnightblue" stroke="midnightblue" points="3480.3,-151.1 3490.33,-147.69 3480.36,-144.1 3480.3,-151.1"/>
</g>
<!-- Node16&#45;&gt;Node15 -->
<g id="edge29" class="edge">
<title>Node16&#45;&gt;Node15</title>
<path fill="none" stroke="midnightblue" d="M3480.02,-147.23C3136.42,-142.93 2070.91,-127.5 1727,-98 1710.92,-96.62 1693.48,-94.36 1677.74,-92.03"/>
<polygon fill="midnightblue" stroke="midnightblue" points="3480.17,-150.73 3490.22,-147.36 3480.26,-143.73 3480.17,-150.73"/>
</g>
<!-- Node17 -->
<g id="node16" class="node">
<title>Node17</title>
<g id="a_node16"><a xlink:href="../../d4/d90/fvupdater_8cpp.html" target="_top" xlink:title=" ">
<polygon fill="white" stroke="black" points="5358.5,-73 5358.5,-92 5511.5,-92 5511.5,-73 5358.5,-73"/>
<text text-anchor="middle" x="5435" y="-80" font-family="Helvetica,sans-Serif" font-size="10.00">src/libs/fervor/fvupdater.cpp</text>
</a>
</g>
</g>
<!-- Node16&#45;&gt;Node17 -->
<g id="edge18" class="edge">
<title>Node16&#45;&gt;Node17</title>
<path fill="none" stroke="midnightblue" d="M3695.6,-147.37C4026.42,-143.58 5025.7,-129.74 5349,-98 5362.86,-96.64 5377.87,-94.38 5391.41,-92.05"/>
<polygon fill="midnightblue" stroke="midnightblue" points="3695.49,-143.87 3685.53,-147.48 3695.57,-150.87 3695.49,-143.87"/>
</g>
<!-- Node18 -->
<g id="node17" class="node">
<title>Node18</title>
<g id="a_node17"><a xlink:href="../../d9/dc8/dxiface_8cpp.html" target="_top" xlink:title=" ">
<polygon fill="white" stroke="black" points="5529.5,-73 5529.5,-92 5664.5,-92 5664.5,-73 5529.5,-73"/>
<text text-anchor="middle" x="5597" y="-80" font-family="Helvetica,sans-Serif" font-size="10.00">src/libs/vdxf/dxiface.cpp</text>
</a>
</g>
</g>
<!-- Node16&#45;&gt;Node18 -->
<g id="edge19" class="edge">
<title>Node16&#45;&gt;Node18</title>
<path fill="none" stroke="midnightblue" d="M3695.9,-147.95C4048.15,-145.81 5162.25,-136.11 5520,-98 5532.58,-96.66 5546.18,-94.38 5558.4,-92.02"/>
<polygon fill="midnightblue" stroke="midnightblue" points="3695.68,-144.45 3685.7,-148.01 3695.72,-151.45 3695.68,-144.45"/>
</g>
<!-- Node19 -->
<g id="node18" class="node">
<title>Node19</title>
<g id="a_node18"><a xlink:href="../../da/d75/vabstractarc__p_8h.html" target="_top" xlink:title=" ">
<polygon fill="white" stroke="red" points="5682.5,-67.5 5682.5,-97.5 5789.5,-97.5 5789.5,-67.5 5682.5,-67.5"/>
<text text-anchor="start" x="5690.5" y="-85.5" font-family="Helvetica,sans-Serif" font-size="10.00">src/libs/vgeometry</text>
<text text-anchor="middle" x="5736" y="-74.5" font-family="Helvetica,sans-Serif" font-size="10.00">/vabstractarc_p.h</text>
</a>
</g>
</g>
<!-- Node16&#45;&gt;Node19 -->
<g id="edge20" class="edge">
<title>Node16&#45;&gt;Node19</title>
<path fill="none" stroke="midnightblue" d="M3695.86,-148.76C4066.27,-149.22 5284.83,-146.86 5673,-98 5676.01,-97.62 5679.08,-97.16 5682.17,-96.64"/>
<polygon fill="midnightblue" stroke="midnightblue" points="3695.69,-145.26 3685.68,-148.75 3695.68,-152.26 3695.69,-145.26"/>
</g>
<!-- Node21 -->
<g id="node19" class="node">
<title>Node21</title>
<g id="a_node19"><a xlink:href="../../dc/da3/varc__p_8h.html" target="_top" xlink:title=" ">
<polygon fill="white" stroke="red" points="1736.5,-67.5 1736.5,-97.5 1843.5,-97.5 1843.5,-67.5 1736.5,-67.5"/>
<text text-anchor="start" x="1744.5" y="-85.5" font-family="Helvetica,sans-Serif" font-size="10.00">src/libs/vgeometry</text>
<text text-anchor="middle" x="1790" y="-74.5" font-family="Helvetica,sans-Serif" font-size="10.00">/varc_p.h</text>
</a>
</g>
</g>
<!-- Node16&#45;&gt;Node21 -->
<g id="edge21" class="edge">
<title>Node16&#45;&gt;Node21</title>
<path fill="none" stroke="midnightblue" d="M3480.15,-146.62C3126.07,-140.28 2012.57,-118.9 1852,-98 1849.26,-97.64 1846.46,-97.22 1843.65,-96.74"/>
<polygon fill="midnightblue" stroke="midnightblue" points="3480.34,-150.13 3490.4,-146.81 3480.47,-143.13 3480.34,-150.13"/>
</g>
<!-- Node23 -->
<g id="node20" class="node">
<title>Node23</title>
<g id="a_node20"><a xlink:href="../../d5/d8e/vcubicbezier__p_8h.html" target="_top" xlink:title=" ">
<polygon fill="white" stroke="red" points="1861.5,-67.5 1861.5,-97.5 1968.5,-97.5 1968.5,-67.5 1861.5,-67.5"/>
<text text-anchor="start" x="1869.5" y="-85.5" font-family="Helvetica,sans-Serif" font-size="10.00">src/libs/vgeometry</text>
<text text-anchor="middle" x="1915" y="-74.5" font-family="Helvetica,sans-Serif" font-size="10.00">/vcubicbezier_p.h</text>
</a>
</g>
</g>
<!-- Node16&#45;&gt;Node23 -->
<g id="edge22" class="edge">
<title>Node16&#45;&gt;Node23</title>
<path fill="none" stroke="midnightblue" d="M3479.92,-147.91C3167.78,-145.75 2268.65,-136.29 1977,-98 1974.26,-97.64 1971.46,-97.21 1968.65,-96.73"/>
<polygon fill="midnightblue" stroke="midnightblue" points="3480.31,-151.41 3490.33,-147.98 3480.35,-144.41 3480.31,-151.41"/>
</g>
<!-- Node25 -->
<g id="node21" class="node">
<title>Node25</title>
<g id="a_node21"><a xlink:href="../../df/dde/vellipticalarc__p_8h.html" target="_top" xlink:title=" ">
<polygon fill="white" stroke="black" points="1986.5,-67.5 1986.5,-97.5 2093.5,-97.5 2093.5,-67.5 1986.5,-67.5"/>
<text text-anchor="start" x="1994.5" y="-85.5" font-family="Helvetica,sans-Serif" font-size="10.00">src/libs/vgeometry</text>
<text text-anchor="middle" x="2040" y="-74.5" font-family="Helvetica,sans-Serif" font-size="10.00">/vellipticalarc_p.h</text>
</a>
</g>
</g>
<!-- Node16&#45;&gt;Node25 -->
<g id="edge23" class="edge">
<title>Node16&#45;&gt;Node25</title>
<path fill="none" stroke="midnightblue" d="M3480.07,-147.28C3185.77,-143.57 2373.59,-130.59 2108,-98 2103.33,-97.43 2098.5,-96.69 2093.67,-95.86"/>
<polygon fill="midnightblue" stroke="midnightblue" points="3480.28,-150.79 3490.32,-147.41 3480.37,-143.79 3480.28,-150.79"/>
</g>
<!-- Node26 -->
<g id="node22" class="node">
<title>Node26</title>
<g id="a_node22"><a xlink:href="../../d6/dfb/vellipticalarc_8cpp.html" target="_top" xlink:title=" ">
<polygon fill="white" stroke="black" points="2027.5,-0.5 2027.5,-30.5 2134.5,-30.5 2134.5,-0.5 2027.5,-0.5"/>
<text text-anchor="start" x="2035.5" y="-18.5" font-family="Helvetica,sans-Serif" font-size="10.00">src/libs/vgeometry</text>
<text text-anchor="middle" x="2081" y="-7.5" font-family="Helvetica,sans-Serif" font-size="10.00">/vellipticalarc.cpp</text>
</a>
</g>
</g>
<!-- Node16&#45;&gt;Node26 -->
<g id="edge26" class="edge">
<title>Node16&#45;&gt;Node26</title>
<path fill="none" stroke="midnightblue" d="M3480.01,-147.3C3154.24,-143.33 2199.93,-129.1 2141,-98 2113.34,-83.4 2095.14,-49.7 2086.61,-30.52"/>
<polygon fill="midnightblue" stroke="midnightblue" points="3480.36,-150.8 3490.4,-147.42 3480.44,-143.8 3480.36,-150.8"/>
</g>
<!-- Node27 -->
<g id="node23" class="node">
<title>Node27</title>
<g id="a_node23"><a xlink:href="../../d1/d76/vspline__p_8h.html" target="_top" xlink:title=" ">
<polygon fill="white" stroke="red" points="2150.5,-67.5 2150.5,-97.5 2257.5,-97.5 2257.5,-67.5 2150.5,-67.5"/>
<text text-anchor="start" x="2158.5" y="-85.5" font-family="Helvetica,sans-Serif" font-size="10.00">src/libs/vgeometry</text>
<text text-anchor="middle" x="2204" y="-74.5" font-family="Helvetica,sans-Serif" font-size="10.00">/vspline_p.h</text>
</a>
</g>
</g>
<!-- Node16&#45;&gt;Node27 -->
<g id="edge25" class="edge">
<title>Node16&#45;&gt;Node27</title>
<path fill="none" stroke="midnightblue" d="M3479.82,-146.99C3207.78,-142.75 2500.32,-129.03 2267,-98 2264,-97.6 2260.93,-97.12 2257.83,-96.59"/>
<polygon fill="midnightblue" stroke="midnightblue" points="3480.04,-150.49 3490.09,-147.14 3480.15,-143.49 3480.04,-150.49"/>
</g>
<!-- Node29 -->
<g id="node24" class="node">
<title>Node29</title>
<g id="a_node24"><a xlink:href="../../d9/d15/vabstractpiece_8cpp.html" target="_top" xlink:title=" ">
<polygon fill="white" stroke="black" points="2276,-73 2276,-92 2462,-92 2462,-73 2276,-73"/>
<text text-anchor="middle" x="2369" y="-80" font-family="Helvetica,sans-Serif" font-size="10.00">src/libs/vlayout/vabstractpiece.cpp</text>
</a>
</g>
</g>
<!-- Node16&#45;&gt;Node29 -->
<g id="edge27" class="edge">
<title>Node16&#45;&gt;Node29</title>
<path fill="none" stroke="midnightblue" d="M3480.1,-147.06C3280.5,-143.64 2840.27,-132.51 2471,-98 2455.06,-96.51 2437.8,-94.29 2422.09,-92.03"/>
<polygon fill="midnightblue" stroke="midnightblue" points="3480.23,-150.57 3490.29,-147.23 3480.35,-143.57 3480.23,-150.57"/>
</g>
<!-- Node30 -->
<g id="node25" class="node">
<title>Node30</title>
<g id="a_node25"><a xlink:href="../../db/d65/dialogexporttocsv_8cpp.html" target="_top" xlink:title=" ">
<polygon fill="white" stroke="black" points="2480.5,-67.5 2480.5,-97.5 2607.5,-97.5 2607.5,-67.5 2480.5,-67.5"/>
<text text-anchor="start" x="2488.5" y="-85.5" font-family="Helvetica,sans-Serif" font-size="10.00">src/libs/vmisc/dialogs</text>
<text text-anchor="middle" x="2544" y="-74.5" font-family="Helvetica,sans-Serif" font-size="10.00">/dialogexporttocsv.cpp</text>
</a>
</g>
</g>
<!-- Node16&#45;&gt;Node30 -->
<g id="edge30" class="edge">
<title>Node16&#45;&gt;Node30</title>
<path fill="none" stroke="midnightblue" d="M3480.18,-147.95C3300.52,-145.91 2928.79,-136.87 2617,-98 2613.92,-97.62 2610.78,-97.18 2607.61,-96.7"/>
<polygon fill="midnightblue" stroke="midnightblue" points="3480.39,-151.46 3490.43,-148.07 3480.47,-144.46 3480.39,-151.46"/>
</g>
<!-- Node31 -->
<g id="node26" class="node">
<title>Node31</title>
<g id="a_node26"><a xlink:href="../../d6/d0b/def_8cpp.html" target="_top" xlink:title=" ">
<polygon fill="white" stroke="black" points="2626,-73 2626,-92 2748,-92 2748,-73 2626,-73"/>
<text text-anchor="middle" x="2687" y="-80" font-family="Helvetica,sans-Serif" font-size="10.00">src/libs/vmisc/def.cpp</text>
</a>
</g>
</g>
<!-- Node16&#45;&gt;Node31 -->
<g id="edge31" class="edge">
<title>Node16&#45;&gt;Node31</title>
<path fill="none" stroke="midnightblue" d="M3480.08,-146.88C3321.11,-143.38 3014.95,-132.37 2757,-98 2745.93,-96.52 2733.99,-94.29 2723.16,-92.02"/>
<polygon fill="midnightblue" stroke="midnightblue" points="3480.26,-150.38 3490.33,-147.1 3480.41,-143.39 3480.26,-150.38"/>
</g>
<!-- Node32 -->
<g id="node27" class="node">
<title>Node32</title>
<g id="a_node27"><a xlink:href="../../d0/df6/vabstractapplication_8cpp.html" target="_top" xlink:title=" ">
<polygon fill="white" stroke="black" points="2766,-73 2766,-92 2972,-92 2972,-73 2766,-73"/>
<text text-anchor="middle" x="2869" y="-80" font-family="Helvetica,sans-Serif" font-size="10.00">src/libs/vmisc/vabstractapplication.cpp</text>
</a>
</g>
</g>
<!-- Node16&#45;&gt;Node32 -->
<g id="edge32" class="edge">
<title>Node16&#45;&gt;Node32</title>
<path fill="none" stroke="midnightblue" d="M3480.32,-141.04C3358.86,-132.27 3155.51,-116.55 2981,-98 2964.72,-96.27 2947.14,-94.13 2930.85,-92.02"/>
<polygon fill="midnightblue" stroke="midnightblue" points="3480.14,-144.53 3490.36,-141.76 3480.64,-137.55 3480.14,-144.53"/>
</g>
<!-- Node33 -->
<g id="node28" class="node">
<title>Node33</title>
<g id="a_node28"><a xlink:href="../../d4/d4f/pmsystems_8cpp.html" target="_top" xlink:title=" ">
<polygon fill="white" stroke="black" points="2990.5,-67.5 2990.5,-97.5 3097.5,-97.5 3097.5,-67.5 2990.5,-67.5"/>
<text text-anchor="start" x="2998.5" y="-85.5" font-family="Helvetica,sans-Serif" font-size="10.00">src/libs/vpatterndb</text>
<text text-anchor="middle" x="3044" y="-74.5" font-family="Helvetica,sans-Serif" font-size="10.00">/pmsystems.cpp</text>
</a>
</g>
</g>
<!-- Node16&#45;&gt;Node33 -->
<g id="edge33" class="edge">
<title>Node16&#45;&gt;Node33</title>
<path fill="none" stroke="midnightblue" d="M3479.9,-141.07C3381.87,-133.41 3233.61,-119.52 3106,-98 3103.27,-97.54 3100.49,-97.03 3097.69,-96.49"/>
<polygon fill="midnightblue" stroke="midnightblue" points="3479.88,-144.58 3490.12,-141.86 3480.42,-137.6 3479.88,-144.58"/>
</g>
<!-- Node16&#45;&gt;Node34 -->
<g id="edge34" class="edge">
<title>Node16&#45;&gt;Node34</title>
<path fill="none" stroke="midnightblue" d="M3695.76,-148.94C4080.3,-150.05 5384.21,-149.8 5798,-98 5801.01,-97.62 5804.08,-97.17 5807.17,-96.65"/>
<polygon fill="midnightblue" stroke="midnightblue" points="3695.76,-145.44 3685.75,-148.91 3695.74,-152.44 3695.76,-145.44"/>
</g>
<!-- Node16&#45;&gt;Node35 -->
<g id="edge35" class="edge">
<title>Node16&#45;&gt;Node35</title>
<path fill="none" stroke="midnightblue" d="M3695.88,-147.47C4125.34,-143.17 5700.92,-125.66 5923,-98 5926.01,-97.63 5929.08,-97.17 5932.17,-96.65"/>
<polygon fill="midnightblue" stroke="midnightblue" points="3695.61,-143.97 3685.64,-147.57 3695.68,-150.97 3695.61,-143.97"/>
</g>
<!-- Node36 -->
<g id="node31" class="node">
<title>Node36</title>
<g id="a_node31"><a xlink:href="../../df/dba/vpiecenode__p_8h.html" target="_top" xlink:title=" ">
<polygon fill="white" stroke="black" points="3115.5,-67.5 3115.5,-97.5 3222.5,-97.5 3222.5,-67.5 3115.5,-67.5"/>
<text text-anchor="start" x="3123.5" y="-85.5" font-family="Helvetica,sans-Serif" font-size="10.00">src/libs/vpatterndb</text>
<text text-anchor="middle" x="3169" y="-74.5" font-family="Helvetica,sans-Serif" font-size="10.00">/vpiecenode_p.h</text>
</a>
</g>
</g>
<!-- Node16&#45;&gt;Node36 -->
<g id="edge36" class="edge">
<title>Node16&#45;&gt;Node36</title>
<path fill="none" stroke="midnightblue" d="M3504.78,-138.73C3432.42,-129.76 3324.91,-115.25 3232,-98 3228.91,-97.43 3225.74,-96.8 3222.55,-96.15"/>
<polygon fill="midnightblue" stroke="midnightblue" points="3504.4,-142.21 3514.75,-139.96 3505.25,-135.27 3504.4,-142.21"/>
</g>
<!-- Node16&#45;&gt;Node38 -->
<g id="edge38" class="edge">
<title>Node16&#45;&gt;Node38</title>
<path fill="none" stroke="midnightblue" d="M3696.05,-147.59C4140.2,-143.68 5813.05,-127.13 6048,-98 6051.01,-97.63 6054.08,-97.17 6057.17,-96.65"/>
<polygon fill="midnightblue" stroke="midnightblue" points="3695.75,-144.09 3685.78,-147.68 3695.81,-151.09 3695.75,-144.09"/>
</g>
<!-- Node39 -->
<g id="node34" class="node">
<title>Node39</title>
<g id="a_node34"><a xlink:href="../../de/d3e/vtranslatevars_8cpp.html" target="_top" xlink:title=" ">
<polygon fill="white" stroke="black" points="3241,-67.5 3241,-97.5 3351,-97.5 3351,-67.5 3241,-67.5"/>
<text text-anchor="start" x="3249" y="-85.5" font-family="Helvetica,sans-Serif" font-size="10.00">src/libs/vpatterndb</text>
<text text-anchor="middle" x="3296" y="-74.5" font-family="Helvetica,sans-Serif" font-size="10.00">/vtranslatevars.cpp</text>
</a>
</g>
</g>
<!-- Node16&#45;&gt;Node39 -->
<g id="edge39" class="edge">
<title>Node16&#45;&gt;Node39</title>
<path fill="none" stroke="midnightblue" d="M3539.23,-137.77C3493.05,-127.59 3421.79,-111.84 3360,-98 3357.11,-97.35 3354.15,-96.69 3351.15,-96.01"/>
<polygon fill="midnightblue" stroke="midnightblue" points="3538.74,-141.25 3549.26,-139.98 3540.25,-134.41 3538.74,-141.25"/>
</g>
<!-- Node40 -->
<g id="node35" class="node">
<title>Node40</title>
<g id="a_node35"><a xlink:href="../../df/d40/export__format__combobox_8cpp.html" target="_top" xlink:title=" ">
<polygon fill="white" stroke="black" points="3369.5,-67.5 3369.5,-97.5 3502.5,-97.5 3502.5,-67.5 3369.5,-67.5"/>
<text text-anchor="start" x="3377.5" y="-85.5" font-family="Helvetica,sans-Serif" font-size="10.00">src/libs/vwidgets/export</text>
<text text-anchor="middle" x="3436" y="-74.5" font-family="Helvetica,sans-Serif" font-size="10.00">_format_combobox.cpp</text>
</a>
</g>
</g>
<!-- Node16&#45;&gt;Node40 -->
<g id="edge40" class="edge">
<title>Node16&#45;&gt;Node40</title>
<path fill="none" stroke="midnightblue" d="M3558.57,-135.91C3532.83,-124.91 3495.49,-108.94 3468.8,-97.53"/>
<polygon fill="midnightblue" stroke="midnightblue" points="3557.24,-139.15 3567.82,-139.87 3560,-132.72 3557.24,-139.15"/>
</g>
<!-- Node41 -->
<g id="node36" class="node">
<title>Node41</title>
<g id="a_node36"><a xlink:href="../../d3/d4f/mouse__coordinates_8cpp.html" target="_top" xlink:title=" ">
<polygon fill="white" stroke="black" points="3521,-67.5 3521,-97.5 3655,-97.5 3655,-67.5 3521,-67.5"/>
<text text-anchor="start" x="3529" y="-85.5" font-family="Helvetica,sans-Serif" font-size="10.00">src/libs/vwidgets/mouse</text>
<text text-anchor="middle" x="3588" y="-74.5" font-family="Helvetica,sans-Serif" font-size="10.00">_coordinates.cpp</text>
</a>
</g>
</g>
<!-- Node16&#45;&gt;Node41 -->
<g id="edge41" class="edge">
<title>Node16&#45;&gt;Node41</title>
<path fill="none" stroke="midnightblue" d="M3588,-129.41C3588,-119.22 3588,-106.9 3588,-97.59"/>
<polygon fill="midnightblue" stroke="midnightblue" points="3584.5,-129.73 3588,-139.73 3591.5,-129.73 3584.5,-129.73"/>
</g>
<!-- Node42 -->
<g id="node37" class="node">
<title>Node42</title>
<g id="a_node37"><a xlink:href="../../d8/d76/scene__rect_8cpp.html" target="_top" xlink:title=" ">
<polygon fill="white" stroke="black" points="3673,-67.5 3673,-97.5 3803,-97.5 3803,-67.5 3673,-67.5"/>
<text text-anchor="start" x="3681" y="-85.5" font-family="Helvetica,sans-Serif" font-size="10.00">src/libs/vwidgets/scene</text>
<text text-anchor="middle" x="3738" y="-74.5" font-family="Helvetica,sans-Serif" font-size="10.00">_rect.cpp</text>
</a>
</g>
</g>
<!-- Node16&#45;&gt;Node42 -->
<g id="edge42" class="edge">
<title>Node16&#45;&gt;Node42</title>
<path fill="none" stroke="midnightblue" d="M3617.38,-135.77C3642.77,-124.77 3679.4,-108.89 3705.63,-97.53"/>
<polygon fill="midnightblue" stroke="midnightblue" points="3615.7,-132.68 3607.92,-139.87 3618.49,-139.1 3615.7,-132.68"/>
</g>
<!-- Node43 -->
<g id="node38" class="node">
<title>Node43</title>
<g id="a_node38"><a xlink:href="../../d7/d1b/pen__toolbar_8cpp.html" target="_top" xlink:title=" ">
<polygon fill="white" stroke="black" points="3821.5,-67.5 3821.5,-97.5 3940.5,-97.5 3940.5,-67.5 3821.5,-67.5"/>
<text text-anchor="start" x="3829.5" y="-85.5" font-family="Helvetica,sans-Serif" font-size="10.00">src/libs/vwidgets/pen</text>
<text text-anchor="middle" x="3881" y="-74.5" font-family="Helvetica,sans-Serif" font-size="10.00">_toolbar.cpp</text>
</a>
</g>
</g>
<!-- Node16&#45;&gt;Node43 -->
<g id="edge43" class="edge">
<title>Node16&#45;&gt;Node43</title>
<path fill="none" stroke="midnightblue" d="M3636.67,-137.7C3687.42,-126.44 3767.03,-108.78 3821.49,-96.7"/>
<polygon fill="midnightblue" stroke="midnightblue" points="3635.61,-134.35 3626.61,-139.94 3637.13,-141.19 3635.61,-134.35"/>
</g>
<!-- Node44 -->
<g id="node39" class="node">
<title>Node44</title>
<g id="a_node39"><a xlink:href="../../dd/df6/vabstractmainwindow_8cpp.html" target="_top" xlink:title=" ">
<polygon fill="white" stroke="black" points="3958.5,-73 3958.5,-92 4187.5,-92 4187.5,-73 3958.5,-73"/>
<text text-anchor="middle" x="4073" y="-80" font-family="Helvetica,sans-Serif" font-size="10.00">src/libs/vwidgets/vabstractmainwindow.cpp</text>
</a>
</g>
</g>
<!-- Node16&#45;&gt;Node44 -->
<g id="edge44" class="edge">
<title>Node16&#45;&gt;Node44</title>
<path fill="none" stroke="midnightblue" d="M3661.74,-138.62C3756.54,-125.91 3919.59,-104.06 4009.27,-92.04"/>
<polygon fill="midnightblue" stroke="midnightblue" points="3661.1,-135.17 3651.65,-139.97 3662.03,-142.11 3661.1,-135.17"/>
</g>
<!-- Node45 -->
<g id="node40" class="node">
<title>Node45</title>
<g id="a_node40"><a xlink:href="../../de/d45/vcontrolpointspline_8cpp.html" target="_top" xlink:title=" ">
<polygon fill="white" stroke="black" points="4205.5,-73 4205.5,-92 4420.5,-92 4420.5,-73 4205.5,-73"/>
<text text-anchor="middle" x="4313" y="-80" font-family="Helvetica,sans-Serif" font-size="10.00">src/libs/vwidgets/vcontrolpointspline.cpp</text>
</a>
</g>
</g>
<!-- Node16&#45;&gt;Node45 -->
<g id="edge45" class="edge">
<title>Node16&#45;&gt;Node45</title>
<path fill="none" stroke="midnightblue" d="M3695.58,-140.89C3817.18,-131.97 4021.02,-116.1 4196,-98 4212.9,-96.25 4231.14,-94.11 4248.07,-92.02"/>
<polygon fill="midnightblue" stroke="midnightblue" points="3695.24,-137.4 3685.52,-141.62 3695.75,-144.38 3695.24,-137.4"/>
</g>
<!-- Node46 -->
<g id="node41" class="node">
<title>Node46</title>
<g id="a_node41"><a xlink:href="../../d1/d90/vgrainlineitem_8cpp.html" target="_top" xlink:title=" ">
<polygon fill="white" stroke="black" points="4438.5,-73 4438.5,-92 4631.5,-92 4631.5,-73 4438.5,-73"/>
<text text-anchor="middle" x="4535" y="-80" font-family="Helvetica,sans-Serif" font-size="10.00">src/libs/vwidgets/vgrainlineitem.cpp</text>
</a>
</g>
</g>
<!-- Node16&#45;&gt;Node46 -->
<g id="edge46" class="edge">
<title>Node16&#45;&gt;Node46</title>
<path fill="none" stroke="midnightblue" d="M3695.97,-144.64C3856.22,-138.32 4166.37,-123.81 4429,-98 4445.17,-96.41 4462.68,-94.21 4478.71,-92.01"/>
<polygon fill="midnightblue" stroke="midnightblue" points="3695.49,-141.16 3685.63,-145.05 3695.76,-148.15 3695.49,-141.16"/>
</g>
<!-- Node47 -->
<g id="node42" class="node">
<title>Node47</title>
<g id="a_node42"><a xlink:href="../../de/dec/vgraphicssimpletextitem_8cpp.html" target="_top" xlink:title=" ">
<polygon fill="white" stroke="black" points="4650,-73 4650,-92 4894,-92 4894,-73 4650,-73"/>
<text text-anchor="middle" x="4772" y="-80" font-family="Helvetica,sans-Serif" font-size="10.00">src/libs/vwidgets/vgraphicssimpletextitem.cpp</text>
</a>
</g>
</g>
<!-- Node16&#45;&gt;Node47 -->
<g id="edge47" class="edge">
<title>Node16&#45;&gt;Node47</title>
<path fill="none" stroke="midnightblue" d="M3695.68,-145.51C3886.29,-139.74 4295.5,-125.16 4640,-98 4660.11,-96.41 4681.89,-94.22 4701.86,-92.02"/>
<polygon fill="midnightblue" stroke="midnightblue" points="3695.55,-142.02 3685.66,-145.82 3695.76,-149.01 3695.55,-142.02"/>
</g>
<!-- Node48 -->
<g id="node43" class="node">
<title>Node48</title>
<g id="a_node43"><a xlink:href="../../d1/d88/vmaingraphicsscene_8cpp.html" target="_top" xlink:title=" ">
<polygon fill="white" stroke="black" points="4912,-73 4912,-92 5134,-92 5134,-73 4912,-73"/>
<text text-anchor="middle" x="5023" y="-80" font-family="Helvetica,sans-Serif" font-size="10.00">src/libs/vwidgets/vmaingraphicsscene.cpp</text>
</a>
</g>
</g>
<!-- Node16&#45;&gt;Node48 -->
<g id="edge48" class="edge">
<title>Node16&#45;&gt;Node48</title>
<path fill="none" stroke="midnightblue" d="M3696.05,-147.34C3920.98,-144.27 4455.8,-133.55 4903,-98 4921.72,-96.51 4942.02,-94.29 4960.51,-92.03"/>
<polygon fill="midnightblue" stroke="midnightblue" points="3695.85,-143.84 3685.9,-147.48 3695.95,-150.84 3695.85,-143.84"/>
</g>
<!-- Node49 -->
<g id="node44" class="node">
<title>Node49</title>
<g id="a_node44"><a xlink:href="../../de/d22/vsimplecurve_8cpp.html" target="_top" xlink:title=" ">
<polygon fill="white" stroke="black" points="5152,-73 5152,-92 5340,-92 5340,-73 5152,-73"/>
<text text-anchor="middle" x="5246" y="-80" font-family="Helvetica,sans-Serif" font-size="10.00">src/libs/vwidgets/vsimplecurve.cpp</text>
</a>
</g>
</g>
<!-- Node16&#45;&gt;Node49 -->
<g id="edge49" class="edge">
<title>Node16&#45;&gt;Node49</title>
<path fill="none" stroke="midnightblue" d="M3695.85,-148.98C3949.01,-149.23 4600.87,-144.83 5143,-98 5159.46,-96.58 5177.31,-94.32 5193.46,-92.01"/>
<polygon fill="midnightblue" stroke="midnightblue" points="3695.56,-145.48 3685.56,-148.96 3695.55,-152.48 3695.56,-145.48"/>
</g>
<!-- Node25&#45;&gt;Node26 -->
<g id="edge24" class="edge">
<title>Node25&#45;&gt;Node26</title>
<path fill="none" stroke="midnightblue" d="M2054.28,-58.87C2060.21,-49.46 2066.91,-38.83 2072.12,-30.58"/>
<polygon fill="midnightblue" stroke="midnightblue" points="2051.27,-57.07 2048.9,-67.4 2057.19,-60.81 2051.27,-57.07"/>
</g>
<!-- Node36&#45;&gt;Node37 -->
<g id="edge37" class="edge">
<title>Node36&#45;&gt;Node37</title>
<path fill="none" stroke="midnightblue" d="M3233.16,-67.08C3530.41,-30.29 4401.92,-19.29 4627.32,-17"/>
<polygon fill="midnightblue" stroke="midnightblue" points="3232.31,-63.66 3222.83,-68.4 3233.2,-70.6 3232.31,-63.66"/>
</g>
</g>
</svg>
