<?xml version="1.0" encoding="UTF-8" standalone="no"?>
<!DOCTYPE svg PUBLIC "-//W3C//DTD SVG 1.1//EN"
 "http://www.w3.org/Graphics/SVG/1.1/DTD/svg11.dtd">
<!-- Generated by graphviz version 2.43.0 (0)
 -->
<!-- Title: src/libs/ifc/xml/vtoolrecord.h Pages: 1 -->
<svg width="1612pt" height="274pt"
 viewBox="0.00 0.00 1611.50 274.00" xmlns="http://www.w3.org/2000/svg" xmlns:xlink="http://www.w3.org/1999/xlink">
<g id="graph0" class="graph" transform="scale(1 1) rotate(0) translate(4 270)">
<title>src/libs/ifc/xml/vtoolrecord.h</title>
<polygon fill="white" stroke="transparent" points="-4,4 -4,-270 1607.5,-270 1607.5,4 -4,4"/>
<!-- Node1 -->
<g id="node1" class="node">
<title>Node1</title>
<g id="a_node1"><a xlink:title=" ">
<polygon fill="#bfbfbf" stroke="black" points="799.5,-246.5 799.5,-265.5 954.5,-265.5 954.5,-246.5 799.5,-246.5"/>
<text text-anchor="middle" x="877" y="-253.5" font-family="Helvetica,sans-Serif" font-size="10.00">src/libs/ifc/xml/vtoolrecord.h</text>
</a>
</g>
</g>
<!-- Node2 -->
<g id="node2" class="node">
<title>Node2</title>
<g id="a_node2"><a xlink:href="../../d0/d89/vabstractpattern_8h.html" target="_top" xlink:title=" ">
<polygon fill="white" stroke="black" points="786.5,-190.5 786.5,-209.5 967.5,-209.5 967.5,-190.5 786.5,-190.5"/>
<text text-anchor="middle" x="877" y="-197.5" font-family="Helvetica,sans-Serif" font-size="10.00">src/libs/ifc/xml/vabstractpattern.h</text>
</a>
</g>
</g>
<!-- Node1&#45;&gt;Node2 -->
<g id="edge1" class="edge">
<title>Node1&#45;&gt;Node2</title>
<path fill="none" stroke="midnightblue" d="M877,-235.8C877,-226.91 877,-216.78 877,-209.75"/>
<polygon fill="midnightblue" stroke="midnightblue" points="873.5,-236.08 877,-246.08 880.5,-236.08 873.5,-236.08"/>
</g>
<!-- Node3 -->
<g id="node3" class="node">
<title>Node3</title>
<g id="a_node3"><a xlink:href="../../de/d7d/vabstractpattern_8cpp.html" target="_top" xlink:title=" ">
<polygon fill="white" stroke="black" points="300,-129 300,-148 492,-148 492,-129 300,-129"/>
<text text-anchor="middle" x="396" y="-136" font-family="Helvetica,sans-Serif" font-size="10.00">src/libs/ifc/xml/vabstractpattern.cpp</text>
</a>
</g>
</g>
<!-- Node1&#45;&gt;Node3 -->
<g id="edge22" class="edge">
<title>Node1&#45;&gt;Node3</title>
<path fill="none" stroke="midnightblue" d="M831.32,-244.03C735.99,-221.14 517.6,-168.7 431.67,-148.06"/>
<polygon fill="midnightblue" stroke="midnightblue" points="830.7,-247.48 841.24,-246.41 832.33,-240.67 830.7,-247.48"/>
</g>
<!-- Node21 -->
<g id="node21" class="node">
<title>Node21</title>
<g id="a_node21"><a xlink:href="../../d6/d6f/vtoolrecord_8cpp.html" target="_top" xlink:title=" ">
<polygon fill="white" stroke="black" points="985.5,-190.5 985.5,-209.5 1152.5,-209.5 1152.5,-190.5 985.5,-190.5"/>
<text text-anchor="middle" x="1069" y="-197.5" font-family="Helvetica,sans-Serif" font-size="10.00">src/libs/ifc/xml/vtoolrecord.cpp</text>
</a>
</g>
</g>
<!-- Node1&#45;&gt;Node21 -->
<g id="edge23" class="edge">
<title>Node1&#45;&gt;Node21</title>
<path fill="none" stroke="midnightblue" d="M917.18,-243.7C953.42,-233.51 1005.91,-218.74 1038.72,-209.52"/>
<polygon fill="midnightblue" stroke="midnightblue" points="916.1,-240.37 907.42,-246.44 918,-247.11 916.1,-240.37"/>
</g>
<!-- Node2&#45;&gt;Node3 -->
<g id="edge2" class="edge">
<title>Node2&#45;&gt;Node3</title>
<path fill="none" stroke="midnightblue" d="M792.37,-189.31C716.13,-180.48 601,-166.89 501,-154 486.49,-152.13 470.87,-150.02 456.22,-148.01"/>
<polygon fill="midnightblue" stroke="midnightblue" points="792.06,-192.8 802.4,-190.48 792.87,-185.85 792.06,-192.8"/>
</g>
<!-- Node4 -->
<g id="node4" class="node">
<title>Node4</title>
<g id="a_node4"><a xlink:href="../../d8/d70/vtextmanager_8cpp.html" target="_top" xlink:title=" ">
<polygon fill="white" stroke="black" points="510,-129 510,-148 692,-148 692,-129 510,-129"/>
<text text-anchor="middle" x="601" y="-136" font-family="Helvetica,sans-Serif" font-size="10.00">src/libs/vlayout/vtextmanager.cpp</text>
</a>
</g>
</g>
<!-- Node2&#45;&gt;Node4 -->
<g id="edge3" class="edge">
<title>Node2&#45;&gt;Node4</title>
<path fill="none" stroke="midnightblue" d="M827.51,-188.33C773.98,-176.79 689.73,-158.63 640.47,-148.01"/>
<polygon fill="midnightblue" stroke="midnightblue" points="826.94,-191.79 837.46,-190.48 828.42,-184.95 826.94,-191.79"/>
</g>
<!-- Node5 -->
<g id="node5" class="node">
<title>Node5</title>
<g id="a_node5"><a xlink:href="../../d6/de0/vlayoutpiece_8h.html" target="_top" xlink:title=" ">
<polygon fill="white" stroke="black" points="710,-129 710,-148 876,-148 876,-129 710,-129"/>
<text text-anchor="middle" x="793" y="-136" font-family="Helvetica,sans-Serif" font-size="10.00">src/libs/vlayout/vlayoutpiece.h</text>
</a>
</g>
</g>
<!-- Node2&#45;&gt;Node5 -->
<g id="edge4" class="edge">
<title>Node2&#45;&gt;Node5</title>
<path fill="none" stroke="midnightblue" d="M856.69,-184.61C840.53,-173.17 818.48,-157.55 805.01,-148.01"/>
<polygon fill="midnightblue" stroke="midnightblue" points="854.78,-187.55 864.96,-190.48 858.83,-181.84 854.78,-187.55"/>
</g>
<!-- Node15 -->
<g id="node15" class="node">
<title>Node15</title>
<g id="a_node15"><a xlink:href="../../d0/da5/export__format__combobox_8h.html" target="_top" xlink:title=" ">
<polygon fill="white" stroke="black" points="894.5,-123.5 894.5,-153.5 1027.5,-153.5 1027.5,-123.5 894.5,-123.5"/>
<text text-anchor="start" x="902.5" y="-141.5" font-family="Helvetica,sans-Serif" font-size="10.00">src/libs/vwidgets/export</text>
<text text-anchor="middle" x="961" y="-130.5" font-family="Helvetica,sans-Serif" font-size="10.00">_format_combobox.h</text>
</a>
</g>
</g>
<!-- Node2&#45;&gt;Node15 -->
<g id="edge16" class="edge">
<title>Node2&#45;&gt;Node15</title>
<path fill="none" stroke="midnightblue" d="M897.52,-184.47C910.82,-175.05 928.05,-162.84 941.2,-153.52"/>
<polygon fill="midnightblue" stroke="midnightblue" points="895.17,-181.84 889.04,-190.48 899.22,-187.55 895.17,-181.84"/>
</g>
<!-- Node17 -->
<g id="node17" class="node">
<title>Node17</title>
<g id="a_node17"><a xlink:href="../../d7/df4/group__tablewidgetitem_8cpp.html" target="_top" xlink:title=" ">
<polygon fill="white" stroke="black" points="1045.5,-123.5 1045.5,-153.5 1174.5,-153.5 1174.5,-123.5 1045.5,-123.5"/>
<text text-anchor="start" x="1053.5" y="-141.5" font-family="Helvetica,sans-Serif" font-size="10.00">src/libs/vwidgets/group</text>
<text text-anchor="middle" x="1110" y="-130.5" font-family="Helvetica,sans-Serif" font-size="10.00">_tablewidgetitem.cpp</text>
</a>
</g>
</g>
<!-- Node2&#45;&gt;Node17 -->
<g id="edge18" class="edge">
<title>Node2&#45;&gt;Node17</title>
<path fill="none" stroke="midnightblue" d="M920.14,-187.98C958.2,-178.27 1013.86,-164.05 1055.09,-153.52"/>
<polygon fill="midnightblue" stroke="midnightblue" points="919.21,-184.61 910.38,-190.48 920.94,-191.39 919.21,-184.61"/>
</g>
<!-- Node18 -->
<g id="node18" class="node">
<title>Node18</title>
<g id="a_node18"><a xlink:href="../../d3/d86/page__format__combobox_8h.html" target="_top" xlink:title=" ">
<polygon fill="white" stroke="black" points="1192.5,-123.5 1192.5,-153.5 1317.5,-153.5 1317.5,-123.5 1192.5,-123.5"/>
<text text-anchor="start" x="1200.5" y="-141.5" font-family="Helvetica,sans-Serif" font-size="10.00">src/libs/vwidgets/page</text>
<text text-anchor="middle" x="1255" y="-130.5" font-family="Helvetica,sans-Serif" font-size="10.00">_format_combobox.h</text>
</a>
</g>
</g>
<!-- Node2&#45;&gt;Node18 -->
<g id="edge19" class="edge">
<title>Node2&#45;&gt;Node18</title>
<path fill="none" stroke="midnightblue" d="M952.58,-189.12C1014.83,-180.7 1105.34,-167.79 1184,-154 1186.73,-153.52 1189.51,-153.02 1192.32,-152.5"/>
<polygon fill="midnightblue" stroke="midnightblue" points="951.89,-185.68 942.45,-190.49 952.83,-192.62 951.89,-185.68"/>
</g>
<!-- Node20 -->
<g id="node20" class="node">
<title>Node20</title>
<g id="a_node20"><a xlink:href="../../de/d22/vsimplecurve_8cpp.html" target="_top" xlink:title=" ">
<polygon fill="white" stroke="black" points="1336,-129 1336,-148 1524,-148 1524,-129 1336,-129"/>
<text text-anchor="middle" x="1430" y="-136" font-family="Helvetica,sans-Serif" font-size="10.00">src/libs/vwidgets/vsimplecurve.cpp</text>
</a>
</g>
</g>
<!-- Node2&#45;&gt;Node20 -->
<g id="edge21" class="edge">
<title>Node2&#45;&gt;Node20</title>
<path fill="none" stroke="midnightblue" d="M976.74,-189.5C1088.17,-178.8 1261.52,-161.88 1327,-154 1341.79,-152.22 1357.75,-150.08 1372.58,-148"/>
<polygon fill="midnightblue" stroke="midnightblue" points="976.11,-186.04 966.49,-190.48 976.78,-193.01 976.11,-186.04"/>
</g>
<!-- Node6 -->
<g id="node6" class="node">
<title>Node6</title>
<g id="a_node6"><a xlink:href="../../dd/d66/vdxfengine_8cpp.html" target="_top" xlink:title=" ">
<polygon fill="white" stroke="black" points="0,-62 0,-81 154,-81 154,-62 0,-62"/>
<text text-anchor="middle" x="77" y="-69" font-family="Helvetica,sans-Serif" font-size="10.00">src/libs/vdxf/vdxfengine.cpp</text>
</a>
</g>
</g>
<!-- Node5&#45;&gt;Node6 -->
<g id="edge5" class="edge">
<title>Node5&#45;&gt;Node6</title>
<path fill="none" stroke="midnightblue" d="M734.02,-127.4C723.07,-125.76 711.7,-124.2 701,-123 462.84,-96.32 401.01,-114.96 163,-87 149.77,-85.45 135.47,-83.25 122.4,-81.03"/>
<polygon fill="midnightblue" stroke="midnightblue" points="733.51,-130.87 743.93,-128.93 734.58,-123.95 733.51,-130.87"/>
</g>
<!-- Node7 -->
<g id="node7" class="node">
<title>Node7</title>
<g id="a_node7"><a xlink:href="../../de/da8/vbank_8cpp.html" target="_top" xlink:title=" ">
<polygon fill="white" stroke="black" points="172,-62 172,-81 316,-81 316,-62 172,-62"/>
<text text-anchor="middle" x="244" y="-69" font-family="Helvetica,sans-Serif" font-size="10.00">src/libs/vlayout/vbank.cpp</text>
</a>
</g>
</g>
<!-- Node5&#45;&gt;Node7 -->
<g id="edge6" class="edge">
<title>Node5&#45;&gt;Node7</title>
<path fill="none" stroke="midnightblue" d="M732.53,-127.43C722.03,-125.84 711.21,-124.29 701,-123 534.45,-101.92 491.32,-109.81 325,-87 312.97,-85.35 300,-83.2 288.04,-81.06"/>
<polygon fill="midnightblue" stroke="midnightblue" points="732.05,-130.9 742.46,-128.97 733.12,-123.98 732.05,-130.9"/>
</g>
<!-- Node8 -->
<g id="node8" class="node">
<title>Node8</title>
<g id="a_node8"><a xlink:href="../../df/d5d/vcontour_8cpp.html" target="_top" xlink:title=" ">
<polygon fill="white" stroke="black" points="334,-62 334,-81 490,-81 490,-62 334,-62"/>
<text text-anchor="middle" x="412" y="-69" font-family="Helvetica,sans-Serif" font-size="10.00">src/libs/vlayout/vcontour.cpp</text>
</a>
</g>
</g>
<!-- Node5&#45;&gt;Node8 -->
<g id="edge7" class="edge">
<title>Node5&#45;&gt;Node8</title>
<path fill="none" stroke="midnightblue" d="M732.59,-127.19C657.77,-114.43 531.67,-92.92 462.01,-81.03"/>
<polygon fill="midnightblue" stroke="midnightblue" points="732.35,-130.7 742.8,-128.94 733.53,-123.8 732.35,-130.7"/>
</g>
<!-- Node9 -->
<g id="node9" class="node">
<title>Node9</title>
<g id="a_node9"><a xlink:href="../../d3/d39/vlayoutgenerator_8cpp.html" target="_top" xlink:title=" ">
<polygon fill="white" stroke="black" points="508.5,-62 508.5,-81 705.5,-81 705.5,-62 508.5,-62"/>
<text text-anchor="middle" x="607" y="-69" font-family="Helvetica,sans-Serif" font-size="10.00">src/libs/vlayout/vlayoutgenerator.cpp</text>
</a>
</g>
</g>
<!-- Node5&#45;&gt;Node9 -->
<g id="edge8" class="edge">
<title>Node5&#45;&gt;Node9</title>
<path fill="none" stroke="midnightblue" d="M758.48,-125.44C721.58,-112.54 664.01,-92.42 631.51,-81.06"/>
<polygon fill="midnightblue" stroke="midnightblue" points="757.71,-128.87 768.3,-128.87 760.02,-122.27 757.71,-128.87"/>
</g>
<!-- Node10 -->
<g id="node10" class="node">
<title>Node10</title>
<g id="a_node10"><a xlink:href="../../d1/dd1/vlayoutpaper_8cpp.html" target="_top" xlink:title=" ">
<polygon fill="white" stroke="black" points="763,-0.5 763,-19.5 941,-19.5 941,-0.5 763,-0.5"/>
<text text-anchor="middle" x="852" y="-7.5" font-family="Helvetica,sans-Serif" font-size="10.00">src/libs/vlayout/vlayoutpaper.cpp</text>
</a>
</g>
</g>
<!-- Node5&#45;&gt;Node10 -->
<g id="edge9" class="edge">
<title>Node5&#45;&gt;Node10</title>
<path fill="none" stroke="midnightblue" d="M775.32,-121.42C758.97,-104.54 739.14,-77.52 753,-56 765.21,-37.03 787.6,-25.97 807.99,-19.56"/>
<polygon fill="midnightblue" stroke="midnightblue" points="773.3,-124.34 782.9,-128.82 778.19,-119.33 773.3,-124.34"/>
</g>
<!-- Node11 -->
<g id="node11" class="node">
<title>Node11</title>
<g id="a_node11"><a xlink:href="../../d2/d2d/vlayoutpaper__p_8h.html" target="_top" xlink:title=" ">
<polygon fill="white" stroke="black" points="762.5,-62 762.5,-81 941.5,-81 941.5,-62 762.5,-62"/>
<text text-anchor="middle" x="852" y="-69" font-family="Helvetica,sans-Serif" font-size="10.00">src/libs/vlayout/vlayoutpaper_p.h</text>
</a>
</g>
</g>
<!-- Node5&#45;&gt;Node11 -->
<g id="edge10" class="edge">
<title>Node5&#45;&gt;Node11</title>
<path fill="none" stroke="midnightblue" d="M807.85,-121.13C819.39,-108.42 834.94,-91.3 844.17,-81.13"/>
<polygon fill="midnightblue" stroke="midnightblue" points="805.09,-118.98 800.96,-128.73 810.27,-123.68 805.09,-118.98"/>
</g>
<!-- Node12 -->
<g id="node12" class="node">
<title>Node12</title>
<g id="a_node12"><a xlink:href="../../dd/d70/vlayoutpiece_8cpp.html" target="_top" xlink:title=" ">
<polygon fill="white" stroke="black" points="959.5,-62 959.5,-81 1136.5,-81 1136.5,-62 959.5,-62"/>
<text text-anchor="middle" x="1048" y="-69" font-family="Helvetica,sans-Serif" font-size="10.00">src/libs/vlayout/vlayoutpiece.cpp</text>
</a>
</g>
</g>
<!-- Node5&#45;&gt;Node12 -->
<g id="edge12" class="edge">
<title>Node5&#45;&gt;Node12</title>
<path fill="none" stroke="midnightblue" d="M836.53,-126.4C886.86,-113.58 968.61,-92.74 1014.33,-81.08"/>
<polygon fill="midnightblue" stroke="midnightblue" points="835.42,-123.07 826.6,-128.94 837.15,-129.86 835.42,-123.07"/>
</g>
<!-- Node13 -->
<g id="node13" class="node">
<title>Node13</title>
<g id="a_node13"><a xlink:href="../../db/d5c/vposition_8h.html" target="_top" xlink:title=" ">
<polygon fill="white" stroke="black" points="1155,-62 1155,-81 1303,-81 1303,-62 1155,-62"/>
<text text-anchor="middle" x="1229" y="-69" font-family="Helvetica,sans-Serif" font-size="10.00">src/libs/vlayout/vposition.h</text>
</a>
</g>
</g>
<!-- Node5&#45;&gt;Node13 -->
<g id="edge13" class="edge">
<title>Node5&#45;&gt;Node13</title>
<path fill="none" stroke="midnightblue" d="M856.01,-127.4C865.71,-125.9 875.62,-124.39 885,-123 1000.84,-105.88 1030.31,-105.08 1146,-87 1157.56,-85.19 1170,-83.1 1181.65,-81.08"/>
<polygon fill="midnightblue" stroke="midnightblue" points="855.34,-123.97 846,-128.97 856.42,-130.88 855.34,-123.97"/>
</g>
<!-- Node11&#45;&gt;Node10 -->
<g id="edge11" class="edge">
<title>Node11&#45;&gt;Node10</title>
<path fill="none" stroke="midnightblue" d="M852,-51.82C852,-41 852,-27.9 852,-19.51"/>
<polygon fill="midnightblue" stroke="midnightblue" points="848.5,-51.98 852,-61.98 855.5,-51.98 848.5,-51.98"/>
</g>
<!-- Node13&#45;&gt;Node10 -->
<g id="edge14" class="edge">
<title>Node13&#45;&gt;Node10</title>
<path fill="none" stroke="midnightblue" d="M1171.33,-60.26C1162.84,-58.8 1154.2,-57.34 1146,-56 1064.21,-42.6 969.42,-28.31 910.07,-19.52"/>
<polygon fill="midnightblue" stroke="midnightblue" points="1170.74,-63.71 1181.19,-61.97 1171.93,-56.82 1170.74,-63.71"/>
</g>
<!-- Node14 -->
<g id="node14" class="node">
<title>Node14</title>
<g id="a_node14"><a xlink:href="../../df/d76/vposition_8cpp.html" target="_top" xlink:title=" ">
<polygon fill="white" stroke="black" points="1149.5,-0.5 1149.5,-19.5 1308.5,-19.5 1308.5,-0.5 1149.5,-0.5"/>
<text text-anchor="middle" x="1229" y="-7.5" font-family="Helvetica,sans-Serif" font-size="10.00">src/libs/vlayout/vposition.cpp</text>
</a>
</g>
</g>
<!-- Node13&#45;&gt;Node14 -->
<g id="edge15" class="edge">
<title>Node13&#45;&gt;Node14</title>
<path fill="none" stroke="midnightblue" d="M1229,-51.82C1229,-41 1229,-27.9 1229,-19.51"/>
<polygon fill="midnightblue" stroke="midnightblue" points="1225.5,-51.98 1229,-61.98 1232.5,-51.98 1225.5,-51.98"/>
</g>
<!-- Node16 -->
<g id="node16" class="node">
<title>Node16</title>
<g id="a_node16"><a xlink:href="../../df/d40/export__format__combobox_8cpp.html" target="_top" xlink:title=" ">
<polygon fill="white" stroke="black" points="1321.5,-56.5 1321.5,-86.5 1454.5,-86.5 1454.5,-56.5 1321.5,-56.5"/>
<text text-anchor="start" x="1329.5" y="-74.5" font-family="Helvetica,sans-Serif" font-size="10.00">src/libs/vwidgets/export</text>
<text text-anchor="middle" x="1388" y="-63.5" font-family="Helvetica,sans-Serif" font-size="10.00">_format_combobox.cpp</text>
</a>
</g>
</g>
<!-- Node15&#45;&gt;Node16 -->
<g id="edge17" class="edge">
<title>Node15&#45;&gt;Node16</title>
<path fill="none" stroke="midnightblue" d="M1037.85,-122.93C1160.43,-103.59 1193.51,-106.04 1312,-87 1315.05,-86.51 1318.17,-85.99 1321.31,-85.45"/>
<polygon fill="midnightblue" stroke="midnightblue" points="1037.01,-119.52 1027.69,-124.55 1038.12,-126.43 1037.01,-119.52"/>
</g>
<!-- Node19 -->
<g id="node19" class="node">
<title>Node19</title>
<g id="a_node19"><a xlink:href="../../d2/d28/page__format__combobox_8cpp.html" target="_top" xlink:title=" ">
<polygon fill="white" stroke="black" points="1472.5,-56.5 1472.5,-86.5 1603.5,-86.5 1603.5,-56.5 1472.5,-56.5"/>
<text text-anchor="start" x="1480.5" y="-74.5" font-family="Helvetica,sans-Serif" font-size="10.00">src/libs/vwidgets/page</text>
<text text-anchor="middle" x="1538" y="-63.5" font-family="Helvetica,sans-Serif" font-size="10.00">_format_combobox.cpp</text>
</a>
</g>
</g>
<!-- Node18&#45;&gt;Node19 -->
<g id="edge20" class="edge">
<title>Node18&#45;&gt;Node19</title>
<path fill="none" stroke="midnightblue" d="M1326.03,-121.19C1372.38,-110.54 1432.27,-96.78 1476.56,-86.61"/>
<polygon fill="midnightblue" stroke="midnightblue" points="1325.02,-117.83 1316.06,-123.48 1326.59,-124.65 1325.02,-117.83"/>
</g>
</g>
</svg>
