<?xml version="1.0" encoding="UTF-8" standalone="no"?>
<!DOCTYPE svg PUBLIC "-//W3C//DTD SVG 1.1//EN"
 "http://www.w3.org/Graphics/SVG/1.1/DTD/svg11.dtd">
<!-- Generated by graphviz version 2.43.0 (0)
 -->
<!-- Title: XMLBufferMgr Pages: 1 -->
<svg width="507pt" height="969pt"
 viewBox="0.00 0.00 506.50 969.00" xmlns="http://www.w3.org/2000/svg" xmlns:xlink="http://www.w3.org/1999/xlink">
<g id="graph0" class="graph" transform="scale(1 1) rotate(0) translate(4 965)">
<title>XMLBufferMgr</title>
<polygon fill="white" stroke="transparent" points="-4,4 -4,-965 502.5,-965 502.5,4 -4,4"/>
<!-- Node1 -->
<g id="node1" class="node">
<title>Node1</title>
<g id="a_node1"><a xlink:title=" ">
<polygon fill="#bfbfbf" stroke="black" points="0,-0.5 0,-222.5 151,-222.5 151,-0.5 0,-0.5"/>
<text text-anchor="middle" x="75.5" y="-210.5" font-family="Helvetica,sans-Serif" font-size="10.00">XMLBufferMgr</text>
<polyline fill="none" stroke="black" points="0,-203.5 151,-203.5 "/>
<text text-anchor="middle" x="75.5" y="-191.5" font-family="Helvetica,sans-Serif" font-size="10.00"> </text>
<polyline fill="none" stroke="black" points="0,-184.5 151,-184.5 "/>
<text text-anchor="start" x="8" y="-172.5" font-family="Helvetica,sans-Serif" font-size="10.00">+ XMLBufferMgr()</text>
<text text-anchor="start" x="8" y="-161.5" font-family="Helvetica,sans-Serif" font-size="10.00">+ XMLBufferMgr()</text>
<text text-anchor="start" x="8" y="-150.5" font-family="Helvetica,sans-Serif" font-size="10.00">+ XMLBufferMgr()</text>
<text text-anchor="start" x="8" y="-139.5" font-family="Helvetica,sans-Serif" font-size="10.00">* fBufCount</text>
<text text-anchor="start" x="8" y="-128.5" font-family="Helvetica,sans-Serif" font-size="10.00">* ~XMLBufferMgr()</text>
<text text-anchor="start" x="8" y="-117.5" font-family="Helvetica,sans-Serif" font-size="10.00">* bidOnBuffer()</text>
<text text-anchor="start" x="8" y="-106.5" font-family="Helvetica,sans-Serif" font-size="10.00">* releaseBuffer()</text>
<text text-anchor="start" x="8" y="-95.5" font-family="Helvetica,sans-Serif" font-size="10.00">* getBufferCount()</text>
<text text-anchor="start" x="8" y="-84.5" font-family="Helvetica,sans-Serif" font-size="10.00">* getAvailableBufferCount()</text>
<text text-anchor="start" x="8" y="-73.5" font-family="Helvetica,sans-Serif" font-size="10.00">* ~XMLBufferMgr()</text>
<text text-anchor="start" x="8" y="-62.5" font-family="Helvetica,sans-Serif" font-size="10.00">* bidOnBuffer()</text>
<text text-anchor="start" x="8" y="-51.5" font-family="Helvetica,sans-Serif" font-size="10.00">* releaseBuffer()</text>
<text text-anchor="start" x="8" y="-40.5" font-family="Helvetica,sans-Serif" font-size="10.00">* getBufferCount()</text>
<text text-anchor="start" x="8" y="-29.5" font-family="Helvetica,sans-Serif" font-size="10.00">and 12 more...</text>
<text text-anchor="start" x="8" y="-18.5" font-family="Helvetica,sans-Serif" font-size="10.00">* XMLBufferMgr()</text>
<text text-anchor="start" x="8" y="-7.5" font-family="Helvetica,sans-Serif" font-size="10.00">* XMLBufferMgr()</text>
</a>
</g>
</g>
<!-- Node2 -->
<g id="node2" class="node">
<title>Node2</title>
<g id="a_node2"><a xlink:href="../../d5/d80/classXMemory.html" target="_top" xlink:title=" ">
<polygon fill="white" stroke="black" points="20.5,-579 20.5,-933 130.5,-933 130.5,-579 20.5,-579"/>
<text text-anchor="middle" x="75.5" y="-921" font-family="Helvetica,sans-Serif" font-size="10.00">XMemory</text>
<polyline fill="none" stroke="black" points="20.5,-914 130.5,-914 "/>
<text text-anchor="middle" x="75.5" y="-902" font-family="Helvetica,sans-Serif" font-size="10.00"> </text>
<polyline fill="none" stroke="black" points="20.5,-895 130.5,-895 "/>
<text text-anchor="start" x="28.5" y="-883" font-family="Helvetica,sans-Serif" font-size="10.00">+ operator new()</text>
<text text-anchor="start" x="28.5" y="-872" font-family="Helvetica,sans-Serif" font-size="10.00">+ operator new()</text>
<text text-anchor="start" x="28.5" y="-861" font-family="Helvetica,sans-Serif" font-size="10.00">+ operator new()</text>
<text text-anchor="start" x="28.5" y="-850" font-family="Helvetica,sans-Serif" font-size="10.00">+ operator delete()</text>
<text text-anchor="start" x="28.5" y="-839" font-family="Helvetica,sans-Serif" font-size="10.00">+ operator delete()</text>
<text text-anchor="start" x="28.5" y="-828" font-family="Helvetica,sans-Serif" font-size="10.00">+ operator delete()</text>
<text text-anchor="start" x="28.5" y="-817" font-family="Helvetica,sans-Serif" font-size="10.00">+ operator new()</text>
<text text-anchor="start" x="28.5" y="-806" font-family="Helvetica,sans-Serif" font-size="10.00">+ operator new()</text>
<text text-anchor="start" x="28.5" y="-795" font-family="Helvetica,sans-Serif" font-size="10.00">+ operator new()</text>
<text text-anchor="start" x="28.5" y="-784" font-family="Helvetica,sans-Serif" font-size="10.00">+ operator delete()</text>
<text text-anchor="start" x="28.5" y="-773" font-family="Helvetica,sans-Serif" font-size="10.00">and 8 more...</text>
<text text-anchor="start" x="28.5" y="-762" font-family="Helvetica,sans-Serif" font-size="10.00"># XMemory()</text>
<text text-anchor="start" x="28.5" y="-751" font-family="Helvetica,sans-Serif" font-size="10.00"># XMemory()</text>
<text text-anchor="start" x="28.5" y="-740" font-family="Helvetica,sans-Serif" font-size="10.00"># XMemory()</text>
<text text-anchor="start" x="28.5" y="-729" font-family="Helvetica,sans-Serif" font-size="10.00">* operator new()</text>
<text text-anchor="start" x="28.5" y="-718" font-family="Helvetica,sans-Serif" font-size="10.00">* operator new()</text>
<text text-anchor="start" x="28.5" y="-707" font-family="Helvetica,sans-Serif" font-size="10.00">* operator new()</text>
<text text-anchor="start" x="28.5" y="-696" font-family="Helvetica,sans-Serif" font-size="10.00">* operator delete()</text>
<text text-anchor="start" x="28.5" y="-685" font-family="Helvetica,sans-Serif" font-size="10.00">* operator delete()</text>
<text text-anchor="start" x="28.5" y="-674" font-family="Helvetica,sans-Serif" font-size="10.00">* operator delete()</text>
<text text-anchor="start" x="28.5" y="-663" font-family="Helvetica,sans-Serif" font-size="10.00">* operator new()</text>
<text text-anchor="start" x="28.5" y="-652" font-family="Helvetica,sans-Serif" font-size="10.00">* operator new()</text>
<text text-anchor="start" x="28.5" y="-641" font-family="Helvetica,sans-Serif" font-size="10.00">* operator new()</text>
<text text-anchor="start" x="28.5" y="-630" font-family="Helvetica,sans-Serif" font-size="10.00">* operator delete()</text>
<text text-anchor="start" x="28.5" y="-619" font-family="Helvetica,sans-Serif" font-size="10.00">and 8 more...</text>
<text text-anchor="start" x="28.5" y="-608" font-family="Helvetica,sans-Serif" font-size="10.00">* XMemory()</text>
<text text-anchor="start" x="28.5" y="-597" font-family="Helvetica,sans-Serif" font-size="10.00">* XMemory()</text>
<text text-anchor="start" x="28.5" y="-586" font-family="Helvetica,sans-Serif" font-size="10.00">* XMemory()</text>
</a>
</g>
</g>
<!-- Node2&#45;&gt;Node1 -->
<g id="edge1" class="edge">
<title>Node2&#45;&gt;Node1</title>
<path fill="none" stroke="midnightblue" d="M63.12,-568.52C61.15,-456.49 61.78,-317.77 65.02,-222.93"/>
<polygon fill="none" stroke="midnightblue" points="59.62,-568.65 63.3,-578.58 66.62,-568.52 59.62,-568.65"/>
</g>
<!-- Node2&#45;&gt;Node1 -->
<g id="edge2" class="edge">
<title>Node2&#45;&gt;Node1</title>
<path fill="none" stroke="midnightblue" d="M75.5,-568.52C75.5,-456.49 75.5,-317.77 75.5,-222.93"/>
<polygon fill="none" stroke="midnightblue" points="72,-568.58 75.5,-578.58 79,-568.58 72,-568.58"/>
</g>
<!-- Node2&#45;&gt;Node1 -->
<g id="edge3" class="edge">
<title>Node2&#45;&gt;Node1</title>
<path fill="none" stroke="midnightblue" d="M87.88,-568.52C89.85,-456.49 89.22,-317.77 85.98,-222.93"/>
<polygon fill="none" stroke="midnightblue" points="84.38,-568.52 87.7,-578.58 91.38,-568.65 84.38,-568.52"/>
</g>
<!-- Node4 -->
<g id="node4" class="node">
<title>Node4</title>
<g id="a_node4"><a xlink:href="../../d9/d5a/classXMLBuffer.html" target="_top" xlink:title=" ">
<polygon fill="white" stroke="black" points="122,-270.5 122,-503.5 225,-503.5 225,-270.5 122,-270.5"/>
<text text-anchor="middle" x="173.5" y="-491.5" font-family="Helvetica,sans-Serif" font-size="10.00">XMLBuffer</text>
<polyline fill="none" stroke="black" points="122,-484.5 225,-484.5 "/>
<text text-anchor="middle" x="173.5" y="-472.5" font-family="Helvetica,sans-Serif" font-size="10.00"> </text>
<polyline fill="none" stroke="black" points="122,-465.5 225,-465.5 "/>
<text text-anchor="start" x="130" y="-453.5" font-family="Helvetica,sans-Serif" font-size="10.00">+ XMLBuffer()</text>
<text text-anchor="start" x="130" y="-442.5" font-family="Helvetica,sans-Serif" font-size="10.00">+ XMLBuffer()</text>
<text text-anchor="start" x="130" y="-431.5" font-family="Helvetica,sans-Serif" font-size="10.00">+ XMLBuffer()</text>
<text text-anchor="start" x="130" y="-420.5" font-family="Helvetica,sans-Serif" font-size="10.00">* XMLBufBid</text>
<text text-anchor="start" x="130" y="-409.5" font-family="Helvetica,sans-Serif" font-size="10.00">* fIndex</text>
<text text-anchor="start" x="130" y="-398.5" font-family="Helvetica,sans-Serif" font-size="10.00">* fCapacity</text>
<text text-anchor="start" x="130" y="-387.5" font-family="Helvetica,sans-Serif" font-size="10.00">* fFullSize</text>
<text text-anchor="start" x="130" y="-376.5" font-family="Helvetica,sans-Serif" font-size="10.00">* fUsed</text>
<text text-anchor="start" x="130" y="-365.5" font-family="Helvetica,sans-Serif" font-size="10.00">* fBuffer</text>
<text text-anchor="start" x="130" y="-354.5" font-family="Helvetica,sans-Serif" font-size="10.00">* ~XMLBuffer()</text>
<text text-anchor="start" x="130" y="-343.5" font-family="Helvetica,sans-Serif" font-size="10.00">* setFullHandler()</text>
<text text-anchor="start" x="130" y="-332.5" font-family="Helvetica,sans-Serif" font-size="10.00">* append()</text>
<text text-anchor="start" x="130" y="-321.5" font-family="Helvetica,sans-Serif" font-size="10.00">* append()</text>
<text text-anchor="start" x="130" y="-310.5" font-family="Helvetica,sans-Serif" font-size="10.00">and 47 more...</text>
<text text-anchor="start" x="130" y="-299.5" font-family="Helvetica,sans-Serif" font-size="10.00">* XMLBuffer()</text>
<text text-anchor="start" x="130" y="-288.5" font-family="Helvetica,sans-Serif" font-size="10.00">* XMLBuffer()</text>
<text text-anchor="start" x="130" y="-277.5" font-family="Helvetica,sans-Serif" font-size="10.00">* XMLBuffer()</text>
</a>
</g>
</g>
<!-- Node2&#45;&gt;Node4 -->
<g id="edge6" class="edge">
<title>Node2&#45;&gt;Node4</title>
<path fill="none" stroke="midnightblue" d="M111.7,-568.87C117.67,-546.6 123.89,-524.39 130.01,-503.53"/>
<polygon fill="none" stroke="midnightblue" points="108.26,-568.19 109.07,-578.76 115.03,-569.99 108.26,-568.19"/>
</g>
<!-- Node2&#45;&gt;Node4 -->
<g id="edge7" class="edge">
<title>Node2&#45;&gt;Node4</title>
<path fill="none" stroke="midnightblue" d="M125.2,-568.87C131.15,-546.6 137.08,-524.39 142.65,-503.53"/>
<polygon fill="none" stroke="midnightblue" points="121.76,-568.19 122.56,-578.76 128.52,-570 121.76,-568.19"/>
</g>
<!-- Node2&#45;&gt;Node4 -->
<g id="edge8" class="edge">
<title>Node2&#45;&gt;Node4</title>
<path fill="none" stroke="midnightblue" d="M133.25,-589.08C141.13,-560.25 148.72,-530.84 155.24,-503.73"/>
<polygon fill="none" stroke="midnightblue" points="129.85,-588.26 130.57,-598.83 136.6,-590.11 129.85,-588.26"/>
</g>
<!-- Node3 -->
<g id="node3" class="node">
<title>Node3</title>
<g id="a_node3"><a xlink:href="../../d6/d9a/classMemoryManager.html" target="_top" xlink:title=" ">
<polygon fill="white" stroke="black" points="316.5,-551.5 316.5,-960.5 498.5,-960.5 498.5,-551.5 316.5,-551.5"/>
<text text-anchor="middle" x="407.5" y="-948.5" font-family="Helvetica,sans-Serif" font-size="10.00">MemoryManager</text>
<polyline fill="none" stroke="black" points="316.5,-941.5 498.5,-941.5 "/>
<text text-anchor="middle" x="407.5" y="-929.5" font-family="Helvetica,sans-Serif" font-size="10.00"> </text>
<polyline fill="none" stroke="black" points="316.5,-922.5 498.5,-922.5 "/>
<text text-anchor="start" x="324.5" y="-910.5" font-family="Helvetica,sans-Serif" font-size="10.00">+ ~MemoryManager()</text>
<text text-anchor="start" x="324.5" y="-899.5" font-family="Helvetica,sans-Serif" font-size="10.00">+ getExceptionMemoryManager()</text>
<text text-anchor="start" x="324.5" y="-888.5" font-family="Helvetica,sans-Serif" font-size="10.00">+ ~MemoryManager()</text>
<text text-anchor="start" x="324.5" y="-877.5" font-family="Helvetica,sans-Serif" font-size="10.00">+ getExceptionMemoryManager()</text>
<text text-anchor="start" x="324.5" y="-866.5" font-family="Helvetica,sans-Serif" font-size="10.00">+ ~MemoryManager()</text>
<text text-anchor="start" x="324.5" y="-855.5" font-family="Helvetica,sans-Serif" font-size="10.00">+ getExceptionMemoryManager()</text>
<text text-anchor="start" x="324.5" y="-844.5" font-family="Helvetica,sans-Serif" font-size="10.00">+ allocate()</text>
<text text-anchor="start" x="324.5" y="-833.5" font-family="Helvetica,sans-Serif" font-size="10.00">+ deallocate()</text>
<text text-anchor="start" x="324.5" y="-822.5" font-family="Helvetica,sans-Serif" font-size="10.00">+ allocate()</text>
<text text-anchor="start" x="324.5" y="-811.5" font-family="Helvetica,sans-Serif" font-size="10.00">+ deallocate()</text>
<text text-anchor="start" x="324.5" y="-800.5" font-family="Helvetica,sans-Serif" font-size="10.00">+ allocate()</text>
<text text-anchor="start" x="324.5" y="-789.5" font-family="Helvetica,sans-Serif" font-size="10.00">+ deallocate()</text>
<text text-anchor="start" x="324.5" y="-778.5" font-family="Helvetica,sans-Serif" font-size="10.00">* ~MemoryManager()</text>
<text text-anchor="start" x="324.5" y="-767.5" font-family="Helvetica,sans-Serif" font-size="10.00">* getExceptionMemoryManager()</text>
<text text-anchor="start" x="324.5" y="-756.5" font-family="Helvetica,sans-Serif" font-size="10.00">* ~MemoryManager()</text>
<text text-anchor="start" x="324.5" y="-745.5" font-family="Helvetica,sans-Serif" font-size="10.00">* getExceptionMemoryManager()</text>
<text text-anchor="start" x="324.5" y="-734.5" font-family="Helvetica,sans-Serif" font-size="10.00">* ~MemoryManager()</text>
<text text-anchor="start" x="324.5" y="-723.5" font-family="Helvetica,sans-Serif" font-size="10.00">* getExceptionMemoryManager()</text>
<text text-anchor="start" x="324.5" y="-712.5" font-family="Helvetica,sans-Serif" font-size="10.00">* allocate()</text>
<text text-anchor="start" x="324.5" y="-701.5" font-family="Helvetica,sans-Serif" font-size="10.00">* deallocate()</text>
<text text-anchor="start" x="324.5" y="-690.5" font-family="Helvetica,sans-Serif" font-size="10.00">* allocate()</text>
<text text-anchor="start" x="324.5" y="-679.5" font-family="Helvetica,sans-Serif" font-size="10.00">* deallocate()</text>
<text text-anchor="start" x="324.5" y="-668.5" font-family="Helvetica,sans-Serif" font-size="10.00">* allocate()</text>
<text text-anchor="start" x="324.5" y="-657.5" font-family="Helvetica,sans-Serif" font-size="10.00">* deallocate()</text>
<text text-anchor="start" x="324.5" y="-646.5" font-family="Helvetica,sans-Serif" font-size="10.00">* MemoryManager()</text>
<text text-anchor="start" x="324.5" y="-635.5" font-family="Helvetica,sans-Serif" font-size="10.00">* MemoryManager()</text>
<text text-anchor="start" x="324.5" y="-624.5" font-family="Helvetica,sans-Serif" font-size="10.00">* MemoryManager()</text>
<text text-anchor="start" x="324.5" y="-613.5" font-family="Helvetica,sans-Serif" font-size="10.00">* MemoryManager()</text>
<text text-anchor="start" x="324.5" y="-602.5" font-family="Helvetica,sans-Serif" font-size="10.00">* operator=()</text>
<text text-anchor="start" x="324.5" y="-591.5" font-family="Helvetica,sans-Serif" font-size="10.00">* MemoryManager()</text>
<text text-anchor="start" x="324.5" y="-580.5" font-family="Helvetica,sans-Serif" font-size="10.00">* operator=()</text>
<text text-anchor="start" x="324.5" y="-569.5" font-family="Helvetica,sans-Serif" font-size="10.00">* MemoryManager()</text>
<text text-anchor="start" x="324.5" y="-558.5" font-family="Helvetica,sans-Serif" font-size="10.00">* operator=()</text>
</a>
</g>
</g>
<!-- Node3&#45;&gt;Node1 -->
<g id="edge4" class="edge">
<title>Node3&#45;&gt;Node1</title>
<path fill="none" stroke="#404040" d="M399.48,-551.49C397.23,-541.43 394.59,-531.55 391.5,-522 347.85,-387.08 237.81,-262.79 159.9,-187.36"/>
<polygon fill="none" stroke="#404040" points="159.7,-187.17 152.6,-185.9 151.04,-178.86 158.14,-180.13 159.7,-187.17"/>
<text text-anchor="middle" x="430.5" y="-384.5" font-family="Helvetica,sans-Serif" font-size="10.00"> &#45;fMemoryManager</text>
</g>
<!-- Node3&#45;&gt;Node4 -->
<g id="edge9" class="edge">
<title>Node3&#45;&gt;Node4</title>
<path fill="none" stroke="#404040" d="M316.35,-566.79C313.1,-561.42 309.82,-556.15 306.5,-551 284.92,-517.48 257.56,-482.91 233.27,-454.28"/>
<polygon fill="none" stroke="#404040" points="232.97,-453.92 226.03,-451.96 225.17,-444.81 232.11,-446.76 232.97,-453.92"/>
<text text-anchor="middle" x="340.5" y="-525" font-family="Helvetica,sans-Serif" font-size="10.00"> &#45;fMemoryManager</text>
</g>
<!-- Node4&#45;&gt;Node1 -->
<g id="edge5" class="edge">
<title>Node4&#45;&gt;Node1</title>
<path fill="none" stroke="#404040" d="M132.08,-270.41C127.81,-258.48 123.45,-246.32 119.15,-234.33"/>
<polygon fill="none" stroke="#404040" points="119.1,-234.18 113.31,-229.88 115.05,-222.88 120.84,-227.18 119.1,-234.18"/>
<text text-anchor="middle" x="147" y="-244" font-family="Helvetica,sans-Serif" font-size="10.00"> &#45;fBufList</text>
</g>
<!-- Node5 -->
<g id="node5" class="node">
<title>Node5</title>
<g id="a_node5"><a xlink:href="../../d5/d3f/classXMLBufferFullHandler.html" target="_top" xlink:title=" ">
<polygon fill="white" stroke="black" points="149,-700 149,-812 298,-812 298,-700 149,-700"/>
<text text-anchor="middle" x="223.5" y="-800" font-family="Helvetica,sans-Serif" font-size="10.00">XMLBufferFullHandler</text>
<polyline fill="none" stroke="black" points="149,-793 298,-793 "/>
<text text-anchor="middle" x="223.5" y="-781" font-family="Helvetica,sans-Serif" font-size="10.00"> </text>
<polyline fill="none" stroke="black" points="149,-774 298,-774 "/>
<text text-anchor="start" x="157" y="-762" font-family="Helvetica,sans-Serif" font-size="10.00">+ ~XMLBufferFullHandler()</text>
<text text-anchor="start" x="157" y="-751" font-family="Helvetica,sans-Serif" font-size="10.00">+ bufferFull()</text>
<text text-anchor="start" x="157" y="-740" font-family="Helvetica,sans-Serif" font-size="10.00">+ ~XMLBufferFullHandler()</text>
<text text-anchor="start" x="157" y="-729" font-family="Helvetica,sans-Serif" font-size="10.00">+ bufferFull()</text>
<text text-anchor="start" x="157" y="-718" font-family="Helvetica,sans-Serif" font-size="10.00">+ ~XMLBufferFullHandler()</text>
<text text-anchor="start" x="157" y="-707" font-family="Helvetica,sans-Serif" font-size="10.00">+ bufferFull()</text>
</a>
</g>
</g>
<!-- Node5&#45;&gt;Node4 -->
<g id="edge10" class="edge">
<title>Node5&#45;&gt;Node4</title>
<path fill="none" stroke="#404040" d="M215.96,-699.66C209.35,-651.12 199.48,-578.7 190.92,-515.88"/>
<polygon fill="none" stroke="#404040" points="190.9,-515.75 186.13,-510.34 189.28,-503.86 194.06,-509.26 190.9,-515.75"/>
<text text-anchor="middle" x="227" y="-525" font-family="Helvetica,sans-Serif" font-size="10.00"> &#45;fFullHandler</text>
</g>
</g>
</svg>
