<?xml version="1.0" encoding="UTF-8" standalone="no"?>
<!DOCTYPE svg PUBLIC "-//W3C//DTD SVG 1.1//EN"
 "http://www.w3.org/Graphics/SVG/1.1/DTD/svg11.dtd">
<!-- Generated by graphviz version 2.43.0 (0)
 -->
<!-- Title: src/libs/vpatterndb/vpiecepath.h Pages: 1 -->
<svg width="6679pt" height="318pt"
 viewBox="0.00 0.00 6678.50 318.00" xmlns="http://www.w3.org/2000/svg" xmlns:xlink="http://www.w3.org/1999/xlink">
<g id="graph0" class="graph" transform="scale(1 1) rotate(0) translate(4 314)">
<title>src/libs/vpatterndb/vpiecepath.h</title>
<polygon fill="white" stroke="transparent" points="-4,4 -4,-314 6674.5,-314 6674.5,4 -4,4"/>
<!-- Node1 -->
<g id="node1" class="node">
<title>Node1</title>
<g id="a_node1"><a xlink:title=" ">
<polygon fill="#bfbfbf" stroke="black" points="6397.5,-279.5 6397.5,-309.5 6504.5,-309.5 6504.5,-279.5 6397.5,-279.5"/>
<text text-anchor="start" x="6405.5" y="-297.5" font-family="Helvetica,sans-Serif" font-size="10.00">src/libs/vpatterndb</text>
<text text-anchor="middle" x="6451" y="-286.5" font-family="Helvetica,sans-Serif" font-size="10.00">/vpiecepath.h</text>
</a>
</g>
</g>
<!-- Node2 -->
<g id="node2" class="node">
<title>Node2</title>
<g id="a_node2"><a xlink:href="../../d3/df7/vcontainer_8h.html" target="_top" xlink:title=" ">
<polygon fill="white" stroke="black" points="5599.5,-212.5 5599.5,-242.5 5706.5,-242.5 5706.5,-212.5 5599.5,-212.5"/>
<text text-anchor="start" x="5607.5" y="-230.5" font-family="Helvetica,sans-Serif" font-size="10.00">src/libs/vpatterndb</text>
<text text-anchor="middle" x="5653" y="-219.5" font-family="Helvetica,sans-Serif" font-size="10.00">/vcontainer.h</text>
</a>
</g>
</g>
<!-- Node1&#45;&gt;Node2 -->
<g id="edge1" class="edge">
<title>Node1&#45;&gt;Node2</title>
<path fill="none" stroke="midnightblue" d="M6387.23,-288.31C6234.27,-275.85 5848.68,-244.44 5706.63,-232.87"/>
<polygon fill="midnightblue" stroke="midnightblue" points="6387.15,-291.81 6397.4,-289.13 6387.72,-284.83 6387.15,-291.81"/>
</g>
<!-- Node59 -->
<g id="node46" class="node">
<title>Node59</title>
<g id="a_node46"><a xlink:href="../../d6/d91/vnodedetail_8cpp.html" target="_top" xlink:title=" ">
<polygon fill="white" stroke="black" points="6367.5,-140 6367.5,-170 6474.5,-170 6474.5,-140 6367.5,-140"/>
<text text-anchor="start" x="6375.5" y="-158" font-family="Helvetica,sans-Serif" font-size="10.00">src/libs/vpatterndb</text>
<text text-anchor="middle" x="6421" y="-147" font-family="Helvetica,sans-Serif" font-size="10.00">/vnodedetail.cpp</text>
</a>
</g>
</g>
<!-- Node1&#45;&gt;Node59 -->
<g id="edge59" class="edge">
<title>Node1&#45;&gt;Node59</title>
<path fill="none" stroke="midnightblue" d="M6445.72,-269.29C6439.46,-240.61 6429.24,-193.78 6424.13,-170.33"/>
<polygon fill="midnightblue" stroke="midnightblue" points="6442.35,-270.28 6447.9,-279.3 6449.19,-268.79 6442.35,-270.28"/>
</g>
<!-- Node60 -->
<g id="node47" class="node">
<title>Node60</title>
<g id="a_node47"><a xlink:href="../../da/de1/vpiecepath_8cpp.html" target="_top" xlink:title=" ">
<polygon fill="white" stroke="black" points="6492.5,-140 6492.5,-170 6599.5,-170 6599.5,-140 6492.5,-140"/>
<text text-anchor="start" x="6500.5" y="-158" font-family="Helvetica,sans-Serif" font-size="10.00">src/libs/vpatterndb</text>
<text text-anchor="middle" x="6546" y="-147" font-family="Helvetica,sans-Serif" font-size="10.00">/vpiecepath.cpp</text>
</a>
</g>
</g>
<!-- Node1&#45;&gt;Node60 -->
<g id="edge62" class="edge">
<title>Node1&#45;&gt;Node60</title>
<path fill="none" stroke="midnightblue" d="M6466.69,-270.79C6486.4,-242.26 6519.62,-194.19 6536.1,-170.33"/>
<polygon fill="midnightblue" stroke="midnightblue" points="6463.61,-269.09 6460.81,-279.3 6469.37,-273.07 6463.61,-269.09"/>
</g>
<!-- Node63 -->
<g id="node50" class="node">
<title>Node63</title>
<g id="a_node50"><a xlink:href="../../d8/da5/vpiece__p_8h.html" target="_top" xlink:title=" ">
<polygon fill="white" stroke="black" points="6563.5,-212.5 6563.5,-242.5 6670.5,-242.5 6670.5,-212.5 6563.5,-212.5"/>
<text text-anchor="start" x="6571.5" y="-230.5" font-family="Helvetica,sans-Serif" font-size="10.00">src/libs/vpatterndb</text>
<text text-anchor="middle" x="6617" y="-219.5" font-family="Helvetica,sans-Serif" font-size="10.00">/vpiece_p.h</text>
</a>
</g>
</g>
<!-- Node1&#45;&gt;Node63 -->
<g id="edge60" class="edge">
<title>Node1&#45;&gt;Node63</title>
<path fill="none" stroke="midnightblue" d="M6496.51,-275.68C6523.13,-265.26 6556.27,-252.28 6581.05,-242.58"/>
<polygon fill="midnightblue" stroke="midnightblue" points="6495.05,-272.49 6487.02,-279.4 6497.61,-279.01 6495.05,-272.49"/>
</g>
<!-- Node3 -->
<g id="node3" class="node">
<title>Node3</title>
<g id="a_node3"><a xlink:href="../../dc/db7/measurements_8h.html" target="_top" xlink:title=" ">
<polygon fill="white" stroke="black" points="166.5,-145.5 166.5,-164.5 345.5,-164.5 345.5,-145.5 166.5,-145.5"/>
<text text-anchor="middle" x="256" y="-152.5" font-family="Helvetica,sans-Serif" font-size="10.00">src/libs/vformat/measurements.h</text>
</a>
</g>
</g>
<!-- Node2&#45;&gt;Node3 -->
<g id="edge2" class="edge">
<title>Node2&#45;&gt;Node3</title>
<path fill="none" stroke="midnightblue" d="M5589.38,-226.18C5083.19,-223.57 1701.09,-205.26 680,-176 564.53,-172.69 431.5,-165.94 345.71,-161.2"/>
<polygon fill="midnightblue" stroke="midnightblue" points="5589.4,-229.68 5599.42,-226.23 5589.44,-222.68 5589.4,-229.68"/>
</g>
<!-- Node4 -->
<g id="node4" class="node">
<title>Node4</title>
<g id="a_node4"><a xlink:href="../../d9/de3/measurements_8cpp.html" target="_top" xlink:title=" ">
<polygon fill="white" stroke="black" points="0,-73 0,-92 190,-92 190,-73 0,-73"/>
<text text-anchor="middle" x="95" y="-80" font-family="Helvetica,sans-Serif" font-size="10.00">src/libs/vformat/measurements.cpp</text>
</a>
</g>
</g>
<!-- Node2&#45;&gt;Node4 -->
<g id="edge4" class="edge">
<title>Node2&#45;&gt;Node4</title>
<path fill="none" stroke="midnightblue" d="M5589.33,-226.23C5057.77,-223.94 1364.76,-206.97 873,-176 599.8,-158.8 275.33,-111.48 149.05,-92.02"/>
<polygon fill="midnightblue" stroke="midnightblue" points="5589.48,-229.73 5599.5,-226.28 5589.51,-222.73 5589.48,-229.73"/>
</g>
<!-- Node5 -->
<g id="node5" class="node">
<title>Node5</title>
<g id="a_node5"><a xlink:href="../../d6/de0/vlayoutpiece_8h.html" target="_top" xlink:title=" ">
<polygon fill="white" stroke="black" points="882,-145.5 882,-164.5 1048,-164.5 1048,-145.5 882,-145.5"/>
<text text-anchor="middle" x="965" y="-152.5" font-family="Helvetica,sans-Serif" font-size="10.00">src/libs/vlayout/vlayoutpiece.h</text>
</a>
</g>
</g>
<!-- Node2&#45;&gt;Node5 -->
<g id="edge5" class="edge">
<title>Node2&#45;&gt;Node5</title>
<path fill="none" stroke="midnightblue" d="M5588.95,-225.54C5075.27,-217.81 1630.37,-166.01 1048.42,-157.25"/>
<polygon fill="midnightblue" stroke="midnightblue" points="5589.09,-229.04 5599.14,-225.69 5589.19,-222.04 5589.09,-229.04"/>
</g>
<!-- Node15 -->
<g id="node14" class="node">
<title>Node15</title>
<g id="a_node14"><a xlink:href="../../d8/d70/vtextmanager_8cpp.html" target="_top" xlink:title=" ">
<polygon fill="white" stroke="black" points="1529,-73 1529,-92 1711,-92 1711,-73 1529,-73"/>
<text text-anchor="middle" x="1620" y="-80" font-family="Helvetica,sans-Serif" font-size="10.00">src/libs/vlayout/vtextmanager.cpp</text>
</a>
</g>
</g>
<!-- Node2&#45;&gt;Node15 -->
<g id="edge16" class="edge">
<title>Node2&#45;&gt;Node15</title>
<path fill="none" stroke="midnightblue" d="M5588.9,-225.56C5324.24,-221.58 4290.56,-204.95 3441,-176 2675.77,-149.93 2482.25,-170.36 1720,-98 1704.28,-96.51 1687.26,-94.27 1671.78,-92"/>
<polygon fill="midnightblue" stroke="midnightblue" points="5589.04,-229.07 5599.09,-225.72 5589.15,-222.07 5589.04,-229.07"/>
</g>
<!-- Node16 -->
<g id="node15" class="node">
<title>Node16</title>
<g id="a_node15"><a xlink:href="../../d5/d74/vabstractapplication_8h.html" target="_top" xlink:title=" ">
<polygon fill="white" stroke="red" points="3450.5,-145.5 3450.5,-164.5 3645.5,-164.5 3645.5,-145.5 3450.5,-145.5"/>
<text text-anchor="middle" x="3548" y="-152.5" font-family="Helvetica,sans-Serif" font-size="10.00">src/libs/vmisc/vabstractapplication.h</text>
</a>
</g>
</g>
<!-- Node2&#45;&gt;Node16 -->
<g id="edge17" class="edge">
<title>Node2&#45;&gt;Node16</title>
<path fill="none" stroke="midnightblue" d="M5589.09,-224.36C5287.99,-214.28 4010.42,-171.49 3645.63,-159.27"/>
<polygon fill="midnightblue" stroke="midnightblue" points="5589.27,-227.87 5599.38,-224.7 5589.51,-220.87 5589.27,-227.87"/>
</g>
<!-- Node34 -->
<g id="node29" class="node">
<title>Node34</title>
<g id="a_node29"><a xlink:href="../../db/d11/vformula_8cpp.html" target="_top" xlink:title=" ">
<polygon fill="white" stroke="black" points="5504.5,-67.5 5504.5,-97.5 5611.5,-97.5 5611.5,-67.5 5504.5,-67.5"/>
<text text-anchor="start" x="5512.5" y="-85.5" font-family="Helvetica,sans-Serif" font-size="10.00">src/libs/vpatterndb</text>
<text text-anchor="middle" x="5558" y="-74.5" font-family="Helvetica,sans-Serif" font-size="10.00">/vformula.cpp</text>
</a>
</g>
</g>
<!-- Node2&#45;&gt;Node34 -->
<g id="edge51" class="edge">
<title>Node2&#45;&gt;Node34</title>
<path fill="none" stroke="midnightblue" d="M5633.44,-204.68C5626.06,-196.01 5617.8,-185.79 5611,-176 5592.63,-149.55 5574.75,-116.32 5565.18,-97.75"/>
<polygon fill="midnightblue" stroke="midnightblue" points="5630.98,-207.18 5640.18,-212.44 5636.27,-202.59 5630.98,-207.18"/>
</g>
<!-- Node35 -->
<g id="node30" class="node">
<title>Node35</title>
<g id="a_node30"><a xlink:href="../../d6/d46/vcontainer_8cpp.html" target="_top" xlink:title=" ">
<polygon fill="white" stroke="black" points="5629.5,-67.5 5629.5,-97.5 5736.5,-97.5 5736.5,-67.5 5629.5,-67.5"/>
<text text-anchor="start" x="5637.5" y="-85.5" font-family="Helvetica,sans-Serif" font-size="10.00">src/libs/vpatterndb</text>
<text text-anchor="middle" x="5683" y="-74.5" font-family="Helvetica,sans-Serif" font-size="10.00">/vcontainer.cpp</text>
</a>
</g>
</g>
<!-- Node2&#45;&gt;Node35 -->
<g id="edge52" class="edge">
<title>Node2&#45;&gt;Node35</title>
<path fill="none" stroke="midnightblue" d="M5634.41,-204.14C5628.62,-195.83 5622.97,-185.98 5620,-176 5614.67,-158.11 5611.92,-150.83 5620,-134 5627.46,-118.46 5642.3,-106.19 5655.7,-97.64"/>
<polygon fill="midnightblue" stroke="midnightblue" points="5631.61,-206.25 5640.39,-212.19 5637.23,-202.07 5631.61,-206.25"/>
</g>
<!-- Node36 -->
<g id="node31" class="node">
<title>Node36</title>
<g id="a_node31"><a xlink:href="../../df/d7a/vpiece_8cpp.html" target="_top" xlink:title=" ">
<polygon fill="white" stroke="black" points="5754.5,-67.5 5754.5,-97.5 5861.5,-97.5 5861.5,-67.5 5754.5,-67.5"/>
<text text-anchor="start" x="5762.5" y="-85.5" font-family="Helvetica,sans-Serif" font-size="10.00">src/libs/vpatterndb</text>
<text text-anchor="middle" x="5808" y="-74.5" font-family="Helvetica,sans-Serif" font-size="10.00">/vpiece.cpp</text>
</a>
</g>
</g>
<!-- Node2&#45;&gt;Node36 -->
<g id="edge54" class="edge">
<title>Node2&#45;&gt;Node36</title>
<path fill="none" stroke="midnightblue" d="M5647.41,-202.29C5644.2,-182 5643.31,-153.32 5658,-134 5664.32,-125.69 5716.02,-109.44 5756.98,-97.62"/>
<polygon fill="midnightblue" stroke="midnightblue" points="5644.01,-203.13 5649.28,-212.32 5650.89,-201.84 5644.01,-203.13"/>
</g>
<!-- Node38 -->
<g id="node33" class="node">
<title>Node38</title>
<g id="a_node33"><a xlink:href="../../d8/dba/vpiecenode_8cpp.html" target="_top" xlink:title=" ">
<polygon fill="white" stroke="black" points="4696.5,-0.5 4696.5,-30.5 4803.5,-30.5 4803.5,-0.5 4696.5,-0.5"/>
<text text-anchor="start" x="4704.5" y="-18.5" font-family="Helvetica,sans-Serif" font-size="10.00">src/libs/vpatterndb</text>
<text text-anchor="middle" x="4750" y="-7.5" font-family="Helvetica,sans-Serif" font-size="10.00">/vpiecenode.cpp</text>
</a>
</g>
</g>
<!-- Node2&#45;&gt;Node38 -->
<g id="edge55" class="edge">
<title>Node2&#45;&gt;Node38</title>
<path fill="none" stroke="midnightblue" d="M5656.12,-202.61C5660.19,-181.38 5669.41,-151.13 5690,-134 5755.63,-79.41 5928.99,-128.7 5870,-67 5832.76,-28.04 5021.5,-18.69 4803.51,-16.88"/>
<polygon fill="midnightblue" stroke="midnightblue" points="5652.67,-202.05 5654.47,-212.49 5659.57,-203.2 5652.67,-202.05"/>
</g>
<!-- Node55 -->
<g id="node44" class="node">
<title>Node55</title>
<g id="a_node44"><a xlink:href="../../d3/d02/custom__variable__p_8h.html" target="_top" xlink:title=" ">
<polygon fill="white" stroke="red" points="5699.5,-140 5699.5,-170 5868.5,-170 5868.5,-140 5699.5,-140"/>
<text text-anchor="start" x="5707.5" y="-158" font-family="Helvetica,sans-Serif" font-size="10.00">src/libs/vpatterndb</text>
<text text-anchor="middle" x="5784" y="-147" font-family="Helvetica,sans-Serif" font-size="10.00">/variables/custom_variable_p.h</text>
</a>
</g>
</g>
<!-- Node2&#45;&gt;Node55 -->
<g id="edge49" class="edge">
<title>Node2&#45;&gt;Node55</title>
<path fill="none" stroke="midnightblue" d="M5688.2,-207.56C5710.13,-195.76 5737.87,-180.83 5757.85,-170.07"/>
<polygon fill="midnightblue" stroke="midnightblue" points="5686.34,-204.58 5679.19,-212.4 5689.66,-210.75 5686.34,-204.58"/>
</g>
<!-- Node57 -->
<g id="node45" class="node">
<title>Node57</title>
<g id="a_node45"><a xlink:href="../../d7/d8a/measurement__variable__p_8h.html" target="_top" xlink:title=" ">
<polygon fill="white" stroke="red" points="5887,-134.5 5887,-175.5 6023,-175.5 6023,-134.5 5887,-134.5"/>
<text text-anchor="start" x="5895" y="-163.5" font-family="Helvetica,sans-Serif" font-size="10.00">src/libs/vpatterndb</text>
<text text-anchor="start" x="5895" y="-152.5" font-family="Helvetica,sans-Serif" font-size="10.00">/variables/measurement</text>
<text text-anchor="middle" x="5955" y="-141.5" font-family="Helvetica,sans-Serif" font-size="10.00">_variable_p.h</text>
</a>
</g>
</g>
<!-- Node2&#45;&gt;Node57 -->
<g id="edge50" class="edge">
<title>Node2&#45;&gt;Node57</title>
<path fill="none" stroke="midnightblue" d="M5716.4,-212.72C5761.32,-202.84 5822.95,-189.02 5877,-176 5880.26,-175.21 5883.6,-174.4 5886.96,-173.57"/>
<polygon fill="midnightblue" stroke="midnightblue" points="5715.52,-209.33 5706.51,-214.9 5717.03,-216.17 5715.52,-209.33"/>
</g>
<!-- Node2&#45;&gt;Node59 -->
<g id="edge53" class="edge">
<title>Node2&#45;&gt;Node59</title>
<path fill="none" stroke="midnightblue" d="M5716.73,-226.94C5841.18,-226.69 6124.74,-220.73 6358,-176 6365.78,-174.51 6373.94,-172.37 6381.71,-170.04"/>
<polygon fill="midnightblue" stroke="midnightblue" points="5716.62,-223.44 5706.62,-226.94 5716.62,-230.44 5716.62,-223.44"/>
</g>
<!-- Node2&#45;&gt;Node60 -->
<g id="edge56" class="edge">
<title>Node2&#45;&gt;Node60</title>
<path fill="none" stroke="midnightblue" d="M5716.94,-224.65C5884.99,-219.46 6336.25,-203.32 6483,-176 6490.9,-174.53 6499.19,-172.37 6507.06,-170"/>
<polygon fill="midnightblue" stroke="midnightblue" points="5716.65,-221.16 5706.76,-224.96 5716.86,-228.15 5716.65,-221.16"/>
</g>
<!-- Node61 -->
<g id="node48" class="node">
<title>Node61</title>
<g id="a_node48"><a xlink:href="../../d1/d3a/abstracttest_8cpp.html" target="_top" xlink:title=" ">
<polygon fill="white" stroke="black" points="6041.5,-145.5 6041.5,-164.5 6202.5,-164.5 6202.5,-145.5 6041.5,-145.5"/>
<text text-anchor="middle" x="6122" y="-152.5" font-family="Helvetica,sans-Serif" font-size="10.00">src/libs/vtest/abstracttest.cpp</text>
</a>
</g>
</g>
<!-- Node2&#45;&gt;Node61 -->
<g id="edge57" class="edge">
<title>Node2&#45;&gt;Node61</title>
<path fill="none" stroke="midnightblue" d="M5716.87,-219.69C5792.41,-211.25 5921.82,-195.54 6032,-176 6050.12,-172.78 6070.13,-168.42 6086.66,-164.59"/>
<polygon fill="midnightblue" stroke="midnightblue" points="5716.13,-216.25 5706.57,-220.83 5716.9,-223.21 5716.13,-216.25"/>
</g>
<!-- Node62 -->
<g id="node49" class="node">
<title>Node62</title>
<g id="a_node49"><a xlink:href="../../da/db4/piece__tablewidgetitem_8cpp.html" target="_top" xlink:title=" ">
<polygon fill="white" stroke="black" points="6221,-140 6221,-170 6349,-170 6349,-140 6221,-140"/>
<text text-anchor="start" x="6229" y="-158" font-family="Helvetica,sans-Serif" font-size="10.00">src/libs/vwidgets/piece</text>
<text text-anchor="middle" x="6285" y="-147" font-family="Helvetica,sans-Serif" font-size="10.00">_tablewidgetitem.cpp</text>
</a>
</g>
</g>
<!-- Node2&#45;&gt;Node62 -->
<g id="edge58" class="edge">
<title>Node2&#45;&gt;Node62</title>
<path fill="none" stroke="midnightblue" d="M5716.93,-224.32C5821.14,-219.97 6033.78,-207.72 6211,-176 6219.78,-174.43 6229.03,-172.31 6237.91,-170.04"/>
<polygon fill="midnightblue" stroke="midnightblue" points="5716.74,-220.83 5706.89,-224.73 5717.02,-227.82 5716.74,-220.83"/>
</g>
<!-- Node3&#45;&gt;Node4 -->
<g id="edge3" class="edge">
<title>Node3&#45;&gt;Node4</title>
<path fill="none" stroke="midnightblue" d="M227.15,-141.37C194.61,-127.12 142.57,-104.33 114.49,-92.03"/>
<polygon fill="midnightblue" stroke="midnightblue" points="226.02,-144.69 236.58,-145.5 228.82,-138.28 226.02,-144.69"/>
</g>
<!-- Node6 -->
<g id="node6" class="node">
<title>Node6</title>
<g id="a_node6"><a xlink:href="../../dd/d66/vdxfengine_8cpp.html" target="_top" xlink:title=" ">
<polygon fill="white" stroke="black" points="208,-73 208,-92 362,-92 362,-73 208,-73"/>
<text text-anchor="middle" x="285" y="-80" font-family="Helvetica,sans-Serif" font-size="10.00">src/libs/vdxf/vdxfengine.cpp</text>
</a>
</g>
</g>
<!-- Node5&#45;&gt;Node6 -->
<g id="edge6" class="edge">
<title>Node5&#45;&gt;Node6</title>
<path fill="none" stroke="midnightblue" d="M871.64,-147.32C754.45,-138.44 547.38,-121.15 371,-98 358.24,-96.33 344.47,-94.16 331.77,-92.02"/>
<polygon fill="midnightblue" stroke="midnightblue" points="871.42,-150.81 881.66,-148.07 871.95,-143.83 871.42,-150.81"/>
</g>
<!-- Node7 -->
<g id="node7" class="node">
<title>Node7</title>
<g id="a_node7"><a xlink:href="../../de/da8/vbank_8cpp.html" target="_top" xlink:title=" ">
<polygon fill="white" stroke="black" points="380,-73 380,-92 524,-92 524,-73 380,-73"/>
<text text-anchor="middle" x="452" y="-80" font-family="Helvetica,sans-Serif" font-size="10.00">src/libs/vlayout/vbank.cpp</text>
</a>
</g>
</g>
<!-- Node5&#45;&gt;Node7 -->
<g id="edge7" class="edge">
<title>Node5&#45;&gt;Node7</title>
<path fill="none" stroke="midnightblue" d="M880.59,-144.28C793.39,-133.95 653.43,-116.57 533,-98 521.42,-96.21 508.95,-94.08 497.35,-92.02"/>
<polygon fill="midnightblue" stroke="midnightblue" points="880.36,-147.78 890.7,-145.47 881.18,-140.82 880.36,-147.78"/>
</g>
<!-- Node8 -->
<g id="node8" class="node">
<title>Node8</title>
<g id="a_node8"><a xlink:href="../../d3/d39/vlayoutgenerator_8cpp.html" target="_top" xlink:title=" ">
<polygon fill="white" stroke="black" points="542.5,-73 542.5,-92 739.5,-92 739.5,-73 542.5,-73"/>
<text text-anchor="middle" x="641" y="-80" font-family="Helvetica,sans-Serif" font-size="10.00">src/libs/vlayout/vlayoutgenerator.cpp</text>
</a>
</g>
</g>
<!-- Node5&#45;&gt;Node8 -->
<g id="edge8" class="edge">
<title>Node5&#45;&gt;Node8</title>
<path fill="none" stroke="midnightblue" d="M915.99,-143.34C851.5,-129.3 739.42,-104.91 680.22,-92.03"/>
<polygon fill="midnightblue" stroke="midnightblue" points="915.4,-146.79 925.92,-145.5 916.89,-139.95 915.4,-146.79"/>
</g>
<!-- Node9 -->
<g id="node9" class="node">
<title>Node9</title>
<g id="a_node9"><a xlink:href="../../d2/d2d/vlayoutpaper__p_8h.html" target="_top" xlink:title=" ">
<polygon fill="white" stroke="black" points="757.5,-73 757.5,-92 936.5,-92 936.5,-73 757.5,-73"/>
<text text-anchor="middle" x="847" y="-80" font-family="Helvetica,sans-Serif" font-size="10.00">src/libs/vlayout/vlayoutpaper_p.h</text>
</a>
</g>
</g>
<!-- Node5&#45;&gt;Node9 -->
<g id="edge9" class="edge">
<title>Node5&#45;&gt;Node9</title>
<path fill="none" stroke="midnightblue" d="M941.77,-140.12C917.96,-125.89 881.65,-104.2 861.59,-92.22"/>
<polygon fill="midnightblue" stroke="midnightblue" points="940.15,-143.23 950.53,-145.36 943.74,-137.22 940.15,-143.23"/>
</g>
<!-- Node10 -->
<g id="node10" class="node">
<title>Node10</title>
<g id="a_node10"><a xlink:href="../../d1/dd1/vlayoutpaper_8cpp.html" target="_top" xlink:title=" ">
<polygon fill="white" stroke="black" points="876,-6 876,-25 1054,-25 1054,-6 876,-6"/>
<text text-anchor="middle" x="965" y="-13" font-family="Helvetica,sans-Serif" font-size="10.00">src/libs/vlayout/vlayoutpaper.cpp</text>
</a>
</g>
</g>
<!-- Node5&#45;&gt;Node10 -->
<g id="edge11" class="edge">
<title>Node5&#45;&gt;Node10</title>
<path fill="none" stroke="midnightblue" d="M965,-135.36C965,-105.23 965,-46.99 965,-25.1"/>
<polygon fill="midnightblue" stroke="midnightblue" points="961.5,-135.4 965,-145.4 968.5,-135.4 961.5,-135.4"/>
</g>
<!-- Node11 -->
<g id="node11" class="node">
<title>Node11</title>
<g id="a_node11"><a xlink:href="../../df/d5d/vcontour_8cpp.html" target="_top" xlink:title=" ">
<polygon fill="white" stroke="black" points="993,-73 993,-92 1149,-92 1149,-73 993,-73"/>
<text text-anchor="middle" x="1071" y="-80" font-family="Helvetica,sans-Serif" font-size="10.00">src/libs/vlayout/vcontour.cpp</text>
</a>
</g>
</g>
<!-- Node5&#45;&gt;Node11 -->
<g id="edge12" class="edge">
<title>Node5&#45;&gt;Node11</title>
<path fill="none" stroke="midnightblue" d="M986.43,-139.74C1007.84,-125.51 1040.04,-104.09 1057.9,-92.22"/>
<polygon fill="midnightblue" stroke="midnightblue" points="984.39,-136.9 978,-145.36 988.26,-142.73 984.39,-136.9"/>
</g>
<!-- Node12 -->
<g id="node12" class="node">
<title>Node12</title>
<g id="a_node12"><a xlink:href="../../db/d5c/vposition_8h.html" target="_top" xlink:title=" ">
<polygon fill="white" stroke="red" points="1167,-73 1167,-92 1315,-92 1315,-73 1167,-73"/>
<text text-anchor="middle" x="1241" y="-80" font-family="Helvetica,sans-Serif" font-size="10.00">src/libs/vlayout/vposition.h</text>
</a>
</g>
</g>
<!-- Node5&#45;&gt;Node12 -->
<g id="edge13" class="edge">
<title>Node5&#45;&gt;Node12</title>
<path fill="none" stroke="midnightblue" d="M1008.11,-142.99C1063.25,-128.9 1157.58,-104.81 1207.59,-92.03"/>
<polygon fill="midnightblue" stroke="midnightblue" points="1007.11,-139.63 998.29,-145.5 1008.85,-146.41 1007.11,-139.63"/>
</g>
<!-- Node14 -->
<g id="node13" class="node">
<title>Node14</title>
<g id="a_node13"><a xlink:href="../../dd/d70/vlayoutpiece_8cpp.html" target="_top" xlink:title=" ">
<polygon fill="white" stroke="black" points="1333.5,-73 1333.5,-92 1510.5,-92 1510.5,-73 1333.5,-73"/>
<text text-anchor="middle" x="1422" y="-80" font-family="Helvetica,sans-Serif" font-size="10.00">src/libs/vlayout/vlayoutpiece.cpp</text>
</a>
</g>
</g>
<!-- Node5&#45;&gt;Node14 -->
<g id="edge15" class="edge">
<title>Node5&#45;&gt;Node14</title>
<path fill="none" stroke="midnightblue" d="M1030.24,-143.94C1120.52,-130.01 1281.98,-105.1 1366.68,-92.03"/>
<polygon fill="midnightblue" stroke="midnightblue" points="1029.47,-140.51 1020.12,-145.5 1030.54,-147.43 1029.47,-140.51"/>
</g>
<!-- Node9&#45;&gt;Node10 -->
<g id="edge10" class="edge">
<title>Node9&#45;&gt;Node10</title>
<path fill="none" stroke="midnightblue" d="M871.89,-67.79C895.28,-54.9 929.56,-36.02 949.34,-25.13"/>
<polygon fill="midnightblue" stroke="midnightblue" points="869.98,-64.84 862.91,-72.73 873.36,-70.97 869.98,-64.84"/>
</g>
<!-- Node12&#45;&gt;Node10 -->
<g id="edge14" class="edge">
<title>Node12&#45;&gt;Node10</title>
<path fill="none" stroke="midnightblue" d="M1194.56,-70.56C1140.15,-57.75 1051.13,-36.78 1001.45,-25.08"/>
<polygon fill="midnightblue" stroke="midnightblue" points="1194.1,-74.05 1204.63,-72.94 1195.7,-67.24 1194.1,-74.05"/>
</g>
<!-- Node16&#45;&gt;Node14 -->
<g id="edge28" class="edge">
<title>Node16&#45;&gt;Node14</title>
<path fill="none" stroke="midnightblue" d="M3440.13,-152.72C3076.61,-148.15 1898.05,-131.07 1520,-98 1504.24,-96.62 1487.15,-94.36 1471.72,-92.03"/>
<polygon fill="midnightblue" stroke="midnightblue" points="3440.34,-156.22 3450.39,-152.85 3440.43,-149.22 3440.34,-156.22"/>
</g>
<!-- Node16&#45;&gt;Node15 -->
<g id="edge29" class="edge">
<title>Node16&#45;&gt;Node15</title>
<path fill="none" stroke="midnightblue" d="M3440.16,-152.3C3100.79,-146.71 2057.21,-127.52 1720,-98 1704.01,-96.6 1686.67,-94.35 1671,-92.03"/>
<polygon fill="midnightblue" stroke="midnightblue" points="3440.18,-155.8 3450.24,-152.47 3440.3,-148.81 3440.18,-155.8"/>
</g>
<!-- Node17 -->
<g id="node16" class="node">
<title>Node17</title>
<g id="a_node16"><a xlink:href="../../d4/d90/fvupdater_8cpp.html" target="_top" xlink:title=" ">
<polygon fill="white" stroke="black" points="1729.5,-73 1729.5,-92 1882.5,-92 1882.5,-73 1729.5,-73"/>
<text text-anchor="middle" x="1806" y="-80" font-family="Helvetica,sans-Serif" font-size="10.00">src/libs/fervor/fvupdater.cpp</text>
</a>
</g>
</g>
<!-- Node16&#45;&gt;Node17 -->
<g id="edge18" class="edge">
<title>Node16&#45;&gt;Node17</title>
<path fill="none" stroke="midnightblue" d="M3440.22,-152.26C3122.51,-146.84 2193.05,-128.73 1891,-98 1877.3,-96.61 1862.47,-94.34 1849.09,-92.01"/>
<polygon fill="midnightblue" stroke="midnightblue" points="3440.3,-155.76 3450.35,-152.43 3440.41,-148.77 3440.3,-155.76"/>
</g>
<!-- Node18 -->
<g id="node17" class="node">
<title>Node18</title>
<g id="a_node17"><a xlink:href="../../d9/dc8/dxiface_8cpp.html" target="_top" xlink:title=" ">
<polygon fill="white" stroke="black" points="1900.5,-73 1900.5,-92 2035.5,-92 2035.5,-73 1900.5,-73"/>
<text text-anchor="middle" x="1968" y="-80" font-family="Helvetica,sans-Serif" font-size="10.00">src/libs/vdxf/dxiface.cpp</text>
</a>
</g>
</g>
<!-- Node16&#45;&gt;Node18 -->
<g id="edge19" class="edge">
<title>Node16&#45;&gt;Node18</title>
<path fill="none" stroke="midnightblue" d="M3439.95,-152.1C3142.31,-146.54 2314.7,-128.68 2044,-98 2031.72,-96.61 2018.45,-94.34 2006.49,-92.01"/>
<polygon fill="midnightblue" stroke="midnightblue" points="3440.25,-155.61 3450.31,-152.3 3440.38,-148.61 3440.25,-155.61"/>
</g>
<!-- Node19 -->
<g id="node18" class="node">
<title>Node19</title>
<g id="a_node18"><a xlink:href="../../da/d75/vabstractarc__p_8h.html" target="_top" xlink:title=" ">
<polygon fill="white" stroke="red" points="2053.5,-67.5 2053.5,-97.5 2160.5,-97.5 2160.5,-67.5 2053.5,-67.5"/>
<text text-anchor="start" x="2061.5" y="-85.5" font-family="Helvetica,sans-Serif" font-size="10.00">src/libs/vgeometry</text>
<text text-anchor="middle" x="2107" y="-74.5" font-family="Helvetica,sans-Serif" font-size="10.00">/vabstractarc_p.h</text>
</a>
</g>
</g>
<!-- Node16&#45;&gt;Node19 -->
<g id="edge20" class="edge">
<title>Node16&#45;&gt;Node19</title>
<path fill="none" stroke="midnightblue" d="M3440.05,-152.26C3159.81,-147.3 2413.93,-131.31 2169,-98 2166.26,-97.63 2163.47,-97.19 2160.65,-96.7"/>
<polygon fill="midnightblue" stroke="midnightblue" points="3440.16,-155.76 3450.22,-152.43 3440.29,-148.76 3440.16,-155.76"/>
</g>
<!-- Node21 -->
<g id="node19" class="node">
<title>Node21</title>
<g id="a_node19"><a xlink:href="../../dc/da3/varc__p_8h.html" target="_top" xlink:title=" ">
<polygon fill="white" stroke="red" points="2178.5,-67.5 2178.5,-97.5 2285.5,-97.5 2285.5,-67.5 2178.5,-67.5"/>
<text text-anchor="start" x="2186.5" y="-85.5" font-family="Helvetica,sans-Serif" font-size="10.00">src/libs/vgeometry</text>
<text text-anchor="middle" x="2232" y="-74.5" font-family="Helvetica,sans-Serif" font-size="10.00">/varc_p.h</text>
</a>
</g>
</g>
<!-- Node16&#45;&gt;Node21 -->
<g id="edge21" class="edge">
<title>Node16&#45;&gt;Node21</title>
<path fill="none" stroke="midnightblue" d="M3440.2,-151.75C3178.31,-145.87 2513.96,-128.37 2294,-98 2291.26,-97.62 2288.47,-97.18 2285.65,-96.69"/>
<polygon fill="midnightblue" stroke="midnightblue" points="3440.4,-155.26 3450.48,-151.98 3440.56,-148.26 3440.4,-155.26"/>
</g>
<!-- Node23 -->
<g id="node20" class="node">
<title>Node23</title>
<g id="a_node20"><a xlink:href="../../d5/d8e/vcubicbezier__p_8h.html" target="_top" xlink:title=" ">
<polygon fill="white" stroke="red" points="2303.5,-67.5 2303.5,-97.5 2410.5,-97.5 2410.5,-67.5 2303.5,-67.5"/>
<text text-anchor="start" x="2311.5" y="-85.5" font-family="Helvetica,sans-Serif" font-size="10.00">src/libs/vgeometry</text>
<text text-anchor="middle" x="2357" y="-74.5" font-family="Helvetica,sans-Serif" font-size="10.00">/vcubicbezier_p.h</text>
</a>
</g>
</g>
<!-- Node16&#45;&gt;Node23 -->
<g id="edge22" class="edge">
<title>Node16&#45;&gt;Node23</title>
<path fill="none" stroke="midnightblue" d="M3440.16,-151.13C3197.41,-144.27 2614.06,-125.42 2419,-98 2416.26,-97.62 2413.47,-97.17 2410.66,-96.67"/>
<polygon fill="midnightblue" stroke="midnightblue" points="3440.32,-154.64 3450.41,-151.42 3440.51,-147.64 3440.32,-154.64"/>
</g>
<!-- Node25 -->
<g id="node21" class="node">
<title>Node25</title>
<g id="a_node21"><a xlink:href="../../df/dde/vellipticalarc__p_8h.html" target="_top" xlink:title=" ">
<polygon fill="white" stroke="black" points="2428.5,-67.5 2428.5,-97.5 2535.5,-97.5 2535.5,-67.5 2428.5,-67.5"/>
<text text-anchor="start" x="2436.5" y="-85.5" font-family="Helvetica,sans-Serif" font-size="10.00">src/libs/vgeometry</text>
<text text-anchor="middle" x="2482" y="-74.5" font-family="Helvetica,sans-Serif" font-size="10.00">/vellipticalarc_p.h</text>
</a>
</g>
</g>
<!-- Node16&#45;&gt;Node25 -->
<g id="edge23" class="edge">
<title>Node16&#45;&gt;Node25</title>
<path fill="none" stroke="midnightblue" d="M3440.3,-153.38C3256.77,-151.11 2872.01,-141.1 2550,-98 2545.33,-97.38 2540.51,-96.6 2535.69,-95.75"/>
<polygon fill="midnightblue" stroke="midnightblue" points="3440.45,-156.88 3450.49,-153.5 3440.53,-149.88 3440.45,-156.88"/>
</g>
<!-- Node26 -->
<g id="node22" class="node">
<title>Node26</title>
<g id="a_node22"><a xlink:href="../../d6/dfb/vellipticalarc_8cpp.html" target="_top" xlink:title=" ">
<polygon fill="white" stroke="black" points="2469.5,-0.5 2469.5,-30.5 2576.5,-30.5 2576.5,-0.5 2469.5,-0.5"/>
<text text-anchor="start" x="2477.5" y="-18.5" font-family="Helvetica,sans-Serif" font-size="10.00">src/libs/vgeometry</text>
<text text-anchor="middle" x="2523" y="-7.5" font-family="Helvetica,sans-Serif" font-size="10.00">/vellipticalarc.cpp</text>
</a>
</g>
</g>
<!-- Node16&#45;&gt;Node26 -->
<g id="edge25" class="edge">
<title>Node16&#45;&gt;Node26</title>
<path fill="none" stroke="midnightblue" d="M3439.92,-152.87C3203.73,-149.67 2656.72,-137.99 2583,-98 2555.66,-83.17 2537.45,-49.89 2528.81,-30.76"/>
<polygon fill="midnightblue" stroke="midnightblue" points="3440.2,-156.38 3450.24,-153.01 3440.29,-149.38 3440.2,-156.38"/>
</g>
<!-- Node27 -->
<g id="node23" class="node">
<title>Node27</title>
<g id="a_node23"><a xlink:href="../../d1/d76/vspline__p_8h.html" target="_top" xlink:title=" ">
<polygon fill="white" stroke="red" points="2592.5,-67.5 2592.5,-97.5 2699.5,-97.5 2699.5,-67.5 2592.5,-67.5"/>
<text text-anchor="start" x="2600.5" y="-85.5" font-family="Helvetica,sans-Serif" font-size="10.00">src/libs/vgeometry</text>
<text text-anchor="middle" x="2646" y="-74.5" font-family="Helvetica,sans-Serif" font-size="10.00">/vspline_p.h</text>
</a>
</g>
</g>
<!-- Node16&#45;&gt;Node27 -->
<g id="edge26" class="edge">
<title>Node16&#45;&gt;Node27</title>
<path fill="none" stroke="midnightblue" d="M3439.91,-152.29C3279.56,-148.51 2969.56,-136.43 2709,-98 2705.89,-97.54 2702.71,-97.01 2699.51,-96.43"/>
<polygon fill="midnightblue" stroke="midnightblue" points="3440.18,-155.79 3450.25,-152.52 3440.34,-148.8 3440.18,-155.79"/>
</g>
<!-- Node29 -->
<g id="node24" class="node">
<title>Node29</title>
<g id="a_node24"><a xlink:href="../../d9/d15/vabstractpiece_8cpp.html" target="_top" xlink:title=" ">
<polygon fill="white" stroke="black" points="2718,-73 2718,-92 2904,-92 2904,-73 2718,-73"/>
<text text-anchor="middle" x="2811" y="-80" font-family="Helvetica,sans-Serif" font-size="10.00">src/libs/vlayout/vabstractpiece.cpp</text>
</a>
</g>
</g>
<!-- Node16&#45;&gt;Node29 -->
<g id="edge27" class="edge">
<title>Node16&#45;&gt;Node29</title>
<path fill="none" stroke="midnightblue" d="M3440.4,-146.27C3313.96,-136.77 3097.92,-119.28 2913,-98 2898.07,-96.28 2881.96,-94.13 2867.05,-92.01"/>
<polygon fill="midnightblue" stroke="midnightblue" points="3440.24,-149.76 3450.47,-147.02 3440.76,-142.78 3440.24,-149.76"/>
</g>
<!-- Node30 -->
<g id="node25" class="node">
<title>Node30</title>
<g id="a_node25"><a xlink:href="../../db/d65/dialogexporttocsv_8cpp.html" target="_top" xlink:title=" ">
<polygon fill="white" stroke="black" points="2922.5,-67.5 2922.5,-97.5 3049.5,-97.5 3049.5,-67.5 2922.5,-67.5"/>
<text text-anchor="start" x="2930.5" y="-85.5" font-family="Helvetica,sans-Serif" font-size="10.00">src/libs/vmisc/dialogs</text>
<text text-anchor="middle" x="2986" y="-74.5" font-family="Helvetica,sans-Serif" font-size="10.00">/dialogexporttocsv.cpp</text>
</a>
</g>
</g>
<!-- Node16&#45;&gt;Node30 -->
<g id="edge30" class="edge">
<title>Node16&#45;&gt;Node30</title>
<path fill="none" stroke="midnightblue" d="M3443.46,-144.53C3344.22,-134.96 3191.02,-118.64 3059,-98 3055.94,-97.52 3052.81,-97 3049.65,-96.46"/>
<polygon fill="midnightblue" stroke="midnightblue" points="3443.2,-148.03 3453.49,-145.5 3443.87,-141.06 3443.2,-148.03"/>
</g>
<!-- Node31 -->
<g id="node26" class="node">
<title>Node31</title>
<g id="a_node26"><a xlink:href="../../d6/d0b/def_8cpp.html" target="_top" xlink:title=" ">
<polygon fill="white" stroke="black" points="3068,-73 3068,-92 3190,-92 3190,-73 3068,-73"/>
<text text-anchor="middle" x="3129" y="-80" font-family="Helvetica,sans-Serif" font-size="10.00">src/libs/vmisc/def.cpp</text>
</a>
</g>
</g>
<!-- Node16&#45;&gt;Node31 -->
<g id="edge31" class="edge">
<title>Node16&#45;&gt;Node31</title>
<path fill="none" stroke="midnightblue" d="M3479.73,-143.98C3409.27,-133.42 3296.22,-115.86 3199,-98 3189.11,-96.18 3178.47,-94.07 3168.55,-92.02"/>
<polygon fill="midnightblue" stroke="midnightblue" points="3479.41,-147.47 3489.82,-145.49 3480.44,-140.55 3479.41,-147.47"/>
</g>
<!-- Node32 -->
<g id="node27" class="node">
<title>Node32</title>
<g id="a_node27"><a xlink:href="../../d0/df6/vabstractapplication_8cpp.html" target="_top" xlink:title=" ">
<polygon fill="white" stroke="black" points="3208,-73 3208,-92 3414,-92 3414,-73 3208,-73"/>
<text text-anchor="middle" x="3311" y="-80" font-family="Helvetica,sans-Serif" font-size="10.00">src/libs/vmisc/vabstractapplication.cpp</text>
</a>
</g>
</g>
<!-- Node16&#45;&gt;Node32 -->
<g id="edge32" class="edge">
<title>Node16&#45;&gt;Node32</title>
<path fill="none" stroke="midnightblue" d="M3509.79,-142.63C3462.29,-128.5 3382.28,-104.7 3339.69,-92.03"/>
<polygon fill="midnightblue" stroke="midnightblue" points="3508.83,-146 3519.41,-145.5 3510.83,-139.29 3508.83,-146"/>
</g>
<!-- Node33 -->
<g id="node28" class="node">
<title>Node33</title>
<g id="a_node28"><a xlink:href="../../d4/d4f/pmsystems_8cpp.html" target="_top" xlink:title=" ">
<polygon fill="white" stroke="black" points="3432.5,-67.5 3432.5,-97.5 3539.5,-97.5 3539.5,-67.5 3432.5,-67.5"/>
<text text-anchor="start" x="3440.5" y="-85.5" font-family="Helvetica,sans-Serif" font-size="10.00">src/libs/vpatterndb</text>
<text text-anchor="middle" x="3486" y="-74.5" font-family="Helvetica,sans-Serif" font-size="10.00">/pmsystems.cpp</text>
</a>
</g>
</g>
<!-- Node16&#45;&gt;Node33 -->
<g id="edge33" class="edge">
<title>Node16&#45;&gt;Node33</title>
<path fill="none" stroke="midnightblue" d="M3533.7,-137.74C3523.02,-125.6 3508.57,-109.16 3498.38,-97.58"/>
<polygon fill="midnightblue" stroke="midnightblue" points="3531.17,-140.16 3540.4,-145.36 3536.42,-135.53 3531.17,-140.16"/>
</g>
<!-- Node16&#45;&gt;Node34 -->
<g id="edge34" class="edge">
<title>Node16&#45;&gt;Node34</title>
<path fill="none" stroke="midnightblue" d="M3655.89,-153.7C4010.06,-152.28 5135.04,-144.14 5495,-98 5498.01,-97.61 5501.08,-97.15 5504.17,-96.63"/>
<polygon fill="midnightblue" stroke="midnightblue" points="3655.62,-150.2 3645.64,-153.74 3655.65,-157.2 3655.62,-150.2"/>
</g>
<!-- Node16&#45;&gt;Node35 -->
<g id="edge35" class="edge">
<title>Node16&#45;&gt;Node35</title>
<path fill="none" stroke="midnightblue" d="M3655.83,-153.92C4024.69,-153.2 5234.51,-147.07 5620,-98 5623.01,-97.62 5626.08,-97.15 5629.17,-96.63"/>
<polygon fill="midnightblue" stroke="midnightblue" points="3655.68,-150.42 3645.69,-153.94 3655.69,-157.42 3655.68,-150.42"/>
</g>
<!-- Node16&#45;&gt;Node36 -->
<g id="edge36" class="edge">
<title>Node16&#45;&gt;Node36</title>
<path fill="none" stroke="midnightblue" d="M3656.06,-154.11C4039.54,-154.07 5334.02,-150 5745,-98 5748.01,-97.62 5751.08,-97.16 5754.17,-96.64"/>
<polygon fill="midnightblue" stroke="midnightblue" points="3655.81,-150.61 3645.81,-154.12 3655.81,-157.61 3655.81,-150.61"/>
</g>
<!-- Node37 -->
<g id="node32" class="node">
<title>Node37</title>
<g id="a_node32"><a xlink:href="../../df/dba/vpiecenode__p_8h.html" target="_top" xlink:title=" ">
<polygon fill="white" stroke="black" points="3557.5,-67.5 3557.5,-97.5 3664.5,-97.5 3664.5,-67.5 3557.5,-67.5"/>
<text text-anchor="start" x="3565.5" y="-85.5" font-family="Helvetica,sans-Serif" font-size="10.00">src/libs/vpatterndb</text>
<text text-anchor="middle" x="3611" y="-74.5" font-family="Helvetica,sans-Serif" font-size="10.00">/vpiecenode_p.h</text>
</a>
</g>
</g>
<!-- Node16&#45;&gt;Node37 -->
<g id="edge37" class="edge">
<title>Node16&#45;&gt;Node37</title>
<path fill="none" stroke="midnightblue" d="M3562.53,-137.74C3573.38,-125.6 3588.07,-109.16 3598.42,-97.58"/>
<polygon fill="midnightblue" stroke="midnightblue" points="3559.78,-135.57 3555.73,-145.36 3565,-140.23 3559.78,-135.57"/>
</g>
<!-- Node39 -->
<g id="node34" class="node">
<title>Node39</title>
<g id="a_node34"><a xlink:href="../../de/d3e/vtranslatevars_8cpp.html" target="_top" xlink:title=" ">
<polygon fill="white" stroke="black" points="3683,-67.5 3683,-97.5 3793,-97.5 3793,-67.5 3683,-67.5"/>
<text text-anchor="start" x="3691" y="-85.5" font-family="Helvetica,sans-Serif" font-size="10.00">src/libs/vpatterndb</text>
<text text-anchor="middle" x="3738" y="-74.5" font-family="Helvetica,sans-Serif" font-size="10.00">/vtranslatevars.cpp</text>
</a>
</g>
</g>
<!-- Node16&#45;&gt;Node39 -->
<g id="edge39" class="edge">
<title>Node16&#45;&gt;Node39</title>
<path fill="none" stroke="midnightblue" d="M3580.6,-141.9C3613.82,-129.58 3665.29,-110.48 3700.25,-97.51"/>
<polygon fill="midnightblue" stroke="midnightblue" points="3579.08,-138.74 3570.92,-145.5 3581.51,-145.3 3579.08,-138.74"/>
</g>
<!-- Node40 -->
<g id="node35" class="node">
<title>Node40</title>
<g id="a_node35"><a xlink:href="../../df/d40/export__format__combobox_8cpp.html" target="_top" xlink:title=" ">
<polygon fill="white" stroke="black" points="3811.5,-67.5 3811.5,-97.5 3944.5,-97.5 3944.5,-67.5 3811.5,-67.5"/>
<text text-anchor="start" x="3819.5" y="-85.5" font-family="Helvetica,sans-Serif" font-size="10.00">src/libs/vwidgets/export</text>
<text text-anchor="middle" x="3878" y="-74.5" font-family="Helvetica,sans-Serif" font-size="10.00">_format_combobox.cpp</text>
</a>
</g>
</g>
<!-- Node16&#45;&gt;Node40 -->
<g id="edge40" class="edge">
<title>Node16&#45;&gt;Node40</title>
<path fill="none" stroke="midnightblue" d="M3597.7,-143.38C3654.95,-131.15 3749.23,-111.01 3812.44,-97.51"/>
<polygon fill="midnightblue" stroke="midnightblue" points="3596.85,-139.98 3587.81,-145.5 3598.32,-146.83 3596.85,-139.98"/>
</g>
<!-- Node41 -->
<g id="node36" class="node">
<title>Node41</title>
<g id="a_node36"><a xlink:href="../../d3/d4f/mouse__coordinates_8cpp.html" target="_top" xlink:title=" ">
<polygon fill="white" stroke="black" points="3963,-67.5 3963,-97.5 4097,-97.5 4097,-67.5 3963,-67.5"/>
<text text-anchor="start" x="3971" y="-85.5" font-family="Helvetica,sans-Serif" font-size="10.00">src/libs/vwidgets/mouse</text>
<text text-anchor="middle" x="4030" y="-74.5" font-family="Helvetica,sans-Serif" font-size="10.00">_coordinates.cpp</text>
</a>
</g>
</g>
<!-- Node16&#45;&gt;Node41 -->
<g id="edge41" class="edge">
<title>Node16&#45;&gt;Node41</title>
<path fill="none" stroke="midnightblue" d="M3627.28,-144.2C3709.05,-133.82 3840.19,-116.41 3953,-98 3956.22,-97.47 3959.52,-96.92 3962.84,-96.35"/>
<polygon fill="midnightblue" stroke="midnightblue" points="3626.79,-140.73 3617.31,-145.46 3627.67,-147.68 3626.79,-140.73"/>
</g>
<!-- Node42 -->
<g id="node37" class="node">
<title>Node42</title>
<g id="a_node37"><a xlink:href="../../d2/d28/page__format__combobox_8cpp.html" target="_top" xlink:title=" ">
<polygon fill="white" stroke="black" points="4115.5,-67.5 4115.5,-97.5 4246.5,-97.5 4246.5,-67.5 4115.5,-67.5"/>
<text text-anchor="start" x="4123.5" y="-85.5" font-family="Helvetica,sans-Serif" font-size="10.00">src/libs/vwidgets/page</text>
<text text-anchor="middle" x="4181" y="-74.5" font-family="Helvetica,sans-Serif" font-size="10.00">_format_combobox.cpp</text>
</a>
</g>
</g>
<!-- Node16&#45;&gt;Node42 -->
<g id="edge42" class="edge">
<title>Node16&#45;&gt;Node42</title>
<path fill="none" stroke="midnightblue" d="M3655.61,-146.12C3768.25,-137.19 3950.07,-120.85 4106,-98 4109.02,-97.56 4112.1,-97.08 4115.21,-96.57"/>
<polygon fill="midnightblue" stroke="midnightblue" points="3655.3,-142.63 3645.6,-146.91 3655.85,-149.61 3655.3,-142.63"/>
</g>
<!-- Node43 -->
<g id="node38" class="node">
<title>Node43</title>
<g id="a_node38"><a xlink:href="../../d7/d1b/pen__toolbar_8cpp.html" target="_top" xlink:title=" ">
<polygon fill="white" stroke="black" points="4264.5,-67.5 4264.5,-97.5 4383.5,-97.5 4383.5,-67.5 4264.5,-67.5"/>
<text text-anchor="start" x="4272.5" y="-85.5" font-family="Helvetica,sans-Serif" font-size="10.00">src/libs/vwidgets/pen</text>
<text text-anchor="middle" x="4324" y="-74.5" font-family="Helvetica,sans-Serif" font-size="10.00">_toolbar.cpp</text>
</a>
</g>
</g>
<!-- Node16&#45;&gt;Node43 -->
<g id="edge43" class="edge">
<title>Node16&#45;&gt;Node43</title>
<path fill="none" stroke="midnightblue" d="M3655.88,-149.75C3794.94,-143.3 4043.96,-128.4 4255,-98 4258.03,-97.56 4261.12,-97.07 4264.24,-96.55"/>
<polygon fill="midnightblue" stroke="midnightblue" points="3655.47,-146.27 3645.64,-150.22 3655.79,-153.26 3655.47,-146.27"/>
</g>
<!-- Node44 -->
<g id="node39" class="node">
<title>Node44</title>
<g id="a_node39"><a xlink:href="../../d8/d76/scene__rect_8cpp.html" target="_top" xlink:title=" ">
<polygon fill="white" stroke="black" points="4402,-67.5 4402,-97.5 4532,-97.5 4532,-67.5 4402,-67.5"/>
<text text-anchor="start" x="4410" y="-85.5" font-family="Helvetica,sans-Serif" font-size="10.00">src/libs/vwidgets/scene</text>
<text text-anchor="middle" x="4467" y="-74.5" font-family="Helvetica,sans-Serif" font-size="10.00">_rect.cpp</text>
</a>
</g>
</g>
<!-- Node16&#45;&gt;Node44 -->
<g id="edge44" class="edge">
<title>Node16&#45;&gt;Node44</title>
<path fill="none" stroke="midnightblue" d="M3655.91,-151.15C3816.82,-145.92 4128.89,-132.03 4392,-98 4395.16,-97.59 4398.38,-97.13 4401.63,-96.64"/>
<polygon fill="midnightblue" stroke="midnightblue" points="3655.42,-147.66 3645.53,-151.48 3655.64,-154.66 3655.42,-147.66"/>
</g>
<!-- Node45 -->
<g id="node40" class="node">
<title>Node45</title>
<g id="a_node40"><a xlink:href="../../dd/df6/vabstractmainwindow_8cpp.html" target="_top" xlink:title=" ">
<polygon fill="white" stroke="black" points="4550.5,-73 4550.5,-92 4779.5,-92 4779.5,-73 4550.5,-73"/>
<text text-anchor="middle" x="4665" y="-80" font-family="Helvetica,sans-Serif" font-size="10.00">src/libs/vwidgets/vabstractmainwindow.cpp</text>
</a>
</g>
</g>
<!-- Node16&#45;&gt;Node45 -->
<g id="edge45" class="edge">
<title>Node16&#45;&gt;Node45</title>
<path fill="none" stroke="midnightblue" d="M3655.88,-150.04C3838.38,-142.87 4219.58,-125.83 4541,-98 4559.68,-96.38 4579.89,-94.2 4598.47,-92.03"/>
<polygon fill="midnightblue" stroke="midnightblue" points="3655.6,-146.55 3645.74,-150.44 3655.87,-153.54 3655.6,-146.55"/>
</g>
<!-- Node46 -->
<g id="node41" class="node">
<title>Node46</title>
<g id="a_node41"><a xlink:href="../../de/d45/vcontrolpointspline_8cpp.html" target="_top" xlink:title=" ">
<polygon fill="white" stroke="black" points="4797.5,-73 4797.5,-92 5012.5,-92 5012.5,-73 4797.5,-73"/>
<text text-anchor="middle" x="4905" y="-80" font-family="Helvetica,sans-Serif" font-size="10.00">src/libs/vwidgets/vcontrolpointspline.cpp</text>
</a>
</g>
</g>
<!-- Node16&#45;&gt;Node46 -->
<g id="edge46" class="edge">
<title>Node16&#45;&gt;Node46</title>
<path fill="none" stroke="midnightblue" d="M3655.87,-151.96C3871.36,-147.27 4370.26,-133.26 4788,-98 4806.15,-96.47 4825.82,-94.25 4843.76,-92"/>
<polygon fill="midnightblue" stroke="midnightblue" points="3655.75,-148.47 3645.83,-152.18 3655.9,-155.46 3655.75,-148.47"/>
</g>
<!-- Node47 -->
<g id="node42" class="node">
<title>Node47</title>
<g id="a_node42"><a xlink:href="../../d1/d90/vgrainlineitem_8cpp.html" target="_top" xlink:title=" ">
<polygon fill="white" stroke="black" points="5030.5,-73 5030.5,-92 5223.5,-92 5223.5,-73 5030.5,-73"/>
<text text-anchor="middle" x="5127" y="-80" font-family="Helvetica,sans-Serif" font-size="10.00">src/libs/vwidgets/vgrainlineitem.cpp</text>
</a>
</g>
</g>
<!-- Node16&#45;&gt;Node47 -->
<g id="edge47" class="edge">
<title>Node16&#45;&gt;Node47</title>
<path fill="none" stroke="midnightblue" d="M3655.86,-153.51C3899.61,-151.62 4511.42,-142.43 5021,-98 5037.75,-96.54 5055.9,-94.3 5072.37,-92.01"/>
<polygon fill="midnightblue" stroke="midnightblue" points="3655.56,-150.01 3645.59,-153.59 3655.62,-157.01 3655.56,-150.01"/>
</g>
<!-- Node48 -->
<g id="node43" class="node">
<title>Node48</title>
<g id="a_node43"><a xlink:href="../../de/dec/vgraphicssimpletextitem_8cpp.html" target="_top" xlink:title=" ">
<polygon fill="white" stroke="black" points="5242,-73 5242,-92 5486,-92 5486,-73 5242,-73"/>
<text text-anchor="middle" x="5364" y="-80" font-family="Helvetica,sans-Serif" font-size="10.00">src/libs/vwidgets/vgraphicssimpletextitem.cpp</text>
</a>
</g>
</g>
<!-- Node16&#45;&gt;Node48 -->
<g id="edge48" class="edge">
<title>Node16&#45;&gt;Node48</title>
<path fill="none" stroke="midnightblue" d="M3655.99,-153.26C3923.42,-150.8 4637.85,-140.45 5232,-98 5252.7,-96.52 5275.16,-94.29 5295.58,-92.02"/>
<polygon fill="midnightblue" stroke="midnightblue" points="3655.86,-149.76 3645.89,-153.35 3655.93,-156.76 3655.86,-149.76"/>
</g>
<!-- Node25&#45;&gt;Node26 -->
<g id="edge24" class="edge">
<title>Node25&#45;&gt;Node26</title>
<path fill="none" stroke="midnightblue" d="M2496.28,-58.87C2502.21,-49.46 2508.91,-38.83 2514.12,-30.58"/>
<polygon fill="midnightblue" stroke="midnightblue" points="2493.27,-57.07 2490.9,-67.4 2499.19,-60.81 2493.27,-57.07"/>
</g>
<!-- Node37&#45;&gt;Node38 -->
<g id="edge38" class="edge">
<title>Node37&#45;&gt;Node38</title>
<path fill="none" stroke="midnightblue" d="M3674.99,-67.09C3894.57,-38.86 4510.6,-22.25 4696.36,-17.74"/>
<polygon fill="midnightblue" stroke="midnightblue" points="3674.29,-63.65 3664.84,-68.44 3675.21,-70.59 3674.29,-63.65"/>
</g>
<!-- Node63&#45;&gt;Node36 -->
<g id="edge61" class="edge">
<title>Node63&#45;&gt;Node36</title>
<path fill="none" stroke="midnightblue" d="M6622.66,-202.4C6626.04,-181.29 6626.75,-151.35 6609,-134 6555.71,-81.94 6032.38,-81.62 5861.6,-82.92"/>
<polygon fill="midnightblue" stroke="midnightblue" points="6619.22,-201.77 6620.79,-212.24 6626.09,-203.07 6619.22,-201.77"/>
</g>
</g>
</svg>
