<?xml version="1.0" encoding="UTF-8" standalone="no"?>
<!DOCTYPE svg PUBLIC "-//W3C//DTD SVG 1.1//EN"
 "http://www.w3.org/Graphics/SVG/1.1/DTD/svg11.dtd">
<!-- Generated by graphviz version 2.43.0 (0)
 -->
<!-- Title: RenameDraftBlock Pages: 1 -->
<svg width="627pt" height="1906pt"
 viewBox="0.00 0.00 627.09 1906.00" xmlns="http://www.w3.org/2000/svg" xmlns:xlink="http://www.w3.org/1999/xlink">
<g id="graph0" class="graph" transform="scale(1 1) rotate(0) translate(4 1902)">
<title>RenameDraftBlock</title>
<polygon fill="white" stroke="transparent" points="-4,4 -4,-1902 623.09,-1902 623.09,4 -4,4"/>
<!-- Node1 -->
<g id="node1" class="node">
<title>Node1</title>
<g id="a_node1"><a xlink:title=" ">
<polygon fill="#bfbfbf" stroke="black" points="98.59,-0.5 98.59,-167.5 233.59,-167.5 233.59,-0.5 98.59,-0.5"/>
<text text-anchor="middle" x="166.09" y="-155.5" font-family="Helvetica,sans-Serif" font-size="10.00">RenameDraftBlock</text>
<polyline fill="none" stroke="black" points="98.59,-148.5 233.59,-148.5 "/>
<text text-anchor="start" x="106.59" y="-136.5" font-family="Helvetica,sans-Serif" font-size="10.00">&#45; m_combo</text>
<text text-anchor="start" x="106.59" y="-125.5" font-family="Helvetica,sans-Serif" font-size="10.00">&#45; m_newBlockName</text>
<text text-anchor="start" x="106.59" y="-114.5" font-family="Helvetica,sans-Serif" font-size="10.00">&#45; m_oldBlockName</text>
<polyline fill="none" stroke="black" points="98.59,-107.5 233.59,-107.5 "/>
<text text-anchor="start" x="106.59" y="-95.5" font-family="Helvetica,sans-Serif" font-size="10.00">+ RenameDraftBlock()</text>
<text text-anchor="start" x="106.59" y="-84.5" font-family="Helvetica,sans-Serif" font-size="10.00">+ ~RenameDraftBlock()</text>
<text text-anchor="start" x="106.59" y="-73.5" font-family="Helvetica,sans-Serif" font-size="10.00">+ undo()</text>
<text text-anchor="start" x="106.59" y="-62.5" font-family="Helvetica,sans-Serif" font-size="10.00">+ redo()</text>
<text text-anchor="start" x="106.59" y="-51.5" font-family="Helvetica,sans-Serif" font-size="10.00">+ mergeWith()</text>
<text text-anchor="start" x="106.59" y="-40.5" font-family="Helvetica,sans-Serif" font-size="10.00">+ id()</text>
<text text-anchor="start" x="106.59" y="-29.5" font-family="Helvetica,sans-Serif" font-size="10.00">+ getNewName()</text>
<text text-anchor="start" x="106.59" y="-18.5" font-family="Helvetica,sans-Serif" font-size="10.00">+ getOldName()</text>
<text text-anchor="start" x="106.59" y="-7.5" font-family="Helvetica,sans-Serif" font-size="10.00">&#45; changeName()</text>
</a>
</g>
</g>
<!-- Node2 -->
<g id="node2" class="node">
<title>Node2</title>
<g id="a_node2"><a xlink:href="../../de/d04/classVUndoCommand.html" target="_top" xlink:title=" ">
<polygon fill="white" stroke="black" points="91.59,-205.5 91.59,-394.5 240.59,-394.5 240.59,-205.5 91.59,-205.5"/>
<text text-anchor="middle" x="166.09" y="-382.5" font-family="Helvetica,sans-Serif" font-size="10.00">VUndoCommand</text>
<polyline fill="none" stroke="black" points="91.59,-375.5 240.59,-375.5 "/>
<text text-anchor="start" x="99.59" y="-363.5" font-family="Helvetica,sans-Serif" font-size="10.00"># xml</text>
<text text-anchor="start" x="99.59" y="-352.5" font-family="Helvetica,sans-Serif" font-size="10.00"># nodeId</text>
<text text-anchor="start" x="99.59" y="-341.5" font-family="Helvetica,sans-Serif" font-size="10.00"># redoFlag</text>
<polyline fill="none" stroke="black" points="91.59,-334.5 240.59,-334.5 "/>
<text text-anchor="start" x="99.59" y="-322.5" font-family="Helvetica,sans-Serif" font-size="10.00">+ VUndoCommand()</text>
<text text-anchor="start" x="99.59" y="-311.5" font-family="Helvetica,sans-Serif" font-size="10.00">+ ~VUndoCommand()</text>
<text text-anchor="start" x="99.59" y="-300.5" font-family="Helvetica,sans-Serif" font-size="10.00"># RedoFullParsing()</text>
<text text-anchor="start" x="99.59" y="-289.5" font-family="Helvetica,sans-Serif" font-size="10.00"># UndoDeleteAfterSibling()</text>
<text text-anchor="start" x="99.59" y="-278.5" font-family="Helvetica,sans-Serif" font-size="10.00"># IncrementReferences()</text>
<text text-anchor="start" x="99.59" y="-267.5" font-family="Helvetica,sans-Serif" font-size="10.00"># DecrementReferences()</text>
<text text-anchor="start" x="99.59" y="-256.5" font-family="Helvetica,sans-Serif" font-size="10.00"># IncrementReferences()</text>
<text text-anchor="start" x="99.59" y="-245.5" font-family="Helvetica,sans-Serif" font-size="10.00"># DecrementReferences()</text>
<text text-anchor="start" x="99.59" y="-234.5" font-family="Helvetica,sans-Serif" font-size="10.00"># IncrementReferences()</text>
<text text-anchor="start" x="99.59" y="-223.5" font-family="Helvetica,sans-Serif" font-size="10.00"># DecrementReferences()</text>
<text text-anchor="start" x="99.59" y="-212.5" font-family="Helvetica,sans-Serif" font-size="10.00"># getDestinationObject()</text>
</a>
</g>
</g>
<!-- Node2&#45;&gt;Node1 -->
<g id="edge1" class="edge">
<title>Node2&#45;&gt;Node1</title>
<path fill="none" stroke="midnightblue" d="M166.09,-195.37C166.09,-186.06 166.09,-176.71 166.09,-167.61"/>
<polygon fill="none" stroke="midnightblue" points="162.59,-195.45 166.09,-205.45 169.59,-195.45 162.59,-195.45"/>
</g>
<!-- Node3 -->
<g id="node3" class="node">
<title>Node3</title>
<g id="a_node3"><a xlink:title=" ">
<polygon fill="white" stroke="#bfbfbf" points="13.09,-1532 13.09,-1589 69.09,-1589 69.09,-1532 13.09,-1532"/>
<text text-anchor="middle" x="41.09" y="-1577" font-family="Helvetica,sans-Serif" font-size="10.00">QObject</text>
<polyline fill="none" stroke="#bfbfbf" points="13.09,-1570 69.09,-1570 "/>
<text text-anchor="middle" x="41.09" y="-1558" font-family="Helvetica,sans-Serif" font-size="10.00"> </text>
<polyline fill="none" stroke="#bfbfbf" points="13.09,-1551 69.09,-1551 "/>
<text text-anchor="middle" x="41.09" y="-1539" font-family="Helvetica,sans-Serif" font-size="10.00"> </text>
</a>
</g>
</g>
<!-- Node3&#45;&gt;Node2 -->
<g id="edge2" class="edge">
<title>Node3&#45;&gt;Node2</title>
<path fill="none" stroke="midnightblue" d="M35.22,-1521.71C14.21,-1377.31 -49.42,-848.18 76.09,-442 81.07,-425.91 88.41,-409.87 96.78,-394.69"/>
<polygon fill="none" stroke="midnightblue" points="31.79,-1522.43 36.71,-1531.82 38.71,-1521.41 31.79,-1522.43"/>
</g>
<!-- Node5 -->
<g id="node5" class="node">
<title>Node5</title>
<g id="a_node5"><a xlink:href="../../d8/dba/classVAbstractPattern.html" target="_top" xlink:title=" ">
<polygon fill="white" stroke="black" points="85.09,-442.5 85.09,-1280.5 247.09,-1280.5 247.09,-442.5 85.09,-442.5"/>
<text text-anchor="middle" x="166.09" y="-1268.5" font-family="Helvetica,sans-Serif" font-size="10.00">VAbstractPattern</text>
<polyline fill="none" stroke="black" points="85.09,-1261.5 247.09,-1261.5 "/>
<text text-anchor="start" x="93.09" y="-1249.5" font-family="Helvetica,sans-Serif" font-size="10.00">+ TagPattern</text>
<text text-anchor="start" x="93.09" y="-1238.5" font-family="Helvetica,sans-Serif" font-size="10.00">+ TagCalculation</text>
<text text-anchor="start" x="93.09" y="-1227.5" font-family="Helvetica,sans-Serif" font-size="10.00">+ TagModeling</text>
<text text-anchor="start" x="93.09" y="-1216.5" font-family="Helvetica,sans-Serif" font-size="10.00">+ TagPieces</text>
<text text-anchor="start" x="93.09" y="-1205.5" font-family="Helvetica,sans-Serif" font-size="10.00">+ TagPiece</text>
<text text-anchor="start" x="93.09" y="-1194.5" font-family="Helvetica,sans-Serif" font-size="10.00">+ TagDescription</text>
<text text-anchor="start" x="93.09" y="-1183.5" font-family="Helvetica,sans-Serif" font-size="10.00">+ TagImage</text>
<text text-anchor="start" x="93.09" y="-1172.5" font-family="Helvetica,sans-Serif" font-size="10.00">+ TagNotes</text>
<text text-anchor="start" x="93.09" y="-1161.5" font-family="Helvetica,sans-Serif" font-size="10.00">+ TagMeasurements</text>
<text text-anchor="start" x="93.09" y="-1150.5" font-family="Helvetica,sans-Serif" font-size="10.00">+ TagVariables</text>
<text text-anchor="start" x="93.09" y="-1139.5" font-family="Helvetica,sans-Serif" font-size="10.00">and 142 more...</text>
<text text-anchor="start" x="93.09" y="-1128.5" font-family="Helvetica,sans-Serif" font-size="10.00"># activeDraftBlock</text>
<text text-anchor="start" x="93.09" y="-1117.5" font-family="Helvetica,sans-Serif" font-size="10.00"># m_DefaultLineColor</text>
<text text-anchor="start" x="93.09" y="-1106.5" font-family="Helvetica,sans-Serif" font-size="10.00"># m_DefaultLineWeight</text>
<text text-anchor="start" x="93.09" y="-1095.5" font-family="Helvetica,sans-Serif" font-size="10.00"># m_DefaultLineType</text>
<text text-anchor="start" x="93.09" y="-1084.5" font-family="Helvetica,sans-Serif" font-size="10.00"># defaultBasePoint</text>
<text text-anchor="start" x="93.09" y="-1073.5" font-family="Helvetica,sans-Serif" font-size="10.00"># lastSavedExportFormat</text>
<text text-anchor="start" x="93.09" y="-1062.5" font-family="Helvetica,sans-Serif" font-size="10.00"># cursor</text>
<text text-anchor="start" x="93.09" y="-1051.5" font-family="Helvetica,sans-Serif" font-size="10.00"># toolsOnRemove</text>
<text text-anchor="start" x="93.09" y="-1040.5" font-family="Helvetica,sans-Serif" font-size="10.00"># history</text>
<text text-anchor="start" x="93.09" y="-1029.5" font-family="Helvetica,sans-Serif" font-size="10.00"># patternPieces</text>
<text text-anchor="start" x="93.09" y="-1018.5" font-family="Helvetica,sans-Serif" font-size="10.00"># modified</text>
<text text-anchor="start" x="93.09" y="-1007.5" font-family="Helvetica,sans-Serif" font-size="10.00"># patternLabelLines</text>
<text text-anchor="start" x="93.09" y="-996.5" font-family="Helvetica,sans-Serif" font-size="10.00"># patternLabelWasChanged</text>
<polyline fill="none" stroke="black" points="85.09,-989.5 247.09,-989.5 "/>
<text text-anchor="start" x="93.09" y="-977.5" font-family="Helvetica,sans-Serif" font-size="10.00">+ VAbstractPattern()</text>
<text text-anchor="start" x="93.09" y="-966.5" font-family="Helvetica,sans-Serif" font-size="10.00">+ ~VAbstractPattern()</text>
<text text-anchor="start" x="93.09" y="-955.5" font-family="Helvetica,sans-Serif" font-size="10.00">+ ListMeasurements()</text>
<text text-anchor="start" x="93.09" y="-944.5" font-family="Helvetica,sans-Serif" font-size="10.00">+ ListExpressions()</text>
<text text-anchor="start" x="93.09" y="-933.5" font-family="Helvetica,sans-Serif" font-size="10.00">+ listVariableExpressions()</text>
<text text-anchor="start" x="93.09" y="-922.5" font-family="Helvetica,sans-Serif" font-size="10.00">+ CreateEmptyFile()</text>
<text text-anchor="start" x="93.09" y="-911.5" font-family="Helvetica,sans-Serif" font-size="10.00">+ changeActiveDraftBlock()</text>
<text text-anchor="start" x="93.09" y="-900.5" font-family="Helvetica,sans-Serif" font-size="10.00">+ getActiveDraftBlockName()</text>
<text text-anchor="start" x="93.09" y="-889.5" font-family="Helvetica,sans-Serif" font-size="10.00">+ draftBlockNameExists()</text>
<text text-anchor="start" x="93.09" y="-878.5" font-family="Helvetica,sans-Serif" font-size="10.00">+ draftBlockCount()</text>
<text text-anchor="start" x="93.09" y="-867.5" font-family="Helvetica,sans-Serif" font-size="10.00">and 96 more...</text>
<text text-anchor="start" x="93.09" y="-856.5" font-family="Helvetica,sans-Serif" font-size="10.00">+ getTool()</text>
<text text-anchor="start" x="93.09" y="-845.5" font-family="Helvetica,sans-Serif" font-size="10.00">+ AddTool()</text>
<text text-anchor="start" x="93.09" y="-834.5" font-family="Helvetica,sans-Serif" font-size="10.00">+ RemoveTool()</text>
<text text-anchor="start" x="93.09" y="-823.5" font-family="Helvetica,sans-Serif" font-size="10.00">+ ParsePieceNodes()</text>
<text text-anchor="start" x="93.09" y="-812.5" font-family="Helvetica,sans-Serif" font-size="10.00">+ ParsePieceCSARecords()</text>
<text text-anchor="start" x="93.09" y="-801.5" font-family="Helvetica,sans-Serif" font-size="10.00">+ ParsePieceInternalPaths()</text>
<text text-anchor="start" x="93.09" y="-790.5" font-family="Helvetica,sans-Serif" font-size="10.00">+ ParsePieceAnchors()</text>
<text text-anchor="start" x="93.09" y="-779.5" font-family="Helvetica,sans-Serif" font-size="10.00">+ LiteParseTree()</text>
<text text-anchor="start" x="93.09" y="-768.5" font-family="Helvetica,sans-Serif" font-size="10.00">+ haveLiteChange()</text>
<text text-anchor="start" x="93.09" y="-757.5" font-family="Helvetica,sans-Serif" font-size="10.00">+ NeedFullParsing()</text>
<text text-anchor="start" x="93.09" y="-746.5" font-family="Helvetica,sans-Serif" font-size="10.00">+ ClearScene()</text>
<text text-anchor="start" x="93.09" y="-735.5" font-family="Helvetica,sans-Serif" font-size="10.00">+ updatePieceList()</text>
<text text-anchor="start" x="93.09" y="-724.5" font-family="Helvetica,sans-Serif" font-size="10.00">+ selectedPiece()</text>
<text text-anchor="start" x="93.09" y="-713.5" font-family="Helvetica,sans-Serif" font-size="10.00"># setActiveDraftBlock()</text>
<text text-anchor="start" x="93.09" y="-702.5" font-family="Helvetica,sans-Serif" font-size="10.00"># CheckTagExists()</text>
<text text-anchor="start" x="93.09" y="-691.5" font-family="Helvetica,sans-Serif" font-size="10.00"># InsertTag()</text>
<text text-anchor="start" x="93.09" y="-680.5" font-family="Helvetica,sans-Serif" font-size="10.00"># SetChildTag()</text>
<text text-anchor="start" x="93.09" y="-669.5" font-family="Helvetica,sans-Serif" font-size="10.00"># getActiveDraftBlockIndex()</text>
<text text-anchor="start" x="93.09" y="-658.5" font-family="Helvetica,sans-Serif" font-size="10.00"># getActiveDraftElement()</text>
<text text-anchor="start" x="93.09" y="-647.5" font-family="Helvetica,sans-Serif" font-size="10.00"># hasGroupItem()</text>
<text text-anchor="start" x="93.09" y="-636.5" font-family="Helvetica,sans-Serif" font-size="10.00"># ToolExists()</text>
<text text-anchor="start" x="93.09" y="-625.5" font-family="Helvetica,sans-Serif" font-size="10.00"># ParsePathNodes()</text>
<text text-anchor="start" x="93.09" y="-614.5" font-family="Helvetica,sans-Serif" font-size="10.00"># ParseSANode()</text>
<text text-anchor="start" x="93.09" y="-603.5" font-family="Helvetica,sans-Serif" font-size="10.00">&#45; listVariables()</text>
<text text-anchor="start" x="93.09" y="-592.5" font-family="Helvetica,sans-Serif" font-size="10.00">&#45; ListPointExpressions()</text>
<text text-anchor="start" x="93.09" y="-581.5" font-family="Helvetica,sans-Serif" font-size="10.00">&#45; ListArcExpressions()</text>
<text text-anchor="start" x="93.09" y="-570.5" font-family="Helvetica,sans-Serif" font-size="10.00">&#45; ListElArcExpressions()</text>
<text text-anchor="start" x="93.09" y="-559.5" font-family="Helvetica,sans-Serif" font-size="10.00">&#45; ListSplineExpressions()</text>
<text text-anchor="start" x="93.09" y="-548.5" font-family="Helvetica,sans-Serif" font-size="10.00">&#45; ListPathPointExpressions()</text>
<text text-anchor="start" x="93.09" y="-537.5" font-family="Helvetica,sans-Serif" font-size="10.00">&#45; ListOperationExpressions()</text>
<text text-anchor="start" x="93.09" y="-526.5" font-family="Helvetica,sans-Serif" font-size="10.00">&#45; ListNodesExpressions()</text>
<text text-anchor="start" x="93.09" y="-515.5" font-family="Helvetica,sans-Serif" font-size="10.00">&#45; ListPathExpressions()</text>
<text text-anchor="start" x="93.09" y="-504.5" font-family="Helvetica,sans-Serif" font-size="10.00">&#45; ListGrainlineExpressions()</text>
<text text-anchor="start" x="93.09" y="-493.5" font-family="Helvetica,sans-Serif" font-size="10.00">&#45; ListPieceExpressions()</text>
<text text-anchor="start" x="93.09" y="-482.5" font-family="Helvetica,sans-Serif" font-size="10.00">&#45; IsVariable()</text>
<text text-anchor="start" x="93.09" y="-471.5" font-family="Helvetica,sans-Serif" font-size="10.00">&#45; IsPostfixOperator()</text>
<text text-anchor="start" x="93.09" y="-460.5" font-family="Helvetica,sans-Serif" font-size="10.00">&#45; IsFunction()</text>
<text text-anchor="start" x="93.09" y="-449.5" font-family="Helvetica,sans-Serif" font-size="10.00">&#45; ParseItemElement()</text>
</a>
</g>
</g>
<!-- Node3&#45;&gt;Node5 -->
<g id="edge5" class="edge">
<title>Node3&#45;&gt;Node5</title>
<path fill="none" stroke="midnightblue" d="M46.82,-1521.57C53.82,-1475.67 66.22,-1396.07 78.09,-1328 80.8,-1312.5 83.59,-1296.73 86.44,-1280.79"/>
<polygon fill="none" stroke="midnightblue" points="43.33,-1521.25 45.28,-1531.66 50.25,-1522.3 43.33,-1521.25"/>
</g>
<!-- Node4 -->
<g id="node4" class="node">
<title>Node4</title>
<g id="a_node4"><a xlink:title=" ">
<polygon fill="white" stroke="#bfbfbf" points="265.09,-833 265.09,-890 365.09,-890 365.09,-833 265.09,-833"/>
<text text-anchor="middle" x="315.09" y="-878" font-family="Helvetica,sans-Serif" font-size="10.00">QUndoCommand</text>
<polyline fill="none" stroke="#bfbfbf" points="265.09,-871 365.09,-871 "/>
<text text-anchor="middle" x="315.09" y="-859" font-family="Helvetica,sans-Serif" font-size="10.00"> </text>
<polyline fill="none" stroke="#bfbfbf" points="265.09,-852 365.09,-852 "/>
<text text-anchor="middle" x="315.09" y="-840" font-family="Helvetica,sans-Serif" font-size="10.00"> </text>
</a>
</g>
</g>
<!-- Node4&#45;&gt;Node2 -->
<g id="edge3" class="edge">
<title>Node4&#45;&gt;Node2</title>
<path fill="none" stroke="midnightblue" d="M315.08,-822.47C313.9,-747.36 305.5,-575.65 256.09,-442 250.2,-426.07 242.31,-410.05 233.63,-394.82"/>
<polygon fill="none" stroke="midnightblue" points="311.58,-822.88 315.2,-832.84 318.58,-822.8 311.58,-822.88"/>
</g>
<!-- Node5&#45;&gt;Node2 -->
<g id="edge4" class="edge">
<title>Node5&#45;&gt;Node2</title>
<path fill="none" stroke="#404040" d="M166.09,-442.19C166.09,-429.76 166.09,-417.83 166.09,-406.52"/>
<polygon fill="none" stroke="#404040" points="166.09,-406.51 162.09,-400.51 166.09,-394.51 170.09,-400.51 166.09,-406.51"/>
<text text-anchor="middle" x="180.59" y="-416" font-family="Helvetica,sans-Serif" font-size="10.00"> #doc</text>
</g>
<!-- Node6 -->
<g id="node6" class="node">
<title>Node6</title>
<g id="a_node6"><a xlink:href="../../d6/deb/classVDomDocument.html" target="_top" xlink:title="The VDomDocument class represents a Seamly2D document (.val file).">
<polygon fill="white" stroke="black" points="87.59,-1328.5 87.59,-1792.5 244.59,-1792.5 244.59,-1328.5 87.59,-1328.5"/>
<text text-anchor="middle" x="166.09" y="-1780.5" font-family="Helvetica,sans-Serif" font-size="10.00">VDomDocument</text>
<polyline fill="none" stroke="black" points="87.59,-1773.5 244.59,-1773.5 "/>
<text text-anchor="start" x="95.59" y="-1761.5" font-family="Helvetica,sans-Serif" font-size="10.00">+ AttrId</text>
<text text-anchor="start" x="95.59" y="-1750.5" font-family="Helvetica,sans-Serif" font-size="10.00">+ AttrText</text>
<text text-anchor="start" x="95.59" y="-1739.5" font-family="Helvetica,sans-Serif" font-size="10.00">+ AttrBold</text>
<text text-anchor="start" x="95.59" y="-1728.5" font-family="Helvetica,sans-Serif" font-size="10.00">+ AttrItalic</text>
<text text-anchor="start" x="95.59" y="-1717.5" font-family="Helvetica,sans-Serif" font-size="10.00">+ AttrAlignment</text>
<text text-anchor="start" x="95.59" y="-1706.5" font-family="Helvetica,sans-Serif" font-size="10.00">+ AttrFSIncrement</text>
<text text-anchor="start" x="95.59" y="-1695.5" font-family="Helvetica,sans-Serif" font-size="10.00">+ TagVersion</text>
<text text-anchor="start" x="95.59" y="-1684.5" font-family="Helvetica,sans-Serif" font-size="10.00">+ TagUnit</text>
<text text-anchor="start" x="95.59" y="-1673.5" font-family="Helvetica,sans-Serif" font-size="10.00">+ TagLine</text>
<polyline fill="none" stroke="black" points="87.59,-1666.5 244.59,-1666.5 "/>
<text text-anchor="start" x="95.59" y="-1654.5" font-family="Helvetica,sans-Serif" font-size="10.00">+ VDomDocument()</text>
<text text-anchor="start" x="95.59" y="-1643.5" font-family="Helvetica,sans-Serif" font-size="10.00">+ ~VDomDocument()</text>
<text text-anchor="start" x="95.59" y="-1632.5" font-family="Helvetica,sans-Serif" font-size="10.00">+ elementById()</text>
<text text-anchor="start" x="95.59" y="-1621.5" font-family="Helvetica,sans-Serif" font-size="10.00">+ SetAttribute()</text>
<text text-anchor="start" x="95.59" y="-1610.5" font-family="Helvetica,sans-Serif" font-size="10.00">+ measurementUnits()</text>
<text text-anchor="start" x="95.59" y="-1599.5" font-family="Helvetica,sans-Serif" font-size="10.00">+ setXMLContent()</text>
<text text-anchor="start" x="95.59" y="-1588.5" font-family="Helvetica,sans-Serif" font-size="10.00">+ SaveDocument()</text>
<text text-anchor="start" x="95.59" y="-1577.5" font-family="Helvetica,sans-Serif" font-size="10.00">+ Major()</text>
<text text-anchor="start" x="95.59" y="-1566.5" font-family="Helvetica,sans-Serif" font-size="10.00">+ Minor()</text>
<text text-anchor="start" x="95.59" y="-1555.5" font-family="Helvetica,sans-Serif" font-size="10.00">+ Patch()</text>
<text text-anchor="start" x="95.59" y="-1544.5" font-family="Helvetica,sans-Serif" font-size="10.00">and 8 more...</text>
<text text-anchor="start" x="95.59" y="-1533.5" font-family="Helvetica,sans-Serif" font-size="10.00">+ GetParametrUInt()</text>
<text text-anchor="start" x="95.59" y="-1522.5" font-family="Helvetica,sans-Serif" font-size="10.00">+ getParameterBool()</text>
<text text-anchor="start" x="95.59" y="-1511.5" font-family="Helvetica,sans-Serif" font-size="10.00">+ GetParametrUsage()</text>
<text text-anchor="start" x="95.59" y="-1500.5" font-family="Helvetica,sans-Serif" font-size="10.00">+ SetParametrUsage()</text>
<text text-anchor="start" x="95.59" y="-1489.5" font-family="Helvetica,sans-Serif" font-size="10.00">+ GetParametrString()</text>
<text text-anchor="start" x="95.59" y="-1478.5" font-family="Helvetica,sans-Serif" font-size="10.00">+ GetParametrEmptyString()</text>
<text text-anchor="start" x="95.59" y="-1467.5" font-family="Helvetica,sans-Serif" font-size="10.00">+ GetParametrDouble()</text>
<text text-anchor="start" x="95.59" y="-1456.5" font-family="Helvetica,sans-Serif" font-size="10.00">+ getParameterId()</text>
<text text-anchor="start" x="95.59" y="-1445.5" font-family="Helvetica,sans-Serif" font-size="10.00">+ ValidateXML()</text>
<text text-anchor="start" x="95.59" y="-1434.5" font-family="Helvetica,sans-Serif" font-size="10.00">+ UnitsHelpString()</text>
<text text-anchor="start" x="95.59" y="-1423.5" font-family="Helvetica,sans-Serif" font-size="10.00">+ RemoveAllChildren()</text>
<text text-anchor="start" x="95.59" y="-1412.5" font-family="Helvetica,sans-Serif" font-size="10.00">+ SafeCopy()</text>
<text text-anchor="start" x="95.59" y="-1401.5" font-family="Helvetica,sans-Serif" font-size="10.00"># setTagText()</text>
<text text-anchor="start" x="95.59" y="-1390.5" font-family="Helvetica,sans-Serif" font-size="10.00"># setTagText()</text>
<text text-anchor="start" x="95.59" y="-1379.5" font-family="Helvetica,sans-Serif" font-size="10.00"># UniqueTagText()</text>
<text text-anchor="start" x="95.59" y="-1368.5" font-family="Helvetica,sans-Serif" font-size="10.00"># TestUniqueId()</text>
<text text-anchor="start" x="95.59" y="-1357.5" font-family="Helvetica,sans-Serif" font-size="10.00"># CollectId()</text>
<text text-anchor="start" x="95.59" y="-1346.5" font-family="Helvetica,sans-Serif" font-size="10.00">&#45; find()</text>
<text text-anchor="start" x="95.59" y="-1335.5" font-family="Helvetica,sans-Serif" font-size="10.00">&#45; SaveCanonicalXML()</text>
</a>
</g>
</g>
<!-- Node6&#45;&gt;Node5 -->
<g id="edge6" class="edge">
<title>Node6&#45;&gt;Node5</title>
<path fill="none" stroke="midnightblue" d="M166.09,-1318.12C166.09,-1305.85 166.09,-1293.39 166.09,-1280.8"/>
<polygon fill="none" stroke="midnightblue" points="162.59,-1318.38 166.09,-1328.38 169.59,-1318.38 162.59,-1318.38"/>
</g>
<!-- Node7 -->
<g id="node7" class="node">
<title>Node7</title>
<g id="a_node7"><a xlink:title=" ">
<polygon fill="white" stroke="#bfbfbf" points="37.09,-1840.5 37.09,-1897.5 135.09,-1897.5 135.09,-1840.5 37.09,-1840.5"/>
<text text-anchor="middle" x="86.09" y="-1885.5" font-family="Helvetica,sans-Serif" font-size="10.00">QDomDocument</text>
<polyline fill="none" stroke="#bfbfbf" points="37.09,-1878.5 135.09,-1878.5 "/>
<text text-anchor="middle" x="86.09" y="-1866.5" font-family="Helvetica,sans-Serif" font-size="10.00"> </text>
<polyline fill="none" stroke="#bfbfbf" points="37.09,-1859.5 135.09,-1859.5 "/>
<text text-anchor="middle" x="86.09" y="-1847.5" font-family="Helvetica,sans-Serif" font-size="10.00"> </text>
</a>
</g>
</g>
<!-- Node7&#45;&gt;Node6 -->
<g id="edge7" class="edge">
<title>Node7&#45;&gt;Node6</title>
<path fill="none" stroke="midnightblue" d="M95.91,-1830.38C98.77,-1819.45 102.11,-1806.65 105.76,-1792.67"/>
<polygon fill="none" stroke="midnightblue" points="92.47,-1829.7 93.34,-1840.26 99.25,-1831.47 92.47,-1829.7"/>
</g>
<!-- Node8 -->
<g id="node8" class="node">
<title>Node8</title>
<g id="a_node8"><a xlink:href="../../da/da1/classQHash.html" target="_top" xlink:title=" ">
<polygon fill="white" stroke="black" points="153.59,-1840.5 153.59,-1897.5 338.59,-1897.5 338.59,-1840.5 153.59,-1840.5"/>
<text text-anchor="middle" x="246.09" y="-1885.5" font-family="Helvetica,sans-Serif" font-size="10.00">QHash&lt; quint32, QDomElement &gt;</text>
<polyline fill="none" stroke="black" points="153.59,-1878.5 338.59,-1878.5 "/>
<text text-anchor="middle" x="246.09" y="-1866.5" font-family="Helvetica,sans-Serif" font-size="10.00"> </text>
<polyline fill="none" stroke="black" points="153.59,-1859.5 338.59,-1859.5 "/>
<text text-anchor="middle" x="246.09" y="-1847.5" font-family="Helvetica,sans-Serif" font-size="10.00"> </text>
</a>
</g>
</g>
<!-- Node8&#45;&gt;Node6 -->
<g id="edge8" class="edge">
<title>Node8&#45;&gt;Node6</title>
<path fill="none" stroke="#404040" d="M238.85,-1840.26C236.25,-1830.3 233.07,-1818.12 229.51,-1804.46"/>
<polygon fill="none" stroke="#404040" points="229.46,-1804.28 224.08,-1799.48 226.43,-1792.67 231.82,-1797.46 229.46,-1804.28"/>
<text text-anchor="middle" x="247.59" y="-1814" font-family="Helvetica,sans-Serif" font-size="10.00"> &#45;map</text>
</g>
<!-- Node9 -->
<g id="node9" class="node">
<title>Node9</title>
<g id="a_node9"><a xlink:href="../../da/da1/classQHash.html" target="_top" xlink:title=" ">
<polygon fill="white" stroke="black" points="263.09,-1532 263.09,-1589 435.09,-1589 435.09,-1532 263.09,-1532"/>
<text text-anchor="middle" x="349.09" y="-1577" font-family="Helvetica,sans-Serif" font-size="10.00">QHash&lt; quint32, VDataTool * &gt;</text>
<polyline fill="none" stroke="black" points="263.09,-1570 435.09,-1570 "/>
<text text-anchor="middle" x="349.09" y="-1558" font-family="Helvetica,sans-Serif" font-size="10.00"> </text>
<polyline fill="none" stroke="black" points="263.09,-1551 435.09,-1551 "/>
<text text-anchor="middle" x="349.09" y="-1539" font-family="Helvetica,sans-Serif" font-size="10.00"> </text>
</a>
</g>
</g>
<!-- Node9&#45;&gt;Node5 -->
<g id="edge9" class="edge">
<title>Node9&#45;&gt;Node5</title>
<path fill="none" stroke="#404040" d="M338.69,-1531.75C320.3,-1482.01 281.59,-1374.17 256.09,-1281 254.1,-1273.71 252.12,-1266.34 250.16,-1258.9"/>
<polygon fill="none" stroke="#404040" points="250.13,-1258.78 244.74,-1253.98 247.1,-1247.16 252.48,-1251.96 250.13,-1258.78"/>
<text text-anchor="middle" x="280.09" y="-1302" font-family="Helvetica,sans-Serif" font-size="10.00"> #tools</text>
</g>
<!-- Node10 -->
<g id="node10" class="node">
<title>Node10</title>
<g id="a_node10"><a xlink:href="../../d0/d4c/classQMap.html" target="_top" xlink:title=" ">
<polygon fill="white" stroke="black" points="453.09,-1532 453.09,-1589 619.09,-1589 619.09,-1532 453.09,-1532"/>
<text text-anchor="middle" x="536.09" y="-1577" font-family="Helvetica,sans-Serif" font-size="10.00">QMap&lt; qint32, ImageItem * &gt;</text>
<polyline fill="none" stroke="black" points="453.09,-1570 619.09,-1570 "/>
<text text-anchor="middle" x="536.09" y="-1558" font-family="Helvetica,sans-Serif" font-size="10.00"> </text>
<polyline fill="none" stroke="black" points="453.09,-1551 619.09,-1551 "/>
<text text-anchor="middle" x="536.09" y="-1539" font-family="Helvetica,sans-Serif" font-size="10.00"> </text>
</a>
</g>
</g>
<!-- Node10&#45;&gt;Node5 -->
<g id="edge10" class="edge">
<title>Node10&#45;&gt;Node5</title>
<path fill="none" stroke="#404040" d="M533.18,-1531.68C526.55,-1482.89 505.78,-1381.96 444.09,-1328 427.89,-1313.82 271.07,-1296.48 256.09,-1281 256,-1280.9 255.91,-1280.81 255.82,-1280.71"/>
<polygon fill="none" stroke="#404040" points="255.55,-1280.42 248.55,-1278.7 247.44,-1271.57 254.45,-1273.29 255.55,-1280.42"/>
<text text-anchor="middle" x="414.59" y="-1302" font-family="Helvetica,sans-Serif" font-size="10.00"> #m_imageMap</text>
</g>
</g>
</svg>
