<?xml version="1.0" encoding="UTF-8" standalone="no"?>
<!DOCTYPE svg PUBLIC "-//W3C//DTD SVG 1.1//EN"
 "http://www.w3.org/Graphics/SVG/1.1/DTD/svg11.dtd">
<!-- Generated by graphviz version 2.43.0 (0)
 -->
<!-- Title: src/libs/ifc/xml/vdomdocument.cpp Pages: 1 -->
<svg width="4030pt" height="319pt"
 viewBox="0.00 0.00 4030.00 319.00" xmlns="http://www.w3.org/2000/svg" xmlns:xlink="http://www.w3.org/1999/xlink">
<g id="graph0" class="graph" transform="scale(1 1) rotate(0) translate(4 315)">
<title>src/libs/ifc/xml/vdomdocument.cpp</title>
<polygon fill="white" stroke="transparent" points="-4,4 -4,-315 4026,-315 4026,4 -4,4"/>
<!-- Node1 -->
<g id="node1" class="node">
<title>Node1</title>
<g id="a_node1"><a xlink:title=" ">
<polygon fill="#bfbfbf" stroke="black" points="2154,-291.5 2154,-310.5 2342,-310.5 2342,-291.5 2154,-291.5"/>
<text text-anchor="middle" x="2248" y="-298.5" font-family="Helvetica,sans-Serif" font-size="10.00">src/libs/ifc/xml/vdomdocument.cpp</text>
</a>
</g>
</g>
<!-- Node2 -->
<g id="node2" class="node">
<title>Node2</title>
<g id="a_node2"><a xlink:href="../../d8/da5/vdomdocument_8h.html" target="_top" xlink:title=" ">
<polygon fill="white" stroke="black" points="576,-168.5 576,-187.5 678,-187.5 678,-168.5 576,-168.5"/>
<text text-anchor="middle" x="627" y="-175.5" font-family="Helvetica,sans-Serif" font-size="10.00">vdomdocument.h</text>
</a>
</g>
</g>
<!-- Node1&#45;&gt;Node2 -->
<g id="edge1" class="edge">
<title>Node1&#45;&gt;Node2</title>
<path fill="none" stroke="midnightblue" d="M2153.89,-299.01C1855.33,-295.61 941.37,-282.99 811,-255 751.08,-242.13 685.88,-210.63 651.47,-192.48"/>
<polygon fill="midnightblue" stroke="midnightblue" points="653.08,-189.37 642.61,-187.74 649.78,-195.54 653.08,-189.37"/>
</g>
<!-- Node15 -->
<g id="node15" class="node">
<title>Node15</title>
<g id="a_node15"><a xlink:title=" ">
<polygon fill="white" stroke="#bfbfbf" points="992.5,-112.5 992.5,-131.5 1095.5,-131.5 1095.5,-112.5 992.5,-112.5"/>
<text text-anchor="middle" x="1044" y="-119.5" font-family="Helvetica,sans-Serif" font-size="10.00">../vmisc/logging.h</text>
</a>
</g>
</g>
<!-- Node1&#45;&gt;Node15 -->
<g id="edge61" class="edge">
<title>Node1&#45;&gt;Node15</title>
<path fill="none" stroke="midnightblue" d="M2153.94,-300.53C1846.67,-301.82 889.54,-302.03 844,-255 789.57,-198.8 923.04,-153.94 997.71,-134.08"/>
<polygon fill="midnightblue" stroke="midnightblue" points="998.6,-137.47 1007.39,-131.56 996.83,-130.69 998.6,-137.47"/>
</g>
<!-- Node16 -->
<g id="node16" class="node">
<title>Node16</title>
<g id="a_node16"><a xlink:title=" ">
<polygon fill="white" stroke="#bfbfbf" points="1776,-0.5 1776,-19.5 1896,-19.5 1896,-0.5 1776,-0.5"/>
<text text-anchor="middle" x="1836" y="-7.5" font-family="Helvetica,sans-Serif" font-size="10.00">qcompilerdetection.h</text>
</a>
</g>
</g>
<!-- Node1&#45;&gt;Node16 -->
<g id="edge15" class="edge">
<title>Node1&#45;&gt;Node16</title>
<path fill="none" stroke="midnightblue" d="M2153.84,-295.58C2084.03,-290.37 1996.57,-279.11 1970,-255 1944.14,-231.53 1950,-213.93 1950,-179 1950,-179 1950,-179 1950,-121 1950,-74.11 1899.45,-40.89 1865.67,-23.93"/>
<polygon fill="midnightblue" stroke="midnightblue" points="1867.17,-20.77 1856.64,-19.58 1864.13,-27.07 1867.17,-20.77"/>
</g>
<!-- Node17 -->
<g id="node17" class="node">
<title>Node17</title>
<g id="a_node17"><a xlink:title=" ">
<polygon fill="white" stroke="#bfbfbf" points="853.5,-230 853.5,-249 906.5,-249 906.5,-230 853.5,-230"/>
<text text-anchor="middle" x="880" y="-237" font-family="Helvetica,sans-Serif" font-size="10.00">qdom.h</text>
</a>
</g>
</g>
<!-- Node1&#45;&gt;Node17 -->
<g id="edge16" class="edge">
<title>Node1&#45;&gt;Node17</title>
<path fill="none" stroke="midnightblue" d="M2153.86,-298.71C1870.22,-294.57 1035.95,-280.36 916,-255 913.16,-254.4 910.25,-253.59 907.38,-252.66"/>
<polygon fill="midnightblue" stroke="midnightblue" points="908.52,-249.35 897.93,-249.15 906.08,-255.91 908.52,-249.35"/>
</g>
<!-- Node18 -->
<g id="node18" class="node">
<title>Node18</title>
<g id="a_node18"><a xlink:title=" ">
<polygon fill="white" stroke="#bfbfbf" points="924.5,-230 924.5,-249 989.5,-249 989.5,-230 924.5,-230"/>
<text text-anchor="middle" x="957" y="-237" font-family="Helvetica,sans-Serif" font-size="10.00">QSaveFile</text>
</a>
</g>
</g>
<!-- Node1&#45;&gt;Node18 -->
<g id="edge17" class="edge">
<title>Node1&#45;&gt;Node18</title>
<path fill="none" stroke="midnightblue" d="M2153.87,-299.79C1903.42,-298.73 1224.81,-292.38 1004,-255 999.52,-254.24 994.88,-253.17 990.32,-251.95"/>
<polygon fill="midnightblue" stroke="midnightblue" points="991.2,-248.56 980.62,-249.11 989.23,-255.28 991.2,-248.56"/>
</g>
<!-- Node19 -->
<g id="node19" class="node">
<title>Node19</title>
<g id="a_node19"><a xlink:href="../../d4/d13/vexceptionbadid_8h.html" target="_top" xlink:title=" ">
<polygon fill="white" stroke="black" points="1285.5,-230 1285.5,-249 1452.5,-249 1452.5,-230 1285.5,-230"/>
<text text-anchor="middle" x="1369" y="-237" font-family="Helvetica,sans-Serif" font-size="10.00">../exception/vexceptionbadid.h</text>
</a>
</g>
</g>
<!-- Node1&#45;&gt;Node19 -->
<g id="edge18" class="edge">
<title>Node1&#45;&gt;Node19</title>
<path fill="none" stroke="midnightblue" d="M2153.99,-297.58C2006.3,-293.11 1711.07,-281.48 1462,-255 1451.05,-253.84 1439.43,-252.28 1428.23,-250.62"/>
<polygon fill="midnightblue" stroke="midnightblue" points="1428.53,-247.12 1418.11,-249.07 1427.47,-254.04 1428.53,-247.12"/>
</g>
<!-- Node20 -->
<g id="node20" class="node">
<title>Node20</title>
<g id="a_node20"><a xlink:href="../../d3/da5/ifcdef_8h.html" target="_top" xlink:title=" ">
<polygon fill="white" stroke="black" points="1310,-112.5 1310,-131.5 1372,-131.5 1372,-112.5 1310,-112.5"/>
<text text-anchor="middle" x="1341" y="-119.5" font-family="Helvetica,sans-Serif" font-size="10.00">../ifcdef.h</text>
</a>
</g>
</g>
<!-- Node1&#45;&gt;Node20 -->
<g id="edge62" class="edge">
<title>Node1&#45;&gt;Node20</title>
<path fill="none" stroke="midnightblue" d="M2153.54,-300.02C1875.41,-299.62 1076.52,-294.97 1038,-255 1028.44,-245.08 1029.94,-235.18 1038,-224 1069.16,-180.77 1224.34,-145.52 1299.74,-130.64"/>
<polygon fill="midnightblue" stroke="midnightblue" points="1300.68,-134.02 1309.83,-128.67 1299.34,-127.15 1300.68,-134.02"/>
</g>
<!-- Node21 -->
<g id="node21" class="node">
<title>Node21</title>
<g id="a_node21"><a xlink:title=" ">
<polygon fill="white" stroke="#bfbfbf" points="981,-0.5 981,-19.5 1051,-19.5 1051,-0.5 981,-0.5"/>
<text text-anchor="middle" x="1016" y="-7.5" font-family="Helvetica,sans-Serif" font-size="10.00">QStringList</text>
</a>
</g>
</g>
<!-- Node1&#45;&gt;Node21 -->
<g id="edge70" class="edge">
<title>Node1&#45;&gt;Node21</title>
<path fill="none" stroke="midnightblue" d="M2153.91,-299.94C1727.85,-299.04 0,-288.65 0,-179 0,-179 0,-179 0,-121 0,-21.92 773.56,-12 970.71,-11.08"/>
<polygon fill="midnightblue" stroke="midnightblue" points="970.75,-14.58 980.73,-11.04 970.72,-7.58 970.75,-14.58"/>
</g>
<!-- Node32 -->
<g id="node28" class="node">
<title>Node32</title>
<g id="a_node28"><a xlink:href="../../d1/d44/vexception_8h.html" target="_top" xlink:title=" ">
<polygon fill="white" stroke="black" points="1576,-168.5 1576,-187.5 1656,-187.5 1656,-168.5 1576,-168.5"/>
<text text-anchor="middle" x="1616" y="-175.5" font-family="Helvetica,sans-Serif" font-size="10.00">vexception.h</text>
</a>
</g>
</g>
<!-- Node1&#45;&gt;Node32 -->
<g id="edge60" class="edge">
<title>Node1&#45;&gt;Node32</title>
<path fill="none" stroke="midnightblue" d="M2153.75,-298.22C2026.7,-294.71 1807.9,-284.47 1734,-255 1713.43,-246.8 1713.34,-236.41 1695,-224 1677.89,-212.43 1657.64,-200.93 1641.92,-192.45"/>
<polygon fill="midnightblue" stroke="midnightblue" points="1643.26,-189.2 1632.79,-187.59 1639.97,-195.38 1643.26,-189.2"/>
</g>
<!-- Node34 -->
<g id="node30" class="node">
<title>Node34</title>
<g id="a_node30"><a xlink:href="../../d9/d72/vexceptionconversionerror_8h.html" target="_top" xlink:title=" ">
<polygon fill="white" stroke="black" points="1470.5,-230 1470.5,-249 1685.5,-249 1685.5,-230 1470.5,-230"/>
<text text-anchor="middle" x="1578" y="-237" font-family="Helvetica,sans-Serif" font-size="10.00">../exception/vexceptionconversionerror.h</text>
</a>
</g>
</g>
<!-- Node1&#45;&gt;Node34 -->
<g id="edge43" class="edge">
<title>Node1&#45;&gt;Node34</title>
<path fill="none" stroke="midnightblue" d="M2153.85,-293.31C2044.6,-285.31 1859.09,-270.98 1700,-255 1685.77,-253.57 1670.63,-251.9 1656.03,-250.2"/>
<polygon fill="midnightblue" stroke="midnightblue" points="1656.37,-246.72 1646.03,-249.03 1655.55,-253.67 1656.37,-246.72"/>
</g>
<!-- Node35 -->
<g id="node31" class="node">
<title>Node35</title>
<g id="a_node31"><a xlink:href="../../d2/d18/vexceptionemptyparameter_8h.html" target="_top" xlink:title=" ">
<polygon fill="white" stroke="black" points="1046.5,-230 1046.5,-249 1267.5,-249 1267.5,-230 1046.5,-230"/>
<text text-anchor="middle" x="1157" y="-237" font-family="Helvetica,sans-Serif" font-size="10.00">../exception/vexceptionemptyparameter.h</text>
</a>
</g>
</g>
<!-- Node1&#45;&gt;Node35 -->
<g id="edge48" class="edge">
<title>Node1&#45;&gt;Node35</title>
<path fill="none" stroke="midnightblue" d="M2153.77,-297.95C1980.13,-293.65 1598,-281.79 1277,-255 1261.82,-253.73 1245.6,-252.02 1230.15,-250.21"/>
<polygon fill="midnightblue" stroke="midnightblue" points="1230.47,-246.73 1220.12,-249.02 1229.64,-253.68 1230.47,-246.73"/>
</g>
<!-- Node36 -->
<g id="node32" class="node">
<title>Node36</title>
<g id="a_node32"><a xlink:href="../../d0/d21/vexceptionwrongid_8h.html" target="_top" xlink:title=" ">
<polygon fill="white" stroke="black" points="1742.5,-230 1742.5,-249 1921.5,-249 1921.5,-230 1742.5,-230"/>
<text text-anchor="middle" x="1832" y="-237" font-family="Helvetica,sans-Serif" font-size="10.00">../exception/vexceptionwrongid.h</text>
</a>
</g>
</g>
<!-- Node1&#45;&gt;Node36 -->
<g id="edge54" class="edge">
<title>Node1&#45;&gt;Node36</title>
<path fill="none" stroke="midnightblue" d="M2188.4,-291.48C2112.56,-280.63 1981.8,-261.93 1901.51,-250.44"/>
<polygon fill="midnightblue" stroke="midnightblue" points="1901.89,-246.96 1891.49,-249.01 1900.9,-253.89 1901.89,-246.96"/>
</g>
<!-- Node37 -->
<g id="node33" class="node">
<title>Node37</title>
<g id="a_node33"><a xlink:title=" ">
<polygon fill="white" stroke="#bfbfbf" points="1978.5,-230 1978.5,-249 2051.5,-249 2051.5,-230 1978.5,-230"/>
<text text-anchor="middle" x="2015" y="-237" font-family="Helvetica,sans-Serif" font-size="10.00">QByteArray</text>
</a>
</g>
</g>
<!-- Node1&#45;&gt;Node37 -->
<g id="edge63" class="edge">
<title>Node1&#45;&gt;Node37</title>
<path fill="none" stroke="midnightblue" d="M2209.12,-291.47C2171.15,-282.95 2111.84,-269.11 2061,-255 2057.67,-254.08 2054.22,-253.07 2050.78,-252.04"/>
<polygon fill="midnightblue" stroke="midnightblue" points="2051.77,-248.68 2041.18,-249.1 2049.71,-255.38 2051.77,-248.68"/>
</g>
<!-- Node38 -->
<g id="node34" class="node">
<title>Node38</title>
<g id="a_node34"><a xlink:title=" ">
<polygon fill="white" stroke="#bfbfbf" points="2070,-230 2070,-249 2160,-249 2160,-230 2070,-230"/>
<text text-anchor="middle" x="2115" y="-237" font-family="Helvetica,sans-Serif" font-size="10.00">QDomNodeList</text>
</a>
</g>
</g>
<!-- Node1&#45;&gt;Node38 -->
<g id="edge64" class="edge">
<title>Node1&#45;&gt;Node38</title>
<path fill="none" stroke="midnightblue" d="M2228.94,-291.48C2206.53,-281.45 2169.09,-264.7 2143.29,-253.15"/>
<polygon fill="midnightblue" stroke="midnightblue" points="2144.58,-249.9 2134.02,-249.01 2141.72,-256.29 2144.58,-249.9"/>
</g>
<!-- Node39 -->
<g id="node35" class="node">
<title>Node39</title>
<g id="a_node35"><a xlink:title=" ">
<polygon fill="white" stroke="#bfbfbf" points="2178,-230 2178,-249 2246,-249 2246,-230 2178,-230"/>
<text text-anchor="middle" x="2212" y="-237" font-family="Helvetica,sans-Serif" font-size="10.00">QDomText</text>
</a>
</g>
</g>
<!-- Node1&#45;&gt;Node39 -->
<g id="edge65" class="edge">
<title>Node1&#45;&gt;Node39</title>
<path fill="none" stroke="midnightblue" d="M2242.84,-291.48C2237.55,-282.73 2229.16,-268.87 2222.47,-257.81"/>
<polygon fill="midnightblue" stroke="midnightblue" points="2225.32,-255.75 2217.15,-249.01 2219.33,-259.38 2225.32,-255.75"/>
</g>
<!-- Node40 -->
<g id="node36" class="node">
<title>Node40</title>
<g id="a_node36"><a xlink:title=" ">
<polygon fill="white" stroke="#bfbfbf" points="2264.5,-230 2264.5,-249 2305.5,-249 2305.5,-230 2264.5,-230"/>
<text text-anchor="middle" x="2285" y="-237" font-family="Helvetica,sans-Serif" font-size="10.00">QFile</text>
</a>
</g>
</g>
<!-- Node1&#45;&gt;Node40 -->
<g id="edge66" class="edge">
<title>Node1&#45;&gt;Node40</title>
<path fill="none" stroke="midnightblue" d="M2253.3,-291.48C2258.74,-282.73 2267.36,-268.87 2274.24,-257.81"/>
<polygon fill="midnightblue" stroke="midnightblue" points="2277.4,-259.35 2279.71,-249.01 2271.46,-255.65 2277.4,-259.35"/>
</g>
<!-- Node41 -->
<g id="node37" class="node">
<title>Node41</title>
<g id="a_node37"><a xlink:title=" ">
<polygon fill="white" stroke="#bfbfbf" points="2324,-230 2324,-249 2392,-249 2392,-230 2324,-230"/>
<text text-anchor="middle" x="2358" y="-237" font-family="Helvetica,sans-Serif" font-size="10.00">QIODevice</text>
</a>
</g>
</g>
<!-- Node1&#45;&gt;Node41 -->
<g id="edge67" class="edge">
<title>Node1&#45;&gt;Node41</title>
<path fill="none" stroke="midnightblue" d="M2263.76,-291.48C2281.98,-281.62 2312.17,-265.29 2333.47,-253.77"/>
<polygon fill="midnightblue" stroke="midnightblue" points="2335.14,-256.85 2342.27,-249.01 2331.81,-250.69 2335.14,-256.85"/>
</g>
<!-- Node42 -->
<g id="node38" class="node">
<title>Node42</title>
<g id="a_node38"><a xlink:title=" ">
<polygon fill="white" stroke="#bfbfbf" points="2410.5,-230 2410.5,-249 2511.5,-249 2511.5,-230 2410.5,-230"/>
<text text-anchor="middle" x="2461" y="-237" font-family="Helvetica,sans-Serif" font-size="10.00">QMessageLogger</text>
</a>
</g>
</g>
<!-- Node1&#45;&gt;Node42 -->
<g id="edge68" class="edge">
<title>Node1&#45;&gt;Node42</title>
<path fill="none" stroke="midnightblue" d="M2278.52,-291.48C2315.92,-281.03 2379.43,-263.29 2420.79,-251.73"/>
<polygon fill="midnightblue" stroke="midnightblue" points="2421.85,-255.07 2430.54,-249.01 2419.97,-248.33 2421.85,-255.07"/>
</g>
<!-- Node43 -->
<g id="node39" class="node">
<title>Node43</title>
<g id="a_node39"><a xlink:title=" ">
<polygon fill="white" stroke="#bfbfbf" points="2530,-230 2530,-249 2586,-249 2586,-230 2530,-230"/>
<text text-anchor="middle" x="2558" y="-237" font-family="Helvetica,sans-Serif" font-size="10.00">QObject</text>
</a>
</g>
</g>
<!-- Node1&#45;&gt;Node43 -->
<g id="edge69" class="edge">
<title>Node1&#45;&gt;Node43</title>
<path fill="none" stroke="midnightblue" d="M2326.61,-291.49C2381.67,-284.45 2456.62,-272.71 2521,-255 2523.59,-254.29 2526.25,-253.45 2528.9,-252.56"/>
<polygon fill="midnightblue" stroke="midnightblue" points="2530.11,-255.84 2538.29,-249.11 2527.7,-249.27 2530.11,-255.84"/>
</g>
<!-- Node44 -->
<g id="node40" class="node">
<title>Node44</title>
<g id="a_node40"><a xlink:title=" ">
<polygon fill="white" stroke="#bfbfbf" points="2604.5,-230 2604.5,-249 2697.5,-249 2697.5,-230 2604.5,-230"/>
<text text-anchor="middle" x="2651" y="-237" font-family="Helvetica,sans-Serif" font-size="10.00">QTemporaryFile</text>
</a>
</g>
</g>
<!-- Node1&#45;&gt;Node44 -->
<g id="edge71" class="edge">
<title>Node1&#45;&gt;Node44</title>
<path fill="none" stroke="midnightblue" d="M2337.64,-291.47C2407.99,-284.03 2508.22,-271.79 2595,-255 2600.17,-254 2605.57,-252.8 2610.88,-251.53"/>
<polygon fill="midnightblue" stroke="midnightblue" points="2612.08,-254.84 2620.93,-249.02 2610.38,-248.05 2612.08,-254.84"/>
</g>
<!-- Node45 -->
<g id="node41" class="node">
<title>Node45</title>
<g id="a_node41"><a xlink:title=" ">
<polygon fill="white" stroke="#bfbfbf" points="2715.5,-230 2715.5,-249 2810.5,-249 2810.5,-230 2715.5,-230"/>
<text text-anchor="middle" x="2763" y="-237" font-family="Helvetica,sans-Serif" font-size="10.00">QTextDocument</text>
</a>
</g>
</g>
<!-- Node1&#45;&gt;Node45 -->
<g id="edge72" class="edge">
<title>Node1&#45;&gt;Node45</title>
<path fill="none" stroke="midnightblue" d="M2342.21,-295.06C2435.4,-289.17 2581.84,-277.2 2707,-255 2712.44,-254.04 2718.13,-252.82 2723.7,-251.5"/>
<polygon fill="midnightblue" stroke="midnightblue" points="2724.69,-254.86 2733.55,-249.04 2723,-248.06 2724.69,-254.86"/>
</g>
<!-- Node46 -->
<g id="node42" class="node">
<title>Node46</title>
<g id="a_node42"><a xlink:title=" ">
<polygon fill="white" stroke="#bfbfbf" points="2829,-230 2829,-249 2909,-249 2909,-230 2829,-230"/>
<text text-anchor="middle" x="2869" y="-237" font-family="Helvetica,sans-Serif" font-size="10.00">QTextStream</text>
</a>
</g>
</g>
<!-- Node1&#45;&gt;Node46 -->
<g id="edge73" class="edge">
<title>Node1&#45;&gt;Node46</title>
<path fill="none" stroke="midnightblue" d="M2342.16,-298.61C2456.18,-295.55 2653.61,-285.81 2820,-255 2824.54,-254.16 2829.26,-253.06 2833.89,-251.85"/>
<polygon fill="midnightblue" stroke="midnightblue" points="2835.14,-255.13 2843.81,-249.05 2833.24,-248.39 2835.14,-255.13"/>
</g>
<!-- Node47 -->
<g id="node43" class="node">
<title>Node47</title>
<g id="a_node43"><a xlink:title=" ">
<polygon fill="white" stroke="#bfbfbf" points="2927,-230 2927,-249 2965,-249 2965,-230 2927,-230"/>
<text text-anchor="middle" x="2946" y="-237" font-family="Helvetica,sans-Serif" font-size="10.00">QUrl</text>
</a>
</g>
</g>
<!-- Node1&#45;&gt;Node47 -->
<g id="edge74" class="edge">
<title>Node1&#45;&gt;Node47</title>
<path fill="none" stroke="midnightblue" d="M2342.05,-298.41C2500.18,-294.95 2812.39,-284.51 2918,-255 2919.67,-254.53 2921.35,-253.96 2923.02,-253.32"/>
<polygon fill="midnightblue" stroke="midnightblue" points="2924.62,-256.44 2932.22,-249.06 2921.68,-250.08 2924.62,-256.44"/>
</g>
<!-- Node48 -->
<g id="node44" class="node">
<title>Node48</title>
<g id="a_node44"><a xlink:title=" ">
<polygon fill="white" stroke="#bfbfbf" points="2983.5,-230 2983.5,-249 3038.5,-249 3038.5,-230 2983.5,-230"/>
<text text-anchor="middle" x="3011" y="-237" font-family="Helvetica,sans-Serif" font-size="10.00">QVector</text>
</a>
</g>
</g>
<!-- Node1&#45;&gt;Node48 -->
<g id="edge75" class="edge">
<title>Node1&#45;&gt;Node48</title>
<path fill="none" stroke="midnightblue" d="M2342.2,-297.8C2510.52,-293.26 2856.32,-281.03 2974,-255 2977,-254.34 2980.08,-253.46 2983.12,-252.48"/>
<polygon fill="midnightblue" stroke="midnightblue" points="2984.34,-255.76 2992.53,-249.04 2981.94,-249.18 2984.34,-255.76"/>
</g>
<!-- Node49 -->
<g id="node45" class="node">
<title>Node49</title>
<g id="a_node45"><a xlink:title=" ">
<polygon fill="white" stroke="#bfbfbf" points="3056.5,-230 3056.5,-249 3115.5,-249 3115.5,-230 3056.5,-230"/>
<text text-anchor="middle" x="3086" y="-237" font-family="Helvetica,sans-Serif" font-size="10.00">QtDebug</text>
</a>
</g>
</g>
<!-- Node1&#45;&gt;Node49 -->
<g id="edge76" class="edge">
<title>Node1&#45;&gt;Node49</title>
<path fill="none" stroke="midnightblue" d="M2342.12,-298.33C2523.65,-294.52 2915.87,-283.21 3048,-255 3051.08,-254.34 3054.23,-253.48 3057.35,-252.49"/>
<polygon fill="midnightblue" stroke="midnightblue" points="3058.77,-255.7 3067.02,-249.06 3056.42,-249.11 3058.77,-255.7"/>
</g>
<!-- Node50 -->
<g id="node46" class="node">
<title>Node50</title>
<g id="a_node46"><a xlink:title=" ">
<polygon fill="white" stroke="#bfbfbf" points="3133.5,-230 3133.5,-249 3242.5,-249 3242.5,-230 3133.5,-230"/>
<text text-anchor="middle" x="3188" y="-237" font-family="Helvetica,sans-Serif" font-size="10.00">QXmlStreamWriter</text>
</a>
</g>
</g>
<!-- Node1&#45;&gt;Node50 -->
<g id="edge77" class="edge">
<title>Node1&#45;&gt;Node50</title>
<path fill="none" stroke="midnightblue" d="M2342.28,-300.55C2503.48,-300.29 2842.08,-294.51 3125,-255 3131.8,-254.05 3138.94,-252.73 3145.88,-251.26"/>
<polygon fill="midnightblue" stroke="midnightblue" points="3146.83,-254.64 3155.83,-249.05 3145.31,-247.81 3146.83,-254.64"/>
</g>
<!-- Node51 -->
<g id="node47" class="node">
<title>Node51</title>
<g id="a_node47"><a xlink:title=" ">
<polygon fill="white" stroke="#bfbfbf" points="3260.5,-230 3260.5,-249 3463.5,-249 3463.5,-230 3260.5,-230"/>
<text text-anchor="middle" x="3362" y="-237" font-family="Helvetica,sans-Serif" font-size="10.00">xercesc/parsers/XercesDOMParser.hpp</text>
</a>
</g>
</g>
<!-- Node1&#45;&gt;Node51 -->
<g id="edge78" class="edge">
<title>Node1&#45;&gt;Node51</title>
<path fill="none" stroke="midnightblue" d="M2342.3,-298.48C2520.4,-295.02 2918.29,-284.42 3252,-255 3265.82,-253.78 3280.57,-252.1 3294.63,-250.32"/>
<polygon fill="midnightblue" stroke="midnightblue" points="3295.26,-253.76 3304.73,-249 3294.36,-246.82 3295.26,-253.76"/>
</g>
<!-- Node52 -->
<g id="node48" class="node">
<title>Node52</title>
<g id="a_node48"><a xlink:title=" ">
<polygon fill="white" stroke="#bfbfbf" points="3482,-224.5 3482,-254.5 3636,-254.5 3636,-224.5 3482,-224.5"/>
<text text-anchor="start" x="3490" y="-242.5" font-family="Helvetica,sans-Serif" font-size="10.00">xercesc/framework/MemBuf</text>
<text text-anchor="middle" x="3559" y="-231.5" font-family="Helvetica,sans-Serif" font-size="10.00">InputSource.hpp</text>
</a>
</g>
</g>
<!-- Node1&#45;&gt;Node52 -->
<g id="edge79" class="edge">
<title>Node1&#45;&gt;Node52</title>
<path fill="none" stroke="midnightblue" d="M2342.04,-300.71C2546.1,-301.35 3044.88,-298.02 3471.64,-255.04"/>
<polygon fill="midnightblue" stroke="midnightblue" points="3472.11,-258.51 3481.71,-254.02 3471.41,-251.55 3472.11,-258.51"/>
</g>
<!-- Node53 -->
<g id="node49" class="node">
<title>Node53</title>
<g id="a_node49"><a xlink:title=" ">
<polygon fill="white" stroke="#bfbfbf" points="3654,-230 3654,-249 3812,-249 3812,-230 3654,-230"/>
<text text-anchor="middle" x="3733" y="-237" font-family="Helvetica,sans-Serif" font-size="10.00">xercesc/sax/ErrorHandler.hpp</text>
</a>
</g>
</g>
<!-- Node1&#45;&gt;Node53 -->
<g id="edge80" class="edge">
<title>Node1&#45;&gt;Node53</title>
<path fill="none" stroke="midnightblue" d="M2342.06,-298.58C2612.89,-294.23 3391.27,-279.88 3645,-255 3655.85,-253.94 3667.4,-252.36 3678.43,-250.63"/>
<polygon fill="midnightblue" stroke="midnightblue" points="3679.07,-254.07 3688.38,-249.02 3677.95,-247.17 3679.07,-254.07"/>
</g>
<!-- Node54 -->
<g id="node50" class="node">
<title>Node54</title>
<g id="a_node50"><a xlink:title=" ">
<polygon fill="white" stroke="#bfbfbf" points="3830,-230 3830,-249 4022,-249 4022,-230 3830,-230"/>
<text text-anchor="middle" x="3926" y="-237" font-family="Helvetica,sans-Serif" font-size="10.00">xercesc/sax/SAXParseException.hpp</text>
</a>
</g>
</g>
<!-- Node1&#45;&gt;Node54 -->
<g id="edge81" class="edge">
<title>Node1&#45;&gt;Node54</title>
<path fill="none" stroke="midnightblue" d="M2342.2,-298.65C2635.69,-294.23 3531.21,-279.08 3821,-255 3834.44,-253.88 3848.8,-252.22 3862.44,-250.41"/>
<polygon fill="midnightblue" stroke="midnightblue" points="3863.28,-253.83 3872.71,-249 3862.33,-246.89 3863.28,-253.83"/>
</g>
<!-- Node3 -->
<g id="node3" class="node">
<title>Node3</title>
<g id="a_node3"><a xlink:title=" ">
<polygon fill="white" stroke="#bfbfbf" points="1152.5,-112.5 1152.5,-131.5 1253.5,-131.5 1253.5,-112.5 1152.5,-112.5"/>
<text text-anchor="middle" x="1203" y="-119.5" font-family="Helvetica,sans-Serif" font-size="10.00">QCoreApplication</text>
</a>
</g>
</g>
<!-- Node2&#45;&gt;Node3 -->
<g id="edge2" class="edge">
<title>Node2&#45;&gt;Node3</title>
<path fill="none" stroke="midnightblue" d="M678.12,-172.21C784.25,-162.26 1028.08,-139.4 1142.12,-128.71"/>
<polygon fill="midnightblue" stroke="midnightblue" points="1142.78,-132.16 1152.41,-127.74 1142.13,-125.19 1142.78,-132.16"/>
</g>
<!-- Node4 -->
<g id="node4" class="node">
<title>Node4</title>
<g id="a_node4"><a xlink:title=" ">
<polygon fill="white" stroke="#bfbfbf" points="28,-112.5 28,-131.5 126,-131.5 126,-112.5 28,-112.5"/>
<text text-anchor="middle" x="77" y="-119.5" font-family="Helvetica,sans-Serif" font-size="10.00">QDomDocument</text>
</a>
</g>
</g>
<!-- Node2&#45;&gt;Node4 -->
<g id="edge3" class="edge">
<title>Node2&#45;&gt;Node4</title>
<path fill="none" stroke="midnightblue" d="M575.89,-173.39C488.12,-166.95 302.89,-152.35 135.97,-132.05"/>
<polygon fill="midnightblue" stroke="midnightblue" points="136.37,-128.57 126.02,-130.83 135.52,-135.52 136.37,-128.57"/>
</g>
<!-- Node5 -->
<g id="node5" class="node">
<title>Node5</title>
<g id="a_node5"><a xlink:title=" ">
<polygon fill="white" stroke="#bfbfbf" points="144,-112.5 144,-131.5 232,-131.5 232,-112.5 144,-112.5"/>
<text text-anchor="middle" x="188" y="-119.5" font-family="Helvetica,sans-Serif" font-size="10.00">QDomElement</text>
</a>
</g>
</g>
<!-- Node2&#45;&gt;Node5 -->
<g id="edge4" class="edge">
<title>Node2&#45;&gt;Node5</title>
<path fill="none" stroke="midnightblue" d="M575.69,-171.88C503.59,-164.49 367.94,-149.9 242.4,-132.14"/>
<polygon fill="midnightblue" stroke="midnightblue" points="242.61,-128.63 232.22,-130.69 241.63,-135.56 242.61,-128.63"/>
</g>
<!-- Node6 -->
<g id="node6" class="node">
<title>Node6</title>
<g id="a_node6"><a xlink:title=" ">
<polygon fill="white" stroke="#bfbfbf" points="250.5,-112.5 250.5,-131.5 323.5,-131.5 323.5,-112.5 250.5,-112.5"/>
<text text-anchor="middle" x="287" y="-119.5" font-family="Helvetica,sans-Serif" font-size="10.00">QDomNode</text>
</a>
</g>
</g>
<!-- Node2&#45;&gt;Node6 -->
<g id="edge5" class="edge">
<title>Node2&#45;&gt;Node6</title>
<path fill="none" stroke="midnightblue" d="M575.99,-169.95C519.15,-161.92 424.3,-148.05 333.7,-132.24"/>
<polygon fill="midnightblue" stroke="midnightblue" points="334.27,-128.79 323.81,-130.51 333.05,-135.68 334.27,-128.79"/>
</g>
<!-- Node7 -->
<g id="node7" class="node">
<title>Node7</title>
<g id="a_node7"><a xlink:title=" ">
<polygon fill="white" stroke="#bfbfbf" points="341.5,-112.5 341.5,-131.5 390.5,-131.5 390.5,-112.5 341.5,-112.5"/>
<text text-anchor="middle" x="366" y="-119.5" font-family="Helvetica,sans-Serif" font-size="10.00">QHash</text>
</a>
</g>
</g>
<!-- Node2&#45;&gt;Node7 -->
<g id="edge6" class="edge">
<title>Node2&#45;&gt;Node7</title>
<path fill="none" stroke="midnightblue" d="M578.3,-168.43C534.16,-160.43 467.12,-147.69 400.62,-132.27"/>
<polygon fill="midnightblue" stroke="midnightblue" points="401.35,-128.84 390.82,-129.97 399.76,-135.66 401.35,-128.84"/>
</g>
<!-- Node8 -->
<g id="node8" class="node">
<title>Node8</title>
<g id="a_node8"><a xlink:title=" ">
<polygon fill="white" stroke="#bfbfbf" points="408.5,-112.5 408.5,-131.5 491.5,-131.5 491.5,-112.5 408.5,-112.5"/>
<text text-anchor="middle" x="450" y="-119.5" font-family="Helvetica,sans-Serif" font-size="10.00">QLatin1String</text>
</a>
</g>
</g>
<!-- Node2&#45;&gt;Node8 -->
<g id="edge7" class="edge">
<title>Node2&#45;&gt;Node8</title>
<path fill="none" stroke="midnightblue" d="M598.95,-168.44C568.92,-159.28 521.09,-144.69 487.76,-134.52"/>
<polygon fill="midnightblue" stroke="midnightblue" points="488.5,-131.09 477.91,-131.52 486.46,-137.78 488.5,-131.09"/>
</g>
<!-- Node9 -->
<g id="node9" class="node">
<title>Node9</title>
<g id="a_node9"><a xlink:title=" ">
<polygon fill="white" stroke="#bfbfbf" points="1443.5,-0.5 1443.5,-19.5 1496.5,-19.5 1496.5,-0.5 1443.5,-0.5"/>
<text text-anchor="middle" x="1470" y="-7.5" font-family="Helvetica,sans-Serif" font-size="10.00">QString</text>
</a>
</g>
</g>
<!-- Node2&#45;&gt;Node9 -->
<g id="edge8" class="edge">
<title>Node2&#45;&gt;Node9</title>
<path fill="none" stroke="midnightblue" d="M678.28,-174.98C742.11,-171.29 853.85,-160.92 945,-132 963.57,-126.11 965.31,-117.5 984,-112 1139.52,-66.21 1191.76,-122.75 1347,-76 1357.26,-72.91 1412.41,-42.86 1445.28,-24.72"/>
<polygon fill="midnightblue" stroke="midnightblue" points="1447.24,-27.64 1454.3,-19.73 1443.85,-21.51 1447.24,-27.64"/>
</g>
<!-- Node10 -->
<g id="node10" class="node">
<title>Node10</title>
<g id="a_node10"><a xlink:title=" ">
<polygon fill="white" stroke="#bfbfbf" points="1073.5,-0.5 1073.5,-19.5 1132.5,-19.5 1132.5,-0.5 1073.5,-0.5"/>
<text text-anchor="middle" x="1103" y="-7.5" font-family="Helvetica,sans-Serif" font-size="10.00">QtGlobal</text>
</a>
</g>
</g>
<!-- Node2&#45;&gt;Node10 -->
<g id="edge9" class="edge">
<title>Node2&#45;&gt;Node10</title>
<path fill="none" stroke="midnightblue" d="M621.12,-168.37C612.68,-154.84 599.58,-128.46 613,-112 741.15,45.22 861.4,-61.22 1060,-20 1061.08,-19.78 1062.18,-19.55 1063.29,-19.32"/>
<polygon fill="midnightblue" stroke="midnightblue" points="1064.32,-22.68 1073.39,-17.21 1062.89,-15.82 1064.32,-22.68"/>
</g>
<!-- Node11 -->
<g id="node11" class="node">
<title>Node11</title>
<g id="a_node11"><a xlink:title=" ">
<polygon fill="white" stroke="#bfbfbf" points="510,-112.5 510,-131.5 566,-131.5 566,-112.5 510,-112.5"/>
<text text-anchor="middle" x="538" y="-119.5" font-family="Helvetica,sans-Serif" font-size="10.00">QLocale</text>
</a>
</g>
</g>
<!-- Node2&#45;&gt;Node11 -->
<g id="edge10" class="edge">
<title>Node2&#45;&gt;Node11</title>
<path fill="none" stroke="midnightblue" d="M612.7,-168.32C598.82,-159.9 577.51,-146.97 561.2,-137.07"/>
<polygon fill="midnightblue" stroke="midnightblue" points="562.63,-133.85 552.26,-131.65 559,-139.83 562.63,-133.85"/>
</g>
<!-- Node12 -->
<g id="node12" class="node">
<title>Node12</title>
<g id="a_node12"><a xlink:title=" ">
<polygon fill="white" stroke="#bfbfbf" points="622.5,-112.5 622.5,-131.5 699.5,-131.5 699.5,-112.5 622.5,-112.5"/>
<text text-anchor="middle" x="661" y="-119.5" font-family="Helvetica,sans-Serif" font-size="10.00">../ifc/ifcdef.h</text>
</a>
</g>
</g>
<!-- Node2&#45;&gt;Node12 -->
<g id="edge11" class="edge">
<title>Node2&#45;&gt;Node12</title>
<path fill="none" stroke="midnightblue" d="M632.61,-168.08C637.37,-160.53 644.32,-149.49 650.15,-140.23"/>
<polygon fill="midnightblue" stroke="midnightblue" points="653.12,-142.08 655.49,-131.75 647.2,-138.35 653.12,-142.08"/>
</g>
<!-- Node13 -->
<g id="node13" class="node">
<title>Node13</title>
<g id="a_node13"><a xlink:title=" ">
<polygon fill="white" stroke="#bfbfbf" points="718,-112.5 718,-131.5 800,-131.5 800,-112.5 718,-112.5"/>
<text text-anchor="middle" x="759" y="-119.5" font-family="Helvetica,sans-Serif" font-size="10.00">../vmisc/def.h</text>
</a>
</g>
</g>
<!-- Node2&#45;&gt;Node13 -->
<g id="edge12" class="edge">
<title>Node2&#45;&gt;Node13</title>
<path fill="none" stroke="midnightblue" d="M647.92,-168.44C669.74,-159.52 704.15,-145.44 728.89,-135.32"/>
<polygon fill="midnightblue" stroke="midnightblue" points="730.25,-138.54 738.18,-131.52 727.6,-132.06 730.25,-138.54"/>
</g>
<!-- Node14 -->
<g id="node14" class="node">
<title>Node14</title>
<g id="a_node14"><a xlink:title=" ">
<polygon fill="white" stroke="#bfbfbf" points="818.5,-112.5 818.5,-131.5 935.5,-131.5 935.5,-112.5 818.5,-112.5"/>
<text text-anchor="middle" x="877" y="-119.5" font-family="Helvetica,sans-Serif" font-size="10.00">../vmisc/diagnostic.h</text>
</a>
</g>
</g>
<!-- Node2&#45;&gt;Node14 -->
<g id="edge13" class="edge">
<title>Node2&#45;&gt;Node14</title>
<path fill="none" stroke="midnightblue" d="M666.61,-168.44C710.23,-159.02 780.4,-143.87 827.58,-133.68"/>
<polygon fill="midnightblue" stroke="midnightblue" points="828.54,-137.05 837.57,-131.52 827.06,-130.21 828.54,-137.05"/>
</g>
<!-- Node2&#45;&gt;Node15 -->
<g id="edge14" class="edge">
<title>Node2&#45;&gt;Node15</title>
<path fill="none" stroke="midnightblue" d="M678.17,-170.57C746.53,-161.95 871.42,-146.1 978,-132 979.47,-131.81 980.96,-131.61 982.46,-131.41"/>
<polygon fill="midnightblue" stroke="midnightblue" points="983.04,-134.86 992.48,-130.07 982.11,-127.92 983.04,-134.86"/>
</g>
<!-- Node19&#45;&gt;Node9 -->
<g id="edge20" class="edge">
<title>Node19&#45;&gt;Node9</title>
<path fill="none" stroke="midnightblue" d="M1392.45,-230C1410.75,-222.07 1435.14,-208.38 1448,-188 1479.62,-137.88 1476.26,-63.79 1472.55,-29.57"/>
<polygon fill="midnightblue" stroke="midnightblue" points="1476.01,-29.08 1471.33,-19.58 1469.07,-29.93 1476.01,-29.08"/>
</g>
<!-- Node19&#45;&gt;Node10 -->
<g id="edge21" class="edge">
<title>Node19&#45;&gt;Node10</title>
<path fill="none" stroke="midnightblue" d="M1364.69,-229.92C1352.42,-206.52 1314.86,-141.37 1263,-112 1174.12,-61.66 1102.33,-153.68 1036,-76 1019.48,-56.66 1048.4,-36.6 1073.25,-23.98"/>
<polygon fill="midnightblue" stroke="midnightblue" points="1074.99,-27.02 1082.47,-19.52 1071.95,-20.72 1074.99,-27.02"/>
</g>
<!-- Node19&#45;&gt;Node16 -->
<g id="edge19" class="edge">
<title>Node19&#45;&gt;Node16</title>
<path fill="none" stroke="midnightblue" d="M1423.5,-229.97C1505.98,-216.95 1654.14,-193.09 1665,-188 1734.36,-155.5 1746.21,-134.21 1796,-76 1808.49,-61.4 1819.67,-42.48 1827.01,-28.82"/>
<polygon fill="midnightblue" stroke="midnightblue" points="1830.32,-30.05 1831.83,-19.56 1824.11,-26.81 1830.32,-30.05"/>
</g>
<!-- Node19&#45;&gt;Node20 -->
<g id="edge22" class="edge">
<title>Node19&#45;&gt;Node20</title>
<path fill="none" stroke="midnightblue" d="M1366.9,-229.82C1362.38,-211.17 1351.65,-166.94 1345.52,-141.63"/>
<polygon fill="midnightblue" stroke="midnightblue" points="1348.89,-140.68 1343.13,-131.78 1342.08,-142.33 1348.89,-140.68"/>
</g>
<!-- Node19&#45;&gt;Node32 -->
<g id="edge37" class="edge">
<title>Node19&#45;&gt;Node32</title>
<path fill="none" stroke="midnightblue" d="M1404.39,-229.98C1448.23,-219.42 1522.97,-201.41 1570.88,-189.87"/>
<polygon fill="midnightblue" stroke="midnightblue" points="1571.77,-193.25 1580.68,-187.51 1570.13,-186.45 1571.77,-193.25"/>
</g>
<!-- Node20&#45;&gt;Node9 -->
<g id="edge23" class="edge">
<title>Node20&#45;&gt;Node9</title>
<path fill="none" stroke="midnightblue" d="M1351.12,-112.37C1372.98,-93.73 1424.81,-49.53 1452.25,-26.13"/>
<polygon fill="midnightblue" stroke="midnightblue" points="1454.59,-28.74 1459.92,-19.59 1450.04,-23.42 1454.59,-28.74"/>
</g>
<!-- Node20&#45;&gt;Node10 -->
<g id="edge25" class="edge">
<title>Node20&#45;&gt;Node10</title>
<path fill="none" stroke="midnightblue" d="M1312.14,-112.49C1285.99,-104.39 1246.67,-91.19 1214,-76 1181.57,-60.93 1146.28,-39.28 1124.4,-25.18"/>
<polygon fill="midnightblue" stroke="midnightblue" points="1126.18,-22.16 1115.89,-19.64 1122.36,-28.03 1126.18,-22.16"/>
</g>
<!-- Node20&#45;&gt;Node21 -->
<g id="edge24" class="edge">
<title>Node20&#45;&gt;Node21</title>
<path fill="none" stroke="midnightblue" d="M1309.92,-117.32C1234.35,-108.24 1046.37,-84.9 1036,-76 1022.72,-64.6 1018.11,-44.61 1016.59,-29.8"/>
<polygon fill="midnightblue" stroke="midnightblue" points="1020.07,-29.46 1015.93,-19.71 1013.09,-29.92 1020.07,-29.46"/>
</g>
<!-- Node22 -->
<g id="node22" class="node">
<title>Node22</title>
<g id="a_node22"><a xlink:href="../../d4/da4/def_8h.html" target="_top" xlink:title=" ">
<polygon fill="white" stroke="red" points="1256,-56.5 1256,-75.5 1338,-75.5 1338,-56.5 1256,-56.5"/>
<text text-anchor="middle" x="1297" y="-63.5" font-family="Helvetica,sans-Serif" font-size="10.00">../vmisc/def.h</text>
</a>
</g>
</g>
<!-- Node20&#45;&gt;Node22 -->
<g id="edge26" class="edge">
<title>Node20&#45;&gt;Node22</title>
<path fill="none" stroke="midnightblue" d="M1333.73,-112.08C1327.46,-104.38 1318.21,-93.03 1310.57,-83.65"/>
<polygon fill="midnightblue" stroke="midnightblue" points="1313.16,-81.29 1304.13,-75.75 1307.73,-85.71 1313.16,-81.29"/>
</g>
<!-- Node31 -->
<g id="node27" class="node">
<title>Node31</title>
<g id="a_node27"><a xlink:href="../../d6/dcd/diagnostic_8h.html" target="_top" xlink:title=" ">
<polygon fill="white" stroke="black" points="1044.5,-56.5 1044.5,-75.5 1161.5,-75.5 1161.5,-56.5 1044.5,-56.5"/>
<text text-anchor="middle" x="1103" y="-63.5" font-family="Helvetica,sans-Serif" font-size="10.00">../vmisc/diagnostic.h</text>
</a>
</g>
</g>
<!-- Node20&#45;&gt;Node31 -->
<g id="edge35" class="edge">
<title>Node20&#45;&gt;Node31</title>
<path fill="none" stroke="midnightblue" d="M1309.89,-113.94C1269.39,-104.75 1198.2,-88.6 1150.82,-77.85"/>
<polygon fill="midnightblue" stroke="midnightblue" points="1151.32,-74.38 1140.8,-75.58 1149.78,-81.2 1151.32,-74.38"/>
</g>
<!-- Node22&#45;&gt;Node9 -->
<g id="edge30" class="edge">
<title>Node22&#45;&gt;Node9</title>
<path fill="none" stroke="midnightblue" d="M1324.41,-56.44C1353.94,-47.23 1401.07,-32.52 1433.67,-22.34"/>
<polygon fill="midnightblue" stroke="midnightblue" points="1434.78,-25.66 1443.28,-19.34 1432.7,-18.98 1434.78,-25.66"/>
</g>
<!-- Node22&#45;&gt;Node10 -->
<g id="edge33" class="edge">
<title>Node22&#45;&gt;Node10</title>
<path fill="none" stroke="midnightblue" d="M1266.26,-56.44C1232.76,-47.12 1179.07,-32.17 1142.48,-21.99"/>
<polygon fill="midnightblue" stroke="midnightblue" points="1143.21,-18.56 1132.64,-19.25 1141.34,-25.3 1143.21,-18.56"/>
</g>
<!-- Node22&#45;&gt;Node16 -->
<g id="edge27" class="edge">
<title>Node22&#45;&gt;Node16</title>
<path fill="none" stroke="midnightblue" d="M1338.4,-60.85C1430.29,-51.65 1652.12,-29.42 1765.99,-18.01"/>
<polygon fill="midnightblue" stroke="midnightblue" points="1766.4,-21.49 1776,-17.01 1765.7,-14.53 1766.4,-21.49"/>
</g>
<!-- Node22&#45;&gt;Node21 -->
<g id="edge31" class="edge">
<title>Node22&#45;&gt;Node21</title>
<path fill="none" stroke="midnightblue" d="M1255.84,-57.09C1203.85,-47.1 1114.72,-29.97 1060.98,-19.64"/>
<polygon fill="midnightblue" stroke="midnightblue" points="1061.54,-16.19 1051.05,-17.74 1060.21,-23.06 1061.54,-16.19"/>
</g>
<!-- Node23 -->
<g id="node23" class="node">
<title>Node23</title>
<g id="a_node23"><a xlink:title=" ">
<polygon fill="white" stroke="#bfbfbf" points="1231.5,-0.5 1231.5,-19.5 1304.5,-19.5 1304.5,-0.5 1231.5,-0.5"/>
<text text-anchor="middle" x="1268" y="-7.5" font-family="Helvetica,sans-Serif" font-size="10.00">QFileDialog</text>
</a>
</g>
</g>
<!-- Node22&#45;&gt;Node23 -->
<g id="edge28" class="edge">
<title>Node22&#45;&gt;Node23</title>
<path fill="none" stroke="midnightblue" d="M1292.21,-56.08C1288.24,-48.69 1282.47,-37.95 1277.57,-28.81"/>
<polygon fill="midnightblue" stroke="midnightblue" points="1280.51,-26.91 1272.7,-19.75 1274.35,-30.22 1280.51,-26.91"/>
</g>
<!-- Node24 -->
<g id="node24" class="node">
<title>Node24</title>
<g id="a_node24"><a xlink:title=" ">
<polygon fill="white" stroke="#bfbfbf" points="1323,-0.5 1323,-19.5 1373,-19.5 1373,-0.5 1323,-0.5"/>
<text text-anchor="middle" x="1348" y="-7.5" font-family="Helvetica,sans-Serif" font-size="10.00">QLineF</text>
</a>
</g>
</g>
<!-- Node22&#45;&gt;Node24 -->
<g id="edge29" class="edge">
<title>Node22&#45;&gt;Node24</title>
<path fill="none" stroke="midnightblue" d="M1305.42,-56.08C1312.85,-48.22 1323.85,-36.57 1332.81,-27.08"/>
<polygon fill="midnightblue" stroke="midnightblue" points="1335.41,-29.42 1339.74,-19.75 1330.32,-24.62 1335.41,-29.42"/>
</g>
<!-- Node25 -->
<g id="node25" class="node">
<title>Node25</title>
<g id="a_node25"><a xlink:title=" ">
<polygon fill="white" stroke="#bfbfbf" points="1391.5,-0.5 1391.5,-19.5 1420.5,-19.5 1420.5,-0.5 1391.5,-0.5"/>
<text text-anchor="middle" x="1406" y="-7.5" font-family="Helvetica,sans-Serif" font-size="10.00">Qt</text>
</a>
</g>
</g>
<!-- Node22&#45;&gt;Node25 -->
<g id="edge32" class="edge">
<title>Node22&#45;&gt;Node25</title>
<path fill="none" stroke="midnightblue" d="M1314.51,-56.32C1332.9,-47.21 1361.93,-32.83 1382.35,-22.72"/>
<polygon fill="midnightblue" stroke="midnightblue" points="1383.92,-25.85 1391.33,-18.27 1380.81,-19.57 1383.92,-25.85"/>
</g>
<!-- Node26 -->
<g id="node26" class="node">
<title>Node26</title>
<g id="a_node26"><a xlink:title=" ">
<polygon fill="white" stroke="#bfbfbf" points="1157,-0.5 1157,-19.5 1213,-19.5 1213,-0.5 1157,-0.5"/>
<text text-anchor="middle" x="1185" y="-7.5" font-family="Helvetica,sans-Serif" font-size="10.00">QPrinter</text>
</a>
</g>
</g>
<!-- Node22&#45;&gt;Node26 -->
<g id="edge34" class="edge">
<title>Node22&#45;&gt;Node26</title>
<path fill="none" stroke="midnightblue" d="M1279.01,-56.32C1260.96,-47.62 1232.95,-34.12 1212.2,-24.11"/>
<polygon fill="midnightblue" stroke="midnightblue" points="1213.48,-20.84 1202.95,-19.65 1210.44,-27.15 1213.48,-20.84"/>
</g>
<!-- Node31&#45;&gt;Node10 -->
<g id="edge36" class="edge">
<title>Node31&#45;&gt;Node10</title>
<path fill="none" stroke="midnightblue" d="M1103,-56.08C1103,-49.01 1103,-38.86 1103,-29.99"/>
<polygon fill="midnightblue" stroke="midnightblue" points="1106.5,-29.75 1103,-19.75 1099.5,-29.75 1106.5,-29.75"/>
</g>
<!-- Node32&#45;&gt;Node3 -->
<g id="edge39" class="edge">
<title>Node32&#45;&gt;Node3</title>
<path fill="none" stroke="midnightblue" d="M1575.65,-171.72C1502.9,-162.21 1349.38,-142.14 1263.83,-130.95"/>
<polygon fill="midnightblue" stroke="midnightblue" points="1264.11,-127.46 1253.74,-129.63 1263.21,-134.4 1264.11,-127.46"/>
</g>
<!-- Node32&#45;&gt;Node9 -->
<g id="edge41" class="edge">
<title>Node32&#45;&gt;Node9</title>
<path fill="none" stroke="midnightblue" d="M1611.36,-168.36C1599.86,-147.44 1568.32,-93.09 1532,-56 1520.39,-44.15 1505.38,-33.16 1493.03,-25.01"/>
<polygon fill="midnightblue" stroke="midnightblue" points="1494.91,-22.06 1484.6,-19.61 1491.13,-27.95 1494.91,-22.06"/>
</g>
<!-- Node32&#45;&gt;Node16 -->
<g id="edge38" class="edge">
<title>Node32&#45;&gt;Node16</title>
<path fill="none" stroke="midnightblue" d="M1636.19,-168.38C1654.39,-160.2 1681.5,-146.95 1703,-132 1749.74,-99.49 1797.39,-51.89 1820.93,-27.2"/>
<polygon fill="midnightblue" stroke="midnightblue" points="1823.63,-29.43 1827.95,-19.76 1818.54,-24.63 1823.63,-29.43"/>
</g>
<!-- Node32&#45;&gt;Node20 -->
<g id="edge42" class="edge">
<title>Node32&#45;&gt;Node20</title>
<path fill="none" stroke="midnightblue" d="M1575.72,-169.09C1523.83,-158.9 1434.12,-141.29 1381.92,-131.04"/>
<polygon fill="midnightblue" stroke="midnightblue" points="1382.49,-127.58 1372.01,-129.09 1381.14,-134.45 1382.49,-127.58"/>
</g>
<!-- Node33 -->
<g id="node29" class="node">
<title>Node33</title>
<g id="a_node29"><a xlink:title=" ">
<polygon fill="white" stroke="#bfbfbf" points="1622,-112.5 1622,-131.5 1694,-131.5 1694,-112.5 1622,-112.5"/>
<text text-anchor="middle" x="1658" y="-119.5" font-family="Helvetica,sans-Serif" font-size="10.00">QException</text>
</a>
</g>
</g>
<!-- Node32&#45;&gt;Node33 -->
<g id="edge40" class="edge">
<title>Node32&#45;&gt;Node33</title>
<path fill="none" stroke="midnightblue" d="M1622.94,-168.08C1628.93,-160.38 1637.75,-149.03 1645.05,-139.65"/>
<polygon fill="midnightblue" stroke="midnightblue" points="1647.82,-141.79 1651.19,-131.75 1642.29,-137.5 1647.82,-141.79"/>
</g>
<!-- Node34&#45;&gt;Node9 -->
<g id="edge45" class="edge">
<title>Node34&#45;&gt;Node9</title>
<path fill="none" stroke="midnightblue" d="M1573.9,-229.86C1557.99,-196.36 1500.2,-74.62 1478.4,-28.7"/>
<polygon fill="midnightblue" stroke="midnightblue" points="1481.56,-27.18 1474.11,-19.65 1475.23,-30.18 1481.56,-27.18"/>
</g>
<!-- Node34&#45;&gt;Node16 -->
<g id="edge44" class="edge">
<title>Node34&#45;&gt;Node16</title>
<path fill="none" stroke="midnightblue" d="M1649.46,-229.98C1725.67,-220.16 1837.2,-203.4 1850,-188 1888.22,-142.03 1860.5,-64.13 1844.81,-29.06"/>
<polygon fill="midnightblue" stroke="midnightblue" points="1847.81,-27.22 1840.41,-19.63 1841.47,-30.18 1847.81,-27.22"/>
</g>
<!-- Node34&#45;&gt;Node20 -->
<g id="edge46" class="edge">
<title>Node34&#45;&gt;Node20</title>
<path fill="none" stroke="midnightblue" d="M1560.19,-229.82C1518.91,-209.7 1416.53,-159.81 1367.71,-136.02"/>
<polygon fill="midnightblue" stroke="midnightblue" points="1369.22,-132.86 1358.7,-131.62 1366.15,-139.15 1369.22,-132.86"/>
</g>
<!-- Node34&#45;&gt;Node32 -->
<g id="edge47" class="edge">
<title>Node34&#45;&gt;Node32</title>
<path fill="none" stroke="midnightblue" d="M1583.44,-229.98C1589.09,-221.14 1598.06,-207.09 1605.16,-195.98"/>
<polygon fill="midnightblue" stroke="midnightblue" points="1608.13,-197.82 1610.57,-187.51 1602.23,-194.05 1608.13,-197.82"/>
</g>
<!-- Node35&#45;&gt;Node9 -->
<g id="edge50" class="edge">
<title>Node35&#45;&gt;Node9</title>
<path fill="none" stroke="midnightblue" d="M1185.73,-229.98C1231,-215.5 1320.05,-182.63 1381,-132 1417.13,-101.99 1446.47,-54.32 1460.69,-28.69"/>
<polygon fill="midnightblue" stroke="midnightblue" points="1463.86,-30.2 1465.54,-19.74 1457.7,-26.87 1463.86,-30.2"/>
</g>
<!-- Node35&#45;&gt;Node10 -->
<g id="edge51" class="edge">
<title>Node35&#45;&gt;Node10</title>
<path fill="none" stroke="midnightblue" d="M1156.09,-229.91C1153.2,-207.05 1142.1,-144.24 1105,-112 1056.18,-69.58 1003.68,-127.08 964,-76 958.55,-68.98 958.77,-63.19 964,-56 970.06,-47.67 1024.42,-31.78 1063.33,-21.29"/>
<polygon fill="midnightblue" stroke="midnightblue" points="1064.59,-24.58 1073.34,-18.62 1062.78,-17.82 1064.59,-24.58"/>
</g>
<!-- Node35&#45;&gt;Node16 -->
<g id="edge49" class="edge">
<title>Node35&#45;&gt;Node16</title>
<path fill="none" stroke="midnightblue" d="M1186.37,-230C1219.81,-220.23 1276.02,-203.54 1324,-188 1505.69,-129.15 1721.29,-52.29 1802.68,-23.03"/>
<polygon fill="midnightblue" stroke="midnightblue" points="1804.15,-26.22 1812.38,-19.54 1801.78,-19.63 1804.15,-26.22"/>
</g>
<!-- Node35&#45;&gt;Node20 -->
<g id="edge52" class="edge">
<title>Node35&#45;&gt;Node20</title>
<path fill="none" stroke="midnightblue" d="M1170.83,-229.82C1202.4,-210 1280,-161.29 1318.54,-137.1"/>
<polygon fill="midnightblue" stroke="midnightblue" points="1320.4,-140.06 1327.01,-131.78 1316.68,-134.13 1320.4,-140.06"/>
</g>
<!-- Node35&#45;&gt;Node32 -->
<g id="edge53" class="edge">
<title>Node35&#45;&gt;Node32</title>
<path fill="none" stroke="midnightblue" d="M1222.76,-229.98C1315.45,-217.96 1482.48,-196.31 1565.84,-185.5"/>
<polygon fill="midnightblue" stroke="midnightblue" points="1566.35,-188.96 1575.82,-184.21 1565.45,-182.02 1566.35,-188.96"/>
</g>
<!-- Node36&#45;&gt;Node9 -->
<g id="edge56" class="edge">
<title>Node36&#45;&gt;Node9</title>
<path fill="none" stroke="midnightblue" d="M1827.65,-229.8C1815.93,-207.2 1781.48,-146.02 1736,-112 1664.28,-58.35 1560.72,-30.03 1506.4,-18.07"/>
<polygon fill="midnightblue" stroke="midnightblue" points="1507.04,-14.63 1496.53,-15.96 1505.58,-21.48 1507.04,-14.63"/>
</g>
<!-- Node36&#45;&gt;Node10 -->
<g id="edge57" class="edge">
<title>Node36&#45;&gt;Node10</title>
<path fill="none" stroke="midnightblue" d="M1823.96,-229.96C1798.16,-202.68 1718.27,-118.95 1703,-112 1517.97,-27.77 1442.29,-132.5 1247,-76 1228.67,-70.7 1226.24,-64.18 1209,-56 1184.21,-44.24 1155.53,-32.15 1134.26,-23.47"/>
<polygon fill="midnightblue" stroke="midnightblue" points="1135.33,-20.13 1124.75,-19.62 1132.7,-26.62 1135.33,-20.13"/>
</g>
<!-- Node36&#45;&gt;Node16 -->
<g id="edge55" class="edge">
<title>Node36&#45;&gt;Node16</title>
<path fill="none" stroke="midnightblue" d="M1847.16,-229.95C1860.72,-221.33 1879.7,-206.66 1888,-188 1911.84,-134.4 1912.39,-109.36 1888,-56 1882.22,-43.36 1870.95,-32.91 1860.37,-25.27"/>
<polygon fill="midnightblue" stroke="midnightblue" points="1862.04,-22.18 1851.78,-19.53 1858.15,-28 1862.04,-22.18"/>
</g>
<!-- Node36&#45;&gt;Node20 -->
<g id="edge58" class="edge">
<title>Node36&#45;&gt;Node20</title>
<path fill="none" stroke="midnightblue" d="M1809.91,-229.88C1785.01,-220.07 1743.37,-203.42 1708,-188 1688.68,-179.58 1685.22,-173.96 1665,-168 1566.13,-138.85 1444.59,-128.42 1382.23,-124.81"/>
<polygon fill="midnightblue" stroke="midnightblue" points="1382.19,-121.3 1372.01,-124.25 1381.81,-128.29 1382.19,-121.3"/>
</g>
<!-- Node36&#45;&gt;Node32 -->
<g id="edge59" class="edge">
<title>Node36&#45;&gt;Node32</title>
<path fill="none" stroke="midnightblue" d="M1801.05,-229.98C1763.12,-219.53 1698.72,-201.79 1656.78,-190.23"/>
<polygon fill="midnightblue" stroke="midnightblue" points="1657.46,-186.79 1646.89,-187.51 1655.6,-193.54 1657.46,-186.79"/>
</g>
</g>
</svg>
