<?xml version="1.0" encoding="UTF-8" standalone="no"?>
<!DOCTYPE svg PUBLIC "-//W3C//DTD SVG 1.1//EN"
 "http://www.w3.org/Graphics/SVG/1.1/DTD/svg11.dtd">
<!-- Generated by graphviz version 2.43.0 (0)
 -->
<!-- Title: src/libs/ifc/xml/vabstractpattern.h Pages: 1 -->
<!--zoomable 162 -->
<svg id="main" version="1.1" xmlns="http://www.w3.org/2000/svg" xmlns:xlink="http://www.w3.org/1999/xlink" xml:space="preserve" onload="init(evt)">
<style type="text/css"><![CDATA[
.edge:hover path { stroke: red; }
.edge:hover polygon { stroke: red; fill: red; }
]]></style>
<script type="text/javascript"><![CDATA[
var edges = document.getElementsByTagName('g');
if (edges && edges.length) {
  for (var i=0;i<edges.length;i++) {
    if (edges[i].id.substr(0,4)=='edge') {
      edges[i].setAttribute('class','edge');
    }
  }
}
]]></script>
        <defs>
                <circle id="rim" cx="0" cy="0" r="7"/>
                <circle id="rim2" cx="0" cy="0" r="3.5"/>
                <g id="zoomPlus">
                        <use xlink:href="#rim" fill="#404040">
                                <set attributeName="fill" to="#808080" begin="zoomplus.mouseover" end="zoomplus.mouseout"/>
                        </use>
                        <path d="M-4,0h8M0,-4v8" fill="none" stroke="white" stroke-width="1.5" pointer-events="none"/>
                </g>
                <g id="zoomMin">
                        <use xlink:href="#rim" fill="#404040">
                                <set attributeName="fill" to="#808080" begin="zoomminus.mouseover" end="zoomminus.mouseout"/>
                        </use>
                        <path d="M-4,0h8" fill="none" stroke="white" stroke-width="1.5" pointer-events="none"/>
                </g>
                <g id="dirArrow">
                        <path fill="none" stroke="white" stroke-width="1.5" d="M0,-3.0v7 M-2.5,-0.5L0,-3.0L2.5,-0.5"/>
                </g>
               <g id="resetDef">
                       <use xlink:href="#rim2" fill="#404040">
                               <set attributeName="fill" to="#808080" begin="reset.mouseover" end="reset.mouseout"/>
                       </use>
               </g>
        </defs>

<script type="text/javascript">
var viewWidth = 2254;
var viewHeight = 162;
var sectionId = 'dynsection-0';
</script>
<script xlink:href="../../svgpan.js"/>
<svg id="graph" class="graph">
<g id="viewport">
<title>src/libs/ifc/xml/vabstractpattern.h</title>
<polygon fill="white" stroke="transparent" points="-4,4 -4,-158 2250,-158 2250,4 -4,4"/>
<!-- Node1 -->
<g id="node1" class="node">
<title>Node1</title>
<g id="a_node1"><a xlink:title=" ">
<polygon fill="#bfbfbf" stroke="black" points="1264,-134.5 1264,-153.5 1445,-153.5 1445,-134.5 1264,-134.5"/>
<text text-anchor="middle" x="1354.5" y="-141.5" font-family="Helvetica,sans-Serif" font-size="10.00">src/libs/ifc/xml/vabstractpattern.h</text>
</a>
</g>
</g>
<!-- Node2 -->
<g id="node2" class="node">
<title>Node2</title>
<g id="a_node2"><a xlink:title=" ">
<polygon fill="white" stroke="#bfbfbf" points="1274.5,-6 1274.5,-25 1394.5,-25 1394.5,-6 1274.5,-6"/>
<text text-anchor="middle" x="1334.5" y="-13" font-family="Helvetica,sans-Serif" font-size="10.00">qcompilerdetection.h</text>
</a>
</g>
</g>
<!-- Node1&#45;&gt;Node2 -->
<g id="edge1" class="edge">
<title>Node1&#45;&gt;Node2</title>
<path fill="none" stroke="midnightblue" d="M1351.1,-134.19C1347.8,-125.22 1342.94,-110.86 1340.5,-98 1336.46,-76.71 1335.1,-51.81 1334.67,-35.19"/>
<polygon fill="midnightblue" stroke="midnightblue" points="1338.17,-35.09 1334.49,-25.15 1331.17,-35.21 1338.17,-35.09"/>
</g>
<!-- Node3 -->
<g id="node3" class="node">
<title>Node3</title>
<g id="a_node3"><a xlink:title=" ">
<polygon fill="white" stroke="#bfbfbf" points="148,-6 148,-25 197,-25 197,-6 148,-6"/>
<text text-anchor="middle" x="172.5" y="-13" font-family="Helvetica,sans-Serif" font-size="10.00">QHash</text>
</a>
</g>
</g>
<!-- Node1&#45;&gt;Node3 -->
<g id="edge2" class="edge">
<title>Node1&#45;&gt;Node3</title>
<path fill="none" stroke="midnightblue" d="M1263.81,-140.34C1085.81,-134.72 696.58,-120.26 564.5,-98 514.84,-89.63 504.76,-77.5 455.5,-67 345.71,-43.59 313.43,-61.86 205.5,-31 203.35,-30.38 201.16,-29.66 198.97,-28.86"/>
<polygon fill="midnightblue" stroke="midnightblue" points="200.22,-25.6 189.64,-25.08 197.59,-32.08 200.22,-25.6"/>
</g>
<!-- Node4 -->
<g id="node4" class="node">
<title>Node4</title>
<g id="a_node4"><a xlink:title=" ">
<polygon fill="white" stroke="#bfbfbf" points="1537,-73 1537,-92 1582,-92 1582,-73 1537,-73"/>
<text text-anchor="middle" x="1559.5" y="-80" font-family="Helvetica,sans-Serif" font-size="10.00">QMap</text>
</a>
</g>
</g>
<!-- Node1&#45;&gt;Node4 -->
<g id="edge3" class="edge">
<title>Node1&#45;&gt;Node4</title>
<path fill="none" stroke="midnightblue" d="M1395.29,-134.46C1430.72,-126.56 1483.17,-113.68 1527.5,-98 1529.16,-97.41 1530.85,-96.77 1532.55,-96.1"/>
<polygon fill="midnightblue" stroke="midnightblue" points="1534.29,-99.17 1542.12,-92.03 1531.54,-92.73 1534.29,-99.17"/>
</g>
<!-- Node5 -->
<g id="node5" class="node">
<title>Node5</title>
<g id="a_node5"><a xlink:title=" ">
<polygon fill="white" stroke="#bfbfbf" points="1412.5,-6 1412.5,-25 1492.5,-25 1492.5,-6 1412.5,-6"/>
<text text-anchor="middle" x="1452.5" y="-13" font-family="Helvetica,sans-Serif" font-size="10.00">QMetaObject</text>
</a>
</g>
</g>
<!-- Node1&#45;&gt;Node5 -->
<g id="edge4" class="edge">
<title>Node1&#45;&gt;Node5</title>
<path fill="none" stroke="midnightblue" d="M1355.4,-134.18C1357.32,-119.08 1362.99,-87.88 1378.5,-67 1390.33,-51.08 1408.74,-38.49 1424.23,-29.86"/>
<polygon fill="midnightblue" stroke="midnightblue" points="1426.21,-32.77 1433.42,-25.01 1422.94,-26.58 1426.21,-32.77"/>
</g>
<!-- Node6 -->
<g id="node6" class="node">
<title>Node6</title>
<g id="a_node6"><a xlink:title=" ">
<polygon fill="white" stroke="#bfbfbf" points="1600.5,-73 1600.5,-92 1656.5,-92 1656.5,-73 1600.5,-73"/>
<text text-anchor="middle" x="1628.5" y="-80" font-family="Helvetica,sans-Serif" font-size="10.00">QObject</text>
</a>
</g>
</g>
<!-- Node1&#45;&gt;Node6 -->
<g id="edge5" class="edge">
<title>Node1&#45;&gt;Node6</title>
<path fill="none" stroke="midnightblue" d="M1416.62,-134.44C1464.86,-127.02 1533.15,-114.82 1591.5,-98 1594.08,-97.26 1596.74,-96.4 1599.38,-95.49"/>
<polygon fill="midnightblue" stroke="midnightblue" points="1600.6,-98.77 1608.76,-92.02 1598.17,-92.21 1600.6,-98.77"/>
</g>
<!-- Node7 -->
<g id="node7" class="node">
<title>Node7</title>
<g id="a_node7"><a xlink:title=" ">
<polygon fill="white" stroke="#bfbfbf" points="1674.5,-73 1674.5,-92 1716.5,-92 1716.5,-73 1674.5,-73"/>
<text text-anchor="middle" x="1695.5" y="-80" font-family="Helvetica,sans-Serif" font-size="10.00">QPair</text>
</a>
</g>
</g>
<!-- Node1&#45;&gt;Node7 -->
<g id="edge6" class="edge">
<title>Node1&#45;&gt;Node7</title>
<path fill="none" stroke="midnightblue" d="M1445.25,-137.24C1508.15,-131.47 1593.25,-120.11 1665.5,-98 1667.17,-97.49 1668.87,-96.89 1670.56,-96.25"/>
<polygon fill="midnightblue" stroke="midnightblue" points="1672.23,-99.33 1679.99,-92.11 1669.42,-92.92 1672.23,-99.33"/>
</g>
<!-- Node8 -->
<g id="node8" class="node">
<title>Node8</title>
<g id="a_node8"><a xlink:title=" ">
<polygon fill="white" stroke="#bfbfbf" points="77,-6 77,-25 130,-25 130,-6 77,-6"/>
<text text-anchor="middle" x="103.5" y="-13" font-family="Helvetica,sans-Serif" font-size="10.00">QString</text>
</a>
</g>
</g>
<!-- Node1&#45;&gt;Node8 -->
<g id="edge7" class="edge">
<title>Node1&#45;&gt;Node8</title>
<path fill="none" stroke="midnightblue" d="M1263.88,-140.75C1067.78,-135.52 609.35,-121.16 455.5,-98 400.18,-89.67 388.15,-78.97 333.5,-67 247.41,-48.14 223.01,-56 138.5,-31 136.21,-30.32 133.87,-29.55 131.53,-28.71"/>
<polygon fill="midnightblue" stroke="midnightblue" points="132.72,-25.42 122.13,-25.07 130.19,-31.94 132.72,-25.42"/>
</g>
<!-- Node9 -->
<g id="node9" class="node">
<title>Node9</title>
<g id="a_node9"><a xlink:title=" ">
<polygon fill="white" stroke="#bfbfbf" points="1734.5,-73 1734.5,-92 1804.5,-92 1804.5,-73 1734.5,-73"/>
<text text-anchor="middle" x="1769.5" y="-80" font-family="Helvetica,sans-Serif" font-size="10.00">QStringList</text>
</a>
</g>
</g>
<!-- Node1&#45;&gt;Node9 -->
<g id="edge8" class="edge">
<title>Node1&#45;&gt;Node9</title>
<path fill="none" stroke="midnightblue" d="M1445.31,-137.02C1520.95,-130.84 1631.15,-119.05 1725.5,-98 1729.17,-97.18 1732.97,-96.18 1736.72,-95.08"/>
<polygon fill="midnightblue" stroke="midnightblue" points="1737.95,-98.37 1746.45,-92.05 1735.86,-91.69 1737.95,-98.37"/>
</g>
<!-- Node10 -->
<g id="node10" class="node">
<title>Node10</title>
<g id="a_node10"><a xlink:title=" ">
<polygon fill="white" stroke="#bfbfbf" points="1511,-6 1511,-25 1566,-25 1566,-6 1511,-6"/>
<text text-anchor="middle" x="1538.5" y="-13" font-family="Helvetica,sans-Serif" font-size="10.00">QVector</text>
</a>
</g>
</g>
<!-- Node1&#45;&gt;Node10 -->
<g id="edge9" class="edge">
<title>Node1&#45;&gt;Node10</title>
<path fill="none" stroke="midnightblue" d="M1358.95,-134.25C1367.27,-118.68 1386.61,-86.04 1411.5,-67 1412.52,-66.22 1470.18,-43.42 1507.45,-28.73"/>
<polygon fill="midnightblue" stroke="midnightblue" points="1508.88,-31.93 1516.9,-25 1506.31,-25.42 1508.88,-31.93"/>
</g>
<!-- Node11 -->
<g id="node11" class="node">
<title>Node11</title>
<g id="a_node11"><a xlink:title=" ">
<polygon fill="white" stroke="#bfbfbf" points="0,-6 0,-25 59,-25 59,-6 0,-6"/>
<text text-anchor="middle" x="29.5" y="-13" font-family="Helvetica,sans-Serif" font-size="10.00">QtGlobal</text>
</a>
</g>
</g>
<!-- Node1&#45;&gt;Node11 -->
<g id="edge10" class="edge">
<title>Node1&#45;&gt;Node11</title>
<path fill="none" stroke="midnightblue" d="M1263.78,-143.29C1033.37,-143.39 430.09,-139.54 234.5,-98 166.92,-83.65 92.8,-49.06 54.9,-29.88"/>
<polygon fill="midnightblue" stroke="midnightblue" points="56.14,-26.58 45.64,-25.13 52.95,-32.8 56.14,-26.58"/>
</g>
<!-- Node12 -->
<g id="node12" class="node">
<title>Node12</title>
<g id="a_node12"><a xlink:href="../../d8/da5/vdomdocument_8h.html" target="_top" xlink:title=" ">
<polygon fill="white" stroke="black" points="573.5,-73 573.5,-92 675.5,-92 675.5,-73 573.5,-73"/>
<text text-anchor="middle" x="624.5" y="-80" font-family="Helvetica,sans-Serif" font-size="10.00">vdomdocument.h</text>
</a>
</g>
</g>
<!-- Node1&#45;&gt;Node12 -->
<g id="edge11" class="edge">
<title>Node1&#45;&gt;Node12</title>
<path fill="none" stroke="midnightblue" d="M1263.89,-135.61C1113.14,-123.33 814.69,-99 685.97,-88.51"/>
<polygon fill="midnightblue" stroke="midnightblue" points="686.14,-85.01 675.89,-87.69 685.57,-91.99 686.14,-85.01"/>
</g>
<!-- Node20 -->
<g id="node20" class="node">
<title>Node20</title>
<g id="a_node20"><a xlink:title=" ">
<polygon fill="white" stroke="#bfbfbf" points="1174.5,-6 1174.5,-25 1256.5,-25 1256.5,-6 1174.5,-6"/>
<text text-anchor="middle" x="1215.5" y="-13" font-family="Helvetica,sans-Serif" font-size="10.00">../vmisc/def.h</text>
</a>
</g>
</g>
<!-- Node1&#45;&gt;Node20 -->
<g id="edge29" class="edge">
<title>Node1&#45;&gt;Node20</title>
<path fill="none" stroke="midnightblue" d="M1344.95,-134.31C1321.74,-113.18 1262.12,-58.93 1232.6,-32.06"/>
<polygon fill="midnightblue" stroke="midnightblue" points="1234.87,-29.4 1225.12,-25.26 1230.16,-34.57 1234.87,-29.4"/>
</g>
<!-- Node23 -->
<g id="node23" class="node">
<title>Node23</title>
<g id="a_node23"><a xlink:href="../../d9/d47/vtoolrecord_8h.html" target="_top" xlink:title=" ">
<polygon fill="white" stroke="black" points="244,-73 244,-92 325,-92 325,-73 244,-73"/>
<text text-anchor="middle" x="284.5" y="-80" font-family="Helvetica,sans-Serif" font-size="10.00">vtoolrecord.h</text>
</a>
</g>
</g>
<!-- Node1&#45;&gt;Node23 -->
<g id="edge25" class="edge">
<title>Node1&#45;&gt;Node23</title>
<path fill="none" stroke="midnightblue" d="M1263.94,-140.18C1097.93,-134.67 733.79,-120.95 427.5,-98 396.83,-95.7 362.54,-92.26 335.23,-89.3"/>
<polygon fill="midnightblue" stroke="midnightblue" points="335.45,-85.8 325.13,-88.19 334.69,-92.76 335.45,-85.8"/>
</g>
<!-- Node24 -->
<g id="node24" class="node">
<title>Node24</title>
<g id="a_node24"><a xlink:title=" ">
<polygon fill="white" stroke="#bfbfbf" points="1823,-73 1823,-92 1962,-92 1962,-73 1823,-73"/>
<text text-anchor="middle" x="1892.5" y="-80" font-family="Helvetica,sans-Serif" font-size="10.00">../vwidgets/pen_toolbar.h</text>
</a>
</g>
</g>
<!-- Node1&#45;&gt;Node24 -->
<g id="edge30" class="edge">
<title>Node1&#45;&gt;Node24</title>
<path fill="none" stroke="midnightblue" d="M1445.34,-136.35C1538.13,-129.03 1686.24,-115.89 1813.5,-98 1821.94,-96.81 1830.85,-95.37 1839.52,-93.85"/>
<polygon fill="midnightblue" stroke="midnightblue" points="1840.33,-97.27 1849.56,-92.06 1839.1,-90.38 1840.33,-97.27"/>
</g>
<!-- Node25 -->
<g id="node25" class="node">
<title>Node25</title>
<g id="a_node25"><a xlink:href="../../d1/d8d/image__item_8h.html" target="_top" xlink:title=" ">
<polygon fill="white" stroke="black" points="1420.5,-67.5 1420.5,-97.5 1518.5,-97.5 1518.5,-67.5 1420.5,-67.5"/>
<text text-anchor="start" x="1428.5" y="-85.5" font-family="Helvetica,sans-Serif" font-size="10.00">../../tools/images</text>
<text text-anchor="middle" x="1469.5" y="-74.5" font-family="Helvetica,sans-Serif" font-size="10.00">/image_item.h</text>
</a>
</g>
</g>
<!-- Node1&#45;&gt;Node25 -->
<g id="edge31" class="edge">
<title>Node1&#45;&gt;Node25</title>
<path fill="none" stroke="midnightblue" d="M1370.98,-134.48C1387.21,-126.08 1412.54,-112.97 1433.45,-102.15"/>
<polygon fill="midnightblue" stroke="midnightblue" points="1435.12,-105.23 1442.4,-97.52 1431.91,-99.01 1435.12,-105.23"/>
</g>
<!-- Node12&#45;&gt;Node3 -->
<g id="edge16" class="edge">
<title>Node12&#45;&gt;Node3</title>
<path fill="none" stroke="midnightblue" d="M576.26,-72.96C563.66,-70.86 550.09,-68.73 537.5,-67 390.46,-46.79 348.89,-69.3 205.5,-31 203.2,-30.39 200.86,-29.64 198.54,-28.8"/>
<polygon fill="midnightblue" stroke="midnightblue" points="199.85,-25.56 189.27,-25.05 197.22,-32.05 199.85,-25.56"/>
</g>
<!-- Node12&#45;&gt;Node8 -->
<g id="edge18" class="edge">
<title>Node12&#45;&gt;Node8</title>
<path fill="none" stroke="midnightblue" d="M573.43,-77.04C457.23,-66.76 179.92,-41.5 138.5,-31 135.99,-30.36 133.42,-29.58 130.88,-28.71"/>
<polygon fill="midnightblue" stroke="midnightblue" points="131.92,-25.36 121.33,-25.05 129.41,-31.9 131.92,-25.36"/>
</g>
<!-- Node12&#45;&gt;Node11 -->
<g id="edge19" class="edge">
<title>Node12&#45;&gt;Node11</title>
<path fill="none" stroke="midnightblue" d="M573.36,-78.66C454.61,-71.77 163.04,-53.12 67.5,-31 64.5,-30.31 61.42,-29.43 58.38,-28.45"/>
<polygon fill="midnightblue" stroke="midnightblue" points="59.5,-25.13 48.9,-25.08 57.15,-31.73 59.5,-25.13"/>
</g>
<!-- Node13 -->
<g id="node13" class="node">
<title>Node13</title>
<g id="a_node13"><a xlink:title=" ">
<polygon fill="white" stroke="#bfbfbf" points="833,-6 833,-25 934,-25 934,-6 833,-6"/>
<text text-anchor="middle" x="883.5" y="-13" font-family="Helvetica,sans-Serif" font-size="10.00">QCoreApplication</text>
</a>
</g>
</g>
<!-- Node12&#45;&gt;Node13 -->
<g id="edge12" class="edge">
<title>Node12&#45;&gt;Node13</title>
<path fill="none" stroke="midnightblue" d="M658.63,-72.94C705.11,-61.27 788.4,-40.37 839.52,-27.54"/>
<polygon fill="midnightblue" stroke="midnightblue" points="840.45,-30.91 849.3,-25.08 838.75,-24.12 840.45,-30.91"/>
</g>
<!-- Node14 -->
<g id="node14" class="node">
<title>Node14</title>
<g id="a_node14"><a xlink:title=" ">
<polygon fill="white" stroke="#bfbfbf" points="952.5,-6 952.5,-25 1050.5,-25 1050.5,-6 952.5,-6"/>
<text text-anchor="middle" x="1001.5" y="-13" font-family="Helvetica,sans-Serif" font-size="10.00">QDomDocument</text>
</a>
</g>
</g>
<!-- Node12&#45;&gt;Node14 -->
<g id="edge13" class="edge">
<title>Node12&#45;&gt;Node14</title>
<path fill="none" stroke="midnightblue" d="M675.68,-74.71C738.72,-66.05 848.94,-49.89 942.5,-31 947.86,-29.92 953.48,-28.68 959.02,-27.39"/>
<polygon fill="midnightblue" stroke="midnightblue" points="959.93,-30.77 968.84,-25.04 958.3,-23.96 959.93,-30.77"/>
</g>
<!-- Node15 -->
<g id="node15" class="node">
<title>Node15</title>
<g id="a_node15"><a xlink:title=" ">
<polygon fill="white" stroke="#bfbfbf" points="1068.5,-6 1068.5,-25 1156.5,-25 1156.5,-6 1068.5,-6"/>
<text text-anchor="middle" x="1112.5" y="-13" font-family="Helvetica,sans-Serif" font-size="10.00">QDomElement</text>
</a>
</g>
</g>
<!-- Node12&#45;&gt;Node15 -->
<g id="edge14" class="edge">
<title>Node12&#45;&gt;Node15</title>
<path fill="none" stroke="midnightblue" d="M675.78,-78.08C757.52,-72.05 922.16,-57.6 1059.5,-31 1064.34,-30.06 1069.38,-28.91 1074.35,-27.68"/>
<polygon fill="midnightblue" stroke="midnightblue" points="1075.57,-30.97 1084.36,-25.05 1073.79,-24.2 1075.57,-30.97"/>
</g>
<!-- Node16 -->
<g id="node16" class="node">
<title>Node16</title>
<g id="a_node16"><a xlink:title=" ">
<polygon fill="white" stroke="#bfbfbf" points="215,-6 215,-25 288,-25 288,-6 215,-6"/>
<text text-anchor="middle" x="251.5" y="-13" font-family="Helvetica,sans-Serif" font-size="10.00">QDomNode</text>
</a>
</g>
</g>
<!-- Node12&#45;&gt;Node16 -->
<g id="edge15" class="edge">
<title>Node12&#45;&gt;Node16</title>
<path fill="none" stroke="midnightblue" d="M574.38,-73C562.31,-70.99 549.45,-68.89 537.5,-67 430.53,-50.1 401.95,-55.69 296.5,-31 292.85,-30.15 289.07,-29.13 285.32,-28.05"/>
<polygon fill="midnightblue" stroke="midnightblue" points="286.17,-24.65 275.58,-25.06 284.12,-31.34 286.17,-24.65"/>
</g>
<!-- Node17 -->
<g id="node17" class="node">
<title>Node17</title>
<g id="a_node17"><a xlink:title=" ">
<polygon fill="white" stroke="#bfbfbf" points="306,-6 306,-25 389,-25 389,-6 306,-6"/>
<text text-anchor="middle" x="347.5" y="-13" font-family="Helvetica,sans-Serif" font-size="10.00">QLatin1String</text>
</a>
</g>
</g>
<!-- Node12&#45;&gt;Node17 -->
<g id="edge17" class="edge">
<title>Node12&#45;&gt;Node17</title>
<path fill="none" stroke="midnightblue" d="M583.09,-72.99C537.64,-63.48 462.6,-47.26 398.5,-31 394.6,-30.01 390.54,-28.93 386.49,-27.83"/>
<polygon fill="midnightblue" stroke="midnightblue" points="387.12,-24.38 376.55,-25.07 385.25,-31.12 387.12,-24.38"/>
</g>
<!-- Node18 -->
<g id="node18" class="node">
<title>Node18</title>
<g id="a_node18"><a xlink:title=" ">
<polygon fill="white" stroke="#bfbfbf" points="407.5,-6 407.5,-25 463.5,-25 463.5,-6 407.5,-6"/>
<text text-anchor="middle" x="435.5" y="-13" font-family="Helvetica,sans-Serif" font-size="10.00">QLocale</text>
</a>
</g>
</g>
<!-- Node12&#45;&gt;Node18 -->
<g id="edge20" class="edge">
<title>Node12&#45;&gt;Node18</title>
<path fill="none" stroke="midnightblue" d="M597.44,-72.99C566.93,-63.28 515.91,-46.7 472.5,-31 470.6,-30.31 468.66,-29.59 466.69,-28.86"/>
<polygon fill="midnightblue" stroke="midnightblue" points="467.54,-25.44 456.95,-25.13 465.04,-31.97 467.54,-25.44"/>
</g>
<!-- Node19 -->
<g id="node19" class="node">
<title>Node19</title>
<g id="a_node19"><a xlink:title=" ">
<polygon fill="white" stroke="#bfbfbf" points="482,-6 482,-25 559,-25 559,-6 482,-6"/>
<text text-anchor="middle" x="520.5" y="-13" font-family="Helvetica,sans-Serif" font-size="10.00">../ifc/ifcdef.h</text>
</a>
</g>
</g>
<!-- Node12&#45;&gt;Node19 -->
<g id="edge21" class="edge">
<title>Node12&#45;&gt;Node19</title>
<path fill="none" stroke="midnightblue" d="M610.47,-72.73C593.17,-61.92 563.51,-43.38 543.01,-30.57"/>
<polygon fill="midnightblue" stroke="midnightblue" points="544.64,-27.46 534.3,-25.13 540.93,-33.4 544.64,-27.46"/>
</g>
<!-- Node12&#45;&gt;Node20 -->
<g id="edge22" class="edge">
<title>Node12&#45;&gt;Node20</title>
<path fill="none" stroke="midnightblue" d="M675.67,-79.95C772.22,-76.3 987.56,-64.79 1165.5,-31 1170.19,-30.11 1175.08,-28.97 1179.88,-27.72"/>
<polygon fill="midnightblue" stroke="midnightblue" points="1180.82,-31.09 1189.52,-25.05 1178.95,-24.34 1180.82,-31.09"/>
</g>
<!-- Node21 -->
<g id="node21" class="node">
<title>Node21</title>
<g id="a_node21"><a xlink:title=" ">
<polygon fill="white" stroke="#bfbfbf" points="577,-6 577,-25 694,-25 694,-6 577,-6"/>
<text text-anchor="middle" x="635.5" y="-13" font-family="Helvetica,sans-Serif" font-size="10.00">../vmisc/diagnostic.h</text>
</a>
</g>
</g>
<!-- Node12&#45;&gt;Node21 -->
<g id="edge23" class="edge">
<title>Node12&#45;&gt;Node21</title>
<path fill="none" stroke="midnightblue" d="M625.98,-72.73C627.6,-63.18 630.23,-47.62 632.32,-35.28"/>
<polygon fill="midnightblue" stroke="midnightblue" points="635.82,-35.57 634.04,-25.13 628.92,-34.4 635.82,-35.57"/>
</g>
<!-- Node22 -->
<g id="node22" class="node">
<title>Node22</title>
<g id="a_node22"><a xlink:title=" ">
<polygon fill="white" stroke="#bfbfbf" points="712,-6 712,-25 815,-25 815,-6 712,-6"/>
<text text-anchor="middle" x="763.5" y="-13" font-family="Helvetica,sans-Serif" font-size="10.00">../vmisc/logging.h</text>
</a>
</g>
</g>
<!-- Node12&#45;&gt;Node22 -->
<g id="edge24" class="edge">
<title>Node12&#45;&gt;Node22</title>
<path fill="none" stroke="midnightblue" d="M642.96,-72.87C666.74,-61.75 708.29,-42.32 735.85,-29.43"/>
<polygon fill="midnightblue" stroke="midnightblue" points="737.39,-32.57 744.97,-25.17 734.42,-26.23 737.39,-32.57"/>
</g>
<!-- Node23&#45;&gt;Node8 -->
<g id="edge26" class="edge">
<title>Node23&#45;&gt;Node8</title>
<path fill="none" stroke="midnightblue" d="M258.22,-72.94C228.86,-63.25 180,-46.76 138.5,-31 136.85,-30.37 135.16,-29.72 133.46,-29.05"/>
<polygon fill="midnightblue" stroke="midnightblue" points="134.36,-25.64 123.78,-25.14 131.74,-32.13 134.36,-25.64"/>
</g>
<!-- Node23&#45;&gt;Node11 -->
<g id="edge27" class="edge">
<title>Node23&#45;&gt;Node11</title>
<path fill="none" stroke="midnightblue" d="M243.67,-73.72C199.72,-64.96 127.98,-49.48 67.5,-31 65.08,-30.26 62.59,-29.44 60.1,-28.58"/>
<polygon fill="midnightblue" stroke="midnightblue" points="61.22,-25.27 50.63,-25.14 58.83,-31.85 61.22,-25.27"/>
</g>
<!-- Node23&#45;&gt;Node20 -->
<g id="edge28" class="edge">
<title>Node23&#45;&gt;Node20</title>
<path fill="none" stroke="midnightblue" d="M325.06,-79.43C492.56,-70.85 1123.62,-38.18 1165.5,-31 1170.31,-30.17 1175.32,-29.05 1180.23,-27.79"/>
<polygon fill="midnightblue" stroke="midnightblue" points="1181.36,-31.11 1190.06,-25.07 1179.49,-24.37 1181.36,-31.11"/>
</g>
<!-- Node25&#45;&gt;Node2 -->
<g id="edge32" class="edge">
<title>Node25&#45;&gt;Node2</title>
<path fill="none" stroke="midnightblue" d="M1440.21,-67.4C1416.73,-56.09 1384.06,-40.36 1361.27,-29.39"/>
<polygon fill="midnightblue" stroke="midnightblue" points="1362.7,-26.19 1352.17,-25.01 1359.66,-32.5 1362.7,-26.19"/>
</g>
<!-- Node25&#45;&gt;Node5 -->
<g id="edge36" class="edge">
<title>Node25&#45;&gt;Node5</title>
<path fill="none" stroke="midnightblue" d="M1465.81,-67.4C1463.34,-57.96 1460.07,-45.45 1457.39,-35.19"/>
<polygon fill="midnightblue" stroke="midnightblue" points="1460.69,-33.98 1454.77,-25.19 1453.92,-35.75 1460.69,-33.98"/>
</g>
<!-- Node25&#45;&gt;Node8 -->
<g id="edge38" class="edge">
<title>Node25&#45;&gt;Node8</title>
<path fill="none" stroke="midnightblue" d="M1420.14,-80.66C1194.34,-76.68 265.36,-58.75 138.5,-31 135.82,-30.41 133.09,-29.63 130.39,-28.74"/>
<polygon fill="midnightblue" stroke="midnightblue" points="131.5,-25.42 120.91,-25.14 129.01,-31.96 131.5,-25.42"/>
</g>
<!-- Node25&#45;&gt;Node10 -->
<g id="edge40" class="edge">
<title>Node25&#45;&gt;Node10</title>
<path fill="none" stroke="midnightblue" d="M1484.47,-67.4C1495.44,-57.06 1510.34,-43.02 1521.72,-32.31"/>
<polygon fill="midnightblue" stroke="midnightblue" points="1524.39,-34.6 1529.27,-25.19 1519.59,-29.5 1524.39,-34.6"/>
</g>
<!-- Node25&#45;&gt;Node20 -->
<g id="edge33" class="edge">
<title>Node25&#45;&gt;Node20</title>
<path fill="none" stroke="midnightblue" d="M1420.31,-69.9C1378.9,-60 1318.18,-45.15 1265.5,-31 1261.73,-29.99 1257.81,-28.9 1253.89,-27.8"/>
<polygon fill="midnightblue" stroke="midnightblue" points="1254.84,-24.43 1244.26,-25.05 1252.92,-31.16 1254.84,-24.43"/>
</g>
<!-- Node26 -->
<g id="node26" class="node">
<title>Node26</title>
<g id="a_node26"><a xlink:title=" ">
<polygon fill="white" stroke="#bfbfbf" points="1584.5,-0.5 1584.5,-30.5 1686.5,-30.5 1686.5,-0.5 1584.5,-0.5"/>
<text text-anchor="start" x="1592.5" y="-18.5" font-family="Helvetica,sans-Serif" font-size="10.00">../vwidgets/resize</text>
<text text-anchor="middle" x="1635.5" y="-7.5" font-family="Helvetica,sans-Serif" font-size="10.00">_handle.h</text>
</a>
</g>
</g>
<!-- Node25&#45;&gt;Node26 -->
<g id="edge34" class="edge">
<title>Node25&#45;&gt;Node26</title>
<path fill="none" stroke="midnightblue" d="M1505.52,-67.4C1530.32,-57.69 1563.46,-44.71 1590.07,-34.29"/>
<polygon fill="midnightblue" stroke="midnightblue" points="1591.52,-37.48 1599.55,-30.58 1588.96,-30.96 1591.52,-37.48"/>
</g>
<!-- Node27 -->
<g id="node27" class="node">
<title>Node27</title>
<g id="a_node27"><a xlink:title=" ">
<polygon fill="white" stroke="#bfbfbf" points="1705,-6 1705,-25 1872,-25 1872,-6 1705,-6"/>
<text text-anchor="middle" x="1788.5" y="-13" font-family="Helvetica,sans-Serif" font-size="10.00">../vmisc/vabstractapplication.h</text>
</a>
</g>
</g>
<!-- Node25&#45;&gt;Node27 -->
<g id="edge35" class="edge">
<title>Node25&#45;&gt;Node27</title>
<path fill="none" stroke="midnightblue" d="M1518.71,-69.21C1522.02,-68.45 1525.31,-67.7 1528.5,-67 1597.9,-51.74 1678.26,-36.5 1731.06,-26.82"/>
<polygon fill="midnightblue" stroke="midnightblue" points="1731.7,-30.26 1740.91,-25.02 1730.45,-23.37 1731.7,-30.26"/>
</g>
<!-- Node28 -->
<g id="node28" class="node">
<title>Node28</title>
<g id="a_node28"><a xlink:title=" ">
<polygon fill="white" stroke="#bfbfbf" points="1890,-6 1890,-25 1945,-25 1945,-6 1890,-6"/>
<text text-anchor="middle" x="1917.5" y="-13" font-family="Helvetica,sans-Serif" font-size="10.00">QPointF</text>
</a>
</g>
</g>
<!-- Node25&#45;&gt;Node28 -->
<g id="edge37" class="edge">
<title>Node25&#45;&gt;Node28</title>
<path fill="none" stroke="midnightblue" d="M1518.65,-68.88C1521.97,-68.19 1525.28,-67.56 1528.5,-67 1683.89,-40.12 1728.4,-68.83 1881.5,-31 1884.17,-30.34 1886.9,-29.52 1889.61,-28.62"/>
<polygon fill="midnightblue" stroke="midnightblue" points="1891,-31.83 1899.15,-25.05 1888.55,-25.27 1891,-31.83"/>
</g>
<!-- Node29 -->
<g id="node29" class="node">
<title>Node29</title>
<g id="a_node29"><a xlink:title=" ">
<polygon fill="white" stroke="#bfbfbf" points="1963,-6 1963,-25 2022,-25 2022,-6 1963,-6"/>
<text text-anchor="middle" x="1992.5" y="-13" font-family="Helvetica,sans-Serif" font-size="10.00">QVariant</text>
</a>
</g>
</g>
<!-- Node25&#45;&gt;Node29 -->
<g id="edge39" class="edge">
<title>Node25&#45;&gt;Node29</title>
<path fill="none" stroke="midnightblue" d="M1518.64,-68.81C1521.96,-68.14 1525.27,-67.53 1528.5,-67 1716,-36.23 1769.26,-73.28 1954.5,-31 1957.5,-30.31 1960.58,-29.44 1963.63,-28.47"/>
<polygon fill="midnightblue" stroke="midnightblue" points="1964.85,-31.75 1973.1,-25.1 1962.51,-25.15 1964.85,-31.75"/>
</g>
<!-- Node30 -->
<g id="node30" class="node">
<title>Node30</title>
<g id="a_node30"><a xlink:title=" ">
<polygon fill="white" stroke="#bfbfbf" points="2040.5,-6 2040.5,-25 2138.5,-25 2138.5,-6 2040.5,-6"/>
<text text-anchor="middle" x="2089.5" y="-13" font-family="Helvetica,sans-Serif" font-size="10.00">QtCore/qglobal.h</text>
</a>
</g>
</g>
<!-- Node25&#45;&gt;Node30 -->
<g id="edge41" class="edge">
<title>Node25&#45;&gt;Node30</title>
<path fill="none" stroke="midnightblue" d="M1518.63,-68.77C1521.96,-68.11 1525.27,-67.51 1528.5,-67 1749.9,-32.13 1810.17,-66.31 2031.5,-31 2037.41,-30.06 2043.6,-28.8 2049.64,-27.43"/>
<polygon fill="midnightblue" stroke="midnightblue" points="2050.7,-30.77 2059.6,-25.03 2049.06,-23.97 2050.7,-30.77"/>
</g>
<!-- Node31 -->
<g id="node31" class="node">
<title>Node31</title>
<g id="a_node31"><a xlink:title=" ">
<polygon fill="white" stroke="#bfbfbf" points="2157,-6 2157,-25 2246,-25 2246,-6 2157,-6"/>
<text text-anchor="middle" x="2201.5" y="-13" font-family="Helvetica,sans-Serif" font-size="10.00">QGraphicsItem</text>
</a>
</g>
</g>
<!-- Node25&#45;&gt;Node31 -->
<g id="edge42" class="edge">
<title>Node25&#45;&gt;Node31</title>
<path fill="none" stroke="midnightblue" d="M1518.62,-68.72C1521.95,-68.07 1525.27,-67.49 1528.5,-67 1801,-25.94 1875.45,-74.96 2147.5,-31 2152.95,-30.12 2158.64,-28.91 2164.2,-27.57"/>
<polygon fill="midnightblue" stroke="midnightblue" points="2165.18,-30.94 2173.99,-25.05 2163.43,-24.16 2165.18,-30.94"/>
</g>
</g>
</svg>
        <g id="navigator" transform="translate(0 0)" fill="#404254">
                <rect fill="#f2f5e9" fill-opacity="0.5" stroke="#606060" stroke-width=".5" x="0" y="0" width="60" height="60"/>
                <use id="zoomplus" xlink:href="#zoomPlus" x="17" y="9" onmousedown="handleZoom(evt,'in')"/>
                <use id="zoomminus" xlink:href="#zoomMin" x="42" y="9" onmousedown="handleZoom(evt,'out')"/>
                <use id="reset" xlink:href="#resetDef" x="30" y="36" onmousedown="handleReset()"/>
                <g id="arrowUp" xlink:href="#dirArrow" transform="translate(30 24)" onmousedown="handlePan(0,-1)">
                  <use xlink:href="#rim" fill="#404040">
                        <set attributeName="fill" to="#808080" begin="arrowUp.mouseover" end="arrowUp.mouseout"/>
                  </use>
                  <path fill="none" stroke="white" stroke-width="1.5" d="M0,-3.0v7 M-2.5,-0.5L0,-3.0L2.5,-0.5"/>
                </g>
                <g id="arrowRight" xlink:href="#dirArrow" transform="rotate(90) translate(36 -43)" onmousedown="handlePan(1,0)">
                  <use xlink:href="#rim" fill="#404040">
                        <set attributeName="fill" to="#808080" begin="arrowRight.mouseover" end="arrowRight.mouseout"/>
                  </use>
                  <path fill="none" stroke="white" stroke-width="1.5" d="M0,-3.0v7 M-2.5,-0.5L0,-3.0L2.5,-0.5"/>
                </g>
                <g id="arrowDown" xlink:href="#dirArrow" transform="rotate(180) translate(-30 -48)" onmousedown="handlePan(0,1)">
                  <use xlink:href="#rim" fill="#404040">
                        <set attributeName="fill" to="#808080" begin="arrowDown.mouseover" end="arrowDown.mouseout"/>
                  </use>
                  <path fill="none" stroke="white" stroke-width="1.5" d="M0,-3.0v7 M-2.5,-0.5L0,-3.0L2.5,-0.5"/>
                </g>
                <g id="arrowLeft" xlink:href="#dirArrow" transform="rotate(270) translate(-36 17)" onmousedown="handlePan(-1,0)">
                  <use xlink:href="#rim" fill="#404040">
                        <set attributeName="fill" to="#808080" begin="arrowLeft.mouseover" end="arrowLeft.mouseout"/>
                  </use>
                  <path fill="none" stroke="white" stroke-width="1.5" d="M0,-3.0v7 M-2.5,-0.5L0,-3.0L2.5,-0.5"/>
                </g>
        </g>
        <svg viewBox="0 0 15 15" width="100%" height="30px" preserveAspectRatio="xMaxYMin meet">
         <g id="arrow_out" transform="scale(0.3 0.3)">
          <a xlink:href="vabstractpattern_8h__incl_org.svg" target="_base">
           <rect id="button" ry="5" rx="5" y="6" x="6" height="38" width="38"
                fill="#f2f5e9" fill-opacity="0.5" stroke="#606060" stroke-width="1.0"/>
           <path id="arrow"
             d="M 11.500037,31.436501 C 11.940474,20.09759 22.043105,11.32322 32.158766,21.979434 L 37.068811,17.246167 C 37.068811,17.246167 37.088388,32 37.088388,32 L 22.160133,31.978069 C 22.160133,31.978069 26.997745,27.140456 26.997745,27.140456 C 18.528582,18.264221 13.291696,25.230495 11.500037,31.436501 z"
             style="fill:#404040;"/>
          </a>
         </g>
        </svg>
</svg>
