<?xml version="1.0" encoding="UTF-8" standalone="no"?>
<!DOCTYPE svg PUBLIC "-//W3C//DTD SVG 1.1//EN"
 "http://www.w3.org/Graphics/SVG/1.1/DTD/svg11.dtd">
<!-- Generated by graphviz version 2.43.0 (0)
 -->
<!-- Title: ShowPointName Pages: 1 -->
<svg width="627pt" height="1862pt"
 viewBox="0.00 0.00 627.09 1862.00" xmlns="http://www.w3.org/2000/svg" xmlns:xlink="http://www.w3.org/1999/xlink">
<g id="graph0" class="graph" transform="scale(1 1) rotate(0) translate(4 1858)">
<title>ShowPointName</title>
<polygon fill="white" stroke="transparent" points="-4,4 -4,-1858 623.09,-1858 623.09,4 -4,4"/>
<!-- Node1 -->
<g id="node1" class="node">
<title>Node1</title>
<g id="a_node1"><a xlink:title=" ">
<polygon fill="#bfbfbf" stroke="black" points="104.09,-0.5 104.09,-123.5 228.09,-123.5 228.09,-0.5 104.09,-0.5"/>
<text text-anchor="middle" x="166.09" y="-111.5" font-family="Helvetica,sans-Serif" font-size="10.00">ShowPointName</text>
<polyline fill="none" stroke="black" points="104.09,-104.5 228.09,-104.5 "/>
<text text-anchor="start" x="112.09" y="-92.5" font-family="Helvetica,sans-Serif" font-size="10.00">&#45; m_visible</text>
<text text-anchor="start" x="112.09" y="-81.5" font-family="Helvetica,sans-Serif" font-size="10.00">&#45; m_oldVisible</text>
<text text-anchor="start" x="112.09" y="-70.5" font-family="Helvetica,sans-Serif" font-size="10.00">&#45; m_scene</text>
<polyline fill="none" stroke="black" points="104.09,-63.5 228.09,-63.5 "/>
<text text-anchor="start" x="112.09" y="-51.5" font-family="Helvetica,sans-Serif" font-size="10.00">+ ShowPointName()</text>
<text text-anchor="start" x="112.09" y="-40.5" font-family="Helvetica,sans-Serif" font-size="10.00">+ ~ShowPointName()</text>
<text text-anchor="start" x="112.09" y="-29.5" font-family="Helvetica,sans-Serif" font-size="10.00">+ undo()</text>
<text text-anchor="start" x="112.09" y="-18.5" font-family="Helvetica,sans-Serif" font-size="10.00">+ redo()</text>
<text text-anchor="start" x="112.09" y="-7.5" font-family="Helvetica,sans-Serif" font-size="10.00">&#45; setVisibility()</text>
</a>
</g>
</g>
<!-- Node2 -->
<g id="node2" class="node">
<title>Node2</title>
<g id="a_node2"><a xlink:href="../../de/d04/classVUndoCommand.html" target="_top" xlink:title=" ">
<polygon fill="white" stroke="black" points="91.59,-161.5 91.59,-350.5 240.59,-350.5 240.59,-161.5 91.59,-161.5"/>
<text text-anchor="middle" x="166.09" y="-338.5" font-family="Helvetica,sans-Serif" font-size="10.00">VUndoCommand</text>
<polyline fill="none" stroke="black" points="91.59,-331.5 240.59,-331.5 "/>
<text text-anchor="start" x="99.59" y="-319.5" font-family="Helvetica,sans-Serif" font-size="10.00"># xml</text>
<text text-anchor="start" x="99.59" y="-308.5" font-family="Helvetica,sans-Serif" font-size="10.00"># nodeId</text>
<text text-anchor="start" x="99.59" y="-297.5" font-family="Helvetica,sans-Serif" font-size="10.00"># redoFlag</text>
<polyline fill="none" stroke="black" points="91.59,-290.5 240.59,-290.5 "/>
<text text-anchor="start" x="99.59" y="-278.5" font-family="Helvetica,sans-Serif" font-size="10.00">+ VUndoCommand()</text>
<text text-anchor="start" x="99.59" y="-267.5" font-family="Helvetica,sans-Serif" font-size="10.00">+ ~VUndoCommand()</text>
<text text-anchor="start" x="99.59" y="-256.5" font-family="Helvetica,sans-Serif" font-size="10.00"># RedoFullParsing()</text>
<text text-anchor="start" x="99.59" y="-245.5" font-family="Helvetica,sans-Serif" font-size="10.00"># UndoDeleteAfterSibling()</text>
<text text-anchor="start" x="99.59" y="-234.5" font-family="Helvetica,sans-Serif" font-size="10.00"># IncrementReferences()</text>
<text text-anchor="start" x="99.59" y="-223.5" font-family="Helvetica,sans-Serif" font-size="10.00"># DecrementReferences()</text>
<text text-anchor="start" x="99.59" y="-212.5" font-family="Helvetica,sans-Serif" font-size="10.00"># IncrementReferences()</text>
<text text-anchor="start" x="99.59" y="-201.5" font-family="Helvetica,sans-Serif" font-size="10.00"># DecrementReferences()</text>
<text text-anchor="start" x="99.59" y="-190.5" font-family="Helvetica,sans-Serif" font-size="10.00"># IncrementReferences()</text>
<text text-anchor="start" x="99.59" y="-179.5" font-family="Helvetica,sans-Serif" font-size="10.00"># DecrementReferences()</text>
<text text-anchor="start" x="99.59" y="-168.5" font-family="Helvetica,sans-Serif" font-size="10.00"># getDestinationObject()</text>
</a>
</g>
</g>
<!-- Node2&#45;&gt;Node1 -->
<g id="edge1" class="edge">
<title>Node2&#45;&gt;Node1</title>
<path fill="none" stroke="midnightblue" d="M166.09,-151.09C166.09,-141.75 166.09,-132.51 166.09,-123.73"/>
<polygon fill="none" stroke="midnightblue" points="162.59,-151.25 166.09,-161.25 169.59,-151.25 162.59,-151.25"/>
</g>
<!-- Node3 -->
<g id="node3" class="node">
<title>Node3</title>
<g id="a_node3"><a xlink:title=" ">
<polygon fill="white" stroke="#bfbfbf" points="13.09,-1488 13.09,-1545 69.09,-1545 69.09,-1488 13.09,-1488"/>
<text text-anchor="middle" x="41.09" y="-1533" font-family="Helvetica,sans-Serif" font-size="10.00">QObject</text>
<polyline fill="none" stroke="#bfbfbf" points="13.09,-1526 69.09,-1526 "/>
<text text-anchor="middle" x="41.09" y="-1514" font-family="Helvetica,sans-Serif" font-size="10.00"> </text>
<polyline fill="none" stroke="#bfbfbf" points="13.09,-1507 69.09,-1507 "/>
<text text-anchor="middle" x="41.09" y="-1495" font-family="Helvetica,sans-Serif" font-size="10.00"> </text>
</a>
</g>
</g>
<!-- Node3&#45;&gt;Node2 -->
<g id="edge2" class="edge">
<title>Node3&#45;&gt;Node2</title>
<path fill="none" stroke="midnightblue" d="M35.22,-1477.71C14.21,-1333.31 -49.42,-804.18 76.09,-398 81.07,-381.91 88.41,-365.87 96.78,-350.69"/>
<polygon fill="none" stroke="midnightblue" points="31.79,-1478.43 36.71,-1487.82 38.71,-1477.41 31.79,-1478.43"/>
</g>
<!-- Node5 -->
<g id="node5" class="node">
<title>Node5</title>
<g id="a_node5"><a xlink:href="../../d8/dba/classVAbstractPattern.html" target="_top" xlink:title=" ">
<polygon fill="white" stroke="black" points="85.09,-398.5 85.09,-1236.5 247.09,-1236.5 247.09,-398.5 85.09,-398.5"/>
<text text-anchor="middle" x="166.09" y="-1224.5" font-family="Helvetica,sans-Serif" font-size="10.00">VAbstractPattern</text>
<polyline fill="none" stroke="black" points="85.09,-1217.5 247.09,-1217.5 "/>
<text text-anchor="start" x="93.09" y="-1205.5" font-family="Helvetica,sans-Serif" font-size="10.00">+ TagPattern</text>
<text text-anchor="start" x="93.09" y="-1194.5" font-family="Helvetica,sans-Serif" font-size="10.00">+ TagCalculation</text>
<text text-anchor="start" x="93.09" y="-1183.5" font-family="Helvetica,sans-Serif" font-size="10.00">+ TagModeling</text>
<text text-anchor="start" x="93.09" y="-1172.5" font-family="Helvetica,sans-Serif" font-size="10.00">+ TagPieces</text>
<text text-anchor="start" x="93.09" y="-1161.5" font-family="Helvetica,sans-Serif" font-size="10.00">+ TagPiece</text>
<text text-anchor="start" x="93.09" y="-1150.5" font-family="Helvetica,sans-Serif" font-size="10.00">+ TagDescription</text>
<text text-anchor="start" x="93.09" y="-1139.5" font-family="Helvetica,sans-Serif" font-size="10.00">+ TagImage</text>
<text text-anchor="start" x="93.09" y="-1128.5" font-family="Helvetica,sans-Serif" font-size="10.00">+ TagNotes</text>
<text text-anchor="start" x="93.09" y="-1117.5" font-family="Helvetica,sans-Serif" font-size="10.00">+ TagMeasurements</text>
<text text-anchor="start" x="93.09" y="-1106.5" font-family="Helvetica,sans-Serif" font-size="10.00">+ TagVariables</text>
<text text-anchor="start" x="93.09" y="-1095.5" font-family="Helvetica,sans-Serif" font-size="10.00">and 142 more...</text>
<text text-anchor="start" x="93.09" y="-1084.5" font-family="Helvetica,sans-Serif" font-size="10.00"># activeDraftBlock</text>
<text text-anchor="start" x="93.09" y="-1073.5" font-family="Helvetica,sans-Serif" font-size="10.00"># m_DefaultLineColor</text>
<text text-anchor="start" x="93.09" y="-1062.5" font-family="Helvetica,sans-Serif" font-size="10.00"># m_DefaultLineWeight</text>
<text text-anchor="start" x="93.09" y="-1051.5" font-family="Helvetica,sans-Serif" font-size="10.00"># m_DefaultLineType</text>
<text text-anchor="start" x="93.09" y="-1040.5" font-family="Helvetica,sans-Serif" font-size="10.00"># defaultBasePoint</text>
<text text-anchor="start" x="93.09" y="-1029.5" font-family="Helvetica,sans-Serif" font-size="10.00"># lastSavedExportFormat</text>
<text text-anchor="start" x="93.09" y="-1018.5" font-family="Helvetica,sans-Serif" font-size="10.00"># cursor</text>
<text text-anchor="start" x="93.09" y="-1007.5" font-family="Helvetica,sans-Serif" font-size="10.00"># toolsOnRemove</text>
<text text-anchor="start" x="93.09" y="-996.5" font-family="Helvetica,sans-Serif" font-size="10.00"># history</text>
<text text-anchor="start" x="93.09" y="-985.5" font-family="Helvetica,sans-Serif" font-size="10.00"># patternPieces</text>
<text text-anchor="start" x="93.09" y="-974.5" font-family="Helvetica,sans-Serif" font-size="10.00"># modified</text>
<text text-anchor="start" x="93.09" y="-963.5" font-family="Helvetica,sans-Serif" font-size="10.00"># patternLabelLines</text>
<text text-anchor="start" x="93.09" y="-952.5" font-family="Helvetica,sans-Serif" font-size="10.00"># patternLabelWasChanged</text>
<polyline fill="none" stroke="black" points="85.09,-945.5 247.09,-945.5 "/>
<text text-anchor="start" x="93.09" y="-933.5" font-family="Helvetica,sans-Serif" font-size="10.00">+ VAbstractPattern()</text>
<text text-anchor="start" x="93.09" y="-922.5" font-family="Helvetica,sans-Serif" font-size="10.00">+ ~VAbstractPattern()</text>
<text text-anchor="start" x="93.09" y="-911.5" font-family="Helvetica,sans-Serif" font-size="10.00">+ ListMeasurements()</text>
<text text-anchor="start" x="93.09" y="-900.5" font-family="Helvetica,sans-Serif" font-size="10.00">+ ListExpressions()</text>
<text text-anchor="start" x="93.09" y="-889.5" font-family="Helvetica,sans-Serif" font-size="10.00">+ listVariableExpressions()</text>
<text text-anchor="start" x="93.09" y="-878.5" font-family="Helvetica,sans-Serif" font-size="10.00">+ CreateEmptyFile()</text>
<text text-anchor="start" x="93.09" y="-867.5" font-family="Helvetica,sans-Serif" font-size="10.00">+ changeActiveDraftBlock()</text>
<text text-anchor="start" x="93.09" y="-856.5" font-family="Helvetica,sans-Serif" font-size="10.00">+ getActiveDraftBlockName()</text>
<text text-anchor="start" x="93.09" y="-845.5" font-family="Helvetica,sans-Serif" font-size="10.00">+ draftBlockNameExists()</text>
<text text-anchor="start" x="93.09" y="-834.5" font-family="Helvetica,sans-Serif" font-size="10.00">+ draftBlockCount()</text>
<text text-anchor="start" x="93.09" y="-823.5" font-family="Helvetica,sans-Serif" font-size="10.00">and 96 more...</text>
<text text-anchor="start" x="93.09" y="-812.5" font-family="Helvetica,sans-Serif" font-size="10.00">+ getTool()</text>
<text text-anchor="start" x="93.09" y="-801.5" font-family="Helvetica,sans-Serif" font-size="10.00">+ AddTool()</text>
<text text-anchor="start" x="93.09" y="-790.5" font-family="Helvetica,sans-Serif" font-size="10.00">+ RemoveTool()</text>
<text text-anchor="start" x="93.09" y="-779.5" font-family="Helvetica,sans-Serif" font-size="10.00">+ ParsePieceNodes()</text>
<text text-anchor="start" x="93.09" y="-768.5" font-family="Helvetica,sans-Serif" font-size="10.00">+ ParsePieceCSARecords()</text>
<text text-anchor="start" x="93.09" y="-757.5" font-family="Helvetica,sans-Serif" font-size="10.00">+ ParsePieceInternalPaths()</text>
<text text-anchor="start" x="93.09" y="-746.5" font-family="Helvetica,sans-Serif" font-size="10.00">+ ParsePieceAnchors()</text>
<text text-anchor="start" x="93.09" y="-735.5" font-family="Helvetica,sans-Serif" font-size="10.00">+ LiteParseTree()</text>
<text text-anchor="start" x="93.09" y="-724.5" font-family="Helvetica,sans-Serif" font-size="10.00">+ haveLiteChange()</text>
<text text-anchor="start" x="93.09" y="-713.5" font-family="Helvetica,sans-Serif" font-size="10.00">+ NeedFullParsing()</text>
<text text-anchor="start" x="93.09" y="-702.5" font-family="Helvetica,sans-Serif" font-size="10.00">+ ClearScene()</text>
<text text-anchor="start" x="93.09" y="-691.5" font-family="Helvetica,sans-Serif" font-size="10.00">+ updatePieceList()</text>
<text text-anchor="start" x="93.09" y="-680.5" font-family="Helvetica,sans-Serif" font-size="10.00">+ selectedPiece()</text>
<text text-anchor="start" x="93.09" y="-669.5" font-family="Helvetica,sans-Serif" font-size="10.00"># setActiveDraftBlock()</text>
<text text-anchor="start" x="93.09" y="-658.5" font-family="Helvetica,sans-Serif" font-size="10.00"># CheckTagExists()</text>
<text text-anchor="start" x="93.09" y="-647.5" font-family="Helvetica,sans-Serif" font-size="10.00"># InsertTag()</text>
<text text-anchor="start" x="93.09" y="-636.5" font-family="Helvetica,sans-Serif" font-size="10.00"># SetChildTag()</text>
<text text-anchor="start" x="93.09" y="-625.5" font-family="Helvetica,sans-Serif" font-size="10.00"># getActiveDraftBlockIndex()</text>
<text text-anchor="start" x="93.09" y="-614.5" font-family="Helvetica,sans-Serif" font-size="10.00"># getActiveDraftElement()</text>
<text text-anchor="start" x="93.09" y="-603.5" font-family="Helvetica,sans-Serif" font-size="10.00"># hasGroupItem()</text>
<text text-anchor="start" x="93.09" y="-592.5" font-family="Helvetica,sans-Serif" font-size="10.00"># ToolExists()</text>
<text text-anchor="start" x="93.09" y="-581.5" font-family="Helvetica,sans-Serif" font-size="10.00"># ParsePathNodes()</text>
<text text-anchor="start" x="93.09" y="-570.5" font-family="Helvetica,sans-Serif" font-size="10.00"># ParseSANode()</text>
<text text-anchor="start" x="93.09" y="-559.5" font-family="Helvetica,sans-Serif" font-size="10.00">&#45; listVariables()</text>
<text text-anchor="start" x="93.09" y="-548.5" font-family="Helvetica,sans-Serif" font-size="10.00">&#45; ListPointExpressions()</text>
<text text-anchor="start" x="93.09" y="-537.5" font-family="Helvetica,sans-Serif" font-size="10.00">&#45; ListArcExpressions()</text>
<text text-anchor="start" x="93.09" y="-526.5" font-family="Helvetica,sans-Serif" font-size="10.00">&#45; ListElArcExpressions()</text>
<text text-anchor="start" x="93.09" y="-515.5" font-family="Helvetica,sans-Serif" font-size="10.00">&#45; ListSplineExpressions()</text>
<text text-anchor="start" x="93.09" y="-504.5" font-family="Helvetica,sans-Serif" font-size="10.00">&#45; ListPathPointExpressions()</text>
<text text-anchor="start" x="93.09" y="-493.5" font-family="Helvetica,sans-Serif" font-size="10.00">&#45; ListOperationExpressions()</text>
<text text-anchor="start" x="93.09" y="-482.5" font-family="Helvetica,sans-Serif" font-size="10.00">&#45; ListNodesExpressions()</text>
<text text-anchor="start" x="93.09" y="-471.5" font-family="Helvetica,sans-Serif" font-size="10.00">&#45; ListPathExpressions()</text>
<text text-anchor="start" x="93.09" y="-460.5" font-family="Helvetica,sans-Serif" font-size="10.00">&#45; ListGrainlineExpressions()</text>
<text text-anchor="start" x="93.09" y="-449.5" font-family="Helvetica,sans-Serif" font-size="10.00">&#45; ListPieceExpressions()</text>
<text text-anchor="start" x="93.09" y="-438.5" font-family="Helvetica,sans-Serif" font-size="10.00">&#45; IsVariable()</text>
<text text-anchor="start" x="93.09" y="-427.5" font-family="Helvetica,sans-Serif" font-size="10.00">&#45; IsPostfixOperator()</text>
<text text-anchor="start" x="93.09" y="-416.5" font-family="Helvetica,sans-Serif" font-size="10.00">&#45; IsFunction()</text>
<text text-anchor="start" x="93.09" y="-405.5" font-family="Helvetica,sans-Serif" font-size="10.00">&#45; ParseItemElement()</text>
</a>
</g>
</g>
<!-- Node3&#45;&gt;Node5 -->
<g id="edge5" class="edge">
<title>Node3&#45;&gt;Node5</title>
<path fill="none" stroke="midnightblue" d="M46.82,-1477.57C53.82,-1431.67 66.22,-1352.07 78.09,-1284 80.8,-1268.5 83.59,-1252.73 86.44,-1236.79"/>
<polygon fill="none" stroke="midnightblue" points="43.33,-1477.25 45.28,-1487.66 50.25,-1478.3 43.33,-1477.25"/>
</g>
<!-- Node4 -->
<g id="node4" class="node">
<title>Node4</title>
<g id="a_node4"><a xlink:title=" ">
<polygon fill="white" stroke="#bfbfbf" points="265.09,-789 265.09,-846 365.09,-846 365.09,-789 265.09,-789"/>
<text text-anchor="middle" x="315.09" y="-834" font-family="Helvetica,sans-Serif" font-size="10.00">QUndoCommand</text>
<polyline fill="none" stroke="#bfbfbf" points="265.09,-827 365.09,-827 "/>
<text text-anchor="middle" x="315.09" y="-815" font-family="Helvetica,sans-Serif" font-size="10.00"> </text>
<polyline fill="none" stroke="#bfbfbf" points="265.09,-808 365.09,-808 "/>
<text text-anchor="middle" x="315.09" y="-796" font-family="Helvetica,sans-Serif" font-size="10.00"> </text>
</a>
</g>
</g>
<!-- Node4&#45;&gt;Node2 -->
<g id="edge3" class="edge">
<title>Node4&#45;&gt;Node2</title>
<path fill="none" stroke="midnightblue" d="M315.08,-778.47C313.9,-703.36 305.5,-531.65 256.09,-398 250.2,-382.07 242.31,-366.05 233.63,-350.82"/>
<polygon fill="none" stroke="midnightblue" points="311.58,-778.88 315.2,-788.84 318.58,-778.8 311.58,-778.88"/>
</g>
<!-- Node5&#45;&gt;Node2 -->
<g id="edge4" class="edge">
<title>Node5&#45;&gt;Node2</title>
<path fill="none" stroke="#404040" d="M166.09,-398.19C166.09,-385.76 166.09,-373.83 166.09,-362.52"/>
<polygon fill="none" stroke="#404040" points="166.09,-362.51 162.09,-356.51 166.09,-350.51 170.09,-356.51 166.09,-362.51"/>
<text text-anchor="middle" x="180.59" y="-372" font-family="Helvetica,sans-Serif" font-size="10.00"> #doc</text>
</g>
<!-- Node6 -->
<g id="node6" class="node">
<title>Node6</title>
<g id="a_node6"><a xlink:href="../../d6/deb/classVDomDocument.html" target="_top" xlink:title="The VDomDocument class represents a Seamly2D document (.val file).">
<polygon fill="white" stroke="black" points="87.59,-1284.5 87.59,-1748.5 244.59,-1748.5 244.59,-1284.5 87.59,-1284.5"/>
<text text-anchor="middle" x="166.09" y="-1736.5" font-family="Helvetica,sans-Serif" font-size="10.00">VDomDocument</text>
<polyline fill="none" stroke="black" points="87.59,-1729.5 244.59,-1729.5 "/>
<text text-anchor="start" x="95.59" y="-1717.5" font-family="Helvetica,sans-Serif" font-size="10.00">+ AttrId</text>
<text text-anchor="start" x="95.59" y="-1706.5" font-family="Helvetica,sans-Serif" font-size="10.00">+ AttrText</text>
<text text-anchor="start" x="95.59" y="-1695.5" font-family="Helvetica,sans-Serif" font-size="10.00">+ AttrBold</text>
<text text-anchor="start" x="95.59" y="-1684.5" font-family="Helvetica,sans-Serif" font-size="10.00">+ AttrItalic</text>
<text text-anchor="start" x="95.59" y="-1673.5" font-family="Helvetica,sans-Serif" font-size="10.00">+ AttrAlignment</text>
<text text-anchor="start" x="95.59" y="-1662.5" font-family="Helvetica,sans-Serif" font-size="10.00">+ AttrFSIncrement</text>
<text text-anchor="start" x="95.59" y="-1651.5" font-family="Helvetica,sans-Serif" font-size="10.00">+ TagVersion</text>
<text text-anchor="start" x="95.59" y="-1640.5" font-family="Helvetica,sans-Serif" font-size="10.00">+ TagUnit</text>
<text text-anchor="start" x="95.59" y="-1629.5" font-family="Helvetica,sans-Serif" font-size="10.00">+ TagLine</text>
<polyline fill="none" stroke="black" points="87.59,-1622.5 244.59,-1622.5 "/>
<text text-anchor="start" x="95.59" y="-1610.5" font-family="Helvetica,sans-Serif" font-size="10.00">+ VDomDocument()</text>
<text text-anchor="start" x="95.59" y="-1599.5" font-family="Helvetica,sans-Serif" font-size="10.00">+ ~VDomDocument()</text>
<text text-anchor="start" x="95.59" y="-1588.5" font-family="Helvetica,sans-Serif" font-size="10.00">+ elementById()</text>
<text text-anchor="start" x="95.59" y="-1577.5" font-family="Helvetica,sans-Serif" font-size="10.00">+ SetAttribute()</text>
<text text-anchor="start" x="95.59" y="-1566.5" font-family="Helvetica,sans-Serif" font-size="10.00">+ measurementUnits()</text>
<text text-anchor="start" x="95.59" y="-1555.5" font-family="Helvetica,sans-Serif" font-size="10.00">+ setXMLContent()</text>
<text text-anchor="start" x="95.59" y="-1544.5" font-family="Helvetica,sans-Serif" font-size="10.00">+ SaveDocument()</text>
<text text-anchor="start" x="95.59" y="-1533.5" font-family="Helvetica,sans-Serif" font-size="10.00">+ Major()</text>
<text text-anchor="start" x="95.59" y="-1522.5" font-family="Helvetica,sans-Serif" font-size="10.00">+ Minor()</text>
<text text-anchor="start" x="95.59" y="-1511.5" font-family="Helvetica,sans-Serif" font-size="10.00">+ Patch()</text>
<text text-anchor="start" x="95.59" y="-1500.5" font-family="Helvetica,sans-Serif" font-size="10.00">and 8 more...</text>
<text text-anchor="start" x="95.59" y="-1489.5" font-family="Helvetica,sans-Serif" font-size="10.00">+ GetParametrUInt()</text>
<text text-anchor="start" x="95.59" y="-1478.5" font-family="Helvetica,sans-Serif" font-size="10.00">+ getParameterBool()</text>
<text text-anchor="start" x="95.59" y="-1467.5" font-family="Helvetica,sans-Serif" font-size="10.00">+ GetParametrUsage()</text>
<text text-anchor="start" x="95.59" y="-1456.5" font-family="Helvetica,sans-Serif" font-size="10.00">+ SetParametrUsage()</text>
<text text-anchor="start" x="95.59" y="-1445.5" font-family="Helvetica,sans-Serif" font-size="10.00">+ GetParametrString()</text>
<text text-anchor="start" x="95.59" y="-1434.5" font-family="Helvetica,sans-Serif" font-size="10.00">+ GetParametrEmptyString()</text>
<text text-anchor="start" x="95.59" y="-1423.5" font-family="Helvetica,sans-Serif" font-size="10.00">+ GetParametrDouble()</text>
<text text-anchor="start" x="95.59" y="-1412.5" font-family="Helvetica,sans-Serif" font-size="10.00">+ getParameterId()</text>
<text text-anchor="start" x="95.59" y="-1401.5" font-family="Helvetica,sans-Serif" font-size="10.00">+ ValidateXML()</text>
<text text-anchor="start" x="95.59" y="-1390.5" font-family="Helvetica,sans-Serif" font-size="10.00">+ UnitsHelpString()</text>
<text text-anchor="start" x="95.59" y="-1379.5" font-family="Helvetica,sans-Serif" font-size="10.00">+ RemoveAllChildren()</text>
<text text-anchor="start" x="95.59" y="-1368.5" font-family="Helvetica,sans-Serif" font-size="10.00">+ SafeCopy()</text>
<text text-anchor="start" x="95.59" y="-1357.5" font-family="Helvetica,sans-Serif" font-size="10.00"># setTagText()</text>
<text text-anchor="start" x="95.59" y="-1346.5" font-family="Helvetica,sans-Serif" font-size="10.00"># setTagText()</text>
<text text-anchor="start" x="95.59" y="-1335.5" font-family="Helvetica,sans-Serif" font-size="10.00"># UniqueTagText()</text>
<text text-anchor="start" x="95.59" y="-1324.5" font-family="Helvetica,sans-Serif" font-size="10.00"># TestUniqueId()</text>
<text text-anchor="start" x="95.59" y="-1313.5" font-family="Helvetica,sans-Serif" font-size="10.00"># CollectId()</text>
<text text-anchor="start" x="95.59" y="-1302.5" font-family="Helvetica,sans-Serif" font-size="10.00">&#45; find()</text>
<text text-anchor="start" x="95.59" y="-1291.5" font-family="Helvetica,sans-Serif" font-size="10.00">&#45; SaveCanonicalXML()</text>
</a>
</g>
</g>
<!-- Node6&#45;&gt;Node5 -->
<g id="edge6" class="edge">
<title>Node6&#45;&gt;Node5</title>
<path fill="none" stroke="midnightblue" d="M166.09,-1274.12C166.09,-1261.85 166.09,-1249.39 166.09,-1236.8"/>
<polygon fill="none" stroke="midnightblue" points="162.59,-1274.38 166.09,-1284.38 169.59,-1274.38 162.59,-1274.38"/>
</g>
<!-- Node7 -->
<g id="node7" class="node">
<title>Node7</title>
<g id="a_node7"><a xlink:title=" ">
<polygon fill="white" stroke="#bfbfbf" points="37.09,-1796.5 37.09,-1853.5 135.09,-1853.5 135.09,-1796.5 37.09,-1796.5"/>
<text text-anchor="middle" x="86.09" y="-1841.5" font-family="Helvetica,sans-Serif" font-size="10.00">QDomDocument</text>
<polyline fill="none" stroke="#bfbfbf" points="37.09,-1834.5 135.09,-1834.5 "/>
<text text-anchor="middle" x="86.09" y="-1822.5" font-family="Helvetica,sans-Serif" font-size="10.00"> </text>
<polyline fill="none" stroke="#bfbfbf" points="37.09,-1815.5 135.09,-1815.5 "/>
<text text-anchor="middle" x="86.09" y="-1803.5" font-family="Helvetica,sans-Serif" font-size="10.00"> </text>
</a>
</g>
</g>
<!-- Node7&#45;&gt;Node6 -->
<g id="edge7" class="edge">
<title>Node7&#45;&gt;Node6</title>
<path fill="none" stroke="midnightblue" d="M95.91,-1786.38C98.77,-1775.45 102.11,-1762.65 105.76,-1748.67"/>
<polygon fill="none" stroke="midnightblue" points="92.47,-1785.7 93.34,-1796.26 99.25,-1787.47 92.47,-1785.7"/>
</g>
<!-- Node8 -->
<g id="node8" class="node">
<title>Node8</title>
<g id="a_node8"><a xlink:href="../../da/da1/classQHash.html" target="_top" xlink:title=" ">
<polygon fill="white" stroke="black" points="153.59,-1796.5 153.59,-1853.5 338.59,-1853.5 338.59,-1796.5 153.59,-1796.5"/>
<text text-anchor="middle" x="246.09" y="-1841.5" font-family="Helvetica,sans-Serif" font-size="10.00">QHash&lt; quint32, QDomElement &gt;</text>
<polyline fill="none" stroke="black" points="153.59,-1834.5 338.59,-1834.5 "/>
<text text-anchor="middle" x="246.09" y="-1822.5" font-family="Helvetica,sans-Serif" font-size="10.00"> </text>
<polyline fill="none" stroke="black" points="153.59,-1815.5 338.59,-1815.5 "/>
<text text-anchor="middle" x="246.09" y="-1803.5" font-family="Helvetica,sans-Serif" font-size="10.00"> </text>
</a>
</g>
</g>
<!-- Node8&#45;&gt;Node6 -->
<g id="edge8" class="edge">
<title>Node8&#45;&gt;Node6</title>
<path fill="none" stroke="#404040" d="M238.85,-1796.26C236.25,-1786.3 233.07,-1774.12 229.51,-1760.46"/>
<polygon fill="none" stroke="#404040" points="229.46,-1760.28 224.08,-1755.48 226.43,-1748.67 231.82,-1753.46 229.46,-1760.28"/>
<text text-anchor="middle" x="247.59" y="-1770" font-family="Helvetica,sans-Serif" font-size="10.00"> &#45;map</text>
</g>
<!-- Node9 -->
<g id="node9" class="node">
<title>Node9</title>
<g id="a_node9"><a xlink:href="../../da/da1/classQHash.html" target="_top" xlink:title=" ">
<polygon fill="white" stroke="black" points="263.09,-1488 263.09,-1545 435.09,-1545 435.09,-1488 263.09,-1488"/>
<text text-anchor="middle" x="349.09" y="-1533" font-family="Helvetica,sans-Serif" font-size="10.00">QHash&lt; quint32, VDataTool * &gt;</text>
<polyline fill="none" stroke="black" points="263.09,-1526 435.09,-1526 "/>
<text text-anchor="middle" x="349.09" y="-1514" font-family="Helvetica,sans-Serif" font-size="10.00"> </text>
<polyline fill="none" stroke="black" points="263.09,-1507 435.09,-1507 "/>
<text text-anchor="middle" x="349.09" y="-1495" font-family="Helvetica,sans-Serif" font-size="10.00"> </text>
</a>
</g>
</g>
<!-- Node9&#45;&gt;Node5 -->
<g id="edge9" class="edge">
<title>Node9&#45;&gt;Node5</title>
<path fill="none" stroke="#404040" d="M338.69,-1487.75C320.3,-1438.01 281.59,-1330.17 256.09,-1237 254.1,-1229.71 252.12,-1222.34 250.16,-1214.9"/>
<polygon fill="none" stroke="#404040" points="250.13,-1214.78 244.74,-1209.98 247.1,-1203.16 252.48,-1207.96 250.13,-1214.78"/>
<text text-anchor="middle" x="280.09" y="-1258" font-family="Helvetica,sans-Serif" font-size="10.00"> #tools</text>
</g>
<!-- Node10 -->
<g id="node10" class="node">
<title>Node10</title>
<g id="a_node10"><a xlink:href="../../d0/d4c/classQMap.html" target="_top" xlink:title=" ">
<polygon fill="white" stroke="black" points="453.09,-1488 453.09,-1545 619.09,-1545 619.09,-1488 453.09,-1488"/>
<text text-anchor="middle" x="536.09" y="-1533" font-family="Helvetica,sans-Serif" font-size="10.00">QMap&lt; qint32, ImageItem * &gt;</text>
<polyline fill="none" stroke="black" points="453.09,-1526 619.09,-1526 "/>
<text text-anchor="middle" x="536.09" y="-1514" font-family="Helvetica,sans-Serif" font-size="10.00"> </text>
<polyline fill="none" stroke="black" points="453.09,-1507 619.09,-1507 "/>
<text text-anchor="middle" x="536.09" y="-1495" font-family="Helvetica,sans-Serif" font-size="10.00"> </text>
</a>
</g>
</g>
<!-- Node10&#45;&gt;Node5 -->
<g id="edge10" class="edge">
<title>Node10&#45;&gt;Node5</title>
<path fill="none" stroke="#404040" d="M533.18,-1487.68C526.55,-1438.89 505.78,-1337.96 444.09,-1284 427.89,-1269.82 271.07,-1252.48 256.09,-1237 256,-1236.9 255.91,-1236.81 255.82,-1236.71"/>
<polygon fill="none" stroke="#404040" points="255.55,-1236.42 248.55,-1234.7 247.44,-1227.57 254.45,-1229.29 255.55,-1236.42"/>
<text text-anchor="middle" x="414.59" y="-1258" font-family="Helvetica,sans-Serif" font-size="10.00"> #m_imageMap</text>
</g>
</g>
</svg>
