<?xml version="1.0" encoding="UTF-8" standalone="no"?>
<!DOCTYPE svg PUBLIC "-//W3C//DTD SVG 1.1//EN"
 "http://www.w3.org/Graphics/SVG/1.1/DTD/svg11.dtd">
<!-- Generated by graphviz version 2.43.0 (0)
 -->
<!-- Title: src/libs/vpatterndb/variables/vcurveclength.h Pages: 1 -->
<svg width="5767pt" height="374pt"
 viewBox="0.00 0.00 5767.00 374.00" xmlns="http://www.w3.org/2000/svg" xmlns:xlink="http://www.w3.org/1999/xlink">
<g id="graph0" class="graph" transform="scale(1 1) rotate(0) translate(4 370)">
<title>src/libs/vpatterndb/variables/vcurveclength.h</title>
<polygon fill="white" stroke="transparent" points="-4,4 -4,-370 5763,-370 5763,4 -4,4"/>
<!-- Node1 -->
<g id="node1" class="node">
<title>Node1</title>
<g id="a_node1"><a xlink:title=" ">
<polygon fill="#bfbfbf" stroke="black" points="1304,-335.5 1304,-365.5 1450,-365.5 1450,-335.5 1304,-335.5"/>
<text text-anchor="start" x="1312" y="-353.5" font-family="Helvetica,sans-Serif" font-size="10.00">src/libs/vpatterndb</text>
<text text-anchor="middle" x="1377" y="-342.5" font-family="Helvetica,sans-Serif" font-size="10.00">/variables/vcurveclength.h</text>
</a>
</g>
</g>
<!-- Node2 -->
<g id="node2" class="node">
<title>Node2</title>
<g id="a_node2"><a xlink:href="../../d9/d15/vcurveclength_8cpp.html" target="_top" xlink:title=" ">
<polygon fill="white" stroke="black" points="1191.5,-268.5 1191.5,-298.5 1348.5,-298.5 1348.5,-268.5 1191.5,-268.5"/>
<text text-anchor="start" x="1199.5" y="-286.5" font-family="Helvetica,sans-Serif" font-size="10.00">src/libs/vpatterndb</text>
<text text-anchor="middle" x="1270" y="-275.5" font-family="Helvetica,sans-Serif" font-size="10.00">/variables/vcurveclength.cpp</text>
</a>
</g>
</g>
<!-- Node1&#45;&gt;Node2 -->
<g id="edge1" class="edge">
<title>Node1&#45;&gt;Node2</title>
<path fill="none" stroke="midnightblue" d="M1344.92,-330.02C1328.27,-319.9 1308.31,-307.77 1293.17,-298.58"/>
<polygon fill="midnightblue" stroke="midnightblue" points="1343.42,-333.2 1353.78,-335.4 1347.05,-327.21 1343.42,-333.2"/>
</g>
<!-- Node3 -->
<g id="node3" class="node">
<title>Node3</title>
<g id="a_node3"><a xlink:href="../../d6/d46/vcontainer_8cpp.html" target="_top" xlink:title=" ">
<polygon fill="white" stroke="black" points="1321.5,-67.5 1321.5,-97.5 1428.5,-97.5 1428.5,-67.5 1321.5,-67.5"/>
<text text-anchor="start" x="1329.5" y="-85.5" font-family="Helvetica,sans-Serif" font-size="10.00">src/libs/vpatterndb</text>
<text text-anchor="middle" x="1375" y="-74.5" font-family="Helvetica,sans-Serif" font-size="10.00">/vcontainer.cpp</text>
</a>
</g>
</g>
<!-- Node1&#45;&gt;Node3 -->
<g id="edge2" class="edge">
<title>Node1&#45;&gt;Node3</title>
<path fill="none" stroke="midnightblue" d="M1376.82,-325.07C1376.41,-270.57 1375.43,-140.52 1375.11,-97.55"/>
<polygon fill="midnightblue" stroke="midnightblue" points="1373.32,-325.23 1376.89,-335.2 1380.32,-325.17 1373.32,-325.23"/>
</g>
<!-- Node4 -->
<g id="node4" class="node">
<title>Node4</title>
<g id="a_node4"><a xlink:href="../../de/dca/variables_8h.html" target="_top" xlink:title=" ">
<polygon fill="white" stroke="black" points="2718.5,-268.5 2718.5,-298.5 2825.5,-298.5 2825.5,-268.5 2718.5,-268.5"/>
<text text-anchor="start" x="2726.5" y="-286.5" font-family="Helvetica,sans-Serif" font-size="10.00">src/libs/vpatterndb</text>
<text text-anchor="middle" x="2772" y="-275.5" font-family="Helvetica,sans-Serif" font-size="10.00">/variables.h</text>
</a>
</g>
</g>
<!-- Node1&#45;&gt;Node4 -->
<g id="edge3" class="edge">
<title>Node1&#45;&gt;Node4</title>
<path fill="none" stroke="midnightblue" d="M1460.12,-345.63C1718.79,-333.57 2504.93,-296.94 2718.15,-287.01"/>
<polygon fill="midnightblue" stroke="midnightblue" points="1459.86,-342.14 1450.04,-346.1 1460.19,-349.13 1459.86,-342.14"/>
</g>
<!-- Node5 -->
<g id="node5" class="node">
<title>Node5</title>
<g id="a_node5"><a xlink:href="../../d3/df7/vcontainer_8h.html" target="_top" xlink:title=" ">
<polygon fill="white" stroke="black" points="3981.5,-201.5 3981.5,-231.5 4088.5,-231.5 4088.5,-201.5 3981.5,-201.5"/>
<text text-anchor="start" x="3989.5" y="-219.5" font-family="Helvetica,sans-Serif" font-size="10.00">src/libs/vpatterndb</text>
<text text-anchor="middle" x="4035" y="-208.5" font-family="Helvetica,sans-Serif" font-size="10.00">/vcontainer.h</text>
</a>
</g>
</g>
<!-- Node4&#45;&gt;Node5 -->
<g id="edge4" class="edge">
<title>Node4&#45;&gt;Node5</title>
<path fill="none" stroke="midnightblue" d="M2835.95,-279.21C3055.74,-267.9 3777.8,-230.74 3981.23,-220.27"/>
<polygon fill="midnightblue" stroke="midnightblue" points="2835.67,-275.72 2825.87,-279.73 2836.03,-282.71 2835.67,-275.72"/>
</g>
<!-- Node5&#45;&gt;Node3 -->
<g id="edge53" class="edge">
<title>Node5&#45;&gt;Node3</title>
<path fill="none" stroke="midnightblue" d="M3971.31,-215.75C3584.26,-217.08 1560.4,-221.34 1443,-165 1413.43,-150.81 1392.1,-116.95 1381.86,-97.63"/>
<polygon fill="midnightblue" stroke="midnightblue" points="3971.5,-219.25 3981.49,-215.71 3971.47,-212.25 3971.5,-219.25"/>
</g>
<!-- Node6 -->
<g id="node6" class="node">
<title>Node6</title>
<g id="a_node6"><a xlink:href="../../d4/dd6/vmeasurements_8h.html" target="_top" xlink:title=" ">
<polygon fill="white" stroke="black" points="5418.5,-140 5418.5,-159 5603.5,-159 5603.5,-140 5418.5,-140"/>
<text text-anchor="middle" x="5511" y="-147" font-family="Helvetica,sans-Serif" font-size="10.00">src/libs/vformat/vmeasurements.h</text>
</a>
</g>
</g>
<!-- Node5&#45;&gt;Node6 -->
<g id="edge5" class="edge">
<title>Node5&#45;&gt;Node6</title>
<path fill="none" stroke="midnightblue" d="M4098.66,-213.21C4279.64,-206.61 4812.6,-186.68 5255,-165 5309.13,-162.35 5369.68,-158.94 5418.29,-156.09"/>
<polygon fill="midnightblue" stroke="midnightblue" points="4098.39,-209.71 4088.53,-213.58 4098.65,-216.71 4098.39,-209.71"/>
</g>
<!-- Node7 -->
<g id="node7" class="node">
<title>Node7</title>
<g id="a_node7"><a xlink:href="../../de/db3/vmeasurements_8cpp.html" target="_top" xlink:title=" ">
<polygon fill="white" stroke="black" points="5563,-73 5563,-92 5759,-92 5759,-73 5563,-73"/>
<text text-anchor="middle" x="5661" y="-80" font-family="Helvetica,sans-Serif" font-size="10.00">src/libs/vformat/vmeasurements.cpp</text>
</a>
</g>
</g>
<!-- Node5&#45;&gt;Node7 -->
<g id="edge7" class="edge">
<title>Node5&#45;&gt;Node7</title>
<path fill="none" stroke="midnightblue" d="M4098.66,-212.94C4244.48,-206.85 4613.86,-190.09 4922,-165 5203.53,-142.08 5273.57,-131.86 5554,-98 5569.07,-96.18 5585.32,-94.06 5600.49,-92.01"/>
<polygon fill="midnightblue" stroke="midnightblue" points="4098.4,-209.45 4088.55,-213.36 4098.69,-216.44 4098.4,-209.45"/>
</g>
<!-- Node8 -->
<g id="node8" class="node">
<title>Node8</title>
<g id="a_node8"><a xlink:href="../../d6/de0/vlayoutpiece_8h.html" target="_top" xlink:title=" ">
<polygon fill="white" stroke="black" points="601,-140 601,-159 767,-159 767,-140 601,-140"/>
<text text-anchor="middle" x="684" y="-147" font-family="Helvetica,sans-Serif" font-size="10.00">src/libs/vlayout/vlayoutpiece.h</text>
</a>
</g>
</g>
<!-- Node5&#45;&gt;Node8 -->
<g id="edge8" class="edge">
<title>Node5&#45;&gt;Node8</title>
<path fill="none" stroke="midnightblue" d="M3971.25,-214.3C3677.93,-208.77 2428.71,-185.15 1404,-165 1173.37,-160.46 901.2,-154.93 767.15,-152.2"/>
<polygon fill="midnightblue" stroke="midnightblue" points="3971.21,-217.8 3981.28,-214.49 3971.35,-210.8 3971.21,-217.8"/>
</g>
<!-- Node18 -->
<g id="node17" class="node">
<title>Node18</title>
<g id="a_node17"><a xlink:href="../../d5/d74/vabstractapplication_8h.html" target="_top" xlink:title=" ">
<polygon fill="white" stroke="red" points="3087.5,-140 3087.5,-159 3282.5,-159 3282.5,-140 3087.5,-140"/>
<text text-anchor="middle" x="3185" y="-147" font-family="Helvetica,sans-Serif" font-size="10.00">src/libs/vmisc/vabstractapplication.h</text>
</a>
</g>
</g>
<!-- Node5&#45;&gt;Node18 -->
<g id="edge19" class="edge">
<title>Node5&#45;&gt;Node18</title>
<path fill="none" stroke="midnightblue" d="M3970.94,-210.6C3823.34,-199.31 3458.55,-171.42 3282.78,-157.98"/>
<polygon fill="midnightblue" stroke="midnightblue" points="3970.95,-214.11 3981.18,-211.38 3971.48,-207.13 3970.95,-214.11"/>
</g>
<!-- Node35 -->
<g id="node30" class="node">
<title>Node35</title>
<g id="a_node30"><a xlink:href="../../d8/d70/vtextmanager_8cpp.html" target="_top" xlink:title=" ">
<polygon fill="white" stroke="black" points="5112,-73 5112,-92 5294,-92 5294,-73 5112,-73"/>
<text text-anchor="middle" x="5203" y="-80" font-family="Helvetica,sans-Serif" font-size="10.00">src/libs/vlayout/vtextmanager.cpp</text>
</a>
</g>
</g>
<!-- Node5&#45;&gt;Node35 -->
<g id="edge50" class="edge">
<title>Node5&#45;&gt;Node35</title>
<path fill="none" stroke="midnightblue" d="M3984.24,-197.45C3947.99,-181.93 3909.46,-158.27 3933,-134 3978.27,-87.31 5038.22,-103.68 5103,-98 5118.99,-96.6 5136.33,-94.35 5152,-92.03"/>
<polygon fill="midnightblue" stroke="midnightblue" points="3983.28,-200.84 3993.86,-201.41 3985.94,-194.36 3983.28,-200.84"/>
</g>
<!-- Node37 -->
<g id="node32" class="node">
<title>Node37</title>
<g id="a_node32"><a xlink:href="../../db/d11/vformula_8cpp.html" target="_top" xlink:title=" ">
<polygon fill="white" stroke="black" points="5312.5,-67.5 5312.5,-97.5 5419.5,-97.5 5419.5,-67.5 5312.5,-67.5"/>
<text text-anchor="start" x="5320.5" y="-85.5" font-family="Helvetica,sans-Serif" font-size="10.00">src/libs/vpatterndb</text>
<text text-anchor="middle" x="5366" y="-74.5" font-family="Helvetica,sans-Serif" font-size="10.00">/vformula.cpp</text>
</a>
</g>
</g>
<!-- Node5&#45;&gt;Node37 -->
<g id="edge54" class="edge">
<title>Node5&#45;&gt;Node37</title>
<path fill="none" stroke="midnightblue" d="M4002.05,-195.5C3977.78,-178.38 3952.03,-153.49 3971,-134 4022.63,-80.95 5229.57,-107.35 5303,-98 5306.01,-97.62 5309.08,-97.15 5312.17,-96.63"/>
<polygon fill="midnightblue" stroke="midnightblue" points="4000.26,-198.51 4010.5,-201.21 4004.18,-192.71 4000.26,-198.51"/>
</g>
<!-- Node38 -->
<g id="node33" class="node">
<title>Node38</title>
<g id="a_node33"><a xlink:href="../../df/d7a/vpiece_8cpp.html" target="_top" xlink:title=" ">
<polygon fill="white" stroke="black" points="5437.5,-67.5 5437.5,-97.5 5544.5,-97.5 5544.5,-67.5 5437.5,-67.5"/>
<text text-anchor="start" x="5445.5" y="-85.5" font-family="Helvetica,sans-Serif" font-size="10.00">src/libs/vpatterndb</text>
<text text-anchor="middle" x="5491" y="-74.5" font-family="Helvetica,sans-Serif" font-size="10.00">/vpiece.cpp</text>
</a>
</g>
</g>
<!-- Node5&#45;&gt;Node38 -->
<g id="edge56" class="edge">
<title>Node5&#45;&gt;Node38</title>
<path fill="none" stroke="midnightblue" d="M4015.35,-193C4002,-174.95 3989.35,-150.05 4005,-134 4060.25,-77.34 5350.51,-108.06 5429,-98 5431.74,-97.65 5434.54,-97.23 5437.35,-96.75"/>
<polygon fill="midnightblue" stroke="midnightblue" points="4012.91,-195.55 4021.84,-201.24 4018.41,-191.22 4012.91,-195.55"/>
</g>
<!-- Node40 -->
<g id="node35" class="node">
<title>Node40</title>
<g id="a_node35"><a xlink:href="../../d8/dba/vpiecenode_8cpp.html" target="_top" xlink:title=" ">
<polygon fill="white" stroke="black" points="1444.5,-0.5 1444.5,-30.5 1551.5,-30.5 1551.5,-0.5 1444.5,-0.5"/>
<text text-anchor="start" x="1452.5" y="-18.5" font-family="Helvetica,sans-Serif" font-size="10.00">src/libs/vpatterndb</text>
<text text-anchor="middle" x="1498" y="-7.5" font-family="Helvetica,sans-Serif" font-size="10.00">/vpiecenode.cpp</text>
</a>
</g>
</g>
<!-- Node5&#45;&gt;Node40 -->
<g id="edge58" class="edge">
<title>Node5&#45;&gt;Node40</title>
<path fill="none" stroke="midnightblue" d="M3971.07,-215.03C3583.74,-211.88 1564.85,-191.02 1476,-98 1458.39,-79.56 1474.88,-48.54 1487.25,-30.55"/>
<polygon fill="midnightblue" stroke="midnightblue" points="3971.22,-218.53 3981.25,-215.11 3971.28,-211.53 3971.22,-218.53"/>
</g>
<!-- Node56 -->
<g id="node45" class="node">
<title>Node56</title>
<g id="a_node45"><a xlink:href="../../d1/de1/vincrement__p_8h.html" target="_top" xlink:title=" ">
<polygon fill="white" stroke="red" points="4013.5,-134.5 4013.5,-164.5 4156.5,-164.5 4156.5,-134.5 4013.5,-134.5"/>
<text text-anchor="start" x="4021.5" y="-152.5" font-family="Helvetica,sans-Serif" font-size="10.00">src/libs/vpatterndb</text>
<text text-anchor="middle" x="4085" y="-141.5" font-family="Helvetica,sans-Serif" font-size="10.00">/variables/vincrement_p.h</text>
</a>
</g>
</g>
<!-- Node5&#45;&gt;Node56 -->
<g id="edge51" class="edge">
<title>Node5&#45;&gt;Node56</title>
<path fill="none" stroke="midnightblue" d="M4051.96,-193.45C4059.31,-183.9 4067.69,-173 4074.17,-164.58"/>
<polygon fill="midnightblue" stroke="midnightblue" points="4049.17,-191.34 4045.85,-201.4 4054.72,-195.6 4049.17,-191.34"/>
</g>
<!-- Node58 -->
<g id="node46" class="node">
<title>Node58</title>
<g id="a_node46"><a xlink:href="../../d6/dc1/vmeasurement__p_8h.html" target="_top" xlink:title=" ">
<polygon fill="white" stroke="red" points="4175,-134.5 4175,-164.5 4337,-164.5 4337,-134.5 4175,-134.5"/>
<text text-anchor="start" x="4183" y="-152.5" font-family="Helvetica,sans-Serif" font-size="10.00">src/libs/vpatterndb</text>
<text text-anchor="middle" x="4256" y="-141.5" font-family="Helvetica,sans-Serif" font-size="10.00">/variables/vmeasurement_p.h</text>
</a>
</g>
</g>
<!-- Node5&#45;&gt;Node58 -->
<g id="edge52" class="edge">
<title>Node5&#45;&gt;Node58</title>
<path fill="none" stroke="midnightblue" d="M4092.53,-198.58C4128.42,-188.02 4174.09,-174.59 4208.02,-164.61"/>
<polygon fill="midnightblue" stroke="midnightblue" points="4091.29,-195.3 4082.68,-201.48 4093.26,-202.01 4091.29,-195.3"/>
</g>
<!-- Node60 -->
<g id="node47" class="node">
<title>Node60</title>
<g id="a_node47"><a xlink:href="../../d6/d91/vnodedetail_8cpp.html" target="_top" xlink:title=" ">
<polygon fill="white" stroke="black" points="4355.5,-134.5 4355.5,-164.5 4462.5,-164.5 4462.5,-134.5 4355.5,-134.5"/>
<text text-anchor="start" x="4363.5" y="-152.5" font-family="Helvetica,sans-Serif" font-size="10.00">src/libs/vpatterndb</text>
<text text-anchor="middle" x="4409" y="-141.5" font-family="Helvetica,sans-Serif" font-size="10.00">/vnodedetail.cpp</text>
</a>
</g>
</g>
<!-- Node5&#45;&gt;Node60 -->
<g id="edge55" class="edge">
<title>Node5&#45;&gt;Node60</title>
<path fill="none" stroke="midnightblue" d="M4098.75,-206.39C4161.77,-197.1 4260.83,-181.7 4346,-165 4349.08,-164.4 4352.25,-163.75 4355.43,-163.08"/>
<polygon fill="midnightblue" stroke="midnightblue" points="4097.95,-202.97 4088.57,-207.89 4098.97,-209.9 4097.95,-202.97"/>
</g>
<!-- Node61 -->
<g id="node48" class="node">
<title>Node61</title>
<g id="a_node48"><a xlink:href="../../da/de1/vpiecepath_8cpp.html" target="_top" xlink:title=" ">
<polygon fill="white" stroke="black" points="4480.5,-134.5 4480.5,-164.5 4587.5,-164.5 4587.5,-134.5 4480.5,-134.5"/>
<text text-anchor="start" x="4488.5" y="-152.5" font-family="Helvetica,sans-Serif" font-size="10.00">src/libs/vpatterndb</text>
<text text-anchor="middle" x="4534" y="-141.5" font-family="Helvetica,sans-Serif" font-size="10.00">/vpiecepath.cpp</text>
</a>
</g>
</g>
<!-- Node5&#45;&gt;Node61 -->
<g id="edge57" class="edge">
<title>Node5&#45;&gt;Node61</title>
<path fill="none" stroke="midnightblue" d="M4098.83,-210.43C4184.23,-203.13 4340.23,-187.94 4472,-165 4474.72,-164.53 4477.5,-164.01 4480.31,-163.45"/>
<polygon fill="midnightblue" stroke="midnightblue" points="4098.44,-206.95 4088.77,-211.29 4099.03,-213.93 4098.44,-206.95"/>
</g>
<!-- Node62 -->
<g id="node49" class="node">
<title>Node62</title>
<g id="a_node49"><a xlink:href="../../d1/d3a/abstracttest_8cpp.html" target="_top" xlink:title=" ">
<polygon fill="white" stroke="black" points="4605.5,-140 4605.5,-159 4766.5,-159 4766.5,-140 4605.5,-140"/>
<text text-anchor="middle" x="4686" y="-147" font-family="Helvetica,sans-Serif" font-size="10.00">src/libs/vtest/abstracttest.cpp</text>
</a>
</g>
</g>
<!-- Node5&#45;&gt;Node62 -->
<g id="edge59" class="edge">
<title>Node5&#45;&gt;Node62</title>
<path fill="none" stroke="midnightblue" d="M4098.66,-211.28C4203.01,-204.02 4416.88,-187.74 4597,-165 4610.2,-163.33 4624.45,-161.18 4637.59,-159.04"/>
<polygon fill="midnightblue" stroke="midnightblue" points="4098.34,-207.79 4088.61,-211.97 4098.82,-214.77 4098.34,-207.79"/>
</g>
<!-- Node63 -->
<g id="node50" class="node">
<title>Node63</title>
<g id="a_node50"><a xlink:href="../../da/db4/piece__tablewidgetitem_8cpp.html" target="_top" xlink:title=" ">
<polygon fill="white" stroke="black" points="4785,-134.5 4785,-164.5 4913,-164.5 4913,-134.5 4785,-134.5"/>
<text text-anchor="start" x="4793" y="-152.5" font-family="Helvetica,sans-Serif" font-size="10.00">src/libs/vwidgets/piece</text>
<text text-anchor="middle" x="4849" y="-141.5" font-family="Helvetica,sans-Serif" font-size="10.00">_tablewidgetitem.cpp</text>
</a>
</g>
</g>
<!-- Node5&#45;&gt;Node63 -->
<g id="edge60" class="edge">
<title>Node5&#45;&gt;Node63</title>
<path fill="none" stroke="midnightblue" d="M4098.77,-213.9C4227.37,-210.08 4526.79,-198.1 4776,-165 4778.95,-164.61 4781.95,-164.17 4784.98,-163.7"/>
<polygon fill="midnightblue" stroke="midnightblue" points="4098.6,-210.41 4088.7,-214.2 4098.8,-217.4 4098.6,-210.41"/>
</g>
<!-- Node6&#45;&gt;Node7 -->
<g id="edge6" class="edge">
<title>Node6&#45;&gt;Node7</title>
<path fill="none" stroke="midnightblue" d="M5540.35,-135.78C5570.06,-122.91 5615.18,-103.35 5641,-92.17"/>
<polygon fill="midnightblue" stroke="midnightblue" points="5538.7,-132.68 5530.92,-139.87 5541.49,-139.1 5538.7,-132.68"/>
</g>
<!-- Node9 -->
<g id="node9" class="node">
<title>Node9</title>
<g id="a_node9"><a xlink:href="../../dd/d66/vdxfengine_8cpp.html" target="_top" xlink:title=" ">
<polygon fill="white" stroke="black" points="792,-73 792,-92 946,-92 946,-73 792,-73"/>
<text text-anchor="middle" x="869" y="-80" font-family="Helvetica,sans-Serif" font-size="10.00">src/libs/vdxf/vdxfengine.cpp</text>
</a>
</g>
</g>
<!-- Node8&#45;&gt;Node9 -->
<g id="edge9" class="edge">
<title>Node8&#45;&gt;Node9</title>
<path fill="none" stroke="midnightblue" d="M718.34,-136.44C755.04,-123.54 812.29,-103.42 844.63,-92.06"/>
<polygon fill="midnightblue" stroke="midnightblue" points="716.84,-133.25 708.57,-139.87 719.16,-139.86 716.84,-133.25"/>
</g>
<!-- Node10 -->
<g id="node10" class="node">
<title>Node10</title>
<g id="a_node10"><a xlink:href="../../de/da8/vbank_8cpp.html" target="_top" xlink:title=" ">
<polygon fill="white" stroke="black" points="964,-73 964,-92 1108,-92 1108,-73 964,-73"/>
<text text-anchor="middle" x="1036" y="-80" font-family="Helvetica,sans-Serif" font-size="10.00">src/libs/vlayout/vbank.cpp</text>
</a>
</g>
</g>
<!-- Node8&#45;&gt;Node10 -->
<g id="edge10" class="edge">
<title>Node8&#45;&gt;Node10</title>
<path fill="none" stroke="midnightblue" d="M740.23,-138.12C809.42,-125.34 925.57,-103.89 989.8,-92.03"/>
<polygon fill="midnightblue" stroke="midnightblue" points="739.58,-134.68 730.38,-139.94 740.85,-141.56 739.58,-134.68"/>
</g>
<!-- Node11 -->
<g id="node11" class="node">
<title>Node11</title>
<g id="a_node11"><a xlink:href="../../df/d5d/vcontour_8cpp.html" target="_top" xlink:title=" ">
<polygon fill="white" stroke="black" points="0,-73 0,-92 156,-92 156,-73 0,-73"/>
<text text-anchor="middle" x="78" y="-80" font-family="Helvetica,sans-Serif" font-size="10.00">src/libs/vlayout/vcontour.cpp</text>
</a>
</g>
</g>
<!-- Node8&#45;&gt;Node11 -->
<g id="edge11" class="edge">
<title>Node8&#45;&gt;Node11</title>
<path fill="none" stroke="midnightblue" d="M590.49,-141.33C486.41,-132.9 313.31,-117.55 165,-98 152.25,-96.32 138.5,-94.18 125.78,-92.06"/>
<polygon fill="midnightblue" stroke="midnightblue" points="590.41,-144.84 600.65,-142.15 590.97,-137.86 590.41,-144.84"/>
</g>
<!-- Node12 -->
<g id="node12" class="node">
<title>Node12</title>
<g id="a_node12"><a xlink:href="../../d3/d39/vlayoutgenerator_8cpp.html" target="_top" xlink:title=" ">
<polygon fill="white" stroke="black" points="174.5,-73 174.5,-92 371.5,-92 371.5,-73 174.5,-73"/>
<text text-anchor="middle" x="273" y="-80" font-family="Helvetica,sans-Serif" font-size="10.00">src/libs/vlayout/vlayoutgenerator.cpp</text>
</a>
</g>
</g>
<!-- Node8&#45;&gt;Node12 -->
<g id="edge12" class="edge">
<title>Node8&#45;&gt;Node12</title>
<path fill="none" stroke="midnightblue" d="M619.82,-138.35C539.23,-125.6 402.4,-103.96 326.95,-92.03"/>
<polygon fill="midnightblue" stroke="midnightblue" points="619.42,-141.83 629.85,-139.94 620.52,-134.92 619.42,-141.83"/>
</g>
<!-- Node13 -->
<g id="node13" class="node">
<title>Node13</title>
<g id="a_node13"><a xlink:href="../../d1/dd1/vlayoutpaper_8cpp.html" target="_top" xlink:title=" ">
<polygon fill="white" stroke="black" points="477,-6 477,-25 655,-25 655,-6 477,-6"/>
<text text-anchor="middle" x="566" y="-13" font-family="Helvetica,sans-Serif" font-size="10.00">src/libs/vlayout/vlayoutpaper.cpp</text>
</a>
</g>
</g>
<!-- Node8&#45;&gt;Node13 -->
<g id="edge13" class="edge">
<title>Node8&#45;&gt;Node13</title>
<path fill="none" stroke="midnightblue" d="M642.1,-136.38C622.03,-128.53 599.31,-116.28 585,-98 567.81,-76.03 565.72,-41.17 565.75,-25.12"/>
<polygon fill="midnightblue" stroke="midnightblue" points="641.1,-139.74 651.7,-139.89 643.51,-133.17 641.1,-139.74"/>
</g>
<!-- Node14 -->
<g id="node14" class="node">
<title>Node14</title>
<g id="a_node14"><a xlink:href="../../d2/d2d/vlayoutpaper__p_8h.html" target="_top" xlink:title=" ">
<polygon fill="white" stroke="black" points="594.5,-73 594.5,-92 773.5,-92 773.5,-73 594.5,-73"/>
<text text-anchor="middle" x="684" y="-80" font-family="Helvetica,sans-Serif" font-size="10.00">src/libs/vlayout/vlayoutpaper_p.h</text>
</a>
</g>
</g>
<!-- Node8&#45;&gt;Node14 -->
<g id="edge14" class="edge">
<title>Node8&#45;&gt;Node14</title>
<path fill="none" stroke="midnightblue" d="M684,-129.54C684,-117.17 684,-101.62 684,-92.13"/>
<polygon fill="midnightblue" stroke="midnightblue" points="680.5,-129.73 684,-139.73 687.5,-129.73 680.5,-129.73"/>
</g>
<!-- Node15 -->
<g id="node15" class="node">
<title>Node15</title>
<g id="a_node15"><a xlink:href="../../dd/d70/vlayoutpiece_8cpp.html" target="_top" xlink:title=" ">
<polygon fill="white" stroke="black" points="1126.5,-73 1126.5,-92 1303.5,-92 1303.5,-73 1126.5,-73"/>
<text text-anchor="middle" x="1215" y="-80" font-family="Helvetica,sans-Serif" font-size="10.00">src/libs/vlayout/vlayoutpiece.cpp</text>
</a>
</g>
</g>
<!-- Node8&#45;&gt;Node15 -->
<g id="edge16" class="edge">
<title>Node8&#45;&gt;Node15</title>
<path fill="none" stroke="midnightblue" d="M773.67,-138.86C861.31,-129.24 998.46,-113.68 1117,-98 1130.81,-96.17 1145.69,-94.05 1159.59,-92"/>
<polygon fill="midnightblue" stroke="midnightblue" points="773.06,-135.4 763.5,-139.97 773.82,-142.36 773.06,-135.4"/>
</g>
<!-- Node16 -->
<g id="node16" class="node">
<title>Node16</title>
<g id="a_node16"><a xlink:href="../../db/d5c/vposition_8h.html" target="_top" xlink:title=" ">
<polygon fill="white" stroke="red" points="390,-73 390,-92 538,-92 538,-73 390,-73"/>
<text text-anchor="middle" x="464" y="-80" font-family="Helvetica,sans-Serif" font-size="10.00">src/libs/vlayout/vposition.h</text>
</a>
</g>
</g>
<!-- Node8&#45;&gt;Node16 -->
<g id="edge17" class="edge">
<title>Node8&#45;&gt;Node16</title>
<path fill="none" stroke="midnightblue" d="M645.11,-137.01C601.57,-124.15 532.01,-103.59 492.98,-92.06"/>
<polygon fill="midnightblue" stroke="midnightblue" points="644.2,-140.39 654.79,-139.87 646.19,-133.68 644.2,-140.39"/>
</g>
<!-- Node14&#45;&gt;Node13 -->
<g id="edge15" class="edge">
<title>Node14&#45;&gt;Node13</title>
<path fill="none" stroke="midnightblue" d="M659.11,-67.79C635.72,-54.9 601.44,-36.02 581.66,-25.13"/>
<polygon fill="midnightblue" stroke="midnightblue" points="657.64,-70.97 668.09,-72.73 661.02,-64.84 657.64,-70.97"/>
</g>
<!-- Node16&#45;&gt;Node13 -->
<g id="edge18" class="edge">
<title>Node16&#45;&gt;Node13</title>
<path fill="none" stroke="midnightblue" d="M486.33,-67.27C506.52,-54.4 535.59,-35.88 552.46,-25.13"/>
<polygon fill="midnightblue" stroke="midnightblue" points="484.31,-64.41 477.76,-72.73 488.07,-70.31 484.31,-64.41"/>
</g>
<!-- Node18&#45;&gt;Node3 -->
<g id="edge36" class="edge">
<title>Node18&#45;&gt;Node3</title>
<path fill="none" stroke="midnightblue" d="M3077.03,-146.91C2752.49,-141.87 1788.94,-125 1476,-98 1460.56,-96.67 1443.87,-94.55 1428.6,-92.34"/>
<polygon fill="midnightblue" stroke="midnightblue" points="3077.32,-150.41 3087.37,-147.07 3077.43,-143.41 3077.32,-150.41"/>
</g>
<!-- Node18&#45;&gt;Node15 -->
<g id="edge30" class="edge">
<title>Node18&#45;&gt;Node15</title>
<path fill="none" stroke="midnightblue" d="M3077.21,-147.32C2732.35,-143.26 1658.36,-128.44 1312,-98 1296.39,-96.63 1279.48,-94.37 1264.21,-92.04"/>
<polygon fill="midnightblue" stroke="midnightblue" points="3077.41,-150.82 3087.45,-147.44 3077.49,-143.82 3077.41,-150.82"/>
</g>
<!-- Node19 -->
<g id="node18" class="node">
<title>Node19</title>
<g id="a_node18"><a xlink:href="../../d4/d90/fvupdater_8cpp.html" target="_top" xlink:title=" ">
<polygon fill="white" stroke="black" points="4662.5,-73 4662.5,-92 4815.5,-92 4815.5,-73 4662.5,-73"/>
<text text-anchor="middle" x="4739" y="-80" font-family="Helvetica,sans-Serif" font-size="10.00">src/libs/fervor/fvupdater.cpp</text>
</a>
</g>
</g>
<!-- Node18&#45;&gt;Node19 -->
<g id="edge20" class="edge">
<title>Node18&#45;&gt;Node19</title>
<path fill="none" stroke="midnightblue" d="M3292.77,-146.65C3585.16,-141.33 4389.17,-124.66 4653,-98 4666.86,-96.6 4681.86,-94.33 4695.4,-92"/>
<polygon fill="midnightblue" stroke="midnightblue" points="3292.52,-143.15 3282.58,-146.83 3292.64,-150.15 3292.52,-143.15"/>
</g>
<!-- Node20 -->
<g id="node19" class="node">
<title>Node20</title>
<g id="a_node19"><a xlink:href="../../d9/dc8/dxiface_8cpp.html" target="_top" xlink:title=" ">
<polygon fill="white" stroke="black" points="4833.5,-73 4833.5,-92 4968.5,-92 4968.5,-73 4833.5,-73"/>
<text text-anchor="middle" x="4901" y="-80" font-family="Helvetica,sans-Serif" font-size="10.00">src/libs/vdxf/dxiface.cpp</text>
</a>
</g>
</g>
<!-- Node18&#45;&gt;Node20 -->
<g id="edge21" class="edge">
<title>Node18&#45;&gt;Node20</title>
<path fill="none" stroke="midnightblue" d="M3292.66,-146.17C3633.27,-138.67 4673.81,-114.65 4825,-98 4837.28,-96.65 4850.55,-94.39 4862.52,-92.06"/>
<polygon fill="midnightblue" stroke="midnightblue" points="3292.47,-142.68 3282.55,-146.39 3292.62,-149.67 3292.47,-142.68"/>
</g>
<!-- Node21 -->
<g id="node20" class="node">
<title>Node21</title>
<g id="a_node20"><a xlink:href="../../da/d75/vabstractarc__p_8h.html" target="_top" xlink:title=" ">
<polygon fill="white" stroke="red" points="4986.5,-67.5 4986.5,-97.5 5093.5,-97.5 5093.5,-67.5 4986.5,-67.5"/>
<text text-anchor="start" x="4994.5" y="-85.5" font-family="Helvetica,sans-Serif" font-size="10.00">src/libs/vgeometry</text>
<text text-anchor="middle" x="5040" y="-74.5" font-family="Helvetica,sans-Serif" font-size="10.00">/vabstractarc_p.h</text>
</a>
</g>
</g>
<!-- Node18&#45;&gt;Node21 -->
<g id="edge22" class="edge">
<title>Node18&#45;&gt;Node21</title>
<path fill="none" stroke="midnightblue" d="M3292.82,-146.06C3667.43,-137.52 4894.34,-108.85 4978,-98 4980.74,-97.64 4983.54,-97.22 4986.35,-96.74"/>
<polygon fill="midnightblue" stroke="midnightblue" points="3292.7,-142.56 3282.79,-146.29 3292.86,-149.56 3292.7,-142.56"/>
</g>
<!-- Node23 -->
<g id="node21" class="node">
<title>Node23</title>
<g id="a_node21"><a xlink:href="../../dc/da3/varc__p_8h.html" target="_top" xlink:title=" ">
<polygon fill="white" stroke="red" points="1610.5,-67.5 1610.5,-97.5 1717.5,-97.5 1717.5,-67.5 1610.5,-67.5"/>
<text text-anchor="start" x="1618.5" y="-85.5" font-family="Helvetica,sans-Serif" font-size="10.00">src/libs/vgeometry</text>
<text text-anchor="middle" x="1664" y="-74.5" font-family="Helvetica,sans-Serif" font-size="10.00">/varc_p.h</text>
</a>
</g>
</g>
<!-- Node18&#45;&gt;Node23 -->
<g id="edge23" class="edge">
<title>Node18&#45;&gt;Node23</title>
<path fill="none" stroke="midnightblue" d="M3077.28,-147.5C2785.98,-144.35 1987.1,-132.71 1726,-98 1723.26,-97.64 1720.46,-97.2 1717.65,-96.72"/>
<polygon fill="midnightblue" stroke="midnightblue" points="3077.38,-151 3087.42,-147.6 3077.46,-144 3077.38,-151"/>
</g>
<!-- Node25 -->
<g id="node22" class="node">
<title>Node25</title>
<g id="a_node22"><a xlink:href="../../d5/d8e/vcubicbezier__p_8h.html" target="_top" xlink:title=" ">
<polygon fill="white" stroke="red" points="1735.5,-67.5 1735.5,-97.5 1842.5,-97.5 1842.5,-67.5 1735.5,-67.5"/>
<text text-anchor="start" x="1743.5" y="-85.5" font-family="Helvetica,sans-Serif" font-size="10.00">src/libs/vgeometry</text>
<text text-anchor="middle" x="1789" y="-74.5" font-family="Helvetica,sans-Serif" font-size="10.00">/vcubicbezier_p.h</text>
</a>
</g>
</g>
<!-- Node18&#45;&gt;Node25 -->
<g id="edge24" class="edge">
<title>Node18&#45;&gt;Node25</title>
<path fill="none" stroke="midnightblue" d="M3076.77,-146.79C2803.72,-142.08 2091.94,-127.29 1857,-98 1852.33,-97.42 1847.5,-96.68 1842.68,-95.84"/>
<polygon fill="midnightblue" stroke="midnightblue" points="3077.02,-150.29 3087.08,-146.96 3077.14,-143.29 3077.02,-150.29"/>
</g>
<!-- Node27 -->
<g id="node23" class="node">
<title>Node27</title>
<g id="a_node23"><a xlink:href="../../df/dde/vellipticalarc__p_8h.html" target="_top" xlink:title=" ">
<polygon fill="white" stroke="black" points="2739.5,-67.5 2739.5,-97.5 2846.5,-97.5 2846.5,-67.5 2739.5,-67.5"/>
<text text-anchor="start" x="2747.5" y="-85.5" font-family="Helvetica,sans-Serif" font-size="10.00">src/libs/vgeometry</text>
<text text-anchor="middle" x="2793" y="-74.5" font-family="Helvetica,sans-Serif" font-size="10.00">/vellipticalarc_p.h</text>
</a>
</g>
</g>
<!-- Node18&#45;&gt;Node27 -->
<g id="edge25" class="edge">
<title>Node18&#45;&gt;Node27</title>
<path fill="none" stroke="midnightblue" d="M3109.25,-138.62C3042.18,-129.46 2941.74,-114.75 2855,-98 2852.29,-97.48 2849.51,-96.92 2846.71,-96.33"/>
<polygon fill="midnightblue" stroke="midnightblue" points="3108.93,-142.11 3119.31,-139.98 3109.87,-135.17 3108.93,-142.11"/>
</g>
<!-- Node28 -->
<g id="node24" class="node">
<title>Node28</title>
<g id="a_node24"><a xlink:href="../../d6/dfb/vellipticalarc_8cpp.html" target="_top" xlink:title=" ">
<polygon fill="white" stroke="black" points="2278.5,-0.5 2278.5,-30.5 2385.5,-30.5 2385.5,-0.5 2278.5,-0.5"/>
<text text-anchor="start" x="2286.5" y="-18.5" font-family="Helvetica,sans-Serif" font-size="10.00">src/libs/vgeometry</text>
<text text-anchor="middle" x="2332" y="-7.5" font-family="Helvetica,sans-Serif" font-size="10.00">/vellipticalarc.cpp</text>
</a>
</g>
</g>
<!-- Node18&#45;&gt;Node28 -->
<g id="edge27" class="edge">
<title>Node18&#45;&gt;Node28</title>
<path fill="none" stroke="midnightblue" d="M3077.17,-148.31C2773.57,-147.26 1930.88,-140.5 1890,-98 1880.45,-88.07 1880.83,-77.28 1890,-67 1915.45,-38.47 2165.94,-23.86 2278.14,-18.71"/>
<polygon fill="midnightblue" stroke="midnightblue" points="3077.3,-151.81 3087.31,-148.35 3077.32,-144.81 3077.3,-151.81"/>
</g>
<!-- Node29 -->
<g id="node25" class="node">
<title>Node29</title>
<g id="a_node25"><a xlink:href="../../d1/d76/vspline__p_8h.html" target="_top" xlink:title=" ">
<polygon fill="white" stroke="red" points="1899.5,-67.5 1899.5,-97.5 2006.5,-97.5 2006.5,-67.5 1899.5,-67.5"/>
<text text-anchor="start" x="1907.5" y="-85.5" font-family="Helvetica,sans-Serif" font-size="10.00">src/libs/vgeometry</text>
<text text-anchor="middle" x="1953" y="-74.5" font-family="Helvetica,sans-Serif" font-size="10.00">/vspline_p.h</text>
</a>
</g>
</g>
<!-- Node18&#45;&gt;Node29 -->
<g id="edge28" class="edge">
<title>Node18&#45;&gt;Node29</title>
<path fill="none" stroke="midnightblue" d="M3076.95,-146.36C2827.83,-141.02 2219.02,-125.51 2016,-98 2013,-97.59 2009.93,-97.11 2006.84,-96.57"/>
<polygon fill="midnightblue" stroke="midnightblue" points="3077.02,-149.86 3087.1,-146.58 3077.17,-142.87 3077.02,-149.86"/>
</g>
<!-- Node31 -->
<g id="node26" class="node">
<title>Node31</title>
<g id="a_node26"><a xlink:href="../../d9/d15/vabstractpiece_8cpp.html" target="_top" xlink:title=" ">
<polygon fill="white" stroke="black" points="2025,-73 2025,-92 2211,-92 2211,-73 2025,-73"/>
<text text-anchor="middle" x="2118" y="-80" font-family="Helvetica,sans-Serif" font-size="10.00">src/libs/vlayout/vabstractpiece.cpp</text>
</a>
</g>
</g>
<!-- Node18&#45;&gt;Node31 -->
<g id="edge29" class="edge">
<title>Node18&#45;&gt;Node31</title>
<path fill="none" stroke="midnightblue" d="M3077,-145.98C2898.35,-141.11 2530.2,-128.1 2220,-98 2204.24,-96.47 2187.19,-94.27 2171.62,-92.04"/>
<polygon fill="midnightblue" stroke="midnightblue" points="3077.1,-149.48 3087.19,-146.25 3077.29,-142.49 3077.1,-149.48"/>
</g>
<!-- Node32 -->
<g id="node27" class="node">
<title>Node32</title>
<g id="a_node27"><a xlink:href="../../db/d65/dialogexporttocsv_8cpp.html" target="_top" xlink:title=" ">
<polygon fill="white" stroke="black" points="2229.5,-67.5 2229.5,-97.5 2356.5,-97.5 2356.5,-67.5 2229.5,-67.5"/>
<text text-anchor="start" x="2237.5" y="-85.5" font-family="Helvetica,sans-Serif" font-size="10.00">src/libs/vmisc/dialogs</text>
<text text-anchor="middle" x="2293" y="-74.5" font-family="Helvetica,sans-Serif" font-size="10.00">/dialogexporttocsv.cpp</text>
</a>
</g>
</g>
<!-- Node18&#45;&gt;Node32 -->
<g id="edge31" class="edge">
<title>Node18&#45;&gt;Node32</title>
<path fill="none" stroke="midnightblue" d="M3077.07,-146.46C2920,-142.45 2619.5,-130.84 2366,-98 2362.92,-97.6 2359.78,-97.15 2356.62,-96.66"/>
<polygon fill="midnightblue" stroke="midnightblue" points="3077.12,-149.97 3087.21,-146.72 3077.3,-142.97 3077.12,-149.97"/>
</g>
<!-- Node33 -->
<g id="node28" class="node">
<title>Node33</title>
<g id="a_node28"><a xlink:href="../../d6/d0b/def_8cpp.html" target="_top" xlink:title=" ">
<polygon fill="white" stroke="black" points="2375,-73 2375,-92 2497,-92 2497,-73 2375,-73"/>
<text text-anchor="middle" x="2436" y="-80" font-family="Helvetica,sans-Serif" font-size="10.00">src/libs/vmisc/def.cpp</text>
</a>
</g>
</g>
<!-- Node18&#45;&gt;Node33 -->
<g id="edge32" class="edge">
<title>Node18&#45;&gt;Node33</title>
<path fill="none" stroke="midnightblue" d="M3077.02,-144.8C2942.68,-139.21 2706.52,-126.1 2506,-98 2495.06,-96.47 2483.27,-94.25 2472.54,-92"/>
<polygon fill="midnightblue" stroke="midnightblue" points="3077.18,-148.31 3087.31,-145.22 3077.47,-141.32 3077.18,-148.31"/>
</g>
<!-- Node34 -->
<g id="node29" class="node">
<title>Node34</title>
<g id="a_node29"><a xlink:href="../../d0/df6/vabstractapplication_8cpp.html" target="_top" xlink:title=" ">
<polygon fill="white" stroke="black" points="2515,-73 2515,-92 2721,-92 2721,-73 2515,-73"/>
<text text-anchor="middle" x="2618" y="-80" font-family="Helvetica,sans-Serif" font-size="10.00">src/libs/vmisc/vabstractapplication.cpp</text>
</a>
</g>
</g>
<!-- Node18&#45;&gt;Node34 -->
<g id="edge33" class="edge">
<title>Node18&#45;&gt;Node34</title>
<path fill="none" stroke="midnightblue" d="M3093.89,-138.88C3001.99,-129.06 2856.07,-113.16 2730,-98 2714.52,-96.14 2697.86,-94.04 2682.24,-92.02"/>
<polygon fill="midnightblue" stroke="midnightblue" points="3093.68,-142.38 3103.99,-139.96 3094.42,-135.42 3093.68,-142.38"/>
</g>
<!-- Node18&#45;&gt;Node35 -->
<g id="edge34" class="edge">
<title>Node18&#45;&gt;Node35</title>
<path fill="none" stroke="midnightblue" d="M3292.65,-146.41C3670.48,-138.96 4922.98,-113.37 5103,-98 5119.08,-96.63 5136.52,-94.37 5152.26,-92.04"/>
<polygon fill="midnightblue" stroke="midnightblue" points="3292.47,-142.91 3282.54,-146.61 3292.61,-149.91 3292.47,-142.91"/>
</g>
<!-- Node36 -->
<g id="node31" class="node">
<title>Node36</title>
<g id="a_node31"><a xlink:href="../../d4/d4f/pmsystems_8cpp.html" target="_top" xlink:title=" ">
<polygon fill="white" stroke="black" points="2864.5,-67.5 2864.5,-97.5 2971.5,-97.5 2971.5,-67.5 2864.5,-67.5"/>
<text text-anchor="start" x="2872.5" y="-85.5" font-family="Helvetica,sans-Serif" font-size="10.00">src/libs/vpatterndb</text>
<text text-anchor="middle" x="2918" y="-74.5" font-family="Helvetica,sans-Serif" font-size="10.00">/pmsystems.cpp</text>
</a>
</g>
</g>
<!-- Node18&#45;&gt;Node36 -->
<g id="edge35" class="edge">
<title>Node18&#45;&gt;Node36</title>
<path fill="none" stroke="midnightblue" d="M3140.04,-137.55C3093.61,-126.25 3021.16,-108.61 2971.74,-96.58"/>
<polygon fill="midnightblue" stroke="midnightblue" points="3139.28,-140.97 3149.82,-139.94 3140.93,-134.17 3139.28,-140.97"/>
</g>
<!-- Node18&#45;&gt;Node37 -->
<g id="edge37" class="edge">
<title>Node18&#45;&gt;Node37</title>
<path fill="none" stroke="midnightblue" d="M3292.87,-146.22C3717.44,-137.22 5252.7,-104.32 5303,-98 5306.01,-97.62 5309.08,-97.16 5312.17,-96.64"/>
<polygon fill="midnightblue" stroke="midnightblue" points="3292.67,-142.73 3282.74,-146.44 3292.81,-149.73 3292.67,-142.73"/>
</g>
<!-- Node18&#45;&gt;Node38 -->
<g id="edge38" class="edge">
<title>Node18&#45;&gt;Node38</title>
<path fill="none" stroke="midnightblue" d="M3292.96,-146.37C3733.64,-137.65 5375.47,-104.79 5429,-98 5431.74,-97.65 5434.54,-97.23 5437.36,-96.76"/>
<polygon fill="midnightblue" stroke="midnightblue" points="3292.7,-142.88 3282.77,-146.57 3292.84,-149.88 3292.7,-142.88"/>
</g>
<!-- Node39 -->
<g id="node34" class="node">
<title>Node39</title>
<g id="a_node34"><a xlink:href="../../df/dba/vpiecenode__p_8h.html" target="_top" xlink:title=" ">
<polygon fill="white" stroke="black" points="1485.5,-67.5 1485.5,-97.5 1592.5,-97.5 1592.5,-67.5 1485.5,-67.5"/>
<text text-anchor="start" x="1493.5" y="-85.5" font-family="Helvetica,sans-Serif" font-size="10.00">src/libs/vpatterndb</text>
<text text-anchor="middle" x="1539" y="-74.5" font-family="Helvetica,sans-Serif" font-size="10.00">/vpiecenode_p.h</text>
</a>
</g>
</g>
<!-- Node18&#45;&gt;Node39 -->
<g id="edge39" class="edge">
<title>Node18&#45;&gt;Node39</title>
<path fill="none" stroke="midnightblue" d="M3077.1,-147.84C2768.71,-145.51 1887.25,-135.66 1601,-98 1598.26,-97.64 1595.46,-97.21 1592.65,-96.73"/>
<polygon fill="midnightblue" stroke="midnightblue" points="3077.36,-151.34 3087.39,-147.92 3077.42,-144.34 3077.36,-151.34"/>
</g>
<!-- Node41 -->
<g id="node36" class="node">
<title>Node41</title>
<g id="a_node36"><a xlink:href="../../de/d3e/vtranslatevars_8cpp.html" target="_top" xlink:title=" ">
<polygon fill="white" stroke="black" points="2990,-67.5 2990,-97.5 3100,-97.5 3100,-67.5 2990,-67.5"/>
<text text-anchor="start" x="2998" y="-85.5" font-family="Helvetica,sans-Serif" font-size="10.00">src/libs/vpatterndb</text>
<text text-anchor="middle" x="3045" y="-74.5" font-family="Helvetica,sans-Serif" font-size="10.00">/vtranslatevars.cpp</text>
</a>
</g>
</g>
<!-- Node18&#45;&gt;Node41 -->
<g id="edge41" class="edge">
<title>Node18&#45;&gt;Node41</title>
<path fill="none" stroke="midnightblue" d="M3157.26,-135.62C3133.58,-124.63 3099.58,-108.84 3075.21,-97.53"/>
<polygon fill="midnightblue" stroke="midnightblue" points="3155.87,-138.83 3166.41,-139.87 3158.81,-132.48 3155.87,-138.83"/>
</g>
<!-- Node42 -->
<g id="node37" class="node">
<title>Node42</title>
<g id="a_node37"><a xlink:href="../../df/d40/export__format__combobox_8cpp.html" target="_top" xlink:title=" ">
<polygon fill="white" stroke="black" points="3118.5,-67.5 3118.5,-97.5 3251.5,-97.5 3251.5,-67.5 3118.5,-67.5"/>
<text text-anchor="start" x="3126.5" y="-85.5" font-family="Helvetica,sans-Serif" font-size="10.00">src/libs/vwidgets/export</text>
<text text-anchor="middle" x="3185" y="-74.5" font-family="Helvetica,sans-Serif" font-size="10.00">_format_combobox.cpp</text>
</a>
</g>
</g>
<!-- Node18&#45;&gt;Node42 -->
<g id="edge42" class="edge">
<title>Node18&#45;&gt;Node42</title>
<path fill="none" stroke="midnightblue" d="M3185,-129.41C3185,-119.22 3185,-106.9 3185,-97.59"/>
<polygon fill="midnightblue" stroke="midnightblue" points="3181.5,-129.73 3185,-139.73 3188.5,-129.73 3181.5,-129.73"/>
</g>
<!-- Node43 -->
<g id="node38" class="node">
<title>Node43</title>
<g id="a_node38"><a xlink:href="../../d3/d4f/mouse__coordinates_8cpp.html" target="_top" xlink:title=" ">
<polygon fill="white" stroke="black" points="3270,-67.5 3270,-97.5 3404,-97.5 3404,-67.5 3270,-67.5"/>
<text text-anchor="start" x="3278" y="-85.5" font-family="Helvetica,sans-Serif" font-size="10.00">src/libs/vwidgets/mouse</text>
<text text-anchor="middle" x="3337" y="-74.5" font-family="Helvetica,sans-Serif" font-size="10.00">_coordinates.cpp</text>
</a>
</g>
</g>
<!-- Node18&#45;&gt;Node43 -->
<g id="edge43" class="edge">
<title>Node18&#45;&gt;Node43</title>
<path fill="none" stroke="midnightblue" d="M3214.43,-135.91C3240.17,-124.91 3277.51,-108.94 3304.2,-97.53"/>
<polygon fill="midnightblue" stroke="midnightblue" points="3213,-132.72 3205.18,-139.87 3215.76,-139.15 3213,-132.72"/>
</g>
<!-- Node44 -->
<g id="node39" class="node">
<title>Node44</title>
<g id="a_node39"><a xlink:href="../../d7/d1b/pen__toolbar_8cpp.html" target="_top" xlink:title=" ">
<polygon fill="white" stroke="black" points="3422.5,-67.5 3422.5,-97.5 3541.5,-97.5 3541.5,-67.5 3422.5,-67.5"/>
<text text-anchor="start" x="3430.5" y="-85.5" font-family="Helvetica,sans-Serif" font-size="10.00">src/libs/vwidgets/pen</text>
<text text-anchor="middle" x="3482" y="-74.5" font-family="Helvetica,sans-Serif" font-size="10.00">_toolbar.cpp</text>
</a>
</g>
</g>
<!-- Node18&#45;&gt;Node44 -->
<g id="edge44" class="edge">
<title>Node18&#45;&gt;Node44</title>
<path fill="none" stroke="midnightblue" d="M3234.04,-137.77C3285.65,-126.47 3366.91,-108.69 3422.23,-96.58"/>
<polygon fill="midnightblue" stroke="midnightblue" points="3233.15,-134.38 3224.13,-139.94 3234.65,-141.22 3233.15,-134.38"/>
</g>
<!-- Node45 -->
<g id="node40" class="node">
<title>Node45</title>
<g id="a_node40"><a xlink:href="../../d8/d76/scene__rect_8cpp.html" target="_top" xlink:title=" ">
<polygon fill="white" stroke="black" points="3560,-67.5 3560,-97.5 3690,-97.5 3690,-67.5 3560,-67.5"/>
<text text-anchor="start" x="3568" y="-85.5" font-family="Helvetica,sans-Serif" font-size="10.00">src/libs/vwidgets/scene</text>
<text text-anchor="middle" x="3625" y="-74.5" font-family="Helvetica,sans-Serif" font-size="10.00">_rect.cpp</text>
</a>
</g>
</g>
<!-- Node18&#45;&gt;Node45 -->
<g id="edge45" class="edge">
<title>Node18&#45;&gt;Node45</title>
<path fill="none" stroke="midnightblue" d="M3265.56,-138.71C3339.85,-129.37 3453.11,-114.33 3551,-98 3553.84,-97.53 3556.74,-97.03 3559.67,-96.51"/>
<polygon fill="midnightblue" stroke="midnightblue" points="3264.83,-135.27 3255.34,-139.99 3265.7,-142.22 3264.83,-135.27"/>
</g>
<!-- Node46 -->
<g id="node41" class="node">
<title>Node46</title>
<g id="a_node41"><a xlink:href="../../dd/df6/vabstractmainwindow_8cpp.html" target="_top" xlink:title=" ">
<polygon fill="white" stroke="black" points="3708.5,-73 3708.5,-92 3937.5,-92 3937.5,-73 3708.5,-73"/>
<text text-anchor="middle" x="3823" y="-80" font-family="Helvetica,sans-Serif" font-size="10.00">src/libs/vwidgets/vabstractmainwindow.cpp</text>
</a>
</g>
</g>
<!-- Node18&#45;&gt;Node46 -->
<g id="edge46" class="edge">
<title>Node18&#45;&gt;Node46</title>
<path fill="none" stroke="midnightblue" d="M3287.13,-139.03C3390.89,-129.27 3556.21,-113.36 3699,-98 3716.24,-96.15 3734.81,-94.03 3752.21,-92.01"/>
<polygon fill="midnightblue" stroke="midnightblue" points="3286.6,-135.56 3276.97,-139.98 3287.26,-142.53 3286.6,-135.56"/>
</g>
<!-- Node47 -->
<g id="node42" class="node">
<title>Node47</title>
<g id="a_node42"><a xlink:href="../../de/d45/vcontrolpointspline_8cpp.html" target="_top" xlink:title=" ">
<polygon fill="white" stroke="black" points="3955.5,-73 3955.5,-92 4170.5,-92 4170.5,-73 3955.5,-73"/>
<text text-anchor="middle" x="4063" y="-80" font-family="Helvetica,sans-Serif" font-size="10.00">src/libs/vwidgets/vcontrolpointspline.cpp</text>
</a>
</g>
</g>
<!-- Node18&#45;&gt;Node47 -->
<g id="edge47" class="edge">
<title>Node18&#45;&gt;Node47</title>
<path fill="none" stroke="midnightblue" d="M3293,-143.32C3440.82,-135.79 3714.36,-120.23 3947,-98 3964.27,-96.35 3982.95,-94.18 4000.16,-92.03"/>
<polygon fill="midnightblue" stroke="midnightblue" points="3292.39,-139.85 3282.58,-143.85 3292.74,-146.84 3292.39,-139.85"/>
</g>
<!-- Node48 -->
<g id="node43" class="node">
<title>Node48</title>
<g id="a_node43"><a xlink:href="../../d1/d90/vgrainlineitem_8cpp.html" target="_top" xlink:title=" ">
<polygon fill="white" stroke="black" points="4188.5,-73 4188.5,-92 4381.5,-92 4381.5,-73 4188.5,-73"/>
<text text-anchor="middle" x="4285" y="-80" font-family="Helvetica,sans-Serif" font-size="10.00">src/libs/vwidgets/vgrainlineitem.cpp</text>
</a>
</g>
</g>
<!-- Node18&#45;&gt;Node48 -->
<g id="edge48" class="edge">
<title>Node18&#45;&gt;Node48</title>
<path fill="none" stroke="midnightblue" d="M3292.81,-146.08C3475.64,-141.3 3858.04,-128.34 4180,-98 4196.21,-96.47 4213.77,-94.27 4229.79,-92.04"/>
<polygon fill="midnightblue" stroke="midnightblue" points="3292.56,-142.59 3282.65,-146.35 3292.74,-149.59 3292.56,-142.59"/>
</g>
<!-- Node49 -->
<g id="node44" class="node">
<title>Node49</title>
<g id="a_node44"><a xlink:href="../../de/dec/vgraphicssimpletextitem_8cpp.html" target="_top" xlink:title=" ">
<polygon fill="white" stroke="black" points="4400,-73 4400,-92 4644,-92 4644,-73 4400,-73"/>
<text text-anchor="middle" x="4522" y="-80" font-family="Helvetica,sans-Serif" font-size="10.00">src/libs/vwidgets/vgraphicssimpletextitem.cpp</text>
</a>
</g>
</g>
<!-- Node18&#45;&gt;Node49 -->
<g id="edge49" class="edge">
<title>Node18&#45;&gt;Node49</title>
<path fill="none" stroke="midnightblue" d="M3292.99,-146.45C3504.16,-141.9 3986.51,-128.82 4391,-98 4411.19,-96.46 4433.08,-94.25 4453.08,-92.02"/>
<polygon fill="midnightblue" stroke="midnightblue" points="3292.76,-142.96 3282.84,-146.67 3292.91,-149.96 3292.76,-142.96"/>
</g>
<!-- Node27&#45;&gt;Node28 -->
<g id="edge26" class="edge">
<title>Node27&#45;&gt;Node28</title>
<path fill="none" stroke="midnightblue" d="M2729.39,-67.01C2600.27,-44.4 2460.44,-29.06 2385.69,-21.59"/>
<polygon fill="midnightblue" stroke="midnightblue" points="2729,-70.5 2739.46,-68.79 2730.22,-63.6 2729,-70.5"/>
</g>
<!-- Node39&#45;&gt;Node40 -->
<g id="edge40" class="edge">
<title>Node39&#45;&gt;Node40</title>
<path fill="none" stroke="midnightblue" d="M1524.72,-58.87C1518.79,-49.46 1512.09,-38.83 1506.88,-30.58"/>
<polygon fill="midnightblue" stroke="midnightblue" points="1521.81,-60.81 1530.1,-67.4 1527.73,-57.07 1521.81,-60.81"/>
</g>
</g>
</svg>
