<?xml version="1.0" encoding="UTF-8" standalone="no"?>
<!DOCTYPE svg PUBLIC "-//W3C//DTD SVG 1.1//EN"
 "http://www.w3.org/Graphics/SVG/1.1/DTD/svg11.dtd">
<!-- Generated by graphviz version 2.43.0 (0)
 -->
<!-- Title: SavePiecePathOptions Pages: 1 -->
<svg width="624pt" height="2136pt"
 viewBox="0.00 0.00 624.00 2136.00" xmlns="http://www.w3.org/2000/svg" xmlns:xlink="http://www.w3.org/1999/xlink">
<g id="graph0" class="graph" transform="scale(1 1) rotate(0) translate(4 2132)">
<title>SavePiecePathOptions</title>
<polygon fill="white" stroke="transparent" points="-4,4 -4,-2132 620,-2132 620,4 -4,4"/>
<!-- Node1 -->
<g id="node1" class="node">
<title>Node1</title>
<g id="a_node1"><a xlink:title=" ">
<polygon fill="#bfbfbf" stroke="black" points="262,-0.5 262,-134.5 414,-134.5 414,-0.5 262,-0.5"/>
<text text-anchor="middle" x="338" y="-122.5" font-family="Helvetica,sans-Serif" font-size="10.00">SavePiecePathOptions</text>
<polyline fill="none" stroke="black" points="262,-115.5 414,-115.5 "/>
<text text-anchor="middle" x="338" y="-103.5" font-family="Helvetica,sans-Serif" font-size="10.00"> </text>
<polyline fill="none" stroke="black" points="262,-96.5 414,-96.5 "/>
<text text-anchor="start" x="270" y="-84.5" font-family="Helvetica,sans-Serif" font-size="10.00">+ SavePiecePathOptions()</text>
<text text-anchor="start" x="270" y="-73.5" font-family="Helvetica,sans-Serif" font-size="10.00">+ ~SavePiecePathOptions()</text>
<text text-anchor="start" x="270" y="-62.5" font-family="Helvetica,sans-Serif" font-size="10.00">+ undo()</text>
<text text-anchor="start" x="270" y="-51.5" font-family="Helvetica,sans-Serif" font-size="10.00">+ redo()</text>
<text text-anchor="start" x="270" y="-40.5" font-family="Helvetica,sans-Serif" font-size="10.00">+ mergeWith()</text>
<text text-anchor="start" x="270" y="-29.5" font-family="Helvetica,sans-Serif" font-size="10.00">+ id()</text>
<text text-anchor="start" x="270" y="-18.5" font-family="Helvetica,sans-Serif" font-size="10.00">+ PathId()</text>
<text text-anchor="start" x="270" y="-7.5" font-family="Helvetica,sans-Serif" font-size="10.00">+ NewPath()</text>
</a>
</g>
</g>
<!-- Node2 -->
<g id="node2" class="node">
<title>Node2</title>
<g id="a_node2"><a xlink:href="../../de/d04/classVUndoCommand.html" target="_top" xlink:title=" ">
<polygon fill="white" stroke="black" points="78.5,-314.5 78.5,-503.5 227.5,-503.5 227.5,-314.5 78.5,-314.5"/>
<text text-anchor="middle" x="153" y="-491.5" font-family="Helvetica,sans-Serif" font-size="10.00">VUndoCommand</text>
<polyline fill="none" stroke="black" points="78.5,-484.5 227.5,-484.5 "/>
<text text-anchor="start" x="86.5" y="-472.5" font-family="Helvetica,sans-Serif" font-size="10.00"># xml</text>
<text text-anchor="start" x="86.5" y="-461.5" font-family="Helvetica,sans-Serif" font-size="10.00"># nodeId</text>
<text text-anchor="start" x="86.5" y="-450.5" font-family="Helvetica,sans-Serif" font-size="10.00"># redoFlag</text>
<polyline fill="none" stroke="black" points="78.5,-443.5 227.5,-443.5 "/>
<text text-anchor="start" x="86.5" y="-431.5" font-family="Helvetica,sans-Serif" font-size="10.00">+ VUndoCommand()</text>
<text text-anchor="start" x="86.5" y="-420.5" font-family="Helvetica,sans-Serif" font-size="10.00">+ ~VUndoCommand()</text>
<text text-anchor="start" x="86.5" y="-409.5" font-family="Helvetica,sans-Serif" font-size="10.00"># RedoFullParsing()</text>
<text text-anchor="start" x="86.5" y="-398.5" font-family="Helvetica,sans-Serif" font-size="10.00"># UndoDeleteAfterSibling()</text>
<text text-anchor="start" x="86.5" y="-387.5" font-family="Helvetica,sans-Serif" font-size="10.00"># IncrementReferences()</text>
<text text-anchor="start" x="86.5" y="-376.5" font-family="Helvetica,sans-Serif" font-size="10.00"># DecrementReferences()</text>
<text text-anchor="start" x="86.5" y="-365.5" font-family="Helvetica,sans-Serif" font-size="10.00"># IncrementReferences()</text>
<text text-anchor="start" x="86.5" y="-354.5" font-family="Helvetica,sans-Serif" font-size="10.00"># DecrementReferences()</text>
<text text-anchor="start" x="86.5" y="-343.5" font-family="Helvetica,sans-Serif" font-size="10.00"># IncrementReferences()</text>
<text text-anchor="start" x="86.5" y="-332.5" font-family="Helvetica,sans-Serif" font-size="10.00"># DecrementReferences()</text>
<text text-anchor="start" x="86.5" y="-321.5" font-family="Helvetica,sans-Serif" font-size="10.00"># getDestinationObject()</text>
</a>
</g>
</g>
<!-- Node2&#45;&gt;Node1 -->
<g id="edge1" class="edge">
<title>Node2&#45;&gt;Node1</title>
<path fill="none" stroke="midnightblue" d="M185.35,-304.62C198.69,-268.18 215.8,-227.67 236,-193 247.67,-172.96 262.5,-152.83 277.21,-134.77"/>
<polygon fill="none" stroke="midnightblue" points="181.97,-303.69 181.87,-314.29 188.55,-306.07 181.97,-303.69"/>
</g>
<!-- Node3 -->
<g id="node3" class="node">
<title>Node3</title>
<g id="a_node3"><a xlink:title=" ">
<polygon fill="white" stroke="#bfbfbf" points="0,-1762 0,-1819 56,-1819 56,-1762 0,-1762"/>
<text text-anchor="middle" x="28" y="-1807" font-family="Helvetica,sans-Serif" font-size="10.00">QObject</text>
<polyline fill="none" stroke="#bfbfbf" points="0,-1800 56,-1800 "/>
<text text-anchor="middle" x="28" y="-1788" font-family="Helvetica,sans-Serif" font-size="10.00"> </text>
<polyline fill="none" stroke="#bfbfbf" points="0,-1781 56,-1781 "/>
<text text-anchor="middle" x="28" y="-1769" font-family="Helvetica,sans-Serif" font-size="10.00"> </text>
</a>
</g>
</g>
<!-- Node3&#45;&gt;Node2 -->
<g id="edge2" class="edge">
<title>Node3&#45;&gt;Node2</title>
<path fill="none" stroke="midnightblue" d="M25.12,-1751.55C15.14,-1608.58 -13.41,-1089.29 63,-672 73.5,-614.64 94.25,-552.84 113.17,-503.67"/>
<polygon fill="none" stroke="midnightblue" points="21.66,-1752.23 25.86,-1761.95 28.64,-1751.73 21.66,-1752.23"/>
</g>
<!-- Node5 -->
<g id="node5" class="node">
<title>Node5</title>
<g id="a_node5"><a xlink:href="../../d8/dba/classVAbstractPattern.html" target="_top" xlink:title=" ">
<polygon fill="white" stroke="black" points="72,-672.5 72,-1510.5 234,-1510.5 234,-672.5 72,-672.5"/>
<text text-anchor="middle" x="153" y="-1498.5" font-family="Helvetica,sans-Serif" font-size="10.00">VAbstractPattern</text>
<polyline fill="none" stroke="black" points="72,-1491.5 234,-1491.5 "/>
<text text-anchor="start" x="80" y="-1479.5" font-family="Helvetica,sans-Serif" font-size="10.00">+ TagPattern</text>
<text text-anchor="start" x="80" y="-1468.5" font-family="Helvetica,sans-Serif" font-size="10.00">+ TagCalculation</text>
<text text-anchor="start" x="80" y="-1457.5" font-family="Helvetica,sans-Serif" font-size="10.00">+ TagModeling</text>
<text text-anchor="start" x="80" y="-1446.5" font-family="Helvetica,sans-Serif" font-size="10.00">+ TagPieces</text>
<text text-anchor="start" x="80" y="-1435.5" font-family="Helvetica,sans-Serif" font-size="10.00">+ TagPiece</text>
<text text-anchor="start" x="80" y="-1424.5" font-family="Helvetica,sans-Serif" font-size="10.00">+ TagDescription</text>
<text text-anchor="start" x="80" y="-1413.5" font-family="Helvetica,sans-Serif" font-size="10.00">+ TagImage</text>
<text text-anchor="start" x="80" y="-1402.5" font-family="Helvetica,sans-Serif" font-size="10.00">+ TagNotes</text>
<text text-anchor="start" x="80" y="-1391.5" font-family="Helvetica,sans-Serif" font-size="10.00">+ TagMeasurements</text>
<text text-anchor="start" x="80" y="-1380.5" font-family="Helvetica,sans-Serif" font-size="10.00">+ TagVariables</text>
<text text-anchor="start" x="80" y="-1369.5" font-family="Helvetica,sans-Serif" font-size="10.00">and 142 more...</text>
<text text-anchor="start" x="80" y="-1358.5" font-family="Helvetica,sans-Serif" font-size="10.00"># activeDraftBlock</text>
<text text-anchor="start" x="80" y="-1347.5" font-family="Helvetica,sans-Serif" font-size="10.00"># m_DefaultLineColor</text>
<text text-anchor="start" x="80" y="-1336.5" font-family="Helvetica,sans-Serif" font-size="10.00"># m_DefaultLineWeight</text>
<text text-anchor="start" x="80" y="-1325.5" font-family="Helvetica,sans-Serif" font-size="10.00"># m_DefaultLineType</text>
<text text-anchor="start" x="80" y="-1314.5" font-family="Helvetica,sans-Serif" font-size="10.00"># defaultBasePoint</text>
<text text-anchor="start" x="80" y="-1303.5" font-family="Helvetica,sans-Serif" font-size="10.00"># lastSavedExportFormat</text>
<text text-anchor="start" x="80" y="-1292.5" font-family="Helvetica,sans-Serif" font-size="10.00"># cursor</text>
<text text-anchor="start" x="80" y="-1281.5" font-family="Helvetica,sans-Serif" font-size="10.00"># toolsOnRemove</text>
<text text-anchor="start" x="80" y="-1270.5" font-family="Helvetica,sans-Serif" font-size="10.00"># history</text>
<text text-anchor="start" x="80" y="-1259.5" font-family="Helvetica,sans-Serif" font-size="10.00"># patternPieces</text>
<text text-anchor="start" x="80" y="-1248.5" font-family="Helvetica,sans-Serif" font-size="10.00"># modified</text>
<text text-anchor="start" x="80" y="-1237.5" font-family="Helvetica,sans-Serif" font-size="10.00"># patternLabelLines</text>
<text text-anchor="start" x="80" y="-1226.5" font-family="Helvetica,sans-Serif" font-size="10.00"># patternLabelWasChanged</text>
<polyline fill="none" stroke="black" points="72,-1219.5 234,-1219.5 "/>
<text text-anchor="start" x="80" y="-1207.5" font-family="Helvetica,sans-Serif" font-size="10.00">+ VAbstractPattern()</text>
<text text-anchor="start" x="80" y="-1196.5" font-family="Helvetica,sans-Serif" font-size="10.00">+ ~VAbstractPattern()</text>
<text text-anchor="start" x="80" y="-1185.5" font-family="Helvetica,sans-Serif" font-size="10.00">+ ListMeasurements()</text>
<text text-anchor="start" x="80" y="-1174.5" font-family="Helvetica,sans-Serif" font-size="10.00">+ ListExpressions()</text>
<text text-anchor="start" x="80" y="-1163.5" font-family="Helvetica,sans-Serif" font-size="10.00">+ listVariableExpressions()</text>
<text text-anchor="start" x="80" y="-1152.5" font-family="Helvetica,sans-Serif" font-size="10.00">+ CreateEmptyFile()</text>
<text text-anchor="start" x="80" y="-1141.5" font-family="Helvetica,sans-Serif" font-size="10.00">+ changeActiveDraftBlock()</text>
<text text-anchor="start" x="80" y="-1130.5" font-family="Helvetica,sans-Serif" font-size="10.00">+ getActiveDraftBlockName()</text>
<text text-anchor="start" x="80" y="-1119.5" font-family="Helvetica,sans-Serif" font-size="10.00">+ draftBlockNameExists()</text>
<text text-anchor="start" x="80" y="-1108.5" font-family="Helvetica,sans-Serif" font-size="10.00">+ draftBlockCount()</text>
<text text-anchor="start" x="80" y="-1097.5" font-family="Helvetica,sans-Serif" font-size="10.00">and 96 more...</text>
<text text-anchor="start" x="80" y="-1086.5" font-family="Helvetica,sans-Serif" font-size="10.00">+ getTool()</text>
<text text-anchor="start" x="80" y="-1075.5" font-family="Helvetica,sans-Serif" font-size="10.00">+ AddTool()</text>
<text text-anchor="start" x="80" y="-1064.5" font-family="Helvetica,sans-Serif" font-size="10.00">+ RemoveTool()</text>
<text text-anchor="start" x="80" y="-1053.5" font-family="Helvetica,sans-Serif" font-size="10.00">+ ParsePieceNodes()</text>
<text text-anchor="start" x="80" y="-1042.5" font-family="Helvetica,sans-Serif" font-size="10.00">+ ParsePieceCSARecords()</text>
<text text-anchor="start" x="80" y="-1031.5" font-family="Helvetica,sans-Serif" font-size="10.00">+ ParsePieceInternalPaths()</text>
<text text-anchor="start" x="80" y="-1020.5" font-family="Helvetica,sans-Serif" font-size="10.00">+ ParsePieceAnchors()</text>
<text text-anchor="start" x="80" y="-1009.5" font-family="Helvetica,sans-Serif" font-size="10.00">+ LiteParseTree()</text>
<text text-anchor="start" x="80" y="-998.5" font-family="Helvetica,sans-Serif" font-size="10.00">+ haveLiteChange()</text>
<text text-anchor="start" x="80" y="-987.5" font-family="Helvetica,sans-Serif" font-size="10.00">+ NeedFullParsing()</text>
<text text-anchor="start" x="80" y="-976.5" font-family="Helvetica,sans-Serif" font-size="10.00">+ ClearScene()</text>
<text text-anchor="start" x="80" y="-965.5" font-family="Helvetica,sans-Serif" font-size="10.00">+ updatePieceList()</text>
<text text-anchor="start" x="80" y="-954.5" font-family="Helvetica,sans-Serif" font-size="10.00">+ selectedPiece()</text>
<text text-anchor="start" x="80" y="-943.5" font-family="Helvetica,sans-Serif" font-size="10.00"># setActiveDraftBlock()</text>
<text text-anchor="start" x="80" y="-932.5" font-family="Helvetica,sans-Serif" font-size="10.00"># CheckTagExists()</text>
<text text-anchor="start" x="80" y="-921.5" font-family="Helvetica,sans-Serif" font-size="10.00"># InsertTag()</text>
<text text-anchor="start" x="80" y="-910.5" font-family="Helvetica,sans-Serif" font-size="10.00"># SetChildTag()</text>
<text text-anchor="start" x="80" y="-899.5" font-family="Helvetica,sans-Serif" font-size="10.00"># getActiveDraftBlockIndex()</text>
<text text-anchor="start" x="80" y="-888.5" font-family="Helvetica,sans-Serif" font-size="10.00"># getActiveDraftElement()</text>
<text text-anchor="start" x="80" y="-877.5" font-family="Helvetica,sans-Serif" font-size="10.00"># hasGroupItem()</text>
<text text-anchor="start" x="80" y="-866.5" font-family="Helvetica,sans-Serif" font-size="10.00"># ToolExists()</text>
<text text-anchor="start" x="80" y="-855.5" font-family="Helvetica,sans-Serif" font-size="10.00"># ParsePathNodes()</text>
<text text-anchor="start" x="80" y="-844.5" font-family="Helvetica,sans-Serif" font-size="10.00"># ParseSANode()</text>
<text text-anchor="start" x="80" y="-833.5" font-family="Helvetica,sans-Serif" font-size="10.00">&#45; listVariables()</text>
<text text-anchor="start" x="80" y="-822.5" font-family="Helvetica,sans-Serif" font-size="10.00">&#45; ListPointExpressions()</text>
<text text-anchor="start" x="80" y="-811.5" font-family="Helvetica,sans-Serif" font-size="10.00">&#45; ListArcExpressions()</text>
<text text-anchor="start" x="80" y="-800.5" font-family="Helvetica,sans-Serif" font-size="10.00">&#45; ListElArcExpressions()</text>
<text text-anchor="start" x="80" y="-789.5" font-family="Helvetica,sans-Serif" font-size="10.00">&#45; ListSplineExpressions()</text>
<text text-anchor="start" x="80" y="-778.5" font-family="Helvetica,sans-Serif" font-size="10.00">&#45; ListPathPointExpressions()</text>
<text text-anchor="start" x="80" y="-767.5" font-family="Helvetica,sans-Serif" font-size="10.00">&#45; ListOperationExpressions()</text>
<text text-anchor="start" x="80" y="-756.5" font-family="Helvetica,sans-Serif" font-size="10.00">&#45; ListNodesExpressions()</text>
<text text-anchor="start" x="80" y="-745.5" font-family="Helvetica,sans-Serif" font-size="10.00">&#45; ListPathExpressions()</text>
<text text-anchor="start" x="80" y="-734.5" font-family="Helvetica,sans-Serif" font-size="10.00">&#45; ListGrainlineExpressions()</text>
<text text-anchor="start" x="80" y="-723.5" font-family="Helvetica,sans-Serif" font-size="10.00">&#45; ListPieceExpressions()</text>
<text text-anchor="start" x="80" y="-712.5" font-family="Helvetica,sans-Serif" font-size="10.00">&#45; IsVariable()</text>
<text text-anchor="start" x="80" y="-701.5" font-family="Helvetica,sans-Serif" font-size="10.00">&#45; IsPostfixOperator()</text>
<text text-anchor="start" x="80" y="-690.5" font-family="Helvetica,sans-Serif" font-size="10.00">&#45; IsFunction()</text>
<text text-anchor="start" x="80" y="-679.5" font-family="Helvetica,sans-Serif" font-size="10.00">&#45; ParseItemElement()</text>
</a>
</g>
</g>
<!-- Node3&#45;&gt;Node5 -->
<g id="edge5" class="edge">
<title>Node3&#45;&gt;Node5</title>
<path fill="none" stroke="midnightblue" d="M33.72,-1751.57C40.73,-1705.67 53.13,-1626.07 65,-1558 67.7,-1542.5 70.49,-1526.73 73.34,-1510.79"/>
<polygon fill="none" stroke="midnightblue" points="30.23,-1751.25 32.19,-1761.66 37.15,-1752.3 30.23,-1751.25"/>
</g>
<!-- Node4 -->
<g id="node4" class="node">
<title>Node4</title>
<g id="a_node4"><a xlink:title=" ">
<polygon fill="white" stroke="#bfbfbf" points="252,-1063 252,-1120 352,-1120 352,-1063 252,-1063"/>
<text text-anchor="middle" x="302" y="-1108" font-family="Helvetica,sans-Serif" font-size="10.00">QUndoCommand</text>
<polyline fill="none" stroke="#bfbfbf" points="252,-1101 352,-1101 "/>
<text text-anchor="middle" x="302" y="-1089" font-family="Helvetica,sans-Serif" font-size="10.00"> </text>
<polyline fill="none" stroke="#bfbfbf" points="252,-1082 352,-1082 "/>
<text text-anchor="middle" x="302" y="-1070" font-family="Helvetica,sans-Serif" font-size="10.00"> </text>
</a>
</g>
</g>
<!-- Node4&#45;&gt;Node2 -->
<g id="edge3" class="edge">
<title>Node4&#45;&gt;Node2</title>
<path fill="none" stroke="midnightblue" d="M299.09,-1052.52C292.88,-978.48 276.12,-810.05 243,-672 229.34,-615.06 208.32,-553.02 190.02,-503.61"/>
<polygon fill="none" stroke="midnightblue" points="295.62,-1053.06 299.93,-1062.74 302.6,-1052.49 295.62,-1053.06"/>
</g>
<!-- Node5&#45;&gt;Node2 -->
<g id="edge4" class="edge">
<title>Node5&#45;&gt;Node2</title>
<path fill="none" stroke="#404040" d="M153,-672.13C153,-614.45 153,-559.95 153,-515.73"/>
<polygon fill="none" stroke="#404040" points="153,-515.54 149,-509.54 153,-503.54 157,-509.54 153,-515.54"/>
<text text-anchor="middle" x="167.5" y="-646" font-family="Helvetica,sans-Serif" font-size="10.00"> #doc</text>
</g>
<!-- Node6 -->
<g id="node6" class="node">
<title>Node6</title>
<g id="a_node6"><a xlink:href="../../d6/deb/classVDomDocument.html" target="_top" xlink:title="The VDomDocument class represents a Seamly2D document (.val file).">
<polygon fill="white" stroke="black" points="74.5,-1558.5 74.5,-2022.5 231.5,-2022.5 231.5,-1558.5 74.5,-1558.5"/>
<text text-anchor="middle" x="153" y="-2010.5" font-family="Helvetica,sans-Serif" font-size="10.00">VDomDocument</text>
<polyline fill="none" stroke="black" points="74.5,-2003.5 231.5,-2003.5 "/>
<text text-anchor="start" x="82.5" y="-1991.5" font-family="Helvetica,sans-Serif" font-size="10.00">+ AttrId</text>
<text text-anchor="start" x="82.5" y="-1980.5" font-family="Helvetica,sans-Serif" font-size="10.00">+ AttrText</text>
<text text-anchor="start" x="82.5" y="-1969.5" font-family="Helvetica,sans-Serif" font-size="10.00">+ AttrBold</text>
<text text-anchor="start" x="82.5" y="-1958.5" font-family="Helvetica,sans-Serif" font-size="10.00">+ AttrItalic</text>
<text text-anchor="start" x="82.5" y="-1947.5" font-family="Helvetica,sans-Serif" font-size="10.00">+ AttrAlignment</text>
<text text-anchor="start" x="82.5" y="-1936.5" font-family="Helvetica,sans-Serif" font-size="10.00">+ AttrFSIncrement</text>
<text text-anchor="start" x="82.5" y="-1925.5" font-family="Helvetica,sans-Serif" font-size="10.00">+ TagVersion</text>
<text text-anchor="start" x="82.5" y="-1914.5" font-family="Helvetica,sans-Serif" font-size="10.00">+ TagUnit</text>
<text text-anchor="start" x="82.5" y="-1903.5" font-family="Helvetica,sans-Serif" font-size="10.00">+ TagLine</text>
<polyline fill="none" stroke="black" points="74.5,-1896.5 231.5,-1896.5 "/>
<text text-anchor="start" x="82.5" y="-1884.5" font-family="Helvetica,sans-Serif" font-size="10.00">+ VDomDocument()</text>
<text text-anchor="start" x="82.5" y="-1873.5" font-family="Helvetica,sans-Serif" font-size="10.00">+ ~VDomDocument()</text>
<text text-anchor="start" x="82.5" y="-1862.5" font-family="Helvetica,sans-Serif" font-size="10.00">+ elementById()</text>
<text text-anchor="start" x="82.5" y="-1851.5" font-family="Helvetica,sans-Serif" font-size="10.00">+ SetAttribute()</text>
<text text-anchor="start" x="82.5" y="-1840.5" font-family="Helvetica,sans-Serif" font-size="10.00">+ measurementUnits()</text>
<text text-anchor="start" x="82.5" y="-1829.5" font-family="Helvetica,sans-Serif" font-size="10.00">+ setXMLContent()</text>
<text text-anchor="start" x="82.5" y="-1818.5" font-family="Helvetica,sans-Serif" font-size="10.00">+ SaveDocument()</text>
<text text-anchor="start" x="82.5" y="-1807.5" font-family="Helvetica,sans-Serif" font-size="10.00">+ Major()</text>
<text text-anchor="start" x="82.5" y="-1796.5" font-family="Helvetica,sans-Serif" font-size="10.00">+ Minor()</text>
<text text-anchor="start" x="82.5" y="-1785.5" font-family="Helvetica,sans-Serif" font-size="10.00">+ Patch()</text>
<text text-anchor="start" x="82.5" y="-1774.5" font-family="Helvetica,sans-Serif" font-size="10.00">and 8 more...</text>
<text text-anchor="start" x="82.5" y="-1763.5" font-family="Helvetica,sans-Serif" font-size="10.00">+ GetParametrUInt()</text>
<text text-anchor="start" x="82.5" y="-1752.5" font-family="Helvetica,sans-Serif" font-size="10.00">+ getParameterBool()</text>
<text text-anchor="start" x="82.5" y="-1741.5" font-family="Helvetica,sans-Serif" font-size="10.00">+ GetParametrUsage()</text>
<text text-anchor="start" x="82.5" y="-1730.5" font-family="Helvetica,sans-Serif" font-size="10.00">+ SetParametrUsage()</text>
<text text-anchor="start" x="82.5" y="-1719.5" font-family="Helvetica,sans-Serif" font-size="10.00">+ GetParametrString()</text>
<text text-anchor="start" x="82.5" y="-1708.5" font-family="Helvetica,sans-Serif" font-size="10.00">+ GetParametrEmptyString()</text>
<text text-anchor="start" x="82.5" y="-1697.5" font-family="Helvetica,sans-Serif" font-size="10.00">+ GetParametrDouble()</text>
<text text-anchor="start" x="82.5" y="-1686.5" font-family="Helvetica,sans-Serif" font-size="10.00">+ getParameterId()</text>
<text text-anchor="start" x="82.5" y="-1675.5" font-family="Helvetica,sans-Serif" font-size="10.00">+ ValidateXML()</text>
<text text-anchor="start" x="82.5" y="-1664.5" font-family="Helvetica,sans-Serif" font-size="10.00">+ UnitsHelpString()</text>
<text text-anchor="start" x="82.5" y="-1653.5" font-family="Helvetica,sans-Serif" font-size="10.00">+ RemoveAllChildren()</text>
<text text-anchor="start" x="82.5" y="-1642.5" font-family="Helvetica,sans-Serif" font-size="10.00">+ SafeCopy()</text>
<text text-anchor="start" x="82.5" y="-1631.5" font-family="Helvetica,sans-Serif" font-size="10.00"># setTagText()</text>
<text text-anchor="start" x="82.5" y="-1620.5" font-family="Helvetica,sans-Serif" font-size="10.00"># setTagText()</text>
<text text-anchor="start" x="82.5" y="-1609.5" font-family="Helvetica,sans-Serif" font-size="10.00"># UniqueTagText()</text>
<text text-anchor="start" x="82.5" y="-1598.5" font-family="Helvetica,sans-Serif" font-size="10.00"># TestUniqueId()</text>
<text text-anchor="start" x="82.5" y="-1587.5" font-family="Helvetica,sans-Serif" font-size="10.00"># CollectId()</text>
<text text-anchor="start" x="82.5" y="-1576.5" font-family="Helvetica,sans-Serif" font-size="10.00">&#45; find()</text>
<text text-anchor="start" x="82.5" y="-1565.5" font-family="Helvetica,sans-Serif" font-size="10.00">&#45; SaveCanonicalXML()</text>
</a>
</g>
</g>
<!-- Node6&#45;&gt;Node5 -->
<g id="edge6" class="edge">
<title>Node6&#45;&gt;Node5</title>
<path fill="none" stroke="midnightblue" d="M153,-1548.12C153,-1535.85 153,-1523.39 153,-1510.8"/>
<polygon fill="none" stroke="midnightblue" points="149.5,-1548.38 153,-1558.38 156.5,-1548.38 149.5,-1548.38"/>
</g>
<!-- Node7 -->
<g id="node7" class="node">
<title>Node7</title>
<g id="a_node7"><a xlink:title=" ">
<polygon fill="white" stroke="#bfbfbf" points="24,-2070.5 24,-2127.5 122,-2127.5 122,-2070.5 24,-2070.5"/>
<text text-anchor="middle" x="73" y="-2115.5" font-family="Helvetica,sans-Serif" font-size="10.00">QDomDocument</text>
<polyline fill="none" stroke="#bfbfbf" points="24,-2108.5 122,-2108.5 "/>
<text text-anchor="middle" x="73" y="-2096.5" font-family="Helvetica,sans-Serif" font-size="10.00"> </text>
<polyline fill="none" stroke="#bfbfbf" points="24,-2089.5 122,-2089.5 "/>
<text text-anchor="middle" x="73" y="-2077.5" font-family="Helvetica,sans-Serif" font-size="10.00"> </text>
</a>
</g>
</g>
<!-- Node7&#45;&gt;Node6 -->
<g id="edge7" class="edge">
<title>Node7&#45;&gt;Node6</title>
<path fill="none" stroke="midnightblue" d="M82.82,-2060.38C85.67,-2049.45 89.01,-2036.65 92.66,-2022.67"/>
<polygon fill="none" stroke="midnightblue" points="79.38,-2059.7 80.24,-2070.26 86.15,-2061.47 79.38,-2059.7"/>
</g>
<!-- Node8 -->
<g id="node8" class="node">
<title>Node8</title>
<g id="a_node8"><a xlink:href="../../da/da1/classQHash.html" target="_top" xlink:title=" ">
<polygon fill="white" stroke="black" points="140.5,-2070.5 140.5,-2127.5 325.5,-2127.5 325.5,-2070.5 140.5,-2070.5"/>
<text text-anchor="middle" x="233" y="-2115.5" font-family="Helvetica,sans-Serif" font-size="10.00">QHash&lt; quint32, QDomElement &gt;</text>
<polyline fill="none" stroke="black" points="140.5,-2108.5 325.5,-2108.5 "/>
<text text-anchor="middle" x="233" y="-2096.5" font-family="Helvetica,sans-Serif" font-size="10.00"> </text>
<polyline fill="none" stroke="black" points="140.5,-2089.5 325.5,-2089.5 "/>
<text text-anchor="middle" x="233" y="-2077.5" font-family="Helvetica,sans-Serif" font-size="10.00"> </text>
</a>
</g>
</g>
<!-- Node8&#45;&gt;Node6 -->
<g id="edge8" class="edge">
<title>Node8&#45;&gt;Node6</title>
<path fill="none" stroke="#404040" d="M225.76,-2070.26C223.16,-2060.3 219.98,-2048.12 216.42,-2034.46"/>
<polygon fill="none" stroke="#404040" points="216.37,-2034.28 210.98,-2029.48 213.34,-2022.67 218.72,-2027.46 216.37,-2034.28"/>
<text text-anchor="middle" x="234.5" y="-2044" font-family="Helvetica,sans-Serif" font-size="10.00"> &#45;map</text>
</g>
<!-- Node9 -->
<g id="node9" class="node">
<title>Node9</title>
<g id="a_node9"><a xlink:href="../../da/da1/classQHash.html" target="_top" xlink:title=" ">
<polygon fill="white" stroke="black" points="250,-1762 250,-1819 422,-1819 422,-1762 250,-1762"/>
<text text-anchor="middle" x="336" y="-1807" font-family="Helvetica,sans-Serif" font-size="10.00">QHash&lt; quint32, VDataTool * &gt;</text>
<polyline fill="none" stroke="black" points="250,-1800 422,-1800 "/>
<text text-anchor="middle" x="336" y="-1788" font-family="Helvetica,sans-Serif" font-size="10.00"> </text>
<polyline fill="none" stroke="black" points="250,-1781 422,-1781 "/>
<text text-anchor="middle" x="336" y="-1769" font-family="Helvetica,sans-Serif" font-size="10.00"> </text>
</a>
</g>
</g>
<!-- Node9&#45;&gt;Node5 -->
<g id="edge9" class="edge">
<title>Node9&#45;&gt;Node5</title>
<path fill="none" stroke="#404040" d="M325.59,-1761.75C307.2,-1712.01 268.49,-1604.17 243,-1511 241.01,-1503.71 239.03,-1496.34 237.07,-1488.9"/>
<polygon fill="none" stroke="#404040" points="237.03,-1488.78 231.65,-1483.98 234,-1477.16 239.39,-1481.96 237.03,-1488.78"/>
<text text-anchor="middle" x="268" y="-1532" font-family="Helvetica,sans-Serif" font-size="10.00"> #tools</text>
</g>
<!-- Node10 -->
<g id="node10" class="node">
<title>Node10</title>
<g id="a_node10"><a xlink:href="../../d0/d4c/classQMap.html" target="_top" xlink:title=" ">
<polygon fill="white" stroke="black" points="440,-1762 440,-1819 606,-1819 606,-1762 440,-1762"/>
<text text-anchor="middle" x="523" y="-1807" font-family="Helvetica,sans-Serif" font-size="10.00">QMap&lt; qint32, ImageItem * &gt;</text>
<polyline fill="none" stroke="black" points="440,-1800 606,-1800 "/>
<text text-anchor="middle" x="523" y="-1788" font-family="Helvetica,sans-Serif" font-size="10.00"> </text>
<polyline fill="none" stroke="black" points="440,-1781 606,-1781 "/>
<text text-anchor="middle" x="523" y="-1769" font-family="Helvetica,sans-Serif" font-size="10.00"> </text>
</a>
</g>
</g>
<!-- Node10&#45;&gt;Node5 -->
<g id="edge10" class="edge">
<title>Node10&#45;&gt;Node5</title>
<path fill="none" stroke="#404040" d="M520.09,-1761.68C513.46,-1712.89 492.68,-1611.96 431,-1558 414.79,-1543.82 257.97,-1526.48 243,-1511 242.91,-1510.9 242.81,-1510.81 242.72,-1510.71"/>
<polygon fill="none" stroke="#404040" points="242.45,-1510.42 235.45,-1508.7 234.35,-1501.57 241.35,-1503.29 242.45,-1510.42"/>
<text text-anchor="middle" x="402.5" y="-1532" font-family="Helvetica,sans-Serif" font-size="10.00"> #m_imageMap</text>
</g>
<!-- Node11 -->
<g id="node11" class="node">
<title>Node11</title>
<g id="a_node11"><a xlink:href="../../df/de1/classVPiecePath.html" target="_top" xlink:title=" ">
<polygon fill="white" stroke="black" points="245.5,-287 245.5,-531 430.5,-531 430.5,-287 245.5,-287"/>
<text text-anchor="middle" x="338" y="-519" font-family="Helvetica,sans-Serif" font-size="10.00">VPiecePath</text>
<polyline fill="none" stroke="black" points="245.5,-512 430.5,-512 "/>
<text text-anchor="start" x="253.5" y="-500" font-family="Helvetica,sans-Serif" font-size="10.00">&#45; d</text>
<polyline fill="none" stroke="black" points="245.5,-493 430.5,-493 "/>
<text text-anchor="start" x="253.5" y="-481" font-family="Helvetica,sans-Serif" font-size="10.00">+ VPiecePath()</text>
<text text-anchor="start" x="253.5" y="-470" font-family="Helvetica,sans-Serif" font-size="10.00">+ VPiecePath()</text>
<text text-anchor="start" x="253.5" y="-459" font-family="Helvetica,sans-Serif" font-size="10.00">+ VPiecePath()</text>
<text text-anchor="start" x="253.5" y="-448" font-family="Helvetica,sans-Serif" font-size="10.00">+ ~VPiecePath()</text>
<text text-anchor="start" x="253.5" y="-437" font-family="Helvetica,sans-Serif" font-size="10.00">+ operator=()</text>
<text text-anchor="start" x="253.5" y="-426" font-family="Helvetica,sans-Serif" font-size="10.00">+ Swap()</text>
<text text-anchor="start" x="253.5" y="-415" font-family="Helvetica,sans-Serif" font-size="10.00">+ Append()</text>
<text text-anchor="start" x="253.5" y="-404" font-family="Helvetica,sans-Serif" font-size="10.00">+ Clear()</text>
<text text-anchor="start" x="253.5" y="-393" font-family="Helvetica,sans-Serif" font-size="10.00">+ CountNodes()</text>
<text text-anchor="start" x="253.5" y="-382" font-family="Helvetica,sans-Serif" font-size="10.00">+ operator[]()</text>
<text text-anchor="start" x="253.5" y="-371" font-family="Helvetica,sans-Serif" font-size="10.00">and 27 more...</text>
<text text-anchor="start" x="253.5" y="-360" font-family="Helvetica,sans-Serif" font-size="10.00">+ indexOfNode()</text>
<text text-anchor="start" x="253.5" y="-349" font-family="Helvetica,sans-Serif" font-size="10.00">+ FindInLoopNotExcludedUp()</text>
<text text-anchor="start" x="253.5" y="-338" font-family="Helvetica,sans-Serif" font-size="10.00">+ FindInLoopNotExcludedDown()</text>
<text text-anchor="start" x="253.5" y="-327" font-family="Helvetica,sans-Serif" font-size="10.00">+ StartSegment()</text>
<text text-anchor="start" x="253.5" y="-316" font-family="Helvetica,sans-Serif" font-size="10.00">+ EndSegment()</text>
<text text-anchor="start" x="253.5" y="-305" font-family="Helvetica,sans-Serif" font-size="10.00">+ PreparePointEkv()</text>
<text text-anchor="start" x="253.5" y="-294" font-family="Helvetica,sans-Serif" font-size="10.00">+ CurveSeamAllowanceSegment()</text>
</a>
</g>
</g>
<!-- Node11&#45;&gt;Node1 -->
<g id="edge11" class="edge">
<title>Node11&#45;&gt;Node1</title>
<path fill="none" stroke="#404040" d="M338,-286.87C338,-240.35 338,-188.5 338,-147.01"/>
<polygon fill="none" stroke="#404040" points="338,-146.76 334,-140.76 338,-134.76 342,-140.76 338,-146.76"/>
<text text-anchor="middle" x="370" y="-167" font-family="Helvetica,sans-Serif" font-size="10.00"> &#45;m_newPath</text>
<text text-anchor="middle" x="370" y="-156" font-family="Helvetica,sans-Serif" font-size="10.00">&#45;m_oldPath</text>
</g>
<!-- Node12 -->
<g id="node12" class="node">
<title>Node12</title>
<g id="a_node12"><a xlink:href="../../d2/d83/classVContainer.html" target="_top" xlink:title="Manages a collection of geometric objects, pieces, paths, and variables.">
<polygon fill="white" stroke="black" points="448,-193.5 448,-624.5 616,-624.5 616,-193.5 448,-193.5"/>
<text text-anchor="middle" x="532" y="-612.5" font-family="Helvetica,sans-Serif" font-size="10.00">VContainer</text>
<polyline fill="none" stroke="black" points="448,-605.5 616,-605.5 "/>
<text text-anchor="start" x="456" y="-593.5" font-family="Helvetica,sans-Serif" font-size="10.00">&#45; d</text>
<text text-anchor="start" x="456" y="-582.5" font-family="Helvetica,sans-Serif" font-size="10.00">&#45; _id</text>
<text text-anchor="start" x="456" y="-571.5" font-family="Helvetica,sans-Serif" font-size="10.00">&#45; _size</text>
<text text-anchor="start" x="456" y="-560.5" font-family="Helvetica,sans-Serif" font-size="10.00">&#45; _height</text>
<text text-anchor="start" x="456" y="-549.5" font-family="Helvetica,sans-Serif" font-size="10.00">&#45; uniqueNames</text>
<polyline fill="none" stroke="black" points="448,-542.5 616,-542.5 "/>
<text text-anchor="start" x="456" y="-530.5" font-family="Helvetica,sans-Serif" font-size="10.00">+ VContainer()</text>
<text text-anchor="start" x="456" y="-519.5" font-family="Helvetica,sans-Serif" font-size="10.00">+ VContainer()</text>
<text text-anchor="start" x="456" y="-508.5" font-family="Helvetica,sans-Serif" font-size="10.00">+ ~VContainer()</text>
<text text-anchor="start" x="456" y="-497.5" font-family="Helvetica,sans-Serif" font-size="10.00">+ operator=()</text>
<text text-anchor="start" x="456" y="-486.5" font-family="Helvetica,sans-Serif" font-size="10.00">+ Swap()</text>
<text text-anchor="start" x="456" y="-475.5" font-family="Helvetica,sans-Serif" font-size="10.00">+ GeometricObject()</text>
<text text-anchor="start" x="456" y="-464.5" font-family="Helvetica,sans-Serif" font-size="10.00">+ GetGObject()</text>
<text text-anchor="start" x="456" y="-453.5" font-family="Helvetica,sans-Serif" font-size="10.00">+ GetPiece()</text>
<text text-anchor="start" x="456" y="-442.5" font-family="Helvetica,sans-Serif" font-size="10.00">+ GetPiecePath()</text>
<text text-anchor="start" x="456" y="-431.5" font-family="Helvetica,sans-Serif" font-size="10.00">+ getVariable()</text>
<text text-anchor="start" x="456" y="-420.5" font-family="Helvetica,sans-Serif" font-size="10.00">and 34 more...</text>
<text text-anchor="start" x="456" y="-409.5" font-family="Helvetica,sans-Serif" font-size="10.00">+ GetFakeGObject()</text>
<text text-anchor="start" x="456" y="-398.5" font-family="Helvetica,sans-Serif" font-size="10.00">+ getId()</text>
<text text-anchor="start" x="456" y="-387.5" font-family="Helvetica,sans-Serif" font-size="10.00">+ getNextId()</text>
<text text-anchor="start" x="456" y="-376.5" font-family="Helvetica,sans-Serif" font-size="10.00">+ UpdateId()</text>
<text text-anchor="start" x="456" y="-365.5" font-family="Helvetica,sans-Serif" font-size="10.00">+ ClearUniqueNames()</text>
<text text-anchor="start" x="456" y="-354.5" font-family="Helvetica,sans-Serif" font-size="10.00">+ clearUniqueVariableNames()</text>
<text text-anchor="start" x="456" y="-343.5" font-family="Helvetica,sans-Serif" font-size="10.00">+ setSize()</text>
<text text-anchor="start" x="456" y="-332.5" font-family="Helvetica,sans-Serif" font-size="10.00">+ setHeight()</text>
<text text-anchor="start" x="456" y="-321.5" font-family="Helvetica,sans-Serif" font-size="10.00">+ size()</text>
<text text-anchor="start" x="456" y="-310.5" font-family="Helvetica,sans-Serif" font-size="10.00">+ rsize()</text>
<text text-anchor="start" x="456" y="-299.5" font-family="Helvetica,sans-Serif" font-size="10.00">+ height()</text>
<text text-anchor="start" x="456" y="-288.5" font-family="Helvetica,sans-Serif" font-size="10.00">+ rheight()</text>
<text text-anchor="start" x="456" y="-277.5" font-family="Helvetica,sans-Serif" font-size="10.00">+ IsUnique()</text>
<text text-anchor="start" x="456" y="-266.5" font-family="Helvetica,sans-Serif" font-size="10.00">+ AllUniqueNames()</text>
<text text-anchor="start" x="456" y="-255.5" font-family="Helvetica,sans-Serif" font-size="10.00">&#45; AddCurve()</text>
<text text-anchor="start" x="456" y="-244.5" font-family="Helvetica,sans-Serif" font-size="10.00">&#45; qHash()</text>
<text text-anchor="start" x="456" y="-233.5" font-family="Helvetica,sans-Serif" font-size="10.00">&#45; GetObject()</text>
<text text-anchor="start" x="456" y="-222.5" font-family="Helvetica,sans-Serif" font-size="10.00">&#45; UpdateObject()</text>
<text text-anchor="start" x="456" y="-211.5" font-family="Helvetica,sans-Serif" font-size="10.00">&#45; DataVar()</text>
<text text-anchor="start" x="456" y="-200.5" font-family="Helvetica,sans-Serif" font-size="10.00">&#45; AddObject()</text>
</a>
</g>
</g>
<!-- Node12&#45;&gt;Node1 -->
<g id="edge12" class="edge">
<title>Node12&#45;&gt;Node1</title>
<path fill="none" stroke="#404040" d="M447.87,-208.18C444.96,-203.03 442,-197.96 439,-193 428.96,-176.44 416.93,-159.69 404.71,-144.07"/>
<polygon fill="none" stroke="#404040" points="404.57,-143.9 397.71,-141.69 397.1,-134.51 403.97,-136.71 404.57,-143.9"/>
<text text-anchor="middle" x="449" y="-161.5" font-family="Helvetica,sans-Serif" font-size="10.00"> &#45;m_data</text>
</g>
</g>
</svg>
