<?xml version="1.0" encoding="UTF-8" standalone="no"?>
<!DOCTYPE svg PUBLIC "-//W3C//DTD SVG 1.1//EN"
 "http://www.w3.org/Graphics/SVG/1.1/DTD/svg11.dtd">
<!-- Generated by graphviz version 2.43.0 (0)
 -->
<!-- Title: src/libs/ifc/xml/abstract_converter.cpp Pages: 1 -->
<!--zoomable 375 -->
<svg id="main" version="1.1" xmlns="http://www.w3.org/2000/svg" xmlns:xlink="http://www.w3.org/1999/xlink" xml:space="preserve" onload="init(evt)">
<style type="text/css"><![CDATA[
.edge:hover path { stroke: red; }
.edge:hover polygon { stroke: red; fill: red; }
]]></style>
<script type="text/javascript"><![CDATA[
var edges = document.getElementsByTagName('g');
if (edges && edges.length) {
  for (var i=0;i<edges.length;i++) {
    if (edges[i].id.substr(0,4)=='edge') {
      edges[i].setAttribute('class','edge');
    }
  }
}
]]></script>
        <defs>
                <circle id="rim" cx="0" cy="0" r="7"/>
                <circle id="rim2" cx="0" cy="0" r="3.5"/>
                <g id="zoomPlus">
                        <use xlink:href="#rim" fill="#404040">
                                <set attributeName="fill" to="#808080" begin="zoomplus.mouseover" end="zoomplus.mouseout"/>
                        </use>
                        <path d="M-4,0h8M0,-4v8" fill="none" stroke="white" stroke-width="1.5" pointer-events="none"/>
                </g>
                <g id="zoomMin">
                        <use xlink:href="#rim" fill="#404040">
                                <set attributeName="fill" to="#808080" begin="zoomminus.mouseover" end="zoomminus.mouseout"/>
                        </use>
                        <path d="M-4,0h8" fill="none" stroke="white" stroke-width="1.5" pointer-events="none"/>
                </g>
                <g id="dirArrow">
                        <path fill="none" stroke="white" stroke-width="1.5" d="M0,-3.0v7 M-2.5,-0.5L0,-3.0L2.5,-0.5"/>
                </g>
               <g id="resetDef">
                       <use xlink:href="#rim2" fill="#404040">
                               <set attributeName="fill" to="#808080" begin="reset.mouseover" end="reset.mouseout"/>
                       </use>
               </g>
        </defs>

<script type="text/javascript">
var viewWidth = 2436;
var viewHeight = 375;
var sectionId = 'dynsection-0';
</script>
<script xlink:href="../../svgpan.js"/>
<svg id="graph" class="graph">
<g id="viewport">
<title>src/libs/ifc/xml/abstract_converter.cpp</title>
<polygon fill="white" stroke="transparent" points="-4,4 -4,-371 2432,-371 2432,4 -4,4"/>
<!-- Node1 -->
<g id="node1" class="node">
<title>Node1</title>
<g id="a_node1"><a xlink:title=" ">
<polygon fill="#bfbfbf" stroke="black" points="1399.5,-336.5 1399.5,-366.5 1530.5,-366.5 1530.5,-336.5 1399.5,-336.5"/>
<text text-anchor="start" x="1407.5" y="-354.5" font-family="Helvetica,sans-Serif" font-size="10.00">src/libs/ifc/xml/abstract</text>
<text text-anchor="middle" x="1465" y="-343.5" font-family="Helvetica,sans-Serif" font-size="10.00">_converter.cpp</text>
</a>
</g>
</g>
<!-- Node2 -->
<g id="node2" class="node">
<title>Node2</title>
<g id="a_node2"><a xlink:href="../../d0/da1/abstract__converter_8h.html" target="_top" xlink:title=" ">
<polygon fill="white" stroke="black" points="880,-280.5 880,-299.5 996,-299.5 996,-280.5 880,-280.5"/>
<text text-anchor="middle" x="938" y="-287.5" font-family="Helvetica,sans-Serif" font-size="10.00">abstract_converter.h</text>
</a>
</g>
</g>
<!-- Node1&#45;&gt;Node2 -->
<g id="edge1" class="edge">
<title>Node1&#45;&gt;Node2</title>
<path fill="none" stroke="midnightblue" d="M1399.32,-343.08C1298.89,-331.75 1108.09,-310.2 1006.18,-298.7"/>
<polygon fill="midnightblue" stroke="midnightblue" points="1006.33,-295.19 996,-297.55 1005.55,-302.15 1006.33,-295.19"/>
</g>
<!-- Node5 -->
<g id="node5" class="node">
<title>Node5</title>
<g id="a_node5"><a xlink:title=" ">
<polygon fill="white" stroke="#bfbfbf" points="834.5,-56.5 834.5,-75.5 887.5,-75.5 887.5,-56.5 834.5,-56.5"/>
<text text-anchor="middle" x="861" y="-63.5" font-family="Helvetica,sans-Serif" font-size="10.00">QString</text>
</a>
</g>
</g>
<!-- Node1&#45;&gt;Node5 -->
<g id="edge31" class="edge">
<title>Node1&#45;&gt;Node5</title>
<path fill="none" stroke="midnightblue" d="M1399.32,-345.44C1284.41,-334.75 1059,-304.89 1059,-235 1059,-235 1059,-235 1059,-177 1059,-104.07 955.09,-79.08 897.82,-70.84"/>
<polygon fill="midnightblue" stroke="midnightblue" points="898.08,-67.35 887.7,-69.49 897.15,-74.28 898.08,-67.35"/>
</g>
<!-- Node8 -->
<g id="node8" class="node">
<title>Node8</title>
<g id="a_node8"><a xlink:href="../../d8/da5/vdomdocument_8h.html" target="_top" xlink:title=" ">
<polygon fill="white" stroke="black" points="1236,-224.5 1236,-243.5 1338,-243.5 1338,-224.5 1236,-224.5"/>
<text text-anchor="middle" x="1287" y="-231.5" font-family="Helvetica,sans-Serif" font-size="10.00">vdomdocument.h</text>
</a>
</g>
</g>
<!-- Node1&#45;&gt;Node8 -->
<g id="edge33" class="edge">
<title>Node1&#45;&gt;Node8</title>
<path fill="none" stroke="midnightblue" d="M1424.16,-336.43C1401.81,-327.73 1374.21,-315.29 1352,-300 1331.97,-286.21 1312.76,-265.81 1300.48,-251.55"/>
<polygon fill="midnightblue" stroke="midnightblue" points="1302.9,-248.99 1293.79,-243.58 1297.54,-253.49 1302.9,-248.99"/>
</g>
<!-- Node10 -->
<g id="node10" class="node">
<title>Node10</title>
<g id="a_node10"><a xlink:title=" ">
<polygon fill="white" stroke="#bfbfbf" points="1836,-168.5 1836,-187.5 1924,-187.5 1924,-168.5 1836,-168.5"/>
<text text-anchor="middle" x="1880" y="-175.5" font-family="Helvetica,sans-Serif" font-size="10.00">QDomElement</text>
</a>
</g>
</g>
<!-- Node1&#45;&gt;Node10 -->
<g id="edge22" class="edge">
<title>Node1&#45;&gt;Node10</title>
<path fill="none" stroke="midnightblue" d="M1430.31,-336.34C1415.04,-328.15 1398.63,-316.21 1390,-300 1374.13,-270.18 1367.12,-248.85 1390,-224 1421.39,-189.91 1744.7,-193.61 1825.36,-187.78"/>
<polygon fill="midnightblue" stroke="midnightblue" points="1826.17,-191.22 1835.8,-186.8 1825.51,-184.25 1826.17,-191.22"/>
</g>
<!-- Node11 -->
<g id="node11" class="node">
<title>Node11</title>
<g id="a_node11"><a xlink:title=" ">
<polygon fill="white" stroke="#bfbfbf" points="1942.5,-168.5 1942.5,-187.5 2015.5,-187.5 2015.5,-168.5 1942.5,-168.5"/>
<text text-anchor="middle" x="1979" y="-175.5" font-family="Helvetica,sans-Serif" font-size="10.00">QDomNode</text>
</a>
</g>
</g>
<!-- Node1&#45;&gt;Node11 -->
<g id="edge23" class="edge">
<title>Node1&#45;&gt;Node11</title>
<path fill="none" stroke="midnightblue" d="M1450.89,-336.46C1442.45,-327.03 1432.53,-313.84 1428,-300 1417.5,-267.9 1404.98,-248.72 1428,-224 1464.73,-184.56 1843.39,-194.45 1932.42,-187.58"/>
<polygon fill="midnightblue" stroke="midnightblue" points="1932.81,-191.06 1942.41,-186.58 1932.11,-184.1 1932.81,-191.06"/>
</g>
<!-- Node13 -->
<g id="node13" class="node">
<title>Node13</title>
<g id="a_node13"><a xlink:title=" ">
<polygon fill="white" stroke="#bfbfbf" points="2033.5,-168.5 2033.5,-187.5 2116.5,-187.5 2116.5,-168.5 2033.5,-168.5"/>
<text text-anchor="middle" x="2075" y="-175.5" font-family="Helvetica,sans-Serif" font-size="10.00">QLatin1String</text>
</a>
</g>
</g>
<!-- Node1&#45;&gt;Node13 -->
<g id="edge27" class="edge">
<title>Node1&#45;&gt;Node13</title>
<path fill="none" stroke="midnightblue" d="M1458.98,-336.24C1453.41,-320.55 1447.82,-295.51 1461,-280 1541.24,-185.61 1882.59,-208.26 2023.1,-188.16"/>
<polygon fill="midnightblue" stroke="midnightblue" points="2023.93,-191.57 2033.27,-186.56 2022.85,-184.65 2023.93,-191.57"/>
</g>
<!-- Node19 -->
<g id="node19" class="node">
<title>Node19</title>
<g id="a_node19"><a xlink:title=" ">
<polygon fill="white" stroke="#bfbfbf" points="1470,-280.5 1470,-299.5 1508,-299.5 1508,-280.5 1470,-280.5"/>
<text text-anchor="middle" x="1489" y="-287.5" font-family="Helvetica,sans-Serif" font-size="10.00">QDir</text>
</a>
</g>
</g>
<!-- Node1&#45;&gt;Node19 -->
<g id="edge21" class="edge">
<title>Node1&#45;&gt;Node19</title>
<path fill="none" stroke="midnightblue" d="M1470.69,-336.4C1474,-328.2 1478.2,-317.78 1481.74,-308.99"/>
<polygon fill="midnightblue" stroke="midnightblue" points="1485.01,-310.24 1485.51,-299.66 1478.52,-307.62 1485.01,-310.24"/>
</g>
<!-- Node20 -->
<g id="node20" class="node">
<title>Node20</title>
<g id="a_node20"><a xlink:title=" ">
<polygon fill="white" stroke="#bfbfbf" points="1526,-280.5 1526,-299.5 1616,-299.5 1616,-280.5 1526,-280.5"/>
<text text-anchor="middle" x="1571" y="-287.5" font-family="Helvetica,sans-Serif" font-size="10.00">QDomNodeList</text>
</a>
</g>
</g>
<!-- Node1&#45;&gt;Node20 -->
<g id="edge24" class="edge">
<title>Node1&#45;&gt;Node20</title>
<path fill="none" stroke="midnightblue" d="M1490.12,-336.4C1507.27,-326.77 1529.86,-314.09 1546.81,-304.58"/>
<polygon fill="midnightblue" stroke="midnightblue" points="1548.57,-307.6 1555.58,-299.66 1545.14,-301.5 1548.57,-307.6"/>
</g>
<!-- Node21 -->
<g id="node21" class="node">
<title>Node21</title>
<g id="a_node21"><a xlink:title=" ">
<polygon fill="white" stroke="#bfbfbf" points="1634.5,-280.5 1634.5,-299.5 1675.5,-299.5 1675.5,-280.5 1634.5,-280.5"/>
<text text-anchor="middle" x="1655" y="-287.5" font-family="Helvetica,sans-Serif" font-size="10.00">QFile</text>
</a>
</g>
</g>
<!-- Node1&#45;&gt;Node21 -->
<g id="edge25" class="edge">
<title>Node1&#45;&gt;Node21</title>
<path fill="none" stroke="midnightblue" d="M1510.03,-336.4C1545.32,-325.35 1593.49,-310.26 1624.42,-300.58"/>
<polygon fill="midnightblue" stroke="midnightblue" points="1625.71,-303.84 1634.21,-297.51 1623.62,-297.16 1625.71,-303.84"/>
</g>
<!-- Node22 -->
<g id="node22" class="node">
<title>Node22</title>
<g id="a_node22"><a xlink:title=" ">
<polygon fill="white" stroke="#bfbfbf" points="1694,-280.5 1694,-299.5 1754,-299.5 1754,-280.5 1694,-280.5"/>
<text text-anchor="middle" x="1724" y="-287.5" font-family="Helvetica,sans-Serif" font-size="10.00">QFileInfo</text>
</a>
</g>
</g>
<!-- Node1&#45;&gt;Node22 -->
<g id="edge26" class="edge">
<title>Node1&#45;&gt;Node22</title>
<path fill="none" stroke="midnightblue" d="M1526.17,-336.48C1567.99,-326.89 1624.95,-313.82 1683.91,-300.25"/>
<polygon fill="midnightblue" stroke="midnightblue" points="1684.81,-303.63 1693.77,-297.98 1683.24,-296.81 1684.81,-303.63"/>
</g>
<!-- Node23 -->
<g id="node23" class="node">
<title>Node23</title>
<g id="a_node23"><a xlink:title=" ">
<polygon fill="white" stroke="#bfbfbf" points="1772.5,-280.5 1772.5,-299.5 1817.5,-299.5 1817.5,-280.5 1772.5,-280.5"/>
<text text-anchor="middle" x="1795" y="-287.5" font-family="Helvetica,sans-Serif" font-size="10.00">QMap</text>
</a>
</g>
</g>
<!-- Node1&#45;&gt;Node23 -->
<g id="edge28" class="edge">
<title>Node1&#45;&gt;Node23</title>
<path fill="none" stroke="midnightblue" d="M1530.79,-341.4C1589.19,-332.86 1676.96,-318.89 1762.48,-299.91"/>
<polygon fill="midnightblue" stroke="midnightblue" points="1763.36,-303.3 1772.35,-297.69 1761.83,-296.47 1763.36,-303.3"/>
</g>
<!-- Node24 -->
<g id="node24" class="node">
<title>Node24</title>
<g id="a_node24"><a xlink:title=" ">
<polygon fill="white" stroke="#bfbfbf" points="1835.5,-280.5 1835.5,-299.5 1950.5,-299.5 1950.5,-280.5 1835.5,-280.5"/>
<text text-anchor="middle" x="1893" y="-287.5" font-family="Helvetica,sans-Serif" font-size="10.00">QRegularExpression</text>
</a>
</g>
</g>
<!-- Node1&#45;&gt;Node24 -->
<g id="edge29" class="edge">
<title>Node1&#45;&gt;Node24</title>
<path fill="none" stroke="midnightblue" d="M1530.94,-341.33C1610.77,-330.24 1744.51,-311.64 1825.18,-300.43"/>
<polygon fill="midnightblue" stroke="midnightblue" points="1825.8,-303.88 1835.23,-299.03 1824.84,-296.94 1825.8,-303.88"/>
</g>
<!-- Node25 -->
<g id="node25" class="node">
<title>Node25</title>
<g id="a_node25"><a xlink:title=" ">
<polygon fill="white" stroke="#bfbfbf" points="1968.5,-280.5 1968.5,-299.5 2113.5,-299.5 2113.5,-280.5 1968.5,-280.5"/>
<text text-anchor="middle" x="2041" y="-287.5" font-family="Helvetica,sans-Serif" font-size="10.00">QRegularExpressionMatch</text>
</a>
</g>
</g>
<!-- Node1&#45;&gt;Node25 -->
<g id="edge30" class="edge">
<title>Node1&#45;&gt;Node25</title>
<path fill="none" stroke="midnightblue" d="M1530.68,-343.99C1623.55,-334.74 1798.87,-317.13 1958.16,-300.19"/>
<polygon fill="midnightblue" stroke="midnightblue" points="1958.57,-303.67 1968.15,-299.13 1957.83,-296.7 1958.57,-303.67"/>
</g>
<!-- Node26 -->
<g id="node26" class="node">
<title>Node26</title>
<g id="a_node26"><a xlink:title=" ">
<polygon fill="white" stroke="#bfbfbf" points="138,-56.5 138,-75.5 208,-75.5 208,-56.5 138,-56.5"/>
<text text-anchor="middle" x="173" y="-63.5" font-family="Helvetica,sans-Serif" font-size="10.00">QStringList</text>
</a>
</g>
</g>
<!-- Node1&#45;&gt;Node26 -->
<g id="edge32" class="edge">
<title>Node1&#45;&gt;Node26</title>
<path fill="none" stroke="midnightblue" d="M1399.25,-349.24C1215.79,-345.36 700.94,-331.88 535,-300 414.64,-276.88 376.34,-267.43 283,-188 243.91,-154.73 205.17,-108.1 185.78,-83.58"/>
<polygon fill="midnightblue" stroke="midnightblue" points="188.47,-81.33 179.55,-75.61 182.95,-85.64 188.47,-81.33"/>
</g>
<!-- Node27 -->
<g id="node27" class="node">
<title>Node27</title>
<g id="a_node27"><a xlink:href="../../d1/d44/vexception_8h.html" target="_top" xlink:title=" ">
<polygon fill="white" stroke="black" points="378,-224.5 378,-243.5 518,-243.5 518,-224.5 378,-224.5"/>
<text text-anchor="middle" x="448" y="-231.5" font-family="Helvetica,sans-Serif" font-size="10.00">../exception/vexception.h</text>
</a>
</g>
</g>
<!-- Node1&#45;&gt;Node27 -->
<g id="edge34" class="edge">
<title>Node1&#45;&gt;Node27</title>
<path fill="none" stroke="midnightblue" d="M1399.19,-349.64C1224.13,-346.87 750,-336.16 598,-300 551.36,-288.91 500.97,-264.16 472.08,-248.6"/>
<polygon fill="midnightblue" stroke="midnightblue" points="473.59,-245.44 463.14,-243.71 470.23,-251.58 473.59,-245.44"/>
</g>
<!-- Node40 -->
<g id="node40" class="node">
<title>Node40</title>
<g id="a_node40"><a xlink:href="../../d0/d21/vexceptionwrongid_8h.html" target="_top" xlink:title=" ">
<polygon fill="white" stroke="black" points="607.5,-280.5 607.5,-299.5 786.5,-299.5 786.5,-280.5 607.5,-280.5"/>
<text text-anchor="middle" x="697" y="-287.5" font-family="Helvetica,sans-Serif" font-size="10.00">../exception/vexceptionwrongid.h</text>
</a>
</g>
</g>
<!-- Node1&#45;&gt;Node40 -->
<g id="edge58" class="edge">
<title>Node1&#45;&gt;Node40</title>
<path fill="none" stroke="midnightblue" d="M1399.19,-345.4C1264.46,-334.96 956.5,-311.1 796.95,-298.74"/>
<polygon fill="midnightblue" stroke="midnightblue" points="796.9,-295.23 786.66,-297.95 796.36,-302.21 796.9,-295.23"/>
</g>
<!-- Node41 -->
<g id="node41" class="node">
<title>Node41</title>
<g id="a_node41"><a xlink:title=" ">
<polygon fill="white" stroke="#bfbfbf" points="2131.5,-280.5 2131.5,-299.5 2298.5,-299.5 2298.5,-280.5 2131.5,-280.5"/>
<text text-anchor="middle" x="2215" y="-287.5" font-family="Helvetica,sans-Serif" font-size="10.00">../vmisc/vabstractapplication.h</text>
</a>
</g>
</g>
<!-- Node1&#45;&gt;Node41 -->
<g id="edge64" class="edge">
<title>Node1&#45;&gt;Node41</title>
<path fill="none" stroke="midnightblue" d="M1530.88,-345.9C1647.61,-337.65 1898.67,-319.46 2121.04,-300.16"/>
<polygon fill="midnightblue" stroke="midnightblue" points="2121.61,-303.62 2131.27,-299.27 2121,-296.65 2121.61,-303.62"/>
</g>
<!-- Node42 -->
<g id="node42" class="node">
<title>Node42</title>
<g id="a_node42"><a xlink:title=" ">
<polygon fill="white" stroke="#bfbfbf" points="2316,-280.5 2316,-299.5 2428,-299.5 2428,-280.5 2316,-280.5"/>
<text text-anchor="middle" x="2372" y="-287.5" font-family="Helvetica,sans-Serif" font-size="10.00">../vmisc/vsettings.h</text>
</a>
</g>
</g>
<!-- Node1&#45;&gt;Node42 -->
<g id="edge65" class="edge">
<title>Node1&#45;&gt;Node42</title>
<path fill="none" stroke="midnightblue" d="M1530.73,-348.35C1671.23,-343.37 2011.39,-329.24 2305.82,-300.15"/>
<polygon fill="midnightblue" stroke="midnightblue" points="2306.23,-303.63 2315.84,-299.16 2305.54,-296.66 2306.23,-303.63"/>
</g>
<!-- Node3 -->
<g id="node3" class="node">
<title>Node3</title>
<g id="a_node3"><a xlink:title=" ">
<polygon fill="white" stroke="#bfbfbf" points="0,-56.5 0,-75.5 120,-75.5 120,-56.5 0,-56.5"/>
<text text-anchor="middle" x="60" y="-63.5" font-family="Helvetica,sans-Serif" font-size="10.00">qcompilerdetection.h</text>
</a>
</g>
</g>
<!-- Node2&#45;&gt;Node3 -->
<g id="edge2" class="edge">
<title>Node2&#45;&gt;Node3</title>
<path fill="none" stroke="midnightblue" d="M879.82,-280.82C788.62,-267.1 607.12,-236.12 459,-188 419.64,-175.21 328.44,-124.51 289,-112 236.94,-95.48 176.21,-83.88 130.37,-76.6"/>
<polygon fill="midnightblue" stroke="midnightblue" points="130.66,-73.1 120.24,-75.02 129.58,-80.02 130.66,-73.1"/>
</g>
<!-- Node4 -->
<g id="node4" class="node">
<title>Node4</title>
<g id="a_node4"><a xlink:title=" ">
<polygon fill="white" stroke="#bfbfbf" points="853.5,-168.5 853.5,-187.5 954.5,-187.5 954.5,-168.5 853.5,-168.5"/>
<text text-anchor="middle" x="904" y="-175.5" font-family="Helvetica,sans-Serif" font-size="10.00">QCoreApplication</text>
</a>
</g>
</g>
<!-- Node2&#45;&gt;Node4 -->
<g id="edge3" class="edge">
<title>Node2&#45;&gt;Node4</title>
<path fill="none" stroke="midnightblue" d="M920.8,-280.39C907.75,-272.79 890.77,-260.39 883,-244 875.64,-228.48 883.33,-209.71 891.4,-196.34"/>
<polygon fill="midnightblue" stroke="midnightblue" points="894.53,-197.96 897.13,-187.68 888.69,-194.09 894.53,-197.96"/>
</g>
<!-- Node2&#45;&gt;Node5 -->
<g id="edge4" class="edge">
<title>Node2&#45;&gt;Node5</title>
<path fill="none" stroke="midnightblue" d="M955.5,-280.46C968.79,-272.92 986.08,-260.53 994,-244 997.84,-235.98 996.16,-232.62 994,-224 977.87,-159.75 915.33,-106.21 882.07,-81.57"/>
<polygon fill="midnightblue" stroke="midnightblue" points="884.07,-78.69 873.91,-75.67 879.97,-84.36 884.07,-78.69"/>
</g>
<!-- Node6 -->
<g id="node6" class="node">
<title>Node6</title>
<g id="a_node6"><a xlink:title=" ">
<polygon fill="white" stroke="#bfbfbf" points="891.5,-224.5 891.5,-243.5 984.5,-243.5 984.5,-224.5 891.5,-224.5"/>
<text text-anchor="middle" x="938" y="-231.5" font-family="Helvetica,sans-Serif" font-size="10.00">QTemporaryFile</text>
</a>
</g>
</g>
<!-- Node2&#45;&gt;Node6 -->
<g id="edge5" class="edge">
<title>Node2&#45;&gt;Node6</title>
<path fill="none" stroke="midnightblue" d="M938,-280.08C938,-273.01 938,-262.86 938,-253.99"/>
<polygon fill="midnightblue" stroke="midnightblue" points="941.5,-253.75 938,-243.75 934.5,-253.75 941.5,-253.75"/>
</g>
<!-- Node7 -->
<g id="node7" class="node">
<title>Node7</title>
<g id="a_node7"><a xlink:title=" ">
<polygon fill="white" stroke="#bfbfbf" points="757.5,-56.5 757.5,-75.5 816.5,-75.5 816.5,-56.5 757.5,-56.5"/>
<text text-anchor="middle" x="787" y="-63.5" font-family="Helvetica,sans-Serif" font-size="10.00">QtGlobal</text>
</a>
</g>
</g>
<!-- Node2&#45;&gt;Node7 -->
<g id="edge6" class="edge">
<title>Node2&#45;&gt;Node7</title>
<path fill="none" stroke="midnightblue" d="M922.59,-280.34C909.12,-272.23 889.64,-259.1 876,-244 831.7,-194.93 803.75,-119.77 792.57,-85.36"/>
<polygon fill="midnightblue" stroke="midnightblue" points="795.87,-84.19 789.53,-75.7 789.2,-86.29 795.87,-84.19"/>
</g>
<!-- Node2&#45;&gt;Node8 -->
<g id="edge7" class="edge">
<title>Node2&#45;&gt;Node8</title>
<path fill="none" stroke="midnightblue" d="M993.3,-280.44C1056.61,-270.65 1160.01,-254.65 1225.72,-244.48"/>
<polygon fill="midnightblue" stroke="midnightblue" points="1226.59,-247.89 1235.93,-242.9 1225.52,-240.97 1226.59,-247.89"/>
</g>
<!-- Node8&#45;&gt;Node4 -->
<g id="edge8" class="edge">
<title>Node8&#45;&gt;Node4</title>
<path fill="none" stroke="midnightblue" d="M1235.74,-225.77C1165.56,-215.88 1039.75,-198.14 964.87,-187.58"/>
<polygon fill="midnightblue" stroke="midnightblue" points="965.04,-184.07 954.65,-186.14 964.06,-191 965.04,-184.07"/>
</g>
<!-- Node8&#45;&gt;Node5 -->
<g id="edge14" class="edge">
<title>Node8&#45;&gt;Node5</title>
<path fill="none" stroke="midnightblue" d="M1235.62,-229.96C1199.02,-225.47 1150.41,-214.52 1116,-188 1085.26,-164.31 1104.3,-134.94 1073,-112 1045.55,-91.88 951,-77.72 897.91,-71.15"/>
<polygon fill="midnightblue" stroke="midnightblue" points="898.23,-67.66 887.88,-69.93 897.39,-74.61 898.23,-67.66"/>
</g>
<!-- Node8&#45;&gt;Node7 -->
<g id="edge15" class="edge">
<title>Node8&#45;&gt;Node7</title>
<path fill="none" stroke="midnightblue" d="M1242.9,-224.47C1203.88,-216.48 1145.6,-203.47 1096,-188 990.37,-155.06 869.33,-103.45 815.44,-79.71"/>
<polygon fill="midnightblue" stroke="midnightblue" points="816.74,-76.46 806.18,-75.62 813.91,-82.86 816.74,-76.46"/>
</g>
<!-- Node9 -->
<g id="node9" class="node">
<title>Node9</title>
<g id="a_node9"><a xlink:title=" ">
<polygon fill="white" stroke="#bfbfbf" points="1652,-168.5 1652,-187.5 1750,-187.5 1750,-168.5 1652,-168.5"/>
<text text-anchor="middle" x="1701" y="-175.5" font-family="Helvetica,sans-Serif" font-size="10.00">QDomDocument</text>
</a>
</g>
</g>
<!-- Node8&#45;&gt;Node9 -->
<g id="edge9" class="edge">
<title>Node8&#45;&gt;Node9</title>
<path fill="none" stroke="midnightblue" d="M1338.09,-225.86C1342.79,-225.22 1347.48,-224.59 1352,-224 1478.06,-207.48 1512.27,-206.06 1642.04,-188.1"/>
<polygon fill="midnightblue" stroke="midnightblue" points="1642.55,-191.56 1651.97,-186.72 1641.58,-184.63 1642.55,-191.56"/>
</g>
<!-- Node8&#45;&gt;Node10 -->
<g id="edge10" class="edge">
<title>Node8&#45;&gt;Node10</title>
<path fill="none" stroke="midnightblue" d="M1338.06,-225.63C1342.77,-225.04 1347.47,-224.48 1352,-224 1559.23,-201.82 1615.12,-213.37 1825.65,-188.05"/>
<polygon fill="midnightblue" stroke="midnightblue" points="1826.29,-191.5 1835.8,-186.82 1825.45,-184.55 1826.29,-191.5"/>
</g>
<!-- Node8&#45;&gt;Node11 -->
<g id="edge11" class="edge">
<title>Node8&#45;&gt;Node11</title>
<path fill="none" stroke="midnightblue" d="M1338.06,-228.33C1354.63,-226.87 1373.09,-225.3 1390,-224 1627.86,-205.73 1691.44,-218.91 1932.29,-187.91"/>
<polygon fill="midnightblue" stroke="midnightblue" points="1932.94,-191.35 1942.41,-186.59 1932.04,-184.41 1932.94,-191.35"/>
</g>
<!-- Node12 -->
<g id="node12" class="node">
<title>Node12</title>
<g id="a_node12"><a xlink:title=" ">
<polygon fill="white" stroke="#bfbfbf" points="1768.5,-168.5 1768.5,-187.5 1817.5,-187.5 1817.5,-168.5 1768.5,-168.5"/>
<text text-anchor="middle" x="1793" y="-175.5" font-family="Helvetica,sans-Serif" font-size="10.00">QHash</text>
</a>
</g>
</g>
<!-- Node8&#45;&gt;Node12 -->
<g id="edge12" class="edge">
<title>Node8&#45;&gt;Node12</title>
<path fill="none" stroke="midnightblue" d="M1338.06,-225.69C1342.77,-225.09 1347.47,-224.51 1352,-224 1529.18,-203.91 1578.36,-218.79 1758.17,-187.84"/>
<polygon fill="midnightblue" stroke="midnightblue" points="1758.98,-191.25 1768.23,-186.08 1757.77,-184.35 1758.98,-191.25"/>
</g>
<!-- Node8&#45;&gt;Node13 -->
<g id="edge13" class="edge">
<title>Node8&#45;&gt;Node13</title>
<path fill="none" stroke="midnightblue" d="M1338.23,-229.69C1364.98,-227.97 1398.25,-225.85 1428,-224 1689.94,-207.74 1759.32,-219.3 2023.04,-188.11"/>
<polygon fill="midnightblue" stroke="midnightblue" points="2023.8,-191.54 2033.31,-186.88 2022.97,-184.59 2023.8,-191.54"/>
</g>
<!-- Node14 -->
<g id="node14" class="node">
<title>Node14</title>
<g id="a_node14"><a xlink:title=" ">
<polygon fill="white" stroke="#bfbfbf" points="1125,-168.5 1125,-187.5 1181,-187.5 1181,-168.5 1125,-168.5"/>
<text text-anchor="middle" x="1153" y="-175.5" font-family="Helvetica,sans-Serif" font-size="10.00">QLocale</text>
</a>
</g>
</g>
<!-- Node8&#45;&gt;Node14 -->
<g id="edge16" class="edge">
<title>Node8&#45;&gt;Node14</title>
<path fill="none" stroke="midnightblue" d="M1265.77,-224.44C1243.62,-215.52 1208.68,-201.44 1183.56,-191.32"/>
<polygon fill="midnightblue" stroke="midnightblue" points="1184.72,-188.01 1174.13,-187.52 1182.1,-194.5 1184.72,-188.01"/>
</g>
<!-- Node15 -->
<g id="node15" class="node">
<title>Node15</title>
<g id="a_node15"><a xlink:title=" ">
<polygon fill="white" stroke="#bfbfbf" points="1199.5,-168.5 1199.5,-187.5 1276.5,-187.5 1276.5,-168.5 1199.5,-168.5"/>
<text text-anchor="middle" x="1238" y="-175.5" font-family="Helvetica,sans-Serif" font-size="10.00">../ifc/ifcdef.h</text>
</a>
</g>
</g>
<!-- Node8&#45;&gt;Node15 -->
<g id="edge17" class="edge">
<title>Node8&#45;&gt;Node15</title>
<path fill="none" stroke="midnightblue" d="M1278.91,-224.08C1271.84,-216.3 1261.41,-204.8 1252.85,-195.37"/>
<polygon fill="midnightblue" stroke="midnightblue" points="1255.25,-192.8 1245.94,-187.75 1250.07,-197.51 1255.25,-192.8"/>
</g>
<!-- Node16 -->
<g id="node16" class="node">
<title>Node16</title>
<g id="a_node16"><a xlink:title=" ">
<polygon fill="white" stroke="#bfbfbf" points="1295,-168.5 1295,-187.5 1377,-187.5 1377,-168.5 1295,-168.5"/>
<text text-anchor="middle" x="1336" y="-175.5" font-family="Helvetica,sans-Serif" font-size="10.00">../vmisc/def.h</text>
</a>
</g>
</g>
<!-- Node8&#45;&gt;Node16 -->
<g id="edge18" class="edge">
<title>Node8&#45;&gt;Node16</title>
<path fill="none" stroke="midnightblue" d="M1295.09,-224.08C1302.16,-216.3 1312.59,-204.8 1321.15,-195.37"/>
<polygon fill="midnightblue" stroke="midnightblue" points="1323.93,-197.51 1328.06,-187.75 1318.75,-192.8 1323.93,-197.51"/>
</g>
<!-- Node17 -->
<g id="node17" class="node">
<title>Node17</title>
<g id="a_node17"><a xlink:title=" ">
<polygon fill="white" stroke="#bfbfbf" points="1395.5,-168.5 1395.5,-187.5 1512.5,-187.5 1512.5,-168.5 1395.5,-168.5"/>
<text text-anchor="middle" x="1454" y="-175.5" font-family="Helvetica,sans-Serif" font-size="10.00">../vmisc/diagnostic.h</text>
</a>
</g>
</g>
<!-- Node8&#45;&gt;Node17 -->
<g id="edge19" class="edge">
<title>Node8&#45;&gt;Node17</title>
<path fill="none" stroke="midnightblue" d="M1313.46,-224.44C1341.68,-215.32 1386.54,-200.81 1417.97,-190.65"/>
<polygon fill="midnightblue" stroke="midnightblue" points="1419.22,-193.92 1427.66,-187.52 1417.07,-187.26 1419.22,-193.92"/>
</g>
<!-- Node18 -->
<g id="node18" class="node">
<title>Node18</title>
<g id="a_node18"><a xlink:title=" ">
<polygon fill="white" stroke="#bfbfbf" points="1530.5,-168.5 1530.5,-187.5 1633.5,-187.5 1633.5,-168.5 1530.5,-168.5"/>
<text text-anchor="middle" x="1582" y="-175.5" font-family="Helvetica,sans-Serif" font-size="10.00">../vmisc/logging.h</text>
</a>
</g>
</g>
<!-- Node8&#45;&gt;Node18 -->
<g id="edge20" class="edge">
<title>Node8&#45;&gt;Node18</title>
<path fill="none" stroke="midnightblue" d="M1333.74,-224.44C1385.75,-214.92 1469.75,-199.55 1525.42,-189.36"/>
<polygon fill="midnightblue" stroke="midnightblue" points="1526.27,-192.76 1535.48,-187.52 1525.01,-185.87 1526.27,-192.76"/>
</g>
<!-- Node27&#45;&gt;Node3 -->
<g id="edge35" class="edge">
<title>Node27&#45;&gt;Node3</title>
<path fill="none" stroke="midnightblue" d="M440.01,-224.31C427.08,-210.68 400.26,-184.18 373,-168 291.2,-119.45 183.32,-91.31 117.94,-77.59"/>
<polygon fill="midnightblue" stroke="midnightblue" points="118.32,-74.09 107.82,-75.51 116.91,-80.95 118.32,-74.09"/>
</g>
<!-- Node27&#45;&gt;Node4 -->
<g id="edge36" class="edge">
<title>Node27&#45;&gt;Node4</title>
<path fill="none" stroke="midnightblue" d="M518.25,-224.68C607.23,-214.14 759.07,-196.16 843.26,-186.19"/>
<polygon fill="midnightblue" stroke="midnightblue" points="843.92,-189.64 853.44,-184.99 843.09,-182.69 843.92,-189.64"/>
</g>
<!-- Node27&#45;&gt;Node5 -->
<g id="edge38" class="edge">
<title>Node27&#45;&gt;Node5</title>
<path fill="none" stroke="midnightblue" d="M469.33,-224.42C537.45,-197.05 749.9,-111.65 830.01,-79.45"/>
<polygon fill="midnightblue" stroke="midnightblue" points="831.57,-82.6 839.54,-75.62 828.96,-76.11 831.57,-82.6"/>
</g>
<!-- Node28 -->
<g id="node28" class="node">
<title>Node28</title>
<g id="a_node28"><a xlink:title=" ">
<polygon fill="white" stroke="#bfbfbf" points="292,-168.5 292,-187.5 364,-187.5 364,-168.5 292,-168.5"/>
<text text-anchor="middle" x="328" y="-175.5" font-family="Helvetica,sans-Serif" font-size="10.00">QException</text>
</a>
</g>
</g>
<!-- Node27&#45;&gt;Node28 -->
<g id="edge37" class="edge">
<title>Node27&#45;&gt;Node28</title>
<path fill="none" stroke="midnightblue" d="M428.99,-224.44C409.41,-215.64 378.69,-201.81 356.27,-191.72"/>
<polygon fill="midnightblue" stroke="midnightblue" points="357.48,-188.43 346.93,-187.52 354.61,-194.81 357.48,-188.43"/>
</g>
<!-- Node29 -->
<g id="node29" class="node">
<title>Node29</title>
<g id="a_node29"><a xlink:href="../../d3/da5/ifcdef_8h.html" target="_top" xlink:title=" ">
<polygon fill="white" stroke="black" points="468,-168.5 468,-187.5 530,-187.5 530,-168.5 468,-168.5"/>
<text text-anchor="middle" x="499" y="-175.5" font-family="Helvetica,sans-Serif" font-size="10.00">../ifcdef.h</text>
</a>
</g>
</g>
<!-- Node27&#45;&gt;Node29 -->
<g id="edge39" class="edge">
<title>Node27&#45;&gt;Node29</title>
<path fill="none" stroke="midnightblue" d="M456.42,-224.08C463.85,-216.22 474.85,-204.57 483.81,-195.08"/>
<polygon fill="midnightblue" stroke="midnightblue" points="486.41,-197.42 490.74,-187.75 481.32,-192.62 486.41,-197.42"/>
</g>
<!-- Node29&#45;&gt;Node5 -->
<g id="edge40" class="edge">
<title>Node29&#45;&gt;Node5</title>
<path fill="none" stroke="midnightblue" d="M530.1,-169.31C561.51,-161.21 611.22,-147.51 653,-132 673.14,-124.52 676.8,-119.31 697,-112 720.35,-103.55 783.84,-86.77 824.63,-76.26"/>
<polygon fill="midnightblue" stroke="midnightblue" points="825.66,-79.61 834.47,-73.73 823.91,-72.83 825.66,-79.61"/>
</g>
<!-- Node29&#45;&gt;Node7 -->
<g id="edge42" class="edge">
<title>Node29&#45;&gt;Node7</title>
<path fill="none" stroke="midnightblue" d="M498.8,-168.32C498.99,-154.21 501.57,-126.43 518,-112 554.82,-79.66 682.69,-85.1 747.1,-75.8"/>
<polygon fill="midnightblue" stroke="midnightblue" points="747.95,-79.2 757.24,-74.1 746.8,-72.3 747.95,-79.2"/>
</g>
<!-- Node29&#45;&gt;Node26 -->
<g id="edge41" class="edge">
<title>Node29&#45;&gt;Node26</title>
<path fill="none" stroke="midnightblue" d="M474.63,-168.38C450.43,-159.68 412.37,-145.63 380,-132 360.57,-123.82 356.79,-119.26 337,-112 297.56,-97.53 251.3,-85.25 217.99,-77.19"/>
<polygon fill="midnightblue" stroke="midnightblue" points="218.62,-73.74 208.08,-74.82 217,-80.55 218.62,-73.74"/>
</g>
<!-- Node30 -->
<g id="node30" class="node">
<title>Node30</title>
<g id="a_node30"><a xlink:href="../../d4/da4/def_8h.html" target="_top" xlink:title=" ">
<polygon fill="white" stroke="black" points="389,-112.5 389,-131.5 471,-131.5 471,-112.5 389,-112.5"/>
<text text-anchor="middle" x="430" y="-119.5" font-family="Helvetica,sans-Serif" font-size="10.00">../vmisc/def.h</text>
</a>
</g>
</g>
<!-- Node29&#45;&gt;Node30 -->
<g id="edge43" class="edge">
<title>Node29&#45;&gt;Node30</title>
<path fill="none" stroke="midnightblue" d="M487.91,-168.32C477.51,-160.18 461.74,-147.84 449.28,-138.09"/>
<polygon fill="midnightblue" stroke="midnightblue" points="451.32,-135.24 441.29,-131.83 447.01,-140.75 451.32,-135.24"/>
</g>
<!-- Node39 -->
<g id="node39" class="node">
<title>Node39</title>
<g id="a_node39"><a xlink:href="../../d6/dcd/diagnostic_8h.html" target="_top" xlink:title=" ">
<polygon fill="white" stroke="black" points="527.5,-112.5 527.5,-131.5 644.5,-131.5 644.5,-112.5 527.5,-112.5"/>
<text text-anchor="middle" x="586" y="-119.5" font-family="Helvetica,sans-Serif" font-size="10.00">../vmisc/diagnostic.h</text>
</a>
</g>
</g>
<!-- Node29&#45;&gt;Node39 -->
<g id="edge56" class="edge">
<title>Node29&#45;&gt;Node39</title>
<path fill="none" stroke="midnightblue" d="M512.98,-168.32C526.55,-159.9 547.38,-146.97 563.32,-137.07"/>
<polygon fill="midnightblue" stroke="midnightblue" points="565.41,-139.9 572.06,-131.65 561.71,-133.95 565.41,-139.9"/>
</g>
<!-- Node30&#45;&gt;Node3 -->
<g id="edge44" class="edge">
<title>Node30&#45;&gt;Node3</title>
<path fill="none" stroke="midnightblue" d="M388.99,-115.01C326.06,-105.83 204.94,-88.15 128.52,-77"/>
<polygon fill="midnightblue" stroke="midnightblue" points="128.91,-73.52 118.51,-75.54 127.9,-80.45 128.91,-73.52"/>
</g>
<!-- Node30&#45;&gt;Node5 -->
<g id="edge47" class="edge">
<title>Node30&#45;&gt;Node5</title>
<path fill="none" stroke="midnightblue" d="M471.08,-116.63C559.28,-107.21 763.06,-85.2 824.12,-75.78"/>
<polygon fill="midnightblue" stroke="midnightblue" points="825.06,-79.18 834.35,-74.08 823.91,-72.27 825.06,-79.18"/>
</g>
<!-- Node30&#45;&gt;Node7 -->
<g id="edge50" class="edge">
<title>Node30&#45;&gt;Node7</title>
<path fill="none" stroke="midnightblue" d="M471.13,-114.15C475.8,-113.41 480.5,-112.68 485,-112 598.48,-94.95 630.24,-97.15 747.18,-76"/>
<polygon fill="midnightblue" stroke="midnightblue" points="748.04,-79.4 757.25,-74.16 746.78,-72.51 748.04,-79.4"/>
</g>
<!-- Node30&#45;&gt;Node26 -->
<g id="edge48" class="edge">
<title>Node30&#45;&gt;Node26</title>
<path fill="none" stroke="midnightblue" d="M389.28,-112.44C342.63,-102.64 266.43,-86.63 218.05,-76.46"/>
<polygon fill="midnightblue" stroke="midnightblue" points="218.67,-73.02 208.16,-74.39 217.23,-79.87 218.67,-73.02"/>
</g>
<!-- Node31 -->
<g id="node31" class="node">
<title>Node31</title>
<g id="a_node31"><a xlink:title=" ">
<polygon fill="white" stroke="#bfbfbf" points="396.5,-56.5 396.5,-75.5 469.5,-75.5 469.5,-56.5 396.5,-56.5"/>
<text text-anchor="middle" x="433" y="-63.5" font-family="Helvetica,sans-Serif" font-size="10.00">QFileDialog</text>
</a>
</g>
</g>
<!-- Node30&#45;&gt;Node31 -->
<g id="edge45" class="edge">
<title>Node30&#45;&gt;Node31</title>
<path fill="none" stroke="midnightblue" d="M430.5,-112.08C430.89,-105.01 431.45,-94.86 431.95,-85.99"/>
<polygon fill="midnightblue" stroke="midnightblue" points="435.45,-85.93 432.51,-75.75 428.46,-85.54 435.45,-85.93"/>
</g>
<!-- Node32 -->
<g id="node32" class="node">
<title>Node32</title>
<g id="a_node32"><a xlink:title=" ">
<polygon fill="white" stroke="#bfbfbf" points="488,-56.5 488,-75.5 538,-75.5 538,-56.5 488,-56.5"/>
<text text-anchor="middle" x="513" y="-63.5" font-family="Helvetica,sans-Serif" font-size="10.00">QLineF</text>
</a>
</g>
</g>
<!-- Node30&#45;&gt;Node32 -->
<g id="edge46" class="edge">
<title>Node30&#45;&gt;Node32</title>
<path fill="none" stroke="midnightblue" d="M443.34,-112.32C456.16,-103.98 475.78,-91.21 490.94,-81.35"/>
<polygon fill="midnightblue" stroke="midnightblue" points="493.22,-84.04 499.7,-75.65 489.41,-78.17 493.22,-84.04"/>
</g>
<!-- Node33 -->
<g id="node33" class="node">
<title>Node33</title>
<g id="a_node33"><a xlink:title=" ">
<polygon fill="white" stroke="#bfbfbf" points="556.5,-56.5 556.5,-75.5 585.5,-75.5 585.5,-56.5 556.5,-56.5"/>
<text text-anchor="middle" x="571" y="-63.5" font-family="Helvetica,sans-Serif" font-size="10.00">Qt</text>
</a>
</g>
</g>
<!-- Node30&#45;&gt;Node33 -->
<g id="edge49" class="edge">
<title>Node30&#45;&gt;Node33</title>
<path fill="none" stroke="midnightblue" d="M452.34,-112.44C477.98,-102.62 519.9,-86.57 546.43,-76.41"/>
<polygon fill="midnightblue" stroke="midnightblue" points="548.03,-79.55 556.12,-72.7 545.53,-73.01 548.03,-79.55"/>
</g>
<!-- Node34 -->
<g id="node34" class="node">
<title>Node34</title>
<g id="a_node34"><a xlink:title=" ">
<polygon fill="white" stroke="#bfbfbf" points="604,-56.5 604,-75.5 660,-75.5 660,-56.5 604,-56.5"/>
<text text-anchor="middle" x="632" y="-63.5" font-family="Helvetica,sans-Serif" font-size="10.00">QPrinter</text>
</a>
</g>
</g>
<!-- Node30&#45;&gt;Node34 -->
<g id="edge51" class="edge">
<title>Node30&#45;&gt;Node34</title>
<path fill="none" stroke="midnightblue" d="M462.01,-112.44C497.85,-102.86 555.9,-87.34 594.02,-77.15"/>
<polygon fill="midnightblue" stroke="midnightblue" points="594.97,-80.52 603.73,-74.56 593.16,-73.76 594.97,-80.52"/>
</g>
<!-- Node35 -->
<g id="node35" class="node">
<title>Node35</title>
<g id="a_node35"><a xlink:title=" ">
<polygon fill="white" stroke="#bfbfbf" points="678.5,-56.5 678.5,-75.5 739.5,-75.5 739.5,-56.5 678.5,-56.5"/>
<text text-anchor="middle" x="709" y="-63.5" font-family="Helvetica,sans-Serif" font-size="10.00">QPixmap</text>
</a>
</g>
</g>
<!-- Node30&#45;&gt;Node35 -->
<g id="edge52" class="edge">
<title>Node30&#45;&gt;Node35</title>
<path fill="none" stroke="midnightblue" d="M471.11,-113.71C516.75,-105.52 592.85,-91.57 668.29,-76.09"/>
<polygon fill="midnightblue" stroke="midnightblue" points="669.36,-79.44 678.45,-73.99 667.95,-72.58 669.36,-79.44"/>
</g>
<!-- Node36 -->
<g id="node36" class="node">
<title>Node36</title>
<g id="a_node36"><a xlink:title=" ">
<polygon fill="white" stroke="#bfbfbf" points="226.5,-56.5 226.5,-75.5 277.5,-75.5 277.5,-56.5 226.5,-56.5"/>
<text text-anchor="middle" x="252" y="-63.5" font-family="Helvetica,sans-Serif" font-size="10.00">csignal</text>
</a>
</g>
</g>
<!-- Node30&#45;&gt;Node36 -->
<g id="edge53" class="edge">
<title>Node30&#45;&gt;Node36</title>
<path fill="none" stroke="midnightblue" d="M401.8,-112.44C370.88,-103.06 321.22,-88 287.63,-77.81"/>
<polygon fill="midnightblue" stroke="midnightblue" points="288.35,-74.37 277.76,-74.82 286.31,-81.07 288.35,-74.37"/>
</g>
<!-- Node37 -->
<g id="node37" class="node">
<title>Node37</title>
<g id="a_node37"><a xlink:href="../../d4/d82/debugbreak_8h.html" target="_top" xlink:title=" ">
<polygon fill="white" stroke="black" points="295.5,-56.5 295.5,-75.5 378.5,-75.5 378.5,-56.5 295.5,-56.5"/>
<text text-anchor="middle" x="337" y="-63.5" font-family="Helvetica,sans-Serif" font-size="10.00">debugbreak.h</text>
</a>
</g>
</g>
<!-- Node30&#45;&gt;Node37 -->
<g id="edge54" class="edge">
<title>Node30&#45;&gt;Node37</title>
<path fill="none" stroke="midnightblue" d="M415.06,-112.32C400.41,-103.82 377.87,-90.73 360.76,-80.8"/>
<polygon fill="midnightblue" stroke="midnightblue" points="362.31,-77.65 351.9,-75.65 358.8,-83.7 362.31,-77.65"/>
</g>
<!-- Node38 -->
<g id="node38" class="node">
<title>Node38</title>
<g id="a_node38"><a xlink:title=" ">
<polygon fill="white" stroke="#bfbfbf" points="309.5,-0.5 309.5,-19.5 364.5,-19.5 364.5,-0.5 309.5,-0.5"/>
<text text-anchor="middle" x="337" y="-7.5" font-family="Helvetica,sans-Serif" font-size="10.00">signal.h</text>
</a>
</g>
</g>
<!-- Node37&#45;&gt;Node38 -->
<g id="edge55" class="edge">
<title>Node37&#45;&gt;Node38</title>
<path fill="none" stroke="midnightblue" d="M337,-56.08C337,-49.01 337,-38.86 337,-29.99"/>
<polygon fill="midnightblue" stroke="midnightblue" points="340.5,-29.75 337,-19.75 333.5,-29.75 340.5,-29.75"/>
</g>
<!-- Node39&#45;&gt;Node7 -->
<g id="edge57" class="edge">
<title>Node39&#45;&gt;Node7</title>
<path fill="none" stroke="midnightblue" d="M617.85,-112.44C653.01,-103 709.64,-87.78 747.57,-77.59"/>
<polygon fill="midnightblue" stroke="midnightblue" points="748.52,-80.96 757.27,-74.99 746.7,-74.2 748.52,-80.96"/>
</g>
<!-- Node40&#45;&gt;Node3 -->
<g id="edge59" class="edge">
<title>Node40&#45;&gt;Node3</title>
<path fill="none" stroke="midnightblue" d="M607.17,-285.93C540.03,-281.44 446.8,-270.5 369,-244 250.52,-203.65 126.18,-116.42 79.35,-81.7"/>
<polygon fill="midnightblue" stroke="midnightblue" points="81.39,-78.85 71.28,-75.66 77.2,-84.46 81.39,-78.85"/>
</g>
<!-- Node40&#45;&gt;Node5 -->
<g id="edge60" class="edge">
<title>Node40&#45;&gt;Node5</title>
<path fill="none" stroke="midnightblue" d="M704.55,-280.17C712.15,-271.2 724.14,-256.83 734,-244 778.07,-186.66 827.16,-116.23 849.18,-84.25"/>
<polygon fill="midnightblue" stroke="midnightblue" points="852.34,-85.84 855.11,-75.62 846.57,-81.88 852.34,-85.84"/>
</g>
<!-- Node40&#45;&gt;Node7 -->
<g id="edge61" class="edge">
<title>Node40&#45;&gt;Node7</title>
<path fill="none" stroke="midnightblue" d="M700.53,-280.3C713.83,-247.49 761.1,-130.88 779.55,-85.38"/>
<polygon fill="midnightblue" stroke="midnightblue" points="782.88,-86.47 783.4,-75.88 776.4,-83.84 782.88,-86.47"/>
</g>
<!-- Node40&#45;&gt;Node27 -->
<g id="edge63" class="edge">
<title>Node40&#45;&gt;Node27</title>
<path fill="none" stroke="midnightblue" d="M657.55,-280.44C614.11,-271.02 544.21,-255.87 497.22,-245.68"/>
<polygon fill="midnightblue" stroke="midnightblue" points="497.78,-242.22 487.27,-243.52 496.3,-249.06 497.78,-242.22"/>
</g>
<!-- Node40&#45;&gt;Node29 -->
<g id="edge62" class="edge">
<title>Node40&#45;&gt;Node29</title>
<path fill="none" stroke="midnightblue" d="M681.46,-280.37C647.12,-261.29 564.56,-215.42 523.31,-192.51"/>
<polygon fill="midnightblue" stroke="midnightblue" points="524.91,-189.39 514.46,-187.59 521.51,-195.51 524.91,-189.39"/>
</g>
</g>
</svg>
        <g id="navigator" transform="translate(0 0)" fill="#404254">
                <rect fill="#f2f5e9" fill-opacity="0.5" stroke="#606060" stroke-width=".5" x="0" y="0" width="60" height="60"/>
                <use id="zoomplus" xlink:href="#zoomPlus" x="17" y="9" onmousedown="handleZoom(evt,'in')"/>
                <use id="zoomminus" xlink:href="#zoomMin" x="42" y="9" onmousedown="handleZoom(evt,'out')"/>
                <use id="reset" xlink:href="#resetDef" x="30" y="36" onmousedown="handleReset()"/>
                <g id="arrowUp" xlink:href="#dirArrow" transform="translate(30 24)" onmousedown="handlePan(0,-1)">
                  <use xlink:href="#rim" fill="#404040">
                        <set attributeName="fill" to="#808080" begin="arrowUp.mouseover" end="arrowUp.mouseout"/>
                  </use>
                  <path fill="none" stroke="white" stroke-width="1.5" d="M0,-3.0v7 M-2.5,-0.5L0,-3.0L2.5,-0.5"/>
                </g>
                <g id="arrowRight" xlink:href="#dirArrow" transform="rotate(90) translate(36 -43)" onmousedown="handlePan(1,0)">
                  <use xlink:href="#rim" fill="#404040">
                        <set attributeName="fill" to="#808080" begin="arrowRight.mouseover" end="arrowRight.mouseout"/>
                  </use>
                  <path fill="none" stroke="white" stroke-width="1.5" d="M0,-3.0v7 M-2.5,-0.5L0,-3.0L2.5,-0.5"/>
                </g>
                <g id="arrowDown" xlink:href="#dirArrow" transform="rotate(180) translate(-30 -48)" onmousedown="handlePan(0,1)">
                  <use xlink:href="#rim" fill="#404040">
                        <set attributeName="fill" to="#808080" begin="arrowDown.mouseover" end="arrowDown.mouseout"/>
                  </use>
                  <path fill="none" stroke="white" stroke-width="1.5" d="M0,-3.0v7 M-2.5,-0.5L0,-3.0L2.5,-0.5"/>
                </g>
                <g id="arrowLeft" xlink:href="#dirArrow" transform="rotate(270) translate(-36 17)" onmousedown="handlePan(-1,0)">
                  <use xlink:href="#rim" fill="#404040">
                        <set attributeName="fill" to="#808080" begin="arrowLeft.mouseover" end="arrowLeft.mouseout"/>
                  </use>
                  <path fill="none" stroke="white" stroke-width="1.5" d="M0,-3.0v7 M-2.5,-0.5L0,-3.0L2.5,-0.5"/>
                </g>
        </g>
        <svg viewBox="0 0 15 15" width="100%" height="30px" preserveAspectRatio="xMaxYMin meet">
         <g id="arrow_out" transform="scale(0.3 0.3)">
          <a xlink:href="abstract__converter_8cpp__incl_org.svg" target="_base">
           <rect id="button" ry="5" rx="5" y="6" x="6" height="38" width="38"
                fill="#f2f5e9" fill-opacity="0.5" stroke="#606060" stroke-width="1.0"/>
           <path id="arrow"
             d="M 11.500037,31.436501 C 11.940474,20.09759 22.043105,11.32322 32.158766,21.979434 L 37.068811,17.246167 C 37.068811,17.246167 37.088388,32 37.088388,32 L 22.160133,31.978069 C 22.160133,31.978069 26.997745,27.140456 26.997745,27.140456 C 18.528582,18.264221 13.291696,25.230495 11.500037,31.436501 z"
             style="fill:#404040;"/>
          </a>
         </g>
        </svg>
</svg>
