<?xml version="1.0" encoding="UTF-8" standalone="no"?>
<!DOCTYPE svg PUBLIC "-//W3C//DTD SVG 1.1//EN"
 "http://www.w3.org/Graphics/SVG/1.1/DTD/svg11.dtd">
<!-- Generated by graphviz version 2.43.0 (0)
 -->
<!-- Title: src/libs/vtools/dialogs/support/edit_formula_dialog.h Pages: 1 -->
<svg width="4053pt" height="128pt"
 viewBox="0.00 0.00 4052.50 128.00" xmlns="http://www.w3.org/2000/svg" xmlns:xlink="http://www.w3.org/1999/xlink">
<g id="graph0" class="graph" transform="scale(1 1) rotate(0) translate(4 124)">
<title>src/libs/vtools/dialogs/support/edit_formula_dialog.h</title>
<polygon fill="white" stroke="transparent" points="-4,4 -4,-124 4048.5,-124 4048.5,4 -4,4"/>
<!-- Node1 -->
<g id="node1" class="node">
<title>Node1</title>
<g id="a_node1"><a xlink:title=" ">
<polygon fill="#bfbfbf" stroke="black" points="1936,-78.5 1936,-119.5 2058,-119.5 2058,-78.5 1936,-78.5"/>
<text text-anchor="start" x="1944" y="-107.5" font-family="Helvetica,sans-Serif" font-size="10.00">src/libs/vtools/dialogs</text>
<text text-anchor="start" x="1944" y="-96.5" font-family="Helvetica,sans-Serif" font-size="10.00">/support/edit_formula</text>
<text text-anchor="middle" x="1997" y="-85.5" font-family="Helvetica,sans-Serif" font-size="10.00">_dialog.h</text>
</a>
</g>
</g>
<!-- Node2 -->
<g id="node2" class="node">
<title>Node2</title>
<g id="a_node2"><a xlink:href="../../d7/d8d/edit__formula__dialog_8cpp.html" target="_top" xlink:title=" ">
<polygon fill="white" stroke="black" points="0,-0.5 0,-41.5 122,-41.5 122,-0.5 0,-0.5"/>
<text text-anchor="start" x="8" y="-29.5" font-family="Helvetica,sans-Serif" font-size="10.00">src/libs/vtools/dialogs</text>
<text text-anchor="start" x="8" y="-18.5" font-family="Helvetica,sans-Serif" font-size="10.00">/support/edit_formula</text>
<text text-anchor="middle" x="61" y="-7.5" font-family="Helvetica,sans-Serif" font-size="10.00">_dialog.cpp</text>
</a>
</g>
</g>
<!-- Node1&#45;&gt;Node2 -->
<g id="edge1" class="edge">
<title>Node1&#45;&gt;Node2</title>
<path fill="none" stroke="midnightblue" d="M1925.78,-98.22C1628.61,-98.79 486.48,-97.24 131,-42 128.13,-41.55 125.21,-41.03 122.27,-40.44"/>
<polygon fill="midnightblue" stroke="midnightblue" points="1926,-101.72 1935.99,-98.2 1925.99,-94.72 1926,-101.72"/>
</g>
<!-- Node3 -->
<g id="node3" class="node">
<title>Node3</title>
<g id="a_node3"><a xlink:href="../../d6/d5d/dialogalongline_8cpp.html" target="_top" xlink:title=" ">
<polygon fill="white" stroke="black" points="140,-6 140,-36 282,-36 282,-6 140,-6"/>
<text text-anchor="start" x="148" y="-24" font-family="Helvetica,sans-Serif" font-size="10.00">src/libs/vtools/dialogs</text>
<text text-anchor="middle" x="211" y="-13" font-family="Helvetica,sans-Serif" font-size="10.00">/tools/dialogalongline.cpp</text>
</a>
</g>
</g>
<!-- Node1&#45;&gt;Node3 -->
<g id="edge2" class="edge">
<title>Node1&#45;&gt;Node3</title>
<path fill="none" stroke="midnightblue" d="M1925.5,-97.67C1644.32,-96.07 614.24,-87.19 291,-42 280.93,-40.59 270.3,-38.43 260.18,-36.03"/>
<polygon fill="midnightblue" stroke="midnightblue" points="1925.56,-101.17 1935.58,-97.73 1925.6,-94.17 1925.56,-101.17"/>
</g>
<!-- Node4 -->
<g id="node4" class="node">
<title>Node4</title>
<g id="a_node4"><a xlink:href="../../d1/d37/dialogarc_8cpp.html" target="_top" xlink:title=" ">
<polygon fill="white" stroke="black" points="300,-6 300,-36 422,-36 422,-6 300,-6"/>
<text text-anchor="start" x="308" y="-24" font-family="Helvetica,sans-Serif" font-size="10.00">src/libs/vtools/dialogs</text>
<text text-anchor="middle" x="361" y="-13" font-family="Helvetica,sans-Serif" font-size="10.00">/tools/dialogarc.cpp</text>
</a>
</g>
</g>
<!-- Node1&#45;&gt;Node4 -->
<g id="edge3" class="edge">
<title>Node1&#45;&gt;Node4</title>
<path fill="none" stroke="midnightblue" d="M1925.68,-97.74C1659.55,-96.43 724.83,-88.52 431,-42 422.14,-40.6 412.81,-38.43 403.95,-36.04"/>
<polygon fill="midnightblue" stroke="midnightblue" points="1925.97,-101.24 1935.98,-97.79 1926,-94.24 1925.97,-101.24"/>
</g>
<!-- Node5 -->
<g id="node5" class="node">
<title>Node5</title>
<g id="a_node5"><a xlink:href="../../da/dfa/dialogbisector_8cpp.html" target="_top" xlink:title=" ">
<polygon fill="white" stroke="black" points="440.5,-6 440.5,-36 575.5,-36 575.5,-6 440.5,-6"/>
<text text-anchor="start" x="448.5" y="-24" font-family="Helvetica,sans-Serif" font-size="10.00">src/libs/vtools/dialogs</text>
<text text-anchor="middle" x="508" y="-13" font-family="Helvetica,sans-Serif" font-size="10.00">/tools/dialogbisector.cpp</text>
</a>
</g>
</g>
<!-- Node1&#45;&gt;Node5 -->
<g id="edge4" class="edge">
<title>Node1&#45;&gt;Node5</title>
<path fill="none" stroke="midnightblue" d="M1925.71,-97.19C1676.89,-94.06 847.86,-80.89 585,-42 575.44,-40.59 565.35,-38.45 555.73,-36.09"/>
<polygon fill="midnightblue" stroke="midnightblue" points="1925.68,-100.69 1935.72,-97.32 1925.76,-93.69 1925.68,-100.69"/>
</g>
<!-- Node6 -->
<g id="node6" class="node">
<title>Node6</title>
<g id="a_node6"><a xlink:href="../../d2/d29/dialogarcwithlength_8cpp.html" target="_top" xlink:title=" ">
<polygon fill="white" stroke="black" points="594,-6 594,-36 758,-36 758,-6 594,-6"/>
<text text-anchor="start" x="602" y="-24" font-family="Helvetica,sans-Serif" font-size="10.00">src/libs/vtools/dialogs</text>
<text text-anchor="middle" x="676" y="-13" font-family="Helvetica,sans-Serif" font-size="10.00">/tools/dialogarcwithlength.cpp</text>
</a>
</g>
</g>
<!-- Node1&#45;&gt;Node6 -->
<g id="edge5" class="edge">
<title>Node1&#45;&gt;Node6</title>
<path fill="none" stroke="midnightblue" d="M1925.56,-96.35C1698.23,-90.86 993.34,-71.8 767,-42 755.93,-40.54 744.22,-38.42 733.02,-36.09"/>
<polygon fill="midnightblue" stroke="midnightblue" points="1925.61,-99.85 1935.7,-96.6 1925.78,-92.86 1925.61,-99.85"/>
</g>
<!-- Node7 -->
<g id="node7" class="node">
<title>Node7</title>
<g id="a_node7"><a xlink:href="../../dd/d39/dialogcurveintersectaxis_8cpp.html" target="_top" xlink:title=" ">
<polygon fill="white" stroke="black" points="776.5,-6 776.5,-36 963.5,-36 963.5,-6 776.5,-6"/>
<text text-anchor="start" x="784.5" y="-24" font-family="Helvetica,sans-Serif" font-size="10.00">src/libs/vtools/dialogs</text>
<text text-anchor="middle" x="870" y="-13" font-family="Helvetica,sans-Serif" font-size="10.00">/tools/dialogcurveintersectaxis.cpp</text>
</a>
</g>
</g>
<!-- Node1&#45;&gt;Node7 -->
<g id="edge6" class="edge">
<title>Node1&#45;&gt;Node7</title>
<path fill="none" stroke="midnightblue" d="M1925.64,-97.51C1758.36,-95.61 1328.18,-86.43 972,-42 959.73,-40.47 946.73,-38.33 934.26,-36.01"/>
<polygon fill="midnightblue" stroke="midnightblue" points="1925.76,-101.01 1935.79,-97.62 1925.83,-94.01 1925.76,-101.01"/>
</g>
<!-- Node8 -->
<g id="node8" class="node">
<title>Node8</title>
<g id="a_node8"><a xlink:href="../../d3/d2e/dialogcutspline_8cpp.html" target="_top" xlink:title=" ">
<polygon fill="white" stroke="black" points="981.5,-6 981.5,-36 1122.5,-36 1122.5,-6 981.5,-6"/>
<text text-anchor="start" x="989.5" y="-24" font-family="Helvetica,sans-Serif" font-size="10.00">src/libs/vtools/dialogs</text>
<text text-anchor="middle" x="1052" y="-13" font-family="Helvetica,sans-Serif" font-size="10.00">/tools/dialogcutspline.cpp</text>
</a>
</g>
</g>
<!-- Node1&#45;&gt;Node8 -->
<g id="edge7" class="edge">
<title>Node1&#45;&gt;Node8</title>
<path fill="none" stroke="midnightblue" d="M1925.59,-97.8C1776.85,-96.4 1423.31,-88.05 1131,-42 1121.5,-40.5 1111.47,-38.39 1101.86,-36.09"/>
<polygon fill="midnightblue" stroke="midnightblue" points="1925.92,-101.3 1935.95,-97.88 1925.98,-94.3 1925.92,-101.3"/>
</g>
<!-- Node9 -->
<g id="node9" class="node">
<title>Node9</title>
<g id="a_node9"><a xlink:href="../../df/d30/dialogcutsplinepath_8cpp.html" target="_top" xlink:title=" ">
<polygon fill="white" stroke="black" points="1140.5,-6 1140.5,-36 1303.5,-36 1303.5,-6 1140.5,-6"/>
<text text-anchor="start" x="1148.5" y="-24" font-family="Helvetica,sans-Serif" font-size="10.00">src/libs/vtools/dialogs</text>
<text text-anchor="middle" x="1222" y="-13" font-family="Helvetica,sans-Serif" font-size="10.00">/tools/dialogcutsplinepath.cpp</text>
</a>
</g>
</g>
<!-- Node1&#45;&gt;Node9 -->
<g id="edge8" class="edge">
<title>Node1&#45;&gt;Node9</title>
<path fill="none" stroke="midnightblue" d="M1925.65,-95.32C1800.84,-89.94 1535.05,-75.34 1313,-42 1302.44,-40.42 1291.28,-38.32 1280.53,-36.08"/>
<polygon fill="midnightblue" stroke="midnightblue" points="1925.69,-98.83 1935.83,-95.76 1925.99,-91.84 1925.69,-98.83"/>
</g>
<!-- Node10 -->
<g id="node10" class="node">
<title>Node10</title>
<g id="a_node10"><a xlink:href="../../df/ded/tooldialogs_8h.html" target="_top" xlink:title=" ">
<polygon fill="white" stroke="black" points="1322,-6 1322,-36 1444,-36 1444,-6 1322,-6"/>
<text text-anchor="start" x="1330" y="-24" font-family="Helvetica,sans-Serif" font-size="10.00">src/libs/vtools/dialogs</text>
<text text-anchor="middle" x="1383" y="-13" font-family="Helvetica,sans-Serif" font-size="10.00">/tooldialogs.h</text>
</a>
</g>
</g>
<!-- Node1&#45;&gt;Node10 -->
<g id="edge9" class="edge">
<title>Node1&#45;&gt;Node10</title>
<path fill="none" stroke="midnightblue" d="M1925.59,-94.65C1821.06,-88.85 1620.59,-74.31 1453,-42 1444.81,-40.42 1436.19,-38.33 1427.91,-36.09"/>
<polygon fill="midnightblue" stroke="midnightblue" points="1925.53,-98.16 1935.71,-95.2 1925.91,-91.17 1925.53,-98.16"/>
</g>
<!-- Node11 -->
<g id="node11" class="node">
<title>Node11</title>
<g id="a_node11"><a xlink:href="../../d9/d90/dialogcutarc_8cpp.html" target="_top" xlink:title=" ">
<polygon fill="white" stroke="black" points="1462.5,-6 1462.5,-36 1589.5,-36 1589.5,-6 1462.5,-6"/>
<text text-anchor="start" x="1470.5" y="-24" font-family="Helvetica,sans-Serif" font-size="10.00">src/libs/vtools/dialogs</text>
<text text-anchor="middle" x="1526" y="-13" font-family="Helvetica,sans-Serif" font-size="10.00">/tools/dialogcutarc.cpp</text>
</a>
</g>
</g>
<!-- Node1&#45;&gt;Node11 -->
<g id="edge10" class="edge">
<title>Node1&#45;&gt;Node11</title>
<path fill="none" stroke="midnightblue" d="M1925.94,-90.77C1845.96,-81.99 1712.37,-65.41 1599,-42 1590.76,-40.3 1582.08,-38.2 1573.69,-36.01"/>
<polygon fill="midnightblue" stroke="midnightblue" points="1925.58,-94.25 1935.9,-91.85 1926.34,-87.29 1925.58,-94.25"/>
</g>
<!-- Node12 -->
<g id="node12" class="node">
<title>Node12</title>
<g id="a_node12"><a xlink:href="../../d9/d68/dialogellipticalarc_8cpp.html" target="_top" xlink:title=" ">
<polygon fill="white" stroke="black" points="1608,-6 1608,-36 1762,-36 1762,-6 1608,-6"/>
<text text-anchor="start" x="1616" y="-24" font-family="Helvetica,sans-Serif" font-size="10.00">src/libs/vtools/dialogs</text>
<text text-anchor="middle" x="1685" y="-13" font-family="Helvetica,sans-Serif" font-size="10.00">/tools/dialogellipticalarc.cpp</text>
</a>
</g>
</g>
<!-- Node1&#45;&gt;Node12 -->
<g id="edge11" class="edge">
<title>Node1&#45;&gt;Node12</title>
<path fill="none" stroke="midnightblue" d="M1925.97,-80.7C1870.52,-67.19 1794.44,-48.66 1742.7,-36.06"/>
<polygon fill="midnightblue" stroke="midnightblue" points="1925.19,-84.11 1935.73,-83.08 1926.84,-77.31 1925.19,-84.11"/>
</g>
<!-- Node13 -->
<g id="node13" class="node">
<title>Node13</title>
<g id="a_node13"><a xlink:href="../../d3/d15/dialogendline_8cpp.html" target="_top" xlink:title=" ">
<polygon fill="white" stroke="black" points="1780.5,-6 1780.5,-36 1913.5,-36 1913.5,-6 1780.5,-6"/>
<text text-anchor="start" x="1788.5" y="-24" font-family="Helvetica,sans-Serif" font-size="10.00">src/libs/vtools/dialogs</text>
<text text-anchor="middle" x="1847" y="-13" font-family="Helvetica,sans-Serif" font-size="10.00">/tools/dialogendline.cpp</text>
</a>
</g>
</g>
<!-- Node1&#45;&gt;Node13 -->
<g id="edge12" class="edge">
<title>Node1&#45;&gt;Node13</title>
<path fill="none" stroke="midnightblue" d="M1949.25,-73.81C1924.81,-61.43 1895.91,-46.78 1875.08,-36.23"/>
<polygon fill="midnightblue" stroke="midnightblue" points="1947.87,-77.03 1958.37,-78.43 1951.03,-70.79 1947.87,-77.03"/>
</g>
<!-- Node14 -->
<g id="node14" class="node">
<title>Node14</title>
<g id="a_node14"><a xlink:href="../../da/df4/dialognormal_8cpp.html" target="_top" xlink:title=" ">
<polygon fill="white" stroke="black" points="1931.5,-6 1931.5,-36 2062.5,-36 2062.5,-6 1931.5,-6"/>
<text text-anchor="start" x="1939.5" y="-24" font-family="Helvetica,sans-Serif" font-size="10.00">src/libs/vtools/dialogs</text>
<text text-anchor="middle" x="1997" y="-13" font-family="Helvetica,sans-Serif" font-size="10.00">/tools/dialognormal.cpp</text>
</a>
</g>
</g>
<!-- Node1&#45;&gt;Node14 -->
<g id="edge13" class="edge">
<title>Node1&#45;&gt;Node14</title>
<path fill="none" stroke="midnightblue" d="M1997,-68.28C1997,-57.25 1997,-45.25 1997,-36.23"/>
<polygon fill="midnightblue" stroke="midnightblue" points="1993.5,-68.43 1997,-78.43 2000.5,-68.43 1993.5,-68.43"/>
</g>
<!-- Node15 -->
<g id="node15" class="node">
<title>Node15</title>
<g id="a_node15"><a xlink:href="../../d2/d51/dialogmove_8cpp.html" target="_top" xlink:title=" ">
<polygon fill="white" stroke="black" points="2080.5,-6 2080.5,-36 2205.5,-36 2205.5,-6 2080.5,-6"/>
<text text-anchor="start" x="2088.5" y="-24" font-family="Helvetica,sans-Serif" font-size="10.00">src/libs/vtools/dialogs</text>
<text text-anchor="middle" x="2143" y="-13" font-family="Helvetica,sans-Serif" font-size="10.00">/tools/dialogmove.cpp</text>
</a>
</g>
</g>
<!-- Node1&#45;&gt;Node15 -->
<g id="edge14" class="edge">
<title>Node1&#45;&gt;Node15</title>
<path fill="none" stroke="midnightblue" d="M2043.48,-73.81C2067.26,-61.43 2095.4,-46.78 2115.67,-36.23"/>
<polygon fill="midnightblue" stroke="midnightblue" points="2041.85,-70.71 2034.6,-78.43 2045.08,-76.92 2041.85,-70.71"/>
</g>
<!-- Node16 -->
<g id="node16" class="node">
<title>Node16</title>
<g id="a_node16"><a xlink:href="../../d9/df4/dialogpointofcontact_8cpp.html" target="_top" xlink:title=" ">
<polygon fill="white" stroke="black" points="2223.5,-6 2223.5,-36 2390.5,-36 2390.5,-6 2223.5,-6"/>
<text text-anchor="start" x="2231.5" y="-24" font-family="Helvetica,sans-Serif" font-size="10.00">src/libs/vtools/dialogs</text>
<text text-anchor="middle" x="2307" y="-13" font-family="Helvetica,sans-Serif" font-size="10.00">/tools/dialogpointofcontact.cpp</text>
</a>
</g>
</g>
<!-- Node1&#45;&gt;Node16 -->
<g id="edge15" class="edge">
<title>Node1&#45;&gt;Node16</title>
<path fill="none" stroke="midnightblue" d="M2068.29,-80.52C2123.38,-67.02 2198.62,-48.57 2249.8,-36.02"/>
<polygon fill="midnightblue" stroke="midnightblue" points="2067.12,-77.2 2058.25,-82.98 2068.79,-84 2067.12,-77.2"/>
</g>
<!-- Node17 -->
<g id="node17" class="node">
<title>Node17</title>
<g id="a_node17"><a xlink:href="../../dc/d64/dialogrotation_8cpp.html" target="_top" xlink:title=" ">
<polygon fill="white" stroke="black" points="2408.5,-6 2408.5,-36 2543.5,-36 2543.5,-6 2408.5,-6"/>
<text text-anchor="start" x="2416.5" y="-24" font-family="Helvetica,sans-Serif" font-size="10.00">src/libs/vtools/dialogs</text>
<text text-anchor="middle" x="2476" y="-13" font-family="Helvetica,sans-Serif" font-size="10.00">/tools/dialogrotation.cpp</text>
</a>
</g>
</g>
<!-- Node1&#45;&gt;Node17 -->
<g id="edge16" class="edge">
<title>Node1&#45;&gt;Node17</title>
<path fill="none" stroke="midnightblue" d="M2068.21,-90.7C2149.08,-81.82 2284.76,-65.08 2400,-42 2408.43,-40.31 2417.31,-38.24 2425.91,-36.08"/>
<polygon fill="midnightblue" stroke="midnightblue" points="2067.71,-87.24 2058.14,-91.8 2068.46,-94.2 2067.71,-87.24"/>
</g>
<!-- Node18 -->
<g id="node18" class="node">
<title>Node18</title>
<g id="a_node18"><a xlink:href="../../d3/d23/dialogshoulderpoint_8cpp.html" target="_top" xlink:title=" ">
<polygon fill="white" stroke="black" points="2562,-6 2562,-36 2726,-36 2726,-6 2562,-6"/>
<text text-anchor="start" x="2570" y="-24" font-family="Helvetica,sans-Serif" font-size="10.00">src/libs/vtools/dialogs</text>
<text text-anchor="middle" x="2644" y="-13" font-family="Helvetica,sans-Serif" font-size="10.00">/tools/dialogshoulderpoint.cpp</text>
</a>
</g>
</g>
<!-- Node1&#45;&gt;Node18 -->
<g id="edge17" class="edge">
<title>Node1&#45;&gt;Node18</title>
<path fill="none" stroke="midnightblue" d="M2068.45,-93.47C2174.62,-86.13 2380.09,-69.61 2553,-42 2563.38,-40.34 2574.36,-38.24 2584.96,-36.02"/>
<polygon fill="midnightblue" stroke="midnightblue" points="2067.92,-89.99 2058.18,-94.17 2068.4,-96.98 2067.92,-89.99"/>
</g>
<!-- Node19 -->
<g id="node19" class="node">
<title>Node19</title>
<g id="a_node19"><a xlink:href="../../df/de5/dialogspline_8cpp.html" target="_top" xlink:title=" ">
<polygon fill="white" stroke="black" points="2744,-6 2744,-36 2870,-36 2870,-6 2744,-6"/>
<text text-anchor="start" x="2752" y="-24" font-family="Helvetica,sans-Serif" font-size="10.00">src/libs/vtools/dialogs</text>
<text text-anchor="middle" x="2807" y="-13" font-family="Helvetica,sans-Serif" font-size="10.00">/tools/dialogspline.cpp</text>
</a>
</g>
</g>
<!-- Node1&#45;&gt;Node19 -->
<g id="edge18" class="edge">
<title>Node1&#45;&gt;Node19</title>
<path fill="none" stroke="midnightblue" d="M2068.26,-97.2C2200.61,-94.7 2492.92,-84.39 2735,-42 2743.69,-40.48 2752.84,-38.35 2761.6,-36.05"/>
<polygon fill="midnightblue" stroke="midnightblue" points="2068.18,-93.7 2058.25,-97.38 2068.31,-100.7 2068.18,-93.7"/>
</g>
<!-- Node20 -->
<g id="node20" class="node">
<title>Node20</title>
<g id="a_node20"><a xlink:href="../../dc/dc2/dialogsplinepath_8cpp.html" target="_top" xlink:title=" ">
<polygon fill="white" stroke="black" points="2888,-6 2888,-36 3036,-36 3036,-6 2888,-6"/>
<text text-anchor="start" x="2896" y="-24" font-family="Helvetica,sans-Serif" font-size="10.00">src/libs/vtools/dialogs</text>
<text text-anchor="middle" x="2962" y="-13" font-family="Helvetica,sans-Serif" font-size="10.00">/tools/dialogsplinepath.cpp</text>
</a>
</g>
</g>
<!-- Node1&#45;&gt;Node20 -->
<g id="edge19" class="edge">
<title>Node1&#45;&gt;Node20</title>
<path fill="none" stroke="midnightblue" d="M2068.11,-97.64C2218.58,-95.98 2579.98,-87.17 2879,-42 2888.97,-40.49 2899.49,-38.38 2909.58,-36.08"/>
<polygon fill="midnightblue" stroke="midnightblue" points="2068.03,-94.14 2058.07,-97.75 2068.11,-101.14 2068.03,-94.14"/>
</g>
<!-- Node21 -->
<g id="node21" class="node">
<title>Node21</title>
<g id="a_node21"><a xlink:href="../../de/d3c/dialoglineintersectaxis_8cpp.html" target="_top" xlink:title=" ">
<polygon fill="white" stroke="black" points="3054,-6 3054,-36 3232,-36 3232,-6 3054,-6"/>
<text text-anchor="start" x="3062" y="-24" font-family="Helvetica,sans-Serif" font-size="10.00">src/libs/vtools/dialogs</text>
<text text-anchor="middle" x="3143" y="-13" font-family="Helvetica,sans-Serif" font-size="10.00">/tools/dialoglineintersectaxis.cpp</text>
</a>
</g>
</g>
<!-- Node1&#45;&gt;Node21 -->
<g id="edge20" class="edge">
<title>Node1&#45;&gt;Node21</title>
<path fill="none" stroke="midnightblue" d="M2068.18,-97.82C2237.95,-96.6 2679.71,-88.77 3045,-42 3056.8,-40.49 3069.3,-38.36 3081.28,-36.04"/>
<polygon fill="midnightblue" stroke="midnightblue" points="2068.1,-94.32 2058.12,-97.88 2068.14,-101.32 2068.1,-94.32"/>
</g>
<!-- Node22 -->
<g id="node22" class="node">
<title>Node22</title>
<g id="a_node22"><a xlink:href="../../d5/de8/intersect__circles__dialog_8cpp.html" target="_top" xlink:title=" ">
<polygon fill="white" stroke="black" points="3250,-0.5 3250,-41.5 3376,-41.5 3376,-0.5 3250,-0.5"/>
<text text-anchor="start" x="3258" y="-29.5" font-family="Helvetica,sans-Serif" font-size="10.00">src/libs/vtools/dialogs</text>
<text text-anchor="start" x="3258" y="-18.5" font-family="Helvetica,sans-Serif" font-size="10.00">/tools/intersect_circles</text>
<text text-anchor="middle" x="3313" y="-7.5" font-family="Helvetica,sans-Serif" font-size="10.00">_dialog.cpp</text>
</a>
</g>
</g>
<!-- Node1&#45;&gt;Node22 -->
<g id="edge21" class="edge">
<title>Node1&#45;&gt;Node22</title>
<path fill="none" stroke="midnightblue" d="M2068.54,-96.9C2297.83,-93.05 3012.73,-78.36 3241,-42 3243.95,-41.53 3246.95,-40.98 3249.96,-40.38"/>
<polygon fill="midnightblue" stroke="midnightblue" points="2068.25,-93.41 2058.31,-97.07 2068.37,-100.41 2068.25,-93.41"/>
</g>
<!-- Node23 -->
<g id="node23" class="node">
<title>Node23</title>
<g id="a_node23"><a xlink:href="../../d5/d5a/intersect__circletangent__dialog_8cpp.html" target="_top" xlink:title=" ">
<polygon fill="white" stroke="black" points="3394,-0.5 3394,-41.5 3552,-41.5 3552,-0.5 3394,-0.5"/>
<text text-anchor="start" x="3402" y="-29.5" font-family="Helvetica,sans-Serif" font-size="10.00">src/libs/vtools/dialogs</text>
<text text-anchor="start" x="3402" y="-18.5" font-family="Helvetica,sans-Serif" font-size="10.00">/tools/intersect_circletangent</text>
<text text-anchor="middle" x="3473" y="-7.5" font-family="Helvetica,sans-Serif" font-size="10.00">_dialog.cpp</text>
</a>
</g>
</g>
<!-- Node1&#45;&gt;Node23 -->
<g id="edge22" class="edge">
<title>Node1&#45;&gt;Node23</title>
<path fill="none" stroke="midnightblue" d="M2068.66,-96.84C2315.08,-92.59 3126.63,-76.28 3385,-42 3387.95,-41.61 3390.95,-41.16 3393.97,-40.68"/>
<polygon fill="midnightblue" stroke="midnightblue" points="2068.33,-93.35 2058.4,-97.02 2068.45,-100.35 2068.33,-93.35"/>
</g>
<!-- Node24 -->
<g id="node24" class="node">
<title>Node24</title>
<g id="a_node24"><a xlink:href="../../dc/d82/dialoginternalpath_8cpp.html" target="_top" xlink:title=" ">
<polygon fill="white" stroke="black" points="3569.5,-6 3569.5,-36 3754.5,-36 3754.5,-6 3569.5,-6"/>
<text text-anchor="start" x="3577.5" y="-24" font-family="Helvetica,sans-Serif" font-size="10.00">src/libs/vtools/dialogs</text>
<text text-anchor="middle" x="3662" y="-13" font-family="Helvetica,sans-Serif" font-size="10.00">/tools/piece/dialoginternalpath.cpp</text>
</a>
</g>
</g>
<!-- Node1&#45;&gt;Node24 -->
<g id="edge23" class="edge">
<title>Node1&#45;&gt;Node24</title>
<path fill="none" stroke="midnightblue" d="M2068.58,-96.96C2334.58,-92.84 3266.04,-76.26 3561,-42 3573.43,-40.56 3586.61,-38.41 3599.21,-36.05"/>
<polygon fill="midnightblue" stroke="midnightblue" points="2068.22,-93.46 2058.27,-97.11 2068.33,-100.46 2068.22,-93.46"/>
</g>
<!-- Node25 -->
<g id="node25" class="node">
<title>Node25</title>
<g id="a_node25"><a xlink:href="../../de/d46/pattern__piece__dialog_8cpp.html" target="_top" xlink:title=" ">
<polygon fill="white" stroke="black" points="3772.5,-0.5 3772.5,-41.5 3915.5,-41.5 3915.5,-0.5 3772.5,-0.5"/>
<text text-anchor="start" x="3780.5" y="-29.5" font-family="Helvetica,sans-Serif" font-size="10.00">src/libs/vtools/dialogs</text>
<text text-anchor="start" x="3780.5" y="-18.5" font-family="Helvetica,sans-Serif" font-size="10.00">/tools/piece/pattern_piece</text>
<text text-anchor="middle" x="3844" y="-7.5" font-family="Helvetica,sans-Serif" font-size="10.00">_dialog.cpp</text>
</a>
</g>
</g>
<!-- Node1&#45;&gt;Node25 -->
<g id="edge24" class="edge">
<title>Node1&#45;&gt;Node25</title>
<path fill="none" stroke="midnightblue" d="M2068.63,-97.77C2356.3,-96.51 3428.25,-88.74 3764,-42 3766.69,-41.62 3769.43,-41.2 3772.18,-40.72"/>
<polygon fill="midnightblue" stroke="midnightblue" points="2068.31,-94.27 2058.32,-97.81 2068.34,-101.27 2068.31,-94.27"/>
</g>
<!-- Node26 -->
<g id="node26" class="node">
<title>Node26</title>
<g id="a_node26"><a xlink:href="../../d9/d4e/vabstracttool_8cpp.html" target="_top" xlink:title=" ">
<polygon fill="white" stroke="black" points="3933.5,-6 3933.5,-36 4044.5,-36 4044.5,-6 3933.5,-6"/>
<text text-anchor="start" x="3941.5" y="-24" font-family="Helvetica,sans-Serif" font-size="10.00">src/libs/vtools/tools</text>
<text text-anchor="middle" x="3989" y="-13" font-family="Helvetica,sans-Serif" font-size="10.00">/vabstracttool.cpp</text>
</a>
</g>
</g>
<!-- Node1&#45;&gt;Node26 -->
<g id="edge25" class="edge">
<title>Node1&#45;&gt;Node26</title>
<path fill="none" stroke="midnightblue" d="M2068.43,-97.08C2395.19,-92.73 3739.54,-73.07 3925,-42 3933.15,-40.63 3941.7,-38.49 3949.81,-36.1"/>
<polygon fill="midnightblue" stroke="midnightblue" points="2068.1,-93.59 2058.15,-97.22 2068.19,-100.59 2068.1,-93.59"/>
</g>
</g>
</svg>
