<?xml version="1.0" encoding="UTF-8" standalone="no"?>
<!DOCTYPE svg PUBLIC "-//W3C//DTD SVG 1.1//EN"
 "http://www.w3.org/Graphics/SVG/1.1/DTD/svg11.dtd">
<!-- Generated by graphviz version 2.43.0 (0)
 -->
<!-- Title: src/libs/vpatterndb/variables/vlineangle.h Pages: 1 -->
<svg width="6479pt" height="374pt"
 viewBox="0.00 0.00 6479.30 374.00" xmlns="http://www.w3.org/2000/svg" xmlns:xlink="http://www.w3.org/1999/xlink">
<g id="graph0" class="graph" transform="scale(1 1) rotate(0) translate(4 370)">
<title>src/libs/vpatterndb/variables/vlineangle.h</title>
<polygon fill="white" stroke="transparent" points="-4,4 -4,-370 6475.3,-370 6475.3,4 -4,4"/>
<!-- Node1 -->
<g id="node1" class="node">
<title>Node1</title>
<g id="a_node1"><a xlink:title=" ">
<polygon fill="#bfbfbf" stroke="black" points="5870,-335.5 5870,-365.5 5998,-365.5 5998,-335.5 5870,-335.5"/>
<text text-anchor="start" x="5878" y="-353.5" font-family="Helvetica,sans-Serif" font-size="10.00">src/libs/vpatterndb</text>
<text text-anchor="middle" x="5934" y="-342.5" font-family="Helvetica,sans-Serif" font-size="10.00">/variables/vlineangle.h</text>
</a>
</g>
</g>
<!-- Node2 -->
<g id="node2" class="node">
<title>Node2</title>
<g id="a_node2"><a xlink:href="../../d6/d98/vlineangle_8cpp.html" target="_top" xlink:title=" ">
<polygon fill="white" stroke="black" points="5723.5,-268.5 5723.5,-298.5 5862.5,-298.5 5862.5,-268.5 5723.5,-268.5"/>
<text text-anchor="start" x="5731.5" y="-286.5" font-family="Helvetica,sans-Serif" font-size="10.00">src/libs/vpatterndb</text>
<text text-anchor="middle" x="5793" y="-275.5" font-family="Helvetica,sans-Serif" font-size="10.00">/variables/vlineangle.cpp</text>
</a>
</g>
</g>
<!-- Node1&#45;&gt;Node2 -->
<g id="edge1" class="edge">
<title>Node1&#45;&gt;Node2</title>
<path fill="none" stroke="midnightblue" d="M5894.15,-331.13C5871.75,-320.8 5844.22,-308.11 5823.54,-298.58"/>
<polygon fill="midnightblue" stroke="midnightblue" points="5892.86,-334.39 5903.41,-335.4 5895.79,-328.03 5892.86,-334.39"/>
</g>
<!-- Node3 -->
<g id="node3" class="node">
<title>Node3</title>
<g id="a_node3"><a xlink:href="../../de/dca/variables_8h.html" target="_top" xlink:title=" ">
<polygon fill="white" stroke="black" points="5880.5,-268.5 5880.5,-298.5 5987.5,-298.5 5987.5,-268.5 5880.5,-268.5"/>
<text text-anchor="start" x="5888.5" y="-286.5" font-family="Helvetica,sans-Serif" font-size="10.00">src/libs/vpatterndb</text>
<text text-anchor="middle" x="5934" y="-275.5" font-family="Helvetica,sans-Serif" font-size="10.00">/variables.h</text>
</a>
</g>
</g>
<!-- Node1&#45;&gt;Node3 -->
<g id="edge2" class="edge">
<title>Node1&#45;&gt;Node3</title>
<path fill="none" stroke="midnightblue" d="M5934,-325.11C5934,-316.15 5934,-306.32 5934,-298.58"/>
<polygon fill="midnightblue" stroke="midnightblue" points="5930.5,-325.4 5934,-335.4 5937.5,-325.4 5930.5,-325.4"/>
</g>
<!-- Node40 -->
<g id="node35" class="node">
<title>Node40</title>
<g id="a_node35"><a xlink:href="../../d6/d46/vcontainer_8cpp.html" target="_top" xlink:title=" ">
<polygon fill="white" stroke="black" points="5628.5,-67.5 5628.5,-97.5 5735.5,-97.5 5735.5,-67.5 5628.5,-67.5"/>
<text text-anchor="start" x="5636.5" y="-85.5" font-family="Helvetica,sans-Serif" font-size="10.00">src/libs/vpatterndb</text>
<text text-anchor="middle" x="5682" y="-74.5" font-family="Helvetica,sans-Serif" font-size="10.00">/vcontainer.cpp</text>
</a>
</g>
</g>
<!-- Node1&#45;&gt;Node40 -->
<g id="edge60" class="edge">
<title>Node1&#45;&gt;Node40</title>
<path fill="none" stroke="midnightblue" d="M6008.35,-343.87C6179.57,-328.36 6577.16,-276.28 6444,-134 6395.81,-82.51 5901.44,-81.73 5735.77,-82.93"/>
<polygon fill="midnightblue" stroke="midnightblue" points="6007.79,-340.41 5998.14,-344.78 6008.41,-347.38 6007.79,-340.41"/>
</g>
<!-- Node4 -->
<g id="node4" class="node">
<title>Node4</title>
<g id="a_node4"><a xlink:href="../../d3/df7/vcontainer_8h.html" target="_top" xlink:title=" ">
<polygon fill="white" stroke="black" points="5434.5,-201.5 5434.5,-231.5 5541.5,-231.5 5541.5,-201.5 5434.5,-201.5"/>
<text text-anchor="start" x="5442.5" y="-219.5" font-family="Helvetica,sans-Serif" font-size="10.00">src/libs/vpatterndb</text>
<text text-anchor="middle" x="5488" y="-208.5" font-family="Helvetica,sans-Serif" font-size="10.00">/vcontainer.h</text>
</a>
</g>
</g>
<!-- Node3&#45;&gt;Node4 -->
<g id="edge3" class="edge">
<title>Node3&#45;&gt;Node4</title>
<path fill="none" stroke="midnightblue" d="M5870.35,-267.8C5747.64,-245.83 5614.2,-230.48 5541.68,-222.86"/>
<polygon fill="midnightblue" stroke="midnightblue" points="5869.84,-271.26 5880.3,-269.6 5871.08,-264.37 5869.84,-271.26"/>
</g>
<!-- Node5 -->
<g id="node5" class="node">
<title>Node5</title>
<g id="a_node5"><a xlink:href="../../d4/dd6/vmeasurements_8h.html" target="_top" xlink:title=" ">
<polygon fill="white" stroke="black" points="454.5,-140 454.5,-159 639.5,-159 639.5,-140 454.5,-140"/>
<text text-anchor="middle" x="547" y="-147" font-family="Helvetica,sans-Serif" font-size="10.00">src/libs/vformat/vmeasurements.h</text>
</a>
</g>
</g>
<!-- Node4&#45;&gt;Node5 -->
<g id="edge4" class="edge">
<title>Node4&#45;&gt;Node5</title>
<path fill="none" stroke="midnightblue" d="M5424.05,-215.33C4930.91,-213.92 1726.56,-203.42 758,-165 719.2,-163.46 676.45,-160.72 639.64,-158.03"/>
<polygon fill="midnightblue" stroke="midnightblue" points="5424.17,-218.83 5434.18,-215.36 5424.19,-211.83 5424.17,-218.83"/>
</g>
<!-- Node6 -->
<g id="node6" class="node">
<title>Node6</title>
<g id="a_node6"><a xlink:href="../../de/db3/vmeasurements_8cpp.html" target="_top" xlink:title=" ">
<polygon fill="white" stroke="black" points="0,-73 0,-92 196,-92 196,-73 0,-73"/>
<text text-anchor="middle" x="98" y="-80" font-family="Helvetica,sans-Serif" font-size="10.00">src/libs/vformat/vmeasurements.cpp</text>
</a>
</g>
</g>
<!-- Node4&#45;&gt;Node6 -->
<g id="edge6" class="edge">
<title>Node4&#45;&gt;Node6</title>
<path fill="none" stroke="midnightblue" d="M5424.41,-215.26C4858.75,-213.12 704.18,-196.34 445,-165 323.67,-150.33 183.02,-109.79 125.07,-92.02"/>
<polygon fill="midnightblue" stroke="midnightblue" points="5424.41,-218.76 5434.42,-215.3 5424.43,-211.76 5424.41,-218.76"/>
</g>
<!-- Node7 -->
<g id="node7" class="node">
<title>Node7</title>
<g id="a_node7"><a xlink:href="../../d6/de0/vlayoutpiece_8h.html" target="_top" xlink:title=" ">
<polygon fill="white" stroke="black" points="767,-140 767,-159 933,-159 933,-140 767,-140"/>
<text text-anchor="middle" x="850" y="-147" font-family="Helvetica,sans-Serif" font-size="10.00">src/libs/vlayout/vlayoutpiece.h</text>
</a>
</g>
</g>
<!-- Node4&#45;&gt;Node7 -->
<g id="edge7" class="edge">
<title>Node4&#45;&gt;Node7</title>
<path fill="none" stroke="midnightblue" d="M5424.2,-214.61C4914.77,-207.47 1511.61,-159.77 933.42,-151.67"/>
<polygon fill="midnightblue" stroke="midnightblue" points="5424.26,-218.11 5434.31,-214.75 5424.36,-211.11 5424.26,-218.11"/>
</g>
<!-- Node17 -->
<g id="node16" class="node">
<title>Node17</title>
<g id="a_node16"><a xlink:href="../../d8/d70/vtextmanager_8cpp.html" target="_top" xlink:title=" ">
<polygon fill="white" stroke="black" points="1535,-73 1535,-92 1717,-92 1717,-73 1535,-73"/>
<text text-anchor="middle" x="1626" y="-80" font-family="Helvetica,sans-Serif" font-size="10.00">src/libs/vlayout/vtextmanager.cpp</text>
</a>
</g>
</g>
<!-- Node4&#45;&gt;Node17 -->
<g id="edge18" class="edge">
<title>Node4&#45;&gt;Node17</title>
<path fill="none" stroke="midnightblue" d="M5424.1,-214.57C4991.51,-208.13 2485.99,-168.26 1726,-98 1710.19,-96.54 1693.06,-94.3 1677.52,-92.01"/>
<polygon fill="midnightblue" stroke="midnightblue" points="5424.18,-218.07 5434.23,-214.72 5424.28,-211.07 5424.18,-218.07"/>
</g>
<!-- Node18 -->
<g id="node17" class="node">
<title>Node18</title>
<g id="a_node17"><a xlink:href="../../d5/d74/vabstractapplication_8h.html" target="_top" xlink:title=" ">
<polygon fill="white" stroke="red" points="3394.5,-140 3394.5,-159 3589.5,-159 3589.5,-140 3394.5,-140"/>
<text text-anchor="middle" x="3492" y="-147" font-family="Helvetica,sans-Serif" font-size="10.00">src/libs/vmisc/vabstractapplication.h</text>
</a>
</g>
</g>
<!-- Node4&#45;&gt;Node18 -->
<g id="edge19" class="edge">
<title>Node4&#45;&gt;Node18</title>
<path fill="none" stroke="midnightblue" d="M5424.02,-213.42C5133.91,-203.97 3941.09,-165.12 3589.78,-153.68"/>
<polygon fill="midnightblue" stroke="midnightblue" points="5424.25,-216.93 5434.35,-213.75 5424.47,-209.93 5424.25,-216.93"/>
</g>
<!-- Node36 -->
<g id="node31" class="node">
<title>Node36</title>
<g id="a_node31"><a xlink:href="../../db/d11/vformula_8cpp.html" target="_top" xlink:title=" ">
<polygon fill="white" stroke="black" points="5339.5,-67.5 5339.5,-97.5 5446.5,-97.5 5446.5,-67.5 5339.5,-67.5"/>
<text text-anchor="start" x="5347.5" y="-85.5" font-family="Helvetica,sans-Serif" font-size="10.00">src/libs/vpatterndb</text>
<text text-anchor="middle" x="5393" y="-74.5" font-family="Helvetica,sans-Serif" font-size="10.00">/vformula.cpp</text>
</a>
</g>
</g>
<!-- Node4&#45;&gt;Node36 -->
<g id="edge52" class="edge">
<title>Node4&#45;&gt;Node36</title>
<path fill="none" stroke="midnightblue" d="M5469.27,-193.39C5462.11,-184.69 5453.99,-174.52 5447,-165 5430.12,-142.02 5412.14,-114.1 5401.77,-97.62"/>
<polygon fill="midnightblue" stroke="midnightblue" points="5466.69,-195.76 5475.78,-201.21 5472.08,-191.28 5466.69,-195.76"/>
</g>
<!-- Node37 -->
<g id="node32" class="node">
<title>Node37</title>
<g id="a_node32"><a xlink:href="../../df/d7a/vpiece_8cpp.html" target="_top" xlink:title=" ">
<polygon fill="white" stroke="black" points="5464.5,-67.5 5464.5,-97.5 5571.5,-97.5 5571.5,-67.5 5464.5,-67.5"/>
<text text-anchor="start" x="5472.5" y="-85.5" font-family="Helvetica,sans-Serif" font-size="10.00">src/libs/vpatterndb</text>
<text text-anchor="middle" x="5518" y="-74.5" font-family="Helvetica,sans-Serif" font-size="10.00">/vpiece.cpp</text>
</a>
</g>
</g>
<!-- Node4&#45;&gt;Node37 -->
<g id="edge54" class="edge">
<title>Node4&#45;&gt;Node37</title>
<path fill="none" stroke="midnightblue" d="M5468.88,-193.4C5456.97,-176.82 5445.55,-153.69 5455,-134 5462.46,-118.46 5477.3,-106.19 5490.7,-97.64"/>
<polygon fill="midnightblue" stroke="midnightblue" points="5466.18,-195.63 5475.05,-201.43 5471.73,-191.36 5466.18,-195.63"/>
</g>
<!-- Node39 -->
<g id="node34" class="node">
<title>Node39</title>
<g id="a_node34"><a xlink:href="../../d8/dba/vpiecenode_8cpp.html" target="_top" xlink:title=" ">
<polygon fill="white" stroke="black" points="4554.5,-0.5 4554.5,-30.5 4661.5,-30.5 4661.5,-0.5 4554.5,-0.5"/>
<text text-anchor="start" x="4562.5" y="-18.5" font-family="Helvetica,sans-Serif" font-size="10.00">src/libs/vpatterndb</text>
<text text-anchor="middle" x="4608" y="-7.5" font-family="Helvetica,sans-Serif" font-size="10.00">/vpiecenode.cpp</text>
</a>
</g>
</g>
<!-- Node4&#45;&gt;Node39 -->
<g id="edge55" class="edge">
<title>Node4&#45;&gt;Node39</title>
<path fill="none" stroke="midnightblue" d="M5486.08,-191.18C5485.97,-173.61 5488.6,-150.21 5501,-134 5524.69,-103.03 5559.83,-130.74 5581,-98 5588.48,-86.43 5590.49,-76.99 5581,-67 5549.15,-33.46 4861.29,-20.37 4661.78,-17.27"/>
<polygon fill="midnightblue" stroke="midnightblue" points="5482.59,-191.39 5486.44,-201.26 5489.58,-191.14 5482.59,-191.39"/>
</g>
<!-- Node4&#45;&gt;Node40 -->
<g id="edge56" class="edge">
<title>Node4&#45;&gt;Node40</title>
<path fill="none" stroke="midnightblue" d="M5493.94,-191.45C5499.59,-173.3 5509.84,-149.04 5527,-134 5542.38,-120.52 5589.78,-106.17 5628.15,-96.22"/>
<polygon fill="midnightblue" stroke="midnightblue" points="5490.5,-190.73 5491.12,-201.31 5497.23,-192.65 5490.5,-190.73"/>
</g>
<!-- Node56 -->
<g id="node45" class="node">
<title>Node56</title>
<g id="a_node45"><a xlink:href="../../d1/de1/vincrement__p_8h.html" target="_top" xlink:title=" ">
<polygon fill="white" stroke="red" points="5535.5,-134.5 5535.5,-164.5 5678.5,-164.5 5678.5,-134.5 5535.5,-134.5"/>
<text text-anchor="start" x="5543.5" y="-152.5" font-family="Helvetica,sans-Serif" font-size="10.00">src/libs/vpatterndb</text>
<text text-anchor="middle" x="5607" y="-141.5" font-family="Helvetica,sans-Serif" font-size="10.00">/variables/vincrement_p.h</text>
</a>
</g>
</g>
<!-- Node4&#45;&gt;Node56 -->
<g id="edge50" class="edge">
<title>Node4&#45;&gt;Node56</title>
<path fill="none" stroke="midnightblue" d="M5522.65,-196.57C5541.37,-186.35 5564.09,-173.94 5581.23,-164.58"/>
<polygon fill="midnightblue" stroke="midnightblue" points="5520.92,-193.53 5513.82,-201.4 5524.28,-199.67 5520.92,-193.53"/>
</g>
<!-- Node58 -->
<g id="node46" class="node">
<title>Node58</title>
<g id="a_node46"><a xlink:href="../../d6/dc1/vmeasurement__p_8h.html" target="_top" xlink:title=" ">
<polygon fill="white" stroke="red" points="5697,-134.5 5697,-164.5 5859,-164.5 5859,-134.5 5697,-134.5"/>
<text text-anchor="start" x="5705" y="-152.5" font-family="Helvetica,sans-Serif" font-size="10.00">src/libs/vpatterndb</text>
<text text-anchor="middle" x="5778" y="-141.5" font-family="Helvetica,sans-Serif" font-size="10.00">/variables/vmeasurement_p.h</text>
</a>
</g>
</g>
<!-- Node4&#45;&gt;Node58 -->
<g id="edge51" class="edge">
<title>Node4&#45;&gt;Node58</title>
<path fill="none" stroke="midnightblue" d="M5551.32,-201.31C5600.02,-190.39 5666.96,-175.39 5715.46,-164.52"/>
<polygon fill="midnightblue" stroke="midnightblue" points="5550.52,-197.9 5541.53,-203.5 5552.05,-204.73 5550.52,-197.9"/>
</g>
<!-- Node60 -->
<g id="node47" class="node">
<title>Node60</title>
<g id="a_node47"><a xlink:href="../../d6/d91/vnodedetail_8cpp.html" target="_top" xlink:title=" ">
<polygon fill="white" stroke="black" points="5877.5,-134.5 5877.5,-164.5 5984.5,-164.5 5984.5,-134.5 5877.5,-134.5"/>
<text text-anchor="start" x="5885.5" y="-152.5" font-family="Helvetica,sans-Serif" font-size="10.00">src/libs/vpatterndb</text>
<text text-anchor="middle" x="5931" y="-141.5" font-family="Helvetica,sans-Serif" font-size="10.00">/vnodedetail.cpp</text>
</a>
</g>
</g>
<!-- Node4&#45;&gt;Node60 -->
<g id="edge53" class="edge">
<title>Node4&#45;&gt;Node60</title>
<path fill="none" stroke="midnightblue" d="M5552.06,-208.85C5627.83,-200.55 5757.61,-184.99 5868,-165 5871.09,-164.44 5874.26,-163.83 5877.45,-163.18"/>
<polygon fill="midnightblue" stroke="midnightblue" points="5551.3,-205.41 5541.74,-209.97 5552.06,-212.37 5551.3,-205.41"/>
</g>
<!-- Node61 -->
<g id="node48" class="node">
<title>Node61</title>
<g id="a_node48"><a xlink:href="../../da/de1/vpiecepath_8cpp.html" target="_top" xlink:title=" ">
<polygon fill="white" stroke="black" points="6002.5,-134.5 6002.5,-164.5 6109.5,-164.5 6109.5,-134.5 6002.5,-134.5"/>
<text text-anchor="start" x="6010.5" y="-152.5" font-family="Helvetica,sans-Serif" font-size="10.00">src/libs/vpatterndb</text>
<text text-anchor="middle" x="6056" y="-141.5" font-family="Helvetica,sans-Serif" font-size="10.00">/vpiecepath.cpp</text>
</a>
</g>
</g>
<!-- Node4&#45;&gt;Node61 -->
<g id="edge57" class="edge">
<title>Node4&#45;&gt;Node61</title>
<path fill="none" stroke="midnightblue" d="M5552.02,-211.79C5648.38,-205.61 5836.24,-191.21 5994,-165 5996.73,-164.55 5999.51,-164.04 6002.32,-163.51"/>
<polygon fill="midnightblue" stroke="midnightblue" points="5551.61,-208.31 5541.85,-212.44 5552.05,-215.3 5551.61,-208.31"/>
</g>
<!-- Node62 -->
<g id="node49" class="node">
<title>Node62</title>
<g id="a_node49"><a xlink:href="../../d1/d3a/abstracttest_8cpp.html" target="_top" xlink:title=" ">
<polygon fill="white" stroke="black" points="6127.5,-140 6127.5,-159 6288.5,-159 6288.5,-140 6127.5,-140"/>
<text text-anchor="middle" x="6208" y="-147" font-family="Helvetica,sans-Serif" font-size="10.00">src/libs/vtest/abstracttest.cpp</text>
</a>
</g>
</g>
<!-- Node4&#45;&gt;Node62 -->
<g id="edge58" class="edge">
<title>Node4&#45;&gt;Node62</title>
<path fill="none" stroke="midnightblue" d="M5552.05,-212.11C5666.25,-205.67 5912.43,-190.05 6119,-165 6132.37,-163.38 6146.8,-161.21 6160.07,-159.05"/>
<polygon fill="midnightblue" stroke="midnightblue" points="5551.54,-208.63 5541.75,-212.68 5551.93,-215.62 5551.54,-208.63"/>
</g>
<!-- Node63 -->
<g id="node50" class="node">
<title>Node63</title>
<g id="a_node50"><a xlink:href="../../da/db4/piece__tablewidgetitem_8cpp.html" target="_top" xlink:title=" ">
<polygon fill="white" stroke="black" points="6307,-134.5 6307,-164.5 6435,-164.5 6435,-134.5 6307,-134.5"/>
<text text-anchor="start" x="6315" y="-152.5" font-family="Helvetica,sans-Serif" font-size="10.00">src/libs/vwidgets/piece</text>
<text text-anchor="middle" x="6371" y="-141.5" font-family="Helvetica,sans-Serif" font-size="10.00">_tablewidgetitem.cpp</text>
</a>
</g>
</g>
<!-- Node4&#45;&gt;Node63 -->
<g id="edge59" class="edge">
<title>Node4&#45;&gt;Node63</title>
<path fill="none" stroke="midnightblue" d="M5552.12,-214.41C5689.43,-211.45 6021.9,-200.86 6298,-165 6300.95,-164.62 6303.95,-164.19 6306.99,-163.72"/>
<polygon fill="midnightblue" stroke="midnightblue" points="5551.71,-210.92 5541.79,-214.63 5551.86,-217.92 5551.71,-210.92"/>
</g>
<!-- Node5&#45;&gt;Node6 -->
<g id="edge5" class="edge">
<title>Node5&#45;&gt;Node6</title>
<path fill="none" stroke="midnightblue" d="M477.69,-138.47C389.76,-125.74 239.62,-104 156.93,-92.03"/>
<polygon fill="midnightblue" stroke="midnightblue" points="477.44,-141.97 487.84,-139.94 478.44,-135.04 477.44,-141.97"/>
</g>
<!-- Node8 -->
<g id="node8" class="node">
<title>Node8</title>
<g id="a_node8"><a xlink:href="../../dd/d66/vdxfengine_8cpp.html" target="_top" xlink:title=" ">
<polygon fill="white" stroke="black" points="214,-73 214,-92 368,-92 368,-73 214,-73"/>
<text text-anchor="middle" x="291" y="-80" font-family="Helvetica,sans-Serif" font-size="10.00">src/libs/vdxf/vdxfengine.cpp</text>
</a>
</g>
</g>
<!-- Node7&#45;&gt;Node8 -->
<g id="edge8" class="edge">
<title>Node7&#45;&gt;Node8</title>
<path fill="none" stroke="midnightblue" d="M756.72,-140.23C661.17,-131.35 508.43,-116.08 377,-98 364.55,-96.29 351.13,-94.16 338.68,-92.07"/>
<polygon fill="midnightblue" stroke="midnightblue" points="756.65,-143.73 766.93,-141.17 757.3,-136.76 756.65,-143.73"/>
</g>
<!-- Node9 -->
<g id="node9" class="node">
<title>Node9</title>
<g id="a_node9"><a xlink:href="../../de/da8/vbank_8cpp.html" target="_top" xlink:title=" ">
<polygon fill="white" stroke="black" points="386,-73 386,-92 530,-92 530,-73 386,-73"/>
<text text-anchor="middle" x="458" y="-80" font-family="Helvetica,sans-Serif" font-size="10.00">src/libs/vlayout/vbank.cpp</text>
</a>
</g>
</g>
<!-- Node7&#45;&gt;Node9 -->
<g id="edge9" class="edge">
<title>Node7&#45;&gt;Node9</title>
<path fill="none" stroke="midnightblue" d="M785.57,-138.35C722.64,-128.36 624.17,-112.54 539,-98 528.02,-96.13 516.21,-94.05 505.09,-92.06"/>
<polygon fill="midnightblue" stroke="midnightblue" points="785.32,-141.85 795.74,-139.96 786.41,-134.94 785.32,-141.85"/>
</g>
<!-- Node10 -->
<g id="node10" class="node">
<title>Node10</title>
<g id="a_node10"><a xlink:href="../../df/d5d/vcontour_8cpp.html" target="_top" xlink:title=" ">
<polygon fill="white" stroke="black" points="548,-73 548,-92 704,-92 704,-73 548,-73"/>
<text text-anchor="middle" x="626" y="-80" font-family="Helvetica,sans-Serif" font-size="10.00">src/libs/vlayout/vcontour.cpp</text>
</a>
</g>
</g>
<!-- Node7&#45;&gt;Node10 -->
<g id="edge10" class="edge">
<title>Node7&#45;&gt;Node10</title>
<path fill="none" stroke="midnightblue" d="M810.4,-137.01C766.07,-124.15 695.25,-103.59 655.51,-92.06"/>
<polygon fill="midnightblue" stroke="midnightblue" points="809.68,-140.44 820.25,-139.87 811.63,-133.72 809.68,-140.44"/>
</g>
<!-- Node11 -->
<g id="node11" class="node">
<title>Node11</title>
<g id="a_node11"><a xlink:href="../../d2/d2d/vlayoutpaper__p_8h.html" target="_top" xlink:title=" ">
<polygon fill="white" stroke="black" points="760.5,-73 760.5,-92 939.5,-92 939.5,-73 760.5,-73"/>
<text text-anchor="middle" x="850" y="-80" font-family="Helvetica,sans-Serif" font-size="10.00">src/libs/vlayout/vlayoutpaper_p.h</text>
</a>
</g>
</g>
<!-- Node7&#45;&gt;Node11 -->
<g id="edge11" class="edge">
<title>Node7&#45;&gt;Node11</title>
<path fill="none" stroke="midnightblue" d="M850,-129.54C850,-117.17 850,-101.62 850,-92.13"/>
<polygon fill="midnightblue" stroke="midnightblue" points="846.5,-129.73 850,-139.73 853.5,-129.73 846.5,-129.73"/>
</g>
<!-- Node12 -->
<g id="node12" class="node">
<title>Node12</title>
<g id="a_node12"><a xlink:href="../../d1/dd1/vlayoutpaper_8cpp.html" target="_top" xlink:title=" ">
<polygon fill="white" stroke="black" points="761,-6 761,-25 939,-25 939,-6 761,-6"/>
<text text-anchor="middle" x="850" y="-13" font-family="Helvetica,sans-Serif" font-size="10.00">src/libs/vlayout/vlayoutpaper.cpp</text>
</a>
</g>
</g>
<!-- Node7&#45;&gt;Node12 -->
<g id="edge14" class="edge">
<title>Node7&#45;&gt;Node12</title>
<path fill="none" stroke="midnightblue" d="M803.17,-136.5C783.49,-128.89 762.52,-116.81 751,-98 743.8,-86.25 743.8,-78.75 751,-67 764.4,-45.12 790.6,-32.34 812.68,-25.12"/>
<polygon fill="midnightblue" stroke="midnightblue" points="802.09,-139.83 812.68,-139.88 804.43,-133.23 802.09,-139.83"/>
</g>
<!-- Node13 -->
<g id="node13" class="node">
<title>Node13</title>
<g id="a_node13"><a xlink:href="../../d3/d39/vlayoutgenerator_8cpp.html" target="_top" xlink:title=" ">
<polygon fill="white" stroke="black" points="1124.5,-73 1124.5,-92 1321.5,-92 1321.5,-73 1124.5,-73"/>
<text text-anchor="middle" x="1223" y="-80" font-family="Helvetica,sans-Serif" font-size="10.00">src/libs/vlayout/vlayoutgenerator.cpp</text>
</a>
</g>
</g>
<!-- Node7&#45;&gt;Node13 -->
<g id="edge13" class="edge">
<title>Node7&#45;&gt;Node13</title>
<path fill="none" stroke="midnightblue" d="M909.14,-138.19C982.39,-125.43 1105.84,-103.92 1174.04,-92.03"/>
<polygon fill="midnightblue" stroke="midnightblue" points="908.4,-134.77 899.15,-139.94 909.6,-141.67 908.4,-134.77"/>
</g>
<!-- Node14 -->
<g id="node14" class="node">
<title>Node14</title>
<g id="a_node14"><a xlink:href="../../db/d5c/vposition_8h.html" target="_top" xlink:title=" ">
<polygon fill="white" stroke="red" points="958,-73 958,-92 1106,-92 1106,-73 958,-73"/>
<text text-anchor="middle" x="1032" y="-80" font-family="Helvetica,sans-Serif" font-size="10.00">src/libs/vlayout/vposition.h</text>
</a>
</g>
</g>
<!-- Node7&#45;&gt;Node14 -->
<g id="edge15" class="edge">
<title>Node7&#45;&gt;Node14</title>
<path fill="none" stroke="midnightblue" d="M883.78,-136.44C919.88,-123.54 976.21,-103.42 1008.02,-92.06"/>
<polygon fill="midnightblue" stroke="midnightblue" points="882.41,-133.21 874.17,-139.87 884.76,-139.8 882.41,-133.21"/>
</g>
<!-- Node16 -->
<g id="node15" class="node">
<title>Node16</title>
<g id="a_node15"><a xlink:href="../../dd/d70/vlayoutpiece_8cpp.html" target="_top" xlink:title=" ">
<polygon fill="white" stroke="black" points="1339.5,-73 1339.5,-92 1516.5,-92 1516.5,-73 1339.5,-73"/>
<text text-anchor="middle" x="1428" y="-80" font-family="Helvetica,sans-Serif" font-size="10.00">src/libs/vlayout/vlayoutpiece.cpp</text>
</a>
</g>
</g>
<!-- Node7&#45;&gt;Node16 -->
<g id="edge17" class="edge">
<title>Node7&#45;&gt;Node16</title>
<path fill="none" stroke="midnightblue" d="M943.42,-139.84C1040.25,-130.6 1195.92,-114.97 1330,-98 1343.99,-96.23 1359.07,-94.11 1373.11,-92.04"/>
<polygon fill="midnightblue" stroke="midnightblue" points="942.99,-136.37 933.37,-140.8 943.66,-143.34 942.99,-136.37"/>
</g>
<!-- Node11&#45;&gt;Node12 -->
<g id="edge12" class="edge">
<title>Node11&#45;&gt;Node12</title>
<path fill="none" stroke="midnightblue" d="M850,-62.54C850,-50.17 850,-34.62 850,-25.13"/>
<polygon fill="midnightblue" stroke="midnightblue" points="846.5,-62.73 850,-72.73 853.5,-62.73 846.5,-62.73"/>
</g>
<!-- Node14&#45;&gt;Node12 -->
<g id="edge16" class="edge">
<title>Node14&#45;&gt;Node12</title>
<path fill="none" stroke="midnightblue" d="M998.22,-69.44C962.12,-56.54 905.79,-36.42 873.98,-25.06"/>
<polygon fill="midnightblue" stroke="midnightblue" points="997.24,-72.8 1007.83,-72.87 999.59,-66.21 997.24,-72.8"/>
</g>
<!-- Node18&#45;&gt;Node16 -->
<g id="edge30" class="edge">
<title>Node18&#45;&gt;Node16</title>
<path fill="none" stroke="midnightblue" d="M3384.37,-147.46C3028.47,-143.73 1891.46,-129.61 1526,-98 1510.15,-96.63 1492.96,-94.36 1477.47,-92.01"/>
<polygon fill="midnightblue" stroke="midnightblue" points="3384.38,-150.96 3394.42,-147.56 3384.45,-143.96 3384.38,-150.96"/>
</g>
<!-- Node18&#45;&gt;Node17 -->
<g id="edge31" class="edge">
<title>Node18&#45;&gt;Node17</title>
<path fill="none" stroke="midnightblue" d="M3384.42,-147.05C3053.04,-142.34 2050.66,-126.09 1726,-98 1709.92,-96.61 1692.48,-94.35 1676.74,-92.02"/>
<polygon fill="midnightblue" stroke="midnightblue" points="3384.45,-150.55 3394.5,-147.2 3384.55,-143.55 3384.45,-150.55"/>
</g>
<!-- Node19 -->
<g id="node18" class="node">
<title>Node19</title>
<g id="a_node18"><a xlink:href="../../d4/d90/fvupdater_8cpp.html" target="_top" xlink:title=" ">
<polygon fill="white" stroke="black" points="1735.5,-73 1735.5,-92 1888.5,-92 1888.5,-73 1735.5,-73"/>
<text text-anchor="middle" x="1812" y="-80" font-family="Helvetica,sans-Serif" font-size="10.00">src/libs/fervor/fvupdater.cpp</text>
</a>
</g>
</g>
<!-- Node18&#45;&gt;Node19 -->
<g id="edge20" class="edge">
<title>Node18&#45;&gt;Node19</title>
<path fill="none" stroke="midnightblue" d="M3384,-147.02C3074.23,-142.45 2186.42,-127.13 1897,-98 1883.3,-96.62 1868.46,-94.36 1855.09,-92.03"/>
<polygon fill="midnightblue" stroke="midnightblue" points="3384.28,-150.52 3394.33,-147.17 3384.38,-143.52 3384.28,-150.52"/>
</g>
<!-- Node20 -->
<g id="node19" class="node">
<title>Node20</title>
<g id="a_node19"><a xlink:href="../../d9/dc8/dxiface_8cpp.html" target="_top" xlink:title=" ">
<polygon fill="white" stroke="black" points="1906.5,-73 1906.5,-92 2041.5,-92 2041.5,-73 1906.5,-73"/>
<text text-anchor="middle" x="1974" y="-80" font-family="Helvetica,sans-Serif" font-size="10.00">src/libs/vdxf/dxiface.cpp</text>
</a>
</g>
</g>
<!-- Node18&#45;&gt;Node20 -->
<g id="edge21" class="edge">
<title>Node18&#45;&gt;Node20</title>
<path fill="none" stroke="midnightblue" d="M3384.31,-146.87C3095.53,-142.17 2308.32,-126.99 2050,-98 2037.72,-96.62 2024.45,-94.36 2012.49,-92.03"/>
<polygon fill="midnightblue" stroke="midnightblue" points="3384.32,-150.37 3394.37,-147.04 3384.43,-143.37 3384.32,-150.37"/>
</g>
<!-- Node21 -->
<g id="node20" class="node">
<title>Node21</title>
<g id="a_node20"><a xlink:href="../../da/d75/vabstractarc__p_8h.html" target="_top" xlink:title=" ">
<polygon fill="white" stroke="red" points="2059.5,-67.5 2059.5,-97.5 2166.5,-97.5 2166.5,-67.5 2059.5,-67.5"/>
<text text-anchor="start" x="2067.5" y="-85.5" font-family="Helvetica,sans-Serif" font-size="10.00">src/libs/vgeometry</text>
<text text-anchor="middle" x="2113" y="-74.5" font-family="Helvetica,sans-Serif" font-size="10.00">/vabstractarc_p.h</text>
</a>
</g>
</g>
<!-- Node18&#45;&gt;Node21 -->
<g id="edge22" class="edge">
<title>Node18&#45;&gt;Node21</title>
<path fill="none" stroke="midnightblue" d="M3384.14,-147.02C3112.91,-142.89 2407.56,-129.36 2175,-98 2172.26,-97.63 2169.47,-97.2 2166.65,-96.71"/>
<polygon fill="midnightblue" stroke="midnightblue" points="3384.33,-150.53 3394.38,-147.18 3384.44,-143.53 3384.33,-150.53"/>
</g>
<!-- Node23 -->
<g id="node21" class="node">
<title>Node23</title>
<g id="a_node21"><a xlink:href="../../dc/da3/varc__p_8h.html" target="_top" xlink:title=" ">
<polygon fill="white" stroke="red" points="2184.5,-67.5 2184.5,-97.5 2291.5,-97.5 2291.5,-67.5 2184.5,-67.5"/>
<text text-anchor="start" x="2192.5" y="-85.5" font-family="Helvetica,sans-Serif" font-size="10.00">src/libs/vgeometry</text>
<text text-anchor="middle" x="2238" y="-74.5" font-family="Helvetica,sans-Serif" font-size="10.00">/varc_p.h</text>
</a>
</g>
</g>
<!-- Node18&#45;&gt;Node23 -->
<g id="edge23" class="edge">
<title>Node18&#45;&gt;Node23</title>
<path fill="none" stroke="midnightblue" d="M3384.13,-146.52C3131.58,-141.46 2507.6,-126.42 2300,-98 2297.26,-97.63 2294.47,-97.19 2291.65,-96.7"/>
<polygon fill="midnightblue" stroke="midnightblue" points="3384.35,-150.02 3394.42,-146.72 3384.49,-143.02 3384.35,-150.02"/>
</g>
<!-- Node25 -->
<g id="node22" class="node">
<title>Node25</title>
<g id="a_node22"><a xlink:href="../../d5/d8e/vcubicbezier__p_8h.html" target="_top" xlink:title=" ">
<polygon fill="white" stroke="red" points="2309.5,-67.5 2309.5,-97.5 2416.5,-97.5 2416.5,-67.5 2309.5,-67.5"/>
<text text-anchor="start" x="2317.5" y="-85.5" font-family="Helvetica,sans-Serif" font-size="10.00">src/libs/vgeometry</text>
<text text-anchor="middle" x="2363" y="-74.5" font-family="Helvetica,sans-Serif" font-size="10.00">/vcubicbezier_p.h</text>
</a>
</g>
</g>
<!-- Node18&#45;&gt;Node25 -->
<g id="edge24" class="edge">
<title>Node18&#45;&gt;Node25</title>
<path fill="none" stroke="midnightblue" d="M3384.15,-149.14C3191.82,-148.99 2777.31,-142.86 2431,-98 2426.33,-97.4 2421.51,-96.64 2416.68,-95.79"/>
<polygon fill="midnightblue" stroke="midnightblue" points="3384.26,-152.64 3394.26,-149.14 3384.26,-145.64 3384.26,-152.64"/>
</g>
<!-- Node27 -->
<g id="node23" class="node">
<title>Node27</title>
<g id="a_node23"><a xlink:href="../../df/dde/vellipticalarc__p_8h.html" target="_top" xlink:title=" ">
<polygon fill="white" stroke="black" points="2473.5,-67.5 2473.5,-97.5 2580.5,-97.5 2580.5,-67.5 2473.5,-67.5"/>
<text text-anchor="start" x="2481.5" y="-85.5" font-family="Helvetica,sans-Serif" font-size="10.00">src/libs/vgeometry</text>
<text text-anchor="middle" x="2527" y="-74.5" font-family="Helvetica,sans-Serif" font-size="10.00">/vellipticalarc_p.h</text>
</a>
</g>
</g>
<!-- Node18&#45;&gt;Node27 -->
<g id="edge25" class="edge">
<title>Node18&#45;&gt;Node27</title>
<path fill="none" stroke="midnightblue" d="M3384.03,-148.51C3214.04,-147.16 2874,-138.98 2589,-98 2586.26,-97.61 2583.47,-97.15 2580.66,-96.65"/>
<polygon fill="midnightblue" stroke="midnightblue" points="3384.21,-152.01 3394.24,-148.58 3384.26,-145.01 3384.21,-152.01"/>
</g>
<!-- Node28 -->
<g id="node24" class="node">
<title>Node28</title>
<g id="a_node24"><a xlink:href="../../d6/dfb/vellipticalarc_8cpp.html" target="_top" xlink:title=" ">
<polygon fill="white" stroke="black" points="2432.5,-0.5 2432.5,-30.5 2539.5,-30.5 2539.5,-0.5 2432.5,-0.5"/>
<text text-anchor="start" x="2440.5" y="-18.5" font-family="Helvetica,sans-Serif" font-size="10.00">src/libs/vgeometry</text>
<text text-anchor="middle" x="2486" y="-7.5" font-family="Helvetica,sans-Serif" font-size="10.00">/vellipticalarc.cpp</text>
</a>
</g>
</g>
<!-- Node18&#45;&gt;Node28 -->
<g id="edge28" class="edge">
<title>Node18&#45;&gt;Node28</title>
<path fill="none" stroke="midnightblue" d="M3384.1,-147.15C3126.64,-143.42 2495.35,-130.92 2464,-98 2446.42,-79.53 2462.9,-48.52 2475.26,-30.54"/>
<polygon fill="midnightblue" stroke="midnightblue" points="3384.17,-150.66 3394.22,-147.3 3384.27,-143.66 3384.17,-150.66"/>
</g>
<!-- Node29 -->
<g id="node25" class="node">
<title>Node29</title>
<g id="a_node25"><a xlink:href="../../d1/d76/vspline__p_8h.html" target="_top" xlink:title=" ">
<polygon fill="white" stroke="red" points="2598.5,-67.5 2598.5,-97.5 2705.5,-97.5 2705.5,-67.5 2598.5,-67.5"/>
<text text-anchor="start" x="2606.5" y="-85.5" font-family="Helvetica,sans-Serif" font-size="10.00">src/libs/vgeometry</text>
<text text-anchor="middle" x="2652" y="-74.5" font-family="Helvetica,sans-Serif" font-size="10.00">/vspline_p.h</text>
</a>
</g>
</g>
<!-- Node18&#45;&gt;Node29 -->
<g id="edge27" class="edge">
<title>Node18&#45;&gt;Node29</title>
<path fill="none" stroke="midnightblue" d="M3384.09,-146.97C3233.51,-143.6 2952.14,-132.76 2715,-98 2711.89,-97.54 2708.71,-97.01 2705.5,-96.43"/>
<polygon fill="midnightblue" stroke="midnightblue" points="3384.19,-150.48 3394.26,-147.19 3384.34,-143.48 3384.19,-150.48"/>
</g>
<!-- Node31 -->
<g id="node26" class="node">
<title>Node31</title>
<g id="a_node26"><a xlink:href="../../d9/d15/vabstractpiece_8cpp.html" target="_top" xlink:title=" ">
<polygon fill="white" stroke="black" points="2724,-73 2724,-92 2910,-92 2910,-73 2724,-73"/>
<text text-anchor="middle" x="2817" y="-80" font-family="Helvetica,sans-Serif" font-size="10.00">src/libs/vlayout/vabstractpiece.cpp</text>
</a>
</g>
</g>
<!-- Node18&#45;&gt;Node31 -->
<g id="edge29" class="edge">
<title>Node18&#45;&gt;Node31</title>
<path fill="none" stroke="midnightblue" d="M3384.01,-140.71C3268.69,-131.98 3080.67,-116.6 2919,-98 2904.07,-96.28 2887.96,-94.13 2873.05,-92.02"/>
<polygon fill="midnightblue" stroke="midnightblue" points="3384.02,-144.22 3394.25,-141.48 3384.55,-137.24 3384.02,-144.22"/>
</g>
<!-- Node32 -->
<g id="node27" class="node">
<title>Node32</title>
<g id="a_node27"><a xlink:href="../../db/d65/dialogexporttocsv_8cpp.html" target="_top" xlink:title=" ">
<polygon fill="white" stroke="black" points="2928.5,-67.5 2928.5,-97.5 3055.5,-97.5 3055.5,-67.5 2928.5,-67.5"/>
<text text-anchor="start" x="2936.5" y="-85.5" font-family="Helvetica,sans-Serif" font-size="10.00">src/libs/vmisc/dialogs</text>
<text text-anchor="middle" x="2992" y="-74.5" font-family="Helvetica,sans-Serif" font-size="10.00">/dialogexporttocsv.cpp</text>
</a>
</g>
</g>
<!-- Node18&#45;&gt;Node32 -->
<g id="edge32" class="edge">
<title>Node18&#45;&gt;Node32</title>
<path fill="none" stroke="midnightblue" d="M3392.48,-138.96C3305.74,-130.11 3176.7,-115.67 3065,-98 3061.94,-97.52 3058.81,-96.99 3055.65,-96.45"/>
<polygon fill="midnightblue" stroke="midnightblue" points="3392.27,-142.46 3402.58,-139.98 3392.98,-135.49 3392.27,-142.46"/>
</g>
<!-- Node33 -->
<g id="node28" class="node">
<title>Node33</title>
<g id="a_node28"><a xlink:href="../../d6/d0b/def_8cpp.html" target="_top" xlink:title=" ">
<polygon fill="white" stroke="black" points="3074,-73 3074,-92 3196,-92 3196,-73 3074,-73"/>
<text text-anchor="middle" x="3135" y="-80" font-family="Helvetica,sans-Serif" font-size="10.00">src/libs/vmisc/def.cpp</text>
</a>
</g>
</g>
<!-- Node18&#45;&gt;Node33 -->
<g id="edge33" class="edge">
<title>Node18&#45;&gt;Node33</title>
<path fill="none" stroke="midnightblue" d="M3430.72,-138.27C3372.55,-128.42 3282.69,-112.88 3205,-98 3195.37,-96.16 3185.02,-94.07 3175.31,-92.07"/>
<polygon fill="midnightblue" stroke="midnightblue" points="3430.41,-141.76 3440.85,-139.98 3431.57,-134.86 3430.41,-141.76"/>
</g>
<!-- Node34 -->
<g id="node29" class="node">
<title>Node34</title>
<g id="a_node29"><a xlink:href="../../d0/df6/vabstractapplication_8cpp.html" target="_top" xlink:title=" ">
<polygon fill="white" stroke="black" points="3214,-73 3214,-92 3420,-92 3420,-73 3214,-73"/>
<text text-anchor="middle" x="3317" y="-80" font-family="Helvetica,sans-Serif" font-size="10.00">src/libs/vmisc/vabstractapplication.cpp</text>
</a>
</g>
</g>
<!-- Node18&#45;&gt;Node34 -->
<g id="edge34" class="edge">
<title>Node18&#45;&gt;Node34</title>
<path fill="none" stroke="midnightblue" d="M3459.07,-136.27C3424.34,-123.37 3370.51,-103.38 3340.06,-92.06"/>
<polygon fill="midnightblue" stroke="midnightblue" points="3458.17,-139.67 3468.76,-139.87 3460.61,-133.11 3458.17,-139.67"/>
</g>
<!-- Node35 -->
<g id="node30" class="node">
<title>Node35</title>
<g id="a_node30"><a xlink:href="../../d4/d4f/pmsystems_8cpp.html" target="_top" xlink:title=" ">
<polygon fill="white" stroke="black" points="3438.5,-67.5 3438.5,-97.5 3545.5,-97.5 3545.5,-67.5 3438.5,-67.5"/>
<text text-anchor="start" x="3446.5" y="-85.5" font-family="Helvetica,sans-Serif" font-size="10.00">src/libs/vpatterndb</text>
<text text-anchor="middle" x="3492" y="-74.5" font-family="Helvetica,sans-Serif" font-size="10.00">/pmsystems.cpp</text>
</a>
</g>
</g>
<!-- Node18&#45;&gt;Node35 -->
<g id="edge35" class="edge">
<title>Node18&#45;&gt;Node35</title>
<path fill="none" stroke="midnightblue" d="M3492,-129.41C3492,-119.22 3492,-106.9 3492,-97.59"/>
<polygon fill="midnightblue" stroke="midnightblue" points="3488.5,-129.73 3492,-139.73 3495.5,-129.73 3488.5,-129.73"/>
</g>
<!-- Node18&#45;&gt;Node36 -->
<g id="edge36" class="edge">
<title>Node18&#45;&gt;Node36</title>
<path fill="none" stroke="midnightblue" d="M3599.66,-148.35C3940.32,-147.43 4992.12,-141.09 5330,-98 5333.01,-97.62 5336.08,-97.15 5339.17,-96.63"/>
<polygon fill="midnightblue" stroke="midnightblue" points="3599.54,-144.85 3589.55,-148.38 3599.55,-151.85 3599.54,-144.85"/>
</g>
<!-- Node18&#45;&gt;Node37 -->
<g id="edge37" class="edge">
<title>Node18&#45;&gt;Node37</title>
<path fill="none" stroke="midnightblue" d="M3599.64,-148.62C3955.58,-148.58 5092.54,-144.68 5456,-98 5458.74,-97.65 5461.54,-97.23 5464.35,-96.75"/>
<polygon fill="midnightblue" stroke="midnightblue" points="3599.6,-145.12 3589.6,-148.62 3599.6,-152.12 3599.6,-145.12"/>
</g>
<!-- Node38 -->
<g id="node33" class="node">
<title>Node38</title>
<g id="a_node33"><a xlink:href="../../df/dba/vpiecenode__p_8h.html" target="_top" xlink:title=" ">
<polygon fill="white" stroke="black" points="3563.5,-67.5 3563.5,-97.5 3670.5,-97.5 3670.5,-67.5 3563.5,-67.5"/>
<text text-anchor="start" x="3571.5" y="-85.5" font-family="Helvetica,sans-Serif" font-size="10.00">src/libs/vpatterndb</text>
<text text-anchor="middle" x="3617" y="-74.5" font-family="Helvetica,sans-Serif" font-size="10.00">/vpiecenode_p.h</text>
</a>
</g>
</g>
<!-- Node18&#45;&gt;Node38 -->
<g id="edge38" class="edge">
<title>Node18&#45;&gt;Node38</title>
<path fill="none" stroke="midnightblue" d="M3517.59,-135.19C3538.61,-124.26 3568.33,-108.81 3589.79,-97.65"/>
<polygon fill="midnightblue" stroke="midnightblue" points="3515.86,-132.15 3508.6,-139.87 3519.09,-138.36 3515.86,-132.15"/>
</g>
<!-- Node18&#45;&gt;Node40 -->
<g id="edge40" class="edge">
<title>Node18&#45;&gt;Node40</title>
<path fill="none" stroke="midnightblue" d="M3599.95,-147.58C3970.65,-144.16 5190.38,-130.65 5581,-98 5596.45,-96.71 5613.13,-94.61 5628.41,-92.4"/>
<polygon fill="midnightblue" stroke="midnightblue" points="3599.72,-144.08 3589.76,-147.67 3599.79,-151.08 3599.72,-144.08"/>
</g>
<!-- Node41 -->
<g id="node36" class="node">
<title>Node41</title>
<g id="a_node36"><a xlink:href="../../de/d3e/vtranslatevars_8cpp.html" target="_top" xlink:title=" ">
<polygon fill="white" stroke="black" points="3689,-67.5 3689,-97.5 3799,-97.5 3799,-67.5 3689,-67.5"/>
<text text-anchor="start" x="3697" y="-85.5" font-family="Helvetica,sans-Serif" font-size="10.00">src/libs/vpatterndb</text>
<text text-anchor="middle" x="3744" y="-74.5" font-family="Helvetica,sans-Serif" font-size="10.00">/vtranslatevars.cpp</text>
</a>
</g>
</g>
<!-- Node18&#45;&gt;Node41 -->
<g id="edge41" class="edge">
<title>Node18&#45;&gt;Node41</title>
<path fill="none" stroke="midnightblue" d="M3535,-137.41C3577.67,-126.4 3643.2,-109.5 3689.49,-97.56"/>
<polygon fill="midnightblue" stroke="midnightblue" points="3534.01,-134.05 3525.2,-139.94 3535.76,-140.83 3534.01,-134.05"/>
</g>
<!-- Node42 -->
<g id="node37" class="node">
<title>Node42</title>
<g id="a_node37"><a xlink:href="../../df/d40/export__format__combobox_8cpp.html" target="_top" xlink:title=" ">
<polygon fill="white" stroke="black" points="3817.5,-67.5 3817.5,-97.5 3950.5,-97.5 3950.5,-67.5 3817.5,-67.5"/>
<text text-anchor="start" x="3825.5" y="-85.5" font-family="Helvetica,sans-Serif" font-size="10.00">src/libs/vwidgets/export</text>
<text text-anchor="middle" x="3884" y="-74.5" font-family="Helvetica,sans-Serif" font-size="10.00">_format_combobox.cpp</text>
</a>
</g>
</g>
<!-- Node18&#45;&gt;Node42 -->
<g id="edge42" class="edge">
<title>Node18&#45;&gt;Node42</title>
<path fill="none" stroke="midnightblue" d="M3558.56,-138.46C3622.58,-128.66 3722.03,-113.07 3808,-98 3811.04,-97.47 3814.15,-96.91 3817.29,-96.34"/>
<polygon fill="midnightblue" stroke="midnightblue" points="3557.95,-135.01 3548.6,-139.98 3559.01,-141.93 3557.95,-135.01"/>
</g>
<!-- Node43 -->
<g id="node38" class="node">
<title>Node43</title>
<g id="a_node38"><a xlink:href="../../d3/d4f/mouse__coordinates_8cpp.html" target="_top" xlink:title=" ">
<polygon fill="white" stroke="black" points="3969,-67.5 3969,-97.5 4103,-97.5 4103,-67.5 3969,-67.5"/>
<text text-anchor="start" x="3977" y="-85.5" font-family="Helvetica,sans-Serif" font-size="10.00">src/libs/vwidgets/mouse</text>
<text text-anchor="middle" x="4036" y="-74.5" font-family="Helvetica,sans-Serif" font-size="10.00">_coordinates.cpp</text>
</a>
</g>
</g>
<!-- Node18&#45;&gt;Node43 -->
<g id="edge43" class="edge">
<title>Node18&#45;&gt;Node43</title>
<path fill="none" stroke="midnightblue" d="M3599.96,-139.25C3694.81,-130.54 3836.41,-116.14 3959,-98 3962.23,-97.52 3965.53,-97.01 3968.86,-96.46"/>
<polygon fill="midnightblue" stroke="midnightblue" points="3599.42,-135.78 3589.78,-140.18 3600.05,-142.75 3599.42,-135.78"/>
</g>
<!-- Node44 -->
<g id="node39" class="node">
<title>Node44</title>
<g id="a_node39"><a xlink:href="../../d7/d1b/pen__toolbar_8cpp.html" target="_top" xlink:title=" ">
<polygon fill="white" stroke="black" points="4121.5,-67.5 4121.5,-97.5 4240.5,-97.5 4240.5,-67.5 4121.5,-67.5"/>
<text text-anchor="start" x="4129.5" y="-85.5" font-family="Helvetica,sans-Serif" font-size="10.00">src/libs/vwidgets/pen</text>
<text text-anchor="middle" x="4181" y="-74.5" font-family="Helvetica,sans-Serif" font-size="10.00">_toolbar.cpp</text>
</a>
</g>
</g>
<!-- Node18&#45;&gt;Node44 -->
<g id="edge44" class="edge">
<title>Node18&#45;&gt;Node44</title>
<path fill="none" stroke="midnightblue" d="M3599.87,-143.84C3723.92,-137.52 3933.46,-123.93 4112,-98 4115.03,-97.56 4118.12,-97.07 4121.24,-96.54"/>
<polygon fill="midnightblue" stroke="midnightblue" points="3599.42,-140.35 3589.61,-144.35 3599.77,-147.35 3599.42,-140.35"/>
</g>
<!-- Node45 -->
<g id="node40" class="node">
<title>Node45</title>
<g id="a_node40"><a xlink:href="../../d8/d76/scene__rect_8cpp.html" target="_top" xlink:title=" ">
<polygon fill="white" stroke="black" points="4259,-67.5 4259,-97.5 4389,-97.5 4389,-67.5 4259,-67.5"/>
<text text-anchor="start" x="4267" y="-85.5" font-family="Helvetica,sans-Serif" font-size="10.00">src/libs/vwidgets/scene</text>
<text text-anchor="middle" x="4324" y="-74.5" font-family="Helvetica,sans-Serif" font-size="10.00">_rect.cpp</text>
</a>
</g>
</g>
<!-- Node18&#45;&gt;Node45 -->
<g id="edge45" class="edge">
<title>Node18&#45;&gt;Node45</title>
<path fill="none" stroke="midnightblue" d="M3600.16,-145.51C3747.43,-140.48 4019.07,-127.78 4249,-98 4252.16,-97.59 4255.38,-97.13 4258.63,-96.63"/>
<polygon fill="midnightblue" stroke="midnightblue" points="3599.65,-142.03 3589.77,-145.86 3599.88,-149.02 3599.65,-142.03"/>
</g>
<!-- Node46 -->
<g id="node41" class="node">
<title>Node46</title>
<g id="a_node41"><a xlink:href="../../dd/df6/vabstractmainwindow_8cpp.html" target="_top" xlink:title=" ">
<polygon fill="white" stroke="black" points="4407.5,-73 4407.5,-92 4636.5,-92 4636.5,-73 4407.5,-73"/>
<text text-anchor="middle" x="4522" y="-80" font-family="Helvetica,sans-Serif" font-size="10.00">src/libs/vwidgets/vabstractmainwindow.cpp</text>
</a>
</g>
</g>
<!-- Node18&#45;&gt;Node46 -->
<g id="edge46" class="edge">
<title>Node18&#45;&gt;Node46</title>
<path fill="none" stroke="midnightblue" d="M3599.87,-144.61C3769.82,-138 4110.18,-122.83 4398,-98 4416.68,-96.39 4436.89,-94.21 4455.47,-92.03"/>
<polygon fill="midnightblue" stroke="midnightblue" points="3599.53,-141.12 3589.68,-145 3599.8,-148.11 3599.53,-141.12"/>
</g>
<!-- Node47 -->
<g id="node42" class="node">
<title>Node47</title>
<g id="a_node42"><a xlink:href="../../d1/d90/vgrainlineitem_8cpp.html" target="_top" xlink:title=" ">
<polygon fill="white" stroke="black" points="4654.5,-73 4654.5,-92 4847.5,-92 4847.5,-73 4654.5,-73"/>
<text text-anchor="middle" x="4751" y="-80" font-family="Helvetica,sans-Serif" font-size="10.00">src/libs/vwidgets/vgrainlineitem.cpp</text>
</a>
</g>
</g>
<!-- Node18&#45;&gt;Node47 -->
<g id="edge47" class="edge">
<title>Node18&#45;&gt;Node47</title>
<path fill="none" stroke="midnightblue" d="M3599.9,-147.09C3804.24,-143.68 4261.59,-132.55 4645,-98 4661.56,-96.51 4679.49,-94.29 4695.82,-92.03"/>
<polygon fill="midnightblue" stroke="midnightblue" points="3599.71,-143.59 3589.76,-147.26 3599.82,-150.59 3599.71,-143.59"/>
</g>
<!-- Node48 -->
<g id="node43" class="node">
<title>Node48</title>
<g id="a_node43"><a xlink:href="../../de/d45/vcontrolpointspline_8cpp.html" target="_top" xlink:title=" ">
<polygon fill="white" stroke="black" points="4865.5,-73 4865.5,-92 5080.5,-92 5080.5,-73 4865.5,-73"/>
<text text-anchor="middle" x="4973" y="-80" font-family="Helvetica,sans-Serif" font-size="10.00">src/libs/vwidgets/vcontrolpointspline.cpp</text>
</a>
</g>
</g>
<!-- Node18&#45;&gt;Node48 -->
<g id="edge48" class="edge">
<title>Node18&#45;&gt;Node48</title>
<path fill="none" stroke="midnightblue" d="M3599.91,-147.71C3830.86,-145.31 4390.02,-135.75 4857,-98 4875.21,-96.53 4894.95,-94.3 4912.9,-92.03"/>
<polygon fill="midnightblue" stroke="midnightblue" points="3599.79,-144.21 3589.83,-147.81 3599.86,-151.21 3599.79,-144.21"/>
</g>
<!-- Node49 -->
<g id="node44" class="node">
<title>Node49</title>
<g id="a_node44"><a xlink:href="../../d1/d88/vmaingraphicsscene_8cpp.html" target="_top" xlink:title=" ">
<polygon fill="white" stroke="black" points="5099,-73 5099,-92 5321,-92 5321,-73 5099,-73"/>
<text text-anchor="middle" x="5210" y="-80" font-family="Helvetica,sans-Serif" font-size="10.00">src/libs/vwidgets/vmaingraphicsscene.cpp</text>
</a>
</g>
</g>
<!-- Node18&#45;&gt;Node49 -->
<g id="edge49" class="edge">
<title>Node18&#45;&gt;Node49</title>
<path fill="none" stroke="midnightblue" d="M3600.02,-148.39C3858.04,-147.4 4530.44,-140.56 5090,-98 5109.04,-96.55 5129.71,-94.3 5148.44,-92"/>
<polygon fill="midnightblue" stroke="midnightblue" points="3599.89,-144.89 3589.9,-148.42 3599.91,-151.89 3599.89,-144.89"/>
</g>
<!-- Node27&#45;&gt;Node28 -->
<g id="edge26" class="edge">
<title>Node27&#45;&gt;Node28</title>
<path fill="none" stroke="midnightblue" d="M2512.72,-58.87C2506.79,-49.46 2500.09,-38.83 2494.88,-30.58"/>
<polygon fill="midnightblue" stroke="midnightblue" points="2509.81,-60.81 2518.1,-67.4 2515.73,-57.07 2509.81,-60.81"/>
</g>
<!-- Node38&#45;&gt;Node39 -->
<g id="edge39" class="edge">
<title>Node38&#45;&gt;Node39</title>
<path fill="none" stroke="midnightblue" d="M3680.79,-67.07C4017.73,-20.33 4412.8,-16.12 4554.33,-16.21"/>
<polygon fill="midnightblue" stroke="midnightblue" points="3680.26,-63.61 3670.84,-68.47 3681.23,-70.54 3680.26,-63.61"/>
</g>
</g>
</svg>
