<?xml version="1.0" encoding="UTF-8" standalone="no"?>
<!DOCTYPE svg PUBLIC "-//W3C//DTD SVG 1.1//EN"
 "http://www.w3.org/Graphics/SVG/1.1/DTD/svg11.dtd">
<!-- Generated by graphviz version 2.43.0 (0)
 -->
<!-- Title: src/libs/vtools/undocommands/label/moveabstractlabel.h Pages: 1 -->
<svg width="1298pt" height="184pt"
 viewBox="0.00 0.00 1297.50 184.00" xmlns="http://www.w3.org/2000/svg" xmlns:xlink="http://www.w3.org/1999/xlink">
<g id="graph0" class="graph" transform="scale(1 1) rotate(0) translate(4 180)">
<title>src/libs/vtools/undocommands/label/moveabstractlabel.h</title>
<polygon fill="white" stroke="transparent" points="-4,4 -4,-180 1293.5,-180 1293.5,4 -4,4"/>
<!-- Node1 -->
<g id="node1" class="node">
<title>Node1</title>
<g id="a_node1"><a xlink:title=" ">
<polygon fill="#bfbfbf" stroke="black" points="432,-145.5 432,-175.5 597,-175.5 597,-145.5 432,-145.5"/>
<text text-anchor="start" x="440" y="-163.5" font-family="Helvetica,sans-Serif" font-size="10.00">src/libs/vtools/undocommands</text>
<text text-anchor="middle" x="514.5" y="-152.5" font-family="Helvetica,sans-Serif" font-size="10.00">/label/moveabstractlabel.h</text>
</a>
</g>
</g>
<!-- Node2 -->
<g id="node2" class="node">
<title>Node2</title>
<g id="a_node2"><a xlink:href="../../dc/d0e/movedoublelabel_8cpp.html" target="_top" xlink:title=" ">
<polygon fill="white" stroke="black" points="0,-6 0,-36 165,-36 165,-6 0,-6"/>
<text text-anchor="start" x="8" y="-24" font-family="Helvetica,sans-Serif" font-size="10.00">src/libs/vtools/undocommands</text>
<text text-anchor="middle" x="82.5" y="-13" font-family="Helvetica,sans-Serif" font-size="10.00">/label/movedoublelabel.cpp</text>
</a>
</g>
</g>
<!-- Node1&#45;&gt;Node2 -->
<g id="edge1" class="edge">
<title>Node1&#45;&gt;Node2</title>
<path fill="none" stroke="midnightblue" d="M421.65,-157.02C322.84,-152.71 174.51,-140.97 128.5,-109 103.38,-91.55 90.9,-55.97 85.66,-36.14"/>
<polygon fill="midnightblue" stroke="midnightblue" points="421.52,-160.51 431.65,-157.44 421.81,-153.52 421.52,-160.51"/>
</g>
<!-- Node3 -->
<g id="node3" class="node">
<title>Node3</title>
<g id="a_node3"><a xlink:href="../../d8/d94/movedoublelabel_8h.html" target="_top" xlink:title=" ">
<polygon fill="white" stroke="black" points="138,-78.5 138,-108.5 303,-108.5 303,-78.5 138,-78.5"/>
<text text-anchor="start" x="146" y="-96.5" font-family="Helvetica,sans-Serif" font-size="10.00">src/libs/vtools/undocommands</text>
<text text-anchor="middle" x="220.5" y="-85.5" font-family="Helvetica,sans-Serif" font-size="10.00">/label/movedoublelabel.h</text>
</a>
</g>
</g>
<!-- Node1&#45;&gt;Node3 -->
<g id="edge2" class="edge">
<title>Node1&#45;&gt;Node3</title>
<path fill="none" stroke="midnightblue" d="M441.3,-143.32C392.98,-132.63 330.3,-118.77 284.07,-108.55"/>
<polygon fill="midnightblue" stroke="midnightblue" points="440.55,-146.73 451.07,-145.48 442.06,-139.9 440.55,-146.73"/>
</g>
<!-- Node5 -->
<g id="node5" class="node">
<title>Node5</title>
<g id="a_node5"><a xlink:href="../../d1/d58/moveabstractlabel_8cpp.html" target="_top" xlink:title=" ">
<polygon fill="white" stroke="black" points="321,-78.5 321,-108.5 486,-108.5 486,-78.5 321,-78.5"/>
<text text-anchor="start" x="329" y="-96.5" font-family="Helvetica,sans-Serif" font-size="10.00">src/libs/vtools/undocommands</text>
<text text-anchor="middle" x="403.5" y="-85.5" font-family="Helvetica,sans-Serif" font-size="10.00">/label/moveabstractlabel.cpp</text>
</a>
</g>
</g>
<!-- Node1&#45;&gt;Node5 -->
<g id="edge5" class="edge">
<title>Node1&#45;&gt;Node5</title>
<path fill="none" stroke="midnightblue" d="M481.7,-140.3C464.34,-130.12 443.38,-117.85 427.54,-108.58"/>
<polygon fill="midnightblue" stroke="midnightblue" points="480.02,-143.36 490.41,-145.4 483.55,-137.32 480.02,-143.36"/>
</g>
<!-- Node6 -->
<g id="node6" class="node">
<title>Node6</title>
<g id="a_node6"><a xlink:href="../../df/db0/movelabel_8cpp.html" target="_top" xlink:title=" ">
<polygon fill="white" stroke="black" points="738,-6 738,-36 903,-36 903,-6 738,-6"/>
<text text-anchor="start" x="746" y="-24" font-family="Helvetica,sans-Serif" font-size="10.00">src/libs/vtools/undocommands</text>
<text text-anchor="middle" x="820.5" y="-13" font-family="Helvetica,sans-Serif" font-size="10.00">/label/movelabel.cpp</text>
</a>
</g>
</g>
<!-- Node1&#45;&gt;Node6 -->
<g id="edge6" class="edge">
<title>Node1&#45;&gt;Node6</title>
<path fill="none" stroke="midnightblue" d="M607.04,-145.76C642.86,-138.1 683.36,-126.45 717.5,-109 727.3,-103.99 778.25,-59.42 804.63,-36.09"/>
<polygon fill="midnightblue" stroke="midnightblue" points="606.16,-142.37 597.07,-147.82 607.57,-149.22 606.16,-142.37"/>
</g>
<!-- Node7 -->
<g id="node7" class="node">
<title>Node7</title>
<g id="a_node7"><a xlink:href="../../db/d5b/moveoperationlabel_8cpp.html" target="_top" xlink:title=" ">
<polygon fill="white" stroke="black" points="404,-6 404,-36 569,-36 569,-6 404,-6"/>
<text text-anchor="start" x="412" y="-24" font-family="Helvetica,sans-Serif" font-size="10.00">src/libs/vtools/undocommands</text>
<text text-anchor="middle" x="486.5" y="-13" font-family="Helvetica,sans-Serif" font-size="10.00">/label/moveoperationlabel.cpp</text>
</a>
</g>
</g>
<!-- Node1&#45;&gt;Node7 -->
<g id="edge7" class="edge">
<title>Node1&#45;&gt;Node7</title>
<path fill="none" stroke="midnightblue" d="M509.57,-135.29C503.73,-106.61 494.19,-59.78 489.42,-36.33"/>
<polygon fill="midnightblue" stroke="midnightblue" points="506.18,-136.2 511.61,-145.3 513.04,-134.81 506.18,-136.2"/>
</g>
<!-- Node8 -->
<g id="node8" class="node">
<title>Node8</title>
<g id="a_node8"><a xlink:href="../../da/d5d/moveoperationlabel_8h.html" target="_top" xlink:title=" ">
<polygon fill="white" stroke="black" points="543,-78.5 543,-108.5 708,-108.5 708,-78.5 543,-78.5"/>
<text text-anchor="start" x="551" y="-96.5" font-family="Helvetica,sans-Serif" font-size="10.00">src/libs/vtools/undocommands</text>
<text text-anchor="middle" x="625.5" y="-85.5" font-family="Helvetica,sans-Serif" font-size="10.00">/label/moveoperationlabel.h</text>
</a>
</g>
</g>
<!-- Node1&#45;&gt;Node8 -->
<g id="edge8" class="edge">
<title>Node1&#45;&gt;Node8</title>
<path fill="none" stroke="midnightblue" d="M547.3,-140.3C564.66,-130.12 585.62,-117.85 601.46,-108.58"/>
<polygon fill="midnightblue" stroke="midnightblue" points="545.45,-137.32 538.59,-145.4 548.98,-143.36 545.45,-137.32"/>
</g>
<!-- Node10 -->
<g id="node10" class="node">
<title>Node10</title>
<g id="a_node10"><a xlink:href="../../d3/d46/movelabel_8h.html" target="_top" xlink:title=" ">
<polygon fill="white" stroke="black" points="765,-78.5 765,-108.5 930,-108.5 930,-78.5 765,-78.5"/>
<text text-anchor="start" x="773" y="-96.5" font-family="Helvetica,sans-Serif" font-size="10.00">src/libs/vtools/undocommands</text>
<text text-anchor="middle" x="847.5" y="-85.5" font-family="Helvetica,sans-Serif" font-size="10.00">/label/movelabel.h</text>
</a>
</g>
</g>
<!-- Node1&#45;&gt;Node10 -->
<g id="edge11" class="edge">
<title>Node1&#45;&gt;Node10</title>
<path fill="none" stroke="midnightblue" d="M596.39,-143.52C651.25,-132.81 722.81,-118.84 775.5,-108.55"/>
<polygon fill="midnightblue" stroke="midnightblue" points="595.49,-140.12 586.35,-145.48 596.83,-147 595.49,-140.12"/>
</g>
<!-- Node3&#45;&gt;Node2 -->
<g id="edge4" class="edge">
<title>Node3&#45;&gt;Node2</title>
<path fill="none" stroke="midnightblue" d="M183.73,-73.72C160.58,-61.89 131.19,-46.87 110.05,-36.07"/>
<polygon fill="midnightblue" stroke="midnightblue" points="182.41,-76.97 192.91,-78.4 185.59,-70.74 182.41,-76.97"/>
</g>
<!-- Node4 -->
<g id="node4" class="node">
<title>Node4</title>
<g id="a_node4"><a xlink:href="../../de/d21/vtooldoublepoint_8cpp.html" target="_top" xlink:title=" ">
<polygon fill="white" stroke="black" points="183.5,-0.5 183.5,-41.5 385.5,-41.5 385.5,-0.5 183.5,-0.5"/>
<text text-anchor="start" x="191.5" y="-29.5" font-family="Helvetica,sans-Serif" font-size="10.00">src/libs/vtools/tools</text>
<text text-anchor="start" x="191.5" y="-18.5" font-family="Helvetica,sans-Serif" font-size="10.00">/drawTools/toolpoint</text>
<text text-anchor="middle" x="284.5" y="-7.5" font-family="Helvetica,sans-Serif" font-size="10.00">/tooldoublepoint/vtooldoublepoint.cpp</text>
</a>
</g>
</g>
<!-- Node3&#45;&gt;Node4 -->
<g id="edge3" class="edge">
<title>Node3&#45;&gt;Node4</title>
<path fill="none" stroke="midnightblue" d="M240.18,-70.82C248.65,-61.49 258.47,-50.67 266.72,-41.59"/>
<polygon fill="midnightblue" stroke="midnightblue" points="237.58,-68.48 233.45,-78.23 242.76,-73.18 237.58,-68.48"/>
</g>
<!-- Node8&#45;&gt;Node7 -->
<g id="edge10" class="edge">
<title>Node8&#45;&gt;Node7</title>
<path fill="none" stroke="midnightblue" d="M588.77,-73.87C565.41,-62.02 535.64,-46.92 514.25,-36.07"/>
<polygon fill="midnightblue" stroke="midnightblue" points="587.2,-77 597.71,-78.4 590.37,-70.76 587.2,-77"/>
</g>
<!-- Node9 -->
<g id="node9" class="node">
<title>Node9</title>
<g id="a_node9"><a xlink:href="../../d8/de3/vabstractoperation_8cpp.html" target="_top" xlink:title=" ">
<polygon fill="white" stroke="black" points="587.5,-0.5 587.5,-41.5 719.5,-41.5 719.5,-0.5 587.5,-0.5"/>
<text text-anchor="start" x="595.5" y="-29.5" font-family="Helvetica,sans-Serif" font-size="10.00">src/libs/vtools/tools</text>
<text text-anchor="start" x="595.5" y="-18.5" font-family="Helvetica,sans-Serif" font-size="10.00">/drawTools/operation</text>
<text text-anchor="middle" x="653.5" y="-7.5" font-family="Helvetica,sans-Serif" font-size="10.00">/vabstractoperation.cpp</text>
</a>
</g>
</g>
<!-- Node8&#45;&gt;Node9 -->
<g id="edge9" class="edge">
<title>Node8&#45;&gt;Node9</title>
<path fill="none" stroke="midnightblue" d="M634.9,-68.84C638.41,-59.99 642.37,-50.03 645.72,-41.59"/>
<polygon fill="midnightblue" stroke="midnightblue" points="631.6,-67.65 631.17,-78.23 638.11,-70.23 631.6,-67.65"/>
</g>
<!-- Node10&#45;&gt;Node6 -->
<g id="edge14" class="edge">
<title>Node10&#45;&gt;Node6</title>
<path fill="none" stroke="midnightblue" d="M838.33,-68.56C834.22,-57.82 829.5,-45.51 825.96,-36.25"/>
<polygon fill="midnightblue" stroke="midnightblue" points="835.19,-70.15 842.04,-78.23 841.73,-67.64 835.19,-70.15"/>
</g>
<!-- Node11 -->
<g id="node11" class="node">
<title>Node11</title>
<g id="a_node11"><a xlink:href="../../dd/d37/vtoolsinglepoint_8cpp.html" target="_top" xlink:title=" ">
<polygon fill="white" stroke="black" points="1095.5,-0.5 1095.5,-41.5 1289.5,-41.5 1289.5,-0.5 1095.5,-0.5"/>
<text text-anchor="start" x="1103.5" y="-29.5" font-family="Helvetica,sans-Serif" font-size="10.00">src/libs/vtools/tools</text>
<text text-anchor="start" x="1103.5" y="-18.5" font-family="Helvetica,sans-Serif" font-size="10.00">/drawTools/toolpoint</text>
<text text-anchor="middle" x="1192.5" y="-7.5" font-family="Helvetica,sans-Serif" font-size="10.00">/toolsinglepoint/vtoolsinglepoint.cpp</text>
</a>
</g>
</g>
<!-- Node10&#45;&gt;Node11 -->
<g id="edge12" class="edge">
<title>Node10&#45;&gt;Node11</title>
<path fill="none" stroke="midnightblue" d="M926.01,-76.46C976.76,-66.09 1043.14,-52.52 1096.95,-41.53"/>
<polygon fill="midnightblue" stroke="midnightblue" points="925.17,-73.06 916.07,-78.49 926.57,-79.91 925.17,-73.06"/>
</g>
<!-- Node12 -->
<g id="node12" class="node">
<title>Node12</title>
<g id="a_node12"><a xlink:href="../../d4/d7b/vnodepoint_8cpp.html" target="_top" xlink:title=" ">
<polygon fill="white" stroke="black" points="921.5,-6 921.5,-36 1077.5,-36 1077.5,-6 921.5,-6"/>
<text text-anchor="start" x="929.5" y="-24" font-family="Helvetica,sans-Serif" font-size="10.00">src/libs/vtools/tools</text>
<text text-anchor="middle" x="999.5" y="-13" font-family="Helvetica,sans-Serif" font-size="10.00">/nodeDetails/vnodepoint.cpp</text>
</a>
</g>
</g>
<!-- Node10&#45;&gt;Node12 -->
<g id="edge13" class="edge">
<title>Node10&#45;&gt;Node12</title>
<path fill="none" stroke="midnightblue" d="M886.98,-74.19C912.63,-62.29 945.56,-47.02 969.16,-36.07"/>
<polygon fill="midnightblue" stroke="midnightblue" points="885.49,-71.02 877.89,-78.4 888.44,-77.37 885.49,-71.02"/>
</g>
</g>
</svg>
