<?xml version="1.0" encoding="UTF-8" standalone="no"?>
<!DOCTYPE svg PUBLIC "-//W3C//DTD SVG 1.1//EN"
 "http://www.w3.org/Graphics/SVG/1.1/DTD/svg11.dtd">
<!-- Generated by graphviz version 2.43.0 (0)
 -->
<!-- Title: src/libs/vtools/undocommands/label/moveabstractlabel.h Pages: 1 -->
<svg width="1297pt" height="184pt"
 viewBox="0.00 0.00 1296.50 184.00" xmlns="http://www.w3.org/2000/svg" xmlns:xlink="http://www.w3.org/1999/xlink">
<g id="graph0" class="graph" transform="scale(1 1) rotate(0) translate(4 180)">
<title>src/libs/vtools/undocommands/label/moveabstractlabel.h</title>
<polygon fill="white" stroke="transparent" points="-4,4 -4,-180 1292.5,-180 1292.5,4 -4,4"/>
<!-- Node1 -->
<g id="node1" class="node">
<title>Node1</title>
<g id="a_node1"><a xlink:title=" ">
<polygon fill="#bfbfbf" stroke="black" points="601.5,-145.5 601.5,-175.5 766.5,-175.5 766.5,-145.5 601.5,-145.5"/>
<text text-anchor="start" x="609.5" y="-163.5" font-family="Helvetica,sans-Serif" font-size="10.00">src/libs/vtools/undocommands</text>
<text text-anchor="middle" x="684" y="-152.5" font-family="Helvetica,sans-Serif" font-size="10.00">/label/moveabstractlabel.h</text>
</a>
</g>
</g>
<!-- Node2 -->
<g id="node2" class="node">
<title>Node2</title>
<g id="a_node2"><a xlink:href="../../d8/d94/movedoublelabel_8h.html" target="_top" xlink:title=" ">
<polygon fill="white" stroke="black" points="220.5,-78.5 220.5,-108.5 385.5,-108.5 385.5,-78.5 220.5,-78.5"/>
<text text-anchor="start" x="228.5" y="-96.5" font-family="Helvetica,sans-Serif" font-size="10.00">src/libs/vtools/undocommands</text>
<text text-anchor="middle" x="303" y="-85.5" font-family="Helvetica,sans-Serif" font-size="10.00">/label/movedoublelabel.h</text>
</a>
</g>
</g>
<!-- Node1&#45;&gt;Node2 -->
<g id="edge1" class="edge">
<title>Node1&#45;&gt;Node2</title>
<path fill="none" stroke="midnightblue" d="M591.87,-143.78C528.9,-133.04 446.16,-118.92 385.38,-108.55"/>
<polygon fill="midnightblue" stroke="midnightblue" points="591.35,-147.24 601.8,-145.48 592.53,-140.34 591.35,-147.24"/>
</g>
<!-- Node4 -->
<g id="node4" class="node">
<title>Node4</title>
<g id="a_node4"><a xlink:href="../../dc/d0e/movedoublelabel_8cpp.html" target="_top" xlink:title=" ">
<polygon fill="white" stroke="black" points="220.5,-6 220.5,-36 385.5,-36 385.5,-6 220.5,-6"/>
<text text-anchor="start" x="228.5" y="-24" font-family="Helvetica,sans-Serif" font-size="10.00">src/libs/vtools/undocommands</text>
<text text-anchor="middle" x="303" y="-13" font-family="Helvetica,sans-Serif" font-size="10.00">/label/movedoublelabel.cpp</text>
</a>
</g>
</g>
<!-- Node1&#45;&gt;Node4 -->
<g id="edge4" class="edge">
<title>Node1&#45;&gt;Node4</title>
<path fill="none" stroke="midnightblue" d="M635.61,-142.04C559.17,-114.45 412,-61.34 341.93,-36.05"/>
<polygon fill="midnightblue" stroke="midnightblue" points="634.42,-145.33 645.02,-145.43 636.8,-138.74 634.42,-145.33"/>
</g>
<!-- Node5 -->
<g id="node5" class="node">
<title>Node5</title>
<g id="a_node5"><a xlink:href="../../df/db0/movelabel_8cpp.html" target="_top" xlink:title=" ">
<polygon fill="white" stroke="black" points="403.5,-6 403.5,-36 568.5,-36 568.5,-6 403.5,-6"/>
<text text-anchor="start" x="411.5" y="-24" font-family="Helvetica,sans-Serif" font-size="10.00">src/libs/vtools/undocommands</text>
<text text-anchor="middle" x="486" y="-13" font-family="Helvetica,sans-Serif" font-size="10.00">/label/movelabel.cpp</text>
</a>
</g>
</g>
<!-- Node1&#45;&gt;Node5 -->
<g id="edge5" class="edge">
<title>Node1&#45;&gt;Node5</title>
<path fill="none" stroke="midnightblue" d="M645.94,-140.64C629,-131.74 609.06,-120.54 592,-109 557.88,-85.93 521.47,-54.31 501.44,-36.23"/>
<polygon fill="midnightblue" stroke="midnightblue" points="644.52,-143.85 655.01,-145.34 647.74,-137.63 644.52,-143.85"/>
</g>
<!-- Node6 -->
<g id="node6" class="node">
<title>Node6</title>
<g id="a_node6"><a xlink:href="../../d3/d46/movelabel_8h.html" target="_top" xlink:title=" ">
<polygon fill="white" stroke="black" points="601.5,-78.5 601.5,-108.5 766.5,-108.5 766.5,-78.5 601.5,-78.5"/>
<text text-anchor="start" x="609.5" y="-96.5" font-family="Helvetica,sans-Serif" font-size="10.00">src/libs/vtools/undocommands</text>
<text text-anchor="middle" x="684" y="-85.5" font-family="Helvetica,sans-Serif" font-size="10.00">/label/movelabel.h</text>
</a>
</g>
</g>
<!-- Node1&#45;&gt;Node6 -->
<g id="edge6" class="edge">
<title>Node1&#45;&gt;Node6</title>
<path fill="none" stroke="midnightblue" d="M684,-135.11C684,-126.15 684,-116.32 684,-108.58"/>
<polygon fill="midnightblue" stroke="midnightblue" points="680.5,-135.4 684,-145.4 687.5,-135.4 680.5,-135.4"/>
</g>
<!-- Node9 -->
<g id="node9" class="node">
<title>Node9</title>
<g id="a_node9"><a xlink:href="../../da/d5d/moveoperationlabel_8h.html" target="_top" xlink:title=" ">
<polygon fill="white" stroke="black" points="870.5,-78.5 870.5,-108.5 1035.5,-108.5 1035.5,-78.5 870.5,-78.5"/>
<text text-anchor="start" x="878.5" y="-96.5" font-family="Helvetica,sans-Serif" font-size="10.00">src/libs/vtools/undocommands</text>
<text text-anchor="middle" x="953" y="-85.5" font-family="Helvetica,sans-Serif" font-size="10.00">/label/moveoperationlabel.h</text>
</a>
</g>
</g>
<!-- Node1&#45;&gt;Node9 -->
<g id="edge10" class="edge">
<title>Node1&#45;&gt;Node9</title>
<path fill="none" stroke="midnightblue" d="M751.79,-143.12C795.81,-132.48 852.59,-118.76 894.6,-108.61"/>
<polygon fill="midnightblue" stroke="midnightblue" points="750.94,-139.73 742.04,-145.48 752.58,-146.53 750.94,-139.73"/>
</g>
<!-- Node11 -->
<g id="node11" class="node">
<title>Node11</title>
<g id="a_node11"><a xlink:href="../../db/d5b/moveoperationlabel_8cpp.html" target="_top" xlink:title=" ">
<polygon fill="white" stroke="black" points="1123.5,-6 1123.5,-36 1288.5,-36 1288.5,-6 1123.5,-6"/>
<text text-anchor="start" x="1131.5" y="-24" font-family="Helvetica,sans-Serif" font-size="10.00">src/libs/vtools/undocommands</text>
<text text-anchor="middle" x="1206" y="-13" font-family="Helvetica,sans-Serif" font-size="10.00">/label/moveoperationlabel.cpp</text>
</a>
</g>
</g>
<!-- Node1&#45;&gt;Node11 -->
<g id="edge13" class="edge">
<title>Node1&#45;&gt;Node11</title>
<path fill="none" stroke="midnightblue" d="M776.55,-152.13C867.13,-143.92 998.12,-129.11 1045,-109 1065.35,-100.27 1065.13,-89.59 1084,-78 1111.3,-61.22 1144.47,-46.31 1169.33,-36.1"/>
<polygon fill="midnightblue" stroke="midnightblue" points="776.19,-148.65 766.54,-153.02 776.82,-155.62 776.19,-148.65"/>
</g>
<!-- Node12 -->
<g id="node12" class="node">
<title>Node12</title>
<g id="a_node12"><a xlink:href="../../d1/d58/moveabstractlabel_8cpp.html" target="_top" xlink:title=" ">
<polygon fill="white" stroke="black" points="1092.5,-78.5 1092.5,-108.5 1257.5,-108.5 1257.5,-78.5 1092.5,-78.5"/>
<text text-anchor="start" x="1100.5" y="-96.5" font-family="Helvetica,sans-Serif" font-size="10.00">src/libs/vtools/undocommands</text>
<text text-anchor="middle" x="1175" y="-85.5" font-family="Helvetica,sans-Serif" font-size="10.00">/label/moveabstractlabel.cpp</text>
</a>
</g>
</g>
<!-- Node1&#45;&gt;Node12 -->
<g id="edge14" class="edge">
<title>Node1&#45;&gt;Node12</title>
<path fill="none" stroke="midnightblue" d="M776.74,-148.17C856.62,-138.28 974.99,-123.3 1078,-109 1082.72,-108.34 1087.57,-107.66 1092.46,-106.96"/>
<polygon fill="midnightblue" stroke="midnightblue" points="776.2,-144.71 766.7,-149.41 777.05,-151.66 776.2,-144.71"/>
</g>
<!-- Node3 -->
<g id="node3" class="node">
<title>Node3</title>
<g id="a_node3"><a xlink:href="../../de/d21/vtooldoublepoint_8cpp.html" target="_top" xlink:title=" ">
<polygon fill="white" stroke="black" points="0,-0.5 0,-41.5 202,-41.5 202,-0.5 0,-0.5"/>
<text text-anchor="start" x="8" y="-29.5" font-family="Helvetica,sans-Serif" font-size="10.00">src/libs/vtools/tools</text>
<text text-anchor="start" x="8" y="-18.5" font-family="Helvetica,sans-Serif" font-size="10.00">/drawTools/toolpoint</text>
<text text-anchor="middle" x="101" y="-7.5" font-family="Helvetica,sans-Serif" font-size="10.00">/tooldoublepoint/vtooldoublepoint.cpp</text>
</a>
</g>
</g>
<!-- Node2&#45;&gt;Node3 -->
<g id="edge2" class="edge">
<title>Node2&#45;&gt;Node3</title>
<path fill="none" stroke="midnightblue" d="M253.05,-75.07C223.92,-64.9 187.11,-52.05 157.01,-41.55"/>
<polygon fill="midnightblue" stroke="midnightblue" points="252.01,-78.41 262.61,-78.4 254.32,-71.8 252.01,-78.41"/>
</g>
<!-- Node2&#45;&gt;Node4 -->
<g id="edge3" class="edge">
<title>Node2&#45;&gt;Node4</title>
<path fill="none" stroke="midnightblue" d="M303,-68.23C303,-57.57 303,-45.41 303,-36.25"/>
<polygon fill="midnightblue" stroke="midnightblue" points="299.5,-68.23 303,-78.23 306.5,-68.23 299.5,-68.23"/>
</g>
<!-- Node6&#45;&gt;Node5 -->
<g id="edge9" class="edge">
<title>Node6&#45;&gt;Node5</title>
<path fill="none" stroke="midnightblue" d="M634.75,-74.96C601.04,-62.96 556.94,-47.26 525.52,-36.07"/>
<polygon fill="midnightblue" stroke="midnightblue" points="633.81,-78.35 644.41,-78.4 636.16,-71.75 633.81,-78.35"/>
</g>
<!-- Node7 -->
<g id="node7" class="node">
<title>Node7</title>
<g id="a_node7"><a xlink:href="../../dd/d37/vtoolsinglepoint_8cpp.html" target="_top" xlink:title=" ">
<polygon fill="white" stroke="black" points="587,-0.5 587,-41.5 781,-41.5 781,-0.5 587,-0.5"/>
<text text-anchor="start" x="595" y="-29.5" font-family="Helvetica,sans-Serif" font-size="10.00">src/libs/vtools/tools</text>
<text text-anchor="start" x="595" y="-18.5" font-family="Helvetica,sans-Serif" font-size="10.00">/drawTools/toolpoint</text>
<text text-anchor="middle" x="684" y="-7.5" font-family="Helvetica,sans-Serif" font-size="10.00">/toolsinglepoint/vtoolsinglepoint.cpp</text>
</a>
</g>
</g>
<!-- Node6&#45;&gt;Node7 -->
<g id="edge7" class="edge">
<title>Node6&#45;&gt;Node7</title>
<path fill="none" stroke="midnightblue" d="M684,-67.98C684,-59.35 684,-49.76 684,-41.59"/>
<polygon fill="midnightblue" stroke="midnightblue" points="680.5,-68.23 684,-78.23 687.5,-68.23 680.5,-68.23"/>
</g>
<!-- Node8 -->
<g id="node8" class="node">
<title>Node8</title>
<g id="a_node8"><a xlink:href="../../d4/d7b/vnodepoint_8cpp.html" target="_top" xlink:title=" ">
<polygon fill="white" stroke="black" points="799,-6 799,-36 955,-36 955,-6 799,-6"/>
<text text-anchor="start" x="807" y="-24" font-family="Helvetica,sans-Serif" font-size="10.00">src/libs/vtools/tools</text>
<text text-anchor="middle" x="877" y="-13" font-family="Helvetica,sans-Serif" font-size="10.00">/nodeDetails/vnodepoint.cpp</text>
</a>
</g>
</g>
<!-- Node6&#45;&gt;Node8 -->
<g id="edge8" class="edge">
<title>Node6&#45;&gt;Node8</title>
<path fill="none" stroke="midnightblue" d="M732,-74.96C764.86,-62.96 807.86,-47.26 838.47,-36.07"/>
<polygon fill="midnightblue" stroke="midnightblue" points="730.78,-71.68 722.59,-78.4 733.19,-78.26 730.78,-71.68"/>
</g>
<!-- Node10 -->
<g id="node10" class="node">
<title>Node10</title>
<g id="a_node10"><a xlink:href="../../d8/de3/vabstractoperation_8cpp.html" target="_top" xlink:title=" ">
<polygon fill="white" stroke="black" points="973,-0.5 973,-41.5 1105,-41.5 1105,-0.5 973,-0.5"/>
<text text-anchor="start" x="981" y="-29.5" font-family="Helvetica,sans-Serif" font-size="10.00">src/libs/vtools/tools</text>
<text text-anchor="start" x="981" y="-18.5" font-family="Helvetica,sans-Serif" font-size="10.00">/drawTools/operation</text>
<text text-anchor="middle" x="1039" y="-7.5" font-family="Helvetica,sans-Serif" font-size="10.00">/vabstractoperation.cpp</text>
</a>
</g>
</g>
<!-- Node9&#45;&gt;Node10 -->
<g id="edge11" class="edge">
<title>Node9&#45;&gt;Node10</title>
<path fill="none" stroke="midnightblue" d="M978.43,-71.66C990.03,-62.15 1003.69,-50.94 1015.1,-41.59"/>
<polygon fill="midnightblue" stroke="midnightblue" points="975.92,-69.19 970.4,-78.23 980.36,-74.6 975.92,-69.19"/>
</g>
<!-- Node9&#45;&gt;Node11 -->
<g id="edge12" class="edge">
<title>Node9&#45;&gt;Node11</title>
<path fill="none" stroke="midnightblue" d="M1013.14,-75.74C1056.5,-63.66 1114.37,-47.53 1155.38,-36.11"/>
<polygon fill="midnightblue" stroke="midnightblue" points="1011.98,-72.43 1003.29,-78.49 1013.86,-79.17 1011.98,-72.43"/>
</g>
</g>
</svg>
