<?xml version="1.0" encoding="UTF-8" standalone="no"?>
<!DOCTYPE svg PUBLIC "-//W3C//DTD SVG 1.1//EN"
 "http://www.w3.org/Graphics/SVG/1.1/DTD/svg11.dtd">
<!-- Generated by graphviz version 2.43.0 (0)
 -->
<!-- Title: src/libs/xerces&#45;c/msvc/include/xercesc/dom/impl/DOMChildNode.hpp Pages: 1 -->
<!--zoomable 284 -->
<svg id="main" version="1.1" xmlns="http://www.w3.org/2000/svg" xmlns:xlink="http://www.w3.org/1999/xlink" xml:space="preserve" onload="init(evt)">
<style type="text/css"><![CDATA[
.edge:hover path { stroke: red; }
.edge:hover polygon { stroke: red; fill: red; }
]]></style>
<script type="text/javascript"><![CDATA[
var edges = document.getElementsByTagName('g');
if (edges && edges.length) {
  for (var i=0;i<edges.length;i++) {
    if (edges[i].id.substr(0,4)=='edge') {
      edges[i].setAttribute('class','edge');
    }
  }
}
]]></script>
        <defs>
                <circle id="rim" cx="0" cy="0" r="7"/>
                <circle id="rim2" cx="0" cy="0" r="3.5"/>
                <g id="zoomPlus">
                        <use xlink:href="#rim" fill="#404040">
                                <set attributeName="fill" to="#808080" begin="zoomplus.mouseover" end="zoomplus.mouseout"/>
                        </use>
                        <path d="M-4,0h8M0,-4v8" fill="none" stroke="white" stroke-width="1.5" pointer-events="none"/>
                </g>
                <g id="zoomMin">
                        <use xlink:href="#rim" fill="#404040">
                                <set attributeName="fill" to="#808080" begin="zoomminus.mouseover" end="zoomminus.mouseout"/>
                        </use>
                        <path d="M-4,0h8" fill="none" stroke="white" stroke-width="1.5" pointer-events="none"/>
                </g>
                <g id="dirArrow">
                        <path fill="none" stroke="white" stroke-width="1.5" d="M0,-3.0v7 M-2.5,-0.5L0,-3.0L2.5,-0.5"/>
                </g>
               <g id="resetDef">
                       <use xlink:href="#rim2" fill="#404040">
                               <set attributeName="fill" to="#808080" begin="reset.mouseover" end="reset.mouseout"/>
                       </use>
               </g>
        </defs>

<script type="text/javascript">
var viewWidth = 1220;
var viewHeight = 284;
var sectionId = 'dynsection-1';
</script>
<script xlink:href="../../svgpan.js"/>
<svg id="graph" class="graph">
<g id="viewport">
<title>src/libs/xerces&#45;c/msvc/include/xercesc/dom/impl/DOMChildNode.hpp</title>
<polygon fill="white" stroke="transparent" points="-4,4 -4,-280 1215.5,-280 1215.5,4 -4,4"/>
<!-- Node1 -->
<g id="node1" class="node">
<title>Node1</title>
<g id="a_node1"><a xlink:title=" ">
<polygon fill="#bfbfbf" stroke="black" points="505.5,-234.5 505.5,-275.5 649.5,-275.5 649.5,-234.5 505.5,-234.5"/>
<text text-anchor="start" x="513.5" y="-263.5" font-family="Helvetica,sans-Serif" font-size="10.00">src/libs/xerces&#45;c/msvc</text>
<text text-anchor="start" x="513.5" y="-252.5" font-family="Helvetica,sans-Serif" font-size="10.00">/include/xercesc/dom/impl</text>
<text text-anchor="middle" x="577.5" y="-241.5" font-family="Helvetica,sans-Serif" font-size="10.00">/DOMChildNode.hpp</text>
</a>
</g>
</g>
<!-- Node2 -->
<g id="node2" class="node">
<title>Node2</title>
<g id="a_node2"><a xlink:href="../../d3/d3c/msvc_2include_2xercesc_2dom_2impl_2DOMCDATASectionImpl_8hpp.html" target="_top" xlink:title=" ">
<polygon fill="white" stroke="black" points="0,-156.5 0,-197.5 155,-197.5 155,-156.5 0,-156.5"/>
<text text-anchor="start" x="8" y="-185.5" font-family="Helvetica,sans-Serif" font-size="10.00">src/libs/xerces&#45;c/msvc</text>
<text text-anchor="start" x="8" y="-174.5" font-family="Helvetica,sans-Serif" font-size="10.00">/include/xercesc/dom/impl</text>
<text text-anchor="middle" x="77.5" y="-163.5" font-family="Helvetica,sans-Serif" font-size="10.00">/DOMCDATASectionImpl.hpp</text>
</a>
</g>
</g>
<!-- Node1&#45;&gt;Node2 -->
<g id="edge1" class="edge">
<title>Node1&#45;&gt;Node2</title>
<path fill="none" stroke="midnightblue" d="M495.24,-245.09C411.64,-235.5 278.56,-218.8 164.5,-198 161.45,-197.44 158.35,-196.85 155.22,-196.24"/>
<polygon fill="midnightblue" stroke="midnightblue" points="494.86,-248.56 505.19,-246.22 495.65,-241.61 494.86,-248.56"/>
</g>
<!-- Node3 -->
<g id="node3" class="node">
<title>Node3</title>
<g id="a_node3"><a xlink:href="../../dc/d7d/msvc_2include_2xercesc_2dom_2impl_2DOMCommentImpl_8hpp.html" target="_top" xlink:title=" ">
<polygon fill="white" stroke="black" points="173.5,-156.5 173.5,-197.5 317.5,-197.5 317.5,-156.5 173.5,-156.5"/>
<text text-anchor="start" x="181.5" y="-185.5" font-family="Helvetica,sans-Serif" font-size="10.00">src/libs/xerces&#45;c/msvc</text>
<text text-anchor="start" x="181.5" y="-174.5" font-family="Helvetica,sans-Serif" font-size="10.00">/include/xercesc/dom/impl</text>
<text text-anchor="middle" x="245.5" y="-163.5" font-family="Helvetica,sans-Serif" font-size="10.00">/DOMCommentImpl.hpp</text>
</a>
</g>
</g>
<!-- Node1&#45;&gt;Node3 -->
<g id="edge2" class="edge">
<title>Node1&#45;&gt;Node3</title>
<path fill="none" stroke="midnightblue" d="M495.52,-236.2C446.43,-225.42 382.82,-211.23 326.5,-198 323.68,-197.34 320.81,-196.66 317.9,-195.96"/>
<polygon fill="midnightblue" stroke="midnightblue" points="494.93,-239.65 505.45,-238.38 496.43,-232.82 494.93,-239.65"/>
</g>
<!-- Node4 -->
<g id="node4" class="node">
<title>Node4</title>
<g id="a_node4"><a xlink:href="../../d4/dff/msvc_2include_2xercesc_2dom_2impl_2DOMElementImpl_8hpp.html" target="_top" xlink:title=" ">
<polygon fill="white" stroke="black" points="335.5,-156.5 335.5,-197.5 479.5,-197.5 479.5,-156.5 335.5,-156.5"/>
<text text-anchor="start" x="343.5" y="-185.5" font-family="Helvetica,sans-Serif" font-size="10.00">src/libs/xerces&#45;c/msvc</text>
<text text-anchor="start" x="343.5" y="-174.5" font-family="Helvetica,sans-Serif" font-size="10.00">/include/xercesc/dom/impl</text>
<text text-anchor="middle" x="407.5" y="-163.5" font-family="Helvetica,sans-Serif" font-size="10.00">/DOMElementImpl.hpp</text>
</a>
</g>
</g>
<!-- Node1&#45;&gt;Node4 -->
<g id="edge3" class="edge">
<title>Node1&#45;&gt;Node4</title>
<path fill="none" stroke="midnightblue" d="M524.55,-230.33C500.96,-219.78 473.52,-207.51 451.13,-197.51"/>
<polygon fill="midnightblue" stroke="midnightblue" points="523.16,-233.54 533.72,-234.43 526.02,-227.15 523.16,-233.54"/>
</g>
<!-- Node8 -->
<g id="node8" class="node">
<title>Node8</title>
<g id="a_node8"><a xlink:href="../../de/de5/msvc_2include_2xercesc_2dom_2impl_2DOMDocumentTypeImpl_8hpp.html" target="_top" xlink:title=" ">
<polygon fill="white" stroke="black" points="498,-156.5 498,-197.5 657,-197.5 657,-156.5 498,-156.5"/>
<text text-anchor="start" x="506" y="-185.5" font-family="Helvetica,sans-Serif" font-size="10.00">src/libs/xerces&#45;c/msvc</text>
<text text-anchor="start" x="506" y="-174.5" font-family="Helvetica,sans-Serif" font-size="10.00">/include/xercesc/dom/impl</text>
<text text-anchor="middle" x="577.5" y="-163.5" font-family="Helvetica,sans-Serif" font-size="10.00">/DOMDocumentTypeImpl.hpp</text>
</a>
</g>
</g>
<!-- Node1&#45;&gt;Node8 -->
<g id="edge7" class="edge">
<title>Node1&#45;&gt;Node8</title>
<path fill="none" stroke="midnightblue" d="M577.5,-224.3C577.5,-215.3 577.5,-205.65 577.5,-197.51"/>
<polygon fill="midnightblue" stroke="midnightblue" points="574,-224.43 577.5,-234.43 581,-224.43 574,-224.43"/>
</g>
<!-- Node9 -->
<g id="node9" class="node">
<title>Node9</title>
<g id="a_node9"><a xlink:href="../../dc/dba/msvc_2include_2xercesc_2dom_2impl_2DOMEntityReferenceImpl_8hpp.html" target="_top" xlink:title=" ">
<polygon fill="white" stroke="black" points="675.5,-156.5 675.5,-197.5 839.5,-197.5 839.5,-156.5 675.5,-156.5"/>
<text text-anchor="start" x="683.5" y="-185.5" font-family="Helvetica,sans-Serif" font-size="10.00">src/libs/xerces&#45;c/msvc</text>
<text text-anchor="start" x="683.5" y="-174.5" font-family="Helvetica,sans-Serif" font-size="10.00">/include/xercesc/dom/impl</text>
<text text-anchor="middle" x="757.5" y="-163.5" font-family="Helvetica,sans-Serif" font-size="10.00">/DOMEntityReferenceImpl.hpp</text>
</a>
</g>
</g>
<!-- Node1&#45;&gt;Node9 -->
<g id="edge8" class="edge">
<title>Node1&#45;&gt;Node9</title>
<path fill="none" stroke="midnightblue" d="M633.23,-230.47C658.28,-219.89 687.5,-207.56 711.3,-197.51"/>
<polygon fill="midnightblue" stroke="midnightblue" points="631.71,-227.31 623.85,-234.43 634.43,-233.76 631.71,-227.31"/>
</g>
<!-- Node10 -->
<g id="node10" class="node">
<title>Node10</title>
<g id="a_node10"><a xlink:href="../../dc/d12/msvc_2include_2xercesc_2dom_2impl_2DOMProcessingInstructionImpl_8hpp.html" target="_top" xlink:title=" ">
<polygon fill="white" stroke="black" points="858,-156.5 858,-197.5 1049,-197.5 1049,-156.5 858,-156.5"/>
<text text-anchor="start" x="866" y="-185.5" font-family="Helvetica,sans-Serif" font-size="10.00">src/libs/xerces&#45;c/msvc</text>
<text text-anchor="start" x="866" y="-174.5" font-family="Helvetica,sans-Serif" font-size="10.00">/include/xercesc/dom/impl</text>
<text text-anchor="middle" x="953.5" y="-163.5" font-family="Helvetica,sans-Serif" font-size="10.00">/DOMProcessingInstructionImpl.hpp</text>
</a>
</g>
</g>
<!-- Node1&#45;&gt;Node10 -->
<g id="edge9" class="edge">
<title>Node1&#45;&gt;Node10</title>
<path fill="none" stroke="midnightblue" d="M659.48,-237.43C717.89,-225.62 796.59,-209.72 857.86,-197.33"/>
<polygon fill="midnightblue" stroke="midnightblue" points="658.66,-234.02 649.55,-239.44 660.05,-240.89 658.66,-234.02"/>
</g>
<!-- Node11 -->
<g id="node11" class="node">
<title>Node11</title>
<g id="a_node11"><a xlink:href="../../df/de1/msvc_2include_2xercesc_2dom_2impl_2DOMTextImpl_8hpp.html" target="_top" xlink:title=" ">
<polygon fill="white" stroke="black" points="1067.5,-156.5 1067.5,-197.5 1211.5,-197.5 1211.5,-156.5 1067.5,-156.5"/>
<text text-anchor="start" x="1075.5" y="-185.5" font-family="Helvetica,sans-Serif" font-size="10.00">src/libs/xerces&#45;c/msvc</text>
<text text-anchor="start" x="1075.5" y="-174.5" font-family="Helvetica,sans-Serif" font-size="10.00">/include/xercesc/dom/impl</text>
<text text-anchor="middle" x="1139.5" y="-163.5" font-family="Helvetica,sans-Serif" font-size="10.00">/DOMTextImpl.hpp</text>
</a>
</g>
</g>
<!-- Node1&#45;&gt;Node11 -->
<g id="edge10" class="edge">
<title>Node1&#45;&gt;Node11</title>
<path fill="none" stroke="midnightblue" d="M659.87,-247.59C756.03,-239.38 919.61,-223.13 1058.5,-198 1061.35,-197.48 1064.25,-196.93 1067.17,-196.34"/>
<polygon fill="midnightblue" stroke="midnightblue" points="659.3,-244.13 649.63,-248.46 659.89,-251.1 659.3,-244.13"/>
</g>
<!-- Node5 -->
<g id="node5" class="node">
<title>Node5</title>
<g id="a_node5"><a xlink:href="../../dd/d8d/msvc_2include_2xercesc_2dom_2impl_2DOMCasts_8hpp.html" target="_top" xlink:title=" ">
<polygon fill="white" stroke="black" points="782.5,-78.5 782.5,-119.5 926.5,-119.5 926.5,-78.5 782.5,-78.5"/>
<text text-anchor="start" x="790.5" y="-107.5" font-family="Helvetica,sans-Serif" font-size="10.00">src/libs/xerces&#45;c/msvc</text>
<text text-anchor="start" x="790.5" y="-96.5" font-family="Helvetica,sans-Serif" font-size="10.00">/include/xercesc/dom/impl</text>
<text text-anchor="middle" x="854.5" y="-85.5" font-family="Helvetica,sans-Serif" font-size="10.00">/DOMCasts.hpp</text>
</a>
</g>
</g>
<!-- Node4&#45;&gt;Node5 -->
<g id="edge4" class="edge">
<title>Node4&#45;&gt;Node5</title>
<path fill="none" stroke="midnightblue" d="M489.94,-156C597.7,-134.94 710.88,-118.71 782.5,-109.16"/>
<polygon fill="midnightblue" stroke="midnightblue" points="488.99,-152.62 479.86,-157.99 490.35,-159.49 488.99,-152.62"/>
</g>
<!-- Node6 -->
<g id="node6" class="node">
<title>Node6</title>
<g id="a_node6"><a xlink:href="../../d4/da4/msvc_2include_2xercesc_2dom_2impl_2DOMElementNSImpl_8hpp.html" target="_top" xlink:title=" ">
<polygon fill="white" stroke="black" points="335.5,-78.5 335.5,-119.5 479.5,-119.5 479.5,-78.5 335.5,-78.5"/>
<text text-anchor="start" x="343.5" y="-107.5" font-family="Helvetica,sans-Serif" font-size="10.00">src/libs/xerces&#45;c/msvc</text>
<text text-anchor="start" x="343.5" y="-96.5" font-family="Helvetica,sans-Serif" font-size="10.00">/include/xercesc/dom/impl</text>
<text text-anchor="middle" x="407.5" y="-85.5" font-family="Helvetica,sans-Serif" font-size="10.00">/DOMElementNSImpl.hpp</text>
</a>
</g>
</g>
<!-- Node4&#45;&gt;Node6 -->
<g id="edge5" class="edge">
<title>Node4&#45;&gt;Node6</title>
<path fill="none" stroke="midnightblue" d="M407.5,-146.3C407.5,-137.3 407.5,-127.65 407.5,-119.51"/>
<polygon fill="midnightblue" stroke="midnightblue" points="404,-146.43 407.5,-156.43 411,-146.43 404,-146.43"/>
</g>
<!-- Node7 -->
<g id="node7" class="node">
<title>Node7</title>
<g id="a_node7"><a xlink:href="../../db/d0c/msvc_2include_2xercesc_2dom_2impl_2XSDElementNSImpl_8hpp.html" target="_top" xlink:title=" ">
<polygon fill="white" stroke="black" points="335.5,-0.5 335.5,-41.5 479.5,-41.5 479.5,-0.5 335.5,-0.5"/>
<text text-anchor="start" x="343.5" y="-29.5" font-family="Helvetica,sans-Serif" font-size="10.00">src/libs/xerces&#45;c/msvc</text>
<text text-anchor="start" x="343.5" y="-18.5" font-family="Helvetica,sans-Serif" font-size="10.00">/include/xercesc/dom/impl</text>
<text text-anchor="middle" x="407.5" y="-7.5" font-family="Helvetica,sans-Serif" font-size="10.00">/XSDElementNSImpl.hpp</text>
</a>
</g>
</g>
<!-- Node6&#45;&gt;Node7 -->
<g id="edge6" class="edge">
<title>Node6&#45;&gt;Node7</title>
<path fill="none" stroke="midnightblue" d="M407.5,-68.3C407.5,-59.3 407.5,-49.65 407.5,-41.51"/>
<polygon fill="midnightblue" stroke="midnightblue" points="404,-68.43 407.5,-78.43 411,-68.43 404,-68.43"/>
</g>
<!-- Node11&#45;&gt;Node5 -->
<g id="edge11" class="edge">
<title>Node11&#45;&gt;Node5</title>
<path fill="none" stroke="midnightblue" d="M1057.45,-154.12C1016.15,-143.11 966.54,-129.88 926.71,-119.26"/>
<polygon fill="midnightblue" stroke="midnightblue" points="1056.65,-157.53 1067.21,-156.72 1058.45,-150.77 1056.65,-157.53"/>
</g>
</g>
</svg>
        <g id="navigator" transform="translate(0 0)" fill="#404254">
                <rect fill="#f2f5e9" fill-opacity="0.5" stroke="#606060" stroke-width=".5" x="0" y="0" width="60" height="60"/>
                <use id="zoomplus" xlink:href="#zoomPlus" x="17" y="9" onmousedown="handleZoom(evt,'in')"/>
                <use id="zoomminus" xlink:href="#zoomMin" x="42" y="9" onmousedown="handleZoom(evt,'out')"/>
                <use id="reset" xlink:href="#resetDef" x="30" y="36" onmousedown="handleReset()"/>
                <g id="arrowUp" xlink:href="#dirArrow" transform="translate(30 24)" onmousedown="handlePan(0,-1)">
                  <use xlink:href="#rim" fill="#404040">
                        <set attributeName="fill" to="#808080" begin="arrowUp.mouseover" end="arrowUp.mouseout"/>
                  </use>
                  <path fill="none" stroke="white" stroke-width="1.5" d="M0,-3.0v7 M-2.5,-0.5L0,-3.0L2.5,-0.5"/>
                </g>
                <g id="arrowRight" xlink:href="#dirArrow" transform="rotate(90) translate(36 -43)" onmousedown="handlePan(1,0)">
                  <use xlink:href="#rim" fill="#404040">
                        <set attributeName="fill" to="#808080" begin="arrowRight.mouseover" end="arrowRight.mouseout"/>
                  </use>
                  <path fill="none" stroke="white" stroke-width="1.5" d="M0,-3.0v7 M-2.5,-0.5L0,-3.0L2.5,-0.5"/>
                </g>
                <g id="arrowDown" xlink:href="#dirArrow" transform="rotate(180) translate(-30 -48)" onmousedown="handlePan(0,1)">
                  <use xlink:href="#rim" fill="#404040">
                        <set attributeName="fill" to="#808080" begin="arrowDown.mouseover" end="arrowDown.mouseout"/>
                  </use>
                  <path fill="none" stroke="white" stroke-width="1.5" d="M0,-3.0v7 M-2.5,-0.5L0,-3.0L2.5,-0.5"/>
                </g>
                <g id="arrowLeft" xlink:href="#dirArrow" transform="rotate(270) translate(-36 17)" onmousedown="handlePan(-1,0)">
                  <use xlink:href="#rim" fill="#404040">
                        <set attributeName="fill" to="#808080" begin="arrowLeft.mouseover" end="arrowLeft.mouseout"/>
                  </use>
                  <path fill="none" stroke="white" stroke-width="1.5" d="M0,-3.0v7 M-2.5,-0.5L0,-3.0L2.5,-0.5"/>
                </g>
        </g>
        <svg viewBox="0 0 15 15" width="100%" height="30px" preserveAspectRatio="xMaxYMin meet">
         <g id="arrow_out" transform="scale(0.3 0.3)">
          <a xlink:href="msvc_2include_2xercesc_2dom_2impl_2DOMChildNode_8hpp__dep__incl_org.svg" target="_base">
           <rect id="button" ry="5" rx="5" y="6" x="6" height="38" width="38"
                fill="#f2f5e9" fill-opacity="0.5" stroke="#606060" stroke-width="1.0"/>
           <path id="arrow"
             d="M 11.500037,31.436501 C 11.940474,20.09759 22.043105,11.32322 32.158766,21.979434 L 37.068811,17.246167 C 37.068811,17.246167 37.088388,32 37.088388,32 L 22.160133,31.978069 C 22.160133,31.978069 26.997745,27.140456 26.997745,27.140456 C 18.528582,18.264221 13.291696,25.230495 11.500037,31.436501 z"
             style="fill:#404040;"/>
          </a>
         </g>
        </svg>
</svg>
