<?xml version="1.0" encoding="UTF-8" standalone="no"?>
<!DOCTYPE svg PUBLIC "-//W3C//DTD SVG 1.1//EN"
 "http://www.w3.org/Graphics/SVG/1.1/DTD/svg11.dtd">
<!-- Generated by graphviz version 2.43.0 (0)
 -->
<!-- Title: src/libs/vpatterndb/variables/vcurvevariable.h Pages: 1 -->
<svg width="5845pt" height="441pt"
 viewBox="0.00 0.00 5845.00 441.00" xmlns="http://www.w3.org/2000/svg" xmlns:xlink="http://www.w3.org/1999/xlink">
<g id="graph0" class="graph" transform="scale(1 1) rotate(0) translate(4 437)">
<title>src/libs/vpatterndb/variables/vcurvevariable.h</title>
<polygon fill="white" stroke="transparent" points="-4,4 -4,-437 5841,-437 5841,4 -4,4"/>
<!-- Node1 -->
<g id="node1" class="node">
<title>Node1</title>
<g id="a_node1"><a xlink:title=" ">
<polygon fill="#bfbfbf" stroke="black" points="5322,-402.5 5322,-432.5 5471,-432.5 5471,-402.5 5322,-402.5"/>
<text text-anchor="start" x="5330" y="-420.5" font-family="Helvetica,sans-Serif" font-size="10.00">src/libs/vpatterndb</text>
<text text-anchor="middle" x="5396.5" y="-409.5" font-family="Helvetica,sans-Serif" font-size="10.00">/variables/vcurvevariable.h</text>
</a>
</g>
</g>
<!-- Node2 -->
<g id="node2" class="node">
<title>Node2</title>
<g id="a_node2"><a xlink:href="../../d1/d1c/varcradius_8h.html" target="_top" xlink:title=" ">
<polygon fill="white" stroke="black" points="4921.5,-335.5 4921.5,-365.5 5049.5,-365.5 5049.5,-335.5 4921.5,-335.5"/>
<text text-anchor="start" x="4929.5" y="-353.5" font-family="Helvetica,sans-Serif" font-size="10.00">src/libs/vpatterndb</text>
<text text-anchor="middle" x="4985.5" y="-342.5" font-family="Helvetica,sans-Serif" font-size="10.00">/variables/varcradius.h</text>
</a>
</g>
</g>
<!-- Node1&#45;&gt;Node2 -->
<g id="edge1" class="edge">
<title>Node1&#45;&gt;Node2</title>
<path fill="none" stroke="midnightblue" d="M5311.82,-403.84C5245.76,-393.87 5151.73,-379.45 5069.5,-366 5063.07,-364.95 5056.38,-363.83 5049.69,-362.7"/>
<polygon fill="midnightblue" stroke="midnightblue" points="5311.35,-407.31 5321.76,-405.34 5312.4,-400.39 5311.35,-407.31"/>
</g>
<!-- Node65 -->
<g id="node44" class="node">
<title>Node65</title>
<g id="a_node44"><a xlink:href="../../df/db3/vcurveangle_8cpp.html" target="_top" xlink:title=" ">
<polygon fill="white" stroke="black" points="5376.5,-268.5 5376.5,-298.5 5524.5,-298.5 5524.5,-268.5 5376.5,-268.5"/>
<text text-anchor="start" x="5384.5" y="-286.5" font-family="Helvetica,sans-Serif" font-size="10.00">src/libs/vpatterndb</text>
<text text-anchor="middle" x="5450.5" y="-275.5" font-family="Helvetica,sans-Serif" font-size="10.00">/variables/vcurveangle.cpp</text>
</a>
</g>
</g>
<!-- Node1&#45;&gt;Node65 -->
<g id="edge54" class="edge">
<title>Node1&#45;&gt;Node65</title>
<path fill="none" stroke="midnightblue" d="M5411,-393.77C5416.03,-385.27 5421.42,-375.4 5425.5,-366 5435.4,-343.19 5443.07,-315.22 5447.18,-298.68"/>
<polygon fill="midnightblue" stroke="midnightblue" points="5407.98,-392 5405.76,-402.36 5413.95,-395.64 5407.98,-392"/>
</g>
<!-- Node66 -->
<g id="node45" class="node">
<title>Node66</title>
<g id="a_node45"><a xlink:href="../../d9/d7c/vcurveangle_8h.html" target="_top" xlink:title=" ">
<polygon fill="white" stroke="black" points="5280,-335.5 5280,-365.5 5417,-365.5 5417,-335.5 5280,-335.5"/>
<text text-anchor="start" x="5288" y="-353.5" font-family="Helvetica,sans-Serif" font-size="10.00">src/libs/vpatterndb</text>
<text text-anchor="middle" x="5348.5" y="-342.5" font-family="Helvetica,sans-Serif" font-size="10.00">/variables/vcurveangle.h</text>
</a>
</g>
</g>
<!-- Node1&#45;&gt;Node66 -->
<g id="edge55" class="edge">
<title>Node1&#45;&gt;Node66</title>
<path fill="none" stroke="midnightblue" d="M5380,-394.16C5373,-384.68 5365.06,-373.92 5358.89,-365.58"/>
<polygon fill="midnightblue" stroke="midnightblue" points="5377.33,-396.43 5386.08,-402.4 5382.96,-392.27 5377.33,-396.43"/>
</g>
<!-- Node67 -->
<g id="node46" class="node">
<title>Node67</title>
<g id="a_node46"><a xlink:href="../../d9/d15/vcurveclength_8cpp.html" target="_top" xlink:title=" ">
<polygon fill="white" stroke="black" points="5581,-268.5 5581,-298.5 5738,-298.5 5738,-268.5 5581,-268.5"/>
<text text-anchor="start" x="5589" y="-286.5" font-family="Helvetica,sans-Serif" font-size="10.00">src/libs/vpatterndb</text>
<text text-anchor="middle" x="5659.5" y="-275.5" font-family="Helvetica,sans-Serif" font-size="10.00">/variables/vcurveclength.cpp</text>
</a>
</g>
</g>
<!-- Node1&#45;&gt;Node67 -->
<g id="edge59" class="edge">
<title>Node1&#45;&gt;Node67</title>
<path fill="none" stroke="midnightblue" d="M5481.23,-406.61C5538.08,-398.41 5606.44,-385 5628.5,-366 5648.58,-348.71 5655.69,-316.98 5658.18,-298.62"/>
<polygon fill="midnightblue" stroke="midnightblue" points="5480.55,-403.17 5471.13,-408.03 5481.52,-410.1 5480.55,-403.17"/>
</g>
<!-- Node68 -->
<g id="node47" class="node">
<title>Node68</title>
<g id="a_node47"><a xlink:href="../../d1/d66/vcurveclength_8h.html" target="_top" xlink:title=" ">
<polygon fill="white" stroke="black" points="5473.5,-335.5 5473.5,-365.5 5619.5,-365.5 5619.5,-335.5 5473.5,-335.5"/>
<text text-anchor="start" x="5481.5" y="-353.5" font-family="Helvetica,sans-Serif" font-size="10.00">src/libs/vpatterndb</text>
<text text-anchor="middle" x="5546.5" y="-342.5" font-family="Helvetica,sans-Serif" font-size="10.00">/variables/vcurveclength.h</text>
</a>
</g>
</g>
<!-- Node1&#45;&gt;Node68 -->
<g id="edge60" class="edge">
<title>Node1&#45;&gt;Node68</title>
<path fill="none" stroke="midnightblue" d="M5438.25,-398.41C5462.2,-388.03 5491.82,-375.2 5514.02,-365.58"/>
<polygon fill="midnightblue" stroke="midnightblue" points="5436.83,-395.21 5429.05,-402.4 5439.61,-401.63 5436.83,-395.21"/>
</g>
<!-- Node69 -->
<g id="node48" class="node">
<title>Node69</title>
<g id="a_node48"><a xlink:href="../../df/d03/vcurvelength_8h.html" target="_top" xlink:title=" ">
<polygon fill="white" stroke="black" points="5117.5,-335.5 5117.5,-365.5 5257.5,-365.5 5257.5,-335.5 5117.5,-335.5"/>
<text text-anchor="start" x="5125.5" y="-353.5" font-family="Helvetica,sans-Serif" font-size="10.00">src/libs/vpatterndb</text>
<text text-anchor="middle" x="5187.5" y="-342.5" font-family="Helvetica,sans-Serif" font-size="10.00">/variables/vcurvelength.h</text>
</a>
</g>
</g>
<!-- Node1&#45;&gt;Node69 -->
<g id="edge64" class="edge">
<title>Node1&#45;&gt;Node69</title>
<path fill="none" stroke="midnightblue" d="M5341.66,-399.44C5307.78,-388.91 5264.83,-375.55 5232.87,-365.61"/>
<polygon fill="midnightblue" stroke="midnightblue" points="5340.82,-402.85 5351.41,-402.48 5342.9,-396.16 5340.82,-402.85"/>
</g>
<!-- Node70 -->
<g id="node49" class="node">
<title>Node70</title>
<g id="a_node49"><a xlink:href="../../d6/dd4/vcurvelength_8cpp.html" target="_top" xlink:title=" ">
<polygon fill="white" stroke="black" points="5004.5,-268.5 5004.5,-298.5 5156.5,-298.5 5156.5,-268.5 5004.5,-268.5"/>
<text text-anchor="start" x="5012.5" y="-286.5" font-family="Helvetica,sans-Serif" font-size="10.00">src/libs/vpatterndb</text>
<text text-anchor="middle" x="5080.5" y="-275.5" font-family="Helvetica,sans-Serif" font-size="10.00">/variables/vcurvelength.cpp</text>
</a>
</g>
</g>
<!-- Node1&#45;&gt;Node70 -->
<g id="edge68" class="edge">
<title>Node1&#45;&gt;Node70</title>
<path fill="none" stroke="midnightblue" d="M5311.64,-411.07C5237.94,-404.7 5138.46,-391.58 5108.5,-366 5088.59,-349 5082.82,-317.16 5081.16,-298.71"/>
<polygon fill="midnightblue" stroke="midnightblue" points="5311.6,-414.58 5321.86,-411.93 5312.19,-407.61 5311.6,-414.58"/>
</g>
<!-- Node71 -->
<g id="node50" class="node">
<title>Node71</title>
<g id="a_node50"><a xlink:href="../../de/da5/vcurvevariable_8cpp.html" target="_top" xlink:title=" ">
<polygon fill="white" stroke="black" points="5676,-335.5 5676,-365.5 5837,-365.5 5837,-335.5 5676,-335.5"/>
<text text-anchor="start" x="5684" y="-353.5" font-family="Helvetica,sans-Serif" font-size="10.00">src/libs/vpatterndb</text>
<text text-anchor="middle" x="5756.5" y="-342.5" font-family="Helvetica,sans-Serif" font-size="10.00">/variables/vcurvevariable.cpp</text>
</a>
</g>
</g>
<!-- Node1&#45;&gt;Node71 -->
<g id="edge69" class="edge">
<title>Node1&#45;&gt;Node71</title>
<path fill="none" stroke="midnightblue" d="M5481.27,-401.19C5541.13,-390.39 5620.71,-376.02 5678.89,-365.51"/>
<polygon fill="midnightblue" stroke="midnightblue" points="5480.31,-397.81 5471.09,-403.03 5481.56,-404.7 5480.31,-397.81"/>
</g>
<!-- Node3 -->
<g id="node3" class="node">
<title>Node3</title>
<g id="a_node3"><a xlink:href="../../d4/dfb/varcradius_8cpp.html" target="_top" xlink:title=" ">
<polygon fill="white" stroke="black" points="4809,-268.5 4809,-298.5 4948,-298.5 4948,-268.5 4809,-268.5"/>
<text text-anchor="start" x="4817" y="-286.5" font-family="Helvetica,sans-Serif" font-size="10.00">src/libs/vpatterndb</text>
<text text-anchor="middle" x="4878.5" y="-275.5" font-family="Helvetica,sans-Serif" font-size="10.00">/variables/varcradius.cpp</text>
</a>
</g>
</g>
<!-- Node2&#45;&gt;Node3 -->
<g id="edge2" class="edge">
<title>Node2&#45;&gt;Node3</title>
<path fill="none" stroke="midnightblue" d="M4953.42,-330.02C4936.77,-319.9 4916.81,-307.77 4901.67,-298.58"/>
<polygon fill="midnightblue" stroke="midnightblue" points="4951.92,-333.2 4962.28,-335.4 4955.55,-327.21 4951.92,-333.2"/>
</g>
<!-- Node4 -->
<g id="node4" class="node">
<title>Node4</title>
<g id="a_node4"><a xlink:href="../../d6/d46/vcontainer_8cpp.html" target="_top" xlink:title=" ">
<polygon fill="white" stroke="black" points="5070,-67.5 5070,-97.5 5177,-97.5 5177,-67.5 5070,-67.5"/>
<text text-anchor="start" x="5078" y="-85.5" font-family="Helvetica,sans-Serif" font-size="10.00">src/libs/vpatterndb</text>
<text text-anchor="middle" x="5123.5" y="-74.5" font-family="Helvetica,sans-Serif" font-size="10.00">/vcontainer.cpp</text>
</a>
</g>
</g>
<!-- Node2&#45;&gt;Node4 -->
<g id="edge3" class="edge">
<title>Node2&#45;&gt;Node4</title>
<path fill="none" stroke="midnightblue" d="M4985.44,-325.46C4986.11,-308.83 4988.46,-286.47 4995.5,-268 5022.59,-196.97 5082.68,-127.1 5109.77,-97.84"/>
<polygon fill="midnightblue" stroke="midnightblue" points="4981.94,-325.38 4985.21,-335.46 4988.94,-325.54 4981.94,-325.38"/>
</g>
<!-- Node5 -->
<g id="node5" class="node">
<title>Node5</title>
<g id="a_node5"><a xlink:href="../../de/dca/variables_8h.html" target="_top" xlink:title=" ">
<polygon fill="white" stroke="black" points="5213,-268.5 5213,-298.5 5320,-298.5 5320,-268.5 5213,-268.5"/>
<text text-anchor="start" x="5221" y="-286.5" font-family="Helvetica,sans-Serif" font-size="10.00">src/libs/vpatterndb</text>
<text text-anchor="middle" x="5266.5" y="-275.5" font-family="Helvetica,sans-Serif" font-size="10.00">/variables.h</text>
</a>
</g>
</g>
<!-- Node2&#45;&gt;Node5 -->
<g id="edge4" class="edge">
<title>Node2&#45;&gt;Node5</title>
<path fill="none" stroke="midnightblue" d="M5055.94,-333.21C5104.51,-321.97 5168.09,-307.26 5212.63,-296.96"/>
<polygon fill="midnightblue" stroke="midnightblue" points="5055.08,-329.81 5046.13,-335.48 5056.66,-336.63 5055.08,-329.81"/>
</g>
<!-- Node6 -->
<g id="node6" class="node">
<title>Node6</title>
<g id="a_node6"><a xlink:href="../../d3/df7/vcontainer_8h.html" target="_top" xlink:title=" ">
<polygon fill="white" stroke="black" points="4023,-201.5 4023,-231.5 4130,-231.5 4130,-201.5 4023,-201.5"/>
<text text-anchor="start" x="4031" y="-219.5" font-family="Helvetica,sans-Serif" font-size="10.00">src/libs/vpatterndb</text>
<text text-anchor="middle" x="4076.5" y="-208.5" font-family="Helvetica,sans-Serif" font-size="10.00">/vcontainer.h</text>
</a>
</g>
</g>
<!-- Node5&#45;&gt;Node6 -->
<g id="edge5" class="edge">
<title>Node5&#45;&gt;Node6</title>
<path fill="none" stroke="midnightblue" d="M5202.69,-272.39C5190.37,-270.71 5177.56,-269.14 5165.5,-268 4769.11,-230.44 4288.79,-220.51 4130.17,-218.16"/>
<polygon fill="midnightblue" stroke="midnightblue" points="5202.5,-275.9 5212.89,-273.82 5203.47,-268.97 5202.5,-275.9"/>
</g>
<!-- Node6&#45;&gt;Node4 -->
<g id="edge46" class="edge">
<title>Node6&#45;&gt;Node4</title>
<path fill="none" stroke="midnightblue" d="M4140.24,-214.11C4336.54,-209.53 4923.6,-193.57 5004.5,-165 5026.71,-157.15 5028.13,-147.41 5047.5,-134 5065.6,-121.47 5086.45,-107.65 5101.73,-97.65"/>
<polygon fill="midnightblue" stroke="midnightblue" points="4140,-210.61 4130.08,-214.34 4140.16,-217.61 4140,-210.61"/>
</g>
<!-- Node7 -->
<g id="node7" class="node">
<title>Node7</title>
<g id="a_node7"><a xlink:href="../../d4/dd6/vmeasurements_8h.html" target="_top" xlink:title=" ">
<polygon fill="white" stroke="black" points="3893,-140 3893,-159 4078,-159 4078,-140 3893,-140"/>
<text text-anchor="middle" x="3985.5" y="-147" font-family="Helvetica,sans-Serif" font-size="10.00">src/libs/vformat/vmeasurements.h</text>
</a>
</g>
</g>
<!-- Node6&#45;&gt;Node7 -->
<g id="edge6" class="edge">
<title>Node6&#45;&gt;Node7</title>
<path fill="none" stroke="midnightblue" d="M4048.23,-195.31C4031.14,-183.1 4010.25,-168.18 3997.41,-159.01"/>
<polygon fill="midnightblue" stroke="midnightblue" points="4046.58,-198.43 4056.75,-201.4 4050.65,-192.74 4046.58,-198.43"/>
</g>
<!-- Node8 -->
<g id="node8" class="node">
<title>Node8</title>
<g id="a_node8"><a xlink:href="../../de/db3/vmeasurements_8cpp.html" target="_top" xlink:title=" ">
<polygon fill="white" stroke="black" points="3890.5,-73 3890.5,-92 4086.5,-92 4086.5,-73 3890.5,-73"/>
<text text-anchor="middle" x="3988.5" y="-80" font-family="Helvetica,sans-Serif" font-size="10.00">src/libs/vformat/vmeasurements.cpp</text>
</a>
</g>
</g>
<!-- Node6&#45;&gt;Node8 -->
<g id="edge8" class="edge">
<title>Node6&#45;&gt;Node8</title>
<path fill="none" stroke="midnightblue" d="M4012.49,-207.22C3962.64,-199.31 3899.34,-185.52 3883.5,-165 3858.12,-132.12 3920.34,-105.19 3959.52,-92.09"/>
<polygon fill="midnightblue" stroke="midnightblue" points="4012.16,-210.71 4022.58,-208.77 4013.23,-203.79 4012.16,-210.71"/>
</g>
<!-- Node9 -->
<g id="node9" class="node">
<title>Node9</title>
<g id="a_node9"><a xlink:href="../../d6/de0/vlayoutpiece_8h.html" target="_top" xlink:title=" ">
<polygon fill="white" stroke="black" points="721.5,-140 721.5,-159 887.5,-159 887.5,-140 721.5,-140"/>
<text text-anchor="middle" x="804.5" y="-147" font-family="Helvetica,sans-Serif" font-size="10.00">src/libs/vlayout/vlayoutpiece.h</text>
</a>
</g>
</g>
<!-- Node6&#45;&gt;Node9 -->
<g id="edge9" class="edge">
<title>Node6&#45;&gt;Node9</title>
<path fill="none" stroke="midnightblue" d="M4012.6,-214.23C3603.25,-206.1 1351.07,-161.36 887.82,-152.16"/>
<polygon fill="midnightblue" stroke="midnightblue" points="4012.71,-217.73 4022.78,-214.43 4012.85,-210.73 4012.71,-217.73"/>
</g>
<!-- Node19 -->
<g id="node18" class="node">
<title>Node19</title>
<g id="a_node18"><a xlink:href="../../d5/d74/vabstractapplication_8h.html" target="_top" xlink:title=" ">
<polygon fill="white" stroke="red" points="2392,-140 2392,-159 2587,-159 2587,-140 2392,-140"/>
<text text-anchor="middle" x="2489.5" y="-147" font-family="Helvetica,sans-Serif" font-size="10.00">src/libs/vmisc/vabstractapplication.h</text>
</a>
</g>
</g>
<!-- Node6&#45;&gt;Node19 -->
<g id="edge20" class="edge">
<title>Node6&#45;&gt;Node19</title>
<path fill="none" stroke="midnightblue" d="M4012.61,-212.88C3767.1,-202.83 2883.32,-166.63 2587.07,-154.5"/>
<polygon fill="midnightblue" stroke="midnightblue" points="4012.65,-216.39 4022.79,-213.3 4012.94,-209.39 4012.65,-216.39"/>
</g>
<!-- Node36 -->
<g id="node31" class="node">
<title>Node36</title>
<g id="a_node31"><a xlink:href="../../d8/d70/vtextmanager_8cpp.html" target="_top" xlink:title=" ">
<polygon fill="white" stroke="black" points="3401.5,-73 3401.5,-92 3583.5,-92 3583.5,-73 3401.5,-73"/>
<text text-anchor="middle" x="3492.5" y="-80" font-family="Helvetica,sans-Serif" font-size="10.00">src/libs/vlayout/vtextmanager.cpp</text>
</a>
</g>
</g>
<!-- Node6&#45;&gt;Node36 -->
<g id="edge43" class="edge">
<title>Node6&#45;&gt;Node36</title>
<path fill="none" stroke="midnightblue" d="M4012.67,-210.12C3941.59,-203.27 3823.66,-189.28 3724.5,-165 3644.06,-145.3 3552.3,-108.65 3512.58,-92.06"/>
<polygon fill="midnightblue" stroke="midnightblue" points="4012.52,-213.63 4022.81,-211.08 4013.18,-206.66 4012.52,-213.63"/>
</g>
<!-- Node38 -->
<g id="node33" class="node">
<title>Node38</title>
<g id="a_node33"><a xlink:href="../../db/d11/vformula_8cpp.html" target="_top" xlink:title=" ">
<polygon fill="white" stroke="black" points="3602,-67.5 3602,-97.5 3709,-97.5 3709,-67.5 3602,-67.5"/>
<text text-anchor="start" x="3610" y="-85.5" font-family="Helvetica,sans-Serif" font-size="10.00">src/libs/vpatterndb</text>
<text text-anchor="middle" x="3655.5" y="-74.5" font-family="Helvetica,sans-Serif" font-size="10.00">/vformula.cpp</text>
</a>
</g>
</g>
<!-- Node6&#45;&gt;Node38 -->
<g id="edge47" class="edge">
<title>Node6&#45;&gt;Node38</title>
<path fill="none" stroke="midnightblue" d="M4012.87,-211.23C3953.28,-205.64 3862.56,-193.02 3788.5,-165 3744.17,-148.23 3698.3,-116.3 3673.71,-97.78"/>
<polygon fill="midnightblue" stroke="midnightblue" points="4012.62,-214.72 4022.9,-212.13 4013.25,-207.75 4012.62,-214.72"/>
</g>
<!-- Node39 -->
<g id="node34" class="node">
<title>Node39</title>
<g id="a_node34"><a xlink:href="../../df/d7a/vpiece_8cpp.html" target="_top" xlink:title=" ">
<polygon fill="white" stroke="black" points="3727,-67.5 3727,-97.5 3834,-97.5 3834,-67.5 3727,-67.5"/>
<text text-anchor="start" x="3735" y="-85.5" font-family="Helvetica,sans-Serif" font-size="10.00">src/libs/vpatterndb</text>
<text text-anchor="middle" x="3780.5" y="-74.5" font-family="Helvetica,sans-Serif" font-size="10.00">/vpiece.cpp</text>
</a>
</g>
</g>
<!-- Node6&#45;&gt;Node39 -->
<g id="edge49" class="edge">
<title>Node6&#45;&gt;Node39</title>
<path fill="none" stroke="midnightblue" d="M4012.58,-210.22C3944.73,-203.42 3843.27,-189.46 3813.5,-165 3792.86,-148.04 3785.02,-116.18 3782.12,-97.72"/>
<polygon fill="midnightblue" stroke="midnightblue" points="4012.45,-213.72 4022.74,-211.21 4013.13,-206.75 4012.45,-213.72"/>
</g>
<!-- Node41 -->
<g id="node36" class="node">
<title>Node41</title>
<g id="a_node36"><a xlink:href="../../d8/dba/vpiecenode_8cpp.html" target="_top" xlink:title=" ">
<polygon fill="white" stroke="black" points="3542,-0.5 3542,-30.5 3649,-30.5 3649,-0.5 3542,-0.5"/>
<text text-anchor="start" x="3550" y="-18.5" font-family="Helvetica,sans-Serif" font-size="10.00">src/libs/vpatterndb</text>
<text text-anchor="middle" x="3595.5" y="-7.5" font-family="Helvetica,sans-Serif" font-size="10.00">/vpiecenode.cpp</text>
</a>
</g>
</g>
<!-- Node6&#45;&gt;Node41 -->
<g id="edge51" class="edge">
<title>Node6&#45;&gt;Node41</title>
<path fill="none" stroke="midnightblue" d="M4012.92,-206.44C3961.52,-197.91 3894.52,-183.66 3874.5,-165 3840.98,-133.77 3876.69,-97.5 3842.5,-67 3814.45,-41.98 3712.86,-27.8 3649.03,-21.18"/>
<polygon fill="midnightblue" stroke="midnightblue" points="4012.54,-209.93 4022.98,-208.07 4013.66,-203.02 4012.54,-209.93"/>
</g>
<!-- Node57 -->
<g id="node38" class="node">
<title>Node57</title>
<g id="a_node38"><a xlink:href="../../d1/de1/vincrement__p_8h.html" target="_top" xlink:title=" ">
<polygon fill="white" stroke="red" points="4096,-134.5 4096,-164.5 4239,-164.5 4239,-134.5 4096,-134.5"/>
<text text-anchor="start" x="4104" y="-152.5" font-family="Helvetica,sans-Serif" font-size="10.00">src/libs/vpatterndb</text>
<text text-anchor="middle" x="4167.5" y="-141.5" font-family="Helvetica,sans-Serif" font-size="10.00">/variables/vincrement_p.h</text>
</a>
</g>
</g>
<!-- Node6&#45;&gt;Node57 -->
<g id="edge44" class="edge">
<title>Node6&#45;&gt;Node57</title>
<path fill="none" stroke="midnightblue" d="M4104.57,-195.45C4118.57,-185.45 4135.16,-173.6 4147.79,-164.58"/>
<polygon fill="midnightblue" stroke="midnightblue" points="4102.35,-192.74 4096.25,-201.4 4106.42,-198.43 4102.35,-192.74"/>
</g>
<!-- Node59 -->
<g id="node39" class="node">
<title>Node59</title>
<g id="a_node39"><a xlink:href="../../d6/dc1/vmeasurement__p_8h.html" target="_top" xlink:title=" ">
<polygon fill="white" stroke="red" points="4257.5,-134.5 4257.5,-164.5 4419.5,-164.5 4419.5,-134.5 4257.5,-134.5"/>
<text text-anchor="start" x="4265.5" y="-152.5" font-family="Helvetica,sans-Serif" font-size="10.00">src/libs/vpatterndb</text>
<text text-anchor="middle" x="4338.5" y="-141.5" font-family="Helvetica,sans-Serif" font-size="10.00">/variables/vmeasurement_p.h</text>
</a>
</g>
</g>
<!-- Node6&#45;&gt;Node59 -->
<g id="edge45" class="edge">
<title>Node6&#45;&gt;Node59</title>
<path fill="none" stroke="midnightblue" d="M4140,-199.75C4183.25,-189.02 4240.01,-174.94 4281.75,-164.58"/>
<polygon fill="midnightblue" stroke="midnightblue" points="4139.01,-196.38 4130.15,-202.19 4140.7,-203.18 4139.01,-196.38"/>
</g>
<!-- Node61 -->
<g id="node40" class="node">
<title>Node61</title>
<g id="a_node40"><a xlink:href="../../d6/d91/vnodedetail_8cpp.html" target="_top" xlink:title=" ">
<polygon fill="white" stroke="black" points="4438,-134.5 4438,-164.5 4545,-164.5 4545,-134.5 4438,-134.5"/>
<text text-anchor="start" x="4446" y="-152.5" font-family="Helvetica,sans-Serif" font-size="10.00">src/libs/vpatterndb</text>
<text text-anchor="middle" x="4491.5" y="-141.5" font-family="Helvetica,sans-Serif" font-size="10.00">/vnodedetail.cpp</text>
</a>
</g>
</g>
<!-- Node6&#45;&gt;Node61 -->
<g id="edge48" class="edge">
<title>Node6&#45;&gt;Node61</title>
<path fill="none" stroke="midnightblue" d="M4140.19,-207.99C4210.9,-199.28 4328.28,-183.69 4428.5,-165 4431.59,-164.42 4434.76,-163.8 4437.95,-163.15"/>
<polygon fill="midnightblue" stroke="midnightblue" points="4139.6,-204.54 4130.1,-209.23 4140.45,-211.49 4139.6,-204.54"/>
</g>
<!-- Node62 -->
<g id="node41" class="node">
<title>Node62</title>
<g id="a_node41"><a xlink:href="../../da/de1/vpiecepath_8cpp.html" target="_top" xlink:title=" ">
<polygon fill="white" stroke="black" points="4563,-134.5 4563,-164.5 4670,-164.5 4670,-134.5 4563,-134.5"/>
<text text-anchor="start" x="4571" y="-152.5" font-family="Helvetica,sans-Serif" font-size="10.00">src/libs/vpatterndb</text>
<text text-anchor="middle" x="4616.5" y="-141.5" font-family="Helvetica,sans-Serif" font-size="10.00">/vpiecepath.cpp</text>
</a>
</g>
</g>
<!-- Node6&#45;&gt;Node62 -->
<g id="edge50" class="edge">
<title>Node6&#45;&gt;Node62</title>
<path fill="none" stroke="midnightblue" d="M4140.32,-211.21C4232.13,-204.47 4406.6,-189.59 4553.5,-165 4556.6,-164.48 4559.77,-163.9 4562.97,-163.28"/>
<polygon fill="midnightblue" stroke="midnightblue" points="4139.8,-207.73 4130.08,-211.95 4140.31,-214.72 4139.8,-207.73"/>
</g>
<!-- Node63 -->
<g id="node42" class="node">
<title>Node63</title>
<g id="a_node42"><a xlink:href="../../d1/d3a/abstracttest_8cpp.html" target="_top" xlink:title=" ">
<polygon fill="white" stroke="black" points="4688,-140 4688,-159 4849,-159 4849,-140 4688,-140"/>
<text text-anchor="middle" x="4768.5" y="-147" font-family="Helvetica,sans-Serif" font-size="10.00">src/libs/vtest/abstracttest.cpp</text>
</a>
</g>
</g>
<!-- Node6&#45;&gt;Node63 -->
<g id="edge52" class="edge">
<title>Node6&#45;&gt;Node63</title>
<path fill="none" stroke="midnightblue" d="M4140.47,-211.74C4250.62,-204.9 4483.1,-188.9 4678.5,-165 4692.01,-163.35 4706.6,-161.17 4720.02,-159"/>
<polygon fill="midnightblue" stroke="midnightblue" points="4139.96,-208.26 4130.2,-212.37 4140.39,-215.25 4139.96,-208.26"/>
</g>
<!-- Node64 -->
<g id="node43" class="node">
<title>Node64</title>
<g id="a_node43"><a xlink:href="../../da/db4/piece__tablewidgetitem_8cpp.html" target="_top" xlink:title=" ">
<polygon fill="white" stroke="black" points="4867.5,-134.5 4867.5,-164.5 4995.5,-164.5 4995.5,-134.5 4867.5,-134.5"/>
<text text-anchor="start" x="4875.5" y="-152.5" font-family="Helvetica,sans-Serif" font-size="10.00">src/libs/vwidgets/piece</text>
<text text-anchor="middle" x="4931.5" y="-141.5" font-family="Helvetica,sans-Serif" font-size="10.00">_tablewidgetitem.cpp</text>
</a>
</g>
</g>
<!-- Node6&#45;&gt;Node64 -->
<g id="edge53" class="edge">
<title>Node6&#45;&gt;Node64</title>
<path fill="none" stroke="midnightblue" d="M4140.29,-214.16C4273.86,-210.74 4592.56,-199.38 4857.5,-165 4860.75,-164.58 4864.06,-164.1 4867.41,-163.58"/>
<polygon fill="midnightblue" stroke="midnightblue" points="4140.14,-210.66 4130.23,-214.41 4140.31,-217.66 4140.14,-210.66"/>
</g>
<!-- Node7&#45;&gt;Node8 -->
<g id="edge7" class="edge">
<title>Node7&#45;&gt;Node8</title>
<path fill="none" stroke="midnightblue" d="M3986.38,-129.54C3986.95,-117.17 3987.66,-101.62 3988.1,-92.13"/>
<polygon fill="midnightblue" stroke="midnightblue" points="3982.87,-129.58 3985.9,-139.73 3989.86,-129.91 3982.87,-129.58"/>
</g>
<!-- Node10 -->
<g id="node10" class="node">
<title>Node10</title>
<g id="a_node10"><a xlink:href="../../dd/d66/vdxfengine_8cpp.html" target="_top" xlink:title=" ">
<polygon fill="white" stroke="black" points="197.5,-73 197.5,-92 351.5,-92 351.5,-73 197.5,-73"/>
<text text-anchor="middle" x="274.5" y="-80" font-family="Helvetica,sans-Serif" font-size="10.00">src/libs/vdxf/vdxfengine.cpp</text>
</a>
</g>
</g>
<!-- Node9&#45;&gt;Node10 -->
<g id="edge10" class="edge">
<title>Node9&#45;&gt;Node10</title>
<path fill="none" stroke="midnightblue" d="M711.09,-139.35C621.12,-130.19 481.25,-115.03 360.5,-98 348.06,-96.24 334.64,-94.1 322.19,-92.01"/>
<polygon fill="midnightblue" stroke="midnightblue" points="710.97,-142.86 721.27,-140.38 711.68,-135.89 710.97,-142.86"/>
</g>
<!-- Node11 -->
<g id="node11" class="node">
<title>Node11</title>
<g id="a_node11"><a xlink:href="../../de/da8/vbank_8cpp.html" target="_top" xlink:title=" ">
<polygon fill="white" stroke="black" points="369.5,-73 369.5,-92 513.5,-92 513.5,-73 369.5,-73"/>
<text text-anchor="middle" x="441.5" y="-80" font-family="Helvetica,sans-Serif" font-size="10.00">src/libs/vlayout/vbank.cpp</text>
</a>
</g>
</g>
<!-- Node9&#45;&gt;Node11 -->
<g id="edge11" class="edge">
<title>Node9&#45;&gt;Node11</title>
<path fill="none" stroke="midnightblue" d="M746.51,-138.12C675.16,-125.34 555.38,-103.89 489.15,-92.03"/>
<polygon fill="midnightblue" stroke="midnightblue" points="746.21,-141.62 756.67,-139.94 747.44,-134.73 746.21,-141.62"/>
</g>
<!-- Node12 -->
<g id="node12" class="node">
<title>Node12</title>
<g id="a_node12"><a xlink:href="../../df/d5d/vcontour_8cpp.html" target="_top" xlink:title=" ">
<polygon fill="white" stroke="black" points="531.5,-73 531.5,-92 687.5,-92 687.5,-73 531.5,-73"/>
<text text-anchor="middle" x="609.5" y="-80" font-family="Helvetica,sans-Serif" font-size="10.00">src/libs/vlayout/vcontour.cpp</text>
</a>
</g>
</g>
<!-- Node9&#45;&gt;Node12 -->
<g id="edge12" class="edge">
<title>Node9&#45;&gt;Node12</title>
<path fill="none" stroke="midnightblue" d="M768.8,-136.6C730.14,-123.71 669.42,-103.47 635.19,-92.06"/>
<polygon fill="midnightblue" stroke="midnightblue" points="768.01,-140.03 778.61,-139.87 770.23,-133.39 768.01,-140.03"/>
</g>
<!-- Node13 -->
<g id="node13" class="node">
<title>Node13</title>
<g id="a_node13"><a xlink:href="../../d3/d39/vlayoutgenerator_8cpp.html" target="_top" xlink:title=" ">
<polygon fill="white" stroke="black" points="706,-73 706,-92 903,-92 903,-73 706,-73"/>
<text text-anchor="middle" x="804.5" y="-80" font-family="Helvetica,sans-Serif" font-size="10.00">src/libs/vlayout/vlayoutgenerator.cpp</text>
</a>
</g>
</g>
<!-- Node9&#45;&gt;Node13 -->
<g id="edge13" class="edge">
<title>Node9&#45;&gt;Node13</title>
<path fill="none" stroke="midnightblue" d="M804.5,-129.54C804.5,-117.17 804.5,-101.62 804.5,-92.13"/>
<polygon fill="midnightblue" stroke="midnightblue" points="801,-129.73 804.5,-139.73 808,-129.73 801,-129.73"/>
</g>
<!-- Node14 -->
<g id="node14" class="node">
<title>Node14</title>
<g id="a_node14"><a xlink:href="../../d1/dd1/vlayoutpaper_8cpp.html" target="_top" xlink:title=" ">
<polygon fill="white" stroke="black" points="906.5,-6 906.5,-25 1084.5,-25 1084.5,-6 906.5,-6"/>
<text text-anchor="middle" x="995.5" y="-13" font-family="Helvetica,sans-Serif" font-size="10.00">src/libs/vlayout/vlayoutpaper.cpp</text>
</a>
</g>
</g>
<!-- Node9&#45;&gt;Node14 -->
<g id="edge14" class="edge">
<title>Node9&#45;&gt;Node14</title>
<path fill="none" stroke="midnightblue" d="M897.8,-143.78C967.91,-138.04 1055.64,-125.46 1078.5,-98 1087.32,-87.41 1085.25,-79.01 1078.5,-67 1066.68,-45.97 1042.17,-32.68 1022.83,-25.04"/>
<polygon fill="midnightblue" stroke="midnightblue" points="897.29,-140.31 887.6,-144.57 897.84,-147.28 897.29,-140.31"/>
</g>
<!-- Node15 -->
<g id="node15" class="node">
<title>Node15</title>
<g id="a_node15"><a xlink:href="../../d2/d2d/vlayoutpaper__p_8h.html" target="_top" xlink:title=" ">
<polygon fill="white" stroke="black" points="0,-73 0,-92 179,-92 179,-73 0,-73"/>
<text text-anchor="middle" x="89.5" y="-80" font-family="Helvetica,sans-Serif" font-size="10.00">src/libs/vlayout/vlayoutpaper_p.h</text>
</a>
</g>
</g>
<!-- Node9&#45;&gt;Node15 -->
<g id="edge15" class="edge">
<title>Node9&#45;&gt;Node15</title>
<path fill="none" stroke="midnightblue" d="M710.82,-142.68C589.92,-134.75 373.15,-119.07 188.5,-98 173.83,-96.33 157.99,-94.17 143.37,-92.03"/>
<polygon fill="midnightblue" stroke="midnightblue" points="710.93,-146.2 721.14,-143.36 711.39,-139.21 710.93,-146.2"/>
</g>
<!-- Node16 -->
<g id="node16" class="node">
<title>Node16</title>
<g id="a_node16"><a xlink:href="../../dd/d70/vlayoutpiece_8cpp.html" target="_top" xlink:title=" ">
<polygon fill="white" stroke="black" points="1125,-73 1125,-92 1302,-92 1302,-73 1125,-73"/>
<text text-anchor="middle" x="1213.5" y="-80" font-family="Helvetica,sans-Serif" font-size="10.00">src/libs/vlayout/vlayoutpiece.cpp</text>
</a>
</g>
</g>
<!-- Node9&#45;&gt;Node16 -->
<g id="edge17" class="edge">
<title>Node9&#45;&gt;Node16</title>
<path fill="none" stroke="midnightblue" d="M868.36,-138.35C948.56,-125.6 1084.73,-103.96 1159.82,-92.03"/>
<polygon fill="midnightblue" stroke="midnightblue" points="867.72,-134.91 858.39,-139.94 868.82,-141.82 867.72,-134.91"/>
</g>
<!-- Node17 -->
<g id="node17" class="node">
<title>Node17</title>
<g id="a_node17"><a xlink:href="../../db/d5c/vposition_8h.html" target="_top" xlink:title=" ">
<polygon fill="white" stroke="red" points="921.5,-73 921.5,-92 1069.5,-92 1069.5,-73 921.5,-73"/>
<text text-anchor="middle" x="995.5" y="-80" font-family="Helvetica,sans-Serif" font-size="10.00">src/libs/vlayout/vposition.h</text>
</a>
</g>
</g>
<!-- Node9&#45;&gt;Node17 -->
<g id="edge18" class="edge">
<title>Node9&#45;&gt;Node17</title>
<path fill="none" stroke="midnightblue" d="M839.46,-136.6C877.33,-123.71 936.81,-103.47 970.34,-92.06"/>
<polygon fill="midnightblue" stroke="midnightblue" points="838.2,-133.33 829.86,-139.87 840.46,-139.96 838.2,-133.33"/>
</g>
<!-- Node15&#45;&gt;Node14 -->
<g id="edge16" class="edge">
<title>Node15&#45;&gt;Node14</title>
<path fill="none" stroke="midnightblue" d="M152.06,-71.54C164.13,-69.84 176.69,-68.23 188.5,-67 448.54,-39.87 757.36,-25.48 906.33,-19.66"/>
<polygon fill="midnightblue" stroke="midnightblue" points="151.46,-68.09 142.06,-72.97 152.46,-75.01 151.46,-68.09"/>
</g>
<!-- Node17&#45;&gt;Node14 -->
<g id="edge19" class="edge">
<title>Node17&#45;&gt;Node14</title>
<path fill="none" stroke="midnightblue" d="M995.5,-62.54C995.5,-50.17 995.5,-34.62 995.5,-25.13"/>
<polygon fill="midnightblue" stroke="midnightblue" points="992,-62.73 995.5,-72.73 999,-62.73 992,-62.73"/>
</g>
<!-- Node19&#45;&gt;Node4 -->
<g id="edge37" class="edge">
<title>Node19&#45;&gt;Node4</title>
<path fill="none" stroke="midnightblue" d="M2597.16,-145.84C3044.14,-134.81 4745.31,-92.83 5069.83,-84.82"/>
<polygon fill="midnightblue" stroke="midnightblue" points="2597.07,-142.34 2587.16,-146.09 2597.24,-149.34 2597.07,-142.34"/>
</g>
<!-- Node19&#45;&gt;Node16 -->
<g id="edge31" class="edge">
<title>Node19&#45;&gt;Node16</title>
<path fill="none" stroke="midnightblue" d="M2381.52,-147.68C2173.7,-145.27 1703.84,-135.72 1310.5,-98 1295.25,-96.54 1278.73,-94.31 1263.72,-92.04"/>
<polygon fill="midnightblue" stroke="midnightblue" points="2381.79,-151.19 2391.82,-147.8 2381.86,-144.19 2381.79,-151.19"/>
</g>
<!-- Node20 -->
<g id="node19" class="node">
<title>Node20</title>
<g id="a_node19"><a xlink:href="../../d4/d90/fvupdater_8cpp.html" target="_top" xlink:title=" ">
<polygon fill="white" stroke="black" points="1612,-73 1612,-92 1765,-92 1765,-73 1612,-73"/>
<text text-anchor="middle" x="1688.5" y="-80" font-family="Helvetica,sans-Serif" font-size="10.00">src/libs/fervor/fvupdater.cpp</text>
</a>
</g>
</g>
<!-- Node19&#45;&gt;Node20 -->
<g id="edge21" class="edge">
<title>Node19&#45;&gt;Node20</title>
<path fill="none" stroke="midnightblue" d="M2381.6,-144.21C2241.18,-137.86 1988.35,-123.84 1773.5,-98 1760.42,-96.43 1746.29,-94.22 1733.37,-92.01"/>
<polygon fill="midnightblue" stroke="midnightblue" points="2381.78,-147.72 2391.93,-144.67 2382.1,-140.73 2381.78,-147.72"/>
</g>
<!-- Node21 -->
<g id="node20" class="node">
<title>Node21</title>
<g id="a_node20"><a xlink:href="../../d9/dc8/dxiface_8cpp.html" target="_top" xlink:title=" ">
<polygon fill="white" stroke="black" points="1783,-73 1783,-92 1918,-92 1918,-73 1783,-73"/>
<text text-anchor="middle" x="1850.5" y="-80" font-family="Helvetica,sans-Serif" font-size="10.00">src/libs/vdxf/dxiface.cpp</text>
</a>
</g>
</g>
<!-- Node19&#45;&gt;Node21 -->
<g id="edge22" class="edge">
<title>Node19&#45;&gt;Node21</title>
<path fill="none" stroke="midnightblue" d="M2381.69,-142.01C2268.1,-134.44 2084.17,-120.06 1926.5,-98 1915.06,-96.4 1902.73,-94.24 1891.4,-92.07"/>
<polygon fill="midnightblue" stroke="midnightblue" points="2381.57,-145.51 2391.78,-142.68 2382.03,-138.53 2381.57,-145.51"/>
</g>
<!-- Node22 -->
<g id="node21" class="node">
<title>Node22</title>
<g id="a_node21"><a xlink:href="../../da/d75/vabstractarc__p_8h.html" target="_top" xlink:title=" ">
<polygon fill="white" stroke="red" points="1936,-67.5 1936,-97.5 2043,-97.5 2043,-67.5 1936,-67.5"/>
<text text-anchor="start" x="1944" y="-85.5" font-family="Helvetica,sans-Serif" font-size="10.00">src/libs/vgeometry</text>
<text text-anchor="middle" x="1989.5" y="-74.5" font-family="Helvetica,sans-Serif" font-size="10.00">/vabstractarc_p.h</text>
</a>
</g>
</g>
<!-- Node19&#45;&gt;Node22 -->
<g id="edge23" class="edge">
<title>Node19&#45;&gt;Node22</title>
<path fill="none" stroke="midnightblue" d="M2381.52,-139.54C2292.56,-131.32 2163.33,-117.46 2051.5,-98 2048.78,-97.53 2046,-97.01 2043.19,-96.46"/>
<polygon fill="midnightblue" stroke="midnightblue" points="2381.34,-143.03 2391.62,-140.46 2381.98,-136.06 2381.34,-143.03"/>
</g>
<!-- Node24 -->
<g id="node22" class="node">
<title>Node24</title>
<g id="a_node22"><a xlink:href="../../dc/da3/varc__p_8h.html" target="_top" xlink:title=" ">
<polygon fill="white" stroke="red" points="2061,-67.5 2061,-97.5 2168,-97.5 2168,-67.5 2061,-67.5"/>
<text text-anchor="start" x="2069" y="-85.5" font-family="Helvetica,sans-Serif" font-size="10.00">src/libs/vgeometry</text>
<text text-anchor="middle" x="2114.5" y="-74.5" font-family="Helvetica,sans-Serif" font-size="10.00">/varc_p.h</text>
</a>
</g>
</g>
<!-- Node19&#45;&gt;Node24 -->
<g id="edge24" class="edge">
<title>Node19&#45;&gt;Node24</title>
<path fill="none" stroke="midnightblue" d="M2418.76,-138.53C2355.16,-129.22 2259.28,-114.34 2176.5,-98 2173.79,-97.46 2171.02,-96.9 2168.22,-96.31"/>
<polygon fill="midnightblue" stroke="midnightblue" points="2418.29,-141.99 2428.69,-139.97 2419.3,-135.07 2418.29,-141.99"/>
</g>
<!-- Node26 -->
<g id="node23" class="node">
<title>Node26</title>
<g id="a_node23"><a xlink:href="../../d5/d8e/vcubicbezier__p_8h.html" target="_top" xlink:title=" ">
<polygon fill="white" stroke="red" points="2186,-67.5 2186,-97.5 2293,-97.5 2293,-67.5 2186,-67.5"/>
<text text-anchor="start" x="2194" y="-85.5" font-family="Helvetica,sans-Serif" font-size="10.00">src/libs/vgeometry</text>
<text text-anchor="middle" x="2239.5" y="-74.5" font-family="Helvetica,sans-Serif" font-size="10.00">/vcubicbezier_p.h</text>
</a>
</g>
</g>
<!-- Node19&#45;&gt;Node26 -->
<g id="edge25" class="edge">
<title>Node19&#45;&gt;Node26</title>
<path fill="none" stroke="midnightblue" d="M2446.81,-137.4C2404.33,-126.36 2339.04,-109.38 2293.1,-97.44"/>
<polygon fill="midnightblue" stroke="midnightblue" points="2446,-140.81 2456.56,-139.94 2447.76,-134.03 2446,-140.81"/>
</g>
<!-- Node28 -->
<g id="node24" class="node">
<title>Node28</title>
<g id="a_node24"><a xlink:href="../../df/dde/vellipticalarc__p_8h.html" target="_top" xlink:title=" ">
<polygon fill="white" stroke="black" points="2311,-67.5 2311,-97.5 2418,-97.5 2418,-67.5 2311,-67.5"/>
<text text-anchor="start" x="2319" y="-85.5" font-family="Helvetica,sans-Serif" font-size="10.00">src/libs/vgeometry</text>
<text text-anchor="middle" x="2364.5" y="-74.5" font-family="Helvetica,sans-Serif" font-size="10.00">/vellipticalarc_p.h</text>
</a>
</g>
</g>
<!-- Node19&#45;&gt;Node28 -->
<g id="edge26" class="edge">
<title>Node19&#45;&gt;Node28</title>
<path fill="none" stroke="midnightblue" d="M2463.91,-135.19C2442.89,-124.26 2413.17,-108.81 2391.71,-97.65"/>
<polygon fill="midnightblue" stroke="midnightblue" points="2462.41,-138.36 2472.9,-139.87 2465.64,-132.15 2462.41,-138.36"/>
</g>
<!-- Node29 -->
<g id="node25" class="node">
<title>Node29</title>
<g id="a_node25"><a xlink:href="../../d6/dfb/vellipticalarc_8cpp.html" target="_top" xlink:title=" ">
<polygon fill="white" stroke="black" points="1856,-0.5 1856,-30.5 1963,-30.5 1963,-0.5 1856,-0.5"/>
<text text-anchor="start" x="1864" y="-18.5" font-family="Helvetica,sans-Serif" font-size="10.00">src/libs/vgeometry</text>
<text text-anchor="middle" x="1909.5" y="-7.5" font-family="Helvetica,sans-Serif" font-size="10.00">/vellipticalarc.cpp</text>
</a>
</g>
</g>
<!-- Node19&#45;&gt;Node29 -->
<g id="edge28" class="edge">
<title>Node19&#45;&gt;Node29</title>
<path fill="none" stroke="midnightblue" d="M2381.57,-147.08C2126.49,-143.2 1505.38,-130.46 1474.5,-98 1465,-88.02 1465.34,-77.29 1474.5,-67 1499.47,-38.97 1744.82,-24.13 1855.65,-18.81"/>
<polygon fill="midnightblue" stroke="midnightblue" points="2381.55,-150.58 2391.6,-147.23 2381.65,-143.58 2381.55,-150.58"/>
</g>
<!-- Node30 -->
<g id="node26" class="node">
<title>Node30</title>
<g id="a_node26"><a xlink:href="../../d1/d76/vspline__p_8h.html" target="_top" xlink:title=" ">
<polygon fill="white" stroke="red" points="2436,-67.5 2436,-97.5 2543,-97.5 2543,-67.5 2436,-67.5"/>
<text text-anchor="start" x="2444" y="-85.5" font-family="Helvetica,sans-Serif" font-size="10.00">src/libs/vgeometry</text>
<text text-anchor="middle" x="2489.5" y="-74.5" font-family="Helvetica,sans-Serif" font-size="10.00">/vspline_p.h</text>
</a>
</g>
</g>
<!-- Node19&#45;&gt;Node30 -->
<g id="edge29" class="edge">
<title>Node19&#45;&gt;Node30</title>
<path fill="none" stroke="midnightblue" d="M2489.5,-129.41C2489.5,-119.22 2489.5,-106.9 2489.5,-97.59"/>
<polygon fill="midnightblue" stroke="midnightblue" points="2486,-129.73 2489.5,-139.73 2493,-129.73 2486,-129.73"/>
</g>
<!-- Node32 -->
<g id="node27" class="node">
<title>Node32</title>
<g id="a_node27"><a xlink:href="../../d9/d15/vabstractpiece_8cpp.html" target="_top" xlink:title=" ">
<polygon fill="white" stroke="black" points="2561.5,-73 2561.5,-92 2747.5,-92 2747.5,-73 2561.5,-73"/>
<text text-anchor="middle" x="2654.5" y="-80" font-family="Helvetica,sans-Serif" font-size="10.00">src/libs/vlayout/vabstractpiece.cpp</text>
</a>
</g>
</g>
<!-- Node19&#45;&gt;Node32 -->
<g id="edge30" class="edge">
<title>Node19&#45;&gt;Node32</title>
<path fill="none" stroke="midnightblue" d="M2520.97,-136.1C2553.73,-123.2 2604.17,-103.33 2632.76,-92.06"/>
<polygon fill="midnightblue" stroke="midnightblue" points="2519.43,-132.95 2511.41,-139.87 2522,-139.46 2519.43,-132.95"/>
</g>
<!-- Node33 -->
<g id="node28" class="node">
<title>Node33</title>
<g id="a_node28"><a xlink:href="../../db/d65/dialogexporttocsv_8cpp.html" target="_top" xlink:title=" ">
<polygon fill="white" stroke="black" points="2766,-67.5 2766,-97.5 2893,-97.5 2893,-67.5 2766,-67.5"/>
<text text-anchor="start" x="2774" y="-85.5" font-family="Helvetica,sans-Serif" font-size="10.00">src/libs/vmisc/dialogs</text>
<text text-anchor="middle" x="2829.5" y="-74.5" font-family="Helvetica,sans-Serif" font-size="10.00">/dialogexporttocsv.cpp</text>
</a>
</g>
</g>
<!-- Node19&#45;&gt;Node33 -->
<g id="edge32" class="edge">
<title>Node19&#45;&gt;Node33</title>
<path fill="none" stroke="midnightblue" d="M2545.41,-138.08C2599.46,-127.97 2683.62,-112.13 2756.5,-98 2759.54,-97.41 2762.66,-96.8 2765.81,-96.19"/>
<polygon fill="midnightblue" stroke="midnightblue" points="2544.54,-134.68 2535.35,-139.96 2545.83,-141.56 2544.54,-134.68"/>
</g>
<!-- Node34 -->
<g id="node29" class="node">
<title>Node34</title>
<g id="a_node29"><a xlink:href="../../d6/d0b/def_8cpp.html" target="_top" xlink:title=" ">
<polygon fill="white" stroke="black" points="2911.5,-73 2911.5,-92 3033.5,-92 3033.5,-73 2911.5,-73"/>
<text text-anchor="middle" x="2972.5" y="-80" font-family="Helvetica,sans-Serif" font-size="10.00">src/libs/vmisc/def.cpp</text>
</a>
</g>
</g>
<!-- Node19&#45;&gt;Node34 -->
<g id="edge33" class="edge">
<title>Node19&#45;&gt;Node34</title>
<path fill="none" stroke="midnightblue" d="M2585.4,-138.93C2669.09,-130.05 2793.69,-115.59 2901.5,-98 2911.93,-96.3 2923.16,-94.15 2933.54,-92.04"/>
<polygon fill="midnightblue" stroke="midnightblue" points="2584.98,-135.45 2575.4,-139.98 2585.71,-142.41 2584.98,-135.45"/>
</g>
<!-- Node35 -->
<g id="node30" class="node">
<title>Node35</title>
<g id="a_node30"><a xlink:href="../../d0/df6/vabstractapplication_8cpp.html" target="_top" xlink:title=" ">
<polygon fill="white" stroke="black" points="3051.5,-73 3051.5,-92 3257.5,-92 3257.5,-73 3051.5,-73"/>
<text text-anchor="middle" x="3154.5" y="-80" font-family="Helvetica,sans-Serif" font-size="10.00">src/libs/vmisc/vabstractapplication.cpp</text>
</a>
</g>
</g>
<!-- Node19&#45;&gt;Node35 -->
<g id="edge34" class="edge">
<title>Node19&#45;&gt;Node35</title>
<path fill="none" stroke="midnightblue" d="M2597.25,-139.87C2708.79,-130.65 2888.01,-115.05 3042.5,-98 3058.58,-96.23 3075.92,-94.09 3092.05,-92.01"/>
<polygon fill="midnightblue" stroke="midnightblue" points="2596.69,-136.4 2587.01,-140.71 2597.26,-143.38 2596.69,-136.4"/>
</g>
<!-- Node19&#45;&gt;Node36 -->
<g id="edge35" class="edge">
<title>Node19&#45;&gt;Node36</title>
<path fill="none" stroke="midnightblue" d="M2597.32,-145.48C2766.74,-140.06 3105.49,-126.48 3391.5,-98 3407.1,-96.45 3423.98,-94.23 3439.4,-92"/>
<polygon fill="midnightblue" stroke="midnightblue" points="2597.04,-141.99 2587.15,-145.81 2597.26,-148.99 2597.04,-141.99"/>
</g>
<!-- Node37 -->
<g id="node32" class="node">
<title>Node37</title>
<g id="a_node32"><a xlink:href="../../d4/d4f/pmsystems_8cpp.html" target="_top" xlink:title=" ">
<polygon fill="white" stroke="black" points="1320,-67.5 1320,-97.5 1427,-97.5 1427,-67.5 1320,-67.5"/>
<text text-anchor="start" x="1328" y="-85.5" font-family="Helvetica,sans-Serif" font-size="10.00">src/libs/vpatterndb</text>
<text text-anchor="middle" x="1373.5" y="-74.5" font-family="Helvetica,sans-Serif" font-size="10.00">/pmsystems.cpp</text>
</a>
</g>
</g>
<!-- Node19&#45;&gt;Node37 -->
<g id="edge36" class="edge">
<title>Node19&#45;&gt;Node37</title>
<path fill="none" stroke="midnightblue" d="M2381.86,-149.04C2191.4,-148.73 1782.9,-142.33 1441.5,-98 1436.83,-97.39 1432.01,-96.64 1427.18,-95.79"/>
<polygon fill="midnightblue" stroke="midnightblue" points="2381.87,-152.54 2391.87,-149.05 2381.87,-145.54 2381.87,-152.54"/>
</g>
<!-- Node19&#45;&gt;Node38 -->
<g id="edge38" class="edge">
<title>Node19&#45;&gt;Node38</title>
<path fill="none" stroke="midnightblue" d="M2597.48,-146.04C2836.18,-140.19 3402.57,-123.99 3592.5,-98 3595.5,-97.59 3598.57,-97.1 3601.66,-96.56"/>
<polygon fill="midnightblue" stroke="midnightblue" points="2597.31,-142.54 2587.4,-146.28 2597.48,-149.54 2597.31,-142.54"/>
</g>
<!-- Node19&#45;&gt;Node39 -->
<g id="edge39" class="edge">
<title>Node19&#45;&gt;Node39</title>
<path fill="none" stroke="midnightblue" d="M2597.4,-146.63C2855.43,-141.73 3502.69,-126.88 3717.5,-98 3720.5,-97.6 3723.57,-97.12 3726.66,-96.58"/>
<polygon fill="midnightblue" stroke="midnightblue" points="2597.2,-143.13 2587.26,-146.82 2597.33,-150.13 2597.2,-143.13"/>
</g>
<!-- Node40 -->
<g id="node35" class="node">
<title>Node40</title>
<g id="a_node35"><a xlink:href="../../df/dba/vpiecenode__p_8h.html" target="_top" xlink:title=" ">
<polygon fill="white" stroke="black" points="3276,-67.5 3276,-97.5 3383,-97.5 3383,-67.5 3276,-67.5"/>
<text text-anchor="start" x="3284" y="-85.5" font-family="Helvetica,sans-Serif" font-size="10.00">src/libs/vpatterndb</text>
<text text-anchor="middle" x="3329.5" y="-74.5" font-family="Helvetica,sans-Serif" font-size="10.00">/vpiecenode_p.h</text>
</a>
</g>
</g>
<!-- Node19&#45;&gt;Node40 -->
<g id="edge40" class="edge">
<title>Node19&#45;&gt;Node40</title>
<path fill="none" stroke="midnightblue" d="M2597.41,-146.97C2747.99,-143.6 3029.36,-132.76 3266.5,-98 3269.61,-97.54 3272.79,-97.01 3276,-96.43"/>
<polygon fill="midnightblue" stroke="midnightblue" points="2597.16,-143.48 2587.24,-147.19 2597.31,-150.48 2597.16,-143.48"/>
</g>
<!-- Node42 -->
<g id="node37" class="node">
<title>Node42</title>
<g id="a_node37"><a xlink:href="../../de/d3e/vtranslatevars_8cpp.html" target="_top" xlink:title=" ">
<polygon fill="white" stroke="black" points="1483.5,-67.5 1483.5,-97.5 1593.5,-97.5 1593.5,-67.5 1483.5,-67.5"/>
<text text-anchor="start" x="1491.5" y="-85.5" font-family="Helvetica,sans-Serif" font-size="10.00">src/libs/vpatterndb</text>
<text text-anchor="middle" x="1538.5" y="-74.5" font-family="Helvetica,sans-Serif" font-size="10.00">/vtranslatevars.cpp</text>
</a>
</g>
</g>
<!-- Node19&#45;&gt;Node42 -->
<g id="edge42" class="edge">
<title>Node19&#45;&gt;Node42</title>
<path fill="none" stroke="midnightblue" d="M2381.8,-148.11C2214.31,-146.22 1881.65,-137.29 1602.5,-98 1599.57,-97.59 1596.57,-97.11 1593.55,-96.58"/>
<polygon fill="midnightblue" stroke="midnightblue" points="2381.82,-151.61 2391.86,-148.22 2381.89,-144.61 2381.82,-151.61"/>
</g>
<!-- Node28&#45;&gt;Node29 -->
<g id="edge27" class="edge">
<title>Node28&#45;&gt;Node29</title>
<path fill="none" stroke="midnightblue" d="M2301.06,-67.04C2174.08,-44.67 2036.8,-29.27 1963.01,-21.71"/>
<polygon fill="midnightblue" stroke="midnightblue" points="2300.5,-70.49 2310.96,-68.8 2301.73,-63.6 2300.5,-70.49"/>
</g>
<!-- Node40&#45;&gt;Node41 -->
<g id="edge41" class="edge">
<title>Node40&#45;&gt;Node41</title>
<path fill="none" stroke="midnightblue" d="M3392.74,-66.05C3438.1,-54.96 3498.55,-40.19 3541.62,-29.67"/>
<polygon fill="midnightblue" stroke="midnightblue" points="3391.89,-62.65 3383.01,-68.42 3393.55,-69.45 3391.89,-62.65"/>
</g>
<!-- Node66&#45;&gt;Node4 -->
<g id="edge57" class="edge">
<title>Node66&#45;&gt;Node4</title>
<path fill="none" stroke="midnightblue" d="M5346.33,-325.04C5343.93,-308.06 5338.93,-285.43 5328.5,-268 5281.29,-189.12 5189.58,-124.78 5146.68,-97.54"/>
<polygon fill="midnightblue" stroke="midnightblue" points="5342.89,-325.77 5347.55,-335.28 5349.84,-324.94 5342.89,-325.77"/>
</g>
<!-- Node66&#45;&gt;Node5 -->
<g id="edge58" class="edge">
<title>Node66&#45;&gt;Node5</title>
<path fill="none" stroke="midnightblue" d="M5322.85,-329.17C5310.31,-319.23 5295.53,-307.51 5284.26,-298.58"/>
<polygon fill="midnightblue" stroke="midnightblue" points="5320.7,-331.93 5330.71,-335.4 5325.04,-326.44 5320.7,-331.93"/>
</g>
<!-- Node66&#45;&gt;Node65 -->
<g id="edge56" class="edge">
<title>Node66&#45;&gt;Node65</title>
<path fill="none" stroke="midnightblue" d="M5379.08,-330.02C5394.95,-319.9 5413.98,-307.77 5428.41,-298.58"/>
<polygon fill="midnightblue" stroke="midnightblue" points="5377.18,-327.07 5370.63,-335.4 5380.95,-332.97 5377.18,-327.07"/>
</g>
<!-- Node68&#45;&gt;Node4 -->
<g id="edge62" class="edge">
<title>Node68&#45;&gt;Node4</title>
<path fill="none" stroke="midnightblue" d="M5548.42,-325.18C5548.53,-307.61 5545.9,-284.21 5533.5,-268 5444.69,-151.92 5266.44,-106.94 5177.11,-91.16"/>
<polygon fill="midnightblue" stroke="midnightblue" points="5544.92,-325.14 5548.06,-335.26 5551.91,-325.39 5544.92,-325.14"/>
</g>
<!-- Node68&#45;&gt;Node5 -->
<g id="edge63" class="edge">
<title>Node68&#45;&gt;Node5</title>
<path fill="none" stroke="midnightblue" d="M5476.31,-333.21C5427.91,-321.97 5364.56,-307.26 5320.18,-296.96"/>
<polygon fill="midnightblue" stroke="midnightblue" points="5475.56,-336.62 5486.09,-335.48 5477.14,-329.81 5475.56,-336.62"/>
</g>
<!-- Node68&#45;&gt;Node67 -->
<g id="edge61" class="edge">
<title>Node68&#45;&gt;Node67</title>
<path fill="none" stroke="midnightblue" d="M5579.89,-330.3C5597.57,-320.12 5618.9,-307.85 5635.03,-298.58"/>
<polygon fill="midnightblue" stroke="midnightblue" points="5577.94,-327.38 5571.02,-335.4 5581.43,-333.44 5577.94,-327.38"/>
</g>
<!-- Node69&#45;&gt;Node4 -->
<g id="edge66" class="edge">
<title>Node69&#45;&gt;Node4</title>
<path fill="none" stroke="midnightblue" d="M5181.7,-325.41C5168.64,-271.12 5137.24,-140.61 5126.88,-97.55"/>
<polygon fill="midnightblue" stroke="midnightblue" points="5178.32,-326.29 5184.06,-335.2 5185.12,-324.66 5178.32,-326.29"/>
</g>
<!-- Node69&#45;&gt;Node5 -->
<g id="edge67" class="edge">
<title>Node69&#45;&gt;Node5</title>
<path fill="none" stroke="midnightblue" d="M5212.56,-328.88C5224.56,-319.01 5238.63,-307.43 5249.39,-298.58"/>
<polygon fill="midnightblue" stroke="midnightblue" points="5210.14,-326.34 5204.64,-335.4 5214.59,-331.75 5210.14,-326.34"/>
</g>
<!-- Node69&#45;&gt;Node70 -->
<g id="edge65" class="edge">
<title>Node69&#45;&gt;Node70</title>
<path fill="none" stroke="midnightblue" d="M5155.42,-330.02C5138.77,-319.9 5118.81,-307.77 5103.67,-298.58"/>
<polygon fill="midnightblue" stroke="midnightblue" points="5153.92,-333.2 5164.28,-335.4 5157.55,-327.21 5153.92,-333.2"/>
</g>
</g>
</svg>
