<?xml version="1.0" encoding="UTF-8" standalone="no"?>
<!DOCTYPE svg PUBLIC "-//W3C//DTD SVG 1.1//EN"
 "http://www.w3.org/Graphics/SVG/1.1/DTD/svg11.dtd">
<!-- Generated by graphviz version 2.43.0 (0)
 -->
<!-- Title: src/libs/ifc/xml/vdomdocument.h Pages: 1 -->
<svg width="3056pt" height="296pt"
 viewBox="0.00 0.00 3056.00 296.00" xmlns="http://www.w3.org/2000/svg" xmlns:xlink="http://www.w3.org/1999/xlink">
<g id="graph0" class="graph" transform="scale(1 1) rotate(0) translate(4 292)">
<title>src/libs/ifc/xml/vdomdocument.h</title>
<polygon fill="white" stroke="transparent" points="-4,4 -4,-292 3052,-292 3052,4 -4,4"/>
<!-- Node1 -->
<g id="node1" class="node">
<title>Node1</title>
<g id="a_node1"><a xlink:title=" ">
<polygon fill="#bfbfbf" stroke="black" points="1183.5,-268.5 1183.5,-287.5 1359.5,-287.5 1359.5,-268.5 1183.5,-268.5"/>
<text text-anchor="middle" x="1271.5" y="-275.5" font-family="Helvetica,sans-Serif" font-size="10.00">src/libs/ifc/xml/vdomdocument.h</text>
</a>
</g>
</g>
<!-- Node2 -->
<g id="node2" class="node">
<title>Node2</title>
<g id="a_node2"><a xlink:href="../../d0/da1/abstract__converter_8h.html" target="_top" xlink:title=" ">
<polygon fill="white" stroke="black" points="697,-201.5 697,-231.5 828,-231.5 828,-201.5 697,-201.5"/>
<text text-anchor="start" x="705" y="-219.5" font-family="Helvetica,sans-Serif" font-size="10.00">src/libs/ifc/xml/abstract</text>
<text text-anchor="middle" x="762.5" y="-208.5" font-family="Helvetica,sans-Serif" font-size="10.00">_converter.h</text>
</a>
</g>
</g>
<!-- Node1&#45;&gt;Node2 -->
<g id="edge1" class="edge">
<title>Node1&#45;&gt;Node2</title>
<path fill="none" stroke="midnightblue" d="M1188.44,-267.29C1087.73,-255.52 920.09,-235.92 828.02,-225.16"/>
<polygon fill="midnightblue" stroke="midnightblue" points="1188.23,-270.79 1198.57,-268.48 1189.05,-263.84 1188.23,-270.79"/>
</g>
<!-- Node10 -->
<g id="node10" class="node">
<title>Node10</title>
<g id="a_node10"><a xlink:href="../../d0/d08/abstract__converter_8cpp.html" target="_top" xlink:title=" ">
<polygon fill="white" stroke="black" points="1052,-134.5 1052,-164.5 1183,-164.5 1183,-134.5 1052,-134.5"/>
<text text-anchor="start" x="1060" y="-152.5" font-family="Helvetica,sans-Serif" font-size="10.00">src/libs/ifc/xml/abstract</text>
<text text-anchor="middle" x="1117.5" y="-141.5" font-family="Helvetica,sans-Serif" font-size="10.00">_converter.cpp</text>
</a>
</g>
</g>
<!-- Node1&#45;&gt;Node10 -->
<g id="edge24" class="edge">
<title>Node1&#45;&gt;Node10</title>
<path fill="none" stroke="midnightblue" d="M1206.31,-266.55C1168.07,-258.95 1125.06,-247.31 1113.5,-232 1098.82,-212.55 1105.67,-182.45 1111.75,-164.78"/>
<polygon fill="midnightblue" stroke="midnightblue" points="1205.94,-270.05 1216.42,-268.5 1207.26,-263.17 1205.94,-270.05"/>
</g>
<!-- Node16 -->
<g id="node16" class="node">
<title>Node16</title>
<g id="a_node16"><a xlink:href="../../de/d7d/vabstractpattern_8cpp.html" target="_top" xlink:title=" ">
<polygon fill="white" stroke="black" points="1234.5,-73 1234.5,-92 1426.5,-92 1426.5,-73 1234.5,-73"/>
<text text-anchor="middle" x="1330.5" y="-80" font-family="Helvetica,sans-Serif" font-size="10.00">src/libs/ifc/xml/vabstractpattern.cpp</text>
</a>
</g>
</g>
<!-- Node1&#45;&gt;Node16 -->
<g id="edge48" class="edge">
<title>Node1&#45;&gt;Node16</title>
<path fill="none" stroke="midnightblue" d="M1289.11,-261.36C1296.95,-253.37 1305.52,-243.02 1310.5,-232 1332.76,-182.68 1332.05,-115.47 1331,-92"/>
<polygon fill="midnightblue" stroke="midnightblue" points="1286.46,-259.05 1281.67,-268.49 1291.31,-264.1 1286.46,-259.05"/>
</g>
<!-- Node18 -->
<g id="node18" class="node">
<title>Node18</title>
<g id="a_node18"><a xlink:href="../../d0/d89/vabstractpattern_8h.html" target="_top" xlink:title=" ">
<polygon fill="white" stroke="black" points="1944,-207 1944,-226 2125,-226 2125,-207 1944,-207"/>
<text text-anchor="middle" x="2034.5" y="-214" font-family="Helvetica,sans-Serif" font-size="10.00">src/libs/ifc/xml/vabstractpattern.h</text>
</a>
</g>
</g>
<!-- Node1&#45;&gt;Node18 -->
<g id="edge25" class="edge">
<title>Node1&#45;&gt;Node18</title>
<path fill="none" stroke="midnightblue" d="M1369.83,-269.33C1518.77,-257.72 1799.47,-235.83 1943.77,-224.57"/>
<polygon fill="midnightblue" stroke="midnightblue" points="1369.47,-265.85 1359.77,-270.12 1370.01,-272.83 1369.47,-265.85"/>
</g>
<!-- Node19 -->
<g id="node19" class="node">
<title>Node19</title>
<g id="a_node19"><a xlink:href="../../d2/d47/image__dialog_8cpp.html" target="_top" xlink:title=" ">
<polygon fill="white" stroke="black" points="1606.5,-134.5 1606.5,-164.5 1718.5,-164.5 1718.5,-134.5 1606.5,-134.5"/>
<text text-anchor="start" x="1614.5" y="-152.5" font-family="Helvetica,sans-Serif" font-size="10.00">src/libs/tools/image</text>
<text text-anchor="middle" x="1662.5" y="-141.5" font-family="Helvetica,sans-Serif" font-size="10.00">_dialog.cpp</text>
</a>
</g>
</g>
<!-- Node1&#45;&gt;Node19 -->
<g id="edge49" class="edge">
<title>Node1&#45;&gt;Node19</title>
<path fill="none" stroke="midnightblue" d="M1369.67,-273.32C1425.94,-268.34 1496.83,-257.09 1555.5,-232 1593.29,-215.84 1629.69,-183.38 1648.75,-164.67"/>
<polygon fill="midnightblue" stroke="midnightblue" points="1369.37,-269.83 1359.69,-274.15 1369.95,-276.81 1369.37,-269.83"/>
</g>
<!-- Node37 -->
<g id="node37" class="node">
<title>Node37</title>
<g id="a_node37"><a xlink:href="../../d7/d49/vdomdocument_8cpp.html" target="_top" xlink:title=" ">
<polygon fill="white" stroke="black" points="1358.5,-207 1358.5,-226 1546.5,-226 1546.5,-207 1358.5,-207"/>
<text text-anchor="middle" x="1452.5" y="-214" font-family="Helvetica,sans-Serif" font-size="10.00">src/libs/ifc/xml/vdomdocument.cpp</text>
</a>
</g>
</g>
<!-- Node1&#45;&gt;Node37 -->
<g id="edge47" class="edge">
<title>Node1&#45;&gt;Node37</title>
<path fill="none" stroke="midnightblue" d="M1307.3,-265.23C1342.48,-253.67 1395.32,-236.3 1426.62,-226.01"/>
<polygon fill="midnightblue" stroke="midnightblue" points="1305.84,-262.03 1297.43,-268.48 1308.03,-268.68 1305.84,-262.03"/>
</g>
<!-- Node38 -->
<g id="node38" class="node">
<title>Node38</title>
<g id="a_node38"><a xlink:href="../../dc/db7/measurements_8h.html" target="_top" xlink:title=" ">
<polygon fill="white" stroke="black" points="1123,-207 1123,-226 1302,-226 1302,-207 1123,-207"/>
<text text-anchor="middle" x="1212.5" y="-214" font-family="Helvetica,sans-Serif" font-size="10.00">src/libs/vformat/measurements.h</text>
</a>
</g>
</g>
<!-- Node1&#45;&gt;Node38 -->
<g id="edge50" class="edge">
<title>Node1&#45;&gt;Node38</title>
<path fill="none" stroke="midnightblue" d="M1255.96,-261.32C1244.75,-250.02 1230.04,-235.19 1220.94,-226.01"/>
<polygon fill="midnightblue" stroke="midnightblue" points="1253.52,-263.84 1263.05,-268.48 1258.49,-258.91 1253.52,-263.84"/>
</g>
<!-- Node39 -->
<g id="node39" class="node">
<title>Node39</title>
<g id="a_node39"><a xlink:href="../../d2/d8a/vlabeltemplate_8h.html" target="_top" xlink:title=" ">
<polygon fill="white" stroke="black" points="250,-207 250,-226 429,-226 429,-207 250,-207"/>
<text text-anchor="middle" x="339.5" y="-214" font-family="Helvetica,sans-Serif" font-size="10.00">src/libs/vformat/vlabeltemplate.h</text>
</a>
</g>
</g>
<!-- Node1&#45;&gt;Node39 -->
<g id="edge52" class="edge">
<title>Node1&#45;&gt;Node39</title>
<path fill="none" stroke="midnightblue" d="M1173.31,-270.73C991.39,-259.12 604.58,-234.42 429.24,-223.23"/>
<polygon fill="midnightblue" stroke="midnightblue" points="1173.2,-274.23 1183.4,-271.38 1173.64,-267.25 1173.2,-274.23"/>
</g>
<!-- Node3 -->
<g id="node3" class="node">
<title>Node3</title>
<g id="a_node3"><a xlink:href="../../da/d2c/abstract__m__converter_8h.html" target="_top" xlink:title=" ">
<polygon fill="white" stroke="black" points="584,-134.5 584,-164.5 715,-164.5 715,-134.5 584,-134.5"/>
<text text-anchor="start" x="592" y="-152.5" font-family="Helvetica,sans-Serif" font-size="10.00">src/libs/ifc/xml/abstract</text>
<text text-anchor="middle" x="649.5" y="-141.5" font-family="Helvetica,sans-Serif" font-size="10.00">_m_converter.h</text>
</a>
</g>
</g>
<!-- Node2&#45;&gt;Node3 -->
<g id="edge2" class="edge">
<title>Node2&#45;&gt;Node3</title>
<path fill="none" stroke="midnightblue" d="M729.11,-196.3C711.43,-186.12 690.1,-173.85 673.97,-164.58"/>
<polygon fill="midnightblue" stroke="midnightblue" points="727.57,-199.44 737.98,-201.4 731.06,-193.38 727.57,-199.44"/>
</g>
<!-- Node4 -->
<g id="node4" class="node">
<title>Node4</title>
<g id="a_node4"><a xlink:href="../../de/dec/abstract__m__converter_8cpp.html" target="_top" xlink:title=" ">
<polygon fill="white" stroke="black" points="458,-67.5 458,-97.5 589,-97.5 589,-67.5 458,-67.5"/>
<text text-anchor="start" x="466" y="-85.5" font-family="Helvetica,sans-Serif" font-size="10.00">src/libs/ifc/xml/abstract</text>
<text text-anchor="middle" x="523.5" y="-74.5" font-family="Helvetica,sans-Serif" font-size="10.00">_m_converter.cpp</text>
</a>
</g>
</g>
<!-- Node2&#45;&gt;Node4 -->
<g id="edge12" class="edge">
<title>Node2&#45;&gt;Node4</title>
<path fill="none" stroke="midnightblue" d="M686.64,-208.19C649.93,-201.58 606.91,-188.98 574.5,-165 551.02,-147.63 535.81,-115.92 528.53,-97.6"/>
<polygon fill="midnightblue" stroke="midnightblue" points="686.37,-211.7 696.82,-209.9 687.53,-204.79 686.37,-211.7"/>
</g>
<!-- Node5 -->
<g id="node5" class="node">
<title>Node5</title>
<g id="a_node5"><a xlink:href="../../d0/d93/individual__size__converter_8h.html" target="_top" xlink:title=" ">
<polygon fill="white" stroke="black" points="684,-67.5 684,-97.5 823,-97.5 823,-67.5 684,-67.5"/>
<text text-anchor="start" x="692" y="-85.5" font-family="Helvetica,sans-Serif" font-size="10.00">src/libs/ifc/xml/individual</text>
<text text-anchor="middle" x="753.5" y="-74.5" font-family="Helvetica,sans-Serif" font-size="10.00">_size_converter.h</text>
</a>
</g>
</g>
<!-- Node2&#45;&gt;Node5 -->
<g id="edge13" class="edge">
<title>Node2&#45;&gt;Node5</title>
<path fill="none" stroke="midnightblue" d="M760.86,-191.39C758.98,-163.9 755.98,-119.89 754.46,-97.52"/>
<polygon fill="midnightblue" stroke="midnightblue" points="757.36,-191.63 761.54,-201.37 764.35,-191.16 757.36,-191.63"/>
</g>
<!-- Node9 -->
<g id="node9" class="node">
<title>Node9</title>
<g id="a_node9"><a xlink:href="../../d5/d4c/multi__size__converter_8h.html" target="_top" xlink:title=" ">
<polygon fill="white" stroke="black" points="841.5,-67.5 841.5,-97.5 957.5,-97.5 957.5,-67.5 841.5,-67.5"/>
<text text-anchor="start" x="849.5" y="-85.5" font-family="Helvetica,sans-Serif" font-size="10.00">src/libs/ifc/xml/multi</text>
<text text-anchor="middle" x="899.5" y="-74.5" font-family="Helvetica,sans-Serif" font-size="10.00">_size_converter.h</text>
</a>
</g>
</g>
<!-- Node2&#45;&gt;Node9 -->
<g id="edge15" class="edge">
<title>Node2&#45;&gt;Node9</title>
<path fill="none" stroke="midnightblue" d="M770.7,-191.66C777.73,-174.02 789.3,-150.33 805.5,-134 821.29,-118.09 843.15,-105.94 861.82,-97.55"/>
<polygon fill="midnightblue" stroke="midnightblue" points="767.34,-190.65 767.09,-201.24 773.89,-193.12 767.34,-190.65"/>
</g>
<!-- Node2&#45;&gt;Node10 -->
<g id="edge14" class="edge">
<title>Node2&#45;&gt;Node10</title>
<path fill="none" stroke="midnightblue" d="M838.07,-202.13C894.45,-192.1 973.33,-177.92 1042.5,-165 1045.5,-164.44 1048.56,-163.86 1051.66,-163.28"/>
<polygon fill="midnightblue" stroke="midnightblue" points="837.4,-198.7 828.17,-203.9 838.63,-205.59 837.4,-198.7"/>
</g>
<!-- Node11 -->
<g id="node11" class="node">
<title>Node11</title>
<g id="a_node11"><a xlink:href="../../d4/d90/fvupdater_8cpp.html" target="_top" xlink:title=" ">
<polygon fill="white" stroke="black" points="131,-140 131,-159 284,-159 284,-140 131,-140"/>
<text text-anchor="middle" x="207.5" y="-147" font-family="Helvetica,sans-Serif" font-size="10.00">src/libs/fervor/fvupdater.cpp</text>
</a>
</g>
</g>
<!-- Node2&#45;&gt;Node11 -->
<g id="edge16" class="edge">
<title>Node2&#45;&gt;Node11</title>
<path fill="none" stroke="midnightblue" d="M686.56,-208.73C593.67,-200.13 431.71,-184.07 293.5,-165 281.05,-163.28 267.63,-161.15 255.19,-159.06"/>
<polygon fill="midnightblue" stroke="midnightblue" points="686.44,-212.23 696.71,-209.67 687.08,-205.26 686.44,-212.23"/>
</g>
<!-- Node12 -->
<g id="node12" class="node">
<title>Node12</title>
<g id="a_node12"><a xlink:href="../../d5/d35/vlabeltemplateconverter_8h.html" target="_top" xlink:title=" ">
<polygon fill="white" stroke="black" points="302.5,-140 302.5,-159 522.5,-159 522.5,-140 302.5,-140"/>
<text text-anchor="middle" x="412.5" y="-147" font-family="Helvetica,sans-Serif" font-size="10.00">src/libs/ifc/xml/vlabeltemplateconverter.h</text>
</a>
</g>
</g>
<!-- Node2&#45;&gt;Node12 -->
<g id="edge17" class="edge">
<title>Node2&#45;&gt;Node12</title>
<path fill="none" stroke="midnightblue" d="M686.65,-201.41C617.16,-188.51 516.55,-169.82 458.51,-159.04"/>
<polygon fill="midnightblue" stroke="midnightblue" points="686.2,-204.89 696.67,-203.27 687.47,-198.01 686.2,-204.89"/>
</g>
<!-- Node15 -->
<g id="node15" class="node">
<title>Node15</title>
<g id="a_node15"><a xlink:href="../../df/d2f/vpatternconverter_8h.html" target="_top" xlink:title=" ">
<polygon fill="white" stroke="black" points="847,-140 847,-159 1034,-159 1034,-140 847,-140"/>
<text text-anchor="middle" x="940.5" y="-147" font-family="Helvetica,sans-Serif" font-size="10.00">src/libs/ifc/xml/vpatternconverter.h</text>
</a>
</g>
</g>
<!-- Node2&#45;&gt;Node15 -->
<g id="edge20" class="edge">
<title>Node2&#45;&gt;Node15</title>
<path fill="none" stroke="midnightblue" d="M810.57,-197.95C845.14,-185.32 890.25,-168.85 917.2,-159.01"/>
<polygon fill="midnightblue" stroke="midnightblue" points="809.32,-194.68 801.12,-201.4 811.72,-201.25 809.32,-194.68"/>
</g>
<!-- Node17 -->
<g id="node17" class="node">
<title>Node17</title>
<g id="a_node17"><a xlink:href="../../d5/d2c/vpatternconverter_8cpp.html" target="_top" xlink:title=" ">
<polygon fill="white" stroke="black" points="975.5,-73 975.5,-92 1173.5,-92 1173.5,-73 975.5,-73"/>
<text text-anchor="middle" x="1074.5" y="-80" font-family="Helvetica,sans-Serif" font-size="10.00">src/libs/ifc/xml/vpatternconverter.cpp</text>
</a>
</g>
</g>
<!-- Node2&#45;&gt;Node17 -->
<g id="edge23" class="edge">
<title>Node2&#45;&gt;Node17</title>
<path fill="none" stroke="midnightblue" d="M781.41,-193.62C801.27,-170.84 830.59,-137.94 837.5,-134 867.19,-117.06 954.68,-101.28 1014.63,-92.01"/>
<polygon fill="midnightblue" stroke="midnightblue" points="778.74,-191.34 774.82,-201.19 784.03,-195.94 778.74,-191.34"/>
</g>
<!-- Node3&#45;&gt;Node4 -->
<g id="edge3" class="edge">
<title>Node3&#45;&gt;Node4</title>
<path fill="none" stroke="midnightblue" d="M613.08,-129.71C593.21,-119.46 569.02,-106.98 550.79,-97.58"/>
<polygon fill="midnightblue" stroke="midnightblue" points="611.67,-132.92 622.16,-134.4 614.88,-126.7 611.67,-132.92"/>
</g>
<!-- Node3&#45;&gt;Node5 -->
<g id="edge4" class="edge">
<title>Node3&#45;&gt;Node5</title>
<path fill="none" stroke="midnightblue" d="M680.68,-129.02C696.86,-118.9 716.27,-106.77 730.98,-97.58"/>
<polygon fill="midnightblue" stroke="midnightblue" points="678.69,-126.13 672.07,-134.4 682.4,-132.06 678.69,-126.13"/>
</g>
<!-- Node6 -->
<g id="node6" class="node">
<title>Node6</title>
<g id="a_node6"><a xlink:href="../../d5/d6e/individual__size__converter_8cpp.html" target="_top" xlink:title=" ">
<polygon fill="white" stroke="black" points="548,-0.5 548,-30.5 687,-30.5 687,-0.5 548,-0.5"/>
<text text-anchor="start" x="556" y="-18.5" font-family="Helvetica,sans-Serif" font-size="10.00">src/libs/ifc/xml/individual</text>
<text text-anchor="middle" x="617.5" y="-7.5" font-family="Helvetica,sans-Serif" font-size="10.00">_size_converter.cpp</text>
</a>
</g>
</g>
<!-- Node3&#45;&gt;Node6 -->
<g id="edge8" class="edge">
<title>Node3&#45;&gt;Node6</title>
<path fill="none" stroke="midnightblue" d="M643.66,-124.39C636.99,-96.9 626.32,-52.89 620.9,-30.52"/>
<polygon fill="midnightblue" stroke="midnightblue" points="640.32,-125.48 646.08,-134.37 647.12,-123.83 640.32,-125.48"/>
</g>
<!-- Node8 -->
<g id="node8" class="node">
<title>Node8</title>
<g id="a_node8"><a xlink:href="../../d9/d94/multi__size__converter_8cpp.html" target="_top" xlink:title=" ">
<polygon fill="white" stroke="black" points="705.5,-0.5 705.5,-30.5 821.5,-30.5 821.5,-0.5 705.5,-0.5"/>
<text text-anchor="start" x="713.5" y="-18.5" font-family="Helvetica,sans-Serif" font-size="10.00">src/libs/ifc/xml/multi</text>
<text text-anchor="middle" x="763.5" y="-7.5" font-family="Helvetica,sans-Serif" font-size="10.00">_size_converter.cpp</text>
</a>
</g>
</g>
<!-- Node3&#45;&gt;Node8 -->
<g id="edge7" class="edge">
<title>Node3&#45;&gt;Node8</title>
<path fill="none" stroke="midnightblue" d="M652.11,-124.32C655.06,-106.82 661.31,-83.44 674.5,-67 687.51,-50.79 707.22,-38.85 724.78,-30.66"/>
<polygon fill="midnightblue" stroke="midnightblue" points="648.62,-123.95 650.66,-134.35 655.55,-124.95 648.62,-123.95"/>
</g>
<!-- Node3&#45;&gt;Node9 -->
<g id="edge9" class="edge">
<title>Node3&#45;&gt;Node9</title>
<path fill="none" stroke="midnightblue" d="M713.28,-131.92C754.08,-121.31 806.43,-107.7 845.23,-97.61"/>
<polygon fill="midnightblue" stroke="midnightblue" points="712.24,-128.57 703.44,-134.48 714,-135.35 712.24,-128.57"/>
</g>
<!-- Node5&#45;&gt;Node6 -->
<g id="edge5" class="edge">
<title>Node5&#45;&gt;Node6</title>
<path fill="none" stroke="midnightblue" d="M714.78,-62.99C693.22,-52.69 666.81,-40.07 646.95,-30.58"/>
<polygon fill="midnightblue" stroke="midnightblue" points="713.46,-66.24 723.99,-67.4 716.48,-59.93 713.46,-66.24"/>
</g>
<!-- Node7 -->
<g id="node7" class="node">
<title>Node7</title>
<g id="a_node7"><a xlink:href="../../d9/de3/measurements_8cpp.html" target="_top" xlink:title=" ">
<polygon fill="white" stroke="black" points="839.5,-6 839.5,-25 1029.5,-25 1029.5,-6 839.5,-6"/>
<text text-anchor="middle" x="934.5" y="-13" font-family="Helvetica,sans-Serif" font-size="10.00">src/libs/vformat/measurements.cpp</text>
</a>
</g>
</g>
<!-- Node5&#45;&gt;Node7 -->
<g id="edge6" class="edge">
<title>Node5&#45;&gt;Node7</title>
<path fill="none" stroke="midnightblue" d="M802.38,-63.95C837.54,-51.32 883.4,-34.85 910.81,-25.01"/>
<polygon fill="midnightblue" stroke="midnightblue" points="801,-60.72 792.77,-67.4 803.37,-67.31 801,-60.72"/>
</g>
<!-- Node9&#45;&gt;Node7 -->
<g id="edge11" class="edge">
<title>Node9&#45;&gt;Node7</title>
<path fill="none" stroke="midnightblue" d="M912,-58.29C918.18,-46.8 925.28,-33.63 929.82,-25.19"/>
<polygon fill="midnightblue" stroke="midnightblue" points="908.75,-56.93 907.09,-67.4 914.92,-60.25 908.75,-56.93"/>
</g>
<!-- Node9&#45;&gt;Node8 -->
<g id="edge10" class="edge">
<title>Node9&#45;&gt;Node8</title>
<path fill="none" stroke="midnightblue" d="M860.78,-62.99C839.22,-52.69 812.81,-40.07 792.95,-30.58"/>
<polygon fill="midnightblue" stroke="midnightblue" points="859.46,-66.24 869.99,-67.4 862.48,-59.93 859.46,-66.24"/>
</g>
<!-- Node13 -->
<g id="node13" class="node">
<title>Node13</title>
<g id="a_node13"><a xlink:href="../../d7/d63/vlabeltemplateconverter_8cpp.html" target="_top" xlink:title=" ">
<polygon fill="white" stroke="black" points="209,-73 209,-92 440,-92 440,-73 209,-73"/>
<text text-anchor="middle" x="324.5" y="-80" font-family="Helvetica,sans-Serif" font-size="10.00">src/libs/ifc/xml/vlabeltemplateconverter.cpp</text>
</a>
</g>
</g>
<!-- Node12&#45;&gt;Node13 -->
<g id="edge18" class="edge">
<title>Node12&#45;&gt;Node13</title>
<path fill="none" stroke="midnightblue" d="M392.28,-133.57C374.91,-120.74 350.47,-102.69 336.18,-92.13"/>
<polygon fill="midnightblue" stroke="midnightblue" points="390.51,-136.61 400.63,-139.73 394.67,-130.98 390.51,-136.61"/>
</g>
<!-- Node14 -->
<g id="node14" class="node">
<title>Node14</title>
<g id="a_node14"><a xlink:href="../../d9/daf/vlabeltemplate_8cpp.html" target="_top" xlink:title=" ">
<polygon fill="white" stroke="black" points="0,-73 0,-92 191,-92 191,-73 0,-73"/>
<text text-anchor="middle" x="95.5" y="-80" font-family="Helvetica,sans-Serif" font-size="10.00">src/libs/vformat/vlabeltemplate.cpp</text>
</a>
</g>
</g>
<!-- Node12&#45;&gt;Node14 -->
<g id="edge19" class="edge">
<title>Node12&#45;&gt;Node14</title>
<path fill="none" stroke="midnightblue" d="M360.7,-137.88C298.27,-125.08 194.59,-103.82 137.11,-92.03"/>
<polygon fill="midnightblue" stroke="midnightblue" points="360.23,-141.36 370.73,-139.94 361.64,-134.5 360.23,-141.36"/>
</g>
<!-- Node15&#45;&gt;Node16 -->
<g id="edge21" class="edge">
<title>Node15&#45;&gt;Node16</title>
<path fill="none" stroke="midnightblue" d="M1001.87,-138.27C1078.4,-125.52 1207.86,-103.94 1279.31,-92.03"/>
<polygon fill="midnightblue" stroke="midnightblue" points="1001.18,-134.84 991.89,-139.94 1002.33,-141.74 1001.18,-134.84"/>
</g>
<!-- Node15&#45;&gt;Node17 -->
<g id="edge22" class="edge">
<title>Node15&#45;&gt;Node17</title>
<path fill="none" stroke="midnightblue" d="M967.42,-135.44C993.96,-122.57 1033.77,-103.26 1056.63,-92.17"/>
<polygon fill="midnightblue" stroke="midnightblue" points="965.76,-132.35 958.29,-139.87 968.82,-138.65 965.76,-132.35"/>
</g>
<!-- Node18&#45;&gt;Node16 -->
<g id="edge26" class="edge">
<title>Node18&#45;&gt;Node16</title>
<path fill="none" stroke="midnightblue" d="M2007.55,-202.24C1988.83,-192.67 1963.56,-179 1942.5,-165 1924.06,-152.74 1924.11,-142.09 1903.5,-134 1806.41,-95.87 1539.21,-109.14 1435.5,-98 1419.95,-96.33 1403.15,-94.17 1387.64,-92.03"/>
<polygon fill="midnightblue" stroke="midnightblue" points="2006.18,-205.47 2016.69,-206.86 2009.34,-199.23 2006.18,-205.47"/>
</g>
<!-- Node18&#45;&gt;Node19 -->
<g id="edge27" class="edge">
<title>Node18&#45;&gt;Node19</title>
<path fill="none" stroke="midnightblue" d="M1975.43,-205.18C1904.9,-192.85 1787.81,-172.4 1718.62,-160.31"/>
<polygon fill="midnightblue" stroke="midnightblue" points="1975.03,-208.66 1985.48,-206.94 1976.24,-201.77 1975.03,-208.66"/>
</g>
<!-- Node20 -->
<g id="node20" class="node">
<title>Node20</title>
<g id="a_node20"><a xlink:href="../../d6/de0/vlayoutpiece_8h.html" target="_top" xlink:title=" ">
<polygon fill="white" stroke="black" points="1951.5,-140 1951.5,-159 2117.5,-159 2117.5,-140 1951.5,-140"/>
<text text-anchor="middle" x="2034.5" y="-147" font-family="Helvetica,sans-Serif" font-size="10.00">src/libs/vlayout/vlayoutpiece.h</text>
</a>
</g>
</g>
<!-- Node18&#45;&gt;Node20 -->
<g id="edge28" class="edge">
<title>Node18&#45;&gt;Node20</title>
<path fill="none" stroke="midnightblue" d="M2034.5,-196.54C2034.5,-184.17 2034.5,-168.62 2034.5,-159.13"/>
<polygon fill="midnightblue" stroke="midnightblue" points="2031,-196.73 2034.5,-206.73 2038,-196.73 2031,-196.73"/>
</g>
<!-- Node30 -->
<g id="node30" class="node">
<title>Node30</title>
<g id="a_node30"><a xlink:href="../../d8/d70/vtextmanager_8cpp.html" target="_top" xlink:title=" ">
<polygon fill="white" stroke="black" points="2636.5,-140 2636.5,-159 2818.5,-159 2818.5,-140 2636.5,-140"/>
<text text-anchor="middle" x="2727.5" y="-147" font-family="Helvetica,sans-Serif" font-size="10.00">src/libs/vlayout/vtextmanager.cpp</text>
</a>
</g>
</g>
<!-- Node18&#45;&gt;Node30 -->
<g id="edge40" class="edge">
<title>Node18&#45;&gt;Node30</title>
<path fill="none" stroke="midnightblue" d="M2135.2,-208.74C2253.32,-200.4 2454.95,-184.84 2627.5,-165 2642.23,-163.31 2658.13,-161.15 2672.82,-159.02"/>
<polygon fill="midnightblue" stroke="midnightblue" points="2134.81,-205.26 2125.08,-209.46 2135.3,-212.25 2134.81,-205.26"/>
</g>
<!-- Node31 -->
<g id="node31" class="node">
<title>Node31</title>
<g id="a_node31"><a xlink:href="../../d0/da5/export__format__combobox_8h.html" target="_top" xlink:title=" ">
<polygon fill="white" stroke="black" points="2136,-134.5 2136,-164.5 2269,-164.5 2269,-134.5 2136,-134.5"/>
<text text-anchor="start" x="2144" y="-152.5" font-family="Helvetica,sans-Serif" font-size="10.00">src/libs/vwidgets/export</text>
<text text-anchor="middle" x="2202.5" y="-141.5" font-family="Helvetica,sans-Serif" font-size="10.00">_format_combobox.h</text>
</a>
</g>
</g>
<!-- Node18&#45;&gt;Node31 -->
<g id="edge41" class="edge">
<title>Node18&#45;&gt;Node31</title>
<path fill="none" stroke="midnightblue" d="M2066.28,-203.2C2094.75,-192.19 2136.48,-176.04 2166.24,-164.53"/>
<polygon fill="midnightblue" stroke="midnightblue" points="2064.87,-200 2056.81,-206.87 2067.4,-206.52 2064.87,-200"/>
</g>
<!-- Node33 -->
<g id="node33" class="node">
<title>Node33</title>
<g id="a_node33"><a xlink:href="../../d7/df4/group__tablewidgetitem_8cpp.html" target="_top" xlink:title=" ">
<polygon fill="white" stroke="black" points="1766,-134.5 1766,-164.5 1895,-164.5 1895,-134.5 1766,-134.5"/>
<text text-anchor="start" x="1774" y="-152.5" font-family="Helvetica,sans-Serif" font-size="10.00">src/libs/vwidgets/group</text>
<text text-anchor="middle" x="1830.5" y="-141.5" font-family="Helvetica,sans-Serif" font-size="10.00">_tablewidgetitem.cpp</text>
</a>
</g>
</g>
<!-- Node18&#45;&gt;Node33 -->
<g id="edge43" class="edge">
<title>Node18&#45;&gt;Node33</title>
<path fill="none" stroke="midnightblue" d="M1997.7,-203.77C1963.11,-192.75 1911.3,-176.24 1874.53,-164.53"/>
<polygon fill="midnightblue" stroke="midnightblue" points="1996.82,-207.17 2007.41,-206.87 1998.94,-200.5 1996.82,-207.17"/>
</g>
<!-- Node34 -->
<g id="node34" class="node">
<title>Node34</title>
<g id="a_node34"><a xlink:href="../../d3/d86/page__format__combobox_8h.html" target="_top" xlink:title=" ">
<polygon fill="white" stroke="black" points="2287,-134.5 2287,-164.5 2412,-164.5 2412,-134.5 2287,-134.5"/>
<text text-anchor="start" x="2295" y="-152.5" font-family="Helvetica,sans-Serif" font-size="10.00">src/libs/vwidgets/page</text>
<text text-anchor="middle" x="2349.5" y="-141.5" font-family="Helvetica,sans-Serif" font-size="10.00">_format_combobox.h</text>
</a>
</g>
</g>
<!-- Node18&#45;&gt;Node34 -->
<g id="edge44" class="edge">
<title>Node18&#45;&gt;Node34</title>
<path fill="none" stroke="midnightblue" d="M2085.88,-204.9C2140.85,-193.56 2228.06,-175.56 2286.98,-163.4"/>
<polygon fill="midnightblue" stroke="midnightblue" points="2085.09,-201.49 2076,-206.94 2086.51,-208.34 2085.09,-201.49"/>
</g>
<!-- Node36 -->
<g id="node36" class="node">
<title>Node36</title>
<g id="a_node36"><a xlink:href="../../de/d22/vsimplecurve_8cpp.html" target="_top" xlink:title=" ">
<polygon fill="white" stroke="black" points="2430.5,-140 2430.5,-159 2618.5,-159 2618.5,-140 2430.5,-140"/>
<text text-anchor="middle" x="2524.5" y="-147" font-family="Helvetica,sans-Serif" font-size="10.00">src/libs/vwidgets/vsimplecurve.cpp</text>
</a>
</g>
</g>
<!-- Node18&#45;&gt;Node36 -->
<g id="edge46" class="edge">
<title>Node18&#45;&gt;Node36</title>
<path fill="none" stroke="midnightblue" d="M2111.54,-205.68C2189.66,-195.67 2314.03,-179.58 2421.5,-165 2435.46,-163.11 2450.47,-161.02 2464.6,-159.04"/>
<polygon fill="midnightblue" stroke="midnightblue" points="2110.77,-202.25 2101.3,-206.99 2111.66,-209.19 2110.77,-202.25"/>
</g>
<!-- Node21 -->
<g id="node21" class="node">
<title>Node21</title>
<g id="a_node21"><a xlink:href="../../dd/d66/vdxfengine_8cpp.html" target="_top" xlink:title=" ">
<polygon fill="white" stroke="black" points="2257.5,-73 2257.5,-92 2411.5,-92 2411.5,-73 2257.5,-73"/>
<text text-anchor="middle" x="2334.5" y="-80" font-family="Helvetica,sans-Serif" font-size="10.00">src/libs/vdxf/vdxfengine.cpp</text>
</a>
</g>
</g>
<!-- Node20&#45;&gt;Node21 -->
<g id="edge29" class="edge">
<title>Node20&#45;&gt;Node21</title>
<path fill="none" stroke="midnightblue" d="M2083.87,-137.8C2142.91,-125.01 2240.54,-103.86 2294.88,-92.08"/>
<polygon fill="midnightblue" stroke="midnightblue" points="2083.06,-134.4 2074.03,-139.94 2084.54,-141.24 2083.06,-134.4"/>
</g>
<!-- Node22 -->
<g id="node22" class="node">
<title>Node22</title>
<g id="a_node22"><a xlink:href="../../de/da8/vbank_8cpp.html" target="_top" xlink:title=" ">
<polygon fill="white" stroke="black" points="2429.5,-73 2429.5,-92 2573.5,-92 2573.5,-73 2429.5,-73"/>
<text text-anchor="middle" x="2501.5" y="-80" font-family="Helvetica,sans-Serif" font-size="10.00">src/libs/vlayout/vbank.cpp</text>
</a>
</g>
</g>
<!-- Node20&#45;&gt;Node22 -->
<g id="edge30" class="edge">
<title>Node20&#45;&gt;Node22</title>
<path fill="none" stroke="midnightblue" d="M2097.12,-138.45C2107.27,-136.91 2117.67,-135.37 2127.5,-134 2257.45,-115.89 2290.77,-117.57 2420.5,-98 2432.08,-96.25 2444.56,-94.14 2456.16,-92.07"/>
<polygon fill="midnightblue" stroke="midnightblue" points="2096.43,-135.02 2087.08,-140 2097.5,-141.94 2096.43,-135.02"/>
</g>
<!-- Node23 -->
<g id="node23" class="node">
<title>Node23</title>
<g id="a_node23"><a xlink:href="../../df/d5d/vcontour_8cpp.html" target="_top" xlink:title=" ">
<polygon fill="white" stroke="black" points="2591.5,-73 2591.5,-92 2747.5,-92 2747.5,-73 2591.5,-73"/>
<text text-anchor="middle" x="2669.5" y="-80" font-family="Helvetica,sans-Serif" font-size="10.00">src/libs/vlayout/vcontour.cpp</text>
</a>
</g>
</g>
<!-- Node20&#45;&gt;Node23 -->
<g id="edge31" class="edge">
<title>Node20&#45;&gt;Node23</title>
<path fill="none" stroke="midnightblue" d="M2094.52,-138.46C2105.47,-136.82 2116.81,-135.25 2127.5,-134 2328.97,-110.36 2381.15,-122.7 2582.5,-98 2595.57,-96.4 2609.68,-94.23 2622.65,-92.07"/>
<polygon fill="midnightblue" stroke="midnightblue" points="2093.96,-135.01 2084.6,-139.98 2095.01,-141.92 2093.96,-135.01"/>
</g>
<!-- Node24 -->
<g id="node24" class="node">
<title>Node24</title>
<g id="a_node24"><a xlink:href="../../d3/d39/vlayoutgenerator_8cpp.html" target="_top" xlink:title=" ">
<polygon fill="white" stroke="black" points="1445,-73 1445,-92 1642,-92 1642,-73 1445,-73"/>
<text text-anchor="middle" x="1543.5" y="-80" font-family="Helvetica,sans-Serif" font-size="10.00">src/libs/vlayout/vlayoutgenerator.cpp</text>
</a>
</g>
</g>
<!-- Node20&#45;&gt;Node24 -->
<g id="edge32" class="edge">
<title>Node20&#45;&gt;Node24</title>
<path fill="none" stroke="midnightblue" d="M1969.11,-138.51C1958.55,-136.96 1947.73,-135.41 1937.5,-134 1810.58,-116.53 1778.54,-114.52 1651.5,-98 1636.87,-96.1 1621.12,-94.01 1606.31,-92.02"/>
<polygon fill="midnightblue" stroke="midnightblue" points="1968.73,-142 1979.13,-140 1969.75,-135.07 1968.73,-142"/>
</g>
<!-- Node25 -->
<g id="node25" class="node">
<title>Node25</title>
<g id="a_node25"><a xlink:href="../../d2/d2d/vlayoutpaper__p_8h.html" target="_top" xlink:title=" ">
<polygon fill="white" stroke="black" points="1827,-73 1827,-92 2006,-92 2006,-73 1827,-73"/>
<text text-anchor="middle" x="1916.5" y="-80" font-family="Helvetica,sans-Serif" font-size="10.00">src/libs/vlayout/vlayoutpaper_p.h</text>
</a>
</g>
</g>
<!-- Node20&#45;&gt;Node25 -->
<g id="edge33" class="edge">
<title>Node20&#45;&gt;Node25</title>
<path fill="none" stroke="midnightblue" d="M2009.61,-134.79C1986.22,-121.9 1951.94,-103.02 1932.16,-92.13"/>
<polygon fill="midnightblue" stroke="midnightblue" points="2008.14,-137.97 2018.59,-139.73 2011.52,-131.84 2008.14,-137.97"/>
</g>
<!-- Node26 -->
<g id="node26" class="node">
<title>Node26</title>
<g id="a_node26"><a xlink:href="../../d1/dd1/vlayoutpaper_8cpp.html" target="_top" xlink:title=" ">
<polygon fill="white" stroke="black" points="1829.5,-6 1829.5,-25 2007.5,-25 2007.5,-6 1829.5,-6"/>
<text text-anchor="middle" x="1918.5" y="-13" font-family="Helvetica,sans-Serif" font-size="10.00">src/libs/vlayout/vlayoutpaper.cpp</text>
</a>
</g>
</g>
<!-- Node20&#45;&gt;Node26 -->
<g id="edge35" class="edge">
<title>Node20&#45;&gt;Node26</title>
<path fill="none" stroke="midnightblue" d="M2034.47,-129.87C2033.52,-112.02 2029.6,-85.16 2015.5,-67 1999.09,-45.85 1971.33,-32.68 1949.7,-25.11"/>
<polygon fill="midnightblue" stroke="midnightblue" points="2030.97,-129.99 2034.74,-139.9 2037.97,-129.81 2030.97,-129.99"/>
</g>
<!-- Node27 -->
<g id="node27" class="node">
<title>Node27</title>
<g id="a_node27"><a xlink:href="../../db/d5c/vposition_8h.html" target="_top" xlink:title=" ">
<polygon fill="white" stroke="black" points="1660.5,-73 1660.5,-92 1808.5,-92 1808.5,-73 1660.5,-73"/>
<text text-anchor="middle" x="1734.5" y="-80" font-family="Helvetica,sans-Serif" font-size="10.00">src/libs/vlayout/vposition.h</text>
</a>
</g>
</g>
<!-- Node20&#45;&gt;Node27 -->
<g id="edge36" class="edge">
<title>Node20&#45;&gt;Node27</title>
<path fill="none" stroke="midnightblue" d="M1985.13,-137.8C1926.09,-125.01 1828.46,-103.86 1774.12,-92.08"/>
<polygon fill="midnightblue" stroke="midnightblue" points="1984.46,-141.24 1994.97,-139.94 1985.94,-134.4 1984.46,-141.24"/>
</g>
<!-- Node29 -->
<g id="node29" class="node">
<title>Node29</title>
<g id="a_node29"><a xlink:href="../../dd/d70/vlayoutpiece_8cpp.html" target="_top" xlink:title=" ">
<polygon fill="white" stroke="black" points="2062,-73 2062,-92 2239,-92 2239,-73 2062,-73"/>
<text text-anchor="middle" x="2150.5" y="-80" font-family="Helvetica,sans-Serif" font-size="10.00">src/libs/vlayout/vlayoutpiece.cpp</text>
</a>
</g>
</g>
<!-- Node20&#45;&gt;Node29 -->
<g id="edge39" class="edge">
<title>Node20&#45;&gt;Node29</title>
<path fill="none" stroke="midnightblue" d="M2058.97,-134.79C2081.96,-121.9 2115.66,-103.02 2135.1,-92.13"/>
<polygon fill="midnightblue" stroke="midnightblue" points="2057.16,-131.79 2050.14,-139.73 2060.58,-137.9 2057.16,-131.79"/>
</g>
<!-- Node25&#45;&gt;Node26 -->
<g id="edge34" class="edge">
<title>Node25&#45;&gt;Node26</title>
<path fill="none" stroke="midnightblue" d="M1917.08,-62.54C1917.46,-50.17 1917.94,-34.62 1918.23,-25.13"/>
<polygon fill="midnightblue" stroke="midnightblue" points="1913.58,-62.63 1916.77,-72.73 1920.58,-62.85 1913.58,-62.63"/>
</g>
<!-- Node27&#45;&gt;Node26 -->
<g id="edge37" class="edge">
<title>Node27&#45;&gt;Node26</title>
<path fill="none" stroke="midnightblue" d="M1768.65,-69.44C1805.15,-56.54 1862.1,-36.42 1894.26,-25.06"/>
<polygon fill="midnightblue" stroke="midnightblue" points="1767.2,-66.24 1758.93,-72.87 1769.53,-72.84 1767.2,-66.24"/>
</g>
<!-- Node28 -->
<g id="node28" class="node">
<title>Node28</title>
<g id="a_node28"><a xlink:href="../../df/d76/vposition_8cpp.html" target="_top" xlink:title=" ">
<polygon fill="white" stroke="black" points="1653,-6 1653,-25 1812,-25 1812,-6 1653,-6"/>
<text text-anchor="middle" x="1732.5" y="-13" font-family="Helvetica,sans-Serif" font-size="10.00">src/libs/vlayout/vposition.cpp</text>
</a>
</g>
</g>
<!-- Node27&#45;&gt;Node28 -->
<g id="edge38" class="edge">
<title>Node27&#45;&gt;Node28</title>
<path fill="none" stroke="midnightblue" d="M1733.92,-62.54C1733.54,-50.17 1733.06,-34.62 1732.77,-25.13"/>
<polygon fill="midnightblue" stroke="midnightblue" points="1730.42,-62.85 1734.23,-72.73 1737.42,-62.63 1730.42,-62.85"/>
</g>
<!-- Node32 -->
<g id="node32" class="node">
<title>Node32</title>
<g id="a_node32"><a xlink:href="../../df/d40/export__format__combobox_8cpp.html" target="_top" xlink:title=" ">
<polygon fill="white" stroke="black" points="2766,-67.5 2766,-97.5 2899,-97.5 2899,-67.5 2766,-67.5"/>
<text text-anchor="start" x="2774" y="-85.5" font-family="Helvetica,sans-Serif" font-size="10.00">src/libs/vwidgets/export</text>
<text text-anchor="middle" x="2832.5" y="-74.5" font-family="Helvetica,sans-Serif" font-size="10.00">_format_combobox.cpp</text>
</a>
</g>
</g>
<!-- Node31&#45;&gt;Node32 -->
<g id="edge42" class="edge">
<title>Node31&#45;&gt;Node32</title>
<path fill="none" stroke="midnightblue" d="M2279.38,-134C2491.47,-106.61 2548.6,-125.57 2756.5,-98 2759.56,-97.59 2762.69,-97.14 2765.84,-96.66"/>
<polygon fill="midnightblue" stroke="midnightblue" points="2278.62,-130.57 2269.16,-135.34 2279.53,-137.51 2278.62,-130.57"/>
</g>
<!-- Node35 -->
<g id="node35" class="node">
<title>Node35</title>
<g id="a_node35"><a xlink:href="../../d2/d28/page__format__combobox_8cpp.html" target="_top" xlink:title=" ">
<polygon fill="white" stroke="black" points="2917,-67.5 2917,-97.5 3048,-97.5 3048,-67.5 2917,-67.5"/>
<text text-anchor="start" x="2925" y="-85.5" font-family="Helvetica,sans-Serif" font-size="10.00">src/libs/vwidgets/page</text>
<text text-anchor="middle" x="2982.5" y="-74.5" font-family="Helvetica,sans-Serif" font-size="10.00">_format_combobox.cpp</text>
</a>
</g>
</g>
<!-- Node34&#45;&gt;Node35 -->
<g id="edge45" class="edge">
<title>Node34&#45;&gt;Node35</title>
<path fill="none" stroke="midnightblue" d="M2422.32,-134.02C2638.28,-105.18 2696.66,-126.48 2908.5,-98 2911.22,-97.63 2914,-97.23 2916.8,-96.8"/>
<polygon fill="midnightblue" stroke="midnightblue" points="2421.69,-130.57 2412.25,-135.38 2422.63,-137.51 2421.69,-130.57"/>
</g>
<!-- Node38&#45;&gt;Node7 -->
<g id="edge51" class="edge">
<title>Node38&#45;&gt;Node7</title>
<path fill="none" stroke="midnightblue" d="M1214.67,-197C1217.24,-165.62 1217.42,-101.98 1182.5,-67 1160.96,-45.43 1089.92,-32.41 1029.36,-25"/>
<polygon fill="midnightblue" stroke="midnightblue" points="1211.19,-196.69 1213.68,-206.99 1218.15,-197.38 1211.19,-196.69"/>
</g>
<!-- Node39&#45;&gt;Node14 -->
<g id="edge53" class="edge">
<title>Node39&#45;&gt;Node14</title>
<path fill="none" stroke="midnightblue" d="M260.28,-205.48C206.56,-197.17 141.77,-183.69 121.5,-165 100.32,-145.47 96.31,-108.74 95.61,-92.09"/>
<polygon fill="midnightblue" stroke="midnightblue" points="259.76,-208.95 270.17,-206.98 260.8,-202.02 259.76,-208.95"/>
</g>
</g>
</svg>
