<?xml version="1.0" encoding="UTF-8" standalone="no"?>
<!DOCTYPE svg PUBLIC "-//W3C//DTD SVG 1.1//EN"
 "http://www.w3.org/Graphics/SVG/1.1/DTD/svg11.dtd">
<!-- Generated by graphviz version 2.43.0 (0)
 -->
<!-- Title: src/libs/vtools/tools/drawTools/operation/vabstractoperation.h Pages: 1 -->
<!--zoomable 351 -->
<svg id="main" version="1.1" xmlns="http://www.w3.org/2000/svg" xmlns:xlink="http://www.w3.org/1999/xlink" xml:space="preserve" onload="init(evt)">
<style type="text/css"><![CDATA[
.edge:hover path { stroke: red; }
.edge:hover polygon { stroke: red; fill: red; }
]]></style>
<script type="text/javascript"><![CDATA[
var edges = document.getElementsByTagName('g');
if (edges && edges.length) {
  for (var i=0;i<edges.length;i++) {
    if (edges[i].id.substr(0,4)=='edge') {
      edges[i].setAttribute('class','edge');
    }
  }
}
]]></script>
        <defs>
                <circle id="rim" cx="0" cy="0" r="7"/>
                <circle id="rim2" cx="0" cy="0" r="3.5"/>
                <g id="zoomPlus">
                        <use xlink:href="#rim" fill="#404040">
                                <set attributeName="fill" to="#808080" begin="zoomplus.mouseover" end="zoomplus.mouseout"/>
                        </use>
                        <path d="M-4,0h8M0,-4v8" fill="none" stroke="white" stroke-width="1.5" pointer-events="none"/>
                </g>
                <g id="zoomMin">
                        <use xlink:href="#rim" fill="#404040">
                                <set attributeName="fill" to="#808080" begin="zoomminus.mouseover" end="zoomminus.mouseout"/>
                        </use>
                        <path d="M-4,0h8" fill="none" stroke="white" stroke-width="1.5" pointer-events="none"/>
                </g>
                <g id="dirArrow">
                        <path fill="none" stroke="white" stroke-width="1.5" d="M0,-3.0v7 M-2.5,-0.5L0,-3.0L2.5,-0.5"/>
                </g>
               <g id="resetDef">
                       <use xlink:href="#rim2" fill="#404040">
                               <set attributeName="fill" to="#808080" begin="reset.mouseover" end="reset.mouseout"/>
                       </use>
               </g>
        </defs>

<script type="text/javascript">
var viewWidth = 1776;
var viewHeight = 351;
var sectionId = 'dynsection-1';
</script>
<script xlink:href="../../svgpan.js"/>
<svg id="graph" class="graph">
<g id="viewport">
<title>src/libs/vtools/tools/drawTools/operation/vabstractoperation.h</title>
<polygon fill="white" stroke="transparent" points="-4,4 -4,-347 1772,-347 1772,4 -4,4"/>
<!-- Node1 -->
<g id="node1" class="node">
<title>Node1</title>
<g id="a_node1"><a xlink:title=" ">
<polygon fill="#bfbfbf" stroke="black" points="860,-301.5 860,-342.5 981,-342.5 981,-301.5 860,-301.5"/>
<text text-anchor="start" x="868" y="-330.5" font-family="Helvetica,sans-Serif" font-size="10.00">src/libs/vtools/tools</text>
<text text-anchor="start" x="868" y="-319.5" font-family="Helvetica,sans-Serif" font-size="10.00">/drawTools/operation</text>
<text text-anchor="middle" x="920.5" y="-308.5" font-family="Helvetica,sans-Serif" font-size="10.00">/vabstractoperation.h</text>
</a>
</g>
</g>
<!-- Node2 -->
<g id="node2" class="node">
<title>Node2</title>
<g id="a_node2"><a xlink:href="../../d8/da9/dialogmirrorbyaxis_8h.html" target="_top" xlink:title=" ">
<polygon fill="white" stroke="black" points="176.5,-229 176.5,-259 324.5,-259 324.5,-229 176.5,-229"/>
<text text-anchor="start" x="184.5" y="-247" font-family="Helvetica,sans-Serif" font-size="10.00">src/libs/vtools/dialogs</text>
<text text-anchor="middle" x="250.5" y="-236" font-family="Helvetica,sans-Serif" font-size="10.00">/tools/dialogmirrorbyaxis.h</text>
</a>
</g>
</g>
<!-- Node1&#45;&gt;Node2 -->
<g id="edge1" class="edge">
<title>Node1&#45;&gt;Node2</title>
<path fill="none" stroke="midnightblue" d="M849.87,-315.93C742.98,-307.81 533.89,-290.21 357.5,-265 345.62,-263.3 333.05,-261.22 320.86,-259.04"/>
<polygon fill="midnightblue" stroke="midnightblue" points="849.66,-319.42 859.89,-316.68 850.18,-312.44 849.66,-319.42"/>
</g>
<!-- Node6 -->
<g id="node6" class="node">
<title>Node6</title>
<g id="a_node6"><a xlink:href="../../d2/d51/dialogmove_8cpp.html" target="_top" xlink:title=" ">
<polygon fill="white" stroke="black" points="569,-151 569,-181 694,-181 694,-151 569,-151"/>
<text text-anchor="start" x="577" y="-169" font-family="Helvetica,sans-Serif" font-size="10.00">src/libs/vtools/dialogs</text>
<text text-anchor="middle" x="631.5" y="-158" font-family="Helvetica,sans-Serif" font-size="10.00">/tools/dialogmove.cpp</text>
</a>
</g>
</g>
<!-- Node1&#45;&gt;Node6 -->
<g id="edge5" class="edge">
<title>Node1&#45;&gt;Node6</title>
<path fill="none" stroke="midnightblue" d="M854.16,-297.71C830.43,-288.54 803.82,-277.26 780.5,-265 750.72,-249.33 745.6,-241.52 717.5,-223 695.78,-208.69 670.86,-192.49 653.46,-181.21"/>
<polygon fill="midnightblue" stroke="midnightblue" points="853.19,-301.09 863.78,-301.38 855.68,-294.55 853.19,-301.09"/>
</g>
<!-- Node7 -->
<g id="node7" class="node">
<title>Node7</title>
<g id="a_node7"><a xlink:href="../../db/d11/dialogmirrorbyline_8h.html" target="_top" xlink:title=" ">
<polygon fill="white" stroke="black" points="366.5,-229 366.5,-259 512.5,-259 512.5,-229 366.5,-229"/>
<text text-anchor="start" x="374.5" y="-247" font-family="Helvetica,sans-Serif" font-size="10.00">src/libs/vtools/dialogs</text>
<text text-anchor="middle" x="439.5" y="-236" font-family="Helvetica,sans-Serif" font-size="10.00">/tools/dialogmirrorbyline.h</text>
</a>
</g>
</g>
<!-- Node1&#45;&gt;Node7 -->
<g id="edge6" class="edge">
<title>Node1&#45;&gt;Node7</title>
<path fill="none" stroke="midnightblue" d="M849.44,-309.77C759.19,-295.51 604.23,-271.03 512.89,-256.6"/>
<polygon fill="midnightblue" stroke="midnightblue" points="849.16,-313.27 859.58,-311.37 850.25,-306.36 849.16,-313.27"/>
</g>
<!-- Node10 -->
<g id="node10" class="node">
<title>Node10</title>
<g id="a_node10"><a xlink:href="../../d4/d1d/dialogmove_8h.html" target="_top" xlink:title=" ">
<polygon fill="white" stroke="black" points="586.5,-229 586.5,-259 708.5,-259 708.5,-229 586.5,-229"/>
<text text-anchor="start" x="594.5" y="-247" font-family="Helvetica,sans-Serif" font-size="10.00">src/libs/vtools/dialogs</text>
<text text-anchor="middle" x="647.5" y="-236" font-family="Helvetica,sans-Serif" font-size="10.00">/tools/dialogmove.h</text>
</a>
</g>
</g>
<!-- Node1&#45;&gt;Node10 -->
<g id="edge10" class="edge">
<title>Node1&#45;&gt;Node10</title>
<path fill="none" stroke="midnightblue" d="M850.27,-301.45C802.59,-288.18 740.67,-270.94 697.86,-259.02"/>
<polygon fill="midnightblue" stroke="midnightblue" points="849.34,-304.82 859.91,-304.13 851.22,-298.08 849.34,-304.82"/>
</g>
<!-- Node12 -->
<g id="node12" class="node">
<title>Node12</title>
<g id="a_node12"><a xlink:href="../../d7/de1/dialogrotation_8h.html" target="_top" xlink:title=" ">
<polygon fill="white" stroke="black" points="789.5,-229 789.5,-259 913.5,-259 913.5,-229 789.5,-229"/>
<text text-anchor="start" x="797.5" y="-247" font-family="Helvetica,sans-Serif" font-size="10.00">src/libs/vtools/dialogs</text>
<text text-anchor="middle" x="851.5" y="-236" font-family="Helvetica,sans-Serif" font-size="10.00">/tools/dialogrotation.h</text>
</a>
</g>
</g>
<!-- Node1&#45;&gt;Node12 -->
<g id="edge14" class="edge">
<title>Node1&#45;&gt;Node12</title>
<path fill="none" stroke="midnightblue" d="M895.98,-293.99C885.32,-282.25 873.28,-268.99 864.42,-259.23"/>
<polygon fill="midnightblue" stroke="midnightblue" points="893.42,-296.38 902.73,-301.43 898.6,-291.67 893.42,-296.38"/>
</g>
<!-- Node15 -->
<g id="node15" class="node">
<title>Node15</title>
<g id="a_node15"><a xlink:href="../../db/d1f/vabstractmirror_8h.html" target="_top" xlink:title=" ">
<polygon fill="white" stroke="black" points="1068,-223.5 1068,-264.5 1205,-264.5 1205,-223.5 1068,-223.5"/>
<text text-anchor="start" x="1076" y="-252.5" font-family="Helvetica,sans-Serif" font-size="10.00">src/libs/vtools/tools</text>
<text text-anchor="start" x="1076" y="-241.5" font-family="Helvetica,sans-Serif" font-size="10.00">/drawTools/operation</text>
<text text-anchor="middle" x="1136.5" y="-230.5" font-family="Helvetica,sans-Serif" font-size="10.00">/mirror/vabstractmirror.h</text>
</a>
</g>
</g>
<!-- Node1&#45;&gt;Node15 -->
<g id="edge18" class="edge">
<title>Node1&#45;&gt;Node15</title>
<path fill="none" stroke="midnightblue" d="M985.79,-298.03C1016.2,-287.33 1051.99,-274.73 1081.06,-264.51"/>
<polygon fill="midnightblue" stroke="midnightblue" points="984.4,-294.81 976.13,-301.43 986.72,-301.41 984.4,-294.81"/>
</g>
<!-- Node21 -->
<g id="node21" class="node">
<title>Node21</title>
<g id="a_node21"><a xlink:href="../../d3/d95/vtoolmove_8h.html" target="_top" xlink:title=" ">
<polygon fill="white" stroke="black" points="931.5,-223.5 931.5,-264.5 1049.5,-264.5 1049.5,-223.5 931.5,-223.5"/>
<text text-anchor="start" x="939.5" y="-252.5" font-family="Helvetica,sans-Serif" font-size="10.00">src/libs/vtools/tools</text>
<text text-anchor="start" x="939.5" y="-241.5" font-family="Helvetica,sans-Serif" font-size="10.00">/drawTools/operation</text>
<text text-anchor="middle" x="990.5" y="-230.5" font-family="Helvetica,sans-Serif" font-size="10.00">/vtoolmove.h</text>
</a>
</g>
</g>
<!-- Node1&#45;&gt;Node21 -->
<g id="edge27" class="edge">
<title>Node1&#45;&gt;Node21</title>
<path fill="none" stroke="midnightblue" d="M945.45,-293.92C954.39,-284.2 964.3,-273.45 972.53,-264.51"/>
<polygon fill="midnightblue" stroke="midnightblue" points="942.73,-291.7 938.53,-301.43 947.88,-296.44 942.73,-291.7"/>
</g>
<!-- Node22 -->
<g id="node22" class="node">
<title>Node22</title>
<g id="a_node22"><a xlink:href="../../d8/de3/vabstractoperation_8cpp.html" target="_top" xlink:title=" ">
<polygon fill="white" stroke="black" points="1223.5,-223.5 1223.5,-264.5 1355.5,-264.5 1355.5,-223.5 1223.5,-223.5"/>
<text text-anchor="start" x="1231.5" y="-252.5" font-family="Helvetica,sans-Serif" font-size="10.00">src/libs/vtools/tools</text>
<text text-anchor="start" x="1231.5" y="-241.5" font-family="Helvetica,sans-Serif" font-size="10.00">/drawTools/operation</text>
<text text-anchor="middle" x="1289.5" y="-230.5" font-family="Helvetica,sans-Serif" font-size="10.00">/vabstractoperation.cpp</text>
</a>
</g>
</g>
<!-- Node1&#45;&gt;Node22 -->
<g id="edge30" class="edge">
<title>Node1&#45;&gt;Node22</title>
<path fill="none" stroke="midnightblue" d="M991.09,-309.03C1050.84,-298.55 1138.6,-282.32 1214.5,-265 1217.39,-264.34 1220.34,-263.65 1223.31,-262.93"/>
<polygon fill="midnightblue" stroke="midnightblue" points="990.26,-305.63 981.01,-310.79 991.47,-312.52 990.26,-305.63"/>
</g>
<!-- Node23 -->
<g id="node23" class="node">
<title>Node23</title>
<g id="a_node23"><a xlink:href="../../d6/da5/vtoolrotation_8h.html" target="_top" xlink:title=" ">
<polygon fill="white" stroke="black" points="1466.5,-223.5 1466.5,-264.5 1584.5,-264.5 1584.5,-223.5 1466.5,-223.5"/>
<text text-anchor="start" x="1474.5" y="-252.5" font-family="Helvetica,sans-Serif" font-size="10.00">src/libs/vtools/tools</text>
<text text-anchor="start" x="1474.5" y="-241.5" font-family="Helvetica,sans-Serif" font-size="10.00">/drawTools/operation</text>
<text text-anchor="middle" x="1525.5" y="-230.5" font-family="Helvetica,sans-Serif" font-size="10.00">/vtoolrotation.h</text>
</a>
</g>
</g>
<!-- Node1&#45;&gt;Node23 -->
<g id="edge31" class="edge">
<title>Node1&#45;&gt;Node23</title>
<path fill="none" stroke="midnightblue" d="M991.22,-312.12C1111.68,-296.98 1354.51,-266.48 1466.48,-252.41"/>
<polygon fill="midnightblue" stroke="midnightblue" points="990.49,-308.68 981,-313.4 991.36,-315.63 990.49,-308.68"/>
</g>
<!-- Node24 -->
<g id="node24" class="node">
<title>Node24</title>
<g id="a_node24"><a xlink:href="../../d4/d1a/vundocommand_8cpp.html" target="_top" xlink:title=" ">
<polygon fill="white" stroke="black" points="1603,-229 1603,-259 1768,-259 1768,-229 1603,-229"/>
<text text-anchor="start" x="1611" y="-247" font-family="Helvetica,sans-Serif" font-size="10.00">src/libs/vtools/undocommands</text>
<text text-anchor="middle" x="1685.5" y="-236" font-family="Helvetica,sans-Serif" font-size="10.00">/vundocommand.cpp</text>
</a>
</g>
</g>
<!-- Node1&#45;&gt;Node24 -->
<g id="edge34" class="edge">
<title>Node1&#45;&gt;Node24</title>
<path fill="none" stroke="midnightblue" d="M991.18,-318.17C1114.16,-312.56 1375.27,-297.66 1593.5,-265 1604.17,-263.4 1615.45,-261.3 1626.32,-259.06"/>
<polygon fill="midnightblue" stroke="midnightblue" points="990.97,-314.67 981.13,-318.62 991.28,-321.67 990.97,-314.67"/>
</g>
<!-- Node3 -->
<g id="node3" class="node">
<title>Node3</title>
<g id="a_node3"><a xlink:href="../../df/ded/tooldialogs_8h.html" target="_top" xlink:title=" ">
<polygon fill="white" stroke="black" points="428.5,-151 428.5,-181 550.5,-181 550.5,-151 428.5,-151"/>
<text text-anchor="start" x="436.5" y="-169" font-family="Helvetica,sans-Serif" font-size="10.00">src/libs/vtools/dialogs</text>
<text text-anchor="middle" x="489.5" y="-158" font-family="Helvetica,sans-Serif" font-size="10.00">/tooldialogs.h</text>
</a>
</g>
</g>
<!-- Node2&#45;&gt;Node3 -->
<g id="edge2" class="edge">
<title>Node2&#45;&gt;Node3</title>
<path fill="none" stroke="midnightblue" d="M304.24,-225.91C346.76,-212.39 405.4,-193.74 445.24,-181.07"/>
<polygon fill="midnightblue" stroke="midnightblue" points="303.08,-222.61 294.61,-228.97 305.21,-229.28 303.08,-222.61"/>
</g>
<!-- Node4 -->
<g id="node4" class="node">
<title>Node4</title>
<g id="a_node4"><a xlink:href="../../d9/d34/dialogmirrorbyaxis_8cpp.html" target="_top" xlink:title=" ">
<polygon fill="white" stroke="black" points="0,-151 0,-181 159,-181 159,-151 0,-151"/>
<text text-anchor="start" x="8" y="-169" font-family="Helvetica,sans-Serif" font-size="10.00">src/libs/vtools/dialogs</text>
<text text-anchor="middle" x="79.5" y="-158" font-family="Helvetica,sans-Serif" font-size="10.00">/tools/dialogmirrorbyaxis.cpp</text>
</a>
</g>
</g>
<!-- Node2&#45;&gt;Node4 -->
<g id="edge3" class="edge">
<title>Node2&#45;&gt;Node4</title>
<path fill="none" stroke="midnightblue" d="M209.32,-224.7C179.13,-211.28 138.76,-193.34 111.09,-181.04"/>
<polygon fill="midnightblue" stroke="midnightblue" points="208.18,-228.02 218.74,-228.88 211.02,-221.62 208.18,-228.02"/>
</g>
<!-- Node5 -->
<g id="node5" class="node">
<title>Node5</title>
<g id="a_node5"><a xlink:href="../../d5/d3b/vtoolmirrorbyaxis_8cpp.html" target="_top" xlink:title=" ">
<polygon fill="white" stroke="black" points="485.5,-67.5 485.5,-108.5 645.5,-108.5 645.5,-67.5 485.5,-67.5"/>
<text text-anchor="start" x="493.5" y="-96.5" font-family="Helvetica,sans-Serif" font-size="10.00">src/libs/vtools/tools</text>
<text text-anchor="start" x="493.5" y="-85.5" font-family="Helvetica,sans-Serif" font-size="10.00">/drawTools/operation</text>
<text text-anchor="middle" x="565.5" y="-74.5" font-family="Helvetica,sans-Serif" font-size="10.00">/mirror/vtoolmirrorbyaxis.cpp</text>
</a>
</g>
</g>
<!-- Node2&#45;&gt;Node5 -->
<g id="edge4" class="edge">
<title>Node2&#45;&gt;Node5</title>
<path fill="none" stroke="midnightblue" d="M228.16,-221.71C208.55,-200.47 185.98,-167.8 205.5,-145 240.78,-103.81 390.36,-92.67 485.26,-89.81"/>
<polygon fill="midnightblue" stroke="midnightblue" points="225.7,-224.21 235.16,-228.98 230.74,-219.35 225.7,-224.21"/>
</g>
<!-- Node7&#45;&gt;Node3 -->
<g id="edge7" class="edge">
<title>Node7&#45;&gt;Node3</title>
<path fill="none" stroke="midnightblue" d="M454.58,-220.07C462.9,-207.44 472.96,-192.15 480.14,-181.23"/>
<polygon fill="midnightblue" stroke="midnightblue" points="451.48,-218.43 448.9,-228.7 457.32,-222.27 451.48,-218.43"/>
</g>
<!-- Node8 -->
<g id="node8" class="node">
<title>Node8</title>
<g id="a_node8"><a xlink:href="../../df/d5e/dialogmirrorbyline_8cpp.html" target="_top" xlink:title=" ">
<polygon fill="white" stroke="black" points="215,-151 215,-181 372,-181 372,-151 215,-151"/>
<text text-anchor="start" x="223" y="-169" font-family="Helvetica,sans-Serif" font-size="10.00">src/libs/vtools/dialogs</text>
<text text-anchor="middle" x="293.5" y="-158" font-family="Helvetica,sans-Serif" font-size="10.00">/tools/dialogmirrorbyline.cpp</text>
</a>
</g>
</g>
<!-- Node7&#45;&gt;Node8 -->
<g id="edge8" class="edge">
<title>Node7&#45;&gt;Node8</title>
<path fill="none" stroke="midnightblue" d="M403.33,-224.17C377.67,-210.82 343.79,-193.18 320.47,-181.04"/>
<polygon fill="midnightblue" stroke="midnightblue" points="401.89,-227.37 412.38,-228.88 405.13,-221.16 401.89,-227.37"/>
</g>
<!-- Node9 -->
<g id="node9" class="node">
<title>Node9</title>
<g id="a_node9"><a xlink:href="../../d2/d3c/vtoolmirrorbyline_8cpp.html" target="_top" xlink:title=" ">
<polygon fill="white" stroke="black" points="681.5,-67.5 681.5,-108.5 839.5,-108.5 839.5,-67.5 681.5,-67.5"/>
<text text-anchor="start" x="689.5" y="-96.5" font-family="Helvetica,sans-Serif" font-size="10.00">src/libs/vtools/tools</text>
<text text-anchor="start" x="689.5" y="-85.5" font-family="Helvetica,sans-Serif" font-size="10.00">/drawTools/operation</text>
<text text-anchor="middle" x="760.5" y="-74.5" font-family="Helvetica,sans-Serif" font-size="10.00">/mirror/vtoolmirrorbyline.cpp</text>
</a>
</g>
</g>
<!-- Node7&#45;&gt;Node9 -->
<g id="edge9" class="edge">
<title>Node7&#45;&gt;Node9</title>
<path fill="none" stroke="midnightblue" d="M425.02,-219.93C413.39,-198.13 401.67,-165.77 419.5,-145 453.91,-104.91 602.42,-117.9 654.5,-109 663.18,-107.52 672.24,-105.91 681.26,-104.26"/>
<polygon fill="midnightblue" stroke="midnightblue" points="422.1,-221.87 430.08,-228.83 428.19,-218.41 422.1,-221.87"/>
</g>
<!-- Node10&#45;&gt;Node3 -->
<g id="edge11" class="edge">
<title>Node10&#45;&gt;Node3</title>
<path fill="none" stroke="midnightblue" d="M609.09,-224.52C581.24,-211.13 544.14,-193.28 518.69,-181.04"/>
<polygon fill="midnightblue" stroke="midnightblue" points="607.62,-227.7 618.15,-228.88 610.66,-221.39 607.62,-227.7"/>
</g>
<!-- Node10&#45;&gt;Node6 -->
<g id="edge12" class="edge">
<title>Node10&#45;&gt;Node6</title>
<path fill="none" stroke="midnightblue" d="M642.36,-218.59C639.76,-206.26 636.7,-191.72 634.5,-181.23"/>
<polygon fill="midnightblue" stroke="midnightblue" points="639.01,-219.64 644.49,-228.7 645.86,-218.2 639.01,-219.64"/>
</g>
<!-- Node11 -->
<g id="node11" class="node">
<title>Node11</title>
<g id="a_node11"><a xlink:href="../../d3/d2b/vtoolmove_8cpp.html" target="_top" xlink:title=" ">
<polygon fill="white" stroke="black" points="712.5,-145.5 712.5,-186.5 830.5,-186.5 830.5,-145.5 712.5,-145.5"/>
<text text-anchor="start" x="720.5" y="-174.5" font-family="Helvetica,sans-Serif" font-size="10.00">src/libs/vtools/tools</text>
<text text-anchor="start" x="720.5" y="-163.5" font-family="Helvetica,sans-Serif" font-size="10.00">/drawTools/operation</text>
<text text-anchor="middle" x="771.5" y="-152.5" font-family="Helvetica,sans-Serif" font-size="10.00">/vtoolmove.cpp</text>
</a>
</g>
</g>
<!-- Node10&#45;&gt;Node11 -->
<g id="edge13" class="edge">
<title>Node10&#45;&gt;Node11</title>
<path fill="none" stroke="midnightblue" d="M679.15,-223.6C697.57,-212.31 720.72,-198.12 739.24,-186.77"/>
<polygon fill="midnightblue" stroke="midnightblue" points="677.23,-220.67 670.53,-228.88 680.89,-226.64 677.23,-220.67"/>
</g>
<!-- Node12&#45;&gt;Node3 -->
<g id="edge15" class="edge">
<title>Node12&#45;&gt;Node3</title>
<path fill="none" stroke="midnightblue" d="M779.33,-231C720,-220.69 633.9,-204.73 559.5,-187 552,-185.21 544.1,-183.14 536.42,-181.02"/>
<polygon fill="midnightblue" stroke="midnightblue" points="778.9,-234.48 789.35,-232.73 780.1,-227.58 778.9,-234.48"/>
</g>
<!-- Node13 -->
<g id="node13" class="node">
<title>Node13</title>
<g id="a_node13"><a xlink:href="../../dc/d64/dialogrotation_8cpp.html" target="_top" xlink:title=" ">
<polygon fill="white" stroke="black" points="849,-151 849,-181 984,-181 984,-151 849,-151"/>
<text text-anchor="start" x="857" y="-169" font-family="Helvetica,sans-Serif" font-size="10.00">src/libs/vtools/dialogs</text>
<text text-anchor="middle" x="916.5" y="-158" font-family="Helvetica,sans-Serif" font-size="10.00">/tools/dialogrotation.cpp</text>
</a>
</g>
</g>
<!-- Node12&#45;&gt;Node13 -->
<g id="edge16" class="edge">
<title>Node12&#45;&gt;Node13</title>
<path fill="none" stroke="midnightblue" d="M870.48,-220.81C881.41,-208.03 894.81,-192.36 904.33,-181.23"/>
<polygon fill="midnightblue" stroke="midnightblue" points="867.57,-218.83 863.73,-228.7 872.89,-223.38 867.57,-218.83"/>
</g>
<!-- Node14 -->
<g id="node14" class="node">
<title>Node14</title>
<g id="a_node14"><a xlink:href="../../df/dd2/vtoolrotation_8cpp.html" target="_top" xlink:title=" ">
<polygon fill="white" stroke="black" points="1538.5,-145.5 1538.5,-186.5 1656.5,-186.5 1656.5,-145.5 1538.5,-145.5"/>
<text text-anchor="start" x="1546.5" y="-174.5" font-family="Helvetica,sans-Serif" font-size="10.00">src/libs/vtools/tools</text>
<text text-anchor="start" x="1546.5" y="-163.5" font-family="Helvetica,sans-Serif" font-size="10.00">/drawTools/operation</text>
<text text-anchor="middle" x="1597.5" y="-152.5" font-family="Helvetica,sans-Serif" font-size="10.00">/vtoolrotation.cpp</text>
</a>
</g>
</g>
<!-- Node12&#45;&gt;Node14 -->
<g id="edge17" class="edge">
<title>Node12&#45;&gt;Node14</title>
<path fill="none" stroke="midnightblue" d="M905.84,-226.41C911.43,-225.09 917.05,-223.92 922.5,-223 1189,-178.1 1263.27,-233.43 1529.5,-187 1532.41,-186.49 1535.37,-185.9 1538.35,-185.26"/>
<polygon fill="midnightblue" stroke="midnightblue" points="904.7,-223.09 895.86,-228.93 906.41,-229.88 904.7,-223.09"/>
</g>
<!-- Node16 -->
<g id="node16" class="node">
<title>Node16</title>
<g id="a_node16"><a xlink:href="../../da/ddc/vabstractmirror_8cpp.html" target="_top" xlink:title=" ">
<polygon fill="white" stroke="black" points="1040.5,-145.5 1040.5,-186.5 1188.5,-186.5 1188.5,-145.5 1040.5,-145.5"/>
<text text-anchor="start" x="1048.5" y="-174.5" font-family="Helvetica,sans-Serif" font-size="10.00">src/libs/vtools/tools</text>
<text text-anchor="start" x="1048.5" y="-163.5" font-family="Helvetica,sans-Serif" font-size="10.00">/drawTools/operation</text>
<text text-anchor="middle" x="1114.5" y="-152.5" font-family="Helvetica,sans-Serif" font-size="10.00">/mirror/vabstractmirror.cpp</text>
</a>
</g>
</g>
<!-- Node15&#45;&gt;Node16 -->
<g id="edge19" class="edge">
<title>Node15&#45;&gt;Node16</title>
<path fill="none" stroke="midnightblue" d="M1127.99,-213.59C1125.36,-204.51 1122.53,-194.74 1120.15,-186.51"/>
<polygon fill="midnightblue" stroke="midnightblue" points="1124.69,-214.8 1130.83,-223.43 1131.42,-212.85 1124.69,-214.8"/>
</g>
<!-- Node17 -->
<g id="node17" class="node">
<title>Node17</title>
<g id="a_node17"><a xlink:href="../../df/db5/vtoolmirrorbyaxis_8h.html" target="_top" xlink:title=" ">
<polygon fill="white" stroke="black" points="1207,-145.5 1207,-186.5 1356,-186.5 1356,-145.5 1207,-145.5"/>
<text text-anchor="start" x="1215" y="-174.5" font-family="Helvetica,sans-Serif" font-size="10.00">src/libs/vtools/tools</text>
<text text-anchor="start" x="1215" y="-163.5" font-family="Helvetica,sans-Serif" font-size="10.00">/drawTools/operation</text>
<text text-anchor="middle" x="1281.5" y="-152.5" font-family="Helvetica,sans-Serif" font-size="10.00">/mirror/vtoolmirrorbyaxis.h</text>
</a>
</g>
</g>
<!-- Node15&#45;&gt;Node17 -->
<g id="edge20" class="edge">
<title>Node15&#45;&gt;Node17</title>
<path fill="none" stroke="midnightblue" d="M1182.73,-218.77C1202.61,-208.35 1225.53,-196.34 1244.29,-186.51"/>
<polygon fill="midnightblue" stroke="midnightblue" points="1181.07,-215.69 1173.84,-223.43 1184.32,-221.89 1181.07,-215.69"/>
</g>
<!-- Node20 -->
<g id="node20" class="node">
<title>Node20</title>
<g id="a_node20"><a xlink:href="../../dc/d5e/vtoolmirrorbyline_8h.html" target="_top" xlink:title=" ">
<polygon fill="white" stroke="black" points="1374.5,-145.5 1374.5,-186.5 1520.5,-186.5 1520.5,-145.5 1374.5,-145.5"/>
<text text-anchor="start" x="1382.5" y="-174.5" font-family="Helvetica,sans-Serif" font-size="10.00">src/libs/vtools/tools</text>
<text text-anchor="start" x="1382.5" y="-163.5" font-family="Helvetica,sans-Serif" font-size="10.00">/drawTools/operation</text>
<text text-anchor="middle" x="1447.5" y="-152.5" font-family="Helvetica,sans-Serif" font-size="10.00">/mirror/vtoolmirrorbyline.h</text>
</a>
</g>
</g>
<!-- Node15&#45;&gt;Node20 -->
<g id="edge24" class="edge">
<title>Node15&#45;&gt;Node20</title>
<path fill="none" stroke="midnightblue" d="M1215.29,-222.82C1283.1,-206.11 1301.44,-202.45 1365.5,-187 1368.35,-186.31 1371.25,-185.61 1374.19,-184.9"/>
<polygon fill="midnightblue" stroke="midnightblue" points="1214.26,-219.47 1205.39,-225.27 1215.94,-226.27 1214.26,-219.47"/>
</g>
<!-- Node17&#45;&gt;Node5 -->
<g id="edge21" class="edge">
<title>Node17&#45;&gt;Node5</title>
<path fill="none" stroke="midnightblue" d="M1196.85,-145.06C964.5,-110.6 901.22,-138.12 672.5,-109 663.78,-107.89 654.7,-106.52 645.68,-105.03"/>
<polygon fill="midnightblue" stroke="midnightblue" points="1196.56,-148.55 1206.97,-146.58 1197.6,-141.63 1196.56,-148.55"/>
</g>
<!-- Node18 -->
<g id="node18" class="node">
<title>Node18</title>
<g id="a_node18"><a xlink:href="../../d4/d56/drawtools_8h.html" target="_top" xlink:title=" ">
<polygon fill="white" stroke="black" points="1300.5,-73 1300.5,-103 1428.5,-103 1428.5,-73 1300.5,-73"/>
<text text-anchor="start" x="1308.5" y="-91" font-family="Helvetica,sans-Serif" font-size="10.00">src/libs/vtools/tools</text>
<text text-anchor="middle" x="1364.5" y="-80" font-family="Helvetica,sans-Serif" font-size="10.00">/drawTools/drawtools.h</text>
</a>
</g>
</g>
<!-- Node17&#45;&gt;Node18 -->
<g id="edge22" class="edge">
<title>Node17&#45;&gt;Node18</title>
<path fill="none" stroke="midnightblue" d="M1310.27,-138.66C1323.26,-126.76 1338.1,-113.18 1348.96,-103.23"/>
<polygon fill="midnightblue" stroke="midnightblue" points="1307.89,-136.09 1302.87,-145.43 1312.61,-141.26 1307.89,-136.09"/>
</g>
<!-- Node19 -->
<g id="node19" class="node">
<title>Node19</title>
<g id="a_node19"><a xlink:href="../../d5/da5/tools_8h.html" target="_top" xlink:title=" ">
<polygon fill="white" stroke="black" points="1309,-0.5 1309,-30.5 1420,-30.5 1420,-0.5 1309,-0.5"/>
<text text-anchor="start" x="1317" y="-18.5" font-family="Helvetica,sans-Serif" font-size="10.00">src/libs/vtools/tools</text>
<text text-anchor="middle" x="1364.5" y="-7.5" font-family="Helvetica,sans-Serif" font-size="10.00">/tools.h</text>
</a>
</g>
</g>
<!-- Node18&#45;&gt;Node19 -->
<g id="edge23" class="edge">
<title>Node18&#45;&gt;Node19</title>
<path fill="none" stroke="midnightblue" d="M1364.5,-62.73C1364.5,-52.07 1364.5,-39.91 1364.5,-30.75"/>
<polygon fill="midnightblue" stroke="midnightblue" points="1361,-62.73 1364.5,-72.73 1368,-62.73 1361,-62.73"/>
</g>
<!-- Node20&#45;&gt;Node9 -->
<g id="edge25" class="edge">
<title>Node20&#45;&gt;Node9</title>
<path fill="none" stroke="midnightblue" d="M1364.23,-144.91C1170.91,-113.2 953.84,-98.65 839.77,-92.62"/>
<polygon fill="midnightblue" stroke="midnightblue" points="1363.85,-148.4 1374.29,-146.58 1365,-141.49 1363.85,-148.4"/>
</g>
<!-- Node20&#45;&gt;Node18 -->
<g id="edge26" class="edge">
<title>Node20&#45;&gt;Node18</title>
<path fill="none" stroke="midnightblue" d="M1418.73,-138.66C1405.74,-126.76 1390.9,-113.18 1380.04,-103.23"/>
<polygon fill="midnightblue" stroke="midnightblue" points="1416.39,-141.26 1426.13,-145.43 1421.11,-136.09 1416.39,-141.26"/>
</g>
<!-- Node21&#45;&gt;Node11 -->
<g id="edge28" class="edge">
<title>Node21&#45;&gt;Node11</title>
<path fill="none" stroke="midnightblue" d="M924.3,-220.03C893.47,-209.33 857.18,-196.73 827.71,-186.51"/>
<polygon fill="midnightblue" stroke="midnightblue" points="923.51,-223.46 934.1,-223.43 925.8,-216.84 923.51,-223.46"/>
</g>
<!-- Node21&#45;&gt;Node18 -->
<g id="edge29" class="edge">
<title>Node21&#45;&gt;Node18</title>
<path fill="none" stroke="midnightblue" d="M995.03,-213.49C1000.05,-191.21 1010.42,-161.72 1031.5,-145 1072.09,-112.8 1215.37,-98.37 1300.19,-92.52"/>
<polygon fill="midnightblue" stroke="midnightblue" points="991.57,-212.96 993.03,-223.45 998.43,-214.34 991.57,-212.96"/>
</g>
<!-- Node23&#45;&gt;Node14 -->
<g id="edge32" class="edge">
<title>Node23&#45;&gt;Node14</title>
<path fill="none" stroke="midnightblue" d="M1551.16,-215.92C1560.36,-206.2 1570.55,-195.45 1579.02,-186.51"/>
<polygon fill="midnightblue" stroke="midnightblue" points="1548.38,-213.76 1544.04,-223.43 1553.46,-218.58 1548.38,-213.76"/>
</g>
<!-- Node23&#45;&gt;Node18 -->
<g id="edge33" class="edge">
<title>Node23&#45;&gt;Node18</title>
<path fill="none" stroke="midnightblue" d="M1592.36,-220.06C1626.07,-207.83 1660.82,-193.91 1665.5,-187 1675.97,-171.54 1677.43,-159.36 1665.5,-145 1635.98,-109.49 1507.88,-96.38 1428.61,-91.63"/>
<polygon fill="midnightblue" stroke="midnightblue" points="1591.14,-216.78 1582.91,-223.46 1593.51,-223.37 1591.14,-216.78"/>
</g>
</g>
</svg>
        <g id="navigator" transform="translate(0 0)" fill="#404254">
                <rect fill="#f2f5e9" fill-opacity="0.5" stroke="#606060" stroke-width=".5" x="0" y="0" width="60" height="60"/>
                <use id="zoomplus" xlink:href="#zoomPlus" x="17" y="9" onmousedown="handleZoom(evt,'in')"/>
                <use id="zoomminus" xlink:href="#zoomMin" x="42" y="9" onmousedown="handleZoom(evt,'out')"/>
                <use id="reset" xlink:href="#resetDef" x="30" y="36" onmousedown="handleReset()"/>
                <g id="arrowUp" xlink:href="#dirArrow" transform="translate(30 24)" onmousedown="handlePan(0,-1)">
                  <use xlink:href="#rim" fill="#404040">
                        <set attributeName="fill" to="#808080" begin="arrowUp.mouseover" end="arrowUp.mouseout"/>
                  </use>
                  <path fill="none" stroke="white" stroke-width="1.5" d="M0,-3.0v7 M-2.5,-0.5L0,-3.0L2.5,-0.5"/>
                </g>
                <g id="arrowRight" xlink:href="#dirArrow" transform="rotate(90) translate(36 -43)" onmousedown="handlePan(1,0)">
                  <use xlink:href="#rim" fill="#404040">
                        <set attributeName="fill" to="#808080" begin="arrowRight.mouseover" end="arrowRight.mouseout"/>
                  </use>
                  <path fill="none" stroke="white" stroke-width="1.5" d="M0,-3.0v7 M-2.5,-0.5L0,-3.0L2.5,-0.5"/>
                </g>
                <g id="arrowDown" xlink:href="#dirArrow" transform="rotate(180) translate(-30 -48)" onmousedown="handlePan(0,1)">
                  <use xlink:href="#rim" fill="#404040">
                        <set attributeName="fill" to="#808080" begin="arrowDown.mouseover" end="arrowDown.mouseout"/>
                  </use>
                  <path fill="none" stroke="white" stroke-width="1.5" d="M0,-3.0v7 M-2.5,-0.5L0,-3.0L2.5,-0.5"/>
                </g>
                <g id="arrowLeft" xlink:href="#dirArrow" transform="rotate(270) translate(-36 17)" onmousedown="handlePan(-1,0)">
                  <use xlink:href="#rim" fill="#404040">
                        <set attributeName="fill" to="#808080" begin="arrowLeft.mouseover" end="arrowLeft.mouseout"/>
                  </use>
                  <path fill="none" stroke="white" stroke-width="1.5" d="M0,-3.0v7 M-2.5,-0.5L0,-3.0L2.5,-0.5"/>
                </g>
        </g>
        <svg viewBox="0 0 15 15" width="100%" height="30px" preserveAspectRatio="xMaxYMin meet">
         <g id="arrow_out" transform="scale(0.3 0.3)">
          <a xlink:href="vabstractoperation_8h__dep__incl_org.svg" target="_base">
           <rect id="button" ry="5" rx="5" y="6" x="6" height="38" width="38"
                fill="#f2f5e9" fill-opacity="0.5" stroke="#606060" stroke-width="1.0"/>
           <path id="arrow"
             d="M 11.500037,31.436501 C 11.940474,20.09759 22.043105,11.32322 32.158766,21.979434 L 37.068811,17.246167 C 37.068811,17.246167 37.088388,32 37.088388,32 L 22.160133,31.978069 C 22.160133,31.978069 26.997745,27.140456 26.997745,27.140456 C 18.528582,18.264221 13.291696,25.230495 11.500037,31.436501 z"
             style="fill:#404040;"/>
          </a>
         </g>
        </svg>
</svg>
