<?xml version="1.0" encoding="UTF-8" standalone="no"?>
<!DOCTYPE svg PUBLIC "-//W3C//DTD SVG 1.1//EN"
 "http://www.w3.org/Graphics/SVG/1.1/DTD/svg11.dtd">
<!-- Generated by graphviz version 2.43.0 (0)
 -->
<!-- Title: src/libs/vtools/tools/drawTools/operation/vabstractoperation.h Pages: 1 -->
<!--zoomable 351 -->
<svg id="main" version="1.1" xmlns="http://www.w3.org/2000/svg" xmlns:xlink="http://www.w3.org/1999/xlink" xml:space="preserve" onload="init(evt)">
<style type="text/css"><![CDATA[
.edge:hover path { stroke: red; }
.edge:hover polygon { stroke: red; fill: red; }
]]></style>
<script type="text/javascript"><![CDATA[
var edges = document.getElementsByTagName('g');
if (edges && edges.length) {
  for (var i=0;i<edges.length;i++) {
    if (edges[i].id.substr(0,4)=='edge') {
      edges[i].setAttribute('class','edge');
    }
  }
}
]]></script>
        <defs>
                <circle id="rim" cx="0" cy="0" r="7"/>
                <circle id="rim2" cx="0" cy="0" r="3.5"/>
                <g id="zoomPlus">
                        <use xlink:href="#rim" fill="#404040">
                                <set attributeName="fill" to="#808080" begin="zoomplus.mouseover" end="zoomplus.mouseout"/>
                        </use>
                        <path d="M-4,0h8M0,-4v8" fill="none" stroke="white" stroke-width="1.5" pointer-events="none"/>
                </g>
                <g id="zoomMin">
                        <use xlink:href="#rim" fill="#404040">
                                <set attributeName="fill" to="#808080" begin="zoomminus.mouseover" end="zoomminus.mouseout"/>
                        </use>
                        <path d="M-4,0h8" fill="none" stroke="white" stroke-width="1.5" pointer-events="none"/>
                </g>
                <g id="dirArrow">
                        <path fill="none" stroke="white" stroke-width="1.5" d="M0,-3.0v7 M-2.5,-0.5L0,-3.0L2.5,-0.5"/>
                </g>
               <g id="resetDef">
                       <use xlink:href="#rim2" fill="#404040">
                               <set attributeName="fill" to="#808080" begin="reset.mouseover" end="reset.mouseout"/>
                       </use>
               </g>
        </defs>

<script type="text/javascript">
var viewWidth = 1675;
var viewHeight = 351;
var sectionId = 'dynsection-1';
</script>
<script xlink:href="../../svgpan.js"/>
<svg id="graph" class="graph">
<g id="viewport">
<title>src/libs/vtools/tools/drawTools/operation/vabstractoperation.h</title>
<polygon fill="white" stroke="transparent" points="-4,4 -4,-347 1671.23,-347 1671.23,4 -4,4"/>
<!-- Node1 -->
<g id="node1" class="node">
<title>Node1</title>
<g id="a_node1"><a xlink:title=" ">
<polygon fill="#bfbfbf" stroke="black" points="798,-301.5 798,-342.5 919,-342.5 919,-301.5 798,-301.5"/>
<text text-anchor="start" x="806" y="-330.5" font-family="Helvetica,sans-Serif" font-size="10.00">src/libs/vtools/tools</text>
<text text-anchor="start" x="806" y="-319.5" font-family="Helvetica,sans-Serif" font-size="10.00">/drawTools/operation</text>
<text text-anchor="middle" x="858.5" y="-308.5" font-family="Helvetica,sans-Serif" font-size="10.00">/vabstractoperation.h</text>
</a>
</g>
</g>
<!-- Node2 -->
<g id="node2" class="node">
<title>Node2</title>
<g id="a_node2"><a xlink:href="../../d8/da9/dialogmirrorbyaxis_8h.html" target="_top" xlink:title=" ">
<polygon fill="white" stroke="black" points="161.5,-229 161.5,-259 309.5,-259 309.5,-229 161.5,-229"/>
<text text-anchor="start" x="169.5" y="-247" font-family="Helvetica,sans-Serif" font-size="10.00">src/libs/vtools/dialogs</text>
<text text-anchor="middle" x="235.5" y="-236" font-family="Helvetica,sans-Serif" font-size="10.00">/tools/dialogmirrorbyaxis.h</text>
</a>
</g>
</g>
<!-- Node1&#45;&gt;Node2 -->
<g id="edge1" class="edge">
<title>Node1&#45;&gt;Node2</title>
<path fill="none" stroke="midnightblue" d="M787.69,-315.05C688.05,-306.28 500.92,-288.37 342.5,-265 330.72,-263.26 318.26,-261.17 306.17,-259"/>
<polygon fill="midnightblue" stroke="midnightblue" points="787.67,-318.56 797.93,-315.94 788.28,-311.59 787.67,-318.56"/>
</g>
<!-- Node6 -->
<g id="node6" class="node">
<title>Node6</title>
<g id="a_node6"><a xlink:href="../../db/d11/dialogmirrorbyline_8h.html" target="_top" xlink:title=" ">
<polygon fill="white" stroke="black" points="351.5,-229 351.5,-259 497.5,-259 497.5,-229 351.5,-229"/>
<text text-anchor="start" x="359.5" y="-247" font-family="Helvetica,sans-Serif" font-size="10.00">src/libs/vtools/dialogs</text>
<text text-anchor="middle" x="424.5" y="-236" font-family="Helvetica,sans-Serif" font-size="10.00">/tools/dialogmirrorbyline.h</text>
</a>
</g>
</g>
<!-- Node1&#45;&gt;Node6 -->
<g id="edge5" class="edge">
<title>Node1&#45;&gt;Node6</title>
<path fill="none" stroke="midnightblue" d="M787.72,-308.61C707.81,-294.61 578.41,-271.95 497.56,-257.79"/>
<polygon fill="midnightblue" stroke="midnightblue" points="787.24,-312.08 797.7,-310.35 788.45,-305.18 787.24,-312.08"/>
</g>
<!-- Node9 -->
<g id="node9" class="node">
<title>Node9</title>
<g id="a_node9"><a xlink:href="../../d2/d51/dialogmove_8cpp.html" target="_top" xlink:title=" ">
<polygon fill="white" stroke="black" points="569,-151 569,-181 694,-181 694,-151 569,-151"/>
<text text-anchor="start" x="577" y="-169" font-family="Helvetica,sans-Serif" font-size="10.00">src/libs/vtools/dialogs</text>
<text text-anchor="middle" x="631.5" y="-158" font-family="Helvetica,sans-Serif" font-size="10.00">/tools/dialogmove.cpp</text>
</a>
</g>
</g>
<!-- Node1&#45;&gt;Node9 -->
<g id="edge9" class="edge">
<title>Node1&#45;&gt;Node9</title>
<path fill="none" stroke="midnightblue" d="M787.38,-317.08C711.96,-311.26 600.08,-297.31 573.5,-265 561.64,-250.58 566.21,-240.18 573.5,-223 580.88,-205.61 596.61,-190.98 609.83,-181.05"/>
<polygon fill="midnightblue" stroke="midnightblue" points="787.53,-320.6 797.76,-317.85 788.05,-313.62 787.53,-320.6"/>
</g>
<!-- Node10 -->
<g id="node10" class="node">
<title>Node10</title>
<g id="a_node10"><a xlink:href="../../d4/d1d/dialogmove_8h.html" target="_top" xlink:title=" ">
<polygon fill="white" stroke="black" points="582.5,-229 582.5,-259 704.5,-259 704.5,-229 582.5,-229"/>
<text text-anchor="start" x="590.5" y="-247" font-family="Helvetica,sans-Serif" font-size="10.00">src/libs/vtools/dialogs</text>
<text text-anchor="middle" x="643.5" y="-236" font-family="Helvetica,sans-Serif" font-size="10.00">/tools/dialogmove.h</text>
</a>
</g>
</g>
<!-- Node1&#45;&gt;Node10 -->
<g id="edge10" class="edge">
<title>Node1&#45;&gt;Node10</title>
<path fill="none" stroke="midnightblue" d="M793.25,-297.93C757.44,-285.28 714.2,-269.99 683.41,-259.11"/>
<polygon fill="midnightblue" stroke="midnightblue" points="792.54,-301.4 803.13,-301.43 794.87,-294.8 792.54,-301.4"/>
</g>
<!-- Node12 -->
<g id="node12" class="node">
<title>Node12</title>
<g id="a_node12"><a xlink:href="../../d7/de1/dialogrotation_8h.html" target="_top" xlink:title=" ">
<polygon fill="white" stroke="black" points="722.5,-229 722.5,-259 846.5,-259 846.5,-229 722.5,-229"/>
<text text-anchor="start" x="730.5" y="-247" font-family="Helvetica,sans-Serif" font-size="10.00">src/libs/vtools/dialogs</text>
<text text-anchor="middle" x="784.5" y="-236" font-family="Helvetica,sans-Serif" font-size="10.00">/tools/dialogrotation.h</text>
</a>
</g>
</g>
<!-- Node1&#45;&gt;Node12 -->
<g id="edge14" class="edge">
<title>Node1&#45;&gt;Node12</title>
<path fill="none" stroke="midnightblue" d="M832.2,-293.99C820.77,-282.25 807.86,-268.99 798.35,-259.23"/>
<polygon fill="midnightblue" stroke="midnightblue" points="829.96,-296.71 839.44,-301.43 834.97,-291.82 829.96,-296.71"/>
</g>
<!-- Node15 -->
<g id="node15" class="node">
<title>Node15</title>
<g id="a_node15"><a xlink:href="../../db/d1f/vabstractmirror_8h.html" target="_top" xlink:title=" ">
<polygon fill="white" stroke="black" points="865,-223.5 865,-264.5 1002,-264.5 1002,-223.5 865,-223.5"/>
<text text-anchor="start" x="873" y="-252.5" font-family="Helvetica,sans-Serif" font-size="10.00">src/libs/vtools/tools</text>
<text text-anchor="start" x="873" y="-241.5" font-family="Helvetica,sans-Serif" font-size="10.00">/drawTools/operation</text>
<text text-anchor="middle" x="933.5" y="-230.5" font-family="Helvetica,sans-Serif" font-size="10.00">/mirror/vabstractmirror.h</text>
</a>
</g>
</g>
<!-- Node1&#45;&gt;Node15 -->
<g id="edge18" class="edge">
<title>Node1&#45;&gt;Node15</title>
<path fill="none" stroke="midnightblue" d="M884.94,-294.2C894.6,-284.42 905.34,-273.54 914.25,-264.51"/>
<polygon fill="midnightblue" stroke="midnightblue" points="882.35,-291.85 877.81,-301.43 887.33,-296.77 882.35,-291.85"/>
</g>
<!-- Node21 -->
<g id="node21" class="node">
<title>Node21</title>
<g id="a_node21"><a xlink:href="../../d8/de3/vabstractoperation_8cpp.html" target="_top" xlink:title=" ">
<polygon fill="white" stroke="black" points="1020.5,-223.5 1020.5,-264.5 1152.5,-264.5 1152.5,-223.5 1020.5,-223.5"/>
<text text-anchor="start" x="1028.5" y="-252.5" font-family="Helvetica,sans-Serif" font-size="10.00">src/libs/vtools/tools</text>
<text text-anchor="start" x="1028.5" y="-241.5" font-family="Helvetica,sans-Serif" font-size="10.00">/drawTools/operation</text>
<text text-anchor="middle" x="1086.5" y="-230.5" font-family="Helvetica,sans-Serif" font-size="10.00">/vabstractoperation.cpp</text>
</a>
</g>
</g>
<!-- Node1&#45;&gt;Node21 -->
<g id="edge27" class="edge">
<title>Node1&#45;&gt;Node21</title>
<path fill="none" stroke="midnightblue" d="M927,-298.17C959.19,-287.44 997.16,-274.78 1027.98,-264.51"/>
<polygon fill="midnightblue" stroke="midnightblue" points="925.6,-294.95 917.22,-301.43 927.81,-301.59 925.6,-294.95"/>
</g>
<!-- Node22 -->
<g id="node22" class="node">
<title>Node22</title>
<g id="a_node22"><a xlink:href="../../d3/d95/vtoolmove_8h.html" target="_top" xlink:title=" ">
<polygon fill="white" stroke="black" points="1170.5,-223.5 1170.5,-264.5 1288.5,-264.5 1288.5,-223.5 1170.5,-223.5"/>
<text text-anchor="start" x="1178.5" y="-252.5" font-family="Helvetica,sans-Serif" font-size="10.00">src/libs/vtools/tools</text>
<text text-anchor="start" x="1178.5" y="-241.5" font-family="Helvetica,sans-Serif" font-size="10.00">/drawTools/operation</text>
<text text-anchor="middle" x="1229.5" y="-230.5" font-family="Helvetica,sans-Serif" font-size="10.00">/vtoolmove.h</text>
</a>
</g>
</g>
<!-- Node1&#45;&gt;Node22 -->
<g id="edge28" class="edge">
<title>Node1&#45;&gt;Node22</title>
<path fill="none" stroke="midnightblue" d="M929.27,-310.05C990.95,-299.99 1082.64,-283.83 1161.5,-265 1164.37,-264.31 1167.3,-263.58 1170.26,-262.82"/>
<polygon fill="midnightblue" stroke="midnightblue" points="928.56,-306.61 919.25,-311.67 929.68,-313.52 928.56,-306.61"/>
</g>
<!-- Node23 -->
<g id="node23" class="node">
<title>Node23</title>
<g id="a_node23"><a xlink:href="../../d6/da5/vtoolrotation_8h.html" target="_top" xlink:title=" ">
<polygon fill="white" stroke="black" points="1306.5,-223.5 1306.5,-264.5 1424.5,-264.5 1424.5,-223.5 1306.5,-223.5"/>
<text text-anchor="start" x="1314.5" y="-252.5" font-family="Helvetica,sans-Serif" font-size="10.00">src/libs/vtools/tools</text>
<text text-anchor="start" x="1314.5" y="-241.5" font-family="Helvetica,sans-Serif" font-size="10.00">/drawTools/operation</text>
<text text-anchor="middle" x="1365.5" y="-230.5" font-family="Helvetica,sans-Serif" font-size="10.00">/vtoolrotation.h</text>
</a>
</g>
</g>
<!-- Node1&#45;&gt;Node23 -->
<g id="edge31" class="edge">
<title>Node1&#45;&gt;Node23</title>
<path fill="none" stroke="midnightblue" d="M929.05,-315.48C1016.27,-307.87 1168.92,-291.93 1297.5,-265 1300.39,-264.39 1303.34,-263.73 1306.3,-263.01"/>
<polygon fill="midnightblue" stroke="midnightblue" points="928.67,-312 919.01,-316.35 929.27,-318.98 928.67,-312"/>
</g>
<!-- Node24 -->
<g id="node24" class="node">
<title>Node24</title>
<g id="a_node24"><a xlink:href="../../d4/d1a/vundocommand_8cpp.html" target="_top" xlink:title=" ">
<polygon fill="white" stroke="black" points="1443,-229 1443,-259 1608,-259 1608,-229 1443,-229"/>
<text text-anchor="start" x="1451" y="-247" font-family="Helvetica,sans-Serif" font-size="10.00">src/libs/vtools/undocommands</text>
<text text-anchor="middle" x="1525.5" y="-236" font-family="Helvetica,sans-Serif" font-size="10.00">/vundocommand.cpp</text>
</a>
</g>
</g>
<!-- Node1&#45;&gt;Node24 -->
<g id="edge34" class="edge">
<title>Node1&#45;&gt;Node24</title>
<path fill="none" stroke="midnightblue" d="M929.43,-316.77C1038.32,-309.68 1253.04,-293.3 1433.5,-265 1444,-263.35 1455.09,-261.25 1465.81,-259.04"/>
<polygon fill="midnightblue" stroke="midnightblue" points="928.98,-313.29 919.23,-317.43 929.43,-320.28 928.98,-313.29"/>
</g>
<!-- Node3 -->
<g id="node3" class="node">
<title>Node3</title>
<g id="a_node3"><a xlink:href="../../d9/d34/dialogmirrorbyaxis_8cpp.html" target="_top" xlink:title=" ">
<polygon fill="white" stroke="black" points="0,-151 0,-181 159,-181 159,-151 0,-151"/>
<text text-anchor="start" x="8" y="-169" font-family="Helvetica,sans-Serif" font-size="10.00">src/libs/vtools/dialogs</text>
<text text-anchor="middle" x="79.5" y="-158" font-family="Helvetica,sans-Serif" font-size="10.00">/tools/dialogmirrorbyaxis.cpp</text>
</a>
</g>
</g>
<!-- Node2&#45;&gt;Node3 -->
<g id="edge2" class="edge">
<title>Node2&#45;&gt;Node3</title>
<path fill="none" stroke="midnightblue" d="M197.22,-224.35C169.76,-210.97 133.34,-193.23 108.32,-181.04"/>
<polygon fill="midnightblue" stroke="midnightblue" points="196,-227.65 206.52,-228.88 199.07,-221.36 196,-227.65"/>
</g>
<!-- Node4 -->
<g id="node4" class="node">
<title>Node4</title>
<g id="a_node4"><a xlink:href="../../df/ded/tooldialogs_8h.html" target="_top" xlink:title=" ">
<polygon fill="white" stroke="black" points="428.5,-151 428.5,-181 550.5,-181 550.5,-151 428.5,-151"/>
<text text-anchor="start" x="436.5" y="-169" font-family="Helvetica,sans-Serif" font-size="10.00">src/libs/vtools/dialogs</text>
<text text-anchor="middle" x="489.5" y="-158" font-family="Helvetica,sans-Serif" font-size="10.00">/tooldialogs.h</text>
</a>
</g>
</g>
<!-- Node2&#45;&gt;Node4 -->
<g id="edge3" class="edge">
<title>Node2&#45;&gt;Node4</title>
<path fill="none" stroke="midnightblue" d="M292.04,-226.08C337.27,-212.55 399.94,-193.8 442.46,-181.07"/>
<polygon fill="midnightblue" stroke="midnightblue" points="290.96,-222.75 282.38,-228.97 292.97,-229.46 290.96,-222.75"/>
</g>
<!-- Node5 -->
<g id="node5" class="node">
<title>Node5</title>
<g id="a_node5"><a xlink:href="../../d5/d3b/vtoolmirrorbyaxis_8cpp.html" target="_top" xlink:title=" ">
<polygon fill="white" stroke="black" points="616.5,-67.5 616.5,-108.5 776.5,-108.5 776.5,-67.5 616.5,-67.5"/>
<text text-anchor="start" x="624.5" y="-96.5" font-family="Helvetica,sans-Serif" font-size="10.00">src/libs/vtools/tools</text>
<text text-anchor="start" x="624.5" y="-85.5" font-family="Helvetica,sans-Serif" font-size="10.00">/drawTools/operation</text>
<text text-anchor="middle" x="696.5" y="-74.5" font-family="Helvetica,sans-Serif" font-size="10.00">/mirror/vtoolmirrorbyaxis.cpp</text>
</a>
</g>
</g>
<!-- Node2&#45;&gt;Node5 -->
<g id="edge4" class="edge">
<title>Node2&#45;&gt;Node5</title>
<path fill="none" stroke="midnightblue" d="M217.75,-220.58C202.81,-198.83 186.65,-166.12 205.5,-145 232.33,-114.93 484.23,-98.84 616.39,-92.4"/>
<polygon fill="midnightblue" stroke="midnightblue" points="215.06,-222.83 223.76,-228.88 220.73,-218.73 215.06,-222.83"/>
</g>
<!-- Node6&#45;&gt;Node4 -->
<g id="edge7" class="edge">
<title>Node6&#45;&gt;Node4</title>
<path fill="none" stroke="midnightblue" d="M443.48,-220.81C454.41,-208.03 467.81,-192.36 477.33,-181.23"/>
<polygon fill="midnightblue" stroke="midnightblue" points="440.57,-218.83 436.73,-228.7 445.89,-223.38 440.57,-218.83"/>
</g>
<!-- Node7 -->
<g id="node7" class="node">
<title>Node7</title>
<g id="a_node7"><a xlink:href="../../df/d5e/dialogmirrorbyline_8cpp.html" target="_top" xlink:title=" ">
<polygon fill="white" stroke="black" points="215,-151 215,-181 372,-181 372,-151 215,-151"/>
<text text-anchor="start" x="223" y="-169" font-family="Helvetica,sans-Serif" font-size="10.00">src/libs/vtools/dialogs</text>
<text text-anchor="middle" x="293.5" y="-158" font-family="Helvetica,sans-Serif" font-size="10.00">/tools/dialogmirrorbyline.cpp</text>
</a>
</g>
</g>
<!-- Node6&#45;&gt;Node7 -->
<g id="edge6" class="edge">
<title>Node6&#45;&gt;Node7</title>
<path fill="none" stroke="midnightblue" d="M391.44,-223.82C368.49,-210.51 338.44,-193.07 317.7,-181.04"/>
<polygon fill="midnightblue" stroke="midnightblue" points="389.76,-226.89 400.17,-228.88 393.27,-220.84 389.76,-226.89"/>
</g>
<!-- Node8 -->
<g id="node8" class="node">
<title>Node8</title>
<g id="a_node8"><a xlink:href="../../d2/d3c/vtoolmirrorbyline_8cpp.html" target="_top" xlink:title=" ">
<polygon fill="white" stroke="black" points="812.5,-67.5 812.5,-108.5 970.5,-108.5 970.5,-67.5 812.5,-67.5"/>
<text text-anchor="start" x="820.5" y="-96.5" font-family="Helvetica,sans-Serif" font-size="10.00">src/libs/vtools/tools</text>
<text text-anchor="start" x="820.5" y="-85.5" font-family="Helvetica,sans-Serif" font-size="10.00">/drawTools/operation</text>
<text text-anchor="middle" x="891.5" y="-74.5" font-family="Helvetica,sans-Serif" font-size="10.00">/mirror/vtoolmirrorbyline.cpp</text>
</a>
</g>
</g>
<!-- Node6&#45;&gt;Node8 -->
<g id="edge8" class="edge">
<title>Node6&#45;&gt;Node8</title>
<path fill="none" stroke="midnightblue" d="M414.79,-219.31C407.5,-197.23 401.52,-164.83 419.5,-145 446.94,-114.72 745.05,-114.79 785.5,-109 794.21,-107.75 803.3,-106.29 812.33,-104.73"/>
<polygon fill="midnightblue" stroke="midnightblue" points="411.58,-220.71 418.27,-228.93 418.16,-218.33 411.58,-220.71"/>
</g>
<!-- Node10&#45;&gt;Node4 -->
<g id="edge11" class="edge">
<title>Node10&#45;&gt;Node4</title>
<path fill="none" stroke="midnightblue" d="M605.71,-224.35C578.6,-210.97 542.65,-193.23 517.95,-181.04"/>
<polygon fill="midnightblue" stroke="midnightblue" points="604.38,-227.6 614.89,-228.88 607.48,-221.32 604.38,-227.6"/>
</g>
<!-- Node10&#45;&gt;Node9 -->
<g id="edge12" class="edge">
<title>Node10&#45;&gt;Node9</title>
<path fill="none" stroke="midnightblue" d="M639.65,-218.59C637.7,-206.26 635.4,-191.72 633.75,-181.23"/>
<polygon fill="midnightblue" stroke="midnightblue" points="636.23,-219.37 641.24,-228.7 643.14,-218.28 636.23,-219.37"/>
</g>
<!-- Node11 -->
<g id="node11" class="node">
<title>Node11</title>
<g id="a_node11"><a xlink:href="../../d3/d2b/vtoolmove_8cpp.html" target="_top" xlink:title=" ">
<polygon fill="white" stroke="black" points="1031.5,-145.5 1031.5,-186.5 1149.5,-186.5 1149.5,-145.5 1031.5,-145.5"/>
<text text-anchor="start" x="1039.5" y="-174.5" font-family="Helvetica,sans-Serif" font-size="10.00">src/libs/vtools/tools</text>
<text text-anchor="start" x="1039.5" y="-163.5" font-family="Helvetica,sans-Serif" font-size="10.00">/drawTools/operation</text>
<text text-anchor="middle" x="1090.5" y="-152.5" font-family="Helvetica,sans-Serif" font-size="10.00">/vtoolmove.cpp</text>
</a>
</g>
</g>
<!-- Node10&#45;&gt;Node11 -->
<g id="edge13" class="edge">
<title>Node10&#45;&gt;Node11</title>
<path fill="none" stroke="midnightblue" d="M698.86,-226.29C703.78,-225.08 708.72,-223.96 713.5,-223 849.08,-195.92 887.02,-214.61 1022.5,-187 1025.39,-186.41 1028.34,-185.76 1031.31,-185.05"/>
<polygon fill="midnightblue" stroke="midnightblue" points="697.6,-223 688.8,-228.9 699.36,-229.78 697.6,-223"/>
</g>
<!-- Node12&#45;&gt;Node4 -->
<g id="edge15" class="edge">
<title>Node12&#45;&gt;Node4</title>
<path fill="none" stroke="midnightblue" d="M725.91,-226.27C721.71,-225.14 717.55,-224.04 713.5,-223 645.43,-205.47 627.53,-204.66 559.5,-187 552.4,-185.16 544.93,-183.12 537.61,-181.08"/>
<polygon fill="midnightblue" stroke="midnightblue" points="725.12,-229.69 735.69,-228.94 726.96,-222.93 725.12,-229.69"/>
</g>
<!-- Node13 -->
<g id="node13" class="node">
<title>Node13</title>
<g id="a_node13"><a xlink:href="../../dc/d64/dialogrotation_8cpp.html" target="_top" xlink:title=" ">
<polygon fill="white" stroke="black" points="712,-151 712,-181 847,-181 847,-151 712,-151"/>
<text text-anchor="start" x="720" y="-169" font-family="Helvetica,sans-Serif" font-size="10.00">src/libs/vtools/dialogs</text>
<text text-anchor="middle" x="779.5" y="-158" font-family="Helvetica,sans-Serif" font-size="10.00">/tools/dialogrotation.cpp</text>
</a>
</g>
</g>
<!-- Node12&#45;&gt;Node13 -->
<g id="edge16" class="edge">
<title>Node12&#45;&gt;Node13</title>
<path fill="none" stroke="midnightblue" d="M782.89,-218.59C782.08,-206.26 781.13,-191.72 780.44,-181.23"/>
<polygon fill="midnightblue" stroke="midnightblue" points="779.41,-218.96 783.56,-228.7 786.4,-218.5 779.41,-218.96"/>
</g>
<!-- Node14 -->
<g id="node14" class="node">
<title>Node14</title>
<g id="a_node14"><a xlink:href="../../df/dd2/vtoolrotation_8cpp.html" target="_top" xlink:title=" ">
<polygon fill="white" stroke="black" points="1167.5,-145.5 1167.5,-186.5 1285.5,-186.5 1285.5,-145.5 1167.5,-145.5"/>
<text text-anchor="start" x="1175.5" y="-174.5" font-family="Helvetica,sans-Serif" font-size="10.00">src/libs/vtools/tools</text>
<text text-anchor="start" x="1175.5" y="-163.5" font-family="Helvetica,sans-Serif" font-size="10.00">/drawTools/operation</text>
<text text-anchor="middle" x="1226.5" y="-152.5" font-family="Helvetica,sans-Serif" font-size="10.00">/vtoolrotation.cpp</text>
</a>
</g>
</g>
<!-- Node12&#45;&gt;Node14 -->
<g id="edge17" class="edge">
<title>Node12&#45;&gt;Node14</title>
<path fill="none" stroke="midnightblue" d="M841.06,-226.42C846.25,-225.16 851.46,-223.99 856.5,-223 989.12,-196.84 1026.09,-214.17 1158.5,-187 1161.39,-186.41 1164.34,-185.75 1167.31,-185.04"/>
<polygon fill="midnightblue" stroke="midnightblue" points="839.95,-223.09 831.12,-228.94 841.67,-229.88 839.95,-223.09"/>
</g>
<!-- Node16 -->
<g id="node16" class="node">
<title>Node16</title>
<g id="a_node16"><a xlink:href="../../da/ddc/vabstractmirror_8cpp.html" target="_top" xlink:title=" ">
<polygon fill="white" stroke="black" points="865.5,-145.5 865.5,-186.5 1013.5,-186.5 1013.5,-145.5 865.5,-145.5"/>
<text text-anchor="start" x="873.5" y="-174.5" font-family="Helvetica,sans-Serif" font-size="10.00">src/libs/vtools/tools</text>
<text text-anchor="start" x="873.5" y="-163.5" font-family="Helvetica,sans-Serif" font-size="10.00">/drawTools/operation</text>
<text text-anchor="middle" x="939.5" y="-152.5" font-family="Helvetica,sans-Serif" font-size="10.00">/mirror/vabstractmirror.cpp</text>
</a>
</g>
</g>
<!-- Node15&#45;&gt;Node16 -->
<g id="edge19" class="edge">
<title>Node15&#45;&gt;Node16</title>
<path fill="none" stroke="midnightblue" d="M935.85,-213.3C936.56,-204.3 937.32,-194.65 937.96,-186.51"/>
<polygon fill="midnightblue" stroke="midnightblue" points="932.34,-213.18 935.05,-223.43 939.32,-213.73 932.34,-213.18"/>
</g>
<!-- Node17 -->
<g id="node17" class="node">
<title>Node17</title>
<g id="a_node17"><a xlink:href="../../df/db5/vtoolmirrorbyaxis_8h.html" target="_top" xlink:title=" ">
<polygon fill="white" stroke="black" points="1304,-145.5 1304,-186.5 1453,-186.5 1453,-145.5 1304,-145.5"/>
<text text-anchor="start" x="1312" y="-174.5" font-family="Helvetica,sans-Serif" font-size="10.00">src/libs/vtools/tools</text>
<text text-anchor="start" x="1312" y="-163.5" font-family="Helvetica,sans-Serif" font-size="10.00">/drawTools/operation</text>
<text text-anchor="middle" x="1378.5" y="-152.5" font-family="Helvetica,sans-Serif" font-size="10.00">/mirror/vtoolmirrorbyaxis.h</text>
</a>
</g>
</g>
<!-- Node15&#45;&gt;Node17 -->
<g id="edge20" class="edge">
<title>Node15&#45;&gt;Node17</title>
<path fill="none" stroke="midnightblue" d="M1012.3,-222.98C1137.81,-199.72 1172.93,-209.14 1294.5,-187 1297.6,-186.44 1300.75,-185.83 1303.93,-185.19"/>
<polygon fill="midnightblue" stroke="midnightblue" points="1011.48,-219.57 1002.3,-224.86 1012.77,-226.45 1011.48,-219.57"/>
</g>
<!-- Node20 -->
<g id="node20" class="node">
<title>Node20</title>
<g id="a_node20"><a xlink:href="../../dc/d5e/vtoolmirrorbyline_8h.html" target="_top" xlink:title=" ">
<polygon fill="white" stroke="black" points="1471.5,-145.5 1471.5,-186.5 1617.5,-186.5 1617.5,-145.5 1471.5,-145.5"/>
<text text-anchor="start" x="1479.5" y="-174.5" font-family="Helvetica,sans-Serif" font-size="10.00">src/libs/vtools/tools</text>
<text text-anchor="start" x="1479.5" y="-163.5" font-family="Helvetica,sans-Serif" font-size="10.00">/drawTools/operation</text>
<text text-anchor="middle" x="1544.5" y="-152.5" font-family="Helvetica,sans-Serif" font-size="10.00">/mirror/vtoolmirrorbyline.h</text>
</a>
</g>
</g>
<!-- Node15&#45;&gt;Node20 -->
<g id="edge24" class="edge">
<title>Node15&#45;&gt;Node20</title>
<path fill="none" stroke="midnightblue" d="M1012.18,-223.05C1211.62,-190.83 1267.17,-218.41 1462.5,-187 1465.39,-186.53 1468.34,-186.02 1471.3,-185.47"/>
<polygon fill="midnightblue" stroke="midnightblue" points="1011.57,-219.61 1002.27,-224.69 1012.7,-226.52 1011.57,-219.61"/>
</g>
<!-- Node17&#45;&gt;Node5 -->
<g id="edge21" class="edge">
<title>Node17&#45;&gt;Node5</title>
<path fill="none" stroke="midnightblue" d="M1293.83,-145.05C1076.48,-112.31 1017.21,-136.72 803.5,-109 794.79,-107.87 785.71,-106.49 776.68,-104.99"/>
<polygon fill="midnightblue" stroke="midnightblue" points="1293.55,-148.55 1303.97,-146.6 1294.61,-141.63 1293.55,-148.55"/>
</g>
<!-- Node18 -->
<g id="node18" class="node">
<title>Node18</title>
<g id="a_node18"><a xlink:href="../../d4/d56/drawtools_8h.html" target="_top" xlink:title=" ">
<polygon fill="white" stroke="black" points="1530.5,-73 1530.5,-103 1658.5,-103 1658.5,-73 1530.5,-73"/>
<text text-anchor="start" x="1538.5" y="-91" font-family="Helvetica,sans-Serif" font-size="10.00">src/libs/vtools/tools</text>
<text text-anchor="middle" x="1594.5" y="-80" font-family="Helvetica,sans-Serif" font-size="10.00">/drawTools/drawtools.h</text>
</a>
</g>
</g>
<!-- Node17&#45;&gt;Node18 -->
<g id="edge22" class="edge">
<title>Node17&#45;&gt;Node18</title>
<path fill="none" stroke="midnightblue" d="M1443.6,-142.1C1479.66,-129.41 1523.34,-114.04 1554.41,-103.11"/>
<polygon fill="midnightblue" stroke="midnightblue" points="1442.4,-138.81 1434.13,-145.43 1444.72,-145.41 1442.4,-138.81"/>
</g>
<!-- Node19 -->
<g id="node19" class="node">
<title>Node19</title>
<g id="a_node19"><a xlink:href="../../d5/da5/tools_8h.html" target="_top" xlink:title=" ">
<polygon fill="white" stroke="black" points="1539,-0.5 1539,-30.5 1650,-30.5 1650,-0.5 1539,-0.5"/>
<text text-anchor="start" x="1547" y="-18.5" font-family="Helvetica,sans-Serif" font-size="10.00">src/libs/vtools/tools</text>
<text text-anchor="middle" x="1594.5" y="-7.5" font-family="Helvetica,sans-Serif" font-size="10.00">/tools.h</text>
</a>
</g>
</g>
<!-- Node18&#45;&gt;Node19 -->
<g id="edge23" class="edge">
<title>Node18&#45;&gt;Node19</title>
<path fill="none" stroke="midnightblue" d="M1594.5,-62.73C1594.5,-52.07 1594.5,-39.91 1594.5,-30.75"/>
<polygon fill="midnightblue" stroke="midnightblue" points="1591,-62.73 1594.5,-72.73 1598,-62.73 1591,-62.73"/>
</g>
<!-- Node20&#45;&gt;Node8 -->
<g id="edge25" class="edge">
<title>Node20&#45;&gt;Node8</title>
<path fill="none" stroke="midnightblue" d="M1461.36,-144.92C1281.01,-114.84 1079.68,-99.82 970.94,-93.23"/>
<polygon fill="midnightblue" stroke="midnightblue" points="1460.85,-148.39 1471.29,-146.6 1462.01,-141.48 1460.85,-148.39"/>
</g>
<!-- Node20&#45;&gt;Node18 -->
<g id="edge26" class="edge">
<title>Node20&#45;&gt;Node18</title>
<path fill="none" stroke="midnightblue" d="M1562.93,-136.98C1570.49,-125.5 1578.9,-112.71 1585.14,-103.23"/>
<polygon fill="midnightblue" stroke="midnightblue" points="1559.95,-135.15 1557.38,-145.43 1565.8,-139 1559.95,-135.15"/>
</g>
<!-- Node22&#45;&gt;Node11 -->
<g id="edge29" class="edge">
<title>Node22&#45;&gt;Node11</title>
<path fill="none" stroke="midnightblue" d="M1184.92,-218.63C1165.93,-208.24 1144.07,-196.29 1126.17,-186.51"/>
<polygon fill="midnightblue" stroke="midnightblue" points="1183.25,-221.7 1193.7,-223.43 1186.61,-215.56 1183.25,-221.7"/>
</g>
<!-- Node22&#45;&gt;Node18 -->
<g id="edge30" class="edge">
<title>Node22&#45;&gt;Node18</title>
<path fill="none" stroke="midnightblue" d="M1298.73,-223.22C1385.61,-211.03 1579.32,-239.62 1626.5,-187 1648.13,-162.88 1623.17,-123.88 1606.7,-103.09"/>
<polygon fill="midnightblue" stroke="midnightblue" points="1297.96,-219.8 1288.68,-224.92 1299.13,-226.71 1297.96,-219.8"/>
</g>
<!-- Node23&#45;&gt;Node14 -->
<g id="edge32" class="edge">
<title>Node23&#45;&gt;Node14</title>
<path fill="none" stroke="midnightblue" d="M1320.92,-218.63C1301.93,-208.24 1280.07,-196.29 1262.17,-186.51"/>
<polygon fill="midnightblue" stroke="midnightblue" points="1319.25,-221.7 1329.7,-223.43 1322.61,-215.56 1319.25,-221.7"/>
</g>
<!-- Node23&#45;&gt;Node18 -->
<g id="edge33" class="edge">
<title>Node23&#45;&gt;Node18</title>
<path fill="none" stroke="midnightblue" d="M1434.86,-223.39C1498.66,-213.22 1628.38,-223.5 1659.5,-187 1671.61,-172.8 1667.28,-161.97 1659.5,-145 1651.31,-127.13 1634.28,-112.8 1619.71,-103.11"/>
<polygon fill="midnightblue" stroke="midnightblue" points="1434.02,-219.99 1424.85,-225.29 1435.32,-226.87 1434.02,-219.99"/>
</g>
</g>
</svg>
        <g id="navigator" transform="translate(0 0)" fill="#404254">
                <rect fill="#f2f5e9" fill-opacity="0.5" stroke="#606060" stroke-width=".5" x="0" y="0" width="60" height="60"/>
                <use id="zoomplus" xlink:href="#zoomPlus" x="17" y="9" onmousedown="handleZoom(evt,'in')"/>
                <use id="zoomminus" xlink:href="#zoomMin" x="42" y="9" onmousedown="handleZoom(evt,'out')"/>
                <use id="reset" xlink:href="#resetDef" x="30" y="36" onmousedown="handleReset()"/>
                <g id="arrowUp" xlink:href="#dirArrow" transform="translate(30 24)" onmousedown="handlePan(0,-1)">
                  <use xlink:href="#rim" fill="#404040">
                        <set attributeName="fill" to="#808080" begin="arrowUp.mouseover" end="arrowUp.mouseout"/>
                  </use>
                  <path fill="none" stroke="white" stroke-width="1.5" d="M0,-3.0v7 M-2.5,-0.5L0,-3.0L2.5,-0.5"/>
                </g>
                <g id="arrowRight" xlink:href="#dirArrow" transform="rotate(90) translate(36 -43)" onmousedown="handlePan(1,0)">
                  <use xlink:href="#rim" fill="#404040">
                        <set attributeName="fill" to="#808080" begin="arrowRight.mouseover" end="arrowRight.mouseout"/>
                  </use>
                  <path fill="none" stroke="white" stroke-width="1.5" d="M0,-3.0v7 M-2.5,-0.5L0,-3.0L2.5,-0.5"/>
                </g>
                <g id="arrowDown" xlink:href="#dirArrow" transform="rotate(180) translate(-30 -48)" onmousedown="handlePan(0,1)">
                  <use xlink:href="#rim" fill="#404040">
                        <set attributeName="fill" to="#808080" begin="arrowDown.mouseover" end="arrowDown.mouseout"/>
                  </use>
                  <path fill="none" stroke="white" stroke-width="1.5" d="M0,-3.0v7 M-2.5,-0.5L0,-3.0L2.5,-0.5"/>
                </g>
                <g id="arrowLeft" xlink:href="#dirArrow" transform="rotate(270) translate(-36 17)" onmousedown="handlePan(-1,0)">
                  <use xlink:href="#rim" fill="#404040">
                        <set attributeName="fill" to="#808080" begin="arrowLeft.mouseover" end="arrowLeft.mouseout"/>
                  </use>
                  <path fill="none" stroke="white" stroke-width="1.5" d="M0,-3.0v7 M-2.5,-0.5L0,-3.0L2.5,-0.5"/>
                </g>
        </g>
        <svg viewBox="0 0 15 15" width="100%" height="30px" preserveAspectRatio="xMaxYMin meet">
         <g id="arrow_out" transform="scale(0.3 0.3)">
          <a xlink:href="vabstractoperation_8h__dep__incl_org.svg" target="_base">
           <rect id="button" ry="5" rx="5" y="6" x="6" height="38" width="38"
                fill="#f2f5e9" fill-opacity="0.5" stroke="#606060" stroke-width="1.0"/>
           <path id="arrow"
             d="M 11.500037,31.436501 C 11.940474,20.09759 22.043105,11.32322 32.158766,21.979434 L 37.068811,17.246167 C 37.068811,17.246167 37.088388,32 37.088388,32 L 22.160133,31.978069 C 22.160133,31.978069 26.997745,27.140456 26.997745,27.140456 C 18.528582,18.264221 13.291696,25.230495 11.500037,31.436501 z"
             style="fill:#404040;"/>
          </a>
         </g>
        </svg>
</svg>
