<?xml version="1.0" encoding="UTF-8" standalone="no"?>
<!DOCTYPE svg PUBLIC "-//W3C//DTD SVG 1.1//EN"
 "http://www.w3.org/Graphics/SVG/1.1/DTD/svg11.dtd">
<!-- Generated by graphviz version 2.43.0 (0)
 -->
<!-- Title: src/libs/vpropertyexplorer/vproperty_p.h Pages: 1 -->
<svg width="3028pt" height="173pt"
 viewBox="0.00 0.00 3028.00 173.00" xmlns="http://www.w3.org/2000/svg" xmlns:xlink="http://www.w3.org/1999/xlink">
<g id="graph0" class="graph" transform="scale(1 1) rotate(0) translate(4 169)">
<title>src/libs/vpropertyexplorer/vproperty_p.h</title>
<polygon fill="white" stroke="transparent" points="-4,4 -4,-169 3024,-169 3024,4 -4,4"/>
<!-- Node1 -->
<g id="node1" class="node">
<title>Node1</title>
<g id="a_node1"><a xlink:title=" ">
<polygon fill="#bfbfbf" stroke="black" points="1424.5,-134.5 1424.5,-164.5 1566.5,-164.5 1566.5,-134.5 1424.5,-134.5"/>
<text text-anchor="start" x="1432.5" y="-152.5" font-family="Helvetica,sans-Serif" font-size="10.00">src/libs/vpropertyexplorer</text>
<text text-anchor="middle" x="1495.5" y="-141.5" font-family="Helvetica,sans-Serif" font-size="10.00">/vproperty_p.h</text>
</a>
</g>
</g>
<!-- Node2 -->
<g id="node2" class="node">
<title>Node2</title>
<g id="a_node2"><a xlink:href="../../da/d2f/plaintext__property_8cpp.html" target="_top" xlink:title=" ">
<polygon fill="white" stroke="black" points="0,-67.5 0,-97.5 167,-97.5 167,-67.5 0,-67.5"/>
<text text-anchor="start" x="8" y="-85.5" font-family="Helvetica,sans-Serif" font-size="10.00">src/libs/vpropertyexplorer</text>
<text text-anchor="middle" x="83.5" y="-74.5" font-family="Helvetica,sans-Serif" font-size="10.00">/plugins/plaintext_property.cpp</text>
</a>
</g>
</g>
<!-- Node1&#45;&gt;Node2 -->
<g id="edge1" class="edge">
<title>Node1&#45;&gt;Node2</title>
<path fill="none" stroke="midnightblue" d="M1414.29,-148.72C1207.24,-148.57 642.94,-143.62 175.5,-98 172.76,-97.73 169.99,-97.44 167.18,-97.12"/>
<polygon fill="midnightblue" stroke="midnightblue" points="1414.47,-152.22 1424.47,-148.73 1414.47,-145.22 1414.47,-152.22"/>
</g>
<!-- Node3 -->
<g id="node3" class="node">
<title>Node3</title>
<g id="a_node3"><a xlink:href="../../d8/d83/vboolproperty_8cpp.html" target="_top" xlink:title=" ">
<polygon fill="white" stroke="black" points="185,-67.5 185,-97.5 330,-97.5 330,-67.5 185,-67.5"/>
<text text-anchor="start" x="193" y="-85.5" font-family="Helvetica,sans-Serif" font-size="10.00">src/libs/vpropertyexplorer</text>
<text text-anchor="middle" x="257.5" y="-74.5" font-family="Helvetica,sans-Serif" font-size="10.00">/plugins/vboolproperty.cpp</text>
</a>
</g>
</g>
<!-- Node1&#45;&gt;Node3 -->
<g id="edge2" class="edge">
<title>Node1&#45;&gt;Node3</title>
<path fill="none" stroke="midnightblue" d="M1414.07,-148.61C1224.85,-148.07 740.97,-142.07 339.5,-98 336.48,-97.67 333.41,-97.29 330.31,-96.89"/>
<polygon fill="midnightblue" stroke="midnightblue" points="1414.21,-152.11 1424.22,-148.64 1414.23,-145.11 1414.21,-152.11"/>
</g>
<!-- Node4 -->
<g id="node4" class="node">
<title>Node4</title>
<g id="a_node4"><a xlink:href="../../d9/d33/lineweight__property_8cpp.html" target="_top" xlink:title=" ">
<polygon fill="white" stroke="black" points="348.5,-67.5 348.5,-97.5 522.5,-97.5 522.5,-67.5 348.5,-67.5"/>
<text text-anchor="start" x="356.5" y="-85.5" font-family="Helvetica,sans-Serif" font-size="10.00">src/libs/vpropertyexplorer</text>
<text text-anchor="middle" x="435.5" y="-74.5" font-family="Helvetica,sans-Serif" font-size="10.00">/plugins/lineweight_property.cpp</text>
</a>
</g>
</g>
<!-- Node1&#45;&gt;Node4 -->
<g id="edge3" class="edge">
<title>Node1&#45;&gt;Node4</title>
<path fill="none" stroke="midnightblue" d="M1414.12,-146.92C1247.89,-143.09 857.52,-131.08 531.5,-98 528.57,-97.7 525.58,-97.38 522.57,-97.03"/>
<polygon fill="midnightblue" stroke="midnightblue" points="1414.19,-150.42 1424.27,-147.15 1414.35,-143.42 1414.19,-150.42"/>
</g>
<!-- Node5 -->
<g id="node5" class="node">
<title>Node5</title>
<g id="a_node5"><a xlink:href="../../d2/d8f/vvector3dproperty_8cpp.html" target="_top" xlink:title=" ">
<polygon fill="white" stroke="black" points="540.5,-67.5 540.5,-97.5 752.5,-97.5 752.5,-67.5 540.5,-67.5"/>
<text text-anchor="start" x="548.5" y="-85.5" font-family="Helvetica,sans-Serif" font-size="10.00">src/libs/vpropertyexplorer</text>
<text text-anchor="middle" x="646.5" y="-74.5" font-family="Helvetica,sans-Serif" font-size="10.00">/plugins/Vector3d/vvector3dproperty.cpp</text>
</a>
</g>
</g>
<!-- Node1&#45;&gt;Node5 -->
<g id="edge4" class="edge">
<title>Node1&#45;&gt;Node5</title>
<path fill="none" stroke="midnightblue" d="M1413.98,-144.41C1278.38,-137.25 998,-121.03 761.5,-98 758.6,-97.72 755.65,-97.42 752.68,-97.11"/>
<polygon fill="midnightblue" stroke="midnightblue" points="1414.11,-147.92 1424.28,-144.95 1414.47,-140.93 1414.11,-147.92"/>
</g>
<!-- Node6 -->
<g id="node6" class="node">
<title>Node6</title>
<g id="a_node6"><a xlink:href="../../d3/d60/venumproperty_8cpp.html" target="_top" xlink:title=" ">
<polygon fill="white" stroke="black" points="770.5,-67.5 770.5,-97.5 922.5,-97.5 922.5,-67.5 770.5,-67.5"/>
<text text-anchor="start" x="778.5" y="-85.5" font-family="Helvetica,sans-Serif" font-size="10.00">src/libs/vpropertyexplorer</text>
<text text-anchor="middle" x="846.5" y="-74.5" font-family="Helvetica,sans-Serif" font-size="10.00">/plugins/venumproperty.cpp</text>
</a>
</g>
</g>
<!-- Node1&#45;&gt;Node6 -->
<g id="edge5" class="edge">
<title>Node1&#45;&gt;Node6</title>
<path fill="none" stroke="midnightblue" d="M1414.06,-143.25C1304.22,-135.71 1102.61,-120.22 931.5,-98 928.68,-97.63 925.81,-97.24 922.91,-96.83"/>
<polygon fill="midnightblue" stroke="midnightblue" points="1413.86,-146.75 1424.08,-143.94 1414.34,-139.76 1413.86,-146.75"/>
</g>
<!-- Node7 -->
<g id="node7" class="node">
<title>Node7</title>
<g id="a_node7"><a xlink:href="../../d0/d6b/vcolorproperty_8cpp.html" target="_top" xlink:title=" ">
<polygon fill="white" stroke="black" points="940.5,-67.5 940.5,-97.5 1088.5,-97.5 1088.5,-67.5 940.5,-67.5"/>
<text text-anchor="start" x="948.5" y="-85.5" font-family="Helvetica,sans-Serif" font-size="10.00">src/libs/vpropertyexplorer</text>
<text text-anchor="middle" x="1014.5" y="-74.5" font-family="Helvetica,sans-Serif" font-size="10.00">/plugins/vcolorproperty.cpp</text>
</a>
</g>
</g>
<!-- Node1&#45;&gt;Node7 -->
<g id="edge6" class="edge">
<title>Node1&#45;&gt;Node7</title>
<path fill="none" stroke="midnightblue" d="M1414.45,-138.94C1334.9,-129.35 1210.2,-113.79 1102.5,-98 1098.06,-97.35 1093.49,-96.66 1088.89,-95.95"/>
<polygon fill="midnightblue" stroke="midnightblue" points="1414.05,-142.42 1424.4,-140.13 1414.89,-135.47 1414.05,-142.42"/>
</g>
<!-- Node8 -->
<g id="node8" class="node">
<title>Node8</title>
<g id="a_node8"><a xlink:href="../../d7/dd2/vfileproperty_8cpp.html" target="_top" xlink:title=" ">
<polygon fill="white" stroke="black" points="1798.5,-0.5 1798.5,-30.5 1940.5,-30.5 1940.5,-0.5 1798.5,-0.5"/>
<text text-anchor="start" x="1806.5" y="-18.5" font-family="Helvetica,sans-Serif" font-size="10.00">src/libs/vpropertyexplorer</text>
<text text-anchor="middle" x="1869.5" y="-7.5" font-family="Helvetica,sans-Serif" font-size="10.00">/plugins/vfileproperty.cpp</text>
</a>
</g>
</g>
<!-- Node1&#45;&gt;Node8 -->
<g id="edge7" class="edge">
<title>Node1&#45;&gt;Node8</title>
<path fill="none" stroke="midnightblue" d="M1414.13,-148.96C1319.25,-147.55 1170.86,-138.67 1135.5,-98 1126.46,-87.6 1126.1,-77.07 1135.5,-67 1180.12,-19.21 1622.9,-15.56 1798.39,-16.02"/>
<polygon fill="midnightblue" stroke="midnightblue" points="1414.24,-152.46 1424.28,-149.08 1414.32,-145.46 1414.24,-152.46"/>
</g>
<!-- Node9 -->
<g id="node9" class="node">
<title>Node9</title>
<g id="a_node9"><a xlink:href="../../dd/d22/vlinecolorproperty_8cpp.html" target="_top" xlink:title=" ">
<polygon fill="white" stroke="black" points="1144.5,-67.5 1144.5,-97.5 1310.5,-97.5 1310.5,-67.5 1144.5,-67.5"/>
<text text-anchor="start" x="1152.5" y="-85.5" font-family="Helvetica,sans-Serif" font-size="10.00">src/libs/vpropertyexplorer</text>
<text text-anchor="middle" x="1227.5" y="-74.5" font-family="Helvetica,sans-Serif" font-size="10.00">/plugins/vlinecolorproperty.cpp</text>
</a>
</g>
</g>
<!-- Node1&#45;&gt;Node9 -->
<g id="edge8" class="edge">
<title>Node1&#45;&gt;Node9</title>
<path fill="none" stroke="midnightblue" d="M1427.96,-132.12C1384.11,-121.48 1327.54,-107.76 1285.68,-97.61"/>
<polygon fill="midnightblue" stroke="midnightblue" points="1427.13,-135.52 1437.68,-134.48 1428.78,-128.72 1427.13,-135.52"/>
</g>
<!-- Node10 -->
<g id="node10" class="node">
<title>Node10</title>
<g id="a_node10"><a xlink:href="../../d7/dda/vnumberproperty_8cpp.html" target="_top" xlink:title=" ">
<polygon fill="white" stroke="black" points="1329,-67.5 1329,-97.5 1490,-97.5 1490,-67.5 1329,-67.5"/>
<text text-anchor="start" x="1337" y="-85.5" font-family="Helvetica,sans-Serif" font-size="10.00">src/libs/vpropertyexplorer</text>
<text text-anchor="middle" x="1409.5" y="-74.5" font-family="Helvetica,sans-Serif" font-size="10.00">/plugins/vnumberproperty.cpp</text>
</a>
</g>
</g>
<!-- Node1&#45;&gt;Node10 -->
<g id="edge9" class="edge">
<title>Node1&#45;&gt;Node10</title>
<path fill="none" stroke="midnightblue" d="M1468.6,-128.17C1455.45,-118.23 1439.95,-106.51 1428.12,-97.58"/>
<polygon fill="midnightblue" stroke="midnightblue" points="1466.75,-131.16 1476.84,-134.4 1470.97,-125.57 1466.75,-131.16"/>
</g>
<!-- Node11 -->
<g id="node11" class="node">
<title>Node11</title>
<g id="a_node11"><a xlink:href="../../d6/ddf/vlabelproperty_8cpp.html" target="_top" xlink:title=" ">
<polygon fill="white" stroke="black" points="1508.5,-67.5 1508.5,-97.5 1656.5,-97.5 1656.5,-67.5 1508.5,-67.5"/>
<text text-anchor="start" x="1516.5" y="-85.5" font-family="Helvetica,sans-Serif" font-size="10.00">src/libs/vpropertyexplorer</text>
<text text-anchor="middle" x="1582.5" y="-74.5" font-family="Helvetica,sans-Serif" font-size="10.00">/plugins/vlabelproperty.cpp</text>
</a>
</g>
</g>
<!-- Node1&#45;&gt;Node11 -->
<g id="edge10" class="edge">
<title>Node1&#45;&gt;Node11</title>
<path fill="none" stroke="midnightblue" d="M1522.71,-128.17C1536.02,-118.23 1551.7,-106.51 1563.66,-97.58"/>
<polygon fill="midnightblue" stroke="midnightblue" points="1520.29,-125.61 1514.38,-134.4 1524.48,-131.21 1520.29,-125.61"/>
</g>
<!-- Node12 -->
<g id="node12" class="node">
<title>Node12</title>
<g id="a_node12"><a xlink:href="../../d5/d66/vobjectproperty_8cpp.html" target="_top" xlink:title=" ">
<polygon fill="white" stroke="black" points="1674.5,-67.5 1674.5,-97.5 1828.5,-97.5 1828.5,-67.5 1674.5,-67.5"/>
<text text-anchor="start" x="1682.5" y="-85.5" font-family="Helvetica,sans-Serif" font-size="10.00">src/libs/vpropertyexplorer</text>
<text text-anchor="middle" x="1751.5" y="-74.5" font-family="Helvetica,sans-Serif" font-size="10.00">/plugins/vobjectproperty.cpp</text>
</a>
</g>
</g>
<!-- Node1&#45;&gt;Node12 -->
<g id="edge11" class="edge">
<title>Node1&#45;&gt;Node12</title>
<path fill="none" stroke="midnightblue" d="M1560.55,-131.98C1602.36,-121.37 1656.11,-107.72 1695.92,-97.61"/>
<polygon fill="midnightblue" stroke="midnightblue" points="1559.56,-128.62 1550.73,-134.48 1561.29,-135.41 1559.56,-128.62"/>
</g>
<!-- Node13 -->
<g id="node13" class="node">
<title>Node13</title>
<g id="a_node13"><a xlink:href="../../de/d34/vshortcutproperty_8cpp.html" target="_top" xlink:title=" ">
<polygon fill="white" stroke="black" points="1846.5,-67.5 1846.5,-97.5 2010.5,-97.5 2010.5,-67.5 1846.5,-67.5"/>
<text text-anchor="start" x="1854.5" y="-85.5" font-family="Helvetica,sans-Serif" font-size="10.00">src/libs/vpropertyexplorer</text>
<text text-anchor="middle" x="1928.5" y="-74.5" font-family="Helvetica,sans-Serif" font-size="10.00">/plugins/vshortcutproperty.cpp</text>
</a>
</g>
</g>
<!-- Node1&#45;&gt;Node13 -->
<g id="edge12" class="edge">
<title>Node1&#45;&gt;Node13</title>
<path fill="none" stroke="midnightblue" d="M1576.59,-136.79C1645.91,-126.72 1748.3,-111.69 1837.5,-98 1840.35,-97.56 1843.24,-97.12 1846.17,-96.66"/>
<polygon fill="midnightblue" stroke="midnightblue" points="1576,-133.34 1566.6,-138.24 1577,-140.27 1576,-133.34"/>
</g>
<!-- Node14 -->
<g id="node14" class="node">
<title>Node14</title>
<g id="a_node14"><a xlink:href="../../dc/d32/vlinetypeproperty_8cpp.html" target="_top" xlink:title=" ">
<polygon fill="white" stroke="black" points="2028.5,-67.5 2028.5,-97.5 2192.5,-97.5 2192.5,-67.5 2028.5,-67.5"/>
<text text-anchor="start" x="2036.5" y="-85.5" font-family="Helvetica,sans-Serif" font-size="10.00">src/libs/vpropertyexplorer</text>
<text text-anchor="middle" x="2110.5" y="-74.5" font-family="Helvetica,sans-Serif" font-size="10.00">/plugins/vlinetypeproperty.cpp</text>
</a>
</g>
</g>
<!-- Node1&#45;&gt;Node14 -->
<g id="edge13" class="edge">
<title>Node1&#45;&gt;Node14</title>
<path fill="none" stroke="midnightblue" d="M1576.89,-142.23C1680.07,-133.92 1863.33,-117.95 2019.5,-98 2022.36,-97.64 2025.26,-97.25 2028.19,-96.85"/>
<polygon fill="midnightblue" stroke="midnightblue" points="1576.54,-138.74 1566.85,-143.03 1577.1,-145.72 1576.54,-138.74"/>
</g>
<!-- Node15 -->
<g id="node15" class="node">
<title>Node15</title>
<g id="a_node15"><a xlink:href="../../d2/dec/vpointfproperty_8cpp.html" target="_top" xlink:title=" ">
<polygon fill="white" stroke="black" points="2210.5,-67.5 2210.5,-97.5 2362.5,-97.5 2362.5,-67.5 2210.5,-67.5"/>
<text text-anchor="start" x="2218.5" y="-85.5" font-family="Helvetica,sans-Serif" font-size="10.00">src/libs/vpropertyexplorer</text>
<text text-anchor="middle" x="2286.5" y="-74.5" font-family="Helvetica,sans-Serif" font-size="10.00">/plugins/vpointfproperty.cpp</text>
</a>
</g>
</g>
<!-- Node1&#45;&gt;Node15 -->
<g id="edge14" class="edge">
<title>Node1&#45;&gt;Node15</title>
<path fill="none" stroke="midnightblue" d="M1576.62,-145.27C1708.17,-139.46 1976.04,-125.23 2201.5,-98 2204.32,-97.66 2207.2,-97.29 2210.1,-96.9"/>
<polygon fill="midnightblue" stroke="midnightblue" points="1576.45,-141.78 1566.62,-145.71 1576.76,-148.77 1576.45,-141.78"/>
</g>
<!-- Node16 -->
<g id="node16" class="node">
<title>Node16</title>
<g id="a_node16"><a xlink:href="../../dc/d18/vstringproperty_8cpp.html" target="_top" xlink:title=" ">
<polygon fill="white" stroke="black" points="2380.5,-67.5 2380.5,-97.5 2532.5,-97.5 2532.5,-67.5 2380.5,-67.5"/>
<text text-anchor="start" x="2388.5" y="-85.5" font-family="Helvetica,sans-Serif" font-size="10.00">src/libs/vpropertyexplorer</text>
<text text-anchor="middle" x="2456.5" y="-74.5" font-family="Helvetica,sans-Serif" font-size="10.00">/plugins/vstringproperty.cpp</text>
</a>
</g>
</g>
<!-- Node1&#45;&gt;Node16 -->
<g id="edge15" class="edge">
<title>Node1&#45;&gt;Node16</title>
<path fill="none" stroke="midnightblue" d="M1577.08,-146.83C1732.25,-142.98 2080.39,-131.12 2371.5,-98 2374.33,-97.68 2377.2,-97.32 2380.1,-96.95"/>
<polygon fill="midnightblue" stroke="midnightblue" points="1576.61,-143.34 1566.7,-147.08 1576.78,-150.34 1576.61,-143.34"/>
</g>
<!-- Node17 -->
<g id="node17" class="node">
<title>Node17</title>
<g id="a_node17"><a xlink:href="../../dc/de7/vfileproperty__p_8h.html" target="_top" xlink:title=" ">
<polygon fill="white" stroke="black" points="2550.5,-67.5 2550.5,-97.5 2692.5,-97.5 2692.5,-67.5 2550.5,-67.5"/>
<text text-anchor="start" x="2558.5" y="-85.5" font-family="Helvetica,sans-Serif" font-size="10.00">src/libs/vpropertyexplorer</text>
<text text-anchor="middle" x="2621.5" y="-74.5" font-family="Helvetica,sans-Serif" font-size="10.00">/vfileproperty_p.h</text>
</a>
</g>
</g>
<!-- Node1&#45;&gt;Node17 -->
<g id="edge16" class="edge">
<title>Node1&#45;&gt;Node17</title>
<path fill="none" stroke="midnightblue" d="M1577.02,-148.19C1753.48,-146.73 2183.75,-138.88 2541.5,-98 2544.45,-97.66 2547.45,-97.28 2550.47,-96.87"/>
<polygon fill="midnightblue" stroke="midnightblue" points="1576.76,-144.69 1566.78,-148.27 1576.81,-151.69 1576.76,-144.69"/>
</g>
<!-- Node18 -->
<g id="node18" class="node">
<title>Node18</title>
<g id="a_node18"><a xlink:href="../../d8/dd2/vproperty_8cpp.html" target="_top" xlink:title=" ">
<polygon fill="white" stroke="black" points="2710.5,-67.5 2710.5,-97.5 2852.5,-97.5 2852.5,-67.5 2710.5,-67.5"/>
<text text-anchor="start" x="2718.5" y="-85.5" font-family="Helvetica,sans-Serif" font-size="10.00">src/libs/vpropertyexplorer</text>
<text text-anchor="middle" x="2781.5" y="-74.5" font-family="Helvetica,sans-Serif" font-size="10.00">/vproperty.cpp</text>
</a>
</g>
</g>
<!-- Node1&#45;&gt;Node18 -->
<g id="edge18" class="edge">
<title>Node1&#45;&gt;Node18</title>
<path fill="none" stroke="midnightblue" d="M1576.94,-148.94C1771.84,-149.16 2280.24,-144.77 2701.5,-98 2704.45,-97.67 2707.45,-97.3 2710.47,-96.9"/>
<polygon fill="midnightblue" stroke="midnightblue" points="1576.79,-145.44 1566.78,-148.93 1576.78,-152.44 1576.79,-145.44"/>
</g>
<!-- Node19 -->
<g id="node19" class="node">
<title>Node19</title>
<g id="a_node19"><a xlink:href="../../d4/d5a/vwidgetproperty__p_8h.html" target="_top" xlink:title=" ">
<polygon fill="white" stroke="black" points="2870.5,-67.5 2870.5,-97.5 3012.5,-97.5 3012.5,-67.5 2870.5,-67.5"/>
<text text-anchor="start" x="2878.5" y="-85.5" font-family="Helvetica,sans-Serif" font-size="10.00">src/libs/vpropertyexplorer</text>
<text text-anchor="middle" x="2941.5" y="-74.5" font-family="Helvetica,sans-Serif" font-size="10.00">/vwidgetproperty_p.h</text>
</a>
</g>
</g>
<!-- Node1&#45;&gt;Node19 -->
<g id="edge19" class="edge">
<title>Node1&#45;&gt;Node19</title>
<path fill="none" stroke="midnightblue" d="M1577.18,-147.01C1832,-142.11 2610.33,-125.27 2861.5,-98 2864.45,-97.68 2867.45,-97.32 2870.48,-96.91"/>
<polygon fill="midnightblue" stroke="midnightblue" points="1576.82,-143.51 1566.89,-147.2 1576.95,-150.51 1576.82,-143.51"/>
</g>
<!-- Node17&#45;&gt;Node8 -->
<g id="edge17" class="edge">
<title>Node17&#45;&gt;Node8</title>
<path fill="none" stroke="midnightblue" d="M2540.47,-66.96C2316.03,-38.73 2062.07,-24.9 1940.86,-19.41"/>
<polygon fill="midnightblue" stroke="midnightblue" points="2540.1,-70.44 2550.46,-68.23 2540.98,-63.5 2540.1,-70.44"/>
</g>
<!-- Node20 -->
<g id="node20" class="node">
<title>Node20</title>
<g id="a_node20"><a xlink:href="../../dc/ddd/vwidgetproperty_8cpp.html" target="_top" xlink:title=" ">
<polygon fill="white" stroke="black" points="2863,-0.5 2863,-30.5 3020,-30.5 3020,-0.5 2863,-0.5"/>
<text text-anchor="start" x="2871" y="-18.5" font-family="Helvetica,sans-Serif" font-size="10.00">src/libs/vpropertyexplorer</text>
<text text-anchor="middle" x="2941.5" y="-7.5" font-family="Helvetica,sans-Serif" font-size="10.00">/plugins/vwidgetproperty.cpp</text>
</a>
</g>
</g>
<!-- Node19&#45;&gt;Node20 -->
<g id="edge20" class="edge">
<title>Node19&#45;&gt;Node20</title>
<path fill="none" stroke="midnightblue" d="M2941.5,-57.11C2941.5,-48.15 2941.5,-38.32 2941.5,-30.58"/>
<polygon fill="midnightblue" stroke="midnightblue" points="2938,-57.4 2941.5,-67.4 2945,-57.4 2938,-57.4"/>
</g>
</g>
</svg>
