<?xml version="1.0" encoding="UTF-8" standalone="no"?>
<!DOCTYPE svg PUBLIC "-//W3C//DTD SVG 1.1//EN"
 "http://www.w3.org/Graphics/SVG/1.1/DTD/svg11.dtd">
<!-- Generated by graphviz version 2.43.0 (0)
 -->
<!-- Title: src/libs/vpropertyexplorer/vproperty_p.h Pages: 1 -->
<svg width="3213pt" height="173pt"
 viewBox="0.00 0.00 3212.50 173.00" xmlns="http://www.w3.org/2000/svg" xmlns:xlink="http://www.w3.org/1999/xlink">
<g id="graph0" class="graph" transform="scale(1 1) rotate(0) translate(4 169)">
<title>src/libs/vpropertyexplorer/vproperty_p.h</title>
<polygon fill="white" stroke="transparent" points="-4,4 -4,-169 3208.5,-169 3208.5,4 -4,4"/>
<!-- Node1 -->
<g id="node1" class="node">
<title>Node1</title>
<g id="a_node1"><a xlink:title=" ">
<polygon fill="#bfbfbf" stroke="black" points="1524,-134.5 1524,-164.5 1666,-164.5 1666,-134.5 1524,-134.5"/>
<text text-anchor="start" x="1532" y="-152.5" font-family="Helvetica,sans-Serif" font-size="10.00">src/libs/vpropertyexplorer</text>
<text text-anchor="middle" x="1595" y="-141.5" font-family="Helvetica,sans-Serif" font-size="10.00">/vproperty_p.h</text>
</a>
</g>
</g>
<!-- Node2 -->
<g id="node2" class="node">
<title>Node2</title>
<g id="a_node2"><a xlink:href="../../d2/d1d/direction__property_8cpp.html" target="_top" xlink:title=" ">
<polygon fill="white" stroke="black" points="0,-67.5 0,-97.5 166,-97.5 166,-67.5 0,-67.5"/>
<text text-anchor="start" x="8" y="-85.5" font-family="Helvetica,sans-Serif" font-size="10.00">src/libs/vpropertyexplorer</text>
<text text-anchor="middle" x="83" y="-74.5" font-family="Helvetica,sans-Serif" font-size="10.00">/plugins/direction_property.cpp</text>
</a>
</g>
</g>
<!-- Node1&#45;&gt;Node2 -->
<g id="edge1" class="edge">
<title>Node1&#45;&gt;Node2</title>
<path fill="none" stroke="midnightblue" d="M1513.82,-149.04C1296.34,-149.73 682.6,-146.85 175,-98 172.1,-97.72 169.16,-97.41 166.19,-97.07"/>
<polygon fill="midnightblue" stroke="midnightblue" points="1513.89,-152.54 1523.88,-149 1513.87,-145.54 1513.89,-152.54"/>
</g>
<!-- Node3 -->
<g id="node3" class="node">
<title>Node3</title>
<g id="a_node3"><a xlink:href="../../d9/d33/lineweight__property_8cpp.html" target="_top" xlink:title=" ">
<polygon fill="white" stroke="black" points="184,-67.5 184,-97.5 358,-97.5 358,-67.5 184,-67.5"/>
<text text-anchor="start" x="192" y="-85.5" font-family="Helvetica,sans-Serif" font-size="10.00">src/libs/vpropertyexplorer</text>
<text text-anchor="middle" x="271" y="-74.5" font-family="Helvetica,sans-Serif" font-size="10.00">/plugins/lineweight_property.cpp</text>
</a>
</g>
</g>
<!-- Node1&#45;&gt;Node3 -->
<g id="edge2" class="edge">
<title>Node1&#45;&gt;Node3</title>
<path fill="none" stroke="midnightblue" d="M1513.6,-148.21C1316.41,-146.84 797.64,-139.25 367,-98 364.06,-97.72 361.08,-97.41 358.07,-97.07"/>
<polygon fill="midnightblue" stroke="midnightblue" points="1513.85,-151.71 1523.87,-148.28 1513.89,-144.71 1513.85,-151.71"/>
</g>
<!-- Node4 -->
<g id="node4" class="node">
<title>Node4</title>
<g id="a_node4"><a xlink:href="../../da/d2f/plaintext__property_8cpp.html" target="_top" xlink:title=" ">
<polygon fill="white" stroke="black" points="376.5,-67.5 376.5,-97.5 543.5,-97.5 543.5,-67.5 376.5,-67.5"/>
<text text-anchor="start" x="384.5" y="-85.5" font-family="Helvetica,sans-Serif" font-size="10.00">src/libs/vpropertyexplorer</text>
<text text-anchor="middle" x="460" y="-74.5" font-family="Helvetica,sans-Serif" font-size="10.00">/plugins/plaintext_property.cpp</text>
</a>
</g>
</g>
<!-- Node1&#45;&gt;Node4 -->
<g id="edge3" class="edge">
<title>Node1&#45;&gt;Node4</title>
<path fill="none" stroke="midnightblue" d="M1513.78,-147.55C1337.96,-144.83 909.17,-134.69 552,-98 549.27,-97.72 546.49,-97.41 543.69,-97.08"/>
<polygon fill="midnightblue" stroke="midnightblue" points="1513.93,-151.05 1523.98,-147.7 1514.03,-144.05 1513.93,-151.05"/>
</g>
<!-- Node5 -->
<g id="node5" class="node">
<title>Node5</title>
<g id="a_node5"><a xlink:href="../../d8/d83/vboolproperty_8cpp.html" target="_top" xlink:title=" ">
<polygon fill="white" stroke="black" points="561.5,-67.5 561.5,-97.5 706.5,-97.5 706.5,-67.5 561.5,-67.5"/>
<text text-anchor="start" x="569.5" y="-85.5" font-family="Helvetica,sans-Serif" font-size="10.00">src/libs/vpropertyexplorer</text>
<text text-anchor="middle" x="634" y="-74.5" font-family="Helvetica,sans-Serif" font-size="10.00">/plugins/vboolproperty.cpp</text>
</a>
</g>
</g>
<!-- Node1&#45;&gt;Node5 -->
<g id="edge4" class="edge">
<title>Node1&#45;&gt;Node5</title>
<path fill="none" stroke="midnightblue" d="M1513.42,-147.01C1357.84,-143.47 1008.19,-132.11 716,-98 712.98,-97.65 709.91,-97.26 706.81,-96.83"/>
<polygon fill="midnightblue" stroke="midnightblue" points="1513.75,-150.52 1523.83,-147.25 1513.91,-143.52 1513.75,-150.52"/>
</g>
<!-- Node6 -->
<g id="node6" class="node">
<title>Node6</title>
<g id="a_node6"><a xlink:href="../../d0/d6b/vcolorproperty_8cpp.html" target="_top" xlink:title=" ">
<polygon fill="white" stroke="black" points="725,-67.5 725,-97.5 873,-97.5 873,-67.5 725,-67.5"/>
<text text-anchor="start" x="733" y="-85.5" font-family="Helvetica,sans-Serif" font-size="10.00">src/libs/vpropertyexplorer</text>
<text text-anchor="middle" x="799" y="-74.5" font-family="Helvetica,sans-Serif" font-size="10.00">/plugins/vcolorproperty.cpp</text>
</a>
</g>
</g>
<!-- Node1&#45;&gt;Node6 -->
<g id="edge5" class="edge">
<title>Node1&#45;&gt;Node6</title>
<path fill="none" stroke="midnightblue" d="M1513.85,-145.46C1381.26,-139.88 1110.09,-125.93 882,-98 879.1,-97.64 876.14,-97.26 873.16,-96.84"/>
<polygon fill="midnightblue" stroke="midnightblue" points="1513.79,-148.96 1523.93,-145.87 1514.08,-141.96 1513.79,-148.96"/>
</g>
<!-- Node7 -->
<g id="node7" class="node">
<title>Node7</title>
<g id="a_node7"><a xlink:href="../../d2/d8f/vvector3dproperty_8cpp.html" target="_top" xlink:title=" ">
<polygon fill="white" stroke="black" points="891,-67.5 891,-97.5 1103,-97.5 1103,-67.5 891,-67.5"/>
<text text-anchor="start" x="899" y="-85.5" font-family="Helvetica,sans-Serif" font-size="10.00">src/libs/vpropertyexplorer</text>
<text text-anchor="middle" x="997" y="-74.5" font-family="Helvetica,sans-Serif" font-size="10.00">/plugins/Vector3d/vvector3dproperty.cpp</text>
</a>
</g>
</g>
<!-- Node1&#45;&gt;Node7 -->
<g id="edge6" class="edge">
<title>Node1&#45;&gt;Node7</title>
<path fill="none" stroke="midnightblue" d="M1513.53,-140.51C1417.46,-130.98 1253.02,-114.26 1112,-98 1109.1,-97.67 1106.16,-97.32 1103.2,-96.97"/>
<polygon fill="midnightblue" stroke="midnightblue" points="1513.45,-144.02 1523.75,-141.53 1514.14,-137.06 1513.45,-144.02"/>
</g>
<!-- Node8 -->
<g id="node8" class="node">
<title>Node8</title>
<g id="a_node8"><a xlink:href="../../d3/d60/venumproperty_8cpp.html" target="_top" xlink:title=" ">
<polygon fill="white" stroke="black" points="1121,-67.5 1121,-97.5 1273,-97.5 1273,-67.5 1121,-67.5"/>
<text text-anchor="start" x="1129" y="-85.5" font-family="Helvetica,sans-Serif" font-size="10.00">src/libs/vpropertyexplorer</text>
<text text-anchor="middle" x="1197" y="-74.5" font-family="Helvetica,sans-Serif" font-size="10.00">/plugins/venumproperty.cpp</text>
</a>
</g>
</g>
<!-- Node1&#45;&gt;Node8 -->
<g id="edge7" class="edge">
<title>Node1&#45;&gt;Node8</title>
<path fill="none" stroke="midnightblue" d="M1513.69,-135.22C1443.28,-123.72 1342.2,-107.21 1273.3,-95.96"/>
<polygon fill="midnightblue" stroke="midnightblue" points="1513.41,-138.72 1523.85,-136.88 1514.54,-131.81 1513.41,-138.72"/>
</g>
<!-- Node9 -->
<g id="node9" class="node">
<title>Node9</title>
<g id="a_node9"><a xlink:href="../../d7/dd2/vfileproperty_8cpp.html" target="_top" xlink:title=" ">
<polygon fill="white" stroke="black" points="2059,-0.5 2059,-30.5 2201,-30.5 2201,-0.5 2059,-0.5"/>
<text text-anchor="start" x="2067" y="-18.5" font-family="Helvetica,sans-Serif" font-size="10.00">src/libs/vpropertyexplorer</text>
<text text-anchor="middle" x="2130" y="-7.5" font-family="Helvetica,sans-Serif" font-size="10.00">/plugins/vfileproperty.cpp</text>
</a>
</g>
</g>
<!-- Node1&#45;&gt;Node9 -->
<g id="edge8" class="edge">
<title>Node1&#45;&gt;Node9</title>
<path fill="none" stroke="midnightblue" d="M1513.56,-148.31C1412.4,-145.43 1260,-130.85 1320,-67 1345.13,-40.25 1866.01,-23.59 2058.94,-18.32"/>
<polygon fill="midnightblue" stroke="midnightblue" points="1513.71,-151.81 1523.79,-148.56 1513.88,-144.81 1513.71,-151.81"/>
</g>
<!-- Node10 -->
<g id="node10" class="node">
<title>Node10</title>
<g id="a_node10"><a xlink:href="../../dd/d22/vlinecolorproperty_8cpp.html" target="_top" xlink:title=" ">
<polygon fill="white" stroke="black" points="1329,-67.5 1329,-97.5 1495,-97.5 1495,-67.5 1329,-67.5"/>
<text text-anchor="start" x="1337" y="-85.5" font-family="Helvetica,sans-Serif" font-size="10.00">src/libs/vpropertyexplorer</text>
<text text-anchor="middle" x="1412" y="-74.5" font-family="Helvetica,sans-Serif" font-size="10.00">/plugins/vlinecolorproperty.cpp</text>
</a>
</g>
</g>
<!-- Node1&#45;&gt;Node10 -->
<g id="edge9" class="edge">
<title>Node1&#45;&gt;Node10</title>
<path fill="none" stroke="midnightblue" d="M1545.6,-130.96C1516.13,-120.48 1479.19,-107.37 1451.63,-97.58"/>
<polygon fill="midnightblue" stroke="midnightblue" points="1544.7,-134.35 1555.29,-134.4 1547.04,-127.75 1544.7,-134.35"/>
</g>
<!-- Node11 -->
<g id="node11" class="node">
<title>Node11</title>
<g id="a_node11"><a xlink:href="../../dc/d32/vlinetypeproperty_8cpp.html" target="_top" xlink:title=" ">
<polygon fill="white" stroke="black" points="1513,-67.5 1513,-97.5 1677,-97.5 1677,-67.5 1513,-67.5"/>
<text text-anchor="start" x="1521" y="-85.5" font-family="Helvetica,sans-Serif" font-size="10.00">src/libs/vpropertyexplorer</text>
<text text-anchor="middle" x="1595" y="-74.5" font-family="Helvetica,sans-Serif" font-size="10.00">/plugins/vlinetypeproperty.cpp</text>
</a>
</g>
</g>
<!-- Node1&#45;&gt;Node11 -->
<g id="edge10" class="edge">
<title>Node1&#45;&gt;Node11</title>
<path fill="none" stroke="midnightblue" d="M1595,-124.11C1595,-115.15 1595,-105.32 1595,-97.58"/>
<polygon fill="midnightblue" stroke="midnightblue" points="1591.5,-124.4 1595,-134.4 1598.5,-124.4 1591.5,-124.4"/>
</g>
<!-- Node12 -->
<g id="node12" class="node">
<title>Node12</title>
<g id="a_node12"><a xlink:href="../../d7/dda/vnumberproperty_8cpp.html" target="_top" xlink:title=" ">
<polygon fill="white" stroke="black" points="1695.5,-67.5 1695.5,-97.5 1856.5,-97.5 1856.5,-67.5 1695.5,-67.5"/>
<text text-anchor="start" x="1703.5" y="-85.5" font-family="Helvetica,sans-Serif" font-size="10.00">src/libs/vpropertyexplorer</text>
<text text-anchor="middle" x="1776" y="-74.5" font-family="Helvetica,sans-Serif" font-size="10.00">/plugins/vnumberproperty.cpp</text>
</a>
</g>
</g>
<!-- Node1&#45;&gt;Node12 -->
<g id="edge11" class="edge">
<title>Node1&#45;&gt;Node12</title>
<path fill="none" stroke="midnightblue" d="M1643.86,-130.96C1673.01,-120.48 1709.54,-107.37 1736.8,-97.58"/>
<polygon fill="midnightblue" stroke="midnightblue" points="1642.5,-127.72 1634.27,-134.4 1644.87,-134.31 1642.5,-127.72"/>
</g>
<!-- Node13 -->
<g id="node13" class="node">
<title>Node13</title>
<g id="a_node13"><a xlink:href="../../d6/ddf/vlabelproperty_8cpp.html" target="_top" xlink:title=" ">
<polygon fill="white" stroke="black" points="1875,-67.5 1875,-97.5 2023,-97.5 2023,-67.5 1875,-67.5"/>
<text text-anchor="start" x="1883" y="-85.5" font-family="Helvetica,sans-Serif" font-size="10.00">src/libs/vpropertyexplorer</text>
<text text-anchor="middle" x="1949" y="-74.5" font-family="Helvetica,sans-Serif" font-size="10.00">/plugins/vlabelproperty.cpp</text>
</a>
</g>
</g>
<!-- Node1&#45;&gt;Node13 -->
<g id="edge12" class="edge">
<title>Node1&#45;&gt;Node13</title>
<path fill="none" stroke="midnightblue" d="M1676.37,-133.56C1736.19,-122.58 1816.82,-107.77 1874.85,-97.11"/>
<polygon fill="midnightblue" stroke="midnightblue" points="1675.41,-130.18 1666.21,-135.42 1676.68,-137.06 1675.41,-130.18"/>
</g>
<!-- Node14 -->
<g id="node14" class="node">
<title>Node14</title>
<g id="a_node14"><a xlink:href="../../d5/d66/vobjectproperty_8cpp.html" target="_top" xlink:title=" ">
<polygon fill="white" stroke="black" points="2041,-67.5 2041,-97.5 2195,-97.5 2195,-67.5 2041,-67.5"/>
<text text-anchor="start" x="2049" y="-85.5" font-family="Helvetica,sans-Serif" font-size="10.00">src/libs/vpropertyexplorer</text>
<text text-anchor="middle" x="2118" y="-74.5" font-family="Helvetica,sans-Serif" font-size="10.00">/plugins/vobjectproperty.cpp</text>
</a>
</g>
</g>
<!-- Node1&#45;&gt;Node14 -->
<g id="edge13" class="edge">
<title>Node1&#45;&gt;Node14</title>
<path fill="none" stroke="midnightblue" d="M1676.47,-140.36C1764.36,-131.29 1908.35,-115.56 2032,-98 2034.85,-97.6 2037.75,-97.17 2040.67,-96.73"/>
<polygon fill="midnightblue" stroke="midnightblue" points="1675.89,-136.91 1666.3,-141.41 1676.6,-143.87 1675.89,-136.91"/>
</g>
<!-- Node15 -->
<g id="node15" class="node">
<title>Node15</title>
<g id="a_node15"><a xlink:href="../../d2/dec/vpointfproperty_8cpp.html" target="_top" xlink:title=" ">
<polygon fill="white" stroke="black" points="2213,-67.5 2213,-97.5 2365,-97.5 2365,-67.5 2213,-67.5"/>
<text text-anchor="start" x="2221" y="-85.5" font-family="Helvetica,sans-Serif" font-size="10.00">src/libs/vpropertyexplorer</text>
<text text-anchor="middle" x="2289" y="-74.5" font-family="Helvetica,sans-Serif" font-size="10.00">/plugins/vpointfproperty.cpp</text>
</a>
</g>
</g>
<!-- Node1&#45;&gt;Node15 -->
<g id="edge14" class="edge">
<title>Node1&#45;&gt;Node15</title>
<path fill="none" stroke="midnightblue" d="M1676.78,-143.97C1793.89,-136.96 2016.01,-121.78 2204,-98 2206.82,-97.64 2209.69,-97.26 2212.59,-96.85"/>
<polygon fill="midnightblue" stroke="midnightblue" points="1676.24,-140.49 1666.46,-144.58 1676.65,-147.48 1676.24,-140.49"/>
</g>
<!-- Node16 -->
<g id="node16" class="node">
<title>Node16</title>
<g id="a_node16"><a xlink:href="../../dc/d18/vstringproperty_8cpp.html" target="_top" xlink:title=" ">
<polygon fill="white" stroke="black" points="2383,-67.5 2383,-97.5 2535,-97.5 2535,-67.5 2383,-67.5"/>
<text text-anchor="start" x="2391" y="-85.5" font-family="Helvetica,sans-Serif" font-size="10.00">src/libs/vpropertyexplorer</text>
<text text-anchor="middle" x="2459" y="-74.5" font-family="Helvetica,sans-Serif" font-size="10.00">/plugins/vstringproperty.cpp</text>
</a>
</g>
</g>
<!-- Node1&#45;&gt;Node16 -->
<g id="edge15" class="edge">
<title>Node1&#45;&gt;Node16</title>
<path fill="none" stroke="midnightblue" d="M1676.47,-146.01C1818.52,-141.06 2120.56,-127.75 2374,-98 2376.82,-97.67 2379.7,-97.31 2382.6,-96.92"/>
<polygon fill="midnightblue" stroke="midnightblue" points="1675.99,-142.53 1666.11,-146.37 1676.23,-149.52 1675.99,-142.53"/>
</g>
<!-- Node17 -->
<g id="node17" class="node">
<title>Node17</title>
<g id="a_node17"><a xlink:href="../../de/d34/vshortcutproperty_8cpp.html" target="_top" xlink:title=" ">
<polygon fill="white" stroke="black" points="2553,-67.5 2553,-97.5 2717,-97.5 2717,-67.5 2553,-67.5"/>
<text text-anchor="start" x="2561" y="-85.5" font-family="Helvetica,sans-Serif" font-size="10.00">src/libs/vpropertyexplorer</text>
<text text-anchor="middle" x="2635" y="-74.5" font-family="Helvetica,sans-Serif" font-size="10.00">/plugins/vshortcutproperty.cpp</text>
</a>
</g>
</g>
<!-- Node1&#45;&gt;Node17 -->
<g id="edge16" class="edge">
<title>Node1&#45;&gt;Node17</title>
<path fill="none" stroke="midnightblue" d="M1676.06,-147.05C1840.26,-143.48 2223.79,-131.94 2544,-98 2546.86,-97.7 2549.77,-97.36 2552.71,-97.01"/>
<polygon fill="midnightblue" stroke="midnightblue" points="1675.96,-143.55 1666.04,-147.26 1676.11,-150.55 1675.96,-143.55"/>
</g>
<!-- Node18 -->
<g id="node18" class="node">
<title>Node18</title>
<g id="a_node18"><a xlink:href="../../d8/dd2/vproperty_8cpp.html" target="_top" xlink:title=" ">
<polygon fill="white" stroke="black" points="2735,-67.5 2735,-97.5 2877,-97.5 2877,-67.5 2735,-67.5"/>
<text text-anchor="start" x="2743" y="-85.5" font-family="Helvetica,sans-Serif" font-size="10.00">src/libs/vpropertyexplorer</text>
<text text-anchor="middle" x="2806" y="-74.5" font-family="Helvetica,sans-Serif" font-size="10.00">/vproperty.cpp</text>
</a>
</g>
</g>
<!-- Node1&#45;&gt;Node18 -->
<g id="edge17" class="edge">
<title>Node1&#45;&gt;Node18</title>
<path fill="none" stroke="midnightblue" d="M1676.32,-148.62C1862.62,-148.07 2334.46,-142.02 2726,-98 2728.95,-97.67 2731.95,-97.29 2734.97,-96.89"/>
<polygon fill="midnightblue" stroke="midnightblue" points="1676.05,-145.12 1666.06,-148.64 1676.07,-152.12 1676.05,-145.12"/>
</g>
<!-- Node19 -->
<g id="node19" class="node">
<title>Node19</title>
<g id="a_node19"><a xlink:href="../../dc/de7/vfileproperty__p_8h.html" target="_top" xlink:title=" ">
<polygon fill="white" stroke="black" points="2895,-67.5 2895,-97.5 3037,-97.5 3037,-67.5 2895,-67.5"/>
<text text-anchor="start" x="2903" y="-85.5" font-family="Helvetica,sans-Serif" font-size="10.00">src/libs/vpropertyexplorer</text>
<text text-anchor="middle" x="2966" y="-74.5" font-family="Helvetica,sans-Serif" font-size="10.00">/vfileproperty_p.h</text>
</a>
</g>
</g>
<!-- Node1&#45;&gt;Node19 -->
<g id="edge18" class="edge">
<title>Node1&#45;&gt;Node19</title>
<path fill="none" stroke="midnightblue" d="M1676.32,-149.27C1880.46,-150.33 2430.75,-147.91 2886,-98 2888.95,-97.68 2891.95,-97.31 2894.98,-96.91"/>
<polygon fill="midnightblue" stroke="midnightblue" points="1676.3,-145.77 1666.28,-149.21 1676.26,-152.77 1676.3,-145.77"/>
</g>
<!-- Node20 -->
<g id="node20" class="node">
<title>Node20</title>
<g id="a_node20"><a xlink:href="../../d4/d5a/vwidgetproperty__p_8h.html" target="_top" xlink:title=" ">
<polygon fill="white" stroke="black" points="3055,-67.5 3055,-97.5 3197,-97.5 3197,-67.5 3055,-67.5"/>
<text text-anchor="start" x="3063" y="-85.5" font-family="Helvetica,sans-Serif" font-size="10.00">src/libs/vpropertyexplorer</text>
<text text-anchor="middle" x="3126" y="-74.5" font-family="Helvetica,sans-Serif" font-size="10.00">/vwidgetproperty_p.h</text>
</a>
</g>
</g>
<!-- Node1&#45;&gt;Node20 -->
<g id="edge20" class="edge">
<title>Node1&#45;&gt;Node20</title>
<path fill="none" stroke="midnightblue" d="M1676.72,-147.21C1942.02,-142.78 2777.51,-126.85 3046,-98 3048.95,-97.68 3051.95,-97.32 3054.98,-96.92"/>
<polygon fill="midnightblue" stroke="midnightblue" points="1676.34,-143.72 1666.4,-147.38 1676.45,-150.72 1676.34,-143.72"/>
</g>
<!-- Node19&#45;&gt;Node9 -->
<g id="edge19" class="edge">
<title>Node19&#45;&gt;Node9</title>
<path fill="none" stroke="midnightblue" d="M2884.67,-66.93C2627.47,-35.67 2333.65,-23.04 2201.13,-18.58"/>
<polygon fill="midnightblue" stroke="midnightblue" points="2884.61,-70.45 2894.96,-68.2 2885.46,-63.5 2884.61,-70.45"/>
</g>
<!-- Node21 -->
<g id="node21" class="node">
<title>Node21</title>
<g id="a_node21"><a xlink:href="../../dc/ddd/vwidgetproperty_8cpp.html" target="_top" xlink:title=" ">
<polygon fill="white" stroke="black" points="3047.5,-0.5 3047.5,-30.5 3204.5,-30.5 3204.5,-0.5 3047.5,-0.5"/>
<text text-anchor="start" x="3055.5" y="-18.5" font-family="Helvetica,sans-Serif" font-size="10.00">src/libs/vpropertyexplorer</text>
<text text-anchor="middle" x="3126" y="-7.5" font-family="Helvetica,sans-Serif" font-size="10.00">/plugins/vwidgetproperty.cpp</text>
</a>
</g>
</g>
<!-- Node20&#45;&gt;Node21 -->
<g id="edge21" class="edge">
<title>Node20&#45;&gt;Node21</title>
<path fill="none" stroke="midnightblue" d="M3126,-57.11C3126,-48.15 3126,-38.32 3126,-30.58"/>
<polygon fill="midnightblue" stroke="midnightblue" points="3122.5,-57.4 3126,-67.4 3129.5,-57.4 3122.5,-57.4"/>
</g>
</g>
</svg>
