<?xml version="1.0" encoding="UTF-8" standalone="no"?>
<!DOCTYPE svg PUBLIC "-//W3C//DTD SVG 1.1//EN"
 "http://www.w3.org/Graphics/SVG/1.1/DTD/svg11.dtd">
<!-- Generated by graphviz version 2.43.0 (0)
 -->
<!-- Title: src/libs/xerces&#45;c/mingw/include/xercesc/dom/impl/DOMNodeListImpl.hpp Pages: 1 -->
<svg width="1247pt" height="362pt"
 viewBox="0.00 0.00 1247.00 362.00" xmlns="http://www.w3.org/2000/svg" xmlns:xlink="http://www.w3.org/1999/xlink">
<g id="graph0" class="graph" transform="scale(1 1) rotate(0) translate(4 358)">
<title>src/libs/xerces&#45;c/mingw/include/xercesc/dom/impl/DOMNodeListImpl.hpp</title>
<polygon fill="white" stroke="transparent" points="-4,4 -4,-358 1243,-358 1243,4 -4,4"/>
<!-- Node1 -->
<g id="node1" class="node">
<title>Node1</title>
<g id="a_node1"><a xlink:title=" ">
<polygon fill="#bfbfbf" stroke="black" points="597,-312.5 597,-353.5 741,-353.5 741,-312.5 597,-312.5"/>
<text text-anchor="start" x="605" y="-341.5" font-family="Helvetica,sans-Serif" font-size="10.00">src/libs/xerces&#45;c/mingw</text>
<text text-anchor="start" x="605" y="-330.5" font-family="Helvetica,sans-Serif" font-size="10.00">/include/xercesc/dom/impl</text>
<text text-anchor="middle" x="669" y="-319.5" font-family="Helvetica,sans-Serif" font-size="10.00">/DOMNodeListImpl.hpp</text>
</a>
</g>
</g>
<!-- Node2 -->
<g id="node2" class="node">
<title>Node2</title>
<g id="a_node2"><a xlink:href="../../d0/d69/mingw_2include_2xercesc_2dom_2impl_2DOMParentNode_8hpp.html" target="_top" xlink:title=" ">
<polygon fill="white" stroke="black" points="597,-234.5 597,-275.5 741,-275.5 741,-234.5 597,-234.5"/>
<text text-anchor="start" x="605" y="-263.5" font-family="Helvetica,sans-Serif" font-size="10.00">src/libs/xerces&#45;c/mingw</text>
<text text-anchor="start" x="605" y="-252.5" font-family="Helvetica,sans-Serif" font-size="10.00">/include/xercesc/dom/impl</text>
<text text-anchor="middle" x="669" y="-241.5" font-family="Helvetica,sans-Serif" font-size="10.00">/DOMParentNode.hpp</text>
</a>
</g>
</g>
<!-- Node1&#45;&gt;Node2 -->
<g id="edge1" class="edge">
<title>Node1&#45;&gt;Node2</title>
<path fill="none" stroke="midnightblue" d="M669,-302.3C669,-293.3 669,-283.65 669,-275.51"/>
<polygon fill="midnightblue" stroke="midnightblue" points="665.5,-302.43 669,-312.43 672.5,-302.43 665.5,-302.43"/>
</g>
<!-- Node3 -->
<g id="node3" class="node">
<title>Node3</title>
<g id="a_node3"><a xlink:href="../../d4/d5d/mingw_2include_2xercesc_2dom_2impl_2DOMAttrImpl_8hpp.html" target="_top" xlink:title=" ">
<polygon fill="white" stroke="black" points="386,-78.5 386,-119.5 530,-119.5 530,-78.5 386,-78.5"/>
<text text-anchor="start" x="394" y="-107.5" font-family="Helvetica,sans-Serif" font-size="10.00">src/libs/xerces&#45;c/mingw</text>
<text text-anchor="start" x="394" y="-96.5" font-family="Helvetica,sans-Serif" font-size="10.00">/include/xercesc/dom/impl</text>
<text text-anchor="middle" x="458" y="-85.5" font-family="Helvetica,sans-Serif" font-size="10.00">/DOMAttrImpl.hpp</text>
</a>
</g>
</g>
<!-- Node2&#45;&gt;Node3 -->
<g id="edge2" class="edge">
<title>Node2&#45;&gt;Node3</title>
<path fill="none" stroke="midnightblue" d="M692.24,-226.26C706.94,-205.2 720.34,-176.48 704,-156 682.55,-129.12 594.89,-114.15 530.29,-106.59"/>
<polygon fill="midnightblue" stroke="midnightblue" points="689.29,-224.36 686.17,-234.49 694.93,-228.52 689.29,-224.36"/>
</g>
<!-- Node5 -->
<g id="node5" class="node">
<title>Node5</title>
<g id="a_node5"><a xlink:href="../../d1/dd6/mingw_2include_2xercesc_2dom_2impl_2DOMCDATASectionImpl_8hpp.html" target="_top" xlink:title=" ">
<polygon fill="white" stroke="black" points="162.5,-156.5 162.5,-197.5 317.5,-197.5 317.5,-156.5 162.5,-156.5"/>
<text text-anchor="start" x="170.5" y="-185.5" font-family="Helvetica,sans-Serif" font-size="10.00">src/libs/xerces&#45;c/mingw</text>
<text text-anchor="start" x="170.5" y="-174.5" font-family="Helvetica,sans-Serif" font-size="10.00">/include/xercesc/dom/impl</text>
<text text-anchor="middle" x="240" y="-163.5" font-family="Helvetica,sans-Serif" font-size="10.00">/DOMCDATASectionImpl.hpp</text>
</a>
</g>
</g>
<!-- Node2&#45;&gt;Node5 -->
<g id="edge4" class="edge">
<title>Node2&#45;&gt;Node5</title>
<path fill="none" stroke="midnightblue" d="M586.78,-242.15C517.12,-231.73 414.72,-215.54 326,-198 323.29,-197.46 320.54,-196.91 317.77,-196.33"/>
<polygon fill="midnightblue" stroke="midnightblue" points="586.41,-245.63 596.81,-243.64 587.44,-238.71 586.41,-245.63"/>
</g>
<!-- Node6 -->
<g id="node6" class="node">
<title>Node6</title>
<g id="a_node6"><a xlink:href="../../d7/d68/mingw_2include_2xercesc_2dom_2impl_2DOMDocumentFragmentImpl_8hpp.html" target="_top" xlink:title=" ">
<polygon fill="white" stroke="black" points="335.5,-156.5 335.5,-197.5 518.5,-197.5 518.5,-156.5 335.5,-156.5"/>
<text text-anchor="start" x="343.5" y="-185.5" font-family="Helvetica,sans-Serif" font-size="10.00">src/libs/xerces&#45;c/mingw</text>
<text text-anchor="start" x="343.5" y="-174.5" font-family="Helvetica,sans-Serif" font-size="10.00">/include/xercesc/dom/impl</text>
<text text-anchor="middle" x="427" y="-163.5" font-family="Helvetica,sans-Serif" font-size="10.00">/DOMDocumentFragmentImpl.hpp</text>
</a>
</g>
</g>
<!-- Node2&#45;&gt;Node6 -->
<g id="edge5" class="edge">
<title>Node2&#45;&gt;Node6</title>
<path fill="none" stroke="midnightblue" d="M596.73,-231.3C562.47,-220.55 521.96,-207.82 489.11,-197.51"/>
<polygon fill="midnightblue" stroke="midnightblue" points="596.09,-234.77 606.68,-234.43 598.19,-228.09 596.09,-234.77"/>
</g>
<!-- Node7 -->
<g id="node7" class="node">
<title>Node7</title>
<g id="a_node7"><a xlink:href="../../d2/d4f/mingw_2include_2xercesc_2dom_2impl_2DOMDocumentTypeImpl_8hpp.html" target="_top" xlink:title=" ">
<polygon fill="white" stroke="black" points="536.5,-156.5 536.5,-197.5 695.5,-197.5 695.5,-156.5 536.5,-156.5"/>
<text text-anchor="start" x="544.5" y="-185.5" font-family="Helvetica,sans-Serif" font-size="10.00">src/libs/xerces&#45;c/mingw</text>
<text text-anchor="start" x="544.5" y="-174.5" font-family="Helvetica,sans-Serif" font-size="10.00">/include/xercesc/dom/impl</text>
<text text-anchor="middle" x="616" y="-163.5" font-family="Helvetica,sans-Serif" font-size="10.00">/DOMDocumentTypeImpl.hpp</text>
</a>
</g>
</g>
<!-- Node2&#45;&gt;Node7 -->
<g id="edge6" class="edge">
<title>Node2&#45;&gt;Node7</title>
<path fill="none" stroke="midnightblue" d="M649.51,-226.05C642.89,-216.57 635.66,-206.18 629.6,-197.51"/>
<polygon fill="midnightblue" stroke="midnightblue" points="646.76,-228.23 655.35,-234.43 652.5,-224.22 646.76,-228.23"/>
</g>
<!-- Node8 -->
<g id="node8" class="node">
<title>Node8</title>
<g id="a_node8"><a xlink:href="../../d1/d7e/mingw_2include_2xercesc_2dom_2impl_2DOMElementImpl_8hpp.html" target="_top" xlink:title=" ">
<polygon fill="white" stroke="black" points="933,-156.5 933,-197.5 1077,-197.5 1077,-156.5 933,-156.5"/>
<text text-anchor="start" x="941" y="-185.5" font-family="Helvetica,sans-Serif" font-size="10.00">src/libs/xerces&#45;c/mingw</text>
<text text-anchor="start" x="941" y="-174.5" font-family="Helvetica,sans-Serif" font-size="10.00">/include/xercesc/dom/impl</text>
<text text-anchor="middle" x="1005" y="-163.5" font-family="Helvetica,sans-Serif" font-size="10.00">/DOMElementImpl.hpp</text>
</a>
</g>
</g>
<!-- Node2&#45;&gt;Node8 -->
<g id="edge7" class="edge">
<title>Node2&#45;&gt;Node8</title>
<path fill="none" stroke="midnightblue" d="M750.91,-236.58C800.98,-225.79 866.27,-211.46 924,-198 926.82,-197.34 929.7,-196.66 932.6,-195.98"/>
<polygon fill="midnightblue" stroke="midnightblue" points="750.15,-233.16 741.11,-238.69 751.62,-240 750.15,-233.16"/>
</g>
<!-- Node12 -->
<g id="node12" class="node">
<title>Node12</title>
<g id="a_node12"><a xlink:href="../../d7/d73/mingw_2include_2xercesc_2dom_2impl_2DOMEntityReferenceImpl_8hpp.html" target="_top" xlink:title=" ">
<polygon fill="white" stroke="black" points="751,-156.5 751,-197.5 915,-197.5 915,-156.5 751,-156.5"/>
<text text-anchor="start" x="759" y="-185.5" font-family="Helvetica,sans-Serif" font-size="10.00">src/libs/xerces&#45;c/mingw</text>
<text text-anchor="start" x="759" y="-174.5" font-family="Helvetica,sans-Serif" font-size="10.00">/include/xercesc/dom/impl</text>
<text text-anchor="middle" x="833" y="-163.5" font-family="Helvetica,sans-Serif" font-size="10.00">/DOMEntityReferenceImpl.hpp</text>
</a>
</g>
</g>
<!-- Node2&#45;&gt;Node12 -->
<g id="edge11" class="edge">
<title>Node2&#45;&gt;Node12</title>
<path fill="none" stroke="midnightblue" d="M720.38,-230.19C743.07,-219.67 769.41,-207.47 790.91,-197.51"/>
<polygon fill="midnightblue" stroke="midnightblue" points="718.84,-227.05 711.23,-234.43 721.78,-233.4 718.84,-227.05"/>
</g>
<!-- Node13 -->
<g id="node13" class="node">
<title>Node13</title>
<g id="a_node13"><a xlink:href="../../db/db4/mingw_2include_2xercesc_2dom_2impl_2DOMDocumentImpl_8hpp.html" target="_top" xlink:title=" ">
<polygon fill="white" stroke="black" points="0,-156.5 0,-197.5 144,-197.5 144,-156.5 0,-156.5"/>
<text text-anchor="start" x="8" y="-185.5" font-family="Helvetica,sans-Serif" font-size="10.00">src/libs/xerces&#45;c/mingw</text>
<text text-anchor="start" x="8" y="-174.5" font-family="Helvetica,sans-Serif" font-size="10.00">/include/xercesc/dom/impl</text>
<text text-anchor="middle" x="72" y="-163.5" font-family="Helvetica,sans-Serif" font-size="10.00">/DOMDocumentImpl.hpp</text>
</a>
</g>
</g>
<!-- Node2&#45;&gt;Node13 -->
<g id="edge12" class="edge">
<title>Node2&#45;&gt;Node13</title>
<path fill="none" stroke="midnightblue" d="M586.52,-248.47C484.25,-240.83 304.84,-224.86 153,-198 150.15,-197.5 147.25,-196.95 144.32,-196.37"/>
<polygon fill="midnightblue" stroke="midnightblue" points="586.55,-251.98 596.78,-249.23 587.07,-245 586.55,-251.98"/>
</g>
<!-- Node14 -->
<g id="node14" class="node">
<title>Node14</title>
<g id="a_node14"><a xlink:href="../../d0/d50/mingw_2include_2xercesc_2dom_2impl_2DOMEntityImpl_8hpp.html" target="_top" xlink:title=" ">
<polygon fill="white" stroke="black" points="1095,-156.5 1095,-197.5 1239,-197.5 1239,-156.5 1095,-156.5"/>
<text text-anchor="start" x="1103" y="-185.5" font-family="Helvetica,sans-Serif" font-size="10.00">src/libs/xerces&#45;c/mingw</text>
<text text-anchor="start" x="1103" y="-174.5" font-family="Helvetica,sans-Serif" font-size="10.00">/include/xercesc/dom/impl</text>
<text text-anchor="middle" x="1167" y="-163.5" font-family="Helvetica,sans-Serif" font-size="10.00">/DOMEntityImpl.hpp</text>
</a>
</g>
</g>
<!-- Node2&#45;&gt;Node14 -->
<g id="edge14" class="edge">
<title>Node2&#45;&gt;Node14</title>
<path fill="none" stroke="midnightblue" d="M751.37,-245.61C835.79,-236.39 970.67,-219.92 1086,-198 1088.85,-197.46 1091.74,-196.88 1094.66,-196.27"/>
<polygon fill="midnightblue" stroke="midnightblue" points="750.89,-242.14 741.33,-246.7 751.65,-249.1 750.89,-242.14"/>
</g>
<!-- Node4 -->
<g id="node4" class="node">
<title>Node4</title>
<g id="a_node4"><a xlink:href="../../da/d5b/mingw_2include_2xercesc_2dom_2impl_2DOMAttrNSImpl_8hpp.html" target="_top" xlink:title=" ">
<polygon fill="white" stroke="black" points="386,-0.5 386,-41.5 530,-41.5 530,-0.5 386,-0.5"/>
<text text-anchor="start" x="394" y="-29.5" font-family="Helvetica,sans-Serif" font-size="10.00">src/libs/xerces&#45;c/mingw</text>
<text text-anchor="start" x="394" y="-18.5" font-family="Helvetica,sans-Serif" font-size="10.00">/include/xercesc/dom/impl</text>
<text text-anchor="middle" x="458" y="-7.5" font-family="Helvetica,sans-Serif" font-size="10.00">/DOMAttrNSImpl.hpp</text>
</a>
</g>
</g>
<!-- Node3&#45;&gt;Node4 -->
<g id="edge3" class="edge">
<title>Node3&#45;&gt;Node4</title>
<path fill="none" stroke="midnightblue" d="M458,-68.3C458,-59.3 458,-49.65 458,-41.51"/>
<polygon fill="midnightblue" stroke="midnightblue" points="454.5,-68.43 458,-78.43 461.5,-68.43 454.5,-68.43"/>
</g>
<!-- Node9 -->
<g id="node9" class="node">
<title>Node9</title>
<g id="a_node9"><a xlink:href="../../df/d5f/mingw_2include_2xercesc_2dom_2impl_2DOMCasts_8hpp.html" target="_top" xlink:title=" ">
<polygon fill="white" stroke="black" points="1014,-78.5 1014,-119.5 1158,-119.5 1158,-78.5 1014,-78.5"/>
<text text-anchor="start" x="1022" y="-107.5" font-family="Helvetica,sans-Serif" font-size="10.00">src/libs/xerces&#45;c/mingw</text>
<text text-anchor="start" x="1022" y="-96.5" font-family="Helvetica,sans-Serif" font-size="10.00">/include/xercesc/dom/impl</text>
<text text-anchor="middle" x="1086" y="-85.5" font-family="Helvetica,sans-Serif" font-size="10.00">/DOMCasts.hpp</text>
</a>
</g>
</g>
<!-- Node8&#45;&gt;Node9 -->
<g id="edge8" class="edge">
<title>Node8&#45;&gt;Node9</title>
<path fill="none" stroke="midnightblue" d="M1033.25,-149.49C1043.76,-139.63 1055.49,-128.63 1065.21,-119.51"/>
<polygon fill="midnightblue" stroke="midnightblue" points="1030.76,-147.03 1025.86,-156.43 1035.55,-152.14 1030.76,-147.03"/>
</g>
<!-- Node10 -->
<g id="node10" class="node">
<title>Node10</title>
<g id="a_node10"><a xlink:href="../../d7/d39/mingw_2include_2xercesc_2dom_2impl_2DOMElementNSImpl_8hpp.html" target="_top" xlink:title=" ">
<polygon fill="white" stroke="black" points="852,-78.5 852,-119.5 996,-119.5 996,-78.5 852,-78.5"/>
<text text-anchor="start" x="860" y="-107.5" font-family="Helvetica,sans-Serif" font-size="10.00">src/libs/xerces&#45;c/mingw</text>
<text text-anchor="start" x="860" y="-96.5" font-family="Helvetica,sans-Serif" font-size="10.00">/include/xercesc/dom/impl</text>
<text text-anchor="middle" x="924" y="-85.5" font-family="Helvetica,sans-Serif" font-size="10.00">/DOMElementNSImpl.hpp</text>
</a>
</g>
</g>
<!-- Node8&#45;&gt;Node10 -->
<g id="edge9" class="edge">
<title>Node8&#45;&gt;Node10</title>
<path fill="none" stroke="midnightblue" d="M976.75,-149.49C966.24,-139.63 954.51,-128.63 944.79,-119.51"/>
<polygon fill="midnightblue" stroke="midnightblue" points="974.45,-152.14 984.14,-156.43 979.24,-147.03 974.45,-152.14"/>
</g>
<!-- Node11 -->
<g id="node11" class="node">
<title>Node11</title>
<g id="a_node11"><a xlink:href="../../d8/d6b/mingw_2include_2xercesc_2dom_2impl_2XSDElementNSImpl_8hpp.html" target="_top" xlink:title=" ">
<polygon fill="white" stroke="black" points="852,-0.5 852,-41.5 996,-41.5 996,-0.5 852,-0.5"/>
<text text-anchor="start" x="860" y="-29.5" font-family="Helvetica,sans-Serif" font-size="10.00">src/libs/xerces&#45;c/mingw</text>
<text text-anchor="start" x="860" y="-18.5" font-family="Helvetica,sans-Serif" font-size="10.00">/include/xercesc/dom/impl</text>
<text text-anchor="middle" x="924" y="-7.5" font-family="Helvetica,sans-Serif" font-size="10.00">/XSDElementNSImpl.hpp</text>
</a>
</g>
</g>
<!-- Node10&#45;&gt;Node11 -->
<g id="edge10" class="edge">
<title>Node10&#45;&gt;Node11</title>
<path fill="none" stroke="midnightblue" d="M924,-68.3C924,-59.3 924,-49.65 924,-41.51"/>
<polygon fill="midnightblue" stroke="midnightblue" points="920.5,-68.43 924,-78.43 927.5,-68.43 920.5,-68.43"/>
</g>
<!-- Node13&#45;&gt;Node3 -->
<g id="edge13" class="edge">
<title>Node13&#45;&gt;Node3</title>
<path fill="none" stroke="midnightblue" d="M154.18,-155.8C239.11,-137.73 326.3,-122.16 385.96,-111.96"/>
<polygon fill="midnightblue" stroke="midnightblue" points="153.42,-152.38 144.37,-157.9 154.88,-159.23 153.42,-152.38"/>
</g>
</g>
</svg>
