<?xml version="1.0" encoding="UTF-8" standalone="no"?>
<!DOCTYPE svg PUBLIC "-//W3C//DTD SVG 1.1//EN"
 "http://www.w3.org/Graphics/SVG/1.1/DTD/svg11.dtd">
<!-- Generated by graphviz version 2.43.0 (0)
 -->
<!-- Title: src/libs/xerces&#45;c/msvc/include/xercesc/dom/impl/DOMNodeListImpl.hpp Pages: 1 -->
<!--zoomable 362 -->
<svg id="main" version="1.1" xmlns="http://www.w3.org/2000/svg" xmlns:xlink="http://www.w3.org/1999/xlink" xml:space="preserve" onload="init(evt)">
<style type="text/css"><![CDATA[
.edge:hover path { stroke: red; }
.edge:hover polygon { stroke: red; fill: red; }
]]></style>
<script type="text/javascript"><![CDATA[
var edges = document.getElementsByTagName('g');
if (edges && edges.length) {
  for (var i=0;i<edges.length;i++) {
    if (edges[i].id.substr(0,4)=='edge') {
      edges[i].setAttribute('class','edge');
    }
  }
}
]]></script>
        <defs>
                <circle id="rim" cx="0" cy="0" r="7"/>
                <circle id="rim2" cx="0" cy="0" r="3.5"/>
                <g id="zoomPlus">
                        <use xlink:href="#rim" fill="#404040">
                                <set attributeName="fill" to="#808080" begin="zoomplus.mouseover" end="zoomplus.mouseout"/>
                        </use>
                        <path d="M-4,0h8M0,-4v8" fill="none" stroke="white" stroke-width="1.5" pointer-events="none"/>
                </g>
                <g id="zoomMin">
                        <use xlink:href="#rim" fill="#404040">
                                <set attributeName="fill" to="#808080" begin="zoomminus.mouseover" end="zoomminus.mouseout"/>
                        </use>
                        <path d="M-4,0h8" fill="none" stroke="white" stroke-width="1.5" pointer-events="none"/>
                </g>
                <g id="dirArrow">
                        <path fill="none" stroke="white" stroke-width="1.5" d="M0,-3.0v7 M-2.5,-0.5L0,-3.0L2.5,-0.5"/>
                </g>
               <g id="resetDef">
                       <use xlink:href="#rim2" fill="#404040">
                               <set attributeName="fill" to="#808080" begin="reset.mouseover" end="reset.mouseout"/>
                       </use>
               </g>
        </defs>

<script type="text/javascript">
var viewWidth = 1330;
var viewHeight = 362;
var sectionId = 'dynsection-1';
</script>
<script xlink:href="../../svgpan.js"/>
<svg id="graph" class="graph">
<g id="viewport">
<title>src/libs/xerces&#45;c/msvc/include/xercesc/dom/impl/DOMNodeListImpl.hpp</title>
<polygon fill="white" stroke="transparent" points="-4,4 -4,-358 1325.5,-358 1325.5,4 -4,4"/>
<!-- Node1 -->
<g id="node1" class="node">
<title>Node1</title>
<g id="a_node1"><a xlink:title=" ">
<polygon fill="#bfbfbf" stroke="black" points="592.5,-312.5 592.5,-353.5 736.5,-353.5 736.5,-312.5 592.5,-312.5"/>
<text text-anchor="start" x="600.5" y="-341.5" font-family="Helvetica,sans-Serif" font-size="10.00">src/libs/xerces&#45;c/msvc</text>
<text text-anchor="start" x="600.5" y="-330.5" font-family="Helvetica,sans-Serif" font-size="10.00">/include/xercesc/dom/impl</text>
<text text-anchor="middle" x="664.5" y="-319.5" font-family="Helvetica,sans-Serif" font-size="10.00">/DOMNodeListImpl.hpp</text>
</a>
</g>
</g>
<!-- Node2 -->
<g id="node2" class="node">
<title>Node2</title>
<g id="a_node2"><a xlink:href="../../dd/d39/msvc_2include_2xercesc_2dom_2impl_2DOMParentNode_8hpp.html" target="_top" xlink:title=" ">
<polygon fill="white" stroke="black" points="592.5,-234.5 592.5,-275.5 736.5,-275.5 736.5,-234.5 592.5,-234.5"/>
<text text-anchor="start" x="600.5" y="-263.5" font-family="Helvetica,sans-Serif" font-size="10.00">src/libs/xerces&#45;c/msvc</text>
<text text-anchor="start" x="600.5" y="-252.5" font-family="Helvetica,sans-Serif" font-size="10.00">/include/xercesc/dom/impl</text>
<text text-anchor="middle" x="664.5" y="-241.5" font-family="Helvetica,sans-Serif" font-size="10.00">/DOMParentNode.hpp</text>
</a>
</g>
</g>
<!-- Node1&#45;&gt;Node2 -->
<g id="edge1" class="edge">
<title>Node1&#45;&gt;Node2</title>
<path fill="none" stroke="midnightblue" d="M664.5,-302.3C664.5,-293.3 664.5,-283.65 664.5,-275.51"/>
<polygon fill="midnightblue" stroke="midnightblue" points="661,-302.43 664.5,-312.43 668,-302.43 661,-302.43"/>
</g>
<!-- Node3 -->
<g id="node3" class="node">
<title>Node3</title>
<g id="a_node3"><a xlink:href="../../d3/d3c/msvc_2include_2xercesc_2dom_2impl_2DOMCDATASectionImpl_8hpp.html" target="_top" xlink:title=" ">
<polygon fill="white" stroke="black" points="0,-156.5 0,-197.5 155,-197.5 155,-156.5 0,-156.5"/>
<text text-anchor="start" x="8" y="-185.5" font-family="Helvetica,sans-Serif" font-size="10.00">src/libs/xerces&#45;c/msvc</text>
<text text-anchor="start" x="8" y="-174.5" font-family="Helvetica,sans-Serif" font-size="10.00">/include/xercesc/dom/impl</text>
<text text-anchor="middle" x="77.5" y="-163.5" font-family="Helvetica,sans-Serif" font-size="10.00">/DOMCDATASectionImpl.hpp</text>
</a>
</g>
</g>
<!-- Node2&#45;&gt;Node3 -->
<g id="edge2" class="edge">
<title>Node2&#45;&gt;Node3</title>
<path fill="none" stroke="midnightblue" d="M582.12,-247.68C482.68,-239.39 310.6,-222.89 164.5,-198 161.44,-197.48 158.34,-196.92 155.2,-196.33"/>
<polygon fill="midnightblue" stroke="midnightblue" points="581.85,-251.17 592.1,-248.51 582.42,-244.2 581.85,-251.17"/>
</g>
<!-- Node4 -->
<g id="node4" class="node">
<title>Node4</title>
<g id="a_node4"><a xlink:href="../../de/d08/msvc_2include_2xercesc_2dom_2impl_2DOMAttrImpl_8hpp.html" target="_top" xlink:title=" ">
<polygon fill="white" stroke="black" points="413.5,-78.5 413.5,-119.5 557.5,-119.5 557.5,-78.5 413.5,-78.5"/>
<text text-anchor="start" x="421.5" y="-107.5" font-family="Helvetica,sans-Serif" font-size="10.00">src/libs/xerces&#45;c/msvc</text>
<text text-anchor="start" x="421.5" y="-96.5" font-family="Helvetica,sans-Serif" font-size="10.00">/include/xercesc/dom/impl</text>
<text text-anchor="middle" x="485.5" y="-85.5" font-family="Helvetica,sans-Serif" font-size="10.00">/DOMAttrImpl.hpp</text>
</a>
</g>
</g>
<!-- Node2&#45;&gt;Node4 -->
<g id="edge3" class="edge">
<title>Node2&#45;&gt;Node4</title>
<path fill="none" stroke="midnightblue" d="M689.83,-226.48C705.88,-205.6 720.82,-177.01 704.5,-156 686.45,-132.75 614.36,-117.52 557.76,-108.89"/>
<polygon fill="midnightblue" stroke="midnightblue" points="687.03,-224.38 683.45,-234.35 692.46,-228.79 687.03,-224.38"/>
</g>
<!-- Node6 -->
<g id="node6" class="node">
<title>Node6</title>
<g id="a_node6"><a xlink:href="../../de/de5/msvc_2include_2xercesc_2dom_2impl_2DOMDocumentTypeImpl_8hpp.html" target="_top" xlink:title=" ">
<polygon fill="white" stroke="black" points="336,-156.5 336,-197.5 495,-197.5 495,-156.5 336,-156.5"/>
<text text-anchor="start" x="344" y="-185.5" font-family="Helvetica,sans-Serif" font-size="10.00">src/libs/xerces&#45;c/msvc</text>
<text text-anchor="start" x="344" y="-174.5" font-family="Helvetica,sans-Serif" font-size="10.00">/include/xercesc/dom/impl</text>
<text text-anchor="middle" x="415.5" y="-163.5" font-family="Helvetica,sans-Serif" font-size="10.00">/DOMDocumentTypeImpl.hpp</text>
</a>
</g>
</g>
<!-- Node2&#45;&gt;Node6 -->
<g id="edge5" class="edge">
<title>Node2&#45;&gt;Node6</title>
<path fill="none" stroke="midnightblue" d="M590.59,-231.44C555.25,-220.66 513.35,-207.87 479.41,-197.51"/>
<polygon fill="midnightblue" stroke="midnightblue" points="589.79,-234.86 600.38,-234.43 591.83,-228.16 589.79,-234.86"/>
</g>
<!-- Node7 -->
<g id="node7" class="node">
<title>Node7</title>
<g id="a_node7"><a xlink:href="../../df/d65/msvc_2include_2xercesc_2dom_2impl_2DOMDocumentFragmentImpl_8hpp.html" target="_top" xlink:title=" ">
<polygon fill="white" stroke="black" points="513,-156.5 513,-197.5 696,-197.5 696,-156.5 513,-156.5"/>
<text text-anchor="start" x="521" y="-185.5" font-family="Helvetica,sans-Serif" font-size="10.00">src/libs/xerces&#45;c/msvc</text>
<text text-anchor="start" x="521" y="-174.5" font-family="Helvetica,sans-Serif" font-size="10.00">/include/xercesc/dom/impl</text>
<text text-anchor="middle" x="604.5" y="-163.5" font-family="Helvetica,sans-Serif" font-size="10.00">/DOMDocumentFragmentImpl.hpp</text>
</a>
</g>
</g>
<!-- Node2&#45;&gt;Node7 -->
<g id="edge6" class="edge">
<title>Node2&#45;&gt;Node7</title>
<path fill="none" stroke="midnightblue" d="M642.66,-226.34C635.11,-216.78 626.82,-206.27 619.9,-197.51"/>
<polygon fill="midnightblue" stroke="midnightblue" points="640.1,-228.75 649.05,-234.43 645.6,-224.41 640.1,-228.75"/>
</g>
<!-- Node8 -->
<g id="node8" class="node">
<title>Node8</title>
<g id="a_node8"><a xlink:href="../../d4/dff/msvc_2include_2xercesc_2dom_2impl_2DOMElementImpl_8hpp.html" target="_top" xlink:title=" ">
<polygon fill="white" stroke="black" points="1096.5,-156.5 1096.5,-197.5 1240.5,-197.5 1240.5,-156.5 1096.5,-156.5"/>
<text text-anchor="start" x="1104.5" y="-185.5" font-family="Helvetica,sans-Serif" font-size="10.00">src/libs/xerces&#45;c/msvc</text>
<text text-anchor="start" x="1104.5" y="-174.5" font-family="Helvetica,sans-Serif" font-size="10.00">/include/xercesc/dom/impl</text>
<text text-anchor="middle" x="1168.5" y="-163.5" font-family="Helvetica,sans-Serif" font-size="10.00">/DOMElementImpl.hpp</text>
</a>
</g>
</g>
<!-- Node2&#45;&gt;Node8 -->
<g id="edge7" class="edge">
<title>Node2&#45;&gt;Node8</title>
<path fill="none" stroke="midnightblue" d="M746.91,-245.82C832.47,-236.68 969.99,-220.22 1087.5,-198 1090.35,-197.46 1093.24,-196.89 1096.16,-196.28"/>
<polygon fill="midnightblue" stroke="midnightblue" points="746.31,-242.36 736.74,-246.89 747.05,-249.32 746.31,-242.36"/>
</g>
<!-- Node12 -->
<g id="node12" class="node">
<title>Node12</title>
<g id="a_node12"><a xlink:href="../../dc/d29/msvc_2include_2xercesc_2dom_2impl_2DOMEntityImpl_8hpp.html" target="_top" xlink:title=" ">
<polygon fill="white" stroke="black" points="752.5,-156.5 752.5,-197.5 896.5,-197.5 896.5,-156.5 752.5,-156.5"/>
<text text-anchor="start" x="760.5" y="-185.5" font-family="Helvetica,sans-Serif" font-size="10.00">src/libs/xerces&#45;c/msvc</text>
<text text-anchor="start" x="760.5" y="-174.5" font-family="Helvetica,sans-Serif" font-size="10.00">/include/xercesc/dom/impl</text>
<text text-anchor="middle" x="824.5" y="-163.5" font-family="Helvetica,sans-Serif" font-size="10.00">/DOMEntityImpl.hpp</text>
</a>
</g>
</g>
<!-- Node2&#45;&gt;Node12 -->
<g id="edge11" class="edge">
<title>Node2&#45;&gt;Node12</title>
<path fill="none" stroke="midnightblue" d="M714.92,-230.05C736.99,-219.57 762.55,-207.42 783.44,-197.51"/>
<polygon fill="midnightblue" stroke="midnightblue" points="713.24,-226.98 705.7,-234.43 716.24,-233.3 713.24,-226.98"/>
</g>
<!-- Node13 -->
<g id="node13" class="node">
<title>Node13</title>
<g id="a_node13"><a xlink:href="../../dc/dba/msvc_2include_2xercesc_2dom_2impl_2DOMEntityReferenceImpl_8hpp.html" target="_top" xlink:title=" ">
<polygon fill="white" stroke="black" points="914.5,-156.5 914.5,-197.5 1078.5,-197.5 1078.5,-156.5 914.5,-156.5"/>
<text text-anchor="start" x="922.5" y="-185.5" font-family="Helvetica,sans-Serif" font-size="10.00">src/libs/xerces&#45;c/msvc</text>
<text text-anchor="start" x="922.5" y="-174.5" font-family="Helvetica,sans-Serif" font-size="10.00">/include/xercesc/dom/impl</text>
<text text-anchor="middle" x="996.5" y="-163.5" font-family="Helvetica,sans-Serif" font-size="10.00">/DOMEntityReferenceImpl.hpp</text>
</a>
</g>
</g>
<!-- Node2&#45;&gt;Node13 -->
<g id="edge12" class="edge">
<title>Node2&#45;&gt;Node13</title>
<path fill="none" stroke="midnightblue" d="M746.56,-235.21C797.69,-223.51 863.24,-208.51 914.38,-196.8"/>
<polygon fill="midnightblue" stroke="midnightblue" points="745.51,-231.87 736.54,-237.51 747.07,-238.69 745.51,-231.87"/>
</g>
<!-- Node14 -->
<g id="node14" class="node">
<title>Node14</title>
<g id="a_node14"><a xlink:href="../../d2/d5e/msvc_2include_2xercesc_2dom_2impl_2DOMDocumentImpl_8hpp.html" target="_top" xlink:title=" ">
<polygon fill="white" stroke="black" points="173.5,-156.5 173.5,-197.5 317.5,-197.5 317.5,-156.5 173.5,-156.5"/>
<text text-anchor="start" x="181.5" y="-185.5" font-family="Helvetica,sans-Serif" font-size="10.00">src/libs/xerces&#45;c/msvc</text>
<text text-anchor="start" x="181.5" y="-174.5" font-family="Helvetica,sans-Serif" font-size="10.00">/include/xercesc/dom/impl</text>
<text text-anchor="middle" x="245.5" y="-163.5" font-family="Helvetica,sans-Serif" font-size="10.00">/DOMDocumentImpl.hpp</text>
</a>
</g>
</g>
<!-- Node2&#45;&gt;Node14 -->
<g id="edge13" class="edge">
<title>Node2&#45;&gt;Node14</title>
<path fill="none" stroke="midnightblue" d="M582.44,-242.23C513.78,-231.95 413.4,-215.9 326.5,-198 323.66,-197.42 320.77,-196.8 317.86,-196.16"/>
<polygon fill="midnightblue" stroke="midnightblue" points="581.92,-245.7 592.33,-243.71 582.96,-238.77 581.92,-245.7"/>
</g>
<!-- Node5 -->
<g id="node5" class="node">
<title>Node5</title>
<g id="a_node5"><a xlink:href="../../de/d6a/msvc_2include_2xercesc_2dom_2impl_2DOMAttrNSImpl_8hpp.html" target="_top" xlink:title=" ">
<polygon fill="white" stroke="black" points="413.5,-0.5 413.5,-41.5 557.5,-41.5 557.5,-0.5 413.5,-0.5"/>
<text text-anchor="start" x="421.5" y="-29.5" font-family="Helvetica,sans-Serif" font-size="10.00">src/libs/xerces&#45;c/msvc</text>
<text text-anchor="start" x="421.5" y="-18.5" font-family="Helvetica,sans-Serif" font-size="10.00">/include/xercesc/dom/impl</text>
<text text-anchor="middle" x="485.5" y="-7.5" font-family="Helvetica,sans-Serif" font-size="10.00">/DOMAttrNSImpl.hpp</text>
</a>
</g>
</g>
<!-- Node4&#45;&gt;Node5 -->
<g id="edge4" class="edge">
<title>Node4&#45;&gt;Node5</title>
<path fill="none" stroke="midnightblue" d="M485.5,-68.3C485.5,-59.3 485.5,-49.65 485.5,-41.51"/>
<polygon fill="midnightblue" stroke="midnightblue" points="482,-68.43 485.5,-78.43 489,-68.43 482,-68.43"/>
</g>
<!-- Node9 -->
<g id="node9" class="node">
<title>Node9</title>
<g id="a_node9"><a xlink:href="../../dd/d8d/msvc_2include_2xercesc_2dom_2impl_2DOMCasts_8hpp.html" target="_top" xlink:title=" ">
<polygon fill="white" stroke="black" points="1015.5,-78.5 1015.5,-119.5 1159.5,-119.5 1159.5,-78.5 1015.5,-78.5"/>
<text text-anchor="start" x="1023.5" y="-107.5" font-family="Helvetica,sans-Serif" font-size="10.00">src/libs/xerces&#45;c/msvc</text>
<text text-anchor="start" x="1023.5" y="-96.5" font-family="Helvetica,sans-Serif" font-size="10.00">/include/xercesc/dom/impl</text>
<text text-anchor="middle" x="1087.5" y="-85.5" font-family="Helvetica,sans-Serif" font-size="10.00">/DOMCasts.hpp</text>
</a>
</g>
</g>
<!-- Node8&#45;&gt;Node9 -->
<g id="edge8" class="edge">
<title>Node8&#45;&gt;Node9</title>
<path fill="none" stroke="midnightblue" d="M1140.25,-149.49C1129.74,-139.63 1118.01,-128.63 1108.29,-119.51"/>
<polygon fill="midnightblue" stroke="midnightblue" points="1137.95,-152.14 1147.64,-156.43 1142.74,-147.03 1137.95,-152.14"/>
</g>
<!-- Node10 -->
<g id="node10" class="node">
<title>Node10</title>
<g id="a_node10"><a xlink:href="../../d4/da4/msvc_2include_2xercesc_2dom_2impl_2DOMElementNSImpl_8hpp.html" target="_top" xlink:title=" ">
<polygon fill="white" stroke="black" points="1177.5,-78.5 1177.5,-119.5 1321.5,-119.5 1321.5,-78.5 1177.5,-78.5"/>
<text text-anchor="start" x="1185.5" y="-107.5" font-family="Helvetica,sans-Serif" font-size="10.00">src/libs/xerces&#45;c/msvc</text>
<text text-anchor="start" x="1185.5" y="-96.5" font-family="Helvetica,sans-Serif" font-size="10.00">/include/xercesc/dom/impl</text>
<text text-anchor="middle" x="1249.5" y="-85.5" font-family="Helvetica,sans-Serif" font-size="10.00">/DOMElementNSImpl.hpp</text>
</a>
</g>
</g>
<!-- Node8&#45;&gt;Node10 -->
<g id="edge9" class="edge">
<title>Node8&#45;&gt;Node10</title>
<path fill="none" stroke="midnightblue" d="M1196.75,-149.49C1207.26,-139.63 1218.99,-128.63 1228.71,-119.51"/>
<polygon fill="midnightblue" stroke="midnightblue" points="1194.26,-147.03 1189.36,-156.43 1199.05,-152.14 1194.26,-147.03"/>
</g>
<!-- Node11 -->
<g id="node11" class="node">
<title>Node11</title>
<g id="a_node11"><a xlink:href="../../db/d0c/msvc_2include_2xercesc_2dom_2impl_2XSDElementNSImpl_8hpp.html" target="_top" xlink:title=" ">
<polygon fill="white" stroke="black" points="1177.5,-0.5 1177.5,-41.5 1321.5,-41.5 1321.5,-0.5 1177.5,-0.5"/>
<text text-anchor="start" x="1185.5" y="-29.5" font-family="Helvetica,sans-Serif" font-size="10.00">src/libs/xerces&#45;c/msvc</text>
<text text-anchor="start" x="1185.5" y="-18.5" font-family="Helvetica,sans-Serif" font-size="10.00">/include/xercesc/dom/impl</text>
<text text-anchor="middle" x="1249.5" y="-7.5" font-family="Helvetica,sans-Serif" font-size="10.00">/XSDElementNSImpl.hpp</text>
</a>
</g>
</g>
<!-- Node10&#45;&gt;Node11 -->
<g id="edge10" class="edge">
<title>Node10&#45;&gt;Node11</title>
<path fill="none" stroke="midnightblue" d="M1249.5,-68.3C1249.5,-59.3 1249.5,-49.65 1249.5,-41.51"/>
<polygon fill="midnightblue" stroke="midnightblue" points="1246,-68.43 1249.5,-78.43 1253,-68.43 1246,-68.43"/>
</g>
<!-- Node14&#45;&gt;Node4 -->
<g id="edge14" class="edge">
<title>Node14&#45;&gt;Node4</title>
<path fill="none" stroke="midnightblue" d="M317.17,-153.3C351.14,-142.55 391.32,-129.82 423.9,-119.51"/>
<polygon fill="midnightblue" stroke="midnightblue" points="315.78,-150.07 307.31,-156.43 317.9,-156.75 315.78,-150.07"/>
</g>
</g>
</svg>
        <g id="navigator" transform="translate(0 0)" fill="#404254">
                <rect fill="#f2f5e9" fill-opacity="0.5" stroke="#606060" stroke-width=".5" x="0" y="0" width="60" height="60"/>
                <use id="zoomplus" xlink:href="#zoomPlus" x="17" y="9" onmousedown="handleZoom(evt,'in')"/>
                <use id="zoomminus" xlink:href="#zoomMin" x="42" y="9" onmousedown="handleZoom(evt,'out')"/>
                <use id="reset" xlink:href="#resetDef" x="30" y="36" onmousedown="handleReset()"/>
                <g id="arrowUp" xlink:href="#dirArrow" transform="translate(30 24)" onmousedown="handlePan(0,-1)">
                  <use xlink:href="#rim" fill="#404040">
                        <set attributeName="fill" to="#808080" begin="arrowUp.mouseover" end="arrowUp.mouseout"/>
                  </use>
                  <path fill="none" stroke="white" stroke-width="1.5" d="M0,-3.0v7 M-2.5,-0.5L0,-3.0L2.5,-0.5"/>
                </g>
                <g id="arrowRight" xlink:href="#dirArrow" transform="rotate(90) translate(36 -43)" onmousedown="handlePan(1,0)">
                  <use xlink:href="#rim" fill="#404040">
                        <set attributeName="fill" to="#808080" begin="arrowRight.mouseover" end="arrowRight.mouseout"/>
                  </use>
                  <path fill="none" stroke="white" stroke-width="1.5" d="M0,-3.0v7 M-2.5,-0.5L0,-3.0L2.5,-0.5"/>
                </g>
                <g id="arrowDown" xlink:href="#dirArrow" transform="rotate(180) translate(-30 -48)" onmousedown="handlePan(0,1)">
                  <use xlink:href="#rim" fill="#404040">
                        <set attributeName="fill" to="#808080" begin="arrowDown.mouseover" end="arrowDown.mouseout"/>
                  </use>
                  <path fill="none" stroke="white" stroke-width="1.5" d="M0,-3.0v7 M-2.5,-0.5L0,-3.0L2.5,-0.5"/>
                </g>
                <g id="arrowLeft" xlink:href="#dirArrow" transform="rotate(270) translate(-36 17)" onmousedown="handlePan(-1,0)">
                  <use xlink:href="#rim" fill="#404040">
                        <set attributeName="fill" to="#808080" begin="arrowLeft.mouseover" end="arrowLeft.mouseout"/>
                  </use>
                  <path fill="none" stroke="white" stroke-width="1.5" d="M0,-3.0v7 M-2.5,-0.5L0,-3.0L2.5,-0.5"/>
                </g>
        </g>
        <svg viewBox="0 0 15 15" width="100%" height="30px" preserveAspectRatio="xMaxYMin meet">
         <g id="arrow_out" transform="scale(0.3 0.3)">
          <a xlink:href="msvc_2include_2xercesc_2dom_2impl_2DOMNodeListImpl_8hpp__dep__incl_org.svg" target="_base">
           <rect id="button" ry="5" rx="5" y="6" x="6" height="38" width="38"
                fill="#f2f5e9" fill-opacity="0.5" stroke="#606060" stroke-width="1.0"/>
           <path id="arrow"
             d="M 11.500037,31.436501 C 11.940474,20.09759 22.043105,11.32322 32.158766,21.979434 L 37.068811,17.246167 C 37.068811,17.246167 37.088388,32 37.088388,32 L 22.160133,31.978069 C 22.160133,31.978069 26.997745,27.140456 26.997745,27.140456 C 18.528582,18.264221 13.291696,25.230495 11.500037,31.436501 z"
             style="fill:#404040;"/>
          </a>
         </g>
        </svg>
</svg>
