<?xml version="1.0" encoding="UTF-8" standalone="no"?>
<!DOCTYPE svg PUBLIC "-//W3C//DTD SVG 1.1//EN"
 "http://www.w3.org/Graphics/SVG/1.1/DTD/svg11.dtd">
<!-- Generated by graphviz version 2.43.0 (0)
 -->
<!-- Title: src/libs/xerces&#45;c/msvc/include/xercesc/dom/impl/DOMNodeBase.hpp Pages: 1 -->
<svg width="1964pt" height="284pt"
 viewBox="0.00 0.00 1964.11 284.00" xmlns="http://www.w3.org/2000/svg" xmlns:xlink="http://www.w3.org/1999/xlink">
<g id="graph0" class="graph" transform="scale(1 1) rotate(0) translate(4 280)">
<title>src/libs/xerces&#45;c/msvc/include/xercesc/dom/impl/DOMNodeBase.hpp</title>
<polygon fill="white" stroke="transparent" points="-4,4 -4,-280 1960.11,-280 1960.11,4 -4,4"/>
<!-- Node1 -->
<g id="node1" class="node">
<title>Node1</title>
<g id="a_node1"><a xlink:title=" ">
<polygon fill="#bfbfbf" stroke="black" points="899.5,-234.5 899.5,-275.5 1043.5,-275.5 1043.5,-234.5 899.5,-234.5"/>
<text text-anchor="start" x="907.5" y="-263.5" font-family="Helvetica,sans-Serif" font-size="10.00">src/libs/xerces&#45;c/msvc</text>
<text text-anchor="start" x="907.5" y="-252.5" font-family="Helvetica,sans-Serif" font-size="10.00">/include/xercesc/dom/impl</text>
<text text-anchor="middle" x="971.5" y="-241.5" font-family="Helvetica,sans-Serif" font-size="10.00">/DOMNodeBase.hpp</text>
</a>
</g>
</g>
<!-- Node2 -->
<g id="node2" class="node">
<title>Node2</title>
<g id="a_node2"><a xlink:href="../../d3/d3c/msvc_2include_2xercesc_2dom_2impl_2DOMCDATASectionImpl_8hpp.html" target="_top" xlink:title=" ">
<polygon fill="white" stroke="black" points="0,-156.5 0,-197.5 155,-197.5 155,-156.5 0,-156.5"/>
<text text-anchor="start" x="8" y="-185.5" font-family="Helvetica,sans-Serif" font-size="10.00">src/libs/xerces&#45;c/msvc</text>
<text text-anchor="start" x="8" y="-174.5" font-family="Helvetica,sans-Serif" font-size="10.00">/include/xercesc/dom/impl</text>
<text text-anchor="middle" x="77.5" y="-163.5" font-family="Helvetica,sans-Serif" font-size="10.00">/DOMCDATASectionImpl.hpp</text>
</a>
</g>
</g>
<!-- Node1&#45;&gt;Node2 -->
<g id="edge1" class="edge">
<title>Node1&#45;&gt;Node2</title>
<path fill="none" stroke="midnightblue" d="M889.03,-252.16C743.21,-248.04 430.6,-235.3 169.5,-198 164.81,-197.33 160,-196.55 155.16,-195.71"/>
<polygon fill="midnightblue" stroke="midnightblue" points="889.15,-255.67 899.24,-252.45 889.34,-248.67 889.15,-255.67"/>
</g>
<!-- Node3 -->
<g id="node3" class="node">
<title>Node3</title>
<g id="a_node3"><a xlink:href="../../dd/d8d/msvc_2include_2xercesc_2dom_2impl_2DOMCasts_8hpp.html" target="_top" xlink:title=" ">
<polygon fill="white" stroke="black" points="899.5,-78.5 899.5,-119.5 1043.5,-119.5 1043.5,-78.5 899.5,-78.5"/>
<text text-anchor="start" x="907.5" y="-107.5" font-family="Helvetica,sans-Serif" font-size="10.00">src/libs/xerces&#45;c/msvc</text>
<text text-anchor="start" x="907.5" y="-96.5" font-family="Helvetica,sans-Serif" font-size="10.00">/include/xercesc/dom/impl</text>
<text text-anchor="middle" x="971.5" y="-85.5" font-family="Helvetica,sans-Serif" font-size="10.00">/DOMCasts.hpp</text>
</a>
</g>
</g>
<!-- Node1&#45;&gt;Node3 -->
<g id="edge2" class="edge">
<title>Node1&#45;&gt;Node3</title>
<path fill="none" stroke="midnightblue" d="M1054.01,-252.31C1283.77,-247.2 1916.05,-230.25 1946.5,-198 1959.32,-184.43 1959.32,-169.57 1946.5,-156 1915.58,-123.25 1264.19,-106.29 1043.71,-101.46"/>
<polygon fill="midnightblue" stroke="midnightblue" points="1053.63,-248.82 1043.71,-252.54 1053.78,-255.81 1053.63,-248.82"/>
</g>
<!-- Node4 -->
<g id="node4" class="node">
<title>Node4</title>
<g id="a_node4"><a xlink:href="../../de/d08/msvc_2include_2xercesc_2dom_2impl_2DOMAttrImpl_8hpp.html" target="_top" xlink:title=" ">
<polygon fill="white" stroke="black" points="161.5,-78.5 161.5,-119.5 305.5,-119.5 305.5,-78.5 161.5,-78.5"/>
<text text-anchor="start" x="169.5" y="-107.5" font-family="Helvetica,sans-Serif" font-size="10.00">src/libs/xerces&#45;c/msvc</text>
<text text-anchor="start" x="169.5" y="-96.5" font-family="Helvetica,sans-Serif" font-size="10.00">/include/xercesc/dom/impl</text>
<text text-anchor="middle" x="233.5" y="-85.5" font-family="Helvetica,sans-Serif" font-size="10.00">/DOMAttrImpl.hpp</text>
</a>
</g>
</g>
<!-- Node1&#45;&gt;Node4 -->
<g id="edge3" class="edge">
<title>Node1&#45;&gt;Node4</title>
<path fill="none" stroke="midnightblue" d="M889.18,-254.18C700.31,-253.75 248.51,-247.48 202.5,-198 182.33,-176.31 201.35,-141.54 217.22,-119.78"/>
<polygon fill="midnightblue" stroke="midnightblue" points="889.33,-257.68 899.33,-254.2 889.34,-250.68 889.33,-257.68"/>
</g>
<!-- Node6 -->
<g id="node6" class="node">
<title>Node6</title>
<g id="a_node6"><a xlink:href="../../dc/d7d/msvc_2include_2xercesc_2dom_2impl_2DOMCommentImpl_8hpp.html" target="_top" xlink:title=" ">
<polygon fill="white" stroke="black" points="373.5,-156.5 373.5,-197.5 517.5,-197.5 517.5,-156.5 373.5,-156.5"/>
<text text-anchor="start" x="381.5" y="-185.5" font-family="Helvetica,sans-Serif" font-size="10.00">src/libs/xerces&#45;c/msvc</text>
<text text-anchor="start" x="381.5" y="-174.5" font-family="Helvetica,sans-Serif" font-size="10.00">/include/xercesc/dom/impl</text>
<text text-anchor="middle" x="445.5" y="-163.5" font-family="Helvetica,sans-Serif" font-size="10.00">/DOMCommentImpl.hpp</text>
</a>
</g>
</g>
<!-- Node1&#45;&gt;Node6 -->
<g id="edge5" class="edge">
<title>Node1&#45;&gt;Node6</title>
<path fill="none" stroke="midnightblue" d="M889.32,-246.56C799.68,-237.78 652.19,-221.34 526.5,-198 523.65,-197.47 520.75,-196.9 517.83,-196.3"/>
<polygon fill="midnightblue" stroke="midnightblue" points="889.13,-250.06 899.42,-247.55 889.81,-243.09 889.13,-250.06"/>
</g>
<!-- Node7 -->
<g id="node7" class="node">
<title>Node7</title>
<g id="a_node7"><a xlink:href="../../df/d65/msvc_2include_2xercesc_2dom_2impl_2DOMDocumentFragmentImpl_8hpp.html" target="_top" xlink:title=" ">
<polygon fill="white" stroke="black" points="536,-156.5 536,-197.5 719,-197.5 719,-156.5 536,-156.5"/>
<text text-anchor="start" x="544" y="-185.5" font-family="Helvetica,sans-Serif" font-size="10.00">src/libs/xerces&#45;c/msvc</text>
<text text-anchor="start" x="544" y="-174.5" font-family="Helvetica,sans-Serif" font-size="10.00">/include/xercesc/dom/impl</text>
<text text-anchor="middle" x="627.5" y="-163.5" font-family="Helvetica,sans-Serif" font-size="10.00">/DOMDocumentFragmentImpl.hpp</text>
</a>
</g>
</g>
<!-- Node1&#45;&gt;Node7 -->
<g id="edge6" class="edge">
<title>Node1&#45;&gt;Node7</title>
<path fill="none" stroke="midnightblue" d="M889.48,-235.88C837.21,-224.33 769.51,-209.37 716.02,-197.56"/>
<polygon fill="midnightblue" stroke="midnightblue" points="888.87,-239.33 899.39,-238.07 890.38,-232.49 888.87,-239.33"/>
</g>
<!-- Node8 -->
<g id="node8" class="node">
<title>Node8</title>
<g id="a_node8"><a xlink:href="../../d2/d5e/msvc_2include_2xercesc_2dom_2impl_2DOMDocumentImpl_8hpp.html" target="_top" xlink:title=" ">
<polygon fill="white" stroke="black" points="211.5,-156.5 211.5,-197.5 355.5,-197.5 355.5,-156.5 211.5,-156.5"/>
<text text-anchor="start" x="219.5" y="-185.5" font-family="Helvetica,sans-Serif" font-size="10.00">src/libs/xerces&#45;c/msvc</text>
<text text-anchor="start" x="219.5" y="-174.5" font-family="Helvetica,sans-Serif" font-size="10.00">/include/xercesc/dom/impl</text>
<text text-anchor="middle" x="283.5" y="-163.5" font-family="Helvetica,sans-Serif" font-size="10.00">/DOMDocumentImpl.hpp</text>
</a>
</g>
</g>
<!-- Node1&#45;&gt;Node8 -->
<g id="edge7" class="edge">
<title>Node1&#45;&gt;Node8</title>
<path fill="none" stroke="midnightblue" d="M888.77,-250.31C771.46,-244.18 550.38,-229.34 364.5,-198 361.64,-197.52 358.74,-196.99 355.81,-196.42"/>
<polygon fill="midnightblue" stroke="midnightblue" points="888.93,-253.82 899.1,-250.84 889.29,-246.83 888.93,-253.82"/>
</g>
<!-- Node9 -->
<g id="node9" class="node">
<title>Node9</title>
<g id="a_node9"><a xlink:href="../../d4/dff/msvc_2include_2xercesc_2dom_2impl_2DOMElementImpl_8hpp.html" target="_top" xlink:title=" ">
<polygon fill="white" stroke="black" points="737.5,-156.5 737.5,-197.5 881.5,-197.5 881.5,-156.5 737.5,-156.5"/>
<text text-anchor="start" x="745.5" y="-185.5" font-family="Helvetica,sans-Serif" font-size="10.00">src/libs/xerces&#45;c/msvc</text>
<text text-anchor="start" x="745.5" y="-174.5" font-family="Helvetica,sans-Serif" font-size="10.00">/include/xercesc/dom/impl</text>
<text text-anchor="middle" x="809.5" y="-163.5" font-family="Helvetica,sans-Serif" font-size="10.00">/DOMElementImpl.hpp</text>
</a>
</g>
</g>
<!-- Node1&#45;&gt;Node9 -->
<g id="edge9" class="edge">
<title>Node1&#45;&gt;Node9</title>
<path fill="none" stroke="midnightblue" d="M920.45,-230.05C898.1,-219.57 872.22,-207.42 851.08,-197.51"/>
<polygon fill="midnightblue" stroke="midnightblue" points="919.24,-233.35 929.78,-234.43 922.21,-227.01 919.24,-233.35"/>
</g>
<!-- Node12 -->
<g id="node12" class="node">
<title>Node12</title>
<g id="a_node12"><a xlink:href="../../dc/d29/msvc_2include_2xercesc_2dom_2impl_2DOMEntityImpl_8hpp.html" target="_top" xlink:title=" ">
<polygon fill="white" stroke="black" points="1061.5,-156.5 1061.5,-197.5 1205.5,-197.5 1205.5,-156.5 1061.5,-156.5"/>
<text text-anchor="start" x="1069.5" y="-185.5" font-family="Helvetica,sans-Serif" font-size="10.00">src/libs/xerces&#45;c/msvc</text>
<text text-anchor="start" x="1069.5" y="-174.5" font-family="Helvetica,sans-Serif" font-size="10.00">/include/xercesc/dom/impl</text>
<text text-anchor="middle" x="1133.5" y="-163.5" font-family="Helvetica,sans-Serif" font-size="10.00">/DOMEntityImpl.hpp</text>
</a>
</g>
</g>
<!-- Node1&#45;&gt;Node12 -->
<g id="edge13" class="edge">
<title>Node1&#45;&gt;Node12</title>
<path fill="none" stroke="midnightblue" d="M1022.55,-230.05C1044.9,-219.57 1070.78,-207.42 1091.92,-197.51"/>
<polygon fill="midnightblue" stroke="midnightblue" points="1020.79,-227.01 1013.22,-234.43 1023.76,-233.35 1020.79,-227.01"/>
</g>
<!-- Node13 -->
<g id="node13" class="node">
<title>Node13</title>
<g id="a_node13"><a xlink:href="../../de/de5/msvc_2include_2xercesc_2dom_2impl_2DOMDocumentTypeImpl_8hpp.html" target="_top" xlink:title=" ">
<polygon fill="white" stroke="black" points="1224,-156.5 1224,-197.5 1383,-197.5 1383,-156.5 1224,-156.5"/>
<text text-anchor="start" x="1232" y="-185.5" font-family="Helvetica,sans-Serif" font-size="10.00">src/libs/xerces&#45;c/msvc</text>
<text text-anchor="start" x="1232" y="-174.5" font-family="Helvetica,sans-Serif" font-size="10.00">/include/xercesc/dom/impl</text>
<text text-anchor="middle" x="1303.5" y="-163.5" font-family="Helvetica,sans-Serif" font-size="10.00">/DOMDocumentTypeImpl.hpp</text>
</a>
</g>
</g>
<!-- Node1&#45;&gt;Node13 -->
<g id="edge14" class="edge">
<title>Node1&#45;&gt;Node13</title>
<path fill="none" stroke="midnightblue" d="M1053.39,-235.25C1105.34,-223.36 1172.22,-208.05 1223.75,-196.26"/>
<polygon fill="midnightblue" stroke="midnightblue" points="1052.51,-231.87 1043.54,-237.51 1054.07,-238.69 1052.51,-231.87"/>
</g>
<!-- Node14 -->
<g id="node14" class="node">
<title>Node14</title>
<g id="a_node14"><a xlink:href="../../dc/dba/msvc_2include_2xercesc_2dom_2impl_2DOMEntityReferenceImpl_8hpp.html" target="_top" xlink:title=" ">
<polygon fill="white" stroke="black" points="1401.5,-156.5 1401.5,-197.5 1565.5,-197.5 1565.5,-156.5 1401.5,-156.5"/>
<text text-anchor="start" x="1409.5" y="-185.5" font-family="Helvetica,sans-Serif" font-size="10.00">src/libs/xerces&#45;c/msvc</text>
<text text-anchor="start" x="1409.5" y="-174.5" font-family="Helvetica,sans-Serif" font-size="10.00">/include/xercesc/dom/impl</text>
<text text-anchor="middle" x="1483.5" y="-163.5" font-family="Helvetica,sans-Serif" font-size="10.00">/DOMEntityReferenceImpl.hpp</text>
</a>
</g>
</g>
<!-- Node1&#45;&gt;Node14 -->
<g id="edge15" class="edge">
<title>Node1&#45;&gt;Node14</title>
<path fill="none" stroke="midnightblue" d="M1053.79,-245.13C1138.88,-235.47 1275.44,-218.61 1392.5,-198 1395.37,-197.5 1398.28,-196.96 1401.22,-196.41"/>
<polygon fill="midnightblue" stroke="midnightblue" points="1053.21,-241.67 1043.67,-246.27 1054,-248.63 1053.21,-241.67"/>
</g>
<!-- Node15 -->
<g id="node15" class="node">
<title>Node15</title>
<g id="a_node15"><a xlink:href="../../d1/d32/msvc_2include_2xercesc_2dom_2impl_2DOMNotationImpl_8hpp.html" target="_top" xlink:title=" ">
<polygon fill="white" stroke="black" points="1583.5,-156.5 1583.5,-197.5 1727.5,-197.5 1727.5,-156.5 1583.5,-156.5"/>
<text text-anchor="start" x="1591.5" y="-185.5" font-family="Helvetica,sans-Serif" font-size="10.00">src/libs/xerces&#45;c/msvc</text>
<text text-anchor="start" x="1591.5" y="-174.5" font-family="Helvetica,sans-Serif" font-size="10.00">/include/xercesc/dom/impl</text>
<text text-anchor="middle" x="1655.5" y="-163.5" font-family="Helvetica,sans-Serif" font-size="10.00">/DOMNotationImpl.hpp</text>
</a>
</g>
</g>
<!-- Node1&#45;&gt;Node15 -->
<g id="edge16" class="edge">
<title>Node1&#45;&gt;Node15</title>
<path fill="none" stroke="midnightblue" d="M1054.17,-250.24C1170.82,-244.05 1390.09,-229.15 1574.5,-198 1577.36,-197.52 1580.26,-196.99 1583.19,-196.42"/>
<polygon fill="midnightblue" stroke="midnightblue" points="1053.69,-246.76 1043.89,-250.78 1054.06,-253.75 1053.69,-246.76"/>
</g>
<!-- Node16 -->
<g id="node16" class="node">
<title>Node16</title>
<g id="a_node16"><a xlink:href="../../dc/d12/msvc_2include_2xercesc_2dom_2impl_2DOMProcessingInstructionImpl_8hpp.html" target="_top" xlink:title=" ">
<polygon fill="white" stroke="black" points="1746,-156.5 1746,-197.5 1937,-197.5 1937,-156.5 1746,-156.5"/>
<text text-anchor="start" x="1754" y="-185.5" font-family="Helvetica,sans-Serif" font-size="10.00">src/libs/xerces&#45;c/msvc</text>
<text text-anchor="start" x="1754" y="-174.5" font-family="Helvetica,sans-Serif" font-size="10.00">/include/xercesc/dom/impl</text>
<text text-anchor="middle" x="1841.5" y="-163.5" font-family="Helvetica,sans-Serif" font-size="10.00">/DOMProcessingInstructionImpl.hpp</text>
</a>
</g>
</g>
<!-- Node1&#45;&gt;Node16 -->
<g id="edge17" class="edge">
<title>Node1&#45;&gt;Node16</title>
<path fill="none" stroke="midnightblue" d="M1054.03,-251.08C1194.61,-245.4 1489.35,-230.47 1736.5,-198 1739.54,-197.6 1742.62,-197.17 1745.72,-196.71"/>
<polygon fill="midnightblue" stroke="midnightblue" points="1053.62,-247.59 1043.77,-251.49 1053.9,-254.58 1053.62,-247.59"/>
</g>
<!-- Node17 -->
<g id="node17" class="node">
<title>Node17</title>
<g id="a_node17"><a xlink:href="../../df/de1/msvc_2include_2xercesc_2dom_2impl_2DOMTextImpl_8hpp.html" target="_top" xlink:title=" ">
<polygon fill="white" stroke="black" points="899.5,-156.5 899.5,-197.5 1043.5,-197.5 1043.5,-156.5 899.5,-156.5"/>
<text text-anchor="start" x="907.5" y="-185.5" font-family="Helvetica,sans-Serif" font-size="10.00">src/libs/xerces&#45;c/msvc</text>
<text text-anchor="start" x="907.5" y="-174.5" font-family="Helvetica,sans-Serif" font-size="10.00">/include/xercesc/dom/impl</text>
<text text-anchor="middle" x="971.5" y="-163.5" font-family="Helvetica,sans-Serif" font-size="10.00">/DOMTextImpl.hpp</text>
</a>
</g>
</g>
<!-- Node1&#45;&gt;Node17 -->
<g id="edge18" class="edge">
<title>Node1&#45;&gt;Node17</title>
<path fill="none" stroke="midnightblue" d="M971.5,-224.3C971.5,-215.3 971.5,-205.65 971.5,-197.51"/>
<polygon fill="midnightblue" stroke="midnightblue" points="968,-224.43 971.5,-234.43 975,-224.43 968,-224.43"/>
</g>
<!-- Node5 -->
<g id="node5" class="node">
<title>Node5</title>
<g id="a_node5"><a xlink:href="../../de/d6a/msvc_2include_2xercesc_2dom_2impl_2DOMAttrNSImpl_8hpp.html" target="_top" xlink:title=" ">
<polygon fill="white" stroke="black" points="161.5,-0.5 161.5,-41.5 305.5,-41.5 305.5,-0.5 161.5,-0.5"/>
<text text-anchor="start" x="169.5" y="-29.5" font-family="Helvetica,sans-Serif" font-size="10.00">src/libs/xerces&#45;c/msvc</text>
<text text-anchor="start" x="169.5" y="-18.5" font-family="Helvetica,sans-Serif" font-size="10.00">/include/xercesc/dom/impl</text>
<text text-anchor="middle" x="233.5" y="-7.5" font-family="Helvetica,sans-Serif" font-size="10.00">/DOMAttrNSImpl.hpp</text>
</a>
</g>
</g>
<!-- Node4&#45;&gt;Node5 -->
<g id="edge4" class="edge">
<title>Node4&#45;&gt;Node5</title>
<path fill="none" stroke="midnightblue" d="M233.5,-68.3C233.5,-59.3 233.5,-49.65 233.5,-41.51"/>
<polygon fill="midnightblue" stroke="midnightblue" points="230,-68.43 233.5,-78.43 237,-68.43 230,-68.43"/>
</g>
<!-- Node8&#45;&gt;Node4 -->
<g id="edge8" class="edge">
<title>Node8&#45;&gt;Node4</title>
<path fill="none" stroke="midnightblue" d="M265.11,-148.05C258.87,-138.57 252.04,-128.18 246.33,-119.51"/>
<polygon fill="midnightblue" stroke="midnightblue" points="262.2,-150 270.62,-156.43 268.05,-146.15 262.2,-150"/>
</g>
<!-- Node9&#45;&gt;Node3 -->
<g id="edge10" class="edge">
<title>Node9&#45;&gt;Node3</title>
<path fill="none" stroke="midnightblue" d="M860.55,-152.05C882.9,-141.57 908.78,-129.42 929.92,-119.51"/>
<polygon fill="midnightblue" stroke="midnightblue" points="858.79,-149.01 851.22,-156.43 861.76,-155.35 858.79,-149.01"/>
</g>
<!-- Node10 -->
<g id="node10" class="node">
<title>Node10</title>
<g id="a_node10"><a xlink:href="../../d4/da4/msvc_2include_2xercesc_2dom_2impl_2DOMElementNSImpl_8hpp.html" target="_top" xlink:title=" ">
<polygon fill="white" stroke="black" points="737.5,-78.5 737.5,-119.5 881.5,-119.5 881.5,-78.5 737.5,-78.5"/>
<text text-anchor="start" x="745.5" y="-107.5" font-family="Helvetica,sans-Serif" font-size="10.00">src/libs/xerces&#45;c/msvc</text>
<text text-anchor="start" x="745.5" y="-96.5" font-family="Helvetica,sans-Serif" font-size="10.00">/include/xercesc/dom/impl</text>
<text text-anchor="middle" x="809.5" y="-85.5" font-family="Helvetica,sans-Serif" font-size="10.00">/DOMElementNSImpl.hpp</text>
</a>
</g>
</g>
<!-- Node9&#45;&gt;Node10 -->
<g id="edge11" class="edge">
<title>Node9&#45;&gt;Node10</title>
<path fill="none" stroke="midnightblue" d="M809.5,-146.3C809.5,-137.3 809.5,-127.65 809.5,-119.51"/>
<polygon fill="midnightblue" stroke="midnightblue" points="806,-146.43 809.5,-156.43 813,-146.43 806,-146.43"/>
</g>
<!-- Node11 -->
<g id="node11" class="node">
<title>Node11</title>
<g id="a_node11"><a xlink:href="../../db/d0c/msvc_2include_2xercesc_2dom_2impl_2XSDElementNSImpl_8hpp.html" target="_top" xlink:title=" ">
<polygon fill="white" stroke="black" points="737.5,-0.5 737.5,-41.5 881.5,-41.5 881.5,-0.5 737.5,-0.5"/>
<text text-anchor="start" x="745.5" y="-29.5" font-family="Helvetica,sans-Serif" font-size="10.00">src/libs/xerces&#45;c/msvc</text>
<text text-anchor="start" x="745.5" y="-18.5" font-family="Helvetica,sans-Serif" font-size="10.00">/include/xercesc/dom/impl</text>
<text text-anchor="middle" x="809.5" y="-7.5" font-family="Helvetica,sans-Serif" font-size="10.00">/XSDElementNSImpl.hpp</text>
</a>
</g>
</g>
<!-- Node10&#45;&gt;Node11 -->
<g id="edge12" class="edge">
<title>Node10&#45;&gt;Node11</title>
<path fill="none" stroke="midnightblue" d="M809.5,-68.3C809.5,-59.3 809.5,-49.65 809.5,-41.51"/>
<polygon fill="midnightblue" stroke="midnightblue" points="806,-68.43 809.5,-78.43 813,-68.43 806,-68.43"/>
</g>
<!-- Node17&#45;&gt;Node3 -->
<g id="edge19" class="edge">
<title>Node17&#45;&gt;Node3</title>
<path fill="none" stroke="midnightblue" d="M971.5,-146.3C971.5,-137.3 971.5,-127.65 971.5,-119.51"/>
<polygon fill="midnightblue" stroke="midnightblue" points="968,-146.43 971.5,-156.43 975,-146.43 968,-146.43"/>
</g>
</g>
</svg>
