<?xml version="1.0" encoding="UTF-8" standalone="no"?>
<!DOCTYPE svg PUBLIC "-//W3C//DTD SVG 1.1//EN"
 "http://www.w3.org/Graphics/SVG/1.1/DTD/svg11.dtd">
<!-- Generated by graphviz version 2.43.0 (0)
 -->
<!-- Title: src/libs/xerces&#45;c/msvc/include/xercesc/dom/impl/DOMNodeBase.hpp Pages: 1 -->
<svg width="1983pt" height="284pt"
 viewBox="0.00 0.00 1983.00 284.00" xmlns="http://www.w3.org/2000/svg" xmlns:xlink="http://www.w3.org/1999/xlink">
<g id="graph0" class="graph" transform="scale(1 1) rotate(0) translate(4 280)">
<title>src/libs/xerces&#45;c/msvc/include/xercesc/dom/impl/DOMNodeBase.hpp</title>
<polygon fill="white" stroke="transparent" points="-4,4 -4,-280 1979,-280 1979,4 -4,4"/>
<!-- Node1 -->
<g id="node1" class="node">
<title>Node1</title>
<g id="a_node1"><a xlink:title=" ">
<polygon fill="#bfbfbf" stroke="black" points="915,-234.5 915,-275.5 1059,-275.5 1059,-234.5 915,-234.5"/>
<text text-anchor="start" x="923" y="-263.5" font-family="Helvetica,sans-Serif" font-size="10.00">src/libs/xerces&#45;c/msvc</text>
<text text-anchor="start" x="923" y="-252.5" font-family="Helvetica,sans-Serif" font-size="10.00">/include/xercesc/dom/impl</text>
<text text-anchor="middle" x="987" y="-241.5" font-family="Helvetica,sans-Serif" font-size="10.00">/DOMNodeBase.hpp</text>
</a>
</g>
</g>
<!-- Node2 -->
<g id="node2" class="node">
<title>Node2</title>
<g id="a_node2"><a xlink:href="../../dd/d8d/msvc_2include_2xercesc_2dom_2impl_2DOMCasts_8hpp.html" target="_top" xlink:title=" ">
<polygon fill="white" stroke="black" points="1421,-78.5 1421,-119.5 1565,-119.5 1565,-78.5 1421,-78.5"/>
<text text-anchor="start" x="1429" y="-107.5" font-family="Helvetica,sans-Serif" font-size="10.00">src/libs/xerces&#45;c/msvc</text>
<text text-anchor="start" x="1429" y="-96.5" font-family="Helvetica,sans-Serif" font-size="10.00">/include/xercesc/dom/impl</text>
<text text-anchor="middle" x="1493" y="-85.5" font-family="Helvetica,sans-Serif" font-size="10.00">/DOMCasts.hpp</text>
</a>
</g>
</g>
<!-- Node1&#45;&gt;Node2 -->
<g id="edge1" class="edge">
<title>Node1&#45;&gt;Node2</title>
<path fill="none" stroke="midnightblue" d="M1069.19,-254.41C1263,-254.53 1736,-249.49 1784,-198 1850.79,-126.35 1671.78,-107.07 1565.41,-101.89"/>
<polygon fill="midnightblue" stroke="midnightblue" points="1069.06,-250.91 1059.05,-254.4 1069.05,-257.91 1069.06,-250.91"/>
</g>
<!-- Node3 -->
<g id="node3" class="node">
<title>Node3</title>
<g id="a_node3"><a xlink:href="../../d3/d3c/msvc_2include_2xercesc_2dom_2impl_2DOMCDATASectionImpl_8hpp.html" target="_top" xlink:title=" ">
<polygon fill="white" stroke="black" points="162.5,-156.5 162.5,-197.5 317.5,-197.5 317.5,-156.5 162.5,-156.5"/>
<text text-anchor="start" x="170.5" y="-185.5" font-family="Helvetica,sans-Serif" font-size="10.00">src/libs/xerces&#45;c/msvc</text>
<text text-anchor="start" x="170.5" y="-174.5" font-family="Helvetica,sans-Serif" font-size="10.00">/include/xercesc/dom/impl</text>
<text text-anchor="middle" x="240" y="-163.5" font-family="Helvetica,sans-Serif" font-size="10.00">/DOMCDATASectionImpl.hpp</text>
</a>
</g>
</g>
<!-- Node1&#45;&gt;Node3 -->
<g id="edge2" class="edge">
<title>Node1&#45;&gt;Node3</title>
<path fill="none" stroke="midnightblue" d="M904.71,-250.37C780.19,-244.11 536.72,-228.87 332,-198 327.31,-197.29 322.51,-196.49 317.67,-195.62"/>
<polygon fill="midnightblue" stroke="midnightblue" points="904.76,-253.88 914.92,-250.88 905.11,-246.89 904.76,-253.88"/>
</g>
<!-- Node4 -->
<g id="node4" class="node">
<title>Node4</title>
<g id="a_node4"><a xlink:href="../../de/d08/msvc_2include_2xercesc_2dom_2impl_2DOMAttrImpl_8hpp.html" target="_top" xlink:title=" ">
<polygon fill="white" stroke="black" points="137,-78.5 137,-119.5 281,-119.5 281,-78.5 137,-78.5"/>
<text text-anchor="start" x="145" y="-107.5" font-family="Helvetica,sans-Serif" font-size="10.00">src/libs/xerces&#45;c/msvc</text>
<text text-anchor="start" x="145" y="-96.5" font-family="Helvetica,sans-Serif" font-size="10.00">/include/xercesc/dom/impl</text>
<text text-anchor="middle" x="209" y="-85.5" font-family="Helvetica,sans-Serif" font-size="10.00">/DOMAttrImpl.hpp</text>
</a>
</g>
</g>
<!-- Node1&#45;&gt;Node4 -->
<g id="edge3" class="edge">
<title>Node1&#45;&gt;Node4</title>
<path fill="none" stroke="midnightblue" d="M904.57,-253.82C757.8,-252.31 457.86,-243.56 365,-198 342.13,-186.78 346.52,-171.1 326,-156 306.05,-141.32 281.64,-128.91 260.29,-119.54"/>
<polygon fill="midnightblue" stroke="midnightblue" points="904.84,-257.32 914.87,-253.91 904.9,-250.32 904.84,-257.32"/>
</g>
<!-- Node6 -->
<g id="node6" class="node">
<title>Node6</title>
<g id="a_node6"><a xlink:href="../../dc/d7d/msvc_2include_2xercesc_2dom_2impl_2DOMCommentImpl_8hpp.html" target="_top" xlink:title=" ">
<polygon fill="white" stroke="black" points="374,-156.5 374,-197.5 518,-197.5 518,-156.5 374,-156.5"/>
<text text-anchor="start" x="382" y="-185.5" font-family="Helvetica,sans-Serif" font-size="10.00">src/libs/xerces&#45;c/msvc</text>
<text text-anchor="start" x="382" y="-174.5" font-family="Helvetica,sans-Serif" font-size="10.00">/include/xercesc/dom/impl</text>
<text text-anchor="middle" x="446" y="-163.5" font-family="Helvetica,sans-Serif" font-size="10.00">/DOMCommentImpl.hpp</text>
</a>
</g>
</g>
<!-- Node1&#45;&gt;Node6 -->
<g id="edge5" class="edge">
<title>Node1&#45;&gt;Node6</title>
<path fill="none" stroke="midnightblue" d="M904.55,-246.89C812.33,-238.26 658.74,-221.83 528,-198 524.83,-197.42 521.6,-196.8 518.34,-196.13"/>
<polygon fill="midnightblue" stroke="midnightblue" points="904.37,-250.39 914.66,-247.83 905.02,-243.42 904.37,-250.39"/>
</g>
<!-- Node7 -->
<g id="node7" class="node">
<title>Node7</title>
<g id="a_node7"><a xlink:href="../../de/de5/msvc_2include_2xercesc_2dom_2impl_2DOMDocumentTypeImpl_8hpp.html" target="_top" xlink:title=" ">
<polygon fill="white" stroke="black" points="536.5,-156.5 536.5,-197.5 695.5,-197.5 695.5,-156.5 536.5,-156.5"/>
<text text-anchor="start" x="544.5" y="-185.5" font-family="Helvetica,sans-Serif" font-size="10.00">src/libs/xerces&#45;c/msvc</text>
<text text-anchor="start" x="544.5" y="-174.5" font-family="Helvetica,sans-Serif" font-size="10.00">/include/xercesc/dom/impl</text>
<text text-anchor="middle" x="616" y="-163.5" font-family="Helvetica,sans-Serif" font-size="10.00">/DOMDocumentTypeImpl.hpp</text>
</a>
</g>
</g>
<!-- Node1&#45;&gt;Node7 -->
<g id="edge6" class="edge">
<title>Node1&#45;&gt;Node7</title>
<path fill="none" stroke="midnightblue" d="M904.82,-238.24C848.51,-227.31 772.14,-212.21 705,-198 701.9,-197.34 698.74,-196.67 695.55,-195.98"/>
<polygon fill="midnightblue" stroke="midnightblue" points="904.26,-241.7 914.74,-240.17 905.59,-234.83 904.26,-241.7"/>
</g>
<!-- Node8 -->
<g id="node8" class="node">
<title>Node8</title>
<g id="a_node8"><a xlink:href="../../df/d65/msvc_2include_2xercesc_2dom_2impl_2DOMDocumentFragmentImpl_8hpp.html" target="_top" xlink:title=" ">
<polygon fill="white" stroke="black" points="713.5,-156.5 713.5,-197.5 896.5,-197.5 896.5,-156.5 713.5,-156.5"/>
<text text-anchor="start" x="721.5" y="-185.5" font-family="Helvetica,sans-Serif" font-size="10.00">src/libs/xerces&#45;c/msvc</text>
<text text-anchor="start" x="721.5" y="-174.5" font-family="Helvetica,sans-Serif" font-size="10.00">/include/xercesc/dom/impl</text>
<text text-anchor="middle" x="805" y="-163.5" font-family="Helvetica,sans-Serif" font-size="10.00">/DOMDocumentFragmentImpl.hpp</text>
</a>
</g>
</g>
<!-- Node1&#45;&gt;Node8 -->
<g id="edge7" class="edge">
<title>Node1&#45;&gt;Node8</title>
<path fill="none" stroke="midnightblue" d="M930.65,-230.47C905.32,-219.89 875.78,-207.56 851.71,-197.51"/>
<polygon fill="midnightblue" stroke="midnightblue" points="929.55,-233.8 940.13,-234.43 932.25,-227.34 929.55,-233.8"/>
</g>
<!-- Node9 -->
<g id="node9" class="node">
<title>Node9</title>
<g id="a_node9"><a xlink:href="../../d4/dff/msvc_2include_2xercesc_2dom_2impl_2DOMElementImpl_8hpp.html" target="_top" xlink:title=" ">
<polygon fill="white" stroke="black" points="915,-156.5 915,-197.5 1059,-197.5 1059,-156.5 915,-156.5"/>
<text text-anchor="start" x="923" y="-185.5" font-family="Helvetica,sans-Serif" font-size="10.00">src/libs/xerces&#45;c/msvc</text>
<text text-anchor="start" x="923" y="-174.5" font-family="Helvetica,sans-Serif" font-size="10.00">/include/xercesc/dom/impl</text>
<text text-anchor="middle" x="987" y="-163.5" font-family="Helvetica,sans-Serif" font-size="10.00">/DOMElementImpl.hpp</text>
</a>
</g>
</g>
<!-- Node1&#45;&gt;Node9 -->
<g id="edge8" class="edge">
<title>Node1&#45;&gt;Node9</title>
<path fill="none" stroke="midnightblue" d="M987,-224.3C987,-215.3 987,-205.65 987,-197.51"/>
<polygon fill="midnightblue" stroke="midnightblue" points="983.5,-224.43 987,-234.43 990.5,-224.43 983.5,-224.43"/>
</g>
<!-- Node12 -->
<g id="node12" class="node">
<title>Node12</title>
<g id="a_node12"><a xlink:href="../../dc/d29/msvc_2include_2xercesc_2dom_2impl_2DOMEntityImpl_8hpp.html" target="_top" xlink:title=" ">
<polygon fill="white" stroke="black" points="1077,-156.5 1077,-197.5 1221,-197.5 1221,-156.5 1077,-156.5"/>
<text text-anchor="start" x="1085" y="-185.5" font-family="Helvetica,sans-Serif" font-size="10.00">src/libs/xerces&#45;c/msvc</text>
<text text-anchor="start" x="1085" y="-174.5" font-family="Helvetica,sans-Serif" font-size="10.00">/include/xercesc/dom/impl</text>
<text text-anchor="middle" x="1149" y="-163.5" font-family="Helvetica,sans-Serif" font-size="10.00">/DOMEntityImpl.hpp</text>
</a>
</g>
</g>
<!-- Node1&#45;&gt;Node12 -->
<g id="edge12" class="edge">
<title>Node1&#45;&gt;Node12</title>
<path fill="none" stroke="midnightblue" d="M1038.05,-230.05C1060.4,-219.57 1086.28,-207.42 1107.42,-197.51"/>
<polygon fill="midnightblue" stroke="midnightblue" points="1036.29,-227.01 1028.72,-234.43 1039.26,-233.35 1036.29,-227.01"/>
</g>
<!-- Node13 -->
<g id="node13" class="node">
<title>Node13</title>
<g id="a_node13"><a xlink:href="../../dc/dba/msvc_2include_2xercesc_2dom_2impl_2DOMEntityReferenceImpl_8hpp.html" target="_top" xlink:title=" ">
<polygon fill="white" stroke="black" points="1239,-156.5 1239,-197.5 1403,-197.5 1403,-156.5 1239,-156.5"/>
<text text-anchor="start" x="1247" y="-185.5" font-family="Helvetica,sans-Serif" font-size="10.00">src/libs/xerces&#45;c/msvc</text>
<text text-anchor="start" x="1247" y="-174.5" font-family="Helvetica,sans-Serif" font-size="10.00">/include/xercesc/dom/impl</text>
<text text-anchor="middle" x="1321" y="-163.5" font-family="Helvetica,sans-Serif" font-size="10.00">/DOMEntityReferenceImpl.hpp</text>
</a>
</g>
</g>
<!-- Node1&#45;&gt;Node13 -->
<g id="edge13" class="edge">
<title>Node1&#45;&gt;Node13</title>
<path fill="none" stroke="midnightblue" d="M1068.86,-235.37C1120.53,-223.62 1187.05,-208.48 1238.78,-196.71"/>
<polygon fill="midnightblue" stroke="midnightblue" points="1068.04,-231.97 1059.06,-237.6 1069.59,-238.8 1068.04,-231.97"/>
</g>
<!-- Node14 -->
<g id="node14" class="node">
<title>Node14</title>
<g id="a_node14"><a xlink:href="../../d2/d5e/msvc_2include_2xercesc_2dom_2impl_2DOMDocumentImpl_8hpp.html" target="_top" xlink:title=" ">
<polygon fill="white" stroke="black" points="0,-156.5 0,-197.5 144,-197.5 144,-156.5 0,-156.5"/>
<text text-anchor="start" x="8" y="-185.5" font-family="Helvetica,sans-Serif" font-size="10.00">src/libs/xerces&#45;c/msvc</text>
<text text-anchor="start" x="8" y="-174.5" font-family="Helvetica,sans-Serif" font-size="10.00">/include/xercesc/dom/impl</text>
<text text-anchor="middle" x="72" y="-163.5" font-family="Helvetica,sans-Serif" font-size="10.00">/DOMDocumentImpl.hpp</text>
</a>
</g>
</g>
<!-- Node1&#45;&gt;Node14 -->
<g id="edge14" class="edge">
<title>Node1&#45;&gt;Node14</title>
<path fill="none" stroke="midnightblue" d="M904.79,-253.24C754.59,-250.79 426.15,-240.56 153,-198 150.14,-197.55 147.23,-197.06 144.3,-196.52"/>
<polygon fill="midnightblue" stroke="midnightblue" points="904.8,-256.74 914.86,-253.39 904.91,-249.74 904.8,-256.74"/>
</g>
<!-- Node15 -->
<g id="node15" class="node">
<title>Node15</title>
<g id="a_node15"><a xlink:href="../../dc/d12/msvc_2include_2xercesc_2dom_2impl_2DOMProcessingInstructionImpl_8hpp.html" target="_top" xlink:title=" ">
<polygon fill="white" stroke="black" points="1583.5,-156.5 1583.5,-197.5 1774.5,-197.5 1774.5,-156.5 1583.5,-156.5"/>
<text text-anchor="start" x="1591.5" y="-185.5" font-family="Helvetica,sans-Serif" font-size="10.00">src/libs/xerces&#45;c/msvc</text>
<text text-anchor="start" x="1591.5" y="-174.5" font-family="Helvetica,sans-Serif" font-size="10.00">/include/xercesc/dom/impl</text>
<text text-anchor="middle" x="1679" y="-163.5" font-family="Helvetica,sans-Serif" font-size="10.00">/DOMProcessingInstructionImpl.hpp</text>
</a>
</g>
</g>
<!-- Node1&#45;&gt;Node15 -->
<g id="edge16" class="edge">
<title>Node1&#45;&gt;Node15</title>
<path fill="none" stroke="midnightblue" d="M1069.12,-248.59C1182.89,-240.54 1394.71,-223.57 1574,-198 1577.12,-197.55 1580.29,-197.08 1583.49,-196.58"/>
<polygon fill="midnightblue" stroke="midnightblue" points="1068.82,-245.1 1059.09,-249.29 1069.31,-252.08 1068.82,-245.1"/>
</g>
<!-- Node16 -->
<g id="node16" class="node">
<title>Node16</title>
<g id="a_node16"><a xlink:href="../../df/de1/msvc_2include_2xercesc_2dom_2impl_2DOMTextImpl_8hpp.html" target="_top" xlink:title=" ">
<polygon fill="white" stroke="black" points="1421,-156.5 1421,-197.5 1565,-197.5 1565,-156.5 1421,-156.5"/>
<text text-anchor="start" x="1429" y="-185.5" font-family="Helvetica,sans-Serif" font-size="10.00">src/libs/xerces&#45;c/msvc</text>
<text text-anchor="start" x="1429" y="-174.5" font-family="Helvetica,sans-Serif" font-size="10.00">/include/xercesc/dom/impl</text>
<text text-anchor="middle" x="1493" y="-163.5" font-family="Helvetica,sans-Serif" font-size="10.00">/DOMTextImpl.hpp</text>
</a>
</g>
</g>
<!-- Node1&#45;&gt;Node16 -->
<g id="edge17" class="edge">
<title>Node1&#45;&gt;Node16</title>
<path fill="none" stroke="midnightblue" d="M1069.15,-245.91C1155.08,-236.81 1293.64,-220.34 1412,-198 1414.85,-197.46 1417.74,-196.89 1420.66,-196.28"/>
<polygon fill="midnightblue" stroke="midnightblue" points="1068.78,-242.43 1059.2,-246.96 1069.51,-249.39 1068.78,-242.43"/>
</g>
<!-- Node17 -->
<g id="node17" class="node">
<title>Node17</title>
<g id="a_node17"><a xlink:href="../../d1/d32/msvc_2include_2xercesc_2dom_2impl_2DOMNotationImpl_8hpp.html" target="_top" xlink:title=" ">
<polygon fill="white" stroke="black" points="1831,-156.5 1831,-197.5 1975,-197.5 1975,-156.5 1831,-156.5"/>
<text text-anchor="start" x="1839" y="-185.5" font-family="Helvetica,sans-Serif" font-size="10.00">src/libs/xerces&#45;c/msvc</text>
<text text-anchor="start" x="1839" y="-174.5" font-family="Helvetica,sans-Serif" font-size="10.00">/include/xercesc/dom/impl</text>
<text text-anchor="middle" x="1903" y="-163.5" font-family="Helvetica,sans-Serif" font-size="10.00">/DOMNotationImpl.hpp</text>
</a>
</g>
</g>
<!-- Node1&#45;&gt;Node17 -->
<g id="edge19" class="edge">
<title>Node1&#45;&gt;Node17</title>
<path fill="none" stroke="midnightblue" d="M1069.05,-252.84C1218.57,-249.75 1545.05,-238.53 1817,-198 1821.55,-197.32 1826.21,-196.53 1830.9,-195.66"/>
<polygon fill="midnightblue" stroke="midnightblue" points="1068.96,-249.34 1059.03,-253.04 1069.1,-256.34 1068.96,-249.34"/>
</g>
<!-- Node5 -->
<g id="node5" class="node">
<title>Node5</title>
<g id="a_node5"><a xlink:href="../../de/d6a/msvc_2include_2xercesc_2dom_2impl_2DOMAttrNSImpl_8hpp.html" target="_top" xlink:title=" ">
<polygon fill="white" stroke="black" points="137,-0.5 137,-41.5 281,-41.5 281,-0.5 137,-0.5"/>
<text text-anchor="start" x="145" y="-29.5" font-family="Helvetica,sans-Serif" font-size="10.00">src/libs/xerces&#45;c/msvc</text>
<text text-anchor="start" x="145" y="-18.5" font-family="Helvetica,sans-Serif" font-size="10.00">/include/xercesc/dom/impl</text>
<text text-anchor="middle" x="209" y="-7.5" font-family="Helvetica,sans-Serif" font-size="10.00">/DOMAttrNSImpl.hpp</text>
</a>
</g>
</g>
<!-- Node4&#45;&gt;Node5 -->
<g id="edge4" class="edge">
<title>Node4&#45;&gt;Node5</title>
<path fill="none" stroke="midnightblue" d="M209,-68.3C209,-59.3 209,-49.65 209,-41.51"/>
<polygon fill="midnightblue" stroke="midnightblue" points="205.5,-68.43 209,-78.43 212.5,-68.43 205.5,-68.43"/>
</g>
<!-- Node9&#45;&gt;Node2 -->
<g id="edge9" class="edge">
<title>Node9&#45;&gt;Node2</title>
<path fill="none" stroke="midnightblue" d="M1069.39,-155.83C1198.36,-131.93 1338.08,-115.67 1420.8,-107.04"/>
<polygon fill="midnightblue" stroke="midnightblue" points="1068.52,-152.44 1059.34,-157.72 1069.81,-159.32 1068.52,-152.44"/>
</g>
<!-- Node10 -->
<g id="node10" class="node">
<title>Node10</title>
<g id="a_node10"><a xlink:href="../../d4/da4/msvc_2include_2xercesc_2dom_2impl_2DOMElementNSImpl_8hpp.html" target="_top" xlink:title=" ">
<polygon fill="white" stroke="black" points="915,-78.5 915,-119.5 1059,-119.5 1059,-78.5 915,-78.5"/>
<text text-anchor="start" x="923" y="-107.5" font-family="Helvetica,sans-Serif" font-size="10.00">src/libs/xerces&#45;c/msvc</text>
<text text-anchor="start" x="923" y="-96.5" font-family="Helvetica,sans-Serif" font-size="10.00">/include/xercesc/dom/impl</text>
<text text-anchor="middle" x="987" y="-85.5" font-family="Helvetica,sans-Serif" font-size="10.00">/DOMElementNSImpl.hpp</text>
</a>
</g>
</g>
<!-- Node9&#45;&gt;Node10 -->
<g id="edge10" class="edge">
<title>Node9&#45;&gt;Node10</title>
<path fill="none" stroke="midnightblue" d="M987,-146.3C987,-137.3 987,-127.65 987,-119.51"/>
<polygon fill="midnightblue" stroke="midnightblue" points="983.5,-146.43 987,-156.43 990.5,-146.43 983.5,-146.43"/>
</g>
<!-- Node11 -->
<g id="node11" class="node">
<title>Node11</title>
<g id="a_node11"><a xlink:href="../../db/d0c/msvc_2include_2xercesc_2dom_2impl_2XSDElementNSImpl_8hpp.html" target="_top" xlink:title=" ">
<polygon fill="white" stroke="black" points="915,-0.5 915,-41.5 1059,-41.5 1059,-0.5 915,-0.5"/>
<text text-anchor="start" x="923" y="-29.5" font-family="Helvetica,sans-Serif" font-size="10.00">src/libs/xerces&#45;c/msvc</text>
<text text-anchor="start" x="923" y="-18.5" font-family="Helvetica,sans-Serif" font-size="10.00">/include/xercesc/dom/impl</text>
<text text-anchor="middle" x="987" y="-7.5" font-family="Helvetica,sans-Serif" font-size="10.00">/XSDElementNSImpl.hpp</text>
</a>
</g>
</g>
<!-- Node10&#45;&gt;Node11 -->
<g id="edge11" class="edge">
<title>Node10&#45;&gt;Node11</title>
<path fill="none" stroke="midnightblue" d="M987,-68.3C987,-59.3 987,-49.65 987,-41.51"/>
<polygon fill="midnightblue" stroke="midnightblue" points="983.5,-68.43 987,-78.43 990.5,-68.43 983.5,-68.43"/>
</g>
<!-- Node14&#45;&gt;Node4 -->
<g id="edge15" class="edge">
<title>Node14&#45;&gt;Node4</title>
<path fill="none" stroke="midnightblue" d="M116.19,-151.49C134.85,-141.13 156.28,-129.25 173.84,-119.51"/>
<polygon fill="midnightblue" stroke="midnightblue" points="114.33,-148.52 107.28,-156.43 117.72,-154.64 114.33,-148.52"/>
</g>
<!-- Node16&#45;&gt;Node2 -->
<g id="edge18" class="edge">
<title>Node16&#45;&gt;Node2</title>
<path fill="none" stroke="midnightblue" d="M1493,-146.3C1493,-137.3 1493,-127.65 1493,-119.51"/>
<polygon fill="midnightblue" stroke="midnightblue" points="1489.5,-146.43 1493,-156.43 1496.5,-146.43 1489.5,-146.43"/>
</g>
</g>
</svg>
