<?xml version="1.0" encoding="UTF-8" standalone="no"?>
<!DOCTYPE svg PUBLIC "-//W3C//DTD SVG 1.1//EN"
 "http://www.w3.org/Graphics/SVG/1.1/DTD/svg11.dtd">
<!-- Generated by graphviz version 2.43.0 (0)
 -->
<!-- Title: src/libs/vtools/tools/drawTools/toolpoint/toolsinglepoint/toollinepoint/doubleline_point_tool.h Pages: 1 -->
<svg width="336pt" height="306pt"
 viewBox="0.00 0.00 335.50 306.00" xmlns="http://www.w3.org/2000/svg" xmlns:xlink="http://www.w3.org/1999/xlink">
<g id="graph0" class="graph" transform="scale(1 1) rotate(0) translate(4 302)">
<title>src/libs/vtools/tools/drawTools/toolpoint/toolsinglepoint/toollinepoint/doubleline_point_tool.h</title>
<polygon fill="white" stroke="transparent" points="-4,4 -4,-302 331.5,-302 331.5,4 -4,4"/>
<!-- Node1 -->
<g id="node1" class="node">
<title>Node1</title>
<g id="a_node1"><a xlink:title=" ">
<polygon fill="#bfbfbf" stroke="black" points="28,-245.5 28,-297.5 185,-297.5 185,-245.5 28,-245.5"/>
<text text-anchor="start" x="36" y="-285.5" font-family="Helvetica,sans-Serif" font-size="10.00">src/libs/vtools/tools</text>
<text text-anchor="start" x="36" y="-274.5" font-family="Helvetica,sans-Serif" font-size="10.00">/drawTools/toolpoint</text>
<text text-anchor="start" x="36" y="-263.5" font-family="Helvetica,sans-Serif" font-size="10.00">/toolsinglepoint/toollinepoint</text>
<text text-anchor="middle" x="106.5" y="-252.5" font-family="Helvetica,sans-Serif" font-size="10.00">/doubleline_point_tool.h</text>
</a>
</g>
</g>
<!-- Node2 -->
<g id="node2" class="node">
<title>Node2</title>
<g id="a_node2"><a xlink:href="../../d3/d33/point__intersectxy__tool_8cpp.html" target="_top" xlink:title=" ">
<polygon fill="white" stroke="black" points="0,-67.5 0,-119.5 121,-119.5 121,-67.5 0,-67.5"/>
<text text-anchor="start" x="8" y="-107.5" font-family="Helvetica,sans-Serif" font-size="10.00">src/libs/vtools/tools</text>
<text text-anchor="start" x="8" y="-96.5" font-family="Helvetica,sans-Serif" font-size="10.00">/drawTools/toolpoint</text>
<text text-anchor="start" x="8" y="-85.5" font-family="Helvetica,sans-Serif" font-size="10.00">/toolsinglepoint/point</text>
<text text-anchor="middle" x="60.5" y="-74.5" font-family="Helvetica,sans-Serif" font-size="10.00">_intersectxy_tool.cpp</text>
</a>
</g>
</g>
<!-- Node1&#45;&gt;Node2 -->
<g id="edge1" class="edge">
<title>Node1&#45;&gt;Node2</title>
<path fill="none" stroke="midnightblue" d="M44.95,-239.2C34.3,-230.89 24.68,-220.85 18.5,-209 7.61,-188.11 11.55,-178.51 18.5,-156 22.54,-142.91 30.44,-130.11 38.31,-119.61"/>
<polygon fill="midnightblue" stroke="midnightblue" points="43.11,-242.19 53.26,-245.22 47.22,-236.52 43.11,-242.19"/>
</g>
<!-- Node3 -->
<g id="node3" class="node">
<title>Node3</title>
<g id="a_node3"><a xlink:href="../../d8/d6c/doubleline__point__tool_8cpp.html" target="_top" xlink:title=" ">
<polygon fill="white" stroke="black" points="28,-156.5 28,-208.5 185,-208.5 185,-156.5 28,-156.5"/>
<text text-anchor="start" x="36" y="-196.5" font-family="Helvetica,sans-Serif" font-size="10.00">src/libs/vtools/tools</text>
<text text-anchor="start" x="36" y="-185.5" font-family="Helvetica,sans-Serif" font-size="10.00">/drawTools/toolpoint</text>
<text text-anchor="start" x="36" y="-174.5" font-family="Helvetica,sans-Serif" font-size="10.00">/toolsinglepoint/toollinepoint</text>
<text text-anchor="middle" x="106.5" y="-163.5" font-family="Helvetica,sans-Serif" font-size="10.00">/doubleline_point_tool.cpp</text>
</a>
</g>
</g>
<!-- Node1&#45;&gt;Node3 -->
<g id="edge2" class="edge">
<title>Node1&#45;&gt;Node3</title>
<path fill="none" stroke="midnightblue" d="M106.5,-235.19C106.5,-226.28 106.5,-216.9 106.5,-208.61"/>
<polygon fill="midnightblue" stroke="midnightblue" points="103,-235.34 106.5,-245.34 110,-235.34 103,-235.34"/>
</g>
<!-- Node4 -->
<g id="node4" class="node">
<title>Node4</title>
<g id="a_node4"><a xlink:href="../../de/d47/point__intersectxy__tool_8h.html" target="_top" xlink:title=" ">
<polygon fill="white" stroke="black" points="203.5,-156.5 203.5,-208.5 323.5,-208.5 323.5,-156.5 203.5,-156.5"/>
<text text-anchor="start" x="211.5" y="-196.5" font-family="Helvetica,sans-Serif" font-size="10.00">src/libs/vtools/tools</text>
<text text-anchor="start" x="211.5" y="-185.5" font-family="Helvetica,sans-Serif" font-size="10.00">/drawTools/toolpoint</text>
<text text-anchor="start" x="211.5" y="-174.5" font-family="Helvetica,sans-Serif" font-size="10.00">/toolsinglepoint/point</text>
<text text-anchor="middle" x="263.5" y="-163.5" font-family="Helvetica,sans-Serif" font-size="10.00">_intersectxy_tool.h</text>
</a>
</g>
</g>
<!-- Node1&#45;&gt;Node4 -->
<g id="edge3" class="edge">
<title>Node1&#45;&gt;Node4</title>
<path fill="none" stroke="midnightblue" d="M160.9,-240.35C179.59,-230 200.3,-218.52 218.19,-208.61"/>
<polygon fill="midnightblue" stroke="midnightblue" points="158.96,-237.43 151.91,-245.34 162.35,-243.55 158.96,-237.43"/>
</g>
<!-- Node4&#45;&gt;Node2 -->
<g id="edge6" class="edge">
<title>Node4&#45;&gt;Node2</title>
<path fill="none" stroke="midnightblue" d="M195.68,-152.44C170.8,-141.77 142.87,-129.8 118.88,-119.52"/>
<polygon fill="midnightblue" stroke="midnightblue" points="194.49,-155.73 205.06,-156.45 197.24,-149.3 194.49,-155.73"/>
</g>
<!-- Node5 -->
<g id="node5" class="node">
<title>Node5</title>
<g id="a_node5"><a xlink:href="../../d4/d56/drawtools_8h.html" target="_top" xlink:title=" ">
<polygon fill="white" stroke="black" points="199.5,-78.5 199.5,-108.5 327.5,-108.5 327.5,-78.5 199.5,-78.5"/>
<text text-anchor="start" x="207.5" y="-96.5" font-family="Helvetica,sans-Serif" font-size="10.00">src/libs/vtools/tools</text>
<text text-anchor="middle" x="263.5" y="-85.5" font-family="Helvetica,sans-Serif" font-size="10.00">/drawTools/drawtools.h</text>
</a>
</g>
</g>
<!-- Node4&#45;&gt;Node5 -->
<g id="edge4" class="edge">
<title>Node4&#45;&gt;Node5</title>
<path fill="none" stroke="midnightblue" d="M263.5,-146.15C263.5,-133.05 263.5,-118.93 263.5,-108.77"/>
<polygon fill="midnightblue" stroke="midnightblue" points="260,-146.34 263.5,-156.34 267,-146.34 260,-146.34"/>
</g>
<!-- Node6 -->
<g id="node6" class="node">
<title>Node6</title>
<g id="a_node6"><a xlink:href="../../d5/da5/tools_8h.html" target="_top" xlink:title=" ">
<polygon fill="white" stroke="black" points="208,-0.5 208,-30.5 319,-30.5 319,-0.5 208,-0.5"/>
<text text-anchor="start" x="216" y="-18.5" font-family="Helvetica,sans-Serif" font-size="10.00">src/libs/vtools/tools</text>
<text text-anchor="middle" x="263.5" y="-7.5" font-family="Helvetica,sans-Serif" font-size="10.00">/tools.h</text>
</a>
</g>
</g>
<!-- Node5&#45;&gt;Node6 -->
<g id="edge5" class="edge">
<title>Node5&#45;&gt;Node6</title>
<path fill="none" stroke="midnightblue" d="M263.5,-68.09C263.5,-55.76 263.5,-41.22 263.5,-30.73"/>
<polygon fill="midnightblue" stroke="midnightblue" points="260,-68.2 263.5,-78.2 267,-68.21 260,-68.2"/>
</g>
</g>
</svg>
