<?xml version="1.0" encoding="UTF-8" standalone="no"?>
<!DOCTYPE svg PUBLIC "-//W3C//DTD SVG 1.1//EN"
 "http://www.w3.org/Graphics/SVG/1.1/DTD/svg11.dtd">
<!-- Generated by graphviz version 2.43.0 (0)
 -->
<!-- Title: src/libs/vmisc/vsettings.cpp Pages: 1 -->
<!--zoomable 252 -->
<svg id="main" version="1.1" xmlns="http://www.w3.org/2000/svg" xmlns:xlink="http://www.w3.org/1999/xlink" xml:space="preserve" onload="init(evt)">
<style type="text/css"><![CDATA[
.edge:hover path { stroke: red; }
.edge:hover polygon { stroke: red; fill: red; }
]]></style>
<script type="text/javascript"><![CDATA[
var edges = document.getElementsByTagName('g');
if (edges && edges.length) {
  for (var i=0;i<edges.length;i++) {
    if (edges[i].id.substr(0,4)=='edge') {
      edges[i].setAttribute('class','edge');
    }
  }
}
]]></script>
        <defs>
                <circle id="rim" cx="0" cy="0" r="7"/>
                <circle id="rim2" cx="0" cy="0" r="3.5"/>
                <g id="zoomPlus">
                        <use xlink:href="#rim" fill="#404040">
                                <set attributeName="fill" to="#808080" begin="zoomplus.mouseover" end="zoomplus.mouseout"/>
                        </use>
                        <path d="M-4,0h8M0,-4v8" fill="none" stroke="white" stroke-width="1.5" pointer-events="none"/>
                </g>
                <g id="zoomMin">
                        <use xlink:href="#rim" fill="#404040">
                                <set attributeName="fill" to="#808080" begin="zoomminus.mouseover" end="zoomminus.mouseout"/>
                        </use>
                        <path d="M-4,0h8" fill="none" stroke="white" stroke-width="1.5" pointer-events="none"/>
                </g>
                <g id="dirArrow">
                        <path fill="none" stroke="white" stroke-width="1.5" d="M0,-3.0v7 M-2.5,-0.5L0,-3.0L2.5,-0.5"/>
                </g>
               <g id="resetDef">
                       <use xlink:href="#rim2" fill="#404040">
                               <set attributeName="fill" to="#808080" begin="reset.mouseover" end="reset.mouseout"/>
                       </use>
               </g>
        </defs>

<script type="text/javascript">
var viewWidth = 1833;
var viewHeight = 252;
var sectionId = 'dynsection-0';
</script>
<script xlink:href="../../svgpan.js"/>
<svg id="graph" class="graph">
<g id="viewport">
<title>src/libs/vmisc/vsettings.cpp</title>
<polygon fill="white" stroke="transparent" points="-4,4 -4,-248 1829,-248 1829,4 -4,4"/>
<!-- Node1 -->
<g id="node1" class="node">
<title>Node1</title>
<g id="a_node1"><a xlink:title=" ">
<polygon fill="#bfbfbf" stroke="black" points="1198,-224.5 1198,-243.5 1350,-243.5 1350,-224.5 1198,-224.5"/>
<text text-anchor="middle" x="1274" y="-231.5" font-family="Helvetica,sans-Serif" font-size="10.00">src/libs/vmisc/vsettings.cpp</text>
</a>
</g>
</g>
<!-- Node2 -->
<g id="node2" class="node">
<title>Node2</title>
<g id="a_node2"><a xlink:href="../../dd/db2/vsettings_8h.html" target="_top" xlink:title=" ">
<polygon fill="white" stroke="black" points="484.5,-168.5 484.5,-187.5 555.5,-187.5 555.5,-168.5 484.5,-168.5"/>
<text text-anchor="middle" x="520" y="-175.5" font-family="Helvetica,sans-Serif" font-size="10.00">vsettings.h</text>
</a>
</g>
</g>
<!-- Node1&#45;&gt;Node2 -->
<g id="edge1" class="edge">
<title>Node1&#45;&gt;Node2</title>
<path fill="none" stroke="midnightblue" d="M1197.9,-227.55C1042.24,-216.4 691.55,-191.29 565.89,-182.29"/>
<polygon fill="midnightblue" stroke="midnightblue" points="566.05,-178.79 555.83,-181.57 565.55,-185.77 566.05,-178.79"/>
</g>
<!-- Node6 -->
<g id="node6" class="node">
<title>Node6</title>
<g id="a_node6"><a xlink:title=" ">
<polygon fill="white" stroke="#bfbfbf" points="652.5,-56.5 652.5,-75.5 705.5,-75.5 705.5,-56.5 652.5,-56.5"/>
<text text-anchor="middle" x="679" y="-63.5" font-family="Helvetica,sans-Serif" font-size="10.00">QString</text>
</a>
</g>
</g>
<!-- Node1&#45;&gt;Node6 -->
<g id="edge41" class="edge">
<title>Node1&#45;&gt;Node6</title>
<path fill="none" stroke="midnightblue" d="M1233.9,-224.43C1194.73,-215.87 1133.52,-202.01 1081,-188 944.75,-151.65 784.82,-101.13 714.83,-78.62"/>
<polygon fill="midnightblue" stroke="midnightblue" points="715.77,-75.24 705.17,-75.51 713.62,-81.91 715.77,-75.24"/>
</g>
<!-- Node9 -->
<g id="node9" class="node">
<title>Node9</title>
<g id="a_node9"><a xlink:href="../../d4/da4/def_8h.html" target="_top" xlink:title=" ">
<polygon fill="white" stroke="black" points="1011,-112.5 1011,-131.5 1093,-131.5 1093,-112.5 1011,-112.5"/>
<text text-anchor="middle" x="1052" y="-119.5" font-family="Helvetica,sans-Serif" font-size="10.00">../vmisc/def.h</text>
</a>
</g>
</g>
<!-- Node1&#45;&gt;Node9 -->
<g id="edge45" class="edge">
<title>Node1&#45;&gt;Node9</title>
<path fill="none" stroke="midnightblue" d="M1206.81,-224.43C1174.73,-218.04 1136.91,-207 1107,-188 1087.96,-175.91 1072.08,-155.14 1062.35,-140.33"/>
<polygon fill="midnightblue" stroke="midnightblue" points="1065.16,-138.22 1056.88,-131.62 1059.23,-141.95 1065.16,-138.22"/>
</g>
<!-- Node15 -->
<g id="node15" class="node">
<title>Node15</title>
<g id="a_node15"><a xlink:title=" ">
<polygon fill="white" stroke="#bfbfbf" points="1445,-56.5 1445,-75.5 1501,-75.5 1501,-56.5 1445,-56.5"/>
<text text-anchor="middle" x="1473" y="-63.5" font-family="Helvetica,sans-Serif" font-size="10.00">QPrinter</text>
</a>
</g>
</g>
<!-- Node1&#45;&gt;Node15 -->
<g id="edge39" class="edge">
<title>Node1&#45;&gt;Node15</title>
<path fill="none" stroke="midnightblue" d="M1210.4,-224.47C1165.55,-215.66 1117.2,-198.74 1140,-168 1149.06,-155.79 1349.8,-100.32 1435.15,-77.19"/>
<polygon fill="midnightblue" stroke="midnightblue" points="1436.23,-80.52 1444.96,-74.53 1434.4,-73.76 1436.23,-80.52"/>
</g>
<!-- Node27 -->
<g id="node27" class="node">
<title>Node27</title>
<g id="a_node27"><a xlink:title=" ">
<polygon fill="white" stroke="#bfbfbf" points="1149,-168.5 1149,-187.5 1187,-187.5 1187,-168.5 1149,-168.5"/>
<text text-anchor="middle" x="1168" y="-175.5" font-family="Helvetica,sans-Serif" font-size="10.00">QDir</text>
</a>
</g>
</g>
<!-- Node1&#45;&gt;Node27 -->
<g id="edge36" class="edge">
<title>Node1&#45;&gt;Node27</title>
<path fill="none" stroke="midnightblue" d="M1256.97,-224.32C1239.97,-215.66 1213.62,-202.24 1194.01,-192.25"/>
<polygon fill="midnightblue" stroke="midnightblue" points="1195.49,-189.08 1184.99,-187.65 1192.31,-195.31 1195.49,-189.08"/>
</g>
<!-- Node28 -->
<g id="node28" class="node">
<title>Node28</title>
<g id="a_node28"><a xlink:title=" ">
<polygon fill="white" stroke="#bfbfbf" points="1205,-168.5 1205,-187.5 1261,-187.5 1261,-168.5 1205,-168.5"/>
<text text-anchor="middle" x="1233" y="-175.5" font-family="Helvetica,sans-Serif" font-size="10.00">QLocale</text>
</a>
</g>
</g>
<!-- Node1&#45;&gt;Node28 -->
<g id="edge37" class="edge">
<title>Node1&#45;&gt;Node28</title>
<path fill="none" stroke="midnightblue" d="M1267.23,-224.08C1261.44,-216.46 1252.94,-205.26 1245.86,-195.94"/>
<polygon fill="midnightblue" stroke="midnightblue" points="1248.48,-193.6 1239.64,-187.75 1242.9,-197.83 1248.48,-193.6"/>
</g>
<!-- Node29 -->
<g id="node29" class="node">
<title>Node29</title>
<g id="a_node29"><a xlink:title=" ">
<polygon fill="white" stroke="#bfbfbf" points="1279.5,-168.5 1279.5,-187.5 1350.5,-187.5 1350.5,-168.5 1279.5,-168.5"/>
<text text-anchor="middle" x="1315" y="-175.5" font-family="Helvetica,sans-Serif" font-size="10.00">QMetaType</text>
</a>
</g>
</g>
<!-- Node1&#45;&gt;Node29 -->
<g id="edge38" class="edge">
<title>Node1&#45;&gt;Node29</title>
<path fill="none" stroke="midnightblue" d="M1280.77,-224.08C1286.56,-216.46 1295.06,-205.26 1302.14,-195.94"/>
<polygon fill="midnightblue" stroke="midnightblue" points="1305.1,-197.83 1308.36,-187.75 1299.52,-193.6 1305.1,-197.83"/>
</g>
<!-- Node30 -->
<g id="node30" class="node">
<title>Node30</title>
<g id="a_node30"><a xlink:title=" ">
<polygon fill="white" stroke="#bfbfbf" points="1369,-168.5 1369,-187.5 1461,-187.5 1461,-168.5 1369,-168.5"/>
<text text-anchor="middle" x="1415" y="-175.5" font-family="Helvetica,sans-Serif" font-size="10.00">QSharedPointer</text>
</a>
</g>
</g>
<!-- Node1&#45;&gt;Node30 -->
<g id="edge40" class="edge">
<title>Node1&#45;&gt;Node30</title>
<path fill="none" stroke="midnightblue" d="M1296.34,-224.44C1319.75,-215.48 1356.74,-201.31 1383.19,-191.18"/>
<polygon fill="midnightblue" stroke="midnightblue" points="1384.68,-194.36 1392.76,-187.52 1382.17,-187.82 1384.68,-194.36"/>
</g>
<!-- Node31 -->
<g id="node31" class="node">
<title>Node31</title>
<g id="a_node31"><a xlink:title=" ">
<polygon fill="white" stroke="#bfbfbf" points="1479.5,-168.5 1479.5,-187.5 1538.5,-187.5 1538.5,-168.5 1479.5,-168.5"/>
<text text-anchor="middle" x="1509" y="-175.5" font-family="Helvetica,sans-Serif" font-size="10.00">QVariant</text>
</a>
</g>
</g>
<!-- Node1&#45;&gt;Node31 -->
<g id="edge42" class="edge">
<title>Node1&#45;&gt;Node31</title>
<path fill="none" stroke="midnightblue" d="M1311.21,-224.47C1348.64,-215.89 1408.27,-202.2 1469.37,-188.14"/>
<polygon fill="midnightblue" stroke="midnightblue" points="1470.23,-191.54 1479.19,-185.88 1468.66,-184.72 1470.23,-191.54"/>
</g>
<!-- Node32 -->
<g id="node32" class="node">
<title>Node32</title>
<g id="a_node32"><a xlink:title=" ">
<polygon fill="white" stroke="#bfbfbf" points="1556.5,-168.5 1556.5,-187.5 1631.5,-187.5 1631.5,-168.5 1556.5,-168.5"/>
<text text-anchor="middle" x="1594" y="-175.5" font-family="Helvetica,sans-Serif" font-size="10.00">QPrinterInfo</text>
</a>
</g>
</g>
<!-- Node1&#45;&gt;Node32 -->
<g id="edge43" class="edge">
<title>Node1&#45;&gt;Node32</title>
<path fill="none" stroke="midnightblue" d="M1328.93,-224.48C1382.15,-216.12 1465.39,-202.73 1546.49,-188.23"/>
<polygon fill="midnightblue" stroke="midnightblue" points="1547.14,-191.67 1556.36,-186.46 1545.9,-184.78 1547.14,-191.67"/>
</g>
<!-- Node33 -->
<g id="node33" class="node">
<title>Node33</title>
<g id="a_node33"><a xlink:title=" ">
<polygon fill="white" stroke="#bfbfbf" points="1649.5,-168.5 1649.5,-187.5 1708.5,-187.5 1708.5,-168.5 1649.5,-168.5"/>
<text text-anchor="middle" x="1679" y="-175.5" font-family="Helvetica,sans-Serif" font-size="10.00">QtDebug</text>
</a>
</g>
</g>
<!-- Node1&#45;&gt;Node33 -->
<g id="edge44" class="edge">
<title>Node1&#45;&gt;Node33</title>
<path fill="none" stroke="midnightblue" d="M1350.28,-226.13C1422.44,-219.06 1533.93,-206.69 1639.04,-188.2"/>
<polygon fill="midnightblue" stroke="midnightblue" points="1639.96,-191.59 1649.19,-186.39 1638.74,-184.7 1639.96,-191.59"/>
</g>
<!-- Node34 -->
<g id="node34" class="node">
<title>Node34</title>
<g id="a_node34"><a xlink:href="../../db/db3/vmath_8h.html" target="_top" xlink:title=" ">
<polygon fill="white" stroke="black" points="1727,-168.5 1727,-187.5 1825,-187.5 1825,-168.5 1727,-168.5"/>
<text text-anchor="middle" x="1776" y="-175.5" font-family="Helvetica,sans-Serif" font-size="10.00">../vmisc/vmath.h</text>
</a>
</g>
</g>
<!-- Node1&#45;&gt;Node34 -->
<g id="edge46" class="edge">
<title>Node1&#45;&gt;Node34</title>
<path fill="none" stroke="midnightblue" d="M1350.35,-226.5C1436.76,-218.86 1581.97,-205.19 1716.87,-188.08"/>
<polygon fill="midnightblue" stroke="midnightblue" points="1717.5,-191.53 1726.98,-186.79 1716.62,-184.59 1717.5,-191.53"/>
</g>
<!-- Node3 -->
<g id="node3" class="node">
<title>Node3</title>
<g id="a_node3"><a xlink:title=" ">
<polygon fill="white" stroke="#bfbfbf" points="168,-56.5 168,-75.5 248,-75.5 248,-56.5 168,-56.5"/>
<text text-anchor="middle" x="208" y="-63.5" font-family="Helvetica,sans-Serif" font-size="10.00">QMetaObject</text>
</a>
</g>
</g>
<!-- Node2&#45;&gt;Node3 -->
<g id="edge2" class="edge">
<title>Node2&#45;&gt;Node3</title>
<path fill="none" stroke="midnightblue" d="M484.68,-168.49C454.04,-160.6 408.8,-147.73 371,-132 353.74,-124.82 351.07,-119.61 334,-112 304.87,-99.02 270.75,-87.02 245.37,-78.68"/>
<polygon fill="midnightblue" stroke="midnightblue" points="246.35,-75.32 235.76,-75.56 244.19,-81.98 246.35,-75.32"/>
</g>
<!-- Node4 -->
<g id="node4" class="node">
<title>Node4</title>
<g id="a_node4"><a xlink:title=" ">
<polygon fill="white" stroke="#bfbfbf" points="266,-56.5 266,-75.5 322,-75.5 322,-56.5 266,-56.5"/>
<text text-anchor="middle" x="294" y="-63.5" font-family="Helvetica,sans-Serif" font-size="10.00">QObject</text>
</a>
</g>
</g>
<!-- Node2&#45;&gt;Node4 -->
<g id="edge3" class="edge">
<title>Node2&#45;&gt;Node4</title>
<path fill="none" stroke="midnightblue" d="M497.12,-168.44C474.83,-159.9 440.14,-146.05 411,-132 377.52,-115.86 340.2,-94.51 316.91,-80.76"/>
<polygon fill="midnightblue" stroke="midnightblue" points="318.51,-77.65 308.13,-75.55 314.94,-83.66 318.51,-77.65"/>
</g>
<!-- Node5 -->
<g id="node5" class="node">
<title>Node5</title>
<g id="a_node5"><a xlink:title=" ">
<polygon fill="white" stroke="#bfbfbf" points="532,-56.5 532,-75.5 596,-75.5 596,-56.5 532,-56.5"/>
<text text-anchor="middle" x="564" y="-63.5" font-family="Helvetica,sans-Serif" font-size="10.00">QSettings</text>
</a>
</g>
</g>
<!-- Node2&#45;&gt;Node5 -->
<g id="edge4" class="edge">
<title>Node2&#45;&gt;Node5</title>
<path fill="none" stroke="midnightblue" d="M524.73,-168.19C529.43,-159.23 536.7,-144.87 542,-132 548.38,-116.51 554.39,-98.42 558.51,-85.27"/>
<polygon fill="midnightblue" stroke="midnightblue" points="561.91,-86.13 561.49,-75.54 555.21,-84.07 561.91,-86.13"/>
</g>
<!-- Node2&#45;&gt;Node6 -->
<g id="edge5" class="edge">
<title>Node2&#45;&gt;Node6</title>
<path fill="none" stroke="midnightblue" d="M555.56,-169.77C580.72,-163.25 614.08,-151.59 638,-132 653.28,-119.48 664.6,-99.7 671.43,-85.25"/>
<polygon fill="midnightblue" stroke="midnightblue" points="674.75,-86.4 675.6,-75.84 668.35,-83.56 674.75,-86.4"/>
</g>
<!-- Node7 -->
<g id="node7" class="node">
<title>Node7</title>
<g id="a_node7"><a xlink:title=" ">
<polygon fill="white" stroke="#bfbfbf" points="457.5,-0.5 457.5,-19.5 516.5,-19.5 516.5,-0.5 457.5,-0.5"/>
<text text-anchor="middle" x="487" y="-7.5" font-family="Helvetica,sans-Serif" font-size="10.00">QtGlobal</text>
</a>
</g>
</g>
<!-- Node2&#45;&gt;Node7 -->
<g id="edge6" class="edge">
<title>Node2&#45;&gt;Node7</title>
<path fill="none" stroke="midnightblue" d="M534.6,-168.23C565.86,-148.35 634.13,-98.28 605,-56 587.52,-30.62 553.67,-19.55 526.69,-14.72"/>
<polygon fill="midnightblue" stroke="midnightblue" points="527.15,-11.25 516.73,-13.16 526.07,-18.16 527.15,-11.25"/>
</g>
<!-- Node8 -->
<g id="node8" class="node">
<title>Node8</title>
<g id="a_node8"><a xlink:title=" ">
<polygon fill="white" stroke="#bfbfbf" points="262.5,-112.5 262.5,-131.5 325.5,-131.5 325.5,-112.5 262.5,-112.5"/>
<text text-anchor="middle" x="294" y="-119.5" font-family="Helvetica,sans-Serif" font-size="10.00">QMargins</text>
</a>
</g>
</g>
<!-- Node2&#45;&gt;Node8 -->
<g id="edge7" class="edge">
<title>Node2&#45;&gt;Node8</title>
<path fill="none" stroke="midnightblue" d="M484.44,-168.5C444.05,-158.85 378.22,-143.12 335.51,-132.92"/>
<polygon fill="midnightblue" stroke="midnightblue" points="336.25,-129.5 325.71,-130.58 334.62,-136.3 336.25,-129.5"/>
</g>
<!-- Node2&#45;&gt;Node9 -->
<g id="edge8" class="edge">
<title>Node2&#45;&gt;Node9</title>
<path fill="none" stroke="midnightblue" d="M555.73,-173.37C647.72,-164.04 892.98,-139.14 1000.39,-128.24"/>
<polygon fill="midnightblue" stroke="midnightblue" points="1001.06,-131.69 1010.66,-127.2 1000.35,-124.72 1001.06,-131.69"/>
</g>
<!-- Node20 -->
<g id="node20" class="node">
<title>Node20</title>
<g id="a_node20"><a xlink:href="../../de/dec/vbank_8h.html" target="_top" xlink:title=" ">
<polygon fill="white" stroke="black" points="46,-56.5 46,-75.5 150,-75.5 150,-56.5 46,-56.5"/>
<text text-anchor="middle" x="98" y="-63.5" font-family="Helvetica,sans-Serif" font-size="10.00">../vlayout/vbank.h</text>
</a>
</g>
</g>
<!-- Node2&#45;&gt;Node20 -->
<g id="edge21" class="edge">
<title>Node2&#45;&gt;Node20</title>
<path fill="none" stroke="midnightblue" d="M484.43,-173.64C432.71,-168.16 334.05,-155.48 253,-132 205.96,-118.37 153.98,-94.67 123.75,-79.97"/>
<polygon fill="midnightblue" stroke="midnightblue" points="125.25,-76.81 114.74,-75.53 122.16,-83.09 125.25,-76.81"/>
</g>
<!-- Node24 -->
<g id="node24" class="node">
<title>Node24</title>
<g id="a_node24"><a xlink:href="../../d4/d5c/vcommonsettings_8h.html" target="_top" xlink:title=" ">
<polygon fill="white" stroke="black" points="420.5,-112.5 420.5,-131.5 533.5,-131.5 533.5,-112.5 420.5,-112.5"/>
<text text-anchor="middle" x="477" y="-119.5" font-family="Helvetica,sans-Serif" font-size="10.00">vcommonsettings.h</text>
</a>
</g>
</g>
<!-- Node2&#45;&gt;Node24 -->
<g id="edge26" class="edge">
<title>Node2&#45;&gt;Node24</title>
<path fill="none" stroke="midnightblue" d="M512.9,-168.08C506.76,-160.38 497.73,-149.03 490.26,-139.65"/>
<polygon fill="midnightblue" stroke="midnightblue" points="492.94,-137.39 483.97,-131.75 487.46,-141.75 492.94,-137.39"/>
</g>
<!-- Node9&#45;&gt;Node6 -->
<g id="edge12" class="edge">
<title>Node9&#45;&gt;Node6</title>
<path fill="none" stroke="midnightblue" d="M1010.78,-117C948.89,-110.67 828.15,-97.05 715.81,-75.95"/>
<polygon fill="midnightblue" stroke="midnightblue" points="716.14,-72.45 705.66,-74.02 714.83,-79.33 716.14,-72.45"/>
</g>
<!-- Node9&#45;&gt;Node7 -->
<g id="edge15" class="edge">
<title>Node9&#45;&gt;Node7</title>
<path fill="none" stroke="midnightblue" d="M1052.17,-112.17C1051.92,-97.84 1049.11,-69.76 1032,-56 992.86,-24.52 646.03,-14.34 526.94,-11.75"/>
<polygon fill="midnightblue" stroke="midnightblue" points="526.87,-8.25 516.79,-11.54 526.72,-15.25 526.87,-8.25"/>
</g>
<!-- Node10 -->
<g id="node10" class="node">
<title>Node10</title>
<g id="a_node10"><a xlink:title=" ">
<polygon fill="white" stroke="#bfbfbf" points="812,-56.5 812,-75.5 932,-75.5 932,-56.5 812,-56.5"/>
<text text-anchor="middle" x="872" y="-63.5" font-family="Helvetica,sans-Serif" font-size="10.00">qcompilerdetection.h</text>
</a>
</g>
</g>
<!-- Node9&#45;&gt;Node10 -->
<g id="edge9" class="edge">
<title>Node9&#45;&gt;Node10</title>
<path fill="none" stroke="midnightblue" d="M1023.48,-112.44C992.93,-103.28 944.29,-88.69 910.4,-78.52"/>
<polygon fill="midnightblue" stroke="midnightblue" points="910.97,-75.04 900.39,-75.52 908.96,-81.74 910.97,-75.04"/>
</g>
<!-- Node11 -->
<g id="node11" class="node">
<title>Node11</title>
<g id="a_node11"><a xlink:title=" ">
<polygon fill="white" stroke="#bfbfbf" points="950.5,-56.5 950.5,-75.5 1023.5,-75.5 1023.5,-56.5 950.5,-56.5"/>
<text text-anchor="middle" x="987" y="-63.5" font-family="Helvetica,sans-Serif" font-size="10.00">QFileDialog</text>
</a>
</g>
</g>
<!-- Node9&#45;&gt;Node11 -->
<g id="edge10" class="edge">
<title>Node9&#45;&gt;Node11</title>
<path fill="none" stroke="midnightblue" d="M1041.56,-112.32C1031.85,-104.26 1017.18,-92.08 1005.5,-82.37"/>
<polygon fill="midnightblue" stroke="midnightblue" points="1007.56,-79.53 997.63,-75.83 1003.09,-84.92 1007.56,-79.53"/>
</g>
<!-- Node12 -->
<g id="node12" class="node">
<title>Node12</title>
<g id="a_node12"><a xlink:title=" ">
<polygon fill="white" stroke="#bfbfbf" points="1080,-56.5 1080,-75.5 1130,-75.5 1130,-56.5 1080,-56.5"/>
<text text-anchor="middle" x="1105" y="-63.5" font-family="Helvetica,sans-Serif" font-size="10.00">QLineF</text>
</a>
</g>
</g>
<!-- Node9&#45;&gt;Node12 -->
<g id="edge11" class="edge">
<title>Node9&#45;&gt;Node12</title>
<path fill="none" stroke="midnightblue" d="M1060.75,-112.08C1068.47,-104.22 1079.9,-92.57 1089.22,-83.08"/>
<polygon fill="midnightblue" stroke="midnightblue" points="1091.9,-85.34 1096.41,-75.75 1086.91,-80.44 1091.9,-85.34"/>
</g>
<!-- Node13 -->
<g id="node13" class="node">
<title>Node13</title>
<g id="a_node13"><a xlink:title=" ">
<polygon fill="white" stroke="#bfbfbf" points="724,-56.5 724,-75.5 794,-75.5 794,-56.5 724,-56.5"/>
<text text-anchor="middle" x="759" y="-63.5" font-family="Helvetica,sans-Serif" font-size="10.00">QStringList</text>
</a>
</g>
</g>
<!-- Node9&#45;&gt;Node13 -->
<g id="edge13" class="edge">
<title>Node9&#45;&gt;Node13</title>
<path fill="none" stroke="midnightblue" d="M1010.97,-113.88C963.6,-105.6 883.07,-91.32 804.16,-76.19"/>
<polygon fill="midnightblue" stroke="midnightblue" points="804.53,-72.7 794.05,-74.24 803.21,-79.57 804.53,-72.7"/>
</g>
<!-- Node14 -->
<g id="node14" class="node">
<title>Node14</title>
<g id="a_node14"><a xlink:title=" ">
<polygon fill="white" stroke="#bfbfbf" points="1148.5,-56.5 1148.5,-75.5 1177.5,-75.5 1177.5,-56.5 1148.5,-56.5"/>
<text text-anchor="middle" x="1163" y="-63.5" font-family="Helvetica,sans-Serif" font-size="10.00">Qt</text>
</a>
</g>
</g>
<!-- Node9&#45;&gt;Node14 -->
<g id="edge14" class="edge">
<title>Node9&#45;&gt;Node14</title>
<path fill="none" stroke="midnightblue" d="M1069.83,-112.32C1088.67,-103.16 1118.46,-88.67 1139.27,-78.55"/>
<polygon fill="midnightblue" stroke="midnightblue" points="1140.94,-81.62 1148.4,-74.1 1137.88,-75.33 1140.94,-81.62"/>
</g>
<!-- Node9&#45;&gt;Node15 -->
<g id="edge16" class="edge">
<title>Node9&#45;&gt;Node15</title>
<path fill="none" stroke="midnightblue" d="M1093.11,-114.03C1097.79,-113.31 1102.49,-112.61 1107,-112 1249.47,-92.56 1289.34,-101.03 1434.61,-76.04"/>
<polygon fill="midnightblue" stroke="midnightblue" points="1435.55,-79.43 1444.8,-74.26 1434.34,-72.53 1435.55,-79.43"/>
</g>
<!-- Node16 -->
<g id="node16" class="node">
<title>Node16</title>
<g id="a_node16"><a xlink:title=" ">
<polygon fill="white" stroke="#bfbfbf" points="1195.5,-56.5 1195.5,-75.5 1256.5,-75.5 1256.5,-56.5 1195.5,-56.5"/>
<text text-anchor="middle" x="1226" y="-63.5" font-family="Helvetica,sans-Serif" font-size="10.00">QPixmap</text>
</a>
</g>
</g>
<!-- Node9&#45;&gt;Node16 -->
<g id="edge17" class="edge">
<title>Node9&#45;&gt;Node16</title>
<path fill="none" stroke="midnightblue" d="M1079.57,-112.44C1109.1,-103.28 1156.12,-88.69 1188.88,-78.52"/>
<polygon fill="midnightblue" stroke="midnightblue" points="1190.04,-81.82 1198.56,-75.52 1187.97,-75.14 1190.04,-81.82"/>
</g>
<!-- Node17 -->
<g id="node17" class="node">
<title>Node17</title>
<g id="a_node17"><a xlink:title=" ">
<polygon fill="white" stroke="#bfbfbf" points="1274.5,-56.5 1274.5,-75.5 1325.5,-75.5 1325.5,-56.5 1274.5,-56.5"/>
<text text-anchor="middle" x="1300" y="-63.5" font-family="Helvetica,sans-Serif" font-size="10.00">csignal</text>
</a>
</g>
</g>
<!-- Node9&#45;&gt;Node17 -->
<g id="edge18" class="edge">
<title>Node9&#45;&gt;Node17</title>
<path fill="none" stroke="midnightblue" d="M1093.17,-113C1134.25,-104.87 1199.41,-91.58 1264.41,-76.29"/>
<polygon fill="midnightblue" stroke="midnightblue" points="1265.49,-79.63 1274.42,-73.92 1263.88,-72.82 1265.49,-79.63"/>
</g>
<!-- Node18 -->
<g id="node18" class="node">
<title>Node18</title>
<g id="a_node18"><a xlink:href="../../d4/d82/debugbreak_8h.html" target="_top" xlink:title=" ">
<polygon fill="white" stroke="black" points="1343.5,-56.5 1343.5,-75.5 1426.5,-75.5 1426.5,-56.5 1343.5,-56.5"/>
<text text-anchor="middle" x="1385" y="-63.5" font-family="Helvetica,sans-Serif" font-size="10.00">debugbreak.h</text>
</a>
</g>
</g>
<!-- Node9&#45;&gt;Node18 -->
<g id="edge19" class="edge">
<title>Node9&#45;&gt;Node18</title>
<path fill="none" stroke="midnightblue" d="M1093.14,-114.24C1097.81,-113.48 1102.51,-112.72 1107,-112 1205.12,-96.23 1232.17,-93.27 1333.25,-76.27"/>
<polygon fill="midnightblue" stroke="midnightblue" points="1333.99,-79.69 1343.27,-74.58 1332.83,-72.79 1333.99,-79.69"/>
</g>
<!-- Node19 -->
<g id="node19" class="node">
<title>Node19</title>
<g id="a_node19"><a xlink:title=" ">
<polygon fill="white" stroke="#bfbfbf" points="1357.5,-0.5 1357.5,-19.5 1412.5,-19.5 1412.5,-0.5 1357.5,-0.5"/>
<text text-anchor="middle" x="1385" y="-7.5" font-family="Helvetica,sans-Serif" font-size="10.00">signal.h</text>
</a>
</g>
</g>
<!-- Node18&#45;&gt;Node19 -->
<g id="edge20" class="edge">
<title>Node18&#45;&gt;Node19</title>
<path fill="none" stroke="midnightblue" d="M1385,-56.08C1385,-49.01 1385,-38.86 1385,-29.99"/>
<polygon fill="midnightblue" stroke="midnightblue" points="1388.5,-29.75 1385,-19.75 1381.5,-29.75 1388.5,-29.75"/>
</g>
<!-- Node20&#45;&gt;Node7 -->
<g id="edge25" class="edge">
<title>Node20&#45;&gt;Node7</title>
<path fill="none" stroke="midnightblue" d="M150.24,-57.26C153.2,-56.83 156.14,-56.41 159,-56 262.82,-41.22 385.25,-24.65 447.04,-16.35"/>
<polygon fill="midnightblue" stroke="midnightblue" points="447.69,-19.79 457.14,-14.99 446.76,-12.86 447.69,-19.79"/>
</g>
<!-- Node21 -->
<g id="node21" class="node">
<title>Node21</title>
<g id="a_node21"><a xlink:title=" ">
<polygon fill="white" stroke="#bfbfbf" points="143.5,-0.5 143.5,-19.5 192.5,-19.5 192.5,-0.5 143.5,-0.5"/>
<text text-anchor="middle" x="168" y="-7.5" font-family="Helvetica,sans-Serif" font-size="10.00">QHash</text>
</a>
</g>
</g>
<!-- Node20&#45;&gt;Node21 -->
<g id="edge22" class="edge">
<title>Node20&#45;&gt;Node21</title>
<path fill="none" stroke="midnightblue" d="M109.25,-56.32C119.8,-48.18 135.8,-35.84 148.44,-26.09"/>
<polygon fill="midnightblue" stroke="midnightblue" points="150.77,-28.71 156.55,-19.83 146.49,-23.17 150.77,-28.71"/>
</g>
<!-- Node22 -->
<g id="node22" class="node">
<title>Node22</title>
<g id="a_node22"><a xlink:title=" ">
<polygon fill="white" stroke="#bfbfbf" points="0,-0.5 0,-19.5 52,-19.5 52,-0.5 0,-0.5"/>
<text text-anchor="middle" x="26" y="-7.5" font-family="Helvetica,sans-Serif" font-size="10.00">QRectF</text>
</a>
</g>
</g>
<!-- Node20&#45;&gt;Node22 -->
<g id="edge23" class="edge">
<title>Node20&#45;&gt;Node22</title>
<path fill="none" stroke="midnightblue" d="M86.43,-56.32C75.58,-48.18 59.12,-35.84 46.12,-26.09"/>
<polygon fill="midnightblue" stroke="midnightblue" points="47.88,-23.03 37.78,-19.83 43.68,-28.63 47.88,-23.03"/>
</g>
<!-- Node23 -->
<g id="node23" class="node">
<title>Node23</title>
<g id="a_node23"><a xlink:title=" ">
<polygon fill="white" stroke="#bfbfbf" points="70.5,-0.5 70.5,-19.5 125.5,-19.5 125.5,-0.5 70.5,-0.5"/>
<text text-anchor="middle" x="98" y="-7.5" font-family="Helvetica,sans-Serif" font-size="10.00">QVector</text>
</a>
</g>
</g>
<!-- Node20&#45;&gt;Node23 -->
<g id="edge24" class="edge">
<title>Node20&#45;&gt;Node23</title>
<path fill="none" stroke="midnightblue" d="M98,-56.08C98,-49.01 98,-38.86 98,-29.99"/>
<polygon fill="midnightblue" stroke="midnightblue" points="101.5,-29.75 98,-19.75 94.5,-29.75 101.5,-29.75"/>
</g>
<!-- Node24&#45;&gt;Node3 -->
<g id="edge28" class="edge">
<title>Node24&#45;&gt;Node3</title>
<path fill="none" stroke="midnightblue" d="M434.38,-112.44C386.56,-102.84 309.07,-87.29 258.32,-77.1"/>
<polygon fill="midnightblue" stroke="midnightblue" points="258.72,-73.61 248.23,-75.08 257.34,-80.48 258.72,-73.61"/>
</g>
<!-- Node24&#45;&gt;Node4 -->
<g id="edge29" class="edge">
<title>Node24&#45;&gt;Node4</title>
<path fill="none" stroke="midnightblue" d="M448,-112.44C416.63,-103.19 366.48,-88.39 331.99,-78.21"/>
<polygon fill="midnightblue" stroke="midnightblue" points="332.84,-74.81 322.26,-75.34 330.86,-81.53 332.84,-74.81"/>
</g>
<!-- Node24&#45;&gt;Node5 -->
<g id="edge30" class="edge">
<title>Node24&#45;&gt;Node5</title>
<path fill="none" stroke="midnightblue" d="M490.98,-112.32C504.55,-103.9 525.38,-90.97 541.32,-81.07"/>
<polygon fill="midnightblue" stroke="midnightblue" points="543.41,-83.9 550.06,-75.65 539.71,-77.95 543.41,-83.9"/>
</g>
<!-- Node24&#45;&gt;Node6 -->
<g id="edge32" class="edge">
<title>Node24&#45;&gt;Node6</title>
<path fill="none" stroke="midnightblue" d="M509.01,-112.44C545.36,-102.72 604.56,-86.9 642.63,-76.72"/>
<polygon fill="midnightblue" stroke="midnightblue" points="643.55,-80.1 652.3,-74.14 641.74,-73.34 643.55,-80.1"/>
</g>
<!-- Node24&#45;&gt;Node7 -->
<g id="edge34" class="edge">
<title>Node24&#45;&gt;Node7</title>
<path fill="none" stroke="midnightblue" d="M433.73,-112.42C395.7,-102.79 349.26,-84.65 369,-56 386.48,-30.62 420.33,-19.55 447.31,-14.72"/>
<polygon fill="midnightblue" stroke="midnightblue" points="447.93,-18.16 457.27,-13.16 446.85,-11.25 447.93,-18.16"/>
</g>
<!-- Node24&#45;&gt;Node13 -->
<g id="edge33" class="edge">
<title>Node24&#45;&gt;Node13</title>
<path fill="none" stroke="midnightblue" d="M522.9,-112.42C568.52,-103.87 640.76,-90.23 713.39,-76.1"/>
<polygon fill="midnightblue" stroke="midnightblue" points="714.49,-79.46 723.63,-74.11 713.15,-72.58 714.49,-79.46"/>
</g>
<!-- Node24&#45;&gt;Node20 -->
<g id="edge35" class="edge">
<title>Node24&#45;&gt;Node20</title>
<path fill="none" stroke="midnightblue" d="M420.4,-113.09C358.91,-104.48 257.48,-90.21 160.24,-76.17"/>
<polygon fill="midnightblue" stroke="midnightblue" points="160.64,-72.69 150.24,-74.73 159.64,-79.62 160.64,-72.69"/>
</g>
<!-- Node25 -->
<g id="node25" class="node">
<title>Node25</title>
<g id="a_node25"><a xlink:title=" ">
<polygon fill="white" stroke="#bfbfbf" points="440.5,-56.5 440.5,-75.5 513.5,-75.5 513.5,-56.5 440.5,-56.5"/>
<text text-anchor="middle" x="477" y="-63.5" font-family="Helvetica,sans-Serif" font-size="10.00">QByteArray</text>
</a>
</g>
</g>
<!-- Node24&#45;&gt;Node25 -->
<g id="edge27" class="edge">
<title>Node24&#45;&gt;Node25</title>
<path fill="none" stroke="midnightblue" d="M477,-112.08C477,-105.01 477,-94.86 477,-85.99"/>
<polygon fill="midnightblue" stroke="midnightblue" points="480.5,-85.75 477,-75.75 473.5,-85.75 480.5,-85.75"/>
</g>
<!-- Node26 -->
<g id="node26" class="node">
<title>Node26</title>
<g id="a_node26"><a xlink:title=" ">
<polygon fill="white" stroke="#bfbfbf" points="378,-56.5 378,-75.5 422,-75.5 422,-56.5 378,-56.5"/>
<text text-anchor="middle" x="400" y="-63.5" font-family="Helvetica,sans-Serif" font-size="10.00">QSize</text>
</a>
</g>
</g>
<!-- Node24&#45;&gt;Node26 -->
<g id="edge31" class="edge">
<title>Node24&#45;&gt;Node26</title>
<path fill="none" stroke="midnightblue" d="M464.63,-112.32C452.84,-104.06 434.87,-91.45 420.86,-81.63"/>
<polygon fill="midnightblue" stroke="midnightblue" points="422.54,-78.53 412.34,-75.65 418.52,-84.26 422.54,-78.53"/>
</g>
<!-- Node35 -->
<g id="node35" class="node">
<title>Node35</title>
<g id="a_node35"><a xlink:title=" ">
<polygon fill="white" stroke="#bfbfbf" points="1749.5,-112.5 1749.5,-131.5 1802.5,-131.5 1802.5,-112.5 1749.5,-112.5"/>
<text text-anchor="middle" x="1776" y="-119.5" font-family="Helvetica,sans-Serif" font-size="10.00">QtMath</text>
</a>
</g>
</g>
<!-- Node34&#45;&gt;Node35 -->
<g id="edge47" class="edge">
<title>Node34&#45;&gt;Node35</title>
<path fill="none" stroke="midnightblue" d="M1776,-168.08C1776,-161.01 1776,-150.86 1776,-141.99"/>
<polygon fill="midnightblue" stroke="midnightblue" points="1779.5,-141.75 1776,-131.75 1772.5,-141.75 1779.5,-141.75"/>
</g>
</g>
</svg>
        <g id="navigator" transform="translate(0 0)" fill="#404254">
                <rect fill="#f2f5e9" fill-opacity="0.5" stroke="#606060" stroke-width=".5" x="0" y="0" width="60" height="60"/>
                <use id="zoomplus" xlink:href="#zoomPlus" x="17" y="9" onmousedown="handleZoom(evt,'in')"/>
                <use id="zoomminus" xlink:href="#zoomMin" x="42" y="9" onmousedown="handleZoom(evt,'out')"/>
                <use id="reset" xlink:href="#resetDef" x="30" y="36" onmousedown="handleReset()"/>
                <g id="arrowUp" xlink:href="#dirArrow" transform="translate(30 24)" onmousedown="handlePan(0,-1)">
                  <use xlink:href="#rim" fill="#404040">
                        <set attributeName="fill" to="#808080" begin="arrowUp.mouseover" end="arrowUp.mouseout"/>
                  </use>
                  <path fill="none" stroke="white" stroke-width="1.5" d="M0,-3.0v7 M-2.5,-0.5L0,-3.0L2.5,-0.5"/>
                </g>
                <g id="arrowRight" xlink:href="#dirArrow" transform="rotate(90) translate(36 -43)" onmousedown="handlePan(1,0)">
                  <use xlink:href="#rim" fill="#404040">
                        <set attributeName="fill" to="#808080" begin="arrowRight.mouseover" end="arrowRight.mouseout"/>
                  </use>
                  <path fill="none" stroke="white" stroke-width="1.5" d="M0,-3.0v7 M-2.5,-0.5L0,-3.0L2.5,-0.5"/>
                </g>
                <g id="arrowDown" xlink:href="#dirArrow" transform="rotate(180) translate(-30 -48)" onmousedown="handlePan(0,1)">
                  <use xlink:href="#rim" fill="#404040">
                        <set attributeName="fill" to="#808080" begin="arrowDown.mouseover" end="arrowDown.mouseout"/>
                  </use>
                  <path fill="none" stroke="white" stroke-width="1.5" d="M0,-3.0v7 M-2.5,-0.5L0,-3.0L2.5,-0.5"/>
                </g>
                <g id="arrowLeft" xlink:href="#dirArrow" transform="rotate(270) translate(-36 17)" onmousedown="handlePan(-1,0)">
                  <use xlink:href="#rim" fill="#404040">
                        <set attributeName="fill" to="#808080" begin="arrowLeft.mouseover" end="arrowLeft.mouseout"/>
                  </use>
                  <path fill="none" stroke="white" stroke-width="1.5" d="M0,-3.0v7 M-2.5,-0.5L0,-3.0L2.5,-0.5"/>
                </g>
        </g>
        <svg viewBox="0 0 15 15" width="100%" height="30px" preserveAspectRatio="xMaxYMin meet">
         <g id="arrow_out" transform="scale(0.3 0.3)">
          <a xlink:href="vsettings_8cpp__incl_org.svg" target="_base">
           <rect id="button" ry="5" rx="5" y="6" x="6" height="38" width="38"
                fill="#f2f5e9" fill-opacity="0.5" stroke="#606060" stroke-width="1.0"/>
           <path id="arrow"
             d="M 11.500037,31.436501 C 11.940474,20.09759 22.043105,11.32322 32.158766,21.979434 L 37.068811,17.246167 C 37.068811,17.246167 37.088388,32 37.088388,32 L 22.160133,31.978069 C 22.160133,31.978069 26.997745,27.140456 26.997745,27.140456 C 18.528582,18.264221 13.291696,25.230495 11.500037,31.436501 z"
             style="fill:#404040;"/>
          </a>
         </g>
        </svg>
</svg>
