<?xml version="1.0" encoding="UTF-8" standalone="no"?>
<!DOCTYPE svg PUBLIC "-//W3C//DTD SVG 1.1//EN"
 "http://www.w3.org/Graphics/SVG/1.1/DTD/svg11.dtd">
<!-- Generated by graphviz version 2.43.0 (0)
 -->
<!-- Title: src/libs/vmisc/qxtcsvmodel.cpp Pages: 1 -->
<!--zoomable 252 -->
<svg id="main" version="1.1" xmlns="http://www.w3.org/2000/svg" xmlns:xlink="http://www.w3.org/1999/xlink" xml:space="preserve" onload="init(evt)">
<style type="text/css"><![CDATA[
.edge:hover path { stroke: red; }
.edge:hover polygon { stroke: red; fill: red; }
]]></style>
<script type="text/javascript"><![CDATA[
var edges = document.getElementsByTagName('g');
if (edges && edges.length) {
  for (var i=0;i<edges.length;i++) {
    if (edges[i].id.substr(0,4)=='edge') {
      edges[i].setAttribute('class','edge');
    }
  }
}
]]></script>
        <defs>
                <circle id="rim" cx="0" cy="0" r="7"/>
                <circle id="rim2" cx="0" cy="0" r="3.5"/>
                <g id="zoomPlus">
                        <use xlink:href="#rim" fill="#404040">
                                <set attributeName="fill" to="#808080" begin="zoomplus.mouseover" end="zoomplus.mouseout"/>
                        </use>
                        <path d="M-4,0h8M0,-4v8" fill="none" stroke="white" stroke-width="1.5" pointer-events="none"/>
                </g>
                <g id="zoomMin">
                        <use xlink:href="#rim" fill="#404040">
                                <set attributeName="fill" to="#808080" begin="zoomminus.mouseover" end="zoomminus.mouseout"/>
                        </use>
                        <path d="M-4,0h8" fill="none" stroke="white" stroke-width="1.5" pointer-events="none"/>
                </g>
                <g id="dirArrow">
                        <path fill="none" stroke="white" stroke-width="1.5" d="M0,-3.0v7 M-2.5,-0.5L0,-3.0L2.5,-0.5"/>
                </g>
               <g id="resetDef">
                       <use xlink:href="#rim2" fill="#404040">
                               <set attributeName="fill" to="#808080" begin="reset.mouseover" end="reset.mouseout"/>
                       </use>
               </g>
        </defs>

<script type="text/javascript">
var viewWidth = 1343;
var viewHeight = 252;
var sectionId = 'dynsection-0';
</script>
<script xlink:href="../../svgpan.js"/>
<svg id="graph" class="graph">
<g id="viewport">
<title>src/libs/vmisc/qxtcsvmodel.cpp</title>
<polygon fill="white" stroke="transparent" points="-4,4 -4,-248 1338.5,-248 1338.5,4 -4,4"/>
<!-- Node1 -->
<g id="node1" class="node">
<title>Node1</title>
<g id="a_node1"><a xlink:title=" ">
<polygon fill="#bfbfbf" stroke="black" points="714.5,-224.5 714.5,-243.5 884.5,-243.5 884.5,-224.5 714.5,-224.5"/>
<text text-anchor="middle" x="799.5" y="-231.5" font-family="Helvetica,sans-Serif" font-size="10.00">src/libs/vmisc/qxtcsvmodel.cpp</text>
</a>
</g>
</g>
<!-- Node2 -->
<g id="node2" class="node">
<title>Node2</title>
<g id="a_node2"><a xlink:href="../../d4/d21/qxtcsvmodel_8h.html" target="_top" xlink:title=" ">
<polygon fill="white" stroke="black" points="633,-168.5 633,-187.5 722,-187.5 722,-168.5 633,-168.5"/>
<text text-anchor="middle" x="677.5" y="-175.5" font-family="Helvetica,sans-Serif" font-size="10.00">qxtcsvmodel.h</text>
</a>
</g>
</g>
<!-- Node1&#45;&gt;Node2 -->
<g id="edge1" class="edge">
<title>Node1&#45;&gt;Node2</title>
<path fill="none" stroke="midnightblue" d="M780.17,-224.44C760.18,-215.6 728.76,-201.69 705.94,-191.59"/>
<polygon fill="midnightblue" stroke="midnightblue" points="707.3,-188.36 696.74,-187.52 704.47,-194.76 707.3,-188.36"/>
</g>
<!-- Node7 -->
<g id="node7" class="node">
<title>Node7</title>
<g id="a_node7"><a xlink:title=" ">
<polygon fill="white" stroke="#bfbfbf" points="1191.5,-112.5 1191.5,-131.5 1259.5,-131.5 1259.5,-112.5 1191.5,-112.5"/>
<text text-anchor="middle" x="1225.5" y="-119.5" font-family="Helvetica,sans-Serif" font-size="10.00">QIODevice</text>
</a>
</g>
</g>
<!-- Node1&#45;&gt;Node7 -->
<g id="edge31" class="edge">
<title>Node1&#45;&gt;Node7</title>
<path fill="none" stroke="midnightblue" d="M790.27,-224.45C776.85,-211.01 755.15,-184.77 770.5,-168 801.15,-134.51 1132.53,-138.19 1177.5,-132 1178.78,-131.82 1180.07,-131.64 1181.37,-131.44"/>
<polygon fill="midnightblue" stroke="midnightblue" points="1182.17,-134.86 1191.48,-129.8 1181.05,-127.95 1182.17,-134.86"/>
</g>
<!-- Node26 -->
<g id="node26" class="node">
<title>Node26</title>
<g id="a_node26"><a xlink:title=" ">
<polygon fill="white" stroke="#bfbfbf" points="779,-168.5 779,-187.5 820,-187.5 820,-168.5 779,-168.5"/>
<text text-anchor="middle" x="799.5" y="-175.5" font-family="Helvetica,sans-Serif" font-size="10.00">QFile</text>
</a>
</g>
</g>
<!-- Node1&#45;&gt;Node26 -->
<g id="edge30" class="edge">
<title>Node1&#45;&gt;Node26</title>
<path fill="none" stroke="midnightblue" d="M799.5,-224.08C799.5,-217.01 799.5,-206.86 799.5,-197.99"/>
<polygon fill="midnightblue" stroke="midnightblue" points="803,-197.75 799.5,-187.75 796,-197.75 803,-197.75"/>
</g>
<!-- Node27 -->
<g id="node27" class="node">
<title>Node27</title>
<g id="a_node27"><a xlink:title=" ">
<polygon fill="white" stroke="#bfbfbf" points="838,-168.5 838,-187.5 879,-187.5 879,-168.5 838,-168.5"/>
<text text-anchor="middle" x="858.5" y="-175.5" font-family="Helvetica,sans-Serif" font-size="10.00">QList</text>
</a>
</g>
</g>
<!-- Node1&#45;&gt;Node27 -->
<g id="edge32" class="edge">
<title>Node1&#45;&gt;Node27</title>
<path fill="none" stroke="midnightblue" d="M808.98,-224.32C817.7,-216.34 830.84,-204.31 841.4,-194.65"/>
<polygon fill="midnightblue" stroke="midnightblue" points="843.83,-197.17 848.85,-187.83 839.11,-192 843.83,-197.17"/>
</g>
<!-- Node28 -->
<g id="node28" class="node">
<title>Node28</title>
<g id="a_node28"><a xlink:title=" ">
<polygon fill="white" stroke="#bfbfbf" points="897.5,-168.5 897.5,-187.5 977.5,-187.5 977.5,-168.5 897.5,-168.5"/>
<text text-anchor="middle" x="937.5" y="-175.5" font-family="Helvetica,sans-Serif" font-size="10.00">QTextStream</text>
</a>
</g>
</g>
<!-- Node1&#45;&gt;Node28 -->
<g id="edge33" class="edge">
<title>Node1&#45;&gt;Node28</title>
<path fill="none" stroke="midnightblue" d="M821.37,-224.44C844.28,-215.48 880.48,-201.31 906.37,-191.18"/>
<polygon fill="midnightblue" stroke="midnightblue" points="907.7,-194.42 915.74,-187.52 905.15,-187.9 907.7,-194.42"/>
</g>
<!-- Node29 -->
<g id="node29" class="node">
<title>Node29</title>
<g id="a_node29"><a xlink:title=" ">
<polygon fill="white" stroke="#bfbfbf" points="996,-168.5 996,-187.5 1097,-187.5 1097,-168.5 996,-168.5"/>
<text text-anchor="middle" x="1046.5" y="-175.5" font-family="Helvetica,sans-Serif" font-size="10.00">QStringConverter</text>
</a>
</g>
</g>
<!-- Node1&#45;&gt;Node29 -->
<g id="edge34" class="edge">
<title>Node1&#45;&gt;Node29</title>
<path fill="none" stroke="midnightblue" d="M838.64,-224.44C881.73,-215.02 951.06,-199.87 997.67,-189.68"/>
<polygon fill="midnightblue" stroke="midnightblue" points="998.52,-193.07 1007.55,-187.52 997.03,-186.23 998.52,-193.07"/>
</g>
<!-- Node30 -->
<g id="node30" class="node">
<title>Node30</title>
<g id="a_node30"><a xlink:href="../../d6/dcd/diagnostic_8h.html" target="_top" xlink:title=" ">
<polygon fill="white" stroke="black" points="237,-168.5 237,-187.5 354,-187.5 354,-168.5 237,-168.5"/>
<text text-anchor="middle" x="295.5" y="-175.5" font-family="Helvetica,sans-Serif" font-size="10.00">../vmisc/diagnostic.h</text>
</a>
</g>
</g>
<!-- Node1&#45;&gt;Node30 -->
<g id="edge35" class="edge">
<title>Node1&#45;&gt;Node30</title>
<path fill="none" stroke="midnightblue" d="M719.92,-224.47C621.93,-213.97 457.12,-196.32 364.34,-186.38"/>
<polygon fill="midnightblue" stroke="midnightblue" points="364.53,-182.88 354.21,-185.29 363.78,-189.84 364.53,-182.88"/>
</g>
<!-- Node3 -->
<g id="node3" class="node">
<title>Node3</title>
<g id="a_node3"><a xlink:title=" ">
<polygon fill="white" stroke="#bfbfbf" points="1054.5,-56.5 1054.5,-75.5 1174.5,-75.5 1174.5,-56.5 1054.5,-56.5"/>
<text text-anchor="middle" x="1114.5" y="-63.5" font-family="Helvetica,sans-Serif" font-size="10.00">qcompilerdetection.h</text>
</a>
</g>
</g>
<!-- Node2&#45;&gt;Node3 -->
<g id="edge2" class="edge">
<title>Node2&#45;&gt;Node3</title>
<path fill="none" stroke="midnightblue" d="M722.24,-172.09C824.09,-160.88 1064.79,-134.2 1068.5,-132 1086.67,-121.24 1099.53,-100.18 1106.95,-84.94"/>
<polygon fill="midnightblue" stroke="midnightblue" points="1110.28,-86.07 1111.22,-75.52 1103.91,-83.18 1110.28,-86.07"/>
</g>
<!-- Node4 -->
<g id="node4" class="node">
<title>Node4</title>
<g id="a_node4"><a xlink:title=" ">
<polygon fill="white" stroke="#bfbfbf" points="95.5,-112.5 95.5,-131.5 215.5,-131.5 215.5,-112.5 95.5,-112.5"/>
<text text-anchor="middle" x="155.5" y="-119.5" font-family="Helvetica,sans-Serif" font-size="10.00">QAbstractTableModel</text>
</a>
</g>
</g>
<!-- Node2&#45;&gt;Node4 -->
<g id="edge3" class="edge">
<title>Node2&#45;&gt;Node4</title>
<path fill="none" stroke="midnightblue" d="M632.76,-173.01C553.17,-165.82 381.46,-149.86 225.92,-132.13"/>
<polygon fill="midnightblue" stroke="midnightblue" points="226.03,-128.62 215.7,-130.96 225.23,-135.58 226.03,-128.62"/>
</g>
<!-- Node5 -->
<g id="node5" class="node">
<title>Node5</title>
<g id="a_node5"><a xlink:title=" ">
<polygon fill="white" stroke="#bfbfbf" points="234,-112.5 234,-131.5 281,-131.5 281,-112.5 234,-112.5"/>
<text text-anchor="middle" x="257.5" y="-119.5" font-family="Helvetica,sans-Serif" font-size="10.00">QChar</text>
</a>
</g>
</g>
<!-- Node2&#45;&gt;Node5 -->
<g id="edge4" class="edge">
<title>Node2&#45;&gt;Node5</title>
<path fill="none" stroke="midnightblue" d="M632.77,-174C562.19,-168.78 420.62,-156.38 291.28,-131.86"/>
<polygon fill="midnightblue" stroke="midnightblue" points="291.67,-128.37 281.19,-129.92 290.35,-135.25 291.67,-128.37"/>
</g>
<!-- Node6 -->
<g id="node6" class="node">
<title>Node6</title>
<g id="a_node6"><a xlink:title=" ">
<polygon fill="white" stroke="#bfbfbf" points="299.5,-112.5 299.5,-131.5 349.5,-131.5 349.5,-112.5 299.5,-112.5"/>
<text text-anchor="middle" x="324.5" y="-119.5" font-family="Helvetica,sans-Serif" font-size="10.00">QFlags</text>
</a>
</g>
</g>
<!-- Node2&#45;&gt;Node6 -->
<g id="edge5" class="edge">
<title>Node2&#45;&gt;Node6</title>
<path fill="none" stroke="midnightblue" d="M632.84,-172.39C572.82,-165.83 462.69,-152.48 359.62,-132.02"/>
<polygon fill="midnightblue" stroke="midnightblue" points="360.17,-128.56 349.67,-130.02 358.79,-135.42 360.17,-128.56"/>
</g>
<!-- Node2&#45;&gt;Node7 -->
<g id="edge6" class="edge">
<title>Node2&#45;&gt;Node7</title>
<path fill="none" stroke="midnightblue" d="M722.23,-169.84C727.04,-169.17 731.87,-168.54 736.5,-168 931.82,-145.16 982.6,-158.16 1177.5,-132 1178.78,-131.83 1180.07,-131.65 1181.37,-131.45"/>
<polygon fill="midnightblue" stroke="midnightblue" points="1182.16,-134.87 1191.48,-129.83 1181.05,-127.96 1182.16,-134.87"/>
</g>
<!-- Node8 -->
<g id="node8" class="node">
<title>Node8</title>
<g id="a_node8"><a xlink:title=" ">
<polygon fill="white" stroke="#bfbfbf" points="368,-112.5 368,-131.5 477,-131.5 477,-112.5 368,-112.5"/>
<text text-anchor="middle" x="422.5" y="-119.5" font-family="Helvetica,sans-Serif" font-size="10.00">QIncompatibleFlag</text>
</a>
</g>
</g>
<!-- Node2&#45;&gt;Node8 -->
<g id="edge7" class="edge">
<title>Node2&#45;&gt;Node8</title>
<path fill="none" stroke="midnightblue" d="M637.09,-168.44C592.52,-159 520.73,-143.8 472.61,-133.61"/>
<polygon fill="midnightblue" stroke="midnightblue" points="473.22,-130.16 462.72,-131.52 471.77,-137.01 473.22,-130.16"/>
</g>
<!-- Node9 -->
<g id="node9" class="node">
<title>Node9</title>
<g id="a_node9"><a xlink:title=" ">
<polygon fill="white" stroke="#bfbfbf" points="495.5,-112.5 495.5,-131.5 575.5,-131.5 575.5,-112.5 495.5,-112.5"/>
<text text-anchor="middle" x="535.5" y="-119.5" font-family="Helvetica,sans-Serif" font-size="10.00">QMetaObject</text>
</a>
</g>
</g>
<!-- Node2&#45;&gt;Node9 -->
<g id="edge8" class="edge">
<title>Node2&#45;&gt;Node9</title>
<path fill="none" stroke="midnightblue" d="M655,-168.44C631.42,-159.48 594.18,-145.31 567.54,-135.18"/>
<polygon fill="midnightblue" stroke="midnightblue" points="568.49,-131.8 557.9,-131.52 566,-138.34 568.49,-131.8"/>
</g>
<!-- Node10 -->
<g id="node10" class="node">
<title>Node10</title>
<g id="a_node10"><a xlink:title=" ">
<polygon fill="white" stroke="#bfbfbf" points="594,-112.5 594,-131.5 675,-131.5 675,-112.5 594,-112.5"/>
<text text-anchor="middle" x="634.5" y="-119.5" font-family="Helvetica,sans-Serif" font-size="10.00">QModelIndex</text>
</a>
</g>
</g>
<!-- Node2&#45;&gt;Node10 -->
<g id="edge9" class="edge">
<title>Node2&#45;&gt;Node10</title>
<path fill="none" stroke="midnightblue" d="M670.4,-168.08C664.26,-160.38 655.23,-149.03 647.76,-139.65"/>
<polygon fill="midnightblue" stroke="midnightblue" points="650.44,-137.39 641.47,-131.75 644.96,-141.75 650.44,-137.39"/>
</g>
<!-- Node11 -->
<g id="node11" class="node">
<title>Node11</title>
<g id="a_node11"><a xlink:title=" ">
<polygon fill="white" stroke="#bfbfbf" points="693.5,-112.5 693.5,-131.5 749.5,-131.5 749.5,-112.5 693.5,-112.5"/>
<text text-anchor="middle" x="721.5" y="-119.5" font-family="Helvetica,sans-Serif" font-size="10.00">QObject</text>
</a>
</g>
</g>
<!-- Node2&#45;&gt;Node11 -->
<g id="edge10" class="edge">
<title>Node2&#45;&gt;Node11</title>
<path fill="none" stroke="midnightblue" d="M684.77,-168.08C691.04,-160.38 700.29,-149.03 707.93,-139.65"/>
<polygon fill="midnightblue" stroke="midnightblue" points="710.77,-141.71 714.37,-131.75 705.34,-137.29 710.77,-141.71"/>
</g>
<!-- Node12 -->
<g id="node12" class="node">
<title>Node12</title>
<g id="a_node12"><a xlink:title=" ">
<polygon fill="white" stroke="#bfbfbf" points="1193,-56.5 1193,-75.5 1246,-75.5 1246,-56.5 1193,-56.5"/>
<text text-anchor="middle" x="1219.5" y="-63.5" font-family="Helvetica,sans-Serif" font-size="10.00">QString</text>
</a>
</g>
</g>
<!-- Node2&#45;&gt;Node12 -->
<g id="edge11" class="edge">
<title>Node2&#45;&gt;Node12</title>
<path fill="none" stroke="midnightblue" d="M722.31,-172.14C829.62,-160.51 1092.5,-132 1092.5,-132 1131.85,-120.23 1173.51,-96.44 1197.97,-81.14"/>
<polygon fill="midnightblue" stroke="midnightblue" points="1199.91,-84.05 1206.47,-75.73 1196.15,-78.15 1199.91,-84.05"/>
</g>
<!-- Node13 -->
<g id="node13" class="node">
<title>Node13</title>
<g id="a_node13"><a xlink:title=" ">
<polygon fill="white" stroke="#bfbfbf" points="1264.5,-56.5 1264.5,-75.5 1334.5,-75.5 1334.5,-56.5 1264.5,-56.5"/>
<text text-anchor="middle" x="1299.5" y="-63.5" font-family="Helvetica,sans-Serif" font-size="10.00">QStringList</text>
</a>
</g>
</g>
<!-- Node2&#45;&gt;Node13 -->
<g id="edge12" class="edge">
<title>Node2&#45;&gt;Node13</title>
<path fill="none" stroke="midnightblue" d="M722.29,-172.05C734.67,-170.71 748.1,-169.28 760.5,-168 924.41,-151.12 969.11,-169.76 1129.5,-132 1131.28,-131.58 1219.05,-97.91 1267.75,-79.2"/>
<polygon fill="midnightblue" stroke="midnightblue" points="1269.14,-82.41 1277.22,-75.56 1266.63,-75.88 1269.14,-82.41"/>
</g>
<!-- Node14 -->
<g id="node14" class="node">
<title>Node14</title>
<g id="a_node14"><a xlink:title=" ">
<polygon fill="white" stroke="#bfbfbf" points="768,-112.5 768,-131.5 827,-131.5 827,-112.5 768,-112.5"/>
<text text-anchor="middle" x="797.5" y="-119.5" font-family="Helvetica,sans-Serif" font-size="10.00">QVariant</text>
</a>
</g>
</g>
<!-- Node2&#45;&gt;Node14 -->
<g id="edge13" class="edge">
<title>Node2&#45;&gt;Node14</title>
<path fill="none" stroke="midnightblue" d="M696.51,-168.44C716.09,-159.64 746.81,-145.81 769.23,-135.72"/>
<polygon fill="midnightblue" stroke="midnightblue" points="770.89,-138.81 778.57,-131.52 768.02,-132.43 770.89,-138.81"/>
</g>
<!-- Node15 -->
<g id="node15" class="node">
<title>Node15</title>
<g id="a_node15"><a xlink:title=" ">
<polygon fill="white" stroke="#bfbfbf" points="314,-56.5 314,-75.5 343,-75.5 343,-56.5 314,-56.5"/>
<text text-anchor="middle" x="328.5" y="-63.5" font-family="Helvetica,sans-Serif" font-size="10.00">Qt</text>
</a>
</g>
</g>
<!-- Node2&#45;&gt;Node15 -->
<g id="edge14" class="edge">
<title>Node2&#45;&gt;Node15</title>
<path fill="none" stroke="midnightblue" d="M632.77,-175.24C498.17,-169.74 105.04,-152 86.5,-132 80.46,-125.48 80.82,-118.84 86.5,-112 113.97,-78.96 247.61,-70.06 303.67,-67.76"/>
<polygon fill="midnightblue" stroke="midnightblue" points="303.93,-71.25 313.79,-67.39 303.67,-64.26 303.93,-71.25"/>
</g>
<!-- Node16 -->
<g id="node16" class="node">
<title>Node16</title>
<g id="a_node16"><a xlink:title=" ">
<polygon fill="white" stroke="#bfbfbf" points="0,-56.5 0,-75.5 59,-75.5 59,-56.5 0,-56.5"/>
<text text-anchor="middle" x="29.5" y="-63.5" font-family="Helvetica,sans-Serif" font-size="10.00">QtGlobal</text>
</a>
</g>
</g>
<!-- Node2&#45;&gt;Node16 -->
<g id="edge15" class="edge">
<title>Node2&#45;&gt;Node16</title>
<path fill="none" stroke="midnightblue" d="M632.96,-175.76C502.4,-171.84 126.78,-158.37 78.5,-132 59.37,-121.55 45.51,-100.1 37.51,-84.7"/>
<polygon fill="midnightblue" stroke="midnightblue" points="40.62,-83.09 33.1,-75.63 34.32,-86.15 40.62,-83.09"/>
</g>
<!-- Node17 -->
<g id="node17" class="node">
<title>Node17</title>
<g id="a_node17"><a xlink:title=" ">
<polygon fill="white" stroke="#bfbfbf" points="845,-112.5 845,-131.5 1000,-131.5 1000,-112.5 845,-112.5"/>
<text text-anchor="middle" x="922.5" y="-119.5" font-family="Helvetica,sans-Serif" font-size="10.00">QtCore5Compat/QTextCodec</text>
</a>
</g>
</g>
<!-- Node2&#45;&gt;Node17 -->
<g id="edge16" class="edge">
<title>Node2&#45;&gt;Node17</title>
<path fill="none" stroke="midnightblue" d="M716.32,-168.44C759.06,-159.02 827.83,-143.87 874.07,-133.68"/>
<polygon fill="midnightblue" stroke="midnightblue" points="874.85,-137.09 883.86,-131.52 873.34,-130.25 874.85,-137.09"/>
</g>
<!-- Node18 -->
<g id="node18" class="node">
<title>Node18</title>
<g id="a_node18"><a xlink:href="../../d4/da4/def_8h.html" target="_top" xlink:title=" ">
<polygon fill="white" stroke="black" points="1018,-112.5 1018,-131.5 1059,-131.5 1059,-112.5 1018,-112.5"/>
<text text-anchor="middle" x="1038.5" y="-119.5" font-family="Helvetica,sans-Serif" font-size="10.00">def.h</text>
</a>
</g>
</g>
<!-- Node2&#45;&gt;Node18 -->
<g id="edge17" class="edge">
<title>Node2&#45;&gt;Node18</title>
<path fill="none" stroke="midnightblue" d="M722.26,-170.07C727.07,-169.36 731.88,-168.66 736.5,-168 854.47,-151.23 888.2,-157.86 1007.8,-132.08"/>
<polygon fill="midnightblue" stroke="midnightblue" points="1008.68,-135.47 1017.7,-129.92 1007.19,-128.63 1008.68,-135.47"/>
</g>
<!-- Node18&#45;&gt;Node3 -->
<g id="edge18" class="edge">
<title>Node18&#45;&gt;Node3</title>
<path fill="none" stroke="midnightblue" d="M1050.71,-112.32C1062.28,-104.11 1079.88,-91.6 1093.66,-81.81"/>
<polygon fill="midnightblue" stroke="midnightblue" points="1095.94,-84.48 1102.07,-75.83 1091.89,-78.77 1095.94,-84.48"/>
</g>
<!-- Node18&#45;&gt;Node12 -->
<g id="edge21" class="edge">
<title>Node18&#45;&gt;Node12</title>
<path fill="none" stroke="midnightblue" d="M1059.26,-114.81C1089.39,-105.82 1145.7,-89.02 1182.89,-77.92"/>
<polygon fill="midnightblue" stroke="midnightblue" points="1184.26,-81.17 1192.84,-74.95 1182.26,-74.46 1184.26,-81.17"/>
</g>
<!-- Node18&#45;&gt;Node13 -->
<g id="edge22" class="edge">
<title>Node18&#45;&gt;Node13</title>
<path fill="none" stroke="midnightblue" d="M1059.42,-116.67C1101.53,-107.96 1197.35,-88.13 1254.39,-76.33"/>
<polygon fill="midnightblue" stroke="midnightblue" points="1255.14,-79.75 1264.22,-74.3 1253.72,-72.9 1255.14,-79.75"/>
</g>
<!-- Node18&#45;&gt;Node15 -->
<g id="edge23" class="edge">
<title>Node18&#45;&gt;Node15</title>
<path fill="none" stroke="midnightblue" d="M1017.74,-113.92C1014.99,-113.17 1012.2,-112.5 1009.5,-112 879.68,-87.91 459.78,-71.66 353.25,-67.86"/>
<polygon fill="midnightblue" stroke="midnightblue" points="353.26,-64.35 343.15,-67.5 353.02,-71.35 353.26,-64.35"/>
</g>
<!-- Node18&#45;&gt;Node16 -->
<g id="edge24" class="edge">
<title>Node18&#45;&gt;Node16</title>
<path fill="none" stroke="midnightblue" d="M1017.75,-113.86C1015,-113.13 1012.2,-112.47 1009.5,-112 915.94,-95.61 241.28,-73.61 69.31,-68.23"/>
<polygon fill="midnightblue" stroke="midnightblue" points="69.28,-64.73 59.18,-67.91 69.06,-71.72 69.28,-64.73"/>
</g>
<!-- Node19 -->
<g id="node19" class="node">
<title>Node19</title>
<g id="a_node19"><a xlink:title=" ">
<polygon fill="white" stroke="#bfbfbf" points="672,-56.5 672,-75.5 745,-75.5 745,-56.5 672,-56.5"/>
<text text-anchor="middle" x="708.5" y="-63.5" font-family="Helvetica,sans-Serif" font-size="10.00">QFileDialog</text>
</a>
</g>
</g>
<!-- Node18&#45;&gt;Node19 -->
<g id="edge19" class="edge">
<title>Node18&#45;&gt;Node19</title>
<path fill="none" stroke="midnightblue" d="M1017.7,-114.11C1014.96,-113.33 1012.17,-112.6 1009.5,-112 900.98,-87.67 869.16,-94.57 755.3,-76.03"/>
<polygon fill="midnightblue" stroke="midnightblue" points="755.56,-72.53 745.13,-74.35 754.42,-79.44 755.56,-72.53"/>
</g>
<!-- Node20 -->
<g id="node20" class="node">
<title>Node20</title>
<g id="a_node20"><a xlink:title=" ">
<polygon fill="white" stroke="#bfbfbf" points="763.5,-56.5 763.5,-75.5 813.5,-75.5 813.5,-56.5 763.5,-56.5"/>
<text text-anchor="middle" x="788.5" y="-63.5" font-family="Helvetica,sans-Serif" font-size="10.00">QLineF</text>
</a>
</g>
</g>
<!-- Node18&#45;&gt;Node20 -->
<g id="edge20" class="edge">
<title>Node18&#45;&gt;Node20</title>
<path fill="none" stroke="midnightblue" d="M1017.98,-114.32C1015.15,-113.49 1012.26,-112.69 1009.5,-112 930.45,-92.19 906.76,-94.62 823.59,-76.11"/>
<polygon fill="midnightblue" stroke="midnightblue" points="824.23,-72.67 813.7,-73.88 822.69,-79.5 824.23,-72.67"/>
</g>
<!-- Node21 -->
<g id="node21" class="node">
<title>Node21</title>
<g id="a_node21"><a xlink:title=" ">
<polygon fill="white" stroke="#bfbfbf" points="831.5,-56.5 831.5,-75.5 887.5,-75.5 887.5,-56.5 831.5,-56.5"/>
<text text-anchor="middle" x="859.5" y="-63.5" font-family="Helvetica,sans-Serif" font-size="10.00">QPrinter</text>
</a>
</g>
</g>
<!-- Node18&#45;&gt;Node21 -->
<g id="edge25" class="edge">
<title>Node18&#45;&gt;Node21</title>
<path fill="none" stroke="midnightblue" d="M1017.91,-114.58C1015.09,-113.71 1012.22,-112.83 1009.5,-112 971.42,-100.38 927.82,-87.33 897.48,-78.29"/>
<polygon fill="midnightblue" stroke="midnightblue" points="898.31,-74.88 887.72,-75.38 896.31,-81.59 898.31,-74.88"/>
</g>
<!-- Node22 -->
<g id="node22" class="node">
<title>Node22</title>
<g id="a_node22"><a xlink:title=" ">
<polygon fill="white" stroke="#bfbfbf" points="906,-56.5 906,-75.5 967,-75.5 967,-56.5 906,-56.5"/>
<text text-anchor="middle" x="936.5" y="-63.5" font-family="Helvetica,sans-Serif" font-size="10.00">QPixmap</text>
</a>
</g>
</g>
<!-- Node18&#45;&gt;Node22 -->
<g id="edge26" class="edge">
<title>Node18&#45;&gt;Node22</title>
<path fill="none" stroke="midnightblue" d="M1022.11,-112.32C1005.83,-103.7 980.63,-90.36 961.78,-80.39"/>
<polygon fill="midnightblue" stroke="midnightblue" points="963.32,-77.24 952.85,-75.65 960.05,-83.43 963.32,-77.24"/>
</g>
<!-- Node23 -->
<g id="node23" class="node">
<title>Node23</title>
<g id="a_node23"><a xlink:title=" ">
<polygon fill="white" stroke="#bfbfbf" points="985,-56.5 985,-75.5 1036,-75.5 1036,-56.5 985,-56.5"/>
<text text-anchor="middle" x="1010.5" y="-63.5" font-family="Helvetica,sans-Serif" font-size="10.00">csignal</text>
</a>
</g>
</g>
<!-- Node18&#45;&gt;Node23 -->
<g id="edge27" class="edge">
<title>Node18&#45;&gt;Node23</title>
<path fill="none" stroke="midnightblue" d="M1033.88,-112.08C1030.04,-104.69 1024.48,-93.95 1019.74,-84.81"/>
<polygon fill="midnightblue" stroke="midnightblue" points="1022.75,-83.02 1015.04,-75.75 1016.53,-86.24 1022.75,-83.02"/>
</g>
<!-- Node24 -->
<g id="node24" class="node">
<title>Node24</title>
<g id="a_node24"><a xlink:href="../../d4/d82/debugbreak_8h.html" target="_top" xlink:title=" ">
<polygon fill="white" stroke="black" points="571,-56.5 571,-75.5 654,-75.5 654,-56.5 571,-56.5"/>
<text text-anchor="middle" x="612.5" y="-63.5" font-family="Helvetica,sans-Serif" font-size="10.00">debugbreak.h</text>
</a>
</g>
</g>
<!-- Node18&#45;&gt;Node24 -->
<g id="edge28" class="edge">
<title>Node18&#45;&gt;Node24</title>
<path fill="none" stroke="midnightblue" d="M1017.72,-114.01C1014.98,-113.25 1012.19,-112.55 1009.5,-112 860.87,-81.54 817.86,-97.05 664.47,-76.18"/>
<polygon fill="midnightblue" stroke="midnightblue" points="664.59,-72.66 654.2,-74.75 663.63,-79.59 664.59,-72.66"/>
</g>
<!-- Node25 -->
<g id="node25" class="node">
<title>Node25</title>
<g id="a_node25"><a xlink:title=" ">
<polygon fill="white" stroke="#bfbfbf" points="585,-0.5 585,-19.5 640,-19.5 640,-0.5 585,-0.5"/>
<text text-anchor="middle" x="612.5" y="-7.5" font-family="Helvetica,sans-Serif" font-size="10.00">signal.h</text>
</a>
</g>
</g>
<!-- Node24&#45;&gt;Node25 -->
<g id="edge29" class="edge">
<title>Node24&#45;&gt;Node25</title>
<path fill="none" stroke="midnightblue" d="M612.5,-56.08C612.5,-49.01 612.5,-38.86 612.5,-29.99"/>
<polygon fill="midnightblue" stroke="midnightblue" points="616,-29.75 612.5,-19.75 609,-29.75 616,-29.75"/>
</g>
<!-- Node30&#45;&gt;Node16 -->
<g id="edge36" class="edge">
<title>Node30&#45;&gt;Node16</title>
<path fill="none" stroke="midnightblue" d="M236.9,-176.16C163.34,-173.73 43.36,-164.7 15.5,-132 4.31,-118.86 10.96,-98.9 18.44,-84.57"/>
<polygon fill="midnightblue" stroke="midnightblue" points="21.59,-86.11 23.53,-75.7 15.52,-82.62 21.59,-86.11"/>
</g>
</g>
</svg>
        <g id="navigator" transform="translate(0 0)" fill="#404254">
                <rect fill="#f2f5e9" fill-opacity="0.5" stroke="#606060" stroke-width=".5" x="0" y="0" width="60" height="60"/>
                <use id="zoomplus" xlink:href="#zoomPlus" x="17" y="9" onmousedown="handleZoom(evt,'in')"/>
                <use id="zoomminus" xlink:href="#zoomMin" x="42" y="9" onmousedown="handleZoom(evt,'out')"/>
                <use id="reset" xlink:href="#resetDef" x="30" y="36" onmousedown="handleReset()"/>
                <g id="arrowUp" xlink:href="#dirArrow" transform="translate(30 24)" onmousedown="handlePan(0,-1)">
                  <use xlink:href="#rim" fill="#404040">
                        <set attributeName="fill" to="#808080" begin="arrowUp.mouseover" end="arrowUp.mouseout"/>
                  </use>
                  <path fill="none" stroke="white" stroke-width="1.5" d="M0,-3.0v7 M-2.5,-0.5L0,-3.0L2.5,-0.5"/>
                </g>
                <g id="arrowRight" xlink:href="#dirArrow" transform="rotate(90) translate(36 -43)" onmousedown="handlePan(1,0)">
                  <use xlink:href="#rim" fill="#404040">
                        <set attributeName="fill" to="#808080" begin="arrowRight.mouseover" end="arrowRight.mouseout"/>
                  </use>
                  <path fill="none" stroke="white" stroke-width="1.5" d="M0,-3.0v7 M-2.5,-0.5L0,-3.0L2.5,-0.5"/>
                </g>
                <g id="arrowDown" xlink:href="#dirArrow" transform="rotate(180) translate(-30 -48)" onmousedown="handlePan(0,1)">
                  <use xlink:href="#rim" fill="#404040">
                        <set attributeName="fill" to="#808080" begin="arrowDown.mouseover" end="arrowDown.mouseout"/>
                  </use>
                  <path fill="none" stroke="white" stroke-width="1.5" d="M0,-3.0v7 M-2.5,-0.5L0,-3.0L2.5,-0.5"/>
                </g>
                <g id="arrowLeft" xlink:href="#dirArrow" transform="rotate(270) translate(-36 17)" onmousedown="handlePan(-1,0)">
                  <use xlink:href="#rim" fill="#404040">
                        <set attributeName="fill" to="#808080" begin="arrowLeft.mouseover" end="arrowLeft.mouseout"/>
                  </use>
                  <path fill="none" stroke="white" stroke-width="1.5" d="M0,-3.0v7 M-2.5,-0.5L0,-3.0L2.5,-0.5"/>
                </g>
        </g>
        <svg viewBox="0 0 15 15" width="100%" height="30px" preserveAspectRatio="xMaxYMin meet">
         <g id="arrow_out" transform="scale(0.3 0.3)">
          <a xlink:href="qxtcsvmodel_8cpp__incl_org.svg" target="_base">
           <rect id="button" ry="5" rx="5" y="6" x="6" height="38" width="38"
                fill="#f2f5e9" fill-opacity="0.5" stroke="#606060" stroke-width="1.0"/>
           <path id="arrow"
             d="M 11.500037,31.436501 C 11.940474,20.09759 22.043105,11.32322 32.158766,21.979434 L 37.068811,17.246167 C 37.068811,17.246167 37.088388,32 37.088388,32 L 22.160133,31.978069 C 22.160133,31.978069 26.997745,27.140456 26.997745,27.140456 C 18.528582,18.264221 13.291696,25.230495 11.500037,31.436501 z"
             style="fill:#404040;"/>
          </a>
         </g>
        </svg>
</svg>
