<?xml version="1.0" encoding="UTF-8" standalone="no"?>
<!DOCTYPE svg PUBLIC "-//W3C//DTD SVG 1.1//EN"
 "http://www.w3.org/Graphics/SVG/1.1/DTD/svg11.dtd">
<!-- Generated by graphviz version 2.43.0 (0)
 -->
<!-- Title: src/libs/xerces&#45;c/macx/include/xercesc/dom/impl/DOMNodeListImpl.hpp Pages: 1 -->
<svg width="1328pt" height="362pt"
 viewBox="0.00 0.00 1328.00 362.00" xmlns="http://www.w3.org/2000/svg" xmlns:xlink="http://www.w3.org/1999/xlink">
<g id="graph0" class="graph" transform="scale(1 1) rotate(0) translate(4 358)">
<title>src/libs/xerces&#45;c/macx/include/xercesc/dom/impl/DOMNodeListImpl.hpp</title>
<polygon fill="white" stroke="transparent" points="-4,4 -4,-358 1324,-358 1324,4 -4,4"/>
<!-- Node1 -->
<g id="node1" class="node">
<title>Node1</title>
<g id="a_node1"><a xlink:title=" ">
<polygon fill="#bfbfbf" stroke="black" points="597,-312.5 597,-353.5 741,-353.5 741,-312.5 597,-312.5"/>
<text text-anchor="start" x="605" y="-341.5" font-family="Helvetica,sans-Serif" font-size="10.00">src/libs/xerces&#45;c/macx</text>
<text text-anchor="start" x="605" y="-330.5" font-family="Helvetica,sans-Serif" font-size="10.00">/include/xercesc/dom/impl</text>
<text text-anchor="middle" x="669" y="-319.5" font-family="Helvetica,sans-Serif" font-size="10.00">/DOMNodeListImpl.hpp</text>
</a>
</g>
</g>
<!-- Node2 -->
<g id="node2" class="node">
<title>Node2</title>
<g id="a_node2"><a xlink:href="../../d5/d44/macx_2include_2xercesc_2dom_2impl_2DOMParentNode_8hpp.html" target="_top" xlink:title=" ">
<polygon fill="white" stroke="black" points="597,-234.5 597,-275.5 741,-275.5 741,-234.5 597,-234.5"/>
<text text-anchor="start" x="605" y="-263.5" font-family="Helvetica,sans-Serif" font-size="10.00">src/libs/xerces&#45;c/macx</text>
<text text-anchor="start" x="605" y="-252.5" font-family="Helvetica,sans-Serif" font-size="10.00">/include/xercesc/dom/impl</text>
<text text-anchor="middle" x="669" y="-241.5" font-family="Helvetica,sans-Serif" font-size="10.00">/DOMParentNode.hpp</text>
</a>
</g>
</g>
<!-- Node1&#45;&gt;Node2 -->
<g id="edge1" class="edge">
<title>Node1&#45;&gt;Node2</title>
<path fill="none" stroke="midnightblue" d="M669,-302.3C669,-293.3 669,-283.65 669,-275.51"/>
<polygon fill="midnightblue" stroke="midnightblue" points="665.5,-302.43 669,-312.43 672.5,-302.43 665.5,-302.43"/>
</g>
<!-- Node3 -->
<g id="node3" class="node">
<title>Node3</title>
<g id="a_node3"><a xlink:href="../../d0/d77/macx_2include_2xercesc_2dom_2impl_2DOMAttrImpl_8hpp.html" target="_top" xlink:title=" ">
<polygon fill="white" stroke="black" points="326,-78.5 326,-119.5 470,-119.5 470,-78.5 326,-78.5"/>
<text text-anchor="start" x="334" y="-107.5" font-family="Helvetica,sans-Serif" font-size="10.00">src/libs/xerces&#45;c/macx</text>
<text text-anchor="start" x="334" y="-96.5" font-family="Helvetica,sans-Serif" font-size="10.00">/include/xercesc/dom/impl</text>
<text text-anchor="middle" x="398" y="-85.5" font-family="Helvetica,sans-Serif" font-size="10.00">/DOMAttrImpl.hpp</text>
</a>
</g>
</g>
<!-- Node2&#45;&gt;Node3 -->
<g id="edge2" class="edge">
<title>Node2&#45;&gt;Node3</title>
<path fill="none" stroke="midnightblue" d="M692.49,-226.06C707.31,-204.9 720.78,-176.12 704,-156 674.82,-121 551.15,-107.81 470.24,-102.88"/>
<polygon fill="midnightblue" stroke="midnightblue" points="689.5,-224.22 686.36,-234.33 695.12,-228.38 689.5,-224.22"/>
</g>
<!-- Node5 -->
<g id="node5" class="node">
<title>Node5</title>
<g id="a_node5"><a xlink:href="../../d2/d44/macx_2include_2xercesc_2dom_2impl_2DOMCDATASectionImpl_8hpp.html" target="_top" xlink:title=" ">
<polygon fill="white" stroke="black" points="162.5,-156.5 162.5,-197.5 317.5,-197.5 317.5,-156.5 162.5,-156.5"/>
<text text-anchor="start" x="170.5" y="-185.5" font-family="Helvetica,sans-Serif" font-size="10.00">src/libs/xerces&#45;c/macx</text>
<text text-anchor="start" x="170.5" y="-174.5" font-family="Helvetica,sans-Serif" font-size="10.00">/include/xercesc/dom/impl</text>
<text text-anchor="middle" x="240" y="-163.5" font-family="Helvetica,sans-Serif" font-size="10.00">/DOMCDATASectionImpl.hpp</text>
</a>
</g>
</g>
<!-- Node2&#45;&gt;Node5 -->
<g id="edge4" class="edge">
<title>Node2&#45;&gt;Node5</title>
<path fill="none" stroke="midnightblue" d="M586.78,-242.15C517.12,-231.73 414.72,-215.54 326,-198 323.29,-197.46 320.54,-196.91 317.77,-196.33"/>
<polygon fill="midnightblue" stroke="midnightblue" points="586.41,-245.63 596.81,-243.64 587.44,-238.71 586.41,-245.63"/>
</g>
<!-- Node6 -->
<g id="node6" class="node">
<title>Node6</title>
<g id="a_node6"><a xlink:href="../../db/d63/macx_2include_2xercesc_2dom_2impl_2DOMDocumentFragmentImpl_8hpp.html" target="_top" xlink:title=" ">
<polygon fill="white" stroke="black" points="335.5,-156.5 335.5,-197.5 518.5,-197.5 518.5,-156.5 335.5,-156.5"/>
<text text-anchor="start" x="343.5" y="-185.5" font-family="Helvetica,sans-Serif" font-size="10.00">src/libs/xerces&#45;c/macx</text>
<text text-anchor="start" x="343.5" y="-174.5" font-family="Helvetica,sans-Serif" font-size="10.00">/include/xercesc/dom/impl</text>
<text text-anchor="middle" x="427" y="-163.5" font-family="Helvetica,sans-Serif" font-size="10.00">/DOMDocumentFragmentImpl.hpp</text>
</a>
</g>
</g>
<!-- Node2&#45;&gt;Node6 -->
<g id="edge5" class="edge">
<title>Node2&#45;&gt;Node6</title>
<path fill="none" stroke="midnightblue" d="M596.73,-231.3C562.47,-220.55 521.96,-207.82 489.11,-197.51"/>
<polygon fill="midnightblue" stroke="midnightblue" points="596.09,-234.77 606.68,-234.43 598.19,-228.09 596.09,-234.77"/>
</g>
<!-- Node7 -->
<g id="node7" class="node">
<title>Node7</title>
<g id="a_node7"><a xlink:href="../../d1/da1/macx_2include_2xercesc_2dom_2impl_2DOMDocumentTypeImpl_8hpp.html" target="_top" xlink:title=" ">
<polygon fill="white" stroke="black" points="536.5,-156.5 536.5,-197.5 695.5,-197.5 695.5,-156.5 536.5,-156.5"/>
<text text-anchor="start" x="544.5" y="-185.5" font-family="Helvetica,sans-Serif" font-size="10.00">src/libs/xerces&#45;c/macx</text>
<text text-anchor="start" x="544.5" y="-174.5" font-family="Helvetica,sans-Serif" font-size="10.00">/include/xercesc/dom/impl</text>
<text text-anchor="middle" x="616" y="-163.5" font-family="Helvetica,sans-Serif" font-size="10.00">/DOMDocumentTypeImpl.hpp</text>
</a>
</g>
</g>
<!-- Node2&#45;&gt;Node7 -->
<g id="edge6" class="edge">
<title>Node2&#45;&gt;Node7</title>
<path fill="none" stroke="midnightblue" d="M649.51,-226.05C642.89,-216.57 635.66,-206.18 629.6,-197.51"/>
<polygon fill="midnightblue" stroke="midnightblue" points="646.76,-228.23 655.35,-234.43 652.5,-224.22 646.76,-228.23"/>
</g>
<!-- Node8 -->
<g id="node8" class="node">
<title>Node8</title>
<g id="a_node8"><a xlink:href="../../d5/d1b/macx_2include_2xercesc_2dom_2impl_2DOMElementImpl_8hpp.html" target="_top" xlink:title=" ">
<polygon fill="white" stroke="black" points="1095,-156.5 1095,-197.5 1239,-197.5 1239,-156.5 1095,-156.5"/>
<text text-anchor="start" x="1103" y="-185.5" font-family="Helvetica,sans-Serif" font-size="10.00">src/libs/xerces&#45;c/macx</text>
<text text-anchor="start" x="1103" y="-174.5" font-family="Helvetica,sans-Serif" font-size="10.00">/include/xercesc/dom/impl</text>
<text text-anchor="middle" x="1167" y="-163.5" font-family="Helvetica,sans-Serif" font-size="10.00">/DOMElementImpl.hpp</text>
</a>
</g>
</g>
<!-- Node2&#45;&gt;Node8 -->
<g id="edge7" class="edge">
<title>Node2&#45;&gt;Node8</title>
<path fill="none" stroke="midnightblue" d="M751.37,-245.61C835.79,-236.39 970.67,-219.92 1086,-198 1088.85,-197.46 1091.74,-196.88 1094.66,-196.27"/>
<polygon fill="midnightblue" stroke="midnightblue" points="750.89,-242.14 741.33,-246.7 751.65,-249.1 750.89,-242.14"/>
</g>
<!-- Node12 -->
<g id="node12" class="node">
<title>Node12</title>
<g id="a_node12"><a xlink:href="../../de/d46/macx_2include_2xercesc_2dom_2impl_2DOMEntityImpl_8hpp.html" target="_top" xlink:title=" ">
<polygon fill="white" stroke="black" points="751,-156.5 751,-197.5 895,-197.5 895,-156.5 751,-156.5"/>
<text text-anchor="start" x="759" y="-185.5" font-family="Helvetica,sans-Serif" font-size="10.00">src/libs/xerces&#45;c/macx</text>
<text text-anchor="start" x="759" y="-174.5" font-family="Helvetica,sans-Serif" font-size="10.00">/include/xercesc/dom/impl</text>
<text text-anchor="middle" x="823" y="-163.5" font-family="Helvetica,sans-Serif" font-size="10.00">/DOMEntityImpl.hpp</text>
</a>
</g>
</g>
<!-- Node2&#45;&gt;Node12 -->
<g id="edge11" class="edge">
<title>Node2&#45;&gt;Node12</title>
<path fill="none" stroke="midnightblue" d="M717.82,-229.91C738.99,-219.46 763.47,-207.38 783.48,-197.51"/>
<polygon fill="midnightblue" stroke="midnightblue" points="716.08,-226.86 708.66,-234.43 719.18,-233.14 716.08,-226.86"/>
</g>
<!-- Node13 -->
<g id="node13" class="node">
<title>Node13</title>
<g id="a_node13"><a xlink:href="../../de/d13/macx_2include_2xercesc_2dom_2impl_2DOMEntityReferenceImpl_8hpp.html" target="_top" xlink:title=" ">
<polygon fill="white" stroke="black" points="913,-156.5 913,-197.5 1077,-197.5 1077,-156.5 913,-156.5"/>
<text text-anchor="start" x="921" y="-185.5" font-family="Helvetica,sans-Serif" font-size="10.00">src/libs/xerces&#45;c/macx</text>
<text text-anchor="start" x="921" y="-174.5" font-family="Helvetica,sans-Serif" font-size="10.00">/include/xercesc/dom/impl</text>
<text text-anchor="middle" x="995" y="-163.5" font-family="Helvetica,sans-Serif" font-size="10.00">/DOMEntityReferenceImpl.hpp</text>
</a>
</g>
</g>
<!-- Node2&#45;&gt;Node13 -->
<g id="edge12" class="edge">
<title>Node2&#45;&gt;Node13</title>
<path fill="none" stroke="midnightblue" d="M751.37,-234.8C800.78,-223.28 863.42,-208.68 912.81,-197.16"/>
<polygon fill="midnightblue" stroke="midnightblue" points="750.29,-231.45 741.35,-237.13 751.88,-238.27 750.29,-231.45"/>
</g>
<!-- Node14 -->
<g id="node14" class="node">
<title>Node14</title>
<g id="a_node14"><a xlink:href="../../d3/dd9/macx_2include_2xercesc_2dom_2impl_2DOMDocumentImpl_8hpp.html" target="_top" xlink:title=" ">
<polygon fill="white" stroke="black" points="0,-156.5 0,-197.5 144,-197.5 144,-156.5 0,-156.5"/>
<text text-anchor="start" x="8" y="-185.5" font-family="Helvetica,sans-Serif" font-size="10.00">src/libs/xerces&#45;c/macx</text>
<text text-anchor="start" x="8" y="-174.5" font-family="Helvetica,sans-Serif" font-size="10.00">/include/xercesc/dom/impl</text>
<text text-anchor="middle" x="72" y="-163.5" font-family="Helvetica,sans-Serif" font-size="10.00">/DOMDocumentImpl.hpp</text>
</a>
</g>
</g>
<!-- Node2&#45;&gt;Node14 -->
<g id="edge13" class="edge">
<title>Node2&#45;&gt;Node14</title>
<path fill="none" stroke="midnightblue" d="M586.52,-248.47C484.25,-240.83 304.84,-224.86 153,-198 150.15,-197.5 147.25,-196.95 144.32,-196.37"/>
<polygon fill="midnightblue" stroke="midnightblue" points="586.55,-251.98 596.78,-249.23 587.07,-245 586.55,-251.98"/>
</g>
<!-- Node4 -->
<g id="node4" class="node">
<title>Node4</title>
<g id="a_node4"><a xlink:href="../../d8/d8b/macx_2include_2xercesc_2dom_2impl_2DOMAttrNSImpl_8hpp.html" target="_top" xlink:title=" ">
<polygon fill="white" stroke="black" points="326,-0.5 326,-41.5 470,-41.5 470,-0.5 326,-0.5"/>
<text text-anchor="start" x="334" y="-29.5" font-family="Helvetica,sans-Serif" font-size="10.00">src/libs/xerces&#45;c/macx</text>
<text text-anchor="start" x="334" y="-18.5" font-family="Helvetica,sans-Serif" font-size="10.00">/include/xercesc/dom/impl</text>
<text text-anchor="middle" x="398" y="-7.5" font-family="Helvetica,sans-Serif" font-size="10.00">/DOMAttrNSImpl.hpp</text>
</a>
</g>
</g>
<!-- Node3&#45;&gt;Node4 -->
<g id="edge3" class="edge">
<title>Node3&#45;&gt;Node4</title>
<path fill="none" stroke="midnightblue" d="M398,-68.3C398,-59.3 398,-49.65 398,-41.51"/>
<polygon fill="midnightblue" stroke="midnightblue" points="394.5,-68.43 398,-78.43 401.5,-68.43 394.5,-68.43"/>
</g>
<!-- Node9 -->
<g id="node9" class="node">
<title>Node9</title>
<g id="a_node9"><a xlink:href="../../d8/dce/macx_2include_2xercesc_2dom_2impl_2DOMCasts_8hpp.html" target="_top" xlink:title=" ">
<polygon fill="white" stroke="black" points="1176,-78.5 1176,-119.5 1320,-119.5 1320,-78.5 1176,-78.5"/>
<text text-anchor="start" x="1184" y="-107.5" font-family="Helvetica,sans-Serif" font-size="10.00">src/libs/xerces&#45;c/macx</text>
<text text-anchor="start" x="1184" y="-96.5" font-family="Helvetica,sans-Serif" font-size="10.00">/include/xercesc/dom/impl</text>
<text text-anchor="middle" x="1248" y="-85.5" font-family="Helvetica,sans-Serif" font-size="10.00">/DOMCasts.hpp</text>
</a>
</g>
</g>
<!-- Node8&#45;&gt;Node9 -->
<g id="edge8" class="edge">
<title>Node8&#45;&gt;Node9</title>
<path fill="none" stroke="midnightblue" d="M1195.25,-149.49C1205.76,-139.63 1217.49,-128.63 1227.21,-119.51"/>
<polygon fill="midnightblue" stroke="midnightblue" points="1192.76,-147.03 1187.86,-156.43 1197.55,-152.14 1192.76,-147.03"/>
</g>
<!-- Node10 -->
<g id="node10" class="node">
<title>Node10</title>
<g id="a_node10"><a xlink:href="../../d0/d7d/macx_2include_2xercesc_2dom_2impl_2DOMElementNSImpl_8hpp.html" target="_top" xlink:title=" ">
<polygon fill="white" stroke="black" points="1014,-78.5 1014,-119.5 1158,-119.5 1158,-78.5 1014,-78.5"/>
<text text-anchor="start" x="1022" y="-107.5" font-family="Helvetica,sans-Serif" font-size="10.00">src/libs/xerces&#45;c/macx</text>
<text text-anchor="start" x="1022" y="-96.5" font-family="Helvetica,sans-Serif" font-size="10.00">/include/xercesc/dom/impl</text>
<text text-anchor="middle" x="1086" y="-85.5" font-family="Helvetica,sans-Serif" font-size="10.00">/DOMElementNSImpl.hpp</text>
</a>
</g>
</g>
<!-- Node8&#45;&gt;Node10 -->
<g id="edge9" class="edge">
<title>Node8&#45;&gt;Node10</title>
<path fill="none" stroke="midnightblue" d="M1138.75,-149.49C1128.24,-139.63 1116.51,-128.63 1106.79,-119.51"/>
<polygon fill="midnightblue" stroke="midnightblue" points="1136.45,-152.14 1146.14,-156.43 1141.24,-147.03 1136.45,-152.14"/>
</g>
<!-- Node11 -->
<g id="node11" class="node">
<title>Node11</title>
<g id="a_node11"><a xlink:href="../../d4/d05/macx_2include_2xercesc_2dom_2impl_2XSDElementNSImpl_8hpp.html" target="_top" xlink:title=" ">
<polygon fill="white" stroke="black" points="1014,-0.5 1014,-41.5 1158,-41.5 1158,-0.5 1014,-0.5"/>
<text text-anchor="start" x="1022" y="-29.5" font-family="Helvetica,sans-Serif" font-size="10.00">src/libs/xerces&#45;c/macx</text>
<text text-anchor="start" x="1022" y="-18.5" font-family="Helvetica,sans-Serif" font-size="10.00">/include/xercesc/dom/impl</text>
<text text-anchor="middle" x="1086" y="-7.5" font-family="Helvetica,sans-Serif" font-size="10.00">/XSDElementNSImpl.hpp</text>
</a>
</g>
</g>
<!-- Node10&#45;&gt;Node11 -->
<g id="edge10" class="edge">
<title>Node10&#45;&gt;Node11</title>
<path fill="none" stroke="midnightblue" d="M1086,-68.3C1086,-59.3 1086,-49.65 1086,-41.51"/>
<polygon fill="midnightblue" stroke="midnightblue" points="1082.5,-68.43 1086,-78.43 1089.5,-68.43 1082.5,-68.43"/>
</g>
<!-- Node14&#45;&gt;Node3 -->
<g id="edge14" class="edge">
<title>Node14&#45;&gt;Node3</title>
<path fill="none" stroke="midnightblue" d="M154.16,-155.74C217.45,-140.74 279.38,-126.63 325.83,-116.15"/>
<polygon fill="midnightblue" stroke="midnightblue" points="153.33,-152.34 144.41,-158.06 154.95,-159.15 153.33,-152.34"/>
</g>
</g>
</svg>
