<?xml version="1.0" encoding="UTF-8" standalone="no"?>
<!DOCTYPE svg PUBLIC "-//W3C//DTD SVG 1.1//EN"
 "http://www.w3.org/Graphics/SVG/1.1/DTD/svg11.dtd">
<!-- Generated by graphviz version 2.43.0 (0)
 -->
<!-- Title: src/libs/vpatterndb/vpiece.h Pages: 1 -->
<svg width="5956pt" height="318pt"
 viewBox="0.00 0.00 5956.00 318.00" xmlns="http://www.w3.org/2000/svg" xmlns:xlink="http://www.w3.org/1999/xlink">
<g id="graph0" class="graph" transform="scale(1 1) rotate(0) translate(4 314)">
<title>src/libs/vpatterndb/vpiece.h</title>
<polygon fill="white" stroke="transparent" points="-4,4 -4,-314 5952,-314 5952,4 -4,4"/>
<!-- Node1 -->
<g id="node1" class="node">
<title>Node1</title>
<g id="a_node1"><a xlink:title=" ">
<polygon fill="#bfbfbf" stroke="black" points="4772,-279.5 4772,-309.5 4879,-309.5 4879,-279.5 4772,-279.5"/>
<text text-anchor="start" x="4780" y="-297.5" font-family="Helvetica,sans-Serif" font-size="10.00">src/libs/vpatterndb</text>
<text text-anchor="middle" x="4825.5" y="-286.5" font-family="Helvetica,sans-Serif" font-size="10.00">/vpiece.h</text>
</a>
</g>
</g>
<!-- Node2 -->
<g id="node2" class="node">
<title>Node2</title>
<g id="a_node2"><a xlink:href="../../d3/df7/vcontainer_8h.html" target="_top" xlink:title=" ">
<polygon fill="white" stroke="black" points="3899,-212.5 3899,-242.5 4006,-242.5 4006,-212.5 3899,-212.5"/>
<text text-anchor="start" x="3907" y="-230.5" font-family="Helvetica,sans-Serif" font-size="10.00">src/libs/vpatterndb</text>
<text text-anchor="middle" x="3952.5" y="-219.5" font-family="Helvetica,sans-Serif" font-size="10.00">/vcontainer.h</text>
</a>
</g>
</g>
<!-- Node1&#45;&gt;Node2 -->
<g id="edge1" class="edge">
<title>Node1&#45;&gt;Node2</title>
<path fill="none" stroke="midnightblue" d="M4761.9,-288.76C4597.23,-276.5 4159.16,-243.89 4006.15,-232.49"/>
<polygon fill="midnightblue" stroke="midnightblue" points="4761.64,-292.26 4771.88,-289.51 4762.16,-285.27 4761.64,-292.26"/>
</g>
<!-- Node36 -->
<g id="node31" class="node">
<title>Node36</title>
<g id="a_node31"><a xlink:href="../../df/d7a/vpiece_8cpp.html" target="_top" xlink:title=" ">
<polygon fill="white" stroke="black" points="1320,-67.5 1320,-97.5 1427,-97.5 1427,-67.5 1320,-67.5"/>
<text text-anchor="start" x="1328" y="-85.5" font-family="Helvetica,sans-Serif" font-size="10.00">src/libs/vpatterndb</text>
<text text-anchor="middle" x="1373.5" y="-74.5" font-family="Helvetica,sans-Serif" font-size="10.00">/vpiece.cpp</text>
</a>
</g>
</g>
<!-- Node1&#45;&gt;Node36 -->
<g id="edge51" class="edge">
<title>Node1&#45;&gt;Node36</title>
<path fill="none" stroke="midnightblue" d="M4761.44,-290.95C4485.51,-279.84 3370.98,-233.6 2456.5,-176 2002.3,-147.39 1885.28,-167.36 1435.5,-98 1432.77,-97.58 1429.98,-97.1 1427.17,-96.58"/>
<polygon fill="midnightblue" stroke="midnightblue" points="4761.54,-294.46 4771.67,-291.36 4761.82,-287.46 4761.54,-294.46"/>
</g>
<!-- Node60 -->
<g id="node40" class="node">
<title>Node60</title>
<g id="a_node40"><a xlink:href="../../d1/d3a/abstracttest_8cpp.html" target="_top" xlink:title=" ">
<polygon fill="white" stroke="black" points="4582,-145.5 4582,-164.5 4743,-164.5 4743,-145.5 4582,-145.5"/>
<text text-anchor="middle" x="4662.5" y="-152.5" font-family="Helvetica,sans-Serif" font-size="10.00">src/libs/vtest/abstracttest.cpp</text>
</a>
</g>
</g>
<!-- Node1&#45;&gt;Node60 -->
<g id="edge52" class="edge">
<title>Node1&#45;&gt;Node60</title>
<path fill="none" stroke="midnightblue" d="M4800.99,-272.82C4764.71,-242.22 4698.28,-186.19 4672.81,-164.7"/>
<polygon fill="midnightblue" stroke="midnightblue" points="4798.77,-275.53 4808.67,-279.3 4803.28,-270.18 4798.77,-275.53"/>
</g>
<!-- Node61 -->
<g id="node41" class="node">
<title>Node61</title>
<g id="a_node41"><a xlink:href="../../da/db4/piece__tablewidgetitem_8cpp.html" target="_top" xlink:title=" ">
<polygon fill="white" stroke="black" points="4761.5,-140 4761.5,-170 4889.5,-170 4889.5,-140 4761.5,-140"/>
<text text-anchor="start" x="4769.5" y="-158" font-family="Helvetica,sans-Serif" font-size="10.00">src/libs/vwidgets/piece</text>
<text text-anchor="middle" x="4825.5" y="-147" font-family="Helvetica,sans-Serif" font-size="10.00">_tablewidgetitem.cpp</text>
</a>
</g>
</g>
<!-- Node1&#45;&gt;Node61 -->
<g id="edge64" class="edge">
<title>Node1&#45;&gt;Node61</title>
<path fill="none" stroke="midnightblue" d="M4825.5,-269.29C4825.5,-240.61 4825.5,-193.78 4825.5,-170.33"/>
<polygon fill="midnightblue" stroke="midnightblue" points="4822,-269.3 4825.5,-279.3 4829,-269.3 4822,-269.3"/>
</g>
<!-- Node62 -->
<g id="node42" class="node">
<title>Node62</title>
<g id="a_node42"><a xlink:href="../../d2/de0/addpiece_8h.html" target="_top" xlink:title=" ">
<polygon fill="white" stroke="black" points="4899,-212.5 4899,-242.5 5064,-242.5 5064,-212.5 4899,-212.5"/>
<text text-anchor="start" x="4907" y="-230.5" font-family="Helvetica,sans-Serif" font-size="10.00">src/libs/vtools/undocommands</text>
<text text-anchor="middle" x="4981.5" y="-219.5" font-family="Helvetica,sans-Serif" font-size="10.00">/addpiece.h</text>
</a>
</g>
</g>
<!-- Node1&#45;&gt;Node62 -->
<g id="edge53" class="edge">
<title>Node1&#45;&gt;Node62</title>
<path fill="none" stroke="midnightblue" d="M4868.59,-275.54C4893.56,-265.14 4924.53,-252.24 4947.72,-242.58"/>
<polygon fill="midnightblue" stroke="midnightblue" points="4867.23,-272.32 4859.35,-279.4 4869.93,-278.78 4867.23,-272.32"/>
</g>
<!-- Node65 -->
<g id="node45" class="node">
<title>Node65</title>
<g id="a_node45"><a xlink:href="../../da/d10/deletepiece_8h.html" target="_top" xlink:title=" ">
<polygon fill="white" stroke="black" points="5082,-212.5 5082,-242.5 5247,-242.5 5247,-212.5 5082,-212.5"/>
<text text-anchor="start" x="5090" y="-230.5" font-family="Helvetica,sans-Serif" font-size="10.00">src/libs/vtools/undocommands</text>
<text text-anchor="middle" x="5164.5" y="-219.5" font-family="Helvetica,sans-Serif" font-size="10.00">/deletepiece.h</text>
</a>
</g>
</g>
<!-- Node1&#45;&gt;Node65 -->
<g id="edge56" class="edge">
<title>Node1&#45;&gt;Node65</title>
<path fill="none" stroke="midnightblue" d="M4889.25,-281.28C4946.65,-270.27 5031,-254.1 5091.17,-242.56"/>
<polygon fill="midnightblue" stroke="midnightblue" points="4888.38,-277.88 4879.22,-283.2 4889.7,-284.75 4888.38,-277.88"/>
</g>
<!-- Node67 -->
<g id="node47" class="node">
<title>Node67</title>
<g id="a_node47"><a xlink:href="../../d2/d6b/savepieceoptions_8h.html" target="_top" xlink:title=" ">
<polygon fill="white" stroke="black" points="5433,-212.5 5433,-242.5 5598,-242.5 5598,-212.5 5433,-212.5"/>
<text text-anchor="start" x="5441" y="-230.5" font-family="Helvetica,sans-Serif" font-size="10.00">src/libs/vtools/undocommands</text>
<text text-anchor="middle" x="5515.5" y="-219.5" font-family="Helvetica,sans-Serif" font-size="10.00">/savepieceoptions.h</text>
</a>
</g>
</g>
<!-- Node1&#45;&gt;Node67 -->
<g id="edge59" class="edge">
<title>Node1&#45;&gt;Node67</title>
<path fill="none" stroke="midnightblue" d="M4889.28,-287.49C5014.79,-275.67 5293.68,-249.4 5432.99,-236.27"/>
<polygon fill="midnightblue" stroke="midnightblue" points="4888.7,-284.03 4879.07,-288.45 4889.35,-291 4888.7,-284.03"/>
</g>
<!-- Node3 -->
<g id="node3" class="node">
<title>Node3</title>
<g id="a_node3"><a xlink:href="../../d4/dd6/vmeasurements_8h.html" target="_top" xlink:title=" ">
<polygon fill="white" stroke="black" points="4037,-145.5 4037,-164.5 4222,-164.5 4222,-145.5 4037,-145.5"/>
<text text-anchor="middle" x="4129.5" y="-152.5" font-family="Helvetica,sans-Serif" font-size="10.00">src/libs/vformat/vmeasurements.h</text>
</a>
</g>
</g>
<!-- Node2&#45;&gt;Node3 -->
<g id="edge2" class="edge">
<title>Node2&#45;&gt;Node3</title>
<path fill="none" stroke="midnightblue" d="M3997.54,-208.56C4032.98,-194.44 4080.8,-175.4 4108.08,-164.53"/>
<polygon fill="midnightblue" stroke="midnightblue" points="3995.89,-205.45 3987.89,-212.4 3998.48,-211.95 3995.89,-205.45"/>
</g>
<!-- Node4 -->
<g id="node4" class="node">
<title>Node4</title>
<g id="a_node4"><a xlink:href="../../de/db3/vmeasurements_8cpp.html" target="_top" xlink:title=" ">
<polygon fill="white" stroke="black" points="4168.5,-73 4168.5,-92 4364.5,-92 4364.5,-73 4168.5,-73"/>
<text text-anchor="middle" x="4266.5" y="-80" font-family="Helvetica,sans-Serif" font-size="10.00">src/libs/vformat/vmeasurements.cpp</text>
</a>
</g>
</g>
<!-- Node2&#45;&gt;Node4 -->
<g id="edge4" class="edge">
<title>Node2&#45;&gt;Node4</title>
<path fill="none" stroke="midnightblue" d="M3968.19,-203.8C3985.49,-179.43 4012.81,-142.98 4027.5,-134 4056.44,-116.3 4142.57,-101 4203.09,-92.01"/>
<polygon fill="midnightblue" stroke="midnightblue" points="3965.2,-201.97 3962.31,-212.16 3970.93,-205.99 3965.2,-201.97"/>
</g>
<!-- Node5 -->
<g id="node5" class="node">
<title>Node5</title>
<g id="a_node5"><a xlink:href="../../d6/de0/vlayoutpiece_8h.html" target="_top" xlink:title=" ">
<polygon fill="white" stroke="black" points="714.5,-145.5 714.5,-164.5 880.5,-164.5 880.5,-145.5 714.5,-145.5"/>
<text text-anchor="middle" x="797.5" y="-152.5" font-family="Helvetica,sans-Serif" font-size="10.00">src/libs/vlayout/vlayoutpiece.h</text>
</a>
</g>
</g>
<!-- Node2&#45;&gt;Node5 -->
<g id="edge5" class="edge">
<title>Node2&#45;&gt;Node5</title>
<path fill="none" stroke="midnightblue" d="M3888.5,-225.07C3488.32,-216.13 1332.34,-167.95 880.56,-157.86"/>
<polygon fill="midnightblue" stroke="midnightblue" points="3888.66,-228.57 3898.73,-225.3 3888.81,-221.58 3888.66,-228.57"/>
</g>
<!-- Node15 -->
<g id="node14" class="node">
<title>Node15</title>
<g id="a_node14"><a xlink:href="../../d5/d74/vabstractapplication_8h.html" target="_top" xlink:title=" ">
<polygon fill="white" stroke="red" points="2792,-145.5 2792,-164.5 2987,-164.5 2987,-145.5 2792,-145.5"/>
<text text-anchor="middle" x="2889.5" y="-152.5" font-family="Helvetica,sans-Serif" font-size="10.00">src/libs/vmisc/vabstractapplication.h</text>
</a>
</g>
</g>
<!-- Node2&#45;&gt;Node15 -->
<g id="edge16" class="edge">
<title>Node2&#45;&gt;Node15</title>
<path fill="none" stroke="midnightblue" d="M3888.64,-222.26C3709.63,-210.39 3202.1,-176.73 2987.37,-162.49"/>
<polygon fill="midnightblue" stroke="midnightblue" points="3888.48,-225.76 3898.69,-222.93 3888.94,-218.78 3888.48,-225.76"/>
</g>
<!-- Node32 -->
<g id="node27" class="node">
<title>Node32</title>
<g id="a_node27"><a xlink:href="../../d8/d70/vtextmanager_8cpp.html" target="_top" xlink:title=" ">
<polygon fill="white" stroke="black" points="3804.5,-73 3804.5,-92 3986.5,-92 3986.5,-73 3804.5,-73"/>
<text text-anchor="middle" x="3895.5" y="-80" font-family="Helvetica,sans-Serif" font-size="10.00">src/libs/vlayout/vtextmanager.cpp</text>
</a>
</g>
</g>
<!-- Node2&#45;&gt;Node32 -->
<g id="edge40" class="edge">
<title>Node2&#45;&gt;Node32</title>
<path fill="none" stroke="midnightblue" d="M3935.55,-204C3929.81,-195.56 3923.78,-185.67 3919.5,-176 3906.55,-146.72 3899.49,-109.01 3896.79,-92.23"/>
<polygon fill="midnightblue" stroke="midnightblue" points="3932.71,-206.05 3941.34,-212.2 3938.43,-202.01 3932.71,-206.05"/>
</g>
<!-- Node34 -->
<g id="node29" class="node">
<title>Node34</title>
<g id="a_node29"><a xlink:href="../../db/d11/vformula_8cpp.html" target="_top" xlink:title=" ">
<polygon fill="white" stroke="black" points="4005,-67.5 4005,-97.5 4112,-97.5 4112,-67.5 4005,-67.5"/>
<text text-anchor="start" x="4013" y="-85.5" font-family="Helvetica,sans-Serif" font-size="10.00">src/libs/vpatterndb</text>
<text text-anchor="middle" x="4058.5" y="-74.5" font-family="Helvetica,sans-Serif" font-size="10.00">/vformula.cpp</text>
</a>
</g>
</g>
<!-- Node2&#45;&gt;Node34 -->
<g id="edge43" class="edge">
<title>Node2&#45;&gt;Node34</title>
<path fill="none" stroke="midnightblue" d="M3947.52,-202.17C3944.82,-182.21 3944.33,-154.08 3957.5,-134 3968.79,-116.79 3987.81,-105.2 4006.32,-97.52"/>
<polygon fill="midnightblue" stroke="midnightblue" points="3944.11,-203 3949.17,-212.31 3951.02,-201.88 3944.11,-203"/>
</g>
<!-- Node35 -->
<g id="node30" class="node">
<title>Node35</title>
<g id="a_node30"><a xlink:href="../../d6/d46/vcontainer_8cpp.html" target="_top" xlink:title=" ">
<polygon fill="white" stroke="black" points="1445,-67.5 1445,-97.5 1552,-97.5 1552,-67.5 1445,-67.5"/>
<text text-anchor="start" x="1453" y="-85.5" font-family="Helvetica,sans-Serif" font-size="10.00">src/libs/vpatterndb</text>
<text text-anchor="middle" x="1498.5" y="-74.5" font-family="Helvetica,sans-Serif" font-size="10.00">/vcontainer.cpp</text>
</a>
</g>
</g>
<!-- Node2&#45;&gt;Node35 -->
<g id="edge45" class="edge">
<title>Node2&#45;&gt;Node35</title>
<path fill="none" stroke="midnightblue" d="M3888.43,-226.44C3658.59,-225.84 2883.77,-220.53 2782.5,-176 2758.33,-165.37 2764.73,-144.47 2740.5,-134 2620.19,-82 1691.48,-114.78 1561.5,-98 1558.49,-97.61 1555.42,-97.14 1552.33,-96.62"/>
<polygon fill="midnightblue" stroke="midnightblue" points="3888.63,-229.94 3898.64,-226.46 3888.65,-222.94 3888.63,-229.94"/>
</g>
<!-- Node2&#45;&gt;Node36 -->
<g id="edge47" class="edge">
<title>Node2&#45;&gt;Node36</title>
<path fill="none" stroke="midnightblue" d="M3888.72,-226.89C3653.55,-227.93 2843.28,-227.69 2740.5,-176 2719.04,-165.21 2728.03,-144.65 2706.5,-134 2579.86,-71.37 1575.6,-116.18 1435.5,-98 1432.76,-97.64 1429.96,-97.22 1427.15,-96.74"/>
<polygon fill="midnightblue" stroke="midnightblue" points="3888.84,-230.39 3898.82,-226.85 3888.81,-223.39 3888.84,-230.39"/>
</g>
<!-- Node38 -->
<g id="node33" class="node">
<title>Node38</title>
<g id="a_node33"><a xlink:href="../../d8/dba/vpiecenode_8cpp.html" target="_top" xlink:title=" ">
<polygon fill="white" stroke="black" points="3883,-0.5 3883,-30.5 3990,-30.5 3990,-0.5 3883,-0.5"/>
<text text-anchor="start" x="3891" y="-18.5" font-family="Helvetica,sans-Serif" font-size="10.00">src/libs/vpatterndb</text>
<text text-anchor="middle" x="3936.5" y="-7.5" font-family="Helvetica,sans-Serif" font-size="10.00">/vpiecenode.cpp</text>
</a>
</g>
</g>
<!-- Node2&#45;&gt;Node38 -->
<g id="edge46" class="edge">
<title>Node2&#45;&gt;Node38</title>
<path fill="none" stroke="midnightblue" d="M3954.89,-202.33C3958.24,-181.37 3966.28,-151.71 3985.5,-134 4031.17,-91.93 4082.67,-147.24 4120.5,-98 4128.89,-87.07 4128.85,-77.96 4120.5,-67 4104.68,-46.26 4038.68,-31.92 3990.23,-23.96"/>
<polygon fill="midnightblue" stroke="midnightblue" points="3951.4,-202 3953.53,-212.38 3958.34,-202.94 3951.4,-202"/>
</g>
<!-- Node54 -->
<g id="node36" class="node">
<title>Node54</title>
<g id="a_node36"><a xlink:href="../../d1/de1/vincrement__p_8h.html" target="_top" xlink:title=" ">
<polygon fill="white" stroke="red" points="4240,-140 4240,-170 4383,-170 4383,-140 4240,-140"/>
<text text-anchor="start" x="4248" y="-158" font-family="Helvetica,sans-Serif" font-size="10.00">src/libs/vpatterndb</text>
<text text-anchor="middle" x="4311.5" y="-147" font-family="Helvetica,sans-Serif" font-size="10.00">/variables/vincrement_p.h</text>
</a>
</g>
</g>
<!-- Node2&#45;&gt;Node54 -->
<g id="edge41" class="edge">
<title>Node2&#45;&gt;Node54</title>
<path fill="none" stroke="midnightblue" d="M4016.46,-216.05C4072.95,-206.54 4157.46,-191.64 4230.5,-176 4239,-174.18 4247.96,-172.12 4256.71,-170.02"/>
<polygon fill="midnightblue" stroke="midnightblue" points="4015.53,-212.65 4006.25,-217.76 4016.69,-219.56 4015.53,-212.65"/>
</g>
<!-- Node56 -->
<g id="node37" class="node">
<title>Node56</title>
<g id="a_node37"><a xlink:href="../../d6/dc1/vmeasurement__p_8h.html" target="_top" xlink:title=" ">
<polygon fill="white" stroke="red" points="4401.5,-140 4401.5,-170 4563.5,-170 4563.5,-140 4401.5,-140"/>
<text text-anchor="start" x="4409.5" y="-158" font-family="Helvetica,sans-Serif" font-size="10.00">src/libs/vpatterndb</text>
<text text-anchor="middle" x="4482.5" y="-147" font-family="Helvetica,sans-Serif" font-size="10.00">/variables/vmeasurement_p.h</text>
</a>
</g>
</g>
<!-- Node2&#45;&gt;Node56 -->
<g id="edge42" class="edge">
<title>Node2&#45;&gt;Node56</title>
<path fill="none" stroke="midnightblue" d="M4016.22,-221.22C4101.89,-213.66 4258.8,-198.16 4391.5,-176 4401.55,-174.32 4412.17,-172.26 4422.46,-170.1"/>
<polygon fill="midnightblue" stroke="midnightblue" points="4015.79,-217.75 4006.13,-222.1 4016.4,-224.72 4015.79,-217.75"/>
</g>
<!-- Node58 -->
<g id="node38" class="node">
<title>Node58</title>
<g id="a_node38"><a xlink:href="../../d6/d91/vnodedetail_8cpp.html" target="_top" xlink:title=" ">
<polygon fill="white" stroke="black" points="2466,-140 2466,-170 2573,-170 2573,-140 2466,-140"/>
<text text-anchor="start" x="2474" y="-158" font-family="Helvetica,sans-Serif" font-size="10.00">src/libs/vpatterndb</text>
<text text-anchor="middle" x="2519.5" y="-147" font-family="Helvetica,sans-Serif" font-size="10.00">/vnodedetail.cpp</text>
</a>
</g>
</g>
<!-- Node2&#45;&gt;Node58 -->
<g id="edge44" class="edge">
<title>Node2&#45;&gt;Node58</title>
<path fill="none" stroke="midnightblue" d="M3888.57,-226.47C3653.51,-226.01 2837.48,-221.11 2581.5,-176 2573.59,-174.61 2565.3,-172.45 2557.45,-170.05"/>
<polygon fill="midnightblue" stroke="midnightblue" points="3888.66,-229.97 3898.67,-226.49 3888.67,-222.97 3888.66,-229.97"/>
</g>
<!-- Node59 -->
<g id="node39" class="node">
<title>Node59</title>
<g id="a_node39"><a xlink:href="../../da/de1/vpiecepath_8cpp.html" target="_top" xlink:title=" ">
<polygon fill="white" stroke="black" points="2591,-140 2591,-170 2698,-170 2698,-140 2591,-140"/>
<text text-anchor="start" x="2599" y="-158" font-family="Helvetica,sans-Serif" font-size="10.00">src/libs/vpatterndb</text>
<text text-anchor="middle" x="2644.5" y="-147" font-family="Helvetica,sans-Serif" font-size="10.00">/vpiecepath.cpp</text>
</a>
</g>
</g>
<!-- Node2&#45;&gt;Node59 -->
<g id="edge48" class="edge">
<title>Node2&#45;&gt;Node59</title>
<path fill="none" stroke="midnightblue" d="M3888.55,-225.96C3668.32,-223.8 2942.3,-213.88 2712.5,-176 2703.88,-174.58 2694.81,-172.41 2686.2,-170.01"/>
<polygon fill="midnightblue" stroke="midnightblue" points="3888.62,-229.47 3898.65,-226.06 3888.68,-222.47 3888.62,-229.47"/>
</g>
<!-- Node2&#45;&gt;Node60 -->
<g id="edge49" class="edge">
<title>Node2&#45;&gt;Node60</title>
<path fill="none" stroke="midnightblue" d="M4016.46,-224.19C4129.3,-219.47 4370.84,-206.47 4572.5,-176 4591.49,-173.13 4612.45,-168.56 4629.37,-164.51"/>
<polygon fill="midnightblue" stroke="midnightblue" points="4016.13,-220.7 4006.28,-224.61 4016.41,-227.69 4016.13,-220.7"/>
</g>
<!-- Node2&#45;&gt;Node61 -->
<g id="edge50" class="edge">
<title>Node2&#45;&gt;Node61</title>
<path fill="none" stroke="midnightblue" d="M4016.46,-226.79C4152.63,-226.48 4480.85,-220.66 4751.5,-176 4760.56,-174.5 4770.11,-172.36 4779.23,-170.03"/>
<polygon fill="midnightblue" stroke="midnightblue" points="4016.21,-223.3 4006.22,-226.81 4016.22,-230.3 4016.21,-223.3"/>
</g>
<!-- Node3&#45;&gt;Node4 -->
<g id="edge3" class="edge">
<title>Node3&#45;&gt;Node4</title>
<path fill="none" stroke="midnightblue" d="M4155.13,-140.81C4182.88,-126.53 4226.33,-104.17 4249.92,-92.03"/>
<polygon fill="midnightblue" stroke="midnightblue" points="4153.32,-137.81 4146.03,-145.5 4156.52,-144.03 4153.32,-137.81"/>
</g>
<!-- Node6 -->
<g id="node6" class="node">
<title>Node6</title>
<g id="a_node6"><a xlink:href="../../dd/d66/vdxfengine_8cpp.html" target="_top" xlink:title=" ">
<polygon fill="white" stroke="black" points="215.5,-73 215.5,-92 369.5,-92 369.5,-73 215.5,-73"/>
<text text-anchor="middle" x="292.5" y="-80" font-family="Helvetica,sans-Serif" font-size="10.00">src/libs/vdxf/vdxfengine.cpp</text>
</a>
</g>
</g>
<!-- Node5&#45;&gt;Node6 -->
<g id="edge6" class="edge">
<title>Node5&#45;&gt;Node6</title>
<path fill="none" stroke="midnightblue" d="M718.06,-144.2C633.7,-133.61 496.52,-115.83 378.5,-98 366.52,-96.19 353.63,-94.1 341.57,-92.07"/>
<polygon fill="midnightblue" stroke="midnightblue" points="717.72,-147.69 728.08,-145.46 718.59,-140.74 717.72,-147.69"/>
</g>
<!-- Node7 -->
<g id="node7" class="node">
<title>Node7</title>
<g id="a_node7"><a xlink:href="../../de/da8/vbank_8cpp.html" target="_top" xlink:title=" ">
<polygon fill="white" stroke="black" points="387.5,-73 387.5,-92 531.5,-92 531.5,-73 387.5,-73"/>
<text text-anchor="middle" x="459.5" y="-80" font-family="Helvetica,sans-Serif" font-size="10.00">src/libs/vlayout/vbank.cpp</text>
</a>
</g>
</g>
<!-- Node5&#45;&gt;Node7 -->
<g id="edge7" class="edge">
<title>Node5&#45;&gt;Node7</title>
<path fill="none" stroke="midnightblue" d="M746.79,-143.42C679.58,-129.4 562.29,-104.94 500.42,-92.03"/>
<polygon fill="midnightblue" stroke="midnightblue" points="746.23,-146.88 756.73,-145.5 747.65,-140.03 746.23,-146.88"/>
</g>
<!-- Node8 -->
<g id="node8" class="node">
<title>Node8</title>
<g id="a_node8"><a xlink:href="../../df/d5d/vcontour_8cpp.html" target="_top" xlink:title=" ">
<polygon fill="white" stroke="black" points="549.5,-73 549.5,-92 705.5,-92 705.5,-73 549.5,-73"/>
<text text-anchor="middle" x="627.5" y="-80" font-family="Helvetica,sans-Serif" font-size="10.00">src/libs/vlayout/vcontour.cpp</text>
</a>
</g>
</g>
<!-- Node5&#45;&gt;Node8 -->
<g id="edge8" class="edge">
<title>Node5&#45;&gt;Node8</title>
<path fill="none" stroke="midnightblue" d="M767.48,-141.55C733.15,-127.32 677.86,-104.38 648.08,-92.03"/>
<polygon fill="midnightblue" stroke="midnightblue" points="766.42,-144.9 776.99,-145.5 769.1,-138.43 766.42,-144.9"/>
</g>
<!-- Node9 -->
<g id="node9" class="node">
<title>Node9</title>
<g id="a_node9"><a xlink:href="../../d2/d2d/vlayoutpaper__p_8h.html" target="_top" xlink:title=" ">
<polygon fill="white" stroke="black" points="890,-73 890,-92 1069,-92 1069,-73 890,-73"/>
<text text-anchor="middle" x="979.5" y="-80" font-family="Helvetica,sans-Serif" font-size="10.00">src/libs/vlayout/vlayoutpaper_p.h</text>
</a>
</g>
</g>
<!-- Node5&#45;&gt;Node9 -->
<g id="edge9" class="edge">
<title>Node5&#45;&gt;Node9</title>
<path fill="none" stroke="midnightblue" d="M829.16,-141.74C865.88,-127.51 925.45,-104.44 957.47,-92.03"/>
<polygon fill="midnightblue" stroke="midnightblue" points="827.51,-138.62 819.45,-145.5 830.04,-145.15 827.51,-138.62"/>
</g>
<!-- Node10 -->
<g id="node10" class="node">
<title>Node10</title>
<g id="a_node10"><a xlink:href="../../d1/dd1/vlayoutpaper_8cpp.html" target="_top" xlink:title=" ">
<polygon fill="white" stroke="black" points="890.5,-6 890.5,-25 1068.5,-25 1068.5,-6 890.5,-6"/>
<text text-anchor="middle" x="979.5" y="-13" font-family="Helvetica,sans-Serif" font-size="10.00">src/libs/vlayout/vlayoutpaper.cpp</text>
</a>
</g>
</g>
<!-- Node5&#45;&gt;Node10 -->
<g id="edge12" class="edge">
<title>Node5&#45;&gt;Node10</title>
<path fill="none" stroke="midnightblue" d="M890.75,-147.83C962.79,-140.89 1054.05,-126.61 1077.5,-98 1103.1,-66.77 1042.4,-38.65 1005.43,-25.07"/>
<polygon fill="midnightblue" stroke="midnightblue" points="890.35,-144.35 880.72,-148.76 891,-151.32 890.35,-144.35"/>
</g>
<!-- Node11 -->
<g id="node11" class="node">
<title>Node11</title>
<g id="a_node11"><a xlink:href="../../d3/d39/vlayoutgenerator_8cpp.html" target="_top" xlink:title=" ">
<polygon fill="white" stroke="black" points="0,-73 0,-92 197,-92 197,-73 0,-73"/>
<text text-anchor="middle" x="98.5" y="-80" font-family="Helvetica,sans-Serif" font-size="10.00">src/libs/vlayout/vlayoutgenerator.cpp</text>
</a>
</g>
</g>
<!-- Node5&#45;&gt;Node11 -->
<g id="edge11" class="edge">
<title>Node5&#45;&gt;Node11</title>
<path fill="none" stroke="midnightblue" d="M703.89,-146.26C587.26,-136.37 381.93,-118.08 206.5,-98 190.99,-96.23 174.27,-94.09 158.71,-92.01"/>
<polygon fill="midnightblue" stroke="midnightblue" points="703.94,-149.78 714.2,-147.14 704.53,-142.81 703.94,-149.78"/>
</g>
<!-- Node12 -->
<g id="node12" class="node">
<title>Node12</title>
<g id="a_node12"><a xlink:href="../../db/d5c/vposition_8h.html" target="_top" xlink:title=" ">
<polygon fill="white" stroke="red" points="723.5,-73 723.5,-92 871.5,-92 871.5,-73 723.5,-73"/>
<text text-anchor="middle" x="797.5" y="-80" font-family="Helvetica,sans-Serif" font-size="10.00">src/libs/vlayout/vposition.h</text>
</a>
</g>
</g>
<!-- Node5&#45;&gt;Node12 -->
<g id="edge13" class="edge">
<title>Node5&#45;&gt;Node12</title>
<path fill="none" stroke="midnightblue" d="M797.5,-134.94C797.5,-121.03 797.5,-102.82 797.5,-92.22"/>
<polygon fill="midnightblue" stroke="midnightblue" points="794,-135.36 797.5,-145.36 801,-135.36 794,-135.36"/>
</g>
<!-- Node14 -->
<g id="node13" class="node">
<title>Node14</title>
<g id="a_node13"><a xlink:href="../../dd/d70/vlayoutpiece_8cpp.html" target="_top" xlink:title=" ">
<polygon fill="white" stroke="black" points="1125,-73 1125,-92 1302,-92 1302,-73 1125,-73"/>
<text text-anchor="middle" x="1213.5" y="-80" font-family="Helvetica,sans-Serif" font-size="10.00">src/libs/vlayout/vlayoutpiece.cpp</text>
</a>
</g>
</g>
<!-- Node5&#45;&gt;Node14 -->
<g id="edge15" class="edge">
<title>Node5&#45;&gt;Node14</title>
<path fill="none" stroke="midnightblue" d="M857.64,-143.81C939.96,-129.86 1086.28,-105.06 1163.14,-92.03"/>
<polygon fill="midnightblue" stroke="midnightblue" points="856.95,-140.37 847.68,-145.5 858.12,-147.28 856.95,-140.37"/>
</g>
<!-- Node9&#45;&gt;Node10 -->
<g id="edge10" class="edge">
<title>Node9&#45;&gt;Node10</title>
<path fill="none" stroke="midnightblue" d="M979.5,-62.54C979.5,-50.17 979.5,-34.62 979.5,-25.13"/>
<polygon fill="midnightblue" stroke="midnightblue" points="976,-62.73 979.5,-72.73 983,-62.73 976,-62.73"/>
</g>
<!-- Node12&#45;&gt;Node10 -->
<g id="edge14" class="edge">
<title>Node12&#45;&gt;Node10</title>
<path fill="none" stroke="midnightblue" d="M831.28,-69.44C867.38,-56.54 923.71,-36.42 955.52,-25.06"/>
<polygon fill="midnightblue" stroke="midnightblue" points="829.91,-66.21 821.67,-72.87 832.26,-72.8 829.91,-66.21"/>
</g>
<!-- Node15&#45;&gt;Node14 -->
<g id="edge27" class="edge">
<title>Node15&#45;&gt;Node14</title>
<path fill="none" stroke="midnightblue" d="M2813.55,-144.27C2780.69,-140.43 2741.76,-136.38 2706.5,-134 2087.26,-92.25 1928.8,-151.98 1310.5,-98 1294.89,-96.64 1277.98,-94.38 1262.71,-92.05"/>
<polygon fill="midnightblue" stroke="midnightblue" points="2813.21,-147.75 2823.55,-145.45 2814.03,-140.8 2813.21,-147.75"/>
</g>
<!-- Node16 -->
<g id="node15" class="node">
<title>Node16</title>
<g id="a_node15"><a xlink:href="../../d4/d90/fvupdater_8cpp.html" target="_top" xlink:title=" ">
<polygon fill="white" stroke="black" points="2325,-73 2325,-92 2478,-92 2478,-73 2325,-73"/>
<text text-anchor="middle" x="2401.5" y="-80" font-family="Helvetica,sans-Serif" font-size="10.00">src/libs/fervor/fvupdater.cpp</text>
</a>
</g>
</g>
<!-- Node15&#45;&gt;Node16 -->
<g id="edge17" class="edge">
<title>Node15&#45;&gt;Node16</title>
<path fill="none" stroke="midnightblue" d="M2835.26,-143.6C2817.23,-140.32 2797.04,-136.81 2778.5,-134 2649.22,-114.4 2615.87,-117 2486.5,-98 2474.35,-96.22 2461.27,-94.09 2449.09,-92.02"/>
<polygon fill="midnightblue" stroke="midnightblue" points="2834.83,-147.08 2845.3,-145.45 2836.1,-140.2 2834.83,-147.08"/>
</g>
<!-- Node17 -->
<g id="node16" class="node">
<title>Node17</title>
<g id="a_node16"><a xlink:href="../../d9/dc8/dxiface_8cpp.html" target="_top" xlink:title=" ">
<polygon fill="white" stroke="black" points="2496,-73 2496,-92 2631,-92 2631,-73 2496,-73"/>
<text text-anchor="middle" x="2563.5" y="-80" font-family="Helvetica,sans-Serif" font-size="10.00">src/libs/vdxf/dxiface.cpp</text>
</a>
</g>
</g>
<!-- Node15&#45;&gt;Node17 -->
<g id="edge18" class="edge">
<title>Node15&#45;&gt;Node17</title>
<path fill="none" stroke="midnightblue" d="M2840.19,-143.34C2775.3,-129.3 2662.52,-104.91 2602.96,-92.03"/>
<polygon fill="midnightblue" stroke="midnightblue" points="2839.66,-146.8 2850.18,-145.5 2841.14,-139.96 2839.66,-146.8"/>
</g>
<!-- Node18 -->
<g id="node17" class="node">
<title>Node18</title>
<g id="a_node17"><a xlink:href="../../da/d75/vabstractarc__p_8h.html" target="_top" xlink:title=" ">
<polygon fill="white" stroke="red" points="2649,-67.5 2649,-97.5 2756,-97.5 2756,-67.5 2649,-67.5"/>
<text text-anchor="start" x="2657" y="-85.5" font-family="Helvetica,sans-Serif" font-size="10.00">src/libs/vgeometry</text>
<text text-anchor="middle" x="2702.5" y="-74.5" font-family="Helvetica,sans-Serif" font-size="10.00">/vabstractarc_p.h</text>
</a>
</g>
</g>
<!-- Node15&#45;&gt;Node18 -->
<g id="edge19" class="edge">
<title>Node15&#45;&gt;Node18</title>
<path fill="none" stroke="midnightblue" d="M2857.41,-141.9C2824.72,-129.58 2774.06,-110.48 2739.65,-97.51"/>
<polygon fill="midnightblue" stroke="midnightblue" points="2856.35,-145.24 2866.94,-145.5 2858.82,-138.69 2856.35,-145.24"/>
</g>
<!-- Node20 -->
<g id="node18" class="node">
<title>Node20</title>
<g id="a_node18"><a xlink:href="../../dc/da3/varc__p_8h.html" target="_top" xlink:title=" ">
<polygon fill="white" stroke="red" points="2774,-67.5 2774,-97.5 2881,-97.5 2881,-67.5 2774,-67.5"/>
<text text-anchor="start" x="2782" y="-85.5" font-family="Helvetica,sans-Serif" font-size="10.00">src/libs/vgeometry</text>
<text text-anchor="middle" x="2827.5" y="-74.5" font-family="Helvetica,sans-Serif" font-size="10.00">/varc_p.h</text>
</a>
</g>
</g>
<!-- Node15&#45;&gt;Node20 -->
<g id="edge20" class="edge">
<title>Node15&#45;&gt;Node20</title>
<path fill="none" stroke="midnightblue" d="M2875.2,-137.74C2864.52,-125.6 2850.07,-109.16 2839.88,-97.58"/>
<polygon fill="midnightblue" stroke="midnightblue" points="2872.67,-140.16 2881.9,-145.36 2877.92,-135.53 2872.67,-140.16"/>
</g>
<!-- Node22 -->
<g id="node19" class="node">
<title>Node22</title>
<g id="a_node19"><a xlink:href="../../d5/d8e/vcubicbezier__p_8h.html" target="_top" xlink:title=" ">
<polygon fill="white" stroke="red" points="2899,-67.5 2899,-97.5 3006,-97.5 3006,-67.5 2899,-67.5"/>
<text text-anchor="start" x="2907" y="-85.5" font-family="Helvetica,sans-Serif" font-size="10.00">src/libs/vgeometry</text>
<text text-anchor="middle" x="2952.5" y="-74.5" font-family="Helvetica,sans-Serif" font-size="10.00">/vcubicbezier_p.h</text>
</a>
</g>
</g>
<!-- Node15&#45;&gt;Node22 -->
<g id="edge21" class="edge">
<title>Node15&#45;&gt;Node22</title>
<path fill="none" stroke="midnightblue" d="M2904.03,-137.74C2914.88,-125.6 2929.57,-109.16 2939.92,-97.58"/>
<polygon fill="midnightblue" stroke="midnightblue" points="2901.28,-135.57 2897.23,-145.36 2906.5,-140.23 2901.28,-135.57"/>
</g>
<!-- Node24 -->
<g id="node20" class="node">
<title>Node24</title>
<g id="a_node20"><a xlink:href="../../df/dde/vellipticalarc__p_8h.html" target="_top" xlink:title=" ">
<polygon fill="white" stroke="black" points="1920,-67.5 1920,-97.5 2027,-97.5 2027,-67.5 1920,-67.5"/>
<text text-anchor="start" x="1928" y="-85.5" font-family="Helvetica,sans-Serif" font-size="10.00">src/libs/vgeometry</text>
<text text-anchor="middle" x="1973.5" y="-74.5" font-family="Helvetica,sans-Serif" font-size="10.00">/vellipticalarc_p.h</text>
</a>
</g>
</g>
<!-- Node15&#45;&gt;Node24 -->
<g id="edge22" class="edge">
<title>Node15&#45;&gt;Node24</title>
<path fill="none" stroke="midnightblue" d="M2839.42,-143.55C2820.42,-139.96 2798.54,-136.28 2778.5,-134 2450.45,-96.65 2363.56,-143.21 2036.5,-98 2033.5,-97.59 2030.43,-97.1 2027.34,-96.55"/>
<polygon fill="midnightblue" stroke="midnightblue" points="2838.87,-147.01 2849.35,-145.47 2840.19,-140.14 2838.87,-147.01"/>
</g>
<!-- Node25 -->
<g id="node21" class="node">
<title>Node25</title>
<g id="a_node21"><a xlink:href="../../d6/dfb/vellipticalarc_8cpp.html" target="_top" xlink:title=" ">
<polygon fill="white" stroke="black" points="2450,-0.5 2450,-30.5 2557,-30.5 2557,-0.5 2450,-0.5"/>
<text text-anchor="start" x="2458" y="-18.5" font-family="Helvetica,sans-Serif" font-size="10.00">src/libs/vgeometry</text>
<text text-anchor="middle" x="2503.5" y="-7.5" font-family="Helvetica,sans-Serif" font-size="10.00">/vellipticalarc.cpp</text>
</a>
</g>
</g>
<!-- Node15&#45;&gt;Node25 -->
<g id="edge24" class="edge">
<title>Node15&#45;&gt;Node25</title>
<path fill="none" stroke="midnightblue" d="M2932.24,-142.52C2979.36,-127.87 3044.75,-100.38 3014.5,-67 2984.2,-33.56 2682.1,-21.42 2557.15,-17.81"/>
<polygon fill="midnightblue" stroke="midnightblue" points="2931.08,-139.21 2922.51,-145.45 2933.09,-145.92 2931.08,-139.21"/>
</g>
<!-- Node26 -->
<g id="node22" class="node">
<title>Node26</title>
<g id="a_node22"><a xlink:href="../../d1/d76/vspline__p_8h.html" target="_top" xlink:title=" ">
<polygon fill="white" stroke="red" points="3063,-67.5 3063,-97.5 3170,-97.5 3170,-67.5 3063,-67.5"/>
<text text-anchor="start" x="3071" y="-85.5" font-family="Helvetica,sans-Serif" font-size="10.00">src/libs/vgeometry</text>
<text text-anchor="middle" x="3116.5" y="-74.5" font-family="Helvetica,sans-Serif" font-size="10.00">/vspline_p.h</text>
</a>
</g>
</g>
<!-- Node15&#45;&gt;Node26 -->
<g id="edge25" class="edge">
<title>Node15&#45;&gt;Node26</title>
<path fill="none" stroke="midnightblue" d="M2926.67,-142.46C2966.28,-130.15 3029,-110.68 3071.4,-97.51"/>
<polygon fill="midnightblue" stroke="midnightblue" points="2925.39,-139.19 2916.88,-145.5 2927.47,-145.87 2925.39,-139.19"/>
</g>
<!-- Node28 -->
<g id="node23" class="node">
<title>Node28</title>
<g id="a_node23"><a xlink:href="../../d9/d15/vabstractpiece_8cpp.html" target="_top" xlink:title=" ">
<polygon fill="white" stroke="black" points="3188.5,-73 3188.5,-92 3374.5,-92 3374.5,-73 3188.5,-73"/>
<text text-anchor="middle" x="3281.5" y="-80" font-family="Helvetica,sans-Serif" font-size="10.00">src/libs/vlayout/vabstractpiece.cpp</text>
</a>
</g>
</g>
<!-- Node15&#45;&gt;Node28 -->
<g id="edge26" class="edge">
<title>Node15&#45;&gt;Node28</title>
<path fill="none" stroke="midnightblue" d="M2946.88,-143.68C3024.58,-129.71 3161.84,-105.02 3234.05,-92.03"/>
<polygon fill="midnightblue" stroke="midnightblue" points="2946.01,-140.28 2936.78,-145.5 2947.25,-147.17 2946.01,-140.28"/>
</g>
<!-- Node29 -->
<g id="node24" class="node">
<title>Node29</title>
<g id="a_node24"><a xlink:href="../../db/d65/dialogexporttocsv_8cpp.html" target="_top" xlink:title=" ">
<polygon fill="white" stroke="black" points="3393,-67.5 3393,-97.5 3520,-97.5 3520,-67.5 3393,-67.5"/>
<text text-anchor="start" x="3401" y="-85.5" font-family="Helvetica,sans-Serif" font-size="10.00">src/libs/vmisc/dialogs</text>
<text text-anchor="middle" x="3456.5" y="-74.5" font-family="Helvetica,sans-Serif" font-size="10.00">/dialogexporttocsv.cpp</text>
</a>
</g>
</g>
<!-- Node15&#45;&gt;Node29 -->
<g id="edge28" class="edge">
<title>Node15&#45;&gt;Node29</title>
<path fill="none" stroke="midnightblue" d="M2996.04,-144.51C3096.32,-134.96 3250.54,-118.7 3383.5,-98 3386.56,-97.52 3389.7,-97.01 3392.85,-96.47"/>
<polygon fill="midnightblue" stroke="midnightblue" points="2995.53,-141.04 2985.91,-145.47 2996.19,-148.01 2995.53,-141.04"/>
</g>
<!-- Node30 -->
<g id="node25" class="node">
<title>Node30</title>
<g id="a_node25"><a xlink:href="../../d6/d0b/def_8cpp.html" target="_top" xlink:title=" ">
<polygon fill="white" stroke="black" points="3538.5,-73 3538.5,-92 3660.5,-92 3660.5,-73 3538.5,-73"/>
<text text-anchor="middle" x="3599.5" y="-80" font-family="Helvetica,sans-Serif" font-size="10.00">src/libs/vmisc/def.cpp</text>
</a>
</g>
</g>
<!-- Node15&#45;&gt;Node30 -->
<g id="edge29" class="edge">
<title>Node15&#45;&gt;Node30</title>
<path fill="none" stroke="midnightblue" d="M2997.21,-148.32C3124.57,-140.73 3342.74,-125.02 3528.5,-98 3539.33,-96.42 3551,-94.25 3561.69,-92.05"/>
<polygon fill="midnightblue" stroke="midnightblue" points="2996.84,-144.84 2987.06,-148.92 2997.25,-151.82 2996.84,-144.84"/>
</g>
<!-- Node31 -->
<g id="node26" class="node">
<title>Node31</title>
<g id="a_node26"><a xlink:href="../../d0/df6/vabstractapplication_8cpp.html" target="_top" xlink:title=" ">
<polygon fill="white" stroke="black" points="1570.5,-73 1570.5,-92 1776.5,-92 1776.5,-73 1570.5,-73"/>
<text text-anchor="middle" x="1673.5" y="-80" font-family="Helvetica,sans-Serif" font-size="10.00">src/libs/vmisc/vabstractapplication.cpp</text>
</a>
</g>
</g>
<!-- Node15&#45;&gt;Node31 -->
<g id="edge30" class="edge">
<title>Node15&#45;&gt;Node31</title>
<path fill="none" stroke="midnightblue" d="M2839.9,-143.51C2820.79,-139.88 2798.72,-136.18 2778.5,-134 2339.41,-86.73 2225.62,-134.39 1785.5,-98 1767.82,-96.54 1748.64,-94.3 1731.23,-92.01"/>
<polygon fill="midnightblue" stroke="midnightblue" points="2839.4,-146.98 2849.88,-145.45 2840.73,-140.11 2839.4,-146.98"/>
</g>
<!-- Node15&#45;&gt;Node32 -->
<g id="edge31" class="edge">
<title>Node15&#45;&gt;Node32</title>
<path fill="none" stroke="midnightblue" d="M2997.34,-150.15C3167.2,-143.44 3507.33,-127.45 3794.5,-98 3809.92,-96.42 3826.6,-94.22 3841.87,-92.02"/>
<polygon fill="midnightblue" stroke="midnightblue" points="2997,-146.66 2987.14,-150.55 2997.27,-153.65 2997,-146.66"/>
</g>
<!-- Node33 -->
<g id="node28" class="node">
<title>Node33</title>
<g id="a_node28"><a xlink:href="../../d4/d4f/pmsystems_8cpp.html" target="_top" xlink:title=" ">
<polygon fill="white" stroke="black" points="1795,-67.5 1795,-97.5 1902,-97.5 1902,-67.5 1795,-67.5"/>
<text text-anchor="start" x="1803" y="-85.5" font-family="Helvetica,sans-Serif" font-size="10.00">src/libs/vpatterndb</text>
<text text-anchor="middle" x="1848.5" y="-74.5" font-family="Helvetica,sans-Serif" font-size="10.00">/pmsystems.cpp</text>
</a>
</g>
</g>
<!-- Node15&#45;&gt;Node33 -->
<g id="edge32" class="edge">
<title>Node15&#45;&gt;Node33</title>
<path fill="none" stroke="midnightblue" d="M2839.66,-143.52C2820.61,-139.91 2798.63,-136.22 2778.5,-134 2394.72,-91.67 2293.07,-150.19 1910.5,-98 1907.76,-97.63 1904.97,-97.19 1902.15,-96.7"/>
<polygon fill="midnightblue" stroke="midnightblue" points="2839.13,-146.98 2849.62,-145.45 2840.47,-140.11 2839.13,-146.98"/>
</g>
<!-- Node15&#45;&gt;Node34 -->
<g id="edge33" class="edge">
<title>Node15&#45;&gt;Node34</title>
<path fill="none" stroke="midnightblue" d="M2997.46,-154.8C3196.03,-154.89 3632.16,-148.61 3995.5,-98 3998.5,-97.58 4001.57,-97.09 4004.66,-96.55"/>
<polygon fill="midnightblue" stroke="midnightblue" points="2997.32,-151.3 2987.32,-154.79 2997.31,-158.3 2997.32,-151.3"/>
</g>
<!-- Node15&#45;&gt;Node35 -->
<g id="edge34" class="edge">
<title>Node15&#45;&gt;Node35</title>
<path fill="none" stroke="midnightblue" d="M2840.37,-143.53C2821.16,-139.86 2798.89,-136.13 2778.5,-134 2240.29,-77.87 2098.21,-167.02 1561.5,-98 1558.49,-97.61 1555.42,-97.15 1552.33,-96.62"/>
<polygon fill="midnightblue" stroke="midnightblue" points="2839.92,-147 2850.4,-145.49 2841.26,-140.13 2839.92,-147"/>
</g>
<!-- Node15&#45;&gt;Node36 -->
<g id="edge35" class="edge">
<title>Node15&#45;&gt;Node36</title>
<path fill="none" stroke="midnightblue" d="M2825.96,-143.96C2799.59,-140.19 2768.63,-136.27 2740.5,-134 2162.16,-87.34 2010.92,-172.45 1435.5,-98 1432.76,-97.65 1429.96,-97.22 1427.15,-96.75"/>
<polygon fill="midnightblue" stroke="midnightblue" points="2825.8,-147.48 2836.2,-145.45 2826.81,-140.55 2825.8,-147.48"/>
</g>
<!-- Node37 -->
<g id="node32" class="node">
<title>Node37</title>
<g id="a_node32"><a xlink:href="../../df/dba/vpiecenode__p_8h.html" target="_top" xlink:title=" ">
<polygon fill="white" stroke="black" points="3679,-67.5 3679,-97.5 3786,-97.5 3786,-67.5 3679,-67.5"/>
<text text-anchor="start" x="3687" y="-85.5" font-family="Helvetica,sans-Serif" font-size="10.00">src/libs/vpatterndb</text>
<text text-anchor="middle" x="3732.5" y="-74.5" font-family="Helvetica,sans-Serif" font-size="10.00">/vpiecenode_p.h</text>
</a>
</g>
</g>
<!-- Node15&#45;&gt;Node37 -->
<g id="edge36" class="edge">
<title>Node15&#45;&gt;Node37</title>
<path fill="none" stroke="midnightblue" d="M2997.21,-151.52C3148.22,-146.86 3431.12,-133.77 3669.5,-98 3672.61,-97.53 3675.79,-97 3678.99,-96.41"/>
<polygon fill="midnightblue" stroke="midnightblue" points="2996.9,-148.03 2987.01,-151.83 2997.11,-155.03 2996.9,-148.03"/>
</g>
<!-- Node39 -->
<g id="node34" class="node">
<title>Node39</title>
<g id="a_node34"><a xlink:href="../../de/d3e/vtranslatevars_8cpp.html" target="_top" xlink:title=" ">
<polygon fill="white" stroke="black" points="2045.5,-67.5 2045.5,-97.5 2155.5,-97.5 2155.5,-67.5 2045.5,-67.5"/>
<text text-anchor="start" x="2053.5" y="-85.5" font-family="Helvetica,sans-Serif" font-size="10.00">src/libs/vpatterndb</text>
<text text-anchor="middle" x="2100.5" y="-74.5" font-family="Helvetica,sans-Serif" font-size="10.00">/vtranslatevars.cpp</text>
</a>
</g>
</g>
<!-- Node15&#45;&gt;Node39 -->
<g id="edge38" class="edge">
<title>Node15&#45;&gt;Node39</title>
<path fill="none" stroke="midnightblue" d="M2838.93,-143.57C2820.04,-140.02 2798.36,-136.36 2778.5,-134 2507.06,-101.71 2435.16,-136.33 2164.5,-98 2161.57,-97.58 2158.57,-97.1 2155.55,-96.58"/>
<polygon fill="midnightblue" stroke="midnightblue" points="2838.34,-147.02 2848.82,-145.46 2839.66,-140.15 2838.34,-147.02"/>
</g>
<!-- Node40 -->
<g id="node35" class="node">
<title>Node40</title>
<g id="a_node35"><a xlink:href="../../df/d40/export__format__combobox_8cpp.html" target="_top" xlink:title=" ">
<polygon fill="white" stroke="black" points="2174,-67.5 2174,-97.5 2307,-97.5 2307,-67.5 2174,-67.5"/>
<text text-anchor="start" x="2182" y="-85.5" font-family="Helvetica,sans-Serif" font-size="10.00">src/libs/vwidgets/export</text>
<text text-anchor="middle" x="2240.5" y="-74.5" font-family="Helvetica,sans-Serif" font-size="10.00">_format_combobox.cpp</text>
</a>
</g>
</g>
<!-- Node15&#45;&gt;Node40 -->
<g id="edge39" class="edge">
<title>Node15&#45;&gt;Node40</title>
<path fill="none" stroke="midnightblue" d="M2837.71,-143.55C2819.1,-140.1 2797.92,-136.5 2778.5,-134 2573.79,-107.67 2520.04,-125.63 2315.5,-98 2312.74,-97.63 2309.93,-97.22 2307.09,-96.78"/>
<polygon fill="midnightblue" stroke="midnightblue" points="2837.27,-147.03 2847.75,-145.45 2838.57,-140.15 2837.27,-147.03"/>
</g>
<!-- Node24&#45;&gt;Node25 -->
<g id="edge23" class="edge">
<title>Node24&#45;&gt;Node25</title>
<path fill="none" stroke="midnightblue" d="M2037.25,-67.01C2192.86,-41.28 2364.77,-26.58 2449.99,-20.21"/>
<polygon fill="midnightblue" stroke="midnightblue" points="2036.31,-63.62 2027.03,-68.73 2037.47,-70.53 2036.31,-63.62"/>
</g>
<!-- Node37&#45;&gt;Node38 -->
<g id="edge37" class="edge">
<title>Node37&#45;&gt;Node38</title>
<path fill="none" stroke="midnightblue" d="M3786.46,-64.31C3819.46,-53.79 3861.16,-40.51 3892.21,-30.61"/>
<polygon fill="midnightblue" stroke="midnightblue" points="3784.98,-61.11 3776.51,-67.48 3787.1,-67.77 3784.98,-61.11"/>
</g>
<!-- Node63 -->
<g id="node43" class="node">
<title>Node63</title>
<g id="a_node43"><a xlink:href="../../d8/dea/pattern__piece__tool_8cpp.html" target="_top" xlink:title=" ">
<polygon fill="white" stroke="black" points="5091,-140 5091,-170 5222,-170 5222,-140 5091,-140"/>
<text text-anchor="start" x="5099" y="-158" font-family="Helvetica,sans-Serif" font-size="10.00">src/libs/vtools/tools</text>
<text text-anchor="middle" x="5156.5" y="-147" font-family="Helvetica,sans-Serif" font-size="10.00">/pattern_piece_tool.cpp</text>
</a>
</g>
</g>
<!-- Node62&#45;&gt;Node63 -->
<g id="edge54" class="edge">
<title>Node62&#45;&gt;Node63</title>
<path fill="none" stroke="midnightblue" d="M5025.8,-208.65C5055.49,-196.69 5094.04,-181.16 5121.57,-170.07"/>
<polygon fill="midnightblue" stroke="midnightblue" points="5024.46,-205.42 5016.49,-212.4 5027.08,-211.91 5024.46,-205.42"/>
</g>
<!-- Node64 -->
<g id="node44" class="node">
<title>Node64</title>
<g id="a_node44"><a xlink:href="../../dd/d33/addpiece_8cpp.html" target="_top" xlink:title=" ">
<polygon fill="white" stroke="black" points="4908,-140 4908,-170 5073,-170 5073,-140 4908,-140"/>
<text text-anchor="start" x="4916" y="-158" font-family="Helvetica,sans-Serif" font-size="10.00">src/libs/vtools/undocommands</text>
<text text-anchor="middle" x="4990.5" y="-147" font-family="Helvetica,sans-Serif" font-size="10.00">/addpiece.cpp</text>
</a>
</g>
</g>
<!-- Node62&#45;&gt;Node64 -->
<g id="edge55" class="edge">
<title>Node62&#45;&gt;Node64</title>
<path fill="none" stroke="midnightblue" d="M4984.6,-202.23C4985.96,-191.57 4987.51,-179.41 4988.68,-170.25"/>
<polygon fill="midnightblue" stroke="midnightblue" points="4981.12,-201.87 4983.32,-212.23 4988.06,-202.76 4981.12,-201.87"/>
</g>
<!-- Node65&#45;&gt;Node63 -->
<g id="edge57" class="edge">
<title>Node65&#45;&gt;Node63</title>
<path fill="none" stroke="midnightblue" d="M5161.75,-202.23C5160.54,-191.57 5159.16,-179.41 5158.12,-170.25"/>
<polygon fill="midnightblue" stroke="midnightblue" points="5158.28,-202.69 5162.88,-212.23 5165.23,-201.9 5158.28,-202.69"/>
</g>
<!-- Node66 -->
<g id="node46" class="node">
<title>Node66</title>
<g id="a_node46"><a xlink:href="../../da/d5c/deletepiece_8cpp.html" target="_top" xlink:title=" ">
<polygon fill="white" stroke="black" points="5240,-140 5240,-170 5405,-170 5405,-140 5240,-140"/>
<text text-anchor="start" x="5248" y="-158" font-family="Helvetica,sans-Serif" font-size="10.00">src/libs/vtools/undocommands</text>
<text text-anchor="middle" x="5322.5" y="-147" font-family="Helvetica,sans-Serif" font-size="10.00">/deletepiece.cpp</text>
</a>
</g>
</g>
<!-- Node65&#45;&gt;Node66 -->
<g id="edge58" class="edge">
<title>Node65&#45;&gt;Node66</title>
<path fill="none" stroke="midnightblue" d="M5205.54,-208.19C5232.2,-196.29 5266.43,-181.02 5290.96,-170.07"/>
<polygon fill="midnightblue" stroke="midnightblue" points="5203.8,-205.13 5196.09,-212.4 5206.65,-211.52 5203.8,-205.13"/>
</g>
<!-- Node67&#45;&gt;Node63 -->
<g id="edge62" class="edge">
<title>Node67&#45;&gt;Node63</title>
<path fill="none" stroke="midnightblue" d="M5422.91,-212.23C5366.96,-203.07 5294.35,-190.25 5230.5,-176 5222.58,-174.23 5214.23,-172.17 5206.11,-170.06"/>
<polygon fill="midnightblue" stroke="midnightblue" points="5422.37,-215.68 5432.8,-213.83 5423.49,-208.77 5422.37,-215.68"/>
</g>
<!-- Node68 -->
<g id="node48" class="node">
<title>Node68</title>
<g id="a_node48"><a xlink:href="../../d9/d3a/anchorpoint__tool_8cpp.html" target="_top" xlink:title=" ">
<polygon fill="white" stroke="black" points="5809,-134.5 5809,-175.5 5948,-175.5 5948,-134.5 5809,-134.5"/>
<text text-anchor="start" x="5817" y="-163.5" font-family="Helvetica,sans-Serif" font-size="10.00">src/libs/vtools/tools</text>
<text text-anchor="start" x="5817" y="-152.5" font-family="Helvetica,sans-Serif" font-size="10.00">/nodeDetails/anchorpoint</text>
<text text-anchor="middle" x="5878.5" y="-141.5" font-family="Helvetica,sans-Serif" font-size="10.00">_tool.cpp</text>
</a>
</g>
</g>
<!-- Node67&#45;&gt;Node68 -->
<g id="edge60" class="edge">
<title>Node67&#45;&gt;Node68</title>
<path fill="none" stroke="midnightblue" d="M5608.02,-211.93C5663.95,-202.66 5736.56,-189.84 5800.5,-176 5803.23,-175.41 5806.01,-174.79 5808.82,-174.14"/>
<polygon fill="midnightblue" stroke="midnightblue" points="5607.43,-208.48 5598.14,-213.55 5608.57,-215.38 5607.43,-208.48"/>
</g>
<!-- Node69 -->
<g id="node49" class="node">
<title>Node69</title>
<g id="a_node49"><a xlink:href="../../d3/dd9/vtoolinternalpath_8cpp.html" target="_top" xlink:title=" ">
<polygon fill="white" stroke="black" points="5423,-140 5423,-170 5608,-170 5608,-140 5423,-140"/>
<text text-anchor="start" x="5431" y="-158" font-family="Helvetica,sans-Serif" font-size="10.00">src/libs/vtools/tools</text>
<text text-anchor="middle" x="5515.5" y="-147" font-family="Helvetica,sans-Serif" font-size="10.00">/nodeDetails/vtoolinternalpath.cpp</text>
</a>
</g>
</g>
<!-- Node67&#45;&gt;Node69 -->
<g id="edge61" class="edge">
<title>Node67&#45;&gt;Node69</title>
<path fill="none" stroke="midnightblue" d="M5515.5,-202.23C5515.5,-191.57 5515.5,-179.41 5515.5,-170.25"/>
<polygon fill="midnightblue" stroke="midnightblue" points="5512,-202.23 5515.5,-212.23 5519,-202.23 5512,-202.23"/>
</g>
<!-- Node70 -->
<g id="node50" class="node">
<title>Node70</title>
<g id="a_node50"><a xlink:href="../../d1/d05/savepieceoptions_8cpp.html" target="_top" xlink:title=" ">
<polygon fill="white" stroke="black" points="5626,-140 5626,-170 5791,-170 5791,-140 5626,-140"/>
<text text-anchor="start" x="5634" y="-158" font-family="Helvetica,sans-Serif" font-size="10.00">src/libs/vtools/undocommands</text>
<text text-anchor="middle" x="5708.5" y="-147" font-family="Helvetica,sans-Serif" font-size="10.00">/savepieceoptions.cpp</text>
</a>
</g>
</g>
<!-- Node67&#45;&gt;Node70 -->
<g id="edge63" class="edge">
<title>Node67&#45;&gt;Node70</title>
<path fill="none" stroke="midnightblue" d="M5563.5,-208.96C5596.36,-196.96 5639.36,-181.26 5669.97,-170.07"/>
<polygon fill="midnightblue" stroke="midnightblue" points="5562.28,-205.68 5554.09,-212.4 5564.69,-212.26 5562.28,-205.68"/>
</g>
</g>
</svg>
