<?xml version="1.0" encoding="UTF-8" standalone="no"?>
<!DOCTYPE svg PUBLIC "-//W3C//DTD SVG 1.1//EN"
 "http://www.w3.org/Graphics/SVG/1.1/DTD/svg11.dtd">
<!-- Generated by graphviz version 2.43.0 (0)
 -->
<!-- Title: src/libs/vpatterndb/vpiece.h Pages: 1 -->
<svg width="4569pt" height="318pt"
 viewBox="0.00 0.00 4568.50 318.00" xmlns="http://www.w3.org/2000/svg" xmlns:xlink="http://www.w3.org/1999/xlink">
<g id="graph0" class="graph" transform="scale(1 1) rotate(0) translate(4 314)">
<title>src/libs/vpatterndb/vpiece.h</title>
<polygon fill="white" stroke="transparent" points="-4,4 -4,-314 4564.5,-314 4564.5,4 -4,4"/>
<!-- Node1 -->
<g id="node1" class="node">
<title>Node1</title>
<g id="a_node1"><a xlink:title=" ">
<polygon fill="#bfbfbf" stroke="black" points="3438.5,-279.5 3438.5,-309.5 3545.5,-309.5 3545.5,-279.5 3438.5,-279.5"/>
<text text-anchor="start" x="3446.5" y="-297.5" font-family="Helvetica,sans-Serif" font-size="10.00">src/libs/vpatterndb</text>
<text text-anchor="middle" x="3492" y="-286.5" font-family="Helvetica,sans-Serif" font-size="10.00">/vpiece.h</text>
</a>
</g>
</g>
<!-- Node2 -->
<g id="node2" class="node">
<title>Node2</title>
<g id="a_node2"><a xlink:href="../../df/d7a/vpiece_8cpp.html" target="_top" xlink:title=" ">
<polygon fill="white" stroke="black" points="4256.5,-67.5 4256.5,-97.5 4363.5,-97.5 4363.5,-67.5 4256.5,-67.5"/>
<text text-anchor="start" x="4264.5" y="-85.5" font-family="Helvetica,sans-Serif" font-size="10.00">src/libs/vpatterndb</text>
<text text-anchor="middle" x="4310" y="-74.5" font-family="Helvetica,sans-Serif" font-size="10.00">/vpiece.cpp</text>
</a>
</g>
</g>
<!-- Node1&#45;&gt;Node2 -->
<g id="edge1" class="edge">
<title>Node1&#45;&gt;Node2</title>
<path fill="none" stroke="midnightblue" d="M3486.46,-269.46C3479.89,-234.08 3474.03,-168.47 3511,-134 3570.96,-78.08 4166.81,-109.38 4248,-98 4250.74,-97.62 4253.53,-97.17 4256.34,-96.68"/>
<polygon fill="midnightblue" stroke="midnightblue" points="3483.06,-270.3 3488.47,-279.4 3489.92,-268.91 3483.06,-270.3"/>
</g>
<!-- Node3 -->
<g id="node3" class="node">
<title>Node3</title>
<g id="a_node3"><a xlink:href="../../d3/df7/vcontainer_8h.html" target="_top" xlink:title=" ">
<polygon fill="white" stroke="black" points="2161.5,-212.5 2161.5,-242.5 2268.5,-242.5 2268.5,-212.5 2161.5,-212.5"/>
<text text-anchor="start" x="2169.5" y="-230.5" font-family="Helvetica,sans-Serif" font-size="10.00">src/libs/vpatterndb</text>
<text text-anchor="middle" x="2215" y="-219.5" font-family="Helvetica,sans-Serif" font-size="10.00">/vcontainer.h</text>
</a>
</g>
</g>
<!-- Node1&#45;&gt;Node3 -->
<g id="edge2" class="edge">
<title>Node1&#45;&gt;Node3</title>
<path fill="none" stroke="midnightblue" d="M3428.2,-290.25C3206.78,-278.98 2473.89,-241.68 2268.77,-231.24"/>
<polygon fill="midnightblue" stroke="midnightblue" points="3428.19,-293.76 3438.35,-290.77 3428.54,-286.77 3428.19,-293.76"/>
</g>
<!-- Node60 -->
<g id="node40" class="node">
<title>Node60</title>
<g id="a_node40"><a xlink:href="../../d1/d3a/abstracttest_8cpp.html" target="_top" xlink:title=" ">
<polygon fill="white" stroke="black" points="3156.5,-145.5 3156.5,-164.5 3317.5,-164.5 3317.5,-145.5 3156.5,-145.5"/>
<text text-anchor="middle" x="3237" y="-152.5" font-family="Helvetica,sans-Serif" font-size="10.00">src/libs/vtest/abstracttest.cpp</text>
</a>
</g>
</g>
<!-- Node1&#45;&gt;Node60 -->
<g id="edge52" class="edge">
<title>Node1&#45;&gt;Node60</title>
<path fill="none" stroke="midnightblue" d="M3456.8,-274.52C3400.68,-244.26 3293.18,-186.29 3252.83,-164.53"/>
<polygon fill="midnightblue" stroke="midnightblue" points="3455.21,-277.64 3465.67,-279.3 3458.53,-271.48 3455.21,-277.64"/>
</g>
<!-- Node61 -->
<g id="node41" class="node">
<title>Node61</title>
<g id="a_node41"><a xlink:href="../../da/db4/piece__tablewidgetitem_8cpp.html" target="_top" xlink:title=" ">
<polygon fill="white" stroke="black" points="3336,-140 3336,-170 3464,-170 3464,-140 3336,-140"/>
<text text-anchor="start" x="3344" y="-158" font-family="Helvetica,sans-Serif" font-size="10.00">src/libs/vwidgets/piece</text>
<text text-anchor="middle" x="3400" y="-147" font-family="Helvetica,sans-Serif" font-size="10.00">_tablewidgetitem.cpp</text>
</a>
</g>
</g>
<!-- Node1&#45;&gt;Node61 -->
<g id="edge64" class="edge">
<title>Node1&#45;&gt;Node61</title>
<path fill="none" stroke="midnightblue" d="M3476.8,-270.79C3457.72,-242.26 3425.55,-194.19 3409.59,-170.33"/>
<polygon fill="midnightblue" stroke="midnightblue" points="3474.03,-272.94 3482.5,-279.3 3479.85,-269.05 3474.03,-272.94"/>
</g>
<!-- Node62 -->
<g id="node42" class="node">
<title>Node62</title>
<g id="a_node42"><a xlink:href="../../d2/de0/addpiece_8h.html" target="_top" xlink:title=" ">
<polygon fill="white" stroke="black" points="3520.5,-212.5 3520.5,-242.5 3685.5,-242.5 3685.5,-212.5 3520.5,-212.5"/>
<text text-anchor="start" x="3528.5" y="-230.5" font-family="Helvetica,sans-Serif" font-size="10.00">src/libs/vtools/undocommands</text>
<text text-anchor="middle" x="3603" y="-219.5" font-family="Helvetica,sans-Serif" font-size="10.00">/addpiece.h</text>
</a>
</g>
</g>
<!-- Node1&#45;&gt;Node62 -->
<g id="edge53" class="edge">
<title>Node1&#45;&gt;Node62</title>
<path fill="none" stroke="midnightblue" d="M3524.8,-274.3C3542.16,-264.12 3563.12,-251.85 3578.96,-242.58"/>
<polygon fill="midnightblue" stroke="midnightblue" points="3522.95,-271.32 3516.09,-279.4 3526.48,-277.36 3522.95,-271.32"/>
</g>
<!-- Node65 -->
<g id="node45" class="node">
<title>Node65</title>
<g id="a_node45"><a xlink:href="../../da/d10/deletepiece_8h.html" target="_top" xlink:title=" ">
<polygon fill="white" stroke="black" points="3703.5,-212.5 3703.5,-242.5 3868.5,-242.5 3868.5,-212.5 3703.5,-212.5"/>
<text text-anchor="start" x="3711.5" y="-230.5" font-family="Helvetica,sans-Serif" font-size="10.00">src/libs/vtools/undocommands</text>
<text text-anchor="middle" x="3786" y="-219.5" font-family="Helvetica,sans-Serif" font-size="10.00">/deletepiece.h</text>
</a>
</g>
</g>
<!-- Node1&#45;&gt;Node65 -->
<g id="edge56" class="edge">
<title>Node1&#45;&gt;Node65</title>
<path fill="none" stroke="midnightblue" d="M3555.51,-279.46C3604.93,-268.53 3673.17,-253.45 3722.56,-242.53"/>
<polygon fill="midnightblue" stroke="midnightblue" points="3554.59,-276.08 3545.58,-281.65 3556.1,-282.91 3554.59,-276.08"/>
</g>
<!-- Node67 -->
<g id="node47" class="node">
<title>Node67</title>
<g id="a_node47"><a xlink:href="../../d2/d6b/savepieceoptions_8h.html" target="_top" xlink:title=" ">
<polygon fill="white" stroke="black" points="4045.5,-212.5 4045.5,-242.5 4210.5,-242.5 4210.5,-212.5 4045.5,-212.5"/>
<text text-anchor="start" x="4053.5" y="-230.5" font-family="Helvetica,sans-Serif" font-size="10.00">src/libs/vtools/undocommands</text>
<text text-anchor="middle" x="4128" y="-219.5" font-family="Helvetica,sans-Serif" font-size="10.00">/savepieceoptions.h</text>
</a>
</g>
</g>
<!-- Node1&#45;&gt;Node67 -->
<g id="edge59" class="edge">
<title>Node1&#45;&gt;Node67</title>
<path fill="none" stroke="midnightblue" d="M3555.81,-286.98C3671.76,-275.13 3916.85,-250.08 4045.38,-236.94"/>
<polygon fill="midnightblue" stroke="midnightblue" points="3555.27,-283.52 3545.68,-288.01 3555.98,-290.48 3555.27,-283.52"/>
</g>
<!-- Node3&#45;&gt;Node2 -->
<g id="edge48" class="edge">
<title>Node3&#45;&gt;Node2</title>
<path fill="none" stroke="midnightblue" d="M2278.64,-224.69C2445.22,-219.57 2885.36,-203.59 2945,-176 2968.68,-165.05 2962.11,-144.47 2986,-134 3114.49,-77.7 4108.89,-116.06 4248,-98 4250.74,-97.64 4253.54,-97.22 4256.35,-96.74"/>
<polygon fill="midnightblue" stroke="midnightblue" points="2278.43,-221.19 2268.54,-224.99 2278.64,-228.19 2278.43,-221.19"/>
</g>
<!-- Node4 -->
<g id="node4" class="node">
<title>Node4</title>
<g id="a_node4"><a xlink:href="../../d4/dd6/vmeasurements_8h.html" target="_top" xlink:title=" ">
<polygon fill="white" stroke="black" points="874.5,-145.5 874.5,-164.5 1059.5,-164.5 1059.5,-145.5 874.5,-145.5"/>
<text text-anchor="middle" x="967" y="-152.5" font-family="Helvetica,sans-Serif" font-size="10.00">src/libs/vformat/vmeasurements.h</text>
</a>
</g>
</g>
<!-- Node3&#45;&gt;Node4 -->
<g id="edge3" class="edge">
<title>Node3&#45;&gt;Node4</title>
<path fill="none" stroke="midnightblue" d="M2151.35,-227.02C1977.34,-227.74 1479.31,-224.99 1069,-176 1047.14,-173.39 1022.95,-168.73 1003.62,-164.56"/>
<polygon fill="midnightblue" stroke="midnightblue" points="2151.38,-230.52 2161.36,-226.98 2151.34,-223.52 2151.38,-230.52"/>
</g>
<!-- Node5 -->
<g id="node5" class="node">
<title>Node5</title>
<g id="a_node5"><a xlink:href="../../de/db3/vmeasurements_8cpp.html" target="_top" xlink:title=" ">
<polygon fill="white" stroke="black" points="0,-73 0,-92 196,-92 196,-73 0,-73"/>
<text text-anchor="middle" x="98" y="-80" font-family="Helvetica,sans-Serif" font-size="10.00">src/libs/vformat/vmeasurements.cpp</text>
</a>
</g>
</g>
<!-- Node3&#45;&gt;Node5 -->
<g id="edge5" class="edge">
<title>Node3&#45;&gt;Node5</title>
<path fill="none" stroke="midnightblue" d="M2150.92,-226.73C1873.64,-227.44 775.94,-226.87 435,-176 314.69,-158.05 176.11,-111.48 121.69,-92.13"/>
<polygon fill="midnightblue" stroke="midnightblue" points="2151.21,-230.23 2161.2,-226.71 2151.19,-223.23 2151.21,-230.23"/>
</g>
<!-- Node6 -->
<g id="node6" class="node">
<title>Node6</title>
<g id="a_node6"><a xlink:href="../../d6/de0/vlayoutpiece_8h.html" target="_top" xlink:title=" ">
<polygon fill="white" stroke="black" points="1078,-145.5 1078,-164.5 1244,-164.5 1244,-145.5 1078,-145.5"/>
<text text-anchor="middle" x="1161" y="-152.5" font-family="Helvetica,sans-Serif" font-size="10.00">src/libs/vlayout/vlayoutpiece.h</text>
</a>
</g>
</g>
<!-- Node3&#45;&gt;Node6 -->
<g id="edge6" class="edge">
<title>Node3&#45;&gt;Node6</title>
<path fill="none" stroke="midnightblue" d="M2151.37,-224.08C2006.47,-218.29 1640.89,-202.16 1336,-176 1300.2,-172.93 1260.4,-168.46 1227.81,-164.53"/>
<polygon fill="midnightblue" stroke="midnightblue" points="2151.28,-227.58 2161.42,-224.48 2151.56,-220.58 2151.28,-227.58"/>
</g>
<!-- Node16 -->
<g id="node15" class="node">
<title>Node16</title>
<g id="a_node15"><a xlink:href="../../d8/d70/vtextmanager_8cpp.html" target="_top" xlink:title=" ">
<polygon fill="white" stroke="black" points="1573,-73 1573,-92 1755,-92 1755,-73 1573,-73"/>
<text text-anchor="middle" x="1664" y="-80" font-family="Helvetica,sans-Serif" font-size="10.00">src/libs/vlayout/vtextmanager.cpp</text>
</a>
</g>
</g>
<!-- Node3&#45;&gt;Node16 -->
<g id="edge17" class="edge">
<title>Node3&#45;&gt;Node16</title>
<path fill="none" stroke="midnightblue" d="M2151.48,-210.01C2033.94,-179.51 1786.39,-115.26 1697.04,-92.08"/>
<polygon fill="midnightblue" stroke="midnightblue" points="2150.86,-213.47 2161.42,-212.59 2152.62,-206.69 2150.86,-213.47"/>
</g>
<!-- Node17 -->
<g id="node16" class="node">
<title>Node17</title>
<g id="a_node16"><a xlink:href="../../d5/d74/vabstractapplication_8h.html" target="_top" xlink:title=" ">
<polygon fill="white" stroke="red" points="2668.5,-145.5 2668.5,-164.5 2863.5,-164.5 2863.5,-145.5 2668.5,-145.5"/>
<text text-anchor="middle" x="2766" y="-152.5" font-family="Helvetica,sans-Serif" font-size="10.00">src/libs/vmisc/vabstractapplication.h</text>
</a>
</g>
</g>
<!-- Node3&#45;&gt;Node17 -->
<g id="edge18" class="edge">
<title>Node3&#45;&gt;Node17</title>
<path fill="none" stroke="midnightblue" d="M2278.74,-218.35C2383.88,-204.89 2592.66,-178.18 2699.56,-164.5"/>
<polygon fill="midnightblue" stroke="midnightblue" points="2278.06,-214.9 2268.58,-219.64 2278.95,-221.85 2278.06,-214.9"/>
</g>
<!-- Node35 -->
<g id="node30" class="node">
<title>Node35</title>
<g id="a_node30"><a xlink:href="../../d6/d46/vcontainer_8cpp.html" target="_top" xlink:title=" ">
<polygon fill="white" stroke="black" points="4006.5,-67.5 4006.5,-97.5 4113.5,-97.5 4113.5,-67.5 4006.5,-67.5"/>
<text text-anchor="start" x="4014.5" y="-85.5" font-family="Helvetica,sans-Serif" font-size="10.00">src/libs/vpatterndb</text>
<text text-anchor="middle" x="4060" y="-74.5" font-family="Helvetica,sans-Serif" font-size="10.00">/vcontainer.cpp</text>
</a>
</g>
</g>
<!-- Node3&#45;&gt;Node35 -->
<g id="edge44" class="edge">
<title>Node3&#45;&gt;Node35</title>
<path fill="none" stroke="midnightblue" d="M2279.03,-227.08C2422.91,-227.5 2767.41,-223.36 2872,-176 2896.34,-164.98 2890.43,-144.49 2915,-134 3025.63,-86.78 3877.72,-113.56 3997,-98 4000,-97.61 4003.08,-97.14 4006.17,-96.61"/>
<polygon fill="midnightblue" stroke="midnightblue" points="2278.62,-223.58 2268.61,-227.04 2278.6,-230.58 2278.62,-223.58"/>
</g>
<!-- Node36 -->
<g id="node31" class="node">
<title>Node36</title>
<g id="a_node31"><a xlink:href="../../db/d11/vformula_8cpp.html" target="_top" xlink:title=" ">
<polygon fill="white" stroke="black" points="4131.5,-67.5 4131.5,-97.5 4238.5,-97.5 4238.5,-67.5 4131.5,-67.5"/>
<text text-anchor="start" x="4139.5" y="-85.5" font-family="Helvetica,sans-Serif" font-size="10.00">src/libs/vpatterndb</text>
<text text-anchor="middle" x="4185" y="-74.5" font-family="Helvetica,sans-Serif" font-size="10.00">/vformula.cpp</text>
</a>
</g>
</g>
<!-- Node3&#45;&gt;Node36 -->
<g id="edge45" class="edge">
<title>Node3&#45;&gt;Node36</title>
<path fill="none" stroke="midnightblue" d="M2278.99,-227.21C2428.44,-228.03 2796.2,-224.84 2908,-176 2933.07,-165.05 2927.71,-144.42 2953,-134 3073.15,-84.49 3993.12,-114.65 4122,-98 4125.01,-97.61 4128.08,-97.14 4131.17,-96.62"/>
<polygon fill="midnightblue" stroke="midnightblue" points="2278.64,-223.71 2268.62,-227.15 2278.59,-230.71 2278.64,-223.71"/>
</g>
<!-- Node38 -->
<g id="node33" class="node">
<title>Node38</title>
<g id="a_node33"><a xlink:href="../../d8/dba/vpiecenode_8cpp.html" target="_top" xlink:title=" ">
<polygon fill="white" stroke="black" points="1709.5,-0.5 1709.5,-30.5 1816.5,-30.5 1816.5,-0.5 1709.5,-0.5"/>
<text text-anchor="start" x="1717.5" y="-18.5" font-family="Helvetica,sans-Serif" font-size="10.00">src/libs/vpatterndb</text>
<text text-anchor="middle" x="1763" y="-7.5" font-family="Helvetica,sans-Serif" font-size="10.00">/vpiecenode.cpp</text>
</a>
</g>
</g>
<!-- Node3&#45;&gt;Node38 -->
<g id="edge47" class="edge">
<title>Node3&#45;&gt;Node38</title>
<path fill="none" stroke="midnightblue" d="M2151.18,-227.03C1971.75,-227.03 1469.32,-216.28 1368,-98 1359.04,-87.54 1358.9,-77.34 1368,-67 1390.21,-41.77 1606.68,-25.73 1709.41,-19.47"/>
<polygon fill="midnightblue" stroke="midnightblue" points="2151.26,-230.53 2161.26,-227.02 2151.25,-223.53 2151.26,-230.53"/>
</g>
<!-- Node54 -->
<g id="node36" class="node">
<title>Node54</title>
<g id="a_node36"><a xlink:href="../../d1/de1/vincrement__p_8h.html" target="_top" xlink:title=" ">
<polygon fill="white" stroke="red" points="2995.5,-140 2995.5,-170 3138.5,-170 3138.5,-140 2995.5,-140"/>
<text text-anchor="start" x="3003.5" y="-158" font-family="Helvetica,sans-Serif" font-size="10.00">src/libs/vpatterndb</text>
<text text-anchor="middle" x="3067" y="-147" font-family="Helvetica,sans-Serif" font-size="10.00">/variables/vincrement_p.h</text>
</a>
</g>
</g>
<!-- Node3&#45;&gt;Node54 -->
<g id="edge42" class="edge">
<title>Node3&#45;&gt;Node54</title>
<path fill="none" stroke="midnightblue" d="M2279.04,-225.79C2411.04,-223.55 2722.68,-214.29 2981,-176 2991.31,-174.47 3002.21,-172.34 3012.66,-170.04"/>
<polygon fill="midnightblue" stroke="midnightblue" points="2278.66,-222.29 2268.72,-225.96 2278.77,-229.29 2278.66,-222.29"/>
</g>
<!-- Node56 -->
<g id="node37" class="node">
<title>Node56</title>
<g id="a_node37"><a xlink:href="../../d6/dc1/vmeasurement__p_8h.html" target="_top" xlink:title=" ">
<polygon fill="white" stroke="red" points="444,-140 444,-170 606,-170 606,-140 444,-140"/>
<text text-anchor="start" x="452" y="-158" font-family="Helvetica,sans-Serif" font-size="10.00">src/libs/vpatterndb</text>
<text text-anchor="middle" x="525" y="-147" font-family="Helvetica,sans-Serif" font-size="10.00">/variables/vmeasurement_p.h</text>
</a>
</g>
</g>
<!-- Node3&#45;&gt;Node56 -->
<g id="edge43" class="edge">
<title>Node3&#45;&gt;Node56</title>
<path fill="none" stroke="midnightblue" d="M2150.76,-226.08C1891.26,-224.12 919.78,-214.33 615,-176 603.72,-174.58 591.78,-172.41 580.41,-170.02"/>
<polygon fill="midnightblue" stroke="midnightblue" points="2151.11,-229.58 2161.13,-226.15 2151.16,-222.58 2151.11,-229.58"/>
</g>
<!-- Node58 -->
<g id="node38" class="node">
<title>Node58</title>
<g id="a_node38"><a xlink:href="../../d6/d91/vnodedetail_8cpp.html" target="_top" xlink:title=" ">
<polygon fill="white" stroke="black" points="624.5,-140 624.5,-170 731.5,-170 731.5,-140 624.5,-140"/>
<text text-anchor="start" x="632.5" y="-158" font-family="Helvetica,sans-Serif" font-size="10.00">src/libs/vpatterndb</text>
<text text-anchor="middle" x="678" y="-147" font-family="Helvetica,sans-Serif" font-size="10.00">/vnodedetail.cpp</text>
</a>
</g>
</g>
<!-- Node3&#45;&gt;Node58 -->
<g id="edge46" class="edge">
<title>Node3&#45;&gt;Node58</title>
<path fill="none" stroke="midnightblue" d="M2151.23,-226.67C1905.14,-226.95 1017.28,-224.49 740,-176 732.09,-174.62 723.8,-172.46 715.95,-170.07"/>
<polygon fill="midnightblue" stroke="midnightblue" points="2151.44,-230.17 2161.43,-226.65 2151.43,-223.17 2151.44,-230.17"/>
</g>
<!-- Node59 -->
<g id="node39" class="node">
<title>Node59</title>
<g id="a_node39"><a xlink:href="../../da/de1/vpiecepath_8cpp.html" target="_top" xlink:title=" ">
<polygon fill="white" stroke="black" points="749.5,-140 749.5,-170 856.5,-170 856.5,-140 749.5,-140"/>
<text text-anchor="start" x="757.5" y="-158" font-family="Helvetica,sans-Serif" font-size="10.00">src/libs/vpatterndb</text>
<text text-anchor="middle" x="803" y="-147" font-family="Helvetica,sans-Serif" font-size="10.00">/vpiecepath.cpp</text>
</a>
</g>
</g>
<!-- Node3&#45;&gt;Node59 -->
<g id="edge49" class="edge">
<title>Node3&#45;&gt;Node59</title>
<path fill="none" stroke="midnightblue" d="M2150.92,-226.43C1917.98,-225.81 1116.64,-220.42 865,-176 857.09,-174.6 848.8,-172.44 840.95,-170.05"/>
<polygon fill="midnightblue" stroke="midnightblue" points="2151.24,-229.93 2161.25,-226.45 2151.26,-222.93 2151.24,-229.93"/>
</g>
<!-- Node3&#45;&gt;Node60 -->
<g id="edge50" class="edge">
<title>Node3&#45;&gt;Node60</title>
<path fill="none" stroke="midnightblue" d="M2278.66,-226.65C2429.97,-226.22 2822.74,-220.51 3147,-176 3166.35,-173.34 3187.69,-168.68 3204.74,-164.52"/>
<polygon fill="midnightblue" stroke="midnightblue" points="2278.61,-223.15 2268.62,-226.67 2278.62,-230.15 2278.61,-223.15"/>
</g>
<!-- Node3&#45;&gt;Node61 -->
<g id="edge51" class="edge">
<title>Node3&#45;&gt;Node61</title>
<path fill="none" stroke="midnightblue" d="M2279.04,-225.43C2483.96,-221.71 3122.08,-207.8 3326,-176 3335.2,-174.56 3344.91,-172.42 3354.15,-170.06"/>
<polygon fill="midnightblue" stroke="midnightblue" points="2278.68,-221.93 2268.75,-225.61 2278.81,-228.93 2278.68,-221.93"/>
</g>
<!-- Node4&#45;&gt;Node5 -->
<g id="edge4" class="edge">
<title>Node4&#45;&gt;Node5</title>
<path fill="none" stroke="midnightblue" d="M920.07,-143.38C902.84,-139.86 883.11,-136.26 865,-134 575.7,-97.86 500.32,-124.73 210,-98 192.92,-96.43 174.43,-94.24 157.49,-92.03"/>
<polygon fill="midnightblue" stroke="midnightblue" points="919.39,-146.82 929.9,-145.44 920.82,-139.97 919.39,-146.82"/>
</g>
<!-- Node7 -->
<g id="node7" class="node">
<title>Node7</title>
<g id="a_node7"><a xlink:href="../../dd/d66/vdxfengine_8cpp.html" target="_top" xlink:title=" ">
<polygon fill="white" stroke="black" points="1006,-73 1006,-92 1160,-92 1160,-73 1006,-73"/>
<text text-anchor="middle" x="1083" y="-80" font-family="Helvetica,sans-Serif" font-size="10.00">src/libs/vdxf/vdxfengine.cpp</text>
</a>
</g>
</g>
<!-- Node6&#45;&gt;Node7 -->
<g id="edge7" class="edge">
<title>Node6&#45;&gt;Node7</title>
<path fill="none" stroke="midnightblue" d="M1143.95,-138.58C1128.22,-124.37 1105.43,-103.77 1092.64,-92.22"/>
<polygon fill="midnightblue" stroke="midnightblue" points="1141.67,-141.25 1151.44,-145.36 1146.36,-136.05 1141.67,-141.25"/>
</g>
<!-- Node8 -->
<g id="node8" class="node">
<title>Node8</title>
<g id="a_node8"><a xlink:href="../../de/da8/vbank_8cpp.html" target="_top" xlink:title=" ">
<polygon fill="white" stroke="black" points="1178,-73 1178,-92 1322,-92 1322,-73 1178,-73"/>
<text text-anchor="middle" x="1250" y="-80" font-family="Helvetica,sans-Serif" font-size="10.00">src/libs/vlayout/vbank.cpp</text>
</a>
</g>
</g>
<!-- Node6&#45;&gt;Node8 -->
<g id="edge8" class="edge">
<title>Node6&#45;&gt;Node8</title>
<path fill="none" stroke="midnightblue" d="M1179.97,-138.97C1197.93,-124.75 1224.27,-103.88 1239,-92.22"/>
<polygon fill="midnightblue" stroke="midnightblue" points="1177.58,-136.4 1171.91,-145.36 1181.93,-141.89 1177.58,-136.4"/>
</g>
<!-- Node9 -->
<g id="node9" class="node">
<title>Node9</title>
<g id="a_node9"><a xlink:href="../../df/d5d/vcontour_8cpp.html" target="_top" xlink:title=" ">
<polygon fill="white" stroke="black" points="252,-73 252,-92 408,-92 408,-73 252,-73"/>
<text text-anchor="middle" x="330" y="-80" font-family="Helvetica,sans-Serif" font-size="10.00">src/libs/vlayout/vcontour.cpp</text>
</a>
</g>
</g>
<!-- Node6&#45;&gt;Node9 -->
<g id="edge9" class="edge">
<title>Node6&#45;&gt;Node9</title>
<path fill="none" stroke="midnightblue" d="M1117.37,-143.14C1101.88,-139.68 1084.25,-136.18 1068,-134 780.8,-95.42 705.02,-129.87 417,-98 403.45,-96.5 388.81,-94.29 375.47,-92.05"/>
<polygon fill="midnightblue" stroke="midnightblue" points="1116.68,-146.58 1127.21,-145.4 1118.25,-139.75 1116.68,-146.58"/>
</g>
<!-- Node10 -->
<g id="node10" class="node">
<title>Node10</title>
<g id="a_node10"><a xlink:href="../../d3/d39/vlayoutgenerator_8cpp.html" target="_top" xlink:title=" ">
<polygon fill="white" stroke="black" points="426.5,-73 426.5,-92 623.5,-92 623.5,-73 426.5,-73"/>
<text text-anchor="middle" x="525" y="-80" font-family="Helvetica,sans-Serif" font-size="10.00">src/libs/vlayout/vlayoutgenerator.cpp</text>
</a>
</g>
</g>
<!-- Node6&#45;&gt;Node10 -->
<g id="edge10" class="edge">
<title>Node6&#45;&gt;Node10</title>
<path fill="none" stroke="midnightblue" d="M1116.13,-143.12C1100.93,-139.77 1083.8,-136.34 1068,-134 876.1,-105.55 825.86,-118.91 633,-98 617.2,-96.29 600.14,-94.14 584.35,-92.02"/>
<polygon fill="midnightblue" stroke="midnightblue" points="1115.78,-146.63 1126.31,-145.42 1117.32,-139.81 1115.78,-146.63"/>
</g>
<!-- Node11 -->
<g id="node11" class="node">
<title>Node11</title>
<g id="a_node11"><a xlink:href="../../d2/d2d/vlayoutpaper__p_8h.html" target="_top" xlink:title=" ">
<polygon fill="white" stroke="black" points="808.5,-73 808.5,-92 987.5,-92 987.5,-73 808.5,-73"/>
<text text-anchor="middle" x="898" y="-80" font-family="Helvetica,sans-Serif" font-size="10.00">src/libs/vlayout/vlayoutpaper_p.h</text>
</a>
</g>
</g>
<!-- Node6&#45;&gt;Node11 -->
<g id="edge11" class="edge">
<title>Node6&#45;&gt;Node11</title>
<path fill="none" stroke="midnightblue" d="M1119.59,-142.9C1067,-128.8 977.39,-104.78 929.84,-92.03"/>
<polygon fill="midnightblue" stroke="midnightblue" points="1118.71,-146.29 1129.28,-145.5 1120.52,-139.53 1118.71,-146.29"/>
</g>
<!-- Node12 -->
<g id="node12" class="node">
<title>Node12</title>
<g id="a_node12"><a xlink:href="../../d1/dd1/vlayoutpaper_8cpp.html" target="_top" xlink:title=" ">
<polygon fill="white" stroke="black" points="627,-6 627,-25 805,-25 805,-6 627,-6"/>
<text text-anchor="middle" x="716" y="-13" font-family="Helvetica,sans-Serif" font-size="10.00">src/libs/vlayout/vlayoutpaper.cpp</text>
</a>
</g>
</g>
<!-- Node6&#45;&gt;Node12 -->
<g id="edge13" class="edge">
<title>Node6&#45;&gt;Node12</title>
<path fill="none" stroke="midnightblue" d="M1117.77,-143.12C1102.18,-139.62 1084.39,-136.11 1068,-134 1022.5,-128.16 274.72,-131.14 243,-98 233.47,-88.05 233.79,-77.25 243,-67 268.14,-39.04 496.91,-25.3 626.85,-19.7"/>
<polygon fill="midnightblue" stroke="midnightblue" points="1117.13,-146.57 1127.66,-145.41 1118.7,-139.75 1117.13,-146.57"/>
</g>
<!-- Node13 -->
<g id="node13" class="node">
<title>Node13</title>
<g id="a_node13"><a xlink:href="../../db/d5c/vposition_8h.html" target="_top" xlink:title=" ">
<polygon fill="white" stroke="red" points="642,-73 642,-92 790,-92 790,-73 642,-73"/>
<text text-anchor="middle" x="716" y="-80" font-family="Helvetica,sans-Serif" font-size="10.00">src/libs/vlayout/vposition.h</text>
</a>
</g>
</g>
<!-- Node6&#45;&gt;Node13 -->
<g id="edge14" class="edge">
<title>Node6&#45;&gt;Node13</title>
<path fill="none" stroke="midnightblue" d="M1114.51,-143.25C1099.7,-140.03 1083.2,-136.65 1068,-134 949.17,-113.3 918.21,-116.38 799,-98 787.29,-96.19 774.68,-94.08 762.91,-92.03"/>
<polygon fill="midnightblue" stroke="midnightblue" points="1113.95,-146.71 1124.47,-145.45 1115.46,-139.87 1113.95,-146.71"/>
</g>
<!-- Node15 -->
<g id="node14" class="node">
<title>Node15</title>
<g id="a_node14"><a xlink:href="../../dd/d70/vlayoutpiece_8cpp.html" target="_top" xlink:title=" ">
<polygon fill="white" stroke="black" points="1377.5,-73 1377.5,-92 1554.5,-92 1554.5,-73 1377.5,-73"/>
<text text-anchor="middle" x="1466" y="-80" font-family="Helvetica,sans-Serif" font-size="10.00">src/libs/vlayout/vlayoutpiece.cpp</text>
</a>
</g>
</g>
<!-- Node6&#45;&gt;Node15 -->
<g id="edge16" class="edge">
<title>Node6&#45;&gt;Node15</title>
<path fill="none" stroke="midnightblue" d="M1207.89,-143.16C1268.71,-129.1 1373.59,-104.86 1429.08,-92.03"/>
<polygon fill="midnightblue" stroke="midnightblue" points="1206.74,-139.83 1197.79,-145.5 1208.32,-146.65 1206.74,-139.83"/>
</g>
<!-- Node11&#45;&gt;Node12 -->
<g id="edge12" class="edge">
<title>Node11&#45;&gt;Node12</title>
<path fill="none" stroke="midnightblue" d="M864.22,-69.44C828.12,-56.54 771.79,-36.42 739.98,-25.06"/>
<polygon fill="midnightblue" stroke="midnightblue" points="863.24,-72.8 873.83,-72.87 865.59,-66.21 863.24,-72.8"/>
</g>
<!-- Node13&#45;&gt;Node12 -->
<g id="edge15" class="edge">
<title>Node13&#45;&gt;Node12</title>
<path fill="none" stroke="midnightblue" d="M716,-62.54C716,-50.17 716,-34.62 716,-25.13"/>
<polygon fill="midnightblue" stroke="midnightblue" points="712.5,-62.73 716,-72.73 719.5,-62.73 712.5,-62.73"/>
</g>
<!-- Node17&#45;&gt;Node2 -->
<g id="edge37" class="edge">
<title>Node17&#45;&gt;Node2</title>
<path fill="none" stroke="midnightblue" d="M2843.61,-144.32C2877.2,-140.48 2916.98,-136.42 2953,-134 3527.48,-95.35 3676.99,-171.94 4248,-98 4250.74,-97.65 4253.54,-97.22 4256.35,-96.75"/>
<polygon fill="midnightblue" stroke="midnightblue" points="2842.93,-140.87 2833.4,-145.49 2843.74,-147.82 2842.93,-140.87"/>
</g>
<!-- Node17&#45;&gt;Node15 -->
<g id="edge29" class="edge">
<title>Node17&#45;&gt;Node15</title>
<path fill="none" stroke="midnightblue" d="M2658.25,-152.6C2447.58,-149.07 1966.51,-137.05 1564,-98 1548.68,-96.51 1532.09,-94.29 1517,-92.04"/>
<polygon fill="midnightblue" stroke="midnightblue" points="2658.33,-156.1 2668.39,-152.77 2658.44,-149.1 2658.33,-156.1"/>
</g>
<!-- Node17&#45;&gt;Node16 -->
<g id="edge30" class="edge">
<title>Node17&#45;&gt;Node16</title>
<path fill="none" stroke="midnightblue" d="M2658.14,-151.09C2474.28,-145.43 2088.55,-130.54 1764,-98 1748.55,-96.45 1731.83,-94.24 1716.57,-92.01"/>
<polygon fill="midnightblue" stroke="midnightblue" points="2658.25,-154.6 2668.35,-151.4 2658.46,-147.6 2658.25,-154.6"/>
</g>
<!-- Node18 -->
<g id="node17" class="node">
<title>Node18</title>
<g id="a_node17"><a xlink:href="../../d4/d90/fvupdater_8cpp.html" target="_top" xlink:title=" ">
<polygon fill="white" stroke="black" points="2527.5,-73 2527.5,-92 2680.5,-92 2680.5,-73 2527.5,-73"/>
<text text-anchor="middle" x="2604" y="-80" font-family="Helvetica,sans-Serif" font-size="10.00">src/libs/fervor/fvupdater.cpp</text>
</a>
</g>
</g>
<!-- Node17&#45;&gt;Node18 -->
<g id="edge19" class="edge">
<title>Node17&#45;&gt;Node18</title>
<path fill="none" stroke="midnightblue" d="M2736.98,-141.37C2704.23,-127.12 2651.87,-104.33 2623.61,-92.03"/>
<polygon fill="midnightblue" stroke="midnightblue" points="2735.89,-144.71 2746.46,-145.5 2738.69,-138.3 2735.89,-144.71"/>
</g>
<!-- Node19 -->
<g id="node18" class="node">
<title>Node19</title>
<g id="a_node18"><a xlink:href="../../d9/dc8/dxiface_8cpp.html" target="_top" xlink:title=" ">
<polygon fill="white" stroke="black" points="2698.5,-73 2698.5,-92 2833.5,-92 2833.5,-73 2698.5,-73"/>
<text text-anchor="middle" x="2766" y="-80" font-family="Helvetica,sans-Serif" font-size="10.00">src/libs/vdxf/dxiface.cpp</text>
</a>
</g>
</g>
<!-- Node17&#45;&gt;Node19 -->
<g id="edge20" class="edge">
<title>Node17&#45;&gt;Node19</title>
<path fill="none" stroke="midnightblue" d="M2766,-134.94C2766,-121.03 2766,-102.82 2766,-92.22"/>
<polygon fill="midnightblue" stroke="midnightblue" points="2762.5,-135.36 2766,-145.36 2769.5,-135.36 2762.5,-135.36"/>
</g>
<!-- Node20 -->
<g id="node19" class="node">
<title>Node20</title>
<g id="a_node19"><a xlink:href="../../da/d75/vabstractarc__p_8h.html" target="_top" xlink:title=" ">
<polygon fill="white" stroke="red" points="2851.5,-67.5 2851.5,-97.5 2958.5,-97.5 2958.5,-67.5 2851.5,-67.5"/>
<text text-anchor="start" x="2859.5" y="-85.5" font-family="Helvetica,sans-Serif" font-size="10.00">src/libs/vgeometry</text>
<text text-anchor="middle" x="2905" y="-74.5" font-family="Helvetica,sans-Serif" font-size="10.00">/vabstractarc_p.h</text>
</a>
</g>
</g>
<!-- Node17&#45;&gt;Node20 -->
<g id="edge21" class="edge">
<title>Node17&#45;&gt;Node20</title>
<path fill="none" stroke="midnightblue" d="M2791.76,-140.93C2816.09,-128.59 2852.47,-110.14 2877.39,-97.51"/>
<polygon fill="midnightblue" stroke="midnightblue" points="2790.1,-137.85 2782.77,-145.5 2793.27,-144.09 2790.1,-137.85"/>
</g>
<!-- Node22 -->
<g id="node20" class="node">
<title>Node22</title>
<g id="a_node20"><a xlink:href="../../dc/da3/varc__p_8h.html" target="_top" xlink:title=" ">
<polygon fill="white" stroke="red" points="2976.5,-67.5 2976.5,-97.5 3083.5,-97.5 3083.5,-67.5 2976.5,-67.5"/>
<text text-anchor="start" x="2984.5" y="-85.5" font-family="Helvetica,sans-Serif" font-size="10.00">src/libs/vgeometry</text>
<text text-anchor="middle" x="3030" y="-74.5" font-family="Helvetica,sans-Serif" font-size="10.00">/varc_p.h</text>
</a>
</g>
</g>
<!-- Node17&#45;&gt;Node22 -->
<g id="edge22" class="edge">
<title>Node17&#45;&gt;Node22</title>
<path fill="none" stroke="midnightblue" d="M2807.77,-142.85C2853.74,-130.57 2927.71,-110.82 2977.55,-97.51"/>
<polygon fill="midnightblue" stroke="midnightblue" points="2806.6,-139.53 2797.84,-145.5 2808.41,-146.3 2806.6,-139.53"/>
</g>
<!-- Node24 -->
<g id="node21" class="node">
<title>Node24</title>
<g id="a_node21"><a xlink:href="../../d5/d8e/vcubicbezier__p_8h.html" target="_top" xlink:title=" ">
<polygon fill="white" stroke="red" points="3101.5,-67.5 3101.5,-97.5 3208.5,-97.5 3208.5,-67.5 3101.5,-67.5"/>
<text text-anchor="start" x="3109.5" y="-85.5" font-family="Helvetica,sans-Serif" font-size="10.00">src/libs/vgeometry</text>
<text text-anchor="middle" x="3155" y="-74.5" font-family="Helvetica,sans-Serif" font-size="10.00">/vcubicbezier_p.h</text>
</a>
</g>
</g>
<!-- Node17&#45;&gt;Node24 -->
<g id="edge23" class="edge">
<title>Node17&#45;&gt;Node24</title>
<path fill="none" stroke="midnightblue" d="M2822.71,-143.64C2840.12,-140.5 2859.34,-137.07 2877,-134 2972.45,-117.41 2996.97,-116.87 3092,-98 3095.08,-97.39 3098.24,-96.74 3101.43,-96.06"/>
<polygon fill="midnightblue" stroke="midnightblue" points="2821.91,-140.23 2812.69,-145.45 2823.16,-147.12 2821.91,-140.23"/>
</g>
<!-- Node26 -->
<g id="node22" class="node">
<title>Node26</title>
<g id="a_node22"><a xlink:href="../../df/dde/vellipticalarc__p_8h.html" target="_top" xlink:title=" ">
<polygon fill="white" stroke="black" points="3226.5,-67.5 3226.5,-97.5 3333.5,-97.5 3333.5,-67.5 3226.5,-67.5"/>
<text text-anchor="start" x="3234.5" y="-85.5" font-family="Helvetica,sans-Serif" font-size="10.00">src/libs/vgeometry</text>
<text text-anchor="middle" x="3280" y="-74.5" font-family="Helvetica,sans-Serif" font-size="10.00">/vellipticalarc_p.h</text>
</a>
</g>
</g>
<!-- Node17&#45;&gt;Node26 -->
<g id="edge24" class="edge">
<title>Node17&#45;&gt;Node26</title>
<path fill="none" stroke="midnightblue" d="M2819.02,-143.64C2837.34,-140.27 2858.03,-136.71 2877,-134 3027.43,-112.51 3067.13,-123.09 3217,-98 3220.1,-97.48 3223.27,-96.9 3226.47,-96.28"/>
<polygon fill="midnightblue" stroke="midnightblue" points="2818.3,-140.21 2809.11,-145.48 2819.58,-147.09 2818.3,-140.21"/>
</g>
<!-- Node27 -->
<g id="node23" class="node">
<title>Node27</title>
<g id="a_node23"><a xlink:href="../../d6/dfb/vellipticalarc_8cpp.html" target="_top" xlink:title=" ">
<polygon fill="white" stroke="black" points="3267.5,-0.5 3267.5,-30.5 3374.5,-30.5 3374.5,-0.5 3267.5,-0.5"/>
<text text-anchor="start" x="3275.5" y="-18.5" font-family="Helvetica,sans-Serif" font-size="10.00">src/libs/vgeometry</text>
<text text-anchor="middle" x="3321" y="-7.5" font-family="Helvetica,sans-Serif" font-size="10.00">/vellipticalarc.cpp</text>
</a>
</g>
</g>
<!-- Node17&#45;&gt;Node27 -->
<g id="edge26" class="edge">
<title>Node17&#45;&gt;Node27</title>
<path fill="none" stroke="midnightblue" d="M2817.56,-143.59C2836.22,-140.12 2857.5,-136.51 2877,-134 2928.4,-127.4 3306.8,-136.03 3342,-98 3359.17,-79.45 3343.54,-48.75 3331.61,-30.8"/>
<polygon fill="midnightblue" stroke="midnightblue" points="2816.66,-140.2 2807.49,-145.5 2817.96,-147.08 2816.66,-140.2"/>
</g>
<!-- Node28 -->
<g id="node24" class="node">
<title>Node28</title>
<g id="a_node24"><a xlink:href="../../d1/d76/vspline__p_8h.html" target="_top" xlink:title=" ">
<polygon fill="white" stroke="red" points="3390.5,-67.5 3390.5,-97.5 3497.5,-97.5 3497.5,-67.5 3390.5,-67.5"/>
<text text-anchor="start" x="3398.5" y="-85.5" font-family="Helvetica,sans-Serif" font-size="10.00">src/libs/vgeometry</text>
<text text-anchor="middle" x="3444" y="-74.5" font-family="Helvetica,sans-Serif" font-size="10.00">/vspline_p.h</text>
</a>
</g>
</g>
<!-- Node17&#45;&gt;Node28 -->
<g id="edge27" class="edge">
<title>Node17&#45;&gt;Node28</title>
<path fill="none" stroke="midnightblue" d="M2817.06,-143.63C2835.84,-140.12 2857.32,-136.48 2877,-134 3097.62,-106.25 3155.85,-129.26 3376,-98 3380.66,-97.34 3385.48,-96.54 3390.3,-95.67"/>
<polygon fill="midnightblue" stroke="midnightblue" points="2816.39,-140.19 2807.22,-145.5 2817.7,-147.07 2816.39,-140.19"/>
</g>
<!-- Node30 -->
<g id="node25" class="node">
<title>Node30</title>
<g id="a_node25"><a xlink:href="../../d9/d15/vabstractpiece_8cpp.html" target="_top" xlink:title=" ">
<polygon fill="white" stroke="black" points="3516,-73 3516,-92 3702,-92 3702,-73 3516,-73"/>
<text text-anchor="middle" x="3609" y="-80" font-family="Helvetica,sans-Serif" font-size="10.00">src/libs/vlayout/vabstractpiece.cpp</text>
</a>
</g>
</g>
<!-- Node17&#45;&gt;Node30 -->
<g id="edge28" class="edge">
<title>Node17&#45;&gt;Node30</title>
<path fill="none" stroke="midnightblue" d="M2816.57,-143.56C2835.45,-140.01 2857.14,-136.35 2877,-134 3155.08,-101.11 3227.34,-125.54 3506,-98 3521.81,-96.44 3538.93,-94.24 3554.58,-92.02"/>
<polygon fill="midnightblue" stroke="midnightblue" points="2815.84,-140.13 2806.68,-145.45 2817.16,-147.01 2815.84,-140.13"/>
</g>
<!-- Node31 -->
<g id="node26" class="node">
<title>Node31</title>
<g id="a_node26"><a xlink:href="../../db/d65/dialogexporttocsv_8cpp.html" target="_top" xlink:title=" ">
<polygon fill="white" stroke="black" points="3720.5,-67.5 3720.5,-97.5 3847.5,-97.5 3847.5,-67.5 3720.5,-67.5"/>
<text text-anchor="start" x="3728.5" y="-85.5" font-family="Helvetica,sans-Serif" font-size="10.00">src/libs/vmisc/dialogs</text>
<text text-anchor="middle" x="3784" y="-74.5" font-family="Helvetica,sans-Serif" font-size="10.00">/dialogexporttocsv.cpp</text>
</a>
</g>
</g>
<!-- Node17&#45;&gt;Node31 -->
<g id="edge31" class="edge">
<title>Node17&#45;&gt;Node31</title>
<path fill="none" stroke="midnightblue" d="M2815.84,-143.54C2834.9,-139.93 2856.87,-136.24 2877,-134 3245.74,-93.01 3342.64,-142.27 3711,-98 3714.08,-97.63 3717.22,-97.2 3720.39,-96.73"/>
<polygon fill="midnightblue" stroke="midnightblue" points="2815.04,-140.13 2805.88,-145.47 2816.37,-147 2815.04,-140.13"/>
</g>
<!-- Node32 -->
<g id="node27" class="node">
<title>Node32</title>
<g id="a_node27"><a xlink:href="../../d6/d0b/def_8cpp.html" target="_top" xlink:title=" ">
<polygon fill="white" stroke="black" points="3866,-73 3866,-92 3988,-92 3988,-73 3866,-73"/>
<text text-anchor="middle" x="3927" y="-80" font-family="Helvetica,sans-Serif" font-size="10.00">src/libs/vmisc/def.cpp</text>
</a>
</g>
</g>
<!-- Node17&#45;&gt;Node32 -->
<g id="edge32" class="edge">
<title>Node17&#45;&gt;Node32</title>
<path fill="none" stroke="midnightblue" d="M2815.6,-143.51C2834.71,-139.88 2856.78,-136.18 2877,-134 3309.89,-87.28 3423.68,-149.74 3856,-98 3867.49,-96.62 3879.89,-94.37 3891.07,-92.03"/>
<polygon fill="midnightblue" stroke="midnightblue" points="2814.77,-140.11 2805.62,-145.46 2816.1,-146.98 2814.77,-140.11"/>
</g>
<!-- Node33 -->
<g id="node28" class="node">
<title>Node33</title>
<g id="a_node28"><a xlink:href="../../d0/df6/vabstractapplication_8cpp.html" target="_top" xlink:title=" ">
<polygon fill="white" stroke="black" points="1773,-73 1773,-92 1979,-92 1979,-73 1773,-73"/>
<text text-anchor="middle" x="1876" y="-80" font-family="Helvetica,sans-Serif" font-size="10.00">src/libs/vmisc/vabstractapplication.cpp</text>
</a>
</g>
</g>
<!-- Node17&#45;&gt;Node33 -->
<g id="edge33" class="edge">
<title>Node17&#45;&gt;Node33</title>
<path fill="none" stroke="midnightblue" d="M2658.05,-148.18C2507.68,-139.62 2226.73,-122.03 1988,-98 1971.42,-96.33 1953.5,-94.17 1936.96,-92.03"/>
<polygon fill="midnightblue" stroke="midnightblue" points="2658.02,-151.68 2668.21,-148.75 2658.42,-144.69 2658.02,-151.68"/>
</g>
<!-- Node34 -->
<g id="node29" class="node">
<title>Node34</title>
<g id="a_node29"><a xlink:href="../../d4/d4f/pmsystems_8cpp.html" target="_top" xlink:title=" ">
<polygon fill="white" stroke="black" points="1997.5,-67.5 1997.5,-97.5 2104.5,-97.5 2104.5,-67.5 1997.5,-67.5"/>
<text text-anchor="start" x="2005.5" y="-85.5" font-family="Helvetica,sans-Serif" font-size="10.00">src/libs/vpatterndb</text>
<text text-anchor="middle" x="2051" y="-74.5" font-family="Helvetica,sans-Serif" font-size="10.00">/pmsystems.cpp</text>
</a>
</g>
</g>
<!-- Node17&#45;&gt;Node34 -->
<g id="edge34" class="edge">
<title>Node17&#45;&gt;Node34</title>
<path fill="none" stroke="midnightblue" d="M2658.04,-149.51C2528.08,-143.02 2303.51,-128.28 2113,-98 2110.27,-97.57 2107.48,-97.08 2104.67,-96.55"/>
<polygon fill="midnightblue" stroke="midnightblue" points="2658.23,-153.03 2668.39,-150.02 2658.57,-146.04 2658.23,-153.03"/>
</g>
<!-- Node17&#45;&gt;Node35 -->
<g id="edge35" class="edge">
<title>Node17&#45;&gt;Node35</title>
<path fill="none" stroke="midnightblue" d="M2815.36,-143.51C2834.52,-139.86 2856.7,-136.14 2877,-134 3372.28,-81.7 3503.11,-162.16 3997,-98 4000.01,-97.61 4003.08,-97.14 4006.17,-96.61"/>
<polygon fill="midnightblue" stroke="midnightblue" points="2814.5,-140.11 2805.36,-145.46 2815.84,-146.98 2814.5,-140.11"/>
</g>
<!-- Node17&#45;&gt;Node36 -->
<g id="edge36" class="edge">
<title>Node17&#45;&gt;Node36</title>
<path fill="none" stroke="midnightblue" d="M2829.54,-143.99C2855.91,-140.23 2886.87,-136.3 2915,-134 3449.9,-90.24 3589.71,-166.52 4122,-98 4125.01,-97.61 4128.08,-97.15 4131.17,-96.62"/>
<polygon fill="midnightblue" stroke="midnightblue" points="2828.69,-140.58 2819.3,-145.48 2829.7,-147.51 2828.69,-140.58"/>
</g>
<!-- Node37 -->
<g id="node32" class="node">
<title>Node37</title>
<g id="a_node32"><a xlink:href="../../df/dba/vpiecenode__p_8h.html" target="_top" xlink:title=" ">
<polygon fill="white" stroke="black" points="2122.5,-67.5 2122.5,-97.5 2229.5,-97.5 2229.5,-67.5 2122.5,-67.5"/>
<text text-anchor="start" x="2130.5" y="-85.5" font-family="Helvetica,sans-Serif" font-size="10.00">src/libs/vpatterndb</text>
<text text-anchor="middle" x="2176" y="-74.5" font-family="Helvetica,sans-Serif" font-size="10.00">/vpiecenode_p.h</text>
</a>
</g>
</g>
<!-- Node17&#45;&gt;Node37 -->
<g id="edge38" class="edge">
<title>Node17&#45;&gt;Node37</title>
<path fill="none" stroke="midnightblue" d="M2658.24,-146.37C2551.37,-137.9 2383.17,-122.16 2239,-98 2235.9,-97.48 2232.73,-96.9 2229.53,-96.28"/>
<polygon fill="midnightblue" stroke="midnightblue" points="2658.15,-149.87 2668.39,-147.16 2658.7,-142.89 2658.15,-149.87"/>
</g>
<!-- Node39 -->
<g id="node34" class="node">
<title>Node39</title>
<g id="a_node34"><a xlink:href="../../de/d3e/vtranslatevars_8cpp.html" target="_top" xlink:title=" ">
<polygon fill="white" stroke="black" points="2248,-67.5 2248,-97.5 2358,-97.5 2358,-67.5 2248,-67.5"/>
<text text-anchor="start" x="2256" y="-85.5" font-family="Helvetica,sans-Serif" font-size="10.00">src/libs/vpatterndb</text>
<text text-anchor="middle" x="2303" y="-74.5" font-family="Helvetica,sans-Serif" font-size="10.00">/vtranslatevars.cpp</text>
</a>
</g>
</g>
<!-- Node17&#45;&gt;Node39 -->
<g id="edge40" class="edge">
<title>Node17&#45;&gt;Node39</title>
<path fill="none" stroke="midnightblue" d="M2681.66,-144.23C2600.67,-134.37 2475.05,-117.79 2367,-98 2364.09,-97.47 2361.1,-96.89 2358.1,-96.29"/>
<polygon fill="midnightblue" stroke="midnightblue" points="2681.45,-147.73 2691.8,-145.46 2682.29,-140.79 2681.45,-147.73"/>
</g>
<!-- Node40 -->
<g id="node35" class="node">
<title>Node40</title>
<g id="a_node35"><a xlink:href="../../df/d40/export__format__combobox_8cpp.html" target="_top" xlink:title=" ">
<polygon fill="white" stroke="black" points="2376.5,-67.5 2376.5,-97.5 2509.5,-97.5 2509.5,-67.5 2376.5,-67.5"/>
<text text-anchor="start" x="2384.5" y="-85.5" font-family="Helvetica,sans-Serif" font-size="10.00">src/libs/vwidgets/export</text>
<text text-anchor="middle" x="2443" y="-74.5" font-family="Helvetica,sans-Serif" font-size="10.00">_format_combobox.cpp</text>
</a>
</g>
</g>
<!-- Node17&#45;&gt;Node40 -->
<g id="edge41" class="edge">
<title>Node17&#45;&gt;Node40</title>
<path fill="none" stroke="midnightblue" d="M2717,-143.31C2660.94,-131.07 2568.91,-110.98 2507.17,-97.51"/>
<polygon fill="midnightblue" stroke="midnightblue" points="2716.52,-146.78 2727.04,-145.5 2718.02,-139.94 2716.52,-146.78"/>
</g>
<!-- Node26&#45;&gt;Node27 -->
<g id="edge25" class="edge">
<title>Node26&#45;&gt;Node27</title>
<path fill="none" stroke="midnightblue" d="M3294.28,-58.87C3300.21,-49.46 3306.91,-38.83 3312.12,-30.58"/>
<polygon fill="midnightblue" stroke="midnightblue" points="3291.27,-57.07 3288.9,-67.4 3297.19,-60.81 3291.27,-57.07"/>
</g>
<!-- Node37&#45;&gt;Node38 -->
<g id="edge39" class="edge">
<title>Node37&#45;&gt;Node38</title>
<path fill="none" stroke="midnightblue" d="M2112.42,-66.99C2001.43,-46.55 1883.45,-31.04 1816.59,-22.83"/>
<polygon fill="midnightblue" stroke="midnightblue" points="2111.98,-70.47 2122.45,-68.86 2113.26,-63.59 2111.98,-70.47"/>
</g>
<!-- Node63 -->
<g id="node43" class="node">
<title>Node63</title>
<g id="a_node43"><a xlink:href="../../d8/dea/pattern__piece__tool_8cpp.html" target="_top" xlink:title=" ">
<polygon fill="white" stroke="black" points="3703.5,-140 3703.5,-170 3834.5,-170 3834.5,-140 3703.5,-140"/>
<text text-anchor="start" x="3711.5" y="-158" font-family="Helvetica,sans-Serif" font-size="10.00">src/libs/vtools/tools</text>
<text text-anchor="middle" x="3769" y="-147" font-family="Helvetica,sans-Serif" font-size="10.00">/pattern_piece_tool.cpp</text>
</a>
</g>
</g>
<!-- Node62&#45;&gt;Node63 -->
<g id="edge54" class="edge">
<title>Node62&#45;&gt;Node63</title>
<path fill="none" stroke="midnightblue" d="M3645.75,-208.34C3673.82,-196.42 3709.98,-181.07 3735.86,-170.07"/>
<polygon fill="midnightblue" stroke="midnightblue" points="3644.03,-205.27 3636.19,-212.4 3646.77,-211.72 3644.03,-205.27"/>
</g>
<!-- Node64 -->
<g id="node44" class="node">
<title>Node64</title>
<g id="a_node44"><a xlink:href="../../dd/d33/addpiece_8cpp.html" target="_top" xlink:title=" ">
<polygon fill="white" stroke="black" points="3520.5,-140 3520.5,-170 3685.5,-170 3685.5,-140 3520.5,-140"/>
<text text-anchor="start" x="3528.5" y="-158" font-family="Helvetica,sans-Serif" font-size="10.00">src/libs/vtools/undocommands</text>
<text text-anchor="middle" x="3603" y="-147" font-family="Helvetica,sans-Serif" font-size="10.00">/addpiece.cpp</text>
</a>
</g>
</g>
<!-- Node62&#45;&gt;Node64 -->
<g id="edge55" class="edge">
<title>Node62&#45;&gt;Node64</title>
<path fill="none" stroke="midnightblue" d="M3603,-202.23C3603,-191.57 3603,-179.41 3603,-170.25"/>
<polygon fill="midnightblue" stroke="midnightblue" points="3599.5,-202.23 3603,-212.23 3606.5,-202.23 3599.5,-202.23"/>
</g>
<!-- Node65&#45;&gt;Node63 -->
<g id="edge57" class="edge">
<title>Node65&#45;&gt;Node63</title>
<path fill="none" stroke="midnightblue" d="M3780.15,-202.23C3777.58,-191.57 3774.65,-179.41 3772.44,-170.25"/>
<polygon fill="midnightblue" stroke="midnightblue" points="3776.81,-203.33 3782.56,-212.23 3783.62,-201.69 3776.81,-203.33"/>
</g>
<!-- Node66 -->
<g id="node46" class="node">
<title>Node66</title>
<g id="a_node46"><a xlink:href="../../da/d5c/deletepiece_8cpp.html" target="_top" xlink:title=" ">
<polygon fill="white" stroke="black" points="3852.5,-140 3852.5,-170 4017.5,-170 4017.5,-140 3852.5,-140"/>
<text text-anchor="start" x="3860.5" y="-158" font-family="Helvetica,sans-Serif" font-size="10.00">src/libs/vtools/undocommands</text>
<text text-anchor="middle" x="3935" y="-147" font-family="Helvetica,sans-Serif" font-size="10.00">/deletepiece.cpp</text>
</a>
</g>
</g>
<!-- Node65&#45;&gt;Node66 -->
<g id="edge58" class="edge">
<title>Node65&#45;&gt;Node66</title>
<path fill="none" stroke="midnightblue" d="M3825.04,-208.03C3850.13,-196.16 3882.23,-180.97 3905.26,-170.07"/>
<polygon fill="midnightblue" stroke="midnightblue" points="3823.34,-204.96 3815.79,-212.4 3826.33,-211.29 3823.34,-204.96"/>
</g>
<!-- Node67&#45;&gt;Node63 -->
<g id="edge62" class="edge">
<title>Node67&#45;&gt;Node63</title>
<path fill="none" stroke="midnightblue" d="M4035.41,-212.23C3979.46,-203.07 3906.85,-190.25 3843,-176 3835.08,-174.23 3826.73,-172.17 3818.61,-170.06"/>
<polygon fill="midnightblue" stroke="midnightblue" points="4034.87,-215.68 4045.3,-213.83 4035.99,-208.77 4034.87,-215.68"/>
</g>
<!-- Node68 -->
<g id="node48" class="node">
<title>Node68</title>
<g id="a_node48"><a xlink:href="../../d9/d3a/anchorpoint__tool_8cpp.html" target="_top" xlink:title=" ">
<polygon fill="white" stroke="black" points="4421.5,-134.5 4421.5,-175.5 4560.5,-175.5 4560.5,-134.5 4421.5,-134.5"/>
<text text-anchor="start" x="4429.5" y="-163.5" font-family="Helvetica,sans-Serif" font-size="10.00">src/libs/vtools/tools</text>
<text text-anchor="start" x="4429.5" y="-152.5" font-family="Helvetica,sans-Serif" font-size="10.00">/nodeDetails/anchorpoint</text>
<text text-anchor="middle" x="4491" y="-141.5" font-family="Helvetica,sans-Serif" font-size="10.00">_tool.cpp</text>
</a>
</g>
</g>
<!-- Node67&#45;&gt;Node68 -->
<g id="edge60" class="edge">
<title>Node67&#45;&gt;Node68</title>
<path fill="none" stroke="midnightblue" d="M4220.52,-211.93C4276.45,-202.66 4349.06,-189.84 4413,-176 4415.73,-175.41 4418.51,-174.79 4421.32,-174.14"/>
<polygon fill="midnightblue" stroke="midnightblue" points="4219.93,-208.48 4210.64,-213.55 4221.07,-215.38 4219.93,-208.48"/>
</g>
<!-- Node69 -->
<g id="node49" class="node">
<title>Node69</title>
<g id="a_node49"><a xlink:href="../../d3/dd9/vtoolinternalpath_8cpp.html" target="_top" xlink:title=" ">
<polygon fill="white" stroke="black" points="4035.5,-140 4035.5,-170 4220.5,-170 4220.5,-140 4035.5,-140"/>
<text text-anchor="start" x="4043.5" y="-158" font-family="Helvetica,sans-Serif" font-size="10.00">src/libs/vtools/tools</text>
<text text-anchor="middle" x="4128" y="-147" font-family="Helvetica,sans-Serif" font-size="10.00">/nodeDetails/vtoolinternalpath.cpp</text>
</a>
</g>
</g>
<!-- Node67&#45;&gt;Node69 -->
<g id="edge61" class="edge">
<title>Node67&#45;&gt;Node69</title>
<path fill="none" stroke="midnightblue" d="M4128,-202.23C4128,-191.57 4128,-179.41 4128,-170.25"/>
<polygon fill="midnightblue" stroke="midnightblue" points="4124.5,-202.23 4128,-212.23 4131.5,-202.23 4124.5,-202.23"/>
</g>
<!-- Node70 -->
<g id="node50" class="node">
<title>Node70</title>
<g id="a_node50"><a xlink:href="../../d1/d05/savepieceoptions_8cpp.html" target="_top" xlink:title=" ">
<polygon fill="white" stroke="black" points="4238.5,-140 4238.5,-170 4403.5,-170 4403.5,-140 4238.5,-140"/>
<text text-anchor="start" x="4246.5" y="-158" font-family="Helvetica,sans-Serif" font-size="10.00">src/libs/vtools/undocommands</text>
<text text-anchor="middle" x="4321" y="-147" font-family="Helvetica,sans-Serif" font-size="10.00">/savepieceoptions.cpp</text>
</a>
</g>
</g>
<!-- Node67&#45;&gt;Node70 -->
<g id="edge63" class="edge">
<title>Node67&#45;&gt;Node70</title>
<path fill="none" stroke="midnightblue" d="M4176,-208.96C4208.86,-196.96 4251.86,-181.26 4282.47,-170.07"/>
<polygon fill="midnightblue" stroke="midnightblue" points="4174.78,-205.68 4166.59,-212.4 4177.19,-212.26 4174.78,-205.68"/>
</g>
</g>
</svg>
